<?xml version="1.0" encoding="UTF-8" standalone="no"?>
<!DOCTYPE svg PUBLIC "-//W3C//DTD SVG 1.1//EN"
 "http://www.w3.org/Graphics/SVG/1.1/DTD/svg11.dtd">
<!-- Generated by graphviz version 2.40.1 (20161225.0304)
 -->
<!-- Title: logdomains Pages: 1 -->
<svg width="302pt" height="129pt"
 viewBox="0.00 0.00 301.50 129.00" xmlns="http://www.w3.org/2000/svg" xmlns:xlink="http://www.w3.org/1999/xlink">
<g id="graph0" class="graph" transform="scale(1 1) rotate(0) translate(4 125)">
<title>logdomains</title>
<polygon fill="#ffffff" stroke="transparent" points="-4,4 -4,-125 297.5,-125 297.5,4 -4,4"/>
<!-- ui -->
<g id="node1" class="node">
<title>ui</title>
<polygon fill="none" stroke="#000000" points="129.5,-84.5 129.5,-120.5 183.5,-120.5 183.5,-84.5 129.5,-84.5"/>
<text text-anchor="middle" x="156.5" y="-99.4" font-family="Courier,monospace" font-size="12.00" fill="#000000">UI</text>
</g>
<!-- dialogs -->
<g id="node2" class="node">
<title>dialogs</title>
<polygon fill="none" stroke="#000000" points="0,-.5 0,-36.5 69,-36.5 69,-.5 0,-.5"/>
<text text-anchor="middle" x="34.5" y="-15.4" font-family="Courier,monospace" font-size="12.00" fill="#000000">DIALOGS</text>
</g>
<!-- ui&#45;&gt;dialogs -->
<g id="edge1" class="edge">
<title>ui&#45;&gt;dialogs</title>
<path fill="none" stroke="#000000" d="M129.3038,-91.6176C114.7791,-85.1951 96.9652,-76.3093 82.5,-66 73.621,-59.672 64.8584,-51.6729 57.2995,-44.0521"/>
<polygon fill="#000000" stroke="#000000" points="50.182,-36.6332 60.3523,-40.734 53.6435,-40.2413 57.105,-43.8494 57.105,-43.8494 57.105,-43.8494 53.6435,-40.2413 53.8578,-46.9647 50.182,-36.6332 50.182,-36.6332"/>
<text text-anchor="middle" x="107" y="-58" font-family="Helvetica,sans-Serif" font-size="10.00" fill="#000000">is parent of</text>
</g>
<!-- window -->
<g id="node3" class="node">
<title>window</title>
<polygon fill="none" stroke="#000000" points="87.5,-.5 87.5,-36.5 149.5,-36.5 149.5,-.5 87.5,-.5"/>
<text text-anchor="middle" x="118.5" y="-15.4" font-family="Courier,monospace" font-size="12.00" fill="#000000">WINDOW</text>
</g>
<!-- ui&#45;&gt;window -->
<g id="edge2" class="edge">
<title>ui&#45;&gt;window</title>
<path fill="none" stroke="#000000" d="M148.2546,-84.2733C143.1754,-73.0456 136.5673,-58.4383 130.8691,-45.8422"/>
<polygon fill="#000000" stroke="#000000" points="126.7293,-36.6912 134.9511,-43.9475 128.7902,-41.2467 130.8511,-45.8023 130.8511,-45.8023 130.8511,-45.8023 128.7902,-41.2467 126.7511,-47.657 126.7293,-36.6912 126.7293,-36.6912"/>
</g>
<!-- menu -->
<g id="node4" class="node">
<title>menu</title>
<polygon fill="none" stroke="#000000" points="167.5,-.5 167.5,-36.5 221.5,-36.5 221.5,-.5 167.5,-.5"/>
<text text-anchor="middle" x="194.5" y="-15.4" font-family="Courier,monospace" font-size="12.00" fill="#000000">MENU</text>
</g>
<!-- ui&#45;&gt;menu -->
<g id="edge3" class="edge">
<title>ui&#45;&gt;menu</title>
<path fill="none" stroke="#000000" d="M164.7454,-84.2733C169.8246,-73.0456 176.4327,-58.4383 182.1309,-45.8422"/>
<polygon fill="#000000" stroke="#000000" points="186.2707,-36.6912 186.2489,-47.657 184.2098,-41.2467 182.1489,-45.8023 182.1489,-45.8023 182.1489,-45.8023 184.2098,-41.2467 178.0489,-43.9475 186.2707,-36.6912 186.2707,-36.6912"/>
</g>
<!-- mouse -->
<g id="node5" class="node">
<title>mouse</title>
<polygon fill="none" stroke="#000000" points="239.5,-.5 239.5,-36.5 293.5,-36.5 293.5,-.5 239.5,-.5"/>
<text text-anchor="middle" x="266.5" y="-15.4" font-family="Courier,monospace" font-size="12.00" fill="#000000">MOUSE</text>
</g>
<!-- ui&#45;&gt;mouse -->
<g id="edge4" class="edge">
<title>ui&#45;&gt;mouse</title>
<path fill="none" stroke="#000000" d="M180.0978,-84.4799C195.939,-72.383 217.0069,-56.2947 234.373,-43.0333"/>
<polygon fill="#000000" stroke="#000000" points="242.5617,-36.7801 237.3451,-46.4258 238.5879,-39.8147 234.614,-42.8493 234.614,-42.8493 234.614,-42.8493 238.5879,-39.8147 231.8829,-39.2729 242.5617,-36.7801 242.5617,-36.7801"/>
</g>
</g>
</svg>
