<?xml version="1.0" encoding="UTF-8" standalone="no"?>
<!DOCTYPE svg PUBLIC "-//W3C//DTD SVG 1.1//EN"
 "http://www.w3.org/Graphics/SVG/1.1/DTD/svg11.dtd">
<!-- Generated by graphviz version 2.38.0 (20140413.2041)
 -->
<!-- Title: TextLoggers Pages: 1 -->
<svg width="361pt" height="191pt"
 viewBox="0.00 0.00 361.00 191.00" xmlns="http://www.w3.org/2000/svg" xmlns:xlink="http://www.w3.org/1999/xlink">
<g id="graph0" class="graph" transform="scale(1 1) rotate(0) translate(4 187)">
<title>TextLoggers</title>
<polygon fill="white" stroke="none" points="-4,4 -4,-187 357,-187 357,4 -4,4"/>
<!-- tl -->
<g id="node1" class="node"><title>tl</title>
<polygon fill="none" stroke="blue" points="164.5,-146.5 164.5,-182.5 229.5,-182.5 229.5,-146.5 164.5,-146.5"/>
<text text-anchor="middle" x="197" y="-162" font-family="Helvetica,sans-Serif" font-size="10.00" fill="blue">TextLogger</text>
</g>
<!-- ptl -->
<g id="node2" class="node"><title>ptl</title>
<polygon fill="none" stroke="blue" points="45.5,-73.5 45.5,-109.5 132.5,-109.5 132.5,-73.5 45.5,-73.5"/>
<text text-anchor="middle" x="89" y="-89" font-family="Helvetica,sans-Serif" font-size="10.00" fill="blue">PlainTextLogger</text>
</g>
<!-- tl&#45;&gt;ptl -->
<g id="edge1" class="edge"><title>tl&#45;&gt;ptl</title>
<path fill="none" stroke="black" stroke-dasharray="5,2" d="M171.131,-146.494C156.942,-137.166 139.158,-125.474 123.77,-115.358"/>
<polygon fill="black" stroke="black" points="115.032,-109.614 125.86,-111.347 119.21,-112.36 123.388,-115.107 123.388,-115.107 123.388,-115.107 119.21,-112.36 120.916,-118.867 115.032,-109.614 115.032,-109.614"/>
</g>
<!-- cfl1 -->
<g id="node3" class="node"><title>cfl1</title>
<polygon fill="none" stroke="black" points="151,-73.5 151,-109.5 243,-109.5 243,-73.5 151,-73.5"/>
<text text-anchor="middle" x="197" y="-89" font-family="Helvetica,sans-Serif" font-size="10.00">ColorfulLogger_A</text>
</g>
<!-- tl&#45;&gt;cfl1 -->
<g id="edge2" class="edge"><title>tl&#45;&gt;cfl1</title>
<path fill="none" stroke="black" stroke-dasharray="5,2" d="M197,-146.313C197,-138.289 197,-128.547 197,-119.569"/>
<polygon fill="black" stroke="black" points="197,-109.529 201.5,-119.529 197,-114.529 197,-119.529 197,-119.529 197,-119.529 197,-114.529 192.5,-119.529 197,-109.529 197,-109.529"/>
</g>
<!-- cfl2 -->
<g id="node4" class="node"><title>cfl2</title>
<polygon fill="none" stroke="black" points="261,-73.5 261,-109.5 353,-109.5 353,-73.5 261,-73.5"/>
<text text-anchor="middle" x="307" y="-89" font-family="Helvetica,sans-Serif" font-size="10.00">ColorfulLogger_B</text>
</g>
<!-- tl&#45;&gt;cfl2 -->
<g id="edge3" class="edge"><title>tl&#45;&gt;cfl2</title>
<path fill="none" stroke="black" stroke-dasharray="5,2" d="M223.348,-146.494C237.935,-137.079 256.252,-125.255 272.025,-115.075"/>
<polygon fill="black" stroke="black" points="280.486,-109.614 274.525,-118.817 276.285,-112.325 272.084,-115.037 272.084,-115.037 272.084,-115.037 276.285,-112.325 269.644,-111.256 280.486,-109.614 280.486,-109.614"/>
</g>
<!-- ncfl1 -->
<g id="node5" class="node"><title>ncfl1</title>
<polygon fill="none" stroke="black" points="0,-0.5 0,-36.5 80,-36.5 80,-0.5 0,-0.5"/>
<text text-anchor="middle" x="40" y="-16" font-family="Helvetica,sans-Serif" font-size="10.00">PlainLogger_A</text>
</g>
<!-- ptl&#45;&gt;ncfl1 -->
<g id="edge4" class="edge"><title>ptl&#45;&gt;ncfl1</title>
<path fill="none" stroke="black" stroke-dasharray="5,2" d="M77.1385,-73.3129C71.2401,-64.7662 63.9958,-54.2695 57.4764,-44.8229"/>
<polygon fill="black" stroke="black" points="51.7523,-36.5288 61.136,-42.2031 54.5923,-40.644 57.4324,-44.7591 57.4324,-44.7591 57.4324,-44.7591 54.5923,-40.644 53.7288,-47.3152 51.7523,-36.5288 51.7523,-36.5288"/>
</g>
<!-- ncfl2 -->
<g id="node6" class="node"><title>ncfl2</title>
<polygon fill="none" stroke="black" points="98,-0.5 98,-36.5 178,-36.5 178,-0.5 98,-0.5"/>
<text text-anchor="middle" x="138" y="-16" font-family="Helvetica,sans-Serif" font-size="10.00">PlainLogger_B</text>
</g>
<!-- ptl&#45;&gt;ncfl2 -->
<g id="edge5" class="edge"><title>ptl&#45;&gt;ncfl2</title>
<path fill="none" stroke="black" stroke-dasharray="5,2" d="M100.862,-73.3129C106.76,-64.7662 114.004,-54.2695 120.524,-44.8229"/>
<polygon fill="black" stroke="black" points="126.248,-36.5288 124.271,-47.3152 123.408,-40.644 120.568,-44.7591 120.568,-44.7591 120.568,-44.7591 123.408,-40.644 116.864,-42.2031 126.248,-36.5288 126.248,-36.5288"/>
</g>
</g>
</svg>
