<?xml version="1.0" encoding="UTF-8" standalone="no"?>
<!DOCTYPE svg PUBLIC "-//W3C//DTD SVG 1.1//EN"
 "http://www.w3.org/Graphics/SVG/1.1/DTD/svg11.dtd">
<!-- Generated by graphviz version 2.40.1 (20161225.0304)
 -->
<!-- Title: G Pages: 1 -->
<svg width="294pt" height="415pt"
 viewBox="0.00 0.00 294.00 415.00" xmlns="http://www.w3.org/2000/svg" xmlns:xlink="http://www.w3.org/1999/xlink">
<g id="graph0" class="graph" transform="scale(1 1) rotate(0) translate(4 411)">
<title>G</title>
<polygon fill="#ffffff" stroke="transparent" points="-4,4 -4,-411 290,-411 290,4 -4,4"/>
<!-- core -->
<g id="node1" class="node">
<title>core</title>
<polygon fill="#c0c0c0" stroke="transparent" points="64.5,-246 64.5,-263 179.5,-263 179.5,-246 64.5,-246"/>
<polygon fill="none" stroke="#000000" points="64.5,-246 64.5,-263 179.5,-263 179.5,-246 64.5,-246"/>
<text text-anchor="start" x="67.5" y="-253" font-family="Courier,monospace" font-weight="bold" font-size="10.00" fill="#000000">com.aworx.lox.core</text>
<polygon fill="none" stroke="#000000" points="64.5,-229 64.5,-246 179.5,-246 179.5,-229 64.5,-229"/>
<text text-anchor="start" x="85.5" y="-235" font-family="Courier,monospace" font-size="10.00" fill="#000000">class Domain</text>
<polygon fill="none" stroke="#000000" points="64.5,-212 64.5,-229 179.5,-229 179.5,-212 64.5,-212"/>
<text text-anchor="start" x="76.5" y="-218" font-family="Courier,monospace" font-size="10.00" fill="#000000">class ScopeInfo</text>
<polygon fill="none" stroke="#000000" points="64.5,-195 64.5,-212 179.5,-212 179.5,-195 64.5,-195"/>
<text text-anchor="start" x="85.5" y="-201" font-family="Courier,monospace" font-size="10.00" fill="#000000">class Logger</text>
<polygon fill="none" stroke="#000000" points="64.5,-178 64.5,-195 179.5,-195 179.5,-178 64.5,-178"/>
<text text-anchor="start" x="73.5" y="-184" font-family="Courier,monospace" font-size="10.00" fill="#000000">class TextLogger</text>
<polygon fill="none" stroke="#000000" points="64.5,-161 64.5,-178 179.5,-178 179.5,-161 64.5,-161"/>
<text text-anchor="start" x="112.5" y="-167" font-family="Courier,monospace" font-size="10.00" fill="#000000">...</text>
</g>
<!-- util -->
<g id="node4" class="node">
<title>util</title>
<polygon fill="#c0c0c0" stroke="transparent" points="70.5,-89 70.5,-106 173.5,-106 173.5,-89 70.5,-89"/>
<polygon fill="none" stroke="#000000" points="70.5,-89 70.5,-106 173.5,-106 173.5,-89 70.5,-89"/>
<text text-anchor="start" x="94.5" y="-96" font-family="Courier,monospace" font-weight="bold" font-size="10.00" fill="#000000">com.aworx</text>
<polygon fill="none" stroke="#000000" points="70.5,-72 70.5,-89 173.5,-89 173.5,-72 70.5,-72"/>
<text text-anchor="start" x="82.5" y="-78" font-family="Courier,monospace" font-size="10.00" fill="#000000">class AString</text>
<polygon fill="none" stroke="#000000" points="70.5,-55 70.5,-72 173.5,-72 173.5,-55 70.5,-55"/>
<text text-anchor="start" x="76.5" y="-61" font-family="Courier,monospace" font-size="10.00" fill="#000000">class Tokenizer</text>
<polygon fill="none" stroke="#000000" points="70.5,-38 70.5,-55 173.5,-55 173.5,-38 70.5,-38"/>
<text text-anchor="start" x="88.5" y="-44" font-family="Courier,monospace" font-size="10.00" fill="#000000">class Ticks</text>
<polygon fill="none" stroke="#000000" points="70.5,-21 70.5,-38 173.5,-38 173.5,-21 70.5,-21"/>
<text text-anchor="start" x="73.5" y="-27" font-family="Courier,monospace" font-size="10.00" fill="#000000">class ThreadLock</text>
<polygon fill="none" stroke="#000000" points="70.5,-4 70.5,-21 173.5,-21 173.5,-4 70.5,-4"/>
<text text-anchor="start" x="112.5" y="-10" font-family="Courier,monospace" font-size="10.00" fill="#000000">...</text>
</g>
<!-- core&#45;&gt;util -->
<g id="edge5" class="edge">
<title>core&#45;&gt;util</title>
<path fill="none" stroke="#000000" d="M121.5,-156.6477C121.5,-144.8535 121.5,-132.2938 121.5,-120.1709"/>
<polygon fill="#000000" stroke="#000000" points="121.5,-110.1169 126.0001,-120.1169 121.5,-115.1169 121.5001,-120.1169 121.5001,-120.1169 121.5001,-120.1169 121.5,-115.1169 117.0001,-120.117 121.5,-110.1169 121.5,-110.1169"/>
<text text-anchor="middle" x="137" y="-131" font-family="Helvetica,sans-Serif" font-size="10.00" fill="#000000"> knows</text>
</g>
<!-- lox -->
<g id="node2" class="node">
<title>lox</title>
<polygon fill="#c0c0c0" stroke="transparent" points="8.5,-385.5 8.5,-402.5 99.5,-402.5 99.5,-385.5 8.5,-385.5"/>
<polygon fill="none" stroke="#000000" points="8.5,-385.5 8.5,-402.5 99.5,-402.5 99.5,-385.5 8.5,-385.5"/>
<text text-anchor="start" x="14.5" y="-392.5" font-family="Courier,monospace" font-weight="bold" font-size="10.00" fill="#000000">com.aworx.lox</text>
<polygon fill="none" stroke="#000000" points="8.5,-368.5 8.5,-385.5 99.5,-385.5 99.5,-368.5 8.5,-368.5"/>
<text text-anchor="start" x="26.5" y="-374.5" font-family="Courier,monospace" font-size="10.00" fill="#000000">class Lox</text>
<polygon fill="none" stroke="#000000" points="8.5,-351.5 8.5,-368.5 99.5,-368.5 99.5,-351.5 8.5,-351.5"/>
<text text-anchor="start" x="26.5" y="-357.5" font-family="Courier,monospace" font-size="10.00" fill="#000000">class Log</text>
<polygon fill="none" stroke="#000000" points="8.5,-334.5 8.5,-351.5 99.5,-351.5 99.5,-334.5 8.5,-334.5"/>
<text text-anchor="start" x="11.5" y="-340.5" font-family="Courier,monospace" font-size="10.00" fill="#000000">class LogTools</text>
<polygon fill="none" stroke="#000000" points="8.5,-317.5 8.5,-334.5 99.5,-334.5 99.5,-317.5 8.5,-317.5"/>
<text text-anchor="start" x="44.5" y="-323.5" font-family="Courier,monospace" font-size="10.00" fill="#000000">...</text>
</g>
<!-- lox&#45;&gt;core -->
<g id="edge1" class="edge">
<title>lox&#45;&gt;core</title>
<path fill="none" stroke="#000000" d="M74.8291,-313.9211C80.2826,-302.0115 86.2437,-288.9936 92.0269,-276.3641"/>
<polygon fill="#000000" stroke="#000000" points="96.1967,-267.258 96.1247,-278.2236 94.115,-271.804 92.0332,-276.3501 92.0332,-276.3501 92.0332,-276.3501 94.115,-271.804 87.9418,-274.4765 96.1967,-267.258 96.1967,-267.258"/>
<text text-anchor="middle" x="103" y="-288" font-family="Helvetica,sans-Serif" font-size="10.00" fill="#000000"> knows</text>
</g>
<!-- lox&#45;&gt;util -->
<g id="edge3" class="edge">
<title>lox&#45;&gt;util</title>
<path fill="none" stroke="#000000" d="M30.0626,-313.9929C12.1001,-271.6375 -6.2419,-208.0946 15.5,-157 24.0076,-137.0066 38.5679,-119.0366 54.2182,-103.9534"/>
<polygon fill="#000000" stroke="#000000" points="61.9668,-96.7846 57.6824,-106.8789 58.2966,-100.1801 54.6264,-103.5757 54.6264,-103.5757 54.6264,-103.5757 58.2966,-100.1801 51.5704,-100.2725 61.9668,-96.7846 61.9668,-96.7846"/>
<text text-anchor="middle" x="31" y="-209.5" font-family="Helvetica,sans-Serif" font-size="10.00" fill="#000000"> knows</text>
</g>
<!-- loggers -->
<g id="node3" class="node">
<title>loggers</title>
<polygon fill="#c0c0c0" stroke="transparent" points="145.5,-377.5 145.5,-394.5 278.5,-394.5 278.5,-377.5 145.5,-377.5"/>
<polygon fill="none" stroke="#000000" points="145.5,-377.5 145.5,-394.5 278.5,-394.5 278.5,-377.5 145.5,-377.5"/>
<text text-anchor="start" x="148.5" y="-384.5" font-family="Courier,monospace" font-weight="bold" font-size="10.00" fill="#000000">com.aworx.lox.loggers</text>
<polygon fill="none" stroke="#000000" points="145.5,-360.5 145.5,-377.5 278.5,-377.5 278.5,-360.5 145.5,-360.5"/>
<text text-anchor="start" x="154.5" y="-366.5" font-family="Courier,monospace" font-size="10.00" fill="#000000">class ConsoleLogger</text>
<polygon fill="none" stroke="#000000" points="145.5,-343.5 145.5,-360.5 278.5,-360.5 278.5,-343.5 145.5,-343.5"/>
<text text-anchor="start" x="157.5" y="-349.5" font-family="Courier,monospace" font-size="10.00" fill="#000000">class MemoryLogger</text>
<polygon fill="none" stroke="#000000" points="145.5,-326.5 145.5,-343.5 278.5,-343.5 278.5,-326.5 145.5,-326.5"/>
<text text-anchor="start" x="202.5" y="-332.5" font-family="Courier,monospace" font-size="10.00" fill="#000000">...</text>
</g>
<!-- loggers&#45;&gt;core -->
<g id="edge2" class="edge">
<title>loggers&#45;&gt;core</title>
<path fill="none" stroke="#000000" d="M188.3228,-322.2576C179.7535,-308.1183 169.7912,-291.6805 160.2161,-275.8816"/>
<polygon fill="#000000" stroke="#000000" points="154.9477,-267.1887 163.9792,-273.4084 157.5393,-271.4647 160.1308,-275.7407 160.1308,-275.7407 160.1308,-275.7407 157.5393,-271.4647 156.2824,-278.0731 154.9477,-267.1887 154.9477,-267.1887"/>
<text text-anchor="middle" x="187" y="-288" font-family="Helvetica,sans-Serif" font-size="10.00" fill="#000000"> knows</text>
</g>
<!-- loggers&#45;&gt;util -->
<g id="edge4" class="edge">
<title>loggers&#45;&gt;util</title>
<path fill="none" stroke="#000000" d="M214.8839,-322.4079C217.2145,-280.4885 216.872,-211.7875 196.5,-157 191.5517,-143.6924 184.3257,-130.6065 176.2863,-118.4776"/>
<polygon fill="#000000" stroke="#000000" points="170.6087,-110.2427 179.9898,-115.9213 173.4468,-114.3591 176.2849,-118.4756 176.2849,-118.4756 176.2849,-118.4756 173.4468,-114.3591 172.5801,-121.0299 170.6087,-110.2427 170.6087,-110.2427"/>
<text text-anchor="middle" x="230" y="-209.5" font-family="Helvetica,sans-Serif" font-size="10.00" fill="#000000"> knows</text>
</g>
</g>
</svg>
