<?xml version="1.0" encoding="UTF-8" standalone="no"?>
<!DOCTYPE svg PUBLIC "-//W3C//DTD SVG 1.1//EN"
 "http://www.w3.org/Graphics/SVG/1.1/DTD/svg11.dtd">
<!-- Generated by graphviz version 2.40.1 (20161225.0304)
 -->
<!-- Title: TextLoggers Pages: 1 -->
<svg width="184pt" height="191pt"
 viewBox="0.00 0.00 184.00 191.00" xmlns="http://www.w3.org/2000/svg" xmlns:xlink="http://www.w3.org/1999/xlink">
<g id="graph0" class="graph" transform="scale(1 1) rotate(0) translate(4 187)">
<title>TextLoggers</title>
<polygon fill="#ffffff" stroke="transparent" points="-4,4 -4,-187 180,-187 180,4 -4,4"/>
<!-- l -->
<g id="node1" class="node">
<title>l</title>
<polygon fill="none" stroke="#0000ff" points="17.5,-146.5 17.5,-182.5 158.5,-182.5 158.5,-146.5 17.5,-146.5"/>
<text text-anchor="middle" x="88" y="-167.5" font-family="Helvetica,sans-Serif" font-size="10.00" fill="#0000ff">Logger</text>
<text text-anchor="middle" x="88" y="-156.5" font-family="Helvetica,sans-Serif" font-size="10.00" fill="#0000ff">(abstract, arbitrary Logables)</text>
</g>
<!-- tl -->
<g id="node2" class="node">
<title>tl</title>
<polygon fill="none" stroke="#0000ff" points="20.5,-73.5 20.5,-109.5 155.5,-109.5 155.5,-73.5 20.5,-73.5"/>
<text text-anchor="middle" x="88" y="-94.5" font-family="Helvetica,sans-Serif" font-size="10.00" fill="#0000ff">TextLogger</text>
<text text-anchor="middle" x="88" y="-83.5" font-family="Helvetica,sans-Serif" font-size="10.00" fill="#0000ff">(abstract, textual Logables)</text>
</g>
<!-- l&#45;&gt;tl -->
<g id="edge1" class="edge">
<title>l&#45;&gt;tl</title>
<path fill="none" stroke="#000000" stroke-dasharray="5,2" d="M88,-146.4551C88,-138.3828 88,-128.6764 88,-119.6817"/>
<polygon fill="#000000" stroke="#000000" points="88,-109.5904 92.5001,-119.5903 88,-114.5904 88.0001,-119.5904 88.0001,-119.5904 88.0001,-119.5904 88,-114.5904 83.5001,-119.5904 88,-109.5904 88,-109.5904"/>
</g>
<!-- ptl -->
<g id="node3" class="node">
<title>ptl</title>
<polygon fill="none" stroke="#0000ff" points="0,-.5 0,-36.5 176,-36.5 176,-.5 0,-.5"/>
<text text-anchor="middle" x="88" y="-21.5" font-family="Helvetica,sans-Serif" font-size="10.00" fill="#0000ff">PlainTextLogger</text>
<text text-anchor="middle" x="88" y="-10.5" font-family="Helvetica,sans-Serif" font-size="10.00" fill="#0000ff">(abstract, removes ESC sequences)</text>
</g>
<!-- tl&#45;&gt;ptl -->
<g id="edge2" class="edge">
<title>tl&#45;&gt;ptl</title>
<path fill="none" stroke="#000000" stroke-dasharray="5,2" d="M88,-73.4551C88,-65.3828 88,-55.6764 88,-46.6817"/>
<polygon fill="#000000" stroke="#000000" points="88,-36.5904 92.5001,-46.5903 88,-41.5904 88.0001,-46.5904 88.0001,-46.5904 88.0001,-46.5904 88,-41.5904 83.5001,-46.5904 88,-36.5904 88,-36.5904"/>
</g>
</g>
</svg>
