<?xml version="1.0" encoding="UTF-8" standalone="no"?>
<!DOCTYPE svg PUBLIC "-//W3C//DTD SVG 1.1//EN"
 "http://www.w3.org/Graphics/SVG/1.1/DTD/svg11.dtd">
<!-- Generated by graphviz version 2.38.0 (20140413.2041)
 -->
<!-- Title: G Pages: 1 -->
<svg width="127pt" height="241pt"
 viewBox="0.00 0.00 127.00 241.00" xmlns="http://www.w3.org/2000/svg" xmlns:xlink="http://www.w3.org/1999/xlink">
<g id="graph0" class="graph" transform="scale(1 1) rotate(0) translate(4 237)">
<title>G</title>
<polygon fill="white" stroke="none" points="-4,4 -4,-237 123,-237 123,4 -4,4"/>
<!-- lox -->
<g id="node1" class="node"><title>lox</title>
<polygon fill="gray" stroke="none" points="29.5,-212 29.5,-229 90.5,-229 90.5,-212 29.5,-212"/>
<polygon fill="none" stroke="black" points="29.5,-212 29.5,-229 90.5,-229 90.5,-212 29.5,-212"/>
<text text-anchor="start" x="32.5" y="-219" font-family="Courier,monospace" font-weight="bold" font-size="10.00">aworx.lox</text>
<polygon fill="none" stroke="black" points="29.5,-195 29.5,-212 90.5,-212 90.5,-195 29.5,-195"/>
<text text-anchor="start" x="32.5" y="-201" font-family="Courier,monospace" font-size="10.00">class Lox</text>
<polygon fill="none" stroke="black" points="29.5,-178 29.5,-195 90.5,-195 90.5,-178 29.5,-178"/>
<text text-anchor="start" x="32.5" y="-184" font-family="Courier,monospace" font-size="10.00">class Log</text>
<polygon fill="none" stroke="black" points="29.5,-161 29.5,-178 90.5,-178 90.5,-161 29.5,-161"/>
<text text-anchor="start" x="50.5" y="-167" font-family="Courier,monospace" font-size="10.00">...</text>
</g>
<!-- core -->
<g id="node2" class="node"><title>core</title>
<polygon fill="gray" stroke="none" points="8.5,-89 8.5,-106 111.5,-106 111.5,-89 8.5,-89"/>
<polygon fill="none" stroke="black" points="8.5,-89 8.5,-106 111.5,-106 111.5,-89 8.5,-89"/>
<text text-anchor="start" x="17.5" y="-96" font-family="Courier,monospace" font-weight="bold" font-size="10.00">aworx.lox.core</text>
<polygon fill="none" stroke="black" points="8.5,-72 8.5,-89 111.5,-89 111.5,-72 8.5,-72"/>
<text text-anchor="start" x="23.5" y="-78" font-family="Courier,monospace" font-size="10.00">class Domain</text>
<polygon fill="none" stroke="black" points="8.5,-55 8.5,-72 111.5,-72 111.5,-55 8.5,-55"/>
<text text-anchor="start" x="11.5" y="-61" font-family="Courier,monospace" font-size="10.00">class CallerInfo</text>
<polygon fill="none" stroke="black" points="8.5,-38 8.5,-55 111.5,-55 111.5,-38 8.5,-38"/>
<text text-anchor="start" x="23.5" y="-44" font-family="Courier,monospace" font-size="10.00">class Logger</text>
<polygon fill="none" stroke="black" points="8.5,-21 8.5,-38 111.5,-38 111.5,-21 8.5,-21"/>
<text text-anchor="start" x="11.5" y="-27" font-family="Courier,monospace" font-size="10.00">class TextLogger</text>
<polygon fill="none" stroke="black" points="8.5,-4 8.5,-21 111.5,-21 111.5,-4 8.5,-4"/>
<text text-anchor="start" x="50.5" y="-10" font-family="Courier,monospace" font-size="10.00">...</text>
</g>
<!-- lox&#45;&gt;core -->
<g id="edge1" class="edge"><title>lox&#45;&gt;core</title>
<path fill="none" stroke="black" d="M59.5,-156.655C59.5,-145.492 59.5,-132.919 59.5,-120.537"/>
<polygon fill="black" stroke="black" points="59.5,-110.217 64.0001,-120.217 59.5,-115.217 59.5001,-120.217 59.5001,-120.217 59.5001,-120.217 59.5,-115.217 55.0001,-120.217 59.5,-110.217 59.5,-110.217"/>
<text text-anchor="middle" x="75.5" y="-131" font-family="Helvetica,sans-Serif" font-size="10.00"> knows</text>
</g>
</g>
</svg>
