<?xml version="1.0" encoding="UTF-8" standalone="no"?>
<!DOCTYPE svg PUBLIC "-//W3C//DTD SVG 1.1//EN"
 "http://www.w3.org/Graphics/SVG/1.1/DTD/svg11.dtd">
<!-- Generated by graphviz version 2.40.1 (20161225.0304)
 -->
<!-- Title: Graphical Class Hierarchy Pages: 1 -->
<svg width="925pt" height="308pt"
 viewBox="0.00 0.00 925.00 308.00" xmlns="http://www.w3.org/2000/svg" xmlns:xlink="http://www.w3.org/1999/xlink">
<g id="graph0" class="graph" transform="scale(1 1) rotate(0) translate(4 304)">
<title>Graphical Class Hierarchy</title>
<polygon fill="#ffffff" stroke="transparent" points="-4,4 -4,-304 921,-304 921,4 -4,4"/>
<!-- Node0 -->
<g id="node1" class="node">
<title>Node0</title>
<g id="a_node1"><a doxygen="/home/a/mnt/dev/A-Worx/ALib/html/cpp_ref.tag:https://alexworx.github.io/ALib-Class-Library/" xlink:href="https://alexworx.github.io/ALib-Class-Library/classaworx_1_1lib_1_1threads_1_1ThreadLock.html" xlink:title=" ">
<polygon fill="#ffffff" stroke="#000000" points="0,-98.5 0,-128.5 96,-128.5 96,-98.5 0,-98.5"/>
<text text-anchor="start" x="8" y="-116.5" font-family="Helvetica,sans-Serif" font-size="10.00" fill="#000000">aworx::lib::threads</text>
<text text-anchor="middle" x="48" y="-105.5" font-family="Helvetica,sans-Serif" font-size="10.00" fill="#000000">::ThreadLock</text>
</a>
</g>
</g>
<!-- Node1 -->
<g id="node2" class="node">
<title>Node1</title>
<g id="a_node2"><a doxygen="/home/a/mnt/dev/A-Worx/ALib/html/cpp_ref.tag:https://alexworx.github.io/ALib-Class-Library/" xlink:href="https://alexworx.github.io/ALib-Class-Library/classaworx_1_1lib_1_1PluginContainer.html" xlink:title=" ">
<polygon fill="#ffffff" stroke="#000000" points="141.5,-196.5 141.5,-226.5 273.5,-226.5 273.5,-196.5 141.5,-196.5"/>
<text text-anchor="start" x="149.5" y="-214.5" font-family="Helvetica,sans-Serif" font-size="10.00" fill="#000000">aworx::lib::PluginContainer</text>
<text text-anchor="middle" x="207.5" y="-203.5" font-family="Helvetica,sans-Serif" font-size="10.00" fill="#000000">&lt; pTPlugin, pTPriorities &gt;</text>
</a>
</g>
</g>
<!-- Node0&#45;&gt;Node1 -->
<g id="edge1" class="edge">
<title>Node0&#45;&gt;Node1</title>
<path fill="none" stroke="#191970" d="M68.6279,-136.1424C84.549,-152.4291 107.8705,-173.8446 132,-187.5 137.985,-190.8871 144.5123,-193.8666 151.1416,-196.4685"/>
<polygon fill="#191970" stroke="#191970" points="70.8745,-133.4275 61.4354,-128.6157 65.8137,-138.2636 70.8745,-133.4275"/>
</g>
<!-- Node2 -->
<g id="node3" class="node">
<title>Node2</title>
<g id="a_node3"><a doxygen="/home/a/mnt/dev/A-Worx/ALib/html/cpp_ref.tag:https://alexworx.github.io/ALib-Class-Library/" xlink:href="https://alexworx.github.io/ALib-Class-Library/classaworx_1_1lib_1_1stringformat_1_1Formatter.html" xlink:title=" ">
<polygon fill="#ffffff" stroke="#000000" points="149.5,-147.5 149.5,-177.5 265.5,-177.5 265.5,-147.5 149.5,-147.5"/>
<text text-anchor="start" x="157.5" y="-165.5" font-family="Helvetica,sans-Serif" font-size="10.00" fill="#000000">aworx::lib::stringformat</text>
<text text-anchor="middle" x="207.5" y="-154.5" font-family="Helvetica,sans-Serif" font-size="10.00" fill="#000000">::Formatter</text>
</a>
</g>
</g>
<!-- Node0&#45;&gt;Node2 -->
<g id="edge2" class="edge">
<title>Node0&#45;&gt;Node2</title>
<path fill="none" stroke="#191970" d="M106.2107,-131.3829C123.3916,-136.661 142.0143,-142.3821 158.5498,-147.462"/>
<polygon fill="#191970" stroke="#191970" points="106.875,-127.9256 96.2881,-128.3346 104.8193,-134.617 106.875,-127.9256"/>
</g>
<!-- Node6 -->
<g id="node7" class="node">
<title>Node6</title>
<g id="a_node7"><a doxygen="/home/a/mnt/dev/A-Worx/ALib/html/cpp_ref.tag:https://alexworx.github.io/ALib-Class-Library/" xlink:href="https://alexworx.github.io/ALib-Class-Library/classaworx_1_1lib_1_1threads_1_1SmartLock.html" xlink:title=" ">
<polygon fill="#ffffff" stroke="#000000" points="159.5,-98.5 159.5,-128.5 255.5,-128.5 255.5,-98.5 159.5,-98.5"/>
<text text-anchor="start" x="167.5" y="-116.5" font-family="Helvetica,sans-Serif" font-size="10.00" fill="#000000">aworx::lib::threads</text>
<text text-anchor="middle" x="207.5" y="-105.5" font-family="Helvetica,sans-Serif" font-size="10.00" fill="#000000">::SmartLock</text>
</a>
</g>
</g>
<!-- Node0&#45;&gt;Node6 -->
<g id="edge6" class="edge">
<title>Node0&#45;&gt;Node6</title>
<path fill="none" stroke="#191970" d="M106.3519,-113.5C123.7805,-113.5 142.6815,-113.5 159.376,-113.5"/>
<polygon fill="#191970" stroke="#191970" points="106.2881,-110.0001 96.2881,-113.5 106.2881,-117.0001 106.2881,-110.0001"/>
</g>
<!-- Node17 -->
<g id="node18" class="node">
<title>Node17</title>
<g id="a_node18"><a doxygen="/home/a/mnt/dev/A-Worx/ALib/html/cpp_ref.tag:https://alexworx.github.io/ALib-Class-Library/" xlink:href="https://alexworx.github.io/ALib-Class-Library/classaworx_1_1lib_1_1PluginContainer.html" xlink:title=" ">
<polygon fill="#ffffff" stroke="#000000" points="141.5,-49.5 141.5,-79.5 273.5,-79.5 273.5,-49.5 141.5,-49.5"/>
<text text-anchor="start" x="149.5" y="-67.5" font-family="Helvetica,sans-Serif" font-size="10.00" fill="#000000">PluginContainer&lt; Compiler</text>
<text text-anchor="middle" x="207.5" y="-56.5" font-family="Helvetica,sans-Serif" font-size="10.00" fill="#000000">Plugin, CompilePriorities &gt;</text>
</a>
</g>
</g>
<!-- Node0&#45;&gt;Node17 -->
<g id="edge17" class="edge">
<title>Node0&#45;&gt;Node17</title>
<path fill="none" stroke="#191970" d="M106.2107,-95.6171C123.3916,-90.339 142.0143,-84.6179 158.5498,-79.538"/>
<polygon fill="#191970" stroke="#191970" points="104.8193,-92.383 96.2881,-98.6654 106.875,-99.0744 104.8193,-92.383"/>
</g>
<!-- Node19 -->
<g id="node20" class="node">
<title>Node19</title>
<g id="a_node20"><a doxygen="/home/a/mnt/dev/A-Worx/ALib/html/cpp_ref.tag:https://alexworx.github.io/ALib-Class-Library/" xlink:href="https://alexworx.github.io/ALib-Class-Library/classaworx_1_1lib_1_1PluginContainer.html" xlink:title=" ">
<polygon fill="#ffffff" stroke="#000000" points="132,-.5 132,-30.5 283,-30.5 283,-.5 132,-.5"/>
<text text-anchor="start" x="140" y="-18.5" font-family="Helvetica,sans-Serif" font-size="10.00" fill="#000000">PluginContainer&lt; Configuration</text>
<text text-anchor="middle" x="207.5" y="-7.5" font-family="Helvetica,sans-Serif" font-size="10.00" fill="#000000">Plugin, Priorities &gt;</text>
</a>
</g>
</g>
<!-- Node0&#45;&gt;Node19 -->
<g id="edge19" class="edge">
<title>Node0&#45;&gt;Node19</title>
<path fill="none" stroke="#191970" d="M68.6279,-90.8576C84.549,-74.5709 107.8705,-53.1554 132,-39.5 137.985,-36.1129 144.5123,-33.1334 151.1416,-30.5315"/>
<polygon fill="#191970" stroke="#191970" points="65.8137,-88.7364 61.4354,-98.3843 70.8745,-93.5725 65.8137,-88.7364"/>
</g>
<!-- Node3 -->
<g id="node4" class="node">
<title>Node3</title>
<g id="a_node4"><a doxygen="/home/a/mnt/dev/A-Worx/ALib/html/cpp_ref.tag:https://alexworx.github.io/ALib-Class-Library/" xlink:href="https://alexworx.github.io/ALib-Class-Library/classaworx_1_1lib_1_1stringformat_1_1FormatterStdImpl.html" xlink:title=" ">
<polygon fill="#ffffff" stroke="#000000" points="319,-147.5 319,-177.5 435,-177.5 435,-147.5 319,-147.5"/>
<text text-anchor="start" x="327" y="-165.5" font-family="Helvetica,sans-Serif" font-size="10.00" fill="#000000">aworx::lib::stringformat</text>
<text text-anchor="middle" x="377" y="-154.5" font-family="Helvetica,sans-Serif" font-size="10.00" fill="#000000">::FormatterStdImpl</text>
</a>
</g>
</g>
<!-- Node2&#45;&gt;Node3 -->
<g id="edge3" class="edge">
<title>Node2&#45;&gt;Node3</title>
<path fill="none" stroke="#191970" d="M276.0355,-162.5C290.2339,-162.5 305.063,-162.5 318.8474,-162.5"/>
<polygon fill="#191970" stroke="#191970" points="275.8323,-159.0001 265.8323,-162.5 275.8323,-166.0001 275.8323,-159.0001"/>
</g>
<!-- Node4 -->
<g id="node5" class="node">
<title>Node4</title>
<g id="a_node5"><a doxygen="/home/a/mnt/dev/A-Worx/ALib/html/cpp_ref.tag:https://alexworx.github.io/ALib-Class-Library/" xlink:href="https://alexworx.github.io/ALib-Class-Library/classaworx_1_1lib_1_1stringformat_1_1FormatterJavaStyle.html" xlink:title=" ">
<polygon fill="#ffffff" stroke="#000000" points="472.5,-196.5 472.5,-226.5 588.5,-226.5 588.5,-196.5 472.5,-196.5"/>
<text text-anchor="start" x="480.5" y="-214.5" font-family="Helvetica,sans-Serif" font-size="10.00" fill="#000000">aworx::lib::stringformat</text>
<text text-anchor="middle" x="530.5" y="-203.5" font-family="Helvetica,sans-Serif" font-size="10.00" fill="#000000">::FormatterJavaStyle</text>
</a>
</g>
</g>
<!-- Node3&#45;&gt;Node4 -->
<g id="edge4" class="edge">
<title>Node3&#45;&gt;Node4</title>
<path fill="none" stroke="#191970" d="M434.1994,-180.7591C450.3895,-185.9273 467.8232,-191.4924 483.3486,-196.4484"/>
<polygon fill="#191970" stroke="#191970" points="434.8984,-177.3083 424.3076,-177.6014 432.7696,-183.9767 434.8984,-177.3083"/>
</g>
<!-- Node5 -->
<g id="node6" class="node">
<title>Node5</title>
<g id="a_node6"><a doxygen="/home/a/mnt/dev/A-Worx/ALib/html/cpp_ref.tag:https://alexworx.github.io/ALib-Class-Library/" xlink:href="https://alexworx.github.io/ALib-Class-Library/classaworx_1_1lib_1_1stringformat_1_1FormatterPythonStyle.html" xlink:title=" ">
<polygon fill="#ffffff" stroke="#000000" points="471.5,-147.5 471.5,-177.5 589.5,-177.5 589.5,-147.5 471.5,-147.5"/>
<text text-anchor="start" x="479.5" y="-165.5" font-family="Helvetica,sans-Serif" font-size="10.00" fill="#000000">aworx::lib::stringformat</text>
<text text-anchor="middle" x="530.5" y="-154.5" font-family="Helvetica,sans-Serif" font-size="10.00" fill="#000000">::FormatterPythonStyle</text>
</a>
</g>
</g>
<!-- Node3&#45;&gt;Node5 -->
<g id="edge5" class="edge">
<title>Node3&#45;&gt;Node5</title>
<path fill="none" stroke="#191970" d="M445.1844,-162.5C453.9149,-162.5 462.7951,-162.5 471.3656,-162.5"/>
<polygon fill="#191970" stroke="#191970" points="445.0318,-159.0001 435.0318,-162.5 445.0317,-166.0001 445.0318,-159.0001"/>
</g>
<!-- Node7 -->
<g id="node8" class="node">
<title>Node7</title>
<g id="a_node8"><a doxygen="/home/a/mnt/dev/A-Worx/ALib/html/cpp_ref.tag:https://alexworx.github.io/ALib-Class-Library/" xlink:href="https://alexworx.github.io/ALib-Class-Library/classaworx_1_1lib_1_1lox_1_1detail_1_1Logger.html" xlink:title=" ">
<polygon fill="#ffffff" stroke="#000000" points="324,-98.5 324,-128.5 430,-128.5 430,-98.5 324,-98.5"/>
<text text-anchor="start" x="332" y="-116.5" font-family="Helvetica,sans-Serif" font-size="10.00" fill="#000000">aworx::lib::lox::detail</text>
<text text-anchor="middle" x="377" y="-105.5" font-family="Helvetica,sans-Serif" font-size="10.00" fill="#000000">::Logger</text>
</a>
</g>
</g>
<!-- Node6&#45;&gt;Node7 -->
<g id="edge7" class="edge">
<title>Node6&#45;&gt;Node7</title>
<path fill="none" stroke="#191970" d="M265.8257,-113.5C284.603,-113.5 305.3034,-113.5 323.6999,-113.5"/>
<polygon fill="#191970" stroke="#191970" points="265.6185,-110.0001 255.6185,-113.5 265.6185,-117.0001 265.6185,-110.0001"/>
</g>
<!-- Node8 -->
<g id="node9" class="node">
<title>Node8</title>
<g id="a_node9"><a doxygen="/home/a/mnt/dev/A-Worx/ALib/html/cpp_ref.tag:https://alexworx.github.io/ALib-Class-Library/" xlink:href="https://alexworx.github.io/ALib-Class-Library/classaworx_1_1lib_1_1lox_1_1detail_1_1textlogger_1_1TextLogger.html" xlink:title=" ">
<polygon fill="#ffffff" stroke="#000000" points="471,-98.5 471,-128.5 590,-128.5 590,-98.5 471,-98.5"/>
<text text-anchor="start" x="479" y="-116.5" font-family="Helvetica,sans-Serif" font-size="10.00" fill="#000000">aworx::lib::lox::detail</text>
<text text-anchor="middle" x="530.5" y="-105.5" font-family="Helvetica,sans-Serif" font-size="10.00" fill="#000000">::textlogger::TextLogger</text>
</a>
</g>
</g>
<!-- Node7&#45;&gt;Node8 -->
<g id="edge8" class="edge">
<title>Node7&#45;&gt;Node8</title>
<path fill="none" stroke="#191970" d="M440.54,-113.5C450.5441,-113.5 460.857,-113.5 470.7709,-113.5"/>
<polygon fill="#191970" stroke="#191970" points="440.2561,-110.0001 430.2561,-113.5 440.256,-117.0001 440.2561,-110.0001"/>
</g>
<!-- Node9 -->
<g id="node10" class="node">
<title>Node9</title>
<g id="a_node10"><a doxygen="/home/a/mnt/dev/A-Worx/ALib/html/cpp_ref.tag:https://alexworx.github.io/ALib-Class-Library/" xlink:href="https://alexworx.github.io/ALib-Class-Library/classaworx_1_1lib_1_1lox_1_1detail_1_1textlogger_1_1PlainTextLogger.html" xlink:title=" ">
<polygon fill="#ffffff" stroke="#000000" points="626,-171.5 626,-201.5 767,-201.5 767,-171.5 626,-171.5"/>
<text text-anchor="start" x="634" y="-189.5" font-family="Helvetica,sans-Serif" font-size="10.00" fill="#000000">aworx::lib::lox::detail</text>
<text text-anchor="middle" x="696.5" y="-178.5" font-family="Helvetica,sans-Serif" font-size="10.00" fill="#000000">::textlogger::PlainTextLogger</text>
</a>
</g>
</g>
<!-- Node8&#45;&gt;Node9 -->
<g id="edge9" class="edge">
<title>Node8&#45;&gt;Node9</title>
<path fill="none" stroke="#191970" d="M576.2427,-132.5797C580.8965,-134.5627 585.5472,-136.5615 590,-138.5 614.7314,-149.2668 642.511,-161.8021 663.4963,-171.3621"/>
<polygon fill="#191970" stroke="#191970" points="577.3209,-129.2353 566.7479,-128.5557 574.5894,-135.6804 577.3209,-129.2353"/>
</g>
<!-- Node14 -->
<g id="node15" class="node">
<title>Node14</title>
<g id="a_node15"><a doxygen="/home/a/mnt/dev/A-Worx/ALib/html/cpp_ref.tag:https://alexworx.github.io/ALib-Class-Library/" xlink:href="https://alexworx.github.io/ALib-Class-Library/classaworx_1_1lib_1_1lox_1_1loggers_1_1AnsiLogger.html" xlink:title=" ">
<polygon fill="#ffffff" stroke="#000000" points="639.5,-98.5 639.5,-128.5 753.5,-128.5 753.5,-98.5 639.5,-98.5"/>
<text text-anchor="start" x="647.5" y="-116.5" font-family="Helvetica,sans-Serif" font-size="10.00" fill="#000000">aworx::lib::lox::loggers</text>
<text text-anchor="middle" x="696.5" y="-105.5" font-family="Helvetica,sans-Serif" font-size="10.00" fill="#000000">::AnsiLogger</text>
</a>
</g>
</g>
<!-- Node8&#45;&gt;Node14 -->
<g id="edge14" class="edge">
<title>Node8&#45;&gt;Node14</title>
<path fill="none" stroke="#191970" d="M600.6785,-113.5C613.6023,-113.5 626.951,-113.5 639.4303,-113.5"/>
<polygon fill="#191970" stroke="#191970" points="600.4298,-110.0001 590.4298,-113.5 600.4298,-117.0001 600.4298,-110.0001"/>
</g>
<!-- Node16 -->
<g id="node17" class="node">
<title>Node16</title>
<g id="a_node17"><a doxygen="/home/a/mnt/dev/A-Worx/ALib/html/cpp_ref.tag:https://alexworx.github.io/ALib-Class-Library/" xlink:href="https://alexworx.github.io/ALib-Class-Library/classaworx_1_1lib_1_1lox_1_1loggers_1_1WindowsConsoleLogger.html" xlink:title=" ">
<polygon fill="#ffffff" stroke="#000000" points="633.5,-49.5 633.5,-79.5 759.5,-79.5 759.5,-49.5 633.5,-49.5"/>
<text text-anchor="start" x="641.5" y="-67.5" font-family="Helvetica,sans-Serif" font-size="10.00" fill="#000000">aworx::lib::lox::loggers</text>
<text text-anchor="middle" x="696.5" y="-56.5" font-family="Helvetica,sans-Serif" font-size="10.00" fill="#000000">::WindowsConsoleLogger</text>
</a>
</g>
</g>
<!-- Node8&#45;&gt;Node16 -->
<g id="edge16" class="edge">
<title>Node8&#45;&gt;Node16</title>
<path fill="none" stroke="#191970" d="M591.3677,-95.533C609.1537,-90.283 628.4024,-84.6011 645.5089,-79.5516"/>
<polygon fill="#191970" stroke="#191970" points="590.26,-92.2106 581.66,-98.3986 592.2418,-98.9243 590.26,-92.2106"/>
</g>
<!-- Node10 -->
<g id="node11" class="node">
<title>Node10</title>
<g id="a_node11"><a doxygen="/home/a/mnt/dev/A-Worx/ALib/html/cpp_ref.tag:https://alexworx.github.io/ALib-Class-Library/" xlink:href="https://alexworx.github.io/ALib-Class-Library/classaworx_1_1lib_1_1lox_1_1loggers_1_1ConsoleLogger.html" xlink:title=" ">
<polygon fill="#ffffff" stroke="#000000" points="803,-269.5 803,-299.5 917,-299.5 917,-269.5 803,-269.5"/>
<text text-anchor="start" x="811" y="-287.5" font-family="Helvetica,sans-Serif" font-size="10.00" fill="#000000">aworx::lib::lox::loggers</text>
<text text-anchor="middle" x="860" y="-276.5" font-family="Helvetica,sans-Serif" font-size="10.00" fill="#000000">::ConsoleLogger</text>
</a>
</g>
</g>
<!-- Node9&#45;&gt;Node10 -->
<g id="edge10" class="edge">
<title>Node9&#45;&gt;Node10</title>
<path fill="none" stroke="#191970" d="M723.8284,-207.8693C744.7554,-223.6334 774.7383,-244.9544 803,-260.5 808.7388,-263.6567 814.9791,-266.6717 821.156,-269.4333"/>
<polygon fill="#191970" stroke="#191970" points="725.7996,-204.9712 715.7225,-201.6996 721.56,-210.5413 725.7996,-204.9712"/>
</g>
<!-- Node11 -->
<g id="node12" class="node">
<title>Node11</title>
<g id="a_node12"><a doxygen="/home/a/mnt/dev/A-Worx/ALib/html/cpp_ref.tag:https://alexworx.github.io/ALib-Class-Library/" xlink:href="https://alexworx.github.io/ALib-Class-Library/classaworx_1_1lib_1_1lox_1_1loggers_1_1MemoryLogger.html" xlink:title=" ">
<polygon fill="#ffffff" stroke="#000000" points="803,-220.5 803,-250.5 917,-250.5 917,-220.5 803,-220.5"/>
<text text-anchor="start" x="811" y="-238.5" font-family="Helvetica,sans-Serif" font-size="10.00" fill="#000000">aworx::lib::lox::loggers</text>
<text text-anchor="middle" x="860" y="-227.5" font-family="Helvetica,sans-Serif" font-size="10.00" fill="#000000">::MemoryLogger</text>
</a>
</g>
</g>
<!-- Node9&#45;&gt;Node11 -->
<g id="edge11" class="edge">
<title>Node9&#45;&gt;Node11</title>
<path fill="none" stroke="#191970" d="M756.938,-204.6129C774.32,-209.8222 793.084,-215.4457 809.7769,-220.4484"/>
<polygon fill="#191970" stroke="#191970" points="757.4734,-201.1196 746.8895,-201.6014 755.4638,-207.825 757.4734,-201.1196"/>
</g>
<!-- Node12 -->
<g id="node13" class="node">
<title>Node12</title>
<g id="a_node13"><a doxygen="/home/a/mnt/dev/A-Worx/ALib/html/cpp_ref.tag:https://alexworx.github.io/ALib-Class-Library/" xlink:href="https://alexworx.github.io/ALib-Class-Library/classaworx_1_1lib_1_1lox_1_1loggers_1_1TextFileLogger.html" xlink:title=" ">
<polygon fill="#ffffff" stroke="#000000" points="803,-171.5 803,-201.5 917,-201.5 917,-171.5 803,-171.5"/>
<text text-anchor="start" x="811" y="-189.5" font-family="Helvetica,sans-Serif" font-size="10.00" fill="#000000">aworx::lib::lox::loggers</text>
<text text-anchor="middle" x="860" y="-178.5" font-family="Helvetica,sans-Serif" font-size="10.00" fill="#000000">::TextFileLogger</text>
</a>
</g>
</g>
<!-- Node9&#45;&gt;Node12 -->
<g id="edge12" class="edge">
<title>Node9&#45;&gt;Node12</title>
<path fill="none" stroke="#191970" d="M777.3638,-186.5C785.9933,-186.5 794.6359,-186.5 802.9071,-186.5"/>
<polygon fill="#191970" stroke="#191970" points="777.2626,-183.0001 767.2626,-186.5 777.2625,-190.0001 777.2626,-183.0001"/>
</g>
<!-- Node13 -->
<g id="node14" class="node">
<title>Node13</title>
<g id="a_node14"><a doxygen="/home/a/mnt/dev/A-Worx/ALib/html/cpp_ref.tag:https://alexworx.github.io/ALib-Class-Library/" xlink:href="https://alexworx.github.io/ALib-Class-Library/classaworx_1_1lib_1_1lox_1_1loggers_1_1VStudioLogger.html" xlink:title=" ">
<polygon fill="#ffffff" stroke="#000000" points="803,-122.5 803,-152.5 917,-152.5 917,-122.5 803,-122.5"/>
<text text-anchor="start" x="811" y="-140.5" font-family="Helvetica,sans-Serif" font-size="10.00" fill="#000000">aworx::lib::lox::loggers</text>
<text text-anchor="middle" x="860" y="-129.5" font-family="Helvetica,sans-Serif" font-size="10.00" fill="#000000">::VStudioLogger</text>
</a>
</g>
</g>
<!-- Node9&#45;&gt;Node13 -->
<g id="edge13" class="edge">
<title>Node9&#45;&gt;Node13</title>
<path fill="none" stroke="#191970" d="M756.938,-168.3871C774.32,-163.1778 793.084,-157.5543 809.7769,-152.5516"/>
<polygon fill="#191970" stroke="#191970" points="755.4638,-165.175 746.8895,-171.3986 757.4734,-171.8804 755.4638,-165.175"/>
</g>
<!-- Node15 -->
<g id="node16" class="node">
<title>Node15</title>
<g id="a_node16"><a doxygen="/home/a/mnt/dev/A-Worx/ALib/html/cpp_ref.tag:https://alexworx.github.io/ALib-Class-Library/" xlink:href="https://alexworx.github.io/ALib-Class-Library/classaworx_1_1lib_1_1lox_1_1loggers_1_1AnsiConsoleLogger.html" xlink:title=" ">
<polygon fill="#ffffff" stroke="#000000" points="803,-73.5 803,-103.5 917,-103.5 917,-73.5 803,-73.5"/>
<text text-anchor="start" x="811" y="-91.5" font-family="Helvetica,sans-Serif" font-size="10.00" fill="#000000">aworx::lib::lox::loggers</text>
<text text-anchor="middle" x="860" y="-80.5" font-family="Helvetica,sans-Serif" font-size="10.00" fill="#000000">::AnsiConsoleLogger</text>
</a>
</g>
</g>
<!-- Node14&#45;&gt;Node15 -->
<g id="edge15" class="edge">
<title>Node14&#45;&gt;Node15</title>
<path fill="none" stroke="#191970" d="M763.9231,-103.1907C776.8541,-101.2134 790.2788,-99.1607 802.8479,-97.2388"/>
<polygon fill="#191970" stroke="#191970" points="763.0404,-99.7849 753.6844,-104.7562 764.0985,-106.7044 763.0404,-99.7849"/>
</g>
<!-- Node18 -->
<g id="node19" class="node">
<title>Node18</title>
<g id="a_node19"><a doxygen="/home/a/mnt/dev/A-Worx/ALib/html/cpp_ref.tag:https://alexworx.github.io/ALib-Class-Library/" xlink:href="https://alexworx.github.io/ALib-Class-Library/classaworx_1_1lib_1_1expressions_1_1Compiler.html" xlink:title=" ">
<polygon fill="#ffffff" stroke="#000000" points="319,-49.5 319,-79.5 435,-79.5 435,-49.5 319,-49.5"/>
<text text-anchor="start" x="327" y="-67.5" font-family="Helvetica,sans-Serif" font-size="10.00" fill="#000000">aworx::lib::expressions</text>
<text text-anchor="middle" x="377" y="-56.5" font-family="Helvetica,sans-Serif" font-size="10.00" fill="#000000">::Compiler</text>
</a>
</g>
</g>
<!-- Node17&#45;&gt;Node18 -->
<g id="edge18" class="edge">
<title>Node17&#45;&gt;Node18</title>
<path fill="none" stroke="#191970" d="M283.7936,-64.5C295.5769,-64.5 307.5804,-64.5 318.8808,-64.5"/>
<polygon fill="#191970" stroke="#191970" points="283.5185,-61.0001 273.5185,-64.5 283.5184,-68.0001 283.5185,-61.0001"/>
</g>
<!-- Node20 -->
<g id="node21" class="node">
<title>Node20</title>
<g id="a_node21"><a doxygen="/home/a/mnt/dev/A-Worx/ALib/html/cpp_ref.tag:https://alexworx.github.io/ALib-Class-Library/" xlink:href="https://alexworx.github.io/ALib-Class-Library/classaworx_1_1lib_1_1config_1_1Configuration.html" xlink:title=" ">
<polygon fill="#ffffff" stroke="#000000" points="332,-.5 332,-30.5 422,-30.5 422,-.5 332,-.5"/>
<text text-anchor="start" x="340" y="-18.5" font-family="Helvetica,sans-Serif" font-size="10.00" fill="#000000">aworx::lib::config</text>
<text text-anchor="middle" x="377" y="-7.5" font-family="Helvetica,sans-Serif" font-size="10.00" fill="#000000">::Configuration</text>
</a>
</g>
</g>
<!-- Node19&#45;&gt;Node20 -->
<g id="edge20" class="edge">
<title>Node19&#45;&gt;Node20</title>
<path fill="none" stroke="#191970" d="M293.4598,-15.5C306.7294,-15.5 319.9595,-15.5 331.8484,-15.5"/>
<polygon fill="#191970" stroke="#191970" points="293.3263,-12.0001 283.3263,-15.5 293.3262,-19.0001 293.3263,-12.0001"/>
</g>
</g>
</svg>
