<?xml version="1.0" encoding="UTF-8" standalone="no"?>
<!DOCTYPE svg PUBLIC "-//W3C//DTD SVG 1.1//EN"
 "http://www.w3.org/Graphics/SVG/1.1/DTD/svg11.dtd">
<!-- Generated by graphviz version 2.40.1 (20161225.0304)
 -->
<!-- Title: Graphical Class Hierarchy Pages: 1 -->
<svg width="281pt" height="39pt"
 viewBox="0.00 0.00 281.00 39.00" xmlns="http://www.w3.org/2000/svg" xmlns:xlink="http://www.w3.org/1999/xlink">
<g id="graph0" class="graph" transform="scale(1 1) rotate(0) translate(4 35)">
<title>Graphical Class Hierarchy</title>
<polygon fill="#ffffff" stroke="transparent" points="-4,4 -4,-35 277,-35 277,4 -4,4"/>
<!-- Node0 -->
<g id="node1" class="node">
<title>Node0</title>
<g id="a_node1"><a doxygen="ALox/html/java_ref/java_ref.tag:./java_ref/" xlink:href="./java_ref/classcom_1_1aworx_1_1lib_1_1config_1_1InMemoryPlugin_1_1Entry.html" xlink:title="com::aworx::lib::config\l::InMemoryPlugin::Entry">
<polygon fill="#ffffff" stroke="#000000" points="0,-.5 0,-30.5 122,-30.5 122,-.5 0,-.5"/>
<text text-anchor="start" x="8" y="-18.5" font-family="Helvetica,sans-Serif" font-size="10.00" fill="#000000">com::aworx::lib::config</text>
<text text-anchor="middle" x="61" y="-7.5" font-family="Helvetica,sans-Serif" font-size="10.00" fill="#000000">::InMemoryPlugin::Entry</text>
</a>
</g>
</g>
<!-- Node1 -->
<g id="node2" class="node">
<title>Node1</title>
<g id="a_node2"><a doxygen="ALox/html/java_ref/java_ref.tag:./java_ref/" xlink:href="./java_ref/classcom_1_1aworx_1_1lib_1_1config_1_1IniFile_1_1Entry.html" xlink:title="com::aworx::lib::config\l::IniFile::Entry">
<polygon fill="#ffffff" stroke="#000000" points="158,-.5 158,-30.5 273,-30.5 273,-.5 158,-.5"/>
<text text-anchor="start" x="166" y="-18.5" font-family="Helvetica,sans-Serif" font-size="10.00" fill="#000000">com::aworx::lib::config</text>
<text text-anchor="middle" x="215.5" y="-7.5" font-family="Helvetica,sans-Serif" font-size="10.00" fill="#000000">::IniFile::Entry</text>
</a>
</g>
</g>
<!-- Node0&#45;&gt;Node1 -->
<g id="edge1" class="edge">
<title>Node0&#45;&gt;Node1</title>
<path fill="none" stroke="#191970" d="M132.1252,-15.5C140.7596,-15.5 149.4966,-15.5 157.9013,-15.5"/>
<polygon fill="#191970" stroke="#191970" points="132.0625,-12.0001 122.0625,-15.5 132.0625,-19.0001 132.0625,-12.0001"/>
</g>
</g>
</svg>
