<?xml version="1.0" encoding="UTF-8" standalone="no"?>
<!DOCTYPE svg PUBLIC "-//W3C//DTD SVG 1.1//EN"
 "http://www.w3.org/Graphics/SVG/1.1/DTD/svg11.dtd">
<!-- Generated by graphviz version 2.40.1 (20161225.0304)
 -->
<!-- Title: Graphical Class Hierarchy Pages: 1 -->
<svg width="342pt" height="83pt"
 viewBox="0.00 0.00 342.00 83.00" xmlns="http://www.w3.org/2000/svg" xmlns:xlink="http://www.w3.org/1999/xlink">
<g id="graph0" class="graph" transform="scale(1 1) rotate(0) translate(4 79)">
<title>Graphical Class Hierarchy</title>
<polygon fill="#ffffff" stroke="transparent" points="-4,4 -4,-79 338,-79 338,4 -4,4"/>
<!-- Node267 -->
<g id="node1" class="node">
<title>Node267</title>
<g id="a_node1"><a doxygen="ALox/html/cpp_ref/cpp_ref.tag:./cpp_ref/" xlink:href="./cpp_ref/classaworx_1_1lib_1_1lang_1_1ReportWriter.html" xlink:title="aworx::lib::lang::Report\lWriter">
<polygon fill="#ffffff" stroke="#000000" points="19.5,-.5 19.5,-30.5 135.5,-30.5 135.5,-.5 19.5,-.5"/>
<text text-anchor="start" x="27.5" y="-18.5" font-family="Helvetica,sans-Serif" font-size="10.00" fill="#000000">aworx::lib::lang::Report</text>
<text text-anchor="middle" x="77.5" y="-7.5" font-family="Helvetica,sans-Serif" font-size="10.00" fill="#000000">Writer</text>
</a>
</g>
</g>
<!-- Node1 -->
<g id="node2" class="node">
<title>Node1</title>
<g id="a_node2"><a doxygen="ALox/html/cpp_ref/cpp_ref.tag:./cpp_ref/" xlink:href="./cpp_ref/classaworx_1_1lib_1_1lang_1_1ReportWriterStdIO.html" xlink:title="aworx::lib::lang::Report\lWriterStdIO">
<polygon fill="#ffffff" stroke="#000000" points="204.5,-44.5 204.5,-74.5 320.5,-74.5 320.5,-44.5 204.5,-44.5"/>
<text text-anchor="start" x="212.5" y="-62.5" font-family="Helvetica,sans-Serif" font-size="10.00" fill="#000000">aworx::lib::lang::Report</text>
<text text-anchor="middle" x="262.5" y="-51.5" font-family="Helvetica,sans-Serif" font-size="10.00" fill="#000000">WriterStdIO</text>
</a>
</g>
</g>
<!-- Node267&#45;&gt;Node1 -->
<g id="edge1" class="edge">
<title>Node267&#45;&gt;Node1</title>
<path fill="none" stroke="#191970" d="M145.4752,-31.6671C164.8041,-36.2642 185.6728,-41.2276 204.3605,-45.6722"/>
<polygon fill="#191970" stroke="#191970" points="146.0661,-28.21 135.5276,-29.3012 144.4463,-35.0201 146.0661,-28.21"/>
</g>
<!-- Node268 -->
<g id="node3" class="node">
<title>Node268</title>
<g id="a_node3"><a doxygen="ALox/html/cpp_ref/cpp_ref.tag:./cpp_ref/" xlink:href="./cpp_ref/classaworx_1_1lox_1_1ALoxReportWriter.html" xlink:title="aworx::lox::ALoxReportWriter">
<polygon fill="#ffffff" stroke="#000000" points="191,-6 191,-25 334,-25 334,-6 191,-6"/>
<text text-anchor="middle" x="262.5" y="-13" font-family="Helvetica,sans-Serif" font-size="10.00" fill="#000000">aworx::lox::ALoxReportWriter</text>
</a>
</g>
</g>
<!-- Node267&#45;&gt;Node268 -->
<g id="edge2" class="edge">
<title>Node267&#45;&gt;Node268</title>
<path fill="none" stroke="#191970" d="M145.5446,-15.5C160.2477,-15.5 175.839,-15.5 190.6814,-15.5"/>
<polygon fill="#191970" stroke="#191970" points="145.5276,-12.0001 135.5276,-15.5 145.5275,-19.0001 145.5276,-12.0001"/>
</g>
<!-- Node0 -->
<g id="node4" class="node">
<title>Node0</title>
<g id="a_node4"><a doxygen="ALox/html/cpp_ref/cpp_ref.tag:./cpp_ref/" xlink:href="./cpp_ref/classaworx_1_1lib_1_1lang_1_1Singleton.html" xlink:title="Singleton\&lt; ReportWriterStdIO \&gt;">
<polygon fill="#ffffff" stroke="#000000" points="0,-50 0,-69 155,-69 155,-50 0,-50"/>
<text text-anchor="middle" x="77.5" y="-57" font-family="Helvetica,sans-Serif" font-size="10.00" fill="#000000">Singleton&lt; ReportWriterStdIO &gt;</text>
</a>
</g>
</g>
<!-- Node0&#45;&gt;Node1 -->
<g id="edge3" class="edge">
<title>Node0&#45;&gt;Node1</title>
<path fill="none" stroke="#191970" d="M165.2772,-59.5C178.5744,-59.5 192.002,-59.5 204.4571,-59.5"/>
<polygon fill="#191970" stroke="#191970" points="165.1526,-56.0001 155.1525,-59.5 165.1525,-63.0001 165.1526,-56.0001"/>
</g>
</g>
</svg>
