<?xml version="1.0" encoding="UTF-8" standalone="no"?>
<!DOCTYPE svg PUBLIC "-//W3C//DTD SVG 1.1//EN"
 "http://www.w3.org/Graphics/SVG/1.1/DTD/svg11.dtd">
<!-- Generated by graphviz version 2.40.1 (20161225.0304)
 -->
<!-- Title: Graphical Class Hierarchy Pages: 1 -->
<svg width="434pt" height="88pt"
 viewBox="0.00 0.00 434.00 88.00" xmlns="http://www.w3.org/2000/svg" xmlns:xlink="http://www.w3.org/1999/xlink">
<g id="graph0" class="graph" transform="scale(1 1) rotate(0) translate(4 84)">
<title>Graphical Class Hierarchy</title>
<polygon fill="#ffffff" stroke="transparent" points="-4,4 -4,-84 430,-84 430,4 -4,4"/>
<!-- Node0 -->
<g id="node1" class="node">
<title>Node0</title>
<g id="a_node1"><a doxygen="ALox/html/java_ref/java_ref.tag:./java_ref/" xlink:href="./java_ref/classcom_1_1aworx_1_1lib_1_1strings_1_1Formatter.html" target="_top" xlink:title="com::aworx::lib::strings\l::Formatter">
<polygon fill="#ffffff" stroke="#000000" points="0,-24.5 0,-54.5 118,-54.5 118,-24.5 0,-24.5"/>
<text text-anchor="start" x="8" y="-42.5" font-family="Helvetica,sans-Serif" font-size="10.00" fill="#000000">com::aworx::lib::strings</text>
<text text-anchor="middle" x="59" y="-31.5" font-family="Helvetica,sans-Serif" font-size="10.00" fill="#000000">::Formatter</text>
</a>
</g>
</g>
<!-- Node1 -->
<g id="node2" class="node">
<title>Node1</title>
<g id="a_node2"><a doxygen="ALox/html/java_ref/java_ref.tag:./java_ref/" xlink:href="./java_ref/classcom_1_1aworx_1_1lib_1_1strings_1_1FormatterStdImpl.html" target="_top" xlink:title="com::aworx::lib::strings\l::FormatterStdImpl">
<polygon fill="#ffffff" stroke="#000000" points="154,-24.5 154,-54.5 272,-54.5 272,-24.5 154,-24.5"/>
<text text-anchor="start" x="162" y="-42.5" font-family="Helvetica,sans-Serif" font-size="10.00" fill="#000000">com::aworx::lib::strings</text>
<text text-anchor="middle" x="213" y="-31.5" font-family="Helvetica,sans-Serif" font-size="10.00" fill="#000000">::FormatterStdImpl</text>
</a>
</g>
</g>
<!-- Node0&#45;&gt;Node1 -->
<g id="edge1" class="edge">
<title>Node0&#45;&gt;Node1</title>
<path fill="none" stroke="#191970" d="M128.3691,-39.5C136.8618,-39.5 145.4796,-39.5 153.8037,-39.5"/>
<polygon fill="#191970" stroke="#191970" points="128.1,-36.0001 118.1,-39.5 128.1,-43.0001 128.1,-36.0001"/>
</g>
<!-- Node2 -->
<g id="node3" class="node">
<title>Node2</title>
<g id="a_node3"><a doxygen="ALox/html/java_ref/java_ref.tag:./java_ref/" xlink:href="./java_ref/classcom_1_1aworx_1_1lib_1_1strings_1_1FormatterJavaStyle.html" target="_top" xlink:title="com::aworx::lib::strings\l::FormatterJavaStyle">
<polygon fill="#ffffff" stroke="#000000" points="308,-49.5 308,-79.5 426,-79.5 426,-49.5 308,-49.5"/>
<text text-anchor="start" x="316" y="-67.5" font-family="Helvetica,sans-Serif" font-size="10.00" fill="#000000">com::aworx::lib::strings</text>
<text text-anchor="middle" x="367" y="-56.5" font-family="Helvetica,sans-Serif" font-size="10.00" fill="#000000">::FormatterJavaStyle</text>
</a>
</g>
</g>
<!-- Node1&#45;&gt;Node2 -->
<g id="edge2" class="edge">
<title>Node1&#45;&gt;Node2</title>
<path fill="none" stroke="#191970" d="M282.0892,-50.7158C290.6724,-52.1092 299.3881,-53.524 307.8037,-54.8902"/>
<polygon fill="#191970" stroke="#191970" points="282.5316,-47.2419 272.1,-49.0942 281.4099,-54.1514 282.5316,-47.2419"/>
</g>
<!-- Node3 -->
<g id="node4" class="node">
<title>Node3</title>
<g id="a_node4"><a doxygen="ALox/html/java_ref/java_ref.tag:./java_ref/" xlink:href="./java_ref/classcom_1_1aworx_1_1lib_1_1strings_1_1FormatterPythonStyle.html" target="_top" xlink:title="com::aworx::lib::strings\l::FormatterPythonStyle">
<polygon fill="#ffffff" stroke="#000000" points="308,-.5 308,-30.5 426,-30.5 426,-.5 308,-.5"/>
<text text-anchor="start" x="316" y="-18.5" font-family="Helvetica,sans-Serif" font-size="10.00" fill="#000000">com::aworx::lib::strings</text>
<text text-anchor="middle" x="367" y="-7.5" font-family="Helvetica,sans-Serif" font-size="10.00" fill="#000000">::FormatterPythonStyle</text>
</a>
</g>
</g>
<!-- Node1&#45;&gt;Node3 -->
<g id="edge3" class="edge">
<title>Node1&#45;&gt;Node3</title>
<path fill="none" stroke="#191970" d="M282.0892,-28.7329C290.6724,-27.3952 299.3881,-26.0369 307.8037,-24.7254"/>
<polygon fill="#191970" stroke="#191970" points="281.4417,-25.2914 272.1,-30.2896 282.5197,-32.2079 281.4417,-25.2914"/>
</g>
</g>
</svg>
