<?xml version="1.0" encoding="UTF-8" standalone="no"?>
<!DOCTYPE svg PUBLIC "-//W3C//DTD SVG 1.1//EN"
 "http://www.w3.org/Graphics/SVG/1.1/DTD/svg11.dtd">
<!-- Generated by graphviz version 2.40.1 (20161225.0304)
 -->
<!-- Title: Graphical Class Hierarchy Pages: 1 -->
<svg width="370pt" height="137pt"
 viewBox="0.00 0.00 370.00 137.00" xmlns="http://www.w3.org/2000/svg" xmlns:xlink="http://www.w3.org/1999/xlink">
<g id="graph0" class="graph" transform="scale(1 1) rotate(0) translate(4 133)">
<title>Graphical Class Hierarchy</title>
<polygon fill="#ffffff" stroke="transparent" points="-4,4 -4,-133 366,-133 366,4 -4,4"/>
<!-- Node0 -->
<g id="node1" class="node">
<title>Node0</title>
<g id="a_node1"><a doxygen="/home/a/mnt/dev/A-Worx/ALib/html/cpp_ref.tag:https://alexworx.github.io/ALib-Class-Library/" xlink:href="https://alexworx.github.io/ALib-Class-Library/classaworx_1_1lib_1_1config_1_1ConfigurationPlugin.html" xlink:title=" ">
<polygon fill="#ffffff" stroke="#000000" points="0,-49.5 0,-79.5 107,-79.5 107,-49.5 0,-49.5"/>
<text text-anchor="start" x="8" y="-67.5" font-family="Helvetica,sans-Serif" font-size="10.00" fill="#000000">aworx::lib::config</text>
<text text-anchor="middle" x="53.5" y="-56.5" font-family="Helvetica,sans-Serif" font-size="10.00" fill="#000000">::ConfigurationPlugin</text>
</a>
</g>
</g>
<!-- Node1 -->
<g id="node2" class="node">
<title>Node1</title>
<g id="a_node2"><a doxygen="/home/a/mnt/dev/A-Worx/ALib/html/cpp_ref.tag:https://alexworx.github.io/ALib-Class-Library/" xlink:href="https://alexworx.github.io/ALib-Class-Library/classaworx_1_1lib_1_1config_1_1CLIArgs.html" xlink:title=" ">
<polygon fill="#ffffff" stroke="#000000" points="144.5,-98.5 144.5,-128.5 234.5,-128.5 234.5,-98.5 144.5,-98.5"/>
<text text-anchor="start" x="152.5" y="-116.5" font-family="Helvetica,sans-Serif" font-size="10.00" fill="#000000">aworx::lib::config</text>
<text text-anchor="middle" x="189.5" y="-105.5" font-family="Helvetica,sans-Serif" font-size="10.00" fill="#000000">::CLIArgs</text>
</a>
</g>
</g>
<!-- Node0&#45;&gt;Node1 -->
<g id="edge1" class="edge">
<title>Node0&#45;&gt;Node1</title>
<path fill="none" stroke="#191970" d="M104.9455,-83.0355C118.9906,-88.0959 134.0389,-93.5177 147.4901,-98.3641"/>
<polygon fill="#191970" stroke="#191970" points="106.0086,-79.6984 95.4142,-79.6014 103.6358,-86.2839 106.0086,-79.6984"/>
</g>
<!-- Node2 -->
<g id="node3" class="node">
<title>Node2</title>
<g id="a_node3"><a doxygen="/home/a/mnt/dev/A-Worx/ALib/html/cpp_ref.tag:https://alexworx.github.io/ALib-Class-Library/" xlink:href="https://alexworx.github.io/ALib-Class-Library/classaworx_1_1lib_1_1config_1_1Environment.html" xlink:title=" ">
<polygon fill="#ffffff" stroke="#000000" points="144.5,-49.5 144.5,-79.5 234.5,-79.5 234.5,-49.5 144.5,-49.5"/>
<text text-anchor="start" x="152.5" y="-67.5" font-family="Helvetica,sans-Serif" font-size="10.00" fill="#000000">aworx::lib::config</text>
<text text-anchor="middle" x="189.5" y="-56.5" font-family="Helvetica,sans-Serif" font-size="10.00" fill="#000000">::Environment</text>
</a>
</g>
</g>
<!-- Node0&#45;&gt;Node2 -->
<g id="edge2" class="edge">
<title>Node0&#45;&gt;Node2</title>
<path fill="none" stroke="#191970" d="M117.4726,-64.5C126.5939,-64.5 135.8121,-64.5 144.4678,-64.5"/>
<polygon fill="#191970" stroke="#191970" points="117.2508,-61.0001 107.2508,-64.5 117.2508,-68.0001 117.2508,-61.0001"/>
</g>
<!-- Node3 -->
<g id="node4" class="node">
<title>Node3</title>
<g id="a_node4"><a doxygen="/home/a/mnt/dev/A-Worx/ALib/html/cpp_ref.tag:https://alexworx.github.io/ALib-Class-Library/" xlink:href="https://alexworx.github.io/ALib-Class-Library/classaworx_1_1lib_1_1config_1_1InMemoryPlugin.html" xlink:title=" ">
<polygon fill="#ffffff" stroke="#000000" points="143,-.5 143,-30.5 236,-30.5 236,-.5 143,-.5"/>
<text text-anchor="start" x="151" y="-18.5" font-family="Helvetica,sans-Serif" font-size="10.00" fill="#000000">aworx::lib::config</text>
<text text-anchor="middle" x="189.5" y="-7.5" font-family="Helvetica,sans-Serif" font-size="10.00" fill="#000000">::InMemoryPlugin</text>
</a>
</g>
</g>
<!-- Node0&#45;&gt;Node3 -->
<g id="edge3" class="edge">
<title>Node0&#45;&gt;Node3</title>
<path fill="none" stroke="#191970" d="M104.9455,-45.9645C118.9906,-40.9041 134.0389,-35.4823 147.4901,-30.6359"/>
<polygon fill="#191970" stroke="#191970" points="103.6358,-42.7161 95.4142,-49.3986 106.0086,-49.3016 103.6358,-42.7161"/>
</g>
<!-- Node4 -->
<g id="node5" class="node">
<title>Node4</title>
<g id="a_node5"><a doxygen="/home/a/mnt/dev/A-Worx/ALib/html/cpp_ref.tag:https://alexworx.github.io/ALib-Class-Library/" xlink:href="https://alexworx.github.io/ALib-Class-Library/classaworx_1_1lib_1_1config_1_1IniFile.html" xlink:title=" ">
<polygon fill="#ffffff" stroke="#000000" points="272,-.5 272,-30.5 362,-30.5 362,-.5 272,-.5"/>
<text text-anchor="start" x="280" y="-18.5" font-family="Helvetica,sans-Serif" font-size="10.00" fill="#000000">aworx::lib::config</text>
<text text-anchor="middle" x="317" y="-7.5" font-family="Helvetica,sans-Serif" font-size="10.00" fill="#000000">::IniFile</text>
</a>
</g>
</g>
<!-- Node3&#45;&gt;Node4 -->
<g id="edge4" class="edge">
<title>Node3&#45;&gt;Node4</title>
<path fill="none" stroke="#191970" d="M246.5234,-15.5C255.0438,-15.5 263.7264,-15.5 271.953,-15.5"/>
<polygon fill="#191970" stroke="#191970" points="246.2523,-12.0001 236.2523,-15.5 246.2523,-19.0001 246.2523,-12.0001"/>
</g>
</g>
</svg>
