<?xml version="1.0" encoding="UTF-8" standalone="no"?>
<!DOCTYPE svg PUBLIC "-//W3C//DTD SVG 1.1//EN"
 "http://www.w3.org/Graphics/SVG/1.1/DTD/svg11.dtd">
<!-- Generated by graphviz version 2.38.0 (20140413.2041)
 -->
<!-- Title: Graphical Class Hierarchy Pages: 1 -->
<svg width="563pt" height="392pt"
 viewBox="0.00 0.00 563.00 392.00" xmlns="http://www.w3.org/2000/svg" xmlns:xlink="http://www.w3.org/1999/xlink">
<g id="graph0" class="graph" transform="scale(1 1) rotate(0) translate(4 388)">
<title>Graphical Class Hierarchy</title>
<polygon fill="white" stroke="none" points="-4,4 -4,-388 559,-388 559,4 -4,4"/>
<!-- Node1 -->
<g id="node1" class="node"><title>Node1</title>
<g id="a_node1"><a doxygen="/home/a/mnt/dev/A-Worx/ALox/html/cpp_ref/cpp_ref.tag:cpp_ref/" xlink:href="cpp_ref/classaworx_1_1lib_1_1strings_1_1String.html" target="_top" xlink:title="aworx::lib::strings\l::String">
<polygon fill="white" stroke="black" points="0,-133 0,-163 94,-163 94,-133 0,-133"/>
<text text-anchor="start" x="8" y="-151" font-family="Helvetica,sans-Serif" font-size="10.00">aworx::lib::strings</text>
<text text-anchor="middle" x="47" y="-140" font-family="Helvetica,sans-Serif" font-size="10.00">::String</text>
</a>
</g>
</g>
<!-- Node2 -->
<g id="node2" class="node"><title>Node2</title>
<g id="a_node2"><a doxygen="/home/a/mnt/dev/A-Worx/ALox/html/cpp_ref/cpp_ref.tag:cpp_ref/" xlink:href="cpp_ref/classaworx_1_1lib_1_1strings_1_1Substring.html" target="_top" xlink:title="aworx::lib::strings\l::Substring">
<polygon fill="white" stroke="black" points="130,-158 130,-188 224,-188 224,-158 130,-158"/>
<text text-anchor="start" x="138" y="-176" font-family="Helvetica,sans-Serif" font-size="10.00">aworx::lib::strings</text>
<text text-anchor="middle" x="177" y="-165" font-family="Helvetica,sans-Serif" font-size="10.00">::Substring</text>
</a>
</g>
</g>
<!-- Node1&#45;&gt;Node2 -->
<g id="edge1" class="edge"><title>Node1&#45;&gt;Node2</title>
<path fill="none" stroke="midnightblue" d="M104.162,-158.969C112.746,-160.646 121.521,-162.36 129.857,-163.988"/>
<polygon fill="midnightblue" stroke="midnightblue" points="104.696,-155.507 94.2109,-157.026 103.355,-162.378 104.696,-155.507"/>
</g>
<!-- Node3 -->
<g id="node3" class="node"><title>Node3</title>
<g id="a_node3"><a doxygen="/home/a/mnt/dev/A-Worx/ALox/html/cpp_ref/cpp_ref.tag:cpp_ref/" xlink:href="cpp_ref/classaworx_1_1lib_1_1strings_1_1TString.html" target="_top" xlink:title="aworx::lib::strings\l::TString">
<polygon fill="white" stroke="black" points="130,-109 130,-139 224,-139 224,-109 130,-109"/>
<text text-anchor="start" x="138" y="-127" font-family="Helvetica,sans-Serif" font-size="10.00">aworx::lib::strings</text>
<text text-anchor="middle" x="177" y="-116" font-family="Helvetica,sans-Serif" font-size="10.00">::TString</text>
</a>
</g>
</g>
<!-- Node1&#45;&gt;Node3 -->
<g id="edge2" class="edge"><title>Node1&#45;&gt;Node3</title>
<path fill="none" stroke="midnightblue" d="M104.162,-137.47C112.746,-135.86 121.521,-134.215 129.857,-132.652"/>
<polygon fill="midnightblue" stroke="midnightblue" points="103.395,-134.052 94.2109,-139.335 104.685,-140.933 103.395,-134.052"/>
</g>
<!-- Node4 -->
<g id="node4" class="node"><title>Node4</title>
<g id="a_node4"><a doxygen="/home/a/mnt/dev/A-Worx/ALox/html/cpp_ref/cpp_ref.tag:cpp_ref/" xlink:href="cpp_ref/classaworx_1_1lib_1_1strings_1_1AString.html" target="_top" xlink:title="aworx::lib::strings\l::AString">
<polygon fill="white" stroke="black" points="277,-240 277,-270 371,-270 371,-240 277,-240"/>
<text text-anchor="start" x="285" y="-258" font-family="Helvetica,sans-Serif" font-size="10.00">aworx::lib::strings</text>
<text text-anchor="middle" x="324" y="-247" font-family="Helvetica,sans-Serif" font-size="10.00">::AString</text>
</a>
</g>
</g>
<!-- Node3&#45;&gt;Node4 -->
<g id="edge3" class="edge"><title>Node3&#45;&gt;Node4</title>
<path fill="none" stroke="midnightblue" d="M220.221,-145.292C221.55,-146.476 222.816,-147.712 224,-149 250.936,-178.303 231.165,-203.564 260,-231 264.833,-235.599 270.637,-239.339 276.741,-242.376"/>
<polygon fill="midnightblue" stroke="midnightblue" points="222.129,-142.346 212.052,-139.073 217.888,-147.915 222.129,-142.346"/>
</g>
<!-- Node10 -->
<g id="node10" class="node"><title>Node10</title>
<g id="a_node10"><a doxygen="/home/a/mnt/dev/A-Worx/ALox/html/cpp_ref/cpp_ref.tag:cpp_ref/" xlink:href="cpp_ref/classaworx_1_1lib_1_1strings_1_1StringLiteral.html" target="_top" xlink:title="aworx::lib::strings\l::StringLiteral\&lt; TLength \&gt;">
<polygon fill="white" stroke="black" points="260,-191 260,-221 388,-221 388,-191 260,-191"/>
<text text-anchor="start" x="268" y="-209" font-family="Helvetica,sans-Serif" font-size="10.00">aworx::lib::strings</text>
<text text-anchor="middle" x="324" y="-198" font-family="Helvetica,sans-Serif" font-size="10.00">::StringLiteral&lt; TLength &gt;</text>
</a>
</g>
</g>
<!-- Node3&#45;&gt;Node10 -->
<g id="edge9" class="edge"><title>Node3&#45;&gt;Node10</title>
<path fill="none" stroke="midnightblue" d="M217.304,-144.556C219.604,-146.006 221.852,-147.492 224,-149 241.519,-161.303 241.774,-169.77 260,-181 266.011,-184.704 272.665,-188.044 279.33,-190.989"/>
<polygon fill="midnightblue" stroke="midnightblue" points="218.672,-141.296 208.291,-139.175 215.083,-147.306 218.672,-141.296"/>
</g>
<!-- Node11 -->
<g id="node11" class="node"><title>Node11</title>
<g id="a_node11"><a doxygen="/home/a/mnt/dev/A-Worx/ALox/html/cpp_ref/cpp_ref.tag:cpp_ref/" xlink:href="cpp_ref/classaworx_1_1lib_1_1strings_1_1StringLiteral.html" target="_top" xlink:title="StringLiteral\&lt; 10 \&gt;">
<polygon fill="white" stroke="black" points="275.5,-152.5 275.5,-171.5 372.5,-171.5 372.5,-152.5 275.5,-152.5"/>
<text text-anchor="middle" x="324" y="-159.5" font-family="Helvetica,sans-Serif" font-size="10.00">StringLiteral&lt; 10 &gt;</text>
</a>
</g>
</g>
<!-- Node3&#45;&gt;Node11 -->
<g id="edge10" class="edge"><title>Node3&#45;&gt;Node11</title>
<path fill="none" stroke="midnightblue" d="M234.367,-138.772C251.816,-143.345 270.578,-148.262 286.327,-152.389"/>
<polygon fill="midnightblue" stroke="midnightblue" points="234.838,-135.277 224.278,-136.128 233.064,-142.049 234.838,-135.277"/>
</g>
<!-- Node12 -->
<g id="node12" class="node"><title>Node12</title>
<g id="a_node12"><a doxygen="/home/a/mnt/dev/A-Worx/ALox/html/cpp_ref/cpp_ref.tag:cpp_ref/" xlink:href="cpp_ref/classaworx_1_1lib_1_1strings_1_1StringLiteral.html" target="_top" xlink:title="StringLiteral\&lt; 11 \&gt;">
<polygon fill="white" stroke="black" points="275.5,-114.5 275.5,-133.5 372.5,-133.5 372.5,-114.5 275.5,-114.5"/>
<text text-anchor="middle" x="324" y="-121.5" font-family="Helvetica,sans-Serif" font-size="10.00">StringLiteral&lt; 11 &gt;</text>
</a>
</g>
</g>
<!-- Node3&#45;&gt;Node12 -->
<g id="edge11" class="edge"><title>Node3&#45;&gt;Node12</title>
<path fill="none" stroke="midnightblue" d="M234.448,-124C247.991,-124 262.322,-124 275.417,-124"/>
<polygon fill="midnightblue" stroke="midnightblue" points="234.278,-120.5 224.278,-124 234.278,-127.5 234.278,-120.5"/>
</g>
<!-- Node13 -->
<g id="node13" class="node"><title>Node13</title>
<g id="a_node13"><a doxygen="/home/a/mnt/dev/A-Worx/ALox/html/cpp_ref/cpp_ref.tag:cpp_ref/" xlink:href="cpp_ref/classaworx_1_1lib_1_1strings_1_1StringLiteral.html" target="_top" xlink:title="StringLiteral\&lt; 3 \&gt;">
<polygon fill="white" stroke="black" points="278,-76.5 278,-95.5 370,-95.5 370,-76.5 278,-76.5"/>
<text text-anchor="middle" x="324" y="-83.5" font-family="Helvetica,sans-Serif" font-size="10.00">StringLiteral&lt; 3 &gt;</text>
</a>
</g>
</g>
<!-- Node3&#45;&gt;Node13 -->
<g id="edge12" class="edge"><title>Node3&#45;&gt;Node13</title>
<path fill="none" stroke="midnightblue" d="M234.367,-109.228C251.816,-104.655 270.578,-99.7383 286.327,-95.6109"/>
<polygon fill="midnightblue" stroke="midnightblue" points="233.064,-105.951 224.278,-111.872 234.838,-112.723 233.064,-105.951"/>
</g>
<!-- Node14 -->
<g id="node14" class="node"><title>Node14</title>
<g id="a_node14"><a doxygen="/home/a/mnt/dev/A-Worx/ALox/html/cpp_ref/cpp_ref.tag:cpp_ref/" xlink:href="cpp_ref/classaworx_1_1lib_1_1strings_1_1StringLiteral.html" target="_top" xlink:title="StringLiteral\&lt; 4 \&gt;">
<polygon fill="white" stroke="black" points="278,-38.5 278,-57.5 370,-57.5 370,-38.5 278,-38.5"/>
<text text-anchor="middle" x="324" y="-45.5" font-family="Helvetica,sans-Serif" font-size="10.00">StringLiteral&lt; 4 &gt;</text>
</a>
</g>
</g>
<!-- Node3&#45;&gt;Node14 -->
<g id="edge13" class="edge"><title>Node3&#45;&gt;Node14</title>
<path fill="none" stroke="midnightblue" d="M204.23,-102.577C219.709,-90.7743 240.112,-76.6116 260,-67 267.612,-63.3215 276.087,-60.1821 284.29,-57.5774"/>
<polygon fill="midnightblue" stroke="midnightblue" points="201.915,-99.9445 196.172,-108.848 206.213,-105.469 201.915,-99.9445"/>
</g>
<!-- Node15 -->
<g id="node15" class="node"><title>Node15</title>
<g id="a_node15"><a doxygen="/home/a/mnt/dev/A-Worx/ALox/html/cpp_ref/cpp_ref.tag:cpp_ref/" xlink:href="cpp_ref/classaworx_1_1lib_1_1strings_1_1StringLiteral.html" target="_top" xlink:title="StringLiteral\&lt; 5 \&gt;">
<polygon fill="white" stroke="black" points="278,-0.5 278,-19.5 370,-19.5 370,-0.5 278,-0.5"/>
<text text-anchor="middle" x="324" y="-7.5" font-family="Helvetica,sans-Serif" font-size="10.00">StringLiteral&lt; 5 &gt;</text>
</a>
</g>
</g>
<!-- Node3&#45;&gt;Node15 -->
<g id="edge14" class="edge"><title>Node3&#45;&gt;Node15</title>
<path fill="none" stroke="midnightblue" d="M192.782,-100.205C207.356,-78.6358 231.538,-47.4775 260,-29 265.941,-25.1432 272.699,-22.0401 279.531,-19.5519"/>
<polygon fill="midnightblue" stroke="midnightblue" points="189.703,-98.5176 187.139,-108.798 195.554,-102.36 189.703,-98.5176"/>
</g>
<!-- Node5 -->
<g id="node5" class="node"><title>Node5</title>
<g id="a_node5"><a doxygen="/home/a/mnt/dev/A-Worx/ALox/html/cpp_ref/cpp_ref.tag:cpp_ref/" xlink:href="cpp_ref/classaworx_1_1lib_1_1strings_1_1PreallocatedString.html" target="_top" xlink:title="aworx::lib::strings\l::PreallocatedString\l\&lt; TCapacity \&gt;">
<polygon fill="white" stroke="black" points="438.5,-342.5 438.5,-383.5 540.5,-383.5 540.5,-342.5 438.5,-342.5"/>
<text text-anchor="start" x="446.5" y="-371.5" font-family="Helvetica,sans-Serif" font-size="10.00">aworx::lib::strings</text>
<text text-anchor="start" x="446.5" y="-360.5" font-family="Helvetica,sans-Serif" font-size="10.00">::PreallocatedString</text>
<text text-anchor="middle" x="489.5" y="-349.5" font-family="Helvetica,sans-Serif" font-size="10.00">&lt; TCapacity &gt;</text>
</a>
</g>
</g>
<!-- Node4&#45;&gt;Node5 -->
<g id="edge4" class="edge"><title>Node4&#45;&gt;Node5</title>
<path fill="none" stroke="midnightblue" d="M348.9,-276.915C368.202,-293.891 396.574,-317.26 424,-334 428.821,-336.942 433.991,-339.764 439.231,-342.413"/>
<polygon fill="midnightblue" stroke="midnightblue" points="351.008,-274.105 341.212,-270.069 346.352,-279.333 351.008,-274.105"/>
</g>
<!-- Node6 -->
<g id="node6" class="node"><title>Node6</title>
<g id="a_node6"><a doxygen="/home/a/mnt/dev/A-Worx/ALox/html/cpp_ref/cpp_ref.tag:cpp_ref/" xlink:href="cpp_ref/classaworx_1_1lib_1_1strings_1_1PreallocatedString.html" target="_top" xlink:title="aworx::lib::strings\l::PreallocatedString\&lt; 16 \&gt;">
<polygon fill="white" stroke="black" points="424,-294 424,-324 555,-324 555,-294 424,-294"/>
<text text-anchor="start" x="432" y="-312" font-family="Helvetica,sans-Serif" font-size="10.00">aworx::lib::strings</text>
<text text-anchor="middle" x="489.5" y="-301" font-family="Helvetica,sans-Serif" font-size="10.00">::PreallocatedString&lt; 16 &gt;</text>
</a>
</g>
</g>
<!-- Node4&#45;&gt;Node6 -->
<g id="edge5" class="edge"><title>Node4&#45;&gt;Node6</title>
<path fill="none" stroke="midnightblue" d="M380.042,-273.179C400.479,-279.929 423.417,-287.505 442.917,-293.945"/>
<polygon fill="midnightblue" stroke="midnightblue" points="381.137,-269.855 370.544,-270.042 378.942,-276.502 381.137,-269.855"/>
</g>
<!-- Node7 -->
<g id="node7" class="node"><title>Node7</title>
<g id="a_node7"><a doxygen="/home/a/mnt/dev/A-Worx/ALox/html/cpp_ref/cpp_ref.tag:cpp_ref/" xlink:href="cpp_ref/classaworx_1_1lib_1_1strings_1_1PreallocatedString.html" target="_top" xlink:title="aworx::lib::strings\l::PreallocatedString\l\&lt; 256 \&gt;">
<polygon fill="white" stroke="black" points="438.5,-234.5 438.5,-275.5 540.5,-275.5 540.5,-234.5 438.5,-234.5"/>
<text text-anchor="start" x="446.5" y="-263.5" font-family="Helvetica,sans-Serif" font-size="10.00">aworx::lib::strings</text>
<text text-anchor="start" x="446.5" y="-252.5" font-family="Helvetica,sans-Serif" font-size="10.00">::PreallocatedString</text>
<text text-anchor="middle" x="489.5" y="-241.5" font-family="Helvetica,sans-Serif" font-size="10.00">&lt; 256 &gt;</text>
</a>
</g>
</g>
<!-- Node4&#45;&gt;Node7 -->
<g id="edge6" class="edge"><title>Node4&#45;&gt;Node7</title>
<path fill="none" stroke="midnightblue" d="M381.447,-255C399.906,-255 420.275,-255 438.246,-255"/>
<polygon fill="midnightblue" stroke="midnightblue" points="381.415,-251.5 371.415,-255 381.415,-258.5 381.415,-251.5"/>
</g>
<!-- Node8 -->
<g id="node8" class="node"><title>Node8</title>
<g id="a_node8"><a doxygen="/home/a/mnt/dev/A-Worx/ALox/html/cpp_ref/cpp_ref.tag:cpp_ref/" xlink:href="cpp_ref/classaworx_1_1lib_1_1strings_1_1PreallocatedString.html" target="_top" xlink:title="aworx::lib::strings\l::PreallocatedString\&lt; 32 \&gt;">
<polygon fill="white" stroke="black" points="424,-186 424,-216 555,-216 555,-186 424,-186"/>
<text text-anchor="start" x="432" y="-204" font-family="Helvetica,sans-Serif" font-size="10.00">aworx::lib::strings</text>
<text text-anchor="middle" x="489.5" y="-193" font-family="Helvetica,sans-Serif" font-size="10.00">::PreallocatedString&lt; 32 &gt;</text>
</a>
</g>
</g>
<!-- Node4&#45;&gt;Node8 -->
<g id="edge7" class="edge"><title>Node4&#45;&gt;Node8</title>
<path fill="none" stroke="midnightblue" d="M380.042,-236.821C400.479,-230.071 423.417,-222.495 442.917,-216.055"/>
<polygon fill="midnightblue" stroke="midnightblue" points="378.942,-233.498 370.544,-239.958 381.137,-240.145 378.942,-233.498"/>
</g>
<!-- Node9 -->
<g id="node9" class="node"><title>Node9</title>
<g id="a_node9"><a doxygen="/home/a/mnt/dev/A-Worx/ALox/html/cpp_ref/cpp_ref.tag:cpp_ref/" xlink:href="cpp_ref/classaworx_1_1lib_1_1strings_1_1PreallocatedString.html" target="_top" xlink:title="aworx::lib::strings\l::PreallocatedString\&lt; 64 \&gt;">
<polygon fill="white" stroke="black" points="424,-137 424,-167 555,-167 555,-137 424,-137"/>
<text text-anchor="start" x="432" y="-155" font-family="Helvetica,sans-Serif" font-size="10.00">aworx::lib::strings</text>
<text text-anchor="middle" x="489.5" y="-144" font-family="Helvetica,sans-Serif" font-size="10.00">::PreallocatedString&lt; 64 &gt;</text>
</a>
</g>
</g>
<!-- Node4&#45;&gt;Node9 -->
<g id="edge8" class="edge"><title>Node4&#45;&gt;Node9</title>
<path fill="none" stroke="midnightblue" d="M380.226,-236.408C382.95,-234.744 385.563,-232.945 388,-231 410.548,-213.012 401.504,-195.054 424,-177 428.777,-173.166 434.21,-169.868 439.849,-167.044"/>
<polygon fill="midnightblue" stroke="midnightblue" points="378.355,-233.441 371.219,-241.272 381.681,-239.6 378.355,-233.441"/>
</g>
</g>
</svg>
