<?xml version="1.0" encoding="UTF-8" standalone="no"?>
<!DOCTYPE svg PUBLIC "-//W3C//DTD SVG 1.1//EN"
 "http://www.w3.org/Graphics/SVG/1.1/DTD/svg11.dtd">
<!-- Generated by graphviz version 2.40.1 (20161225.0304)
 -->
<!-- Title: Graphical Class Hierarchy Pages: 1 -->
<svg width="292pt" height="137pt"
 viewBox="0.00 0.00 292.00 137.00" xmlns="http://www.w3.org/2000/svg" xmlns:xlink="http://www.w3.org/1999/xlink">
<g id="graph0" class="graph" transform="scale(1 1) rotate(0) translate(4 133)">
<title>Graphical Class Hierarchy</title>
<polygon fill="#ffffff" stroke="transparent" points="-4,4 -4,-133 288,-133 288,4 -4,4"/>
<!-- Node0 -->
<g id="node1" class="node">
<title>Node0</title>
<g id="a_node1"><a doxygen="/home/a/mnt/dev/A-Worx/ALib/html/cpp_ref.tag:https://alexworx.github.io/ALib-Class-Library/" xlink:href="https://alexworx.github.io/ALib-Class-Library/classaworx_1_1lib_1_1config_1_1InMemoryPlugin_1_1Section.html" xlink:title="aworx::lib::config\l::InMemoryPlugin::Section">
<polygon fill="#ffffff" stroke="#000000" points="0,-49.5 0,-79.5 132,-79.5 132,-49.5 0,-49.5"/>
<text text-anchor="start" x="8" y="-67.5" font-family="Helvetica,sans-Serif" font-size="10.00" fill="#000000">aworx::lib::config</text>
<text text-anchor="middle" x="66" y="-56.5" font-family="Helvetica,sans-Serif" font-size="10.00" fill="#000000">::InMemoryPlugin::Section</text>
</a>
</g>
</g>
<!-- Node1 -->
<g id="node2" class="node">
<title>Node1</title>
<g id="a_node2"><a doxygen="/home/a/mnt/dev/A-Worx/ALib/html/cpp_ref.tag:https://alexworx.github.io/ALib-Class-Library/" xlink:href="https://alexworx.github.io/ALib-Class-Library/classaworx_1_1lib_1_1config_1_1IniFile_1_1Section.html" xlink:title="aworx::lib::config\l::IniFile::Section">
<polygon fill="#ffffff" stroke="#000000" points="180.5,-98.5 180.5,-128.5 271.5,-128.5 271.5,-98.5 180.5,-98.5"/>
<text text-anchor="start" x="188.5" y="-116.5" font-family="Helvetica,sans-Serif" font-size="10.00" fill="#000000">aworx::lib::config</text>
<text text-anchor="middle" x="226" y="-105.5" font-family="Helvetica,sans-Serif" font-size="10.00" fill="#000000">::IniFile::Section</text>
</a>
</g>
</g>
<!-- Node0&#45;&gt;Node1 -->
<g id="edge1" class="edge">
<title>Node0&#45;&gt;Node1</title>
<path fill="none" stroke="#191970" d="M124.9965,-82.5677C143.2891,-88.1698 163.1586,-94.2548 180.3963,-99.5339"/>
<polygon fill="#191970" stroke="#191970" points="125.8974,-79.1832 115.3108,-79.6014 123.8476,-85.8763 125.8974,-79.1832"/>
</g>
<!-- Node2 -->
<g id="node3" class="node">
<title>Node2</title>
<g id="a_node3"><a doxygen="/home/a/mnt/dev/A-Worx/ALox/html/java_ref/java_ref.tag:./java_ref/" xlink:href="./java_ref/classcom_1_1aworx_1_1lib_1_1config_1_1IniFile_1_1Section.html" xlink:title="com::aworx::lib::config\l::IniFile::Section">
<polygon fill="#ffffff" stroke="#000000" points="168,-49.5 168,-79.5 284,-79.5 284,-49.5 168,-49.5"/>
<text text-anchor="start" x="176" y="-67.5" font-family="Helvetica,sans-Serif" font-size="10.00" fill="#000000">com::aworx::lib::config</text>
<text text-anchor="middle" x="226" y="-56.5" font-family="Helvetica,sans-Serif" font-size="10.00" fill="#000000">::IniFile::Section</text>
</a>
</g>
</g>
<!-- Node0&#45;&gt;Node2 -->
<g id="edge2" class="edge">
<title>Node0&#45;&gt;Node2</title>
<path fill="none" stroke="#191970" d="M142.1016,-64.5C150.7495,-64.5 159.4584,-64.5 167.8226,-64.5"/>
<polygon fill="#191970" stroke="#191970" points="142.0019,-61.0001 132.0019,-64.5 142.0018,-68.0001 142.0019,-61.0001"/>
</g>
<!-- Node3 -->
<g id="node4" class="node">
<title>Node3</title>
<g id="a_node4"><a doxygen="/home/a/mnt/dev/A-Worx/ALox/html/cs_ref/cs_ref.tag:./cs_ref/" xlink:href="./cs_ref/classcs_1_1aworx_1_1lib_1_1config_1_1IniFile_1_1Section.html" xlink:title="cs::aworx::lib::config\l::IniFile::Section">
<polygon fill="#ffffff" stroke="#000000" points="172.5,-.5 172.5,-30.5 279.5,-30.5 279.5,-.5 172.5,-.5"/>
<text text-anchor="start" x="180.5" y="-18.5" font-family="Helvetica,sans-Serif" font-size="10.00" fill="#000000">cs::aworx::lib::config</text>
<text text-anchor="middle" x="226" y="-7.5" font-family="Helvetica,sans-Serif" font-size="10.00" fill="#000000">::IniFile::Section</text>
</a>
</g>
</g>
<!-- Node0&#45;&gt;Node3 -->
<g id="edge3" class="edge">
<title>Node0&#45;&gt;Node3</title>
<path fill="none" stroke="#191970" d="M125.1442,-46.3871C142.1542,-41.1778 160.5165,-35.5543 176.852,-30.5516"/>
<polygon fill="#191970" stroke="#191970" points="123.8476,-43.1237 115.3108,-49.3986 125.8974,-49.8168 123.8476,-43.1237"/>
</g>
</g>
</svg>
