<?xml version="1.0" encoding="UTF-8" standalone="no"?>
<!DOCTYPE svg PUBLIC "-//W3C//DTD SVG 1.1//EN"
 "http://www.w3.org/Graphics/SVG/1.1/DTD/svg11.dtd">
<!-- Generated by graphviz version 2.40.1 (20161225.0304)
 -->
<!-- Title: Graphical Class Hierarchy Pages: 1 -->
<svg width="314pt" height="78pt"
 viewBox="0.00 0.00 314.00 77.50" xmlns="http://www.w3.org/2000/svg" xmlns:xlink="http://www.w3.org/1999/xlink">
<g id="graph0" class="graph" transform="scale(1 1) rotate(0) translate(4 73.5)">
<title>Graphical Class Hierarchy</title>
<polygon fill="#ffffff" stroke="transparent" points="-4,4 -4,-73.5 310,-73.5 310,4 -4,4"/>
<!-- Node0 -->
<g id="node1" class="node">
<title>Node0</title>
<g id="a_node1"><a doxygen="/home/a/mnt/dev/A-Worx/ALib/html/cpp_ref.tag:https://alexworx.github.io/ALib-Class-Library/" xlink:href="https://alexworx.github.io/ALib-Class-Library/classaworx_1_1lib_1_1lang_1_1Singleton.html" xlink:title="Singleton\&lt; EnumMetaData\l\&lt; TEnum \&gt; \&gt;">
<polygon fill="#ffffff" stroke="#000000" points="0,-17 0,-47 134,-47 134,-17 0,-17"/>
<text text-anchor="start" x="8" y="-35" font-family="Helvetica,sans-Serif" font-size="10.00" fill="#000000">Singleton&lt; EnumMetaData</text>
<text text-anchor="middle" x="67" y="-24" font-family="Helvetica,sans-Serif" font-size="10.00" fill="#000000">&lt; TEnum &gt; &gt;</text>
</a>
</g>
</g>
<!-- Node1 -->
<g id="node2" class="node">
<title>Node1</title>
<g id="a_node2"><a doxygen="/home/a/mnt/dev/A-Worx/ALib/html/cpp_ref.tag:https://alexworx.github.io/ALib-Class-Library/" xlink:href="https://alexworx.github.io/ALib-Class-Library/structaworx_1_1lib_1_1lang_1_1EnumMetaData.html" xlink:title="aworx::lib::lang::EnumMeta\lData\&lt; TEnum, TEnableIf \&gt;">
<polygon fill="#ffffff" stroke="#000000" points="170,-39 170,-69 306,-69 306,-39 170,-39"/>
<text text-anchor="start" x="178" y="-57" font-family="Helvetica,sans-Serif" font-size="10.00" fill="#000000">aworx::lib::lang::EnumMeta</text>
<text text-anchor="middle" x="238" y="-46" font-family="Helvetica,sans-Serif" font-size="10.00" fill="#000000">Data&lt; TEnum, TEnableIf &gt;</text>
</a>
</g>
</g>
<!-- Node0&#45;&gt;Node1 -->
<g id="edge1" class="edge">
<title>Node0&#45;&gt;Node1</title>
<path fill="none" stroke="#191970" d="M144.1354,-41.9239C152.753,-43.0325 161.485,-44.156 169.9768,-45.2485"/>
<polygon fill="#191970" stroke="#191970" points="144.4578,-38.4366 134.0929,-40.6318 143.5645,-45.3793 144.4578,-38.4366"/>
</g>
<!-- Node2 -->
<g id="node3" class="node">
<title>Node2</title>
<g id="a_node3"><a doxygen="/home/a/mnt/dev/A-Worx/ALib/html/cpp_ref.tag:https://alexworx.github.io/ALib-Class-Library/" xlink:href="https://alexworx.github.io/ALib-Class-Library/structaworx_1_1lib_1_1lang_1_1EnumMetaData.html" xlink:title="EnumMetaData\&lt; TEnum \&gt;">
<polygon fill="#ffffff" stroke="#000000" points="171,-.5 171,-19.5 305,-19.5 305,-.5 171,-.5"/>
<text text-anchor="middle" x="238" y="-7.5" font-family="Helvetica,sans-Serif" font-size="10.00" fill="#000000">EnumMetaData&lt; TEnum &gt;</text>
</a>
</g>
</g>
<!-- Node0&#45;&gt;Node2 -->
<g id="edge2" class="edge">
<title>Node0&#45;&gt;Node2</title>
<path fill="none" stroke="#191970" d="M144.0886,-22.0822C153.0068,-20.9348 162.0483,-19.7716 170.8199,-18.6431"/>
<polygon fill="#191970" stroke="#191970" points="143.5645,-18.6207 134.0929,-23.3682 144.4578,-25.5634 143.5645,-18.6207"/>
</g>
</g>
</svg>
