<?xml version="1.0" encoding="UTF-8" standalone="no"?>
<!DOCTYPE svg PUBLIC "-//W3C//DTD SVG 1.1//EN"
 "http://www.w3.org/Graphics/SVG/1.1/DTD/svg11.dtd">
<!-- Generated by graphviz version 2.38.0 (20140413.2041)
 -->
<!-- Title: Graphical Class Hierarchy Pages: 1 -->
<svg width="428pt" height="137pt"
 viewBox="0.00 0.00 428.00 137.00" xmlns="http://www.w3.org/2000/svg" xmlns:xlink="http://www.w3.org/1999/xlink">
<g id="graph0" class="graph" transform="scale(1 1) rotate(0) translate(4 133)">
<title>Graphical Class Hierarchy</title>
<polygon fill="white" stroke="none" points="-4,4 -4,-133 424,-133 424,4 -4,4"/>
<!-- Node1 -->
<g id="node1" class="node"><title>Node1</title>
<g id="a_node1"><a doxygen="A-Worx/ALox/html/java_ref/java_ref.tag:java_ref/" xlink:href="java_ref/classcom_1_1aworx_1_1lib_1_1config_1_1ConfigurationPlugin.html" target="_top" xlink:title="com::aworx::lib::config\l::ConfigurationPlugin">
<polygon fill="white" stroke="black" points="0,-49.5 0,-79.5 116,-79.5 116,-49.5 0,-49.5"/>
<text text-anchor="start" x="8" y="-67.5" font-family="Helvetica,sans-Serif" font-size="10.00">com::aworx::lib::config</text>
<text text-anchor="middle" x="58" y="-56.5" font-family="Helvetica,sans-Serif" font-size="10.00">::ConfigurationPlugin</text>
</a>
</g>
</g>
<!-- Node2 -->
<g id="node2" class="node"><title>Node2</title>
<g id="a_node2"><a doxygen="A-Worx/ALox/html/java_ref/java_ref.tag:java_ref/" xlink:href="java_ref/classcom_1_1aworx_1_1lib_1_1config_1_1CommandLinePlugin.html" target="_top" xlink:title="com::aworx::lib::config\l::CommandLinePlugin">
<polygon fill="white" stroke="black" points="152,-98.5 152,-128.5 268,-128.5 268,-98.5 152,-98.5"/>
<text text-anchor="start" x="160" y="-116.5" font-family="Helvetica,sans-Serif" font-size="10.00">com::aworx::lib::config</text>
<text text-anchor="middle" x="210" y="-105.5" font-family="Helvetica,sans-Serif" font-size="10.00">::CommandLinePlugin</text>
</a>
</g>
</g>
<!-- Node1&#45;&gt;Node2 -->
<g id="edge1" class="edge"><title>Node1&#45;&gt;Node2</title>
<path fill="none" stroke="midnightblue" d="M114.895,-82.7591C130.716,-87.9273 147.752,-93.4924 162.924,-98.4484"/>
<polygon fill="midnightblue" stroke="midnightblue" points="115.821,-79.3797 105.229,-79.6014 113.648,-86.0337 115.821,-79.3797"/>
</g>
<!-- Node3 -->
<g id="node3" class="node"><title>Node3</title>
<g id="a_node3"><a doxygen="A-Worx/ALox/html/java_ref/java_ref.tag:java_ref/" xlink:href="java_ref/classcom_1_1aworx_1_1lib_1_1config_1_1EnvironmentPlugin.html" target="_top" xlink:title="com::aworx::lib::config\l::EnvironmentPlugin">
<polygon fill="white" stroke="black" points="152,-49.5 152,-79.5 268,-79.5 268,-49.5 152,-49.5"/>
<text text-anchor="start" x="160" y="-67.5" font-family="Helvetica,sans-Serif" font-size="10.00">com::aworx::lib::config</text>
<text text-anchor="middle" x="210" y="-56.5" font-family="Helvetica,sans-Serif" font-size="10.00">::EnvironmentPlugin</text>
</a>
</g>
</g>
<!-- Node1&#45;&gt;Node3 -->
<g id="edge2" class="edge"><title>Node1&#45;&gt;Node3</title>
<path fill="none" stroke="midnightblue" d="M126.311,-64.5C134.728,-64.5 143.277,-64.5 151.525,-64.5"/>
<polygon fill="midnightblue" stroke="midnightblue" points="126.137,-61.0001 116.136,-64.5 126.136,-68.0001 126.137,-61.0001"/>
</g>
<!-- Node4 -->
<g id="node4" class="node"><title>Node4</title>
<g id="a_node4"><a doxygen="A-Worx/ALox/html/java_ref/java_ref.tag:java_ref/" xlink:href="java_ref/classcom_1_1aworx_1_1lib_1_1config_1_1InMemoryPlugin.html" target="_top" xlink:title="com::aworx::lib::config\l::InMemoryPlugin">
<polygon fill="white" stroke="black" points="152,-0.5 152,-30.5 268,-30.5 268,-0.5 152,-0.5"/>
<text text-anchor="start" x="160" y="-18.5" font-family="Helvetica,sans-Serif" font-size="10.00">com::aworx::lib::config</text>
<text text-anchor="middle" x="210" y="-7.5" font-family="Helvetica,sans-Serif" font-size="10.00">::InMemoryPlugin</text>
</a>
</g>
</g>
<!-- Node1&#45;&gt;Node4 -->
<g id="edge3" class="edge"><title>Node1&#45;&gt;Node4</title>
<path fill="none" stroke="midnightblue" d="M114.895,-46.2409C130.716,-41.0727 147.752,-35.5076 162.924,-30.5516"/>
<polygon fill="midnightblue" stroke="midnightblue" points="113.648,-42.9663 105.229,-49.3986 115.821,-49.6203 113.648,-42.9663"/>
</g>
<!-- Node5 -->
<g id="node5" class="node"><title>Node5</title>
<g id="a_node5"><a doxygen="A-Worx/ALox/html/java_ref/java_ref.tag:java_ref/" xlink:href="java_ref/classcom_1_1aworx_1_1lib_1_1config_1_1IniFile.html" target="_top" xlink:title="com::aworx::lib::config\l::IniFile">
<polygon fill="white" stroke="black" points="304,-0.5 304,-30.5 420,-30.5 420,-0.5 304,-0.5"/>
<text text-anchor="start" x="312" y="-18.5" font-family="Helvetica,sans-Serif" font-size="10.00">com::aworx::lib::config</text>
<text text-anchor="middle" x="362" y="-7.5" font-family="Helvetica,sans-Serif" font-size="10.00">::IniFile</text>
</a>
</g>
</g>
<!-- Node4&#45;&gt;Node5 -->
<g id="edge4" class="edge"><title>Node4&#45;&gt;Node5</title>
<path fill="none" stroke="midnightblue" d="M278.311,-15.5C286.728,-15.5 295.277,-15.5 303.525,-15.5"/>
<polygon fill="midnightblue" stroke="midnightblue" points="278.137,-12.0001 268.136,-15.5 278.136,-19.0001 278.137,-12.0001"/>
</g>
</g>
</svg>
