<?xml version="1.0" encoding="UTF-8" standalone="no"?>
<!DOCTYPE svg PUBLIC "-//W3C//DTD SVG 1.1//EN"
 "http://www.w3.org/Graphics/SVG/1.1/DTD/svg11.dtd">
<!-- Generated by graphviz version 2.40.1 (20161225.0304)
 -->
<!-- Title: Graphical Class Hierarchy Pages: 1 -->
<svg width="252pt" height="39pt"
 viewBox="0.00 0.00 252.00 39.00" xmlns="http://www.w3.org/2000/svg" xmlns:xlink="http://www.w3.org/1999/xlink">
<g id="graph0" class="graph" transform="scale(1 1) rotate(0) translate(4 35)">
<title>Graphical Class Hierarchy</title>
<polygon fill="#ffffff" stroke="transparent" points="-4,4 -4,-35 248,-35 248,4 -4,4"/>
<!-- Node0 -->
<g id="node1" class="node">
<title>Node0</title>
<g id="a_node1"><a doxygen="ALox/html/cpp_ref/cpp_ref.tag:./cpp_ref/" xlink:href="./cpp_ref/classaworx_1_1lib_1_1boxing_1_1Boxes.html" target="_top" xlink:title="aworx::lib::boxing\l::Boxes">
<polygon fill="#ffffff" stroke="#000000" points="0,-.5 0,-30.5 92,-30.5 92,-.5 0,-.5"/>
<text text-anchor="start" x="8" y="-18.5" font-family="Helvetica,sans-Serif" font-size="10.00" fill="#000000">aworx::lib::boxing</text>
<text text-anchor="middle" x="46" y="-7.5" font-family="Helvetica,sans-Serif" font-size="10.00" fill="#000000">::Boxes</text>
</a>
</g>
</g>
<!-- Node1 -->
<g id="node2" class="node">
<title>Node1</title>
<g id="a_node2"><a doxygen="ALox/html/cpp_ref/cpp_ref.tag:./cpp_ref/" xlink:href="./cpp_ref/classaworx_1_1lib_1_1lang_1_1Report_1_1Message.html" target="_top" xlink:title="aworx::lib::lang::Report\l::Message">
<polygon fill="#ffffff" stroke="#000000" points="128,-.5 128,-30.5 244,-30.5 244,-.5 128,-.5"/>
<text text-anchor="start" x="136" y="-18.5" font-family="Helvetica,sans-Serif" font-size="10.00" fill="#000000">aworx::lib::lang::Report</text>
<text text-anchor="middle" x="186" y="-7.5" font-family="Helvetica,sans-Serif" font-size="10.00" fill="#000000">::Message</text>
</a>
</g>
</g>
<!-- Node0&#45;&gt;Node1 -->
<g id="edge1" class="edge">
<title>Node0&#45;&gt;Node1</title>
<path fill="none" stroke="#191970" d="M102.2388,-15.5C110.5828,-15.5 119.1984,-15.5 127.5858,-15.5"/>
<polygon fill="#191970" stroke="#191970" points="102.2293,-12.0001 92.2292,-15.5 102.2292,-19.0001 102.2293,-12.0001"/>
</g>
</g>
</svg>
