<?xml version="1.0" encoding="UTF-8" standalone="no"?>
<!DOCTYPE svg PUBLIC "-//W3C//DTD SVG 1.1//EN"
 "http://www.w3.org/Graphics/SVG/1.1/DTD/svg11.dtd">
<!-- Generated by graphviz version 2.40.1 (20161225.0304)
 -->
<!-- Title: Graphical Class Hierarchy Pages: 1 -->
<svg width="276pt" height="50pt"
 viewBox="0.00 0.00 276.00 50.00" xmlns="http://www.w3.org/2000/svg" xmlns:xlink="http://www.w3.org/1999/xlink">
<g id="graph0" class="graph" transform="scale(1 1) rotate(0) translate(4 46)">
<title>Graphical Class Hierarchy</title>
<polygon fill="#ffffff" stroke="transparent" points="-4,4 -4,-46 272,-46 272,4 -4,4"/>
<!-- Node0 -->
<g id="node1" class="node">
<title>Node0</title>
<g id="a_node1"><a doxygen="/home/a/mnt/dev/A-Worx/ALib/html/cpp_ref.tag:https://alexworx.github.io/ALib-Class-Library/" xlink:href="https://alexworx.github.io/ALib-Class-Library/classaworx_1_1lib_1_1time_1_1TimePointBase.html" xlink:title="TimePointBase\&lt; std\l::chrono::steady_clock,\l Ticks \&gt;">
<polygon fill="#ffffff" stroke="#000000" points="0,-.5 0,-41.5 119,-41.5 119,-.5 0,-.5"/>
<text text-anchor="start" x="8" y="-29.5" font-family="Helvetica,sans-Serif" font-size="10.00" fill="#000000">TimePointBase&lt; std</text>
<text text-anchor="start" x="8" y="-18.5" font-family="Helvetica,sans-Serif" font-size="10.00" fill="#000000">::chrono::steady_clock,</text>
<text text-anchor="middle" x="59.5" y="-7.5" font-family="Helvetica,sans-Serif" font-size="10.00" fill="#000000"> Ticks &gt;</text>
</a>
</g>
</g>
<!-- Node1 -->
<g id="node2" class="node">
<title>Node1</title>
<g id="a_node2"><a doxygen="/home/a/mnt/dev/A-Worx/ALib/html/cpp_ref.tag:https://alexworx.github.io/ALib-Class-Library/" xlink:href="https://alexworx.github.io/ALib-Class-Library/classaworx_1_1lib_1_1time_1_1Ticks.html" xlink:title="aworx::lib::time::Ticks">
<polygon fill="#ffffff" stroke="#000000" points="155,-11.5 155,-30.5 268,-30.5 268,-11.5 155,-11.5"/>
<text text-anchor="middle" x="211.5" y="-18.5" font-family="Helvetica,sans-Serif" font-size="10.00" fill="#000000">aworx::lib::time::Ticks</text>
</a>
</g>
</g>
<!-- Node0&#45;&gt;Node1 -->
<g id="edge1" class="edge">
<title>Node0&#45;&gt;Node1</title>
<path fill="none" stroke="#191970" d="M129.3424,-21C137.7724,-21 146.3042,-21 154.5191,-21"/>
<polygon fill="#191970" stroke="#191970" points="129.1382,-17.5001 119.1382,-21 129.1381,-24.5001 129.1382,-17.5001"/>
</g>
</g>
</svg>
