<?xml version="1.0" encoding="UTF-8" standalone="no"?>
<!DOCTYPE svg PUBLIC "-//W3C//DTD SVG 1.1//EN"
 "http://www.w3.org/Graphics/SVG/1.1/DTD/svg11.dtd">
<!-- Generated by graphviz version 2.38.0 (20140413.2041)
 -->
<!-- Title: Graphical Class Hierarchy Pages: 1 -->
<svg width="929pt" height="186pt"
 viewBox="0.00 0.00 929.00 186.00" xmlns="http://www.w3.org/2000/svg" xmlns:xlink="http://www.w3.org/1999/xlink">
<g id="graph0" class="graph" transform="scale(1 1) rotate(0) translate(4 182)">
<title>Graphical Class Hierarchy</title>
<polygon fill="white" stroke="none" points="-4,4 -4,-182 925,-182 925,4 -4,4"/>
<!-- Node1 -->
<g id="node1" class="node"><title>Node1</title>
<g id="a_node1"><a doxygen="ALox/html/java_ref/java_ref.tag:java_ref/" xlink:href="java_ref/classcom_1_1aworx_1_1lib_1_1threads_1_1ThreadLock.html" target="_top" xlink:title="com::aworx::lib::threads\l::ThreadLock">
<polygon fill="white" stroke="black" points="0,-63.5 0,-93.5 122,-93.5 122,-63.5 0,-63.5"/>
<text text-anchor="start" x="8" y="-81.5" font-family="Helvetica,sans-Serif" font-size="10.00">com::aworx::lib::threads</text>
<text text-anchor="middle" x="61" y="-70.5" font-family="Helvetica,sans-Serif" font-size="10.00">::ThreadLock</text>
</a>
</g>
</g>
<!-- Node2 -->
<g id="node2" class="node"><title>Node2</title>
<g id="a_node2"><a doxygen="ALox/html/java_ref/java_ref.tag:java_ref/" xlink:href="java_ref/classcom_1_1aworx_1_1lib_1_1threads_1_1SmartLock.html" target="_top" xlink:title="com::aworx::lib::threads\l::SmartLock">
<polygon fill="white" stroke="black" points="158,-85.5 158,-115.5 280,-115.5 280,-85.5 158,-85.5"/>
<text text-anchor="start" x="166" y="-103.5" font-family="Helvetica,sans-Serif" font-size="10.00">com::aworx::lib::threads</text>
<text text-anchor="middle" x="219" y="-92.5" font-family="Helvetica,sans-Serif" font-size="10.00">::SmartLock</text>
</a>
</g>
</g>
<!-- Node1&#45;&gt;Node2 -->
<g id="edge1" class="edge"><title>Node1&#45;&gt;Node2</title>
<path fill="none" stroke="midnightblue" d="M132.259,-88.4084C140.802,-89.6131 149.469,-90.8354 157.847,-92.0168"/>
<polygon fill="midnightblue" stroke="midnightblue" points="132.704,-84.9366 122.314,-87.0058 131.727,-91.868 132.704,-84.9366"/>
</g>
<!-- Node12 -->
<g id="node12" class="node"><title>Node12</title>
<g id="a_node12"><a doxygen="ALox/html/java_ref/java_ref.tag:java_ref/" xlink:href="java_ref/classcom_1_1aworx_1_1lox_1_1Lox.html" target="_top" xlink:title="com::aworx::lox::Lox">
<polygon fill="white" stroke="black" points="165,-47 165,-66 273,-66 273,-47 165,-47"/>
<text text-anchor="middle" x="219" y="-54" font-family="Helvetica,sans-Serif" font-size="10.00">com::aworx::lox::Lox</text>
</a>
</g>
</g>
<!-- Node1&#45;&gt;Node12 -->
<g id="edge11" class="edge"><title>Node1&#45;&gt;Node12</title>
<path fill="none" stroke="midnightblue" d="M132.309,-68.5847C143.282,-67.0371 154.461,-65.4606 164.964,-63.9794"/>
<polygon fill="midnightblue" stroke="midnightblue" points="131.727,-65.132 122.314,-69.9942 132.704,-72.0634 131.727,-65.132"/>
</g>
<!-- Node3 -->
<g id="node3" class="node"><title>Node3</title>
<g id="a_node3"><a doxygen="ALox/html/java_ref/java_ref.tag:java_ref/" xlink:href="java_ref/classcom_1_1aworx_1_1lox_1_1core_1_1Logger.html" target="_top" xlink:title="com::aworx::lox::core\l::Logger">
<polygon fill="white" stroke="black" points="316,-85.5 316,-115.5 427,-115.5 427,-85.5 316,-85.5"/>
<text text-anchor="start" x="324" y="-103.5" font-family="Helvetica,sans-Serif" font-size="10.00">com::aworx::lox::core</text>
<text text-anchor="middle" x="371.5" y="-92.5" font-family="Helvetica,sans-Serif" font-size="10.00">::Logger</text>
</a>
</g>
</g>
<!-- Node2&#45;&gt;Node3 -->
<g id="edge2" class="edge"><title>Node2&#45;&gt;Node3</title>
<path fill="none" stroke="midnightblue" d="M290.376,-100.5C298.976,-100.5 307.661,-100.5 315.98,-100.5"/>
<polygon fill="midnightblue" stroke="midnightblue" points="290.347,-97.0001 280.347,-100.5 290.347,-104 290.347,-97.0001"/>
</g>
<!-- Node4 -->
<g id="node4" class="node"><title>Node4</title>
<g id="a_node4"><a doxygen="ALox/html/java_ref/java_ref.tag:java_ref/" xlink:href="java_ref/classcom_1_1aworx_1_1lox_1_1core_1_1textlogger_1_1TextLogger.html" target="_top" xlink:title="com::aworx::lox::core\l::textlogger::TextLogger">
<polygon fill="white" stroke="black" points="463,-85.5 463,-115.5 583,-115.5 583,-85.5 463,-85.5"/>
<text text-anchor="start" x="471" y="-103.5" font-family="Helvetica,sans-Serif" font-size="10.00">com::aworx::lox::core</text>
<text text-anchor="middle" x="523" y="-92.5" font-family="Helvetica,sans-Serif" font-size="10.00">::textlogger::TextLogger</text>
</a>
</g>
</g>
<!-- Node3&#45;&gt;Node4 -->
<g id="edge3" class="edge"><title>Node3&#45;&gt;Node4</title>
<path fill="none" stroke="midnightblue" d="M437.507,-100.5C445.953,-100.5 454.567,-100.5 462.909,-100.5"/>
<polygon fill="midnightblue" stroke="midnightblue" points="437.319,-97.0001 427.319,-100.5 437.319,-104 437.319,-97.0001"/>
</g>
<!-- Node5 -->
<g id="node5" class="node"><title>Node5</title>
<g id="a_node5"><a doxygen="ALox/html/java_ref/java_ref.tag:java_ref/" xlink:href="java_ref/classcom_1_1aworx_1_1lox_1_1android_1_1AndroidLogCatLogger.html" target="_top" xlink:title="com::aworx::lox::android\l::AndroidLogCatLogger">
<polygon fill="white" stroke="black" points="628,-134.5 628,-164.5 752,-164.5 752,-134.5 628,-134.5"/>
<text text-anchor="start" x="636" y="-152.5" font-family="Helvetica,sans-Serif" font-size="10.00">com::aworx::lox::android</text>
<text text-anchor="middle" x="690" y="-141.5" font-family="Helvetica,sans-Serif" font-size="10.00">::AndroidLogCatLogger</text>
</a>
</g>
</g>
<!-- Node4&#45;&gt;Node5 -->
<g id="edge4" class="edge"><title>Node4&#45;&gt;Node5</title>
<path fill="none" stroke="midnightblue" d="M584.501,-118.467C602.18,-123.717 621.313,-129.399 638.316,-134.448"/>
<polygon fill="midnightblue" stroke="midnightblue" points="585.434,-115.093 574.852,-115.601 583.442,-121.804 585.434,-115.093"/>
</g>
<!-- Node6 -->
<g id="node6" class="node"><title>Node6</title>
<g id="a_node6"><a doxygen="ALox/html/java_ref/java_ref.tag:java_ref/" xlink:href="java_ref/classcom_1_1aworx_1_1lox_1_1core_1_1textlogger_1_1PlainTextLogger.html" target="_top" xlink:title="com::aworx::lox::core\l::textlogger::PlainTextLogger">
<polygon fill="white" stroke="black" points="619,-85.5 619,-115.5 761,-115.5 761,-85.5 619,-85.5"/>
<text text-anchor="start" x="627" y="-103.5" font-family="Helvetica,sans-Serif" font-size="10.00">com::aworx::lox::core</text>
<text text-anchor="middle" x="690" y="-92.5" font-family="Helvetica,sans-Serif" font-size="10.00">::textlogger::PlainTextLogger</text>
</a>
</g>
</g>
<!-- Node4&#45;&gt;Node6 -->
<g id="edge5" class="edge"><title>Node4&#45;&gt;Node6</title>
<path fill="none" stroke="midnightblue" d="M593.269,-100.5C601.701,-100.5 610.322,-100.5 618.768,-100.5"/>
<polygon fill="midnightblue" stroke="midnightblue" points="593.103,-97.0001 583.103,-100.5 593.103,-104 593.103,-97.0001"/>
</g>
<!-- Node10 -->
<g id="node10" class="node"><title>Node10</title>
<g id="a_node10"><a doxygen="ALox/html/java_ref/java_ref.tag:java_ref/" xlink:href="java_ref/classcom_1_1aworx_1_1lox_1_1loggers_1_1AnsiLogger.html" target="_top" xlink:title="com::aworx::lox::loggers\l::AnsiLogger">
<polygon fill="white" stroke="black" points="628,-24.5 628,-54.5 752,-54.5 752,-24.5 628,-24.5"/>
<text text-anchor="start" x="636" y="-42.5" font-family="Helvetica,sans-Serif" font-size="10.00">com::aworx::lox::loggers</text>
<text text-anchor="middle" x="690" y="-31.5" font-family="Helvetica,sans-Serif" font-size="10.00">::AnsiLogger</text>
</a>
</g>
</g>
<!-- Node4&#45;&gt;Node10 -->
<g id="edge9" class="edge"><title>Node4&#45;&gt;Node10</title>
<path fill="none" stroke="midnightblue" d="M574.334,-81.8915C598.077,-73.1141 626.033,-62.7788 648.397,-54.5108"/>
<polygon fill="midnightblue" stroke="midnightblue" points="572.952,-78.6708 564.787,-85.4213 575.38,-85.2365 572.952,-78.6708"/>
</g>
<!-- Node7 -->
<g id="node7" class="node"><title>Node7</title>
<g id="a_node7"><a doxygen="ALox/html/java_ref/java_ref.tag:java_ref/" xlink:href="java_ref/classcom_1_1aworx_1_1lox_1_1loggers_1_1ConsoleLogger.html" target="_top" xlink:title="com::aworx::lox::loggers\l::ConsoleLogger">
<polygon fill="white" stroke="black" points="797,-147.5 797,-177.5 921,-177.5 921,-147.5 797,-147.5"/>
<text text-anchor="start" x="805" y="-165.5" font-family="Helvetica,sans-Serif" font-size="10.00">com::aworx::lox::loggers</text>
<text text-anchor="middle" x="859" y="-154.5" font-family="Helvetica,sans-Serif" font-size="10.00">::ConsoleLogger</text>
</a>
</g>
</g>
<!-- Node6&#45;&gt;Node7 -->
<g id="edge6" class="edge"><title>Node6&#45;&gt;Node7</title>
<path fill="none" stroke="midnightblue" d="M743.068,-118.956C749.12,-121.143 755.201,-123.359 761,-125.5 780.106,-132.555 801.244,-140.591 818.898,-147.367"/>
<polygon fill="midnightblue" stroke="midnightblue" points="744.217,-115.651 733.623,-115.558 741.848,-122.237 744.217,-115.651"/>
</g>
<!-- Node8 -->
<g id="node8" class="node"><title>Node8</title>
<g id="a_node8"><a doxygen="ALox/html/java_ref/java_ref.tag:java_ref/" xlink:href="java_ref/classcom_1_1aworx_1_1lox_1_1loggers_1_1MemoryLogger.html" target="_top" xlink:title="com::aworx::lox::loggers\l::MemoryLogger">
<polygon fill="white" stroke="black" points="797,-98.5 797,-128.5 921,-128.5 921,-98.5 797,-98.5"/>
<text text-anchor="start" x="805" y="-116.5" font-family="Helvetica,sans-Serif" font-size="10.00">com::aworx::lox::loggers</text>
<text text-anchor="middle" x="859" y="-105.5" font-family="Helvetica,sans-Serif" font-size="10.00">::MemoryLogger</text>
</a>
</g>
</g>
<!-- Node6&#45;&gt;Node8 -->
<g id="edge7" class="edge"><title>Node6&#45;&gt;Node8</title>
<path fill="none" stroke="midnightblue" d="M771.33,-106.753C779.877,-107.419 788.468,-108.087 796.745,-108.732"/>
<polygon fill="midnightblue" stroke="midnightblue" points="771.581,-103.262 761.339,-105.975 771.037,-110.241 771.581,-103.262"/>
</g>
<!-- Node9 -->
<g id="node9" class="node"><title>Node9</title>
<g id="a_node9"><a doxygen="ALox/html/java_ref/java_ref.tag:java_ref/" xlink:href="java_ref/classcom_1_1aworx_1_1lox_1_1loggers_1_1TextFileLogger.html" target="_top" xlink:title="com::aworx::lox::loggers\l::TextFileLogger">
<polygon fill="white" stroke="black" points="797,-49.5 797,-79.5 921,-79.5 921,-49.5 797,-49.5"/>
<text text-anchor="start" x="805" y="-67.5" font-family="Helvetica,sans-Serif" font-size="10.00">com::aworx::lox::loggers</text>
<text text-anchor="middle" x="859" y="-56.5" font-family="Helvetica,sans-Serif" font-size="10.00">::TextFileLogger</text>
</a>
</g>
</g>
<!-- Node6&#45;&gt;Node9 -->
<g id="edge8" class="edge"><title>Node6&#45;&gt;Node9</title>
<path fill="none" stroke="midnightblue" d="M770.746,-83.3093C779.545,-81.4125 788.4,-79.5036 796.919,-77.6672"/>
<polygon fill="midnightblue" stroke="midnightblue" points="769.893,-79.9126 760.855,-85.4413 771.368,-86.7554 769.893,-79.9126"/>
</g>
<!-- Node11 -->
<g id="node11" class="node"><title>Node11</title>
<g id="a_node11"><a doxygen="ALox/html/java_ref/java_ref.tag:java_ref/" xlink:href="java_ref/classcom_1_1aworx_1_1lox_1_1loggers_1_1AnsiConsoleLogger.html" target="_top" xlink:title="com::aworx::lox::loggers\l::AnsiConsoleLogger">
<polygon fill="white" stroke="black" points="797,-0.5 797,-30.5 921,-30.5 921,-0.5 797,-0.5"/>
<text text-anchor="start" x="805" y="-18.5" font-family="Helvetica,sans-Serif" font-size="10.00">com::aworx::lox::loggers</text>
<text text-anchor="middle" x="859" y="-7.5" font-family="Helvetica,sans-Serif" font-size="10.00">::AnsiConsoleLogger</text>
</a>
</g>
</g>
<!-- Node10&#45;&gt;Node11 -->
<g id="edge10" class="edge"><title>Node10&#45;&gt;Node11</title>
<path fill="none" stroke="midnightblue" d="M762.233,-29.2629C773.728,-27.611 785.539,-25.9135 796.771,-24.2994"/>
<polygon fill="midnightblue" stroke="midnightblue" points="761.637,-25.8126 752.236,-30.6996 762.633,-32.7414 761.637,-25.8126"/>
</g>
</g>
</svg>
