<?xml version="1.0" encoding="UTF-8" standalone="no"?>
<!DOCTYPE svg PUBLIC "-//W3C//DTD SVG 1.1//EN"
 "http://www.w3.org/Graphics/SVG/1.1/DTD/svg11.dtd">
<!-- Generated by graphviz version 2.38.0 (20140413.2041)
 -->
<!-- Title: alib.hpp Pages: 1 -->
<svg width="1380pt" height="308pt"
 viewBox="0.00 0.00 1380.00 308.00" xmlns="http://www.w3.org/2000/svg" xmlns:xlink="http://www.w3.org/1999/xlink">
<g id="graph0" class="graph" transform="scale(1 1) rotate(0) translate(4 304)">
<title>alib.hpp</title>
<polygon fill="white" stroke="none" points="-4,4 -4,-304 1376,-304 1376,4 -4,4"/>
<!-- Node1 -->
<g id="node1" class="node"><title>Node1</title>
<polygon fill="#bfbfbf" stroke="black" points="758,-280.5 758,-299.5 808,-299.5 808,-280.5 758,-280.5"/>
<text text-anchor="middle" x="783" y="-287.5" font-family="Helvetica,sans-Serif" font-size="10.00">alib.hpp</text>
</g>
<!-- Node2 -->
<g id="node2" class="node"><title>Node2</title>
<g id="a_node2"><a xlink:href="enums_8hpp.html" target="_top" xlink:title="enums.hpp">
<polygon fill="white" stroke="black" points="133.5,-224.5 133.5,-243.5 198.5,-243.5 198.5,-224.5 133.5,-224.5"/>
<text text-anchor="middle" x="166" y="-231.5" font-family="Helvetica,sans-Serif" font-size="10.00">enums.hpp</text>
</a>
</g>
</g>
<!-- Node1&#45;&gt;Node2 -->
<g id="edge1" class="edge"><title>Node1&#45;&gt;Node2</title>
<path fill="none" stroke="midnightblue" d="M747.824,-287.757C657.056,-284.052 408.637,-271.585 204,-244 202.271,-243.767 200.509,-243.512 198.737,-243.239"/>
<polygon fill="midnightblue" stroke="midnightblue" points="747.721,-291.256 757.852,-288.156 747.999,-284.261 747.721,-291.256"/>
</g>
<!-- Node3 -->
<g id="node3" class="node"><title>Node3</title>
<g id="a_node3"><a xlink:href="ownable_8hpp.html" target="_top" xlink:title="ownable.hpp">
<polygon fill="white" stroke="black" points="331.5,-224.5 331.5,-243.5 402.5,-243.5 402.5,-224.5 331.5,-224.5"/>
<text text-anchor="middle" x="367" y="-231.5" font-family="Helvetica,sans-Serif" font-size="10.00">ownable.hpp</text>
</a>
</g>
</g>
<!-- Node1&#45;&gt;Node3 -->
<g id="edge3" class="edge"><title>Node1&#45;&gt;Node3</title>
<path fill="none" stroke="midnightblue" d="M747.419,-285.602C681.188,-279.072 534.583,-263.663 412,-244 409.011,-243.52 405.917,-242.985 402.817,-242.421"/>
<polygon fill="midnightblue" stroke="midnightblue" points="747.422,-289.119 757.715,-286.609 748.104,-282.152 747.422,-289.119"/>
</g>
<!-- Node4 -->
<g id="node4" class="node"><title>Node4</title>
<g id="a_node4"><a xlink:href="threadlock_8hpp.html" target="_top" xlink:title="threadlock.hpp">
<polygon fill="white" stroke="black" points="293,-168.5 293,-187.5 373,-187.5 373,-168.5 293,-168.5"/>
<text text-anchor="middle" x="333" y="-175.5" font-family="Helvetica,sans-Serif" font-size="10.00">threadlock.hpp</text>
</a>
</g>
</g>
<!-- Node1&#45;&gt;Node4 -->
<g id="edge38" class="edge"><title>Node1&#45;&gt;Node4</title>
<path fill="none" stroke="midnightblue" d="M747.686,-288.216C644.908,-285.572 351.408,-275.322 323,-244 308.887,-228.439 320.227,-201.668 327.723,-187.84"/>
<polygon fill="midnightblue" stroke="midnightblue" points="747.777,-291.719 757.861,-288.469 747.951,-284.721 747.777,-291.719"/>
</g>
<!-- Node8 -->
<g id="node8" class="node"><title>Node8</title>
<g id="a_node8"><a xlink:href="alox_8hpp.html" target="_top" xlink:title="alox.hpp">
<polygon fill="white" stroke="red" points="248.5,-56.5 248.5,-75.5 301.5,-75.5 301.5,-56.5 248.5,-56.5"/>
<text text-anchor="middle" x="275" y="-63.5" font-family="Helvetica,sans-Serif" font-size="10.00">alox.hpp</text>
</a>
</g>
</g>
<!-- Node1&#45;&gt;Node8 -->
<g id="edge39" class="edge"><title>Node1&#45;&gt;Node8</title>
<path fill="none" stroke="midnightblue" d="M747.46,-287.576C643.94,-283.157 347.697,-268.485 312,-244 256.08,-205.645 268.184,-106.005 273.332,-75.8042"/>
<polygon fill="midnightblue" stroke="midnightblue" points="747.568,-291.084 757.706,-288.007 747.862,-284.09 747.568,-291.084"/>
</g>
<!-- Node10 -->
<g id="node10" class="node"><title>Node10</title>
<g id="a_node10"><a xlink:href="report_8hpp.html" target="_top" xlink:title="report.hpp">
<polygon fill="white" stroke="black" points="501,-224.5 501,-243.5 561,-243.5 561,-224.5 501,-224.5"/>
<text text-anchor="middle" x="531" y="-231.5" font-family="Helvetica,sans-Serif" font-size="10.00">report.hpp</text>
</a>
</g>
</g>
<!-- Node1&#45;&gt;Node10 -->
<g id="edge11" class="edge"><title>Node1&#45;&gt;Node10</title>
<path fill="none" stroke="midnightblue" d="M747.863,-283.021C703.79,-274.557 626.599,-258.497 561,-244 560.321,-243.85 559.636,-243.698 558.947,-243.544"/>
<polygon fill="midnightblue" stroke="midnightblue" points="747.324,-286.481 757.801,-284.905 748.628,-279.603 747.324,-286.481"/>
</g>
<!-- Node11 -->
<g id="node11" class="node"><title>Node11</title>
<g id="a_node11"><a xlink:href="util_8hpp.html" target="_top" xlink:title="util.hpp">
<polygon fill="white" stroke="black" points="579,-224.5 579,-243.5 627,-243.5 627,-224.5 579,-224.5"/>
<text text-anchor="middle" x="603" y="-231.5" font-family="Helvetica,sans-Serif" font-size="10.00">util.hpp</text>
</a>
</g>
</g>
<!-- Node1&#45;&gt;Node11 -->
<g id="edge13" class="edge"><title>Node1&#45;&gt;Node11</title>
<path fill="none" stroke="midnightblue" d="M748.027,-278.508C712.475,-267.843 658.332,-251.6 627.241,-242.272"/>
<polygon fill="midnightblue" stroke="midnightblue" points="747.388,-281.97 757.972,-281.492 749.399,-275.266 747.388,-281.97"/>
</g>
<!-- Node12 -->
<g id="node12" class="node"><title>Node12</title>
<g id="a_node12"><a xlink:href="applyformat_8hpp.html" target="_top" xlink:title="applyformat.hpp">
<polygon fill="white" stroke="black" points="645,-224.5 645,-243.5 731,-243.5 731,-224.5 645,-224.5"/>
<text text-anchor="middle" x="688" y="-231.5" font-family="Helvetica,sans-Serif" font-size="10.00">applyformat.hpp</text>
</a>
</g>
</g>
<!-- Node1&#45;&gt;Node12 -->
<g id="edge14" class="edge"><title>Node1&#45;&gt;Node12</title>
<path fill="none" stroke="midnightblue" d="M753.484,-275.59C734.592,-265.605 711.398,-252.267 698.115,-243.655"/>
<polygon fill="midnightblue" stroke="midnightblue" points="752.133,-278.831 762.622,-280.324 755.353,-272.616 752.133,-278.831"/>
</g>
<!-- Node13 -->
<g id="node13" class="node"><title>Node13</title>
<g id="a_node13"><a xlink:href="applyto_8hpp.html" target="_top" xlink:title="applyto.hpp">
<polygon fill="white" stroke="black" points="749.5,-224.5 749.5,-243.5 816.5,-243.5 816.5,-224.5 749.5,-224.5"/>
<text text-anchor="middle" x="783" y="-231.5" font-family="Helvetica,sans-Serif" font-size="10.00">applyto.hpp</text>
</a>
</g>
</g>
<!-- Node1&#45;&gt;Node13 -->
<g id="edge16" class="edge"><title>Node1&#45;&gt;Node13</title>
<path fill="none" stroke="midnightblue" d="M776.528,-270.101C775.896,-261.136 776.343,-250.858 777.869,-243.751"/>
<polygon fill="midnightblue" stroke="midnightblue" points="773.066,-270.622 777.834,-280.083 780.007,-269.713 773.066,-270.622"/>
</g>
<!-- Node14 -->
<g id="node14" class="node"><title>Node14</title>
<g id="a_node14"><a xlink:href="astring_8hpp.html" target="_top" xlink:title="astring.hpp">
<polygon fill="white" stroke="black" points="834.5,-224.5 834.5,-243.5 899.5,-243.5 899.5,-224.5 834.5,-224.5"/>
<text text-anchor="middle" x="867" y="-231.5" font-family="Helvetica,sans-Serif" font-size="10.00">astring.hpp</text>
</a>
</g>
</g>
<!-- Node1&#45;&gt;Node14 -->
<g id="edge18" class="edge"><title>Node1&#45;&gt;Node14</title>
<path fill="none" stroke="midnightblue" d="M799.722,-274.342C813.859,-264.517 833.788,-251.913 848.427,-243.655"/>
<polygon fill="midnightblue" stroke="midnightblue" points="797.467,-271.652 791.381,-280.324 801.547,-277.34 797.467,-271.652"/>
</g>
<!-- Node15 -->
<g id="node15" class="node"><title>Node15</title>
<g id="a_node15"><a xlink:href="cstring_8hpp.html" target="_top" xlink:title="cstring.hpp">
<polygon fill="white" stroke="black" points="917.5,-224.5 917.5,-243.5 982.5,-243.5 982.5,-224.5 917.5,-224.5"/>
<text text-anchor="middle" x="950" y="-231.5" font-family="Helvetica,sans-Serif" font-size="10.00">cstring.hpp</text>
</a>
</g>
</g>
<!-- Node1&#45;&gt;Node15 -->
<g id="edge20" class="edge"><title>Node1&#45;&gt;Node15</title>
<path fill="none" stroke="midnightblue" d="M813.883,-277.172C843.742,-267.004 888.538,-252.585 918.582,-243.516"/>
<polygon fill="midnightblue" stroke="midnightblue" points="812.691,-273.881 804.373,-280.444 814.968,-280.5 812.691,-273.881"/>
</g>
<!-- Node16 -->
<g id="node16" class="node"><title>Node16</title>
<g id="a_node16"><a xlink:href="preallocatedstring_8hpp.html" target="_top" xlink:title="preallocatedstring.hpp">
<polygon fill="white" stroke="black" points="1001,-224.5 1001,-243.5 1113,-243.5 1113,-224.5 1001,-224.5"/>
<text text-anchor="middle" x="1057" y="-231.5" font-family="Helvetica,sans-Serif" font-size="10.00">preallocatedstring.hpp</text>
</a>
</g>
</g>
<!-- Node1&#45;&gt;Node16 -->
<g id="edge22" class="edge"><title>Node1&#45;&gt;Node16</title>
<path fill="none" stroke="midnightblue" d="M818.485,-281.03C867.059,-270.994 954.143,-253.823 1008.64,-243.53"/>
<polygon fill="midnightblue" stroke="midnightblue" points="817.521,-277.655 808.443,-283.118 818.946,-284.509 817.521,-277.655"/>
</g>
<!-- Node17 -->
<g id="node17" class="node"><title>Node17</title>
<g id="a_node17"><a xlink:href="string_8hpp.html" target="_top" xlink:title="string.hpp">
<polygon fill="white" stroke="black" points="1131.5,-224.5 1131.5,-243.5 1190.5,-243.5 1190.5,-224.5 1131.5,-224.5"/>
<text text-anchor="middle" x="1161" y="-231.5" font-family="Helvetica,sans-Serif" font-size="10.00">string.hpp</text>
</a>
</g>
</g>
<!-- Node1&#45;&gt;Node17 -->
<g id="edge24" class="edge"><title>Node1&#45;&gt;Node17</title>
<path fill="none" stroke="midnightblue" d="M818.643,-284.787C879.441,-277.977 1006.36,-263.337 1113,-244 1118.88,-242.934 1125.21,-241.568 1131.37,-240.225"/>
<polygon fill="midnightblue" stroke="midnightblue" points="817.975,-281.34 808.425,-285.928 818.752,-288.297 817.975,-281.34"/>
</g>
<!-- Node18 -->
<g id="node18" class="node"><title>Node18</title>
<g id="a_node18"><a xlink:href="stringliteral_8hpp.html" target="_top" xlink:title="stringliteral.hpp">
<polygon fill="white" stroke="black" points="1208.5,-224.5 1208.5,-243.5 1291.5,-243.5 1291.5,-224.5 1208.5,-224.5"/>
<text text-anchor="middle" x="1250" y="-231.5" font-family="Helvetica,sans-Serif" font-size="10.00">stringliteral.hpp</text>
</a>
</g>
</g>
<!-- Node1&#45;&gt;Node18 -->
<g id="edge26" class="edge"><title>Node1&#45;&gt;Node18</title>
<path fill="none" stroke="midnightblue" d="M818.435,-285.568C889.466,-279.054 1053.55,-263.762 1191,-244 1196.59,-243.197 1202.51,-242.233 1208.38,-241.238"/>
<polygon fill="midnightblue" stroke="midnightblue" points="817.886,-282.104 808.247,-286.502 818.525,-289.075 817.886,-282.104"/>
</g>
<!-- Node19 -->
<g id="node19" class="node"><title>Node19</title>
<g id="a_node19"><a xlink:href="substring_8hpp.html" target="_top" xlink:title="substring.hpp">
<polygon fill="white" stroke="black" points="56.5,-112.5 56.5,-131.5 131.5,-131.5 131.5,-112.5 56.5,-112.5"/>
<text text-anchor="middle" x="94" y="-119.5" font-family="Helvetica,sans-Serif" font-size="10.00">substring.hpp</text>
</a>
</g>
</g>
<!-- Node1&#45;&gt;Node19 -->
<g id="edge28" class="edge"><title>Node1&#45;&gt;Node19</title>
<path fill="none" stroke="midnightblue" d="M747.605,-288.595C643.852,-287.003 342.063,-279.373 251,-244 184.599,-218.207 122.931,-155.014 101.756,-131.767"/>
<polygon fill="midnightblue" stroke="midnightblue" points="747.808,-292.098 757.858,-288.742 747.909,-285.099 747.808,-292.098"/>
</g>
<!-- Node22 -->
<g id="node22" class="node"><title>Node22</title>
<g id="a_node22"><a xlink:href="tstring_8hpp.html" target="_top" xlink:title="tstring.hpp">
<polygon fill="white" stroke="black" points="1310,-224.5 1310,-243.5 1372,-243.5 1372,-224.5 1310,-224.5"/>
<text text-anchor="middle" x="1341" y="-231.5" font-family="Helvetica,sans-Serif" font-size="10.00">tstring.hpp</text>
</a>
</g>
</g>
<!-- Node1&#45;&gt;Node22 -->
<g id="edge33" class="edge"><title>Node1&#45;&gt;Node22</title>
<path fill="none" stroke="midnightblue" d="M818.298,-287.357C901.437,-283.378 1115.11,-271.456 1292,-244 1297.77,-243.105 1303.94,-241.86 1309.97,-240.581"/>
<polygon fill="midnightblue" stroke="midnightblue" points="817.956,-283.869 808.132,-287.835 818.285,-290.861 817.956,-283.869"/>
</g>
<!-- Node23 -->
<g id="node23" class="node"><title>Node23</title>
<g id="a_node23"><a xlink:href="thread_8hpp.html" target="_top" xlink:title="thread.hpp">
<polygon fill="white" stroke="black" points="421,-224.5 421,-243.5 483,-243.5 483,-224.5 421,-224.5"/>
<text text-anchor="middle" x="452" y="-231.5" font-family="Helvetica,sans-Serif" font-size="10.00">thread.hpp</text>
</a>
</g>
</g>
<!-- Node1&#45;&gt;Node23 -->
<g id="edge35" class="edge"><title>Node1&#45;&gt;Node23</title>
<path fill="none" stroke="midnightblue" d="M747.761,-284.338C692.898,-276.902 583.82,-261.409 492,-244 489.203,-243.47 486.303,-242.885 483.401,-242.277"/>
<polygon fill="midnightblue" stroke="midnightblue" points="747.612,-287.849 757.99,-285.716 748.546,-280.912 747.612,-287.849"/>
</g>
<!-- Node2&#45;&gt;Node1 -->
<g id="edge2" class="edge"><title>Node2&#45;&gt;Node1</title>
<path fill="none" stroke="midnightblue" d="M208.58,-241.91C213.132,-242.692 217.668,-243.416 222,-244 428.099,-271.782 678.608,-284.23 757.88,-287.835"/>
<polygon fill="midnightblue" stroke="midnightblue" points="209.124,-238.452 198.664,-240.138 207.892,-245.343 209.124,-238.452"/>
</g>
<!-- Node3&#45;&gt;Node4 -->
<g id="edge4" class="edge"><title>Node3&#45;&gt;Node4</title>
<path fill="none" stroke="midnightblue" d="M356.023,-215.566C350.173,-206.275 343.23,-195.248 338.51,-187.751"/>
<polygon fill="midnightblue" stroke="midnightblue" points="353.096,-217.486 361.386,-224.083 359.019,-213.756 353.096,-217.486"/>
</g>
<!-- Node5 -->
<g id="node5" class="node"><title>Node5</title>
<g id="a_node5"><a xlink:href="configuration_8hpp.html" target="_top" xlink:title="configuration.hpp">
<polygon fill="white" stroke="black" points="149.5,-112.5 149.5,-131.5 240.5,-131.5 240.5,-112.5 149.5,-112.5"/>
<text text-anchor="middle" x="195" y="-119.5" font-family="Helvetica,sans-Serif" font-size="10.00">configuration.hpp</text>
</a>
</g>
</g>
<!-- Node4&#45;&gt;Node5 -->
<g id="edge5" class="edge"><title>Node4&#45;&gt;Node5</title>
<path fill="none" stroke="midnightblue" d="M301.751,-164.772C275.829,-154.629 239.638,-140.467 216.764,-131.516"/>
<polygon fill="midnightblue" stroke="midnightblue" points="300.546,-168.059 311.133,-168.444 303.096,-161.54 300.546,-168.059"/>
</g>
<!-- Node7 -->
<g id="node7" class="node"><title>Node7</title>
<g id="a_node7"><a xlink:href="lox_8hpp.html" target="_top" xlink:title="lox.hpp">
<polygon fill="white" stroke="black" points="306,-112.5 306,-131.5 354,-131.5 354,-112.5 306,-112.5"/>
<text text-anchor="middle" x="330" y="-119.5" font-family="Helvetica,sans-Serif" font-size="10.00">lox.hpp</text>
</a>
</g>
</g>
<!-- Node4&#45;&gt;Node7 -->
<g id="edge7" class="edge"><title>Node4&#45;&gt;Node7</title>
<path fill="none" stroke="midnightblue" d="M331.934,-157.805C331.439,-148.91 330.877,-138.78 330.486,-131.751"/>
<polygon fill="midnightblue" stroke="midnightblue" points="328.455,-158.293 332.505,-168.083 335.444,-157.904 328.455,-158.293"/>
</g>
<!-- Node6 -->
<g id="node6" class="node"><title>Node6</title>
<g id="a_node6"><a xlink:href="inifile_8hpp.html" target="_top" xlink:title="inifile.hpp">
<polygon fill="white" stroke="black" points="166,-56.5 166,-75.5 224,-75.5 224,-56.5 166,-56.5"/>
<text text-anchor="middle" x="195" y="-63.5" font-family="Helvetica,sans-Serif" font-size="10.00">inifile.hpp</text>
</a>
</g>
</g>
<!-- Node5&#45;&gt;Node6 -->
<g id="edge6" class="edge"><title>Node5&#45;&gt;Node6</title>
<path fill="none" stroke="midnightblue" d="M195,-101.805C195,-92.9102 195,-82.7798 195,-75.7511"/>
<polygon fill="midnightblue" stroke="midnightblue" points="191.5,-102.083 195,-112.083 198.5,-102.083 191.5,-102.083"/>
</g>
<!-- Node7&#45;&gt;Node8 -->
<g id="edge8" class="edge"><title>Node7&#45;&gt;Node8</title>
<path fill="none" stroke="midnightblue" d="M313.706,-105.002C303.959,-95.4329 291.947,-83.6389 283.913,-75.7511"/>
<polygon fill="midnightblue" stroke="midnightblue" points="311.33,-107.575 320.918,-112.083 316.234,-102.58 311.33,-107.575"/>
</g>
<!-- Node9 -->
<g id="node9" class="node"><title>Node9</title>
<g id="a_node9"><a xlink:href="callerinfo_8hpp.html" target="_top" xlink:title="callerinfo.hpp">
<polygon fill="white" stroke="red" points="265,-0.5 265,-19.5 339,-19.5 339,-0.5 265,-0.5"/>
<text text-anchor="middle" x="302" y="-7.5" font-family="Helvetica,sans-Serif" font-size="10.00">callerinfo.hpp</text>
</a>
</g>
</g>
<!-- Node8&#45;&gt;Node9 -->
<g id="edge9" class="edge"><title>Node8&#45;&gt;Node9</title>
<path fill="none" stroke="midnightblue" d="M284.009,-46.9827C288.592,-37.8168 293.954,-27.0922 297.624,-19.7511"/>
<polygon fill="midnightblue" stroke="midnightblue" points="280.8,-45.5734 279.459,-56.083 287.061,-48.704 280.8,-45.5734"/>
</g>
<!-- Node9&#45;&gt;Node7 -->
<g id="edge10" class="edge"><title>Node9&#45;&gt;Node7</title>
<path fill="none" stroke="midnightblue" d="M306.734,-29.5974C312.861,-53.6664 323.284,-94.617 327.803,-112.368"/>
<polygon fill="midnightblue" stroke="midnightblue" points="310.046,-28.419 304.187,-19.5914 303.262,-30.1458 310.046,-28.419"/>
</g>
<!-- Node10&#45;&gt;Node1 -->
<g id="edge12" class="edge"><title>Node10&#45;&gt;Node1</title>
<path fill="none" stroke="midnightblue" d="M571.025,-242.221C573.741,-242.829 576.417,-243.429 579,-244 643.399,-258.232 718.971,-273.97 757.712,-282.549"/>
<polygon fill="midnightblue" stroke="midnightblue" points="571.643,-238.773 561.122,-240.023 570.126,-245.607 571.643,-238.773"/>
</g>
<!-- Node12&#45;&gt;Node1 -->
<g id="edge15" class="edge"><title>Node12&#45;&gt;Node1</title>
<path fill="none" stroke="midnightblue" d="M717.469,-248.386C736.354,-258.364 759.552,-271.703 772.851,-280.324"/>
<polygon fill="midnightblue" stroke="midnightblue" points="718.825,-245.146 708.336,-243.655 715.605,-251.362 718.825,-245.146"/>
</g>
<!-- Node13&#45;&gt;Node1 -->
<g id="edge17" class="edge"><title>Node13&#45;&gt;Node1</title>
<path fill="none" stroke="midnightblue" d="M789.458,-253.691C790.106,-262.635 789.676,-272.927 788.166,-280.083"/>
<polygon fill="midnightblue" stroke="midnightblue" points="792.923,-253.2 788.131,-243.751 785.985,-254.126 792.923,-253.2"/>
</g>
<!-- Node14&#45;&gt;Node1 -->
<g id="edge19" class="edge"><title>Node14&#45;&gt;Node1</title>
<path fill="none" stroke="midnightblue" d="M850.064,-249.807C835.952,-259.602 816.173,-272.107 801.611,-280.324"/>
<polygon fill="midnightblue" stroke="midnightblue" points="852.313,-252.501 858.407,-243.834 848.239,-246.809 852.313,-252.501"/>
</g>
<!-- Node15&#45;&gt;Node1 -->
<g id="edge21" class="edge"><title>Node15&#45;&gt;Node1</title>
<path fill="none" stroke="midnightblue" d="M918.901,-246.901C886.86,-257.808 837.782,-273.56 808.092,-282.379"/>
<polygon fill="midnightblue" stroke="midnightblue" points="920.341,-250.107 928.659,-243.545 918.065,-243.488 920.341,-250.107"/>
</g>
<!-- Node16&#45;&gt;Node1 -->
<g id="edge23" class="edge"><title>Node16&#45;&gt;Node1</title>
<path fill="none" stroke="midnightblue" d="M1008.44,-245.654C949.896,-257.607 853.92,-276.413 808.343,-284.763"/>
<polygon fill="midnightblue" stroke="midnightblue" points="1009.47,-249.016 1018.56,-243.579 1008.06,-242.159 1009.47,-249.016"/>
</g>
<!-- Node17&#45;&gt;Node1 -->
<g id="edge25" class="edge"><title>Node17&#45;&gt;Node1</title>
<path fill="none" stroke="midnightblue" d="M1123.41,-245.342C1003.36,-266.572 864.321,-281.657 808.122,-286.939"/>
<polygon fill="midnightblue" stroke="midnightblue" points="1124.26,-248.745 1133.48,-243.537 1123.02,-241.855 1124.26,-248.745"/>
</g>
<!-- Node18&#45;&gt;Node1 -->
<g id="edge27" class="edge"><title>Node18&#45;&gt;Node1</title>
<path fill="none" stroke="midnightblue" d="M1202.2,-244.953C1050.19,-266.405 873.447,-282.136 808.398,-287.234"/>
<polygon fill="midnightblue" stroke="midnightblue" points="1202.77,-248.408 1212.17,-243.532 1201.78,-241.478 1202.77,-248.408"/>
</g>
<!-- Node19&#45;&gt;Node6 -->
<g id="edge29" class="edge"><title>Node19&#45;&gt;Node6</title>
<path fill="none" stroke="midnightblue" d="M119.083,-107.59C137.757,-97.6052 162.704,-84.2672 178.813,-75.6545"/>
<polygon fill="midnightblue" stroke="midnightblue" points="117.396,-104.522 110.227,-112.324 120.696,-110.696 117.396,-104.522"/>
</g>
<!-- Node20 -->
<g id="node20" class="node"><title>Node20</title>
<g id="a_node20"><a xlink:href="tokenizer_8hpp.html" target="_top" xlink:title="tokenizer.hpp">
<polygon fill="white" stroke="black" points="73.5,-56.5 73.5,-75.5 148.5,-75.5 148.5,-56.5 73.5,-56.5"/>
<text text-anchor="middle" x="111" y="-63.5" font-family="Helvetica,sans-Serif" font-size="10.00">tokenizer.hpp</text>
</a>
</g>
</g>
<!-- Node19&#45;&gt;Node20 -->
<g id="edge30" class="edge"><title>Node19&#45;&gt;Node20</title>
<path fill="none" stroke="midnightblue" d="M99.8569,-102.396C102.701,-93.362 105.983,-82.936 108.245,-75.7511"/>
<polygon fill="midnightblue" stroke="midnightblue" points="96.4717,-101.493 96.8072,-112.083 103.149,-103.596 96.4717,-101.493"/>
</g>
<!-- Node21 -->
<g id="node21" class="node"><title>Node21</title>
<g id="a_node21"><a xlink:href="ticks_8hpp.html" target="_top" xlink:title="ticks.hpp">
<polygon fill="white" stroke="black" points="0,-56.5 0,-75.5 56,-75.5 56,-56.5 0,-56.5"/>
<text text-anchor="middle" x="28" y="-63.5" font-family="Helvetica,sans-Serif" font-size="10.00">ticks.hpp</text>
</a>
</g>
</g>
<!-- Node19&#45;&gt;Node21 -->
<g id="edge31" class="edge"><title>Node19&#45;&gt;Node21</title>
<path fill="none" stroke="midnightblue" d="M75.4463,-105.82C63.6219,-96.1452 48.7144,-83.9481 38.797,-75.8339"/>
<polygon fill="midnightblue" stroke="midnightblue" points="73.44,-108.7 83.396,-112.324 77.8727,-103.283 73.44,-108.7"/>
</g>
<!-- Node21&#45;&gt;Node9 -->
<g id="edge32" class="edge"><title>Node21&#45;&gt;Node9</title>
<path fill="none" stroke="midnightblue" d="M66.3898,-55.557C141.728,-39.2282 219.818,-25.1658 264.762,-17.3501"/>
<polygon fill="midnightblue" stroke="midnightblue" points="65.2845,-52.2158 56.2621,-57.7697 66.7787,-59.0545 65.2845,-52.2158"/>
</g>
<!-- Node22&#45;&gt;Node1 -->
<g id="edge34" class="edge"><title>Node22&#45;&gt;Node1</title>
<path fill="none" stroke="midnightblue" d="M1302.99,-245.044C1110.7,-274.089 882.995,-285.272 808.046,-288.177"/>
<polygon fill="midnightblue" stroke="midnightblue" points="1303.63,-248.486 1312.98,-243.512 1302.57,-241.567 1303.63,-248.486"/>
</g>
<!-- Node23&#45;&gt;Node4 -->
<g id="edge36" class="edge"><title>Node23&#45;&gt;Node4</title>
<path fill="none" stroke="midnightblue" d="M423.863,-220.232C401.604,-210.131 371.144,-196.309 351.768,-187.516"/>
<polygon fill="midnightblue" stroke="midnightblue" points="422.591,-223.498 433.144,-224.444 425.484,-217.124 422.591,-223.498"/>
</g>
<!-- Node23&#45;&gt;Node9 -->
<g id="edge37" class="edge"><title>Node23&#45;&gt;Node9</title>
<path fill="none" stroke="midnightblue" d="M440.515,-216.002C410.514,-171.601 330.563,-53.2729 308.003,-19.8837"/>
<polygon fill="midnightblue" stroke="midnightblue" points="437.621,-217.971 446.12,-224.297 443.421,-214.052 437.621,-217.971"/>
</g>
</g>
</svg>
