<?xml version="1.0" encoding="UTF-8" standalone="no"?>
<!DOCTYPE svg PUBLIC "-//W3C//DTD SVG 1.1//EN"
 "http://www.w3.org/Graphics/SVG/1.1/DTD/svg11.dtd">
<!-- Generated by graphviz version 2.38.0 (20140413.2041)
 -->
<!-- Title: alib.hpp Pages: 1 -->
<svg width="1303pt" height="420pt"
 viewBox="0.00 0.00 1302.50 420.00" xmlns="http://www.w3.org/2000/svg" xmlns:xlink="http://www.w3.org/1999/xlink">
<g id="graph0" class="graph" transform="scale(1 1) rotate(0) translate(4 416)">
<title>alib.hpp</title>
<polygon fill="white" stroke="none" points="-4,4 -4,-416 1298.5,-416 1298.5,4 -4,4"/>
<!-- Node1 -->
<g id="node1" class="node"><title>Node1</title>
<polygon fill="#bfbfbf" stroke="black" points="680.5,-392.5 680.5,-411.5 730.5,-411.5 730.5,-392.5 680.5,-392.5"/>
<text text-anchor="middle" x="705.5" y="-399.5" font-family="Helvetica,sans-Serif" font-size="10.00">alib.hpp</text>
</g>
<!-- Node2 -->
<g id="node2" class="node"><title>Node2</title>
<g id="a_node2"><a xlink:href="enums_8hpp.html" target="_top" xlink:title="enums.hpp">
<polygon fill="white" stroke="black" points="0,-336.5 0,-355.5 65,-355.5 65,-336.5 0,-336.5"/>
<text text-anchor="middle" x="32.5" y="-343.5" font-family="Helvetica,sans-Serif" font-size="10.00">enums.hpp</text>
</a>
</g>
</g>
<!-- Node1&#45;&gt;Node2 -->
<g id="edge1" class="edge"><title>Node1&#45;&gt;Node2</title>
<path fill="none" stroke="midnightblue" d="M670.241,-400.052C573.599,-396.993 297.506,-385.789 70.5,-356 68.7702,-355.773 67.0078,-355.523 65.235,-355.254"/>
<polygon fill="midnightblue" stroke="midnightblue" points="670.238,-403.554 680.341,-400.363 670.453,-396.557 670.238,-403.554"/>
</g>
<!-- Node3 -->
<g id="node3" class="node"><title>Node3</title>
<g id="a_node3"><a xlink:href="ownable_8hpp.html" target="_top" xlink:title="ownable.hpp">
<polygon fill="white" stroke="black" points="122,-336.5 122,-355.5 193,-355.5 193,-336.5 122,-336.5"/>
<text text-anchor="middle" x="157.5" y="-343.5" font-family="Helvetica,sans-Serif" font-size="10.00">ownable.hpp</text>
</a>
</g>
</g>
<!-- Node1&#45;&gt;Node3 -->
<g id="edge2" class="edge"><title>Node1&#45;&gt;Node3</title>
<path fill="none" stroke="midnightblue" d="M670.2,-399.159C587.912,-394.58 377.078,-381.192 202.5,-356 199.503,-355.568 196.405,-355.065 193.301,-354.523"/>
<polygon fill="midnightblue" stroke="midnightblue" points="670.089,-402.658 680.266,-399.71 670.472,-395.668 670.089,-402.658"/>
</g>
<!-- Node4 -->
<g id="node4" class="node"><title>Node4</title>
<g id="a_node4"><a xlink:href="threadlock_8hpp.html" target="_top" xlink:title="threadlock.hpp">
<polygon fill="white" stroke="black" points="9.5,-280.5 9.5,-299.5 89.5,-299.5 89.5,-280.5 9.5,-280.5"/>
<text text-anchor="middle" x="49.5" y="-287.5" font-family="Helvetica,sans-Serif" font-size="10.00">threadlock.hpp</text>
</a>
</g>
</g>
<!-- Node1&#45;&gt;Node4 -->
<g id="edge3" class="edge"><title>Node1&#45;&gt;Node4</title>
<path fill="none" stroke="midnightblue" d="M670.393,-401.519C558.747,-402.679 213.358,-402.343 113.5,-356 86.4936,-343.467 64.6372,-314.287 54.9315,-299.669"/>
<polygon fill="midnightblue" stroke="midnightblue" points="670.492,-405.018 680.452,-401.404 670.412,-398.019 670.492,-405.018"/>
</g>
<!-- Node6 -->
<g id="node5" class="node"><title>Node6</title>
<g id="a_node5"><a xlink:href="alox_8hpp.html" target="_top" xlink:title="alox.hpp">
<polygon fill="white" stroke="red" points="265,-112.5 265,-131.5 318,-131.5 318,-112.5 265,-112.5"/>
<text text-anchor="middle" x="291.5" y="-119.5" font-family="Helvetica,sans-Serif" font-size="10.00">alox.hpp</text>
</a>
</g>
</g>
<!-- Node1&#45;&gt;Node6 -->
<g id="edge4" class="edge"><title>Node1&#45;&gt;Node6</title>
<path fill="none" stroke="midnightblue" d="M670.348,-401.01C600.271,-400.204 447.096,-394.025 414.5,-356 408.715,-349.251 410.012,-343.673 414.5,-336 430.976,-307.829 462.024,-328.171 478.5,-300 482.988,-292.327 481.005,-288.529 478.5,-280 455.027,-200.079 357.413,-150.348 313.305,-131.549"/>
<polygon fill="midnightblue" stroke="midnightblue" points="670.427,-404.511 680.456,-401.096 670.486,-397.511 670.427,-404.511"/>
</g>
<!-- Node9 -->
<g id="node6" class="node"><title>Node9</title>
<g id="a_node6"><a xlink:href="report_8hpp.html" target="_top" xlink:title="report.hpp">
<polygon fill="white" stroke="black" points="423.5,-336.5 423.5,-355.5 483.5,-355.5 483.5,-336.5 423.5,-336.5"/>
<text text-anchor="middle" x="453.5" y="-343.5" font-family="Helvetica,sans-Serif" font-size="10.00">report.hpp</text>
</a>
</g>
</g>
<!-- Node1&#45;&gt;Node9 -->
<g id="edge5" class="edge"><title>Node1&#45;&gt;Node9</title>
<path fill="none" stroke="midnightblue" d="M670.363,-395.021C626.29,-386.557 549.099,-370.497 483.5,-356 482.821,-355.85 482.136,-355.698 481.447,-355.544"/>
<polygon fill="midnightblue" stroke="midnightblue" points="669.824,-398.481 680.301,-396.905 671.128,-391.603 669.824,-398.481"/>
</g>
<!-- Node10 -->
<g id="node7" class="node"><title>Node10</title>
<g id="a_node7"><a xlink:href="util_8hpp.html" target="_top" xlink:title="util.hpp">
<polygon fill="white" stroke="black" points="501.5,-336.5 501.5,-355.5 549.5,-355.5 549.5,-336.5 501.5,-336.5"/>
<text text-anchor="middle" x="525.5" y="-343.5" font-family="Helvetica,sans-Serif" font-size="10.00">util.hpp</text>
</a>
</g>
</g>
<!-- Node1&#45;&gt;Node10 -->
<g id="edge6" class="edge"><title>Node1&#45;&gt;Node10</title>
<path fill="none" stroke="midnightblue" d="M670.527,-390.508C634.975,-379.843 580.832,-363.6 549.741,-354.272"/>
<polygon fill="midnightblue" stroke="midnightblue" points="669.888,-393.97 680.472,-393.492 671.899,-387.266 669.888,-393.97"/>
</g>
<!-- Node11 -->
<g id="node8" class="node"><title>Node11</title>
<g id="a_node8"><a xlink:href="applyformat_8hpp.html" target="_top" xlink:title="applyformat.hpp">
<polygon fill="white" stroke="black" points="567.5,-336.5 567.5,-355.5 653.5,-355.5 653.5,-336.5 567.5,-336.5"/>
<text text-anchor="middle" x="610.5" y="-343.5" font-family="Helvetica,sans-Serif" font-size="10.00">applyformat.hpp</text>
</a>
</g>
</g>
<!-- Node1&#45;&gt;Node11 -->
<g id="edge7" class="edge"><title>Node1&#45;&gt;Node11</title>
<path fill="none" stroke="midnightblue" d="M675.984,-387.59C657.092,-377.605 633.898,-364.267 620.615,-355.655"/>
<polygon fill="midnightblue" stroke="midnightblue" points="674.633,-390.831 685.122,-392.324 677.853,-384.616 674.633,-390.831"/>
</g>
<!-- Node12 -->
<g id="node9" class="node"><title>Node12</title>
<g id="a_node9"><a xlink:href="applyto_8hpp.html" target="_top" xlink:title="applyto.hpp">
<polygon fill="white" stroke="black" points="672,-336.5 672,-355.5 739,-355.5 739,-336.5 672,-336.5"/>
<text text-anchor="middle" x="705.5" y="-343.5" font-family="Helvetica,sans-Serif" font-size="10.00">applyto.hpp</text>
</a>
</g>
</g>
<!-- Node1&#45;&gt;Node12 -->
<g id="edge8" class="edge"><title>Node1&#45;&gt;Node12</title>
<path fill="none" stroke="midnightblue" d="M699.028,-382.101C698.396,-373.136 698.843,-362.858 700.369,-355.751"/>
<polygon fill="midnightblue" stroke="midnightblue" points="695.566,-382.622 700.334,-392.083 702.507,-381.713 695.566,-382.622"/>
</g>
<!-- Node13 -->
<g id="node10" class="node"><title>Node13</title>
<g id="a_node10"><a xlink:href="astring_8hpp.html" target="_top" xlink:title="astring.hpp">
<polygon fill="white" stroke="black" points="757,-336.5 757,-355.5 822,-355.5 822,-336.5 757,-336.5"/>
<text text-anchor="middle" x="789.5" y="-343.5" font-family="Helvetica,sans-Serif" font-size="10.00">astring.hpp</text>
</a>
</g>
</g>
<!-- Node1&#45;&gt;Node13 -->
<g id="edge9" class="edge"><title>Node1&#45;&gt;Node13</title>
<path fill="none" stroke="midnightblue" d="M722.222,-386.342C736.359,-376.517 756.288,-363.913 770.927,-355.655"/>
<polygon fill="midnightblue" stroke="midnightblue" points="719.967,-383.652 713.881,-392.324 724.047,-389.34 719.967,-383.652"/>
</g>
<!-- Node14 -->
<g id="node11" class="node"><title>Node14</title>
<g id="a_node11"><a xlink:href="cstring_8hpp.html" target="_top" xlink:title="cstring.hpp">
<polygon fill="white" stroke="black" points="840,-336.5 840,-355.5 905,-355.5 905,-336.5 840,-336.5"/>
<text text-anchor="middle" x="872.5" y="-343.5" font-family="Helvetica,sans-Serif" font-size="10.00">cstring.hpp</text>
</a>
</g>
</g>
<!-- Node1&#45;&gt;Node14 -->
<g id="edge10" class="edge"><title>Node1&#45;&gt;Node14</title>
<path fill="none" stroke="midnightblue" d="M736.383,-389.172C766.242,-379.004 811.038,-364.585 841.082,-355.516"/>
<polygon fill="midnightblue" stroke="midnightblue" points="735.191,-385.881 726.873,-392.444 737.468,-392.5 735.191,-385.881"/>
</g>
<!-- Node15 -->
<g id="node12" class="node"><title>Node15</title>
<g id="a_node12"><a xlink:href="preallocatedstring_8hpp.html" target="_top" xlink:title="preallocatedstring.hpp">
<polygon fill="white" stroke="black" points="923.5,-336.5 923.5,-355.5 1035.5,-355.5 1035.5,-336.5 923.5,-336.5"/>
<text text-anchor="middle" x="979.5" y="-343.5" font-family="Helvetica,sans-Serif" font-size="10.00">preallocatedstring.hpp</text>
</a>
</g>
</g>
<!-- Node1&#45;&gt;Node15 -->
<g id="edge11" class="edge"><title>Node1&#45;&gt;Node15</title>
<path fill="none" stroke="midnightblue" d="M740.985,-393.03C789.559,-382.994 876.643,-365.823 931.136,-355.53"/>
<polygon fill="midnightblue" stroke="midnightblue" points="740.021,-389.655 730.943,-395.118 741.446,-396.509 740.021,-389.655"/>
</g>
<!-- Node16 -->
<g id="node13" class="node"><title>Node16</title>
<g id="a_node13"><a xlink:href="string_8hpp.html" target="_top" xlink:title="string.hpp">
<polygon fill="white" stroke="black" points="1054,-336.5 1054,-355.5 1113,-355.5 1113,-336.5 1054,-336.5"/>
<text text-anchor="middle" x="1083.5" y="-343.5" font-family="Helvetica,sans-Serif" font-size="10.00">string.hpp</text>
</a>
</g>
</g>
<!-- Node1&#45;&gt;Node16 -->
<g id="edge12" class="edge"><title>Node1&#45;&gt;Node16</title>
<path fill="none" stroke="midnightblue" d="M741.143,-396.787C801.941,-389.977 928.864,-375.337 1035.5,-356 1041.38,-354.934 1047.71,-353.568 1053.87,-352.225"/>
<polygon fill="midnightblue" stroke="midnightblue" points="740.475,-393.34 730.925,-397.928 741.252,-400.297 740.475,-393.34"/>
</g>
<!-- Node17 -->
<g id="node14" class="node"><title>Node17</title>
<g id="a_node14"><a xlink:href="stringliteral_8hpp.html" target="_top" xlink:title="stringliteral.hpp">
<polygon fill="white" stroke="black" points="1131,-336.5 1131,-355.5 1214,-355.5 1214,-336.5 1131,-336.5"/>
<text text-anchor="middle" x="1172.5" y="-343.5" font-family="Helvetica,sans-Serif" font-size="10.00">stringliteral.hpp</text>
</a>
</g>
</g>
<!-- Node1&#45;&gt;Node17 -->
<g id="edge13" class="edge"><title>Node1&#45;&gt;Node17</title>
<path fill="none" stroke="midnightblue" d="M740.935,-397.568C811.966,-391.054 976.046,-375.762 1113.5,-356 1119.09,-355.197 1125.01,-354.233 1130.88,-353.238"/>
<polygon fill="midnightblue" stroke="midnightblue" points="740.386,-394.104 730.747,-398.502 741.025,-401.075 740.386,-394.104"/>
</g>
<!-- Node18 -->
<g id="node15" class="node"><title>Node18</title>
<g id="a_node15"><a xlink:href="substring_8hpp.html" target="_top" xlink:title="substring.hpp">
<polygon fill="white" stroke="black" points="292,-336.5 292,-355.5 367,-355.5 367,-336.5 292,-336.5"/>
<text text-anchor="middle" x="329.5" y="-343.5" font-family="Helvetica,sans-Serif" font-size="10.00">substring.hpp</text>
</a>
</g>
</g>
<!-- Node1&#45;&gt;Node18 -->
<g id="edge14" class="edge"><title>Node1&#45;&gt;Node18</title>
<path fill="none" stroke="midnightblue" d="M670.238,-396.494C610.659,-388.794 486.309,-372.344 381.5,-356 376.883,-355.28 372.042,-354.49 367.249,-353.686"/>
<polygon fill="midnightblue" stroke="midnightblue" points="669.886,-399.978 680.251,-397.785 670.781,-393.035 669.886,-399.978"/>
</g>
<!-- Node24 -->
<g id="node16" class="node"><title>Node24</title>
<g id="a_node16"><a xlink:href="tstring_8hpp.html" target="_top" xlink:title="tstring.hpp">
<polygon fill="white" stroke="black" points="1232.5,-336.5 1232.5,-355.5 1294.5,-355.5 1294.5,-336.5 1232.5,-336.5"/>
<text text-anchor="middle" x="1263.5" y="-343.5" font-family="Helvetica,sans-Serif" font-size="10.00">tstring.hpp</text>
</a>
</g>
</g>
<!-- Node1&#45;&gt;Node24 -->
<g id="edge15" class="edge"><title>Node1&#45;&gt;Node24</title>
<path fill="none" stroke="midnightblue" d="M740.798,-399.357C823.937,-395.378 1037.61,-383.456 1214.5,-356 1220.27,-355.105 1226.44,-353.86 1232.47,-352.581"/>
<polygon fill="midnightblue" stroke="midnightblue" points="740.456,-395.869 730.632,-399.835 740.785,-402.861 740.456,-395.869"/>
</g>
<!-- Node25 -->
<g id="node17" class="node"><title>Node25</title>
<g id="a_node17"><a xlink:href="thread_8hpp.html" target="_top" xlink:title="thread.hpp">
<polygon fill="white" stroke="black" points="211.5,-336.5 211.5,-355.5 273.5,-355.5 273.5,-336.5 211.5,-336.5"/>
<text text-anchor="middle" x="242.5" y="-343.5" font-family="Helvetica,sans-Serif" font-size="10.00">thread.hpp</text>
</a>
</g>
</g>
<!-- Node1&#45;&gt;Node25 -->
<g id="edge16" class="edge"><title>Node1&#45;&gt;Node25</title>
<path fill="none" stroke="midnightblue" d="M670.165,-398.551C597.452,-393.221 425.943,-379.157 283.5,-356 280.335,-355.485 277.047,-354.882 273.771,-354.235"/>
<polygon fill="midnightblue" stroke="midnightblue" points="669.934,-402.043 680.161,-399.274 670.439,-395.061 669.934,-402.043"/>
</g>
<!-- Node2&#45;&gt;Node1 -->
<g id="edge17" class="edge"><title>Node2&#45;&gt;Node1</title>
<path fill="none" stroke="midnightblue" d="M75.0765,-353.939C79.629,-354.716 84.1664,-355.431 88.5,-356 317.264,-386.02 595.878,-397.166 680.267,-400.122"/>
<polygon fill="midnightblue" stroke="midnightblue" points="75.6186,-350.481 65.1594,-352.171 74.3898,-357.372 75.6186,-350.481"/>
</g>
<!-- Node3&#45;&gt;Node4 -->
<g id="edge18" class="edge"><title>Node3&#45;&gt;Node4</title>
<path fill="none" stroke="midnightblue" d="M130.952,-331.726C110.954,-321.727 84.113,-308.307 66.809,-299.655"/>
<polygon fill="midnightblue" stroke="midnightblue" points="129.638,-334.982 140.148,-336.324 132.769,-328.721 129.638,-334.982"/>
</g>
<!-- Node5 -->
<g id="node18" class="node"><title>Node5</title>
<g id="a_node18"><a xlink:href="configuration_8hpp.html" target="_top" xlink:title="configuration.hpp">
<polygon fill="white" stroke="black" points="166,-168.5 166,-187.5 257,-187.5 257,-168.5 166,-168.5"/>
<text text-anchor="middle" x="211.5" y="-175.5" font-family="Helvetica,sans-Serif" font-size="10.00">configuration.hpp</text>
</a>
</g>
</g>
<!-- Node4&#45;&gt;Node5 -->
<g id="edge19" class="edge"><title>Node4&#45;&gt;Node5</title>
<path fill="none" stroke="midnightblue" d="M70.1288,-274.556C89.1186,-261.303 118.106,-241.18 143.5,-224 162.495,-211.149 184.68,-196.543 198.411,-187.548"/>
<polygon fill="midnightblue" stroke="midnightblue" points="68.1052,-271.7 61.9128,-280.297 72.1147,-277.438 68.1052,-271.7"/>
</g>
<!-- Node7 -->
<g id="node19" class="node"><title>Node7</title>
<g id="a_node19"><a xlink:href="lox_8hpp.html" target="_top" xlink:title="lox.hpp">
<polygon fill="white" stroke="black" points="229.5,-0.5 229.5,-19.5 277.5,-19.5 277.5,-0.5 229.5,-0.5"/>
<text text-anchor="middle" x="253.5" y="-7.5" font-family="Helvetica,sans-Serif" font-size="10.00">lox.hpp</text>
</a>
</g>
</g>
<!-- Node4&#45;&gt;Node7 -->
<g id="edge20" class="edge"><title>Node4&#45;&gt;Node7</title>
<path fill="none" stroke="midnightblue" d="M40.9745,-271.281C31.4948,-249.915 17.5,-212.671 17.5,-179 17.5,-179 17.5,-179 17.5,-121 17.5,-28.3312 168.835,-13.5397 229.133,-11.3241"/>
<polygon fill="midnightblue" stroke="midnightblue" points="37.8179,-272.793 45.1843,-280.408 44.1744,-269.862 37.8179,-272.793"/>
</g>
<!-- Node6&#45;&gt;Node7 -->
<g id="edge23" class="edge"><title>Node6&#45;&gt;Node7</title>
<path fill="none" stroke="midnightblue" d="M280.277,-103.32C269.458,-79.3697 255.438,-37.5484 252.633,-19.5914"/>
<polygon fill="midnightblue" stroke="midnightblue" points="277.156,-104.905 284.675,-112.368 283.451,-101.845 277.156,-104.905"/>
</g>
<!-- Node8 -->
<g id="node20" class="node"><title>Node8</title>
<g id="a_node20"><a xlink:href="scopeinfo_8hpp.html" target="_top" xlink:title="scopeinfo.hpp">
<polygon fill="white" stroke="black" points="177,-56.5 177,-75.5 254,-75.5 254,-56.5 177,-56.5"/>
<text text-anchor="middle" x="215.5" y="-63.5" font-family="Helvetica,sans-Serif" font-size="10.00">scopeinfo.hpp</text>
</a>
</g>
</g>
<!-- Node6&#45;&gt;Node8 -->
<g id="edge24" class="edge"><title>Node6&#45;&gt;Node8</title>
<path fill="none" stroke="midnightblue" d="M270.924,-106.38C257.188,-96.6204 239.575,-84.1057 227.933,-75.8339"/>
<polygon fill="midnightblue" stroke="midnightblue" points="269.11,-109.385 279.289,-112.324 273.165,-103.679 269.11,-109.385"/>
</g>
<!-- Node9&#45;&gt;Node1 -->
<g id="edge27" class="edge"><title>Node9&#45;&gt;Node1</title>
<path fill="none" stroke="midnightblue" d="M493.525,-354.221C496.241,-354.829 498.917,-355.429 501.5,-356 565.899,-370.232 641.471,-385.97 680.212,-394.549"/>
<polygon fill="midnightblue" stroke="midnightblue" points="494.143,-350.773 483.622,-352.023 492.626,-357.607 494.143,-350.773"/>
</g>
<!-- Node11&#45;&gt;Node1 -->
<g id="edge28" class="edge"><title>Node11&#45;&gt;Node1</title>
<path fill="none" stroke="midnightblue" d="M639.969,-360.386C658.854,-370.364 682.052,-383.703 695.351,-392.324"/>
<polygon fill="midnightblue" stroke="midnightblue" points="641.325,-357.146 630.836,-355.655 638.105,-363.362 641.325,-357.146"/>
</g>
<!-- Node12&#45;&gt;Node1 -->
<g id="edge29" class="edge"><title>Node12&#45;&gt;Node1</title>
<path fill="none" stroke="midnightblue" d="M711.958,-365.691C712.606,-374.635 712.176,-384.927 710.666,-392.083"/>
<polygon fill="midnightblue" stroke="midnightblue" points="715.423,-365.2 710.631,-355.751 708.485,-366.126 715.423,-365.2"/>
</g>
<!-- Node13&#45;&gt;Node1 -->
<g id="edge30" class="edge"><title>Node13&#45;&gt;Node1</title>
<path fill="none" stroke="midnightblue" d="M772.564,-361.807C758.452,-371.602 738.673,-384.107 724.111,-392.324"/>
<polygon fill="midnightblue" stroke="midnightblue" points="774.813,-364.501 780.907,-355.834 770.739,-358.809 774.813,-364.501"/>
</g>
<!-- Node14&#45;&gt;Node1 -->
<g id="edge31" class="edge"><title>Node14&#45;&gt;Node1</title>
<path fill="none" stroke="midnightblue" d="M841.401,-358.901C809.36,-369.808 760.282,-385.56 730.592,-394.379"/>
<polygon fill="midnightblue" stroke="midnightblue" points="842.841,-362.107 851.159,-355.545 840.565,-355.488 842.841,-362.107"/>
</g>
<!-- Node15&#45;&gt;Node1 -->
<g id="edge32" class="edge"><title>Node15&#45;&gt;Node1</title>
<path fill="none" stroke="midnightblue" d="M930.942,-357.654C872.396,-369.607 776.42,-388.413 730.843,-396.763"/>
<polygon fill="midnightblue" stroke="midnightblue" points="931.971,-361.016 941.064,-355.579 930.565,-354.159 931.971,-361.016"/>
</g>
<!-- Node16&#45;&gt;Node1 -->
<g id="edge33" class="edge"><title>Node16&#45;&gt;Node1</title>
<path fill="none" stroke="midnightblue" d="M1045.91,-357.342C925.861,-378.572 786.821,-393.657 730.622,-398.939"/>
<polygon fill="midnightblue" stroke="midnightblue" points="1046.76,-360.745 1055.98,-355.537 1045.52,-353.855 1046.76,-360.745"/>
</g>
<!-- Node17&#45;&gt;Node1 -->
<g id="edge34" class="edge"><title>Node17&#45;&gt;Node1</title>
<path fill="none" stroke="midnightblue" d="M1124.7,-356.953C972.688,-378.405 795.947,-394.136 730.898,-399.234"/>
<polygon fill="midnightblue" stroke="midnightblue" points="1125.27,-360.408 1134.67,-355.532 1124.28,-353.478 1125.27,-360.408"/>
</g>
<!-- Node18&#45;&gt;Node5 -->
<g id="edge35" class="edge"><title>Node18&#45;&gt;Node5</title>
<path fill="none" stroke="midnightblue" d="M323.996,-326.545C315.818,-301.358 298.566,-255.729 272.5,-224 259.802,-208.544 240.678,-195.577 227.236,-187.593"/>
<polygon fill="midnightblue" stroke="midnightblue" points="320.711,-327.768 327.03,-336.272 327.394,-325.684 320.711,-327.768"/>
</g>
<!-- Node19 -->
<g id="node21" class="node"><title>Node19</title>
<g id="a_node21"><a xlink:href="plugins_8hpp.html" target="_top" xlink:title="plugins.hpp">
<polygon fill="white" stroke="black" points="178.5,-280.5 178.5,-299.5 244.5,-299.5 244.5,-280.5 178.5,-280.5"/>
<text text-anchor="middle" x="211.5" y="-287.5" font-family="Helvetica,sans-Serif" font-size="10.00">plugins.hpp</text>
</a>
</g>
</g>
<!-- Node18&#45;&gt;Node19 -->
<g id="edge36" class="edge"><title>Node18&#45;&gt;Node19</title>
<path fill="none" stroke="midnightblue" d="M301.6,-332.232C279.527,-322.131 249.324,-308.309 230.11,-299.516"/>
<polygon fill="midnightblue" stroke="midnightblue" points="300.253,-335.465 310.803,-336.444 303.166,-329.1 300.253,-335.465"/>
</g>
<!-- Node21 -->
<g id="node22" class="node"><title>Node21</title>
<g id="a_node22"><a xlink:href="pathmap_8hpp.html" target="_top" xlink:title="pathmap.hpp">
<polygon fill="white" stroke="black" points="396,-280.5 396,-299.5 469,-299.5 469,-280.5 396,-280.5"/>
<text text-anchor="middle" x="432.5" y="-287.5" font-family="Helvetica,sans-Serif" font-size="10.00">pathmap.hpp</text>
</a>
</g>
</g>
<!-- Node18&#45;&gt;Node21 -->
<g id="edge37" class="edge"><title>Node18&#45;&gt;Node21</title>
<path fill="none" stroke="midnightblue" d="M355.079,-331.59C374.123,-321.605 399.564,-308.267 415.992,-299.655"/>
<polygon fill="midnightblue" stroke="midnightblue" points="353.28,-328.581 346.049,-336.324 356.531,-334.78 353.28,-328.581"/>
</g>
<!-- Node22 -->
<g id="node23" class="node"><title>Node22</title>
<g id="a_node23"><a xlink:href="tokenizer_8hpp.html" target="_top" xlink:title="tokenizer.hpp">
<polygon fill="white" stroke="black" points="358,-224.5 358,-243.5 433,-243.5 433,-224.5 358,-224.5"/>
<text text-anchor="middle" x="395.5" y="-231.5" font-family="Helvetica,sans-Serif" font-size="10.00">tokenizer.hpp</text>
</a>
</g>
</g>
<!-- Node18&#45;&gt;Node22 -->
<g id="edge38" class="edge"><title>Node18&#45;&gt;Node22</title>
<path fill="none" stroke="midnightblue" d="M339.916,-327.64C354.254,-303.744 379.523,-261.629 390.345,-243.591"/>
<polygon fill="midnightblue" stroke="midnightblue" points="336.823,-325.993 334.679,-336.368 342.825,-329.594 336.823,-325.993"/>
</g>
<!-- Node23 -->
<g id="node24" class="node"><title>Node23</title>
<g id="a_node24"><a xlink:href="ticks_8hpp.html" target="_top" xlink:title="ticks.hpp">
<polygon fill="white" stroke="black" points="288.5,-168.5 288.5,-187.5 344.5,-187.5 344.5,-168.5 288.5,-168.5"/>
<text text-anchor="middle" x="316.5" y="-175.5" font-family="Helvetica,sans-Serif" font-size="10.00">ticks.hpp</text>
</a>
</g>
</g>
<!-- Node18&#45;&gt;Node23 -->
<g id="edge39" class="edge"><title>Node18&#45;&gt;Node23</title>
<path fill="none" stroke="midnightblue" d="M328.007,-325.93C325.187,-289.92 319.181,-213.231 317.171,-187.568"/>
<polygon fill="midnightblue" stroke="midnightblue" points="324.531,-326.379 328.801,-336.075 331.51,-325.832 324.531,-326.379"/>
</g>
<!-- Node24&#45;&gt;Node1 -->
<g id="edge47" class="edge"><title>Node24&#45;&gt;Node1</title>
<path fill="none" stroke="midnightblue" d="M1225.49,-357.044C1033.2,-386.089 805.495,-397.272 730.546,-400.177"/>
<polygon fill="midnightblue" stroke="midnightblue" points="1226.13,-360.486 1235.48,-355.512 1225.07,-353.567 1226.13,-360.486"/>
</g>
<!-- Node25&#45;&gt;Node4 -->
<g id="edge48" class="edge"><title>Node25&#45;&gt;Node4</title>
<path fill="none" stroke="midnightblue" d="M202.108,-333.699C165.683,-323.507 112.914,-308.743 79.9383,-299.516"/>
<polygon fill="midnightblue" stroke="midnightblue" points="201.345,-337.12 211.919,-336.444 203.231,-330.378 201.345,-337.12"/>
</g>
<!-- Node25&#45;&gt;Node8 -->
<g id="edge49" class="edge"><title>Node25&#45;&gt;Node8</title>
<path fill="none" stroke="midnightblue" d="M212.843,-331.812C198.314,-324.181 181.426,-313.42 169.5,-300 151.272,-279.488 149.417,-270.795 143.5,-244 128.478,-175.973 186.551,-100.447 207.906,-75.5016"/>
<polygon fill="midnightblue" stroke="midnightblue" points="211.464,-335.035 221.974,-336.37 214.59,-328.772 211.464,-335.035"/>
</g>
<!-- Node5&#45;&gt;Node6 -->
<g id="edge21" class="edge"><title>Node5&#45;&gt;Node6</title>
<path fill="none" stroke="midnightblue" d="M232.801,-162.622C247.415,-152.757 266.327,-139.992 278.679,-131.655"/>
<polygon fill="midnightblue" stroke="midnightblue" points="230.684,-159.828 224.353,-168.324 234.6,-165.63 230.684,-159.828"/>
</g>
<!-- Node5&#45;&gt;Node7 -->
<g id="edge22" class="edge"><title>Node5&#45;&gt;Node7</title>
<path fill="none" stroke="midnightblue" d="M196.878,-160.391C177.438,-136.185 147.812,-90.361 168.5,-56 181.591,-34.2568 209.102,-22.4694 229.295,-16.4806"/>
<polygon fill="midnightblue" stroke="midnightblue" points="194.366,-162.844 203.467,-168.27 199.736,-158.353 194.366,-162.844"/>
</g>
<!-- Node7&#45;&gt;Node6 -->
<g id="edge25" class="edge"><title>Node7&#45;&gt;Node6</title>
<path fill="none" stroke="midnightblue" d="M264.699,-28.6267C275.513,-52.5503 289.539,-94.376 292.361,-112.368"/>
<polygon fill="midnightblue" stroke="midnightblue" points="267.826,-27.0525 260.303,-19.5914 261.531,-30.1149 267.826,-27.0525"/>
</g>
<!-- Node8&#45;&gt;Node7 -->
<g id="edge26" class="edge"><title>Node8&#45;&gt;Node7</title>
<path fill="none" stroke="midnightblue" d="M227.565,-47.8554C234.145,-38.5048 242.011,-27.3265 247.342,-19.7511"/>
<polygon fill="midnightblue" stroke="midnightblue" points="224.668,-45.8907 221.775,-56.083 230.392,-49.9192 224.668,-45.8907"/>
</g>
<!-- Node19&#45;&gt;Node5 -->
<g id="edge40" class="edge"><title>Node19&#45;&gt;Node5</title>
<path fill="none" stroke="midnightblue" d="M182.498,-275.33C170.268,-267.917 157.307,-257.48 150.5,-244 138.432,-220.101 170.532,-198.819 192.616,-187.531"/>
<polygon fill="midnightblue" stroke="midnightblue" points="181.157,-278.59 191.594,-280.41 184.57,-272.479 181.157,-278.59"/>
</g>
<!-- Node20 -->
<g id="node25" class="node"><title>Node20</title>
<g id="a_node25"><a xlink:href="inmemoryplugin_8hpp.html" target="_top" xlink:title="inmemoryplugin.hpp">
<polygon fill="white" stroke="red" points="159.5,-224.5 159.5,-243.5 263.5,-243.5 263.5,-224.5 159.5,-224.5"/>
<text text-anchor="middle" x="211.5" y="-231.5" font-family="Helvetica,sans-Serif" font-size="10.00">inmemoryplugin.hpp</text>
</a>
</g>
</g>
<!-- Node19&#45;&gt;Node20 -->
<g id="edge41" class="edge"><title>Node19&#45;&gt;Node20</title>
<path fill="none" stroke="midnightblue" d="M211.5,-269.805C211.5,-260.91 211.5,-250.78 211.5,-243.751"/>
<polygon fill="midnightblue" stroke="midnightblue" points="208,-270.083 211.5,-280.083 215,-270.083 208,-270.083"/>
</g>
<!-- Node22&#45;&gt;Node6 -->
<g id="edge44" class="edge"><title>Node22&#45;&gt;Node6</title>
<path fill="none" stroke="midnightblue" d="M386.443,-215.327C378.827,-201.499 367.032,-182.285 353.5,-168 339.414,-153.13 319.839,-139.866 306.476,-131.657"/>
<polygon fill="midnightblue" stroke="midnightblue" points="383.429,-217.112 391.216,-224.296 389.608,-213.824 383.429,-217.112"/>
</g>
<!-- Node22&#45;&gt;Node5 -->
<g id="edge43" class="edge"><title>Node22&#45;&gt;Node5</title>
<path fill="none" stroke="midnightblue" d="M356.546,-221.568C321.835,-211.381 271.823,-196.703 240.519,-187.516"/>
<polygon fill="midnightblue" stroke="midnightblue" points="355.764,-224.986 366.345,-224.444 357.735,-218.269 355.764,-224.986"/>
</g>
<!-- Node22&#45;&gt;Node7 -->
<g id="edge45" class="edge"><title>Node22&#45;&gt;Node7</title>
<path fill="none" stroke="midnightblue" d="M391.091,-214.383C387.556,-201.06 381.954,-182.918 374.5,-168 342.966,-104.894 284.344,-42.1799 262.239,-19.6967"/>
<polygon fill="midnightblue" stroke="midnightblue" points="387.741,-215.416 393.569,-224.264 394.531,-213.713 387.741,-215.416"/>
</g>
<!-- Node23&#45;&gt;Node8 -->
<g id="edge46" class="edge"><title>Node23&#45;&gt;Node8</title>
<path fill="none" stroke="midnightblue" d="M293.685,-162.817C281.753,-154.712 267.404,-143.822 256.5,-132 240.037,-114.15 226.259,-88.8276 219.67,-75.6793"/>
<polygon fill="midnightblue" stroke="midnightblue" points="291.962,-165.873 302.241,-168.441 295.807,-160.023 291.962,-165.873"/>
</g>
<!-- Node20&#45;&gt;Node5 -->
<g id="edge42" class="edge"><title>Node20&#45;&gt;Node5</title>
<path fill="none" stroke="midnightblue" d="M211.5,-213.805C211.5,-204.91 211.5,-194.78 211.5,-187.751"/>
<polygon fill="midnightblue" stroke="midnightblue" points="208,-214.083 211.5,-224.083 215,-214.083 208,-214.083"/>
</g>
</g>
</svg>
