<?xml version="1.0" encoding="UTF-8" standalone="no"?>
<!DOCTYPE svg PUBLIC "-//W3C//DTD SVG 1.1//EN"
 "http://www.w3.org/Graphics/SVG/1.1/DTD/svg11.dtd">
<!-- Generated by graphviz version 2.40.1 (20161225.0304)
 -->
<!-- Title: alib.hpp Pages: 1 -->
<svg width="2304pt" height="196pt"
 viewBox="0.00 0.00 2304.00 196.00" xmlns="http://www.w3.org/2000/svg" xmlns:xlink="http://www.w3.org/1999/xlink">
<g id="graph0" class="graph" transform="scale(1 1) rotate(0) translate(4 192)">
<title>alib.hpp</title>
<polygon fill="#ffffff" stroke="transparent" points="-4,4 -4,-192 2300,-192 2300,4 -4,4"/>
<!-- Node0 -->
<g id="node1" class="node">
<title>Node0</title>
<polygon fill="#bfbfbf" stroke="#000000" points="903,-168.5 903,-187.5 953,-187.5 953,-168.5 903,-168.5"/>
<text text-anchor="middle" x="928" y="-175.5" font-family="Helvetica,sans-Serif" font-size="10.00" fill="#000000">alib.hpp</text>
</g>
<!-- Node1 -->
<g id="node2" class="node">
<title>Node1</title>
<polygon fill="#ffffff" stroke="#bfbfbf" points="0,-112.5 0,-131.5 52,-131.5 52,-112.5 0,-112.5"/>
<text text-anchor="middle" x="26" y="-119.5" font-family="Helvetica,sans-Serif" font-size="10.00" fill="#000000">assert.h</text>
</g>
<!-- Node0&#45;&gt;Node1 -->
<g id="edge1" class="edge">
<title>Node0&#45;&gt;Node1</title>
<path fill="none" stroke="#191970" d="M902.822,-177.4296C780.746,-174.5496 249.0708,-160.6633 62.1882,-131.7887"/>
<polygon fill="#191970" stroke="#191970" points="62.658,-128.3193 52.2278,-130.1797 61.5416,-135.2298 62.658,-128.3193"/>
</g>
<!-- Node2 -->
<g id="node3" class="node">
<title>Node2</title>
<polygon fill="#ffffff" stroke="#bfbfbf" points="70,-112.5 70,-131.5 116,-131.5 116,-112.5 70,-112.5"/>
<text text-anchor="middle" x="93" y="-119.5" font-family="Helvetica,sans-Serif" font-size="10.00" fill="#000000">cstdint</text>
</g>
<!-- Node0&#45;&gt;Node2 -->
<g id="edge2" class="edge">
<title>Node0&#45;&gt;Node2</title>
<path fill="none" stroke="#191970" d="M902.7231,-177.3874C786.1697,-174.4376 299.2706,-160.7149 126.2157,-131.7418"/>
<polygon fill="#191970" stroke="#191970" points="126.7075,-128.2747 116.2528,-129.9922 125.4966,-135.1692 126.7075,-128.2747"/>
</g>
<!-- Node3 -->
<g id="node4" class="node">
<title>Node3</title>
<g id="a_node4"><a xlink:href="prepro_8hpp.html" target="_top" xlink:title="alib/alib/prepro.hpp">
<polygon fill="#ffffff" stroke="#000000" points="134,-112.5 134,-131.5 232,-131.5 232,-112.5 134,-112.5"/>
<text text-anchor="middle" x="183" y="-119.5" font-family="Helvetica,sans-Serif" font-size="10.00" fill="#000000">alib/alib/prepro.hpp</text>
</a>
</g>
</g>
<!-- Node0&#45;&gt;Node3 -->
<g id="edge3" class="edge">
<title>Node0&#45;&gt;Node3</title>
<path fill="none" stroke="#191970" d="M902.9585,-177.263C814.2428,-174.4551 506.519,-163.0381 242.4735,-132.0649"/>
<polygon fill="#191970" stroke="#191970" points="242.6524,-128.5617 232.31,-130.8604 241.8285,-135.5131 242.6524,-128.5617"/>
</g>
<!-- Node4 -->
<g id="node5" class="node">
<title>Node4</title>
<g id="a_node5"><a xlink:href="distribution_8hpp_source.html" target="_top" xlink:title="alib/distribution.hpp">
<polygon fill="#ffffff" stroke="#000000" points="250.5,-112.5 250.5,-131.5 351.5,-131.5 351.5,-112.5 250.5,-112.5"/>
<text text-anchor="middle" x="301" y="-119.5" font-family="Helvetica,sans-Serif" font-size="10.00" fill="#000000">alib/distribution.hpp</text>
</a>
</g>
</g>
<!-- Node0&#45;&gt;Node4 -->
<g id="edge4" class="edge">
<title>Node0&#45;&gt;Node4</title>
<path fill="none" stroke="#191970" d="M902.773,-176.713C824.3039,-172.55 577.4056,-158.246 361.9315,-132.0155"/>
<polygon fill="#191970" stroke="#191970" points="362.0476,-128.5036 351.6953,-130.7574 361.1937,-135.4513 362.0476,-128.5036"/>
</g>
<!-- Node5 -->
<g id="node6" class="node">
<title>Node5</title>
<g id="a_node6"><a xlink:href="debug_8hpp.html" target="_top" xlink:title="alib/alib/debug.hpp">
<polygon fill="#ffffff" stroke="#000000" points="370,-112.5 370,-131.5 468,-131.5 468,-112.5 370,-112.5"/>
<text text-anchor="middle" x="419" y="-119.5" font-family="Helvetica,sans-Serif" font-size="10.00" fill="#000000">alib/alib/debug.hpp</text>
</a>
</g>
</g>
<!-- Node0&#45;&gt;Node5 -->
<g id="edge5" class="edge">
<title>Node0&#45;&gt;Node5</title>
<path fill="none" stroke="#191970" d="M902.9933,-176.0599C835.9436,-170.729 646.4005,-154.8112 478.0455,-132.0627"/>
<polygon fill="#191970" stroke="#191970" points="478.3919,-128.5776 468.0108,-130.6951 477.4465,-135.5135 478.3919,-128.5776"/>
</g>
<!-- Node6 -->
<g id="node7" class="node">
<title>Node6</title>
<g id="a_node7"><a xlink:href="rtti_8hpp.html" target="_top" xlink:title="alib/lang/rtti.hpp">
<polygon fill="#ffffff" stroke="#000000" points="486,-112.5 486,-131.5 572,-131.5 572,-112.5 486,-112.5"/>
<text text-anchor="middle" x="529" y="-119.5" font-family="Helvetica,sans-Serif" font-size="10.00" fill="#000000">alib/lang/rtti.hpp</text>
</a>
</g>
</g>
<!-- Node0&#45;&gt;Node6 -->
<g id="edge6" class="edge">
<title>Node0&#45;&gt;Node6</title>
<path fill="none" stroke="#191970" d="M902.6365,-174.9407C845.8328,-168.0121 704.1111,-150.2963 586,-132 584.7434,-131.8053 583.4718,-131.6055 582.1896,-131.4014"/>
<polygon fill="#191970" stroke="#191970" points="582.664,-127.9326 572.2299,-129.7711 581.5332,-134.8407 582.664,-127.9326"/>
</g>
<!-- Node10 -->
<g id="node8" class="node">
<title>Node10</title>
<g id="a_node8"><a xlink:href="singleton_8hpp.html" target="_top" xlink:title="alib/lang/singleton.hpp">
<polygon fill="#ffffff" stroke="#000000" points="285.5,-56.5 285.5,-75.5 398.5,-75.5 398.5,-56.5 285.5,-56.5"/>
<text text-anchor="middle" x="342" y="-63.5" font-family="Helvetica,sans-Serif" font-size="10.00" fill="#000000">alib/lang/singleton.hpp</text>
</a>
</g>
</g>
<!-- Node0&#45;&gt;Node10 -->
<g id="edge7" class="edge">
<title>Node0&#45;&gt;Node10</title>
<path fill="none" stroke="#191970" d="M902.9165,-177.1086C849.4435,-174.5987 720.8099,-165.302 619,-132 600.8605,-126.0666 599.0098,-118.3163 581,-112 549.9034,-101.094 467.977,-86.4013 408.7042,-76.5848"/>
<polygon fill="#191970" stroke="#191970" points="409.0945,-73.102 398.6588,-74.9317 407.9578,-80.0091 409.0945,-73.102"/>
</g>
<!-- Node12 -->
<g id="node9" class="node">
<title>Node12</title>
<g id="a_node9"><a xlink:href="types_8hpp.html" target="_top" xlink:title="alib/lang/types.hpp">
<polygon fill="#ffffff" stroke="#000000" points="628,-112.5 628,-131.5 726,-131.5 726,-112.5 628,-112.5"/>
<text text-anchor="middle" x="677" y="-119.5" font-family="Helvetica,sans-Serif" font-size="10.00" fill="#000000">alib/lang/types.hpp</text>
</a>
</g>
</g>
<!-- Node0&#45;&gt;Node12 -->
<g id="edge8" class="edge">
<title>Node0&#45;&gt;Node12</title>
<path fill="none" stroke="#191970" d="M902.5515,-172.3222C862.1569,-163.3099 782.5197,-145.5423 729.5106,-133.7155"/>
<polygon fill="#191970" stroke="#191970" points="730.1331,-130.2684 719.6109,-131.5068 728.6088,-137.1004 730.1331,-130.2684"/>
</g>
<!-- Node13 -->
<g id="node10" class="node">
<title>Node13</title>
<g id="a_node10"><a xlink:href="boxing_8hpp.html" target="_top" xlink:title="alib/boxing/boxing.hpp">
<polygon fill="#ffffff" stroke="#000000" points="744.5,-112.5 744.5,-131.5 857.5,-131.5 857.5,-112.5 744.5,-112.5"/>
<text text-anchor="middle" x="801" y="-119.5" font-family="Helvetica,sans-Serif" font-size="10.00" fill="#000000">alib/boxing/boxing.hpp</text>
</a>
</g>
</g>
<!-- Node0&#45;&gt;Node13 -->
<g id="edge9" class="edge">
<title>Node0&#45;&gt;Node13</title>
<path fill="none" stroke="#191970" d="M906.1679,-168.3733C885.6897,-159.3435 854.8601,-145.7494 831.8681,-135.6111"/>
<polygon fill="#191970" stroke="#191970" points="833.1093,-132.3333 822.5472,-131.5011 830.285,-138.7383 833.1093,-132.3333"/>
</g>
<!-- Node21 -->
<g id="node11" class="node">
<title>Node21</title>
<g id="a_node11"><a xlink:href="enums_8hpp.html" target="_top" xlink:title="alib/lang/enums.hpp">
<polygon fill="#ffffff" stroke="#000000" points="876,-112.5 876,-131.5 980,-131.5 980,-112.5 876,-112.5"/>
<text text-anchor="middle" x="928" y="-119.5" font-family="Helvetica,sans-Serif" font-size="10.00" fill="#000000">alib/lang/enums.hpp</text>
</a>
</g>
</g>
<!-- Node0&#45;&gt;Node21 -->
<g id="edge10" class="edge">
<title>Node0&#45;&gt;Node21</title>
<path fill="none" stroke="#191970" d="M928,-168.2455C928,-160.9382 928,-150.6944 928,-141.7046"/>
<polygon fill="#191970" stroke="#191970" points="931.5001,-141.6426 928,-131.6427 924.5001,-141.6427 931.5001,-141.6426"/>
</g>
<!-- Node22 -->
<g id="node12" class="node">
<title>Node22</title>
<g id="a_node12"><a xlink:href="cstring_8hpp.html" target="_top" xlink:title="alib/strings/cstring.hpp">
<polygon fill="#ffffff" stroke="#000000" points="998.5,-112.5 998.5,-131.5 1113.5,-131.5 1113.5,-112.5 998.5,-112.5"/>
<text text-anchor="middle" x="1056" y="-119.5" font-family="Helvetica,sans-Serif" font-size="10.00" fill="#000000">alib/strings/cstring.hpp</text>
</a>
</g>
</g>
<!-- Node0&#45;&gt;Node22 -->
<g id="edge11" class="edge">
<title>Node0&#45;&gt;Node22</title>
<path fill="none" stroke="#191970" d="M950.004,-168.3733C970.6435,-159.3435 1001.7158,-145.7494 1024.8889,-135.6111"/>
<polygon fill="#191970" stroke="#191970" points="1026.5245,-138.7159 1034.2831,-131.5011 1023.7187,-132.3028 1026.5245,-138.7159"/>
</g>
<!-- Node25 -->
<g id="node13" class="node">
<title>Node25</title>
<g id="a_node13"><a xlink:href="string_8hpp.html" target="_top" xlink:title="alib/strings/string.hpp">
<polygon fill="#ffffff" stroke="#000000" points="1132,-112.5 1132,-131.5 1242,-131.5 1242,-112.5 1132,-112.5"/>
<text text-anchor="middle" x="1187" y="-119.5" font-family="Helvetica,sans-Serif" font-size="10.00" fill="#000000">alib/strings/string.hpp</text>
</a>
</g>
</g>
<!-- Node0&#45;&gt;Node25 -->
<g id="edge12" class="edge">
<title>Node0&#45;&gt;Node25</title>
<path fill="none" stroke="#191970" d="M953.3056,-172.5285C994.6466,-163.5899 1077.576,-145.6592 1132.6956,-133.7415"/>
<polygon fill="#191970" stroke="#191970" points="1133.6132,-137.124 1142.6477,-131.5897 1132.1338,-130.2821 1133.6132,-137.124"/>
</g>
<!-- Node26 -->
<g id="node14" class="node">
<title>Node26</title>
<g id="a_node14"><a xlink:href="tstring_8hpp.html" target="_top" xlink:title="alib/strings/tstring.hpp">
<polygon fill="#ffffff" stroke="#000000" points="1260.5,-112.5 1260.5,-131.5 1373.5,-131.5 1373.5,-112.5 1260.5,-112.5"/>
<text text-anchor="middle" x="1317" y="-119.5" font-family="Helvetica,sans-Serif" font-size="10.00" fill="#000000">alib/strings/tstring.hpp</text>
</a>
</g>
</g>
<!-- Node0&#45;&gt;Node26 -->
<g id="edge13" class="edge">
<title>Node0&#45;&gt;Node26</title>
<path fill="none" stroke="#191970" d="M953.1397,-174.4974C1006.0145,-167.1141 1132.8505,-149.3158 1250.5742,-132.0521"/>
<polygon fill="#191970" stroke="#191970" points="1251.0939,-135.5134 1260.4793,-130.5976 1250.0769,-128.5876 1251.0939,-135.5134"/>
</g>
<!-- Node27 -->
<g id="node15" class="node">
<title>Node27</title>
<g id="a_node15"><a xlink:href="stringliteral_8hpp.html" target="_top" xlink:title="alib/strings/stringliteral.hpp">
<polygon fill="#ffffff" stroke="#000000" points="1391.5,-112.5 1391.5,-131.5 1524.5,-131.5 1524.5,-112.5 1391.5,-112.5"/>
<text text-anchor="middle" x="1458" y="-119.5" font-family="Helvetica,sans-Serif" font-size="10.00" fill="#000000">alib/strings/stringliteral.hpp</text>
</a>
</g>
</g>
<!-- Node0&#45;&gt;Node27 -->
<g id="edge14" class="edge">
<title>Node0&#45;&gt;Node27</title>
<path fill="none" stroke="#191970" d="M953.1291,-175.7194C1020.5162,-169.5474 1211.0744,-151.7249 1381.1477,-132.0694"/>
<polygon fill="#191970" stroke="#191970" points="1381.7561,-135.5224 1391.2859,-130.8927 1380.949,-128.5691 1381.7561,-135.5224"/>
</g>
<!-- Node28 -->
<g id="node16" class="node">
<title>Node28</title>
<g id="a_node16"><a xlink:href="astring_8hpp.html" target="_top" xlink:title="alib/strings/astring.hpp">
<polygon fill="#ffffff" stroke="#000000" points="1542.5,-112.5 1542.5,-131.5 1657.5,-131.5 1657.5,-112.5 1542.5,-112.5"/>
<text text-anchor="middle" x="1600" y="-119.5" font-family="Helvetica,sans-Serif" font-size="10.00" fill="#000000">alib/strings/astring.hpp</text>
</a>
</g>
</g>
<!-- Node0&#45;&gt;Node28 -->
<g id="edge15" class="edge">
<title>Node0&#45;&gt;Node28</title>
<path fill="none" stroke="#191970" d="M953.1302,-176.7417C1034.9169,-172.5095 1301.0451,-157.6582 1532.3465,-131.9962"/>
<polygon fill="#191970" stroke="#191970" points="1532.7423,-135.4739 1542.2912,-130.8837 1531.9641,-128.5173 1532.7423,-135.4739"/>
</g>
<!-- Node30 -->
<g id="node17" class="node">
<title>Node30</title>
<g id="a_node17"><a xlink:href="preallocatedstring_8hpp.html" target="_top" xlink:title="alib/strings/preallocatedstring.hpp">
<polygon fill="#ffffff" stroke="#000000" points="1676,-112.5 1676,-131.5 1838,-131.5 1838,-112.5 1676,-112.5"/>
<text text-anchor="middle" x="1757" y="-119.5" font-family="Helvetica,sans-Serif" font-size="10.00" fill="#000000">alib/strings/preallocatedstring.hpp</text>
</a>
</g>
</g>
<!-- Node0&#45;&gt;Node30 -->
<g id="edge16" class="edge">
<title>Node0&#45;&gt;Node30</title>
<path fill="none" stroke="#191970" d="M953.2003,-176.8614C1046.1767,-172.5698 1378.9312,-156.4086 1665.4805,-132.0032"/>
<polygon fill="#191970" stroke="#191970" points="1665.9893,-135.4725 1675.654,-131.1315 1665.3917,-128.498 1665.9893,-135.4725"/>
</g>
<!-- Node31 -->
<g id="node18" class="node">
<title>Node31</title>
<g id="a_node18"><a xlink:href="stringboxing_8hpp.html" target="_top" xlink:title="alib/strings/boxing/stringboxing.hpp">
<polygon fill="#ffffff" stroke="#000000" points="1856,-112.5 1856,-131.5 2026,-131.5 2026,-112.5 1856,-112.5"/>
<text text-anchor="middle" x="1941" y="-119.5" font-family="Helvetica,sans-Serif" font-size="10.00" fill="#000000">alib/strings/boxing/stringboxing.hpp</text>
</a>
</g>
</g>
<!-- Node0&#45;&gt;Node31 -->
<g id="edge17" class="edge">
<title>Node0&#45;&gt;Node31</title>
<path fill="none" stroke="#191970" d="M953.2507,-177.2548C1060.0122,-173.9955 1485.0505,-159.929 1845.8468,-132.0487"/>
<polygon fill="#191970" stroke="#191970" points="1846.2668,-135.5267 1855.9653,-131.2618 1845.724,-128.5477 1846.2668,-135.5267"/>
</g>
<!-- Node32 -->
<g id="node19" class="node">
<title>Node32</title>
<g id="a_node19"><a xlink:href="report_8hpp.html" target="_top" xlink:title="alib/lang/report.hpp">
<polygon fill="#ffffff" stroke="#000000" points="2044.5,-112.5 2044.5,-131.5 2143.5,-131.5 2143.5,-112.5 2044.5,-112.5"/>
<text text-anchor="middle" x="2094" y="-119.5" font-family="Helvetica,sans-Serif" font-size="10.00" fill="#000000">alib/lang/report.hpp</text>
</a>
</g>
</g>
<!-- Node0&#45;&gt;Node32 -->
<g id="edge18" class="edge">
<title>Node0&#45;&gt;Node32</title>
<path fill="none" stroke="#191970" d="M953.1288,-177.3884C1094.7205,-173.8776 1794.7794,-155.6476 2034.4486,-131.8858"/>
<polygon fill="#191970" stroke="#191970" points="2034.8963,-135.3584 2044.4881,-130.8585 2034.1837,-128.3947 2034.8963,-135.3584"/>
</g>
<!-- Node34 -->
<g id="node20" class="node">
<title>Node34</title>
<g id="a_node20"><a xlink:href="applicables_8hpp.html" target="_top" xlink:title="alib/strings/applicables.hpp">
<polygon fill="#ffffff" stroke="#000000" points="2162,-112.5 2162,-131.5 2296,-131.5 2296,-112.5 2162,-112.5"/>
<text text-anchor="middle" x="2229" y="-119.5" font-family="Helvetica,sans-Serif" font-size="10.00" fill="#000000">alib/strings/applicables.hpp</text>
</a>
</g>
</g>
<!-- Node0&#45;&gt;Node34 -->
<g id="edge19" class="edge">
<title>Node0&#45;&gt;Node34</title>
<path fill="none" stroke="#191970" d="M953.0656,-177.9266C1079.8793,-177.3753 1663.545,-172.6851 2151.8311,-132.0189"/>
<polygon fill="#191970" stroke="#191970" points="2152.2277,-135.4981 2161.9,-131.1741 2151.6423,-128.5226 2152.2277,-135.4981"/>
</g>
<!-- Node7 -->
<g id="node21" class="node">
<title>Node7</title>
<polygon fill="#ffffff" stroke="#bfbfbf" points="38.5,-56.5 38.5,-75.5 89.5,-75.5 89.5,-56.5 38.5,-56.5"/>
<text text-anchor="middle" x="64" y="-63.5" font-family="Helvetica,sans-Serif" font-size="10.00" fill="#000000">typeinfo</text>
</g>
<!-- Node6&#45;&gt;Node7 -->
<g id="edge20" class="edge">
<title>Node6&#45;&gt;Node7</title>
<path fill="none" stroke="#191970" d="M485.923,-113.3883C482.9086,-112.8866 479.9121,-112.4173 477,-112 312.78,-88.4649 265.9642,-107.2528 99.9291,-76.0842"/>
<polygon fill="#191970" stroke="#191970" points="100.3421,-72.5999 89.8629,-74.1614 99.0286,-79.4756 100.3421,-72.5999"/>
</g>
<!-- Node8 -->
<g id="node22" class="node">
<title>Node8</title>
<polygon fill="#ffffff" stroke="#bfbfbf" points="107.5,-56.5 107.5,-75.5 166.5,-75.5 166.5,-56.5 107.5,-56.5"/>
<text text-anchor="middle" x="137" y="-63.5" font-family="Helvetica,sans-Serif" font-size="10.00" fill="#000000">functional</text>
</g>
<!-- Node6&#45;&gt;Node8 -->
<g id="edge21" class="edge">
<title>Node6&#45;&gt;Node8</title>
<path fill="none" stroke="#191970" d="M485.9111,-113.4683C482.8995,-112.9476 479.9069,-112.4522 477,-112 346.6947,-91.7305 309.5899,-100.7892 176.9239,-76.1675"/>
<polygon fill="#191970" stroke="#191970" points="177.2569,-72.6687 166.7815,-74.2548 175.9596,-79.5474 177.2569,-72.6687"/>
</g>
<!-- Node9 -->
<g id="node23" class="node">
<title>Node9</title>
<polygon fill="#ffffff" stroke="#bfbfbf" points="184.5,-56.5 184.5,-75.5 267.5,-75.5 267.5,-56.5 184.5,-56.5"/>
<text text-anchor="middle" x="226" y="-63.5" font-family="Helvetica,sans-Serif" font-size="10.00" fill="#000000">unordered_map</text>
</g>
<!-- Node6&#45;&gt;Node9 -->
<g id="edge22" class="edge">
<title>Node6&#45;&gt;Node9</title>
<path fill="none" stroke="#191970" d="M485.8778,-113.6634C482.8742,-113.0962 479.8924,-112.5371 477,-112 390.9076,-96.0128 366.8391,-93.0954 277.7349,-76.3034"/>
<polygon fill="#191970" stroke="#191970" points="278.2059,-72.8305 267.7296,-74.4113 276.9051,-79.7086 278.2059,-72.8305"/>
</g>
<!-- Node11 -->
<g id="node24" class="node">
<title>Node11</title>
<polygon fill="#ffffff" stroke="#bfbfbf" points="656,-.5 656,-19.5 700,-19.5 700,-.5 656,-.5"/>
<text text-anchor="middle" x="678" y="-7.5" font-family="Helvetica,sans-Serif" font-size="10.00" fill="#000000">vector</text>
</g>
<!-- Node10&#45;&gt;Node11 -->
<g id="edge23" class="edge">
<title>Node10&#45;&gt;Node11</title>
<path fill="none" stroke="#191970" d="M398.6179,-56.5637C469.5731,-44.7378 588.7733,-24.8711 645.7613,-15.3731"/>
<polygon fill="#191970" stroke="#191970" points="646.3641,-18.821 655.6526,-13.7246 645.2132,-11.9163 646.3641,-18.821"/>
</g>
<!-- Node14 -->
<g id="node25" class="node">
<title>Node14</title>
<polygon fill="#ffffff" stroke="#bfbfbf" points="416.5,-56.5 416.5,-75.5 465.5,-75.5 465.5,-56.5 416.5,-56.5"/>
<text text-anchor="middle" x="441" y="-63.5" font-family="Helvetica,sans-Serif" font-size="10.00" fill="#000000">string.h</text>
</g>
<!-- Node13&#45;&gt;Node14 -->
<g id="edge24" class="edge">
<title>Node13&#45;&gt;Node14</title>
<path fill="none" stroke="#191970" d="M744.4814,-113.388C741.2743,-112.9145 738.0967,-112.449 735,-112 622.7059,-95.7193 590.7821,-100.2546 475.6813,-75.874"/>
<polygon fill="#191970" stroke="#191970" points="476.2849,-72.424 465.7731,-73.7482 474.8163,-79.2682 476.2849,-72.424"/>
</g>
<!-- Node15 -->
<g id="node26" class="node">
<title>Node15</title>
<g id="a_node26"><a xlink:href="interface_8hpp.html" target="_top" xlink:title="alib/boxing/interface.hpp">
<polygon fill="#ffffff" stroke="#000000" points="484,-56.5 484,-75.5 606,-75.5 606,-56.5 484,-56.5"/>
<text text-anchor="middle" x="545" y="-63.5" font-family="Helvetica,sans-Serif" font-size="10.00" fill="#000000">alib/boxing/interface.hpp</text>
</a>
</g>
</g>
<!-- Node13&#45;&gt;Node15 -->
<g id="edge25" class="edge">
<title>Node13&#45;&gt;Node15</title>
<path fill="none" stroke="#191970" d="M757.2829,-112.4369C713.3784,-102.8328 645.6587,-88.0191 598.555,-77.7152"/>
<polygon fill="#191970" stroke="#191970" points="599.0537,-74.2416 588.5368,-75.5237 597.5578,-81.0799 599.0537,-74.2416"/>
</g>
<!-- Node16 -->
<g id="node27" class="node">
<title>Node16</title>
<g id="a_node27"><a xlink:href="boxer_8hpp.html" target="_top" xlink:title="alib/boxing/boxer.hpp">
<polygon fill="#ffffff" stroke="#000000" points="624,-56.5 624,-75.5 732,-75.5 732,-56.5 624,-56.5"/>
<text text-anchor="middle" x="678" y="-63.5" font-family="Helvetica,sans-Serif" font-size="10.00" fill="#000000">alib/boxing/boxer.hpp</text>
</a>
</g>
</g>
<!-- Node13&#45;&gt;Node16 -->
<g id="edge26" class="edge">
<title>Node13&#45;&gt;Node16</title>
<path fill="none" stroke="#191970" d="M774.6135,-112.3733C753.3031,-103.4644 723.7448,-90.1127 702.8562,-80.0203"/>
<polygon fill="#191970" stroke="#191970" points="704.1703,-76.7664 693.6512,-75.5011 701.0853,-83.05 704.1703,-76.7664"/>
</g>
<!-- Node17 -->
<g id="node28" class="node">
<title>Node17</title>
<g id="a_node28"><a xlink:href="box_8hpp.html" target="_top" xlink:title="alib/boxing/box.hpp">
<polygon fill="#ffffff" stroke="#000000" points="750.5,-56.5 750.5,-75.5 851.5,-75.5 851.5,-56.5 750.5,-56.5"/>
<text text-anchor="middle" x="801" y="-63.5" font-family="Helvetica,sans-Serif" font-size="10.00" fill="#000000">alib/boxing/box.hpp</text>
</a>
</g>
</g>
<!-- Node13&#45;&gt;Node17 -->
<g id="edge27" class="edge">
<title>Node13&#45;&gt;Node17</title>
<path fill="none" stroke="#191970" d="M795.7332,-112.2455C794.3221,-104.9382 793.9179,-94.6944 794.5205,-85.7046"/>
<polygon fill="#191970" stroke="#191970" points="798.0111,-85.9945 795.7549,-75.6427 791.0632,-85.1421 798.0111,-85.9945"/>
</g>
<!-- Node18 -->
<g id="node29" class="node">
<title>Node18</title>
<g id="a_node29"><a xlink:href="boxes_8hpp.html" target="_top" xlink:title="alib/boxing/boxes.hpp">
<polygon fill="#ffffff" stroke="#000000" points="869.5,-56.5 869.5,-75.5 980.5,-75.5 980.5,-56.5 869.5,-56.5"/>
<text text-anchor="middle" x="925" y="-63.5" font-family="Helvetica,sans-Serif" font-size="10.00" fill="#000000">alib/boxing/boxes.hpp</text>
</a>
</g>
</g>
<!-- Node13&#45;&gt;Node18 -->
<g id="edge28" class="edge">
<title>Node13&#45;&gt;Node18</title>
<path fill="none" stroke="#191970" d="M817.0743,-112.3733C835.3837,-103.3032 865.4562,-89.6279 889.2938,-79.4755"/>
<polygon fill="#191970" stroke="#191970" points="890.8833,-82.6041 898.7445,-75.5011 888.1696,-76.1514 890.8833,-82.6041"/>
</g>
<!-- Node19 -->
<g id="node30" class="node">
<title>Node19</title>
<g id="a_node30"><a xlink:href="interface__builtin_8hpp.html" target="_top" xlink:title="alib/boxing/interface_builtin.hpp">
<polygon fill="#ffffff" stroke="#000000" points="998.5,-56.5 998.5,-75.5 1151.5,-75.5 1151.5,-56.5 998.5,-56.5"/>
<text text-anchor="middle" x="1075" y="-63.5" font-family="Helvetica,sans-Serif" font-size="10.00" fill="#000000">alib/boxing/interface_builtin.hpp</text>
</a>
</g>
</g>
<!-- Node13&#45;&gt;Node19 -->
<g id="edge29" class="edge">
<title>Node13&#45;&gt;Node19</title>
<path fill="none" stroke="#191970" d="M847.791,-112.4369C894.9795,-102.7925 967.872,-87.8948 1018.3124,-77.5858"/>
<polygon fill="#191970" stroke="#191970" points="1019.3054,-80.9553 1028.402,-75.5237 1017.9037,-74.097 1019.3054,-80.9553"/>
</g>
<!-- Node20 -->
<g id="node31" class="node">
<title>Node20</title>
<g id="a_node31"><a xlink:href="ftypes_8hpp.html" target="_top" xlink:title="alib/boxing/ftypes.hpp">
<polygon fill="#ffffff" stroke="#000000" points="1170,-56.5 1170,-75.5 1282,-75.5 1282,-56.5 1170,-56.5"/>
<text text-anchor="middle" x="1226" y="-63.5" font-family="Helvetica,sans-Serif" font-size="10.00" fill="#000000">alib/boxing/ftypes.hpp</text>
</a>
</g>
</g>
<!-- Node13&#45;&gt;Node20 -->
<g id="edge30" class="edge">
<title>Node13&#45;&gt;Node20</title>
<path fill="none" stroke="#191970" d="M854.5256,-112.4809C855.6927,-112.3179 856.8518,-112.1575 858,-112 987.9844,-94.1709 1021.0156,-93.8291 1151,-76 1153.8525,-75.6087 1156.7729,-75.1993 1159.7294,-74.7787"/>
<polygon fill="#191970" stroke="#191970" points="1160.4757,-78.2074 1169.8744,-73.3171 1159.4775,-71.279 1160.4757,-78.2074"/>
</g>
<!-- Node23 -->
<g id="node32" class="node">
<title>Node23</title>
<polygon fill="#ffffff" stroke="#bfbfbf" points="1300,-56.5 1300,-75.5 1346,-75.5 1346,-56.5 1300,-56.5"/>
<text text-anchor="middle" x="1323" y="-63.5" font-family="Helvetica,sans-Serif" font-size="10.00" fill="#000000">cstring</text>
</g>
<!-- Node22&#45;&gt;Node23 -->
<g id="edge37" class="edge">
<title>Node22&#45;&gt;Node23</title>
<path fill="none" stroke="#191970" d="M1113.8553,-112.4976C1159.3294,-104.6149 1224.42,-92.4227 1289.6254,-76.154"/>
<polygon fill="#191970" stroke="#191970" points="1290.8281,-79.4602 1299.6655,-73.6164 1289.1127,-72.6736 1290.8281,-79.4602"/>
</g>
<!-- Node24 -->
<g id="node33" class="node">
<title>Node24</title>
<polygon fill="#ffffff" stroke="#bfbfbf" points="1364,-56.5 1364,-75.5 1404,-75.5 1404,-56.5 1364,-56.5"/>
<text text-anchor="middle" x="1384" y="-63.5" font-family="Helvetica,sans-Serif" font-size="10.00" fill="#000000">limits</text>
</g>
<!-- Node22&#45;&gt;Node24 -->
<g id="edge38" class="edge">
<title>Node22&#45;&gt;Node24</title>
<path fill="none" stroke="#191970" d="M1113.5995,-113.41C1188.6824,-102.1774 1314.344,-83.246 1353.9298,-75.5972"/>
<polygon fill="#191970" stroke="#191970" points="1354.8161,-78.9867 1363.8572,-73.4633 1353.345,-72.1431 1354.8161,-78.9867"/>
</g>
<!-- Node29 -->
<g id="node34" class="node">
<title>Node29</title>
<polygon fill="#ffffff" stroke="#bfbfbf" points="1576,-56.5 1576,-75.5 1624,-75.5 1624,-56.5 1576,-56.5"/>
<text text-anchor="middle" x="1600" y="-63.5" font-family="Helvetica,sans-Serif" font-size="10.00" fill="#000000">stdlib.h</text>
</g>
<!-- Node28&#45;&gt;Node29 -->
<g id="edge39" class="edge">
<title>Node28&#45;&gt;Node29</title>
<path fill="none" stroke="#191970" d="M1600,-112.2455C1600,-104.9382 1600,-94.6944 1600,-85.7046"/>
<polygon fill="#191970" stroke="#191970" points="1603.5001,-85.6426 1600,-75.6427 1596.5001,-85.6427 1603.5001,-85.6426"/>
</g>
<!-- Node33 -->
<g id="node35" class="node">
<title>Node33</title>
<polygon fill="#ffffff" stroke="#bfbfbf" points="2073.5,-56.5 2073.5,-75.5 2114.5,-75.5 2114.5,-56.5 2073.5,-56.5"/>
<text text-anchor="middle" x="2094" y="-63.5" font-family="Helvetica,sans-Serif" font-size="10.00" fill="#000000">stack</text>
</g>
<!-- Node32&#45;&gt;Node33 -->
<g id="edge40" class="edge">
<title>Node32&#45;&gt;Node33</title>
<path fill="none" stroke="#191970" d="M2094,-112.2455C2094,-104.9382 2094,-94.6944 2094,-85.7046"/>
<polygon fill="#191970" stroke="#191970" points="2097.5001,-85.6426 2094,-75.6427 2090.5001,-85.6427 2097.5001,-85.6426"/>
</g>
<!-- Node16&#45;&gt;Node13 -->
<g id="edge32" class="edge">
<title>Node16&#45;&gt;Node13</title>
<path fill="none" stroke="#191970" d="M704.0858,-75.5011C725.3182,-84.3679 754.8781,-97.7139 775.848,-107.8368"/>
<polygon fill="#191970" stroke="#191970" points="774.578,-111.1122 785.0976,-112.3733 777.6605,-104.8274 774.578,-111.1122"/>
</g>
<!-- Node16&#45;&gt;Node11 -->
<g id="edge31" class="edge">
<title>Node16&#45;&gt;Node11</title>
<path fill="none" stroke="#191970" d="M678,-56.2455C678,-48.9382 678,-38.6944 678,-29.7046"/>
<polygon fill="#191970" stroke="#191970" points="681.5001,-29.6426 678,-19.6427 674.5001,-29.6427 681.5001,-29.6426"/>
</g>
<!-- Node17&#45;&gt;Node13 -->
<g id="edge33" class="edge">
<title>Node17&#45;&gt;Node13</title>
<path fill="none" stroke="#191970" d="M806.2451,-75.6427C807.6665,-82.9199 808.081,-93.155 807.4887,-102.1575"/>
<polygon fill="#191970" stroke="#191970" points="803.9947,-101.8972 806.2668,-112.2455 810.9439,-102.739 803.9947,-101.8972"/>
</g>
<!-- Node18&#45;&gt;Node13 -->
<g id="edge35" class="edge">
<title>Node18&#45;&gt;Node13</title>
<path fill="none" stroke="#191970" d="M909.1791,-75.5011C890.979,-84.5284 860.9324,-98.1985 837.0375,-108.3833"/>
<polygon fill="#191970" stroke="#191970" points="835.4173,-105.2678 827.5584,-112.3733 838.133,-111.7195 835.4173,-105.2678"/>
</g>
<!-- Node18&#45;&gt;Node11 -->
<g id="edge34" class="edge">
<title>Node18&#45;&gt;Node11</title>
<path fill="none" stroke="#191970" d="M882.8198,-56.4369C833.8371,-45.3315 754.1312,-27.2605 709.9812,-17.2508"/>
<polygon fill="#191970" stroke="#191970" points="710.609,-13.8044 700.0825,-15.0066 709.0611,-20.6311 710.609,-13.8044"/>
</g>
<!-- Node20&#45;&gt;Node13 -->
<g id="edge36" class="edge">
<title>Node20&#45;&gt;Node13</title>
<path fill="none" stroke="#191970" d="M1172.4744,-75.5191C1171.3073,-75.6821 1170.1482,-75.8425 1169,-76 1039.0156,-93.8291 1005.9844,-94.1709 876,-112 873.3467,-112.3639 870.6346,-112.7437 867.8893,-113.1333"/>
<polygon fill="#191970" stroke="#191970" points="867.2492,-109.6893 857.8495,-114.5776 868.246,-116.618 867.2492,-109.6893"/>
</g>
</g>
</svg>
