<?xml version="1.0" encoding="UTF-8" standalone="no"?>
<!DOCTYPE svg PUBLIC "-//W3C//DTD SVG 1.1//EN"
 "http://www.w3.org/Graphics/SVG/1.1/DTD/svg11.dtd">
<!-- Generated by graphviz version 2.38.0 (20140413.2041)
 -->
<!-- Title: alox_console_loggers.hpp Pages: 1 -->
<svg width="1497pt" height="554pt"
 viewBox="0.00 0.00 1496.50 554.00" xmlns="http://www.w3.org/2000/svg" xmlns:xlink="http://www.w3.org/1999/xlink">
<g id="graph0" class="graph" transform="scale(1 1) rotate(0) translate(4 550)">
<title>alox_console_loggers.hpp</title>
<polygon fill="white" stroke="none" points="-4,4 -4,-550 1492.5,-550 1492.5,4 -4,4"/>
<!-- Node1 -->
<g id="node1" class="node"><title>Node1</title>
<polygon fill="#bfbfbf" stroke="black" points="1074.5,-526.5 1074.5,-545.5 1203.5,-545.5 1203.5,-526.5 1074.5,-526.5"/>
<text text-anchor="middle" x="1139" y="-533.5" font-family="Helvetica,sans-Serif" font-size="10.00">alox_console_loggers.hpp</text>
</g>
<!-- Node2 -->
<g id="node2" class="node"><title>Node2</title>
<g id="a_node2"><a xlink:href="alox_8hpp.html" target="_top" xlink:title="alox/alox.hpp">
<polygon fill="white" stroke="black" points="1051,-280.5 1051,-299.5 1125,-299.5 1125,-280.5 1051,-280.5"/>
<text text-anchor="middle" x="1088" y="-287.5" font-family="Helvetica,sans-Serif" font-size="10.00">alox/alox.hpp</text>
</a>
</g>
</g>
<!-- Node1&#45;&gt;Node2 -->
<g id="edge1" class="edge"><title>Node1&#45;&gt;Node2</title>
<path fill="none" stroke="midnightblue" d="M1074.48,-532.661C1007.61,-528.719 909.601,-518.17 886,-490 821.986,-413.595 985.596,-333.565 1056.81,-303.44"/>
<polygon fill="midnightblue" stroke="midnightblue" points="1058.32,-306.6 1066.21,-299.526 1055.63,-300.138 1058.32,-306.6"/>
</g>
<!-- Node28 -->
<g id="node28" class="node"><title>Node28</title>
<g id="a_node28"><a xlink:href="consolelogger_8hpp.html" target="_top" xlink:title="alox/loggers/consolelogger.hpp">
<polygon fill="white" stroke="black" points="895.5,-470.5 895.5,-489.5 1046.5,-489.5 1046.5,-470.5 895.5,-470.5"/>
<text text-anchor="middle" x="971" y="-477.5" font-family="Helvetica,sans-Serif" font-size="10.00">alox/loggers/consolelogger.hpp</text>
</a>
</g>
</g>
<!-- Node1&#45;&gt;Node28 -->
<g id="edge38" class="edge"><title>Node1&#45;&gt;Node28</title>
<path fill="none" stroke="midnightblue" d="M1112.38,-526.444C1083.99,-517.32 1038.86,-502.813 1007.25,-492.651"/>
<polygon fill="midnightblue" stroke="midnightblue" points="1008.09,-489.244 997.496,-489.516 1005.94,-495.909 1008.09,-489.244"/>
</g>
<!-- Node31 -->
<g id="node31" class="node"><title>Node31</title>
<g id="a_node31"><a xlink:href="ansilogger_8hpp.html" target="_top" xlink:title="alox/loggers/ansilogger.hpp">
<polygon fill="white" stroke="black" points="1353.5,-409 1353.5,-428 1488.5,-428 1488.5,-409 1353.5,-409"/>
<text text-anchor="middle" x="1421" y="-416" font-family="Helvetica,sans-Serif" font-size="10.00">alox/loggers/ansilogger.hpp</text>
</a>
</g>
</g>
<!-- Node1&#45;&gt;Node31 -->
<g id="edge44" class="edge"><title>Node1&#45;&gt;Node31</title>
<path fill="none" stroke="midnightblue" d="M1160.2,-526.319C1209.72,-506.035 1333.17,-455.473 1390.66,-431.928"/>
<polygon fill="midnightblue" stroke="midnightblue" points="1392.02,-435.154 1399.94,-428.124 1389.36,-428.676 1392.02,-435.154"/>
</g>
<!-- Node32 -->
<g id="node32" class="node"><title>Node32</title>
<g id="a_node32"><a xlink:href="vstudiologger_8hpp.html" target="_top" xlink:title="alox/loggers/vstudiologger.hpp">
<polygon fill="white" stroke="black" points="1064.5,-470.5 1064.5,-489.5 1213.5,-489.5 1213.5,-470.5 1064.5,-470.5"/>
<text text-anchor="middle" x="1139" y="-477.5" font-family="Helvetica,sans-Serif" font-size="10.00">alox/loggers/vstudiologger.hpp</text>
</a>
</g>
</g>
<!-- Node1&#45;&gt;Node32 -->
<g id="edge48" class="edge"><title>Node1&#45;&gt;Node32</title>
<path fill="none" stroke="midnightblue" d="M1139,-526.083C1139,-519.006 1139,-508.861 1139,-499.986"/>
<polygon fill="midnightblue" stroke="midnightblue" points="1142.5,-499.751 1139,-489.751 1135.5,-499.751 1142.5,-499.751"/>
</g>
<!-- Node33 -->
<g id="node33" class="node"><title>Node33</title>
<g id="a_node33"><a xlink:href="windowsconsolelogger_8hpp.html" target="_top" xlink:title="alox/loggers/windowsconsolelogger.hpp">
<polygon fill="white" stroke="black" points="1146.5,-409 1146.5,-428 1335.5,-428 1335.5,-409 1146.5,-409"/>
<text text-anchor="middle" x="1241" y="-416" font-family="Helvetica,sans-Serif" font-size="10.00">alox/loggers/windowsconsolelogger.hpp</text>
</a>
</g>
</g>
<!-- Node1&#45;&gt;Node33 -->
<g id="edge51" class="edge"><title>Node1&#45;&gt;Node33</title>
<path fill="none" stroke="midnightblue" d="M1166.71,-526.445C1184.95,-519.439 1207.98,-507.749 1222,-490 1233.65,-475.257 1238.18,-453.953 1239.93,-438.627"/>
<polygon fill="midnightblue" stroke="midnightblue" points="1243.45,-438.538 1240.79,-428.281 1236.47,-437.953 1243.45,-438.538"/>
</g>
<!-- Node3 -->
<g id="node3" class="node"><title>Node3</title>
<g id="a_node3"><a xlink:href="alib_8hpp.html" target="_top" xlink:title="alib/alib.hpp">
<polygon fill="white" stroke="black" points="682,-112.5 682,-131.5 750,-131.5 750,-112.5 682,-112.5"/>
<text text-anchor="middle" x="716" y="-119.5" font-family="Helvetica,sans-Serif" font-size="10.00">alib/alib.hpp</text>
</a>
</g>
</g>
<!-- Node2&#45;&gt;Node3 -->
<g id="edge2" class="edge"><title>Node2&#45;&gt;Node3</title>
<path fill="none" stroke="midnightblue" d="M1050.77,-289.664C969.365,-290.291 779.258,-286.995 735,-244 707.508,-217.293 709.311,-168.208 712.785,-141.498"/>
<polygon fill="midnightblue" stroke="midnightblue" points="716.254,-141.963 714.296,-131.551 709.334,-140.912 716.254,-141.963"/>
</g>
<!-- Node19 -->
<g id="node19" class="node"><title>Node19</title>
<g id="a_node19"><a xlink:href="alox__symbols_8hpp.html" target="_top" xlink:title="internals/alox_symbols.hpp">
<polygon fill="white" stroke="black" points="744.5,-224.5 744.5,-243.5 879.5,-243.5 879.5,-224.5 744.5,-224.5"/>
<text text-anchor="middle" x="812" y="-231.5" font-family="Helvetica,sans-Serif" font-size="10.00">internals/alox_symbols.hpp</text>
</a>
</g>
</g>
<!-- Node2&#45;&gt;Node19 -->
<g id="edge24" class="edge"><title>Node2&#45;&gt;Node19</title>
<path fill="none" stroke="midnightblue" d="M1050.78,-281.717C1003.13,-272.394 920.228,-256.175 865.734,-245.513"/>
<polygon fill="midnightblue" stroke="midnightblue" points="866.391,-242.075 855.905,-243.59 865.046,-248.945 866.391,-242.075"/>
</g>
<!-- Node20 -->
<g id="node20" class="node"><title>Node20</title>
<g id="a_node20"><a xlink:href="alox__macros_8hpp.html" target="_top" xlink:title="internals/alox_macros.hpp">
<polygon fill="white" stroke="black" points="897.5,-224.5 897.5,-243.5 1028.5,-243.5 1028.5,-224.5 897.5,-224.5"/>
<text text-anchor="middle" x="963" y="-231.5" font-family="Helvetica,sans-Serif" font-size="10.00">internals/alox_macros.hpp</text>
</a>
</g>
</g>
<!-- Node2&#45;&gt;Node20 -->
<g id="edge25" class="edge"><title>Node2&#45;&gt;Node20</title>
<path fill="none" stroke="midnightblue" d="M1068.19,-280.444C1047.71,-271.596 1015.52,-257.687 992.135,-247.586"/>
<polygon fill="midnightblue" stroke="midnightblue" points="993.282,-244.269 982.714,-243.516 990.506,-250.695 993.282,-244.269"/>
</g>
<!-- Node21 -->
<g id="node21" class="node"><title>Node21</title>
<g id="a_node21"><a xlink:href="log_8hpp.html" target="_top" xlink:title="log.hpp">
<polygon fill="white" stroke="black" points="1047,-224.5 1047,-243.5 1095,-243.5 1095,-224.5 1047,-224.5"/>
<text text-anchor="middle" x="1071" y="-231.5" font-family="Helvetica,sans-Serif" font-size="10.00">log.hpp</text>
</a>
</g>
</g>
<!-- Node2&#45;&gt;Node21 -->
<g id="edge26" class="edge"><title>Node2&#45;&gt;Node21</title>
<path fill="none" stroke="midnightblue" d="M1085.19,-280.083C1082.92,-272.849 1079.63,-262.409 1076.79,-253.397"/>
<polygon fill="midnightblue" stroke="midnightblue" points="1080.1,-252.239 1073.75,-243.751 1073.42,-254.341 1080.1,-252.239"/>
</g>
<!-- Node22 -->
<g id="node22" class="node"><title>Node22</title>
<g id="a_node22"><a xlink:href="lox_8hpp.html" target="_top" xlink:title="lox.hpp">
<polygon fill="white" stroke="black" points="1151,-224.5 1151,-243.5 1199,-243.5 1199,-224.5 1151,-224.5"/>
<text text-anchor="middle" x="1175" y="-231.5" font-family="Helvetica,sans-Serif" font-size="10.00">lox.hpp</text>
</a>
</g>
</g>
<!-- Node2&#45;&gt;Node22 -->
<g id="edge27" class="edge"><title>Node2&#45;&gt;Node22</title>
<path fill="none" stroke="midnightblue" d="M1101.98,-280.324C1115.55,-271.9 1136.38,-258.971 1152.32,-249.074"/>
<polygon fill="midnightblue" stroke="midnightblue" points="1154.41,-251.902 1161.06,-243.655 1150.71,-245.954 1154.41,-251.902"/>
</g>
<!-- Node4 -->
<g id="node4" class="node"><title>Node4</title>
<g id="a_node4"><a xlink:href="symbols_8hpp.html" target="_top" xlink:title="alib/core/symbols.hpp">
<polygon fill="white" stroke="black" points="1327,-56.5 1327,-75.5 1439,-75.5 1439,-56.5 1327,-56.5"/>
<text text-anchor="middle" x="1383" y="-63.5" font-family="Helvetica,sans-Serif" font-size="10.00">alib/core/symbols.hpp</text>
</a>
</g>
</g>
<!-- Node3&#45;&gt;Node4 -->
<g id="edge3" class="edge"><title>Node3&#45;&gt;Node4</title>
<path fill="none" stroke="midnightblue" d="M750.012,-119.21C840.425,-114.293 1094.43,-99.4339 1316.44,-76.1042"/>
<polygon fill="midnightblue" stroke="midnightblue" points="1317.08,-79.5563 1326.66,-75.0225 1316.34,-72.5953 1317.08,-79.5563"/>
</g>
<!-- Node5 -->
<g id="node5" class="node"><title>Node5</title>
<g id="a_node5"><a xlink:href="macros_8hpp.html" target="_top" xlink:title="alib/core/macros.hpp">
<polygon fill="white" stroke="black" points="114.5,-56.5 114.5,-75.5 221.5,-75.5 221.5,-56.5 114.5,-56.5"/>
<text text-anchor="middle" x="168" y="-63.5" font-family="Helvetica,sans-Serif" font-size="10.00">alib/core/macros.hpp</text>
</a>
</g>
</g>
<!-- Node3&#45;&gt;Node5 -->
<g id="edge4" class="edge"><title>Node3&#45;&gt;Node5</title>
<path fill="none" stroke="midnightblue" d="M681.835,-118.414C603.993,-112.396 407.286,-96.4817 231.537,-76.0059"/>
<polygon fill="midnightblue" stroke="midnightblue" points="231.932,-72.5283 221.593,-74.8397 231.117,-79.4807 231.932,-72.5283"/>
</g>
<!-- Node6 -->
<g id="node6" class="node"><title>Node6</title>
<polygon fill="white" stroke="#bfbfbf" points="240,-56.5 240,-75.5 292,-75.5 292,-56.5 240,-56.5"/>
<text text-anchor="middle" x="266" y="-63.5" font-family="Helvetica,sans-Serif" font-size="10.00">assert.h</text>
</g>
<!-- Node3&#45;&gt;Node6 -->
<g id="edge5" class="edge"><title>Node3&#45;&gt;Node6</title>
<path fill="none" stroke="midnightblue" d="M681.872,-118.966C612.237,-114.458 448.674,-102.048 302.342,-76.0072"/>
<polygon fill="midnightblue" stroke="midnightblue" points="302.747,-72.5237 292.284,-74.1905 301.502,-79.4122 302.747,-72.5237"/>
</g>
<!-- Node7 -->
<g id="node7" class="node"><title>Node7</title>
<polygon fill="white" stroke="#bfbfbf" points="310.5,-56.5 310.5,-75.5 359.5,-75.5 359.5,-56.5 310.5,-56.5"/>
<text text-anchor="middle" x="335" y="-63.5" font-family="Helvetica,sans-Serif" font-size="10.00">cstddef</text>
</g>
<!-- Node3&#45;&gt;Node7 -->
<g id="edge6" class="edge"><title>Node3&#45;&gt;Node7</title>
<path fill="none" stroke="midnightblue" d="M681.662,-118.14C620.651,-112.719 489.242,-99.5117 369.82,-76.1458"/>
<polygon fill="midnightblue" stroke="midnightblue" points="370.269,-72.6666 359.779,-74.151 368.905,-79.5325 370.269,-72.6666"/>
</g>
<!-- Node8 -->
<g id="node8" class="node"><title>Node8</title>
<polygon fill="white" stroke="#bfbfbf" points="377.5,-56.5 377.5,-75.5 440.5,-75.5 440.5,-56.5 377.5,-56.5"/>
<text text-anchor="middle" x="409" y="-63.5" font-family="Helvetica,sans-Serif" font-size="10.00">windows.h</text>
</g>
<!-- Node3&#45;&gt;Node8 -->
<g id="edge7" class="edge"><title>Node3&#45;&gt;Node8</title>
<path fill="none" stroke="midnightblue" d="M681.752,-115.838C632.682,-108.309 539.317,-93.4908 450.778,-76.2747"/>
<polygon fill="midnightblue" stroke="midnightblue" points="451.33,-72.8164 440.844,-74.3287 449.984,-79.6858 451.33,-72.8164"/>
</g>
<!-- Node9 -->
<g id="node9" class="node"><title>Node9</title>
<polygon fill="white" stroke="#bfbfbf" points="458.5,-56.5 458.5,-75.5 507.5,-75.5 507.5,-56.5 458.5,-56.5"/>
<text text-anchor="middle" x="483" y="-63.5" font-family="Helvetica,sans-Serif" font-size="10.00">stdint.h</text>
</g>
<!-- Node3&#45;&gt;Node9 -->
<g id="edge8" class="edge"><title>Node3&#45;&gt;Node9</title>
<path fill="none" stroke="midnightblue" d="M681.755,-113.653C643.972,-105.459 581.138,-91.5767 517.637,-76.0884"/>
<polygon fill="midnightblue" stroke="midnightblue" points="518.401,-72.6722 507.856,-73.691 516.735,-79.471 518.401,-72.6722"/>
</g>
<!-- Node10 -->
<g id="node10" class="node"><title>Node10</title>
<polygon fill="white" stroke="#bfbfbf" points="526,-56.5 526,-75.5 588,-75.5 588,-56.5 526,-56.5"/>
<text text-anchor="middle" x="557" y="-63.5" font-family="Helvetica,sans-Serif" font-size="10.00">type_traits</text>
</g>
<!-- Node3&#45;&gt;Node10 -->
<g id="edge9" class="edge"><title>Node3&#45;&gt;Node10</title>
<path fill="none" stroke="midnightblue" d="M690.806,-112.444C664.057,-103.359 621.597,-88.9388 591.695,-78.7831"/>
<polygon fill="midnightblue" stroke="midnightblue" points="592.671,-75.4182 582.076,-75.5164 590.419,-82.0464 592.671,-75.4182"/>
</g>
<!-- Node11 -->
<g id="node11" class="node"><title>Node11</title>
<polygon fill="white" stroke="#bfbfbf" points="606,-56.5 606,-75.5 646,-75.5 646,-56.5 606,-56.5"/>
<text text-anchor="middle" x="626" y="-63.5" font-family="Helvetica,sans-Serif" font-size="10.00">utility</text>
</g>
<!-- Node3&#45;&gt;Node11 -->
<g id="edge10" class="edge"><title>Node3&#45;&gt;Node11</title>
<path fill="none" stroke="midnightblue" d="M701.54,-112.324C687.5,-103.9 665.952,-90.9709 649.457,-81.0741"/>
<polygon fill="midnightblue" stroke="midnightblue" points="650.8,-77.7983 640.424,-75.6545 647.198,-83.8007 650.8,-77.7983"/>
</g>
<!-- Node12 -->
<g id="node12" class="node"><title>Node12</title>
<g id="a_node12"><a xlink:href="enums_8hpp.html" target="_top" xlink:title="alib/core/enums.hpp">
<polygon fill="white" stroke="black" points="664,-56.5 664,-75.5 768,-75.5 768,-56.5 664,-56.5"/>
<text text-anchor="middle" x="716" y="-63.5" font-family="Helvetica,sans-Serif" font-size="10.00">alib/core/enums.hpp</text>
</a>
</g>
</g>
<!-- Node3&#45;&gt;Node12 -->
<g id="edge11" class="edge"><title>Node3&#45;&gt;Node12</title>
<path fill="none" stroke="midnightblue" d="M710.834,-112.083C709.324,-104.927 708.894,-94.6353 709.542,-85.6911"/>
<polygon fill="midnightblue" stroke="midnightblue" points="713.015,-86.1262 710.869,-75.7511 706.077,-85.2002 713.015,-86.1262"/>
</g>
<!-- Node13 -->
<g id="node13" class="node"><title>Node13</title>
<g id="a_node13"><a xlink:href="report_8hpp.html" target="_top" xlink:title="alib/core/report.hpp">
<polygon fill="white" stroke="black" points="786,-56.5 786,-75.5 886,-75.5 886,-56.5 786,-56.5"/>
<text text-anchor="middle" x="836" y="-63.5" font-family="Helvetica,sans-Serif" font-size="10.00">alib/core/report.hpp</text>
</a>
</g>
</g>
<!-- Node3&#45;&gt;Node13 -->
<g id="edge13" class="edge"><title>Node3&#45;&gt;Node13</title>
<path fill="none" stroke="midnightblue" d="M730.165,-112.324C747.929,-103.467 778.448,-89.6298 802.252,-79.5731"/>
<polygon fill="midnightblue" stroke="midnightblue" points="803.773,-82.7312 811.658,-75.6545 801.081,-76.2695 803.773,-82.7312"/>
</g>
<!-- Node14 -->
<g id="node14" class="node"><title>Node14</title>
<g id="a_node14"><a xlink:href="cstring_8hpp.html" target="_top" xlink:title="alib/strings/cstring.hpp">
<polygon fill="white" stroke="red" points="904.5,-56.5 904.5,-75.5 1019.5,-75.5 1019.5,-56.5 904.5,-56.5"/>
<text text-anchor="middle" x="962" y="-63.5" font-family="Helvetica,sans-Serif" font-size="10.00">alib/strings/cstring.hpp</text>
</a>
</g>
</g>
<!-- Node3&#45;&gt;Node14 -->
<g id="edge15" class="edge"><title>Node3&#45;&gt;Node14</title>
<path fill="none" stroke="midnightblue" d="M749.891,-112.444C790.824,-103.004 859.941,-87.802 908.167,-77.6111"/>
<polygon fill="midnightblue" stroke="midnightblue" points="909.058,-81.0004 918.123,-75.5164 907.617,-74.1503 909.058,-81.0004"/>
</g>
<!-- Node15 -->
<g id="node15" class="node"><title>Node15</title>
<g id="a_node15"><a xlink:href="as_8hpp.html" target="_top" xlink:title="alib/strings/as.hpp">
<polygon fill="white" stroke="red" points="0,-56.5 0,-75.5 96,-75.5 96,-56.5 0,-56.5"/>
<text text-anchor="middle" x="48" y="-63.5" font-family="Helvetica,sans-Serif" font-size="10.00">alib/strings/as.hpp</text>
</a>
</g>
</g>
<!-- Node3&#45;&gt;Node15 -->
<g id="edge17" class="edge"><title>Node3&#45;&gt;Node15</title>
<path fill="none" stroke="midnightblue" d="M681.704,-119.662C588.91,-115.59 326.005,-102.078 102.04,-76.6696"/>
<polygon fill="midnightblue" stroke="midnightblue" points="102.411,-73.1894 92.078,-75.5286 101.615,-80.1439 102.411,-73.1894"/>
</g>
<!-- Node17 -->
<g id="node17" class="node"><title>Node17</title>
<g id="a_node17"><a xlink:href="ns__aworx_8hpp.html" target="_top" xlink:title="alib/core/ns_aworx.hpp">
<polygon fill="white" stroke="black" points="1037.5,-56.5 1037.5,-75.5 1154.5,-75.5 1154.5,-56.5 1037.5,-56.5"/>
<text text-anchor="middle" x="1096" y="-63.5" font-family="Helvetica,sans-Serif" font-size="10.00">alib/core/ns_aworx.hpp</text>
</a>
</g>
</g>
<!-- Node3&#45;&gt;Node17 -->
<g id="edge20" class="edge"><title>Node3&#45;&gt;Node17</title>
<path fill="none" stroke="midnightblue" d="M750.252,-115.525C812.616,-106.242 945.414,-87.3277 1027.12,-76.0504"/>
<polygon fill="midnightblue" stroke="midnightblue" points="1027.88,-79.4782 1037.31,-74.6467 1026.93,-72.5437 1027.88,-79.4782"/>
</g>
<!-- Node18 -->
<g id="node18" class="node"><title>Node18</title>
<g id="a_node18"><a xlink:href="namespace_8hpp.html" target="_top" xlink:title="alib/strings/namespace.hpp">
<polygon fill="white" stroke="red" points="1173,-56.5 1173,-75.5 1309,-75.5 1309,-56.5 1173,-56.5"/>
<text text-anchor="middle" x="1241" y="-63.5" font-family="Helvetica,sans-Serif" font-size="10.00">alib/strings/namespace.hpp</text>
</a>
</g>
</g>
<!-- Node3&#45;&gt;Node18 -->
<g id="edge22" class="edge"><title>Node3&#45;&gt;Node18</title>
<path fill="none" stroke="midnightblue" d="M750.116,-117.249C823.967,-109.759 1003.37,-92.2716 1154,-76 1156.86,-75.6912 1159.78,-75.3722 1162.73,-75.0467"/>
<polygon fill="midnightblue" stroke="midnightblue" points="1163.31,-78.5038 1172.86,-73.9209 1162.54,-71.5466 1163.31,-78.5038"/>
</g>
<!-- Node12&#45;&gt;Node3 -->
<g id="edge12" class="edge"><title>Node12&#45;&gt;Node3</title>
<path fill="none" stroke="midnightblue" d="M721.131,-75.7511C722.657,-82.8579 723.104,-93.1357 722.472,-102.101"/>
<polygon fill="midnightblue" stroke="midnightblue" points="718.993,-101.713 721.166,-112.083 725.934,-102.622 718.993,-101.713"/>
</g>
<!-- Node13&#45;&gt;Node3 -->
<g id="edge14" class="edge"><title>Node13&#45;&gt;Node3</title>
<path fill="none" stroke="midnightblue" d="M822.155,-75.5164C804.394,-84.388 773.541,-98.3795 749.568,-108.503"/>
<polygon fill="midnightblue" stroke="midnightblue" points="747.99,-105.369 740.103,-112.444 750.68,-111.831 747.99,-105.369"/>
</g>
<!-- Node14&#45;&gt;Node3 -->
<g id="edge16" class="edge"><title>Node14&#45;&gt;Node3</title>
<path fill="none" stroke="midnightblue" d="M927.991,-75.5837C884.194,-85.6826 808.27,-102.348 760.095,-112.438"/>
<polygon fill="midnightblue" stroke="midnightblue" points="759.334,-109.021 750.258,-114.486 760.761,-115.874 759.334,-109.021"/>
</g>
<!-- Node15&#45;&gt;Node3 -->
<g id="edge18" class="edge"><title>Node15&#45;&gt;Node3</title>
<path fill="none" stroke="midnightblue" d="M96.0846,-73.6262C102.145,-74.5061 108.228,-75.3329 114,-76 322.18,-100.059 571.835,-113.74 671.706,-118.766"/>
<polygon fill="midnightblue" stroke="midnightblue" points="671.576,-122.264 681.738,-119.268 671.926,-115.273 671.576,-122.264"/>
</g>
<!-- Node16 -->
<g id="node16" class="node"><title>Node16</title>
<polygon fill="white" stroke="#bfbfbf" points="734.5,-0.5 734.5,-19.5 779.5,-19.5 779.5,-0.5 734.5,-0.5"/>
<text text-anchor="middle" x="757" y="-7.5" font-family="Helvetica,sans-Serif" font-size="10.00">iosfwd</text>
</g>
<!-- Node15&#45;&gt;Node16 -->
<g id="edge19" class="edge"><title>Node15&#45;&gt;Node16</title>
<path fill="none" stroke="midnightblue" d="M96.1617,-57.0914C99.1488,-56.6952 102.113,-56.3269 105,-56 341.659,-29.2017 628.579,-16.0954 724.221,-12.2447"/>
<polygon fill="midnightblue" stroke="midnightblue" points="724.56,-15.7342 734.413,-11.8405 724.282,-8.73966 724.56,-15.7342"/>
</g>
<!-- Node17&#45;&gt;Node3 -->
<g id="edge21" class="edge"><title>Node17&#45;&gt;Node3</title>
<path fill="none" stroke="midnightblue" d="M1040.97,-75.5425C965.195,-86.6578 830.398,-105.778 760.558,-115.286"/>
<polygon fill="midnightblue" stroke="midnightblue" points="759.771,-111.861 750.332,-116.672 760.712,-118.797 759.771,-111.861"/>
</g>
<!-- Node18&#45;&gt;Node3 -->
<g id="edge23" class="edge"><title>Node18&#45;&gt;Node3</title>
<path fill="none" stroke="midnightblue" d="M1176.52,-75.5091C1175,-75.6751 1173.49,-75.839 1172,-76 1021.53,-92.2538 842.358,-109.721 760.52,-117.224"/>
<polygon fill="midnightblue" stroke="midnightblue" points="759.738,-113.781 750.097,-118.173 760.373,-120.752 759.738,-113.781"/>
</g>
<!-- Node23 -->
<g id="node23" class="node"><title>Node23</title>
<g id="a_node23"><a xlink:href="threadlock_8hpp.html" target="_top" xlink:title="alib/threads/threadlock.hpp">
<polygon fill="white" stroke="red" points="994,-168.5 994,-187.5 1128,-187.5 1128,-168.5 994,-168.5"/>
<text text-anchor="middle" x="1061" y="-175.5" font-family="Helvetica,sans-Serif" font-size="10.00">alib/threads/threadlock.hpp</text>
</a>
</g>
</g>
<!-- Node22&#45;&gt;Node23 -->
<g id="edge28" class="edge"><title>Node22&#45;&gt;Node23</title>
<path fill="none" stroke="midnightblue" d="M1156.94,-224.444C1138.43,-215.675 1109.42,-201.935 1088.14,-191.858"/>
<polygon fill="midnightblue" stroke="midnightblue" points="1089.51,-188.634 1078.98,-187.516 1086.52,-194.96 1089.51,-188.634"/>
</g>
<!-- Node24 -->
<g id="node24" class="node"><title>Node24</title>
<g id="a_node24"><a xlink:href="callerinfo_8hpp.html" target="_top" xlink:title="alox/core/callerinfo.hpp">
<polygon fill="white" stroke="red" points="858.5,-168.5 858.5,-187.5 975.5,-187.5 975.5,-168.5 858.5,-168.5"/>
<text text-anchor="middle" x="917" y="-175.5" font-family="Helvetica,sans-Serif" font-size="10.00">alox/core/callerinfo.hpp</text>
</a>
</g>
</g>
<!-- Node22&#45;&gt;Node24 -->
<g id="edge30" class="edge"><title>Node22&#45;&gt;Node24</title>
<path fill="none" stroke="midnightblue" d="M1150.9,-227.175C1146.29,-226.094 1141.5,-224.993 1137,-224 1080.49,-211.532 1015.55,-198.393 970.95,-189.554"/>
<polygon fill="midnightblue" stroke="midnightblue" points="971.401,-186.075 960.912,-187.569 970.043,-192.942 971.401,-186.075"/>
</g>
<!-- Node25 -->
<g id="node25" class="node"><title>Node25</title>
<polygon fill="white" stroke="#bfbfbf" points="1018.5,-112.5 1018.5,-131.5 1053.5,-131.5 1053.5,-112.5 1018.5,-112.5"/>
<text text-anchor="middle" x="1036" y="-119.5" font-family="Helvetica,sans-Serif" font-size="10.00">map</text>
</g>
<!-- Node22&#45;&gt;Node25 -->
<g id="edge37" class="edge"><title>Node22&#45;&gt;Node25</title>
<path fill="none" stroke="midnightblue" d="M1171.92,-224.276C1166.71,-210.606 1154.92,-184.048 1137,-168 1115.77,-148.982 1085.19,-136.887 1063.25,-130.082"/>
<polygon fill="midnightblue" stroke="midnightblue" points="1064.12,-126.692 1053.54,-127.24 1062.16,-133.409 1064.12,-126.692"/>
</g>
<!-- Node26 -->
<g id="node26" class="node"><title>Node26</title>
<g id="a_node26"><a xlink:href="domain_8hpp.html" target="_top" xlink:title="alox/core/domain.hpp">
<polygon fill="white" stroke="black" points="1222,-168.5 1222,-187.5 1332,-187.5 1332,-168.5 1222,-168.5"/>
<text text-anchor="middle" x="1277" y="-175.5" font-family="Helvetica,sans-Serif" font-size="10.00">alox/core/domain.hpp</text>
</a>
</g>
</g>
<!-- Node22&#45;&gt;Node26 -->
<g id="edge33" class="edge"><title>Node22&#45;&gt;Node26</title>
<path fill="none" stroke="midnightblue" d="M1191.39,-224.324C1207.67,-215.703 1232.87,-202.364 1251.72,-192.386"/>
<polygon fill="midnightblue" stroke="midnightblue" points="1253.45,-195.427 1260.65,-187.655 1250.18,-189.24 1253.45,-195.427"/>
</g>
<!-- Node27 -->
<g id="node27" class="node"><title>Node27</title>
<polygon fill="white" stroke="#bfbfbf" points="1213,-112.5 1213,-131.5 1257,-131.5 1257,-112.5 1213,-112.5"/>
<text text-anchor="middle" x="1235" y="-119.5" font-family="Helvetica,sans-Serif" font-size="10.00">vector</text>
</g>
<!-- Node22&#45;&gt;Node27 -->
<g id="edge36" class="edge"><title>Node22&#45;&gt;Node27</title>
<path fill="none" stroke="midnightblue" d="M1179.71,-224.368C1189.52,-206.376 1212.34,-164.55 1225.39,-140.627"/>
<polygon fill="midnightblue" stroke="midnightblue" points="1228.6,-142.046 1230.31,-131.591 1222.45,-138.694 1228.6,-142.046"/>
</g>
<!-- Node23&#45;&gt;Node3 -->
<g id="edge29" class="edge"><title>Node23&#45;&gt;Node3</title>
<path fill="none" stroke="midnightblue" d="M1006.33,-168.444C938.121,-157.767 822.818,-139.719 760.003,-129.887"/>
<polygon fill="midnightblue" stroke="midnightblue" points="760.439,-126.413 750.018,-128.325 759.356,-133.329 760.439,-126.413"/>
</g>
<!-- Node24&#45;&gt;Node2 -->
<g id="edge31" class="edge"><title>Node24&#45;&gt;Node2</title>
<path fill="none" stroke="midnightblue" d="M965.961,-187.564C1018.42,-197.236 1095.37,-213.049 1104,-224 1114.75,-237.647 1107.49,-257.522 1099.59,-271.697"/>
<polygon fill="midnightblue" stroke="midnightblue" points="1096.46,-270.097 1094.23,-280.453 1102.43,-273.752 1096.46,-270.097"/>
</g>
<!-- Node24&#45;&gt;Node25 -->
<g id="edge32" class="edge"><title>Node24&#45;&gt;Node25</title>
<path fill="none" stroke="midnightblue" d="M935.856,-168.444C955.609,-159.48 986.809,-145.322 1009.13,-135.191"/>
<polygon fill="midnightblue" stroke="midnightblue" points="1010.74,-138.308 1018.4,-130.988 1007.84,-131.933 1010.74,-138.308"/>
</g>
<!-- Node26&#45;&gt;Node2 -->
<g id="edge34" class="edge"><title>Node26&#45;&gt;Node2</title>
<path fill="none" stroke="midnightblue" d="M1269.8,-187.733C1258.1,-201.414 1233.7,-227.988 1208,-244 1184.21,-258.824 1154.76,-269.957 1131,-277.441"/>
<polygon fill="midnightblue" stroke="midnightblue" points="1129.74,-274.165 1121.19,-280.425 1131.78,-280.862 1129.74,-274.165"/>
</g>
<!-- Node26&#45;&gt;Node27 -->
<g id="edge35" class="edge"><title>Node26&#45;&gt;Node27</title>
<path fill="none" stroke="midnightblue" d="M1270.06,-168.083C1264.07,-160.377 1255.25,-149.033 1247.95,-139.653"/>
<polygon fill="midnightblue" stroke="midnightblue" points="1250.71,-137.496 1241.81,-131.751 1245.18,-141.793 1250.71,-137.496"/>
</g>
<!-- Node28&#45;&gt;Node2 -->
<g id="edge39" class="edge"><title>Node28&#45;&gt;Node2</title>
<path fill="none" stroke="midnightblue" d="M970.118,-470.072C969.049,-455.339 968.526,-425.344 979,-403 998.779,-360.805 1041.08,-324.816 1066.78,-305.697"/>
<polygon fill="midnightblue" stroke="midnightblue" points="1069.07,-308.359 1075.11,-299.656 1064.96,-302.691 1069.07,-308.359"/>
</g>
<!-- Node29 -->
<g id="node29" class="node"><title>Node29</title>
<g id="a_node29"><a xlink:href="plaintextlogger_8hpp.html" target="_top" xlink:title="alox/core/textlogger\l/plaintextlogger.hpp">
<polygon fill="white" stroke="black" points="988,-403.5 988,-433.5 1090,-433.5 1090,-403.5 988,-403.5"/>
<text text-anchor="start" x="996" y="-421.5" font-family="Helvetica,sans-Serif" font-size="10.00">alox/core/textlogger</text>
<text text-anchor="middle" x="1039" y="-410.5" font-family="Helvetica,sans-Serif" font-size="10.00">/plaintextlogger.hpp</text>
</a>
</g>
</g>
<!-- Node28&#45;&gt;Node29 -->
<g id="edge40" class="edge"><title>Node28&#45;&gt;Node29</title>
<path fill="none" stroke="midnightblue" d="M980.743,-470.475C989.694,-462.643 1003.33,-450.714 1015.15,-440.366"/>
<polygon fill="midnightblue" stroke="midnightblue" points="1017.75,-442.742 1022.97,-433.523 1013.14,-437.474 1017.75,-442.742"/>
</g>
<!-- Node29&#45;&gt;Node2 -->
<g id="edge41" class="edge"><title>Node29&#45;&gt;Node2</title>
<path fill="none" stroke="midnightblue" d="M1044.43,-403.479C1053.33,-380.514 1071,-334.889 1080.88,-309.37"/>
<polygon fill="midnightblue" stroke="midnightblue" points="1084.25,-310.378 1084.6,-299.789 1077.72,-307.849 1084.25,-310.378"/>
</g>
<!-- Node30 -->
<g id="node30" class="node"><title>Node30</title>
<g id="a_node30"><a xlink:href="textlogger_8hpp.html" target="_top" xlink:title="alox/core/textlogger\l/textlogger.hpp">
<polygon fill="white" stroke="red" points="1146,-336.5 1146,-366.5 1248,-366.5 1248,-336.5 1146,-336.5"/>
<text text-anchor="start" x="1154" y="-354.5" font-family="Helvetica,sans-Serif" font-size="10.00">alox/core/textlogger</text>
<text text-anchor="middle" x="1197" y="-343.5" font-family="Helvetica,sans-Serif" font-size="10.00">/textlogger.hpp</text>
</a>
</g>
</g>
<!-- Node29&#45;&gt;Node30 -->
<g id="edge42" class="edge"><title>Node29&#45;&gt;Node30</title>
<path fill="none" stroke="midnightblue" d="M1073.28,-403.396C1096.78,-393.728 1128.15,-380.823 1153.43,-370.426"/>
<polygon fill="midnightblue" stroke="midnightblue" points="1154.87,-373.618 1162.78,-366.577 1152.2,-367.144 1154.87,-373.618"/>
</g>
<!-- Node30&#45;&gt;Node2 -->
<g id="edge43" class="edge"><title>Node30&#45;&gt;Node2</title>
<path fill="none" stroke="midnightblue" d="M1171.17,-336.399C1153.53,-326.773 1130.3,-314.09 1112.87,-304.577"/>
<polygon fill="midnightblue" stroke="midnightblue" points="1114.31,-301.377 1103.86,-299.658 1110.96,-307.521 1114.31,-301.377"/>
</g>
<!-- Node31&#45;&gt;Node2 -->
<g id="edge45" class="edge"><title>Node31&#45;&gt;Node2</title>
<path fill="none" stroke="midnightblue" d="M1408.31,-408.828C1383.67,-392.362 1327.18,-356.398 1275,-336 1228.89,-317.977 1173.47,-305.737 1134.99,-298.626"/>
<polygon fill="midnightblue" stroke="midnightblue" points="1135.56,-295.173 1125.1,-296.842 1134.32,-302.062 1135.56,-295.173"/>
</g>
<!-- Node31&#45;&gt;Node16 -->
<g id="edge47" class="edge"><title>Node31&#45;&gt;Node16</title>
<path fill="none" stroke="midnightblue" d="M1426.46,-408.996C1438.64,-389.166 1467,-337.971 1467,-291 1467,-291 1467,-291 1467,-121 1467,-90.9022 1471.48,-74.825 1448,-56 1396.22,-14.4951 919.752,-11.1102 789.676,-10.9642"/>
<polygon fill="midnightblue" stroke="midnightblue" points="789.546,-7.46424 779.544,-10.9588 789.542,-14.4642 789.546,-7.46424"/>
</g>
<!-- Node31&#45;&gt;Node30 -->
<g id="edge46" class="edge"><title>Node31&#45;&gt;Node30</title>
<path fill="none" stroke="midnightblue" d="M1391.25,-408.869C1356.62,-398.819 1298.61,-381.985 1254.98,-369.324"/>
<polygon fill="midnightblue" stroke="midnightblue" points="1255.92,-365.954 1245.34,-366.528 1253.97,-372.676 1255.92,-365.954"/>
</g>
<!-- Node32&#45;&gt;Node2 -->
<g id="edge49" class="edge"><title>Node32&#45;&gt;Node2</title>
<path fill="none" stroke="midnightblue" d="M1136.68,-470.434C1128.91,-441.806 1103.74,-349.03 1092.97,-309.314"/>
<polygon fill="midnightblue" stroke="midnightblue" points="1096.33,-308.352 1090.34,-299.617 1089.58,-310.184 1096.33,-308.352"/>
</g>
<!-- Node32&#45;&gt;Node29 -->
<g id="edge50" class="edge"><title>Node32&#45;&gt;Node29</title>
<path fill="none" stroke="midnightblue" d="M1124.67,-470.475C1110.88,-462.266 1089.52,-449.558 1071.58,-438.885"/>
<polygon fill="midnightblue" stroke="midnightblue" points="1072.95,-435.629 1062.57,-433.523 1069.37,-441.644 1072.95,-435.629"/>
</g>
<!-- Node33&#45;&gt;Node2 -->
<g id="edge52" class="edge"><title>Node33&#45;&gt;Node2</title>
<path fill="none" stroke="midnightblue" d="M1246.66,-408.881C1256.44,-392.819 1273.87,-357.951 1257,-336 1242.19,-316.737 1179.86,-303.972 1135.2,-297.109"/>
<polygon fill="midnightblue" stroke="midnightblue" points="1135.52,-293.619 1125.12,-295.612 1134.49,-300.543 1135.52,-293.619"/>
</g>
<!-- Node33&#45;&gt;Node30 -->
<g id="edge53" class="edge"><title>Node33&#45;&gt;Node30</title>
<path fill="none" stroke="midnightblue" d="M1235.07,-408.734C1229.23,-400.118 1220.09,-386.61 1212.23,-374.992"/>
<polygon fill="midnightblue" stroke="midnightblue" points="1215.04,-372.908 1206.54,-366.589 1209.24,-376.832 1215.04,-372.908"/>
</g>
</g>
</svg>
