<?xml version="1.0" encoding="UTF-8" standalone="no"?>
<!DOCTYPE svg PUBLIC "-//W3C//DTD SVG 1.1//EN"
 "http://www.w3.org/Graphics/SVG/1.1/DTD/svg11.dtd">
<!-- Generated by graphviz version 2.40.1 (20161225.0304)
 -->
<!-- Title: alox.hpp Pages: 1 -->
<svg width="3598pt" height="364pt"
 viewBox="0.00 0.00 3597.50 364.00" xmlns="http://www.w3.org/2000/svg" xmlns:xlink="http://www.w3.org/1999/xlink">
<g id="graph0" class="graph" transform="scale(1 1) rotate(0) translate(4 360)">
<title>alox.hpp</title>
<polygon fill="#ffffff" stroke="transparent" points="-4,4 -4,-360 3593.5,-360 3593.5,4 -4,4"/>
<!-- Node0 -->
<g id="node1" class="node">
<title>Node0</title>
<polygon fill="#bfbfbf" stroke="#000000" points="2982,-336.5 2982,-355.5 3035,-355.5 3035,-336.5 2982,-336.5"/>
<text text-anchor="middle" x="3008.5" y="-343.5" font-family="Helvetica,sans-Serif" font-size="10.00" fill="#000000">alox.hpp</text>
</g>
<!-- Node1 -->
<g id="node2" class="node">
<title>Node1</title>
<g id="a_node2"><a xlink:href="alib_8hpp.html" target="_top" xlink:title="alib/alib.hpp">
<polygon fill="#ffffff" stroke="#000000" points="1349.5,-168.5 1349.5,-187.5 1417.5,-187.5 1417.5,-168.5 1349.5,-168.5"/>
<text text-anchor="middle" x="1383.5" y="-175.5" font-family="Helvetica,sans-Serif" font-size="10.00" fill="#000000">alib/alib.hpp</text>
</a>
</g>
</g>
<!-- Node0&#45;&gt;Node1 -->
<g id="edge1" class="edge">
<title>Node0&#45;&gt;Node1</title>
<path fill="none" stroke="#191970" d="M2981.7234,-344.0229C2902.3035,-338.0997 2661.1392,-319.687 2461.5,-300 2059.7157,-260.3788 1574.9784,-201.5733 1427.9025,-183.4895"/>
<polygon fill="#191970" stroke="#191970" points="1428.2551,-180.0066 1417.9024,-182.2587 1427.3999,-186.9542 1428.2551,-180.0066"/>
</g>
<!-- Node12 -->
<g id="node3" class="node">
<title>Node12</title>
<polygon fill="#ffffff" stroke="#bfbfbf" points="2706.5,-.5 2706.5,-19.5 2750.5,-19.5 2750.5,-.5 2706.5,-.5"/>
<text text-anchor="middle" x="2728.5" y="-7.5" font-family="Helvetica,sans-Serif" font-size="10.00" fill="#000000">vector</text>
</g>
<!-- Node0&#45;&gt;Node12 -->
<g id="edge2" class="edge">
<title>Node0&#45;&gt;Node12</title>
<path fill="none" stroke="#191970" d="M2981.8289,-345.3313C2881.9044,-342.5955 2533.4755,-330.8979 2495.5,-300 2471.7248,-280.6558 2475.5,-264.6506 2475.5,-234 2475.5,-234 2475.5,-234 2475.5,-122 2475.5,-74.1401 2628.7945,-32.9269 2696.7345,-17.0115"/>
<polygon fill="#191970" stroke="#191970" points="2697.532,-20.4195 2706.4905,-14.763 2695.9599,-13.5984 2697.532,-20.4195"/>
</g>
<!-- Node39 -->
<g id="node4" class="node">
<title>Node39</title>
<g id="a_node4"><a xlink:href="alox__symbols_8hpp.html" target="_top" xlink:title="internals/alox_symbols.hpp">
<polygon fill="#ffffff" stroke="#000000" points="2504,-280.5 2504,-299.5 2639,-299.5 2639,-280.5 2504,-280.5"/>
<text text-anchor="middle" x="2571.5" y="-287.5" font-family="Helvetica,sans-Serif" font-size="10.00" fill="#000000">internals/alox_symbols.hpp</text>
</a>
</g>
</g>
<!-- Node0&#45;&gt;Node39 -->
<g id="edge3" class="edge">
<title>Node0&#45;&gt;Node39</title>
<path fill="none" stroke="#191970" d="M2981.8518,-342.614C2923.6755,-335.2179 2780.6793,-317.0163 2649.3443,-300.1066"/>
<polygon fill="#191970" stroke="#191970" points="2649.4703,-296.594 2639.1051,-298.7879 2648.576,-303.5367 2649.4703,-296.594"/>
</g>
<!-- Node40 -->
<g id="node5" class="node">
<title>Node40</title>
<g id="a_node5"><a xlink:href="alox__macros_8hpp.html" target="_top" xlink:title="internals/alox_macros.hpp">
<polygon fill="#ffffff" stroke="#000000" points="2657,-280.5 2657,-299.5 2788,-299.5 2788,-280.5 2657,-280.5"/>
<text text-anchor="middle" x="2722.5" y="-287.5" font-family="Helvetica,sans-Serif" font-size="10.00" fill="#000000">internals/alox_macros.hpp</text>
</a>
</g>
</g>
<!-- Node0&#45;&gt;Node40 -->
<g id="edge4" class="edge">
<title>Node0&#45;&gt;Node40</title>
<path fill="none" stroke="#191970" d="M2981.8506,-340.7819C2936.335,-331.8698 2842.5914,-313.5144 2781.1603,-301.4859"/>
<polygon fill="#191970" stroke="#191970" points="2781.7013,-298.0255 2771.215,-299.5386 2780.3561,-304.895 2781.7013,-298.0255"/>
</g>
<!-- Node41 -->
<g id="node6" class="node">
<title>Node41</title>
<g id="a_node6"><a xlink:href="configuration_8hpp.html" target="_top" xlink:title="alib/config/configuration.hpp">
<polygon fill="#ffffff" stroke="#000000" points="2859.5,-224.5 2859.5,-243.5 2997.5,-243.5 2997.5,-224.5 2859.5,-224.5"/>
<text text-anchor="middle" x="2928.5" y="-231.5" font-family="Helvetica,sans-Serif" font-size="10.00" fill="#000000">alib/config/configuration.hpp</text>
</a>
</g>
</g>
<!-- Node0&#45;&gt;Node41 -->
<g id="edge5" class="edge">
<title>Node0&#45;&gt;Node41</title>
<path fill="none" stroke="#191970" d="M3019.8404,-336.1735C3033.7671,-322.8883 3054.0836,-298.7088 3041.5,-280 3030.8774,-264.2067 3013.7894,-253.833 2996.0836,-247.0202"/>
<polygon fill="#191970" stroke="#191970" points="2996.8155,-243.5691 2986.2207,-243.5898 2994.516,-250.1807 2996.8155,-243.5691"/>
</g>
<!-- Node56 -->
<g id="node7" class="node">
<title>Node56</title>
<g id="a_node7"><a xlink:href="aloxtypesandenums_8hpp.html" target="_top" xlink:title="aloxtypesandenums.hpp">
<polygon fill="#ffffff" stroke="#000000" points="2844.5,-280.5 2844.5,-299.5 2966.5,-299.5 2966.5,-280.5 2844.5,-280.5"/>
<text text-anchor="middle" x="2905.5" y="-287.5" font-family="Helvetica,sans-Serif" font-size="10.00" fill="#000000">aloxtypesandenums.hpp</text>
</a>
</g>
</g>
<!-- Node0&#45;&gt;Node56 -->
<g id="edge6" class="edge">
<title>Node0&#45;&gt;Node56</title>
<path fill="none" stroke="#191970" d="M2990.5588,-336.2455C2974.46,-327.4928 2950.6121,-314.527 2932.2609,-304.5496"/>
<polygon fill="#191970" stroke="#191970" points="2933.6929,-301.3444 2923.2356,-299.6427 2930.3493,-307.4942 2933.6929,-301.3444"/>
</g>
<!-- Node57 -->
<g id="node8" class="node">
<title>Node57</title>
<g id="a_node8"><a xlink:href="log_8hpp.html" target="_top" xlink:title="log.hpp">
<polygon fill="#ffffff" stroke="#000000" points="2984.5,-280.5 2984.5,-299.5 3032.5,-299.5 3032.5,-280.5 2984.5,-280.5"/>
<text text-anchor="middle" x="3008.5" y="-287.5" font-family="Helvetica,sans-Serif" font-size="10.00" fill="#000000">log.hpp</text>
</a>
</g>
</g>
<!-- Node0&#45;&gt;Node57 -->
<g id="edge7" class="edge">
<title>Node0&#45;&gt;Node57</title>
<path fill="none" stroke="#191970" d="M3003.2332,-336.2455C3001.8221,-328.9382 3001.4179,-318.6944 3002.0205,-309.7046"/>
<polygon fill="#191970" stroke="#191970" points="3005.5111,-309.9945 3003.2549,-299.6427 2998.5632,-309.1421 3005.5111,-309.9945"/>
</g>
<!-- Node58 -->
<g id="node9" class="node">
<title>Node58</title>
<g id="a_node9"><a xlink:href="lox_8hpp.html" target="_top" xlink:title="lox.hpp">
<polygon fill="#ffffff" stroke="#000000" points="3088.5,-280.5 3088.5,-299.5 3136.5,-299.5 3136.5,-280.5 3088.5,-280.5"/>
<text text-anchor="middle" x="3112.5" y="-287.5" font-family="Helvetica,sans-Serif" font-size="10.00" fill="#000000">lox.hpp</text>
</a>
</g>
</g>
<!-- Node0&#45;&gt;Node58 -->
<g id="edge8" class="edge">
<title>Node0&#45;&gt;Node58</title>
<path fill="none" stroke="#191970" d="M3021.3486,-336.2455C3036.1139,-327.3724 3060.405,-314.1693 3080.2876,-304.1394"/>
<polygon fill="#191970" stroke="#191970" points="3081.9459,-307.2238 3089.347,-299.6427 3078.8336,-300.9537 3081.9459,-307.2238"/>
</g>
<!-- Node2 -->
<g id="node10" class="node">
<title>Node2</title>
<polygon fill="#ffffff" stroke="#bfbfbf" points="1290.5,-112.5 1290.5,-131.5 1342.5,-131.5 1342.5,-112.5 1290.5,-112.5"/>
<text text-anchor="middle" x="1316.5" y="-119.5" font-family="Helvetica,sans-Serif" font-size="10.00" fill="#000000">assert.h</text>
</g>
<!-- Node1&#45;&gt;Node2 -->
<g id="edge9" class="edge">
<title>Node1&#45;&gt;Node2</title>
<path fill="none" stroke="#191970" d="M1371.8295,-168.2455C1361.9339,-159.9746 1347.5373,-147.9416 1335.9099,-138.2232"/>
<polygon fill="#191970" stroke="#191970" points="1337.9542,-135.3703 1328.0368,-131.6427 1333.465,-140.7413 1337.9542,-135.3703"/>
</g>
<!-- Node3 -->
<g id="node11" class="node">
<title>Node3</title>
<polygon fill="#ffffff" stroke="#bfbfbf" points="1360.5,-112.5 1360.5,-131.5 1406.5,-131.5 1406.5,-112.5 1360.5,-112.5"/>
<text text-anchor="middle" x="1383.5" y="-119.5" font-family="Helvetica,sans-Serif" font-size="10.00" fill="#000000">cstdint</text>
</g>
<!-- Node1&#45;&gt;Node3 -->
<g id="edge10" class="edge">
<title>Node1&#45;&gt;Node3</title>
<path fill="none" stroke="#191970" d="M1383.5,-168.2455C1383.5,-160.9382 1383.5,-150.6944 1383.5,-141.7046"/>
<polygon fill="#191970" stroke="#191970" points="1387.0001,-141.6426 1383.5,-131.6427 1380.0001,-141.6427 1387.0001,-141.6426"/>
</g>
<!-- Node4 -->
<g id="node12" class="node">
<title>Node4</title>
<g id="a_node12"><a xlink:href="prepro_8hpp.html" target="_top" xlink:title="alib/alib/prepro.hpp">
<polygon fill="#ffffff" stroke="#000000" points="1424.5,-112.5 1424.5,-131.5 1522.5,-131.5 1522.5,-112.5 1424.5,-112.5"/>
<text text-anchor="middle" x="1473.5" y="-119.5" font-family="Helvetica,sans-Serif" font-size="10.00" fill="#000000">alib/alib/prepro.hpp</text>
</a>
</g>
</g>
<!-- Node1&#45;&gt;Node4 -->
<g id="edge11" class="edge">
<title>Node1&#45;&gt;Node4</title>
<path fill="none" stroke="#191970" d="M1399.1768,-168.2455C1412.9856,-159.6534 1433.3193,-147.0014 1449.2292,-137.1018"/>
<polygon fill="#191970" stroke="#191970" points="1451.3613,-139.8974 1458.0028,-131.6427 1447.6632,-133.954 1451.3613,-139.8974"/>
</g>
<!-- Node5 -->
<g id="node13" class="node">
<title>Node5</title>
<g id="a_node13"><a xlink:href="distribution_8hpp_source.html" target="_top" xlink:title="alib/distribution.hpp">
<polygon fill="#ffffff" stroke="#000000" points="1541,-112.5 1541,-131.5 1642,-131.5 1642,-112.5 1541,-112.5"/>
<text text-anchor="middle" x="1591.5" y="-119.5" font-family="Helvetica,sans-Serif" font-size="10.00" fill="#000000">alib/distribution.hpp</text>
</a>
</g>
</g>
<!-- Node1&#45;&gt;Node5 -->
<g id="edge12" class="edge">
<title>Node1&#45;&gt;Node5</title>
<path fill="none" stroke="#191970" d="M1417.847,-168.7527C1452.9069,-159.3135 1507.5121,-144.6121 1546.1167,-134.2186"/>
<polygon fill="#191970" stroke="#191970" points="1547.3111,-137.5217 1556.0573,-131.5423 1545.4912,-130.7624 1547.3111,-137.5217"/>
</g>
<!-- Node6 -->
<g id="node14" class="node">
<title>Node6</title>
<g id="a_node14"><a xlink:href="debug_8hpp.html" target="_top" xlink:title="alib/alib/debug.hpp">
<polygon fill="#ffffff" stroke="#000000" points="1660.5,-112.5 1660.5,-131.5 1758.5,-131.5 1758.5,-112.5 1660.5,-112.5"/>
<text text-anchor="middle" x="1709.5" y="-119.5" font-family="Helvetica,sans-Serif" font-size="10.00" fill="#000000">alib/alib/debug.hpp</text>
</a>
</g>
</g>
<!-- Node1&#45;&gt;Node6 -->
<g id="edge13" class="edge">
<title>Node1&#45;&gt;Node6</title>
<path fill="none" stroke="#191970" d="M1417.7688,-172.1265C1466.8928,-163.705 1560.4462,-147.6601 1650.3589,-132.1954"/>
<polygon fill="#191970" stroke="#191970" points="1651.1909,-135.6038 1660.4527,-130.4591 1650.0041,-128.7051 1651.1909,-135.6038"/>
</g>
<!-- Node7 -->
<g id="node15" class="node">
<title>Node7</title>
<g id="a_node15"><a xlink:href="rtti_8hpp.html" target="_top" xlink:title="alib/lang/rtti.hpp">
<polygon fill="#ffffff" stroke="#000000" points="2276.5,-112.5 2276.5,-131.5 2362.5,-131.5 2362.5,-112.5 2276.5,-112.5"/>
<text text-anchor="middle" x="2319.5" y="-119.5" font-family="Helvetica,sans-Serif" font-size="10.00" fill="#000000">alib/lang/rtti.hpp</text>
</a>
</g>
</g>
<!-- Node1&#45;&gt;Node7 -->
<g id="edge14" class="edge">
<title>Node1&#45;&gt;Node7</title>
<path fill="none" stroke="#191970" d="M1417.6526,-176.8545C1556.403,-172.105 2078.9931,-153.2634 2266.4404,-131.9345"/>
<polygon fill="#191970" stroke="#191970" points="2266.9209,-135.4022 2276.442,-130.7548 2266.1008,-128.4504 2266.9209,-135.4022"/>
</g>
<!-- Node11 -->
<g id="node16" class="node">
<title>Node11</title>
<g id="a_node16"><a xlink:href="singleton_8hpp.html" target="_top" xlink:title="alib/lang/singleton.hpp">
<polygon fill="#ffffff" stroke="#000000" points="2334,-56.5 2334,-75.5 2447,-75.5 2447,-56.5 2334,-56.5"/>
<text text-anchor="middle" x="2390.5" y="-63.5" font-family="Helvetica,sans-Serif" font-size="10.00" fill="#000000">alib/lang/singleton.hpp</text>
</a>
</g>
</g>
<!-- Node1&#45;&gt;Node11 -->
<g id="edge15" class="edge">
<title>Node1&#45;&gt;Node11</title>
<path fill="none" stroke="#191970" d="M1417.7513,-177.5171C1587.6474,-174.9823 2333.3064,-162.1666 2371.5,-132 2385.0707,-121.2814 2389.3631,-101.5246 2390.5346,-86.4106"/>
<polygon fill="#191970" stroke="#191970" points="2394.0482,-86.1081 2390.924,-75.9844 2387.0531,-85.8467 2394.0482,-86.1081"/>
</g>
<!-- Node13 -->
<g id="node17" class="node">
<title>Node13</title>
<g id="a_node17"><a xlink:href="types_8hpp.html" target="_top" xlink:title="alib/lang/types.hpp">
<polygon fill="#ffffff" stroke="#000000" points="1776.5,-112.5 1776.5,-131.5 1874.5,-131.5 1874.5,-112.5 1776.5,-112.5"/>
<text text-anchor="middle" x="1825.5" y="-119.5" font-family="Helvetica,sans-Serif" font-size="10.00" fill="#000000">alib/lang/types.hpp</text>
</a>
</g>
</g>
<!-- Node1&#45;&gt;Node13 -->
<g id="edge16" class="edge">
<title>Node1&#45;&gt;Node13</title>
<path fill="none" stroke="#191970" d="M1417.7399,-174.4969C1483.3011,-167.6602 1631.3149,-151.6038 1766.3674,-132.1046"/>
<polygon fill="#191970" stroke="#191970" points="1767.0882,-135.5367 1776.4806,-130.6343 1766.0811,-128.6095 1767.0882,-135.5367"/>
</g>
<!-- Node14 -->
<g id="node18" class="node">
<title>Node14</title>
<g id="a_node18"><a xlink:href="boxing_8hpp.html" target="_top" xlink:title="alib/boxing/boxing.hpp">
<polygon fill="#ffffff" stroke="#ff0000" points="1159,-112.5 1159,-131.5 1272,-131.5 1272,-112.5 1159,-112.5"/>
<text text-anchor="middle" x="1215.5" y="-119.5" font-family="Helvetica,sans-Serif" font-size="10.00" fill="#000000">alib/boxing/boxing.hpp</text>
</a>
</g>
</g>
<!-- Node1&#45;&gt;Node14 -->
<g id="edge17" class="edge">
<title>Node1&#45;&gt;Node14</title>
<path fill="none" stroke="#191970" d="M1354.6198,-168.3733C1326.6839,-159.0613 1284.1858,-144.8953 1253.5131,-134.671"/>
<polygon fill="#191970" stroke="#191970" points="1254.597,-131.3431 1244.0034,-131.5011 1252.3834,-137.9839 1254.597,-131.3431"/>
</g>
<!-- Node22 -->
<g id="node19" class="node">
<title>Node22</title>
<g id="a_node19"><a xlink:href="enums_8hpp.html" target="_top" xlink:title="alib/lang/enums.hpp">
<polygon fill="#ffffff" stroke="#000000" points="1892.5,-112.5 1892.5,-131.5 1996.5,-131.5 1996.5,-112.5 1892.5,-112.5"/>
<text text-anchor="middle" x="1944.5" y="-119.5" font-family="Helvetica,sans-Serif" font-size="10.00" fill="#000000">alib/lang/enums.hpp</text>
</a>
</g>
</g>
<!-- Node1&#45;&gt;Node22 -->
<g id="edge18" class="edge">
<title>Node1&#45;&gt;Node22</title>
<path fill="none" stroke="#191970" d="M1417.5411,-175.703C1497.0399,-170.1601 1701.2754,-154.8885 1882.3234,-132.0748"/>
<polygon fill="#191970" stroke="#191970" points="1882.8132,-135.5408 1892.2921,-130.808 1881.9306,-128.5967 1882.8132,-135.5408"/>
</g>
<!-- Node23 -->
<g id="node20" class="node">
<title>Node23</title>
<g id="a_node20"><a xlink:href="cstring_8hpp.html" target="_top" xlink:title="alib/strings/cstring.hpp">
<polygon fill="#ffffff" stroke="#ff0000" points="2015,-112.5 2015,-131.5 2130,-131.5 2130,-112.5 2015,-112.5"/>
<text text-anchor="middle" x="2072.5" y="-119.5" font-family="Helvetica,sans-Serif" font-size="10.00" fill="#000000">alib/strings/cstring.hpp</text>
</a>
</g>
</g>
<!-- Node1&#45;&gt;Node23 -->
<g id="edge19" class="edge">
<title>Node1&#45;&gt;Node23</title>
<path fill="none" stroke="#191970" d="M1417.6318,-176.3691C1510.2176,-171.7552 1774.0482,-157.347 2004.5354,-132.0278"/>
<polygon fill="#191970" stroke="#191970" points="2005.2383,-135.4714 2014.7921,-130.8913 2004.4674,-128.514 2005.2383,-135.4714"/>
</g>
<!-- Node26 -->
<g id="node21" class="node">
<title>Node26</title>
<g id="a_node21"><a xlink:href="string_8hpp.html" target="_top" xlink:title="alib/strings/string.hpp">
<polygon fill="#ffffff" stroke="#ff0000" points="2148.5,-112.5 2148.5,-131.5 2258.5,-131.5 2258.5,-112.5 2148.5,-112.5"/>
<text text-anchor="middle" x="2203.5" y="-119.5" font-family="Helvetica,sans-Serif" font-size="10.00" fill="#000000">alib/strings/string.hpp</text>
</a>
</g>
</g>
<!-- Node1&#45;&gt;Node26 -->
<g id="edge20" class="edge">
<title>Node1&#45;&gt;Node26</title>
<path fill="none" stroke="#191970" d="M1417.5038,-177.073C1522.9356,-173.9571 1853.8236,-162.3629 2138.2865,-132.0359"/>
<polygon fill="#191970" stroke="#191970" points="2138.8176,-135.499 2148.3857,-130.9491 2138.0686,-128.5392 2138.8176,-135.499"/>
</g>
<!-- Node29 -->
<g id="node22" class="node">
<title>Node29</title>
<g id="a_node22"><a xlink:href="tstring_8hpp.html" target="_top" xlink:title="alib/strings/tstring.hpp">
<polygon fill="#ffffff" stroke="#000000" points="0,-112.5 0,-131.5 113,-131.5 113,-112.5 0,-112.5"/>
<text text-anchor="middle" x="56.5" y="-119.5" font-family="Helvetica,sans-Serif" font-size="10.00" fill="#000000">alib/strings/tstring.hpp</text>
</a>
</g>
</g>
<!-- Node1&#45;&gt;Node29 -->
<g id="edge21" class="edge">
<title>Node1&#45;&gt;Node29</title>
<path fill="none" stroke="#191970" d="M1349.2904,-177.2919C1175.6616,-173.6171 390.079,-155.9979 123.207,-132.0427"/>
<polygon fill="#191970" stroke="#191970" points="123.4516,-128.5505 113.1719,-131.1155 122.8075,-135.5208 123.4516,-128.5505"/>
</g>
<!-- Node30 -->
<g id="node23" class="node">
<title>Node30</title>
<g id="a_node23"><a xlink:href="stringliteral_8hpp.html" target="_top" xlink:title="alib/strings/stringliteral.hpp">
<polygon fill="#ffffff" stroke="#ff0000" points="131,-112.5 131,-131.5 264,-131.5 264,-112.5 131,-112.5"/>
<text text-anchor="middle" x="197.5" y="-119.5" font-family="Helvetica,sans-Serif" font-size="10.00" fill="#000000">alib/strings/stringliteral.hpp</text>
</a>
</g>
</g>
<!-- Node1&#45;&gt;Node30 -->
<g id="edge22" class="edge">
<title>Node1&#45;&gt;Node30</title>
<path fill="none" stroke="#191970" d="M1349.3338,-177.7199C1214.2358,-176.3745 704.1359,-169.046 274.2608,-132.0821"/>
<polygon fill="#191970" stroke="#191970" points="274.3863,-128.58 264.1214,-131.2035 273.7819,-135.5538 274.3863,-128.58"/>
</g>
<!-- Node31 -->
<g id="node24" class="node">
<title>Node31</title>
<g id="a_node24"><a xlink:href="astring_8hpp.html" target="_top" xlink:title="alib/strings/astring.hpp">
<polygon fill="#ffffff" stroke="#ff0000" points="282,-112.5 282,-131.5 397,-131.5 397,-112.5 282,-112.5"/>
<text text-anchor="middle" x="339.5" y="-119.5" font-family="Helvetica,sans-Serif" font-size="10.00" fill="#000000">alib/strings/astring.hpp</text>
</a>
</g>
</g>
<!-- Node1&#45;&gt;Node31 -->
<g id="edge23" class="edge">
<title>Node1&#45;&gt;Node31</title>
<path fill="none" stroke="#191970" d="M1349.2303,-177.6393C1224.4292,-176.0622 782.3573,-168.1725 407.1621,-131.9599"/>
<polygon fill="#191970" stroke="#191970" points="407.4897,-128.4753 397.1976,-130.9899 406.8115,-135.4424 407.4897,-128.4753"/>
</g>
<!-- Node33 -->
<g id="node25" class="node">
<title>Node33</title>
<g id="a_node25"><a xlink:href="preallocatedstring_8hpp.html" target="_top" xlink:title="alib/strings/preallocatedstring.hpp">
<polygon fill="#ffffff" stroke="#000000" points="415.5,-112.5 415.5,-131.5 577.5,-131.5 577.5,-112.5 415.5,-112.5"/>
<text text-anchor="middle" x="496.5" y="-119.5" font-family="Helvetica,sans-Serif" font-size="10.00" fill="#000000">alib/strings/preallocatedstring.hpp</text>
</a>
</g>
</g>
<!-- Node1&#45;&gt;Node33 -->
<g id="edge24" class="edge">
<title>Node1&#45;&gt;Node33</title>
<path fill="none" stroke="#191970" d="M1349.2748,-176.6741C1239.9815,-172.3025 889.3562,-157.2167 588.1596,-132.1015"/>
<polygon fill="#191970" stroke="#191970" points="588.1738,-128.5905 577.9161,-131.2419 587.5884,-135.566 588.1738,-128.5905"/>
</g>
<!-- Node34 -->
<g id="node26" class="node">
<title>Node34</title>
<g id="a_node26"><a xlink:href="stringboxing_8hpp.html" target="_top" xlink:title="alib/strings/stringboxing.hpp">
<polygon fill="#ffffff" stroke="#000000" points="595.5,-112.5 595.5,-131.5 733.5,-131.5 733.5,-112.5 595.5,-112.5"/>
<text text-anchor="middle" x="664.5" y="-119.5" font-family="Helvetica,sans-Serif" font-size="10.00" fill="#000000">alib/strings/stringboxing.hpp</text>
</a>
</g>
</g>
<!-- Node1&#45;&gt;Node34 -->
<g id="edge25" class="edge">
<title>Node1&#45;&gt;Node34</title>
<path fill="none" stroke="#191970" d="M1349.3922,-176.2251C1254.9517,-171.1677 981.8552,-155.5755 744.0253,-132.1049"/>
<polygon fill="#191970" stroke="#191970" points="744.0967,-128.5948 733.7996,-131.0887 743.4044,-135.5605 744.0967,-128.5948"/>
</g>
<!-- Node35 -->
<g id="node27" class="node">
<title>Node35</title>
<g id="a_node27"><a xlink:href="report_8hpp.html" target="_top" xlink:title="alib/lang/report.hpp">
<polygon fill="#ffffff" stroke="#ff0000" points="752,-112.5 752,-131.5 851,-131.5 851,-112.5 752,-112.5"/>
<text text-anchor="middle" x="801.5" y="-119.5" font-family="Helvetica,sans-Serif" font-size="10.00" fill="#000000">alib/lang/report.hpp</text>
</a>
</g>
</g>
<!-- Node1&#45;&gt;Node35 -->
<g id="edge26" class="edge">
<title>Node1&#45;&gt;Node35</title>
<path fill="none" stroke="#191970" d="M1349.3695,-175.9905C1267.1299,-170.9379 1051.3315,-156.4272 861.3074,-132.1494"/>
<polygon fill="#191970" stroke="#191970" points="861.4986,-128.6451 851.1329,-130.8368 860.6029,-135.5876 861.4986,-128.6451"/>
</g>
<!-- Node37 -->
<g id="node28" class="node">
<title>Node37</title>
<g id="a_node28"><a xlink:href="applyto_8hpp.html" target="_top" xlink:title="alib/strings/applyto.hpp">
<polygon fill="#ffffff" stroke="#000000" points="869,-112.5 869,-131.5 986,-131.5 986,-112.5 869,-112.5"/>
<text text-anchor="middle" x="927.5" y="-119.5" font-family="Helvetica,sans-Serif" font-size="10.00" fill="#000000">alib/strings/applyto.hpp</text>
</a>
</g>
</g>
<!-- Node1&#45;&gt;Node37 -->
<g id="edge27" class="edge">
<title>Node1&#45;&gt;Node37</title>
<path fill="none" stroke="#191970" d="M1349.3739,-174.3181C1283.2905,-167.1119 1133.0091,-150.3535 996.5304,-132.2434"/>
<polygon fill="#191970" stroke="#191970" points="996.6865,-128.7333 986.3117,-130.8814 995.7616,-135.672 996.6865,-128.7333"/>
</g>
<!-- Node38 -->
<g id="node29" class="node">
<title>Node38</title>
<g id="a_node29"><a xlink:href="applyformat_8hpp.html" target="_top" xlink:title="alib/strings/applyformat.hpp">
<polygon fill="#ffffff" stroke="#ff0000" points="1004,-112.5 1004,-131.5 1141,-131.5 1141,-112.5 1004,-112.5"/>
<text text-anchor="middle" x="1072.5" y="-119.5" font-family="Helvetica,sans-Serif" font-size="10.00" fill="#000000">alib/strings/applyformat.hpp</text>
</a>
</g>
</g>
<!-- Node1&#45;&gt;Node38 -->
<g id="edge28" class="edge">
<title>Node1&#45;&gt;Node38</title>
<path fill="none" stroke="#191970" d="M1349.3279,-171.8468C1297.9538,-162.5962 1199.9761,-144.9539 1135.4397,-133.3332"/>
<polygon fill="#191970" stroke="#191970" points="1135.8434,-129.8497 1125.3814,-131.5221 1134.6029,-136.7389 1135.8434,-129.8497"/>
</g>
<!-- Node41&#45;&gt;Node12 -->
<g id="edge43" class="edge">
<title>Node41&#45;&gt;Node12</title>
<path fill="none" stroke="#191970" d="M2997.7191,-224.6832C3041.078,-217.2671 3091.181,-205.2475 3104.5,-188 3120.8956,-166.7684 3090.7045,-130.7607 3078.5,-112 3060.466,-84.2781 3058.4943,-71.9078 3029.5,-56 2983.6375,-30.8374 2828.787,-17.0879 2760.8753,-12.1437"/>
<polygon fill="#191970" stroke="#191970" points="2760.9751,-8.6421 2750.7524,-11.4254 2760.4796,-15.6245 2760.9751,-8.6421"/>
</g>
<!-- Node42 -->
<g id="node38" class="node">
<title>Node42</title>
<g id="a_node38"><a xlink:href="threadlock_8hpp.html" target="_top" xlink:title="alib/threads/threadlock.hpp">
<polygon fill="#ffffff" stroke="#ff0000" points="3171.5,-168.5 3171.5,-187.5 3305.5,-187.5 3305.5,-168.5 3171.5,-168.5"/>
<text text-anchor="middle" x="3238.5" y="-175.5" font-family="Helvetica,sans-Serif" font-size="10.00" fill="#000000">alib/threads/threadlock.hpp</text>
</a>
</g>
</g>
<!-- Node41&#45;&gt;Node42 -->
<g id="edge44" class="edge">
<title>Node41&#45;&gt;Node42</title>
<path fill="none" stroke="#191970" d="M2981.4387,-224.4369C3035.273,-214.712 3118.6761,-199.6456 3175.7887,-189.3285"/>
<polygon fill="#191970" stroke="#191970" points="3176.5612,-192.7457 3185.7797,-187.5237 3175.3167,-185.8572 3176.5612,-192.7457"/>
</g>
<!-- Node50 -->
<g id="node39" class="node">
<title>Node50</title>
<g id="a_node39"><a xlink:href="substring_8hpp.html" target="_top" xlink:title="alib/strings/substring.hpp">
<polygon fill="#ffffff" stroke="#000000" points="2742,-56.5 2742,-75.5 2867,-75.5 2867,-56.5 2742,-56.5"/>
<text text-anchor="middle" x="2804.5" y="-63.5" font-family="Helvetica,sans-Serif" font-size="10.00" fill="#000000">alib/strings/substring.hpp</text>
</a>
</g>
</g>
<!-- Node41&#45;&gt;Node50 -->
<g id="edge45" class="edge">
<title>Node41&#45;&gt;Node50</title>
<path fill="none" stroke="#191970" d="M2921.4779,-224.4862C2901.537,-197.4695 2844.3132,-119.9405 2818.0146,-84.3102"/>
<polygon fill="#191970" stroke="#191970" points="2820.5085,-81.7951 2811.7539,-75.8279 2814.8765,-85.9521 2820.5085,-81.7951"/>
</g>
<!-- Node51 -->
<g id="node40" class="node">
<title>Node51</title>
<g id="a_node40"><a xlink:href="numberformat_8hpp.html" target="_top" xlink:title="alib/strings/numberformat.hpp">
<polygon fill="#ffffff" stroke="#000000" points="2685.5,-168.5 2685.5,-187.5 2831.5,-187.5 2831.5,-168.5 2685.5,-168.5"/>
<text text-anchor="middle" x="2758.5" y="-175.5" font-family="Helvetica,sans-Serif" font-size="10.00" fill="#000000">alib/strings/numberformat.hpp</text>
</a>
</g>
</g>
<!-- Node41&#45;&gt;Node51 -->
<g id="edge46" class="edge">
<title>Node41&#45;&gt;Node51</title>
<path fill="none" stroke="#191970" d="M2899.276,-224.3733C2871.0075,-215.0613 2828.0035,-200.8953 2796.9656,-190.671"/>
<polygon fill="#191970" stroke="#191970" points="2797.9357,-187.3056 2787.3427,-187.5011 2795.7456,-193.9542 2797.9357,-187.3056"/>
</g>
<!-- Node52 -->
<g id="node41" class="node">
<title>Node52</title>
<g id="a_node41"><a xlink:href="variable_8hpp.html" target="_top" xlink:title="alib/config/variable.hpp">
<polygon fill="#ffffff" stroke="#000000" points="2885.5,-56.5 2885.5,-75.5 3001.5,-75.5 3001.5,-56.5 2885.5,-56.5"/>
<text text-anchor="middle" x="2943.5" y="-63.5" font-family="Helvetica,sans-Serif" font-size="10.00" fill="#000000">alib/config/variable.hpp</text>
</a>
</g>
</g>
<!-- Node41&#45;&gt;Node52 -->
<g id="edge47" class="edge">
<title>Node41&#45;&gt;Node52</title>
<path fill="none" stroke="#191970" d="M2986.929,-224.4928C3026.7105,-216.6903 3074.2826,-204.2816 3086.5,-188 3121.995,-140.6973 3035.5775,-99.2293 2982.0626,-79.0394"/>
<polygon fill="#191970" stroke="#191970" points="2983.0834,-75.6857 2972.4899,-75.5205 2980.6682,-82.2559 2983.0834,-75.6857"/>
</g>
<!-- Node53 -->
<g id="node42" class="node">
<title>Node53</title>
<g id="a_node42"><a xlink:href="plugins_8hpp.html" target="_top" xlink:title="alib/config/plugins.hpp">
<polygon fill="#ffffff" stroke="#000000" points="2888,-112.5 2888,-131.5 3001,-131.5 3001,-112.5 2888,-112.5"/>
<text text-anchor="middle" x="2944.5" y="-119.5" font-family="Helvetica,sans-Serif" font-size="10.00" fill="#000000">alib/config/plugins.hpp</text>
</a>
</g>
</g>
<!-- Node41&#45;&gt;Node53 -->
<g id="edge48" class="edge">
<title>Node41&#45;&gt;Node53</title>
<path fill="none" stroke="#191970" d="M2924.3777,-224.4724C2919.3478,-211.526 2912.1377,-187.7291 2917.5,-168 2920.2176,-158.0015 2925.7175,-147.9556 2931.0484,-139.8139"/>
<polygon fill="#191970" stroke="#191970" points="2933.9755,-141.7354 2936.8381,-131.5346 2928.239,-137.7239 2933.9755,-141.7354"/>
</g>
<!-- Node54 -->
<g id="node43" class="node">
<title>Node54</title>
<g id="a_node43"><a xlink:href="inmemoryplugin_8hpp.html" target="_top" xlink:title="alib/config/inmemoryplugin.hpp">
<polygon fill="#ffffff" stroke="#000000" points="2926,-168.5 2926,-187.5 3077,-187.5 3077,-168.5 2926,-168.5"/>
<text text-anchor="middle" x="3001.5" y="-175.5" font-family="Helvetica,sans-Serif" font-size="10.00" fill="#000000">alib/config/inmemoryplugin.hpp</text>
</a>
</g>
</g>
<!-- Node41&#45;&gt;Node54 -->
<g id="edge49" class="edge">
<title>Node41&#45;&gt;Node54</title>
<path fill="none" stroke="#191970" d="M2941.2156,-224.2455C2952.102,-215.8943 2967.9883,-203.7076 2980.72,-193.9408"/>
<polygon fill="#191970" stroke="#191970" points="2983.1261,-196.5063 2988.9301,-187.6427 2978.8654,-190.9523 2983.1261,-196.5063"/>
</g>
<!-- Node55 -->
<g id="node44" class="node">
<title>Node55</title>
<g id="a_node44"><a xlink:href="tokenizer_8hpp.html" target="_top" xlink:title="alib/strings/tokenizer.hpp">
<polygon fill="#ffffff" stroke="#ff0000" points="2542,-168.5 2542,-187.5 2667,-187.5 2667,-168.5 2542,-168.5"/>
<text text-anchor="middle" x="2604.5" y="-175.5" font-family="Helvetica,sans-Serif" font-size="10.00" fill="#000000">alib/strings/tokenizer.hpp</text>
</a>
</g>
</g>
<!-- Node41&#45;&gt;Node55 -->
<g id="edge50" class="edge">
<title>Node41&#45;&gt;Node55</title>
<path fill="none" stroke="#191970" d="M2873.1706,-224.4369C2816.7885,-214.6918 2729.3742,-199.5832 2669.673,-189.2645"/>
<polygon fill="#191970" stroke="#191970" points="2670.0513,-185.778 2659.6012,-187.5237 2668.859,-192.6758 2670.0513,-185.778"/>
</g>
<!-- Node57&#45;&gt;Node0 -->
<g id="edge57" class="edge">
<title>Node57&#45;&gt;Node0</title>
<path fill="none" stroke="#191970" d="M3013.7451,-299.6427C3015.1665,-306.9199 3015.581,-317.155 3014.9887,-326.1575"/>
<polygon fill="#191970" stroke="#191970" points="3011.4947,-325.8972 3013.7668,-336.2455 3018.4439,-326.739 3011.4947,-325.8972"/>
</g>
<!-- Node58&#45;&gt;Node0 -->
<g id="edge58" class="edge">
<title>Node58&#45;&gt;Node0</title>
<path fill="none" stroke="#191970" d="M3100.0723,-299.5011C3085.3625,-308.3679 3060.8234,-321.7139 3040.7594,-331.8368"/>
<polygon fill="#191970" stroke="#191970" points="3039.0213,-328.792 3031.6203,-336.3733 3042.1337,-335.0621 3039.0213,-328.792"/>
</g>
<!-- Node58&#45;&gt;Node41 -->
<g id="edge59" class="edge">
<title>Node58&#45;&gt;Node41</title>
<path fill="none" stroke="#191970" d="M3088.4452,-282.679C3058.3492,-273.5193 3006.3352,-257.689 2969.8134,-246.5736"/>
<polygon fill="#191970" stroke="#191970" points="2970.5401,-243.1364 2959.9543,-243.573 2968.5019,-249.8331 2970.5401,-243.1364"/>
</g>
<!-- Node58&#45;&gt;Node55 -->
<g id="edge61" class="edge">
<title>Node58&#45;&gt;Node55</title>
<path fill="none" stroke="#191970" d="M3088.115,-286.1613C3027.4317,-276.5457 2872.8977,-251.6502 2850.5,-244 2832.4392,-237.8311 2830.4212,-230.5634 2812.5,-224 2768.7998,-207.9955 2717.8044,-196.6104 2677.2444,-189.1705"/>
<polygon fill="#191970" stroke="#191970" points="2677.629,-185.6837 2667.1682,-187.3636 2676.3934,-192.5738 2677.629,-185.6837"/>
</g>
<!-- Node47 -->
<g id="node45" class="node">
<title>Node47</title>
<polygon fill="#ffffff" stroke="#bfbfbf" points="3456,-168.5 3456,-187.5 3491,-187.5 3491,-168.5 3456,-168.5"/>
<text text-anchor="middle" x="3473.5" y="-175.5" font-family="Helvetica,sans-Serif" font-size="10.00" fill="#000000">map</text>
</g>
<!-- Node58&#45;&gt;Node47 -->
<g id="edge60" class="edge">
<title>Node58&#45;&gt;Node47</title>
<path fill="none" stroke="#191970" d="M3136.6661,-285.0134C3169.4581,-277.8646 3229.5704,-263.3958 3278.5,-244 3296.2421,-236.967 3298.81,-231.1632 3316.5,-224 3360.4938,-206.1857 3413.9511,-192.0276 3445.7707,-184.3433"/>
<polygon fill="#191970" stroke="#191970" points="3446.7659,-187.7044 3455.6873,-181.9896 3445.1493,-180.8936 3446.7659,-187.7044"/>
</g>
<!-- Node59 -->
<g id="node46" class="node">
<title>Node59</title>
<g id="a_node46"><a xlink:href="smartlock_8hpp.html" target="_top" xlink:title="alib/threads/smartlock.hpp">
<polygon fill="#ffffff" stroke="#000000" points="3016,-224.5 3016,-243.5 3147,-243.5 3147,-224.5 3016,-224.5"/>
<text text-anchor="middle" x="3081.5" y="-231.5" font-family="Helvetica,sans-Serif" font-size="10.00" fill="#000000">alib/threads/smartlock.hpp</text>
</a>
</g>
</g>
<!-- Node58&#45;&gt;Node59 -->
<g id="edge62" class="edge">
<title>Node58&#45;&gt;Node59</title>
<path fill="none" stroke="#191970" d="M3107.1002,-280.2455C3102.8773,-272.617 3096.8827,-261.7881 3091.7559,-252.5267"/>
<polygon fill="#191970" stroke="#191970" points="3094.7432,-250.6965 3086.8379,-243.6427 3088.619,-254.0867 3094.7432,-250.6965"/>
</g>
<!-- Node60 -->
<g id="node47" class="node">
<title>Node60</title>
<g id="a_node47"><a xlink:href="scopeinfo_8hpp.html" target="_top" xlink:title="alox/core/scopeinfo.hpp">
<polygon fill="#ffffff" stroke="#ff0000" points="3469.5,-224.5 3469.5,-243.5 3589.5,-243.5 3589.5,-224.5 3469.5,-224.5"/>
<text text-anchor="middle" x="3529.5" y="-231.5" font-family="Helvetica,sans-Serif" font-size="10.00" fill="#000000">alox/core/scopeinfo.hpp</text>
</a>
</g>
</g>
<!-- Node58&#45;&gt;Node60 -->
<g id="edge63" class="edge">
<title>Node58&#45;&gt;Node60</title>
<path fill="none" stroke="#191970" d="M3136.5625,-286.9246C3191.6733,-279.8586 3331.5193,-261.8011 3459.3323,-244.1491"/>
<polygon fill="#191970" stroke="#191970" points="3459.8696,-247.6082 3469.2955,-242.7705 3458.9102,-240.6742 3459.8696,-247.6082"/>
</g>
<!-- Node64 -->
<g id="node48" class="node">
<title>Node64</title>
<g id="a_node48"><a xlink:href="logger_8hpp.html" target="_top" xlink:title="alox/core/logger.hpp">
<polygon fill="#ffffff" stroke="#000000" points="3165.5,-224.5 3165.5,-243.5 3269.5,-243.5 3269.5,-224.5 3165.5,-224.5"/>
<text text-anchor="middle" x="3217.5" y="-231.5" font-family="Helvetica,sans-Serif" font-size="10.00" fill="#000000">alox/core/logger.hpp</text>
</a>
</g>
</g>
<!-- Node58&#45;&gt;Node64 -->
<g id="edge64" class="edge">
<title>Node58&#45;&gt;Node64</title>
<path fill="none" stroke="#191970" d="M3130.7896,-280.2455C3147.2762,-271.4527 3171.7352,-258.4079 3190.4765,-248.4125"/>
<polygon fill="#191970" stroke="#191970" points="3192.2435,-251.4368 3199.42,-243.6427 3188.9494,-245.2604 3192.2435,-251.4368"/>
</g>
<!-- Node65 -->
<g id="node49" class="node">
<title>Node65</title>
<g id="a_node49"><a xlink:href="domain_8hpp.html" target="_top" xlink:title="alox/core/domain.hpp">
<polygon fill="#ffffff" stroke="#000000" points="2693.5,-224.5 2693.5,-243.5 2803.5,-243.5 2803.5,-224.5 2693.5,-224.5"/>
<text text-anchor="middle" x="2748.5" y="-231.5" font-family="Helvetica,sans-Serif" font-size="10.00" fill="#000000">alox/core/domain.hpp</text>
</a>
</g>
</g>
<!-- Node58&#45;&gt;Node65 -->
<g id="edge65" class="edge">
<title>Node58&#45;&gt;Node65</title>
<path fill="none" stroke="#191970" d="M3088.335,-286.2823C3033.0802,-277.7816 2895.9518,-256.6849 2813.7665,-244.041"/>
<polygon fill="#191970" stroke="#191970" points="2814.1955,-240.5659 2803.7795,-242.5045 2813.131,-247.4845 2814.1955,-240.5659"/>
</g>
<!-- Node66 -->
<g id="node50" class="node">
<title>Node66</title>
<g id="a_node50"><a xlink:href="scopestore_8hpp.html" target="_top" xlink:title="alox/core/scopestore.hpp">
<polygon fill="#ffffff" stroke="#000000" points="3325.5,-224.5 3325.5,-243.5 3451.5,-243.5 3451.5,-224.5 3325.5,-224.5"/>
<text text-anchor="middle" x="3388.5" y="-231.5" font-family="Helvetica,sans-Serif" font-size="10.00" fill="#000000">alox/core/scopestore.hpp</text>
</a>
</g>
</g>
<!-- Node58&#45;&gt;Node66 -->
<g id="edge66" class="edge">
<title>Node58&#45;&gt;Node66</title>
<path fill="none" stroke="#191970" d="M3136.5104,-285.1283C3179.6548,-276.3744 3271.3856,-257.7623 3331.4564,-245.5741"/>
<polygon fill="#191970" stroke="#191970" points="3332.4442,-248.9451 3341.5485,-243.5264 3331.0522,-242.0848 3332.4442,-248.9451"/>
</g>
<!-- Node8 -->
<g id="node30" class="node">
<title>Node8</title>
<polygon fill="#ffffff" stroke="#bfbfbf" points="2087,-56.5 2087,-75.5 2138,-75.5 2138,-56.5 2087,-56.5"/>
<text text-anchor="middle" x="2112.5" y="-63.5" font-family="Helvetica,sans-Serif" font-size="10.00" fill="#000000">typeinfo</text>
</g>
<!-- Node7&#45;&gt;Node8 -->
<g id="edge29" class="edge">
<title>Node7&#45;&gt;Node8</title>
<path fill="none" stroke="#191970" d="M2283.2118,-112.4863C2250.4099,-103.844 2200.5469,-90.6018 2147.9495,-76.0918"/>
<polygon fill="#191970" stroke="#191970" points="2148.6712,-72.6601 2138.1001,-73.3685 2146.8057,-79.4069 2148.6712,-72.6601"/>
</g>
<!-- Node9 -->
<g id="node31" class="node">
<title>Node9</title>
<polygon fill="#ffffff" stroke="#bfbfbf" points="2156,-56.5 2156,-75.5 2215,-75.5 2215,-56.5 2156,-56.5"/>
<text text-anchor="middle" x="2185.5" y="-63.5" font-family="Helvetica,sans-Serif" font-size="10.00" fill="#000000">functional</text>
</g>
<!-- Node7&#45;&gt;Node9 -->
<g id="edge30" class="edge">
<title>Node7&#45;&gt;Node9</title>
<path fill="none" stroke="#191970" d="M2296.4646,-112.3733C2274.7612,-103.3032 2242.0382,-89.6279 2217.745,-79.4755"/>
<polygon fill="#191970" stroke="#191970" points="2218.8111,-76.1278 2208.2348,-75.5011 2216.1119,-82.5865 2218.8111,-76.1278"/>
</g>
<!-- Node10 -->
<g id="node32" class="node">
<title>Node10</title>
<polygon fill="#ffffff" stroke="#bfbfbf" points="2233,-56.5 2233,-75.5 2316,-75.5 2316,-56.5 2233,-56.5"/>
<text text-anchor="middle" x="2274.5" y="-63.5" font-family="Helvetica,sans-Serif" font-size="10.00" fill="#000000">unordered_map</text>
</g>
<!-- Node7&#45;&gt;Node10 -->
<g id="edge31" class="edge">
<title>Node7&#45;&gt;Node10</title>
<path fill="none" stroke="#191970" d="M2311.6616,-112.2455C2305.338,-104.3761 2296.2776,-93.101 2288.6864,-83.6542"/>
<polygon fill="#191970" stroke="#191970" points="2291.2408,-81.2454 2282.2486,-75.6427 2285.7842,-85.6302 2291.2408,-81.2454"/>
</g>
<!-- Node11&#45;&gt;Node12 -->
<g id="edge32" class="edge">
<title>Node11&#45;&gt;Node12</title>
<path fill="none" stroke="#191970" d="M2447.0736,-56.6269C2518.5488,-44.7848 2639.1258,-24.8076 2696.4166,-15.3156"/>
<polygon fill="#191970" stroke="#191970" points="2697.058,-18.7571 2706.3514,-13.6696 2695.9138,-11.8513 2697.058,-18.7571"/>
</g>
<!-- Node15 -->
<g id="node33" class="node">
<title>Node15</title>
<polygon fill="#ffffff" stroke="#bfbfbf" points="1238,-56.5 1238,-75.5 1287,-75.5 1287,-56.5 1238,-56.5"/>
<text text-anchor="middle" x="1262.5" y="-63.5" font-family="Helvetica,sans-Serif" font-size="10.00" fill="#000000">string.h</text>
</g>
<!-- Node14&#45;&gt;Node15 -->
<g id="edge33" class="edge">
<title>Node14&#45;&gt;Node15</title>
<path fill="none" stroke="#191970" d="M1223.6868,-112.2455C1230.3589,-104.2958 1239.9479,-92.8706 1247.9253,-83.3656"/>
<polygon fill="#191970" stroke="#191970" points="1250.6592,-85.5525 1254.407,-75.6427 1245.2974,-81.0524 1250.6592,-85.5525"/>
</g>
<!-- Node16 -->
<g id="node34" class="node">
<title>Node16</title>
<g id="a_node34"><a xlink:href="interface_8hpp.html" target="_top" xlink:title="alib/boxing/interface.hpp">
<polygon fill="#ffffff" stroke="#000000" points="978.5,-56.5 978.5,-75.5 1100.5,-75.5 1100.5,-56.5 978.5,-56.5"/>
<text text-anchor="middle" x="1039.5" y="-63.5" font-family="Helvetica,sans-Serif" font-size="10.00" fill="#000000">alib/boxing/interface.hpp</text>
</a>
</g>
</g>
<!-- Node14&#45;&gt;Node16 -->
<g id="edge34" class="edge">
<title>Node14&#45;&gt;Node16</title>
<path fill="none" stroke="#191970" d="M1185.2445,-112.3733C1155.8517,-103.021 1111.0708,-88.7725 1078.9066,-78.5385"/>
<polygon fill="#191970" stroke="#191970" points="1079.9512,-75.198 1069.3607,-75.5011 1077.8287,-81.8685 1079.9512,-75.198"/>
</g>
<!-- Node17 -->
<g id="node35" class="node">
<title>Node17</title>
<g id="a_node35"><a xlink:href="boxer_8hpp.html" target="_top" xlink:title="alib/boxing/boxer.hpp">
<polygon fill="#ffffff" stroke="#000000" points="1434.5,-56.5 1434.5,-75.5 1542.5,-75.5 1542.5,-56.5 1434.5,-56.5"/>
<text text-anchor="middle" x="1488.5" y="-63.5" font-family="Helvetica,sans-Serif" font-size="10.00" fill="#000000">alib/boxing/boxer.hpp</text>
</a>
</g>
</g>
<!-- Node14&#45;&gt;Node17 -->
<g id="edge35" class="edge">
<title>Node14&#45;&gt;Node17</title>
<path fill="none" stroke="#191970" d="M1256.8906,-112.4369C1302.1021,-102.7724 1374.8171,-87.8326 1426.7543,-77.5213"/>
<polygon fill="#191970" stroke="#191970" points="1427.7199,-80.8982 1436.8504,-75.5237 1426.3612,-74.0313 1427.7199,-80.8982"/>
</g>
<!-- Node18 -->
<g id="node36" class="node">
<title>Node18</title>
<g id="a_node36"><a xlink:href="box_8hpp.html" target="_top" xlink:title="alib/boxing/box.hpp">
<polygon fill="#ffffff" stroke="#000000" points="1119,-56.5 1119,-75.5 1220,-75.5 1220,-56.5 1119,-56.5"/>
<text text-anchor="middle" x="1169.5" y="-63.5" font-family="Helvetica,sans-Serif" font-size="10.00" fill="#000000">alib/boxing/box.hpp</text>
</a>
</g>
</g>
<!-- Node14&#45;&gt;Node18 -->
<g id="edge36" class="edge">
<title>Node14&#45;&gt;Node18</title>
<path fill="none" stroke="#191970" d="M1202.2206,-112.2455C1194.3183,-104.4564 1184.8192,-93.3308 1177.8925,-83.9439"/>
<polygon fill="#191970" stroke="#191970" points="1180.7301,-81.8934 1172.1756,-75.6427 1174.9649,-85.8638 1180.7301,-81.8934"/>
</g>
<!-- Node19 -->
<g id="node37" class="node">
<title>Node19</title>
<g id="a_node37"><a xlink:href="boxes_8hpp.html" target="_top" xlink:title="alib/boxing/boxes.hpp">
<polygon fill="#ffffff" stroke="#000000" points="1305,-56.5 1305,-75.5 1416,-75.5 1416,-56.5 1305,-56.5"/>
<text text-anchor="middle" x="1360.5" y="-63.5" font-family="Helvetica,sans-Serif" font-size="10.00" fill="#000000">alib/boxing/boxes.hpp</text>
</a>
</g>
</g>
<!-- Node14&#45;&gt;Node19 -->
<g id="edge37" class="edge">
<title>Node14&#45;&gt;Node19</title>
<path fill="none" stroke="#191970" d="M1235.1844,-112.3733C1257.281,-103.1419 1293.3516,-89.1402 1321.2076,-78.9375"/>
<polygon fill="#191970" stroke="#191970" points="1322.4743,-82.2012 1330.6816,-75.5011 1320.0874,-75.6207 1322.4743,-82.2012"/>
</g>
<!-- Node17&#45;&gt;Node12 -->
<g id="edge38" class="edge">
<title>Node17&#45;&gt;Node12</title>
<path fill="none" stroke="#191970" d="M1542.5786,-63.5577C1754.9055,-53.9688 2528.063,-19.052 2696.1185,-11.4624"/>
<polygon fill="#191970" stroke="#191970" points="2696.4687,-14.9502 2706.3006,-11.0026 2696.1528,-7.9574 2696.4687,-14.9502"/>
</g>
<!-- Node17&#45;&gt;Node14 -->
<g id="edge39" class="edge">
<title>Node17&#45;&gt;Node14</title>
<path fill="none" stroke="#191970" d="M1447.2939,-75.5237C1402.1574,-85.1738 1329.4516,-100.1127 1277.458,-110.4366"/>
<polygon fill="#191970" stroke="#191970" points="1276.48,-107.0622 1267.3497,-112.4369 1277.8389,-113.929 1276.48,-107.0622"/>
</g>
<!-- Node18&#45;&gt;Node14 -->
<g id="edge40" class="edge">
<title>Node18&#45;&gt;Node14</title>
<path fill="none" stroke="#191970" d="M1182.6659,-75.6427C1190.5528,-83.3997 1200.0564,-94.5176 1207.0077,-103.9209"/>
<polygon fill="#191970" stroke="#191970" points="1204.1929,-106.0043 1212.7543,-112.2455 1209.9536,-102.0276 1204.1929,-106.0043"/>
</g>
<!-- Node19&#45;&gt;Node12 -->
<g id="edge41" class="edge">
<title>Node19&#45;&gt;Node12</title>
<path fill="none" stroke="#191970" d="M1416.1158,-57.0046C1419.2861,-56.6287 1422.4309,-56.2893 1425.5,-56 1683.2092,-31.7118 2520.458,-14.1061 2696.0244,-10.6287"/>
<polygon fill="#191970" stroke="#191970" points="2696.2413,-14.1252 2706.1705,-10.4289 2696.1035,-7.1265 2696.2413,-14.1252"/>
</g>
<!-- Node19&#45;&gt;Node14 -->
<g id="edge42" class="edge">
<title>Node19&#45;&gt;Node14</title>
<path fill="none" stroke="#191970" d="M1341.1162,-75.5011C1319.1471,-84.6889 1283.1031,-98.686 1255.1729,-108.9231"/>
<polygon fill="#191970" stroke="#191970" points="1253.874,-105.6711 1245.6684,-112.3733 1256.2625,-112.251 1253.874,-105.6711"/>
</g>
<!-- Node52&#45;&gt;Node12 -->
<g id="edge51" class="edge">
<title>Node52&#45;&gt;Node12</title>
<path fill="none" stroke="#191970" d="M2906.5402,-56.3733C2865.3205,-45.637 2799.3274,-28.4481 2760.3182,-18.2875"/>
<polygon fill="#191970" stroke="#191970" points="2761.1031,-14.8753 2750.5438,-15.7416 2759.3387,-21.6493 2761.1031,-14.8753"/>
</g>
<!-- Node53&#45;&gt;Node50 -->
<g id="edge52" class="edge">
<title>Node53&#45;&gt;Node50</title>
<path fill="none" stroke="#191970" d="M2920.4331,-112.3733C2897.6572,-103.2629 2863.2656,-89.5062 2837.851,-79.3404"/>
<polygon fill="#191970" stroke="#191970" points="2838.8375,-75.9654 2828.2528,-75.5011 2836.2377,-82.4648 2838.8375,-75.9654"/>
</g>
<!-- Node53&#45;&gt;Node52 -->
<g id="edge53" class="edge">
<title>Node53&#45;&gt;Node52</title>
<path fill="none" stroke="#191970" d="M2944.3258,-112.2455C2944.1953,-104.9382 2944.0124,-94.6944 2943.8519,-85.7046"/>
<polygon fill="#191970" stroke="#191970" points="2947.3503,-85.5786 2943.6722,-75.6427 2940.3514,-85.7036 2947.3503,-85.5786"/>
</g>
<!-- Node54&#45;&gt;Node12 -->
<g id="edge54" class="edge">
<title>Node54&#45;&gt;Node12</title>
<path fill="none" stroke="#191970" d="M3006.2415,-168.3682C3016.6189,-145.7492 3038.2866,-88.6864 3010.5,-56 2994.4559,-37.1267 2831.7665,-19.7006 2761.0419,-12.9534"/>
<polygon fill="#191970" stroke="#191970" points="2761.1932,-9.4523 2750.9093,-12 2760.5374,-16.4215 2761.1932,-9.4523"/>
</g>
<!-- Node54&#45;&gt;Node53 -->
<g id="edge55" class="edge">
<title>Node54&#45;&gt;Node53</title>
<path fill="none" stroke="#191970" d="M2991.5714,-168.2455C2983.3162,-160.1352 2971.3791,-148.4075 2961.5918,-138.7919"/>
<polygon fill="#191970" stroke="#191970" points="2963.9011,-136.1542 2954.3149,-131.6427 2958.9954,-141.1476 2963.9011,-136.1542"/>
</g>
<!-- Node55&#45;&gt;Node50 -->
<g id="edge56" class="edge">
<title>Node55&#45;&gt;Node50</title>
<path fill="none" stroke="#191970" d="M2621.5519,-168.4509C2656.6069,-148.8201 2736.9538,-103.8259 2778.5228,-80.5472"/>
<polygon fill="#191970" stroke="#191970" points="2780.4763,-83.4647 2787.4913,-75.5249 2777.0561,-77.3572 2780.4763,-83.4647"/>
</g>
<!-- Node59&#45;&gt;Node12 -->
<g id="edge67" class="edge">
<title>Node59&#45;&gt;Node12</title>
<path fill="none" stroke="#191970" d="M3147.1838,-225.3378C3212.288,-216.0801 3303.8316,-200.9806 3314.5,-188 3320.144,-181.1328 3319.3812,-175.4288 3314.5,-168 3245.6319,-63.1879 3176.2361,-89.929 3055.5,-56 2950.285,-26.4327 2820.4393,-15.3927 2760.991,-11.6825"/>
<polygon fill="#191970" stroke="#191970" points="2760.922,-8.1723 2750.7318,-11.0722 2760.5062,-15.16 2760.922,-8.1723"/>
</g>
<!-- Node59&#45;&gt;Node42 -->
<g id="edge68" class="edge">
<title>Node59&#45;&gt;Node42</title>
<path fill="none" stroke="#191970" d="M3108.4893,-224.3733C3134.3699,-215.1419 3173.6248,-201.1402 3202.2289,-190.9375"/>
<polygon fill="#191970" stroke="#191970" points="3203.62,-194.1573 3211.8629,-187.5011 3201.2683,-187.5642 3203.62,-194.1573"/>
</g>
<!-- Node60&#45;&gt;Node0 -->
<g id="edge69" class="edge">
<title>Node60&#45;&gt;Node0</title>
<path fill="none" stroke="#191970" d="M3485.1343,-243.5373C3383.9689,-265.285 3137.7986,-318.2045 3044.8448,-338.1869"/>
<polygon fill="#191970" stroke="#191970" points="3044.0938,-334.7683 3035.0527,-340.2919 3045.565,-341.612 3044.0938,-334.7683"/>
</g>
<!-- Node60&#45;&gt;Node47 -->
<g id="edge70" class="edge">
<title>Node60&#45;&gt;Node47</title>
<path fill="none" stroke="#191970" d="M3519.7455,-224.2455C3511.6352,-216.1352 3499.9075,-204.4075 3490.2919,-194.7919"/>
<polygon fill="#191970" stroke="#191970" points="3492.6887,-192.2389 3483.1427,-187.6427 3487.7389,-197.1887 3492.6887,-192.2389"/>
</g>
<!-- Node64&#45;&gt;Node0 -->
<g id="edge71" class="edge">
<title>Node64&#45;&gt;Node0</title>
<path fill="none" stroke="#191970" d="M3209.1818,-243.8966C3196.7052,-258.1629 3171.7898,-284.4923 3145.5,-300 3113.9357,-318.619 3073.7916,-330.9663 3045.1335,-338.1374"/>
<polygon fill="#191970" stroke="#191970" points="3044.0339,-334.802 3035.132,-340.5472 3045.6737,-341.6073 3044.0339,-334.802"/>
</g>
<!-- Node64&#45;&gt;Node12 -->
<g id="edge72" class="edge">
<title>Node64&#45;&gt;Node12</title>
<path fill="none" stroke="#191970" d="M3251.8082,-224.4883C3281.2841,-215.5407 3320.429,-201.5319 3329.5,-188 3350.4499,-156.7475 3301.2834,-121.2916 3288.5,-112 3224.1526,-65.2291 3196.1698,-73.1901 3118.5,-56 2987.9731,-27.1114 2828.5944,-15.49 2761.1401,-11.6325"/>
<polygon fill="#191970" stroke="#191970" points="2760.9279,-8.1155 2750.7501,-11.0588 2760.5419,-15.1049 2760.9279,-8.1155"/>
</g>
<!-- Node65&#45;&gt;Node0 -->
<g id="edge73" class="edge">
<title>Node65&#45;&gt;Node0</title>
<path fill="none" stroke="#191970" d="M2758.3343,-243.5594C2773.604,-257.8851 2804.4973,-284.8539 2835.5,-300 2879.8497,-321.6667 2935.7573,-334.1546 2971.8117,-340.5133"/>
<polygon fill="#191970" stroke="#191970" points="2971.4338,-343.9991 2981.8782,-342.2201 2972.604,-337.0976 2971.4338,-343.9991"/>
</g>
<!-- Node65&#45;&gt;Node12 -->
<g id="edge74" class="edge">
<title>Node65&#45;&gt;Node12</title>
<path fill="none" stroke="#191970" d="M2693.3012,-229.9273C2636.3872,-224.4447 2553.2417,-212.4123 2533.5,-188 2475.6721,-116.4909 2628.2591,-47.7371 2696.9665,-21.3422"/>
<polygon fill="#191970" stroke="#191970" points="2698.3396,-24.565 2706.46,-17.7599 2695.8683,-18.0158 2698.3396,-24.565"/>
</g>
<!-- Node66&#45;&gt;Node0 -->
<g id="edge75" class="edge">
<title>Node66&#45;&gt;Node0</title>
<path fill="none" stroke="#191970" d="M3358.1607,-243.512C3316.4255,-256.5415 3238.9165,-280.5413 3172.5,-300 3128.7799,-312.8091 3078.2858,-326.8609 3045.0052,-336.0205"/>
<polygon fill="#191970" stroke="#191970" points="3043.9711,-332.6748 3035.2559,-338.6993 3045.8258,-339.4247 3043.9711,-332.6748"/>
</g>
</g>
</svg>
