<?xml version="1.0" encoding="UTF-8" standalone="no"?>
<!DOCTYPE svg PUBLIC "-//W3C//DTD SVG 1.1//EN"
 "http://www.w3.org/Graphics/SVG/1.1/DTD/svg11.dtd">
<!-- Generated by graphviz version 2.40.1 (20161225.0304)
 -->
<!-- Title: alox_macros.hpp Pages: 1 -->
<svg width="1109pt" height="364pt"
 viewBox="0.00 0.00 1108.50 364.00" xmlns="http://www.w3.org/2000/svg" xmlns:xlink="http://www.w3.org/1999/xlink">
<g id="graph0" class="graph" transform="scale(1 1) rotate(0) translate(4 360)">
<title>alox_macros.hpp</title>
<polygon fill="#ffffff" stroke="transparent" points="-4,4 -4,-360 1104.5,-360 1104.5,4 -4,4"/>
<!-- Node1 -->
<g id="node1" class="node">
<title>Node1</title>
<polygon fill="#bfbfbf" stroke="#000000" points="486.5,-336.5 486.5,-355.5 577.5,-355.5 577.5,-336.5 486.5,-336.5"/>
<text text-anchor="middle" x="532" y="-343.5" font-family="Helvetica,sans-Serif" font-size="10.00" fill="#000000">alox_macros.hpp</text>
</g>
<!-- Node2 -->
<g id="node2" class="node">
<title>Node2</title>
<g id="a_node2"><a xlink:href="alox_8hpp.html" target="_top" xlink:title="alox.hpp">
<polygon fill="#ffffff" stroke="#000000" points="505.5,-280.5 505.5,-299.5 558.5,-299.5 558.5,-280.5 505.5,-280.5"/>
<text text-anchor="middle" x="532" y="-287.5" font-family="Helvetica,sans-Serif" font-size="10.00" fill="#000000">alox.hpp</text>
</a>
</g>
</g>
<!-- Node1&#45;&gt;Node2 -->
<g id="edge1" class="edge">
<title>Node1&#45;&gt;Node2</title>
<path fill="none" stroke="#191970" d="M532,-326.1575C532,-317.155 532,-306.9199 532,-299.6427"/>
<polygon fill="#191970" stroke="#191970" points="528.5001,-326.2455 532,-336.2455 535.5001,-326.2456 528.5001,-326.2455"/>
</g>
<!-- Node3 -->
<g id="node3" class="node">
<title>Node3</title>
<g id="a_node3"><a xlink:href="log_8hpp.html" target="_top" xlink:title="log.hpp">
<polygon fill="#ffffff" stroke="#000000" points="0,-224.5 0,-243.5 48,-243.5 48,-224.5 0,-224.5"/>
<text text-anchor="middle" x="24" y="-231.5" font-family="Helvetica,sans-Serif" font-size="10.00" fill="#000000">log.hpp</text>
</a>
</g>
</g>
<!-- Node2&#45;&gt;Node3 -->
<g id="edge2" class="edge">
<title>Node2&#45;&gt;Node3</title>
<path fill="none" stroke="#191970" d="M495.0575,-289.0674C413.3493,-286.365 212.3152,-276.5201 48,-244 47.2953,-243.8605 46.5841,-243.7122 45.8696,-243.556"/>
<polygon fill="#191970" stroke="#191970" points="495.2225,-292.5742 505.3274,-289.3896 495.4421,-285.5776 495.2225,-292.5742"/>
</g>
<!-- Node4 -->
<g id="node4" class="node">
<title>Node4</title>
<g id="a_node4"><a xlink:href="lox_8hpp.html" target="_top" xlink:title="lox.hpp">
<polygon fill="#ffffff" stroke="#000000" points="242,-168.5 242,-187.5 290,-187.5 290,-168.5 242,-168.5"/>
<text text-anchor="middle" x="266" y="-175.5" font-family="Helvetica,sans-Serif" font-size="10.00" fill="#000000">lox.hpp</text>
</a>
</g>
</g>
<!-- Node2&#45;&gt;Node4 -->
<g id="edge3" class="edge">
<title>Node2&#45;&gt;Node4</title>
<path fill="none" stroke="#191970" d="M495.1862,-287.4829C434.4191,-282.3662 317.3507,-269.0555 286,-244 268.206,-229.7791 261.0553,-202.42 261.6421,-187.7913"/>
<polygon fill="#191970" stroke="#191970" points="495.2425,-290.9988 505.4922,-288.3167 495.807,-284.0216 495.2425,-290.9988"/>
</g>
<!-- Node5 -->
<g id="node5" class="node">
<title>Node5</title>
<g id="a_node5"><a xlink:href="alox__console__loggers_8hpp.html" target="_top" xlink:title="alox_console_loggers.hpp">
<polygon fill="#ffffff" stroke="#000000" points="528.5,-.5 528.5,-19.5 657.5,-19.5 657.5,-.5 528.5,-.5"/>
<text text-anchor="middle" x="593" y="-7.5" font-family="Helvetica,sans-Serif" font-size="10.00" fill="#000000">alox_console_loggers.hpp</text>
</a>
</g>
</g>
<!-- Node2&#45;&gt;Node5 -->
<g id="edge4" class="edge">
<title>Node2&#45;&gt;Node5</title>
<path fill="none" stroke="#191970" d="M568.7134,-289.1154C679.5161,-285.4616 1003,-267.1596 1003,-178 1003,-178 1003,-178 1003,-122 1003,-91.4754 1007.2716,-75.7531 984,-56 959.6389,-35.3221 762.2363,-20.3084 657.5937,-13.7173"/>
<polygon fill="#191970" stroke="#191970" points="568.5598,-285.6184 558.6725,-289.4252 568.7757,-292.6151 568.5598,-285.6184"/>
</g>
<!-- Node6 -->
<g id="node6" class="node">
<title>Node6</title>
<g id="a_node6"><a xlink:href="domain_8hpp.html" target="_top" xlink:title="domain.hpp">
<polygon fill="#ffffff" stroke="#000000" points="66.5,-224.5 66.5,-243.5 133.5,-243.5 133.5,-224.5 66.5,-224.5"/>
<text text-anchor="middle" x="100" y="-231.5" font-family="Helvetica,sans-Serif" font-size="10.00" fill="#000000">domain.hpp</text>
</a>
</g>
</g>
<!-- Node2&#45;&gt;Node6 -->
<g id="edge5" class="edge">
<title>Node2&#45;&gt;Node6</title>
<path fill="none" stroke="#191970" d="M495.3773,-287.1121C426.04,-281.3281 270.9805,-266.8813 142,-244 139.3431,-243.5287 136.6029,-242.9921 133.8553,-242.4181"/>
<polygon fill="#191970" stroke="#191970" points="495.1091,-290.6017 505.3627,-287.9343 495.6837,-283.6253 495.1091,-290.6017"/>
</g>
<!-- Node7 -->
<g id="node7" class="node">
<title>Node7</title>
<g id="a_node7"><a xlink:href="logger_8hpp.html" target="_top" xlink:title="logger.hpp">
<polygon fill="#ffffff" stroke="#000000" points="404.5,-224.5 404.5,-243.5 465.5,-243.5 465.5,-224.5 404.5,-224.5"/>
<text text-anchor="middle" x="435" y="-231.5" font-family="Helvetica,sans-Serif" font-size="10.00" fill="#000000">logger.hpp</text>
</a>
</g>
</g>
<!-- Node2&#45;&gt;Node7 -->
<g id="edge6" class="edge">
<title>Node2&#45;&gt;Node7</title>
<path fill="none" stroke="#191970" d="M506.0984,-275.0465C488.8391,-265.0824 466.6624,-252.2794 451.7025,-243.6427"/>
<polygon fill="#191970" stroke="#191970" points="504.6936,-278.2768 515.1039,-280.2455 508.1935,-272.2146 504.6936,-278.2768"/>
</g>
<!-- Node8 -->
<g id="node8" class="node">
<title>Node8</title>
<g id="a_node8"><a xlink:href="textlogger_8hpp.html" target="_top" xlink:title="textlogger.hpp">
<polygon fill="#ffffff" stroke="#000000" points="569.5,-168.5 569.5,-187.5 646.5,-187.5 646.5,-168.5 569.5,-168.5"/>
<text text-anchor="middle" x="608" y="-175.5" font-family="Helvetica,sans-Serif" font-size="10.00" fill="#000000">textlogger.hpp</text>
</a>
</g>
</g>
<!-- Node2&#45;&gt;Node8 -->
<g id="edge7" class="edge">
<title>Node2&#45;&gt;Node8</title>
<path fill="none" stroke="#191970" d="M554.6849,-274.0669C564.7918,-266.0183 576.1578,-255.5207 584,-244 596.2122,-226.0595 603.0448,-201.1592 606.0748,-187.6511"/>
<polygon fill="#191970" stroke="#191970" points="552.4358,-271.3802 546.5962,-280.2204 556.6741,-276.9513 552.4358,-271.3802"/>
</g>
<!-- Node9 -->
<g id="node9" class="node">
<title>Node9</title>
<g id="a_node9"><a xlink:href="plaintextlogger_8hpp.html" target="_top" xlink:title="plaintextlogger.hpp">
<polygon fill="#ffffff" stroke="#000000" points="741,-112.5 741,-131.5 839,-131.5 839,-112.5 741,-112.5"/>
<text text-anchor="middle" x="790" y="-119.5" font-family="Helvetica,sans-Serif" font-size="10.00" fill="#000000">plaintextlogger.hpp</text>
</a>
</g>
</g>
<!-- Node2&#45;&gt;Node9 -->
<g id="edge8" class="edge">
<title>Node2&#45;&gt;Node9</title>
<path fill="none" stroke="#191970" d="M568.6063,-285.0785C617.9992,-277.8233 702.6196,-263.0349 727,-244 765.1425,-214.2203 782.4077,-154.9558 787.9218,-131.693"/>
<polygon fill="#191970" stroke="#191970" points="568.036,-281.6244 558.6354,-286.5111 569.0316,-288.5532 568.036,-281.6244"/>
</g>
<!-- Node10 -->
<g id="node10" class="node">
<title>Node10</title>
<g id="a_node10"><a xlink:href="consolelogger_8hpp.html" target="_top" xlink:title="consolelogger.hpp">
<polygon fill="#ffffff" stroke="#000000" points="879.5,-56.5 879.5,-75.5 974.5,-75.5 974.5,-56.5 879.5,-56.5"/>
<text text-anchor="middle" x="927" y="-63.5" font-family="Helvetica,sans-Serif" font-size="10.00" fill="#000000">consolelogger.hpp</text>
</a>
</g>
</g>
<!-- Node2&#45;&gt;Node10 -->
<g id="edge9" class="edge">
<title>Node2&#45;&gt;Node10</title>
<path fill="none" stroke="#191970" d="M568.8633,-285.6677C628.3813,-278.2537 742.6512,-262.1635 779,-244 855.9347,-205.5558 907.6653,-107.0006 922.5686,-75.697"/>
<polygon fill="#191970" stroke="#191970" points="568.2623,-282.2151 558.7635,-286.9079 569.1155,-289.1629 568.2623,-282.2151"/>
</g>
<!-- Node11 -->
<g id="node11" class="node">
<title>Node11</title>
<g id="a_node11"><a xlink:href="memorylogger_8hpp.html" target="_top" xlink:title="memorylogger.hpp">
<polygon fill="#ffffff" stroke="#000000" points="657,-56.5 657,-75.5 753,-75.5 753,-56.5 657,-56.5"/>
<text text-anchor="middle" x="705" y="-63.5" font-family="Helvetica,sans-Serif" font-size="10.00" fill="#000000">memorylogger.hpp</text>
</a>
</g>
</g>
<!-- Node2&#45;&gt;Node11 -->
<g id="edge10" class="edge">
<title>Node2&#45;&gt;Node11</title>
<path fill="none" stroke="#191970" d="M568.5132,-279.8184C589.9476,-272.4765 616.5555,-260.8597 636,-244 689.0872,-197.97 701.5683,-106.1064 704.2904,-75.888"/>
<polygon fill="#191970" stroke="#191970" points="567.1944,-276.5669 558.7677,-282.9889 569.36,-283.2235 567.1944,-276.5669"/>
</g>
<!-- Node12 -->
<g id="node12" class="node">
<title>Node12</title>
<g id="a_node12"><a xlink:href="textfilelogger_8hpp.html" target="_top" xlink:title="textfilelogger.hpp">
<polygon fill="#ffffff" stroke="#000000" points="771,-56.5 771,-75.5 861,-75.5 861,-56.5 771,-56.5"/>
<text text-anchor="middle" x="816" y="-63.5" font-family="Helvetica,sans-Serif" font-size="10.00" fill="#000000">textfilelogger.hpp</text>
</a>
</g>
</g>
<!-- Node2&#45;&gt;Node12 -->
<g id="edge11" class="edge">
<title>Node2&#45;&gt;Node12</title>
<path fill="none" stroke="#191970" d="M569.0299,-285.0767C622.8922,-277.4339 719.7282,-261.7353 750,-244 807.07,-210.5646 824.7357,-193.9168 848,-132 855.7933,-111.2584 838.2094,-88.2221 826.1451,-75.5925"/>
<polygon fill="#191970" stroke="#191970" points="568.2829,-281.647 558.8629,-286.4961 569.2508,-288.5797 568.2829,-281.647"/>
</g>
<!-- Node13 -->
<g id="node13" class="node">
<title>Node13</title>
<g id="a_node13"><a xlink:href="vstudiologger_8hpp.html" target="_top" xlink:title="vstudiologger.hpp">
<polygon fill="#ffffff" stroke="#000000" points="547,-56.5 547,-75.5 639,-75.5 639,-56.5 547,-56.5"/>
<text text-anchor="middle" x="593" y="-63.5" font-family="Helvetica,sans-Serif" font-size="10.00" fill="#000000">vstudiologger.hpp</text>
</a>
</g>
</g>
<!-- Node2&#45;&gt;Node13 -->
<g id="edge12" class="edge">
<title>Node2&#45;&gt;Node13</title>
<path fill="none" stroke="#191970" d="M522.7747,-271.0171C516.2714,-257.7686 507.2799,-239.7152 499,-224 473.5048,-175.6099 415.6969,-156.1375 448,-112 459.8932,-95.7496 509.0718,-82.5364 546.8933,-74.5085"/>
<polygon fill="#191970" stroke="#191970" points="519.6747,-272.6453 527.2098,-280.0934 525.9641,-269.572 519.6747,-272.6453"/>
</g>
<!-- Node14 -->
<g id="node14" class="node">
<title>Node14</title>
<g id="a_node14"><a xlink:href="ansilogger_8hpp.html" target="_top" xlink:title="ansilogger.hpp">
<polygon fill="#ffffff" stroke="#000000" points="456.5,-112.5 456.5,-131.5 535.5,-131.5 535.5,-112.5 456.5,-112.5"/>
<text text-anchor="middle" x="496" y="-119.5" font-family="Helvetica,sans-Serif" font-size="10.00" fill="#000000">ansilogger.hpp</text>
</a>
</g>
</g>
<!-- Node2&#45;&gt;Node14 -->
<g id="edge13" class="edge">
<title>Node2&#45;&gt;Node14</title>
<path fill="none" stroke="#191970" d="M540.5822,-270.6938C545.3425,-257.5122 549.6332,-239.6662 546,-224 537.5346,-187.4979 514.0929,-148.9927 502.5685,-131.5646"/>
<polygon fill="#191970" stroke="#191970" points="537.2702,-269.5497 536.8063,-280.1344 543.7697,-272.1493 537.2702,-269.5497"/>
</g>
<!-- Node15 -->
<g id="node15" class="node">
<title>Node15</title>
<g id="a_node15"><a xlink:href="windowsconsolelogger_8hpp.html" target="_top" xlink:title="windowsconsolelogger.hpp">
<polygon fill="#ffffff" stroke="#000000" points="553.5,-112.5 553.5,-131.5 684.5,-131.5 684.5,-112.5 553.5,-112.5"/>
<text text-anchor="middle" x="619" y="-119.5" font-family="Helvetica,sans-Serif" font-size="10.00" fill="#000000">windowsconsolelogger.hpp</text>
</a>
</g>
</g>
<!-- Node2&#45;&gt;Node15 -->
<g id="edge14" class="edge">
<title>Node2&#45;&gt;Node15</title>
<path fill="none" stroke="#191970" d="M562.9955,-275.8774C593.9537,-259.7364 639.2719,-230.0109 656,-188 664.3584,-167.0089 644.7828,-144.4311 631.0364,-131.8745"/>
<polygon fill="#191970" stroke="#191970" points="561.2605,-272.8321 553.8963,-280.4492 564.4032,-279.087 561.2605,-272.8321"/>
</g>
<!-- Node16 -->
<g id="node16" class="node">
<title>Node16</title>
<g id="a_node16"><a xlink:href="scopedump_8hpp.html" target="_top" xlink:title="scopedump.hpp">
<polygon fill="#ffffff" stroke="#000000" points="329,-168.5 329,-187.5 415,-187.5 415,-168.5 329,-168.5"/>
<text text-anchor="middle" x="372" y="-175.5" font-family="Helvetica,sans-Serif" font-size="10.00" fill="#000000">scopedump.hpp</text>
</a>
</g>
</g>
<!-- Node2&#45;&gt;Node16 -->
<g id="edge15" class="edge">
<title>Node2&#45;&gt;Node16</title>
<path fill="none" stroke="#191970" d="M519.6538,-271.708C509.1488,-257.2453 492.9413,-237.3367 475,-224 452.8385,-207.5262 423.8432,-195.2448 402.2648,-187.535"/>
<polygon fill="#191970" stroke="#191970" points="517.0805,-274.1335 525.6946,-280.3018 522.8073,-270.108 517.0805,-274.1335"/>
</g>
<!-- Node17 -->
<g id="node17" class="node">
<title>Node17</title>
<g id="a_node17"><a xlink:href="scopestore_8hpp.html" target="_top" xlink:title="scopestore.hpp">
<polygon fill="#ffffff" stroke="#000000" points="303.5,-224.5 303.5,-243.5 386.5,-243.5 386.5,-224.5 303.5,-224.5"/>
<text text-anchor="middle" x="345" y="-231.5" font-family="Helvetica,sans-Serif" font-size="10.00" fill="#000000">scopestore.hpp</text>
</a>
</g>
</g>
<!-- Node2&#45;&gt;Node17 -->
<g id="edge16" class="edge">
<title>Node2&#45;&gt;Node17</title>
<path fill="none" stroke="#191970" d="M495.5031,-279.0704C460.962,-268.7266 409.6366,-253.3564 376.7485,-243.5076"/>
<polygon fill="#191970" stroke="#191970" points="494.6237,-282.4606 505.2075,-281.9766 496.6319,-275.7548 494.6237,-282.4606"/>
</g>
<!-- Node18 -->
<g id="node18" class="node">
<title>Node18</title>
<g id="a_node18"><a xlink:href="scopeinfo_8hpp.html" target="_top" xlink:title="scopeinfo.hpp">
<polygon fill="#ffffff" stroke="#000000" points="151.5,-224.5 151.5,-243.5 228.5,-243.5 228.5,-224.5 151.5,-224.5"/>
<text text-anchor="middle" x="190" y="-231.5" font-family="Helvetica,sans-Serif" font-size="10.00" fill="#000000">scopeinfo.hpp</text>
</a>
</g>
</g>
<!-- Node2&#45;&gt;Node18 -->
<g id="edge17" class="edge">
<title>Node2&#45;&gt;Node18</title>
<path fill="none" stroke="#191970" d="M495.3059,-284.5039C440.3704,-276.1976 333.5202,-259.7403 243,-244 238.3873,-243.1979 233.5547,-242.3277 228.764,-241.4465"/>
<polygon fill="#191970" stroke="#191970" points="494.8521,-287.975 505.2623,-286.0059 495.8963,-281.0533 494.8521,-287.975"/>
</g>
<!-- Node19 -->
<g id="node19" class="node">
<title>Node19</title>
<g id="a_node19"><a xlink:href="logtools_8hpp.html" target="_top" xlink:title="logtools.hpp">
<polygon fill="#ffffff" stroke="#000000" points="1031.5,-224.5 1031.5,-243.5 1100.5,-243.5 1100.5,-224.5 1031.5,-224.5"/>
<text text-anchor="middle" x="1066" y="-231.5" font-family="Helvetica,sans-Serif" font-size="10.00" fill="#000000">logtools.hpp</text>
</a>
</g>
</g>
<!-- Node2&#45;&gt;Node19 -->
<g id="edge18" class="edge">
<title>Node2&#45;&gt;Node19</title>
<path fill="none" stroke="#191970" d="M568.8828,-287.8505C650.1558,-282.8191 850.6736,-268.7874 1017,-244 1021.6372,-243.3089 1026.4984,-242.4644 1031.2826,-241.562"/>
<polygon fill="#191970" stroke="#191970" points="568.4389,-284.371 558.6708,-288.4739 568.8655,-291.358 568.4389,-284.371"/>
</g>
<!-- Node3&#45;&gt;Node2 -->
<g id="edge19" class="edge">
<title>Node3&#45;&gt;Node2</title>
<path fill="none" stroke="#191970" d="M57.9741,-242.1439C60.6962,-242.8459 63.3922,-243.4839 66,-244 231.1907,-276.6933 433.4925,-286.4693 505.345,-289.1099"/>
<polygon fill="#191970" stroke="#191970" points="58.6837,-238.709 48.113,-239.424 56.8224,-245.4571 58.6837,-238.709"/>
</g>
<!-- Node4&#45;&gt;Node2 -->
<g id="edge20" class="edge">
<title>Node4&#45;&gt;Node2</title>
<path fill="none" stroke="#191970" d="M276.678,-197.1921C282.111,-212.2178 289.5424,-232.4455 304,-244 335.2685,-268.9898 451.806,-282.2963 505.2315,-287.4425"/>
<polygon fill="#191970" stroke="#191970" points="279.9463,-195.9392 273.1742,-187.7913 273.3871,-198.384 279.9463,-195.9392"/>
</g>
<!-- Node6&#45;&gt;Node4 -->
<g id="edge21" class="edge">
<title>Node6&#45;&gt;Node4</title>
<path fill="none" stroke="#191970" d="M138.4207,-221.0388C170.3338,-210.2729 214.7492,-195.2894 241.874,-186.1389"/>
<polygon fill="#191970" stroke="#191970" points="136.893,-217.8603 128.5364,-224.3733 139.1306,-224.4931 136.893,-217.8603"/>
</g>
<!-- Node7&#45;&gt;Node4 -->
<g id="edge22" class="edge">
<title>Node7&#45;&gt;Node4</title>
<path fill="none" stroke="#191970" d="M396.2476,-221.159C363.5243,-210.3157 317.6975,-195.1305 290.032,-185.9633"/>
<polygon fill="#191970" stroke="#191970" points="395.3545,-224.5501 405.9479,-224.3733 397.5563,-217.9054 395.3545,-224.5501"/>
</g>
<!-- Node7&#45;&gt;Node8 -->
<g id="edge23" class="edge">
<title>Node7&#45;&gt;Node8</title>
<path fill="none" stroke="#191970" d="M474.5723,-221.1905C506.2671,-210.9309 550.0168,-196.7691 578.6483,-187.5011"/>
<polygon fill="#191970" stroke="#191970" points="473.1758,-217.9636 464.7398,-224.3733 475.3316,-224.6234 473.1758,-217.9636"/>
</g>
<!-- Node8&#45;&gt;Node9 -->
<g id="edge24" class="edge">
<title>Node8&#45;&gt;Node9</title>
<path fill="none" stroke="#191970" d="M649.1986,-165.3235C682.5758,-155.0536 728.8699,-140.8093 759.1214,-131.5011"/>
<polygon fill="#191970" stroke="#191970" points="647.8154,-162.0871 639.2869,-168.3733 649.874,-168.7776 647.8154,-162.0871"/>
</g>
<!-- Node8&#45;&gt;Node14 -->
<g id="edge25" class="edge">
<title>Node8&#45;&gt;Node14</title>
<path fill="none" stroke="#191970" d="M579.6737,-163.8368C559.4279,-153.7139 532.7358,-140.3679 515.0022,-131.5011"/>
<polygon fill="#191970" stroke="#191970" points="578.237,-167.0316 588.7465,-168.3733 581.3675,-160.7706 578.237,-167.0316"/>
</g>
<!-- Node8&#45;&gt;Node15 -->
<g id="edge26" class="edge">
<title>Node8&#45;&gt;Node15</title>
<path fill="none" stroke="#191970" d="M611.8976,-158.1575C613.666,-149.155 615.6765,-138.9199 617.1059,-131.6427"/>
<polygon fill="#191970" stroke="#191970" points="608.4092,-157.7584 609.9161,-168.2455 615.278,-159.1077 608.4092,-157.7584"/>
</g>
<!-- Node9&#45;&gt;Node10 -->
<g id="edge27" class="edge">
<title>Node9&#45;&gt;Node10</title>
<path fill="none" stroke="#191970" d="M822.9806,-108.5189C847.9311,-98.3201 881.5734,-84.5685 903.7562,-75.5011"/>
<polygon fill="#191970" stroke="#191970" points="821.4834,-105.3497 813.5511,-112.3733 824.132,-111.8293 821.4834,-105.3497"/>
</g>
<!-- Node9&#45;&gt;Node11 -->
<g id="edge28" class="edge">
<title>Node9&#45;&gt;Node11</title>
<path fill="none" stroke="#191970" d="M766.4581,-106.49C751.461,-96.6096 732.5027,-84.1194 719.6362,-75.6427"/>
<polygon fill="#191970" stroke="#191970" points="764.9179,-109.6666 775.1941,-112.2455 768.7691,-103.8212 764.9179,-109.6666"/>
</g>
<!-- Node9&#45;&gt;Node12 -->
<g id="edge29" class="edge">
<title>Node9&#45;&gt;Node12</title>
<path fill="none" stroke="#191970" d="M798.8011,-103.0437C803.0775,-93.8331 808.033,-83.1598 811.523,-75.6427"/>
<polygon fill="#191970" stroke="#191970" points="795.5655,-101.7015 794.5289,-112.2455 801.9146,-104.6494 795.5655,-101.7015"/>
</g>
<!-- Node9&#45;&gt;Node13 -->
<g id="edge30" class="edge">
<title>Node9&#45;&gt;Node13</title>
<path fill="none" stroke="#191970" d="M746.3371,-109.5882C710.1431,-99.2996 659.4506,-84.8895 626.4236,-75.5011"/>
<polygon fill="#191970" stroke="#191970" points="745.5585,-113.0055 756.1345,-112.3733 747.4726,-106.2723 745.5585,-113.0055"/>
</g>
<!-- Node10&#45;&gt;Node5 -->
<g id="edge31" class="edge">
<title>Node10&#45;&gt;Node5</title>
<path fill="none" stroke="#191970" d="M869.4667,-55.9207C787.7995,-42.0024 705.2749,-28.3761 651.3888,-19.5378"/>
<polygon fill="#191970" stroke="#191970" points="868.9736,-59.3871 879.4199,-57.6192 870.1512,-52.4868 868.9736,-59.3871"/>
</g>
<!-- Node13&#45;&gt;Node5 -->
<g id="edge32" class="edge">
<title>Node13&#45;&gt;Node5</title>
<path fill="none" stroke="#191970" d="M593,-46.1575C593,-37.155 593,-26.9199 593,-19.6427"/>
<polygon fill="#191970" stroke="#191970" points="589.5001,-46.2455 593,-56.2455 596.5001,-46.2456 589.5001,-46.2455"/>
</g>
<!-- Node14&#45;&gt;Node5 -->
<g id="edge33" class="edge">
<title>Node14&#45;&gt;Node5</title>
<path fill="none" stroke="#191970" d="M503.161,-102.6187C508.9595,-88.6497 518.1117,-69.8899 530,-56 543.033,-40.7726 562.053,-27.7774 575.7815,-19.5228"/>
<polygon fill="#191970" stroke="#191970" points="499.793,-101.6197 499.3908,-112.2069 506.3075,-104.1813 499.793,-101.6197"/>
</g>
<!-- Node15&#45;&gt;Node5 -->
<g id="edge34" class="edge">
<title>Node15&#45;&gt;Node5</title>
<path fill="none" stroke="#191970" d="M577.0438,-108.3877C561.9934,-101.248 546.6239,-90.815 538,-76 525.1688,-53.9572 554.0193,-31.9142 574.5924,-19.7063"/>
<polygon fill="#191970" stroke="#191970" points="575.7441,-111.6391 586.3103,-112.4174 578.5356,-105.2198 575.7441,-111.6391"/>
</g>
<!-- Node17&#45;&gt;Node4 -->
<g id="edge35" class="edge">
<title>Node17&#45;&gt;Node4</title>
<path fill="none" stroke="#191970" d="M322.7244,-218.2097C308.8495,-208.3743 291.4485,-196.0394 279.6031,-187.6427"/>
<polygon fill="#191970" stroke="#191970" points="321.0569,-221.3178 331.2393,-224.2455 325.1051,-215.6071 321.0569,-221.3178"/>
</g>
<!-- Node17&#45;&gt;Node16 -->
<g id="edge36" class="edge">
<title>Node17&#45;&gt;Node16</title>
<path fill="none" stroke="#191970" d="M354.1396,-215.0437C358.5805,-205.8331 363.7265,-195.1598 367.3509,-187.6427"/>
<polygon fill="#191970" stroke="#191970" points="350.8934,-213.7178 349.703,-224.2455 357.1988,-216.7579 350.8934,-213.7178"/>
</g>
<!-- Node18&#45;&gt;Node4 -->
<g id="edge37" class="edge">
<title>Node18&#45;&gt;Node4</title>
<path fill="none" stroke="#191970" d="M211.4297,-218.2097C224.7777,-208.3743 241.5179,-196.0394 252.9135,-187.6427"/>
<polygon fill="#191970" stroke="#191970" points="209.2126,-215.4958 203.2382,-224.2455 213.365,-221.1312 209.2126,-215.4958"/>
</g>
</g>
</svg>
