<?xml version="1.0" encoding="UTF-8" standalone="no"?>
<!DOCTYPE svg PUBLIC "-//W3C//DTD SVG 1.1//EN"
 "http://www.w3.org/Graphics/SVG/1.1/DTD/svg11.dtd">
<!-- Generated by graphviz version 2.40.1 (20161225.0304)
 -->
<!-- Title: alox_macros.hpp Pages: 1 -->
<svg width="996pt" height="364pt"
 viewBox="0.00 0.00 996.04 364.00" xmlns="http://www.w3.org/2000/svg" xmlns:xlink="http://www.w3.org/1999/xlink">
<g id="graph0" class="graph" transform="scale(1 1) rotate(0) translate(4 360)">
<title>alox_macros.hpp</title>
<polygon fill="#ffffff" stroke="transparent" points="-4,4 -4,-360 992.0352,-360 992.0352,4 -4,4"/>
<!-- Node1 -->
<g id="node1" class="node">
<title>Node1</title>
<polygon fill="#bfbfbf" stroke="#000000" points="466.5,-336.5 466.5,-355.5 557.5,-355.5 557.5,-336.5 466.5,-336.5"/>
<text text-anchor="middle" x="512" y="-343.5" font-family="Helvetica,sans-Serif" font-size="10.00" fill="#000000">alox_macros.hpp</text>
</g>
<!-- Node2 -->
<g id="node2" class="node">
<title>Node2</title>
<g id="a_node2"><a xlink:href="alox_8hpp.html" target="_top" xlink:title="alox.hpp">
<polygon fill="#ffffff" stroke="#000000" points="485.5,-280.5 485.5,-299.5 538.5,-299.5 538.5,-280.5 485.5,-280.5"/>
<text text-anchor="middle" x="512" y="-287.5" font-family="Helvetica,sans-Serif" font-size="10.00" fill="#000000">alox.hpp</text>
</a>
</g>
</g>
<!-- Node1&#45;&gt;Node2 -->
<g id="edge1" class="edge">
<title>Node1&#45;&gt;Node2</title>
<path fill="none" stroke="#191970" d="M512,-326.1575C512,-317.155 512,-306.9199 512,-299.6427"/>
<polygon fill="#191970" stroke="#191970" points="508.5001,-326.2455 512,-336.2455 515.5001,-326.2456 508.5001,-326.2455"/>
</g>
<!-- Node3 -->
<g id="node3" class="node">
<title>Node3</title>
<g id="a_node3"><a xlink:href="log_8hpp.html" target="_top" xlink:title="log.hpp">
<polygon fill="#ffffff" stroke="#000000" points="0,-224.5 0,-243.5 48,-243.5 48,-224.5 0,-224.5"/>
<text text-anchor="middle" x="24" y="-231.5" font-family="Helvetica,sans-Serif" font-size="10.00" fill="#000000">log.hpp</text>
</a>
</g>
</g>
<!-- Node2&#45;&gt;Node3 -->
<g id="edge2" class="edge">
<title>Node2&#45;&gt;Node3</title>
<path fill="none" stroke="#191970" d="M474.9662,-288.4213C396.3322,-284.4205 207.9757,-272.1362 53,-244 51.3891,-243.7075 49.7462,-243.382 48.099,-243.0322"/>
<polygon fill="#191970" stroke="#191970" points="475.1584,-291.9349 485.3187,-288.9316 475.5032,-284.9434 475.1584,-291.9349"/>
</g>
<!-- Node4 -->
<g id="node4" class="node">
<title>Node4</title>
<g id="a_node4"><a xlink:href="lox_8hpp.html" target="_top" xlink:title="lox.hpp">
<polygon fill="#ffffff" stroke="#000000" points="177,-168.5 177,-187.5 225,-187.5 225,-168.5 177,-168.5"/>
<text text-anchor="middle" x="201" y="-175.5" font-family="Helvetica,sans-Serif" font-size="10.00" fill="#000000">lox.hpp</text>
</a>
</g>
</g>
<!-- Node2&#45;&gt;Node4 -->
<g id="edge3" class="edge">
<title>Node2&#45;&gt;Node4</title>
<path fill="none" stroke="#191970" d="M475.1595,-288.6772C379.2245,-284.6671 128.2609,-271.2186 104,-244 79.7297,-216.7708 140.6609,-193.4334 176.9051,-183.3378"/>
<polygon fill="#191970" stroke="#191970" points="475.1408,-292.1793 485.2748,-289.0887 475.4253,-285.1851 475.1408,-292.1793"/>
</g>
<!-- Node5 -->
<g id="node5" class="node">
<title>Node5</title>
<g id="a_node5"><a xlink:href="alox__console__loggers_8hpp.html" target="_top" xlink:title="alox_console_loggers.hpp">
<polygon fill="#ffffff" stroke="#000000" points="552.5,-.5 552.5,-19.5 681.5,-19.5 681.5,-.5 552.5,-.5"/>
<text text-anchor="middle" x="617" y="-7.5" font-family="Helvetica,sans-Serif" font-size="10.00" fill="#000000">alox_console_loggers.hpp</text>
</a>
</g>
</g>
<!-- Node2&#45;&gt;Node5 -->
<g id="edge4" class="edge">
<title>Node2&#45;&gt;Node5</title>
<path fill="none" stroke="#191970" d="M548.6434,-289.1903C660.0237,-285.7478 987,-267.9791 987,-178 987,-178 987,-178 987,-122 987,-91.4754 991.1407,-75.9063 968,-56 946.7134,-37.6886 776.9466,-22.0791 681.5376,-14.6456"/>
<polygon fill="#191970" stroke="#191970" points="548.451,-285.6943 538.5559,-289.4807 548.6525,-292.6914 548.451,-285.6943"/>
</g>
<!-- Node6 -->
<g id="node6" class="node">
<title>Node6</title>
<g id="a_node6"><a xlink:href="domain_8hpp.html" target="_top" xlink:title="domain.hpp">
<polygon fill="#ffffff" stroke="#000000" points="122.5,-224.5 122.5,-243.5 189.5,-243.5 189.5,-224.5 122.5,-224.5"/>
<text text-anchor="middle" x="156" y="-231.5" font-family="Helvetica,sans-Serif" font-size="10.00" fill="#000000">domain.hpp</text>
</a>
</g>
</g>
<!-- Node2&#45;&gt;Node6 -->
<g id="edge5" class="edge">
<title>Node2&#45;&gt;Node6</title>
<path fill="none" stroke="#191970" d="M475.1267,-285.67C416.273,-278.5185 297.5838,-263.1109 198,-244 195.35,-243.4914 192.6147,-242.9282 189.8706,-242.3356"/>
<polygon fill="#191970" stroke="#191970" points="475.0545,-289.1865 485.4015,-286.9083 475.8922,-282.2368 475.0545,-289.1865"/>
</g>
<!-- Node7 -->
<g id="node7" class="node">
<title>Node7</title>
<g id="a_node7"><a xlink:href="logger_8hpp.html" target="_top" xlink:title="logger.hpp">
<polygon fill="#ffffff" stroke="#000000" points="403.5,-224.5 403.5,-243.5 464.5,-243.5 464.5,-224.5 403.5,-224.5"/>
<text text-anchor="middle" x="434" y="-231.5" font-family="Helvetica,sans-Serif" font-size="10.00" fill="#000000">logger.hpp</text>
</a>
</g>
</g>
<!-- Node2&#45;&gt;Node7 -->
<g id="edge6" class="edge">
<title>Node2&#45;&gt;Node7</title>
<path fill="none" stroke="#191970" d="M490.0064,-274.2097C476.3071,-264.3743 459.1264,-252.0394 447.4309,-243.6427"/>
<polygon fill="#191970" stroke="#191970" points="488.2489,-277.2566 498.4134,-280.2455 492.3314,-271.5703 488.2489,-277.2566"/>
</g>
<!-- Node8 -->
<g id="node8" class="node">
<title>Node8</title>
<g id="a_node8"><a xlink:href="textlogger_8hpp.html" target="_top" xlink:title="textlogger.hpp">
<polygon fill="#ffffff" stroke="#000000" points="501.5,-168.5 501.5,-187.5 578.5,-187.5 578.5,-168.5 501.5,-168.5"/>
<text text-anchor="middle" x="540" y="-175.5" font-family="Helvetica,sans-Serif" font-size="10.00" fill="#000000">textlogger.hpp</text>
</a>
</g>
</g>
<!-- Node2&#45;&gt;Node8 -->
<g id="edge7" class="edge">
<title>Node2&#45;&gt;Node8</title>
<path fill="none" stroke="#191970" d="M528.2369,-272.8324C534.7942,-264.7408 541.6054,-254.5555 545,-244 551.1918,-224.7467 546.5066,-200.7714 542.9737,-187.667"/>
<polygon fill="#191970" stroke="#191970" points="525.553,-270.5851 521.6492,-280.4346 530.8431,-275.1693 525.553,-270.5851"/>
</g>
<!-- Node9 -->
<g id="node9" class="node">
<title>Node9</title>
<g id="a_node9"><a xlink:href="plaintextlogger_8hpp.html" target="_top" xlink:title="plaintextlogger.hpp">
<polygon fill="#ffffff" stroke="#000000" points="739,-112.5 739,-131.5 837,-131.5 837,-112.5 739,-112.5"/>
<text text-anchor="middle" x="788" y="-119.5" font-family="Helvetica,sans-Serif" font-size="10.00" fill="#000000">plaintextlogger.hpp</text>
</a>
</g>
</g>
<!-- Node2&#45;&gt;Node9 -->
<g id="edge8" class="edge">
<title>Node2&#45;&gt;Node9</title>
<path fill="none" stroke="#191970" d="M548.7744,-285.8725C602.1661,-279.2547 697.7537,-264.8597 725,-244 763.4232,-214.5834 780.524,-155.1061 785.9579,-131.7397"/>
<polygon fill="#191970" stroke="#191970" points="548.1988,-282.4165 538.6914,-287.092 549.0394,-289.3659 548.1988,-282.4165"/>
</g>
<!-- Node10 -->
<g id="node10" class="node">
<title>Node10</title>
<g id="a_node10"><a xlink:href="consolelogger_8hpp.html" target="_top" xlink:title="consolelogger.hpp">
<polygon fill="#ffffff" stroke="#000000" points="493.5,-56.5 493.5,-75.5 588.5,-75.5 588.5,-56.5 493.5,-56.5"/>
<text text-anchor="middle" x="541" y="-63.5" font-family="Helvetica,sans-Serif" font-size="10.00" fill="#000000">consolelogger.hpp</text>
</a>
</g>
</g>
<!-- Node2&#45;&gt;Node10 -->
<g id="edge9" class="edge">
<title>Node2&#45;&gt;Node10</title>
<path fill="none" stroke="#191970" d="M508.6362,-270.3909C506.0126,-257.0446 501.8295,-239.1272 496,-224 476.3977,-173.1335 417.0467,-158.1883 446,-112 457.582,-93.5235 478.924,-82.2847 498.4495,-75.5472"/>
<polygon fill="#191970" stroke="#191970" points="505.22,-271.1654 510.4751,-280.3651 512.1039,-269.8962 505.22,-271.1654"/>
</g>
<!-- Node11 -->
<g id="node11" class="node">
<title>Node11</title>
<g id="a_node11"><a xlink:href="memorylogger_8hpp.html" target="_top" xlink:title="memorylogger.hpp">
<polygon fill="#ffffff" stroke="#000000" points="645,-56.5 645,-75.5 741,-75.5 741,-56.5 645,-56.5"/>
<text text-anchor="middle" x="693" y="-63.5" font-family="Helvetica,sans-Serif" font-size="10.00" fill="#000000">memorylogger.hpp</text>
</a>
</g>
</g>
<!-- Node2&#45;&gt;Node11 -->
<g id="edge10" class="edge">
<title>Node2&#45;&gt;Node11</title>
<path fill="none" stroke="#191970" d="M548.3599,-277.4177C567.4005,-269.6872 590.3577,-258.4741 608,-244 656.1045,-204.5341 671.877,-190.8784 692,-132 698.5228,-112.9149 696.5494,-88.8765 694.679,-75.7163"/>
<polygon fill="#191970" stroke="#191970" points="546.8542,-274.2481 538.8088,-281.1417 549.3971,-280.7699 546.8542,-274.2481"/>
</g>
<!-- Node12 -->
<g id="node12" class="node">
<title>Node12</title>
<g id="a_node12"><a xlink:href="textfilelogger_8hpp.html" target="_top" xlink:title="textfilelogger.hpp">
<polygon fill="#ffffff" stroke="#000000" points="759,-56.5 759,-75.5 849,-75.5 849,-56.5 759,-56.5"/>
<text text-anchor="middle" x="804" y="-63.5" font-family="Helvetica,sans-Serif" font-size="10.00" fill="#000000">textfilelogger.hpp</text>
</a>
</g>
</g>
<!-- Node2&#45;&gt;Node12 -->
<g id="edge11" class="edge">
<title>Node2&#45;&gt;Node12</title>
<path fill="none" stroke="#191970" d="M548.68,-285.7907C606.2062,-278.704 714.5367,-263.2592 748,-244 805.3267,-211.0066 822.7357,-193.9168 846,-132 854.2165,-110.1322 832.4326,-87.8558 817.2523,-75.5913"/>
<polygon fill="#191970" stroke="#191970" points="548.0663,-282.3394 538.5594,-287.0157 548.9075,-289.2887 548.0663,-282.3394"/>
</g>
<!-- Node13 -->
<g id="node13" class="node">
<title>Node13</title>
<g id="a_node13"><a xlink:href="vstudiologger_8hpp.html" target="_top" xlink:title="vstudiologger.hpp">
<polygon fill="#ffffff" stroke="#000000" points="867,-56.5 867,-75.5 959,-75.5 959,-56.5 867,-56.5"/>
<text text-anchor="middle" x="913" y="-63.5" font-family="Helvetica,sans-Serif" font-size="10.00" fill="#000000">vstudiologger.hpp</text>
</a>
</g>
</g>
<!-- Node2&#45;&gt;Node13 -->
<g id="edge12" class="edge">
<title>Node2&#45;&gt;Node13</title>
<path fill="none" stroke="#191970" d="M549.2288,-286.1549C612.3795,-279.202 737.4929,-263.4401 777,-244 851.6746,-207.2551 896.5383,-107.5582 909.2492,-75.8342"/>
<polygon fill="#191970" stroke="#191970" points="548.4841,-282.715 538.9195,-287.2722 549.2384,-289.6743 548.4841,-282.715"/>
</g>
<!-- Node14 -->
<g id="node14" class="node">
<title>Node14</title>
<g id="a_node14"><a xlink:href="ansilogger_8hpp.html" target="_top" xlink:title="ansilogger.hpp">
<polygon fill="#ffffff" stroke="#000000" points="454.5,-112.5 454.5,-131.5 533.5,-131.5 533.5,-112.5 454.5,-112.5"/>
<text text-anchor="middle" x="494" y="-119.5" font-family="Helvetica,sans-Serif" font-size="10.00" fill="#000000">ansilogger.hpp</text>
</a>
</g>
</g>
<!-- Node2&#45;&gt;Node14 -->
<g id="edge13" class="edge">
<title>Node2&#45;&gt;Node14</title>
<path fill="none" stroke="#191970" d="M534.7565,-273.9308C564.9106,-250.5932 611.6852,-205.9598 588,-168 576.0739,-148.8863 553.647,-137.4965 533.6901,-130.8325"/>
<polygon fill="#191970" stroke="#191970" points="532.3021,-271.3962 526.3964,-280.1924 536.4985,-276.9989 532.3021,-271.3962"/>
</g>
<!-- Node15 -->
<g id="node15" class="node">
<title>Node15</title>
<g id="a_node15"><a xlink:href="windowsconsolelogger_8hpp.html" target="_top" xlink:title="windowsconsolelogger.hpp">
<polygon fill="#ffffff" stroke="#000000" points="551.5,-112.5 551.5,-131.5 682.5,-131.5 682.5,-112.5 551.5,-112.5"/>
<text text-anchor="middle" x="617" y="-119.5" font-family="Helvetica,sans-Serif" font-size="10.00" fill="#000000">windowsconsolelogger.hpp</text>
</a>
</g>
</g>
<!-- Node2&#45;&gt;Node15 -->
<g id="edge14" class="edge">
<title>Node2&#45;&gt;Node15</title>
<path fill="none" stroke="#191970" d="M547.4419,-275.9123C562.1952,-268.4332 578.3356,-257.8753 589,-244 615.6181,-209.3677 617.6986,-153.9095 617.364,-131.6784"/>
<polygon fill="#191970" stroke="#191970" points="545.551,-272.9356 538.0187,-280.3865 548.5534,-279.259 545.551,-272.9356"/>
</g>
<!-- Node16 -->
<g id="node16" class="node">
<title>Node16</title>
<g id="a_node16"><a xlink:href="scopedump_8hpp.html" target="_top" xlink:title="scopedump.hpp">
<polygon fill="#ffffff" stroke="#000000" points="325,-168.5 325,-187.5 411,-187.5 411,-168.5 325,-168.5"/>
<text text-anchor="middle" x="368" y="-175.5" font-family="Helvetica,sans-Serif" font-size="10.00" fill="#000000">scopedump.hpp</text>
</a>
</g>
</g>
<!-- Node2&#45;&gt;Node16 -->
<g id="edge15" class="edge">
<title>Node2&#45;&gt;Node16</title>
<path fill="none" stroke="#191970" d="M504.8081,-270.6908C498.5697,-256.2054 488.2847,-236.7557 474,-224 454.2483,-206.3624 426.6834,-194.6836 404.6141,-187.5079"/>
<polygon fill="#191970" stroke="#191970" points="501.6529,-272.2255 508.6348,-280.1944 508.1463,-269.6108 501.6529,-272.2255"/>
</g>
<!-- Node17 -->
<g id="node17" class="node">
<title>Node17</title>
<g id="a_node17"><a xlink:href="scopestore_8hpp.html" target="_top" xlink:title="scopestore.hpp">
<polygon fill="#ffffff" stroke="#000000" points="302.5,-224.5 302.5,-243.5 385.5,-243.5 385.5,-224.5 302.5,-224.5"/>
<text text-anchor="middle" x="344" y="-231.5" font-family="Helvetica,sans-Serif" font-size="10.00" fill="#000000">scopestore.hpp</text>
</a>
</g>
</g>
<!-- Node2&#45;&gt;Node17 -->
<g id="edge16" class="edge">
<title>Node2&#45;&gt;Node17</title>
<path fill="none" stroke="#191970" d="M475.8553,-277.9518C445.0117,-267.6706 401.2506,-253.0835 372.746,-243.582"/>
<polygon fill="#191970" stroke="#191970" points="474.7862,-281.2847 485.3799,-281.1266 476.9999,-274.6439 474.7862,-281.2847"/>
</g>
<!-- Node18 -->
<g id="node18" class="node">
<title>Node18</title>
<g id="a_node18"><a xlink:href="scopeinfo_8hpp.html" target="_top" xlink:title="scopeinfo.hpp">
<polygon fill="#ffffff" stroke="#000000" points="207.5,-224.5 207.5,-243.5 284.5,-243.5 284.5,-224.5 207.5,-224.5"/>
<text text-anchor="middle" x="246" y="-231.5" font-family="Helvetica,sans-Serif" font-size="10.00" fill="#000000">scopeinfo.hpp</text>
</a>
</g>
</g>
<!-- Node2&#45;&gt;Node18 -->
<g id="edge17" class="edge">
<title>Node2&#45;&gt;Node18</title>
<path fill="none" stroke="#191970" d="M474.9371,-282.1973C424.7333,-271.6281 335.5486,-252.8523 284.5754,-242.1211"/>
<polygon fill="#191970" stroke="#191970" points="474.5241,-285.687 485.0307,-284.3222 475.9662,-278.8371 474.5241,-285.687"/>
</g>
<!-- Node3&#45;&gt;Node2 -->
<g id="edge18" class="edge">
<title>Node3&#45;&gt;Node2</title>
<path fill="none" stroke="#191970" d="M58.1219,-241.2291C62.4815,-242.2723 66.8469,-243.246 71,-244 226.697,-272.2671 416.0864,-284.5345 485.2795,-288.4766"/>
<polygon fill="#191970" stroke="#191970" points="58.611,-237.7446 48.063,-238.7398 56.9293,-244.5396 58.611,-237.7446"/>
</g>
<!-- Node4&#45;&gt;Node2 -->
<g id="edge19" class="edge">
<title>Node4&#45;&gt;Node2</title>
<path fill="none" stroke="#191970" d="M167.5947,-190.7685C137.9724,-202.773 102.5077,-222.1314 122,-244 146.4454,-271.4256 401.0552,-284.8708 485.2786,-288.7671"/>
<polygon fill="#191970" stroke="#191970" points="168.8801,-194.024 176.9299,-187.1355 166.3414,-187.5006 168.8801,-194.024"/>
</g>
<!-- Node6&#45;&gt;Node4 -->
<g id="edge20" class="edge">
<title>Node6&#45;&gt;Node4</title>
<path fill="none" stroke="#191970" d="M170.2946,-216.2112C177.8996,-206.7472 186.9538,-195.4797 193.2514,-187.6427"/>
<polygon fill="#191970" stroke="#191970" points="167.3741,-214.2581 163.8384,-224.2455 172.8306,-218.6428 167.3741,-214.2581"/>
</g>
<!-- Node7&#45;&gt;Node4 -->
<g id="edge21" class="edge">
<title>Node7&#45;&gt;Node4</title>
<path fill="none" stroke="#191970" d="M393.5901,-223.6796C327.3296,-207.3901 260.2599,-191.7186 225.2297,-183.596"/>
<polygon fill="#191970" stroke="#191970" points="392.8094,-227.0919 403.3564,-226.0866 394.4846,-220.2952 392.8094,-227.0919"/>
</g>
<!-- Node7&#45;&gt;Node8 -->
<g id="edge22" class="edge">
<title>Node7&#45;&gt;Node8</title>
<path fill="none" stroke="#191970" d="M461.5222,-219.46C480.4908,-209.4388 505.1727,-196.3993 521.7478,-187.6427"/>
<polygon fill="#191970" stroke="#191970" points="459.6708,-216.4796 452.4638,-224.2455 462.9407,-222.669 459.6708,-216.4796"/>
</g>
<!-- Node8&#45;&gt;Node9 -->
<g id="edge23" class="edge">
<title>Node8&#45;&gt;Node9</title>
<path fill="none" stroke="#191970" d="M588.7367,-166.9949C634.5045,-156.6603 702.2753,-141.3572 745.7897,-131.5314"/>
<polygon fill="#191970" stroke="#191970" points="587.7335,-163.6333 578.75,-169.25 589.2754,-170.4614 587.7335,-163.6333"/>
</g>
<!-- Node8&#45;&gt;Node14 -->
<g id="edge24" class="edge">
<title>Node8&#45;&gt;Node14</title>
<path fill="none" stroke="#191970" d="M525.6253,-160.5004C517.8029,-150.9775 508.424,-139.5596 501.9208,-131.6427"/>
<polygon fill="#191970" stroke="#191970" points="522.9354,-162.7399 531.9874,-168.2455 528.3445,-158.2967 522.9354,-162.7399"/>
</g>
<!-- Node8&#45;&gt;Node15 -->
<g id="edge25" class="edge">
<title>Node8&#45;&gt;Node15</title>
<path fill="none" stroke="#191970" d="M561.7116,-162.2097C575.2353,-152.3743 592.1958,-140.0394 603.7413,-131.6427"/>
<polygon fill="#191970" stroke="#191970" points="559.4411,-159.5332 553.4124,-168.2455 563.5584,-165.1944 559.4411,-159.5332"/>
</g>
<!-- Node9&#45;&gt;Node10 -->
<g id="edge26" class="edge">
<title>Node9&#45;&gt;Node10</title>
<path fill="none" stroke="#191970" d="M735.8545,-110.1775C690.3649,-99.8641 625.2154,-85.0934 583.0062,-75.5237"/>
<polygon fill="#191970" stroke="#191970" points="735.2934,-113.6391 745.8198,-112.4369 736.8413,-106.8123 735.2934,-113.6391"/>
</g>
<!-- Node9&#45;&gt;Node11 -->
<g id="edge27" class="edge">
<title>Node9&#45;&gt;Node11</title>
<path fill="none" stroke="#191970" d="M762.6324,-107.0465C745.729,-97.0824 724.0096,-84.2794 709.3581,-75.6427"/>
<polygon fill="#191970" stroke="#191970" points="761.0602,-110.1825 771.4523,-112.2455 764.6149,-104.1522 761.0602,-110.1825"/>
</g>
<!-- Node9&#45;&gt;Node12 -->
<g id="edge28" class="edge">
<title>Node9&#45;&gt;Node12</title>
<path fill="none" stroke="#191970" d="M793.5846,-102.4538C796.177,-93.3803 799.1429,-82.9998 801.245,-75.6427"/>
<polygon fill="#191970" stroke="#191970" points="790.1689,-101.6688 790.787,-112.2455 796.8996,-103.5919 790.1689,-101.6688"/>
</g>
<!-- Node9&#45;&gt;Node13 -->
<g id="edge29" class="edge">
<title>Node9&#45;&gt;Node13</title>
<path fill="none" stroke="#191970" d="M818.698,-108.2473C841.3993,-98.0771 871.7315,-84.4883 891.7921,-75.5011"/>
<polygon fill="#191970" stroke="#191970" points="817.1833,-105.0906 809.4883,-112.3733 820.0453,-111.4789 817.1833,-105.0906"/>
</g>
<!-- Node10&#45;&gt;Node5 -->
<g id="edge30" class="edge">
<title>Node10&#45;&gt;Node5</title>
<path fill="none" stroke="#191970" d="M562.4297,-50.2097C575.7777,-40.3743 592.5179,-28.0394 603.9135,-19.6427"/>
<polygon fill="#191970" stroke="#191970" points="560.2126,-47.4958 554.2382,-56.2455 564.365,-53.1312 560.2126,-47.4958"/>
</g>
<!-- Node13&#45;&gt;Node5 -->
<g id="edge31" class="edge">
<title>Node13&#45;&gt;Node5</title>
<path fill="none" stroke="#191970" d="M856.8834,-55.3834C802.2481,-45.0469 719.9712,-29.481 667.38,-19.5314"/>
<polygon fill="#191970" stroke="#191970" points="856.2736,-58.83 866.75,-57.25 857.5749,-51.952 856.2736,-58.83"/>
</g>
<!-- Node14&#45;&gt;Node5 -->
<g id="edge32" class="edge">
<title>Node14&#45;&gt;Node5</title>
<path fill="none" stroke="#191970" d="M484.8959,-103.1993C479.4562,-88.9861 475.2984,-69.6547 485,-56 495.5069,-41.212 538.759,-28.0081 572.9278,-19.5815"/>
<polygon fill="#191970" stroke="#191970" points="481.7288,-104.694 488.9036,-112.4898 488.1563,-101.9213 481.7288,-104.694"/>
</g>
<!-- Node15&#45;&gt;Node5 -->
<g id="edge33" class="edge">
<title>Node15&#45;&gt;Node5</title>
<path fill="none" stroke="#191970" d="M617,-102.2702C617,-77.9985 617,-37.7725 617,-19.5249"/>
<polygon fill="#191970" stroke="#191970" points="613.5001,-102.4509 617,-112.4509 620.5001,-102.451 613.5001,-102.4509"/>
</g>
<!-- Node17&#45;&gt;Node4 -->
<g id="edge34" class="edge">
<title>Node17&#45;&gt;Node4</title>
<path fill="none" stroke="#191970" d="M309.9202,-220.6541C283.8427,-210.4419 248.5185,-196.6086 225.2618,-187.5011"/>
<polygon fill="#191970" stroke="#191970" points="308.8297,-223.9858 319.4174,-224.3733 311.3822,-217.4677 308.8297,-223.9858"/>
</g>
<!-- Node17&#45;&gt;Node16 -->
<g id="edge35" class="edge">
<title>Node17&#45;&gt;Node16</title>
<path fill="none" stroke="#191970" d="M352.1241,-215.0437C356.0715,-205.8331 360.6458,-195.1598 363.8674,-187.6427"/>
<polygon fill="#191970" stroke="#191970" points="348.9027,-213.6753 348.1805,-224.2455 355.3367,-216.4328 348.9027,-213.6753"/>
</g>
<!-- Node18&#45;&gt;Node4 -->
<g id="edge36" class="edge">
<title>Node18&#45;&gt;Node4</title>
<path fill="none" stroke="#191970" d="M231.7054,-216.2112C224.1004,-206.7472 215.0462,-195.4797 208.7486,-187.6427"/>
<polygon fill="#191970" stroke="#191970" points="229.1694,-218.6428 238.1616,-224.2455 234.6259,-214.2581 229.1694,-218.6428"/>
</g>
</g>
</svg>
