<?xml version="1.0" encoding="UTF-8" standalone="no"?>
<!DOCTYPE svg PUBLIC "-//W3C//DTD SVG 1.1//EN"
 "http://www.w3.org/Graphics/SVG/1.1/DTD/svg11.dtd">
<!-- Generated by graphviz version 2.40.1 (20161225.0304)
 -->
<!-- Title: alox_console_loggers.hpp Pages: 1 -->
<svg width="3500pt" height="588pt"
 viewBox="0.00 0.00 3499.50 588.00" xmlns="http://www.w3.org/2000/svg" xmlns:xlink="http://www.w3.org/1999/xlink">
<g id="graph0" class="graph" transform="scale(1 1) rotate(0) translate(4 584)">
<title>alox_console_loggers.hpp</title>
<polygon fill="#ffffff" stroke="transparent" points="-4,4 -4,-584 3495.5,-584 3495.5,4 -4,4"/>
<!-- Node0 -->
<g id="node1" class="node">
<title>Node0</title>
<polygon fill="#bfbfbf" stroke="#000000" points="834,-560.5 834,-579.5 963,-579.5 963,-560.5 834,-560.5"/>
<text text-anchor="middle" x="898.5" y="-567.5" font-family="Helvetica,sans-Serif" font-size="10.00" fill="#000000">alox_console_loggers.hpp</text>
</g>
<!-- Node1 -->
<g id="node2" class="node">
<title>Node1</title>
<g id="a_node2"><a xlink:href="alox_8hpp.html" target="_top" xlink:title="alox/alox.hpp">
<polygon fill="#ffffff" stroke="#000000" points="839.5,-336.5 839.5,-355.5 913.5,-355.5 913.5,-336.5 839.5,-336.5"/>
<text text-anchor="middle" x="876.5" y="-343.5" font-family="Helvetica,sans-Serif" font-size="10.00" fill="#000000">alox/alox.hpp</text>
</a>
</g>
</g>
<!-- Node0&#45;&gt;Node1 -->
<g id="edge1" class="edge">
<title>Node0&#45;&gt;Node1</title>
<path fill="none" stroke="#191970" d="M833.8635,-567.2796C767.521,-562.9702 670.7928,-551.9495 647.5,-524 605.7592,-473.9143 659.0364,-430.7096 711.5,-392 746.0207,-366.5293 794.0311,-355.1576 829.3659,-350.0831"/>
<polygon fill="#191970" stroke="#191970" points="829.9769,-353.5329 839.4342,-348.7569 829.0627,-346.5929 829.9769,-353.5329"/>
</g>
<!-- Node67 -->
<g id="node3" class="node">
<title>Node67</title>
<g id="a_node3"><a xlink:href="consolelogger_8hpp.html" target="_top" xlink:title="alox/loggers/consolelogger.hpp">
<polygon fill="#ffffff" stroke="#000000" points="656.5,-504.5 656.5,-523.5 806.5,-523.5 806.5,-504.5 656.5,-504.5"/>
<text text-anchor="middle" x="731.5" y="-511.5" font-family="Helvetica,sans-Serif" font-size="10.00" fill="#000000">alox/loggers/consolelogger.hpp</text>
</a>
</g>
</g>
<!-- Node0&#45;&gt;Node67 -->
<g id="edge2" class="edge">
<title>Node0&#45;&gt;Node67</title>
<path fill="none" stroke="#191970" d="M869.7917,-560.3733C842.1423,-551.1016 800.1424,-537.0178 769.6834,-526.804"/>
<polygon fill="#191970" stroke="#191970" points="770.4276,-523.3621 759.8337,-523.5011 768.2021,-529.9989 770.4276,-523.3621"/>
</g>
<!-- Node76 -->
<g id="node4" class="node">
<title>Node76</title>
<g id="a_node4"><a xlink:href="ansilogger_8hpp.html" target="_top" xlink:title="alox/loggers/ansilogger.hpp">
<polygon fill="#ffffff" stroke="#000000" points="933.5,-448.5 933.5,-467.5 1067.5,-467.5 1067.5,-448.5 933.5,-448.5"/>
<text text-anchor="middle" x="1000.5" y="-455.5" font-family="Helvetica,sans-Serif" font-size="10.00" fill="#000000">alox/loggers/ansilogger.hpp</text>
</a>
</g>
</g>
<!-- Node0&#45;&gt;Node76 -->
<g id="edge3" class="edge">
<title>Node0&#45;&gt;Node76</title>
<path fill="none" stroke="#191970" d="M927.7142,-560.3822C945.6513,-553.0632 967.7476,-541.2693 981.5,-524 992.0499,-510.7521 996.7419,-491.8887 998.8286,-477.7186"/>
<polygon fill="#191970" stroke="#191970" points="1002.3316,-477.8941 1000.0057,-467.5577 995.3781,-477.0885 1002.3316,-477.8941"/>
</g>
<!-- Node77 -->
<g id="node5" class="node">
<title>Node77</title>
<g id="a_node5"><a xlink:href="vstudiologger_8hpp.html" target="_top" xlink:title="alox/loggers/vstudiologger.hpp">
<polygon fill="#ffffff" stroke="#000000" points="824.5,-504.5 824.5,-523.5 972.5,-523.5 972.5,-504.5 824.5,-504.5"/>
<text text-anchor="middle" x="898.5" y="-511.5" font-family="Helvetica,sans-Serif" font-size="10.00" fill="#000000">alox/loggers/vstudiologger.hpp</text>
</a>
</g>
</g>
<!-- Node0&#45;&gt;Node77 -->
<g id="edge4" class="edge">
<title>Node0&#45;&gt;Node77</title>
<path fill="none" stroke="#191970" d="M898.5,-560.2455C898.5,-552.9382 898.5,-542.6944 898.5,-533.7046"/>
<polygon fill="#191970" stroke="#191970" points="902.0001,-533.6426 898.5,-523.6427 895.0001,-533.6427 902.0001,-533.6426"/>
</g>
<!-- Node78 -->
<g id="node6" class="node">
<title>Node78</title>
<g id="a_node6"><a xlink:href="windowsconsolelogger_8hpp.html" target="_top" xlink:title="alox/loggers/windowsconsolelogger.hpp">
<polygon fill="#ffffff" stroke="#000000" points="1086,-448.5 1086,-467.5 1273,-467.5 1273,-448.5 1086,-448.5"/>
<text text-anchor="middle" x="1179.5" y="-455.5" font-family="Helvetica,sans-Serif" font-size="10.00" fill="#000000">alox/loggers/windowsconsolelogger.hpp</text>
</a>
</g>
</g>
<!-- Node0&#45;&gt;Node78 -->
<g id="edge5" class="edge">
<title>Node0&#45;&gt;Node78</title>
<path fill="none" stroke="#191970" d="M922.4579,-560.4509C972.6434,-540.4482 1088.8982,-494.1117 1146.2624,-471.2477"/>
<polygon fill="#191970" stroke="#191970" points="1147.6093,-474.4787 1155.6027,-467.5249 1145.0175,-467.9762 1147.6093,-474.4787"/>
</g>
<!-- Node2 -->
<g id="node7" class="node">
<title>Node2</title>
<g id="a_node7"><a xlink:href="alib_8hpp.html" target="_top" xlink:title="alib/alib.hpp">
<polygon fill="#ffffff" stroke="#000000" points="2312.5,-280.5 2312.5,-299.5 2380.5,-299.5 2380.5,-280.5 2312.5,-280.5"/>
<text text-anchor="middle" x="2346.5" y="-287.5" font-family="Helvetica,sans-Serif" font-size="10.00" fill="#000000">alib/alib.hpp</text>
</a>
</g>
</g>
<!-- Node1&#45;&gt;Node2 -->
<g id="edge6" class="edge">
<title>Node1&#45;&gt;Node2</title>
<path fill="none" stroke="#191970" d="M913.5725,-344.5877C1115.6505,-336.8895 2083.2124,-300.03 2302.3199,-291.6831"/>
<polygon fill="#191970" stroke="#191970" points="2302.6166,-295.1744 2312.4761,-291.2961 2302.3501,-288.1795 2302.6166,-295.1744"/>
</g>
<!-- Node13 -->
<g id="node8" class="node">
<title>Node13</title>
<polygon fill="#ffffff" stroke="#bfbfbf" points="718.5,-.5 718.5,-19.5 762.5,-19.5 762.5,-.5 718.5,-.5"/>
<text text-anchor="middle" x="740.5" y="-7.5" font-family="Helvetica,sans-Serif" font-size="10.00" fill="#000000">vector</text>
</g>
<!-- Node1&#45;&gt;Node13 -->
<g id="edge7" class="edge">
<title>Node1&#45;&gt;Node13</title>
<path fill="none" stroke="#191970" d="M913.7173,-345.4152C1232.4931,-340.2887 3491.5,-301.5756 3491.5,-234 3491.5,-234 3491.5,-234 3491.5,-122 3491.5,-50.4021 1080.5108,-14.7018 772.6992,-10.4356"/>
<polygon fill="#191970" stroke="#191970" points="772.6913,-6.9353 762.644,-10.2971 772.5948,-13.9346 772.6913,-6.9353"/>
</g>
<!-- Node37 -->
<g id="node9" class="node">
<title>Node37</title>
<g id="a_node9"><a xlink:href="alox__symbols_8hpp.html" target="_top" xlink:title="internals/alox_symbols.hpp">
<polygon fill="#ffffff" stroke="#000000" points="306,-280.5 306,-299.5 441,-299.5 441,-280.5 306,-280.5"/>
<text text-anchor="middle" x="373.5" y="-287.5" font-family="Helvetica,sans-Serif" font-size="10.00" fill="#000000">internals/alox_symbols.hpp</text>
</a>
</g>
</g>
<!-- Node1&#45;&gt;Node37 -->
<g id="edge8" class="edge">
<title>Node1&#45;&gt;Node37</title>
<path fill="none" stroke="#191970" d="M839.3413,-342.2938C766.8338,-334.9979 601.1568,-318.0127 451.3355,-300.199"/>
<polygon fill="#191970" stroke="#191970" points="451.3789,-296.6795 441.0346,-298.9699 450.5495,-303.6302 451.3789,-296.6795"/>
</g>
<!-- Node38 -->
<g id="node10" class="node">
<title>Node38</title>
<g id="a_node10"><a xlink:href="alox__macros_8hpp.html" target="_top" xlink:title="internals/alox_macros.hpp">
<polygon fill="#ffffff" stroke="#000000" points="459,-280.5 459,-299.5 590,-299.5 590,-280.5 459,-280.5"/>
<text text-anchor="middle" x="524.5" y="-287.5" font-family="Helvetica,sans-Serif" font-size="10.00" fill="#000000">internals/alox_macros.hpp</text>
</a>
</g>
</g>
<!-- Node1&#45;&gt;Node38 -->
<g id="edge9" class="edge">
<title>Node1&#45;&gt;Node38</title>
<path fill="none" stroke="#191970" d="M839.4951,-340.1129C781.5023,-330.8867 668.2311,-312.8663 594.5048,-301.1371"/>
<polygon fill="#191970" stroke="#191970" points="594.7997,-297.6401 584.374,-299.5254 593.6999,-304.5532 594.7997,-297.6401"/>
</g>
<!-- Node39 -->
<g id="node11" class="node">
<title>Node39</title>
<g id="a_node11"><a xlink:href="configuration_8hpp.html" target="_top" xlink:title="alib/config/configuration.hpp">
<polygon fill="#ffffff" stroke="#000000" points="253.5,-224.5 253.5,-243.5 391.5,-243.5 391.5,-224.5 253.5,-224.5"/>
<text text-anchor="middle" x="322.5" y="-231.5" font-family="Helvetica,sans-Serif" font-size="10.00" fill="#000000">alib/config/configuration.hpp</text>
</a>
</g>
</g>
<!-- Node1&#45;&gt;Node39 -->
<g id="edge10" class="edge">
<title>Node1&#45;&gt;Node39</title>
<path fill="none" stroke="#191970" d="M839.3663,-344.4301C714.2677,-338.9643 314.9854,-320.0095 296.5,-300 283.9254,-286.3886 295.115,-265.9768 306.4772,-251.461"/>
<polygon fill="#191970" stroke="#191970" points="309.2528,-253.5984 313.0088,-243.6917 303.8947,-249.0939 309.2528,-253.5984"/>
</g>
<!-- Node53 -->
<g id="node12" class="node">
<title>Node53</title>
<g id="a_node12"><a xlink:href="aloxtypesandenums_8hpp.html" target="_top" xlink:title="aloxtypesandenums.hpp">
<polygon fill="#ffffff" stroke="#000000" points="646.5,-280.5 646.5,-299.5 768.5,-299.5 768.5,-280.5 646.5,-280.5"/>
<text text-anchor="middle" x="707.5" y="-287.5" font-family="Helvetica,sans-Serif" font-size="10.00" fill="#000000">aloxtypesandenums.hpp</text>
</a>
</g>
</g>
<!-- Node1&#45;&gt;Node53 -->
<g id="edge11" class="edge">
<title>Node1&#45;&gt;Node53</title>
<path fill="none" stroke="#191970" d="M847.4479,-336.3733C819.3457,-327.0613 776.5946,-312.8953 745.7393,-302.671"/>
<polygon fill="#191970" stroke="#191970" points="746.7664,-299.3243 736.173,-299.5011 744.5645,-305.969 746.7664,-299.3243"/>
</g>
<!-- Node54 -->
<g id="node13" class="node">
<title>Node54</title>
<g id="a_node13"><a xlink:href="log_8hpp.html" target="_top" xlink:title="log.hpp">
<polygon fill="#ffffff" stroke="#000000" points="786.5,-280.5 786.5,-299.5 834.5,-299.5 834.5,-280.5 786.5,-280.5"/>
<text text-anchor="middle" x="810.5" y="-287.5" font-family="Helvetica,sans-Serif" font-size="10.00" fill="#000000">log.hpp</text>
</a>
</g>
</g>
<!-- Node1&#45;&gt;Node54 -->
<g id="edge12" class="edge">
<title>Node1&#45;&gt;Node54</title>
<path fill="none" stroke="#191970" d="M859.7368,-336.2455C848.6121,-328.1352 834.4644,-316.4075 824.0461,-306.7919"/>
<polygon fill="#191970" stroke="#191970" points="826.2512,-304.0564 816.6194,-299.6427 821.3965,-309.0995 826.2512,-304.0564"/>
</g>
<!-- Node55 -->
<g id="node14" class="node">
<title>Node55</title>
<g id="a_node14"><a xlink:href="lox_8hpp.html" target="_top" xlink:title="lox.hpp">
<polygon fill="#ffffff" stroke="#000000" points="852.5,-280.5 852.5,-299.5 900.5,-299.5 900.5,-280.5 852.5,-280.5"/>
<text text-anchor="middle" x="876.5" y="-287.5" font-family="Helvetica,sans-Serif" font-size="10.00" fill="#000000">lox.hpp</text>
</a>
</g>
</g>
<!-- Node1&#45;&gt;Node55 -->
<g id="edge13" class="edge">
<title>Node1&#45;&gt;Node55</title>
<path fill="none" stroke="#191970" d="M871.2332,-336.2455C869.8221,-328.9382 869.4179,-318.6944 870.0205,-309.7046"/>
<polygon fill="#191970" stroke="#191970" points="873.5111,-309.9945 871.2549,-299.6427 866.5632,-309.1421 873.5111,-309.9945"/>
</g>
<!-- Node67&#45;&gt;Node1 -->
<g id="edge66" class="edge">
<title>Node67&#45;&gt;Node1</title>
<path fill="none" stroke="#191970" d="M715.3622,-504.3497C696.6002,-491.8443 669.7353,-469.1329 682.5,-448 714.2092,-395.5033 782.8884,-368.6784 829.4172,-356.0086"/>
<polygon fill="#191970" stroke="#191970" points="830.4813,-359.3484 839.2783,-353.4437 828.7192,-352.5738 830.4813,-359.3484"/>
</g>
<!-- Node68 -->
<g id="node47" class="node">
<title>Node68</title>
<g id="a_node47"><a xlink:href="plaintextlogger_8hpp.html" target="_top" xlink:title="alox/core/textlogger/plaintextlogger.hpp">
<polygon fill="#ffffff" stroke="#000000" points="691.5,-448.5 691.5,-467.5 877.5,-467.5 877.5,-448.5 691.5,-448.5"/>
<text text-anchor="middle" x="784.5" y="-455.5" font-family="Helvetica,sans-Serif" font-size="10.00" fill="#000000">alox/core/textlogger/plaintextlogger.hpp</text>
</a>
</g>
</g>
<!-- Node67&#45;&gt;Node68 -->
<g id="edge67" class="edge">
<title>Node67&#45;&gt;Node68</title>
<path fill="none" stroke="#191970" d="M740.7319,-504.2455C748.3317,-496.2155 759.2877,-484.6394 768.3368,-475.0781"/>
<polygon fill="#191970" stroke="#191970" points="771.0421,-477.3115 775.3739,-467.6427 765.958,-472.4998 771.0421,-477.3115"/>
</g>
<!-- Node76&#45;&gt;Node1 -->
<g id="edge72" class="edge">
<title>Node76&#45;&gt;Node1</title>
<path fill="none" stroke="#191970" d="M989.9278,-448.4509C968.7885,-429.3574 921.0844,-386.2697 894.7749,-362.5063"/>
<polygon fill="#191970" stroke="#191970" points="896.8125,-359.6304 887.0454,-355.5249 892.1204,-364.8251 896.8125,-359.6304"/>
</g>
<!-- Node69 -->
<g id="node48" class="node">
<title>Node69</title>
<g id="a_node48"><a xlink:href="textlogger_8hpp.html" target="_top" xlink:title="alox/core/textlogger/textlogger.hpp">
<polygon fill="#ffffff" stroke="#ff0000" points="971.5,-392.5 971.5,-411.5 1137.5,-411.5 1137.5,-392.5 971.5,-392.5"/>
<text text-anchor="middle" x="1054.5" y="-399.5" font-family="Helvetica,sans-Serif" font-size="10.00" fill="#000000">alox/core/textlogger/textlogger.hpp</text>
</a>
</g>
</g>
<!-- Node76&#45;&gt;Node69 -->
<g id="edge73" class="edge">
<title>Node76&#45;&gt;Node69</title>
<path fill="none" stroke="#191970" d="M1009.9061,-448.2455C1017.6493,-440.2155 1028.812,-428.6394 1038.0318,-419.0781"/>
<polygon fill="#191970" stroke="#191970" points="1040.7798,-421.2706 1045.2017,-411.6427 1035.7409,-416.4117 1040.7798,-421.2706"/>
</g>
<!-- Node77&#45;&gt;Node1 -->
<g id="edge74" class="edge">
<title>Node77&#45;&gt;Node1</title>
<path fill="none" stroke="#191970" d="M897.2542,-504.4862C893.7765,-477.9293 883.9073,-402.5651 879.1407,-366.1655"/>
<polygon fill="#191970" stroke="#191970" points="882.5559,-365.2887 877.787,-355.8279 875.6151,-366.1977 882.5559,-365.2887"/>
</g>
<!-- Node77&#45;&gt;Node68 -->
<g id="edge75" class="edge">
<title>Node77&#45;&gt;Node68</title>
<path fill="none" stroke="#191970" d="M878.9027,-504.3733C860.7669,-495.4644 833.5865,-482.1127 813.0413,-472.0203"/>
<polygon fill="#191970" stroke="#191970" points="814.3603,-468.7688 803.8416,-467.5011 811.2739,-475.0517 814.3603,-468.7688"/>
</g>
<!-- Node78&#45;&gt;Node1 -->
<g id="edge76" class="edge">
<title>Node78&#45;&gt;Node1</title>
<path fill="none" stroke="#191970" d="M1177.517,-448.1246C1174.0075,-433.3862 1165.2299,-405.8856 1146.5,-392 1111.9382,-366.3772 991.3261,-353.9937 923.5873,-348.9354"/>
<polygon fill="#191970" stroke="#191970" points="923.8182,-345.4431 913.592,-348.2136 923.3139,-352.4249 923.8182,-345.4431"/>
</g>
<!-- Node78&#45;&gt;Node69 -->
<g id="edge77" class="edge">
<title>Node78&#45;&gt;Node69</title>
<path fill="none" stroke="#191970" d="M1158.0117,-448.3733C1137.856,-439.3435 1107.512,-425.7494 1084.882,-415.6111"/>
<polygon fill="#191970" stroke="#191970" points="1086.2649,-412.3955 1075.7079,-411.5011 1083.4029,-418.7838 1086.2649,-412.3955"/>
</g>
<!-- Node3 -->
<g id="node15" class="node">
<title>Node3</title>
<polygon fill="#ffffff" stroke="#bfbfbf" points="2643.5,-224.5 2643.5,-243.5 2695.5,-243.5 2695.5,-224.5 2643.5,-224.5"/>
<text text-anchor="middle" x="2669.5" y="-231.5" font-family="Helvetica,sans-Serif" font-size="10.00" fill="#000000">assert.h</text>
</g>
<!-- Node2&#45;&gt;Node3 -->
<g id="edge14" class="edge">
<title>Node2&#45;&gt;Node3</title>
<path fill="none" stroke="#191970" d="M2380.8878,-285.8641C2433.3476,-279.261 2536.6383,-265.1071 2633.2818,-244.0682"/>
<polygon fill="#191970" stroke="#191970" points="2634.2026,-247.4493 2643.2132,-241.8762 2632.6938,-240.6138 2634.2026,-247.4493"/>
</g>
<!-- Node4 -->
<g id="node16" class="node">
<title>Node4</title>
<polygon fill="#ffffff" stroke="#bfbfbf" points="2713.5,-224.5 2713.5,-243.5 2759.5,-243.5 2759.5,-224.5 2713.5,-224.5"/>
<text text-anchor="middle" x="2736.5" y="-231.5" font-family="Helvetica,sans-Serif" font-size="10.00" fill="#000000">cstdint</text>
</g>
<!-- Node2&#45;&gt;Node4 -->
<g id="edge15" class="edge">
<title>Node2&#45;&gt;Node4</title>
<path fill="none" stroke="#191970" d="M2380.6498,-287.6137C2443.0389,-282.825 2579.6631,-270.356 2703.2018,-243.971"/>
<polygon fill="#191970" stroke="#191970" points="2704.1793,-247.3403 2713.2081,-241.7966 2702.6929,-240.5 2704.1793,-247.3403"/>
</g>
<!-- Node5 -->
<g id="node17" class="node">
<title>Node5</title>
<g id="a_node17"><a xlink:href="prepro_8hpp.html" target="_top" xlink:title="alib/alib/prepro.hpp">
<polygon fill="#ffffff" stroke="#000000" points="2777.5,-224.5 2777.5,-243.5 2875.5,-243.5 2875.5,-224.5 2777.5,-224.5"/>
<text text-anchor="middle" x="2826.5" y="-231.5" font-family="Helvetica,sans-Serif" font-size="10.00" fill="#000000">alib/alib/prepro.hpp</text>
</a>
</g>
</g>
<!-- Node2&#45;&gt;Node5 -->
<g id="edge16" class="edge">
<title>Node2&#45;&gt;Node5</title>
<path fill="none" stroke="#191970" d="M2380.5032,-287.0167C2450.7178,-280.7009 2617.035,-264.9393 2767.1643,-244.1146"/>
<polygon fill="#191970" stroke="#191970" points="2768.067,-247.5225 2777.4859,-242.6711 2767.0975,-240.5899 2768.067,-247.5225"/>
</g>
<!-- Node6 -->
<g id="node18" class="node">
<title>Node6</title>
<g id="a_node18"><a xlink:href="distribution_8hpp_source.html" target="_top" xlink:title="alib/distribution.hpp">
<polygon fill="#ffffff" stroke="#000000" points="2894,-224.5 2894,-243.5 2995,-243.5 2995,-224.5 2894,-224.5"/>
<text text-anchor="middle" x="2944.5" y="-231.5" font-family="Helvetica,sans-Serif" font-size="10.00" fill="#000000">alib/distribution.hpp</text>
</a>
</g>
</g>
<!-- Node2&#45;&gt;Node6 -->
<g id="edge17" class="edge">
<title>Node2&#45;&gt;Node6</title>
<path fill="none" stroke="#191970" d="M2380.5896,-288.0336C2464.3687,-282.9985 2687.1974,-268.3807 2883.8655,-243.9857"/>
<polygon fill="#191970" stroke="#191970" points="2884.3149,-247.4569 2893.8027,-242.7419 2883.4454,-240.5111 2884.3149,-247.4569"/>
</g>
<!-- Node7 -->
<g id="node19" class="node">
<title>Node7</title>
<g id="a_node19"><a xlink:href="debug_8hpp.html" target="_top" xlink:title="alib/alib/debug.hpp">
<polygon fill="#ffffff" stroke="#000000" points="3013.5,-224.5 3013.5,-243.5 3111.5,-243.5 3111.5,-224.5 3013.5,-224.5"/>
<text text-anchor="middle" x="3062.5" y="-231.5" font-family="Helvetica,sans-Serif" font-size="10.00" fill="#000000">alib/alib/debug.hpp</text>
</a>
</g>
</g>
<!-- Node2&#45;&gt;Node7 -->
<g id="edge18" class="edge">
<title>Node2&#45;&gt;Node7</title>
<path fill="none" stroke="#191970" d="M2380.516,-288.8344C2476.6616,-285.2826 2758.7523,-273.0885 3003.0522,-244.067"/>
<polygon fill="#191970" stroke="#191970" points="3003.6772,-247.5172 3013.1888,-242.8505 3002.843,-240.5671 3003.6772,-247.5172"/>
</g>
<!-- Node8 -->
<g id="node20" class="node">
<title>Node8</title>
<g id="a_node20"><a xlink:href="rtti_8hpp.html" target="_top" xlink:title="alib/lang/rtti.hpp">
<polygon fill="#ffffff" stroke="#ff0000" points="3129.5,-224.5 3129.5,-243.5 3215.5,-243.5 3215.5,-224.5 3129.5,-224.5"/>
<text text-anchor="middle" x="3172.5" y="-231.5" font-family="Helvetica,sans-Serif" font-size="10.00" fill="#000000">alib/lang/rtti.hpp</text>
</a>
</g>
</g>
<!-- Node2&#45;&gt;Node8 -->
<g id="edge19" class="edge">
<title>Node2&#45;&gt;Node8</title>
<path fill="none" stroke="#191970" d="M2380.5957,-289.5604C2487.8331,-287.8428 2827.9041,-279.8453 3119.1012,-244.0164"/>
<polygon fill="#191970" stroke="#191970" points="3119.9477,-247.4381 3129.4389,-242.7301 3119.0833,-240.4917 3119.9477,-247.4381"/>
</g>
<!-- Node12 -->
<g id="node21" class="node">
<title>Node12</title>
<g id="a_node21"><a xlink:href="singleton_8hpp.html" target="_top" xlink:title="alib/lang/singleton.hpp">
<polygon fill="#ffffff" stroke="#000000" points="1065,-112.5 1065,-131.5 1178,-131.5 1178,-112.5 1065,-112.5"/>
<text text-anchor="middle" x="1121.5" y="-119.5" font-family="Helvetica,sans-Serif" font-size="10.00" fill="#000000">alib/lang/singleton.hpp</text>
</a>
</g>
</g>
<!-- Node2&#45;&gt;Node12 -->
<g id="edge20" class="edge">
<title>Node2&#45;&gt;Node12</title>
<path fill="none" stroke="#191970" d="M2312.4688,-289.5374C2127.125,-286.9055 1245.8555,-272.9042 1196.5,-244 1157.6725,-221.2613 1136.2601,-169.7012 1127.0446,-141.4337"/>
<polygon fill="#191970" stroke="#191970" points="1130.2855,-140.0641 1124.0072,-131.5299 1123.5932,-142.1166 1130.2855,-140.0641"/>
</g>
<!-- Node14 -->
<g id="node22" class="node">
<title>Node14</title>
<g id="a_node22"><a xlink:href="types_8hpp.html" target="_top" xlink:title="alib/lang/types.hpp">
<polygon fill="#ffffff" stroke="#000000" points="3233.5,-224.5 3233.5,-243.5 3331.5,-243.5 3331.5,-224.5 3233.5,-224.5"/>
<text text-anchor="middle" x="3282.5" y="-231.5" font-family="Helvetica,sans-Serif" font-size="10.00" fill="#000000">alib/lang/types.hpp</text>
</a>
</g>
</g>
<!-- Node2&#45;&gt;Node14 -->
<g id="edge21" class="edge">
<title>Node2&#45;&gt;Node14</title>
<path fill="none" stroke="#191970" d="M2380.5172,-289.6646C2496.7689,-288.2139 2889.0683,-280.8101 3222.8411,-244.0611"/>
<polygon fill="#191970" stroke="#191970" points="3223.6439,-247.4935 3233.1957,-242.9095 3222.8701,-240.5364 3223.6439,-247.4935"/>
</g>
<!-- Node15 -->
<g id="node23" class="node">
<title>Node15</title>
<g id="a_node23"><a xlink:href="boxing_8hpp.html" target="_top" xlink:title="alib/boxing/boxing.hpp">
<polygon fill="#ffffff" stroke="#ff0000" points="3350,-224.5 3350,-243.5 3463,-243.5 3463,-224.5 3350,-224.5"/>
<text text-anchor="middle" x="3406.5" y="-231.5" font-family="Helvetica,sans-Serif" font-size="10.00" fill="#000000">alib/boxing/boxing.hpp</text>
</a>
</g>
</g>
<!-- Node2&#45;&gt;Node15 -->
<g id="edge22" class="edge">
<title>Node2&#45;&gt;Node15</title>
<path fill="none" stroke="#191970" d="M2380.9287,-289.7036C2507.3072,-288.3429 2957.7016,-281.0926 3339.525,-243.9894"/>
<polygon fill="#191970" stroke="#191970" points="3340.0546,-247.4543 3349.6654,-242.9953 3339.3717,-240.4877 3340.0546,-247.4543"/>
</g>
<!-- Node23 -->
<g id="node24" class="node">
<title>Node23</title>
<g id="a_node24"><a xlink:href="enums_8hpp.html" target="_top" xlink:title="alib/lang/enums.hpp">
<polygon fill="#ffffff" stroke="#000000" points="1205.5,-224.5 1205.5,-243.5 1309.5,-243.5 1309.5,-224.5 1205.5,-224.5"/>
<text text-anchor="middle" x="1257.5" y="-231.5" font-family="Helvetica,sans-Serif" font-size="10.00" fill="#000000">alib/lang/enums.hpp</text>
</a>
</g>
</g>
<!-- Node2&#45;&gt;Node23 -->
<g id="edge23" class="edge">
<title>Node2&#45;&gt;Node23</title>
<path fill="none" stroke="#191970" d="M2312.4725,-289.0039C2157.6437,-284.3906 1518.6817,-264.4551 1319.5,-244 1319.3983,-243.9896 1319.2966,-243.9791 1319.1947,-243.9685"/>
<polygon fill="#191970" stroke="#191970" points="1319.8766,-240.5245 1309.5376,-242.8389 1319.0633,-247.4771 1319.8766,-240.5245"/>
</g>
<!-- Node24 -->
<g id="node25" class="node">
<title>Node24</title>
<g id="a_node25"><a xlink:href="cstring_8hpp.html" target="_top" xlink:title="alib/strings/cstring.hpp">
<polygon fill="#ffffff" stroke="#ff0000" points="1328,-224.5 1328,-243.5 1443,-243.5 1443,-224.5 1328,-224.5"/>
<text text-anchor="middle" x="1385.5" y="-231.5" font-family="Helvetica,sans-Serif" font-size="10.00" fill="#000000">alib/strings/cstring.hpp</text>
</a>
</g>
</g>
<!-- Node2&#45;&gt;Node24 -->
<g id="edge24" class="edge">
<title>Node2&#45;&gt;Node24</title>
<path fill="none" stroke="#191970" d="M2312.3068,-289.4311C2194.4954,-287.2203 1794.4417,-277.6313 1453.2754,-243.9766"/>
<polygon fill="#191970" stroke="#191970" points="1453.4967,-240.4814 1443.1992,-242.9739 1452.8034,-247.447 1453.4967,-240.4814"/>
</g>
<!-- Node27 -->
<g id="node26" class="node">
<title>Node27</title>
<g id="a_node26"><a xlink:href="string_8hpp.html" target="_top" xlink:title="alib/strings/string.hpp">
<polygon fill="#ffffff" stroke="#000000" points="1461.5,-224.5 1461.5,-243.5 1571.5,-243.5 1571.5,-224.5 1461.5,-224.5"/>
<text text-anchor="middle" x="1516.5" y="-231.5" font-family="Helvetica,sans-Serif" font-size="10.00" fill="#000000">alib/strings/string.hpp</text>
</a>
</g>
</g>
<!-- Node2&#45;&gt;Node27 -->
<g id="edge25" class="edge">
<title>Node2&#45;&gt;Node27</title>
<path fill="none" stroke="#191970" d="M2312.4743,-289.0778C2206.2146,-285.9601 1870.9526,-274.3259 1582.0307,-243.9483"/>
<polygon fill="#191970" stroke="#191970" points="1582.0864,-240.4346 1571.7729,-242.8597 1581.3477,-247.3955 1582.0864,-240.4346"/>
</g>
<!-- Node28 -->
<g id="node27" class="node">
<title>Node28</title>
<g id="a_node27"><a xlink:href="tstring_8hpp.html" target="_top" xlink:title="alib/strings/tstring.hpp">
<polygon fill="#ffffff" stroke="#000000" points="1590,-224.5 1590,-243.5 1703,-243.5 1703,-224.5 1590,-224.5"/>
<text text-anchor="middle" x="1646.5" y="-231.5" font-family="Helvetica,sans-Serif" font-size="10.00" fill="#000000">alib/strings/tstring.hpp</text>
</a>
</g>
</g>
<!-- Node2&#45;&gt;Node28 -->
<g id="edge26" class="edge">
<title>Node2&#45;&gt;Node28</title>
<path fill="none" stroke="#191970" d="M2312.3945,-288.4625C2218.5961,-284.0349 1948.6876,-269.9557 1713.4586,-244.0251"/>
<polygon fill="#191970" stroke="#191970" points="1713.6701,-240.5271 1703.3446,-242.9003 1712.8964,-247.4842 1713.6701,-240.5271"/>
</g>
<!-- Node29 -->
<g id="node28" class="node">
<title>Node29</title>
<g id="a_node28"><a xlink:href="stringliteral_8hpp.html" target="_top" xlink:title="alib/strings/stringliteral.hpp">
<polygon fill="#ffffff" stroke="#000000" points="1721,-224.5 1721,-243.5 1854,-243.5 1854,-224.5 1721,-224.5"/>
<text text-anchor="middle" x="1787.5" y="-231.5" font-family="Helvetica,sans-Serif" font-size="10.00" fill="#000000">alib/strings/stringliteral.hpp</text>
</a>
</g>
</g>
<!-- Node2&#45;&gt;Node29 -->
<g id="edge27" class="edge">
<title>Node2&#45;&gt;Node29</title>
<path fill="none" stroke="#191970" d="M2312.4925,-287.1836C2235.0457,-280.6792 2039.3734,-263.7345 1864.3785,-244.064"/>
<polygon fill="#191970" stroke="#191970" points="1864.5412,-240.5602 1854.2115,-242.9154 1863.7554,-247.516 1864.5412,-240.5602"/>
</g>
<!-- Node30 -->
<g id="node29" class="node">
<title>Node30</title>
<g id="a_node29"><a xlink:href="astring_8hpp.html" target="_top" xlink:title="alib/strings/astring.hpp">
<polygon fill="#ffffff" stroke="#ff0000" points="1872,-224.5 1872,-243.5 1987,-243.5 1987,-224.5 1872,-224.5"/>
<text text-anchor="middle" x="1929.5" y="-231.5" font-family="Helvetica,sans-Serif" font-size="10.00" fill="#000000">alib/strings/astring.hpp</text>
</a>
</g>
</g>
<!-- Node2&#45;&gt;Node30 -->
<g id="edge28" class="edge">
<title>Node2&#45;&gt;Node30</title>
<path fill="none" stroke="#191970" d="M2312.1939,-285.6933C2251.1896,-277.9913 2119.5737,-261.1772 1997.5048,-244.1213"/>
<polygon fill="#191970" stroke="#191970" points="1997.6231,-240.6038 1987.2342,-242.6825 1996.6519,-247.5361 1997.6231,-240.6038"/>
</g>
<!-- Node32 -->
<g id="node30" class="node">
<title>Node32</title>
<g id="a_node30"><a xlink:href="preallocatedstring_8hpp.html" target="_top" xlink:title="alib/strings/preallocatedstring.hpp">
<polygon fill="#ffffff" stroke="#000000" points="2005.5,-224.5 2005.5,-243.5 2167.5,-243.5 2167.5,-224.5 2005.5,-224.5"/>
<text text-anchor="middle" x="2086.5" y="-231.5" font-family="Helvetica,sans-Serif" font-size="10.00" fill="#000000">alib/strings/preallocatedstring.hpp</text>
</a>
</g>
</g>
<!-- Node2&#45;&gt;Node32 -->
<g id="edge29" class="edge">
<title>Node2&#45;&gt;Node32</title>
<path fill="none" stroke="#191970" d="M2312.2422,-282.6214C2268.5473,-273.2102 2192.471,-256.8245 2140.8313,-245.7021"/>
<polygon fill="#191970" stroke="#191970" points="2141.3588,-242.2355 2130.846,-243.5514 2139.8849,-249.0786 2141.3588,-242.2355"/>
</g>
<!-- Node33 -->
<g id="node31" class="node">
<title>Node33</title>
<g id="a_node31"><a xlink:href="stringboxing_8hpp.html" target="_top" xlink:title="alib/strings/boxing/stringboxing.hpp">
<polygon fill="#ffffff" stroke="#000000" points="2185.5,-224.5 2185.5,-243.5 2355.5,-243.5 2355.5,-224.5 2185.5,-224.5"/>
<text text-anchor="middle" x="2270.5" y="-231.5" font-family="Helvetica,sans-Serif" font-size="10.00" fill="#000000">alib/strings/boxing/stringboxing.hpp</text>
</a>
</g>
</g>
<!-- Node2&#45;&gt;Node33 -->
<g id="edge30" class="edge">
<title>Node2&#45;&gt;Node33</title>
<path fill="none" stroke="#191970" d="M2333.2618,-280.2455C2321.819,-271.814 2305.0704,-259.4729 2291.7525,-249.6598"/>
<polygon fill="#191970" stroke="#191970" points="2293.7133,-246.757 2283.5865,-243.6427 2289.5609,-252.3924 2293.7133,-246.757"/>
</g>
<!-- Node34 -->
<g id="node32" class="node">
<title>Node34</title>
<g id="a_node32"><a xlink:href="report_8hpp.html" target="_top" xlink:title="alib/lang/report.hpp">
<polygon fill="#ffffff" stroke="#ff0000" points="2374,-224.5 2374,-243.5 2473,-243.5 2473,-224.5 2374,-224.5"/>
<text text-anchor="middle" x="2423.5" y="-231.5" font-family="Helvetica,sans-Serif" font-size="10.00" fill="#000000">alib/lang/report.hpp</text>
</a>
</g>
</g>
<!-- Node2&#45;&gt;Node34 -->
<g id="edge31" class="edge">
<title>Node2&#45;&gt;Node34</title>
<path fill="none" stroke="#191970" d="M2359.9124,-280.2455C2371.5057,-271.814 2388.4748,-259.4729 2401.9678,-249.6598"/>
<polygon fill="#191970" stroke="#191970" points="2404.2126,-252.355 2410.2413,-243.6427 2400.0953,-246.6938 2404.2126,-252.355"/>
</g>
<!-- Node36 -->
<g id="node33" class="node">
<title>Node36</title>
<g id="a_node33"><a xlink:href="applicables_8hpp.html" target="_top" xlink:title="alib/strings/applicables.hpp">
<polygon fill="#ffffff" stroke="#000000" points="2491.5,-224.5 2491.5,-243.5 2625.5,-243.5 2625.5,-224.5 2491.5,-224.5"/>
<text text-anchor="middle" x="2558.5" y="-231.5" font-family="Helvetica,sans-Serif" font-size="10.00" fill="#000000">alib/strings/applicables.hpp</text>
</a>
</g>
</g>
<!-- Node2&#45;&gt;Node36 -->
<g id="edge32" class="edge">
<title>Node2&#45;&gt;Node36</title>
<path fill="none" stroke="#191970" d="M2380.5615,-281.0026C2416.3848,-271.5399 2472.9637,-256.5945 2512.6826,-246.1027"/>
<polygon fill="#191970" stroke="#191970" points="2513.62,-249.4752 2522.3945,-243.5373 2511.8322,-242.7074 2513.62,-249.4752"/>
</g>
<!-- Node39&#45;&gt;Node13 -->
<g id="edge34" class="edge">
<title>Node39&#45;&gt;Node13</title>
<path fill="none" stroke="#191970" d="M340.208,-224.3545C355.6302,-215.641 378.3069,-202.0605 396.5,-188 435.3041,-158.0103 435.0593,-138.226 476.5,-112 553.2156,-63.45 656.7181,-31.8473 708.3762,-18.0196"/>
<polygon fill="#191970" stroke="#191970" points="709.5067,-21.3415 718.2889,-15.4151 707.7278,-14.5712 709.5067,-21.3415"/>
</g>
<!-- Node40 -->
<g id="node34" class="node">
<title>Node40</title>
<g id="a_node34"><a xlink:href="threadlock_8hpp.html" target="_top" xlink:title="alib/threads/threadlock.hpp">
<polygon fill="#ffffff" stroke="#ff0000" points="485.5,-168.5 485.5,-187.5 619.5,-187.5 619.5,-168.5 485.5,-168.5"/>
<text text-anchor="middle" x="552.5" y="-175.5" font-family="Helvetica,sans-Serif" font-size="10.00" fill="#000000">alib/threads/threadlock.hpp</text>
</a>
</g>
</g>
<!-- Node39&#45;&gt;Node40 -->
<g id="edge35" class="edge">
<title>Node39&#45;&gt;Node40</title>
<path fill="none" stroke="#191970" d="M361.7771,-224.4369C400.9744,-214.8932 461.3,-200.2052 503.5835,-189.9101"/>
<polygon fill="#191970" stroke="#191970" points="504.4968,-193.2901 513.3849,-187.5237 502.8408,-186.4888 504.4968,-193.2901"/>
</g>
<!-- Node48 -->
<g id="node35" class="node">
<title>Node48</title>
<g id="a_node35"><a xlink:href="substring_8hpp.html" target="_top" xlink:title="alib/strings/substring.hpp">
<polygon fill="#ffffff" stroke="#000000" points="304,-56.5 304,-75.5 429,-75.5 429,-56.5 304,-56.5"/>
<text text-anchor="middle" x="366.5" y="-63.5" font-family="Helvetica,sans-Serif" font-size="10.00" fill="#000000">alib/strings/substring.hpp</text>
</a>
</g>
</g>
<!-- Node39&#45;&gt;Node48 -->
<g id="edge36" class="edge">
<title>Node39&#45;&gt;Node48</title>
<path fill="none" stroke="#191970" d="M341.3824,-224.3676C354.47,-216.5389 370.8649,-204.1524 378.5,-188 394.3371,-154.4959 383.0785,-110.1272 374.257,-85.1738"/>
<polygon fill="#191970" stroke="#191970" points="377.5106,-83.8821 370.7117,-75.7565 370.9595,-86.3485 377.5106,-83.8821"/>
</g>
<!-- Node49 -->
<g id="node36" class="node">
<title>Node49</title>
<g id="a_node36"><a xlink:href="numberformat_8hpp.html" target="_top" xlink:title="alib/strings/numberformat.hpp">
<polygon fill="#ffffff" stroke="#000000" points="207.5,-168.5 207.5,-187.5 353.5,-187.5 353.5,-168.5 207.5,-168.5"/>
<text text-anchor="middle" x="280.5" y="-175.5" font-family="Helvetica,sans-Serif" font-size="10.00" fill="#000000">alib/strings/numberformat.hpp</text>
</a>
</g>
</g>
<!-- Node39&#45;&gt;Node49 -->
<g id="edge37" class="edge">
<title>Node39&#45;&gt;Node49</title>
<path fill="none" stroke="#191970" d="M315.1842,-224.2455C309.2821,-216.3761 300.8258,-205.101 293.7406,-195.6542"/>
<polygon fill="#191970" stroke="#191970" points="296.5321,-193.5427 287.732,-187.6427 290.932,-197.7427 296.5321,-193.5427"/>
</g>
<!-- Node50 -->
<g id="node37" class="node">
<title>Node50</title>
<g id="a_node37"><a xlink:href="variable_8hpp.html" target="_top" xlink:title="alib/config/variable.hpp">
<polygon fill="#ffffff" stroke="#000000" points="169.5,-56.5 169.5,-75.5 285.5,-75.5 285.5,-56.5 169.5,-56.5"/>
<text text-anchor="middle" x="227.5" y="-63.5" font-family="Helvetica,sans-Serif" font-size="10.00" fill="#000000">alib/config/variable.hpp</text>
</a>
</g>
</g>
<!-- Node39&#45;&gt;Node50 -->
<g id="edge38" class="edge">
<title>Node39&#45;&gt;Node50</title>
<path fill="none" stroke="#191970" d="M282.6671,-224.4857C250.3115,-215.8563 208.4652,-202.3255 198.5,-188 176.4524,-156.3052 198.8688,-109.9756 214.7251,-84.498"/>
<polygon fill="#191970" stroke="#191970" points="217.8474,-86.1174 220.3746,-75.8284 211.9827,-82.2957 217.8474,-86.1174"/>
</g>
<!-- Node51 -->
<g id="node38" class="node">
<title>Node51</title>
<g id="a_node38"><a xlink:href="plugins_8hpp.html" target="_top" xlink:title="alib/config/plugins.hpp">
<polygon fill="#ffffff" stroke="#000000" points="243,-112.5 243,-131.5 356,-131.5 356,-112.5 243,-112.5"/>
<text text-anchor="middle" x="299.5" y="-119.5" font-family="Helvetica,sans-Serif" font-size="10.00" fill="#000000">alib/config/plugins.hpp</text>
</a>
</g>
</g>
<!-- Node39&#45;&gt;Node51 -->
<g id="edge39" class="edge">
<title>Node39&#45;&gt;Node51</title>
<path fill="none" stroke="#191970" d="M335.4331,-224.4208C350.7857,-211.8056 373.0595,-188.7848 362.5,-168 355.639,-154.4951 342.7468,-144.0099 330.4034,-136.4839"/>
<polygon fill="#191970" stroke="#191970" points="332.0367,-133.3868 321.6066,-131.5258 328.5997,-139.4849 332.0367,-133.3868"/>
</g>
<!-- Node52 -->
<g id="node39" class="node">
<title>Node52</title>
<g id="a_node39"><a xlink:href="inmemoryplugin_8hpp.html" target="_top" xlink:title="alib/config/inmemoryplugin.hpp">
<polygon fill="#ffffff" stroke="#000000" points="0,-168.5 0,-187.5 151,-187.5 151,-168.5 0,-168.5"/>
<text text-anchor="middle" x="75.5" y="-175.5" font-family="Helvetica,sans-Serif" font-size="10.00" fill="#000000">alib/config/inmemoryplugin.hpp</text>
</a>
</g>
</g>
<!-- Node39&#45;&gt;Node52 -->
<g id="edge40" class="edge">
<title>Node39&#45;&gt;Node52</title>
<path fill="none" stroke="#191970" d="M280.3198,-224.4369C238.0477,-214.8529 172.8938,-200.0812 127.4583,-189.78"/>
<polygon fill="#191970" stroke="#191970" points="128.0326,-186.3215 117.5062,-187.5237 126.4848,-193.1482 128.0326,-186.3215"/>
</g>
<!-- Node54&#45;&gt;Node1 -->
<g id="edge46" class="edge">
<title>Node54&#45;&gt;Node1</title>
<path fill="none" stroke="#191970" d="M827.1097,-299.6427C838.2064,-307.7196 852.3573,-319.4402 862.8098,-329.0751"/>
<polygon fill="#191970" stroke="#191970" points="860.6352,-331.8396 870.2705,-336.2455 865.4858,-326.7926 860.6352,-331.8396"/>
</g>
<!-- Node55&#45;&gt;Node1 -->
<g id="edge47" class="edge">
<title>Node55&#45;&gt;Node1</title>
<path fill="none" stroke="#191970" d="M881.7451,-299.6427C883.1665,-306.9199 883.581,-317.155 882.9887,-326.1575"/>
<polygon fill="#191970" stroke="#191970" points="879.4947,-325.8972 881.7668,-336.2455 886.4439,-326.739 879.4947,-325.8972"/>
</g>
<!-- Node55&#45;&gt;Node39 -->
<g id="edge48" class="edge">
<title>Node55&#45;&gt;Node39</title>
<path fill="none" stroke="#191970" d="M852.4973,-282.0802C849.4915,-281.2802 846.4407,-280.5584 843.5,-280 652.652,-243.759 598.7455,-263.8703 401.8961,-244.0909"/>
<polygon fill="#191970" stroke="#191970" points="402.1083,-240.5944 391.803,-243.0546 401.3932,-247.5578 402.1083,-240.5944"/>
</g>
<!-- Node45 -->
<g id="node40" class="node">
<title>Node45</title>
<polygon fill="#ffffff" stroke="#bfbfbf" points="682,-168.5 682,-187.5 717,-187.5 717,-168.5 682,-168.5"/>
<text text-anchor="middle" x="699.5" y="-175.5" font-family="Helvetica,sans-Serif" font-size="10.00" fill="#000000">map</text>
</g>
<!-- Node55&#45;&gt;Node45 -->
<g id="edge49" class="edge">
<title>Node55&#45;&gt;Node45</title>
<path fill="none" stroke="#191970" d="M852.3875,-282.6162C811.7685,-270.1412 733.8592,-246.0412 731.5,-244 717.3968,-231.7974 708.957,-211.9562 704.3165,-197.2099"/>
<polygon fill="#191970" stroke="#191970" points="707.6747,-196.2228 701.5823,-187.5548 700.9396,-198.1301 707.6747,-196.2228"/>
</g>
<!-- Node56 -->
<g id="node41" class="node">
<title>Node56</title>
<g id="a_node41"><a xlink:href="smartlock_8hpp.html" target="_top" xlink:title="alib/threads/smartlock.hpp">
<polygon fill="#ffffff" stroke="#000000" points="410,-224.5 410,-243.5 541,-243.5 541,-224.5 410,-224.5"/>
<text text-anchor="middle" x="475.5" y="-231.5" font-family="Helvetica,sans-Serif" font-size="10.00" fill="#000000">alib/threads/smartlock.hpp</text>
</a>
</g>
</g>
<!-- Node55&#45;&gt;Node56 -->
<g id="edge50" class="edge">
<title>Node55&#45;&gt;Node56</title>
<path fill="none" stroke="#191970" d="M852.4737,-282.1975C849.472,-281.3774 846.4286,-280.6188 843.5,-280 718.267,-253.5373 682.3784,-260.3104 551.3627,-244.0809"/>
<polygon fill="#191970" stroke="#191970" points="551.7043,-240.5963 541.3451,-242.8183 550.8289,-247.5414 551.7043,-240.5963"/>
</g>
<!-- Node57 -->
<g id="node42" class="node">
<title>Node57</title>
<g id="a_node42"><a xlink:href="tokenizer_8hpp.html" target="_top" xlink:title="alib/strings/util/tokenizer.hpp">
<polygon fill="#ffffff" stroke="#000000" points="485.5,-112.5 485.5,-131.5 625.5,-131.5 625.5,-112.5 485.5,-112.5"/>
<text text-anchor="middle" x="555.5" y="-119.5" font-family="Helvetica,sans-Serif" font-size="10.00" fill="#000000">alib/strings/util/tokenizer.hpp</text>
</a>
</g>
</g>
<!-- Node55&#45;&gt;Node57 -->
<g id="edge51" class="edge">
<title>Node55&#45;&gt;Node57</title>
<path fill="none" stroke="#191970" d="M852.2859,-282.2597C823.5267,-272.6962 777.7721,-256.1966 764.5,-244 736.5455,-218.3109 755.0098,-191.8863 725.5,-168 708.9238,-154.5826 659.9345,-142.129 618.7787,-133.5729"/>
<polygon fill="#191970" stroke="#191970" points="619.2781,-130.1029 608.7809,-131.5376 617.8817,-136.9622 619.2781,-130.1029"/>
</g>
<!-- Node58 -->
<g id="node43" class="node">
<title>Node58</title>
<g id="a_node43"><a xlink:href="scopeinfo_8hpp.html" target="_top" xlink:title="alox/core/scopeinfo.hpp">
<polygon fill="#ffffff" stroke="#ff0000" points="559.5,-224.5 559.5,-243.5 679.5,-243.5 679.5,-224.5 559.5,-224.5"/>
<text text-anchor="middle" x="619.5" y="-231.5" font-family="Helvetica,sans-Serif" font-size="10.00" fill="#000000">alox/core/scopeinfo.hpp</text>
</a>
</g>
</g>
<!-- Node55&#45;&gt;Node58 -->
<g id="edge52" class="edge">
<title>Node55&#45;&gt;Node58</title>
<path fill="none" stroke="#191970" d="M852.4209,-282.4249C849.4282,-281.5657 846.4014,-280.7359 843.5,-280 789.6567,-266.344 727.7563,-253.8743 682.6903,-245.3735"/>
<polygon fill="#191970" stroke="#191970" points="683.2384,-241.9153 672.7649,-243.514 681.9494,-248.7956 683.2384,-241.9153"/>
</g>
<!-- Node62 -->
<g id="node44" class="node">
<title>Node62</title>
<g id="a_node44"><a xlink:href="logger_8hpp.html" target="_top" xlink:title="alox/core/logger.hpp">
<polygon fill="#ffffff" stroke="#000000" points="1045.5,-224.5 1045.5,-243.5 1149.5,-243.5 1149.5,-224.5 1045.5,-224.5"/>
<text text-anchor="middle" x="1097.5" y="-231.5" font-family="Helvetica,sans-Serif" font-size="10.00" fill="#000000">alox/core/logger.hpp</text>
</a>
</g>
</g>
<!-- Node55&#45;&gt;Node62 -->
<g id="edge53" class="edge">
<title>Node55&#45;&gt;Node62</title>
<path fill="none" stroke="#191970" d="M900.5716,-283.9004C936.3205,-274.8419 1004.156,-257.6528 1050.1005,-246.0107"/>
<polygon fill="#191970" stroke="#191970" points="1051.0053,-249.3922 1059.8392,-243.543 1049.2858,-242.6066 1051.0053,-249.3922"/>
</g>
<!-- Node63 -->
<g id="node45" class="node">
<title>Node63</title>
<g id="a_node45"><a xlink:href="domain_8hpp.html" target="_top" xlink:title="alox/core/domain.hpp">
<polygon fill="#ffffff" stroke="#000000" points="773.5,-224.5 773.5,-243.5 883.5,-243.5 883.5,-224.5 773.5,-224.5"/>
<text text-anchor="middle" x="828.5" y="-231.5" font-family="Helvetica,sans-Serif" font-size="10.00" fill="#000000">alox/core/domain.hpp</text>
</a>
</g>
</g>
<!-- Node55&#45;&gt;Node63 -->
<g id="edge54" class="edge">
<title>Node55&#45;&gt;Node63</title>
<path fill="none" stroke="#191970" d="M868.139,-280.2455C861.325,-272.2958 851.5319,-260.8706 843.3848,-251.3656"/>
<polygon fill="#191970" stroke="#191970" points="845.9305,-248.9575 836.7651,-243.6427 840.6157,-253.513 845.9305,-248.9575"/>
</g>
<!-- Node64 -->
<g id="node46" class="node">
<title>Node64</title>
<g id="a_node46"><a xlink:href="scopestore_8hpp.html" target="_top" xlink:title="alox/core/scopestore.hpp">
<polygon fill="#ffffff" stroke="#ff0000" points="901.5,-224.5 901.5,-243.5 1027.5,-243.5 1027.5,-224.5 901.5,-224.5"/>
<text text-anchor="middle" x="964.5" y="-231.5" font-family="Helvetica,sans-Serif" font-size="10.00" fill="#000000">alox/core/scopestore.hpp</text>
</a>
</g>
</g>
<!-- Node55&#45;&gt;Node64 -->
<g id="edge55" class="edge">
<title>Node55&#45;&gt;Node64</title>
<path fill="none" stroke="#191970" d="M891.8284,-280.2455C905.3303,-271.6534 925.2122,-259.0014 940.7686,-249.1018"/>
<polygon fill="#191970" stroke="#191970" points="942.7897,-251.9643 949.3472,-243.6427 939.0315,-246.0587 942.7897,-251.9643"/>
</g>
<!-- Node12&#45;&gt;Node13 -->
<g id="edge33" class="edge">
<title>Node12&#45;&gt;Node13</title>
<path fill="none" stroke="#191970" d="M1097.6798,-112.4594C1062.8817,-98.7509 995.9276,-73.2382 937.5,-56 880.1064,-39.0668 811.848,-24.2976 772.6091,-16.3124"/>
<polygon fill="#191970" stroke="#191970" points="773.0733,-12.8356 762.5789,-14.2907 771.6902,-19.6976 773.0733,-12.8356"/>
</g>
<!-- Node50&#45;&gt;Node13 -->
<g id="edge41" class="edge">
<title>Node50&#45;&gt;Node13</title>
<path fill="none" stroke="#191970" d="M285.5824,-57.1662C288.5966,-56.7594 291.5829,-56.3679 294.5,-56 449.0795,-36.5028 634.5821,-19.3737 708.1574,-12.8284"/>
<polygon fill="#191970" stroke="#191970" points="708.5314,-16.3091 718.1837,-11.9405 707.9139,-9.3364 708.5314,-16.3091"/>
</g>
<!-- Node51&#45;&gt;Node48 -->
<g id="edge42" class="edge">
<title>Node51&#45;&gt;Node48</title>
<path fill="none" stroke="#191970" d="M311.1705,-112.2455C321.0661,-103.9746 335.4627,-91.9416 347.0901,-82.2232"/>
<polygon fill="#191970" stroke="#191970" points="349.535,-84.7413 354.9632,-75.6427 345.0458,-79.3703 349.535,-84.7413"/>
</g>
<!-- Node51&#45;&gt;Node50 -->
<g id="edge43" class="edge">
<title>Node51&#45;&gt;Node50</title>
<path fill="none" stroke="#191970" d="M286.9586,-112.2455C276.2213,-103.8943 260.5527,-91.7076 247.9953,-81.9408"/>
<polygon fill="#191970" stroke="#191970" points="249.9401,-79.0194 239.8977,-75.6427 245.6425,-84.5449 249.9401,-79.0194"/>
</g>
<!-- Node52&#45;&gt;Node13 -->
<g id="edge44" class="edge">
<title>Node52&#45;&gt;Node13</title>
<path fill="none" stroke="#191970" d="M78.942,-168.1867C87.9659,-144.1145 114.818,-82.1988 160.5,-56 208.0887,-28.7077 592.5826,-14.6102 707.9148,-10.9671"/>
<polygon fill="#191970" stroke="#191970" points="708.329,-14.4561 718.2154,-10.6471 708.1115,-7.4594 708.329,-14.4561"/>
</g>
<!-- Node52&#45;&gt;Node51 -->
<g id="edge45" class="edge">
<title>Node52&#45;&gt;Node51</title>
<path fill="none" stroke="#191970" d="M113.7525,-168.4369C151.8467,-158.9133 210.4313,-144.2672 251.5987,-133.9753"/>
<polygon fill="#191970" stroke="#191970" points="252.5528,-137.3446 261.4053,-131.5237 250.855,-130.5536 252.5528,-137.3446"/>
</g>
<!-- Node56&#45;&gt;Node13 -->
<g id="edge56" class="edge">
<title>Node56&#45;&gt;Node13</title>
<path fill="none" stroke="#191970" d="M541.2766,-224.9192C570.2471,-218.3683 603.3394,-207.1516 628.5,-188 684.5575,-145.3305 719.7384,-65.8614 733.6668,-29.3066"/>
<polygon fill="#191970" stroke="#191970" points="736.9918,-30.4059 737.1699,-19.8126 730.4246,-27.9827 736.9918,-30.4059"/>
</g>
<!-- Node56&#45;&gt;Node40 -->
<g id="edge57" class="edge">
<title>Node56&#45;&gt;Node40</title>
<path fill="none" stroke="#191970" d="M488.9124,-224.2455C500.5057,-215.814 517.4748,-203.4729 530.9678,-193.6598"/>
<polygon fill="#191970" stroke="#191970" points="533.2126,-196.355 539.2413,-187.6427 529.0953,-190.6938 533.2126,-196.355"/>
</g>
<!-- Node57&#45;&gt;Node48 -->
<g id="edge58" class="edge">
<title>Node57&#45;&gt;Node48</title>
<path fill="none" stroke="#191970" d="M523.0097,-112.3733C491.3098,-102.9807 442.9424,-88.6496 408.3714,-78.4064"/>
<polygon fill="#191970" stroke="#191970" points="409.1486,-74.9863 398.5663,-75.5011 407.1599,-81.6979 409.1486,-74.9863"/>
</g>
<!-- Node58&#45;&gt;Node1 -->
<g id="edge59" class="edge">
<title>Node58&#45;&gt;Node1</title>
<path fill="none" stroke="#191970" d="M619.1681,-243.6732C619.236,-258.1476 621.6449,-285.3079 637.5,-300 664.7477,-325.2491 767.3107,-337.5143 828.878,-342.7202"/>
<polygon fill="#191970" stroke="#191970" points="828.8782,-346.2317 839.1291,-343.554 829.4458,-339.2548 828.8782,-346.2317"/>
</g>
<!-- Node58&#45;&gt;Node45 -->
<g id="edge60" class="edge">
<title>Node58&#45;&gt;Node45</title>
<path fill="none" stroke="#191970" d="M633.4349,-224.2455C645.5947,-215.7337 663.4464,-203.2375 677.5285,-193.3801"/>
<polygon fill="#191970" stroke="#191970" points="679.5395,-196.2447 685.7248,-187.6427 675.5253,-190.51 679.5395,-196.2447"/>
</g>
<!-- Node62&#45;&gt;Node1 -->
<g id="edge61" class="edge">
<title>Node62&#45;&gt;Node1</title>
<path fill="none" stroke="#191970" d="M1078.7054,-243.5249C1039.7663,-263.2587 950.1069,-308.6969 904.3955,-331.8629"/>
<polygon fill="#191970" stroke="#191970" points="902.6801,-328.8084 895.3423,-336.4509 905.8445,-335.0524 902.6801,-328.8084"/>
</g>
<!-- Node62&#45;&gt;Node13 -->
<g id="edge62" class="edge">
<title>Node62&#45;&gt;Node13</title>
<path fill="none" stroke="#191970" d="M1082.1602,-224.375C1026.2027,-189.2645 832.7738,-67.8973 764.5509,-25.0908"/>
<polygon fill="#191970" stroke="#191970" points="766.1136,-21.9394 755.7827,-19.5891 762.3931,-27.8688 766.1136,-21.9394"/>
</g>
<!-- Node63&#45;&gt;Node1 -->
<g id="edge63" class="edge">
<title>Node63&#45;&gt;Node1</title>
<path fill="none" stroke="#191970" d="M861.1897,-243.5826C878.8362,-250.6101 899.0862,-262.1101 909.5,-280 918.982,-296.2891 906.6657,-315.6543 894.4746,-329.1798"/>
<polygon fill="#191970" stroke="#191970" points="891.9224,-326.7841 887.4769,-336.4012 896.9494,-331.6554 891.9224,-326.7841"/>
</g>
<!-- Node63&#45;&gt;Node13 -->
<g id="edge64" class="edge">
<title>Node63&#45;&gt;Node13</title>
<path fill="none" stroke="#191970" d="M824.7188,-224.375C811.3202,-190.2697 765.9477,-74.7761 747.9473,-28.9567"/>
<polygon fill="#191970" stroke="#191970" points="751.1814,-27.6169 744.2672,-19.5891 744.6661,-30.1765 751.1814,-27.6169"/>
</g>
<!-- Node64&#45;&gt;Node1 -->
<g id="edge65" class="edge">
<title>Node64&#45;&gt;Node1</title>
<path fill="none" stroke="#191970" d="M959.7448,-243.9514C953.0861,-257.378 940.144,-281.7174 925.5,-300 916.9244,-310.7064 905.8915,-321.2804 896.4667,-329.5857"/>
<polygon fill="#191970" stroke="#191970" points="894.0124,-327.0797 888.7005,-336.2466 898.5696,-332.3931 894.0124,-327.0797"/>
</g>
<!-- Node68&#45;&gt;Node1 -->
<g id="edge68" class="edge">
<title>Node68&#45;&gt;Node1</title>
<path fill="none" stroke="#191970" d="M792.3439,-448.4509C807.8242,-429.6054 842.5053,-387.3849 862.1727,-363.4419"/>
<polygon fill="#191970" stroke="#191970" points="865.0331,-365.4738 868.676,-355.5249 859.624,-361.0306 865.0331,-365.4738"/>
</g>
<!-- Node68&#45;&gt;Node69 -->
<g id="edge69" class="edge">
<title>Node68&#45;&gt;Node69</title>
<path fill="none" stroke="#191970" d="M830.6079,-448.4369C877.1075,-438.7925 948.9359,-423.8948 998.64,-413.5858"/>
<polygon fill="#191970" stroke="#191970" points="999.5015,-416.9817 1008.5823,-411.5237 998.0799,-410.1275 999.5015,-416.9817"/>
</g>
<!-- Node69&#45;&gt;Node1 -->
<g id="edge70" class="edge">
<title>Node69&#45;&gt;Node1</title>
<path fill="none" stroke="#191970" d="M1023.9007,-392.3733C994.1739,-383.021 948.8841,-368.7725 916.3544,-358.5385"/>
<polygon fill="#191970" stroke="#191970" points="917.2895,-355.1636 906.7,-355.5011 915.1887,-361.8409 917.2895,-355.1636"/>
</g>
<!-- Node69&#45;&gt;Node62 -->
<g id="edge71" class="edge">
<title>Node69&#45;&gt;Node62</title>
<path fill="none" stroke="#191970" d="M1056.9351,-392.4862C1063.7618,-365.8144 1083.1893,-289.9117 1092.459,-253.695"/>
<polygon fill="#191970" stroke="#191970" points="1095.8956,-254.3835 1094.9845,-243.8279 1089.1142,-252.6477 1095.8956,-254.3835"/>
</g>
</g>
</svg>
