<?xml version="1.0" encoding="UTF-8" standalone="no"?>
<!DOCTYPE svg PUBLIC "-//W3C//DTD SVG 1.1//EN"
 "http://www.w3.org/Graphics/SVG/1.1/DTD/svg11.dtd">
<!-- Generated by graphviz version 2.38.0 (20140413.2041)
 -->
<!-- Title: ansilogger.hpp Pages: 1 -->
<svg width="2146pt" height="431pt"
 viewBox="0.00 0.00 2145.50 431.00" xmlns="http://www.w3.org/2000/svg" xmlns:xlink="http://www.w3.org/1999/xlink">
<g id="graph0" class="graph" transform="scale(1 1) rotate(0) translate(4 427)">
<title>ansilogger.hpp</title>
<polygon fill="white" stroke="none" points="-4,4 -4,-427 2141.5,-427 2141.5,4 -4,4"/>
<!-- Node1 -->
<g id="node1" class="node"><title>Node1</title>
<polygon fill="#bfbfbf" stroke="black" points="1724.5,-403.5 1724.5,-422.5 1804.5,-422.5 1804.5,-403.5 1724.5,-403.5"/>
<text text-anchor="middle" x="1764.5" y="-410.5" font-family="Helvetica,sans-Serif" font-size="10.00">ansilogger.hpp</text>
</g>
<!-- Node2 -->
<g id="node2" class="node"><title>Node2</title>
<g id="a_node2"><a xlink:href="alox_8hpp.html" target="_top" xlink:title="alox/alox.hpp">
<polygon fill="white" stroke="black" points="1467.5,-280.5 1467.5,-299.5 1541.5,-299.5 1541.5,-280.5 1467.5,-280.5"/>
<text text-anchor="middle" x="1504.5" y="-287.5" font-family="Helvetica,sans-Serif" font-size="10.00">alox/alox.hpp</text>
</a>
</g>
</g>
<!-- Node1&#45;&gt;Node2 -->
<g id="edge1" class="edge"><title>Node1&#45;&gt;Node2</title>
<path fill="none" stroke="midnightblue" d="M1746.22,-403.492C1701.39,-382.627 1585.76,-328.819 1532.33,-303.953"/>
<polygon fill="midnightblue" stroke="midnightblue" points="1533.65,-300.707 1523.11,-299.661 1530.7,-307.054 1533.65,-300.707"/>
</g>
<!-- Node17 -->
<g id="node17" class="node"><title>Node17</title>
<polygon fill="white" stroke="#bfbfbf" points="2020,-0.5 2020,-19.5 2065,-19.5 2065,-0.5 2020,-0.5"/>
<text text-anchor="middle" x="2042.5" y="-7.5" font-family="Helvetica,sans-Serif" font-size="10.00">iosfwd</text>
</g>
<!-- Node1&#45;&gt;Node17 -->
<g id="edge60" class="edge"><title>Node1&#45;&gt;Node17</title>
<path fill="none" stroke="midnightblue" d="M1804.77,-407.603C1901.22,-395.959 2137.5,-360.356 2137.5,-291 2137.5,-291 2137.5,-291 2137.5,-121 2137.5,-90.7745 2136.14,-79.7954 2117.5,-56 2106.44,-41.8788 2089.62,-31.2083 2074.71,-23.8106"/>
<polygon fill="midnightblue" stroke="midnightblue" points="2075.81,-20.4622 2065.26,-19.4184 2072.85,-26.8092 2075.81,-20.4622"/>
</g>
<!-- Node36 -->
<g id="node36" class="node"><title>Node36</title>
<g id="a_node36"><a xlink:href="textlogger_8hpp.html" target="_top" xlink:title="alox/core/textlogger\l/textlogger.hpp">
<polygon fill="white" stroke="black" points="1713.5,-336.5 1713.5,-366.5 1815.5,-366.5 1815.5,-336.5 1713.5,-336.5"/>
<text text-anchor="start" x="1721.5" y="-354.5" font-family="Helvetica,sans-Serif" font-size="10.00">alox/core/textlogger</text>
<text text-anchor="middle" x="1764.5" y="-343.5" font-family="Helvetica,sans-Serif" font-size="10.00">/textlogger.hpp</text>
</a>
</g>
</g>
<!-- Node1&#45;&gt;Node36 -->
<g id="edge57" class="edge"><title>Node1&#45;&gt;Node36</title>
<path fill="none" stroke="midnightblue" d="M1764.5,-403.475C1764.5,-396.471 1764.5,-386.192 1764.5,-376.696"/>
<polygon fill="midnightblue" stroke="midnightblue" points="1768,-376.523 1764.5,-366.523 1761,-376.523 1768,-376.523"/>
</g>
<!-- Node3 -->
<g id="node3" class="node"><title>Node3</title>
<g id="a_node3"><a xlink:href="alib_8hpp.html" target="_top" xlink:title="alib/alib.hpp">
<polygon fill="white" stroke="black" points="941.5,-112.5 941.5,-131.5 1009.5,-131.5 1009.5,-112.5 941.5,-112.5"/>
<text text-anchor="middle" x="975.5" y="-119.5" font-family="Helvetica,sans-Serif" font-size="10.00">alib/alib.hpp</text>
</a>
</g>
</g>
<!-- Node2&#45;&gt;Node3 -->
<g id="edge2" class="edge"><title>Node2&#45;&gt;Node3</title>
<path fill="none" stroke="midnightblue" d="M1467.33,-287.147C1378.29,-282.366 1154.96,-268.267 1084.5,-244 1039.96,-228.66 1022.98,-225.525 994.5,-188 984.292,-174.552 979.557,-155.737 977.368,-141.808"/>
<polygon fill="midnightblue" stroke="midnightblue" points="980.839,-141.358 976.102,-131.881 973.895,-142.244 980.839,-141.358"/>
</g>
<!-- Node24 -->
<g id="node24" class="node"><title>Node24</title>
<g id="a_node24"><a xlink:href="alox__symbols_8hpp.html" target="_top" xlink:title="internals/alox_symbols.hpp">
<polygon fill="white" stroke="black" points="1125,-224.5 1125,-243.5 1260,-243.5 1260,-224.5 1125,-224.5"/>
<text text-anchor="middle" x="1192.5" y="-231.5" font-family="Helvetica,sans-Serif" font-size="10.00">internals/alox_symbols.hpp</text>
</a>
</g>
</g>
<!-- Node2&#45;&gt;Node24 -->
<g id="edge34" class="edge"><title>Node2&#45;&gt;Node24</title>
<path fill="none" stroke="midnightblue" d="M1467.48,-282.593C1414.16,-273.365 1315.18,-256.234 1251.66,-245.238"/>
<polygon fill="midnightblue" stroke="midnightblue" points="1252.23,-241.785 1241.78,-243.529 1251.03,-248.683 1252.23,-241.785"/>
</g>
<!-- Node25 -->
<g id="node25" class="node"><title>Node25</title>
<g id="a_node25"><a xlink:href="alox__macros_8hpp.html" target="_top" xlink:title="internals/alox_macros.hpp">
<polygon fill="white" stroke="black" points="1345,-224.5 1345,-243.5 1476,-243.5 1476,-224.5 1345,-224.5"/>
<text text-anchor="middle" x="1410.5" y="-231.5" font-family="Helvetica,sans-Serif" font-size="10.00">internals/alox_macros.hpp</text>
</a>
</g>
</g>
<!-- Node2&#45;&gt;Node25 -->
<g id="edge35" class="edge"><title>Node2&#45;&gt;Node25</title>
<path fill="none" stroke="midnightblue" d="M1489.4,-280.324C1474.6,-271.822 1451.81,-258.729 1434.52,-248.797"/>
<polygon fill="midnightblue" stroke="midnightblue" points="1435.98,-245.601 1425.57,-243.655 1432.49,-251.671 1435.98,-245.601"/>
</g>
<!-- Node26 -->
<g id="node26" class="node"><title>Node26</title>
<polygon fill="white" stroke="#bfbfbf" points="1577.5,-112.5 1577.5,-131.5 1621.5,-131.5 1621.5,-112.5 1577.5,-112.5"/>
<text text-anchor="middle" x="1599.5" y="-119.5" font-family="Helvetica,sans-Serif" font-size="10.00">vector</text>
</g>
<!-- Node2&#45;&gt;Node26 -->
<g id="edge36" class="edge"><title>Node2&#45;&gt;Node26</title>
<path fill="none" stroke="midnightblue" d="M1541.75,-288.294C1607.31,-286.178 1739.05,-277.728 1767.5,-244 1790.61,-216.6 1752.04,-185.275 1729.5,-168 1700.59,-145.842 1659.98,-134.114 1631.88,-128.253"/>
<polygon fill="midnightblue" stroke="midnightblue" points="1632.26,-124.76 1621.77,-126.284 1630.92,-131.631 1632.26,-124.76"/>
</g>
<!-- Node27 -->
<g id="node27" class="node"><title>Node27</title>
<g id="a_node27"><a xlink:href="aloxtypesandenums_8hpp.html" target="_top" xlink:title="aloxtypesandenums.hpp">
<polygon fill="white" stroke="black" points="1532.5,-224.5 1532.5,-243.5 1654.5,-243.5 1654.5,-224.5 1532.5,-224.5"/>
<text text-anchor="middle" x="1593.5" y="-231.5" font-family="Helvetica,sans-Serif" font-size="10.00">aloxtypesandenums.hpp</text>
</a>
</g>
</g>
<!-- Node2&#45;&gt;Node27 -->
<g id="edge37" class="edge"><title>Node2&#45;&gt;Node27</title>
<path fill="none" stroke="midnightblue" d="M1518.8,-280.324C1532.68,-271.9 1553.99,-258.971 1570.3,-249.074"/>
<polygon fill="midnightblue" stroke="midnightblue" points="1572.5,-251.834 1579.24,-243.655 1568.87,-245.85 1572.5,-251.834"/>
</g>
<!-- Node28 -->
<g id="node28" class="node"><title>Node28</title>
<g id="a_node28"><a xlink:href="log_8hpp.html" target="_top" xlink:title="log.hpp">
<polygon fill="white" stroke="black" points="1710.5,-224.5 1710.5,-243.5 1758.5,-243.5 1758.5,-224.5 1710.5,-224.5"/>
<text text-anchor="middle" x="1734.5" y="-231.5" font-family="Helvetica,sans-Serif" font-size="10.00">log.hpp</text>
</a>
</g>
</g>
<!-- Node2&#45;&gt;Node28 -->
<g id="edge38" class="edge"><title>Node2&#45;&gt;Node28</title>
<path fill="none" stroke="midnightblue" d="M1534.26,-280.482C1570.58,-271.451 1633.35,-256.759 1687.5,-244 1691.58,-243.038 1695.91,-242.015 1700.26,-241.017"/>
<polygon fill="midnightblue" stroke="midnightblue" points="1701.32,-244.367 1710.32,-238.774 1699.79,-237.535 1701.32,-244.367"/>
</g>
<!-- Node29 -->
<g id="node29" class="node"><title>Node29</title>
<g id="a_node29"><a xlink:href="lox_8hpp.html" target="_top" xlink:title="lox.hpp">
<polygon fill="white" stroke="black" points="1278.5,-224.5 1278.5,-243.5 1326.5,-243.5 1326.5,-224.5 1278.5,-224.5"/>
<text text-anchor="middle" x="1302.5" y="-231.5" font-family="Helvetica,sans-Serif" font-size="10.00">lox.hpp</text>
</a>
</g>
</g>
<!-- Node2&#45;&gt;Node29 -->
<g id="edge40" class="edge"><title>Node2&#45;&gt;Node29</title>
<path fill="none" stroke="midnightblue" d="M1467.36,-280.926C1433.43,-272.54 1382.04,-258.935 1334.52,-246.159"/>
<polygon fill="midnightblue" stroke="midnightblue" points="1335.33,-242.752 1324.77,-243.532 1333.51,-249.511 1335.33,-242.752"/>
</g>
<!-- Node4 -->
<g id="node4" class="node"><title>Node4</title>
<g id="a_node4"><a xlink:href="symbols_8hpp.html" target="_top" xlink:title="alib/core/symbols.hpp">
<polygon fill="white" stroke="black" points="1522.5,-56.5 1522.5,-75.5 1634.5,-75.5 1634.5,-56.5 1522.5,-56.5"/>
<text text-anchor="middle" x="1578.5" y="-63.5" font-family="Helvetica,sans-Serif" font-size="10.00">alib/core/symbols.hpp</text>
</a>
</g>
</g>
<!-- Node3&#45;&gt;Node4 -->
<g id="edge3" class="edge"><title>Node3&#45;&gt;Node4</title>
<path fill="none" stroke="midnightblue" d="M1009.8,-118.746C1093.58,-113.109 1315.49,-97.3777 1512.4,-75.9482"/>
<polygon fill="midnightblue" stroke="midnightblue" points="1512.8,-79.4263 1522.36,-74.858 1512.03,-72.468 1512.8,-79.4263"/>
</g>
<!-- Node5 -->
<g id="node5" class="node"><title>Node5</title>
<g id="a_node5"><a xlink:href="macros_8hpp.html" target="_top" xlink:title="alib/core/macros.hpp">
<polygon fill="white" stroke="black" points="1652,-56.5 1652,-75.5 1759,-75.5 1759,-56.5 1652,-56.5"/>
<text text-anchor="middle" x="1705.5" y="-63.5" font-family="Helvetica,sans-Serif" font-size="10.00">alib/core/macros.hpp</text>
</a>
</g>
</g>
<!-- Node3&#45;&gt;Node5 -->
<g id="edge4" class="edge"><title>Node3&#45;&gt;Node5</title>
<path fill="none" stroke="midnightblue" d="M1009.64,-119.628C1106.82,-115.528 1393.37,-102.068 1641.47,-76.1437"/>
<polygon fill="midnightblue" stroke="midnightblue" points="1642.19,-79.5877 1651.76,-75.0585 1641.45,-72.6262 1642.19,-79.5877"/>
</g>
<!-- Node6 -->
<g id="node6" class="node"><title>Node6</title>
<polygon fill="white" stroke="#bfbfbf" points="1905.5,-56.5 1905.5,-75.5 1957.5,-75.5 1957.5,-56.5 1905.5,-56.5"/>
<text text-anchor="middle" x="1931.5" y="-63.5" font-family="Helvetica,sans-Serif" font-size="10.00">assert.h</text>
</g>
<!-- Node3&#45;&gt;Node6 -->
<g id="edge5" class="edge"><title>Node3&#45;&gt;Node6</title>
<path fill="none" stroke="midnightblue" d="M1009.61,-119.744C1161.06,-114.114 1770.42,-90.8758 1895.29,-75.7108"/>
<polygon fill="midnightblue" stroke="midnightblue" points="1895.81,-79.1728 1905.24,-74.3605 1894.86,-72.2363 1895.81,-79.1728"/>
</g>
<!-- Node7 -->
<g id="node7" class="node"><title>Node7</title>
<polygon fill="white" stroke="#bfbfbf" points="0,-56.5 0,-75.5 49,-75.5 49,-56.5 0,-56.5"/>
<text text-anchor="middle" x="24.5" y="-63.5" font-family="Helvetica,sans-Serif" font-size="10.00">cstddef</text>
</g>
<!-- Node3&#45;&gt;Node7 -->
<g id="edge6" class="edge"><title>Node3&#45;&gt;Node7</title>
<path fill="none" stroke="midnightblue" d="M941.461,-120.321C799.388,-117.339 252.517,-104.333 59.2694,-75.9077"/>
<polygon fill="midnightblue" stroke="midnightblue" points="59.6558,-72.4261 49.2403,-74.3671 58.5929,-79.3449 59.6558,-72.4261"/>
</g>
<!-- Node8 -->
<g id="node8" class="node"><title>Node8</title>
<polygon fill="white" stroke="#bfbfbf" points="67,-56.5 67,-75.5 130,-75.5 130,-56.5 67,-56.5"/>
<text text-anchor="middle" x="98.5" y="-63.5" font-family="Helvetica,sans-Serif" font-size="10.00">windows.h</text>
</g>
<!-- Node3&#45;&gt;Node8 -->
<g id="edge7" class="edge"><title>Node3&#45;&gt;Node8</title>
<path fill="none" stroke="midnightblue" d="M941.42,-121.208C828.482,-121.469 456.175,-118.895 140.55,-76.0668"/>
<polygon fill="midnightblue" stroke="midnightblue" points="140.672,-72.5508 130.289,-74.6573 139.719,-79.4856 140.672,-72.5508"/>
</g>
<!-- Node9 -->
<g id="node9" class="node"><title>Node9</title>
<polygon fill="white" stroke="#bfbfbf" points="148,-56.5 148,-75.5 197,-75.5 197,-56.5 148,-56.5"/>
<text text-anchor="middle" x="172.5" y="-63.5" font-family="Helvetica,sans-Serif" font-size="10.00">stdint.h</text>
</g>
<!-- Node3&#45;&gt;Node9 -->
<g id="edge8" class="edge"><title>Node3&#45;&gt;Node9</title>
<path fill="none" stroke="midnightblue" d="M941.126,-121.429C833.814,-122.254 495.506,-120.97 207.484,-75.7931"/>
<polygon fill="midnightblue" stroke="midnightblue" points="207.685,-72.2812 197.259,-74.1674 206.586,-79.1944 207.685,-72.2812"/>
</g>
<!-- Node10 -->
<g id="node10" class="node"><title>Node10</title>
<polygon fill="white" stroke="#bfbfbf" points="215.5,-56.5 215.5,-75.5 277.5,-75.5 277.5,-56.5 215.5,-56.5"/>
<text text-anchor="middle" x="246.5" y="-63.5" font-family="Helvetica,sans-Serif" font-size="10.00">type_traits</text>
</g>
<!-- Node3&#45;&gt;Node10 -->
<g id="edge9" class="edge"><title>Node3&#45;&gt;Node10</title>
<path fill="none" stroke="midnightblue" d="M941.251,-120.65C841.73,-119.234 543.943,-112.174 288.088,-76.0065"/>
<polygon fill="midnightblue" stroke="midnightblue" points="288.252,-72.4943 277.857,-74.5413 287.26,-79.4236 288.252,-72.4943"/>
</g>
<!-- Node11 -->
<g id="node11" class="node"><title>Node11</title>
<polygon fill="white" stroke="#bfbfbf" points="295.5,-56.5 295.5,-75.5 335.5,-75.5 335.5,-56.5 295.5,-56.5"/>
<text text-anchor="middle" x="315.5" y="-63.5" font-family="Helvetica,sans-Serif" font-size="10.00">utility</text>
</g>
<!-- Node3&#45;&gt;Node11 -->
<g id="edge10" class="edge"><title>Node3&#45;&gt;Node11</title>
<path fill="none" stroke="midnightblue" d="M941.29,-121.303C847.26,-121.558 577.065,-118.4 345.582,-75.7585"/>
<polygon fill="midnightblue" stroke="midnightblue" points="346.105,-72.2957 335.632,-73.8965 344.817,-79.1763 346.105,-72.2957"/>
</g>
<!-- Node12 -->
<g id="node12" class="node"><title>Node12</title>
<polygon fill="white" stroke="#bfbfbf" points="354,-56.5 354,-75.5 395,-75.5 395,-56.5 354,-56.5"/>
<text text-anchor="middle" x="374.5" y="-63.5" font-family="Helvetica,sans-Serif" font-size="10.00">stack</text>
</g>
<!-- Node3&#45;&gt;Node12 -->
<g id="edge11" class="edge"><title>Node3&#45;&gt;Node12</title>
<path fill="none" stroke="midnightblue" d="M941.381,-120.831C853.679,-119.862 613.274,-113.838 404.912,-75.626"/>
<polygon fill="midnightblue" stroke="midnightblue" points="405.487,-72.173 395.015,-73.782 404.204,-79.0546 405.487,-72.173"/>
</g>
<!-- Node13 -->
<g id="node13" class="node"><title>Node13</title>
<g id="a_node13"><a xlink:href="enums_8hpp.html" target="_top" xlink:title="alib/core/enums.hpp">
<polygon fill="white" stroke="black" points="413.5,-56.5 413.5,-75.5 517.5,-75.5 517.5,-56.5 413.5,-56.5"/>
<text text-anchor="middle" x="465.5" y="-63.5" font-family="Helvetica,sans-Serif" font-size="10.00">alib/core/enums.hpp</text>
</a>
</g>
</g>
<!-- Node3&#45;&gt;Node13 -->
<g id="edge12" class="edge"><title>Node3&#45;&gt;Node13</title>
<path fill="none" stroke="midnightblue" d="M941.233,-118.502C866.284,-112.472 682.863,-96.203 523.607,-76.739"/>
<polygon fill="midnightblue" stroke="midnightblue" points="523.99,-73.2598 513.637,-75.5123 523.135,-80.2074 523.99,-73.2598"/>
</g>
<!-- Node14 -->
<g id="node14" class="node"><title>Node14</title>
<g id="a_node14"><a xlink:href="report_8hpp.html" target="_top" xlink:title="alib/core/report.hpp">
<polygon fill="white" stroke="black" points="535.5,-56.5 535.5,-75.5 635.5,-75.5 635.5,-56.5 535.5,-56.5"/>
<text text-anchor="middle" x="585.5" y="-63.5" font-family="Helvetica,sans-Serif" font-size="10.00">alib/core/report.hpp</text>
</a>
</g>
</g>
<!-- Node3&#45;&gt;Node14 -->
<g id="edge14" class="edge"><title>Node3&#45;&gt;Node14</title>
<path fill="none" stroke="midnightblue" d="M941.171,-117.186C881.331,-109.844 754.568,-93.082 642.215,-76.962"/>
<polygon fill="midnightblue" stroke="midnightblue" points="642.48,-73.4642 632.084,-75.5045 641.483,-80.3929 642.48,-73.4642"/>
</g>
<!-- Node15 -->
<g id="node15" class="node"><title>Node15</title>
<g id="a_node15"><a xlink:href="cstring_8hpp.html" target="_top" xlink:title="alib/strings/cstring.hpp">
<polygon fill="white" stroke="red" points="654,-56.5 654,-75.5 769,-75.5 769,-56.5 654,-56.5"/>
<text text-anchor="middle" x="711.5" y="-63.5" font-family="Helvetica,sans-Serif" font-size="10.00">alib/strings/cstring.hpp</text>
</a>
</g>
</g>
<!-- Node3&#45;&gt;Node15 -->
<g id="edge16" class="edge"><title>Node3&#45;&gt;Node15</title>
<path fill="none" stroke="midnightblue" d="M941.266,-114.91C894.497,-105.886 810.766,-88.8301 758.269,-77.6931"/>
<polygon fill="midnightblue" stroke="midnightblue" points="758.717,-74.2099 748.207,-75.5488 757.258,-81.0562 758.717,-74.2099"/>
</g>
<!-- Node16 -->
<g id="node16" class="node"><title>Node16</title>
<g id="a_node16"><a xlink:href="string_8hpp.html" target="_top" xlink:title="alib/strings/string.hpp">
<polygon fill="white" stroke="red" points="1777.5,-56.5 1777.5,-75.5 1887.5,-75.5 1887.5,-56.5 1777.5,-56.5"/>
<text text-anchor="middle" x="1832.5" y="-63.5" font-family="Helvetica,sans-Serif" font-size="10.00">alib/strings/string.hpp</text>
</a>
</g>
</g>
<!-- Node3&#45;&gt;Node16 -->
<g id="edge18" class="edge"><title>Node3&#45;&gt;Node16</title>
<path fill="none" stroke="midnightblue" d="M1009.8,-119.261C1140.89,-112.905 1609.26,-90.5475 1758.5,-76 1761.37,-75.7202 1764.31,-75.4078 1767.28,-75.0719"/>
<polygon fill="midnightblue" stroke="midnightblue" points="1767.96,-78.5153 1777.48,-73.8528 1767.13,-71.5648 1767.96,-78.5153"/>
</g>
<!-- Node18 -->
<g id="node18" class="node"><title>Node18</title>
<g id="a_node18"><a xlink:href="tstring_8hpp.html" target="_top" xlink:title="alib/strings/tstring.hpp">
<polygon fill="white" stroke="black" points="787,-56.5 787,-75.5 900,-75.5 900,-56.5 787,-56.5"/>
<text text-anchor="middle" x="843.5" y="-63.5" font-family="Helvetica,sans-Serif" font-size="10.00">alib/strings/tstring.hpp</text>
</a>
</g>
</g>
<!-- Node3&#45;&gt;Node18 -->
<g id="edge21" class="edge"><title>Node3&#45;&gt;Node18</title>
<path fill="none" stroke="midnightblue" d="M949.495,-112.444C925.928,-103.596 891.689,-89.6875 868.457,-79.5865"/>
<polygon fill="midnightblue" stroke="midnightblue" points="869.8,-76.3533 859.238,-75.5164 866.973,-82.757 869.8,-76.3533"/>
</g>
<!-- Node19 -->
<g id="node19" class="node"><title>Node19</title>
<g id="a_node19"><a xlink:href="stringliteral_8hpp.html" target="_top" xlink:title="alib/strings/stringliteral.hpp">
<polygon fill="white" stroke="red" points="1976,-56.5 1976,-75.5 2109,-75.5 2109,-56.5 1976,-56.5"/>
<text text-anchor="middle" x="2042.5" y="-63.5" font-family="Helvetica,sans-Serif" font-size="10.00">alib/strings/stringliteral.hpp</text>
</a>
</g>
</g>
<!-- Node3&#45;&gt;Node19 -->
<g id="edge23" class="edge"><title>Node3&#45;&gt;Node19</title>
<path fill="none" stroke="midnightblue" d="M1009.57,-119.673C1160.28,-114.031 1766.75,-91.6045 1957.5,-76 1960.2,-75.7791 1962.95,-75.5363 1965.74,-75.2765"/>
<polygon fill="midnightblue" stroke="midnightblue" points="1966.31,-78.7373 1975.91,-74.27 1965.62,-71.7712 1966.31,-78.7373"/>
</g>
<!-- Node20 -->
<g id="node20" class="node"><title>Node20</title>
<g id="a_node20"><a xlink:href="astring_8hpp.html" target="_top" xlink:title="alib/strings/astring.hpp">
<polygon fill="white" stroke="red" points="918,-56.5 918,-75.5 1033,-75.5 1033,-56.5 918,-56.5"/>
<text text-anchor="middle" x="975.5" y="-63.5" font-family="Helvetica,sans-Serif" font-size="10.00">alib/strings/astring.hpp</text>
</a>
</g>
</g>
<!-- Node3&#45;&gt;Node20 -->
<g id="edge26" class="edge"><title>Node3&#45;&gt;Node20</title>
<path fill="none" stroke="midnightblue" d="M970.334,-112.083C968.824,-104.927 968.394,-94.6353 969.042,-85.6911"/>
<polygon fill="midnightblue" stroke="midnightblue" points="972.515,-86.1262 970.369,-75.7511 965.577,-85.2002 972.515,-86.1262"/>
</g>
<!-- Node21 -->
<g id="node21" class="node"><title>Node21</title>
<g id="a_node21"><a xlink:href="preallocatedstring_8hpp.html" target="_top" xlink:title="alib/strings/preallocatedstring.hpp">
<polygon fill="white" stroke="black" points="1051.5,-56.5 1051.5,-75.5 1213.5,-75.5 1213.5,-56.5 1051.5,-56.5"/>
<text text-anchor="middle" x="1132.5" y="-63.5" font-family="Helvetica,sans-Serif" font-size="10.00">alib/strings/preallocatedstring.hpp</text>
</a>
</g>
</g>
<!-- Node3&#45;&gt;Node21 -->
<g id="edge28" class="edge"><title>Node3&#45;&gt;Node21</title>
<path fill="none" stroke="midnightblue" d="M995.288,-112.444C1019.81,-103.32 1061.8,-88.8133 1092.96,-78.6509"/>
<polygon fill="midnightblue" stroke="midnightblue" points="1094.22,-81.9215 1102.66,-75.5164 1092.07,-75.2606 1094.22,-81.9215"/>
</g>
<!-- Node22 -->
<g id="node22" class="node"><title>Node22</title>
<g id="a_node22"><a xlink:href="applyto_8hpp.html" target="_top" xlink:title="alib/strings/applyto.hpp">
<polygon fill="white" stroke="black" points="1232,-56.5 1232,-75.5 1349,-75.5 1349,-56.5 1232,-56.5"/>
<text text-anchor="middle" x="1290.5" y="-63.5" font-family="Helvetica,sans-Serif" font-size="10.00">alib/strings/applyto.hpp</text>
</a>
</g>
</g>
<!-- Node3&#45;&gt;Node22 -->
<g id="edge30" class="edge"><title>Node3&#45;&gt;Node22</title>
<path fill="none" stroke="midnightblue" d="M1009.51,-114.379C1061.08,-105.102 1159.68,-88.1531 1225.33,-77.2424"/>
<polygon fill="midnightblue" stroke="midnightblue" points="1226.27,-80.6332 1235.57,-75.5453 1225.13,-73.7274 1226.27,-80.6332"/>
</g>
<!-- Node23 -->
<g id="node23" class="node"><title>Node23</title>
<g id="a_node23"><a xlink:href="applyformat_8hpp.html" target="_top" xlink:title="alib/strings/applyformat.hpp">
<polygon fill="white" stroke="red" points="1367,-56.5 1367,-75.5 1504,-75.5 1504,-56.5 1367,-56.5"/>
<text text-anchor="middle" x="1435.5" y="-63.5" font-family="Helvetica,sans-Serif" font-size="10.00">alib/strings/applyformat.hpp</text>
</a>
</g>
</g>
<!-- Node3&#45;&gt;Node23 -->
<g id="edge32" class="edge"><title>Node3&#45;&gt;Node23</title>
<path fill="none" stroke="midnightblue" d="M1009.61,-116.535C1082.56,-107.581 1254.97,-87.2964 1356.69,-75.652"/>
<polygon fill="midnightblue" stroke="midnightblue" points="1357.37,-79.0966 1366.91,-74.4837 1356.58,-72.1419 1357.37,-79.0966"/>
</g>
<!-- Node13&#45;&gt;Node3 -->
<g id="edge13" class="edge"><title>Node13&#45;&gt;Node3</title>
<path fill="none" stroke="midnightblue" d="M517.702,-73.6408C523.732,-74.4786 529.763,-75.2897 535.5,-76 680.223,-93.9186 851.871,-109.571 931.314,-116.779"/>
<polygon fill="midnightblue" stroke="midnightblue" points="931.171,-120.28 941.446,-117.698 931.804,-113.309 931.171,-120.28"/>
</g>
<!-- Node14&#45;&gt;Node3 -->
<g id="edge15" class="edge"><title>Node14&#45;&gt;Node3</title>
<path fill="none" stroke="midnightblue" d="M635.655,-73.3797C641.703,-74.275 647.757,-75.1716 653.5,-76 752.797,-90.3224 869.042,-105.837 931.209,-114.392"/>
<polygon fill="midnightblue" stroke="midnightblue" points="931.057,-117.904 941.442,-115.805 932.015,-110.97 931.057,-117.904"/>
</g>
<!-- Node15&#45;&gt;Node3 -->
<g id="edge17" class="edge"><title>Node15&#45;&gt;Node3</title>
<path fill="none" stroke="midnightblue" d="M758.215,-75.5162C807.213,-85.1065 883.459,-100.68 931.441,-110.883"/>
<polygon fill="midnightblue" stroke="midnightblue" points="930.72,-114.307 941.231,-112.974 932.182,-107.462 930.72,-114.307"/>
</g>
<!-- Node16&#45;&gt;Node3 -->
<g id="edge19" class="edge"><title>Node16&#45;&gt;Node3</title>
<path fill="none" stroke="midnightblue" d="M1781.32,-75.5074C1779.7,-75.6805 1778.09,-75.8453 1776.5,-76 1628.4,-90.4367 1166.01,-112.565 1020.03,-119.113"/>
<polygon fill="midnightblue" stroke="midnightblue" points="1019.51,-115.632 1009.67,-119.575 1019.82,-122.625 1019.51,-115.632"/>
</g>
<!-- Node16&#45;&gt;Node17 -->
<g id="edge20" class="edge"><title>Node16&#45;&gt;Node17</title>
<path fill="none" stroke="midnightblue" d="M1865.78,-56.4435C1905.27,-46.288 1970.69,-29.4642 2009.89,-19.3846"/>
<polygon fill="midnightblue" stroke="midnightblue" points="2010.92,-22.7338 2019.74,-16.8536 2009.18,-15.9543 2010.92,-22.7338"/>
</g>
<!-- Node18&#45;&gt;Node3 -->
<g id="edge22" class="edge"><title>Node18&#45;&gt;Node3</title>
<path fill="none" stroke="midnightblue" d="M869.398,-75.5164C892.933,-84.3486 927.173,-98.2553 950.438,-108.368"/>
<polygon fill="midnightblue" stroke="midnightblue" points="949.111,-111.608 959.673,-112.444 951.937,-105.204 949.111,-111.608"/>
</g>
<!-- Node19&#45;&gt;Node3 -->
<g id="edge24" class="edge"><title>Node19&#45;&gt;Node3</title>
<path fill="none" stroke="midnightblue" d="M1981.13,-75.5156C1979.23,-75.6863 1977.35,-75.8483 1975.5,-76 1786.34,-91.4745 1188.36,-113.658 1019.95,-119.529"/>
<polygon fill="midnightblue" stroke="midnightblue" points="1019.59,-116.039 1009.72,-119.884 1019.83,-123.035 1019.59,-116.039"/>
</g>
<!-- Node19&#45;&gt;Node17 -->
<g id="edge25" class="edge"><title>Node19&#45;&gt;Node17</title>
<path fill="none" stroke="midnightblue" d="M2042.5,-56.083C2042.5,-49.0059 2042.5,-38.8611 2042.5,-29.9865"/>
<polygon fill="midnightblue" stroke="midnightblue" points="2046,-29.751 2042.5,-19.7511 2039,-29.7511 2046,-29.751"/>
</g>
<!-- Node20&#45;&gt;Node3 -->
<g id="edge27" class="edge"><title>Node20&#45;&gt;Node3</title>
<path fill="none" stroke="midnightblue" d="M980.631,-75.7511C982.157,-82.8579 982.604,-93.1357 981.972,-102.101"/>
<polygon fill="midnightblue" stroke="midnightblue" points="978.493,-101.713 980.666,-112.083 985.434,-102.622 978.493,-101.713"/>
</g>
<!-- Node21&#45;&gt;Node3 -->
<g id="edge29" class="edge"><title>Node21&#45;&gt;Node3</title>
<path fill="none" stroke="midnightblue" d="M1112.82,-75.5164C1088.34,-84.6246 1046.37,-99.1294 1015.18,-109.304"/>
<polygon fill="midnightblue" stroke="midnightblue" points="1013.9,-106.038 1005.47,-112.444 1016.06,-112.699 1013.9,-106.038"/>
</g>
<!-- Node22&#45;&gt;Node3 -->
<g id="edge31" class="edge"><title>Node22&#45;&gt;Node3</title>
<path fill="none" stroke="midnightblue" d="M1245.86,-75.5233C1185.66,-86.248 1079.36,-104.447 1019.49,-114.256"/>
<polygon fill="midnightblue" stroke="midnightblue" points="1018.89,-110.808 1009.58,-115.871 1020.01,-117.716 1018.89,-110.808"/>
</g>
<!-- Node23&#45;&gt;Node3 -->
<g id="edge33" class="edge"><title>Node23&#45;&gt;Node3</title>
<path fill="none" stroke="midnightblue" d="M1367.76,-75.5498C1272.25,-87.0581 1100.84,-107.138 1019.95,-116.255"/>
<polygon fill="midnightblue" stroke="midnightblue" points="1019.16,-112.821 1009.62,-117.415 1019.94,-119.778 1019.16,-112.821"/>
</g>
<!-- Node28&#45;&gt;Node2 -->
<g id="edge39" class="edge"><title>Node28&#45;&gt;Node2</title>
<path fill="none" stroke="midnightblue" d="M1710.33,-242.858C1708.7,-243.245 1707.08,-243.627 1705.5,-244 1653.12,-256.341 1592.68,-270.491 1551.74,-279.577"/>
<polygon fill="midnightblue" stroke="midnightblue" points="1550.79,-276.204 1541.77,-281.774 1552.29,-283.041 1550.79,-276.204"/>
</g>
<!-- Node29&#45;&gt;Node2 -->
<g id="edge41" class="edge"><title>Node29&#45;&gt;Node2</title>
<path fill="none" stroke="midnightblue" d="M1326.77,-239.323C1332.73,-240.812 1338.88,-242.486 1344.5,-244 1387.35,-255.549 1436.37,-268.582 1468.87,-277.637"/>
<polygon fill="midnightblue" stroke="midnightblue" points="1468.23,-281.095 1478.81,-280.431 1470.13,-274.356 1468.23,-281.095"/>
</g>
<!-- Node30 -->
<g id="node30" class="node"><title>Node30</title>
<g id="a_node30"><a xlink:href="threadlock_8hpp.html" target="_top" xlink:title="alib/threads/threadlock.hpp">
<polygon fill="white" stroke="red" points="1323.5,-168.5 1323.5,-187.5 1457.5,-187.5 1457.5,-168.5 1323.5,-168.5"/>
<text text-anchor="middle" x="1390.5" y="-175.5" font-family="Helvetica,sans-Serif" font-size="10.00">alib/threads/threadlock.hpp</text>
</a>
</g>
</g>
<!-- Node29&#45;&gt;Node30 -->
<g id="edge42" class="edge"><title>Node29&#45;&gt;Node30</title>
<path fill="none" stroke="midnightblue" d="M1316.64,-224.324C1330.37,-215.9 1351.44,-202.971 1367.56,-193.074"/>
<polygon fill="midnightblue" stroke="midnightblue" points="1369.7,-195.868 1376.4,-187.655 1366.04,-189.902 1369.7,-195.868"/>
</g>
<!-- Node31 -->
<g id="node31" class="node"><title>Node31</title>
<g id="a_node31"><a xlink:href="scopeinfo_8hpp.html" target="_top" xlink:title="alox/core/scopeinfo.hpp">
<polygon fill="white" stroke="red" points="1147.5,-168.5 1147.5,-187.5 1267.5,-187.5 1267.5,-168.5 1147.5,-168.5"/>
<text text-anchor="middle" x="1207.5" y="-175.5" font-family="Helvetica,sans-Serif" font-size="10.00">alox/core/scopeinfo.hpp</text>
</a>
</g>
</g>
<!-- Node29&#45;&gt;Node31 -->
<g id="edge45" class="edge"><title>Node29&#45;&gt;Node31</title>
<path fill="none" stroke="midnightblue" d="M1287.24,-224.324C1272.28,-215.822 1249.25,-202.729 1231.77,-192.797"/>
<polygon fill="midnightblue" stroke="midnightblue" points="1233.15,-189.553 1222.73,-187.655 1229.69,-195.639 1233.15,-189.553"/>
</g>
<!-- Node32 -->
<g id="node32" class="node"><title>Node32</title>
<polygon fill="white" stroke="#bfbfbf" points="1234,-112.5 1234,-131.5 1269,-131.5 1269,-112.5 1234,-112.5"/>
<text text-anchor="middle" x="1251.5" y="-119.5" font-family="Helvetica,sans-Serif" font-size="10.00">map</text>
</g>
<!-- Node29&#45;&gt;Node32 -->
<g id="edge56" class="edge"><title>Node29&#45;&gt;Node32</title>
<path fill="none" stroke="midnightblue" d="M1299.47,-224.439C1294.93,-211.866 1285.89,-187.758 1276.5,-168 1272.09,-158.718 1266.59,-148.694 1261.88,-140.468"/>
<polygon fill="midnightblue" stroke="midnightblue" points="1264.88,-138.665 1256.82,-131.79 1258.83,-142.192 1264.88,-138.665"/>
</g>
<!-- Node33 -->
<g id="node33" class="node"><title>Node33</title>
<g id="a_node33"><a xlink:href="logger_8hpp.html" target="_top" xlink:title="alox/core/logger.hpp">
<polygon fill="white" stroke="black" points="1616.5,-168.5 1616.5,-187.5 1720.5,-187.5 1720.5,-168.5 1616.5,-168.5"/>
<text text-anchor="middle" x="1668.5" y="-175.5" font-family="Helvetica,sans-Serif" font-size="10.00">alox/core/logger.hpp</text>
</a>
</g>
</g>
<!-- Node29&#45;&gt;Node33 -->
<g id="edge48" class="edge"><title>Node29&#45;&gt;Node33</title>
<path fill="none" stroke="midnightblue" d="M1326.56,-226.043C1329.56,-225.294 1332.59,-224.591 1335.5,-224 1361.37,-218.747 1517.16,-198.422 1606.2,-186.967"/>
<polygon fill="midnightblue" stroke="midnightblue" points="1606.71,-190.43 1616.18,-185.684 1605.82,-183.487 1606.71,-190.43"/>
</g>
<!-- Node34 -->
<g id="node34" class="node"><title>Node34</title>
<g id="a_node34"><a xlink:href="domain_8hpp.html" target="_top" xlink:title="alox/core/domain.hpp">
<polygon fill="white" stroke="black" points="1475.5,-168.5 1475.5,-187.5 1585.5,-187.5 1585.5,-168.5 1475.5,-168.5"/>
<text text-anchor="middle" x="1530.5" y="-175.5" font-family="Helvetica,sans-Serif" font-size="10.00">alox/core/domain.hpp</text>
</a>
</g>
</g>
<!-- Node29&#45;&gt;Node34 -->
<g id="edge51" class="edge"><title>Node29&#45;&gt;Node34</title>
<path fill="none" stroke="midnightblue" d="M1326.62,-226.303C1329.61,-225.509 1332.62,-224.725 1335.5,-224 1385.09,-211.52 1442.12,-198.515 1481.64,-189.715"/>
<polygon fill="midnightblue" stroke="midnightblue" points="1482.54,-193.1 1491.54,-187.515 1481.02,-186.266 1482.54,-193.1"/>
</g>
<!-- Node35 -->
<g id="node35" class="node"><title>Node35</title>
<g id="a_node35"><a xlink:href="scopestore_8hpp.html" target="_top" xlink:title="alox/core/scopestore.hpp">
<polygon fill="white" stroke="black" points="1003.5,-168.5 1003.5,-187.5 1129.5,-187.5 1129.5,-168.5 1003.5,-168.5"/>
<text text-anchor="middle" x="1066.5" y="-175.5" font-family="Helvetica,sans-Serif" font-size="10.00">alox/core/scopestore.hpp</text>
</a>
</g>
</g>
<!-- Node29&#45;&gt;Node35 -->
<g id="edge54" class="edge"><title>Node29&#45;&gt;Node35</title>
<path fill="none" stroke="midnightblue" d="M1278.38,-226.49C1275.07,-225.632 1271.7,-224.781 1268.5,-224 1217.17,-211.494 1158.17,-198.509 1117.24,-189.72"/>
<polygon fill="midnightblue" stroke="midnightblue" points="1117.75,-186.25 1107.23,-187.579 1116.28,-193.095 1117.75,-186.25"/>
</g>
<!-- Node30&#45;&gt;Node3 -->
<g id="edge43" class="edge"><title>Node30&#45;&gt;Node3</title>
<path fill="none" stroke="midnightblue" d="M1324.74,-168.444C1239.46,-157.346 1092.98,-138.287 1019.81,-128.765"/>
<polygon fill="midnightblue" stroke="midnightblue" points="1019.93,-125.252 1009.56,-127.432 1019.02,-132.193 1019.93,-125.252"/>
</g>
<!-- Node30&#45;&gt;Node26 -->
<g id="edge44" class="edge"><title>Node30&#45;&gt;Node26</title>
<path fill="none" stroke="midnightblue" d="M1423.62,-168.444C1463.13,-158.233 1528.74,-141.283 1567.68,-131.223"/>
<polygon fill="midnightblue" stroke="midnightblue" points="1568.63,-134.591 1577.44,-128.7 1566.88,-127.813 1568.63,-134.591"/>
</g>
<!-- Node31&#45;&gt;Node2 -->
<g id="edge46" class="edge"><title>Node31&#45;&gt;Node2</title>
<path fill="none" stroke="midnightblue" d="M1176.15,-187.577C1141.49,-198.538 1093.32,-219.104 1115.5,-244 1137.91,-269.156 1358.87,-282.336 1457.44,-287.003"/>
<polygon fill="midnightblue" stroke="midnightblue" points="1457.28,-290.499 1467.43,-287.467 1457.61,-283.507 1457.28,-290.499"/>
</g>
<!-- Node31&#45;&gt;Node32 -->
<g id="edge47" class="edge"><title>Node31&#45;&gt;Node32</title>
<path fill="none" stroke="midnightblue" d="M1214.77,-168.083C1221.04,-160.377 1230.29,-149.033 1237.93,-139.653"/>
<polygon fill="midnightblue" stroke="midnightblue" points="1240.77,-141.714 1244.37,-131.751 1235.34,-137.293 1240.77,-141.714"/>
</g>
<!-- Node33&#45;&gt;Node2 -->
<g id="edge49" class="edge"><title>Node33&#45;&gt;Node2</title>
<path fill="none" stroke="midnightblue" d="M1670.67,-187.708C1673.5,-201.356 1676.69,-227.884 1663.5,-244 1649.32,-261.331 1593.29,-274.26 1551.74,-281.71"/>
<polygon fill="midnightblue" stroke="midnightblue" points="1551.04,-278.279 1541.79,-283.441 1552.24,-285.176 1551.04,-278.279"/>
</g>
<!-- Node33&#45;&gt;Node26 -->
<g id="edge50" class="edge"><title>Node33&#45;&gt;Node26</title>
<path fill="none" stroke="midnightblue" d="M1657.41,-168.324C1647.01,-160.185 1631.24,-147.839 1618.78,-138.087"/>
<polygon fill="midnightblue" stroke="midnightblue" points="1620.82,-135.241 1610.79,-131.834 1616.51,-140.753 1620.82,-135.241"/>
</g>
<!-- Node34&#45;&gt;Node2 -->
<g id="edge52" class="edge"><title>Node34&#45;&gt;Node2</title>
<path fill="none" stroke="midnightblue" d="M1528.47,-187.591C1524.28,-205.308 1514.6,-246.254 1508.91,-270.348"/>
<polygon fill="midnightblue" stroke="midnightblue" points="1505.43,-269.832 1506.54,-280.368 1512.25,-271.442 1505.43,-269.832"/>
</g>
<!-- Node34&#45;&gt;Node26 -->
<g id="edge53" class="edge"><title>Node34&#45;&gt;Node26</title>
<path fill="none" stroke="midnightblue" d="M1541.59,-168.324C1551.99,-160.185 1567.76,-147.839 1580.22,-138.087"/>
<polygon fill="midnightblue" stroke="midnightblue" points="1582.49,-140.753 1588.21,-131.834 1578.18,-135.241 1582.49,-140.753"/>
</g>
<!-- Node35&#45;&gt;Node2 -->
<g id="edge55" class="edge"><title>Node35&#45;&gt;Node2</title>
<path fill="none" stroke="midnightblue" d="M1069.17,-187.958C1074.01,-202.461 1085.7,-230.786 1106.5,-244 1163.73,-280.347 1364.67,-287.432 1457.2,-288.744"/>
<polygon fill="midnightblue" stroke="midnightblue" points="1457.36,-292.246 1467.4,-288.871 1457.45,-285.247 1457.36,-292.246"/>
</g>
<!-- Node36&#45;&gt;Node2 -->
<g id="edge58" class="edge"><title>Node36&#45;&gt;Node2</title>
<path fill="none" stroke="midnightblue" d="M1713.44,-338.816C1666.42,-328.055 1597.22,-312.219 1551.53,-301.762"/>
<polygon fill="midnightblue" stroke="midnightblue" points="1552.11,-298.305 1541.58,-299.486 1550.55,-305.128 1552.11,-298.305"/>
</g>
<!-- Node36&#45;&gt;Node33 -->
<g id="edge59" class="edge"><title>Node36&#45;&gt;Node33</title>
<path fill="none" stroke="midnightblue" d="M1769.63,-336.214C1777.63,-311.222 1789.98,-258.909 1767.5,-224 1757.19,-207.995 1739.65,-197.617 1722.17,-190.916"/>
<polygon fill="midnightblue" stroke="midnightblue" points="1723.1,-187.535 1712.51,-187.559 1720.8,-194.147 1723.1,-187.535"/>
</g>
</g>
</svg>
