<?xml version="1.0" encoding="UTF-8" standalone="no"?>
<!DOCTYPE svg PUBLIC "-//W3C//DTD SVG 1.1//EN"
 "http://www.w3.org/Graphics/SVG/1.1/DTD/svg11.dtd">
<!-- Generated by graphviz version 2.38.0 (20140413.2041)
 -->
<!-- Title: applyto.hpp Pages: 1 -->
<svg width="1247pt" height="364pt"
 viewBox="0.00 0.00 1247.00 364.00" xmlns="http://www.w3.org/2000/svg" xmlns:xlink="http://www.w3.org/1999/xlink">
<g id="graph0" class="graph" transform="scale(1 1) rotate(0) translate(4 360)">
<title>applyto.hpp</title>
<polygon fill="white" stroke="none" points="-4,4 -4,-360 1243,-360 1243,4 -4,4"/>
<!-- Node1 -->
<g id="node1" class="node"><title>Node1</title>
<polygon fill="#bfbfbf" stroke="black" points="528,-336.5 528,-355.5 595,-355.5 595,-336.5 528,-336.5"/>
<text text-anchor="middle" x="561.5" y="-343.5" font-family="Helvetica,sans-Serif" font-size="10.00">applyto.hpp</text>
</g>
<!-- Node2 -->
<g id="node2" class="node"><title>Node2</title>
<g id="a_node2"><a xlink:href="alib_8hpp.html" target="_top" xlink:title="alib.hpp">
<polygon fill="white" stroke="black" points="536.5,-280.5 536.5,-299.5 586.5,-299.5 586.5,-280.5 536.5,-280.5"/>
<text text-anchor="middle" x="561.5" y="-287.5" font-family="Helvetica,sans-Serif" font-size="10.00">alib.hpp</text>
</a>
</g>
</g>
<!-- Node1&#45;&gt;Node2 -->
<g id="edge1" class="edge"><title>Node1&#45;&gt;Node2</title>
<path fill="none" stroke="midnightblue" d="M555.028,-326.101C554.396,-317.136 554.843,-306.858 556.369,-299.751"/>
<polygon fill="midnightblue" stroke="midnightblue" points="551.566,-326.622 556.334,-336.083 558.507,-325.713 551.566,-326.622"/>
</g>
<!-- Node2&#45;&gt;Node1 -->
<g id="edge2" class="edge"><title>Node2&#45;&gt;Node1</title>
<path fill="none" stroke="midnightblue" d="M567.958,-309.691C568.606,-318.635 568.176,-328.927 566.666,-336.083"/>
<polygon fill="midnightblue" stroke="midnightblue" points="571.423,-309.2 566.631,-299.751 564.485,-310.126 571.423,-309.2"/>
</g>
<!-- Node3 -->
<g id="node3" class="node"><title>Node3</title>
<g id="a_node3"><a xlink:href="enums_8hpp.html" target="_top" xlink:title="enums.hpp">
<polygon fill="white" stroke="black" points="0,-224.5 0,-243.5 65,-243.5 65,-224.5 0,-224.5"/>
<text text-anchor="middle" x="32.5" y="-231.5" font-family="Helvetica,sans-Serif" font-size="10.00">enums.hpp</text>
</a>
</g>
</g>
<!-- Node2&#45;&gt;Node3 -->
<g id="edge3" class="edge"><title>Node2&#45;&gt;Node3</title>
<path fill="none" stroke="midnightblue" d="M526.236,-287.428C444.488,-283.215 236.8,-270.173 65.5,-244 64.6154,-243.865 63.7214,-243.723 62.8219,-243.574"/>
<polygon fill="midnightblue" stroke="midnightblue" points="526.307,-290.936 536.47,-287.942 526.659,-283.945 526.307,-290.936"/>
</g>
<!-- Node4 -->
<g id="node4" class="node"><title>Node4</title>
<g id="a_node4"><a xlink:href="ownable_8hpp.html" target="_top" xlink:title="ownable.hpp">
<polygon fill="white" stroke="black" points="963,-224.5 963,-243.5 1034,-243.5 1034,-224.5 963,-224.5"/>
<text text-anchor="middle" x="998.5" y="-231.5" font-family="Helvetica,sans-Serif" font-size="10.00">ownable.hpp</text>
</a>
</g>
</g>
<!-- Node2&#45;&gt;Node4 -->
<g id="edge4" class="edge"><title>Node2&#45;&gt;Node4</title>
<path fill="none" stroke="midnightblue" d="M597.228,-285.968C666.434,-279.86 823.493,-264.858 954.5,-244 957.118,-243.583 959.817,-243.118 962.529,-242.626"/>
<polygon fill="midnightblue" stroke="midnightblue" points="596.55,-282.513 586.892,-286.871 597.159,-289.487 596.55,-282.513"/>
</g>
<!-- Node5 -->
<g id="node5" class="node"><title>Node5</title>
<g id="a_node5"><a xlink:href="threadlock_8hpp.html" target="_top" xlink:title="threadlock.hpp">
<polygon fill="white" stroke="red" points="507.5,-168.5 507.5,-187.5 587.5,-187.5 587.5,-168.5 507.5,-168.5"/>
<text text-anchor="middle" x="547.5" y="-175.5" font-family="Helvetica,sans-Serif" font-size="10.00">threadlock.hpp</text>
</a>
</g>
</g>
<!-- Node2&#45;&gt;Node5 -->
<g id="edge5" class="edge"><title>Node2&#45;&gt;Node5</title>
<path fill="none" stroke="midnightblue" d="M526.215,-289.755C448.945,-290.573 268.617,-287.65 230.5,-244 224.653,-237.305 224.673,-230.713 230.5,-224 265.891,-183.23 430.09,-178.422 507.243,-178.475"/>
<polygon fill="midnightblue" stroke="midnightblue" points="526.457,-293.252 536.409,-289.618 526.363,-286.253 526.457,-293.252"/>
</g>
<!-- Node7 -->
<g id="node6" class="node"><title>Node7</title>
<g id="a_node6"><a xlink:href="alox_8hpp.html" target="_top" xlink:title="alox.hpp">
<polygon fill="white" stroke="red" points="907,-56.5 907,-75.5 960,-75.5 960,-56.5 907,-56.5"/>
<text text-anchor="middle" x="933.5" y="-63.5" font-family="Helvetica,sans-Serif" font-size="10.00">alox.hpp</text>
</a>
</g>
</g>
<!-- Node2&#45;&gt;Node7 -->
<g id="edge6" class="edge"><title>Node2&#45;&gt;Node7</title>
<path fill="none" stroke="midnightblue" d="M526.202,-286.924C443.256,-281.685 241.402,-266.71 221.5,-244 215.641,-237.315 215.932,-230.929 221.5,-224 310.201,-113.609 787.757,-76.2517 906.671,-68.5913"/>
<polygon fill="midnightblue" stroke="midnightblue" points="526.201,-290.43 536.399,-287.556 526.635,-283.444 526.201,-290.43"/>
</g>
<!-- Node9 -->
<g id="node7" class="node"><title>Node9</title>
<g id="a_node7"><a xlink:href="report_8hpp.html" target="_top" xlink:title="report.hpp">
<polygon fill="white" stroke="black" points="239.5,-224.5 239.5,-243.5 299.5,-243.5 299.5,-224.5 239.5,-224.5"/>
<text text-anchor="middle" x="269.5" y="-231.5" font-family="Helvetica,sans-Serif" font-size="10.00">report.hpp</text>
</a>
</g>
</g>
<!-- Node2&#45;&gt;Node9 -->
<g id="edge7" class="edge"><title>Node2&#45;&gt;Node9</title>
<path fill="none" stroke="midnightblue" d="M526.079,-284.21C475.356,-276.47 379.893,-260.415 299.5,-244 298.819,-243.861 298.132,-243.719 297.441,-243.575"/>
<polygon fill="midnightblue" stroke="midnightblue" points="525.793,-287.706 536.202,-285.733 526.834,-280.784 525.793,-287.706"/>
</g>
<!-- Node10 -->
<g id="node8" class="node"><title>Node10</title>
<g id="a_node8"><a xlink:href="util_8hpp.html" target="_top" xlink:title="util.hpp">
<polygon fill="white" stroke="black" points="317.5,-224.5 317.5,-243.5 365.5,-243.5 365.5,-224.5 317.5,-224.5"/>
<text text-anchor="middle" x="341.5" y="-231.5" font-family="Helvetica,sans-Serif" font-size="10.00">util.hpp</text>
</a>
</g>
</g>
<!-- Node2&#45;&gt;Node10 -->
<g id="edge8" class="edge"><title>Node2&#45;&gt;Node10</title>
<path fill="none" stroke="midnightblue" d="M526.378,-280.881C488.737,-272.102 427.273,-257.543 374.5,-244 371.624,-243.262 368.613,-242.469 365.628,-241.67"/>
<polygon fill="midnightblue" stroke="midnightblue" points="525.803,-284.34 536.336,-283.198 527.389,-277.523 525.803,-284.34"/>
</g>
<!-- Node11 -->
<g id="node9" class="node"><title>Node11</title>
<g id="a_node9"><a xlink:href="applyformat_8hpp.html" target="_top" xlink:title="applyformat.hpp">
<polygon fill="white" stroke="black" points="383.5,-224.5 383.5,-243.5 469.5,-243.5 469.5,-224.5 383.5,-224.5"/>
<text text-anchor="middle" x="426.5" y="-231.5" font-family="Helvetica,sans-Serif" font-size="10.00">applyformat.hpp</text>
</a>
</g>
</g>
<!-- Node2&#45;&gt;Node11 -->
<g id="edge9" class="edge"><title>Node2&#45;&gt;Node11</title>
<path fill="none" stroke="midnightblue" d="M526.844,-277.401C499.926,-267.281 463.963,-252.823 443.077,-243.677"/>
<polygon fill="midnightblue" stroke="midnightblue" points="525.714,-280.715 536.307,-280.916 528.151,-274.153 525.714,-280.715"/>
</g>
<!-- Node12 -->
<g id="node10" class="node"><title>Node12</title>
<g id="a_node10"><a xlink:href="astring_8hpp.html" target="_top" xlink:title="astring.hpp">
<polygon fill="white" stroke="black" points="488,-224.5 488,-243.5 553,-243.5 553,-224.5 488,-224.5"/>
<text text-anchor="middle" x="520.5" y="-231.5" font-family="Helvetica,sans-Serif" font-size="10.00">astring.hpp</text>
</a>
</g>
</g>
<!-- Node2&#45;&gt;Node12 -->
<g id="edge10" class="edge"><title>Node2&#45;&gt;Node12</title>
<path fill="none" stroke="midnightblue" d="M542.639,-272.431C534.56,-262.967 526.223,-251.483 522.013,-243.751"/>
<polygon fill="midnightblue" stroke="midnightblue" points="540.258,-275.017 549.563,-280.083 545.449,-270.32 540.258,-275.017"/>
</g>
<!-- Node13 -->
<g id="node11" class="node"><title>Node13</title>
<g id="a_node11"><a xlink:href="cstring_8hpp.html" target="_top" xlink:title="cstring.hpp">
<polygon fill="white" stroke="black" points="571,-224.5 571,-243.5 636,-243.5 636,-224.5 571,-224.5"/>
<text text-anchor="middle" x="603.5" y="-231.5" font-family="Helvetica,sans-Serif" font-size="10.00">cstring.hpp</text>
</a>
</g>
</g>
<!-- Node2&#45;&gt;Node13 -->
<g id="edge11" class="edge"><title>Node2&#45;&gt;Node13</title>
<path fill="none" stroke="midnightblue" d="M568.702,-271.566C575.136,-262.275 584.121,-251.248 591.563,-243.751"/>
<polygon fill="midnightblue" stroke="midnightblue" points="565.696,-269.77 563.269,-280.083 571.598,-273.534 565.696,-269.77"/>
</g>
<!-- Node14 -->
<g id="node12" class="node"><title>Node14</title>
<g id="a_node12"><a xlink:href="preallocatedstring_8hpp.html" target="_top" xlink:title="preallocatedstring.hpp">
<polygon fill="white" stroke="black" points="654.5,-224.5 654.5,-243.5 766.5,-243.5 766.5,-224.5 654.5,-224.5"/>
<text text-anchor="middle" x="710.5" y="-231.5" font-family="Helvetica,sans-Serif" font-size="10.00">preallocatedstring.hpp</text>
</a>
</g>
</g>
<!-- Node2&#45;&gt;Node14 -->
<g id="edge12" class="edge"><title>Node2&#45;&gt;Node14</title>
<path fill="none" stroke="midnightblue" d="M589.483,-276.772C615.951,-266.629 655.253,-252.467 681.921,-243.516"/>
<polygon fill="midnightblue" stroke="midnightblue" points="588.077,-273.563 580.021,-280.444 590.61,-280.089 588.077,-273.563"/>
</g>
<!-- Node15 -->
<g id="node13" class="node"><title>Node15</title>
<g id="a_node13"><a xlink:href="string_8hpp.html" target="_top" xlink:title="string.hpp">
<polygon fill="white" stroke="black" points="785,-224.5 785,-243.5 844,-243.5 844,-224.5 785,-224.5"/>
<text text-anchor="middle" x="814.5" y="-231.5" font-family="Helvetica,sans-Serif" font-size="10.00">string.hpp</text>
</a>
</g>
</g>
<!-- Node2&#45;&gt;Node15 -->
<g id="edge13" class="edge"><title>Node2&#45;&gt;Node15</title>
<path fill="none" stroke="midnightblue" d="M596.627,-280.444C637.568,-271.565 706.815,-257.161 766.5,-244 772.336,-242.713 778.652,-241.275 784.808,-239.933"/>
<polygon fill="midnightblue" stroke="midnightblue" points="595.627,-277.08 586.604,-282.632 597.12,-283.918 595.627,-277.08"/>
</g>
<!-- Node16 -->
<g id="node14" class="node"><title>Node16</title>
<g id="a_node14"><a xlink:href="stringliteral_8hpp.html" target="_top" xlink:title="stringliteral.hpp">
<polygon fill="white" stroke="black" points="862,-224.5 862,-243.5 945,-243.5 945,-224.5 862,-224.5"/>
<text text-anchor="middle" x="903.5" y="-231.5" font-family="Helvetica,sans-Serif" font-size="10.00">stringliteral.hpp</text>
</a>
</g>
</g>
<!-- Node2&#45;&gt;Node16 -->
<g id="edge14" class="edge"><title>Node2&#45;&gt;Node16</title>
<path fill="none" stroke="midnightblue" d="M596.834,-282.956C650.536,-274.609 755.332,-258.894 844.5,-244 850.068,-243.07 855.977,-242.043 861.849,-241.024"/>
<polygon fill="midnightblue" stroke="midnightblue" points="596.134,-279.522 586.794,-284.524 597.215,-286.439 596.134,-279.522"/>
</g>
<!-- Node17 -->
<g id="node15" class="node"><title>Node17</title>
<g id="a_node15"><a xlink:href="substring_8hpp.html" target="_top" xlink:title="substring.hpp">
<polygon fill="white" stroke="black" points="1133,-224.5 1133,-243.5 1208,-243.5 1208,-224.5 1133,-224.5"/>
<text text-anchor="middle" x="1170.5" y="-231.5" font-family="Helvetica,sans-Serif" font-size="10.00">substring.hpp</text>
</a>
</g>
</g>
<!-- Node2&#45;&gt;Node17 -->
<g id="edge15" class="edge"><title>Node2&#45;&gt;Node17</title>
<path fill="none" stroke="midnightblue" d="M596.578,-287.526C685.207,-283.512 925.2,-270.843 1123.5,-244 1126.55,-243.588 1129.69,-243.106 1132.85,-242.585"/>
<polygon fill="midnightblue" stroke="midnightblue" points="596.367,-284.032 586.532,-287.973 596.678,-291.025 596.367,-284.032"/>
</g>
<!-- Node22 -->
<g id="node16" class="node"><title>Node22</title>
<g id="a_node16"><a xlink:href="tstring_8hpp.html" target="_top" xlink:title="tstring.hpp">
<polygon fill="white" stroke="black" points="1052.5,-224.5 1052.5,-243.5 1114.5,-243.5 1114.5,-224.5 1052.5,-224.5"/>
<text text-anchor="middle" x="1083.5" y="-231.5" font-family="Helvetica,sans-Serif" font-size="10.00">tstring.hpp</text>
</a>
</g>
</g>
<!-- Node2&#45;&gt;Node22 -->
<g id="edge16" class="edge"><title>Node2&#45;&gt;Node22</title>
<path fill="none" stroke="midnightblue" d="M597.001,-286.978C676.115,-282.44 871.978,-269.762 1034.5,-244 1040.26,-243.086 1046.44,-241.834 1052.47,-240.555"/>
<polygon fill="midnightblue" stroke="midnightblue" points="596.414,-283.506 586.628,-287.565 596.81,-290.495 596.414,-283.506"/>
</g>
<!-- Node23 -->
<g id="node17" class="node"><title>Node23</title>
<g id="a_node17"><a xlink:href="thread_8hpp.html" target="_top" xlink:title="thread.hpp">
<polygon fill="white" stroke="black" points="83.5,-224.5 83.5,-243.5 145.5,-243.5 145.5,-224.5 83.5,-224.5"/>
<text text-anchor="middle" x="114.5" y="-231.5" font-family="Helvetica,sans-Serif" font-size="10.00">thread.hpp</text>
</a>
</g>
</g>
<!-- Node2&#45;&gt;Node23 -->
<g id="edge17" class="edge"><title>Node2&#45;&gt;Node23</title>
<path fill="none" stroke="midnightblue" d="M526.429,-286.096C456.424,-280.073 294.477,-265.013 159.5,-244 155.091,-243.314 150.458,-242.497 145.91,-241.64"/>
<polygon fill="midnightblue" stroke="midnightblue" points="526.206,-289.589 536.468,-286.951 526.801,-282.615 526.206,-289.589"/>
</g>
<!-- Node3&#45;&gt;Node2 -->
<g id="edge18" class="edge"><title>Node3&#45;&gt;Node2</title>
<path fill="none" stroke="midnightblue" d="M74.9906,-242.554C77.8799,-243.086 80.7356,-243.578 83.5,-244 255.776,-270.322 464.856,-283.363 536.344,-287.499"/>
<polygon fill="midnightblue" stroke="midnightblue" points="75.6062,-239.108 65.1219,-240.635 74.2698,-245.98 75.6062,-239.108"/>
</g>
<!-- Node4&#45;&gt;Node5 -->
<g id="edge19" class="edge"><title>Node4&#45;&gt;Node5</title>
<path fill="none" stroke="midnightblue" d="M952.53,-223.801C813.262,-202.285 658.952,-188.175 587.523,-182.199"/>
<polygon fill="midnightblue" stroke="midnightblue" points="952.11,-227.278 962.53,-225.363 953.19,-220.362 952.11,-227.278"/>
</g>
<!-- Node6 -->
<g id="node18" class="node"><title>Node6</title>
<g id="a_node18"><a xlink:href="configuration_8hpp.html" target="_top" xlink:title="configuration.hpp">
<polygon fill="white" stroke="red" points="888,-112.5 888,-131.5 979,-131.5 979,-112.5 888,-112.5"/>
<text text-anchor="middle" x="933.5" y="-119.5" font-family="Helvetica,sans-Serif" font-size="10.00">configuration.hpp</text>
</a>
</g>
</g>
<!-- Node5&#45;&gt;Node6 -->
<g id="edge20" class="edge"><title>Node5&#45;&gt;Node6</title>
<path fill="none" stroke="midnightblue" d="M597.927,-169.945C673.492,-159.374 814.977,-139.581 887.725,-129.404"/>
<polygon fill="midnightblue" stroke="midnightblue" points="597.135,-166.522 587.716,-171.374 598.105,-173.455 597.135,-166.522"/>
</g>
<!-- Node8 -->
<g id="node19" class="node"><title>Node8</title>
<g id="a_node19"><a xlink:href="scopeinfo_8hpp.html" target="_top" xlink:title="scopeinfo.hpp">
<polygon fill="white" stroke="red" points="895,-0.5 895,-19.5 972,-19.5 972,-0.5 895,-0.5"/>
<text text-anchor="middle" x="933.5" y="-7.5" font-family="Helvetica,sans-Serif" font-size="10.00">scopeinfo.hpp</text>
</a>
</g>
</g>
<!-- Node7&#45;&gt;Node8 -->
<g id="edge22" class="edge"><title>Node7&#45;&gt;Node8</title>
<path fill="none" stroke="midnightblue" d="M933.5,-45.8045C933.5,-36.9102 933.5,-26.7798 933.5,-19.7511"/>
<polygon fill="midnightblue" stroke="midnightblue" points="930,-46.083 933.5,-56.083 937,-46.083 930,-46.083"/>
</g>
<!-- Node9&#45;&gt;Node2 -->
<g id="edge23" class="edge"><title>Node9&#45;&gt;Node2</title>
<path fill="none" stroke="midnightblue" d="M309.506,-242.312C312.226,-242.9 314.909,-243.471 317.5,-244 397.273,-260.288 491.885,-276.222 536.376,-284.03"/>
<polygon fill="midnightblue" stroke="midnightblue" points="310.112,-238.862 299.596,-240.148 308.619,-245.701 310.112,-238.862"/>
</g>
<!-- Node11&#45;&gt;Node2 -->
<g id="edge24" class="edge"><title>Node11&#45;&gt;Node2</title>
<path fill="none" stroke="midnightblue" d="M462.353,-247.049C489.251,-257.189 524.659,-271.438 545.198,-280.444"/>
<polygon fill="midnightblue" stroke="midnightblue" points="463.464,-243.728 452.871,-243.516 461.02,-250.288 463.464,-243.728"/>
</g>
<!-- Node12&#45;&gt;Node2 -->
<g id="edge25" class="edge"><title>Node12&#45;&gt;Node2</title>
<path fill="none" stroke="midnightblue" d="M539.188,-251.367C547.264,-260.801 555.628,-272.298 559.896,-280.083"/>
<polygon fill="midnightblue" stroke="midnightblue" points="541.588,-248.803 532.275,-243.751 536.405,-253.508 541.588,-248.803"/>
</g>
<!-- Node13&#45;&gt;Node2 -->
<g id="edge26" class="edge"><title>Node13&#45;&gt;Node2</title>
<path fill="none" stroke="midnightblue" d="M596.44,-252.23C590.043,-261.495 581.066,-272.534 573.602,-280.083"/>
<polygon fill="midnightblue" stroke="midnightblue" points="599.418,-254.069 601.825,-243.751 593.509,-250.316 599.418,-254.069"/>
</g>
<!-- Node14&#45;&gt;Node2 -->
<g id="edge27" class="edge"><title>Node14&#45;&gt;Node2</title>
<path fill="none" stroke="midnightblue" d="M682.509,-247.231C654.907,-257.809 613.353,-272.755 586.722,-281.605"/>
<polygon fill="midnightblue" stroke="midnightblue" points="683.937,-250.431 691.993,-243.551 681.405,-243.905 683.937,-250.431"/>
</g>
<!-- Node15&#45;&gt;Node2 -->
<g id="edge28" class="edge"><title>Node15&#45;&gt;Node2</title>
<path fill="none" stroke="midnightblue" d="M776.618,-245.729C705.786,-261.246 626.658,-277.509 586.794,-284.912"/>
<polygon fill="midnightblue" stroke="midnightblue" points="777.538,-249.11 786.553,-243.545 776.035,-242.274 777.538,-249.11"/>
</g>
<!-- Node16&#45;&gt;Node2 -->
<g id="edge29" class="edge"><title>Node16&#45;&gt;Node2</title>
<path fill="none" stroke="midnightblue" d="M855.235,-245.203C753.018,-262.137 637.117,-279.264 586.705,-286.013"/>
<polygon fill="midnightblue" stroke="midnightblue" points="856.108,-248.606 865.398,-243.512 854.959,-241.701 856.108,-248.606"/>
</g>
<!-- Node17&#45;&gt;Node6 -->
<g id="edge30" class="edge"><title>Node17&#45;&gt;Node6</title>
<path fill="none" stroke="midnightblue" d="M1123,-223.886C1055.88,-210.982 941.278,-188.848 940.5,-188 926.381,-172.612 928.942,-145.765 931.499,-131.881"/>
<polygon fill="midnightblue" stroke="midnightblue" points="1122.46,-227.346 1132.94,-225.796 1123.78,-220.472 1122.46,-227.346"/>
</g>
<!-- Node18 -->
<g id="node20" class="node"><title>Node18</title>
<g id="a_node20"><a xlink:href="plugins_8hpp.html" target="_top" xlink:title="plugins.hpp">
<polygon fill="white" stroke="red" points="949.5,-168.5 949.5,-187.5 1015.5,-187.5 1015.5,-168.5 949.5,-168.5"/>
<text text-anchor="middle" x="982.5" y="-175.5" font-family="Helvetica,sans-Serif" font-size="10.00">plugins.hpp</text>
</a>
</g>
</g>
<!-- Node17&#45;&gt;Node18 -->
<g id="edge31" class="edge"><title>Node17&#45;&gt;Node18</title>
<path fill="none" stroke="midnightblue" d="M1130.7,-221.568C1095.23,-211.381 1044.13,-196.703 1012.15,-187.516"/>
<polygon fill="midnightblue" stroke="midnightblue" points="1130.13,-225.047 1140.71,-224.444 1132.07,-218.319 1130.13,-225.047"/>
</g>
<!-- Node19 -->
<g id="node21" class="node"><title>Node19</title>
<g id="a_node21"><a xlink:href="pathmap_8hpp.html" target="_top" xlink:title="pathmap.hpp">
<polygon fill="white" stroke="black" points="1166,-168.5 1166,-187.5 1239,-187.5 1239,-168.5 1166,-168.5"/>
<text text-anchor="middle" x="1202.5" y="-175.5" font-family="Helvetica,sans-Serif" font-size="10.00">pathmap.hpp</text>
</a>
</g>
</g>
<!-- Node17&#45;&gt;Node19 -->
<g id="edge32" class="edge"><title>Node17&#45;&gt;Node19</title>
<path fill="none" stroke="midnightblue" d="M1181,-215.275C1186.47,-206.045 1192.92,-195.17 1197.31,-187.751"/>
<polygon fill="midnightblue" stroke="midnightblue" points="1177.87,-213.696 1175.78,-224.083 1183.89,-217.264 1177.87,-213.696"/>
</g>
<!-- Node20 -->
<g id="node22" class="node"><title>Node20</title>
<g id="a_node22"><a xlink:href="tokenizer_8hpp.html" target="_top" xlink:title="tokenizer.hpp">
<polygon fill="white" stroke="red" points="1034,-168.5 1034,-187.5 1109,-187.5 1109,-168.5 1034,-168.5"/>
<text text-anchor="middle" x="1071.5" y="-175.5" font-family="Helvetica,sans-Serif" font-size="10.00">tokenizer.hpp</text>
</a>
</g>
</g>
<!-- Node17&#45;&gt;Node20 -->
<g id="edge33" class="edge"><title>Node17&#45;&gt;Node20</title>
<path fill="none" stroke="midnightblue" d="M1145.66,-219.453C1127.39,-209.483 1103.08,-196.228 1087.37,-187.655"/>
<polygon fill="midnightblue" stroke="midnightblue" points="1144.14,-222.608 1154.59,-224.324 1147.49,-216.463 1144.14,-222.608"/>
</g>
<!-- Node21 -->
<g id="node23" class="node"><title>Node21</title>
<g id="a_node23"><a xlink:href="ticks_8hpp.html" target="_top" xlink:title="ticks.hpp">
<polygon fill="white" stroke="black" points="1097.5,-112.5 1097.5,-131.5 1153.5,-131.5 1153.5,-112.5 1097.5,-112.5"/>
<text text-anchor="middle" x="1125.5" y="-119.5" font-family="Helvetica,sans-Serif" font-size="10.00">ticks.hpp</text>
</a>
</g>
</g>
<!-- Node17&#45;&gt;Node21 -->
<g id="edge34" class="edge"><title>Node17&#45;&gt;Node21</title>
<path fill="none" stroke="midnightblue" d="M1163.14,-214.998C1153.32,-190.997 1136.33,-149.468 1129.01,-131.591"/>
<polygon fill="midnightblue" stroke="midnightblue" points="1159.94,-216.438 1166.97,-224.368 1166.42,-213.788 1159.94,-216.438"/>
</g>
<!-- Node22&#45;&gt;Node2 -->
<g id="edge39" class="edge"><title>Node22&#45;&gt;Node2</title>
<path fill="none" stroke="midnightblue" d="M1045.44,-245.075C867.717,-272.488 658.075,-284.631 586.579,-287.99"/>
<polygon fill="midnightblue" stroke="midnightblue" points="1046.14,-248.507 1055.48,-243.504 1045.06,-241.592 1046.14,-248.507"/>
</g>
<!-- Node23&#45;&gt;Node5 -->
<g id="edge40" class="edge"><title>Node23&#45;&gt;Node5</title>
<path fill="none" stroke="midnightblue" d="M155.713,-227.86C238.774,-217.502 425.344,-194.234 507.438,-183.996"/>
<polygon fill="midnightblue" stroke="midnightblue" points="155.13,-224.406 145.64,-229.116 155.997,-231.352 155.13,-224.406"/>
</g>
<!-- Node23&#45;&gt;Node8 -->
<g id="edge41" class="edge"><title>Node23&#45;&gt;Node8</title>
<path fill="none" stroke="midnightblue" d="M143.068,-220.368C173.836,-206.898 224.328,-185.184 268.5,-168 337.543,-141.141 354.089,-131.72 425.5,-112 597.986,-64.3671 809.276,-29.7579 894.815,-16.7074"/>
<polygon fill="midnightblue" stroke="midnightblue" points="141.553,-217.211 133.804,-224.436 144.367,-223.62 141.553,-217.211"/>
</g>
<!-- Node6&#45;&gt;Node7 -->
<g id="edge21" class="edge"><title>Node6&#45;&gt;Node7</title>
<path fill="none" stroke="midnightblue" d="M933.5,-101.805C933.5,-92.9102 933.5,-82.7798 933.5,-75.7511"/>
<polygon fill="midnightblue" stroke="midnightblue" points="930,-102.083 933.5,-112.083 937,-102.083 930,-102.083"/>
</g>
<!-- Node18&#45;&gt;Node6 -->
<g id="edge35" class="edge"><title>Node18&#45;&gt;Node6</title>
<path fill="none" stroke="midnightblue" d="M967.466,-160.431C958.878,-150.967 948.457,-139.483 941.441,-131.751"/>
<polygon fill="midnightblue" stroke="midnightblue" points="965.097,-163.029 974.409,-168.083 970.281,-158.325 965.097,-163.029"/>
</g>
<!-- Node20&#45;&gt;Node7 -->
<g id="edge37" class="edge"><title>Node20&#45;&gt;Node7</title>
<path fill="none" stroke="midnightblue" d="M1052.83,-162.118C1023.54,-138.769 967.711,-94.2699 944.278,-75.5914"/>
<polygon fill="midnightblue" stroke="midnightblue" points="1050.67,-164.872 1060.67,-168.368 1055.03,-159.398 1050.67,-164.872"/>
</g>
<!-- Node20&#45;&gt;Node6 -->
<g id="edge36" class="edge"><title>Node20&#45;&gt;Node6</title>
<path fill="none" stroke="midnightblue" d="M1040.25,-164.772C1014.33,-154.629 978.138,-140.467 955.264,-131.516"/>
<polygon fill="midnightblue" stroke="midnightblue" points="1039.05,-168.059 1049.63,-168.444 1041.6,-161.54 1039.05,-168.059"/>
</g>
<!-- Node21&#45;&gt;Node8 -->
<g id="edge38" class="edge"><title>Node21&#45;&gt;Node8</title>
<path fill="none" stroke="midnightblue" d="M1101.59,-107.301C1061.45,-84.3043 981.658,-38.5906 948.496,-19.5914"/>
<polygon fill="midnightblue" stroke="midnightblue" points="1100.02,-110.434 1110.43,-112.368 1103.5,-104.36 1100.02,-110.434"/>
</g>
</g>
</svg>
