<?xml version="1.0" encoding="UTF-8" standalone="no"?>
<!DOCTYPE svg PUBLIC "-//W3C//DTD SVG 1.1//EN"
 "http://www.w3.org/Graphics/SVG/1.1/DTD/svg11.dtd">
<!-- Generated by graphviz version 2.38.0 (20140413.2041)
 -->
<!-- Title: assubstring.hpp Pages: 1 -->
<svg width="197pt" height="196pt"
 viewBox="0.00 0.00 196.50 196.00" xmlns="http://www.w3.org/2000/svg" xmlns:xlink="http://www.w3.org/1999/xlink">
<g id="graph0" class="graph" transform="scale(1 1) rotate(0) translate(4 192)">
<title>assubstring.hpp</title>
<polygon fill="white" stroke="none" points="-4,4 -4,-192 192.5,-192 192.5,4 -4,4"/>
<!-- Node1 -->
<g id="node1" class="node"><title>Node1</title>
<polygon fill="#bfbfbf" stroke="black" points="35.5,-168.5 35.5,-187.5 121.5,-187.5 121.5,-168.5 35.5,-168.5"/>
<text text-anchor="middle" x="78.5" y="-175.5" font-family="Helvetica,sans-Serif" font-size="10.00">assubstring.hpp</text>
</g>
<!-- Node2 -->
<g id="node2" class="node"><title>Node2</title>
<g id="a_node2"><a xlink:href="tokenizer_8hpp.html" target="_top" xlink:title="tokenizer.hpp">
<polygon fill="white" stroke="black" points="-7.10543e-15,-112.5 -7.10543e-15,-131.5 75,-131.5 75,-112.5 -7.10543e-15,-112.5"/>
<text text-anchor="middle" x="37.5" y="-119.5" font-family="Helvetica,sans-Serif" font-size="10.00">tokenizer.hpp</text>
</a>
</g>
</g>
<!-- Node1&#45;&gt;Node2 -->
<g id="edge1" class="edge"><title>Node1&#45;&gt;Node2</title>
<path fill="none" stroke="midnightblue" d="M65.4828,-159.855C58.3833,-150.505 49.896,-139.327 44.1443,-131.751"/>
<polygon fill="midnightblue" stroke="midnightblue" points="62.895,-162.235 71.7297,-168.083 68.4701,-158.002 62.895,-162.235"/>
</g>
<!-- Node3 -->
<g id="node3" class="node"><title>Node3</title>
<g id="a_node3"><a xlink:href="ticks_8hpp.html" target="_top" xlink:title="ticks.hpp">
<polygon fill="white" stroke="black" points="92.5,-112.5 92.5,-131.5 148.5,-131.5 148.5,-112.5 92.5,-112.5"/>
<text text-anchor="middle" x="120.5" y="-119.5" font-family="Helvetica,sans-Serif" font-size="10.00">ticks.hpp</text>
</a>
</g>
</g>
<!-- Node1&#45;&gt;Node3 -->
<g id="edge2" class="edge"><title>Node1&#45;&gt;Node3</title>
<path fill="none" stroke="midnightblue" d="M91.6102,-160.144C98.9278,-150.736 107.741,-139.405 113.694,-131.751"/>
<polygon fill="midnightblue" stroke="midnightblue" points="88.8122,-158.041 85.4354,-168.083 94.3376,-162.338 88.8122,-158.041"/>
</g>
<!-- Node4 -->
<g id="node4" class="node"><title>Node4</title>
<g id="a_node4"><a xlink:href="callerinfo_8hpp.html" target="_top" xlink:title="callerinfo.hpp">
<polygon fill="white" stroke="black" points="83.5,-56.5 83.5,-75.5 157.5,-75.5 157.5,-56.5 83.5,-56.5"/>
<text text-anchor="middle" x="120.5" y="-63.5" font-family="Helvetica,sans-Serif" font-size="10.00">callerinfo.hpp</text>
</a>
</g>
</g>
<!-- Node3&#45;&gt;Node4 -->
<g id="edge3" class="edge"><title>Node3&#45;&gt;Node4</title>
<path fill="none" stroke="midnightblue" d="M120.5,-101.805C120.5,-92.9102 120.5,-82.7798 120.5,-75.7511"/>
<polygon fill="midnightblue" stroke="midnightblue" points="117,-102.083 120.5,-112.083 124,-102.083 117,-102.083"/>
</g>
<!-- Node5 -->
<g id="node5" class="node"><title>Node5</title>
<g id="a_node5"><a xlink:href="lox_8hpp.html" target="_top" xlink:title="lox.hpp">
<polygon fill="white" stroke="red" points="60.5,-0.5 60.5,-19.5 108.5,-19.5 108.5,-0.5 60.5,-0.5"/>
<text text-anchor="middle" x="84.5" y="-7.5" font-family="Helvetica,sans-Serif" font-size="10.00">lox.hpp</text>
</a>
</g>
</g>
<!-- Node4&#45;&gt;Node5 -->
<g id="edge4" class="edge"><title>Node4&#45;&gt;Node5</title>
<path fill="none" stroke="midnightblue" d="M108.877,-47.5656C102.683,-38.2747 95.3323,-27.2484 90.3341,-19.7511"/>
<polygon fill="midnightblue" stroke="midnightblue" points="106.096,-49.7039 114.555,-56.083 111.92,-45.821 106.096,-49.7039"/>
</g>
<!-- Node6 -->
<g id="node6" class="node"><title>Node6</title>
<g id="a_node6"><a xlink:href="logger_8hpp.html" target="_top" xlink:title="logger.hpp">
<polygon fill="white" stroke="red" points="126.5,-0.5 126.5,-19.5 188.5,-19.5 188.5,-0.5 126.5,-0.5"/>
<text text-anchor="middle" x="157.5" y="-7.5" font-family="Helvetica,sans-Serif" font-size="10.00">logger.hpp</text>
</a>
</g>
</g>
<!-- Node4&#45;&gt;Node6 -->
<g id="edge5" class="edge"><title>Node4&#45;&gt;Node6</title>
<path fill="none" stroke="midnightblue" d="M132.446,-47.5656C138.812,-38.2747 146.367,-27.2484 151.504,-19.7511"/>
<polygon fill="midnightblue" stroke="midnightblue" points="129.375,-45.8553 126.61,-56.083 135.149,-49.812 129.375,-45.8553"/>
</g>
</g>
</svg>
