<?xml version="1.0" encoding="UTF-8" standalone="no"?>
<!DOCTYPE svg PUBLIC "-//W3C//DTD SVG 1.1//EN"
 "http://www.w3.org/Graphics/SVG/1.1/DTD/svg11.dtd">
<!-- Generated by graphviz version 2.40.1 (20161225.0304)
 -->
<!-- Title: boxer.hpp Pages: 1 -->
<svg width="339pt" height="196pt"
 viewBox="0.00 0.00 338.50 196.00" xmlns="http://www.w3.org/2000/svg" xmlns:xlink="http://www.w3.org/1999/xlink">
<g id="graph0" class="graph" transform="scale(1 1) rotate(0) translate(4 192)">
<title>boxer.hpp</title>
<polygon fill="#ffffff" stroke="transparent" points="-4,4 -4,-192 334.5,-192 334.5,4 -4,4"/>
<!-- Node9 -->
<g id="node1" class="node">
<title>Node9</title>
<polygon fill="#bfbfbf" stroke="#000000" points="190,-168.5 190,-187.5 249,-187.5 249,-168.5 190,-168.5"/>
<text text-anchor="middle" x="219.5" y="-175.5" font-family="Helvetica,sans-Serif" font-size="10.00" fill="#000000">boxer.hpp</text>
</g>
<!-- Node10 -->
<g id="node2" class="node">
<title>Node10</title>
<g id="a_node2"><a xlink:href="boxing_8hpp.html" target="_top" xlink:title="boxing.hpp">
<polygon fill="#ffffff" stroke="#000000" points="187.5,-112.5 187.5,-131.5 251.5,-131.5 251.5,-112.5 187.5,-112.5"/>
<text text-anchor="middle" x="219.5" y="-119.5" font-family="Helvetica,sans-Serif" font-size="10.00" fill="#000000">boxing.hpp</text>
</a>
</g>
</g>
<!-- Node9&#45;&gt;Node10 -->
<g id="edge1" class="edge">
<title>Node9&#45;&gt;Node10</title>
<path fill="none" stroke="#191970" d="M213.0113,-158.1575C212.419,-149.155 212.8335,-138.9199 214.2549,-131.6427"/>
<polygon fill="#191970" stroke="#191970" points="209.5561,-158.739 214.2332,-168.2455 216.5053,-157.8972 209.5561,-158.739"/>
</g>
<!-- Node10&#45;&gt;Node9 -->
<g id="edge2" class="edge">
<title>Node10&#45;&gt;Node9</title>
<path fill="none" stroke="#191970" d="M225.9795,-141.7046C226.5821,-150.6944 226.1779,-160.9382 224.7668,-168.2455"/>
<polygon fill="#191970" stroke="#191970" points="229.4368,-141.1421 224.7451,-131.6427 222.4889,-141.9945 229.4368,-141.1421"/>
</g>
<!-- Node11 -->
<g id="node3" class="node">
<title>Node11</title>
<g id="a_node3"><a xlink:href="alib_8hpp.html" target="_top" xlink:title="alib.hpp">
<polygon fill="#ffffff" stroke="#000000" points="50.5,-56.5 50.5,-75.5 100.5,-75.5 100.5,-56.5 50.5,-56.5"/>
<text text-anchor="middle" x="75.5" y="-63.5" font-family="Helvetica,sans-Serif" font-size="10.00" fill="#000000">alib.hpp</text>
</a>
</g>
</g>
<!-- Node10&#45;&gt;Node11 -->
<g id="edge3" class="edge">
<title>Node10&#45;&gt;Node11</title>
<path fill="none" stroke="#191970" d="M185.1818,-108.6541C158.922,-98.4419 123.3508,-84.6086 99.9315,-75.5011"/>
<polygon fill="#191970" stroke="#191970" points="184.1569,-112.0108 194.7455,-112.3733 186.694,-105.4867 184.1569,-112.0108"/>
</g>
<!-- Node34 -->
<g id="node4" class="node">
<title>Node34</title>
<g id="a_node4"><a xlink:href="box_8hpp.html" target="_top" xlink:title="box.hpp">
<polygon fill="#ffffff" stroke="#000000" points="119,-56.5 119,-75.5 170,-75.5 170,-56.5 119,-56.5"/>
<text text-anchor="middle" x="144.5" y="-63.5" font-family="Helvetica,sans-Serif" font-size="10.00" fill="#000000">box.hpp</text>
</a>
</g>
</g>
<!-- Node10&#45;&gt;Node34 -->
<g id="edge4" class="edge">
<title>Node10&#45;&gt;Node34</title>
<path fill="none" stroke="#191970" d="M192.614,-106.49C178.3048,-96.6096 161.8663,-84.1194 152.1692,-75.6427"/>
<polygon fill="#191970" stroke="#191970" points="190.9183,-109.5676 201.1692,-112.2455 194.8257,-103.7596 190.9183,-109.5676"/>
</g>
<!-- Node35 -->
<g id="node5" class="node">
<title>Node35</title>
<g id="a_node5"><a xlink:href="boxes_8hpp.html" target="_top" xlink:title="boxes.hpp">
<polygon fill="#ffffff" stroke="#000000" points="188.5,-56.5 188.5,-75.5 250.5,-75.5 250.5,-56.5 188.5,-56.5"/>
<text text-anchor="middle" x="219.5" y="-63.5" font-family="Helvetica,sans-Serif" font-size="10.00" fill="#000000">boxes.hpp</text>
</a>
</g>
</g>
<!-- Node10&#45;&gt;Node35 -->
<g id="edge5" class="edge">
<title>Node10&#45;&gt;Node35</title>
<path fill="none" stroke="#191970" d="M213.0113,-102.1575C212.419,-93.155 212.8335,-82.9199 214.2549,-75.6427"/>
<polygon fill="#191970" stroke="#191970" points="209.5561,-102.739 214.2332,-112.2455 216.5053,-101.8972 209.5561,-102.739"/>
</g>
<!-- Node36 -->
<g id="node6" class="node">
<title>Node36</title>
<g id="a_node6"><a xlink:href="ftypes_8hpp.html" target="_top" xlink:title="ftypes.hpp">
<polygon fill="#ffffff" stroke="#000000" points="268.5,-56.5 268.5,-75.5 330.5,-75.5 330.5,-56.5 268.5,-56.5"/>
<text text-anchor="middle" x="299.5" y="-63.5" font-family="Helvetica,sans-Serif" font-size="10.00" fill="#000000">ftypes.hpp</text>
</a>
</g>
</g>
<!-- Node10&#45;&gt;Node36 -->
<g id="edge6" class="edge">
<title>Node10&#45;&gt;Node36</title>
<path fill="none" stroke="#191970" d="M236.2868,-105.928C249.2644,-96.1397 266.9741,-83.9595 280.4796,-75.6427"/>
<polygon fill="#191970" stroke="#191970" points="233.9108,-103.342 228.1681,-112.2455 238.2097,-108.8665 233.9108,-103.342"/>
</g>
<!-- Node12 -->
<g id="node7" class="node">
<title>Node12</title>
<g id="a_node7"><a xlink:href="ownable_8hpp.html" target="_top" xlink:title="ownable.hpp">
<polygon fill="#ffffff" stroke="#ff0000" points="0,-.5 0,-19.5 71,-19.5 71,-.5 0,-.5"/>
<text text-anchor="middle" x="35.5" y="-7.5" font-family="Helvetica,sans-Serif" font-size="10.00" fill="#000000">ownable.hpp</text>
</a>
</g>
</g>
<!-- Node11&#45;&gt;Node12 -->
<g id="edge7" class="edge">
<title>Node11&#45;&gt;Node12</title>
<path fill="none" stroke="#191970" d="M62.5864,-47.9209C55.8697,-38.5176 47.9283,-27.3997 42.3876,-19.6427"/>
<polygon fill="#191970" stroke="#191970" points="59.872,-50.1425 68.5325,-56.2455 65.5682,-46.0738 59.872,-50.1425"/>
</g>
<!-- Node16 -->
<g id="node8" class="node">
<title>Node16</title>
<g id="a_node8"><a xlink:href="alox_8hpp.html" target="_top" xlink:title="alox.hpp">
<polygon fill="#ffffff" stroke="#ff0000" points="89,-.5 89,-19.5 142,-19.5 142,-.5 89,-.5"/>
<text text-anchor="middle" x="115.5" y="-7.5" font-family="Helvetica,sans-Serif" font-size="10.00" fill="#000000">alox.hpp</text>
</a>
</g>
</g>
<!-- Node11&#45;&gt;Node16 -->
<g id="edge8" class="edge">
<title>Node11&#45;&gt;Node16</title>
<path fill="none" stroke="#191970" d="M88.4136,-47.9209C95.1303,-38.5176 103.0717,-27.3997 108.6124,-19.6427"/>
<polygon fill="#191970" stroke="#191970" points="85.4318,-46.0738 82.4675,-56.2455 91.128,-50.1425 85.4318,-46.0738"/>
</g>
<!-- Node34&#45;&gt;Node10 -->
<g id="edge9" class="edge">
<title>Node34&#45;&gt;Node10</title>
<path fill="none" stroke="#191970" d="M171.1978,-81.3801C185.4882,-91.2375 201.9467,-103.7337 211.7028,-112.2455"/>
<polygon fill="#191970" stroke="#191970" points="172.9117,-78.315 162.6594,-75.6427 169.0075,-84.1252 172.9117,-78.315"/>
</g>
<!-- Node35&#45;&gt;Node10 -->
<g id="edge10" class="edge">
<title>Node35&#45;&gt;Node10</title>
<path fill="none" stroke="#191970" d="M225.9795,-85.7046C226.5821,-94.6944 226.1779,-104.9382 224.7668,-112.2455"/>
<polygon fill="#191970" stroke="#191970" points="229.4368,-85.1421 224.7451,-75.6427 222.4889,-85.9945 229.4368,-85.1421"/>
</g>
<!-- Node36&#45;&gt;Node10 -->
<g id="edge11" class="edge">
<title>Node36&#45;&gt;Node10</title>
<path fill="none" stroke="#191970" d="M282.887,-81.9408C269.9519,-91.7076 252.2447,-103.8943 238.7018,-112.2455"/>
<polygon fill="#191970" stroke="#191970" points="285.233,-84.5499 290.9699,-75.6427 280.9305,-79.0282 285.233,-84.5499"/>
</g>
</g>
</svg>
