<?xml version="1.0" encoding="UTF-8" standalone="no"?>
<!DOCTYPE svg PUBLIC "-//W3C//DTD SVG 1.1//EN"
 "http://www.w3.org/Graphics/SVG/1.1/DTD/svg11.dtd">
<!-- Generated by graphviz version 2.40.1 (20161225.0304)
 -->
<!-- Title: boxing.hpp Pages: 1 -->
<svg width="874pt" height="140pt"
 viewBox="0.00 0.00 873.50 140.00" xmlns="http://www.w3.org/2000/svg" xmlns:xlink="http://www.w3.org/1999/xlink">
<g id="graph0" class="graph" transform="scale(1 1) rotate(0) translate(4 136)">
<title>boxing.hpp</title>
<polygon fill="#ffffff" stroke="transparent" points="-4,4 -4,-136 869.5,-136 869.5,4 -4,4"/>
<!-- Node0 -->
<g id="node1" class="node">
<title>Node0</title>
<polygon fill="#bfbfbf" stroke="#000000" points="352.5,-112.5 352.5,-131.5 416.5,-131.5 416.5,-112.5 352.5,-112.5"/>
<text text-anchor="middle" x="384.5" y="-119.5" font-family="Helvetica,sans-Serif" font-size="10.00" fill="#000000">boxing.hpp</text>
</g>
<!-- Node1 -->
<g id="node2" class="node">
<title>Node1</title>
<polygon fill="#ffffff" stroke="#bfbfbf" points="0,-56.5 0,-75.5 49,-75.5 49,-56.5 0,-56.5"/>
<text text-anchor="middle" x="24.5" y="-63.5" font-family="Helvetica,sans-Serif" font-size="10.00" fill="#000000">string.h</text>
</g>
<!-- Node0&#45;&gt;Node1 -->
<g id="edge1" class="edge">
<title>Node0&#45;&gt;Node1</title>
<path fill="none" stroke="#191970" d="M352.2974,-119.0298C295.1451,-113.4206 172.148,-99.829 59.1295,-75.8627"/>
<polygon fill="#191970" stroke="#191970" points="59.7875,-72.4242 49.2747,-73.7406 58.3139,-79.2674 59.7875,-72.4242"/>
</g>
<!-- Node2 -->
<g id="node3" class="node">
<title>Node2</title>
<g id="a_node3"><a xlink:href="interface_8hpp.html" target="_top" xlink:title="alib/boxing/interface.hpp">
<polygon fill="#ffffff" stroke="#000000" points="67.5,-56.5 67.5,-75.5 189.5,-75.5 189.5,-56.5 67.5,-56.5"/>
<text text-anchor="middle" x="128.5" y="-63.5" font-family="Helvetica,sans-Serif" font-size="10.00" fill="#000000">alib/boxing/interface.hpp</text>
</a>
</g>
</g>
<!-- Node0&#45;&gt;Node2 -->
<g id="edge2" class="edge">
<title>Node0&#45;&gt;Node2</title>
<path fill="none" stroke="#191970" d="M352.3366,-114.9643C309.6577,-105.6282 233.7179,-89.0164 182.2534,-77.7586"/>
<polygon fill="#191970" stroke="#191970" points="182.8209,-74.3 172.3039,-75.5821 181.325,-81.1383 182.8209,-74.3"/>
</g>
<!-- Node3 -->
<g id="node4" class="node">
<title>Node3</title>
<g id="a_node4"><a xlink:href="boxer_8hpp.html" target="_top" xlink:title="alib/boxing/boxer.hpp">
<polygon fill="#ffffff" stroke="#000000" points="207.5,-56.5 207.5,-75.5 315.5,-75.5 315.5,-56.5 207.5,-56.5"/>
<text text-anchor="middle" x="261.5" y="-63.5" font-family="Helvetica,sans-Serif" font-size="10.00" fill="#000000">alib/boxing/boxer.hpp</text>
</a>
</g>
</g>
<!-- Node0&#45;&gt;Node3 -->
<g id="edge3" class="edge">
<title>Node0&#45;&gt;Node3</title>
<path fill="none" stroke="#191970" d="M358.1135,-112.3733C336.8031,-103.4644 307.2448,-90.1127 286.3562,-80.0203"/>
<polygon fill="#191970" stroke="#191970" points="287.6703,-76.7664 277.1512,-75.5011 284.5853,-83.05 287.6703,-76.7664"/>
</g>
<!-- Node5 -->
<g id="node5" class="node">
<title>Node5</title>
<g id="a_node5"><a xlink:href="box_8hpp.html" target="_top" xlink:title="alib/boxing/box.hpp">
<polygon fill="#ffffff" stroke="#000000" points="334,-56.5 334,-75.5 435,-75.5 435,-56.5 334,-56.5"/>
<text text-anchor="middle" x="384.5" y="-63.5" font-family="Helvetica,sans-Serif" font-size="10.00" fill="#000000">alib/boxing/box.hpp</text>
</a>
</g>
</g>
<!-- Node0&#45;&gt;Node5 -->
<g id="edge4" class="edge">
<title>Node0&#45;&gt;Node5</title>
<path fill="none" stroke="#191970" d="M379.2332,-112.2455C377.8221,-104.9382 377.4179,-94.6944 378.0205,-85.7046"/>
<polygon fill="#191970" stroke="#191970" points="381.5111,-85.9945 379.2549,-75.6427 374.5632,-85.1421 381.5111,-85.9945"/>
</g>
<!-- Node6 -->
<g id="node6" class="node">
<title>Node6</title>
<g id="a_node6"><a xlink:href="boxes_8hpp.html" target="_top" xlink:title="alib/boxing/boxes.hpp">
<polygon fill="#ffffff" stroke="#000000" points="453,-56.5 453,-75.5 564,-75.5 564,-56.5 453,-56.5"/>
<text text-anchor="middle" x="508.5" y="-63.5" font-family="Helvetica,sans-Serif" font-size="10.00" fill="#000000">alib/boxing/boxes.hpp</text>
</a>
</g>
</g>
<!-- Node0&#45;&gt;Node6 -->
<g id="edge5" class="edge">
<title>Node0&#45;&gt;Node6</title>
<path fill="none" stroke="#191970" d="M400.5743,-112.3733C418.8837,-103.3032 448.9562,-89.6279 472.7938,-79.4755"/>
<polygon fill="#191970" stroke="#191970" points="474.3833,-82.6041 482.2445,-75.5011 471.6696,-76.1514 474.3833,-82.6041"/>
</g>
<!-- Node7 -->
<g id="node7" class="node">
<title>Node7</title>
<g id="a_node7"><a xlink:href="interface__builtin_8hpp.html" target="_top" xlink:title="alib/boxing/interface_builtin.hpp">
<polygon fill="#ffffff" stroke="#000000" points="582,-56.5 582,-75.5 735,-75.5 735,-56.5 582,-56.5"/>
<text text-anchor="middle" x="658.5" y="-63.5" font-family="Helvetica,sans-Serif" font-size="10.00" fill="#000000">alib/boxing/interface_builtin.hpp</text>
</a>
</g>
</g>
<!-- Node0&#45;&gt;Node7 -->
<g id="edge6" class="edge">
<title>Node0&#45;&gt;Node7</title>
<path fill="none" stroke="#191970" d="M416.737,-115.4114C462.1498,-106.13 545.6571,-89.0628 601.6365,-77.6217"/>
<polygon fill="#191970" stroke="#191970" points="602.6568,-80.9856 611.7534,-75.5541 601.255,-74.1274 602.6568,-80.9856"/>
</g>
<!-- Node8 -->
<g id="node8" class="node">
<title>Node8</title>
<g id="a_node8"><a xlink:href="ftypes_8hpp.html" target="_top" xlink:title="alib/boxing/ftypes.hpp">
<polygon fill="#ffffff" stroke="#000000" points="753.5,-56.5 753.5,-75.5 865.5,-75.5 865.5,-56.5 753.5,-56.5"/>
<text text-anchor="middle" x="809.5" y="-63.5" font-family="Helvetica,sans-Serif" font-size="10.00" fill="#000000">alib/boxing/ftypes.hpp</text>
</a>
</g>
</g>
<!-- Node0&#45;&gt;Node8 -->
<g id="edge7" class="edge">
<title>Node0&#45;&gt;Node8</title>
<path fill="none" stroke="#191970" d="M416.9431,-117.483C479.0348,-109.5813 618.2015,-92.5143 735.5,-76 738.0226,-75.6448 740.5993,-75.2756 743.2074,-74.8975"/>
<polygon fill="#191970" stroke="#191970" points="743.9889,-78.3204 753.3749,-73.4058 742.9728,-71.3945 743.9889,-78.3204"/>
</g>
<!-- Node3&#45;&gt;Node0 -->
<g id="edge8" class="edge">
<title>Node3&#45;&gt;Node0</title>
<path fill="none" stroke="#191970" d="M287.5858,-75.5011C308.8182,-84.3679 338.3781,-97.7139 359.348,-107.8368"/>
<polygon fill="#191970" stroke="#191970" points="358.078,-111.1122 368.5976,-112.3733 361.1605,-104.8274 358.078,-111.1122"/>
</g>
<!-- Node4 -->
<g id="node9" class="node">
<title>Node4</title>
<polygon fill="#ffffff" stroke="#bfbfbf" points="362.5,-.5 362.5,-19.5 406.5,-19.5 406.5,-.5 362.5,-.5"/>
<text text-anchor="middle" x="384.5" y="-7.5" font-family="Helvetica,sans-Serif" font-size="10.00" fill="#000000">vector</text>
</g>
<!-- Node3&#45;&gt;Node4 -->
<g id="edge9" class="edge">
<title>Node3&#45;&gt;Node4</title>
<path fill="none" stroke="#191970" d="M282.6445,-56.3733C302.3892,-47.3838 332.0698,-33.8706 354.3055,-23.7471"/>
<polygon fill="#191970" stroke="#191970" points="355.9806,-26.8302 363.6315,-19.5011 353.08,-20.4594 355.9806,-26.8302"/>
</g>
<!-- Node5&#45;&gt;Node0 -->
<g id="edge10" class="edge">
<title>Node5&#45;&gt;Node0</title>
<path fill="none" stroke="#191970" d="M389.7451,-75.6427C391.1665,-82.9199 391.581,-93.155 390.9887,-102.1575"/>
<polygon fill="#191970" stroke="#191970" points="387.4947,-101.8972 389.7668,-112.2455 394.4439,-102.739 387.4947,-101.8972"/>
</g>
<!-- Node6&#45;&gt;Node0 -->
<g id="edge11" class="edge">
<title>Node6&#45;&gt;Node0</title>
<path fill="none" stroke="#191970" d="M492.6791,-75.5011C474.479,-84.5284 444.4324,-98.1985 420.5375,-108.3833"/>
<polygon fill="#191970" stroke="#191970" points="418.9173,-105.2678 411.0584,-112.3733 421.633,-111.7195 418.9173,-105.2678"/>
</g>
<!-- Node6&#45;&gt;Node4 -->
<g id="edge12" class="edge">
<title>Node6&#45;&gt;Node4</title>
<path fill="none" stroke="#191970" d="M487.1836,-56.3733C467.2784,-47.3838 437.3564,-33.8706 414.94,-23.7471"/>
<polygon fill="#191970" stroke="#191970" points="416.0925,-20.4272 405.5382,-19.5011 413.2113,-26.8068 416.0925,-20.4272"/>
</g>
<!-- Node8&#45;&gt;Node0 -->
<g id="edge13" class="edge">
<title>Node8&#45;&gt;Node0</title>
<path fill="none" stroke="#191970" d="M756.9212,-75.5145C755.7721,-75.6788 754.6306,-75.8408 753.5,-76 635.6976,-92.5852 495.8387,-109.728 426.926,-117.5843"/>
<polygon fill="#191970" stroke="#191970" points="426.43,-114.118 416.8866,-118.7195 427.2165,-121.0737 426.43,-114.118"/>
</g>
</g>
</svg>
