<?xml version="1.0" encoding="UTF-8" standalone="no"?>
<!DOCTYPE svg PUBLIC "-//W3C//DTD SVG 1.1//EN"
 "http://www.w3.org/Graphics/SVG/1.1/DTD/svg11.dtd">
<!-- Generated by graphviz version 2.40.1 (20161225.0304)
 -->
<!-- Title: calendartime.hpp Pages: 1 -->
<svg width="240pt" height="252pt"
 viewBox="0.00 0.00 240.00 252.00" xmlns="http://www.w3.org/2000/svg" xmlns:xlink="http://www.w3.org/1999/xlink">
<g id="graph0" class="graph" transform="scale(1 1) rotate(0) translate(4 248)">
<title>calendartime.hpp</title>
<polygon fill="#ffffff" stroke="transparent" points="-4,4 -4,-248 236,-248 236,4 -4,4"/>
<!-- Node0 -->
<g id="node1" class="node">
<title>Node0</title>
<polygon fill="#bfbfbf" stroke="#000000" points="66,-224.5 66,-243.5 157,-243.5 157,-224.5 66,-224.5"/>
<text text-anchor="middle" x="111.5" y="-231.5" font-family="Helvetica,sans-Serif" font-size="10.00" fill="#000000">calendartime.hpp</text>
</g>
<!-- Node1 -->
<g id="node2" class="node">
<title>Node1</title>
<g id="a_node2"><a xlink:href="ticks_8hpp.html" target="_top" xlink:title="alib/time/ticks.hpp">
<polygon fill="#ffffff" stroke="#000000" points="2.5,-112.5 2.5,-131.5 98.5,-131.5 98.5,-112.5 2.5,-112.5"/>
<text text-anchor="middle" x="50.5" y="-119.5" font-family="Helvetica,sans-Serif" font-size="10.00" fill="#000000">alib/time/ticks.hpp</text>
</a>
</g>
</g>
<!-- Node0&#45;&gt;Node1 -->
<g id="edge1" class="edge">
<title>Node0&#45;&gt;Node1</title>
<path fill="none" stroke="#191970" d="M106.2992,-224.4509C96.1701,-205.8533 73.6429,-164.4919 60.5195,-140.3964"/>
<polygon fill="#191970" stroke="#191970" points="63.5444,-138.6328 55.6877,-131.5249 57.3971,-141.9809 63.5444,-138.6328"/>
</g>
<!-- Node7 -->
<g id="node3" class="node">
<title>Node7</title>
<g id="a_node3"><a xlink:href="timestamp_8hpp.html" target="_top" xlink:title="alib/time/timestamp.hpp">
<polygon fill="#ffffff" stroke="#000000" points="105,-168.5 105,-187.5 226,-187.5 226,-168.5 105,-168.5"/>
<text text-anchor="middle" x="165.5" y="-175.5" font-family="Helvetica,sans-Serif" font-size="10.00" fill="#000000">alib/time/timestamp.hpp</text>
</a>
</g>
</g>
<!-- Node0&#45;&gt;Node7 -->
<g id="edge2" class="edge">
<title>Node0&#45;&gt;Node7</title>
<path fill="none" stroke="#191970" d="M120.9061,-224.2455C128.6493,-216.2155 139.812,-204.6394 149.0318,-195.0781"/>
<polygon fill="#191970" stroke="#191970" points="151.7798,-197.2706 156.2017,-187.6427 146.7409,-192.4117 151.7798,-197.2706"/>
</g>
<!-- Node2 -->
<g id="node4" class="node">
<title>Node2</title>
<g id="a_node4"><a xlink:href="timelib_8hpp.html" target="_top" xlink:title="alib/time/timelib.hpp">
<polygon fill="#ffffff" stroke="#000000" points="60.5,-56.5 60.5,-75.5 164.5,-75.5 164.5,-56.5 60.5,-56.5"/>
<text text-anchor="middle" x="112.5" y="-63.5" font-family="Helvetica,sans-Serif" font-size="10.00" fill="#000000">alib/time/timelib.hpp</text>
</a>
</g>
</g>
<!-- Node1&#45;&gt;Node2 -->
<g id="edge3" class="edge">
<title>Node1&#45;&gt;Node2</title>
<path fill="none" stroke="#191970" d="M61.2996,-112.2455C70.3678,-104.0549 83.5206,-92.1749 94.2245,-82.5069"/>
<polygon fill="#191970" stroke="#191970" points="96.7491,-84.9429 101.8242,-75.6427 92.0571,-79.7482 96.7491,-84.9429"/>
</g>
<!-- Node8 -->
<g id="node7" class="node">
<title>Node8</title>
<g id="a_node7"><a xlink:href="timespan_8hpp.html" target="_top" xlink:title="alib/time/timespan.hpp">
<polygon fill="#ffffff" stroke="#000000" points="117,-112.5 117,-131.5 232,-131.5 232,-112.5 117,-112.5"/>
<text text-anchor="middle" x="174.5" y="-119.5" font-family="Helvetica,sans-Serif" font-size="10.00" fill="#000000">alib/time/timespan.hpp</text>
</a>
</g>
</g>
<!-- Node7&#45;&gt;Node8 -->
<g id="edge6" class="edge">
<title>Node7&#45;&gt;Node8</title>
<path fill="none" stroke="#191970" d="M167.0677,-168.2455C168.2421,-160.9382 169.8884,-150.6944 171.3332,-141.7046"/>
<polygon fill="#191970" stroke="#191970" points="174.8191,-142.0714 172.9503,-131.6427 167.9078,-140.9606 174.8191,-142.0714"/>
</g>
<!-- Node3 -->
<g id="node5" class="node">
<title>Node3</title>
<g id="a_node5"><a xlink:href="substring_8hpp.html" target="_top" xlink:title="alib/strings/substring.hpp">
<polygon fill="#ffffff" stroke="#ff0000" points="0,-.5 0,-19.5 125,-19.5 125,-.5 0,-.5"/>
<text text-anchor="middle" x="62.5" y="-7.5" font-family="Helvetica,sans-Serif" font-size="10.00" fill="#000000">alib/strings/substring.hpp</text>
</a>
</g>
</g>
<!-- Node2&#45;&gt;Node3 -->
<g id="edge4" class="edge">
<title>Node2&#45;&gt;Node3</title>
<path fill="none" stroke="#191970" d="M103.7907,-56.2455C96.6927,-48.2958 86.4916,-36.8706 78.005,-27.3656"/>
<polygon fill="#191970" stroke="#191970" points="80.3805,-24.771 71.1095,-19.6427 75.1589,-29.4331 80.3805,-24.771"/>
</g>
<!-- Node6 -->
<g id="node6" class="node">
<title>Node6</title>
<polygon fill="#ffffff" stroke="#bfbfbf" points="143,-.5 143,-19.5 184,-19.5 184,-.5 143,-.5"/>
<text text-anchor="middle" x="163.5" y="-7.5" font-family="Helvetica,sans-Serif" font-size="10.00" fill="#000000">ctime</text>
</g>
<!-- Node2&#45;&gt;Node6 -->
<g id="edge5" class="edge">
<title>Node2&#45;&gt;Node6</title>
<path fill="none" stroke="#191970" d="M121.3835,-56.2455C128.6966,-48.2155 139.2391,-36.6394 147.9467,-27.0781"/>
<polygon fill="#191970" stroke="#191970" points="150.5727,-29.3928 154.7183,-19.6427 145.3972,-24.6795 150.5727,-29.3928"/>
</g>
<!-- Node8&#45;&gt;Node2 -->
<g id="edge7" class="edge">
<title>Node8&#45;&gt;Node2</title>
<path fill="none" stroke="#191970" d="M163.7004,-112.2455C154.6322,-104.0549 141.4794,-92.1749 130.7755,-82.5069"/>
<polygon fill="#191970" stroke="#191970" points="132.9429,-79.7482 123.1758,-75.6427 128.2509,-84.9429 132.9429,-79.7482"/>
</g>
</g>
</svg>
