<?xml version="1.0" encoding="UTF-8" standalone="no"?>
<!DOCTYPE svg PUBLIC "-//W3C//DTD SVG 1.1//EN"
 "http://www.w3.org/Graphics/SVG/1.1/DTD/svg11.dtd">
<!-- Generated by graphviz version 2.38.0 (20140413.2041)
 -->
<!-- Title: callerinfo.hpp Pages: 1 -->
<svg width="1447pt" height="364pt"
 viewBox="0.00 0.00 1447.00 364.00" xmlns="http://www.w3.org/2000/svg" xmlns:xlink="http://www.w3.org/1999/xlink">
<g id="graph0" class="graph" transform="scale(1 1) rotate(0) translate(4 360)">
<title>callerinfo.hpp</title>
<polygon fill="white" stroke="none" points="-4,4 -4,-360 1443,-360 1443,4 -4,4"/>
<!-- Node1 -->
<g id="node1" class="node"><title>Node1</title>
<polygon fill="#bfbfbf" stroke="black" points="903,-336.5 903,-355.5 977,-355.5 977,-336.5 903,-336.5"/>
<text text-anchor="middle" x="940" y="-343.5" font-family="Helvetica,sans-Serif" font-size="10.00">callerinfo.hpp</text>
</g>
<!-- Node2 -->
<g id="node2" class="node"><title>Node2</title>
<g id="a_node2"><a xlink:href="alox_8hpp.html" target="_top" xlink:title="alox/alox.hpp">
<polygon fill="white" stroke="black" points="696,-280.5 696,-299.5 770,-299.5 770,-280.5 696,-280.5"/>
<text text-anchor="middle" x="733" y="-287.5" font-family="Helvetica,sans-Serif" font-size="10.00">alox/alox.hpp</text>
</a>
</g>
</g>
<!-- Node1&#45;&gt;Node2 -->
<g id="edge1" class="edge"><title>Node1&#45;&gt;Node2</title>
<path fill="none" stroke="midnightblue" d="M907.2,-336.444C871.62,-327.162 814.686,-312.309 775.653,-302.127"/>
<polygon fill="midnightblue" stroke="midnightblue" points="776.206,-298.654 765.646,-299.516 774.439,-305.427 776.206,-298.654"/>
</g>
<!-- Node23 -->
<g id="node23" class="node"><title>Node23</title>
<g id="a_node23"><a xlink:href="thread_8hpp.html" target="_top" xlink:title="thread.hpp">
<polygon fill="white" stroke="red" points="867,-112.5 867,-131.5 929,-131.5 929,-112.5 867,-112.5"/>
<text text-anchor="middle" x="898" y="-119.5" font-family="Helvetica,sans-Serif" font-size="10.00">thread.hpp</text>
</a>
</g>
</g>
<!-- Node1&#45;&gt;Node23 -->
<g id="edge42" class="edge"><title>Node1&#45;&gt;Node23</title>
<path fill="none" stroke="midnightblue" d="M958.082,-336.39C971.562,-328.872 988.972,-316.565 997,-300 1012.19,-268.646 1051.3,-265.923 984,-168 973.309,-152.444 955.508,-141.886 938.867,-134.93"/>
<polygon fill="midnightblue" stroke="midnightblue" points="939.855,-131.56 929.265,-131.24 937.344,-138.094 939.855,-131.56"/>
</g>
<!-- Node24 -->
<g id="node24" class="node"><title>Node24</title>
<polygon fill="white" stroke="#bfbfbf" points="985.5,-56.5 985.5,-75.5 1020.5,-75.5 1020.5,-56.5 985.5,-56.5"/>
<text text-anchor="middle" x="1003" y="-63.5" font-family="Helvetica,sans-Serif" font-size="10.00">map</text>
</g>
<!-- Node1&#45;&gt;Node24 -->
<g id="edge43" class="edge"><title>Node1&#45;&gt;Node24</title>
<path fill="none" stroke="midnightblue" d="M969.139,-336.435C1009.9,-322.449 1079,-290.548 1079,-235 1079,-235 1079,-235 1079,-177 1079,-137.276 1045.04,-101.504 1022.52,-82.1536"/>
<polygon fill="midnightblue" stroke="midnightblue" points="1024.48,-79.2364 1014.54,-75.5672 1020.02,-84.6337 1024.48,-79.2364"/>
</g>
<!-- Node27 -->
<g id="node27" class="node"><title>Node27</title>
<g id="a_node27"><a xlink:href="ticks_8hpp.html" target="_top" xlink:title="alib/time/ticks.hpp">
<polygon fill="white" stroke="black" points="892,-280.5 892,-299.5 988,-299.5 988,-280.5 892,-280.5"/>
<text text-anchor="middle" x="940" y="-287.5" font-family="Helvetica,sans-Serif" font-size="10.00">alib/time/ticks.hpp</text>
</a>
</g>
</g>
<!-- Node1&#45;&gt;Node27 -->
<g id="edge38" class="edge"><title>Node1&#45;&gt;Node27</title>
<path fill="none" stroke="midnightblue" d="M940,-336.083C940,-329.006 940,-318.861 940,-309.986"/>
<polygon fill="midnightblue" stroke="midnightblue" points="943.5,-309.751 940,-299.751 936.5,-309.751 943.5,-309.751"/>
</g>
<!-- Node3 -->
<g id="node3" class="node"><title>Node3</title>
<g id="a_node3"><a xlink:href="alib_8hpp.html" target="_top" xlink:title="alib/alib.hpp">
<polygon fill="white" stroke="black" points="757,-56.5 757,-75.5 825,-75.5 825,-56.5 757,-56.5"/>
<text text-anchor="middle" x="791" y="-63.5" font-family="Helvetica,sans-Serif" font-size="10.00">alib/alib.hpp</text>
</a>
</g>
</g>
<!-- Node2&#45;&gt;Node3 -->
<g id="edge2" class="edge"><title>Node2&#45;&gt;Node3</title>
<path fill="none" stroke="midnightblue" d="M695.882,-289.859C616.748,-290.81 435.514,-288.015 397,-244 391.147,-237.31 392.59,-231.718 397,-224 468.255,-99.2832 659.688,-73.4736 746.776,-68.2528"/>
<polygon fill="midnightblue" stroke="midnightblue" points="747.066,-71.7424 756.865,-67.7129 746.692,-64.7524 747.066,-71.7424"/>
</g>
<!-- Node18 -->
<g id="node18" class="node"><title>Node18</title>
<g id="a_node18"><a xlink:href="alox__symbols_8hpp.html" target="_top" xlink:title="internals/alox_symbols.hpp">
<polygon fill="white" stroke="black" points="406.5,-224.5 406.5,-243.5 541.5,-243.5 541.5,-224.5 406.5,-224.5"/>
<text text-anchor="middle" x="474" y="-231.5" font-family="Helvetica,sans-Serif" font-size="10.00">internals/alox_symbols.hpp</text>
</a>
</g>
</g>
<!-- Node2&#45;&gt;Node18 -->
<g id="edge23" class="edge"><title>Node2&#45;&gt;Node18</title>
<path fill="none" stroke="midnightblue" d="M695.892,-281.263C651.007,-271.905 575.224,-256.105 524.904,-245.613"/>
<polygon fill="midnightblue" stroke="midnightblue" points="525.389,-242.139 514.885,-243.524 523.96,-248.992 525.389,-242.139"/>
</g>
<!-- Node19 -->
<g id="node19" class="node"><title>Node19</title>
<g id="a_node19"><a xlink:href="alox__macros_8hpp.html" target="_top" xlink:title="internals/alox_macros.hpp">
<polygon fill="white" stroke="black" points="559.5,-224.5 559.5,-243.5 690.5,-243.5 690.5,-224.5 559.5,-224.5"/>
<text text-anchor="middle" x="625" y="-231.5" font-family="Helvetica,sans-Serif" font-size="10.00">internals/alox_macros.hpp</text>
</a>
</g>
</g>
<!-- Node2&#45;&gt;Node19 -->
<g id="edge24" class="edge"><title>Node2&#45;&gt;Node19</title>
<path fill="none" stroke="midnightblue" d="M715.648,-280.324C698.328,-271.664 671.485,-258.242 651.498,-248.249"/>
<polygon fill="midnightblue" stroke="midnightblue" points="652.819,-244.996 642.309,-243.655 649.688,-251.257 652.819,-244.996"/>
</g>
<!-- Node20 -->
<g id="node20" class="node"><title>Node20</title>
<g id="a_node20"><a xlink:href="log_8hpp.html" target="_top" xlink:title="log.hpp">
<polygon fill="white" stroke="black" points="709,-224.5 709,-243.5 757,-243.5 757,-224.5 709,-224.5"/>
<text text-anchor="middle" x="733" y="-231.5" font-family="Helvetica,sans-Serif" font-size="10.00">log.hpp</text>
</a>
</g>
</g>
<!-- Node2&#45;&gt;Node20 -->
<g id="edge25" class="edge"><title>Node2&#45;&gt;Node20</title>
<path fill="none" stroke="midnightblue" d="M733,-280.083C733,-273.006 733,-262.861 733,-253.986"/>
<polygon fill="midnightblue" stroke="midnightblue" points="736.5,-253.751 733,-243.751 729.5,-253.751 736.5,-253.751"/>
</g>
<!-- Node21 -->
<g id="node21" class="node"><title>Node21</title>
<g id="a_node21"><a xlink:href="lox_8hpp.html" target="_top" xlink:title="lox.hpp">
<polygon fill="white" stroke="black" points="813,-224.5 813,-243.5 861,-243.5 861,-224.5 813,-224.5"/>
<text text-anchor="middle" x="837" y="-231.5" font-family="Helvetica,sans-Serif" font-size="10.00">lox.hpp</text>
</a>
</g>
</g>
<!-- Node2&#45;&gt;Node21 -->
<g id="edge26" class="edge"><title>Node2&#45;&gt;Node21</title>
<path fill="none" stroke="midnightblue" d="M749.709,-280.324C766.312,-271.703 792.002,-258.364 811.22,-248.386"/>
<polygon fill="midnightblue" stroke="midnightblue" points="813.07,-251.369 820.332,-243.655 809.844,-245.156 813.07,-251.369"/>
</g>
<!-- Node4 -->
<g id="node4" class="node"><title>Node4</title>
<g id="a_node4"><a xlink:href="symbols_8hpp.html" target="_top" xlink:title="alib/core/symbols.hpp">
<polygon fill="white" stroke="black" points="0,-0.5 0,-19.5 112,-19.5 112,-0.5 0,-0.5"/>
<text text-anchor="middle" x="56" y="-7.5" font-family="Helvetica,sans-Serif" font-size="10.00">alib/core/symbols.hpp</text>
</a>
</g>
</g>
<!-- Node3&#45;&gt;Node4 -->
<g id="edge3" class="edge"><title>Node3&#45;&gt;Node4</title>
<path fill="none" stroke="midnightblue" d="M756.708,-63.5827C659.066,-59.3595 371.027,-45.6006 122.118,-20.1595"/>
<polygon fill="midnightblue" stroke="midnightblue" points="122.47,-16.6773 112.164,-19.1336 121.752,-23.6404 122.47,-16.6773"/>
</g>
<!-- Node5 -->
<g id="node5" class="node"><title>Node5</title>
<g id="a_node5"><a xlink:href="macros_8hpp.html" target="_top" xlink:title="alib/core/macros.hpp">
<polygon fill="white" stroke="black" points="129.5,-0.5 129.5,-19.5 236.5,-19.5 236.5,-0.5 129.5,-0.5"/>
<text text-anchor="middle" x="183" y="-7.5" font-family="Helvetica,sans-Serif" font-size="10.00">alib/core/macros.hpp</text>
</a>
</g>
</g>
<!-- Node3&#45;&gt;Node5 -->
<g id="edge4" class="edge"><title>Node3&#45;&gt;Node5</title>
<path fill="none" stroke="midnightblue" d="M756.815,-62.8871C672.263,-57.5095 446.364,-42.2191 246.678,-20.0076"/>
<polygon fill="midnightblue" stroke="midnightblue" points="246.916,-16.5124 236.588,-18.8768 246.136,-23.4688 246.916,-16.5124"/>
</g>
<!-- Node6 -->
<g id="node6" class="node"><title>Node6</title>
<polygon fill="white" stroke="#bfbfbf" points="255,-0.5 255,-19.5 307,-19.5 307,-0.5 255,-0.5"/>
<text text-anchor="middle" x="281" y="-7.5" font-family="Helvetica,sans-Serif" font-size="10.00">assert.h</text>
</g>
<!-- Node3&#45;&gt;Node6 -->
<g id="edge5" class="edge"><title>Node3&#45;&gt;Node6</title>
<path fill="none" stroke="midnightblue" d="M756.772,-63.6048C679.799,-60.0732 487.126,-49.0326 317.149,-19.9439"/>
<polygon fill="midnightblue" stroke="midnightblue" points="317.728,-16.4921 307.277,-18.2293 316.53,-23.3889 317.728,-16.4921"/>
</g>
<!-- Node7 -->
<g id="node7" class="node"><title>Node7</title>
<polygon fill="white" stroke="#bfbfbf" points="325.5,-0.5 325.5,-19.5 374.5,-19.5 374.5,-0.5 325.5,-0.5"/>
<text text-anchor="middle" x="350" y="-7.5" font-family="Helvetica,sans-Serif" font-size="10.00">cstddef</text>
</g>
<!-- Node3&#45;&gt;Node7 -->
<g id="edge6" class="edge"><title>Node3&#45;&gt;Node7</title>
<path fill="none" stroke="midnightblue" d="M756.881,-63.046C688.062,-58.7174 527.634,-46.6693 384.6,-20.0592"/>
<polygon fill="midnightblue" stroke="midnightblue" points="385.245,-16.6193 374.769,-18.2018 383.945,-23.4976 385.245,-16.6193"/>
</g>
<!-- Node8 -->
<g id="node8" class="node"><title>Node8</title>
<polygon fill="white" stroke="#bfbfbf" points="392.5,-0.5 392.5,-19.5 455.5,-19.5 455.5,-0.5 392.5,-0.5"/>
<text text-anchor="middle" x="424" y="-7.5" font-family="Helvetica,sans-Serif" font-size="10.00">windows.h</text>
</g>
<!-- Node3&#45;&gt;Node8 -->
<g id="edge7" class="edge"><title>Node3&#45;&gt;Node8</title>
<path fill="none" stroke="midnightblue" d="M756.956,-61.2764C699.093,-54.7396 577.681,-40.126 465.918,-20.2317"/>
<polygon fill="midnightblue" stroke="midnightblue" points="466.289,-16.7423 455.827,-18.4161 465.049,-23.6317 466.289,-16.7423"/>
</g>
<!-- Node9 -->
<g id="node9" class="node"><title>Node9</title>
<polygon fill="white" stroke="#bfbfbf" points="473.5,-0.5 473.5,-19.5 522.5,-19.5 522.5,-0.5 473.5,-0.5"/>
<text text-anchor="middle" x="498" y="-7.5" font-family="Helvetica,sans-Serif" font-size="10.00">stdint.h</text>
</g>
<!-- Node3&#45;&gt;Node9 -->
<g id="edge8" class="edge"><title>Node3&#45;&gt;Node9</title>
<path fill="none" stroke="midnightblue" d="M756.877,-60.0371C709.01,-52.8651 619.027,-38.6184 532.775,-20.0076"/>
<polygon fill="midnightblue" stroke="midnightblue" points="533.338,-16.5482 522.822,-17.8365 531.846,-23.3874 533.338,-16.5482"/>
</g>
<!-- Node10 -->
<g id="node10" class="node"><title>Node10</title>
<polygon fill="white" stroke="#bfbfbf" points="541,-0.5 541,-19.5 603,-19.5 603,-0.5 541,-0.5"/>
<text text-anchor="middle" x="572" y="-7.5" font-family="Helvetica,sans-Serif" font-size="10.00">type_traits</text>
</g>
<!-- Node3&#45;&gt;Node10 -->
<g id="edge9" class="edge"><title>Node3&#45;&gt;Node10</title>
<path fill="none" stroke="midnightblue" d="M756.781,-56.5625C717.883,-46.9712 654.421,-31.3229 612.933,-21.093"/>
<polygon fill="midnightblue" stroke="midnightblue" points="613.692,-17.6754 603.145,-18.6795 612.016,-24.4719 613.692,-17.6754"/>
</g>
<!-- Node11 -->
<g id="node11" class="node"><title>Node11</title>
<polygon fill="white" stroke="#bfbfbf" points="621,-0.5 621,-19.5 661,-19.5 661,-0.5 621,-0.5"/>
<text text-anchor="middle" x="641" y="-7.5" font-family="Helvetica,sans-Serif" font-size="10.00">utility</text>
</g>
<!-- Node3&#45;&gt;Node11 -->
<g id="edge10" class="edge"><title>Node3&#45;&gt;Node11</title>
<path fill="none" stroke="midnightblue" d="M767.232,-56.4435C741.187,-47.0673 699.352,-32.0068 671.05,-21.818"/>
<polygon fill="midnightblue" stroke="midnightblue" points="671.884,-18.3983 661.289,-18.3042 669.513,-24.9845 671.884,-18.3983"/>
</g>
<!-- Node12 -->
<g id="node12" class="node"><title>Node12</title>
<g id="a_node12"><a xlink:href="enums_8hpp.html" target="_top" xlink:title="alib/core/enums.hpp">
<polygon fill="white" stroke="black" points="679,-0.5 679,-19.5 783,-19.5 783,-0.5 679,-0.5"/>
<text text-anchor="middle" x="731" y="-7.5" font-family="Helvetica,sans-Serif" font-size="10.00">alib/core/enums.hpp</text>
</a>
</g>
</g>
<!-- Node3&#45;&gt;Node12 -->
<g id="edge11" class="edge"><title>Node3&#45;&gt;Node12</title>
<path fill="none" stroke="midnightblue" d="M776.245,-56.324C765.855,-48.4979 752.461,-36.7829 742.779,-27.2238"/>
<polygon fill="midnightblue" stroke="midnightblue" points="745.123,-24.612 735.667,-19.8339 740.079,-29.4661 745.123,-24.612"/>
</g>
<!-- Node13 -->
<g id="node13" class="node"><title>Node13</title>
<g id="a_node13"><a xlink:href="report_8hpp.html" target="_top" xlink:title="alib/core/report.hpp">
<polygon fill="white" stroke="black" points="801,-0.5 801,-19.5 901,-19.5 901,-0.5 801,-0.5"/>
<text text-anchor="middle" x="851" y="-7.5" font-family="Helvetica,sans-Serif" font-size="10.00">alib/core/report.hpp</text>
</a>
</g>
</g>
<!-- Node3&#45;&gt;Node13 -->
<g id="edge13" class="edge"><title>Node3&#45;&gt;Node13</title>
<path fill="none" stroke="midnightblue" d="M795.741,-56.083C803.103,-47.905 816.425,-35.6307 828.272,-25.9535"/>
<polygon fill="midnightblue" stroke="midnightblue" points="830.456,-28.6885 836.146,-19.7511 826.124,-23.1896 830.456,-28.6885"/>
</g>
<!-- Node14 -->
<g id="node14" class="node"><title>Node14</title>
<g id="a_node14"><a xlink:href="cstring_8hpp.html" target="_top" xlink:title="alib/strings/cstring.hpp">
<polygon fill="white" stroke="red" points="919.5,-0.5 919.5,-19.5 1034.5,-19.5 1034.5,-0.5 919.5,-0.5"/>
<text text-anchor="middle" x="977" y="-7.5" font-family="Helvetica,sans-Serif" font-size="10.00">alib/strings/cstring.hpp</text>
</a>
</g>
</g>
<!-- Node3&#45;&gt;Node14 -->
<g id="edge15" class="edge"><title>Node3&#45;&gt;Node14</title>
<path fill="none" stroke="midnightblue" d="M815.383,-56.4435C845.191,-47.2011 895.879,-32.4356 932.621,-22.2572"/>
<polygon fill="midnightblue" stroke="midnightblue" points="933.872,-25.5432 942.586,-19.5164 932.016,-18.7939 933.872,-25.5432"/>
</g>
<!-- Node15 -->
<g id="node15" class="node"><title>Node15</title>
<g id="a_node15"><a xlink:href="as_8hpp.html" target="_top" xlink:title="alib/strings/as.hpp">
<polygon fill="white" stroke="red" points="1053,-0.5 1053,-19.5 1149,-19.5 1149,-0.5 1053,-0.5"/>
<text text-anchor="middle" x="1101" y="-7.5" font-family="Helvetica,sans-Serif" font-size="10.00">alib/strings/as.hpp</text>
</a>
</g>
</g>
<!-- Node3&#45;&gt;Node15 -->
<g id="edge17" class="edge"><title>Node3&#45;&gt;Node15</title>
<path fill="none" stroke="midnightblue" d="M825.289,-58.2155C877.888,-48.603 978.802,-30.9915 1042.92,-20.2069"/>
<polygon fill="midnightblue" stroke="midnightblue" points="1043.6,-23.6422 1052.88,-18.5369 1042.44,-16.7386 1043.6,-23.6422"/>
</g>
<!-- Node16 -->
<g id="node16" class="node"><title>Node16</title>
<g id="a_node16"><a xlink:href="ns__aworx_8hpp.html" target="_top" xlink:title="alib/core/ns_aworx.hpp">
<polygon fill="white" stroke="black" points="1167.5,-0.5 1167.5,-19.5 1284.5,-19.5 1284.5,-0.5 1167.5,-0.5"/>
<text text-anchor="middle" x="1226" y="-7.5" font-family="Helvetica,sans-Serif" font-size="10.00">alib/core/ns_aworx.hpp</text>
</a>
</g>
</g>
<!-- Node3&#45;&gt;Node16 -->
<g id="edge19" class="edge"><title>Node3&#45;&gt;Node16</title>
<path fill="none" stroke="midnightblue" d="M825.169,-60.2633C888.985,-52.1943 1029.92,-35.18 1149,-20 1151.68,-19.6588 1154.41,-19.3075 1157.18,-18.9506"/>
<polygon fill="midnightblue" stroke="midnightblue" points="1157.84,-22.3945 1167.31,-17.6415 1156.94,-15.4522 1157.84,-22.3945"/>
</g>
<!-- Node17 -->
<g id="node17" class="node"><title>Node17</title>
<g id="a_node17"><a xlink:href="namespace_8hpp.html" target="_top" xlink:title="alib/strings/namespace.hpp">
<polygon fill="white" stroke="red" points="1303,-0.5 1303,-19.5 1439,-19.5 1439,-0.5 1303,-0.5"/>
<text text-anchor="middle" x="1371" y="-7.5" font-family="Helvetica,sans-Serif" font-size="10.00">alib/strings/namespace.hpp</text>
</a>
</g>
</g>
<!-- Node3&#45;&gt;Node17 -->
<g id="edge21" class="edge"><title>Node3&#45;&gt;Node17</title>
<path fill="none" stroke="midnightblue" d="M825.251,-61.8374C905.604,-54.9239 1111.65,-37.6654 1284,-20 1286.86,-19.7068 1289.78,-19.4008 1292.73,-19.0862"/>
<polygon fill="midnightblue" stroke="midnightblue" points="1293.3,-22.5449 1302.87,-17.9888 1292.55,-15.5855 1293.3,-22.5449"/>
</g>
<!-- Node12&#45;&gt;Node3 -->
<g id="edge12" class="edge"><title>Node12&#45;&gt;Node3</title>
<path fill="none" stroke="midnightblue" d="M745.854,-19.7511C756.209,-27.5608 769.515,-39.1997 779.162,-48.7175"/>
<polygon fill="midnightblue" stroke="midnightblue" points="776.8,-51.3104 786.259,-56.083 781.84,-46.4533 776.8,-51.3104"/>
</g>
<!-- Node13&#45;&gt;Node3 -->
<g id="edge14" class="edge"><title>Node13&#45;&gt;Node3</title>
<path fill="none" stroke="midnightblue" d="M846.333,-19.8339C838.974,-28.0269 825.565,-40.3824 813.662,-50.1008"/>
<polygon fill="midnightblue" stroke="midnightblue" points="811.448,-47.3889 805.755,-56.324 815.778,-52.8896 811.448,-47.3889"/>
</g>
<!-- Node14&#45;&gt;Node3 -->
<g id="edge16" class="edge"><title>Node14&#45;&gt;Node3</title>
<path fill="none" stroke="midnightblue" d="M952.617,-19.5565C922.731,-28.823 871.857,-43.6416 835.091,-53.8224"/>
<polygon fill="midnightblue" stroke="midnightblue" points="833.839,-50.5367 825.125,-56.5625 835.695,-57.2863 833.839,-50.5367"/>
</g>
<!-- Node15&#45;&gt;Node3 -->
<g id="edge18" class="edge"><title>Node15&#45;&gt;Node3</title>
<path fill="none" stroke="midnightblue" d="M1057.09,-19.5344C998.201,-30.2011 894.461,-48.2491 835.347,-58.0923"/>
<polygon fill="midnightblue" stroke="midnightblue" points="834.494,-54.6857 825.201,-59.7732 835.638,-61.5916 834.494,-54.6857"/>
</g>
<!-- Node16&#45;&gt;Node3 -->
<g id="edge20" class="edge"><title>Node16&#45;&gt;Node3</title>
<path fill="none" stroke="midnightblue" d="M1170.58,-19.5427C1169.37,-19.6968 1168.18,-19.8494 1167,-20 1047.53,-35.2302 906.052,-52.3069 835.452,-60.343"/>
<polygon fill="midnightblue" stroke="midnightblue" points="834.696,-56.9062 825.152,-61.5077 835.482,-63.8619 834.696,-56.9062"/>
</g>
<!-- Node17&#45;&gt;Node3 -->
<g id="edge22" class="edge"><title>Node17&#45;&gt;Node3</title>
<path fill="none" stroke="midnightblue" d="M1306.52,-19.5315C1305,-19.6907 1303.49,-19.8471 1302,-20 1129.72,-37.6577 923.783,-54.9088 835.039,-61.8283"/>
<polygon fill="midnightblue" stroke="midnightblue" points="834.758,-58.3395 825.058,-62.601 835.298,-65.3186 834.758,-58.3395"/>
</g>
<!-- Node21&#45;&gt;Node1 -->
<g id="edge32" class="edge"><title>Node21&#45;&gt;Node1</title>
<path fill="none" stroke="midnightblue" d="M841.967,-243.579C849.737,-256.595 865.681,-281.748 883,-300 893.683,-311.258 907.271,-322.094 918.5,-330.31"/>
<polygon fill="midnightblue" stroke="midnightblue" points="916.725,-333.343 926.9,-336.296 920.787,-327.642 916.725,-333.343"/>
</g>
<!-- Node22 -->
<g id="node22" class="node"><title>Node22</title>
<g id="a_node22"><a xlink:href="threadlock_8hpp.html" target="_top" xlink:title="alib/threads/threadlock.hpp">
<polygon fill="white" stroke="red" points="687,-168.5 687,-187.5 821,-187.5 821,-168.5 687,-168.5"/>
<text text-anchor="middle" x="754" y="-175.5" font-family="Helvetica,sans-Serif" font-size="10.00">alib/threads/threadlock.hpp</text>
</a>
</g>
</g>
<!-- Node21&#45;&gt;Node22 -->
<g id="edge27" class="edge"><title>Node21&#45;&gt;Node22</title>
<path fill="none" stroke="midnightblue" d="M823.665,-224.324C810.838,-215.979 791.215,-203.212 776.06,-193.352"/>
<polygon fill="midnightblue" stroke="midnightblue" points="777.593,-190.174 767.302,-187.655 773.776,-196.042 777.593,-190.174"/>
</g>
<!-- Node21&#45;&gt;Node24 -->
<g id="edge37" class="edge"><title>Node21&#45;&gt;Node24</title>
<path fill="none" stroke="midnightblue" d="M861.231,-232.994C894.288,-231.577 952.95,-223.78 984,-188 1008.89,-159.321 1008.3,-111.776 1005.67,-85.6394"/>
<polygon fill="midnightblue" stroke="midnightblue" points="1009.12,-85.0764 1004.44,-75.5734 1002.18,-85.9235 1009.12,-85.0764"/>
</g>
<!-- Node25 -->
<g id="node25" class="node"><title>Node25</title>
<g id="a_node25"><a xlink:href="domain_8hpp.html" target="_top" xlink:title="alox/core/domain.hpp">
<polygon fill="white" stroke="black" points="521,-168.5 521,-187.5 631,-187.5 631,-168.5 521,-168.5"/>
<text text-anchor="middle" x="576" y="-175.5" font-family="Helvetica,sans-Serif" font-size="10.00">alox/core/domain.hpp</text>
</a>
</g>
</g>
<!-- Node21&#45;&gt;Node25 -->
<g id="edge33" class="edge"><title>Node21&#45;&gt;Node25</title>
<path fill="none" stroke="midnightblue" d="M812.905,-227.165C808.295,-226.085 803.503,-224.987 799,-224 741.613,-211.418 675.626,-198.264 630.408,-189.452"/>
<polygon fill="midnightblue" stroke="midnightblue" points="631.002,-186.002 620.518,-187.529 629.666,-192.873 631.002,-186.002"/>
</g>
<!-- Node26 -->
<g id="node26" class="node"><title>Node26</title>
<polygon fill="white" stroke="#bfbfbf" points="596,-112.5 596,-131.5 640,-131.5 640,-112.5 596,-112.5"/>
<text text-anchor="middle" x="618" y="-119.5" font-family="Helvetica,sans-Serif" font-size="10.00">vector</text>
</g>
<!-- Node21&#45;&gt;Node26 -->
<g id="edge36" class="edge"><title>Node21&#45;&gt;Node26</title>
<path fill="none" stroke="midnightblue" d="M812.937,-227.877C774.369,-219.389 700.737,-201.959 678,-188 657.841,-175.624 640.219,-154.609 629.379,-139.832"/>
<polygon fill="midnightblue" stroke="midnightblue" points="632.172,-137.719 623.545,-131.57 626.454,-141.757 632.172,-137.719"/>
</g>
<!-- Node22&#45;&gt;Node3 -->
<g id="edge28" class="edge"><title>Node22&#45;&gt;Node3</title>
<path fill="none" stroke="midnightblue" d="M756.903,-168.368C762.901,-150.537 776.773,-109.295 784.854,-85.2717"/>
<polygon fill="midnightblue" stroke="midnightblue" points="788.239,-86.1855 788.11,-75.5914 781.605,-83.9537 788.239,-86.1855"/>
</g>
<!-- Node22&#45;&gt;Node23 -->
<g id="edge29" class="edge"><title>Node22&#45;&gt;Node23</title>
<path fill="none" stroke="midnightblue" d="M776.817,-168.444C800.832,-159.438 838.829,-145.189 865.869,-135.049"/>
<polygon fill="midnightblue" stroke="midnightblue" points="867.155,-138.305 875.29,-131.516 864.697,-131.751 867.155,-138.305"/>
</g>
<!-- Node23&#45;&gt;Node3 -->
<g id="edge30" class="edge"><title>Node23&#45;&gt;Node3</title>
<path fill="none" stroke="midnightblue" d="M880.809,-112.324C863.649,-103.664 837.054,-90.2424 817.253,-80.249"/>
<polygon fill="midnightblue" stroke="midnightblue" points="818.653,-77.0354 808.149,-75.6545 815.499,-83.2847 818.653,-77.0354"/>
</g>
<!-- Node23&#45;&gt;Node24 -->
<g id="edge31" class="edge"><title>Node23&#45;&gt;Node24</title>
<path fill="none" stroke="midnightblue" d="M914.87,-112.324C931.709,-103.664 957.807,-90.2424 977.238,-80.249"/>
<polygon fill="midnightblue" stroke="midnightblue" points="978.88,-83.3405 986.172,-75.6545 975.678,-77.1155 978.88,-83.3405"/>
</g>
<!-- Node25&#45;&gt;Node2 -->
<g id="edge34" class="edge"><title>Node25&#45;&gt;Node2</title>
<path fill="none" stroke="midnightblue" d="M625.742,-187.51C679.041,-197.132 757.221,-212.899 766,-224 777.944,-239.103 764.036,-259.212 750.785,-273.043"/>
<polygon fill="midnightblue" stroke="midnightblue" points="747.979,-270.89 743.26,-280.375 752.864,-275.903 747.979,-270.89"/>
</g>
<!-- Node25&#45;&gt;Node26 -->
<g id="edge35" class="edge"><title>Node25&#45;&gt;Node26</title>
<path fill="none" stroke="midnightblue" d="M582.935,-168.083C588.929,-160.377 597.752,-149.033 605.048,-139.653"/>
<polygon fill="midnightblue" stroke="midnightblue" points="607.817,-141.793 611.194,-131.751 602.291,-137.496 607.817,-141.793"/>
</g>
<!-- Node28 -->
<g id="node28" class="node"><title>Node28</title>
<g id="a_node28"><a xlink:href="assubstring_8hpp.html" target="_top" xlink:title="alib/strings/assubstring.hpp">
<polygon fill="white" stroke="black" points="839,-168.5 839,-187.5 975,-187.5 975,-168.5 839,-168.5"/>
<text text-anchor="middle" x="907" y="-175.5" font-family="Helvetica,sans-Serif" font-size="10.00">alib/strings/assubstring.hpp</text>
</a>
</g>
</g>
<!-- Node27&#45;&gt;Node28 -->
<g id="edge39" class="edge"><title>Node27&#45;&gt;Node28</title>
<path fill="none" stroke="midnightblue" d="M937.272,-280.387C934.418,-271.339 929.828,-256.69 926,-244 921.278,-228.347 916.079,-210.52 912.316,-197.499"/>
<polygon fill="midnightblue" stroke="midnightblue" points="915.666,-196.485 909.533,-187.846 908.94,-198.424 915.666,-196.485"/>
</g>
<!-- Node29 -->
<g id="node29" class="node"><title>Node29</title>
<polygon fill="white" stroke="#bfbfbf" points="935.5,-224.5 935.5,-243.5 976.5,-243.5 976.5,-224.5 935.5,-224.5"/>
<text text-anchor="middle" x="956" y="-231.5" font-family="Helvetica,sans-Serif" font-size="10.00">ctime</text>
</g>
<!-- Node27&#45;&gt;Node29 -->
<g id="edge41" class="edge"><title>Node27&#45;&gt;Node29</title>
<path fill="none" stroke="midnightblue" d="M942.642,-280.083C944.786,-272.849 947.879,-262.409 950.549,-253.397"/>
<polygon fill="midnightblue" stroke="midnightblue" points="953.922,-254.333 953.407,-243.751 947.21,-252.345 953.922,-254.333"/>
</g>
<!-- Node28&#45;&gt;Node3 -->
<g id="edge40" class="edge"><title>Node28&#45;&gt;Node3</title>
<path fill="none" stroke="midnightblue" d="M897.536,-168.449C887.615,-159.452 871.607,-144.844 858,-132 840.464,-115.447 820.678,-96.1772 807.182,-82.9408"/>
<polygon fill="midnightblue" stroke="midnightblue" points="809.613,-80.4228 800.027,-75.9108 804.707,-85.416 809.613,-80.4228"/>
</g>
</g>
</svg>
