<?xml version="1.0" encoding="UTF-8" standalone="no"?>
<!DOCTYPE svg PUBLIC "-//W3C//DTD SVG 1.1//EN"
 "http://www.w3.org/Graphics/SVG/1.1/DTD/svg11.dtd">
<!-- Generated by graphviz version 2.38.0 (20140413.2041)
 -->
<!-- Title: callerinfo.hpp Pages: 1 -->
<svg width="679pt" height="476pt"
 viewBox="0.00 0.00 678.50 476.00" xmlns="http://www.w3.org/2000/svg" xmlns:xlink="http://www.w3.org/1999/xlink">
<g id="graph0" class="graph" transform="scale(1 1) rotate(0) translate(4 472)">
<title>callerinfo.hpp</title>
<polygon fill="white" stroke="none" points="-4,4 -4,-472 674.5,-472 674.5,4 -4,4"/>
<!-- Node1 -->
<g id="node1" class="node"><title>Node1</title>
<polygon fill="#bfbfbf" stroke="black" points="395.5,-448.5 395.5,-467.5 469.5,-467.5 469.5,-448.5 395.5,-448.5"/>
<text text-anchor="middle" x="432.5" y="-455.5" font-family="Helvetica,sans-Serif" font-size="10.00">callerinfo.hpp</text>
</g>
<!-- Node2 -->
<g id="node2" class="node"><title>Node2</title>
<g id="a_node2"><a xlink:href="lox_8hpp.html" target="_top" xlink:title="lox.hpp">
<polygon fill="white" stroke="black" points="408.5,-392.5 408.5,-411.5 456.5,-411.5 456.5,-392.5 408.5,-392.5"/>
<text text-anchor="middle" x="432.5" y="-399.5" font-family="Helvetica,sans-Serif" font-size="10.00">lox.hpp</text>
</a>
</g>
</g>
<!-- Node1&#45;&gt;Node2 -->
<g id="edge1" class="edge"><title>Node1&#45;&gt;Node2</title>
<path fill="none" stroke="midnightblue" d="M432.5,-437.805C432.5,-428.91 432.5,-418.78 432.5,-411.751"/>
<polygon fill="midnightblue" stroke="midnightblue" points="429,-438.083 432.5,-448.083 436,-438.083 429,-438.083"/>
</g>
<!-- Node7 -->
<g id="node7" class="node"><title>Node7</title>
<g id="a_node7"><a xlink:href="logger_8hpp.html" target="_top" xlink:title="logger.hpp">
<polygon fill="white" stroke="black" points="433.5,-224.5 433.5,-243.5 495.5,-243.5 495.5,-224.5 433.5,-224.5"/>
<text text-anchor="middle" x="464.5" y="-231.5" font-family="Helvetica,sans-Serif" font-size="10.00">logger.hpp</text>
</a>
</g>
</g>
<!-- Node1&#45;&gt;Node7 -->
<g id="edge31" class="edge"><title>Node1&#45;&gt;Node7</title>
<path fill="none" stroke="midnightblue" d="M446.841,-440.604C469.374,-413.571 511.997,-356.949 526.5,-300 528.694,-291.386 530.537,-287.919 526.5,-280 517.801,-262.937 499.271,-250.832 484.723,-243.505"/>
<polygon fill="midnightblue" stroke="midnightblue" points="444.104,-438.419 440.292,-448.304 449.437,-442.954 444.104,-438.419"/>
</g>
<!-- Node3 -->
<g id="node3" class="node"><title>Node3</title>
<g id="a_node3"><a xlink:href="alox_8hpp.html" target="_top" xlink:title="alox.hpp">
<polygon fill="white" stroke="black" points="320,-336.5 320,-355.5 373,-355.5 373,-336.5 320,-336.5"/>
<text text-anchor="middle" x="346.5" y="-343.5" font-family="Helvetica,sans-Serif" font-size="10.00">alox.hpp</text>
</a>
</g>
</g>
<!-- Node2&#45;&gt;Node3 -->
<g id="edge2" class="edge"><title>Node2&#45;&gt;Node3</title>
<path fill="none" stroke="midnightblue" d="M410.045,-386.901C394.276,-376.999 373.686,-364.071 360.283,-355.655"/>
<polygon fill="midnightblue" stroke="midnightblue" points="408.352,-389.97 418.683,-392.324 412.075,-384.042 408.352,-389.97"/>
</g>
<!-- Node3&#45;&gt;Node1 -->
<g id="edge6" class="edge"><title>Node3&#45;&gt;Node1</title>
<path fill="none" stroke="midnightblue" d="M359.537,-363.675C378.106,-387.426 411.496,-430.135 425.752,-448.368"/>
<polygon fill="midnightblue" stroke="midnightblue" points="362.134,-361.314 353.217,-355.591 356.619,-365.625 362.134,-361.314"/>
</g>
<!-- Node4 -->
<g id="node4" class="node"><title>Node4</title>
<g id="a_node4"><a xlink:href="log_8hpp.html" target="_top" xlink:title="log.hpp">
<polygon fill="white" stroke="black" points="194.5,-280.5 194.5,-299.5 242.5,-299.5 242.5,-280.5 194.5,-280.5"/>
<text text-anchor="middle" x="218.5" y="-287.5" font-family="Helvetica,sans-Serif" font-size="10.00">log.hpp</text>
</a>
</g>
</g>
<!-- Node3&#45;&gt;Node4 -->
<g id="edge3" class="edge"><title>Node3&#45;&gt;Node4</title>
<path fill="none" stroke="midnightblue" d="M311.758,-332.772C286.194,-322.629 252.851,-308.467 233.607,-299.516"/>
<polygon fill="midnightblue" stroke="midnightblue" points="310.542,-336.054 321.129,-336.444 313.095,-329.537 310.542,-336.054"/>
</g>
<!-- Node5 -->
<g id="node5" class="node"><title>Node5</title>
<g id="a_node5"><a xlink:href="alox__console__loggers_8hpp.html" target="_top" xlink:title="alox_console_loggers.hpp">
<polygon fill="white" stroke="black" points="394,-0.5 394,-19.5 523,-19.5 523,-0.5 394,-0.5"/>
<text text-anchor="middle" x="458.5" y="-7.5" font-family="Helvetica,sans-Serif" font-size="10.00">alox_console_loggers.hpp</text>
</a>
</g>
</g>
<!-- Node3&#45;&gt;Node5 -->
<g id="edge5" class="edge"><title>Node3&#45;&gt;Node5</title>
<path fill="none" stroke="midnightblue" d="M383.371,-341.08C430.777,-335.191 509.084,-322.306 526.5,-300 562.503,-253.888 481.191,-62.3207 462.306,-19.5105"/>
<polygon fill="midnightblue" stroke="midnightblue" points="382.699,-337.635 373.185,-342.297 383.53,-344.586 382.699,-337.635"/>
</g>
<!-- Node6 -->
<g id="node6" class="node"><title>Node6</title>
<g id="a_node6"><a xlink:href="domain_8hpp.html" target="_top" xlink:title="domain.hpp">
<polygon fill="white" stroke="black" points="451,-280.5 451,-299.5 518,-299.5 518,-280.5 451,-280.5"/>
<text text-anchor="middle" x="484.5" y="-287.5" font-family="Helvetica,sans-Serif" font-size="10.00">domain.hpp</text>
</a>
</g>
</g>
<!-- Node3&#45;&gt;Node6 -->
<g id="edge7" class="edge"><title>Node3&#45;&gt;Node6</title>
<path fill="none" stroke="midnightblue" d="M377.749,-332.772C403.671,-322.629 439.862,-308.467 462.736,-299.516"/>
<polygon fill="midnightblue" stroke="midnightblue" points="376.404,-329.54 368.367,-336.444 378.954,-336.059 376.404,-329.54"/>
</g>
<!-- Node3&#45;&gt;Node7 -->
<g id="edge22" class="edge"><title>Node3&#45;&gt;Node7</title>
<path fill="none" stroke="midnightblue" d="M364.801,-329.662C374.881,-321.09 387.536,-310.124 398.5,-300 419.768,-280.362 443.757,-256.205 456.127,-243.592"/>
<polygon fill="midnightblue" stroke="midnightblue" points="362.41,-327.1 357.032,-336.229 366.929,-332.446 362.41,-327.1"/>
</g>
<!-- Node8 -->
<g id="node8" class="node"><title>Node8</title>
<g id="a_node8"><a xlink:href="textlogger_8hpp.html" target="_top" xlink:title="textlogger.hpp">
<polygon fill="white" stroke="black" points="394.5,-168.5 394.5,-187.5 472.5,-187.5 472.5,-168.5 394.5,-168.5"/>
<text text-anchor="middle" x="433.5" y="-175.5" font-family="Helvetica,sans-Serif" font-size="10.00">textlogger.hpp</text>
</a>
</g>
</g>
<!-- Node3&#45;&gt;Node8 -->
<g id="edge24" class="edge"><title>Node3&#45;&gt;Node8</title>
<path fill="none" stroke="midnightblue" d="M356.009,-326.856C374.669,-291.252 415.443,-213.453 429.009,-187.568"/>
<polygon fill="midnightblue" stroke="midnightblue" points="352.72,-325.593 351.177,-336.075 358.92,-328.843 352.72,-325.593"/>
</g>
<!-- Node9 -->
<g id="node9" class="node"><title>Node9</title>
<g id="a_node9"><a xlink:href="plaintextlogger_8hpp.html" target="_top" xlink:title="plaintextlogger.hpp">
<polygon fill="white" stroke="black" points="144.5,-112.5 144.5,-131.5 242.5,-131.5 242.5,-112.5 144.5,-112.5"/>
<text text-anchor="middle" x="193.5" y="-119.5" font-family="Helvetica,sans-Serif" font-size="10.00">plaintextlogger.hpp</text>
</a>
</g>
</g>
<!-- Node3&#45;&gt;Node9 -->
<g id="edge23" class="edge"><title>Node3&#45;&gt;Node9</title>
<path fill="none" stroke="midnightblue" d="M309.931,-339.938C267.225,-333.191 200.492,-319.757 185.5,-300 145.894,-247.806 177.733,-159.933 189.546,-131.886"/>
<polygon fill="midnightblue" stroke="midnightblue" points="309.548,-343.42 319.962,-341.471 310.605,-336.501 309.548,-343.42"/>
</g>
<!-- Node10 -->
<g id="node10" class="node"><title>Node10</title>
<g id="a_node10"><a xlink:href="consolelogger_8hpp.html" target="_top" xlink:title="consolelogger.hpp">
<polygon fill="white" stroke="black" points="335,-56.5 335,-75.5 430,-75.5 430,-56.5 335,-56.5"/>
<text text-anchor="middle" x="382.5" y="-63.5" font-family="Helvetica,sans-Serif" font-size="10.00">consolelogger.hpp</text>
</a>
</g>
</g>
<!-- Node3&#45;&gt;Node10 -->
<g id="edge26" class="edge"><title>Node3&#45;&gt;Node10</title>
<path fill="none" stroke="midnightblue" d="M336.357,-327.429C325.1,-306.236 308.5,-269.187 308.5,-235 308.5,-235 308.5,-235 308.5,-177 308.5,-132.578 350.56,-92.615 371.261,-75.6358"/>
<polygon fill="midnightblue" stroke="midnightblue" points="333.319,-329.168 341.216,-336.231 339.447,-325.785 333.319,-329.168"/>
</g>
<!-- Node11 -->
<g id="node11" class="node"><title>Node11</title>
<g id="a_node11"><a xlink:href="memorylogger_8hpp.html" target="_top" xlink:title="memorylogger.hpp">
<polygon fill="white" stroke="black" points="0,-56.5 0,-75.5 97,-75.5 97,-56.5 0,-56.5"/>
<text text-anchor="middle" x="48.5" y="-63.5" font-family="Helvetica,sans-Serif" font-size="10.00">memorylogger.hpp</text>
</a>
</g>
</g>
<!-- Node3&#45;&gt;Node11 -->
<g id="edge27" class="edge"><title>Node3&#45;&gt;Node11</title>
<path fill="none" stroke="midnightblue" d="M309.444,-343.774C264.219,-340.883 186.602,-331.326 128.5,-300 92.5388,-280.611 63.5,-275.855 63.5,-235 63.5,-235 63.5,-235 63.5,-177 63.5,-138.838 54.5269,-93.905 50.461,-75.5039"/>
<polygon fill="midnightblue" stroke="midnightblue" points="309.489,-347.282 319.67,-344.349 309.882,-340.293 309.489,-347.282"/>
</g>
<!-- Node12 -->
<g id="node12" class="node"><title>Node12</title>
<g id="a_node12"><a xlink:href="textfilelogger_8hpp.html" target="_top" xlink:title="textfilelogger.hpp">
<polygon fill="white" stroke="black" points="115,-56.5 115,-75.5 206,-75.5 206,-56.5 115,-56.5"/>
<text text-anchor="middle" x="160.5" y="-63.5" font-family="Helvetica,sans-Serif" font-size="10.00">textfilelogger.hpp</text>
</a>
</g>
</g>
<!-- Node3&#45;&gt;Node12 -->
<g id="edge28" class="edge"><title>Node3&#45;&gt;Node12</title>
<path fill="none" stroke="midnightblue" d="M309.418,-343.668C244.362,-339.137 116.5,-319.485 116.5,-235 116.5,-235 116.5,-235 116.5,-177 116.5,-136.686 142.292,-93.6229 154.382,-75.6515"/>
<polygon fill="midnightblue" stroke="midnightblue" points="309.471,-347.178 319.666,-344.293 309.897,-340.191 309.471,-347.178"/>
</g>
<!-- Node13 -->
<g id="node13" class="node"><title>Node13</title>
<g id="a_node13"><a xlink:href="vstudiologger_8hpp.html" target="_top" xlink:title="vstudiologger.hpp">
<polygon fill="white" stroke="black" points="224,-56.5 224,-75.5 317,-75.5 317,-56.5 224,-56.5"/>
<text text-anchor="middle" x="270.5" y="-63.5" font-family="Helvetica,sans-Serif" font-size="10.00">vstudiologger.hpp</text>
</a>
</g>
</g>
<!-- Node3&#45;&gt;Node13 -->
<g id="edge29" class="edge"><title>Node3&#45;&gt;Node13</title>
<path fill="none" stroke="midnightblue" d="M326.982,-329.846C304.464,-310.496 270.5,-274.724 270.5,-235 270.5,-235 270.5,-235 270.5,-177 270.5,-139.188 270.5,-94.0636 270.5,-75.5578"/>
<polygon fill="midnightblue" stroke="midnightblue" points="325.018,-332.764 334.957,-336.433 329.476,-327.366 325.018,-332.764"/>
</g>
<!-- Node14 -->
<g id="node14" class="node"><title>Node14</title>
<g id="a_node14"><a xlink:href="ansilogger_8hpp.html" target="_top" xlink:title="ansilogger.hpp">
<polygon fill="white" stroke="black" points="393.5,-112.5 393.5,-131.5 473.5,-131.5 473.5,-112.5 393.5,-112.5"/>
<text text-anchor="middle" x="433.5" y="-119.5" font-family="Helvetica,sans-Serif" font-size="10.00">ansilogger.hpp</text>
</a>
</g>
</g>
<!-- Node3&#45;&gt;Node14 -->
<g id="edge25" class="edge"><title>Node3&#45;&gt;Node14</title>
<path fill="none" stroke="midnightblue" d="M347.055,-325.941C348.8,-292.02 355.992,-219.866 385.5,-168 394.086,-152.909 409.398,-139.874 420.422,-131.774"/>
<polygon fill="midnightblue" stroke="midnightblue" points="343.545,-326.116 346.637,-336.25 350.539,-326.4 343.545,-326.116"/>
</g>
<!-- Node15 -->
<g id="node15" class="node"><title>Node15</title>
<g id="a_node15"><a xlink:href="windowsconsolelogger_8hpp.html" target="_top" xlink:title="windowsconsolelogger.hpp">
<polygon fill="white" stroke="black" points="536.5,-112.5 536.5,-131.5 670.5,-131.5 670.5,-112.5 536.5,-112.5"/>
<text text-anchor="middle" x="603.5" y="-119.5" font-family="Helvetica,sans-Serif" font-size="10.00">windowsconsolelogger.hpp</text>
</a>
</g>
</g>
<!-- Node3&#45;&gt;Node15 -->
<g id="edge30" class="edge"><title>Node3&#45;&gt;Node15</title>
<path fill="none" stroke="midnightblue" d="M383.28,-341.951C437.627,-336.694 535.647,-324.093 560.5,-300 609.317,-252.677 606.466,-159.997 604.301,-131.524"/>
<polygon fill="midnightblue" stroke="midnightblue" points="382.66,-338.494 373.028,-342.906 383.309,-345.464 382.66,-338.494"/>
</g>
<!-- Node4&#45;&gt;Node3 -->
<g id="edge4" class="edge"><title>Node4&#45;&gt;Node3</title>
<path fill="none" stroke="midnightblue" d="M252.23,-302.827C277.882,-312.98 311.794,-327.372 331.307,-336.444"/>
<polygon fill="midnightblue" stroke="midnightblue" points="253.438,-299.541 242.85,-299.163 250.891,-306.062 253.438,-299.541"/>
</g>
<!-- Node6&#45;&gt;Node2 -->
<g id="edge8" class="edge"><title>Node6&#45;&gt;Node2</title>
<path fill="none" stroke="midnightblue" d="M476.015,-308.948C464.682,-332.923 445.048,-374.456 436.58,-392.368"/>
<polygon fill="midnightblue" stroke="midnightblue" points="479.329,-310.128 480.439,-299.591 473,-307.136 479.329,-310.128"/>
</g>
<!-- Node6&#45;&gt;Node7 -->
<g id="edge9" class="edge"><title>Node6&#45;&gt;Node7</title>
<path fill="none" stroke="midnightblue" d="M477.718,-270.69C474.348,-261.589 470.431,-251.014 467.741,-243.751"/>
<polygon fill="midnightblue" stroke="midnightblue" points="474.442,-271.921 481.197,-280.083 481.006,-269.49 474.442,-271.921"/>
</g>
<!-- Node7&#45;&gt;Node8 -->
<g id="edge10" class="edge"><title>Node7&#45;&gt;Node8</title>
<path fill="none" stroke="midnightblue" d="M454.324,-215.275C449.026,-206.045 442.783,-195.17 438.524,-187.751"/>
<polygon fill="midnightblue" stroke="midnightblue" points="451.367,-217.153 459.381,-224.083 457.438,-213.668 451.367,-217.153"/>
</g>
<!-- Node8&#45;&gt;Node9 -->
<g id="edge11" class="edge"><title>Node8&#45;&gt;Node9</title>
<path fill="none" stroke="midnightblue" d="M385.577,-166.217C340.226,-156.013 273.058,-140.901 231.351,-131.516"/>
<polygon fill="midnightblue" stroke="midnightblue" points="384.947,-169.663 395.471,-168.444 386.484,-162.834 384.947,-169.663"/>
</g>
<!-- Node8&#45;&gt;Node14 -->
<g id="edge18" class="edge"><title>Node8&#45;&gt;Node14</title>
<path fill="none" stroke="midnightblue" d="M433.5,-157.805C433.5,-148.91 433.5,-138.78 433.5,-131.751"/>
<polygon fill="midnightblue" stroke="midnightblue" points="430,-158.083 433.5,-168.083 437,-158.083 430,-158.083"/>
</g>
<!-- Node8&#45;&gt;Node15 -->
<g id="edge20" class="edge"><title>Node8&#45;&gt;Node15</title>
<path fill="none" stroke="midnightblue" d="M470.319,-165.304C502.352,-155.129 548.015,-140.625 576.689,-131.516"/>
<polygon fill="midnightblue" stroke="midnightblue" points="468.908,-162.08 460.437,-168.444 471.027,-168.752 468.908,-162.08"/>
</g>
<!-- Node9&#45;&gt;Node10 -->
<g id="edge12" class="edge"><title>Node9&#45;&gt;Node10</title>
<path fill="none" stroke="midnightblue" d="M233.513,-109.568C269.167,-99.381 320.538,-84.7034 352.692,-75.5164"/>
<polygon fill="midnightblue" stroke="midnightblue" points="232.101,-106.331 223.448,-112.444 234.024,-113.062 232.101,-106.331"/>
</g>
<!-- Node9&#45;&gt;Node11 -->
<g id="edge14" class="edge"><title>Node9&#45;&gt;Node11</title>
<path fill="none" stroke="midnightblue" d="M161.025,-108.906C133.764,-98.7536 95.5076,-84.5063 71.3682,-75.5164"/>
<polygon fill="midnightblue" stroke="midnightblue" points="159.932,-112.233 170.524,-112.444 162.375,-105.674 159.932,-112.233"/>
</g>
<!-- Node9&#45;&gt;Node12 -->
<g id="edge15" class="edge"><title>Node9&#45;&gt;Node12</title>
<path fill="none" stroke="midnightblue" d="M182.668,-103.275C177.028,-94.0454 170.382,-83.1703 165.848,-75.7511"/>
<polygon fill="midnightblue" stroke="midnightblue" points="179.85,-105.375 188.051,-112.083 185.823,-101.725 179.85,-105.375"/>
</g>
<!-- Node9&#45;&gt;Node13 -->
<g id="edge16" class="edge"><title>Node9&#45;&gt;Node13</title>
<path fill="none" stroke="midnightblue" d="M214.401,-106.342C228.411,-96.5169 246.383,-83.9132 258.159,-75.6545"/>
<polygon fill="midnightblue" stroke="midnightblue" points="212.049,-103.717 205.871,-112.324 216.068,-109.448 212.049,-103.717"/>
</g>
<!-- Node10&#45;&gt;Node5 -->
<g id="edge13" class="edge"><title>Node10&#45;&gt;Node5</title>
<path fill="none" stroke="midnightblue" d="M403.076,-50.3804C416.812,-40.6204 434.425,-28.1057 446.067,-19.8339"/>
<polygon fill="midnightblue" stroke="midnightblue" points="400.835,-47.6787 394.711,-56.324 404.89,-53.385 400.835,-47.6787"/>
</g>
<!-- Node13&#45;&gt;Node5 -->
<g id="edge17" class="edge"><title>Node13&#45;&gt;Node5</title>
<path fill="none" stroke="midnightblue" d="M310.301,-53.5677C345.766,-43.381 396.866,-28.7034 428.85,-19.5164"/>
<polygon fill="midnightblue" stroke="midnightblue" points="308.934,-50.3188 300.289,-56.4435 310.867,-57.0467 308.934,-50.3188"/>
</g>
<!-- Node14&#45;&gt;Node5 -->
<g id="edge19" class="edge"><title>Node14&#45;&gt;Node5</title>
<path fill="none" stroke="midnightblue" d="M437.739,-102.348C443.215,-78.2538 452.521,-37.3079 456.547,-19.5914"/>
<polygon fill="midnightblue" stroke="midnightblue" points="434.265,-101.841 435.462,-112.368 441.091,-103.393 434.265,-101.841"/>
</g>
<!-- Node15&#45;&gt;Node5 -->
<g id="edge21" class="edge"><title>Node15&#45;&gt;Node5</title>
<path fill="none" stroke="midnightblue" d="M585.064,-105.653C568.816,-92.2614 544.39,-72.4529 522.5,-56 505.127,-42.9426 484.471,-28.6288 471.421,-19.7297"/>
<polygon fill="midnightblue" stroke="midnightblue" points="583.246,-108.692 593.182,-112.371 587.709,-103.299 583.246,-108.692"/>
</g>
</g>
</svg>
