<?xml version="1.0" encoding="UTF-8" standalone="no"?>
<!DOCTYPE svg PUBLIC "-//W3C//DTD SVG 1.1//EN"
 "http://www.w3.org/Graphics/SVG/1.1/DTD/svg11.dtd">
<!-- Generated by graphviz version 2.40.1 (20161225.0304)
 -->
<!-- Title: Lox Pages: 1 -->
<svg width="76pt" height="140pt"
 viewBox="0.00 0.00 76.00 140.00" xmlns="http://www.w3.org/2000/svg" xmlns:xlink="http://www.w3.org/1999/xlink">
<g id="graph0" class="graph" transform="scale(1 1) rotate(0) translate(4 136)">
<title>Lox</title>
<polygon fill="#ffffff" stroke="transparent" points="-4,4 -4,-136 72,-136 72,4 -4,4"/>
<!-- Node0 -->
<g id="node1" class="node">
<title>Node0</title>
<polygon fill="#bfbfbf" stroke="#000000" points="18,-.5 18,-19.5 50,-19.5 50,-.5 18,-.5"/>
<text text-anchor="middle" x="34" y="-7.5" font-family="Helvetica,sans-Serif" font-size="10.00" fill="#000000">Lox</text>
</g>
<!-- Node1 -->
<g id="node2" class="node">
<title>Node1</title>
<g id="a_node2"><a xlink:href="classaworx_1_1lib_1_1threads_1_1ThreadLock.html" target="_top" xlink:title="ThreadLock">
<polygon fill="#ffffff" stroke="#000000" points="0,-56.5 0,-75.5 68,-75.5 68,-56.5 0,-56.5"/>
<text text-anchor="middle" x="34" y="-63.5" font-family="Helvetica,sans-Serif" font-size="10.00" fill="#000000">ThreadLock</text>
</a>
</g>
</g>
<!-- Node1&#45;&gt;Node0 -->
<g id="edge1" class="edge">
<title>Node1&#45;&gt;Node0</title>
<path fill="none" stroke="#006400" d="M34,-46.1575C34,-37.155 34,-26.9199 34,-19.6427"/>
<polygon fill="#006400" stroke="#006400" points="30.5001,-46.2455 34,-56.2455 37.5001,-46.2456 30.5001,-46.2455"/>
</g>
<!-- Node2 -->
<g id="node3" class="node">
<title>Node2</title>
<g id="a_node3"><a xlink:href="classaworx_1_1lib_1_1lang_1_1Ownable.html" target="_top" xlink:title="Ownable">
<polygon fill="#ffffff" stroke="#000000" points="7,-112.5 7,-131.5 61,-131.5 61,-112.5 7,-112.5"/>
<text text-anchor="middle" x="34" y="-119.5" font-family="Helvetica,sans-Serif" font-size="10.00" fill="#000000">Ownable</text>
</a>
</g>
</g>
<!-- Node2&#45;&gt;Node1 -->
<g id="edge2" class="edge">
<title>Node2&#45;&gt;Node1</title>
<path fill="none" stroke="#191970" d="M34,-102.1575C34,-93.155 34,-82.9199 34,-75.6427"/>
<polygon fill="#191970" stroke="#191970" points="30.5001,-102.2455 34,-112.2455 37.5001,-102.2456 30.5001,-102.2455"/>
</g>
</g>
</svg>
