<?xml version="1.0" encoding="UTF-8" standalone="no"?>
<!DOCTYPE svg PUBLIC "-//W3C//DTD SVG 1.1//EN"
 "http://www.w3.org/Graphics/SVG/1.1/DTD/svg11.dtd">
<!-- Generated by graphviz version 2.38.0 (20140413.2041)
 -->
<!-- Title: ScopeStore&lt;StoreT&gt; Pages: 1 -->
<svg width="1320pt" height="536pt"
 viewBox="0.00 0.00 1320.00 536.00" xmlns="http://www.w3.org/2000/svg" xmlns:xlink="http://www.w3.org/1999/xlink">
<g id="graph0" class="graph" transform="scale(1 1) rotate(0) translate(4 532)">
<title>ScopeStore&lt;StoreT&gt;</title>
<polygon fill="white" stroke="none" points="-4,4 -4,-532 1316,-532 1316,4 -4,4"/>
<!-- Node2 -->
<g id="node1" class="node"><title>Node2</title>
<polygon fill="white" stroke="#bfbfbf" points="959,-427.5 959,-446.5 1091,-446.5 1091,-427.5 959,-427.5"/>
<text text-anchor="middle" x="1025" y="-434.5" font-family="Helvetica,sans-Serif" font-size="10.00">map&lt;int, vector&lt;StoreT&gt;&gt;</text>
</g>
<!-- Node1 -->
<g id="node6" class="node"><title>Node1</title>
<polygon fill="#bfbfbf" stroke="black" points="1203,-452.5 1203,-471.5 1312,-471.5 1312,-452.5 1203,-452.5"/>
<text text-anchor="middle" x="1257.5" y="-459.5" font-family="Helvetica,sans-Serif" font-size="10.00">ScopeStore&lt;StoreT&gt;</text>
</g>
<!-- Node2&#45;&gt;Node1 -->
<g id="edge1" class="edge"><title>Node2&#45;&gt;Node1</title>
<path fill="none" stroke="#9a32cd" stroke-dasharray="5,2" d="M1101.19,-439.504C1127.75,-440.976 1157.78,-443.308 1185,-447 1195.18,-448.381 1206.08,-450.389 1216.22,-452.49"/>
<polygon fill="#9a32cd" stroke="#9a32cd" points="1101.36,-436.008 1091.19,-438.981 1100.99,-442.999 1101.36,-436.008"/>
<text text-anchor="middle" x="1147" y="-461" font-family="Helvetica,sans-Serif" font-size="10.00"> threadInnerStore</text>
<text text-anchor="middle" x="1147" y="-450" font-family="Helvetica,sans-Serif" font-size="10.00">threadOuterStore</text>
</g>
<!-- Node3 -->
<g id="node2" class="node"><title>Node3</title>
<polygon fill="white" stroke="#bfbfbf" points="706,-473.5 706,-492.5 791,-492.5 791,-473.5 706,-473.5"/>
<text text-anchor="middle" x="748.5" y="-480.5" font-family="Helvetica,sans-Serif" font-size="10.00">vector&lt;StoreT&gt;</text>
</g>
<!-- Node3&#45;&gt;Node2 -->
<g id="edge3" class="edge"><title>Node3&#45;&gt;Node2</title>
<path fill="none" stroke="#9a32cd" stroke-dasharray="5,2" d="M799.636,-471.212C819.865,-466.701 843.472,-461.745 865,-458 895.724,-452.655 929.998,-447.968 958.835,-444.385"/>
<polygon fill="#9a32cd" stroke="#9a32cd" points="798.683,-467.839 789.698,-473.453 800.223,-474.668 798.683,-467.839"/>
<text text-anchor="middle" x="903" y="-461" font-family="Helvetica,sans-Serif" font-size="10.00"> elements</text>
</g>
<!-- Node3&#45;&gt;Node1 -->
<g id="edge2" class="edge"><title>Node3&#45;&gt;Node1</title>
<path fill="none" stroke="#9a32cd" stroke-dasharray="5,2" d="M801.299,-482.431C882.951,-481.286 1046.55,-477.993 1185,-469 1190.73,-468.628 1196.7,-468.164 1202.65,-467.652"/>
<polygon fill="#9a32cd" stroke="#9a32cd" points="801.232,-478.931 791.28,-482.566 801.327,-485.93 801.232,-478.931"/>
<text text-anchor="middle" x="1025" y="-481" font-family="Helvetica,sans-Serif" font-size="10.00"> walkThreadValues</text>
</g>
<!-- Node6 -->
<g id="node3" class="node"><title>Node6</title>
<g id="a_node3"><a xlink:title="STL class. ">
<polygon fill="white" stroke="#bfbfbf" points="715.5,-38.5 715.5,-57.5 781.5,-57.5 781.5,-38.5 715.5,-38.5"/>
<text text-anchor="middle" x="748.5" y="-45.5" font-family="Helvetica,sans-Serif" font-size="10.00">map&lt;K, T&gt;</text>
</a>
</g>
</g>
<!-- Node5 -->
<g id="node9" class="node"><title>Node5</title>
<g id="a_node9"><a xlink:href="classaworx_1_1lox_1_1core_1_1ScopeInfo.html" target="_top" xlink:title="ScopeInfo">
<polygon fill="white" stroke="black" points="994.5,-194.5 994.5,-213.5 1055.5,-213.5 1055.5,-194.5 994.5,-194.5"/>
<text text-anchor="middle" x="1025" y="-201.5" font-family="Helvetica,sans-Serif" font-size="10.00">ScopeInfo</text>
</a>
</g>
</g>
<!-- Node6&#45;&gt;Node5 -->
<g id="edge7" class="edge"><title>Node6&#45;&gt;Node5</title>
<path fill="none" stroke="#9a32cd" stroke-dasharray="5,2" d="M791.749,-40.1361C833.012,-34.7823 896,-33.0162 941,-61 991.703,-92.5301 1014.81,-167.226 1021.69,-194.129"/>
<polygon fill="#9a32cd" stroke="#9a32cd" points="791.157,-36.6849 781.75,-41.5586 792.143,-43.6151 791.157,-36.6849"/>
<text text-anchor="middle" x="903" y="-64" font-family="Helvetica,sans-Serif" font-size="10.00"> threadDictionary</text>
</g>
<!-- Node13 -->
<g id="node4" class="node"><title>Node13</title>
<polygon fill="white" stroke="#bfbfbf" points="650,-199.5 650,-218.5 847,-218.5 847,-199.5 650,-199.5"/>
<text text-anchor="middle" x="748.5" y="-206.5" font-family="Helvetica,sans-Serif" font-size="10.00">vector&lt;ScopeInfo::SourcePathTrimRule&gt;</text>
</g>
<!-- Node13&#45;&gt;Node5 -->
<g id="edge19" class="edge"><title>Node13&#45;&gt;Node5</title>
<path fill="none" stroke="#9a32cd" stroke-dasharray="5,2" d="M857.28,-205.17C859.878,-205.109 862.455,-205.052 865,-205 910.124,-204.077 962.466,-203.925 994.399,-203.936"/>
<polygon fill="#9a32cd" stroke="#9a32cd" points="857.076,-201.673 847.167,-205.423 857.252,-208.671 857.076,-201.673"/>
<text text-anchor="middle" x="903" y="-219" font-family="Helvetica,sans-Serif" font-size="10.00"> GlobalSPTRs</text>
<text text-anchor="middle" x="903" y="-208" font-family="Helvetica,sans-Serif" font-size="10.00">LocalSPTRs</text>
</g>
<!-- Node20 -->
<g id="node5" class="node"><title>Node20</title>
<polygon fill="white" stroke="#bfbfbf" points="959.5,-384.5 959.5,-403.5 1090.5,-403.5 1090.5,-384.5 959.5,-384.5"/>
<text text-anchor="middle" x="1025" y="-391.5" font-family="Helvetica,sans-Serif" font-size="10.00">map&lt;thread::id, Thread *&gt;</text>
</g>
<!-- Node17 -->
<g id="node18" class="node"><title>Node17</title>
<g id="a_node18"><a xlink:href="classaworx_1_1lib_1_1threads_1_1Thread.html" target="_top" xlink:title="Thread">
<polygon fill="white" stroke="black" points="725,-379.5 725,-398.5 772,-398.5 772,-379.5 725,-379.5"/>
<text text-anchor="middle" x="748.5" y="-386.5" font-family="Helvetica,sans-Serif" font-size="10.00">Thread</text>
</a>
</g>
</g>
<!-- Node20&#45;&gt;Node17 -->
<g id="edge29" class="edge"><title>Node20&#45;&gt;Node17</title>
<path fill="none" stroke="#9a32cd" stroke-dasharray="5,2" d="M949.174,-400.603C946.416,-400.754 943.684,-400.887 941,-401 907.252,-402.421 898.733,-402.748 865,-401 832.586,-399.321 795.26,-395.007 772.02,-392.037"/>
<polygon fill="#9a32cd" stroke="#9a32cd" points="949.47,-404.092 959.24,-399.991 949.046,-397.105 949.47,-404.092"/>
<text text-anchor="middle" x="903" y="-405" font-family="Helvetica,sans-Serif" font-size="10.00"> threadMap</text>
</g>
<!-- Node16 -->
<g id="node7" class="node"><title>Node16</title>
<g id="a_node7"><a xlink:href="classaworx_1_1lib_1_1strings_1_1PreallocatedString.html" target="_top" xlink:title="PreallocatedString\&lt;TCapacity\&gt;">
<polygon fill="white" stroke="black" points="412,-312.5 412,-331.5 565,-331.5 565,-312.5 412,-312.5"/>
<text text-anchor="middle" x="488.5" y="-319.5" font-family="Helvetica,sans-Serif" font-size="10.00">PreallocatedString&lt;TCapacity&gt;</text>
</a>
</g>
</g>
<!-- Node16&#45;&gt;Node5 -->
<g id="edge23" class="edge"><title>Node16&#45;&gt;Node5</title>
<path fill="none" stroke="#9a32cd" stroke-dasharray="5,2" d="M575.147,-323.934C648.442,-323.61 756.19,-318.401 847,-295 912.915,-278.014 982.198,-233.282 1010.63,-213.566"/>
<polygon fill="#9a32cd" stroke="#9a32cd" points="575.034,-320.434 565.039,-323.949 575.044,-327.434 575.034,-320.434"/>
<text text-anchor="middle" x="748.5" y="-324" font-family="Helvetica,sans-Serif" font-size="10.00"> loxName</text>
</g>
<!-- Node16&#45;&gt;Node17 -->
<g id="edge24" class="edge"><title>Node16&#45;&gt;Node17</title>
<path fill="none" stroke="#9a32cd" stroke-dasharray="5,2" d="M536.153,-334.115C591.796,-348.565 682.564,-372.137 724.69,-383.076"/>
<polygon fill="#9a32cd" stroke="#9a32cd" points="536.75,-330.654 526.191,-331.528 534.99,-337.43 536.75,-330.654"/>
<text text-anchor="middle" x="607.5" y="-360" font-family="Helvetica,sans-Serif" font-size="10.00"> name</text>
</g>
<!-- Node4 -->
<g id="node8" class="node"><title>Node4</title>
<polygon fill="white" stroke="#bfbfbf" points="465.5,-481.5 465.5,-500.5 511.5,-500.5 511.5,-481.5 465.5,-481.5"/>
<text text-anchor="middle" x="488.5" y="-488.5" font-family="Helvetica,sans-Serif" font-size="10.00">StoreT</text>
</g>
<!-- Node4&#45;&gt;Node3 -->
<g id="edge5" class="edge"><title>Node4&#45;&gt;Node3</title>
<path fill="none" stroke="#9a32cd" stroke-dasharray="5,2" d="M522.111,-489.989C568.824,-488.54 654.782,-485.875 705.98,-484.287"/>
<polygon fill="#9a32cd" stroke="#9a32cd" points="521.831,-486.496 511.944,-490.304 522.048,-493.492 521.831,-486.496"/>
<text text-anchor="middle" x="607.5" y="-490" font-family="Helvetica,sans-Serif" font-size="10.00"> elements</text>
</g>
<!-- Node4&#45;&gt;Node1 -->
<g id="edge4" class="edge"><title>Node4&#45;&gt;Node1</title>
<path fill="none" stroke="#9a32cd" stroke-dasharray="5,2" d="M521.703,-495.732C539.692,-498.137 562.541,-500.801 583,-502 808.426,-515.215 865.605,-506.74 1091,-493 1132.85,-490.449 1143.89,-493.25 1185,-485 1200.85,-481.818 1218.12,-476.323 1231.72,-471.501"/>
<polygon fill="#9a32cd" stroke="#9a32cd" points="522.111,-492.255 511.727,-494.358 521.157,-499.189 522.111,-492.255"/>
<text text-anchor="middle" x="903" y="-520" font-family="Helvetica,sans-Serif" font-size="10.00"> walkLocalObject</text>
<text text-anchor="middle" x="903" y="-509" font-family="Helvetica,sans-Serif" font-size="10.00">globalStore</text>
</g>
<!-- Node5&#45;&gt;Node1 -->
<g id="edge6" class="edge"><title>Node5&#45;&gt;Node1</title>
<path fill="none" stroke="#9a32cd" stroke-dasharray="5,2" d="M1041.66,-221.524C1086.4,-271.609 1213.82,-414.224 1247.98,-452.466"/>
<polygon fill="#9a32cd" stroke="#9a32cd" points="1044.03,-218.924 1034.75,-213.799 1038.81,-223.588 1044.03,-218.924"/>
<text text-anchor="middle" x="1147" y="-381" font-family="Helvetica,sans-Serif" font-size="10.00"> scopeInfo</text>
</g>
<!-- Node7 -->
<g id="node10" class="node"><title>Node7</title>
<polygon fill="white" stroke="#bfbfbf" points="474,-0.5 474,-19.5 503,-19.5 503,-0.5 474,-0.5"/>
<text text-anchor="middle" x="488.5" y="-7.5" font-family="Helvetica,sans-Serif" font-size="10.00">K</text>
</g>
<!-- Node7&#45;&gt;Node6 -->
<g id="edge8" class="edge"><title>Node7&#45;&gt;Node6</title>
<path fill="none" stroke="#9a32cd" stroke-dasharray="5,2" d="M513.014,-13.4633C559.418,-20.298 662.826,-35.5286 715.432,-43.2768"/>
<polygon fill="#9a32cd" stroke="#9a32cd" points="513.411,-9.98413 503.008,-11.9895 512.391,-16.9094 513.411,-9.98413"/>
<text text-anchor="middle" x="607.5" y="-34" font-family="Helvetica,sans-Serif" font-size="10.00"> keys</text>
</g>
<!-- Node8 -->
<g id="node11" class="node"><title>Node8</title>
<polygon fill="white" stroke="#bfbfbf" points="474,-38.5 474,-57.5 503,-57.5 503,-38.5 474,-38.5"/>
<text text-anchor="middle" x="488.5" y="-45.5" font-family="Helvetica,sans-Serif" font-size="10.00">T</text>
</g>
<!-- Node8&#45;&gt;Node6 -->
<g id="edge9" class="edge"><title>Node8&#45;&gt;Node6</title>
<path fill="none" stroke="#9a32cd" stroke-dasharray="5,2" d="M513.014,-48C559.418,-48 662.826,-48 715.432,-48"/>
<polygon fill="#9a32cd" stroke="#9a32cd" points="513.008,-44.5001 503.008,-48 513.008,-51.5001 513.008,-44.5001"/>
<text text-anchor="middle" x="607.5" y="-51" font-family="Helvetica,sans-Serif" font-size="10.00"> elements</text>
</g>
<!-- Node9 -->
<g id="node12" class="node"><title>Node9</title>
<g id="a_node12"><a xlink:href="classaworx_1_1lib_1_1strings_1_1String.html" target="_top" xlink:title="String">
<polygon fill="white" stroke="black" points="0,-135.5 0,-154.5 42,-154.5 42,-135.5 0,-135.5"/>
<text text-anchor="middle" x="21" y="-142.5" font-family="Helvetica,sans-Serif" font-size="10.00">String</text>
</a>
</g>
</g>
<!-- Node9&#45;&gt;Node5 -->
<g id="edge10" class="edge"><title>Node9&#45;&gt;Node5</title>
<path fill="none" stroke="#9a32cd" stroke-dasharray="5,2" d="M37.804,-127.86C55.6703,-110.44 86.5234,-86 119,-86 119,-86 119,-86 749.5,-86 838.691,-86 860.953,-106.662 941,-146 968.61,-159.569 997.258,-181.69 1012.62,-194.33"/>
<polygon fill="#9a32cd" stroke="#9a32cd" points="35.0529,-125.667 30.5499,-135.257 40.0506,-130.568 35.0529,-125.667"/>
<text text-anchor="middle" x="353.5" y="-89" font-family="Helvetica,sans-Serif" font-size="10.00"> threadName</text>
</g>
<!-- Node10 -->
<g id="node13" class="node"><title>Node10</title>
<g id="a_node13"><a xlink:href="classaworx_1_1lib_1_1strings_1_1TString.html" target="_top" xlink:title="TString">
<polygon fill="white" stroke="black" points="96,-135.5 96,-154.5 144,-154.5 144,-135.5 96,-135.5"/>
<text text-anchor="middle" x="120" y="-142.5" font-family="Helvetica,sans-Serif" font-size="10.00">TString</text>
</a>
</g>
</g>
<!-- Node9&#45;&gt;Node10 -->
<g id="edge11" class="edge"><title>Node9&#45;&gt;Node10</title>
<path fill="none" stroke="midnightblue" d="M52.2923,-145C66.3575,-145 82.8126,-145 95.8605,-145"/>
<polygon fill="midnightblue" stroke="midnightblue" points="52.0985,-141.5 42.0985,-145 52.0984,-148.5 52.0985,-141.5"/>
</g>
<!-- Node11 -->
<g id="node14" class="node"><title>Node11</title>
<g id="a_node14"><a xlink:href="structaworx_1_1lox_1_1core_1_1ScopeInfo_1_1SourceFile.html" target="_top" xlink:title="SourceFile">
<polygon fill="white" stroke="black" points="232,-161.5 232,-180.5 295,-180.5 295,-161.5 232,-161.5"/>
<text text-anchor="middle" x="263.5" y="-168.5" font-family="Helvetica,sans-Serif" font-size="10.00">SourceFile</text>
</a>
</g>
</g>
<!-- Node9&#45;&gt;Node11 -->
<g id="edge12" class="edge"><title>Node9&#45;&gt;Node11</title>
<path fill="none" stroke="#9a32cd" stroke-dasharray="5,2" d="M51.8779,-156.561C60.5089,-159.46 70.0236,-162.243 79,-164 138.155,-175.579 153.837,-180.707 214,-177 219.758,-176.645 225.88,-176.055 231.765,-175.381"/>
<polygon fill="#9a32cd" stroke="#9a32cd" points="52.8318,-153.186 42.237,-153.158 50.5019,-159.787 52.8318,-153.186"/>
<text text-anchor="middle" x="120" y="-224" font-family="Helvetica,sans-Serif" font-size="10.00"> fullPath</text>
<text text-anchor="middle" x="120" y="-213" font-family="Helvetica,sans-Serif" font-size="10.00">nameWOExt</text>
<text text-anchor="middle" x="120" y="-202" font-family="Helvetica,sans-Serif" font-size="10.00">trimmedPathPrefix</text>
<text text-anchor="middle" x="120" y="-191" font-family="Helvetica,sans-Serif" font-size="10.00">name</text>
<text text-anchor="middle" x="120" y="-180" font-family="Helvetica,sans-Serif" font-size="10.00">trimmedPath</text>
</g>
<!-- Node10&#45;&gt;Node5 -->
<g id="edge13" class="edge"><title>Node10&#45;&gt;Node5</title>
<path fill="none" stroke="#9a32cd" stroke-dasharray="5,2" d="M154.739,-140.149C183.357,-136.455 225.532,-132 262.5,-132 262.5,-132 262.5,-132 749.5,-132 846.805,-132 957.351,-174.854 1002.79,-194.439"/>
<polygon fill="#9a32cd" stroke="#9a32cd" points="153.924,-136.726 144.474,-141.516 154.849,-143.665 153.924,-136.726"/>
<text text-anchor="middle" x="488.5" y="-135" font-family="Helvetica,sans-Serif" font-size="10.00"> origMethod</text>
</g>
<!-- Node10&#45;&gt;Node11 -->
<g id="edge14" class="edge"><title>Node10&#45;&gt;Node11</title>
<path fill="none" stroke="#9a32cd" stroke-dasharray="5,2" d="M153.91,-151.047C177.409,-155.365 208.798,-161.132 231.784,-165.356"/>
<polygon fill="#9a32cd" stroke="#9a32cd" points="154.517,-147.6 144.049,-149.235 153.252,-154.485 154.517,-147.6"/>
<text text-anchor="middle" x="196.5" y="-165" font-family="Helvetica,sans-Serif" font-size="10.00"> origFile</text>
</g>
<!-- Node15 -->
<g id="node15" class="node"><title>Node15</title>
<g id="a_node15"><a xlink:href="classaworx_1_1lib_1_1strings_1_1AString.html" target="_top" xlink:title="AString">
<polygon fill="white" stroke="black" points="239,-206.5 239,-225.5 288,-225.5 288,-206.5 239,-206.5"/>
<text text-anchor="middle" x="263.5" y="-213.5" font-family="Helvetica,sans-Serif" font-size="10.00">AString</text>
</a>
</g>
</g>
<!-- Node10&#45;&gt;Node15 -->
<g id="edge15" class="edge"><title>Node10&#45;&gt;Node15</title>
<path fill="none" stroke="midnightblue" d="M146.31,-159.447C156.4,-165.079 168.17,-171.491 179,-177 199.821,-187.591 224.052,-198.787 241.031,-206.452"/>
<polygon fill="midnightblue" stroke="midnightblue" points="148.024,-156.395 137.592,-154.543 144.592,-162.496 148.024,-156.395"/>
</g>
<!-- Node11&#45;&gt;Node5 -->
<g id="edge16" class="edge"><title>Node11&#45;&gt;Node5</title>
<path fill="none" stroke="#9a32cd" stroke-dasharray="5,2" d="M305.195,-171.679C400.152,-173.405 643.73,-178.652 847,-190 898.86,-192.895 959.133,-198.044 994.277,-201.226"/>
<polygon fill="#9a32cd" stroke="#9a32cd" points="305.214,-168.179 295.153,-171.5 305.089,-175.178 305.214,-168.179"/>
<text text-anchor="middle" x="607.5" y="-194" font-family="Helvetica,sans-Serif" font-size="10.00"> cache</text>
<text text-anchor="middle" x="607.5" y="-183" font-family="Helvetica,sans-Serif" font-size="10.00">actual</text>
</g>
<!-- Node15&#45;&gt;Node16 -->
<g id="edge22" class="edge"><title>Node15&#45;&gt;Node16</title>
<path fill="none" stroke="midnightblue" d="M291.059,-230.622C298.143,-234.416 305.823,-238.436 313,-242 367.175,-268.907 432.245,-297.873 465.53,-312.454"/>
<polygon fill="midnightblue" stroke="midnightblue" points="292.334,-227.332 281.873,-225.652 289.003,-233.489 292.334,-227.332"/>
</g>
<!-- Node14 -->
<g id="node17" class="node"><title>Node14</title>
<g id="a_node17"><a xlink:href="structaworx_1_1lox_1_1core_1_1ScopeInfo_1_1SourcePathTrimRule.html" target="_top" xlink:title="SourcePathTrimRule">
<polygon fill="white" stroke="black" points="435,-206.5 435,-225.5 542,-225.5 542,-206.5 435,-206.5"/>
<text text-anchor="middle" x="488.5" y="-213.5" font-family="Helvetica,sans-Serif" font-size="10.00">SourcePathTrimRule</text>
</a>
</g>
</g>
<!-- Node15&#45;&gt;Node14 -->
<g id="edge21" class="edge"><title>Node15&#45;&gt;Node14</title>
<path fill="none" stroke="#9a32cd" stroke-dasharray="5,2" d="M298.428,-216C334.672,-216 392.592,-216 434.785,-216"/>
<polygon fill="#9a32cd" stroke="#9a32cd" points="298.365,-212.5 288.365,-216 298.365,-219.5 298.365,-212.5"/>
<text text-anchor="middle" x="353.5" y="-230" font-family="Helvetica,sans-Serif" font-size="10.00"> TrimReplacement</text>
<text text-anchor="middle" x="353.5" y="-219" font-family="Helvetica,sans-Serif" font-size="10.00">Path</text>
</g>
<!-- Node12 -->
<g id="node16" class="node"><title>Node12</title>
<g id="a_node16"><a xlink:href="classaworx_1_1lib_1_1time_1_1Ticks.html" target="_top" xlink:title="Ticks">
<polygon fill="white" stroke="black" points="728,-237.5 728,-256.5 769,-256.5 769,-237.5 728,-237.5"/>
<text text-anchor="middle" x="748.5" y="-244.5" font-family="Helvetica,sans-Serif" font-size="10.00">Ticks</text>
</a>
</g>
</g>
<!-- Node12&#45;&gt;Node5 -->
<g id="edge17" class="edge"><title>Node12&#45;&gt;Node5</title>
<path fill="none" stroke="#9a32cd" stroke-dasharray="5,2" d="M779.564,-245.41C817.467,-243.051 884.503,-237.701 941,-227 958.924,-223.605 978.614,-218.222 994.317,-213.517"/>
<polygon fill="#9a32cd" stroke="#9a32cd" points="779.005,-241.937 769.23,-246.023 779.42,-248.925 779.005,-241.937"/>
<text text-anchor="middle" x="903" y="-240" font-family="Helvetica,sans-Serif" font-size="10.00"> timeStamp</text>
</g>
<!-- Node12&#45;&gt;Node12 -->
<g id="edge18" class="edge"><title>Node12&#45;&gt;Node12</title>
<path fill="none" stroke="#9a32cd" stroke-dasharray="5,2" d="M722.265,-264.912C722.669,-270.552 731.414,-275 748.5,-275 773.93,-275 780.883,-265.146 769.36,-256.177"/>
<polygon fill="#9a32cd" stroke="#9a32cd" points="725.38,-266.528 727.64,-256.177 719.418,-262.86 725.38,-266.528"/>
<text text-anchor="middle" x="748.5" y="-278" font-family="Helvetica,sans-Serif" font-size="10.00"> creationTime</text>
</g>
<!-- Node14&#45;&gt;Node13 -->
<g id="edge20" class="edge"><title>Node14&#45;&gt;Node13</title>
<path fill="none" stroke="#9a32cd" stroke-dasharray="5,2" d="M552.127,-214.301C581.484,-213.504 617.144,-212.537 649.922,-211.647"/>
<polygon fill="#9a32cd" stroke="#9a32cd" points="551.922,-210.805 542.021,-214.575 552.112,-217.802 551.922,-210.805"/>
<text text-anchor="middle" x="607.5" y="-216" font-family="Helvetica,sans-Serif" font-size="10.00"> elements</text>
</g>
<!-- Node17&#45;&gt;Node20 -->
<g id="edge26" class="edge"><title>Node17&#45;&gt;Node20</title>
<path fill="none" stroke="#9a32cd" stroke-dasharray="5,2" d="M782.219,-388.744C820.35,-388.544 885.255,-388.512 941,-390 946.913,-390.158 953.061,-390.368 959.216,-390.609"/>
<polygon fill="#9a32cd" stroke="#9a32cd" points="782.183,-385.244 772.204,-388.803 782.224,-392.244 782.183,-385.244"/>
<text text-anchor="middle" x="903" y="-393" font-family="Helvetica,sans-Serif" font-size="10.00"> elements</text>
</g>
<!-- Node17&#45;&gt;Node5 -->
<g id="edge25" class="edge"><title>Node17&#45;&gt;Node5</title>
<path fill="none" stroke="#9a32cd" stroke-dasharray="5,2" d="M782.324,-386.398C823.138,-381.703 893.242,-368.69 941,-333 984.518,-300.478 1011.38,-237.872 1020.5,-213.78"/>
<polygon fill="#9a32cd" stroke="#9a32cd" points="781.701,-382.944 772.121,-387.468 782.431,-389.906 781.701,-382.944"/>
<text text-anchor="middle" x="903" y="-371" font-family="Helvetica,sans-Serif" font-size="10.00"> thread</text>
</g>
<!-- Node18 -->
<g id="node19" class="node"><title>Node18</title>
<g id="a_node19"><a xlink:href="classaworx_1_1lib_1_1threads_1_1Runnable.html" target="_top" xlink:title="Runnable">
<polygon fill="white" stroke="black" points="459.5,-437.5 459.5,-456.5 517.5,-456.5 517.5,-437.5 459.5,-437.5"/>
<text text-anchor="middle" x="488.5" y="-444.5" font-family="Helvetica,sans-Serif" font-size="10.00">Runnable</text>
</a>
</g>
</g>
<!-- Node18&#45;&gt;Node17 -->
<g id="edge27" class="edge"><title>Node18&#45;&gt;Node17</title>
<path fill="none" stroke="midnightblue" d="M527.548,-438.446C581.961,-426.214 680.321,-404.102 724.694,-394.127"/>
<polygon fill="midnightblue" stroke="midnightblue" points="526.59,-435.074 517.602,-440.683 528.126,-441.904 526.59,-435.074"/>
</g>
<!-- Node18&#45;&gt;Node17 -->
<g id="edge28" class="edge"><title>Node18&#45;&gt;Node17</title>
<path fill="none" stroke="#9a32cd" stroke-dasharray="5,2" d="M527.686,-443.093C556.565,-439.724 597.072,-434.111 632,-426 664.816,-418.38 701.729,-405.832 724.799,-397.492"/>
<polygon fill="#9a32cd" stroke="#9a32cd" points="527.148,-439.631 517.605,-444.233 527.935,-446.587 527.148,-439.631"/>
<text text-anchor="middle" x="607.5" y="-438" font-family="Helvetica,sans-Serif" font-size="10.00"> runnable</text>
</g>
<!-- Node21 -->
<g id="node20" class="node"><title>Node21</title>
<g id="a_node20"><a xlink:title="STL class. ">
<polygon fill="white" stroke="#bfbfbf" points="466.5,-379.5 466.5,-398.5 510.5,-398.5 510.5,-379.5 466.5,-379.5"/>
<text text-anchor="middle" x="488.5" y="-386.5" font-family="Helvetica,sans-Serif" font-size="10.00">thread</text>
</a>
</g>
</g>
<!-- Node21&#45;&gt;Node17 -->
<g id="edge30" class="edge"><title>Node21&#45;&gt;Node17</title>
<path fill="none" stroke="#9a32cd" stroke-dasharray="5,2" d="M520.722,-389C573.438,-389 678.85,-389 724.994,-389"/>
<polygon fill="#9a32cd" stroke="#9a32cd" points="520.613,-385.5 510.613,-389 520.613,-392.5 520.613,-385.5"/>
<text text-anchor="middle" x="607.5" y="-392" font-family="Helvetica,sans-Serif" font-size="10.00"> c11Thread</text>
</g>
</g>
</svg>
