<?xml version="1.0" encoding="UTF-8" standalone="no"?>
<!DOCTYPE svg PUBLIC "-//W3C//DTD SVG 1.1//EN"
 "http://www.w3.org/Graphics/SVG/1.1/DTD/svg11.dtd">
<!-- Generated by graphviz version 2.40.1 (20161225.0304)
 -->
<!-- Title: MetaInfo Pages: 1 -->
<svg width="441pt" height="319pt"
 viewBox="0.00 0.00 440.50 319.00" xmlns="http://www.w3.org/2000/svg" xmlns:xlink="http://www.w3.org/1999/xlink">
<g id="graph0" class="graph" transform="scale(1 1) rotate(0) translate(4 315)">
<title>MetaInfo</title>
<polygon fill="#ffffff" stroke="transparent" points="-4,4 -4,-315 436.5,-315 436.5,4 -4,4"/>
<!-- Node1 -->
<g id="node1" class="node">
<title>Node1</title>
<polygon fill="#bfbfbf" stroke="#000000" points="150,-.5 150,-19.5 205,-19.5 205,-.5 150,-.5"/>
<text text-anchor="middle" x="177.5" y="-7.5" font-family="Helvetica,sans-Serif" font-size="10.00" fill="#000000">MetaInfo</text>
</g>
<!-- Node2 -->
<g id="node2" class="node">
<title>Node2</title>
<g id="a_node2"><a xlink:href="classaworx_1_1lib_1_1strings_1_1PreallocatedString.html" target="_top" xlink:title="PreallocatedString\&lt;TCapacity\&gt;">
<polygon fill="#ffffff" stroke="#000000" points="64.5,-177.5 64.5,-196.5 216.5,-196.5 216.5,-177.5 64.5,-177.5"/>
<text text-anchor="middle" x="140.5" y="-184.5" font-family="Helvetica,sans-Serif" font-size="10.00" fill="#000000">PreallocatedString&lt;TCapacity&gt;</text>
</a>
</g>
</g>
<!-- Node2&#45;&gt;Node1 -->
<g id="edge1" class="edge">
<title>Node2&#45;&gt;Node1</title>
<path fill="none" stroke="#9a32cd" stroke-dasharray="5,2" d="M88.7342,-172.5113C83.1335,-168.9499 78.1523,-164.5169 74.5,-159 44.8136,-114.1584 41.8397,-80.7241 74.5,-38 83.644,-26.0384 122.6809,-17.9804 149.9764,-13.69"/>
<polygon fill="#9a32cd" stroke="#9a32cd" points="87.4724,-175.8049 97.9433,-177.4209 90.7655,-169.6279 87.4724,-175.8049"/>
<text text-anchor="middle" x="115" y="-151" font-family="Helvetica,sans-Serif" font-size="10.00" fill="#000000"> TimeDiffHours</text>
<text text-anchor="middle" x="115" y="-140" font-family="Helvetica,sans-Serif" font-size="10.00" fill="#000000">VerbosityInfo</text>
<text text-anchor="middle" x="115" y="-129" font-family="Helvetica,sans-Serif" font-size="10.00" fill="#000000">VerbosityWarning</text>
<text text-anchor="middle" x="115" y="-118" font-family="Helvetica,sans-Serif" font-size="10.00" fill="#000000">VerbosityVerbose</text>
<text text-anchor="middle" x="115" y="-107" font-family="Helvetica,sans-Serif" font-size="10.00" fill="#000000">TimeDiffMicros</text>
<text text-anchor="middle" x="115" y="-96" font-family="Helvetica,sans-Serif" font-size="10.00" fill="#000000">TimeElapsedDays</text>
<text text-anchor="middle" x="115" y="-85" font-family="Helvetica,sans-Serif" font-size="10.00" fill="#000000">VerbosityError</text>
<text text-anchor="middle" x="115" y="-74" font-family="Helvetica,sans-Serif" font-size="10.00" fill="#000000">TimeOfDayFormat</text>
<text text-anchor="middle" x="115" y="-63" font-family="Helvetica,sans-Serif" font-size="10.00" fill="#000000">TimeDiffMins</text>
<text text-anchor="middle" x="115" y="-52" font-family="Helvetica,sans-Serif" font-size="10.00" fill="#000000">TimeDiffSecs</text>
<text text-anchor="middle" x="115" y="-41" font-family="Helvetica,sans-Serif" font-size="10.00" fill="#000000">...</text>
</g>
<!-- Node2&#45;&gt;Node1 -->
<g id="edge2" class="edge">
<title>Node2&#45;&gt;Node1</title>
<path fill="none" stroke="#9a32cd" stroke-dasharray="5,2" d="M151.6561,-168.2789C153.1276,-165.2519 154.4773,-162.0942 155.5,-159 172.2394,-108.3516 176.2706,-43.8076 177.2176,-19.6764"/>
<polygon fill="#9a32cd" stroke="#9a32cd" points="148.4733,-166.8066 146.7916,-177.2671 154.6295,-170.1385 148.4733,-166.8066"/>
<text text-anchor="middle" x="203" y="-96" font-family="Helvetica,sans-Serif" font-size="10.00" fill="#000000"> DateFormat</text>
</g>
<!-- Node3 -->
<g id="node3" class="node">
<title>Node3</title>
<g id="a_node3"><a xlink:href="classaworx_1_1lib_1_1strings_1_1AString.html" target="_top" xlink:title="AString">
<polygon fill="#ffffff" stroke="#000000" points="0,-234.5 0,-253.5 49,-253.5 49,-234.5 0,-234.5"/>
<text text-anchor="middle" x="24.5" y="-241.5" font-family="Helvetica,sans-Serif" font-size="10.00" fill="#000000">AString</text>
</a>
</g>
</g>
<!-- Node3&#45;&gt;Node1 -->
<g id="edge3" class="edge">
<title>Node3&#45;&gt;Node1</title>
<path fill="none" stroke="#9a32cd" stroke-dasharray="5,2" d="M19.6069,-224.2955C10.7499,-183.402 -2.7645,-88.8982 46.5,-38 60.5315,-23.5032 115.7152,-15.7953 149.8255,-12.3329"/>
<polygon fill="#9a32cd" stroke="#9a32cd" points="16.2143,-225.1598 21.8737,-234.1165 23.035,-223.5855 16.2143,-225.1598"/>
<text text-anchor="middle" x="32.5" y="-184.5" font-family="Helvetica,sans-Serif" font-size="10.00" fill="#000000"> Format</text>
</g>
<!-- Node3&#45;&gt;Node2 -->
<g id="edge4" class="edge">
<title>Node3&#45;&gt;Node2</title>
<path fill="none" stroke="#191970" d="M53.0669,-229.9628C74.2014,-219.5778 102.4299,-205.7069 121.0209,-196.5716"/>
<polygon fill="#191970" stroke="#191970" points="51.3472,-226.908 43.9158,-234.4595 54.4344,-233.1906 51.3472,-226.908"/>
</g>
<!-- Node4 -->
<g id="node4" class="node">
<title>Node4</title>
<g id="a_node4"><a xlink:href="classaworx_1_1lib_1_1strings_1_1TString.html" target="_top" xlink:title="TString">
<polygon fill="#ffffff" stroke="#ff0000" points=".5,-291.5 .5,-310.5 48.5,-310.5 48.5,-291.5 .5,-291.5"/>
<text text-anchor="middle" x="24.5" y="-298.5" font-family="Helvetica,sans-Serif" font-size="10.00" fill="#000000">TString</text>
</a>
</g>
</g>
<!-- Node4&#45;&gt;Node3 -->
<g id="edge5" class="edge">
<title>Node4&#45;&gt;Node3</title>
<path fill="none" stroke="#191970" d="M24.5,-281.2342C24.5,-271.8491 24.5,-261.0651 24.5,-253.5265"/>
<polygon fill="#191970" stroke="#191970" points="21.0001,-281.3307 24.5,-291.3307 28.0001,-281.3308 21.0001,-281.3307"/>
</g>
<!-- Node6 -->
<g id="node5" class="node">
<title>Node6</title>
<g id="a_node5"><a xlink:href="classaworx_1_1lib_1_1time_1_1Ticks.html" target="_top" xlink:title="Ticks">
<polygon fill="#ffffff" stroke="#000000" points="235,-177.5 235,-196.5 276,-196.5 276,-177.5 235,-177.5"/>
<text text-anchor="middle" x="255.5" y="-184.5" font-family="Helvetica,sans-Serif" font-size="10.00" fill="#000000">Ticks</text>
</a>
</g>
</g>
<!-- Node6&#45;&gt;Node1 -->
<g id="edge6" class="edge">
<title>Node6&#45;&gt;Node1</title>
<path fill="none" stroke="#9a32cd" stroke-dasharray="5,2" d="M254.806,-167.1385C253.2009,-131.4387 248.1716,-58.2553 233.5,-38 226.6135,-28.4927 215.5707,-22.0238 205.1041,-17.7217"/>
<polygon fill="#9a32cd" stroke="#9a32cd" points="251.3154,-167.4464 255.2147,-177.2976 258.3098,-167.1649 251.3154,-167.4464"/>
<text text-anchor="middle" x="293" y="-96" font-family="Helvetica,sans-Serif" font-size="10.00" fill="#000000"> MaxElapsedTime</text>
</g>
<!-- Node8 -->
<g id="node6" class="node">
<title>Node8</title>
<g id="a_node6"><a xlink:href="classaworx_1_1lib_1_1time_1_1TicksCalendarTime.html" target="_top" xlink:title="TicksCalendarTime">
<polygon fill="#ffffff" stroke="#000000" points="307,-177.5 307,-196.5 408,-196.5 408,-177.5 307,-177.5"/>
<text text-anchor="middle" x="357.5" y="-184.5" font-family="Helvetica,sans-Serif" font-size="10.00" fill="#000000">TicksCalendarTime</text>
</a>
</g>
</g>
<!-- Node8&#45;&gt;Node1 -->
<g id="edge7" class="edge">
<title>Node8&#45;&gt;Node1</title>
<path fill="none" stroke="#9a32cd" stroke-dasharray="5,2" d="M361.1224,-167.1097C365.678,-135.2261 369.2555,-72.742 335.5,-38 317.8343,-19.818 245.4288,-13.3365 205.0454,-11.1085"/>
<polygon fill="#9a32cd" stroke="#9a32cd" points="357.6056,-166.9337 359.4671,-177.3637 364.5161,-168.0493 357.6056,-166.9337"/>
<text text-anchor="middle" x="398" y="-96" font-family="Helvetica,sans-Serif" font-size="10.00" fill="#000000"> callerDateTime</text>
</g>
</g>
</svg>
