<?xml version="1.0" encoding="UTF-8" standalone="no"?>
<!DOCTYPE svg PUBLIC "-//W3C//DTD SVG 1.1//EN"
 "http://www.w3.org/Graphics/SVG/1.1/DTD/svg11.dtd">
<!-- Generated by graphviz version 2.40.1 (20161225.0304)
 -->
<!-- Title: IniFile::Section Pages: 1 -->
<svg width="927pt" height="116pt"
 viewBox="0.00 0.00 927.00 115.56" xmlns="http://www.w3.org/2000/svg" xmlns:xlink="http://www.w3.org/1999/xlink">
<g id="graph0" class="graph" transform="scale(1 1) rotate(0) translate(4 111.5592)">
<title>IniFile::Section</title>
<polygon fill="#ffffff" stroke="transparent" points="-4,4 -4,-111.5592 923,-111.5592 923,4 -4,4"/>
<!-- Node2 -->
<g id="node1" class="node">
<title>Node2</title>
<polygon fill="#bfbfbf" stroke="#000000" points="837,-41.0592 837,-60.0592 919,-60.0592 919,-41.0592 837,-41.0592"/>
<text text-anchor="middle" x="878" y="-48.0592" font-family="Helvetica,sans-Serif" font-size="10.00" fill="#000000">IniFile::Section</text>
</g>
<!-- Node8 -->
<g id="node2" class="node">
<title>Node8</title>
<polygon fill="#ffffff" stroke="#bfbfbf" points="518,-3.0592 518,-22.0592 680,-22.0592 680,-3.0592 518,-3.0592"/>
<text text-anchor="middle" x="599" y="-10.0592" font-family="Helvetica,sans-Serif" font-size="10.00" fill="#000000">vector&lt;InMemoryPlugin::Entry *&gt;</text>
</g>
<!-- Node3 -->
<g id="node4" class="node">
<title>Node3</title>
<g id="a_node4"><a xlink:href="classaworx_1_1lib_1_1config_1_1InMemoryPlugin_1_1Section.html" target="_top" xlink:title="Section">
<polygon fill="#ffffff" stroke="#000000" points="750,-41.0592 750,-60.0592 800,-60.0592 800,-41.0592 750,-41.0592"/>
<text text-anchor="middle" x="775" y="-48.0592" font-family="Helvetica,sans-Serif" font-size="10.00" fill="#000000">Section</text>
</a>
</g>
</g>
<!-- Node8&#45;&gt;Node3 -->
<g id="edge8" class="edge">
<title>Node8&#45;&gt;Node3</title>
<path fill="none" stroke="#9a32cd" stroke-dasharray="5,2" d="M690.5314,-16.2836C704.6247,-18.3466 718.852,-21.3181 732,-25.5592 742.6838,-29.0055 753.6054,-35.3985 761.7683,-40.8567"/>
<polygon fill="#9a32cd" stroke="#9a32cd" points="690.6819,-12.7733 680.3104,-14.9368 689.7674,-19.7133 690.6819,-12.7733"/>
<text text-anchor="middle" x="715" y="-28.5592" font-family="Helvetica,sans-Serif" font-size="10.00" fill="#000000"> Entries</text>
</g>
<!-- Node7 -->
<g id="node3" class="node">
<title>Node7</title>
<g id="a_node3"><a xlink:href="classaworx_1_1lib_1_1strings_1_1PreallocatedString.html" target="_top" xlink:title="PreallocatedString\&lt;TCapacity\&gt;">
<polygon fill="#ffffff" stroke="#000000" points="171,-31.0592 171,-50.0592 323,-50.0592 323,-31.0592 171,-31.0592"/>
<text text-anchor="middle" x="247" y="-38.0592" font-family="Helvetica,sans-Serif" font-size="10.00" fill="#000000">PreallocatedString&lt;TCapacity&gt;</text>
</a>
</g>
</g>
<!-- Node7&#45;&gt;Node3 -->
<g id="edge6" class="edge">
<title>Node7&#45;&gt;Node3</title>
<path fill="none" stroke="#9a32cd" stroke-dasharray="5,2" d="M333.36,-42.1948C456.454,-44.5261 675.6646,-48.6779 749.7426,-50.0809"/>
<polygon fill="#9a32cd" stroke="#9a32cd" points="333.2764,-38.6927 323.2118,-42.0026 333.1437,-45.6915 333.2764,-38.6927"/>
<text text-anchor="middle" x="478.5" y="-47.5592" font-family="Helvetica,sans-Serif" font-size="10.00" fill="#000000"> Name</text>
</g>
<!-- Node9 -->
<g id="node6" class="node">
<title>Node9</title>
<g id="a_node6"><a xlink:href="classaworx_1_1lib_1_1config_1_1InMemoryPlugin_1_1Entry.html" target="_top" xlink:title="Entry">
<polygon fill="#ffffff" stroke="#ff0000" points="393.5,-3.0592 393.5,-22.0592 433.5,-22.0592 433.5,-3.0592 393.5,-3.0592"/>
<text text-anchor="middle" x="413.5" y="-10.0592" font-family="Helvetica,sans-Serif" font-size="10.00" fill="#000000">Entry</text>
</a>
</g>
</g>
<!-- Node7&#45;&gt;Node9 -->
<g id="edge7" class="edge">
<title>Node7&#45;&gt;Node9</title>
<path fill="none" stroke="#9a32cd" stroke-dasharray="5,2" d="M313.7688,-29.3308C342.2364,-24.5435 373.3824,-19.3057 393.1619,-15.9794"/>
<polygon fill="#9a32cd" stroke="#9a32cd" points="313.1152,-25.8915 303.8342,-31.0015 314.2762,-32.7946 313.1152,-25.8915"/>
<text text-anchor="middle" x="355.5" y="-27.5592" font-family="Helvetica,sans-Serif" font-size="10.00" fill="#000000"> Name</text>
</g>
<!-- Node3&#45;&gt;Node2 -->
<g id="edge1" class="edge">
<title>Node3&#45;&gt;Node2</title>
<path fill="none" stroke="#191970" d="M810.4529,-50.5592C818.8803,-50.5592 827.9447,-50.5592 836.6114,-50.5592"/>
<polygon fill="#191970" stroke="#191970" points="810.1967,-47.0593 800.1966,-50.5592 810.1966,-54.0593 810.1967,-47.0593"/>
</g>
<!-- Node4 -->
<g id="node5" class="node">
<title>Node4</title>
<g id="a_node5"><a xlink:href="classaworx_1_1lib_1_1strings_1_1AString.html" target="_top" xlink:title="AString">
<polygon fill="#ffffff" stroke="#000000" points="85,-31.0592 85,-50.0592 134,-50.0592 134,-31.0592 85,-31.0592"/>
<text text-anchor="middle" x="109.5" y="-38.0592" font-family="Helvetica,sans-Serif" font-size="10.00" fill="#000000">AString</text>
</a>
</g>
</g>
<!-- Node4&#45;&gt;Node7 -->
<g id="edge3" class="edge">
<title>Node4&#45;&gt;Node7</title>
<path fill="none" stroke="#191970" d="M144.2926,-40.5592C152.4785,-40.5592 161.522,-40.5592 170.748,-40.5592"/>
<polygon fill="#191970" stroke="#191970" points="144.0823,-37.0593 134.0822,-40.5592 144.0822,-44.0593 144.0823,-37.0593"/>
</g>
<!-- Node4&#45;&gt;Node3 -->
<g id="edge2" class="edge">
<title>Node4&#45;&gt;Node3</title>
<path fill="none" stroke="#9a32cd" stroke-dasharray="5,2" d="M131.6414,-55.8106C157.9196,-72.3927 203.653,-96.5592 247,-96.5592 247,-96.5592 247,-96.5592 599,-96.5592 656.1633,-96.5592 720.4753,-73.5641 753.2518,-60.0904"/>
<polygon fill="#9a32cd" stroke="#9a32cd" points="133.4843,-52.8341 123.1936,-50.3137 129.6665,-58.7013 133.4843,-52.8341"/>
<text text-anchor="middle" x="413.5" y="-99.5592" font-family="Helvetica,sans-Serif" font-size="10.00" fill="#000000"> Comments</text>
</g>
<!-- Node4&#45;&gt;Node9 -->
<g id="edge4" class="edge">
<title>Node4&#45;&gt;Node9</title>
<path fill="none" stroke="#9a32cd" stroke-dasharray="5,2" d="M133.4095,-25.7492C144.4234,-19.7699 157.9291,-13.5773 171,-10.5592 251.6098,8.0535 351.3462,-3.0856 393.3535,-9.2689"/>
<polygon fill="#9a32cd" stroke="#9a32cd" points="131.3969,-22.8679 124.4458,-30.8638 134.866,-28.9479 131.3969,-22.8679"/>
<text text-anchor="middle" x="247" y="-13.5592" font-family="Helvetica,sans-Serif" font-size="10.00" fill="#000000"> Comments</text>
</g>
<!-- Node9&#45;&gt;Node8 -->
<g id="edge9" class="edge">
<title>Node9&#45;&gt;Node8</title>
<path fill="none" stroke="#9a32cd" stroke-dasharray="5,2" d="M443.8322,-12.5592C464.0331,-12.5592 491.6047,-12.5592 517.9058,-12.5592"/>
<polygon fill="#9a32cd" stroke="#9a32cd" points="443.7049,-9.0593 433.7049,-12.5592 443.7048,-16.0593 443.7049,-9.0593"/>
<text text-anchor="middle" x="478.5" y="-15.5592" font-family="Helvetica,sans-Serif" font-size="10.00" fill="#000000"> elements</text>
</g>
<!-- Node5 -->
<g id="node7" class="node">
<title>Node5</title>
<g id="a_node7"><a xlink:href="classaworx_1_1lib_1_1strings_1_1TString.html" target="_top" xlink:title="TString">
<polygon fill="#ffffff" stroke="#ff0000" points="0,-31.0592 0,-50.0592 48,-50.0592 48,-31.0592 0,-31.0592"/>
<text text-anchor="middle" x="24" y="-38.0592" font-family="Helvetica,sans-Serif" font-size="10.00" fill="#000000">TString</text>
</a>
</g>
</g>
<!-- Node5&#45;&gt;Node4 -->
<g id="edge5" class="edge">
<title>Node5&#45;&gt;Node4</title>
<path fill="none" stroke="#191970" d="M58.3599,-40.5592C67.2317,-40.5592 76.6054,-40.5592 84.8702,-40.5592"/>
<polygon fill="#191970" stroke="#191970" points="58.2722,-37.0593 48.2722,-40.5592 58.2721,-44.0593 58.2722,-37.0593"/>
</g>
</g>
</svg>
