<?xml version="1.0" encoding="UTF-8" standalone="no"?>
<!DOCTYPE svg PUBLIC "-//W3C//DTD SVG 1.1//EN"
 "http://www.w3.org/Graphics/SVG/1.1/DTD/svg11.dtd">
<!-- Generated by graphviz version 2.40.1 (20161225.0304)
 -->
<!-- Title: Report Pages: 1 -->
<svg width="548pt" height="240pt"
 viewBox="0.00 0.00 547.50 240.00" xmlns="http://www.w3.org/2000/svg" xmlns:xlink="http://www.w3.org/1999/xlink">
<g id="graph0" class="graph" transform="scale(1 1) rotate(0) translate(4 236)">
<title>Report</title>
<polygon fill="#ffffff" stroke="transparent" points="-4,4 -4,-236 543.5,-236 543.5,4 -4,4"/>
<!-- Node1 -->
<g id="node1" class="node">
<title>Node1</title>
<polygon fill="#bfbfbf" stroke="#000000" points="115,-.5 115,-19.5 160,-19.5 160,-.5 115,-.5"/>
<text text-anchor="middle" x="137.5" y="-7.5" font-family="Helvetica,sans-Serif" font-size="10.00" fill="#000000">Report</text>
</g>
<!-- Node1&#45;&gt;Node1 -->
<g id="edge1" class="edge">
<title>Node1&#45;&gt;Node1</title>
<path fill="none" stroke="#9a32cd" stroke-dasharray="5,2" d="M170.5033,-15.3327C175.0015,-14.4436 178,-12.666 178,-10 178,-5.625 169.925,-3.6426 160.3991,-4.0527"/>
<polygon fill="#9a32cd" stroke="#9a32cd" points="170.1682,-11.8465 160.3991,-15.9473 170.5932,-18.8336 170.1682,-11.8465"/>
<text text-anchor="middle" x="208.5" y="-7.5" font-family="Helvetica,sans-Serif" font-size="10.00" fill="#000000"> defaultReport</text>
</g>
<!-- Node2 -->
<g id="node2" class="node">
<title>Node2</title>
<polygon fill="#ffffff" stroke="#bfbfbf" points="0,-67.5 0,-86.5 63,-86.5 63,-67.5 0,-67.5"/>
<text text-anchor="middle" x="31.5" y="-74.5" font-family="Helvetica,sans-Serif" font-size="10.00" fill="#000000">stack&lt;int&gt;</text>
</g>
<!-- Node2&#45;&gt;Node1 -->
<g id="edge2" class="edge">
<title>Node2&#45;&gt;Node1</title>
<path fill="none" stroke="#9a32cd" stroke-dasharray="5,2" d="M43.37,-59.3463C49.0548,-51.9528 56.3911,-43.7572 64.5,-38 79.6632,-27.2344 99.5036,-19.9723 114.6726,-15.5472"/>
<polygon fill="#9a32cd" stroke="#9a32cd" points="40.5255,-57.3071 37.5078,-67.4631 46.2002,-61.4056 40.5255,-57.3071"/>
<text text-anchor="middle" x="99" y="-41" font-family="Helvetica,sans-Serif" font-size="10.00" fill="#000000"> haltAfterReport</text>
</g>
<!-- Node3 -->
<g id="node3" class="node">
<title>Node3</title>
<polygon fill="#ffffff" stroke="#bfbfbf" points="81,-67.5 81,-86.5 194,-86.5 194,-67.5 81,-67.5"/>
<text text-anchor="middle" x="137.5" y="-74.5" font-family="Helvetica,sans-Serif" font-size="10.00" fill="#000000">stack&lt;ReportWriter *&gt;</text>
</g>
<!-- Node3&#45;&gt;Node1 -->
<g id="edge3" class="edge">
<title>Node3&#45;&gt;Node1</title>
<path fill="none" stroke="#9a32cd" stroke-dasharray="5,2" d="M137.5,-57.1079C137.5,-44.714 137.5,-29.3263 137.5,-19.5817"/>
<polygon fill="#9a32cd" stroke="#9a32cd" points="134.0001,-57.4005 137.5,-67.4005 141.0001,-57.4006 134.0001,-57.4005"/>
<text text-anchor="middle" x="153.5" y="-41" font-family="Helvetica,sans-Serif" font-size="10.00" fill="#000000"> writers</text>
</g>
<!-- Node11 -->
<g id="node4" class="node">
<title>Node11</title>
<g id="a_node4"><a xlink:href="classaworx_1_1lib_1_1strings_1_1PreallocatedString.html" target="_top" xlink:title="PreallocatedString\&lt;TCapacity\&gt;">
<polygon fill="#ffffff" stroke="#ff0000" points="241.5,-212.5 241.5,-231.5 393.5,-231.5 393.5,-212.5 241.5,-212.5"/>
<text text-anchor="middle" x="317.5" y="-219.5" font-family="Helvetica,sans-Serif" font-size="10.00" fill="#000000">PreallocatedString&lt;TCapacity&gt;</text>
</a>
</g>
</g>
<!-- Node9 -->
<g id="node9" class="node">
<title>Node9</title>
<g id="a_node9"><a xlink:href="classaworx_1_1lib_1_1threads_1_1Thread.html" target="_top" xlink:title="Thread">
<polygon fill="#ffffff" stroke="#000000" points="384,-134.5 384,-153.5 431,-153.5 431,-134.5 384,-134.5"/>
<text text-anchor="middle" x="407.5" y="-141.5" font-family="Helvetica,sans-Serif" font-size="10.00" fill="#000000">Thread</text>
</a>
</g>
</g>
<!-- Node11&#45;&gt;Node9 -->
<g id="edge11" class="edge">
<title>Node11&#45;&gt;Node9</title>
<path fill="none" stroke="#9a32cd" stroke-dasharray="5,2" d="M336.1882,-205.8036C354.3569,-190.0574 381.3466,-166.6663 396.374,-153.6426"/>
<polygon fill="#9a32cd" stroke="#9a32cd" points="333.8004,-203.2414 328.5358,-212.4357 338.385,-208.5312 333.8004,-203.2414"/>
<text text-anchor="middle" x="386.5" y="-180.5" font-family="Helvetica,sans-Serif" font-size="10.00" fill="#000000"> name</text>
</g>
<!-- Node4 -->
<g id="node5" class="node">
<title>Node4</title>
<g id="a_node5"><a xlink:href="classaworx_1_1lib_1_1lang_1_1ReportWriter.html" target="_top" xlink:title="ReportWriter">
<polygon fill="#ffffff" stroke="#000000" points="102,-134.5 102,-153.5 173,-153.5 173,-134.5 102,-134.5"/>
<text text-anchor="middle" x="137.5" y="-141.5" font-family="Helvetica,sans-Serif" font-size="10.00" fill="#000000">ReportWriter</text>
</a>
</g>
</g>
<!-- Node4&#45;&gt;Node3 -->
<g id="edge4" class="edge">
<title>Node4&#45;&gt;Node3</title>
<path fill="none" stroke="#9a32cd" stroke-dasharray="5,2" d="M137.5,-124.1079C137.5,-111.714 137.5,-96.3263 137.5,-86.5817"/>
<polygon fill="#9a32cd" stroke="#9a32cd" points="134.0001,-124.4005 137.5,-134.4005 141.0001,-124.4006 134.0001,-124.4005"/>
<text text-anchor="middle" x="159" y="-108" font-family="Helvetica,sans-Serif" font-size="10.00" fill="#000000"> elements</text>
</g>
<!-- Node5 -->
<g id="node6" class="node">
<title>Node5</title>
<g id="a_node6"><a xlink:href="classaworx_1_1lib_1_1threads_1_1ThreadLock.html" target="_top" xlink:title="ThreadLock">
<polygon fill="#ffffff" stroke="#000000" points="212.5,-67.5 212.5,-86.5 280.5,-86.5 280.5,-67.5 212.5,-67.5"/>
<text text-anchor="middle" x="246.5" y="-74.5" font-family="Helvetica,sans-Serif" font-size="10.00" fill="#000000">ThreadLock</text>
</a>
</g>
</g>
<!-- Node5&#45;&gt;Node1 -->
<g id="edge5" class="edge">
<title>Node5&#45;&gt;Node1</title>
<path fill="none" stroke="#9a32cd" stroke-dasharray="5,2" d="M222.1569,-62.0368C201.0463,-49.0605 171.1252,-30.6687 153.0881,-19.5817"/>
<polygon fill="#9a32cd" stroke="#9a32cd" points="220.5308,-65.1456 230.883,-67.4005 224.1965,-59.1821 220.5308,-65.1456"/>
<text text-anchor="middle" x="210.5" y="-41" font-family="Helvetica,sans-Serif" font-size="10.00" fill="#000000"> lock</text>
</g>
<!-- Node6 -->
<g id="node7" class="node">
<title>Node6</title>
<g id="a_node7"><a xlink:href="classaworx_1_1lib_1_1lang_1_1Ownable.html" target="_top" xlink:title="Ownable">
<polygon fill="#ffffff" stroke="#000000" points="205.5,-134.5 205.5,-153.5 259.5,-153.5 259.5,-134.5 205.5,-134.5"/>
<text text-anchor="middle" x="232.5" y="-141.5" font-family="Helvetica,sans-Serif" font-size="10.00" fill="#000000">Ownable</text>
</a>
</g>
</g>
<!-- Node6&#45;&gt;Node5 -->
<g id="edge6" class="edge">
<title>Node6&#45;&gt;Node5</title>
<path fill="none" stroke="#191970" d="M236.5775,-124.4863C239.1806,-112.0286 242.4409,-96.4258 244.4979,-86.5817"/>
<polygon fill="#191970" stroke="#191970" points="233.1253,-123.896 234.5059,-134.4005 239.9773,-125.3279 233.1253,-123.896"/>
</g>
<!-- Node7 -->
<g id="node8" class="node">
<title>Node7</title>
<g id="a_node8"><a xlink:href="classaworx_1_1lib_1_1strings_1_1TString.html" target="_top" xlink:title="TString">
<polygon fill="#ffffff" stroke="#ff0000" points="165.5,-212.5 165.5,-231.5 213.5,-231.5 213.5,-212.5 165.5,-212.5"/>
<text text-anchor="middle" x="189.5" y="-219.5" font-family="Helvetica,sans-Serif" font-size="10.00" fill="#000000">TString</text>
</a>
</g>
</g>
<!-- Node7&#45;&gt;Node6 -->
<g id="edge7" class="edge">
<title>Node7&#45;&gt;Node6</title>
<path fill="none" stroke="#9a32cd" stroke-dasharray="5,2" d="M185.8199,-202.5425C184.9542,-192.8111 185.4668,-181.1827 190.5,-172 194.7964,-164.1615 202.3367,-158.1242 209.8539,-153.6972"/>
<polygon fill="#9a32cd" stroke="#9a32cd" points="182.3602,-203.0751 187.2153,-212.492 189.2924,-202.1028 182.3602,-203.0751"/>
<text text-anchor="middle" x="248" y="-186" font-family="Helvetica,sans-Serif" font-size="10.00" fill="#000000"> acquirementMethodName</text>
<text text-anchor="middle" x="248" y="-175" font-family="Helvetica,sans-Serif" font-size="10.00" fill="#000000">acquirementSourcefile</text>
</g>
<!-- Node9&#45;&gt;Node5 -->
<g id="edge8" class="edge">
<title>Node9&#45;&gt;Node5</title>
<path fill="none" stroke="#9a32cd" stroke-dasharray="5,2" d="M374.8478,-130.4118C343.5555,-117.3895 297.1223,-98.0664 269.5246,-86.5817"/>
<polygon fill="#9a32cd" stroke="#9a32cd" points="373.8554,-133.7898 384.4326,-134.4005 376.5449,-127.327 373.8554,-133.7898"/>
<text text-anchor="middle" x="351" y="-108" font-family="Helvetica,sans-Serif" font-size="10.00" fill="#000000"> owner</text>
</g>
<!-- Node10 -->
<g id="node10" class="node">
<title>Node10</title>
<g id="a_node10"><a xlink:href="classaworx_1_1lib_1_1threads_1_1Runnable.html" target="_top" xlink:title="Runnable">
<polygon fill="#ffffff" stroke="#000000" points="412,-212.5 412,-231.5 469,-231.5 469,-212.5 412,-212.5"/>
<text text-anchor="middle" x="440.5" y="-219.5" font-family="Helvetica,sans-Serif" font-size="10.00" fill="#000000">Runnable</text>
</a>
</g>
</g>
<!-- Node10&#45;&gt;Node9 -->
<g id="edge9" class="edge">
<title>Node10&#45;&gt;Node9</title>
<path fill="none" stroke="#191970" d="M427.0337,-203.9623C424.9946,-200.7473 423.056,-197.352 421.5,-194 415.2753,-180.5907 411.2804,-163.842 409.213,-153.5358"/>
<polygon fill="#191970" stroke="#191970" points="424.2604,-206.1063 432.8129,-212.3597 430.0268,-202.1378 424.2604,-206.1063"/>
</g>
<!-- Node10&#45;&gt;Node9 -->
<g id="edge10" class="edge">
<title>Node10&#45;&gt;Node9</title>
<path fill="none" stroke="#9a32cd" stroke-dasharray="5,2" d="M432.5402,-203.186C425.9288,-187.5589 416.7917,-165.9623 411.5795,-153.6426"/>
<polygon fill="#9a32cd" stroke="#9a32cd" points="429.3337,-204.5897 436.4536,-212.4357 435.7805,-201.8622 429.3337,-204.5897"/>
<text text-anchor="middle" x="447.5" y="-180.5" font-family="Helvetica,sans-Serif" font-size="10.00" fill="#000000"> runnable</text>
</g>
<!-- Node13 -->
<g id="node11" class="node">
<title>Node13</title>
<g id="a_node11"><a xlink:title="STL class. ">
<polygon fill="#ffffff" stroke="#bfbfbf" points="487.5,-212.5 487.5,-231.5 531.5,-231.5 531.5,-212.5 487.5,-212.5"/>
<text text-anchor="middle" x="509.5" y="-219.5" font-family="Helvetica,sans-Serif" font-size="10.00" fill="#000000">thread</text>
</a>
</g>
</g>
<!-- Node13&#45;&gt;Node9 -->
<g id="edge12" class="edge">
<title>Node13&#45;&gt;Node9</title>
<path fill="none" stroke="#9a32cd" stroke-dasharray="5,2" d="M498.8246,-203.6238C492.0604,-193.252 482.5213,-180.672 471.5,-172 459.586,-162.6255 444.048,-155.7301 431.2655,-151.1278"/>
<polygon fill="#9a32cd" stroke="#9a32cd" points="495.9846,-205.6861 504.2193,-212.3525 501.9392,-202.0059 495.9846,-205.6861"/>
<text text-anchor="middle" x="515" y="-180.5" font-family="Helvetica,sans-Serif" font-size="10.00" fill="#000000"> c11Thread</text>
</g>
</g>
</svg>
