<?xml version="1.0" encoding="UTF-8" standalone="no"?>
<!DOCTYPE svg PUBLIC "-//W3C//DTD SVG 1.1//EN"
 "http://www.w3.org/Graphics/SVG/1.1/DTD/svg11.dtd">
<!-- Generated by graphviz version 2.40.1 (20161225.0304)
 -->
<!-- Title: ESC Pages: 1 -->
<svg width="127pt" height="319pt"
 viewBox="0.00 0.00 127.00 319.00" xmlns="http://www.w3.org/2000/svg" xmlns:xlink="http://www.w3.org/1999/xlink">
<g id="graph0" class="graph" transform="scale(1 1) rotate(0) translate(4 315)">
<title>ESC</title>
<polygon fill="#ffffff" stroke="transparent" points="-4,4 -4,-315 123,-315 123,4 -4,4"/>
<!-- Node1 -->
<g id="node1" class="node">
<title>Node1</title>
<polygon fill="#bfbfbf" stroke="#000000" points="39.5,-.5 39.5,-19.5 76.5,-19.5 76.5,-.5 39.5,-.5"/>
<text text-anchor="middle" x="58" y="-7.5" font-family="Helvetica,sans-Serif" font-size="10.00" fill="#000000">ESC</text>
</g>
<!-- Node2 -->
<g id="node2" class="node">
<title>Node2</title>
<g id="a_node2"><a xlink:href="classaworx_1_1lib_1_1strings_1_1StringLiteral.html" target="_top" xlink:title="StringLiteral\&lt;TLength\&gt;">
<polygon fill="#ffffff" stroke="#000000" points="0,-177.5 0,-196.5 116,-196.5 116,-177.5 0,-177.5"/>
<text text-anchor="middle" x="58" y="-184.5" font-family="Helvetica,sans-Serif" font-size="10.00" fill="#000000">StringLiteral&lt;TLength&gt;</text>
</a>
</g>
</g>
<!-- Node2&#45;&gt;Node1 -->
<g id="edge1" class="edge">
<title>Node2&#45;&gt;Node1</title>
<path fill="none" stroke="#9a32cd" stroke-dasharray="5,2" d="M58,-167.2171C58,-129.2545 58,-47.4758 58,-19.5633"/>
<polygon fill="#9a32cd" stroke="#9a32cd" points="54.5001,-167.4837 58,-177.4837 61.5001,-167.4837 54.5001,-167.4837"/>
<text text-anchor="middle" x="88.5" y="-151" font-family="Helvetica,sans-Serif" font-size="10.00" fill="#000000"> EOMETA</text>
<text text-anchor="middle" x="88.5" y="-140" font-family="Helvetica,sans-Serif" font-size="10.00" fill="#000000">TAB</text>
<text text-anchor="middle" x="88.5" y="-129" font-family="Helvetica,sans-Serif" font-size="10.00" fill="#000000">BG_RESET</text>
<text text-anchor="middle" x="88.5" y="-118" font-family="Helvetica,sans-Serif" font-size="10.00" fill="#000000">BG_YELLOW</text>
<text text-anchor="middle" x="88.5" y="-107" font-family="Helvetica,sans-Serif" font-size="10.00" fill="#000000">GRAY</text>
<text text-anchor="middle" x="88.5" y="-96" font-family="Helvetica,sans-Serif" font-size="10.00" fill="#000000">CYAN</text>
<text text-anchor="middle" x="88.5" y="-85" font-family="Helvetica,sans-Serif" font-size="10.00" fill="#000000">BOLD</text>
<text text-anchor="middle" x="88.5" y="-74" font-family="Helvetica,sans-Serif" font-size="10.00" fill="#000000">WHITE</text>
<text text-anchor="middle" x="88.5" y="-63" font-family="Helvetica,sans-Serif" font-size="10.00" fill="#000000">MAGENTA</text>
<text text-anchor="middle" x="88.5" y="-52" font-family="Helvetica,sans-Serif" font-size="10.00" fill="#000000">YELLOW</text>
<text text-anchor="middle" x="88.5" y="-41" font-family="Helvetica,sans-Serif" font-size="10.00" fill="#000000">...</text>
</g>
<!-- Node3 -->
<g id="node3" class="node">
<title>Node3</title>
<g id="a_node3"><a xlink:href="classaworx_1_1lib_1_1strings_1_1TString.html" target="_top" xlink:title="TString">
<polygon fill="#ffffff" stroke="#000000" points="34,-234.5 34,-253.5 82,-253.5 82,-234.5 34,-234.5"/>
<text text-anchor="middle" x="58" y="-241.5" font-family="Helvetica,sans-Serif" font-size="10.00" fill="#000000">TString</text>
</a>
</g>
</g>
<!-- Node3&#45;&gt;Node2 -->
<g id="edge2" class="edge">
<title>Node3&#45;&gt;Node2</title>
<path fill="none" stroke="#191970" d="M58,-224.2342C58,-214.8491 58,-204.0651 58,-196.5265"/>
<polygon fill="#191970" stroke="#191970" points="54.5001,-224.3307 58,-234.3307 61.5001,-224.3308 54.5001,-224.3307"/>
</g>
<!-- Node4 -->
<g id="node4" class="node">
<title>Node4</title>
<g id="a_node4"><a xlink:href="classaworx_1_1lib_1_1strings_1_1String.html" target="_top" xlink:title="String">
<polygon fill="#ffffff" stroke="#000000" points="37,-291.5 37,-310.5 79,-310.5 79,-291.5 37,-291.5"/>
<text text-anchor="middle" x="58" y="-298.5" font-family="Helvetica,sans-Serif" font-size="10.00" fill="#000000">String</text>
</a>
</g>
</g>
<!-- Node4&#45;&gt;Node3 -->
<g id="edge3" class="edge">
<title>Node4&#45;&gt;Node3</title>
<path fill="none" stroke="#191970" d="M58,-281.2342C58,-271.8491 58,-261.0651 58,-253.5265"/>
<polygon fill="#191970" stroke="#191970" points="54.5001,-281.3307 58,-291.3307 61.5001,-281.3308 54.5001,-281.3307"/>
</g>
</g>
</svg>
