<?xml version="1.0" encoding="UTF-8" standalone="no"?>
<!DOCTYPE svg PUBLIC "-//W3C//DTD SVG 1.1//EN"
 "http://www.w3.org/Graphics/SVG/1.1/DTD/svg11.dtd">
<!-- Generated by graphviz version 2.40.1 (20161225.0304)
 -->
<!-- Title: IIsNull_false Pages: 1 -->
<svg width="199pt" height="140pt"
 viewBox="0.00 0.00 199.00 140.00" xmlns="http://www.w3.org/2000/svg" xmlns:xlink="http://www.w3.org/1999/xlink">
<g id="graph0" class="graph" transform="scale(1 1) rotate(0) translate(4 136)">
<title>IIsNull_false</title>
<polygon fill="#ffffff" stroke="transparent" points="-4,4 -4,-136 195,-136 195,4 -4,4"/>
<!-- Node0 -->
<g id="node1" class="node">
<title>Node0</title>
<polygon fill="#bfbfbf" stroke="#000000" points="77,-.5 77,-19.5 148,-19.5 148,-.5 77,-.5"/>
<text text-anchor="middle" x="112.5" y="-7.5" font-family="Helvetica,sans-Serif" font-size="10.00" fill="#000000">IIsNull_false</text>
</g>
<!-- Node3 -->
<g id="node2" class="node">
<title>Node3</title>
<g id="a_node2"><a xlink:href="classaworx_1_1lib_1_1lang_1_1Singleton.html" target="_top" xlink:title="Singleton\&lt;IIsNull_false\&gt;">
<polygon fill="#ffffff" stroke="#000000" points="0,-56.5 0,-75.5 123,-75.5 123,-56.5 0,-56.5"/>
<text text-anchor="middle" x="61.5" y="-63.5" font-family="Helvetica,sans-Serif" font-size="10.00" fill="#000000">Singleton&lt;IIsNull_false&gt;</text>
</a>
</g>
</g>
<!-- Node3&#45;&gt;Node0 -->
<g id="edge3" class="edge">
<title>Node3&#45;&gt;Node0</title>
<path fill="none" stroke="#191970" d="M77.1749,-48.7884C85.8994,-39.2085 96.4354,-27.6396 103.7183,-19.6427"/>
<polygon fill="#191970" stroke="#191970" points="74.5291,-46.4954 70.3835,-56.2455 79.7046,-51.2088 74.5291,-46.4954"/>
</g>
<!-- Node1 -->
<g id="node3" class="node">
<title>Node1</title>
<g id="a_node3"><a xlink:href="classaworx_1_1lib_1_1boxing_1_1IIsNull.html" target="_top" xlink:title="IIsNull">
<polygon fill="#ffffff" stroke="#000000" points="141.5,-56.5 141.5,-75.5 185.5,-75.5 185.5,-56.5 141.5,-56.5"/>
<text text-anchor="middle" x="163.5" y="-63.5" font-family="Helvetica,sans-Serif" font-size="10.00" fill="#000000">IIsNull</text>
</a>
</g>
</g>
<!-- Node1&#45;&gt;Node0 -->
<g id="edge1" class="edge">
<title>Node1&#45;&gt;Node0</title>
<path fill="none" stroke="#191970" d="M147.8251,-48.7884C139.1006,-39.2085 128.5646,-27.6396 121.2817,-19.6427"/>
<polygon fill="#191970" stroke="#191970" points="145.2954,-51.2088 154.6165,-56.2455 150.4709,-46.4954 145.2954,-51.2088"/>
</g>
<!-- Node2 -->
<g id="node4" class="node">
<title>Node2</title>
<g id="a_node4"><a xlink:href="classaworx_1_1lib_1_1boxing_1_1Interface.html" target="_top" xlink:title="Interface">
<polygon fill="#ffffff" stroke="#000000" points="136,-112.5 136,-131.5 191,-131.5 191,-112.5 136,-112.5"/>
<text text-anchor="middle" x="163.5" y="-119.5" font-family="Helvetica,sans-Serif" font-size="10.00" fill="#000000">Interface</text>
</a>
</g>
</g>
<!-- Node2&#45;&gt;Node1 -->
<g id="edge2" class="edge">
<title>Node2&#45;&gt;Node1</title>
<path fill="none" stroke="#191970" d="M163.5,-102.1575C163.5,-93.155 163.5,-82.9199 163.5,-75.6427"/>
<polygon fill="#191970" stroke="#191970" points="160.0001,-102.2455 163.5,-112.2455 167.0001,-102.2456 160.0001,-102.2455"/>
</g>
</g>
</svg>
