<?xml version="1.0" encoding="UTF-8" standalone="no"?>
<!DOCTYPE svg PUBLIC "-//W3C//DTD SVG 1.1//EN"
 "http://www.w3.org/Graphics/SVG/1.1/DTD/svg11.dtd">
<!-- Generated by graphviz version 2.40.1 (20161225.0304)
 -->
<!-- Title: IIsLess_boxed_int Pages: 1 -->
<svg width="227pt" height="140pt"
 viewBox="0.00 0.00 227.00 140.00" xmlns="http://www.w3.org/2000/svg" xmlns:xlink="http://www.w3.org/1999/xlink">
<g id="graph0" class="graph" transform="scale(1 1) rotate(0) translate(4 136)">
<title>IIsLess_boxed_int</title>
<polygon fill="#ffffff" stroke="transparent" points="-4,4 -4,-136 223,-136 223,4 -4,4"/>
<!-- Node0 -->
<g id="node1" class="node">
<title>Node0</title>
<polygon fill="#bfbfbf" stroke="#000000" points="84.5,-.5 84.5,-19.5 180.5,-19.5 180.5,-.5 84.5,-.5"/>
<text text-anchor="middle" x="132.5" y="-7.5" font-family="Helvetica,sans-Serif" font-size="10.00" fill="#000000">IIsLess_boxed_int</text>
</g>
<!-- Node3 -->
<g id="node2" class="node">
<title>Node3</title>
<g id="a_node2"><a xlink:href="classaworx_1_1lib_1_1lang_1_1Singleton.html" target="_top" xlink:title="Singleton\&lt;IIsLess_boxed_int\&gt;">
<polygon fill="#ffffff" stroke="#000000" points="0,-56.5 0,-75.5 149,-75.5 149,-56.5 0,-56.5"/>
<text text-anchor="middle" x="74.5" y="-63.5" font-family="Helvetica,sans-Serif" font-size="10.00" fill="#000000">Singleton&lt;IIsLess_boxed_int&gt;</text>
</a>
</g>
</g>
<!-- Node3&#45;&gt;Node0 -->
<g id="edge3" class="edge">
<title>Node3&#45;&gt;Node0</title>
<path fill="none" stroke="#191970" d="M92.0293,-49.0751C102.0083,-39.4402 114.1476,-27.7196 122.5129,-19.6427"/>
<polygon fill="#191970" stroke="#191970" points="89.3658,-46.7817 84.6028,-56.2455 94.228,-51.8175 89.3658,-46.7817"/>
</g>
<!-- Node1 -->
<g id="node3" class="node">
<title>Node1</title>
<g id="a_node3"><a xlink:href="classaworx_1_1lib_1_1boxing_1_1IIsLess.html" target="_top" xlink:title="IIsLess">
<polygon fill="#ffffff" stroke="#000000" points="167,-56.5 167,-75.5 216,-75.5 216,-56.5 167,-56.5"/>
<text text-anchor="middle" x="191.5" y="-63.5" font-family="Helvetica,sans-Serif" font-size="10.00" fill="#000000">IIsLess</text>
</a>
</g>
</g>
<!-- Node1&#45;&gt;Node0 -->
<g id="edge1" class="edge">
<title>Node1&#45;&gt;Node0</title>
<path fill="none" stroke="#191970" d="M173.9693,-49.3607C163.7623,-39.6727 151.2531,-27.7995 142.6592,-19.6427"/>
<polygon fill="#191970" stroke="#191970" points="171.5604,-51.8998 181.223,-56.2455 176.3794,-46.8227 171.5604,-51.8998"/>
</g>
<!-- Node2 -->
<g id="node4" class="node">
<title>Node2</title>
<g id="a_node4"><a xlink:href="classaworx_1_1lib_1_1boxing_1_1Interface.html" target="_top" xlink:title="Interface">
<polygon fill="#ffffff" stroke="#000000" points="164,-112.5 164,-131.5 219,-131.5 219,-112.5 164,-112.5"/>
<text text-anchor="middle" x="191.5" y="-119.5" font-family="Helvetica,sans-Serif" font-size="10.00" fill="#000000">Interface</text>
</a>
</g>
</g>
<!-- Node2&#45;&gt;Node1 -->
<g id="edge2" class="edge">
<title>Node2&#45;&gt;Node1</title>
<path fill="none" stroke="#191970" d="M191.5,-102.1575C191.5,-93.155 191.5,-82.9199 191.5,-75.6427"/>
<polygon fill="#191970" stroke="#191970" points="188.0001,-102.2455 191.5,-112.2455 195.0001,-102.2456 188.0001,-102.2455"/>
</g>
</g>
</svg>
