<?xml version="1.0" encoding="UTF-8" standalone="no"?>
<!DOCTYPE svg PUBLIC "-//W3C//DTD SVG 1.1//EN"
 "http://www.w3.org/Graphics/SVG/1.1/DTD/svg11.dtd">
<!-- Generated by graphviz version 2.38.0 (20140413.2041)
 -->
<!-- Title: Tokenizer Pages: 1 -->
<svg width="166pt" height="306pt"
 viewBox="0.00 0.00 166.00 306.00" xmlns="http://www.w3.org/2000/svg" xmlns:xlink="http://www.w3.org/1999/xlink">
<g id="graph0" class="graph" transform="scale(1 1) rotate(0) translate(4 302)">
<title>Tokenizer</title>
<polygon fill="white" stroke="none" points="-4,4 -4,-302 162,-302 162,4 -4,4"/>
<!-- Node1 -->
<g id="node1" class="node"><title>Node1</title>
<polygon fill="#bfbfbf" stroke="black" points="21,-0.5 21,-19.5 80,-19.5 80,-0.5 21,-0.5"/>
<text text-anchor="middle" x="50.5" y="-7.5" font-family="Helvetica,sans-Serif" font-size="10.00">Tokenizer</text>
</g>
<!-- Node2 -->
<g id="node2" class="node"><title>Node2</title>
<g id="a_node2"><a xlink:href="classaworx_1_1lib_1_1strings_1_1ASSubstring.html" target="_top" xlink:title="ASSubstring">
<polygon fill="white" stroke="black" points="0,-183.5 0,-202.5 71,-202.5 71,-183.5 0,-183.5"/>
<text text-anchor="middle" x="35.5" y="-190.5" font-family="Helvetica,sans-Serif" font-size="10.00">ASSubstring</text>
</a>
</g>
</g>
<!-- Node2&#45;&gt;Node1 -->
<g id="edge1" class="edge"><title>Node2&#45;&gt;Node1</title>
<path fill="none" stroke="#9a32cd" stroke-dasharray="5,2" d="M37.0849,-172.875C40.3032,-134.042 47.4924,-47.2922 49.7838,-19.6424"/>
<polygon fill="#9a32cd" stroke="#9a32cd" points="33.5614,-173.015 36.2235,-183.27 40.5375,-173.593 33.5614,-173.015"/>
<text text-anchor="middle" x="57.5" y="-119" font-family="Helvetica,sans-Serif" font-size="10.00"> Rest</text>
<text text-anchor="middle" x="57.5" y="-108" font-family="Helvetica,sans-Serif" font-size="10.00">Actual</text>
</g>
<!-- Node3 -->
<g id="node3" class="node"><title>Node3</title>
<g id="a_node3"><a xlink:href="classaworx_1_1lib_1_1strings_1_1AS.html" target="_top" xlink:title="AS">
<polygon fill="white" stroke="black" points="44.5,-278.5 44.5,-297.5 74.5,-297.5 74.5,-278.5 44.5,-278.5"/>
<text text-anchor="middle" x="59.5" y="-285.5" font-family="Helvetica,sans-Serif" font-size="10.00">AS</text>
</a>
</g>
</g>
<!-- Node3&#45;&gt;Node2 -->
<g id="edge2" class="edge"><title>Node3&#45;&gt;Node2</title>
<path fill="none" stroke="midnightblue" d="M54.7573,-268.622C49.5951,-248.618 41.5633,-217.495 37.7095,-202.562"/>
<polygon fill="midnightblue" stroke="midnightblue" points="51.3973,-269.609 57.2852,-278.417 58.1753,-267.86 51.3973,-269.609"/>
</g>
<!-- Node6 -->
<g id="node6" class="node"><title>Node6</title>
<g id="a_node6"><a xlink:href="classaworx_1_1lib_1_1strings_1_1ASTerminatable.html" target="_top" xlink:title="ASTerminatable">
<polygon fill="white" stroke="black" points="63.5,-221.5 63.5,-240.5 149.5,-240.5 149.5,-221.5 63.5,-221.5"/>
<text text-anchor="middle" x="106.5" y="-228.5" font-family="Helvetica,sans-Serif" font-size="10.00">ASTerminatable</text>
</a>
</g>
</g>
<!-- Node3&#45;&gt;Node6 -->
<g id="edge6" class="edge"><title>Node3&#45;&gt;Node6</title>
<path fill="none" stroke="midnightblue" d="M73.5727,-270.532C81.9439,-260.736 92.2282,-248.701 99.0527,-240.715"/>
<polygon fill="midnightblue" stroke="midnightblue" points="70.6795,-268.53 66.8438,-278.406 76.0011,-273.078 70.6795,-268.53"/>
</g>
<!-- Node4 -->
<g id="node4" class="node"><title>Node4</title>
<g id="a_node4"><a xlink:href="classaworx_1_1lib_1_1strings_1_1ASPreAlloc.html" target="_top" xlink:title="ASPreAlloc\&lt; 16 \&gt;">
<polygon fill="white" stroke="black" points="63,-67.5 63,-86.5 158,-86.5 158,-67.5 63,-67.5"/>
<text text-anchor="middle" x="110.5" y="-74.5" font-family="Helvetica,sans-Serif" font-size="10.00">ASPreAlloc&lt; 16 &gt;</text>
</a>
</g>
</g>
<!-- Node4&#45;&gt;Node1 -->
<g id="edge3" class="edge"><title>Node4&#45;&gt;Node1</title>
<path fill="none" stroke="#9a32cd" stroke-dasharray="5,2" d="M95.3937,-59.6348C83.6595,-46.9228 67.8518,-29.7978 58.4637,-19.6273"/>
<polygon fill="#9a32cd" stroke="#9a32cd" points="93.0535,-62.2597 102.408,-67.2338 98.1971,-57.5118 93.0535,-62.2597"/>
<text text-anchor="middle" x="115" y="-41" font-family="Helvetica,sans-Serif" font-size="10.00"> Whitespaces</text>
</g>
<!-- Node5 -->
<g id="node5" class="node"><title>Node5</title>
<g id="a_node5"><a xlink:href="classaworx_1_1lib_1_1strings_1_1ASAlloc.html" target="_top" xlink:title="ASAlloc">
<polygon fill="white" stroke="black" points="81.5,-145.5 81.5,-164.5 133.5,-164.5 133.5,-145.5 81.5,-145.5"/>
<text text-anchor="middle" x="107.5" y="-152.5" font-family="Helvetica,sans-Serif" font-size="10.00">ASAlloc</text>
</a>
</g>
</g>
<!-- Node5&#45;&gt;Node4 -->
<g id="edge4" class="edge"><title>Node5&#45;&gt;Node4</title>
<path fill="none" stroke="midnightblue" d="M108.241,-135.224C108.854,-119.697 109.696,-98.3582 110.16,-86.6165"/>
<polygon fill="midnightblue" stroke="midnightblue" points="104.741,-135.152 107.844,-145.282 111.736,-135.428 104.741,-135.152"/>
</g>
<!-- Node6&#45;&gt;Node5 -->
<g id="edge5" class="edge"><title>Node6&#45;&gt;Node5</title>
<path fill="none" stroke="midnightblue" d="M106.756,-211.072C106.957,-196.18 107.228,-176.111 107.382,-164.768"/>
<polygon fill="midnightblue" stroke="midnightblue" points="103.254,-211.174 106.619,-221.221 110.254,-211.269 103.254,-211.174"/>
</g>
</g>
</svg>
