<?xml version="1.0" encoding="UTF-8" standalone="no"?>
<!DOCTYPE svg PUBLIC "-//W3C//DTD SVG 1.1//EN"
 "http://www.w3.org/Graphics/SVG/1.1/DTD/svg11.dtd">
<!-- Generated by graphviz version 2.38.0 (20140413.2041)
 -->
<!-- Title: IniFile Pages: 1 -->
<svg width="1365pt" height="566pt"
 viewBox="0.00 0.00 1365.00 565.94" xmlns="http://www.w3.org/2000/svg" xmlns:xlink="http://www.w3.org/1999/xlink">
<g id="graph0" class="graph" transform="scale(1 1) rotate(0) translate(4 561.937)">
<title>IniFile</title>
<polygon fill="white" stroke="none" points="-4,4 -4,-561.937 1361,-561.937 1361,4 -4,4"/>
<!-- Node1 -->
<g id="node1" class="node"><title>Node1</title>
<polygon fill="#bfbfbf" stroke="black" points="1314,-329.437 1314,-348.437 1357,-348.437 1357,-329.437 1314,-329.437"/>
<text text-anchor="middle" x="1335.5" y="-336.437" font-family="Helvetica,sans-Serif" font-size="10.00">IniFile</text>
</g>
<!-- Node2 -->
<g id="node2" class="node"><title>Node2</title>
<g id="a_node2"><a xlink:href="classaworx_1_1lib_1_1config_1_1ConfigurationPlugIn.html" target="_top" xlink:title="ConfigurationPlugIn">
<polygon fill="white" stroke="black" points="109,-102.437 109,-121.437 211,-121.437 211,-102.437 109,-102.437"/>
<text text-anchor="middle" x="160" y="-109.437" font-family="Helvetica,sans-Serif" font-size="10.00">ConfigurationPlugIn</text>
</a>
</g>
</g>
<!-- Node2&#45;&gt;Node1 -->
<g id="edge1" class="edge"><title>Node2&#45;&gt;Node1</title>
<path fill="none" stroke="midnightblue" d="M179.303,-128.51C220.425,-163.956 324.613,-243.937 427.5,-243.937 427.5,-243.937 427.5,-243.937 1114,-243.937 1195.77,-243.937 1228.58,-224.666 1296,-270.937 1316.58,-285.061 1327.47,-314.011 1331.96,-329.178"/>
<polygon fill="midnightblue" stroke="midnightblue" points="181.547,-125.823 171.722,-121.858 176.931,-131.085 181.547,-125.823"/>
</g>
<!-- Node10 -->
<g id="node10" class="node"><title>Node10</title>
<g id="a_node10"><a xlink:href="classaworx_1_1lib_1_1config_1_1EnvironmentPlugIn.html" target="_top" xlink:title="EnvironmentPlugIn">
<polygon fill="white" stroke="black" points="379,-82.4369 379,-101.437 478,-101.437 478,-82.4369 379,-82.4369"/>
<text text-anchor="middle" x="428.5" y="-89.4369" font-family="Helvetica,sans-Serif" font-size="10.00">EnvironmentPlugIn</text>
</a>
</g>
</g>
<!-- Node2&#45;&gt;Node10 -->
<g id="edge12" class="edge"><title>Node2&#45;&gt;Node10</title>
<path fill="none" stroke="midnightblue" d="M221.312,-107.411C268.975,-103.834 334.633,-98.9063 378.947,-95.5807"/>
<polygon fill="midnightblue" stroke="midnightblue" points="220.837,-103.936 211.127,-108.175 221.361,-110.917 220.837,-103.936"/>
</g>
<!-- Node11 -->
<g id="node11" class="node"><title>Node11</title>
<g id="a_node11"><a xlink:href="classaworx_1_1lib_1_1config_1_1CommandLinePlugIn.html" target="_top" xlink:title="CommandLinePlugIn">
<polygon fill="white" stroke="black" points="375,-120.437 375,-139.437 482,-139.437 482,-120.437 375,-120.437"/>
<text text-anchor="middle" x="428.5" y="-127.437" font-family="Helvetica,sans-Serif" font-size="10.00">CommandLinePlugIn</text>
</a>
</g>
</g>
<!-- Node2&#45;&gt;Node11 -->
<g id="edge14" class="edge"><title>Node2&#45;&gt;Node11</title>
<path fill="none" stroke="midnightblue" d="M221.308,-116.01C267.528,-119.132 330.671,-123.397 374.863,-126.382"/>
<polygon fill="midnightblue" stroke="midnightblue" points="221.34,-112.505 211.127,-115.323 220.868,-119.489 221.34,-112.505"/>
</g>
<!-- Node3 -->
<g id="node3" class="node"><title>Node3</title>
<g id="a_node3"><a xlink:href="classaworx_1_1lib_1_1config_1_1Configuration.html" target="_top" xlink:title="Configuration">
<polygon fill="white" stroke="black" points="695,-120.437 695,-139.437 769,-139.437 769,-120.437 695,-120.437"/>
<text text-anchor="middle" x="732" y="-127.437" font-family="Helvetica,sans-Serif" font-size="10.00">Configuration</text>
</a>
</g>
</g>
<!-- Node3&#45;&gt;Node2 -->
<g id="edge2" class="edge"><title>Node3&#45;&gt;Node2</title>
<path fill="none" stroke="#9a32cd" stroke-dasharray="5,2" d="M699.94,-116.259C683.778,-109.501 663.566,-101.603 645,-95.9369 525.945,-59.6023 490.669,-47.7862 367,-61.9369 302.831,-69.2794 229.829,-90.0534 190.263,-102.392"/>
<polygon fill="#9a32cd" stroke="#9a32cd" points="698.856,-119.601 709.429,-120.289 701.593,-113.158 698.856,-119.601"/>
<text text-anchor="middle" x="428.5" y="-64.9369" font-family="Helvetica,sans-Serif" font-size="10.00"> Parent</text>
</g>
<!-- Node4 -->
<g id="node4" class="node"><title>Node4</title>
<g id="a_node4"><a xlink:href="classaworx_1_1lib_1_1threads_1_1ThreadLock.html" target="_top" xlink:title="ThreadLock">
<polygon fill="white" stroke="red" points="394.5,-158.437 394.5,-177.437 462.5,-177.437 462.5,-158.437 394.5,-158.437"/>
<text text-anchor="middle" x="428.5" y="-165.437" font-family="Helvetica,sans-Serif" font-size="10.00">ThreadLock</text>
</a>
</g>
</g>
<!-- Node4&#45;&gt;Node3 -->
<g id="edge3" class="edge"><title>Node4&#45;&gt;Node3</title>
<path fill="none" stroke="midnightblue" d="M472.783,-164.168C516.37,-160.173 585.497,-153.292 645,-144.937 661.36,-142.64 679.379,-139.579 694.679,-136.822"/>
<polygon fill="midnightblue" stroke="midnightblue" points="472.453,-160.684 462.81,-165.073 473.085,-167.655 472.453,-160.684"/>
</g>
<!-- Node5 -->
<g id="node5" class="node"><title>Node5</title>
<polygon fill="white" stroke="#bfbfbf" points="367,-196.437 367,-215.437 490,-215.437 490,-196.437 367,-196.437"/>
<text text-anchor="middle" x="428.5" y="-203.437" font-family="Helvetica,sans-Serif" font-size="10.00">vector&lt; PrioAndPlugin &gt;</text>
</g>
<!-- Node5&#45;&gt;Node3 -->
<g id="edge4" class="edge"><title>Node5&#45;&gt;Node3</title>
<path fill="none" stroke="#9a32cd" stroke-dasharray="5,2" d="M500.26,-197.268C542.781,-191.042 597.648,-181.205 645,-166.937 668.966,-159.715 695.22,-147.793 712.336,-139.438"/>
<polygon fill="#9a32cd" stroke="#9a32cd" points="499.685,-193.814 490.282,-198.696 500.677,-200.744 499.685,-193.814"/>
<text text-anchor="middle" x="576.5" y="-198.937" font-family="Helvetica,sans-Serif" font-size="10.00"> plugins</text>
</g>
<!-- Node6 -->
<g id="node6" class="node"><title>Node6</title>
<g id="a_node6"><a xlink:href="classaworx_1_1lib_1_1strings_1_1NumberFormat.html" target="_top" xlink:title="NumberFormat">
<polygon fill="white" stroke="black" points="387.5,-272.437 387.5,-291.437 469.5,-291.437 469.5,-272.437 387.5,-272.437"/>
<text text-anchor="middle" x="428.5" y="-279.437" font-family="Helvetica,sans-Serif" font-size="10.00">NumberFormat</text>
</a>
</g>
</g>
<!-- Node6&#45;&gt;Node3 -->
<g id="edge5" class="edge"><title>Node6&#45;&gt;Node3</title>
<path fill="none" stroke="#9a32cd" stroke-dasharray="5,2" d="M479.755,-271.948C525.188,-261.436 592.76,-242.029 645,-210.937 678.311,-191.111 709.311,-156.409 723.256,-139.603"/>
<polygon fill="#9a32cd" stroke="#9a32cd" points="478.828,-268.569 469.842,-274.181 480.367,-275.398 478.828,-268.569"/>
<text text-anchor="middle" x="576.5" y="-267.937" font-family="Helvetica,sans-Serif" font-size="10.00"> NumberFormat</text>
</g>
<!-- Node6&#45;&gt;Node6 -->
<g id="edge6" class="edge"><title>Node6&#45;&gt;Node6</title>
<path fill="none" stroke="#9a32cd" stroke-dasharray="5,2" d="M402.83,-300.966C404.231,-306.065 412.787,-309.937 428.5,-309.937 453.027,-309.937 460.117,-300.502 449.77,-291.694"/>
<polygon fill="#9a32cd" stroke="#9a32cd" points="406.105,-302.229 407.23,-291.694 399.781,-299.228 406.105,-302.229"/>
<text text-anchor="middle" x="428.5" y="-312.937" font-family="Helvetica,sans-Serif" font-size="10.00"> Global</text>
</g>
<!-- Node7 -->
<g id="node7" class="node"><title>Node7</title>
<g id="a_node7"><a xlink:href="classaworx_1_1lib_1_1strings_1_1ASTerminatable.html" target="_top" xlink:title="ASTerminatable">
<polygon fill="white" stroke="black" points="117,-339.437 117,-358.437 203,-358.437 203,-339.437 117,-339.437"/>
<text text-anchor="middle" x="160" y="-346.437" font-family="Helvetica,sans-Serif" font-size="10.00">ASTerminatable</text>
</a>
</g>
</g>
<!-- Node7&#45;&gt;Node6 -->
<g id="edge7" class="edge"><title>Node7&#45;&gt;Node6</title>
<path fill="none" stroke="#9a32cd" stroke-dasharray="5,2" d="M180.276,-333.013C193.235,-323.217 211.151,-311.348 229,-304.937 281.567,-286.056 346.526,-281.827 387.498,-281.288"/>
<polygon fill="#9a32cd" stroke="#9a32cd" points="177.873,-330.45 172.159,-339.372 182.189,-335.96 177.873,-330.45"/>
<text text-anchor="middle" x="289" y="-318.937" font-family="Helvetica,sans-Serif" font-size="10.00"> DecimalPointCharacters</text>
<text text-anchor="middle" x="289" y="-307.937" font-family="Helvetica,sans-Serif" font-size="10.00">DecimalExponentSeparator</text>
</g>
<!-- Node16 -->
<g id="node16" class="node"><title>Node16</title>
<g id="a_node16"><a xlink:href="classaworx_1_1lib_1_1strings_1_1ASAlloc.html" target="_top" xlink:title="ASAlloc">
<polygon fill="white" stroke="black" points="402.5,-410.437 402.5,-429.437 454.5,-429.437 454.5,-410.437 402.5,-410.437"/>
<text text-anchor="middle" x="428.5" y="-417.437" font-family="Helvetica,sans-Serif" font-size="10.00">ASAlloc</text>
</a>
</g>
</g>
<!-- Node7&#45;&gt;Node16 -->
<g id="edge20" class="edge"><title>Node7&#45;&gt;Node16</title>
<path fill="none" stroke="midnightblue" d="M206.417,-361.037C262.947,-376.097 357.507,-401.29 402.388,-413.247"/>
<polygon fill="midnightblue" stroke="midnightblue" points="207.229,-357.631 196.665,-358.439 205.427,-364.395 207.229,-357.631"/>
</g>
<!-- Node18 -->
<g id="node18" class="node"><title>Node18</title>
<polygon fill="white" stroke="#bfbfbf" points="508,-316.937 508,-346.937 645,-346.937 645,-316.937 508,-316.937"/>
<text text-anchor="start" x="516" y="-334.937" font-family="Helvetica,sans-Serif" font-size="10.00">vector&lt; aworx::lib</text>
<text text-anchor="middle" x="576.5" y="-323.937" font-family="Helvetica,sans-Serif" font-size="10.00">::strings::ASTerminatable &gt;</text>
</g>
<!-- Node7&#45;&gt;Node18 -->
<g id="edge25" class="edge"><title>Node7&#45;&gt;Node18</title>
<path fill="none" stroke="#9a32cd" stroke-dasharray="5,2" d="M213.133,-346.799C287.807,-343.736 425.283,-338.098 507.752,-334.715"/>
<polygon fill="#9a32cd" stroke="#9a32cd" points="212.874,-343.306 203.026,-347.213 213.161,-350.3 212.874,-343.306"/>
<text text-anchor="middle" x="289" y="-349.937" font-family="Helvetica,sans-Serif" font-size="10.00"> elements</text>
</g>
<!-- Node8 -->
<g id="node8" class="node"><title>Node8</title>
<g id="a_node8"><a xlink:href="classaworx_1_1lib_1_1strings_1_1AS.html" target="_top" xlink:title="AS">
<polygon fill="white" stroke="black" points="0,-339.437 0,-358.437 30,-358.437 30,-339.437 0,-339.437"/>
<text text-anchor="middle" x="15" y="-346.437" font-family="Helvetica,sans-Serif" font-size="10.00">AS</text>
</a>
</g>
</g>
<!-- Node8&#45;&gt;Node1 -->
<g id="edge23" class="edge"><title>Node8&#45;&gt;Node1</title>
<path fill="none" stroke="#9a32cd" stroke-dasharray="5,2" d="M20.7837,-368.224C33.907,-415.989 75.2049,-535.937 159,-535.937 159,-535.937 159,-535.937 1114,-535.937 1131.98,-535.937 1268.66,-468.888 1296,-437.937 1319.81,-410.987 1329.69,-367.652 1333.04,-348.531"/>
<polygon fill="#9a32cd" stroke="#9a32cd" points="24.1469,-367.251 18.2231,-358.467 17.3762,-369.028 24.1469,-367.251"/>
<text text-anchor="middle" x="732" y="-549.937" font-family="Helvetica,sans-Serif" font-size="10.00"> DefaultCommentPrefix</text>
<text text-anchor="middle" x="732" y="-538.937" font-family="Helvetica,sans-Serif" font-size="10.00">DefaultFileExtension</text>
</g>
<!-- Node8&#45;&gt;Node7 -->
<g id="edge8" class="edge"><title>Node8&#45;&gt;Node7</title>
<path fill="none" stroke="midnightblue" d="M40.4827,-348.937C61.3867,-348.937 91.9225,-348.937 116.763,-348.937"/>
<polygon fill="midnightblue" stroke="midnightblue" points="40.2342,-345.437 30.2342,-348.937 40.2342,-352.437 40.2342,-345.437"/>
</g>
<!-- Node9 -->
<g id="node9" class="node"><title>Node9</title>
<polygon fill="white" stroke="#bfbfbf" points="234,-7.43691 234,-26.4369 344,-26.4369 344,-7.43691 234,-7.43691"/>
<text text-anchor="middle" x="289" y="-14.4369" font-family="Helvetica,sans-Serif" font-size="10.00">vector&lt; strings::AS &gt;</text>
</g>
<!-- Node8&#45;&gt;Node9 -->
<g id="edge10" class="edge"><title>Node8&#45;&gt;Node9</title>
<path fill="none" stroke="#9a32cd" stroke-dasharray="5,2" d="M17.9673,-329.137C23.6176,-282.237 43.9145,-163.054 109,-92.9369 143.108,-56.1917 197.878,-36.5034 237.861,-26.4477"/>
<polygon fill="#9a32cd" stroke="#9a32cd" points="14.4754,-328.871 16.8515,-339.196 21.4327,-329.643 14.4754,-328.871"/>
<text text-anchor="middle" x="69.5" y="-200.937" font-family="Helvetica,sans-Serif" font-size="10.00"> elements</text>
</g>
<!-- Node9&#45;&gt;Node3 -->
<g id="edge9" class="edge"><title>Node9&#45;&gt;Node3</title>
<path fill="none" stroke="#9a32cd" stroke-dasharray="5,2" d="M354.374,-6.34208C428.67,2.70744 552.485,7.8022 645,-38.9369 682.834,-58.0509 712.929,-100.846 725.123,-120.155"/>
<polygon fill="#9a32cd" stroke="#9a32cd" points="353.702,-2.89937 344.227,-7.64027 354.591,-9.84277 353.702,-2.89937"/>
<text text-anchor="middle" x="428.5" y="-7.93691" font-family="Helvetica,sans-Serif" font-size="10.00"> TrueValues</text>
</g>
<!-- Node10&#45;&gt;Node3 -->
<g id="edge11" class="edge"><title>Node10&#45;&gt;Node3</title>
<path fill="none" stroke="#9a32cd" stroke-dasharray="5,2" d="M488.493,-97.1688C531.876,-101.275 592.223,-107.526 645,-114.937 661.36,-117.234 679.379,-120.294 694.679,-123.052"/>
<polygon fill="#9a32cd" stroke="#9a32cd" points="488.681,-93.6713 478.399,-96.2231 488.028,-100.641 488.681,-93.6713"/>
<text text-anchor="middle" x="576.5" y="-117.937" font-family="Helvetica,sans-Serif" font-size="10.00"> envCP</text>
</g>
<!-- Node11&#45;&gt;Node3 -->
<g id="edge13" class="edge"><title>Node11&#45;&gt;Node3</title>
<path fill="none" stroke="#9a32cd" stroke-dasharray="5,2" d="M492.336,-129.937C553.592,-129.937 644.618,-129.937 694.698,-129.937"/>
<polygon fill="#9a32cd" stroke="#9a32cd" points="492.017,-126.437 482.017,-129.937 492.017,-133.437 492.017,-126.437"/>
<text text-anchor="middle" x="576.5" y="-132.937" font-family="Helvetica,sans-Serif" font-size="10.00"> cmdLineCP</text>
</g>
<!-- Node12 -->
<g id="node12" class="node"><title>Node12</title>
<polygon fill="white" stroke="#bfbfbf" points="1045,-350.937 1045,-380.937 1181,-380.937 1181,-350.937 1045,-350.937"/>
<text text-anchor="start" x="1053" y="-368.937" font-family="Helvetica,sans-Serif" font-size="10.00">vector&lt; aworx::lib</text>
<text text-anchor="middle" x="1113" y="-357.937" font-family="Helvetica,sans-Serif" font-size="10.00">::config::IniFile::Section * &gt;</text>
</g>
<!-- Node12&#45;&gt;Node1 -->
<g id="edge15" class="edge"><title>Node12&#45;&gt;Node1</title>
<path fill="none" stroke="#9a32cd" stroke-dasharray="5,2" d="M1191.08,-356.498C1234.66,-351.162 1285.85,-344.893 1313.77,-341.476"/>
<polygon fill="#9a32cd" stroke="#9a32cd" points="1190.56,-353.036 1181.06,-357.726 1191.41,-359.985 1190.56,-353.036"/>
<text text-anchor="middle" x="1247.5" y="-357.937" font-family="Helvetica,sans-Serif" font-size="10.00"> Sections</text>
</g>
<!-- Node13 -->
<g id="node13" class="node"><title>Node13</title>
<g id="a_node13"><a xlink:href="classaworx_1_1lib_1_1config_1_1IniFile_1_1Section.html" target="_top" xlink:title="Section">
<polygon fill="white" stroke="black" points="898.5,-384.437 898.5,-403.437 948.5,-403.437 948.5,-384.437 898.5,-384.437"/>
<text text-anchor="middle" x="923.5" y="-391.437" font-family="Helvetica,sans-Serif" font-size="10.00">Section</text>
</a>
</g>
</g>
<!-- Node13&#45;&gt;Node12 -->
<g id="edge16" class="edge"><title>Node13&#45;&gt;Node12</title>
<path fill="none" stroke="#9a32cd" stroke-dasharray="5,2" d="M958.667,-388.835C982.692,-385.247 1015.63,-380.328 1044.82,-375.969"/>
<polygon fill="#9a32cd" stroke="#9a32cd" points="958.002,-385.395 948.628,-390.334 959.036,-392.318 958.002,-385.395"/>
<text text-anchor="middle" x="1005.5" y="-387.937" font-family="Helvetica,sans-Serif" font-size="10.00"> elements</text>
</g>
<!-- Node14 -->
<g id="node14" class="node"><title>Node14</title>
<polygon fill="white" stroke="#bfbfbf" points="663,-379.937 663,-409.937 801,-409.937 801,-379.937 663,-379.937"/>
<text text-anchor="start" x="671" y="-397.937" font-family="Helvetica,sans-Serif" font-size="10.00">vector&lt; aworx::lib</text>
<text text-anchor="middle" x="732" y="-386.937" font-family="Helvetica,sans-Serif" font-size="10.00">::config::IniFile::Variable * &gt;</text>
</g>
<!-- Node14&#45;&gt;Node13 -->
<g id="edge17" class="edge"><title>Node14&#45;&gt;Node13</title>
<path fill="none" stroke="#9a32cd" stroke-dasharray="5,2" d="M811.218,-394.524C842.563,-394.359 876.4,-394.18 898.428,-394.064"/>
<polygon fill="#9a32cd" stroke="#9a32cd" points="811.127,-391.024 801.146,-394.577 811.164,-398.024 811.127,-391.024"/>
<text text-anchor="middle" x="841" y="-397.937" font-family="Helvetica,sans-Serif" font-size="10.00"> Variables</text>
</g>
<!-- Node15 -->
<g id="node15" class="node"><title>Node15</title>
<g id="a_node15"><a xlink:href="classaworx_1_1lib_1_1strings_1_1ASPreAlloc.html" target="_top" xlink:title="ASPreAlloc\&lt; 32 \&gt;">
<polygon fill="white" stroke="black" points="684.5,-341.437 684.5,-360.437 779.5,-360.437 779.5,-341.437 684.5,-341.437"/>
<text text-anchor="middle" x="732" y="-348.437" font-family="Helvetica,sans-Serif" font-size="10.00">ASPreAlloc&lt; 32 &gt;</text>
</a>
</g>
</g>
<!-- Node15&#45;&gt;Node13 -->
<g id="edge18" class="edge"><title>Node15&#45;&gt;Node13</title>
<path fill="none" stroke="#9a32cd" stroke-dasharray="5,2" d="M786.161,-362.65C809.717,-367.877 837.755,-374.151 863,-379.937 874.688,-382.616 887.651,-385.657 898.486,-388.22"/>
<polygon fill="#9a32cd" stroke="#9a32cd" points="786.882,-359.225 776.362,-360.478 785.367,-366.059 786.882,-359.225"/>
<text text-anchor="middle" x="841" y="-382.937" font-family="Helvetica,sans-Serif" font-size="10.00"> Name</text>
</g>
<!-- Node16&#45;&gt;Node1 -->
<g id="edge26" class="edge"><title>Node16&#45;&gt;Node1</title>
<path fill="none" stroke="#9a32cd" stroke-dasharray="5,2" d="M464.195,-432.648C519.731,-451.825 632.383,-485.937 731,-485.937 731,-485.937 731,-485.937 1114,-485.937 1213.38,-485.937 1302.03,-381.286 1327.31,-348.582"/>
<polygon fill="#9a32cd" stroke="#9a32cd" points="465.101,-429.257 454.506,-429.253 462.786,-435.863 465.101,-429.257"/>
<text text-anchor="middle" x="923.5" y="-499.937" font-family="Helvetica,sans-Serif" font-size="10.00"> FileComments</text>
<text text-anchor="middle" x="923.5" y="-488.937" font-family="Helvetica,sans-Serif" font-size="10.00">FileName</text>
</g>
<!-- Node16&#45;&gt;Node13 -->
<g id="edge21" class="edge"><title>Node16&#45;&gt;Node13</title>
<path fill="none" stroke="#9a32cd" stroke-dasharray="5,2" d="M465.065,-421.51C531.281,-424.068 677.919,-427.99 801,-418.937 828.769,-416.894 835.73,-415.562 863,-409.937 874.733,-407.517 887.589,-404.152 898.339,-401.132"/>
<polygon fill="#9a32cd" stroke="#9a32cd" points="464.904,-418.001 454.772,-421.098 464.624,-424.995 464.904,-418.001"/>
<text text-anchor="middle" x="732" y="-427.937" font-family="Helvetica,sans-Serif" font-size="10.00"> Comments</text>
</g>
<!-- Node16&#45;&gt;Node15 -->
<g id="edge19" class="edge"><title>Node16&#45;&gt;Node15</title>
<path fill="none" stroke="midnightblue" d="M464.474,-411.933C520.334,-399.149 629.474,-374.172 689.306,-360.479"/>
<polygon fill="midnightblue" stroke="midnightblue" points="463.654,-408.53 454.687,-414.173 465.216,-415.354 463.654,-408.53"/>
</g>
<!-- Node17 -->
<g id="node17" class="node"><title>Node17</title>
<polygon fill="white" stroke="#bfbfbf" points="1077,-272.437 1077,-291.437 1149,-291.437 1149,-272.437 1077,-272.437"/>
<text text-anchor="middle" x="1113" y="-279.437" font-family="Helvetica,sans-Serif" font-size="10.00">vector&lt; int &gt;</text>
</g>
<!-- Node17&#45;&gt;Node1 -->
<g id="edge22" class="edge"><title>Node17&#45;&gt;Node1</title>
<path fill="none" stroke="#9a32cd" stroke-dasharray="5,2" d="M1159.61,-275.913C1198.02,-272.943 1253.35,-273.721 1296,-294.937 1311.09,-302.442 1322.8,-318.715 1329.16,-329.229"/>
<polygon fill="#9a32cd" stroke="#9a32cd" points="1158.9,-272.463 1149.25,-276.837 1159.52,-279.435 1158.9,-272.463"/>
<text text-anchor="middle" x="1247.5" y="-297.937" font-family="Helvetica,sans-Serif" font-size="10.00"> LinesWithReadErrors</text>
</g>
<!-- Node18&#45;&gt;Node1 -->
<g id="edge24" class="edge"><title>Node18&#45;&gt;Node1</title>
<path fill="none" stroke="#9a32cd" stroke-dasharray="5,2" d="M655.575,-331.686C698.495,-331.611 752.686,-331.62 801,-331.937 1000.84,-333.248 1242.77,-337.321 1313.9,-338.569"/>
<polygon fill="#9a32cd" stroke="#9a32cd" points="655.472,-328.186 645.479,-331.706 655.485,-335.186 655.472,-328.186"/>
<text text-anchor="middle" x="923.5" y="-336.937" font-family="Helvetica,sans-Serif" font-size="10.00"> EscapeSequences</text>
</g>
</g>
</svg>
