<?xml version="1.0" encoding="UTF-8" standalone="no"?>
<!DOCTYPE svg PUBLIC "-//W3C//DTD SVG 1.1//EN"
 "http://www.w3.org/Graphics/SVG/1.1/DTD/svg11.dtd">
<!-- Generated by graphviz version 2.38.0 (20140413.2041)
 -->
<!-- Title: IniFile::Section Pages: 1 -->
<svg width="930pt" height="116pt"
 viewBox="0.00 0.00 930.00 115.78" xmlns="http://www.w3.org/2000/svg" xmlns:xlink="http://www.w3.org/1999/xlink">
<g id="graph0" class="graph" transform="scale(1 1) rotate(0) translate(4 111.783)">
<title>IniFile::Section</title>
<polygon fill="white" stroke="none" points="-4,4 -4,-111.783 926,-111.783 926,4 -4,4"/>
<!-- Node1 -->
<g id="node1" class="node"><title>Node1</title>
<polygon fill="#bfbfbf" stroke="black" points="840,-41.283 840,-60.283 922,-60.283 922,-41.283 840,-41.283"/>
<text text-anchor="middle" x="881" y="-48.283" font-family="Helvetica,sans-Serif" font-size="10.00">IniFile::Section</text>
</g>
<!-- Node6 -->
<g id="node2" class="node"><title>Node6</title>
<polygon fill="white" stroke="#bfbfbf" points="521,-3.28303 521,-22.283 683,-22.283 683,-3.28303 521,-3.28303"/>
<text text-anchor="middle" x="602" y="-10.283" font-family="Helvetica,sans-Serif" font-size="10.00">vector&lt;InMemoryPlugin::Entry *&gt;</text>
</g>
<!-- Node2 -->
<g id="node4" class="node"><title>Node2</title>
<g id="a_node4"><a xlink:href="classaworx_1_1lib_1_1config_1_1InMemoryPlugin_1_1Section.html" target="_top" xlink:title="Section">
<polygon fill="white" stroke="black" points="753,-41.283 753,-60.283 803,-60.283 803,-41.283 753,-41.283"/>
<text text-anchor="middle" x="778" y="-48.283" font-family="Helvetica,sans-Serif" font-size="10.00">Section</text>
</a>
</g>
</g>
<!-- Node6&#45;&gt;Node2 -->
<g id="edge8" class="edge"><title>Node6&#45;&gt;Node2</title>
<path fill="none" stroke="#9a32cd" stroke-dasharray="5,2" d="M693.316,-16.3528C707.483,-18.428 721.797,-21.4438 735,-25.783 745.48,-29.2274 756.147,-35.6204 764.108,-41.0791"/>
<polygon fill="#9a32cd" stroke="#9a32cd" points="693.415,-12.8358 683.044,-15.0025 692.502,-19.7761 693.415,-12.8358"/>
<text text-anchor="middle" x="718" y="-28.783" font-family="Helvetica,sans-Serif" font-size="10.00"> Entries</text>
</g>
<!-- Node5 -->
<g id="node3" class="node"><title>Node5</title>
<g id="a_node3"><a xlink:href="classaworx_1_1lib_1_1strings_1_1PreallocatedString.html" target="_top" xlink:title="PreallocatedString\&lt;TCapacity\&gt;">
<polygon fill="white" stroke="black" points="171,-31.283 171,-50.283 324,-50.283 324,-31.283 171,-31.283"/>
<text text-anchor="middle" x="247.5" y="-38.283" font-family="Helvetica,sans-Serif" font-size="10.00">PreallocatedString&lt;TCapacity&gt;</text>
</a>
</g>
</g>
<!-- Node5&#45;&gt;Node2 -->
<g id="edge6" class="edge"><title>Node5&#45;&gt;Node2</title>
<path fill="none" stroke="#9a32cd" stroke-dasharray="5,2" d="M334.427,-42.4089C458.254,-44.7519 680.021,-48.948 752.996,-50.3288"/>
<polygon fill="#9a32cd" stroke="#9a32cd" points="334.286,-38.9057 324.221,-42.2158 334.153,-45.9044 334.286,-38.9057"/>
<text text-anchor="middle" x="481.5" y="-47.783" font-family="Helvetica,sans-Serif" font-size="10.00"> Name</text>
</g>
<!-- Node7 -->
<g id="node6" class="node"><title>Node7</title>
<g id="a_node6"><a xlink:href="classaworx_1_1lib_1_1config_1_1InMemoryPlugin_1_1Entry.html" target="_top" xlink:title="Entry">
<polygon fill="white" stroke="red" points="396,-3.28303 396,-22.283 436,-22.283 436,-3.28303 396,-3.28303"/>
<text text-anchor="middle" x="416" y="-10.283" font-family="Helvetica,sans-Serif" font-size="10.00">Entry</text>
</a>
</g>
</g>
<!-- Node5&#45;&gt;Node7 -->
<g id="edge7" class="edge"><title>Node5&#45;&gt;Node7</title>
<path fill="none" stroke="#9a32cd" stroke-dasharray="5,2" d="M315.453,-29.5237C344.453,-24.6468 376.199,-19.3081 395.861,-16.0016"/>
<polygon fill="#9a32cd" stroke="#9a32cd" points="314.615,-26.1153 305.334,-31.2253 315.776,-33.0184 314.615,-26.1153"/>
<text text-anchor="middle" x="357" y="-27.783" font-family="Helvetica,sans-Serif" font-size="10.00"> Name</text>
</g>
<!-- Node2&#45;&gt;Node1 -->
<g id="edge1" class="edge"><title>Node2&#45;&gt;Node1</title>
<path fill="none" stroke="midnightblue" d="M813.206,-50.783C821.763,-50.783 831.018,-50.783 839.835,-50.783"/>
<polygon fill="midnightblue" stroke="midnightblue" points="813.192,-47.2831 803.192,-50.783 813.192,-54.2831 813.192,-47.2831"/>
</g>
<!-- Node3 -->
<g id="node5" class="node"><title>Node3</title>
<g id="a_node5"><a xlink:href="classaworx_1_1lib_1_1strings_1_1AString.html" target="_top" xlink:title="AString">
<polygon fill="white" stroke="black" points="85,-31.283 85,-50.283 134,-50.283 134,-31.283 85,-31.283"/>
<text text-anchor="middle" x="109.5" y="-38.283" font-family="Helvetica,sans-Serif" font-size="10.00">AString</text>
</a>
</g>
</g>
<!-- Node3&#45;&gt;Node5 -->
<g id="edge3" class="edge"><title>Node3&#45;&gt;Node5</title>
<path fill="none" stroke="midnightblue" d="M144.347,-40.783C152.506,-40.783 161.551,-40.783 170.789,-40.783"/>
<polygon fill="midnightblue" stroke="midnightblue" points="144.189,-37.2831 134.189,-40.783 144.189,-44.2831 144.189,-37.2831"/>
</g>
<!-- Node3&#45;&gt;Node2 -->
<g id="edge2" class="edge"><title>Node3&#45;&gt;Node2</title>
<path fill="none" stroke="#9a32cd" stroke-dasharray="5,2" d="M132.717,-56.2521C158.74,-72.8271 203.746,-96.783 246.5,-96.783 246.5,-96.783 246.5,-96.783 603,-96.783 659.556,-96.783 723.119,-73.7879 755.51,-60.3143"/>
<polygon fill="#9a32cd" stroke="#9a32cd" points="134.306,-53.1082 124.028,-50.5375 130.46,-58.9567 134.306,-53.1082"/>
<text text-anchor="middle" x="416" y="-99.783" font-family="Helvetica,sans-Serif" font-size="10.00"> Comments</text>
</g>
<!-- Node3&#45;&gt;Node7 -->
<g id="edge4" class="edge"><title>Node3&#45;&gt;Node7</title>
<path fill="none" stroke="#9a32cd" stroke-dasharray="5,2" d="M133.991,-25.9752C144.82,-19.9963 158.11,-13.8034 171,-10.783 252.872,8.40128 354.479,-3.36754 395.992,-9.62215"/>
<polygon fill="#9a32cd" stroke="#9a32cd" points="132.072,-23.0423 125.18,-31.0892 135.586,-29.0964 132.072,-23.0423"/>
<text text-anchor="middle" x="247.5" y="-13.783" font-family="Helvetica,sans-Serif" font-size="10.00"> Comments</text>
</g>
<!-- Node7&#45;&gt;Node6 -->
<g id="edge9" class="edge"><title>Node7&#45;&gt;Node6</title>
<path fill="none" stroke="#9a32cd" stroke-dasharray="5,2" d="M446.421,-12.783C466.576,-12.783 494.349,-12.783 520.8,-12.783"/>
<polygon fill="#9a32cd" stroke="#9a32cd" points="446.343,-9.28313 436.343,-12.783 446.343,-16.2831 446.343,-9.28313"/>
<text text-anchor="middle" x="481.5" y="-15.783" font-family="Helvetica,sans-Serif" font-size="10.00"> elements</text>
</g>
<!-- Node4 -->
<g id="node7" class="node"><title>Node4</title>
<g id="a_node7"><a xlink:href="classaworx_1_1lib_1_1strings_1_1TString.html" target="_top" xlink:title="TString">
<polygon fill="white" stroke="red" points="0,-31.283 0,-50.283 48,-50.283 48,-31.283 0,-31.283"/>
<text text-anchor="middle" x="24" y="-38.283" font-family="Helvetica,sans-Serif" font-size="10.00">TString</text>
</a>
</g>
</g>
<!-- Node4&#45;&gt;Node3 -->
<g id="edge5" class="edge"><title>Node4&#45;&gt;Node3</title>
<path fill="none" stroke="midnightblue" d="M58.3132,-40.783C67.1705,-40.783 76.5564,-40.783 84.7851,-40.783"/>
<polygon fill="midnightblue" stroke="midnightblue" points="58.2594,-37.2831 48.2594,-40.783 58.2594,-44.2831 58.2594,-37.2831"/>
</g>
</g>
</svg>
