<?xml version="1.0" encoding="UTF-8" standalone="no"?>
<!DOCTYPE svg PUBLIC "-//W3C//DTD SVG 1.1//EN"
 "http://www.w3.org/Graphics/SVG/1.1/DTD/svg11.dtd">
<!-- Generated by graphviz version 2.40.1 (20161225.0304)
 -->
<!-- Title: IEquals_Twchar_tArr Pages: 1 -->
<svg width="237pt" height="152pt"
 viewBox="0.00 0.00 237.00 152.00" xmlns="http://www.w3.org/2000/svg" xmlns:xlink="http://www.w3.org/1999/xlink">
<g id="graph0" class="graph" transform="scale(1 1) rotate(0) translate(4 148)">
<title>IEquals_Twchar_tArr</title>
<polygon fill="#ffffff" stroke="transparent" points="-4,4 -4,-148 233,-148 233,4 -4,4"/>
<!-- Node4 -->
<g id="node1" class="node">
<title>Node4</title>
<polygon fill="#bfbfbf" stroke="#000000" points="86,-.5 86,-19.5 193,-19.5 193,-.5 86,-.5"/>
<text text-anchor="middle" x="139.5" y="-7.5" font-family="Helvetica,sans-Serif" font-size="10.00" fill="#000000">IEquals_Twchar_tArr</text>
</g>
<!-- Node7 -->
<g id="node2" class="node">
<title>Node7</title>
<g id="a_node2"><a xlink:href="classaworx_1_1lib_1_1lang_1_1Singleton.html" target="_top" xlink:title="Singleton\&lt;IEquals_Twchar_tArr\&gt;">
<polygon fill="#ffffff" stroke="#000000" points="0,-57.5 0,-76.5 159,-76.5 159,-57.5 0,-57.5"/>
<text text-anchor="middle" x="79.5" y="-64.5" font-family="Helvetica,sans-Serif" font-size="10.00" fill="#000000">Singleton&lt;IEquals_Twchar_tArr&gt;</text>
</a>
</g>
</g>
<!-- Node7&#45;&gt;Node4 -->
<g id="edge3" class="edge">
<title>Node7&#45;&gt;Node4</title>
<path fill="none" stroke="#191970" d="M97.1431,-50.239C107.6771,-40.2317 120.6742,-27.8845 129.4721,-19.5265"/>
<polygon fill="#191970" stroke="#191970" points="94.5176,-47.9057 89.6782,-57.3307 99.3388,-52.9807 94.5176,-47.9057"/>
</g>
<!-- Node5 -->
<g id="node3" class="node">
<title>Node5</title>
<g id="a_node3"><a xlink:href="classaworx_1_1lib_1_1boxing_1_1IEquals.html" target="_top" xlink:title="IEquals">
<polygon fill="#ffffff" stroke="#000000" points="176.5,-57.5 176.5,-76.5 226.5,-76.5 226.5,-57.5 176.5,-57.5"/>
<text text-anchor="middle" x="201.5" y="-64.5" font-family="Helvetica,sans-Serif" font-size="10.00" fill="#000000">IEquals</text>
</a>
</g>
</g>
<!-- Node5&#45;&gt;Node4 -->
<g id="edge1" class="edge">
<title>Node5&#45;&gt;Node4</title>
<path fill="none" stroke="#191970" d="M183.5882,-50.5327C172.6474,-40.4742 159.0425,-27.9664 149.8621,-19.5265"/>
<polygon fill="#191970" stroke="#191970" points="181.252,-53.1393 190.9825,-57.3307 185.9897,-47.9861 181.252,-53.1393"/>
</g>
<!-- Node6 -->
<g id="node4" class="node">
<title>Node6</title>
<g id="a_node4"><a xlink:href="classaworx_1_1lib_1_1boxing_1_1Interface.html" target="_top" xlink:title="Interface">
<polygon fill="#ffffff" stroke="#000000" points="174,-124.5 174,-143.5 229,-143.5 229,-124.5 174,-124.5"/>
<text text-anchor="middle" x="201.5" y="-131.5" font-family="Helvetica,sans-Serif" font-size="10.00" fill="#000000">Interface</text>
</a>
</g>
</g>
<!-- Node6&#45;&gt;Node5 -->
<g id="edge2" class="edge">
<title>Node6&#45;&gt;Node5</title>
<path fill="none" stroke="#191970" d="M201.5,-114.1079C201.5,-101.714 201.5,-86.3263 201.5,-76.5817"/>
<polygon fill="#191970" stroke="#191970" points="198.0001,-114.4005 201.5,-124.4005 205.0001,-114.4006 198.0001,-114.4005"/>
</g>
<!-- Node8 -->
<g id="node5" class="node">
<title>Node8</title>
<polygon fill="#ffffff" stroke="#bfbfbf" points="39.5,-124.5 39.5,-143.5 119.5,-143.5 119.5,-124.5 39.5,-124.5"/>
<text text-anchor="middle" x="79.5" y="-131.5" font-family="Helvetica,sans-Serif" font-size="10.00" fill="#000000">TDerivedClass</text>
</g>
<!-- Node8&#45;&gt;Node7 -->
<g id="edge4" class="edge">
<title>Node8&#45;&gt;Node7</title>
<path fill="none" stroke="#9a32cd" stroke-dasharray="5,2" d="M79.5,-114.1079C79.5,-101.714 79.5,-86.3263 79.5,-76.5817"/>
<polygon fill="#9a32cd" stroke="#9a32cd" points="76.0001,-114.4005 79.5,-124.4005 83.0001,-114.4006 76.0001,-114.4005"/>
<text text-anchor="middle" x="101" y="-98" font-family="Helvetica,sans-Serif" font-size="10.00" fill="#000000"> singleton</text>
</g>
</g>
</svg>
