<?xml version="1.0" encoding="UTF-8" standalone="no"?>
<!DOCTYPE svg PUBLIC "-//W3C//DTD SVG 1.1//EN"
 "http://www.w3.org/Graphics/SVG/1.1/DTD/svg11.dtd">
<!-- Generated by graphviz version 2.38.0 (20140413.2041)
 -->
<!-- Title: CommandLinePlugIn Pages: 1 -->
<svg width="616pt" height="221pt"
 viewBox="0.00 0.00 616.00 221.00" xmlns="http://www.w3.org/2000/svg" xmlns:xlink="http://www.w3.org/1999/xlink">
<g id="graph0" class="graph" transform="scale(1 1) rotate(0) translate(4 217)">
<title>CommandLinePlugIn</title>
<polygon fill="white" stroke="none" points="-4,4 -4,-217 612,-217 612,4 -4,4"/>
<!-- Node1 -->
<g id="node1" class="node"><title>Node1</title>
<polygon fill="#bfbfbf" stroke="black" points="8,-193.5 8,-212.5 115,-212.5 115,-193.5 8,-193.5"/>
<text text-anchor="middle" x="61.5" y="-200.5" font-family="Helvetica,sans-Serif" font-size="10.00">CommandLinePlugIn</text>
</g>
<!-- Node3 -->
<g id="node3" class="node"><title>Node3</title>
<g id="a_node3"><a xlink:href="classaworx_1_1lib_1_1config_1_1Configuration.html" target="_top" xlink:title="Configuration">
<polygon fill="white" stroke="black" points="228,-114.5 228,-133.5 302,-133.5 302,-114.5 228,-114.5"/>
<text text-anchor="middle" x="265" y="-121.5" font-family="Helvetica,sans-Serif" font-size="10.00">Configuration</text>
</a>
</g>
</g>
<!-- Node1&#45;&gt;Node3 -->
<g id="edge10" class="edge"><title>Node1&#45;&gt;Node3</title>
<path fill="none" stroke="#9a32cd" stroke-dasharray="5,2" d="M102.946,-190.405C109.651,-188.287 116.526,-186.096 123,-184 123.303,-183.902 209.709,-155.13 210,-155 223.81,-148.809 238.665,-140.118 249.292,-133.513"/>
<polygon fill="#9a32cd" stroke="#9a32cd" points="101.799,-187.097 93.311,-193.438 103.9,-193.774 101.799,-187.097"/>
<text text-anchor="middle" x="175.5" y="-180" font-family="Helvetica,sans-Serif" font-size="10.00"> cmdLineCP</text>
</g>
<!-- Node2 -->
<g id="node2" class="node"><title>Node2</title>
<g id="a_node2"><a xlink:href="classaworx_1_1lib_1_1config_1_1ConfigurationPlugIn.html" target="_top" xlink:title="ConfigurationPlugIn">
<polygon fill="white" stroke="black" points="370,-153.5 370,-172.5 472,-172.5 472,-153.5 370,-153.5"/>
<text text-anchor="middle" x="421" y="-160.5" font-family="Helvetica,sans-Serif" font-size="10.00">ConfigurationPlugIn</text>
</a>
</g>
</g>
<!-- Node2&#45;&gt;Node1 -->
<g id="edge1" class="edge"><title>Node2&#45;&gt;Node1</title>
<path fill="none" stroke="midnightblue" d="M359.924,-170.9C317.958,-176.306 260.606,-183.467 210,-189 178.548,-192.439 143.27,-195.805 115.102,-198.375"/>
<polygon fill="midnightblue" stroke="midnightblue" points="360.51,-174.354 369.979,-169.601 359.613,-167.411 360.51,-174.354"/>
</g>
<!-- Node7 -->
<g id="node7" class="node"><title>Node7</title>
<g id="a_node7"><a xlink:href="classaworx_1_1lib_1_1config_1_1EnvironmentPlugIn.html" target="_top" xlink:title="EnvironmentPlugIn">
<polygon fill="white" stroke="black" points="509,-130.5 509,-149.5 608,-149.5 608,-130.5 509,-130.5"/>
<text text-anchor="middle" x="558.5" y="-137.5" font-family="Helvetica,sans-Serif" font-size="10.00">EnvironmentPlugIn</text>
</a>
</g>
</g>
<!-- Node2&#45;&gt;Node7 -->
<g id="edge8" class="edge"><title>Node2&#45;&gt;Node7</title>
<path fill="none" stroke="midnightblue" d="M482.111,-152.797C491.103,-151.27 500.277,-149.713 508.988,-148.235"/>
<polygon fill="midnightblue" stroke="midnightblue" points="481.343,-149.377 472.07,-154.501 482.515,-156.278 481.343,-149.377"/>
</g>
<!-- Node3&#45;&gt;Node2 -->
<g id="edge2" class="edge"><title>Node3&#45;&gt;Node2</title>
<path fill="none" stroke="#9a32cd" stroke-dasharray="5,2" d="M311.922,-135.935C314.655,-136.636 317.363,-137.329 320,-138 340.29,-143.166 362.922,-148.832 381.516,-153.462"/>
<polygon fill="#9a32cd" stroke="#9a32cd" points="312.564,-132.486 302.007,-133.382 310.818,-139.265 312.564,-132.486"/>
<text text-anchor="middle" x="336" y="-149" font-family="Helvetica,sans-Serif" font-size="10.00"> Parent</text>
</g>
<!-- Node4 -->
<g id="node4" class="node"><title>Node4</title>
<g id="a_node4"><a xlink:href="classaworx_1_1lib_1_1threads_1_1ThreadLock.html" target="_top" xlink:title="ThreadLock">
<polygon fill="white" stroke="red" points="27.5,-155.5 27.5,-174.5 95.5,-174.5 95.5,-155.5 27.5,-155.5"/>
<text text-anchor="middle" x="61.5" y="-162.5" font-family="Helvetica,sans-Serif" font-size="10.00">ThreadLock</text>
</a>
</g>
</g>
<!-- Node4&#45;&gt;Node3 -->
<g id="edge3" class="edge"><title>Node4&#45;&gt;Node3</title>
<path fill="none" stroke="midnightblue" d="M105.624,-156.225C142.07,-148.809 193.674,-138.31 227.954,-131.334"/>
<polygon fill="midnightblue" stroke="midnightblue" points="104.875,-152.806 95.7736,-158.23 106.271,-159.665 104.875,-152.806"/>
</g>
<!-- Node5 -->
<g id="node5" class="node"><title>Node5</title>
<g id="a_node5"><a xlink:href="classaworx_1_1lib_1_1strings_1_1NumberFormat.html" target="_top" xlink:title="NumberFormat">
<polygon fill="white" stroke="red" points="20.5,-88.5 20.5,-107.5 102.5,-107.5 102.5,-88.5 20.5,-88.5"/>
<text text-anchor="middle" x="61.5" y="-95.5" font-family="Helvetica,sans-Serif" font-size="10.00">NumberFormat</text>
</a>
</g>
</g>
<!-- Node5&#45;&gt;Node3 -->
<g id="edge4" class="edge"><title>Node5&#45;&gt;Node3</title>
<path fill="none" stroke="#9a32cd" stroke-dasharray="5,2" d="M113.018,-104.518C148.753,-109.129 195.817,-115.202 227.836,-119.334"/>
<polygon fill="#9a32cd" stroke="#9a32cd" points="113.158,-101.008 102.792,-103.199 112.262,-107.95 113.158,-101.008"/>
<text text-anchor="middle" x="175.5" y="-121" font-family="Helvetica,sans-Serif" font-size="10.00"> NumberFormat</text>
</g>
<!-- Node5&#45;&gt;Node5 -->
<g id="edge5" class="edge"><title>Node5&#45;&gt;Node5</title>
<path fill="none" stroke="#9a32cd" stroke-dasharray="5,2" d="M40.3899,-117.4C41.7997,-122.315 48.8364,-126 61.5,-126 81.7617,-126 87.6186,-116.565 79.0707,-107.757"/>
<polygon fill="#9a32cd" stroke="#9a32cd" points="43.7693,-118.351 43.9293,-107.757 37.1979,-115.939 43.7693,-118.351"/>
<text text-anchor="middle" x="61.5" y="-129" font-family="Helvetica,sans-Serif" font-size="10.00"> Global</text>
</g>
<!-- Node6 -->
<g id="node6" class="node"><title>Node6</title>
<polygon fill="white" stroke="#bfbfbf" points="14,-39 14,-69 109,-69 109,-39 14,-39"/>
<text text-anchor="start" x="22" y="-57" font-family="Helvetica,sans-Serif" font-size="10.00">vector&lt; aworx::lib</text>
<text text-anchor="middle" x="61.5" y="-46" font-family="Helvetica,sans-Serif" font-size="10.00">::strings::String &gt;</text>
</g>
<!-- Node6&#45;&gt;Node3 -->
<g id="edge6" class="edge"><title>Node6&#45;&gt;Node3</title>
<path fill="none" stroke="#9a32cd" stroke-dasharray="5,2" d="M119.269,-65.987C147.132,-72.7224 180.883,-82.1688 210,-94 223.711,-99.5714 238.332,-107.854 248.897,-114.305"/>
<polygon fill="#9a32cd" stroke="#9a32cd" points="119.827,-62.5224 109.29,-63.6288 118.217,-69.3348 119.827,-62.5224"/>
<text text-anchor="middle" x="175.5" y="-97" font-family="Helvetica,sans-Serif" font-size="10.00"> TrueValues</text>
</g>
<!-- Node7&#45;&gt;Node3 -->
<g id="edge7" class="edge"><title>Node7&#45;&gt;Node3</title>
<path fill="none" stroke="#9a32cd" stroke-dasharray="5,2" d="M498.707,-134.891C489.764,-134.199 480.64,-133.542 472,-133 412.513,-129.267 343.266,-126.583 302.118,-125.162"/>
<polygon fill="#9a32cd" stroke="#9a32cd" points="498.447,-138.381 508.692,-135.682 499,-131.403 498.447,-138.381"/>
<text text-anchor="middle" x="421" y="-136" font-family="Helvetica,sans-Serif" font-size="10.00"> envCP</text>
</g>
<!-- Node8 -->
<g id="node8" class="node"><title>Node8</title>
<polygon fill="white" stroke="#bfbfbf" points="0,-0.5 0,-19.5 123,-19.5 123,-0.5 0,-0.5"/>
<text text-anchor="middle" x="61.5" y="-7.5" font-family="Helvetica,sans-Serif" font-size="10.00">vector&lt; PluginAndPrio &gt;</text>
</g>
<!-- Node8&#45;&gt;Node3 -->
<g id="edge9" class="edge"><title>Node8&#45;&gt;Node3</title>
<path fill="none" stroke="#9a32cd" stroke-dasharray="5,2" d="M127.604,-22.0057C154.728,-29.1414 185.535,-40.1941 210,-57 232.412,-72.3953 250.25,-99.7643 258.69,-114.301"/>
<polygon fill="#9a32cd" stroke="#9a32cd" points="128.346,-18.5837 117.796,-19.5506 126.647,-25.3742 128.346,-18.5837"/>
<text text-anchor="middle" x="175.5" y="-60" font-family="Helvetica,sans-Serif" font-size="10.00"> plugins</text>
</g>
</g>
</svg>
