<?xml version="1.0" encoding="UTF-8" standalone="no"?>
<!DOCTYPE svg PUBLIC "-//W3C//DTD SVG 1.1//EN"
 "http://www.w3.org/Graphics/SVG/1.1/DTD/svg11.dtd">
<!-- Generated by graphviz version 2.40.1 (20161225.0304)
 -->
<!-- Title: PropertyFormatter&lt;TFormattable, TESCIdentifier&gt; Pages: 1 -->
<svg width="538pt" height="309pt"
 viewBox="0.00 0.00 537.50 309.00" xmlns="http://www.w3.org/2000/svg" xmlns:xlink="http://www.w3.org/1999/xlink">
<g id="graph0" class="graph" transform="scale(1 1) rotate(0) translate(4 305)">
<title>PropertyFormatter&lt;TFormattable, TESCIdentifier&gt;</title>
<polygon fill="#ffffff" stroke="transparent" points="-4,4 -4,-305 533.5,-305 533.5,4 -4,4"/>
<!-- Node1 -->
<g id="node1" class="node">
<title>Node1</title>
<polygon fill="#bfbfbf" stroke="#000000" points="142,-.5 142,-19.5 377,-19.5 377,-.5 142,-.5"/>
<text text-anchor="middle" x="259.5" y="-7.5" font-family="Helvetica,sans-Serif" font-size="10.00" fill="#000000">PropertyFormatter&lt;TFormattable, TESCIdentifier&gt;</text>
</g>
<!-- Node13 -->
<g id="node2" class="node">
<title>Node13</title>
<g id="a_node2"><a xlink:title="STL class. ">
<polygon fill="#ffffff" stroke="#bfbfbf" points="455,-203.5 455,-222.5 528,-222.5 528,-203.5 455,-203.5"/>
<text text-anchor="middle" x="491.5" y="-210.5" font-family="Helvetica,sans-Serif" font-size="10.00" fill="#000000">vector&lt;Box&gt;</text>
</a>
</g>
</g>
<!-- Node12 -->
<g id="node10" class="node">
<title>Node12</title>
<g id="a_node10"><a xlink:href="classaworx_1_1lib_1_1boxing_1_1Boxes.html" target="_top" xlink:title="Boxes">
<polygon fill="#ffffff" stroke="#000000" points="469.5,-136.5 469.5,-155.5 513.5,-155.5 513.5,-136.5 469.5,-136.5"/>
<text text-anchor="middle" x="491.5" y="-143.5" font-family="Helvetica,sans-Serif" font-size="10.00" fill="#000000">Boxes</text>
</a>
</g>
</g>
<!-- Node13&#45;&gt;Node12 -->
<g id="edge12" class="edge">
<title>Node13&#45;&gt;Node12</title>
<path fill="none" stroke="#191970" d="M491.5,-193.1079C491.5,-180.714 491.5,-165.3263 491.5,-155.5817"/>
<polygon fill="#191970" stroke="#191970" points="488.0001,-193.4005 491.5,-203.4005 495.0001,-193.4006 488.0001,-193.4005"/>
</g>
<!-- Node15 -->
<g id="node3" class="node">
<title>Node15</title>
<polygon fill="#ffffff" stroke="#bfbfbf" points="0,-68.5 0,-87.5 179,-87.5 179,-68.5 0,-68.5"/>
<text text-anchor="middle" x="89.5" y="-75.5" font-family="Helvetica,sans-Serif" font-size="10.00" fill="#000000">vector&lt;const TCallbackTableEntry *&gt;</text>
</g>
<!-- Node15&#45;&gt;Node1 -->
<g id="edge13" class="edge">
<title>Node15&#45;&gt;Node1</title>
<path fill="none" stroke="#9a32cd" stroke-dasharray="5,2" d="M111.4036,-62.5725C123.8663,-54.356 140.0343,-44.6105 155.5,-38 173.7253,-30.2099 194.6884,-24.0704 212.9973,-19.5503"/>
<polygon fill="#9a32cd" stroke="#9a32cd" points="109.3735,-59.72 103.0466,-68.2184 113.2922,-65.5204 109.3735,-59.72"/>
<text text-anchor="middle" x="178.5" y="-41" font-family="Helvetica,sans-Serif" font-size="10.00" fill="#000000"> callBacks</text>
</g>
<!-- Node2 -->
<g id="node4" class="node">
<title>Node2</title>
<g id="a_node4"><a xlink:href="classaworx_1_1lib_1_1strings_1_1format_1_1Formatter.html" target="_top" xlink:title="[DOX_ALIB_ENUM_META_DATA_SPECIFCATION_using_enum] ">
<polygon fill="#ffffff" stroke="#000000" points="329,-68.5 329,-87.5 388,-87.5 388,-68.5 329,-68.5"/>
<text text-anchor="middle" x="358.5" y="-75.5" font-family="Helvetica,sans-Serif" font-size="10.00" fill="#000000">Formatter</text>
</a>
</g>
</g>
<!-- Node2&#45;&gt;Node1 -->
<g id="edge1" class="edge">
<title>Node2&#45;&gt;Node1</title>
<path fill="none" stroke="#9a32cd" stroke-dasharray="5,2" d="M335.8207,-62.4223C316.5554,-49.1895 289.5253,-30.6234 273.3388,-19.5054"/>
<polygon fill="#9a32cd" stroke="#9a32cd" points="334.0912,-65.4805 344.3157,-68.2573 338.0545,-59.7105 334.0912,-65.4805"/>
<text text-anchor="middle" x="345" y="-41" font-family="Helvetica,sans-Serif" font-size="10.00" fill="#000000"> theFormatter</text>
</g>
<!-- Node2&#45;&gt;Node2 -->
<g id="edge2" class="edge">
<title>Node2&#45;&gt;Node2</title>
<path fill="none" stroke="#9a32cd" stroke-dasharray="5,2" d="M398.1722,-83.4785C402.9076,-82.4824 406,-80.6563 406,-78 406,-73.75 398.0833,-71.625 388.1875,-71.625"/>
<polygon fill="#9a32cd" stroke="#9a32cd" points="397.8344,-79.9947 388.1875,-84.375 398.4605,-86.9666 397.8344,-79.9947"/>
<text text-anchor="middle" x="442" y="-81" font-family="Helvetica,sans-Serif" font-size="10.00" fill="#000000"> Next</text>
<text text-anchor="middle" x="442" y="-70" font-family="Helvetica,sans-Serif" font-size="10.00" fill="#000000">defaultFormatter</text>
</g>
<!-- Node3 -->
<g id="node5" class="node">
<title>Node3</title>
<g id="a_node5"><a xlink:href="classaworx_1_1lib_1_1strings_1_1AString.html" target="_top" xlink:title="AString">
<polygon fill="#ffffff" stroke="#000000" points="213,-136.5 213,-155.5 262,-155.5 262,-136.5 213,-136.5"/>
<text text-anchor="middle" x="237.5" y="-143.5" font-family="Helvetica,sans-Serif" font-size="10.00" fill="#000000">AString</text>
</a>
</g>
</g>
<!-- Node3&#45;&gt;Node1 -->
<g id="edge3" class="edge">
<title>Node3&#45;&gt;Node1</title>
<path fill="none" stroke="#9a32cd" stroke-dasharray="5,2" d="M229.7566,-126.9411C224.2775,-110.7752 218.8271,-87.0799 224.5,-67 229.6777,-48.6729 242.5855,-30.4345 251.1942,-19.6927"/>
<polygon fill="#9a32cd" stroke="#9a32cd" points="226.4906,-128.2005 233.2446,-136.3635 233.0553,-125.7703 226.4906,-128.2005"/>
<text text-anchor="middle" x="272" y="-81" font-family="Helvetica,sans-Serif" font-size="10.00" fill="#000000"> propertyFormatString</text>
<text text-anchor="middle" x="272" y="-70" font-family="Helvetica,sans-Serif" font-size="10.00" fill="#000000">formatString</text>
</g>
<!-- Node3&#45;&gt;Node2 -->
<g id="edge4" class="edge">
<title>Node3&#45;&gt;Node2</title>
<path fill="none" stroke="#9a32cd" stroke-dasharray="5,2" d="M248.6593,-127.6351C253.8921,-120.3317 260.6993,-112.3995 268.5,-107 278.4211,-100.1329 306.6239,-91.5901 328.8417,-85.5604"/>
<polygon fill="#9a32cd" stroke="#9a32cd" points="245.5172,-126.0409 242.9166,-136.3117 251.3545,-129.9044 245.5172,-126.0409"/>
<text text-anchor="middle" x="308" y="-110" font-family="Helvetica,sans-Serif" font-size="10.00" fill="#000000"> mbsFormatString</text>
</g>
<!-- Node4 -->
<g id="node6" class="node">
<title>Node4</title>
<g id="a_node6"><a xlink:href="classaworx_1_1lib_1_1strings_1_1TString.html" target="_top" xlink:title="TString">
<polygon fill="#ffffff" stroke="#ff0000" points="229.5,-281.5 229.5,-300.5 277.5,-300.5 277.5,-281.5 229.5,-281.5"/>
<text text-anchor="middle" x="253.5" y="-288.5" font-family="Helvetica,sans-Serif" font-size="10.00" fill="#000000">TString</text>
</a>
</g>
</g>
<!-- Node4&#45;&gt;Node3 -->
<g id="edge5" class="edge">
<title>Node4&#45;&gt;Node3</title>
<path fill="none" stroke="#191970" d="M251.3292,-271.3268C247.856,-239.8513 241.1766,-179.3195 238.5746,-155.739"/>
<polygon fill="#191970" stroke="#191970" points="247.8744,-271.9304 252.4502,-281.4861 254.8322,-271.1626 247.8744,-271.9304"/>
</g>
<!-- Node7 -->
<g id="node7" class="node">
<title>Node7</title>
<g id="a_node7"><a xlink:href="classaworx_1_1lib_1_1lang_1_1Ownable.html" target="_top" xlink:title="Ownable">
<polygon fill="#ffffff" stroke="#000000" points="265.5,-203.5 265.5,-222.5 319.5,-222.5 319.5,-203.5 265.5,-203.5"/>
<text text-anchor="middle" x="292.5" y="-210.5" font-family="Helvetica,sans-Serif" font-size="10.00" fill="#000000">Ownable</text>
</a>
</g>
</g>
<!-- Node4&#45;&gt;Node7 -->
<g id="edge6" class="edge">
<title>Node4&#45;&gt;Node7</title>
<path fill="none" stroke="#9a32cd" stroke-dasharray="5,2" d="M262.907,-272.186C270.7206,-256.5589 281.5189,-234.9623 287.6787,-222.6426"/>
<polygon fill="#9a32cd" stroke="#9a32cd" points="259.6239,-270.9261 258.2822,-281.4357 265.8849,-274.0567 259.6239,-270.9261"/>
<text text-anchor="middle" x="336" y="-255" font-family="Helvetica,sans-Serif" font-size="10.00" fill="#000000"> acquirementMethodName</text>
<text text-anchor="middle" x="336" y="-244" font-family="Helvetica,sans-Serif" font-size="10.00" fill="#000000">acquirementSourcefile</text>
</g>
<!-- Node6 -->
<g id="node8" class="node">
<title>Node6</title>
<g id="a_node8"><a xlink:href="classaworx_1_1lib_1_1threads_1_1ThreadLock.html" target="_top" xlink:title="ThreadLock">
<polygon fill="#ffffff" stroke="#000000" points="316.5,-136.5 316.5,-155.5 384.5,-155.5 384.5,-136.5 316.5,-136.5"/>
<text text-anchor="middle" x="350.5" y="-143.5" font-family="Helvetica,sans-Serif" font-size="10.00" fill="#000000">ThreadLock</text>
</a>
</g>
</g>
<!-- Node7&#45;&gt;Node6 -->
<g id="edge8" class="edge">
<title>Node7&#45;&gt;Node6</title>
<path fill="none" stroke="#191970" d="M307.4634,-195.7147C318.5212,-182.941 333.1672,-166.0224 342.2054,-155.5817"/>
<polygon fill="#191970" stroke="#191970" points="304.7088,-193.5491 300.81,-203.4005 310.0013,-198.1307 304.7088,-193.5491"/>
</g>
<!-- Node6&#45;&gt;Node2 -->
<g id="edge7" class="edge">
<title>Node6&#45;&gt;Node2</title>
<path fill="none" stroke="#9a32cd" stroke-dasharray="5,2" d="M350.1994,-126.1964C350.3222,-120.0256 350.6801,-113.2112 351.5,-107 352.3676,-100.4275 354.1176,-93.1775 355.6507,-87.5706"/>
<polygon fill="#9a32cd" stroke="#9a32cd" points="346.6993,-126.3338 350.1833,-136.3393 353.6992,-126.3449 346.6993,-126.3338"/>
<text text-anchor="middle" x="399.5" y="-110" font-family="Helvetica,sans-Serif" font-size="10.00" fill="#000000"> defaultFormatterLock</text>
</g>
<!-- Node8 -->
<g id="node9" class="node">
<title>Node8</title>
<g id="a_node9"><a xlink:href="classaworx_1_1lib_1_1threads_1_1Thread.html" target="_top" xlink:title="Thread">
<polygon fill="#ffffff" stroke="#ff0000" points="338,-203.5 338,-222.5 385,-222.5 385,-203.5 338,-203.5"/>
<text text-anchor="middle" x="361.5" y="-210.5" font-family="Helvetica,sans-Serif" font-size="10.00" fill="#000000">Thread</text>
</a>
</g>
</g>
<!-- Node8&#45;&gt;Node6 -->
<g id="edge9" class="edge">
<title>Node8&#45;&gt;Node6</title>
<path fill="none" stroke="#9a32cd" stroke-dasharray="5,2" d="M358.2963,-193.4863C356.251,-181.0286 353.6893,-165.4258 352.0731,-155.5817"/>
<polygon fill="#9a32cd" stroke="#9a32cd" points="354.85,-194.0997 359.924,-203.4005 361.7575,-192.9656 354.85,-194.0997"/>
<text text-anchor="middle" x="372" y="-177" font-family="Helvetica,sans-Serif" font-size="10.00" fill="#000000"> owner</text>
</g>
<!-- Node12&#45;&gt;Node1 -->
<g id="edge10" class="edge">
<title>Node12&#45;&gt;Node1</title>
<path fill="none" stroke="#9a32cd" stroke-dasharray="5,2" d="M496.6523,-126.4315C500.0871,-108.4532 501.577,-82.3409 486.5,-67 464.7472,-44.8664 388.1352,-28.8526 329.8754,-19.5357"/>
<polygon fill="#9a32cd" stroke="#9a32cd" points="493.1888,-125.8792 494.393,-136.4054 500.0158,-127.4258 493.1888,-125.8792"/>
<text text-anchor="middle" x="513" y="-75.5" font-family="Helvetica,sans-Serif" font-size="10.00" fill="#000000"> results</text>
</g>
<!-- Node12&#45;&gt;Node2 -->
<g id="edge11" class="edge">
<title>Node12&#45;&gt;Node2</title>
<path fill="none" stroke="#9a32cd" stroke-dasharray="5,2" d="M475.8372,-129.242C467.9449,-121.5917 457.8637,-112.9354 447.5,-107 429.0264,-96.42 406.1542,-89.0741 388.2225,-84.4229"/>
<polygon fill="#9a32cd" stroke="#9a32cd" points="473.4107,-131.766 482.9291,-136.4191 478.3899,-126.8458 473.4107,-131.766"/>
<text text-anchor="middle" x="477.5" y="-110" font-family="Helvetica,sans-Serif" font-size="10.00" fill="#000000"> boxes</text>
</g>
</g>
</svg>
