<?xml version="1.0" encoding="UTF-8" standalone="no"?>
<!DOCTYPE svg PUBLIC "-//W3C//DTD SVG 1.1//EN"
 "http://www.w3.org/Graphics/SVG/1.1/DTD/svg11.dtd">
<!-- Generated by graphviz version 2.40.1 (20161225.0304)
 -->
<!-- Title: InMemoryPlugin::Entry Pages: 1 -->
<svg width="619pt" height="94pt"
 viewBox="0.00 0.00 619.00 94.39" xmlns="http://www.w3.org/2000/svg" xmlns:xlink="http://www.w3.org/1999/xlink">
<g id="graph0" class="graph" transform="scale(1 1) rotate(0) translate(4 90.3859)">
<title>InMemoryPlugin::Entry</title>
<polygon fill="#ffffff" stroke="transparent" points="-4,4 -4,-90.3859 615,-90.3859 615,4 -4,4"/>
<!-- Node2 -->
<g id="node1" class="node">
<title>Node2</title>
<polygon fill="#bfbfbf" stroke="#000000" points="495,-34.8859 495,-53.8859 611,-53.8859 611,-34.8859 495,-34.8859"/>
<text text-anchor="middle" x="553" y="-41.8859" font-family="Helvetica,sans-Serif" font-size="10.00" fill="#000000">InMemoryPlugin::Entry</text>
</g>
<!-- Node3 -->
<g id="node2" class="node">
<title>Node3</title>
<polygon fill="#ffffff" stroke="#bfbfbf" points="245,-41.8859 245,-60.8859 333,-60.8859 333,-41.8859 245,-41.8859"/>
<text text-anchor="middle" x="289" y="-48.8859" font-family="Helvetica,sans-Serif" font-size="10.00" fill="#000000">vector&lt;AString&gt;</text>
</g>
<!-- Node3&#45;&gt;Node2 -->
<g id="edge1" class="edge">
<title>Node3&#45;&gt;Node2</title>
<path fill="none" stroke="#9a32cd" stroke-dasharray="5,2" d="M343.4395,-49.9424C387.5777,-48.7721 449.6453,-47.1264 494.7705,-45.9299"/>
<polygon fill="#9a32cd" stroke="#9a32cd" points="343.0913,-46.4504 333.1877,-50.2143 343.277,-53.4479 343.0913,-46.4504"/>
<text text-anchor="middle" x="430" y="-52.3859" font-family="Helvetica,sans-Serif" font-size="10.00" fill="#000000"> Values</text>
</g>
<!-- Node7 -->
<g id="node3" class="node">
<title>Node7</title>
<g id="a_node3"><a xlink:href="classaworx_1_1lib_1_1strings_1_1PreallocatedString.html" target="_top" xlink:title="PreallocatedString\&lt;TCapacity\&gt;">
<polygon fill="#ffffff" stroke="#000000" points="213,-3.8859 213,-22.8859 365,-22.8859 365,-3.8859 213,-3.8859"/>
<text text-anchor="middle" x="289" y="-10.8859" font-family="Helvetica,sans-Serif" font-size="10.00" fill="#000000">PreallocatedString&lt;TCapacity&gt;</text>
</a>
</g>
</g>
<!-- Node7&#45;&gt;Node2 -->
<g id="edge6" class="edge">
<title>Node7&#45;&gt;Node2</title>
<path fill="none" stroke="#9a32cd" stroke-dasharray="5,2" d="M375.2535,-21.0829C407.2544,-24.2069 443.8268,-28.0941 477,-32.3859 482.8289,-33.14 488.8992,-33.9894 494.9558,-34.879"/>
<polygon fill="#9a32cd" stroke="#9a32cd" points="375.3245,-17.5736 365.0343,-20.0959 374.6514,-24.5411 375.3245,-17.5736"/>
<text text-anchor="middle" x="430" y="-35.3859" font-family="Helvetica,sans-Serif" font-size="10.00" fill="#000000"> FormatAttrAlignment</text>
</g>
<!-- Node7&#45;&gt;Node2 -->
<g id="edge7" class="edge">
<title>Node7&#45;&gt;Node2</title>
<path fill="none" stroke="#9a32cd" stroke-dasharray="5,2" d="M358.132,-2.7786C394.0219,.6263 438.3354,1.5259 477,-7.3859 499.7371,-12.6266 523.5481,-25.6304 538.3279,-34.7324"/>
<polygon fill="#9a32cd" stroke="#9a32cd" points="357.3493,.6592 347.7634,-3.8531 358.0709,-6.3035 357.3493,.6592"/>
<text text-anchor="middle" x="430" y="-10.3859" font-family="Helvetica,sans-Serif" font-size="10.00" fill="#000000"> Name</text>
</g>
<!-- Node4 -->
<g id="node4" class="node">
<title>Node4</title>
<g id="a_node4"><a xlink:href="classaworx_1_1lib_1_1strings_1_1AString.html" target="_top" xlink:title="AString">
<polygon fill="#ffffff" stroke="#000000" points="85,-41.8859 85,-60.8859 134,-60.8859 134,-41.8859 85,-41.8859"/>
<text text-anchor="middle" x="109.5" y="-48.8859" font-family="Helvetica,sans-Serif" font-size="10.00" fill="#000000">AString</text>
</a>
</g>
</g>
<!-- Node4&#45;&gt;Node2 -->
<g id="edge2" class="edge">
<title>Node4&#45;&gt;Node2</title>
<path fill="none" stroke="#9a32cd" stroke-dasharray="5,2" d="M142.7293,-64.0771C145.8329,-64.9693 148.9556,-65.7612 152,-66.3859 178.6148,-71.8472 185.8452,-69.4966 213,-70.3859 330.3007,-74.2277 361.051,-82.5535 477,-64.3859 492.2315,-61.9994 508.8243,-57.8229 522.6088,-53.9017"/>
<polygon fill="#9a32cd" stroke="#9a32cd" points="143.592,-60.6784 133.0012,-60.9674 141.4607,-67.3461 143.592,-60.6784"/>
<text text-anchor="middle" x="289" y="-78.3859" font-family="Helvetica,sans-Serif" font-size="10.00" fill="#000000"> Comments</text>
</g>
<!-- Node4&#45;&gt;Node3 -->
<g id="edge3" class="edge">
<title>Node4&#45;&gt;Node3</title>
<path fill="none" stroke="#9a32cd" stroke-dasharray="5,2" d="M144.4236,-51.3859C173.0683,-51.3859 213.7919,-51.3859 244.7228,-51.3859"/>
<polygon fill="#9a32cd" stroke="#9a32cd" points="144.0824,-47.886 134.0823,-51.3859 144.0823,-54.886 144.0824,-47.886"/>
<text text-anchor="middle" x="173.5" y="-54.3859" font-family="Helvetica,sans-Serif" font-size="10.00" fill="#000000"> elements</text>
</g>
<!-- Node4&#45;&gt;Node7 -->
<g id="edge4" class="edge">
<title>Node4&#45;&gt;Node7</title>
<path fill="none" stroke="#191970" d="M143.9745,-44.0877C172.424,-38.065 213.0092,-29.4731 244.014,-22.9094"/>
<polygon fill="#191970" stroke="#191970" points="143.1406,-40.6866 134.0823,-46.1819 144.5904,-47.5348 143.1406,-40.6866"/>
</g>
<!-- Node5 -->
<g id="node5" class="node">
<title>Node5</title>
<g id="a_node5"><a xlink:href="classaworx_1_1lib_1_1strings_1_1TString.html" target="_top" xlink:title="TString">
<polygon fill="#ffffff" stroke="#ff0000" points="0,-41.8859 0,-60.8859 48,-60.8859 48,-41.8859 0,-41.8859"/>
<text text-anchor="middle" x="24" y="-48.8859" font-family="Helvetica,sans-Serif" font-size="10.00" fill="#000000">TString</text>
</a>
</g>
</g>
<!-- Node5&#45;&gt;Node4 -->
<g id="edge5" class="edge">
<title>Node5&#45;&gt;Node4</title>
<path fill="none" stroke="#191970" d="M58.3599,-51.3859C67.2317,-51.3859 76.6054,-51.3859 84.8702,-51.3859"/>
<polygon fill="#191970" stroke="#191970" points="58.2722,-47.886 48.2722,-51.3859 58.2721,-54.886 58.2722,-47.886"/>
</g>
</g>
</svg>
