<?xml version="1.0" encoding="UTF-8" standalone="no"?>
<!DOCTYPE svg PUBLIC "-//W3C//DTD SVG 1.1//EN"
 "http://www.w3.org/Graphics/SVG/1.1/DTD/svg11.dtd">
<!-- Generated by graphviz version 2.38.0 (20140413.2041)
 -->
<!-- Title: ScopeStore&lt; StoreT &gt; Pages: 1 -->
<svg width="1158pt" height="564pt"
 viewBox="0.00 0.00 1158.00 564.00" xmlns="http://www.w3.org/2000/svg" xmlns:xlink="http://www.w3.org/1999/xlink">
<g id="graph0" class="graph" transform="scale(1 1) rotate(0) translate(4 560)">
<title>ScopeStore&lt; StoreT &gt;</title>
<polygon fill="white" stroke="none" points="-4,4 -4,-560 1154,-560 1154,4 -4,4"/>
<!-- Node2 -->
<g id="node1" class="node"><title>Node2</title>
<polygon fill="white" stroke="#bfbfbf" points="816,-449 816,-479 923,-479 923,-449 816,-449"/>
<text text-anchor="start" x="824" y="-467" font-family="Helvetica,sans-Serif" font-size="10.00">map&lt; int, std::vector</text>
<text text-anchor="middle" x="869.5" y="-456" font-family="Helvetica,sans-Serif" font-size="10.00">&lt; StoreT &gt; &gt;</text>
</g>
<!-- Node1 -->
<g id="node6" class="node"><title>Node1</title>
<polygon fill="#bfbfbf" stroke="black" points="1035,-483.5 1035,-502.5 1150,-502.5 1150,-483.5 1035,-483.5"/>
<text text-anchor="middle" x="1092.5" y="-490.5" font-family="Helvetica,sans-Serif" font-size="10.00">ScopeStore&lt; StoreT &gt;</text>
</g>
<!-- Node2&#45;&gt;Node1 -->
<g id="edge1" class="edge"><title>Node2&#45;&gt;Node1</title>
<path fill="none" stroke="#9a32cd" stroke-dasharray="5,2" d="M933.242,-469.962C959.211,-472.66 989.605,-476.118 1017,-480 1024.28,-481.032 1031.94,-482.234 1039.46,-483.483"/>
<polygon fill="#9a32cd" stroke="#9a32cd" points="933.456,-466.465 923.151,-468.928 932.742,-473.429 933.456,-466.465"/>
<text text-anchor="middle" x="979" y="-494" font-family="Helvetica,sans-Serif" font-size="10.00"> threadInnerStore</text>
<text text-anchor="middle" x="979" y="-483" font-family="Helvetica,sans-Serif" font-size="10.00">threadOuterStore</text>
</g>
<!-- Node3 -->
<g id="node2" class="node"><title>Node3</title>
<polygon fill="white" stroke="#bfbfbf" points="584,-506.5 584,-525.5 675,-525.5 675,-506.5 584,-506.5"/>
<text text-anchor="middle" x="629.5" y="-513.5" font-family="Helvetica,sans-Serif" font-size="10.00">vector&lt; StoreT &gt;</text>
</g>
<!-- Node3&#45;&gt;Node2 -->
<g id="edge3" class="edge"><title>Node3&#45;&gt;Node2</title>
<path fill="none" stroke="#9a32cd" stroke-dasharray="5,2" d="M672.725,-503.662C688.158,-499.365 705.801,-494.699 722,-491 752.886,-483.948 787.759,-477.462 815.73,-472.616"/>
<polygon fill="#9a32cd" stroke="#9a32cd" points="671.616,-500.339 662.939,-506.419 673.514,-507.076 671.616,-500.339"/>
<text text-anchor="middle" x="760" y="-494" font-family="Helvetica,sans-Serif" font-size="10.00"> elements</text>
</g>
<!-- Node3&#45;&gt;Node1 -->
<g id="edge2" class="edge"><title>Node3&#45;&gt;Node1</title>
<path fill="none" stroke="#9a32cd" stroke-dasharray="5,2" d="M685.356,-515.462C760.351,-514.396 899.045,-511.245 1017,-502 1022.71,-501.552 1028.67,-500.992 1034.6,-500.372"/>
<polygon fill="#9a32cd" stroke="#9a32cd" points="685.157,-511.964 675.205,-515.599 685.252,-518.964 685.157,-511.964"/>
<text text-anchor="middle" x="869.5" y="-515" font-family="Helvetica,sans-Serif" font-size="10.00"> walkThreadValues</text>
</g>
<!-- Node6 -->
<g id="node3" class="node"><title>Node6</title>
<g id="a_node3"><a xlink:title="STL class. ">
<polygon fill="white" stroke="#bfbfbf" points="593.5,-38.5 593.5,-57.5 665.5,-57.5 665.5,-38.5 593.5,-38.5"/>
<text text-anchor="middle" x="629.5" y="-45.5" font-family="Helvetica,sans-Serif" font-size="10.00">map&lt; K, T &gt;</text>
</a>
</g>
</g>
<!-- Node5 -->
<g id="node9" class="node"><title>Node5</title>
<g id="a_node9"><a xlink:href="classaworx_1_1lox_1_1core_1_1ScopeInfo.html" target="_top" xlink:title="ScopeInfo">
<polygon fill="white" stroke="black" points="839,-209.5 839,-228.5 900,-228.5 900,-209.5 839,-209.5"/>
<text text-anchor="middle" x="869.5" y="-216.5" font-family="Helvetica,sans-Serif" font-size="10.00">ScopeInfo</text>
</a>
</g>
</g>
<!-- Node6&#45;&gt;Node5 -->
<g id="edge7" class="edge"><title>Node6&#45;&gt;Node5</title>
<path fill="none" stroke="#9a32cd" stroke-dasharray="5,2" d="M676.019,-39.6962C712.32,-35.6627 762.748,-36.1362 798,-61 849.792,-97.5297 864.102,-181.178 867.532,-209.456"/>
<polygon fill="#9a32cd" stroke="#9a32cd" points="675.19,-36.2732 665.71,-41.0033 676.071,-43.2176 675.19,-36.2732"/>
<text text-anchor="middle" x="760" y="-64" font-family="Helvetica,sans-Serif" font-size="10.00"> threadDictionary</text>
</g>
<!-- Node13 -->
<g id="node4" class="node"><title>Node13</title>
<polygon fill="white" stroke="#bfbfbf" points="555,-198.5 555,-239.5 704,-239.5 704,-198.5 555,-198.5"/>
<text text-anchor="start" x="563" y="-227.5" font-family="Helvetica,sans-Serif" font-size="10.00">vector&lt; aworx::lox</text>
<text text-anchor="start" x="563" y="-216.5" font-family="Helvetica,sans-Serif" font-size="10.00">::core::ScopeInfo::SourcePath</text>
<text text-anchor="middle" x="629.5" y="-205.5" font-family="Helvetica,sans-Serif" font-size="10.00">TrimRule &gt;</text>
</g>
<!-- Node13&#45;&gt;Node5 -->
<g id="edge19" class="edge"><title>Node13&#45;&gt;Node5</title>
<path fill="none" stroke="#9a32cd" stroke-dasharray="5,2" d="M714.181,-219C757.589,-219 807.893,-219 838.959,-219"/>
<polygon fill="#9a32cd" stroke="#9a32cd" points="714.175,-215.5 704.175,-219 714.175,-222.5 714.175,-215.5"/>
<text text-anchor="middle" x="760" y="-233" font-family="Helvetica,sans-Serif" font-size="10.00"> GlobalSPTRs</text>
<text text-anchor="middle" x="760" y="-222" font-family="Helvetica,sans-Serif" font-size="10.00">LocalSPTRs</text>
</g>
<!-- Node20 -->
<g id="node5" class="node"><title>Node20</title>
<polygon fill="white" stroke="#bfbfbf" points="816,-389.5 816,-430.5 923,-430.5 923,-389.5 816,-389.5"/>
<text text-anchor="start" x="824" y="-418.5" font-family="Helvetica,sans-Serif" font-size="10.00">map&lt; std::thread::id,</text>
<text text-anchor="start" x="824" y="-407.5" font-family="Helvetica,sans-Serif" font-size="10.00"> aworx::lib::threads</text>
<text text-anchor="middle" x="869.5" y="-396.5" font-family="Helvetica,sans-Serif" font-size="10.00">::Thread * &gt;</text>
</g>
<!-- Node17 -->
<g id="node18" class="node"><title>Node17</title>
<g id="a_node18"><a xlink:href="classaworx_1_1lib_1_1threads_1_1Thread.html" target="_top" xlink:title="Thread">
<polygon fill="white" stroke="black" points="606,-400.5 606,-419.5 653,-419.5 653,-400.5 606,-400.5"/>
<text text-anchor="middle" x="629.5" y="-407.5" font-family="Helvetica,sans-Serif" font-size="10.00">Thread</text>
</a>
</g>
</g>
<!-- Node20&#45;&gt;Node17 -->
<g id="edge29" class="edge"><title>Node20&#45;&gt;Node17</title>
<path fill="none" stroke="#9a32cd" stroke-dasharray="5,2" d="M805.746,-421.235C803.134,-421.527 800.544,-421.785 798,-422 764.342,-424.844 755.706,-424.201 722,-422 698.499,-420.465 671.817,-416.737 653.357,-413.839"/>
<polygon fill="#9a32cd" stroke="#9a32cd" points="806.401,-424.68 815.883,-419.953 805.523,-417.735 806.401,-424.68"/>
<text text-anchor="middle" x="760" y="-427" font-family="Helvetica,sans-Serif" font-size="10.00"> threadMap</text>
</g>
<!-- Node16 -->
<g id="node7" class="node"><title>Node16</title>
<g id="a_node7"><a xlink:href="classaworx_1_1lib_1_1strings_1_1PreallocatedString.html" target="_top" xlink:title="PreallocatedString\l\&lt; TCapacity \&gt;">
<polygon fill="white" stroke="black" points="368.5,-328 368.5,-358 464.5,-358 464.5,-328 368.5,-328"/>
<text text-anchor="start" x="376.5" y="-346" font-family="Helvetica,sans-Serif" font-size="10.00">PreallocatedString</text>
<text text-anchor="middle" x="416.5" y="-335" font-family="Helvetica,sans-Serif" font-size="10.00">&lt; TCapacity &gt;</text>
</a>
</g>
</g>
<!-- Node16&#45;&gt;Node5 -->
<g id="edge23" class="edge"><title>Node16&#45;&gt;Node5</title>
<path fill="none" stroke="#9a32cd" stroke-dasharray="5,2" d="M474.908,-343.188C533.469,-342.087 626.489,-336.744 704,-316 748.38,-304.123 758.627,-296.673 798,-273 820.462,-259.495 844.181,-240.113 857.582,-228.615"/>
<polygon fill="#9a32cd" stroke="#9a32cd" points="474.689,-339.691 464.744,-343.343 474.796,-346.69 474.689,-339.691"/>
<text text-anchor="middle" x="629.5" y="-343" font-family="Helvetica,sans-Serif" font-size="10.00"> loxName</text>
</g>
<!-- Node16&#45;&gt;Node17 -->
<g id="edge24" class="edge"><title>Node16&#45;&gt;Node17</title>
<path fill="none" stroke="#9a32cd" stroke-dasharray="5,2" d="M474.14,-360.985C517.371,-374.713 574.65,-392.901 605.859,-402.811"/>
<polygon fill="#9a32cd" stroke="#9a32cd" points="475.18,-357.643 464.59,-357.953 473.062,-364.315 475.18,-357.643"/>
<text text-anchor="middle" x="512.5" y="-384" font-family="Helvetica,sans-Serif" font-size="10.00"> name</text>
</g>
<!-- Node4 -->
<g id="node8" class="node"><title>Node4</title>
<polygon fill="white" stroke="#bfbfbf" points="393.5,-528.5 393.5,-547.5 439.5,-547.5 439.5,-528.5 393.5,-528.5"/>
<text text-anchor="middle" x="416.5" y="-535.5" font-family="Helvetica,sans-Serif" font-size="10.00">StoreT</text>
</g>
<!-- Node4&#45;&gt;Node3 -->
<g id="edge5" class="edge"><title>Node4&#45;&gt;Node3</title>
<path fill="none" stroke="#9a32cd" stroke-dasharray="5,2" d="M449.746,-534.247C461.751,-532.875 475.495,-531.332 488,-530 520.053,-526.585 556.249,-522.984 583.874,-520.29"/>
<polygon fill="#9a32cd" stroke="#9a32cd" points="449.253,-530.781 439.718,-535.4 450.052,-537.735 449.253,-530.781"/>
<text text-anchor="middle" x="512.5" y="-533" font-family="Helvetica,sans-Serif" font-size="10.00"> elements</text>
</g>
<!-- Node4&#45;&gt;Node1 -->
<g id="edge4" class="edge"><title>Node4&#45;&gt;Node1</title>
<path fill="none" stroke="#9a32cd" stroke-dasharray="5,2" d="M449.747,-539.661C461.752,-540.203 475.496,-540.734 488,-541 509.773,-541.463 515.226,-541.391 537,-541 566.02,-540.479 907.625,-528.016 923,-527 964.878,-524.233 975.95,-526.733 1017,-518 1034.35,-514.31 1053.29,-507.92 1067.73,-502.525"/>
<polygon fill="#9a32cd" stroke="#9a32cd" points="449.873,-536.163 439.719,-539.188 449.543,-543.155 449.873,-536.163"/>
<text text-anchor="middle" x="760" y="-548" font-family="Helvetica,sans-Serif" font-size="10.00"> walkLocalObject</text>
<text text-anchor="middle" x="760" y="-537" font-family="Helvetica,sans-Serif" font-size="10.00">globalStore</text>
</g>
<!-- Node5&#45;&gt;Node1 -->
<g id="edge6" class="edge"><title>Node5&#45;&gt;Node1</title>
<path fill="none" stroke="#9a32cd" stroke-dasharray="5,2" d="M884.89,-236.841C927.393,-289.537 1051.42,-443.302 1083.73,-483.365"/>
<polygon fill="#9a32cd" stroke="#9a32cd" points="887.368,-234.338 878.366,-228.752 881.919,-238.733 887.368,-234.338"/>
<text text-anchor="middle" x="979" y="-400" font-family="Helvetica,sans-Serif" font-size="10.00"> scopeInfo</text>
</g>
<!-- Node7 -->
<g id="node10" class="node"><title>Node7</title>
<polygon fill="white" stroke="#bfbfbf" points="402,-0.5 402,-19.5 431,-19.5 431,-0.5 402,-0.5"/>
<text text-anchor="middle" x="416.5" y="-7.5" font-family="Helvetica,sans-Serif" font-size="10.00">K</text>
</g>
<!-- Node7&#45;&gt;Node6 -->
<g id="edge8" class="edge"><title>Node7&#45;&gt;Node6</title>
<path fill="none" stroke="#9a32cd" stroke-dasharray="5,2" d="M440.876,-14.2099C477.843,-20.8675 550.031,-33.8681 593.29,-41.6589"/>
<polygon fill="#9a32cd" stroke="#9a32cd" points="441.482,-10.7628 431.02,-12.4349 440.241,-17.652 441.482,-10.7628"/>
<text text-anchor="middle" x="512.5" y="-35" font-family="Helvetica,sans-Serif" font-size="10.00"> keys</text>
</g>
<!-- Node8 -->
<g id="node11" class="node"><title>Node8</title>
<polygon fill="white" stroke="#bfbfbf" points="402,-38.5 402,-57.5 431,-57.5 431,-38.5 402,-38.5"/>
<text text-anchor="middle" x="416.5" y="-45.5" font-family="Helvetica,sans-Serif" font-size="10.00">T</text>
</g>
<!-- Node8&#45;&gt;Node6 -->
<g id="edge9" class="edge"><title>Node8&#45;&gt;Node6</title>
<path fill="none" stroke="#9a32cd" stroke-dasharray="5,2" d="M441.354,-48C478.462,-48 550.216,-48 593.29,-48"/>
<polygon fill="#9a32cd" stroke="#9a32cd" points="441.02,-44.5001 431.02,-48 441.02,-51.5001 441.02,-44.5001"/>
<text text-anchor="middle" x="512.5" y="-51" font-family="Helvetica,sans-Serif" font-size="10.00"> elements</text>
</g>
<!-- Node9 -->
<g id="node12" class="node"><title>Node9</title>
<g id="a_node12"><a xlink:href="classaworx_1_1lib_1_1strings_1_1String.html" target="_top" xlink:title="String">
<polygon fill="white" stroke="black" points="0,-135.5 0,-154.5 42,-154.5 42,-135.5 0,-135.5"/>
<text text-anchor="middle" x="21" y="-142.5" font-family="Helvetica,sans-Serif" font-size="10.00">String</text>
</a>
</g>
</g>
<!-- Node9&#45;&gt;Node5 -->
<g id="edge10" class="edge"><title>Node9&#45;&gt;Node5</title>
<path fill="none" stroke="#9a32cd" stroke-dasharray="5,2" d="M35.7272,-127.388C50.9623,-110.002 77.2853,-86 106.5,-86 106.5,-86 106.5,-86 630.5,-86 709.428,-86 731.728,-102.133 798,-145 825.712,-162.925 850.372,-193.867 861.785,-209.448"/>
<polygon fill="#9a32cd" stroke="#9a32cd" points="32.8838,-125.333 29.1747,-135.257 38.2632,-129.812 32.8838,-125.333"/>
<text text-anchor="middle" x="316.5" y="-89" font-family="Helvetica,sans-Serif" font-size="10.00"> threadName</text>
</g>
<!-- Node10 -->
<g id="node13" class="node"><title>Node10</title>
<g id="a_node13"><a xlink:href="classaworx_1_1lib_1_1strings_1_1TString.html" target="_top" xlink:title="TString">
<polygon fill="white" stroke="black" points="83.5,-135.5 83.5,-154.5 131.5,-154.5 131.5,-135.5 83.5,-135.5"/>
<text text-anchor="middle" x="107.5" y="-142.5" font-family="Helvetica,sans-Serif" font-size="10.00">TString</text>
</a>
</g>
</g>
<!-- Node9&#45;&gt;Node10 -->
<g id="edge11" class="edge"><title>Node9&#45;&gt;Node10</title>
<path fill="none" stroke="midnightblue" d="M52.2117,-145C62.4525,-145 73.7228,-145 83.3279,-145"/>
<polygon fill="midnightblue" stroke="midnightblue" points="52.0254,-141.5 42.0253,-145 52.0253,-148.5 52.0254,-141.5"/>
</g>
<!-- Node11 -->
<g id="node14" class="node"><title>Node11</title>
<g id="a_node14"><a xlink:href="structaworx_1_1lox_1_1core_1_1ScopeInfo_1_1SourceFile.html" target="_top" xlink:title="SourceFile">
<polygon fill="white" stroke="black" points="207,-161.5 207,-180.5 270,-180.5 270,-161.5 207,-161.5"/>
<text text-anchor="middle" x="238.5" y="-168.5" font-family="Helvetica,sans-Serif" font-size="10.00">SourceFile</text>
</a>
</g>
</g>
<!-- Node9&#45;&gt;Node11 -->
<g id="edge12" class="edge"><title>Node9&#45;&gt;Node11</title>
<path fill="none" stroke="#9a32cd" stroke-dasharray="5,2" d="M51.992,-156.351C54.6887,-157.28 57.3868,-158.177 60,-159 115.214,-176.392 131.221,-180.56 189,-177 194.758,-176.645 200.88,-176.055 206.765,-175.381"/>
<polygon fill="#9a32cd" stroke="#9a32cd" points="52.9811,-152.987 42.3865,-152.918 50.6256,-159.579 52.9811,-152.987"/>
<text text-anchor="middle" x="107.5" y="-214" font-family="Helvetica,sans-Serif" font-size="10.00"> fullPath</text>
<text text-anchor="middle" x="107.5" y="-203" font-family="Helvetica,sans-Serif" font-size="10.00">nameWOExt</text>
<text text-anchor="middle" x="107.5" y="-192" font-family="Helvetica,sans-Serif" font-size="10.00">name</text>
<text text-anchor="middle" x="107.5" y="-181" font-family="Helvetica,sans-Serif" font-size="10.00">trimmedPath</text>
</g>
<!-- Node10&#45;&gt;Node5 -->
<g id="edge13" class="edge"><title>Node10&#45;&gt;Node5</title>
<path fill="none" stroke="#9a32cd" stroke-dasharray="5,2" d="M141.807,-139.789C167.801,-136.172 204.857,-132 237.5,-132 237.5,-132 237.5,-132 630.5,-132 719.807,-132 817.133,-186.706 853.604,-209.357"/>
<polygon fill="#9a32cd" stroke="#9a32cd" points="141.132,-136.35 131.733,-141.24 142.13,-143.278 141.132,-136.35"/>
<text text-anchor="middle" x="416.5" y="-135" font-family="Helvetica,sans-Serif" font-size="10.00"> origMethod</text>
</g>
<!-- Node10&#45;&gt;Node11 -->
<g id="edge14" class="edge"><title>Node10&#45;&gt;Node11</title>
<path fill="none" stroke="#9a32cd" stroke-dasharray="5,2" d="M141.535,-151.658C161.662,-155.715 187.203,-160.863 206.875,-164.828"/>
<polygon fill="#9a32cd" stroke="#9a32cd" points="142.057,-148.193 131.563,-149.648 140.674,-155.055 142.057,-148.193"/>
<text text-anchor="middle" x="171.5" y="-165" font-family="Helvetica,sans-Serif" font-size="10.00"> origFile</text>
</g>
<!-- Node15 -->
<g id="node15" class="node"><title>Node15</title>
<g id="a_node15"><a xlink:href="classaworx_1_1lib_1_1strings_1_1AString.html" target="_top" xlink:title="AString">
<polygon fill="white" stroke="black" points="214,-209.5 214,-228.5 263,-228.5 263,-209.5 214,-209.5"/>
<text text-anchor="middle" x="238.5" y="-216.5" font-family="Helvetica,sans-Serif" font-size="10.00">AString</text>
</a>
</g>
</g>
<!-- Node10&#45;&gt;Node15 -->
<g id="edge15" class="edge"><title>Node10&#45;&gt;Node15</title>
<path fill="none" stroke="midnightblue" d="M129.551,-160.772C137.101,-166.168 145.782,-172.079 154,-177 174.605,-189.337 199.294,-201.447 216.457,-209.469"/>
<polygon fill="midnightblue" stroke="midnightblue" points="131.446,-157.822 121.301,-154.765 127.325,-163.481 131.446,-157.822"/>
</g>
<!-- Node11&#45;&gt;Node5 -->
<g id="edge16" class="edge"><title>Node11&#45;&gt;Node5</title>
<path fill="none" stroke="#9a32cd" stroke-dasharray="5,2" d="M280.306,-170.645C361.333,-170.367 548.153,-171.857 704,-189 751.612,-194.237 806.186,-205.186 838.968,-212.308"/>
<polygon fill="#9a32cd" stroke="#9a32cd" points="280.029,-167.146 270.045,-170.692 280.061,-174.146 280.029,-167.146"/>
<text text-anchor="middle" x="512.5" y="-191" font-family="Helvetica,sans-Serif" font-size="10.00"> cache</text>
<text text-anchor="middle" x="512.5" y="-180" font-family="Helvetica,sans-Serif" font-size="10.00">actual</text>
</g>
<!-- Node15&#45;&gt;Node16 -->
<g id="edge22" class="edge"><title>Node15&#45;&gt;Node16</title>
<path fill="none" stroke="midnightblue" d="M261.342,-234.389C295.344,-258.345 360.516,-304.261 394.19,-327.986"/>
<polygon fill="midnightblue" stroke="midnightblue" points="263.209,-231.423 253.018,-228.524 259.177,-237.145 263.209,-231.423"/>
</g>
<!-- Node14 -->
<g id="node17" class="node"><title>Node14</title>
<g id="a_node17"><a xlink:href="structaworx_1_1lox_1_1core_1_1ScopeInfo_1_1SourcePathTrimRule.html" target="_top" xlink:title="SourcePathTrimRule">
<polygon fill="white" stroke="black" points="363,-209.5 363,-228.5 470,-228.5 470,-209.5 363,-209.5"/>
<text text-anchor="middle" x="416.5" y="-216.5" font-family="Helvetica,sans-Serif" font-size="10.00">SourcePathTrimRule</text>
</a>
</g>
</g>
<!-- Node15&#45;&gt;Node14 -->
<g id="edge21" class="edge"><title>Node15&#45;&gt;Node14</title>
<path fill="none" stroke="#9a32cd" stroke-dasharray="5,2" d="M273.463,-219C298.83,-219 333.972,-219 362.953,-219"/>
<polygon fill="#9a32cd" stroke="#9a32cd" points="273.236,-215.5 263.236,-219 273.236,-222.5 273.236,-215.5"/>
<text text-anchor="middle" x="316.5" y="-222" font-family="Helvetica,sans-Serif" font-size="10.00"> Path</text>
</g>
<!-- Node12 -->
<g id="node16" class="node"><title>Node12</title>
<g id="a_node16"><a xlink:href="classaworx_1_1lib_1_1time_1_1Ticks.html" target="_top" xlink:title="Ticks">
<polygon fill="white" stroke="black" points="609,-258.5 609,-277.5 650,-277.5 650,-258.5 609,-258.5"/>
<text text-anchor="middle" x="629.5" y="-265.5" font-family="Helvetica,sans-Serif" font-size="10.00">Ticks</text>
</a>
</g>
</g>
<!-- Node12&#45;&gt;Node5 -->
<g id="edge17" class="edge"><title>Node12&#45;&gt;Node5</title>
<path fill="none" stroke="#9a32cd" stroke-dasharray="5,2" d="M660.2,-265.54C693.95,-262.332 750.513,-255.699 798,-244 814.14,-240.024 831.765,-233.774 845.355,-228.518"/>
<polygon fill="#9a32cd" stroke="#9a32cd" points="659.724,-262.069 650.084,-266.463 660.361,-269.04 659.724,-262.069"/>
<text text-anchor="middle" x="760" y="-261" font-family="Helvetica,sans-Serif" font-size="10.00"> timeStamp</text>
</g>
<!-- Node12&#45;&gt;Node12 -->
<g id="edge18" class="edge"><title>Node12&#45;&gt;Node12</title>
<path fill="none" stroke="#9a32cd" stroke-dasharray="5,2" d="M608.02,-287.4C609.454,-292.315 616.614,-296 629.5,-296 650.117,-296 656.077,-286.565 647.379,-277.757"/>
<polygon fill="#9a32cd" stroke="#9a32cd" points="611.401,-288.35 611.621,-277.757 604.843,-285.9 611.401,-288.35"/>
<text text-anchor="middle" x="629.5" y="-299" font-family="Helvetica,sans-Serif" font-size="10.00"> creationTime</text>
</g>
<!-- Node14&#45;&gt;Node13 -->
<g id="edge20" class="edge"><title>Node14&#45;&gt;Node13</title>
<path fill="none" stroke="#9a32cd" stroke-dasharray="5,2" d="M480.323,-219C503.666,-219 530.36,-219 554.602,-219"/>
<polygon fill="#9a32cd" stroke="#9a32cd" points="480.2,-215.5 470.2,-219 480.2,-222.5 480.2,-215.5"/>
<text text-anchor="middle" x="512.5" y="-222" font-family="Helvetica,sans-Serif" font-size="10.00"> elements</text>
</g>
<!-- Node17&#45;&gt;Node20 -->
<g id="edge26" class="edge"><title>Node17&#45;&gt;Node20</title>
<path fill="none" stroke="#9a32cd" stroke-dasharray="5,2" d="M663.424,-410C702.765,-410 769.099,-410 815.645,-410"/>
<polygon fill="#9a32cd" stroke="#9a32cd" points="663.32,-406.5 653.32,-410 663.32,-413.5 663.32,-406.5"/>
<text text-anchor="middle" x="760" y="-413" font-family="Helvetica,sans-Serif" font-size="10.00"> elements</text>
</g>
<!-- Node17&#45;&gt;Node5 -->
<g id="edge25" class="edge"><title>Node17&#45;&gt;Node5</title>
<path fill="none" stroke="#9a32cd" stroke-dasharray="5,2" d="M663.321,-406.404C699.943,-400.86 759.14,-387.138 798,-354 839.244,-318.829 859.641,-253.418 866.132,-228.751"/>
<polygon fill="#9a32cd" stroke="#9a32cd" points="662.599,-402.971 653.177,-407.818 663.565,-409.904 662.599,-402.971"/>
<text text-anchor="middle" x="760" y="-397" font-family="Helvetica,sans-Serif" font-size="10.00"> thread</text>
</g>
<!-- Node18 -->
<g id="node19" class="node"><title>Node18</title>
<g id="a_node19"><a xlink:href="classaworx_1_1lib_1_1threads_1_1Runnable.html" target="_top" xlink:title="Runnable">
<polygon fill="white" stroke="black" points="387.5,-449.5 387.5,-468.5 445.5,-468.5 445.5,-449.5 387.5,-449.5"/>
<text text-anchor="middle" x="416.5" y="-456.5" font-family="Helvetica,sans-Serif" font-size="10.00">Runnable</text>
</a>
</g>
</g>
<!-- Node18&#45;&gt;Node17 -->
<g id="edge27" class="edge"><title>Node18&#45;&gt;Node17</title>
<path fill="none" stroke="midnightblue" d="M455.508,-450.173C499.32,-439.999 569.897,-423.609 605.859,-415.258"/>
<polygon fill="midnightblue" stroke="midnightblue" points="454.468,-446.822 445.519,-452.493 456.052,-453.64 454.468,-446.822"/>
</g>
<!-- Node18&#45;&gt;Node17 -->
<g id="edge28" class="edge"><title>Node18&#45;&gt;Node17</title>
<path fill="none" stroke="#9a32cd" stroke-dasharray="5,2" d="M455.894,-457.913C479.561,-456.564 510.374,-453.577 537,-447 562.951,-440.59 591.251,-428.252 609.402,-419.592"/>
<polygon fill="#9a32cd" stroke="#9a32cd" points="455.706,-454.418 445.893,-458.41 456.054,-461.409 455.706,-454.418"/>
<text text-anchor="middle" x="512.5" y="-459" font-family="Helvetica,sans-Serif" font-size="10.00"> runnable</text>
</g>
<!-- Node21 -->
<g id="node20" class="node"><title>Node21</title>
<g id="a_node20"><a xlink:title="STL class. ">
<polygon fill="white" stroke="#bfbfbf" points="394.5,-400.5 394.5,-419.5 438.5,-419.5 438.5,-400.5 394.5,-400.5"/>
<text text-anchor="middle" x="416.5" y="-407.5" font-family="Helvetica,sans-Serif" font-size="10.00">thread</text>
</a>
</g>
</g>
<!-- Node21&#45;&gt;Node17 -->
<g id="edge30" class="edge"><title>Node21&#45;&gt;Node17</title>
<path fill="none" stroke="#9a32cd" stroke-dasharray="5,2" d="M448.669,-410C491.666,-410 568.146,-410 605.997,-410"/>
<polygon fill="#9a32cd" stroke="#9a32cd" points="448.503,-406.5 438.503,-410 448.503,-413.5 448.503,-406.5"/>
<text text-anchor="middle" x="512.5" y="-413" font-family="Helvetica,sans-Serif" font-size="10.00"> c11Thread</text>
</g>
</g>
</svg>
