<?xml version="1.0" encoding="UTF-8" standalone="no"?>
<!DOCTYPE svg PUBLIC "-//W3C//DTD SVG 1.1//EN"
 "http://www.w3.org/Graphics/SVG/1.1/DTD/svg11.dtd">
<!-- Generated by graphviz version 2.40.1 (20161225.0304)
 -->
<!-- Title: IEquals_Tdouble Pages: 1 -->
<svg width="221pt" height="140pt"
 viewBox="0.00 0.00 220.50 140.00" xmlns="http://www.w3.org/2000/svg" xmlns:xlink="http://www.w3.org/1999/xlink">
<g id="graph0" class="graph" transform="scale(1 1) rotate(0) translate(4 136)">
<title>IEquals_Tdouble</title>
<polygon fill="#ffffff" stroke="transparent" points="-4,4 -4,-136 216.5,-136 216.5,4 -4,4"/>
<!-- Node0 -->
<g id="node1" class="node">
<title>Node0</title>
<polygon fill="#bfbfbf" stroke="#000000" points="83.5,-.5 83.5,-19.5 172.5,-19.5 172.5,-.5 83.5,-.5"/>
<text text-anchor="middle" x="128" y="-7.5" font-family="Helvetica,sans-Serif" font-size="10.00" fill="#000000">IEquals_Tdouble</text>
</g>
<!-- Node3 -->
<g id="node2" class="node">
<title>Node3</title>
<g id="a_node2"><a xlink:href="classaworx_1_1lib_1_1lang_1_1Singleton.html" target="_top" xlink:title="Singleton\&lt;IEquals_Tdouble\&gt;">
<polygon fill="#ffffff" stroke="#000000" points="0,-56.5 0,-75.5 142,-75.5 142,-56.5 0,-56.5"/>
<text text-anchor="middle" x="71" y="-63.5" font-family="Helvetica,sans-Serif" font-size="10.00" fill="#000000">Singleton&lt;IEquals_Tdouble&gt;</text>
</a>
</g>
</g>
<!-- Node3&#45;&gt;Node0 -->
<g id="edge3" class="edge">
<title>Node3&#45;&gt;Node0</title>
<path fill="none" stroke="#191970" d="M88.2271,-49.0751C98.0341,-39.4402 109.964,-27.7196 118.1851,-19.6427"/>
<polygon fill="#191970" stroke="#191970" points="85.6091,-46.7406 80.9286,-56.2455 90.5149,-51.734 85.6091,-46.7406"/>
</g>
<!-- Node1 -->
<g id="node3" class="node">
<title>Node1</title>
<g id="a_node3"><a xlink:href="classaworx_1_1lib_1_1boxing_1_1IEquals.html" target="_top" xlink:title="IEquals">
<polygon fill="#ffffff" stroke="#000000" points="160,-56.5 160,-75.5 210,-75.5 210,-56.5 160,-56.5"/>
<text text-anchor="middle" x="185" y="-63.5" font-family="Helvetica,sans-Serif" font-size="10.00" fill="#000000">IEquals</text>
</a>
</g>
</g>
<!-- Node1&#45;&gt;Node0 -->
<g id="edge1" class="edge">
<title>Node1&#45;&gt;Node0</title>
<path fill="none" stroke="#191970" d="M167.7729,-49.0751C157.9659,-39.4402 146.036,-27.7196 137.8149,-19.6427"/>
<polygon fill="#191970" stroke="#191970" points="165.4851,-51.734 175.0714,-56.2455 170.3909,-46.7406 165.4851,-51.734"/>
</g>
<!-- Node2 -->
<g id="node4" class="node">
<title>Node2</title>
<g id="a_node4"><a xlink:href="classaworx_1_1lib_1_1boxing_1_1Interface.html" target="_top" xlink:title="Interface">
<polygon fill="#ffffff" stroke="#000000" points="157.5,-112.5 157.5,-131.5 212.5,-131.5 212.5,-112.5 157.5,-112.5"/>
<text text-anchor="middle" x="185" y="-119.5" font-family="Helvetica,sans-Serif" font-size="10.00" fill="#000000">Interface</text>
</a>
</g>
</g>
<!-- Node2&#45;&gt;Node1 -->
<g id="edge2" class="edge">
<title>Node2&#45;&gt;Node1</title>
<path fill="none" stroke="#191970" d="M185,-102.1575C185,-93.155 185,-82.9199 185,-75.6427"/>
<polygon fill="#191970" stroke="#191970" points="181.5001,-102.2455 185,-112.2455 188.5001,-102.2456 181.5001,-102.2455"/>
</g>
</g>
</svg>
