<?xml version="1.0" encoding="UTF-8" standalone="no"?>
<!DOCTYPE svg PUBLIC "-//W3C//DTD SVG 1.1//EN"
 "http://www.w3.org/Graphics/SVG/1.1/DTD/svg11.dtd">
<!-- Generated by graphviz version 2.38.0 (20140413.2041)
 -->
<!-- Title: Report::Message Pages: 1 -->
<svg width="100pt" height="174pt"
 viewBox="0.00 0.00 100.00 174.00" xmlns="http://www.w3.org/2000/svg" xmlns:xlink="http://www.w3.org/1999/xlink">
<g id="graph0" class="graph" transform="scale(1 1) rotate(0) translate(4 170)">
<title>Report::Message</title>
<polygon fill="white" stroke="none" points="-4,4 -4,-170 96,-170 96,4 -4,4"/>
<!-- Node1 -->
<g id="node1" class="node"><title>Node1</title>
<polygon fill="#bfbfbf" stroke="black" points="0,-0.5 0,-19.5 92,-19.5 92,-0.5 0,-0.5"/>
<text text-anchor="middle" x="46" y="-7.5" font-family="Helvetica,sans-Serif" font-size="10.00">Report::Message</text>
</g>
<!-- Node2 -->
<g id="node2" class="node"><title>Node2</title>
<g id="a_node2"><a xlink:href="classaworx_1_1lib_1_1strings_1_1TString.html" target="_top" xlink:title="TString">
<polygon fill="white" stroke="black" points="22,-89.5 22,-108.5 70,-108.5 70,-89.5 22,-89.5"/>
<text text-anchor="middle" x="46" y="-96.5" font-family="Helvetica,sans-Serif" font-size="10.00">TString</text>
</a>
</g>
</g>
<!-- Node2&#45;&gt;Node1 -->
<g id="edge1" class="edge"><title>Node2&#45;&gt;Node1</title>
<path fill="none" stroke="#9a32cd" stroke-dasharray="5,2" d="M46,-79.1946C46,-60.7379 46,-33.412 46,-19.6249"/>
<polygon fill="#9a32cd" stroke="#9a32cd" points="42.5001,-79.34 46,-89.34 49.5001,-79.3401 42.5001,-79.34"/>
<text text-anchor="middle" x="67.5" y="-63" font-family="Helvetica,sans-Serif" font-size="10.00"> Contents</text>
<text text-anchor="middle" x="67.5" y="-52" font-family="Helvetica,sans-Serif" font-size="10.00">Func</text>
<text text-anchor="middle" x="67.5" y="-41" font-family="Helvetica,sans-Serif" font-size="10.00">File</text>
</g>
<!-- Node3 -->
<g id="node3" class="node"><title>Node3</title>
<g id="a_node3"><a xlink:href="classaworx_1_1lib_1_1strings_1_1String.html" target="_top" xlink:title="String">
<polygon fill="white" stroke="black" points="25,-146.5 25,-165.5 67,-165.5 67,-146.5 25,-146.5"/>
<text text-anchor="middle" x="46" y="-153.5" font-family="Helvetica,sans-Serif" font-size="10.00">String</text>
</a>
</g>
</g>
<!-- Node3&#45;&gt;Node2 -->
<g id="edge2" class="edge"><title>Node3&#45;&gt;Node2</title>
<path fill="none" stroke="midnightblue" d="M46,-136.117C46,-126.817 46,-116.056 46,-108.715"/>
<polygon fill="midnightblue" stroke="midnightblue" points="42.5001,-136.406 46,-146.406 49.5001,-136.406 42.5001,-136.406"/>
</g>
</g>
</svg>
