<?xml version="1.0" encoding="UTF-8" standalone="no"?>
<!DOCTYPE svg PUBLIC "-//W3C//DTD SVG 1.1//EN"
 "http://www.w3.org/Graphics/SVG/1.1/DTD/svg11.dtd">
<!-- Generated by graphviz version 2.40.1 (20161225.0304)
 -->
<!-- Title: Configuration::Iterator Pages: 1 -->
<svg width="1015pt" height="326pt"
 viewBox="0.00 0.00 1015.00 326.00" xmlns="http://www.w3.org/2000/svg" xmlns:xlink="http://www.w3.org/1999/xlink">
<g id="graph0" class="graph" transform="scale(1 1) rotate(0) translate(4 322)">
<title>Configuration::Iterator</title>
<polygon fill="#ffffff" stroke="transparent" points="-4,4 -4,-322 1011,-322 1011,4 -4,4"/>
<!-- Node1 -->
<g id="node1" class="node">
<title>Node1</title>
<polygon fill="#bfbfbf" stroke="#000000" points="897,-220.5 897,-239.5 1007,-239.5 1007,-220.5 897,-220.5"/>
<text text-anchor="middle" x="952" y="-227.5" font-family="Helvetica,sans-Serif" font-size="10.00" fill="#000000">Configuration::Iterator</text>
</g>
<!-- Node3 -->
<g id="node2" class="node">
<title>Node3</title>
<polygon fill="#ffffff" stroke="#bfbfbf" points="529,-292.5 529,-311.5 617,-311.5 617,-292.5 529,-292.5"/>
<text text-anchor="middle" x="573" y="-299.5" font-family="Helvetica,sans-Serif" font-size="10.00" fill="#000000">vector&lt;AString&gt;</text>
</g>
<!-- Node2 -->
<g id="node6" class="node">
<title>Node2</title>
<g id="a_node6"><a xlink:href="classaworx_1_1lib_1_1config_1_1Variable.html" target="_top" xlink:title="Variable">
<polygon fill="#ffffff" stroke="#000000" points="779,-220.5 779,-239.5 830,-239.5 830,-220.5 779,-220.5"/>
<text text-anchor="middle" x="804.5" y="-227.5" font-family="Helvetica,sans-Serif" font-size="10.00" fill="#000000">Variable</text>
</a>
</g>
</g>
<!-- Node3&#45;&gt;Node2 -->
<g id="edge2" class="edge">
<title>Node3&#45;&gt;Node2</title>
<path fill="none" stroke="#9a32cd" stroke-dasharray="5,2" d="M627.4344,-308.0691C666.8334,-309.9449 720.1195,-307.116 761,-285 779.8455,-274.8047 793.339,-252.6319 799.932,-239.7695"/>
<polygon fill="#9a32cd" stroke="#9a32cd" points="627.4132,-304.5618 617.2236,-307.4639 626.999,-311.5495 627.4132,-304.5618"/>
<text text-anchor="middle" x="714" y="-310" font-family="Helvetica,sans-Serif" font-size="10.00" fill="#000000"> values</text>
</g>
<!-- Node10 -->
<g id="node3" class="node">
<title>Node10</title>
<g id="a_node3"><a xlink:href="classaworx_1_1lib_1_1util_1_1PluginContainer.html" target="_top" xlink:title="PluginContainer\&lt;ConfigurationPlugin, Priorities\&gt;">
<polygon fill="#ffffff" stroke="#ff0000" points="168,-38.5 168,-57.5 393,-57.5 393,-38.5 168,-38.5"/>
<text text-anchor="middle" x="280.5" y="-45.5" font-family="Helvetica,sans-Serif" font-size="10.00" fill="#000000">PluginContainer&lt;ConfigurationPlugin, Priorities&gt;</text>
</a>
</g>
</g>
<!-- Node9 -->
<g id="node9" class="node">
<title>Node9</title>
<g id="a_node9"><a xlink:href="classaworx_1_1lib_1_1config_1_1Configuration.html" target="_top" xlink:title="Configuration">
<polygon fill="#ffffff" stroke="#000000" points="536,-76.5 536,-95.5 610,-95.5 610,-76.5 536,-76.5"/>
<text text-anchor="middle" x="573" y="-83.5" font-family="Helvetica,sans-Serif" font-size="10.00" fill="#000000">Configuration</text>
</a>
</g>
</g>
<!-- Node10&#45;&gt;Node9 -->
<g id="edge12" class="edge">
<title>Node10&#45;&gt;Node9</title>
<path fill="none" stroke="#191970" d="M363.9538,-58.8419C420.5734,-66.1976 492.6933,-75.567 535.7261,-81.1576"/>
<polygon fill="#191970" stroke="#191970" points="364.3002,-55.3575 353.9326,-57.54 363.3983,-62.2992 364.3002,-55.3575"/>
</g>
<!-- Node20 -->
<g id="node4" class="node">
<title>Node20</title>
<polygon fill="#ffffff" stroke="#bfbfbf" points="240,-.5 240,-19.5 321,-19.5 321,-.5 240,-.5"/>
<text text-anchor="middle" x="280.5" y="-7.5" font-family="Helvetica,sans-Serif" font-size="10.00" fill="#000000">vector&lt;String&gt;</text>
</g>
<!-- Node20&#45;&gt;Node9 -->
<g id="edge15" class="edge">
<title>Node20&#45;&gt;Node9</title>
<path fill="none" stroke="#9a32cd" stroke-dasharray="5,2" d="M330.9529,-17.1982C371.5117,-23.6901 429.658,-34.5948 479,-50 503.855,-57.76 531.6207,-68.6823 550.489,-76.4569"/>
<polygon fill="#9a32cd" stroke="#9a32cd" points="331.458,-13.7347 321.0364,-15.6428 330.3732,-20.6502 331.458,-13.7347"/>
<text text-anchor="middle" x="445" y="-53" font-family="Helvetica,sans-Serif" font-size="10.00" fill="#000000"> TrueValues</text>
</g>
<!-- Node7 -->
<g id="node5" class="node">
<title>Node7</title>
<g id="a_node5"><a xlink:href="classaworx_1_1lib_1_1strings_1_1PreallocatedString.html" target="_top" xlink:title="PreallocatedString\&lt;TCapacity\&gt;">
<polygon fill="#ffffff" stroke="#000000" points="497,-237.5 497,-256.5 649,-256.5 649,-237.5 497,-237.5"/>
<text text-anchor="middle" x="573" y="-244.5" font-family="Helvetica,sans-Serif" font-size="10.00" fill="#000000">PreallocatedString&lt;TCapacity&gt;</text>
</a>
</g>
</g>
<!-- Node7&#45;&gt;Node2 -->
<g id="edge9" class="edge">
<title>Node7&#45;&gt;Node2</title>
<path fill="none" stroke="#9a32cd" stroke-dasharray="5,2" d="M659.5192,-249.0755C691.5488,-248.6962 728.0714,-246.9052 761,-242 766.889,-241.1227 773.1153,-239.7087 778.9595,-238.154"/>
<polygon fill="#9a32cd" stroke="#9a32cd" points="659.2618,-245.5772 649.288,-249.1512 659.3137,-252.577 659.2618,-245.5772"/>
<text text-anchor="middle" x="714" y="-273" font-family="Helvetica,sans-Serif" font-size="10.00" fill="#000000"> Fullname</text>
<text text-anchor="middle" x="714" y="-262" font-family="Helvetica,sans-Serif" font-size="10.00" fill="#000000">Category</text>
<text text-anchor="middle" x="714" y="-251" font-family="Helvetica,sans-Serif" font-size="10.00" fill="#000000">Name</text>
</g>
<!-- Node7&#45;&gt;Node2 -->
<g id="edge10" class="edge">
<title>Node7&#45;&gt;Node2</title>
<path fill="none" stroke="#9a32cd" stroke-dasharray="5,2" d="M623.8267,-235.449C637.7478,-232.7837 652.8905,-230.3387 667,-229 708.591,-225.0537 719.225,-228.5199 761,-229 766.7407,-229.066 772.9068,-229.1809 778.7396,-229.3099"/>
<polygon fill="#9a32cd" stroke="#9a32cd" points="623.0632,-232.0322 613.9382,-237.4161 624.429,-238.8977 623.0632,-232.0322"/>
<text text-anchor="middle" x="714" y="-232" font-family="Helvetica,sans-Serif" font-size="10.00" fill="#000000"> FormatAttrAlignment</text>
</g>
<!-- Node2&#45;&gt;Node1 -->
<g id="edge1" class="edge">
<title>Node2&#45;&gt;Node1</title>
<path fill="none" stroke="#9a32cd" stroke-dasharray="5,2" d="M840.261,-230C857.2811,-230 878.0142,-230 896.9781,-230"/>
<polygon fill="#9a32cd" stroke="#9a32cd" points="840.1926,-226.5001 830.1925,-230 840.1925,-233.5001 840.1926,-226.5001"/>
<text text-anchor="middle" x="863.5" y="-233" font-family="Helvetica,sans-Serif" font-size="10.00" fill="#000000"> Actual</text>
</g>
<!-- Node4 -->
<g id="node7" class="node">
<title>Node4</title>
<g id="a_node7"><a xlink:href="classaworx_1_1lib_1_1strings_1_1AString.html" target="_top" xlink:title="AString">
<polygon fill="#ffffff" stroke="#000000" points="256,-230.5 256,-249.5 305,-249.5 305,-230.5 256,-230.5"/>
<text text-anchor="middle" x="280.5" y="-237.5" font-family="Helvetica,sans-Serif" font-size="10.00" fill="#000000">AString</text>
</a>
</g>
</g>
<!-- Node4&#45;&gt;Node3 -->
<g id="edge4" class="edge">
<title>Node4&#45;&gt;Node3</title>
<path fill="none" stroke="#9a32cd" stroke-dasharray="5,2" d="M315.4371,-247.4055C368.7915,-258.7148 470.5164,-280.277 528.8881,-292.6498"/>
<polygon fill="#9a32cd" stroke="#9a32cd" points="315.9468,-243.9358 305.4384,-245.2861 314.4953,-250.7837 315.9468,-243.9358"/>
<text text-anchor="middle" x="445" y="-284" font-family="Helvetica,sans-Serif" font-size="10.00" fill="#000000"> elements</text>
</g>
<!-- Node4&#45;&gt;Node7 -->
<g id="edge5" class="edge">
<title>Node4&#45;&gt;Node7</title>
<path fill="none" stroke="#191970" d="M315.479,-240.8371C360.0422,-241.9036 438.3007,-243.7764 496.8858,-245.1785"/>
<polygon fill="#191970" stroke="#191970" points="315.5193,-237.3372 305.4384,-240.5968 315.3518,-244.3352 315.5193,-237.3372"/>
</g>
<!-- Node4&#45;&gt;Node2 -->
<g id="edge3" class="edge">
<title>Node4&#45;&gt;Node2</title>
<path fill="none" stroke="#9a32cd" stroke-dasharray="5,2" d="M314.8699,-232.9049C357.4081,-224.5174 432.1709,-211.0595 497,-206 564.3508,-200.7437 581.636,-200.9167 649,-206 695.0335,-209.4737 748.0562,-218.8204 778.7786,-224.772"/>
<polygon fill="#9a32cd" stroke="#9a32cd" points="314.1504,-229.4794 305.0286,-234.8686 315.5202,-236.3441 314.1504,-229.4794"/>
<text text-anchor="middle" x="573" y="-220" font-family="Helvetica,sans-Serif" font-size="10.00" fill="#000000"> DefaultValue</text>
<text text-anchor="middle" x="573" y="-209" font-family="Helvetica,sans-Serif" font-size="10.00" fill="#000000">Comments</text>
</g>
<!-- Node5 -->
<g id="node8" class="node">
<title>Node5</title>
<g id="a_node8"><a xlink:href="classaworx_1_1lib_1_1strings_1_1TString.html" target="_top" xlink:title="TString">
<polygon fill="#ffffff" stroke="#ff0000" points="0,-162.5 0,-181.5 48,-181.5 48,-162.5 0,-162.5"/>
<text text-anchor="middle" x="24" y="-169.5" font-family="Helvetica,sans-Serif" font-size="10.00" fill="#000000">TString</text>
</a>
</g>
</g>
<!-- Node5&#45;&gt;Node4 -->
<g id="edge6" class="edge">
<title>Node5&#45;&gt;Node4</title>
<path fill="none" stroke="#191970" d="M58.0075,-183.5755C60.7043,-184.4201 63.3924,-185.2383 66,-186 134.1933,-205.9188 215.8447,-225.2492 255.8904,-234.4394"/>
<polygon fill="#191970" stroke="#191970" points="58.924,-180.1936 48.3324,-180.455 56.7752,-186.8557 58.924,-180.1936"/>
</g>
<!-- Node5&#45;&gt;Node9 -->
<g id="edge7" class="edge">
<title>Node5&#45;&gt;Node9</title>
<path fill="none" stroke="#9a32cd" stroke-dasharray="5,2" d="M58.1816,-172.2609C123.7627,-172.1551 271.5216,-168.9795 393,-145 450.9127,-133.5682 516.1074,-109.1608 549.9,-95.5945"/>
<polygon fill="#9a32cd" stroke="#9a32cd" points="58.0143,-168.7609 48.0116,-172.2531 58.0089,-175.7609 58.0143,-168.7609"/>
<text text-anchor="middle" x="280.5" y="-194" font-family="Helvetica,sans-Serif" font-size="10.00" fill="#000000"> SubstitutionVariableStart</text>
<text text-anchor="middle" x="280.5" y="-183" font-family="Helvetica,sans-Serif" font-size="10.00" fill="#000000">SubstitutionVariableEnd</text>
<text text-anchor="middle" x="280.5" y="-172" font-family="Helvetica,sans-Serif" font-size="10.00" fill="#000000">SubstitutionVariableDelimiters</text>
</g>
<!-- Node19 -->
<g id="node10" class="node">
<title>Node19</title>
<g id="a_node10"><a xlink:href="classaworx_1_1lib_1_1strings_1_1NumberFormat.html" target="_top" xlink:title="NumberFormat">
<polygon fill="#ffffff" stroke="#000000" points="240,-76.5 240,-95.5 321,-95.5 321,-76.5 240,-76.5"/>
<text text-anchor="middle" x="280.5" y="-83.5" font-family="Helvetica,sans-Serif" font-size="10.00" fill="#000000">NumberFormat</text>
</a>
</g>
</g>
<!-- Node5&#45;&gt;Node19 -->
<g id="edge8" class="edge">
<title>Node5&#45;&gt;Node19</title>
<path fill="none" stroke="#9a32cd" stroke-dasharray="5,2" d="M26.8314,-152.2934C31.1195,-130.5765 41.537,-96.6522 66,-81 93.7684,-63.2329 185.6785,-72.4246 239.7598,-79.7895"/>
<polygon fill="#9a32cd" stroke="#9a32cd" points="23.343,-151.9287 25.1058,-162.3759 30.2427,-153.1097 23.343,-151.9287"/>
<text text-anchor="middle" x="108" y="-150" font-family="Helvetica,sans-Serif" font-size="10.00" fill="#000000"> Whitespaces</text>
<text text-anchor="middle" x="108" y="-139" font-family="Helvetica,sans-Serif" font-size="10.00" fill="#000000">OctLiteralPrefix</text>
<text text-anchor="middle" x="108" y="-128" font-family="Helvetica,sans-Serif" font-size="10.00" fill="#000000">INFLiteral</text>
<text text-anchor="middle" x="108" y="-117" font-family="Helvetica,sans-Serif" font-size="10.00" fill="#000000">NANLiteral</text>
<text text-anchor="middle" x="108" y="-106" font-family="Helvetica,sans-Serif" font-size="10.00" fill="#000000">ExponentSeparator</text>
<text text-anchor="middle" x="108" y="-95" font-family="Helvetica,sans-Serif" font-size="10.00" fill="#000000">BinLiteralPrefix</text>
<text text-anchor="middle" x="108" y="-84" font-family="Helvetica,sans-Serif" font-size="10.00" fill="#000000">HexLiteralPrefix</text>
</g>
<!-- Node9&#45;&gt;Node2 -->
<g id="edge11" class="edge">
<title>Node9&#45;&gt;Node2</title>
<path fill="none" stroke="#9a32cd" stroke-dasharray="5,2" d="M615.5182,-98.6437C655.9541,-112.1529 716.9754,-136.5326 761,-172 778.0549,-185.7399 792.0217,-207.5967 799.2194,-220.189"/>
<polygon fill="#9a32cd" stroke="#9a32cd" points="616.5495,-95.2986 605.9571,-95.5237 614.3779,-101.9533 616.5495,-95.2986"/>
<text text-anchor="middle" x="714" y="-175" font-family="Helvetica,sans-Serif" font-size="10.00" fill="#000000"> Config</text>
</g>
<!-- Node19&#45;&gt;Node9 -->
<g id="edge13" class="edge">
<title>Node19&#45;&gt;Node9</title>
<path fill="none" stroke="#9a32cd" stroke-dasharray="5,2" d="M331.277,-86C389.641,-86 484.0347,-86 535.9083,-86"/>
<polygon fill="#9a32cd" stroke="#9a32cd" points="331.1709,-82.5001 321.1709,-86 331.1708,-89.5001 331.1709,-82.5001"/>
<text text-anchor="middle" x="445" y="-89" font-family="Helvetica,sans-Serif" font-size="10.00" fill="#000000"> NumberFormat</text>
</g>
<!-- Node19&#45;&gt;Node19 -->
<g id="edge14" class="edge">
<title>Node19&#45;&gt;Node19</title>
<path fill="none" stroke="#9a32cd" stroke-dasharray="5,2" d="M249.8114,-104.2746C250.6864,-109.741 260.9159,-114 280.5,-114 309.6484,-114 318.0742,-104.5653 305.7772,-95.7571"/>
<polygon fill="#9a32cd" stroke="#9a32cd" points="252.8144,-106.0745 255.2228,-95.7571 246.906,-102.3207 252.8144,-106.0745"/>
<text text-anchor="middle" x="280.5" y="-128" font-family="Helvetica,sans-Serif" font-size="10.00" fill="#000000"> Global</text>
<text text-anchor="middle" x="280.5" y="-117" font-family="Helvetica,sans-Serif" font-size="10.00" fill="#000000">Computational</text>
</g>
</g>
</svg>
