<?xml version="1.0" encoding="UTF-8" standalone="no"?>
<!DOCTYPE svg PUBLIC "-//W3C//DTD SVG 1.1//EN"
 "http://www.w3.org/Graphics/SVG/1.1/DTD/svg11.dtd">
<!-- Generated by graphviz version 2.38.0 (20140413.2041)
 -->
<!-- Title: Directory Pages: 1 -->
<svg width="290pt" height="268pt"
 viewBox="0.00 0.00 290.00 268.00" xmlns="http://www.w3.org/2000/svg" xmlns:xlink="http://www.w3.org/1999/xlink">
<g id="graph0" class="graph" transform="scale(1 1) rotate(0) translate(4 264)">
<title>Directory</title>
<polygon fill="white" stroke="none" points="-4,4 -4,-264 286,-264 286,4 -4,4"/>
<!-- Node1 -->
<g id="node1" class="node"><title>Node1</title>
<polygon fill="#bfbfbf" stroke="black" points="40.5,-0.5 40.5,-19.5 96.5,-19.5 96.5,-0.5 40.5,-0.5"/>
<text text-anchor="middle" x="68.5" y="-7.5" font-family="Helvetica,sans-Serif" font-size="10.00">Directory</text>
</g>
<!-- Node5 -->
<g id="node2" class="node"><title>Node5</title>
<g id="a_node2"><a xlink:href="classaworx_1_1lib_1_1strings_1_1PreallocatedString.html" target="_top" xlink:title="PreallocatedString\&lt;TCapacity\&gt;">
<polygon fill="white" stroke="black" points="129,-68.5 129,-87.5 282,-87.5 282,-68.5 129,-68.5"/>
<text text-anchor="middle" x="205.5" y="-75.5" font-family="Helvetica,sans-Serif" font-size="10.00">PreallocatedString&lt;TCapacity&gt;</text>
</a>
</g>
</g>
<!-- Node5&#45;&gt;Node1 -->
<g id="edge5" class="edge"><title>Node5&#45;&gt;Node1</title>
<path fill="none" stroke="#9a32cd" stroke-dasharray="5,2" d="M178.229,-63.8621C150.957,-50.7239 109.801,-30.8969 86.4148,-19.6305"/>
<polygon fill="#9a32cd" stroke="#9a32cd" points="177.062,-67.1846 187.59,-68.3717 180.1,-60.8783 177.062,-67.1846"/>
<text text-anchor="middle" x="156.5" y="-41" font-family="Helvetica,sans-Serif" font-size="10.00"> Path</text>
</g>
<!-- Node2 -->
<g id="node3" class="node"><title>Node2</title>
<g id="a_node3"><a xlink:href="classaworx_1_1lib_1_1strings_1_1AString.html" target="_top" xlink:title="AString">
<polygon fill="white" stroke="black" points="0,-126.5 0,-145.5 49,-145.5 49,-126.5 0,-126.5"/>
<text text-anchor="middle" x="24.5" y="-133.5" font-family="Helvetica,sans-Serif" font-size="10.00">AString</text>
</a>
</g>
</g>
<!-- Node2&#45;&gt;Node1 -->
<g id="edge1" class="edge"><title>Node2&#45;&gt;Node1</title>
<path fill="none" stroke="#9a32cd" stroke-dasharray="5,2" d="M20.3759,-116.422C18.109,-102.42 16.7824,-82.9685 22.5,-67 29.5406,-47.3368 46.7921,-29.6279 58.0519,-19.6067"/>
<polygon fill="#9a32cd" stroke="#9a32cd" points="16.9524,-117.154 22.2789,-126.312 23.8263,-115.831 16.9524,-117.154"/>
<text text-anchor="middle" x="71.5" y="-81" font-family="Helvetica,sans-Serif" font-size="10.00"> evaluatedVarTempDir</text>
<text text-anchor="middle" x="71.5" y="-70" font-family="Helvetica,sans-Serif" font-size="10.00">evaluatedTempDir</text>
</g>
<!-- Node2&#45;&gt;Node5 -->
<g id="edge2" class="edge"><title>Node2&#45;&gt;Node5</title>
<path fill="none" stroke="midnightblue" d="M58.9408,-124.344C93.4312,-113.673 145.844,-97.4573 177.754,-87.5845"/>
<polygon fill="midnightblue" stroke="midnightblue" points="57.8065,-121.031 49.2878,-127.331 59.8755,-127.719 57.8065,-121.031"/>
</g>
<!-- Node3 -->
<g id="node4" class="node"><title>Node3</title>
<g id="a_node4"><a xlink:href="classaworx_1_1lib_1_1strings_1_1TString.html" target="_top" xlink:title="TString">
<polygon fill="white" stroke="black" points="0.5,-183.5 0.5,-202.5 48.5,-202.5 48.5,-183.5 0.5,-183.5"/>
<text text-anchor="middle" x="24.5" y="-190.5" font-family="Helvetica,sans-Serif" font-size="10.00">TString</text>
</a>
</g>
</g>
<!-- Node3&#45;&gt;Node2 -->
<g id="edge3" class="edge"><title>Node3&#45;&gt;Node2</title>
<path fill="none" stroke="midnightblue" d="M24.5,-173.117C24.5,-163.817 24.5,-153.056 24.5,-145.715"/>
<polygon fill="midnightblue" stroke="midnightblue" points="21.0001,-173.406 24.5,-183.406 28.0001,-173.406 21.0001,-173.406"/>
</g>
<!-- Node4 -->
<g id="node5" class="node"><title>Node4</title>
<g id="a_node5"><a xlink:href="classaworx_1_1lib_1_1strings_1_1String.html" target="_top" xlink:title="String">
<polygon fill="white" stroke="black" points="3.5,-240.5 3.5,-259.5 45.5,-259.5 45.5,-240.5 3.5,-240.5"/>
<text text-anchor="middle" x="24.5" y="-247.5" font-family="Helvetica,sans-Serif" font-size="10.00">String</text>
</a>
</g>
</g>
<!-- Node4&#45;&gt;Node3 -->
<g id="edge4" class="edge"><title>Node4&#45;&gt;Node3</title>
<path fill="none" stroke="midnightblue" d="M24.5,-230.117C24.5,-220.817 24.5,-210.056 24.5,-202.715"/>
<polygon fill="midnightblue" stroke="midnightblue" points="21.0001,-230.406 24.5,-240.406 28.0001,-230.406 21.0001,-230.406"/>
</g>
</g>
</svg>
