<?xml version="1.0" encoding="UTF-8" standalone="no"?>
<!DOCTYPE svg PUBLIC "-//W3C//DTD SVG 1.1//EN"
 "http://www.w3.org/Graphics/SVG/1.1/DTD/svg11.dtd">
<!-- Generated by graphviz version 2.40.1 (20161225.0304)
 -->
<!-- Title: FormatterStdImpl Pages: 1 -->
<svg width="757pt" height="378pt"
 viewBox="0.00 0.00 756.50 378.00" xmlns="http://www.w3.org/2000/svg" xmlns:xlink="http://www.w3.org/1999/xlink">
<g id="graph0" class="graph" transform="scale(1 1) rotate(0) translate(4 374)">
<title>FormatterStdImpl</title>
<polygon fill="#ffffff" stroke="transparent" points="-4,4 -4,-374 752.5,-374 752.5,4 -4,4"/>
<!-- Node4 -->
<g id="node1" class="node">
<title>Node4</title>
<polygon fill="#bfbfbf" stroke="#000000" points="343.5,-.5 343.5,-19.5 435.5,-19.5 435.5,-.5 343.5,-.5"/>
<text text-anchor="middle" x="389.5" y="-7.5" font-family="Helvetica,sans-Serif" font-size="10.00" fill="#000000">FormatterStdImpl</text>
</g>
<!-- Node10 -->
<g id="node2" class="node">
<title>Node10</title>
<g id="a_node2"><a xlink:title="STL class. ">
<polygon fill="#ffffff" stroke="#bfbfbf" points="331,-293.5 331,-312.5 404,-312.5 404,-293.5 331,-293.5"/>
<text text-anchor="middle" x="367.5" y="-300.5" font-family="Helvetica,sans-Serif" font-size="10.00" fill="#000000">vector&lt;Box&gt;</text>
</a>
</g>
</g>
<!-- Node9 -->
<g id="node9" class="node">
<title>Node9</title>
<g id="a_node9"><a xlink:href="classaworx_1_1lib_1_1boxing_1_1Boxes.html" target="_top" xlink:title="Boxes">
<polygon fill="#ffffff" stroke="#000000" points="345.5,-159.5 345.5,-178.5 389.5,-178.5 389.5,-159.5 345.5,-159.5"/>
<text text-anchor="middle" x="367.5" y="-166.5" font-family="Helvetica,sans-Serif" font-size="10.00" fill="#000000">Boxes</text>
</a>
</g>
</g>
<!-- Node10&#45;&gt;Node9 -->
<g id="edge12" class="edge">
<title>Node10&#45;&gt;Node9</title>
<path fill="none" stroke="#191970" d="M367.5,-283.124C367.5,-253.8572 367.5,-200.2914 367.5,-178.5496"/>
<polygon fill="#191970" stroke="#191970" points="364.0001,-283.363 367.5,-293.3631 371.0001,-283.3631 364.0001,-283.363"/>
</g>
<!-- Node5 -->
<g id="node3" class="node">
<title>Node5</title>
<g id="a_node3"><a xlink:href="classaworx_1_1lib_1_1strings_1_1Formatter.html" target="_top" xlink:title="Formatter">
<polygon fill="#ffffff" stroke="#000000" points="252,-74 252,-93 311,-93 311,-74 252,-74"/>
<text text-anchor="middle" x="281.5" y="-81" font-family="Helvetica,sans-Serif" font-size="10.00" fill="#000000">Formatter</text>
</a>
</g>
</g>
<!-- Node5&#45;&gt;Node4 -->
<g id="edge1" class="edge">
<title>Node5&#45;&gt;Node4</title>
<path fill="none" stroke="#191970" d="M304.1398,-68.0923C325.6313,-53.4662 357.2648,-31.9378 375.3774,-19.6112"/>
<polygon fill="#191970" stroke="#191970" points="301.9171,-65.3714 295.6191,-73.8912 305.8555,-71.1584 301.9171,-65.3714"/>
</g>
<!-- Node5&#45;&gt;Node5 -->
<g id="edge2" class="edge">
<title>Node5&#45;&gt;Node5</title>
<path fill="none" stroke="#9a32cd" stroke-dasharray="5,2" d="M321.1722,-89.9453C325.9076,-88.7734 329,-86.625 329,-83.5 329,-78.5 321.0833,-76 311.1875,-76"/>
<polygon fill="#9a32cd" stroke="#9a32cd" points="320.7645,-86.4688 311.1875,-91 321.4999,-93.4301 320.7645,-86.4688"/>
<text text-anchor="middle" x="341" y="-81" font-family="Helvetica,sans-Serif" font-size="10.00" fill="#000000"> Next</text>
</g>
<!-- Node6 -->
<g id="node4" class="node">
<title>Node6</title>
<g id="a_node4"><a xlink:href="classaworx_1_1lib_1_1strings_1_1AString.html" target="_top" xlink:title="AString">
<polygon fill="#ffffff" stroke="#000000" points="178,-159.5 178,-178.5 227,-178.5 227,-159.5 178,-159.5"/>
<text text-anchor="middle" x="202.5" y="-166.5" font-family="Helvetica,sans-Serif" font-size="10.00" fill="#000000">AString</text>
</a>
</g>
</g>
<!-- Node6&#45;&gt;Node4 -->
<g id="edge3" class="edge">
<title>Node6&#45;&gt;Node4</title>
<path fill="none" stroke="#9a32cd" stroke-dasharray="5,2" d="M193.3135,-150.0784C184.0154,-127.8863 173.3758,-91.0778 191.5,-67 209.7319,-42.779 290.6218,-25.6438 343.2041,-16.8294"/>
<polygon fill="#9a32cd" stroke="#9a32cd" points="190.2178,-151.7283 197.5107,-159.4136 196.6022,-148.8578 190.2178,-151.7283"/>
<text text-anchor="middle" x="217" y="-86.5" font-family="Helvetica,sans-Serif" font-size="10.00" fill="#000000"> fieldBuffer</text>
<text text-anchor="middle" x="217" y="-75.5" font-family="Helvetica,sans-Serif" font-size="10.00" fill="#000000">targetString</text>
</g>
<!-- Node6&#45;&gt;Node5 -->
<g id="edge4" class="edge">
<title>Node6&#45;&gt;Node5</title>
<path fill="none" stroke="#9a32cd" stroke-dasharray="5,2" d="M212.8398,-150.4261C218.9848,-140.2563 227.3522,-127.7732 236.5,-118 245.3799,-108.513 257.0665,-99.637 266.3046,-93.2642"/>
<polygon fill="#9a32cd" stroke="#9a32cd" points="209.6785,-148.8999 207.6762,-159.3038 215.7295,-152.4194 209.6785,-148.8999"/>
<text text-anchor="middle" x="276" y="-126.5" font-family="Helvetica,sans-Serif" font-size="10.00" fill="#000000"> mbsFormatString</text>
</g>
<!-- Node7 -->
<g id="node5" class="node">
<title>Node7</title>
<g id="a_node5"><a xlink:href="classaworx_1_1lib_1_1strings_1_1TString.html" target="_top" xlink:title="TString">
<polygon fill="#ffffff" stroke="#000000" points="178.5,-293.5 178.5,-312.5 226.5,-312.5 226.5,-293.5 178.5,-293.5"/>
<text text-anchor="middle" x="202.5" y="-300.5" font-family="Helvetica,sans-Serif" font-size="10.00" fill="#000000">TString</text>
</a>
</g>
</g>
<!-- Node7&#45;&gt;Node6 -->
<g id="edge5" class="edge">
<title>Node7&#45;&gt;Node6</title>
<path fill="none" stroke="#191970" d="M202.5,-283.124C202.5,-253.8572 202.5,-200.2914 202.5,-178.5496"/>
<polygon fill="#191970" stroke="#191970" points="199.0001,-283.363 202.5,-293.3631 206.0001,-283.3631 199.0001,-283.363"/>
</g>
<!-- Node12 -->
<g id="node6" class="node">
<title>Node12</title>
<g id="a_node6"><a xlink:href="classaworx_1_1lib_1_1strings_1_1NumberFormat.html" target="_top" xlink:title="NumberFormat">
<polygon fill="#ffffff" stroke="#000000" points="0,-119.5 0,-138.5 81,-138.5 81,-119.5 0,-119.5"/>
<text text-anchor="middle" x="40.5" y="-126.5" font-family="Helvetica,sans-Serif" font-size="10.00" fill="#000000">NumberFormat</text>
</a>
</g>
</g>
<!-- Node7&#45;&gt;Node12 -->
<g id="edge6" class="edge">
<title>Node7&#45;&gt;Node12</title>
<path fill="none" stroke="#9a32cd" stroke-dasharray="5,2" d="M168.3953,-298.5924C150.6667,-294.8213 129.6084,-287.8519 114.5,-275 69.6944,-236.8863 48.9649,-164.9513 42.6709,-138.8101"/>
<polygon fill="#9a32cd" stroke="#9a32cd" points="167.9051,-302.0614 178.3787,-300.4634 169.1946,-295.1811 167.9051,-302.0614"/>
<text text-anchor="middle" x="156.5" y="-267" font-family="Helvetica,sans-Serif" font-size="10.00" fill="#000000"> Whitespaces</text>
<text text-anchor="middle" x="156.5" y="-256" font-family="Helvetica,sans-Serif" font-size="10.00" fill="#000000">OctLiteralPrefix</text>
<text text-anchor="middle" x="156.5" y="-245" font-family="Helvetica,sans-Serif" font-size="10.00" fill="#000000">INFLiteral</text>
<text text-anchor="middle" x="156.5" y="-234" font-family="Helvetica,sans-Serif" font-size="10.00" fill="#000000">NANLiteral</text>
<text text-anchor="middle" x="156.5" y="-223" font-family="Helvetica,sans-Serif" font-size="10.00" fill="#000000">ExponentSeparator</text>
<text text-anchor="middle" x="156.5" y="-212" font-family="Helvetica,sans-Serif" font-size="10.00" fill="#000000">BinLiteralPrefix</text>
<text text-anchor="middle" x="156.5" y="-201" font-family="Helvetica,sans-Serif" font-size="10.00" fill="#000000">HexLiteralPrefix</text>
</g>
<!-- Node12&#45;&gt;Node4 -->
<g id="edge13" class="edge">
<title>Node12&#45;&gt;Node4</title>
<path fill="none" stroke="#9a32cd" stroke-dasharray="5,2" d="M37.6755,-109.0425C36.9341,-95.5604 38.4239,-78.2366 48.5,-67 67.985,-45.2708 254.7021,-23.6569 343.2893,-14.5261"/>
<polygon fill="#9a32cd" stroke="#9a32cd" points="34.2172,-109.6384 38.6835,-119.2459 41.1833,-108.9502 34.2172,-109.6384"/>
<text text-anchor="middle" x="104.5" y="-92" font-family="Helvetica,sans-Serif" font-size="10.00" fill="#000000"> DefaultNumberFormat</text>
<text text-anchor="middle" x="104.5" y="-81" font-family="Helvetica,sans-Serif" font-size="10.00" fill="#000000">AlternativeNumberFormat</text>
<text text-anchor="middle" x="104.5" y="-70" font-family="Helvetica,sans-Serif" font-size="10.00" fill="#000000">phaNF</text>
</g>
<!-- Node12&#45;&gt;Node12 -->
<g id="edge14" class="edge">
<title>Node12&#45;&gt;Node12</title>
<path fill="none" stroke="#9a32cd" stroke-dasharray="5,2" d="M91.3235,-134.9931C96.0317,-133.7565 99,-131.7588 99,-129 99,-124.5859 91.4013,-122.1203 81.235,-121.603"/>
<polygon fill="#9a32cd" stroke="#9a32cd" points="90.6571,-131.552 81.235,-136.397 91.622,-138.4852 90.6571,-131.552"/>
<text text-anchor="middle" x="130.5" y="-132" font-family="Helvetica,sans-Serif" font-size="10.00" fill="#000000"> Global</text>
<text text-anchor="middle" x="130.5" y="-121" font-family="Helvetica,sans-Serif" font-size="10.00" fill="#000000">Computational</text>
</g>
<!-- Node8 -->
<g id="node7" class="node">
<title>Node8</title>
<g id="a_node7"><a xlink:href="classaworx_1_1lib_1_1strings_1_1String.html" target="_top" xlink:title="String">
<polygon fill="#ffffff" stroke="#000000" points="445.5,-350.5 445.5,-369.5 487.5,-369.5 487.5,-350.5 445.5,-350.5"/>
<text text-anchor="middle" x="466.5" y="-357.5" font-family="Helvetica,sans-Serif" font-size="10.00" fill="#000000">String</text>
</a>
</g>
</g>
<!-- Node8&#45;&gt;Node4 -->
<g id="edge7" class="edge">
<title>Node8&#45;&gt;Node4</title>
<path fill="none" stroke="#9a32cd" stroke-dasharray="5,2" d="M466.5,-340.1332C466.5,-329.1802 466.5,-315.3389 466.5,-303 466.5,-303 466.5,-303 466.5,-83.5 466.5,-53.007 434.5126,-31.288 411.7716,-19.7001"/>
<polygon fill="#9a32cd" stroke="#9a32cd" points="463.0001,-340.3179 466.5,-350.3179 470.0001,-340.318 463.0001,-340.3179"/>
<text text-anchor="middle" x="499" y="-172" font-family="Helvetica,sans-Serif" font-size="10.00" fill="#000000"> formatString</text>
<text text-anchor="middle" x="499" y="-161" font-family="Helvetica,sans-Serif" font-size="10.00" fill="#000000">formatterName</text>
</g>
<!-- Node8&#45;&gt;Node7 -->
<g id="edge8" class="edge">
<title>Node8&#45;&gt;Node7</title>
<path fill="none" stroke="#191970" d="M435.4667,-353.2996C382.3061,-341.8218 274.9091,-318.6338 226.786,-308.2436"/>
<polygon fill="#191970" stroke="#191970" points="434.8286,-356.7424 445.342,-355.4318 436.306,-349.9001 434.8286,-356.7424"/>
</g>
<!-- Node13 -->
<g id="node8" class="node">
<title>Node13</title>
<g id="a_node8"><a xlink:href="classaworx_1_1lib_1_1strings_1_1Substring.html" target="_top" xlink:title="Substring">
<polygon fill="#ffffff" stroke="#000000" points="505.5,-227 505.5,-246 563.5,-246 563.5,-227 505.5,-227"/>
<text text-anchor="middle" x="534.5" y="-234" font-family="Helvetica,sans-Serif" font-size="10.00" fill="#000000">Substring</text>
</a>
</g>
</g>
<!-- Node8&#45;&gt;Node13 -->
<g id="edge9" class="edge">
<title>Node8&#45;&gt;Node13</title>
<path fill="none" stroke="#191970" d="M476.8406,-341.2196C491.54,-314.523 517.9396,-266.5767 529.1889,-246.1458"/>
<polygon fill="#191970" stroke="#191970" points="473.5932,-339.8611 471.8358,-350.3092 479.7251,-343.2374 473.5932,-339.8611"/>
</g>
<!-- Node13&#45;&gt;Node4 -->
<g id="edge15" class="edge">
<title>Node13&#45;&gt;Node4</title>
<path fill="none" stroke="#9a32cd" stroke-dasharray="5,2" d="M534.934,-216.8087C535.1517,-205.952 535.3918,-192.2321 535.5,-180 535.5865,-170.2226 537.5849,-167.5529 535.5,-158 522.9901,-100.6809 524.6162,-76.6747 480.5,-38 468.0704,-27.1036 451.466,-20.4475 435.8448,-16.3817"/>
<polygon fill="#9a32cd" stroke="#9a32cd" points="531.4328,-216.8321 534.7216,-226.9035 538.4312,-216.9794 531.4328,-216.8321"/>
<text text-anchor="middle" x="569" y="-132" font-family="Helvetica,sans-Serif" font-size="10.00" fill="#000000"> phaFormatSpec</text>
<text text-anchor="middle" x="569" y="-121" font-family="Helvetica,sans-Serif" font-size="10.00" fill="#000000">parser</text>
</g>
<!-- Node9&#45;&gt;Node4 -->
<g id="edge10" class="edge">
<title>Node9&#45;&gt;Node4</title>
<path fill="none" stroke="#9a32cd" stroke-dasharray="5,2" d="M370.3011,-148.756C375.0912,-114.1365 384.6782,-44.8485 388.1802,-19.5382"/>
<polygon fill="#9a32cd" stroke="#9a32cd" points="366.7799,-148.6685 368.8762,-159.0538 373.7138,-149.6279 366.7799,-148.6685"/>
<text text-anchor="middle" x="406" y="-81" font-family="Helvetica,sans-Serif" font-size="10.00" fill="#000000"> arguments</text>
</g>
<!-- Node9&#45;&gt;Node5 -->
<g id="edge11" class="edge">
<title>Node9&#45;&gt;Node5</title>
<path fill="none" stroke="#9a32cd" stroke-dasharray="5,2" d="M350.2199,-151.8204C332.5004,-134.2039 305.5689,-107.4289 291.2502,-93.1936"/>
<polygon fill="#9a32cd" stroke="#9a32cd" points="348.0754,-154.6237 357.6347,-159.1921 353.0107,-149.6595 348.0754,-154.6237"/>
<text text-anchor="middle" x="352.5" y="-126.5" font-family="Helvetica,sans-Serif" font-size="10.00" fill="#000000"> boxes</text>
</g>
<!-- Node14 -->
<g id="node10" class="node">
<title>Node14</title>
<g id="a_node10"><a xlink:href="classaworx_1_1lib_1_1boxing_1_1Box.html" target="_top" xlink:title="Box">
<polygon fill="#ffffff" stroke="#000000" points="638.5,-74 638.5,-93 672.5,-93 672.5,-74 638.5,-74"/>
<text text-anchor="middle" x="655.5" y="-81" font-family="Helvetica,sans-Serif" font-size="10.00" fill="#000000">Box</text>
</a>
</g>
</g>
<!-- Node14&#45;&gt;Node4 -->
<g id="edge16" class="edge">
<title>Node14&#45;&gt;Node4</title>
<path fill="none" stroke="#9a32cd" stroke-dasharray="5,2" d="M633.1127,-68.2031C617.177,-58.0505 594.882,-45.2952 573.5,-38 528.0868,-22.5058 473.4457,-15.5656 435.5637,-12.469"/>
<polygon fill="#9a32cd" stroke="#9a32cd" points="631.42,-71.278 641.7056,-73.8191 635.2496,-65.4184 631.42,-71.278"/>
<text text-anchor="middle" x="628" y="-41" font-family="Helvetica,sans-Serif" font-size="10.00" fill="#000000"> phaArgument</text>
</g>
<!-- Node15 -->
<g id="node11" class="node">
<title>Node15</title>
<g id="a_node11"><a xlink:href="structaworx_1_1lib_1_1boxing_1_1BoxData.html" target="_top" xlink:title="BoxData">
<polygon fill="#ffffff" stroke="#000000" points="694.5,-159.5 694.5,-178.5 748.5,-178.5 748.5,-159.5 694.5,-159.5"/>
<text text-anchor="middle" x="721.5" y="-166.5" font-family="Helvetica,sans-Serif" font-size="10.00" fill="#000000">BoxData</text>
</a>
</g>
</g>
<!-- Node15&#45;&gt;Node14 -->
<g id="edge17" class="edge">
<title>Node15&#45;&gt;Node14</title>
<path fill="none" stroke="#9a32cd" stroke-dasharray="5,2" d="M710.2648,-150.6356C703.9423,-140.7049 695.691,-128.3834 687.5,-118 680.5176,-109.1488 671.7643,-99.815 665.1783,-93.0909"/>
<polygon fill="#9a32cd" stroke="#9a32cd" points="707.4019,-152.6588 715.6706,-159.2829 713.3375,-148.9482 707.4019,-152.6588"/>
<text text-anchor="middle" x="714.5" y="-126.5" font-family="Helvetica,sans-Serif" font-size="10.00" fill="#000000"> data</text>
</g>
<!-- Node16 -->
<g id="node12" class="node">
<title>Node16</title>
<g id="a_node12"><a xlink:href="classaworx_1_1lib_1_1boxing_1_1Boxer.html" target="_top" xlink:title="Boxer">
<polygon fill="#ffffff" stroke="#000000" points="634.5,-159.5 634.5,-178.5 676.5,-178.5 676.5,-159.5 634.5,-159.5"/>
<text text-anchor="middle" x="655.5" y="-166.5" font-family="Helvetica,sans-Serif" font-size="10.00" fill="#000000">Boxer</text>
</a>
</g>
</g>
<!-- Node16&#45;&gt;Node14 -->
<g id="edge18" class="edge">
<title>Node16&#45;&gt;Node14</title>
<path fill="none" stroke="#9a32cd" stroke-dasharray="5,2" d="M655.5,-148.8868C655.5,-131.346 655.5,-106.6594 655.5,-93.1936"/>
<polygon fill="#9a32cd" stroke="#9a32cd" points="652.0001,-149.192 655.5,-159.1921 659.0001,-149.1921 652.0001,-149.192"/>
<text text-anchor="middle" x="669.5" y="-126.5" font-family="Helvetica,sans-Serif" font-size="10.00" fill="#000000"> boxer</text>
</g>
</g>
</svg>
