<?xml version="1.0" encoding="UTF-8" standalone="no"?>
<!DOCTYPE svg PUBLIC "-//W3C//DTD SVG 1.1//EN"
 "http://www.w3.org/Graphics/SVG/1.1/DTD/svg11.dtd">
<!-- Generated by graphviz version 2.38.0 (20140413.2041)
 -->
<!-- Title: ObjectConverter Pages: 1 -->
<svg width="147pt" height="231pt"
 viewBox="0.00 0.00 147.00 231.00" xmlns="http://www.w3.org/2000/svg" xmlns:xlink="http://www.w3.org/1999/xlink">
<g id="graph0" class="graph" transform="scale(1 1) rotate(0) translate(4 227)">
<title>ObjectConverter</title>
<polygon fill="white" stroke="none" points="-4,4 -4,-227 143,-227 143,4 -4,4"/>
<!-- Node1 -->
<g id="node1" class="node"><title>Node1</title>
<polygon fill="#bfbfbf" stroke="black" points="4,-0.5 4,-19.5 92,-19.5 92,-0.5 4,-0.5"/>
<text text-anchor="middle" x="48" y="-7.5" font-family="Helvetica,sans-Serif" font-size="10.00">ObjectConverter</text>
</g>
<!-- Node2 -->
<g id="node2" class="node"><title>Node2</title>
<g id="a_node2"><a xlink:href="classaworx_1_1lib_1_1strings_1_1PreallocatedString.html" target="_top" xlink:title="PreallocatedString\l\&lt; 64 \&gt;">
<polygon fill="white" stroke="black" points="0,-78.5 0,-108.5 96,-108.5 96,-78.5 0,-78.5"/>
<text text-anchor="start" x="8" y="-96.5" font-family="Helvetica,sans-Serif" font-size="10.00">PreallocatedString</text>
<text text-anchor="middle" x="48" y="-85.5" font-family="Helvetica,sans-Serif" font-size="10.00">&lt; 64 &gt;</text>
</a>
</g>
</g>
<!-- Node2&#45;&gt;Node1 -->
<g id="edge1" class="edge"><title>Node2&#45;&gt;Node1</title>
<path fill="none" stroke="#9a32cd" stroke-dasharray="5,2" d="M48,-68.2485C48,-51.781 48,-30.9886 48,-19.5391"/>
<polygon fill="#9a32cd" stroke="#9a32cd" points="44.5001,-68.3037 48,-78.3038 51.5001,-68.3038 44.5001,-68.3037"/>
<text text-anchor="middle" x="93.5" y="-52" font-family="Helvetica,sans-Serif" font-size="10.00"> FmtUnknownObject</text>
<text text-anchor="middle" x="93.5" y="-41" font-family="Helvetica,sans-Serif" font-size="10.00">FmtNullObject</text>
</g>
<!-- Node3 -->
<g id="node3" class="node"><title>Node3</title>
<g id="a_node3"><a xlink:href="classaworx_1_1lib_1_1strings_1_1AString.html" target="_top" xlink:title="AString">
<polygon fill="white" stroke="black" points="23.5,-146.5 23.5,-165.5 72.5,-165.5 72.5,-146.5 23.5,-146.5"/>
<text text-anchor="middle" x="48" y="-153.5" font-family="Helvetica,sans-Serif" font-size="10.00">AString</text>
</a>
</g>
</g>
<!-- Node3&#45;&gt;Node2 -->
<g id="edge2" class="edge"><title>Node3&#45;&gt;Node2</title>
<path fill="none" stroke="midnightblue" d="M48,-136.215C48,-127.356 48,-116.958 48,-108.759"/>
<polygon fill="midnightblue" stroke="midnightblue" points="44.5001,-136.332 48,-146.332 51.5001,-136.332 44.5001,-136.332"/>
</g>
<!-- Node4 -->
<g id="node4" class="node"><title>Node4</title>
<g id="a_node4"><a xlink:href="classaworx_1_1lib_1_1strings_1_1TString.html" target="_top" xlink:title="TString">
<polygon fill="white" stroke="red" points="24,-203.5 24,-222.5 72,-222.5 72,-203.5 24,-203.5"/>
<text text-anchor="middle" x="48" y="-210.5" font-family="Helvetica,sans-Serif" font-size="10.00">TString</text>
</a>
</g>
</g>
<!-- Node4&#45;&gt;Node3 -->
<g id="edge3" class="edge"><title>Node4&#45;&gt;Node3</title>
<path fill="none" stroke="midnightblue" d="M48,-193.117C48,-183.817 48,-173.056 48,-165.715"/>
<polygon fill="midnightblue" stroke="midnightblue" points="44.5001,-193.406 48,-203.406 51.5001,-193.406 44.5001,-193.406"/>
</g>
</g>
</svg>
