<?xml version="1.0" encoding="UTF-8" standalone="no"?>
<!DOCTYPE svg PUBLIC "-//W3C//DTD SVG 1.1//EN"
 "http://www.w3.org/Graphics/SVG/1.1/DTD/svg11.dtd">
<!-- Generated by graphviz version 2.38.0 (20140413.2041)
 -->
<!-- Title: Lox Pages: 1 -->
<svg width="1324pt" height="594pt"
 viewBox="0.00 0.00 1324.00 594.12" xmlns="http://www.w3.org/2000/svg" xmlns:xlink="http://www.w3.org/1999/xlink">
<g id="graph0" class="graph" transform="scale(1 1) rotate(0) translate(4 590.117)">
<title>Lox</title>
<polygon fill="white" stroke="none" points="-4,4 -4,-590.117 1320,-590.117 1320,4 -4,4"/>
<!-- Node1 -->
<g id="node1" class="node"><title>Node1</title>
<polygon fill="#bfbfbf" stroke="black" points="1284,-346.617 1284,-365.617 1316,-365.617 1316,-346.617 1284,-346.617"/>
<text text-anchor="middle" x="1300" y="-353.617" font-family="Helvetica,sans-Serif" font-size="10.00">Lox</text>
</g>
<!-- Node10 -->
<g id="node2" class="node"><title>Node10</title>
<polygon fill="white" stroke="#bfbfbf" points="873,-1.6167 873,-42.6167 980,-42.6167 980,-1.6167 873,-1.6167"/>
<text text-anchor="start" x="881" y="-30.6167" font-family="Helvetica,sans-Serif" font-size="10.00">map&lt; std::thread::id,</text>
<text text-anchor="start" x="881" y="-19.6167" font-family="Helvetica,sans-Serif" font-size="10.00"> aworx::lib::threads</text>
<text text-anchor="middle" x="926.5" y="-8.6167" font-family="Helvetica,sans-Serif" font-size="10.00">::Thread * &gt;</text>
</g>
<!-- Node4 -->
<g id="node10" class="node"><title>Node4</title>
<g id="a_node10"><a xlink:href="classaworx_1_1lib_1_1threads_1_1Thread.html" target="_top" xlink:title="Thread">
<polygon fill="white" stroke="black" points="638.5,-31.6167 638.5,-50.6167 685.5,-50.6167 685.5,-31.6167 638.5,-31.6167"/>
<text text-anchor="middle" x="662" y="-38.6167" font-family="Helvetica,sans-Serif" font-size="10.00">Thread</text>
</a>
</g>
</g>
<!-- Node10&#45;&gt;Node4 -->
<g id="edge21" class="edge"><title>Node10&#45;&gt;Node4</title>
<path fill="none" stroke="#9a32cd" stroke-dasharray="5,2" d="M862.829,-26.6529C805.854,-30.7768 724.903,-36.6361 685.836,-39.4638"/>
<polygon fill="#9a32cd" stroke="#9a32cd" points="863.097,-30.1427 872.818,-25.9299 862.592,-23.161 863.097,-30.1427"/>
<text text-anchor="middle" x="794" y="-39.1167" font-family="Helvetica,sans-Serif" font-size="10.00"> threadMap</text>
</g>
<!-- Node12 -->
<g id="node3" class="node"><title>Node12</title>
<polygon fill="white" stroke="#bfbfbf" points="1091,-315.617 1091,-334.617 1213,-334.617 1213,-315.617 1091,-315.617"/>
<text text-anchor="middle" x="1152" y="-322.617" font-family="Helvetica,sans-Serif" font-size="10.00">vector&lt; core::Logger * &gt;</text>
</g>
<!-- Node12&#45;&gt;Node1 -->
<g id="edge23" class="edge"><title>Node12&#45;&gt;Node1</title>
<path fill="none" stroke="#9a32cd" stroke-dasharray="5,2" d="M1207.84,-336.761C1235.1,-342.548 1265.95,-349.1 1283.87,-352.904"/>
<polygon fill="#9a32cd" stroke="#9a32cd" points="1208.51,-333.324 1198,-334.671 1207.05,-340.171 1208.51,-333.324"/>
<text text-anchor="middle" x="1248.5" y="-352.117" font-family="Helvetica,sans-Serif" font-size="10.00"> loggers</text>
</g>
<!-- Node17 -->
<g id="node4" class="node"><title>Node17</title>
<polygon fill="white" stroke="#bfbfbf" points="609,-395.617 609,-414.617 715,-414.617 715,-395.617 609,-395.617"/>
<text text-anchor="middle" x="662" y="-402.617" font-family="Helvetica,sans-Serif" font-size="10.00">map&lt; int, String32 &gt;</text>
</g>
<!-- Node17&#45;&gt;Node1 -->
<g id="edge30" class="edge"><title>Node17&#45;&gt;Node1</title>
<path fill="none" stroke="#9a32cd" stroke-dasharray="5,2" d="M712.127,-393.564C719.104,-392.224 726.212,-391.017 733,-390.117 968.158,-358.945 1030.38,-389.612 1266,-362.117 1271.9,-361.428 1278.34,-360.336 1283.95,-359.271"/>
<polygon fill="#9a32cd" stroke="#9a32cd" points="711.159,-390.189 702.053,-395.604 712.548,-397.05 711.159,-390.189"/>
<text text-anchor="middle" x="1035.5" y="-378.117" font-family="Helvetica,sans-Serif" font-size="10.00"> threadDictionary</text>
</g>
<!-- Node20 -->
<g id="node16" class="node"><title>Node20</title>
<g id="a_node16"><a xlink:href="classaworx_1_1lox_1_1core_1_1CallerInfo.html" target="_top" xlink:title="CallerInfo">
<polygon fill="white" stroke="black" points="897,-471.617 897,-490.617 956,-490.617 956,-471.617 897,-471.617"/>
<text text-anchor="middle" x="926.5" y="-478.617" font-family="Helvetica,sans-Serif" font-size="10.00">CallerInfo</text>
</a>
</g>
</g>
<!-- Node17&#45;&gt;Node20 -->
<g id="edge31" class="edge"><title>Node17&#45;&gt;Node20</title>
<path fill="none" stroke="#9a32cd" stroke-dasharray="5,2" d="M725.489,-395.271C764.317,-391.882 814.391,-392.588 855,-410.117 884.983,-423.059 908.95,-455.283 919.566,-471.489"/>
<polygon fill="#9a32cd" stroke="#9a32cd" points="724.973,-391.805 715.364,-396.269 725.659,-398.771 724.973,-391.805"/>
<text text-anchor="middle" x="794" y="-413.117" font-family="Helvetica,sans-Serif" font-size="10.00"> threadDictionary</text>
</g>
<!-- Node18 -->
<g id="node5" class="node"><title>Node18</title>
<polygon fill="white" stroke="#bfbfbf" points="469,-167.117 469,-197.117 591,-197.117 591,-167.117 469,-167.117"/>
<text text-anchor="start" x="477" y="-185.117" font-family="Helvetica,sans-Serif" font-size="10.00">map&lt; aworx::lib::strings</text>
<text text-anchor="middle" x="530" y="-174.117" font-family="Helvetica,sans-Serif" font-size="10.00">::AString, void * &gt;</text>
</g>
<!-- Node18&#45;&gt;Node1 -->
<g id="edge32" class="edge"><title>Node18&#45;&gt;Node1</title>
<path fill="none" stroke="#9a32cd" stroke-dasharray="5,2" d="M601.761,-186.186C728.324,-195.361 1000.13,-223.738 1213,-306.117 1240.38,-316.713 1269.32,-335.285 1285.67,-346.567"/>
<polygon fill="#9a32cd" stroke="#9a32cd" points="601.657,-182.67 591.436,-185.457 601.164,-189.652 601.657,-182.67"/>
<text text-anchor="middle" x="926.5" y="-241.117" font-family="Helvetica,sans-Serif" font-size="10.00"> markers</text>
</g>
<!-- Node19 -->
<g id="node6" class="node"><title>Node19</title>
<polygon fill="white" stroke="#bfbfbf" points="733,-115.617 733,-156.617 855,-156.617 855,-115.617 733,-115.617"/>
<text text-anchor="start" x="741" y="-144.617" font-family="Helvetica,sans-Serif" font-size="10.00">map&lt; aworx::lib::strings</text>
<text text-anchor="start" x="741" y="-133.617" font-family="Helvetica,sans-Serif" font-size="10.00">::AString, aworx::lib::</text>
<text text-anchor="middle" x="794" y="-122.617" font-family="Helvetica,sans-Serif" font-size="10.00">strings::AString &gt;</text>
</g>
<!-- Node19&#45;&gt;Node1 -->
<g id="edge33" class="edge"><title>Node19&#45;&gt;Node1</title>
<path fill="none" stroke="#9a32cd" stroke-dasharray="5,2" d="M865.684,-130.738C982.548,-123.461 1208.84,-116.713 1266,-168.117 1292.86,-192.27 1297.9,-311.617 1298.81,-346.516"/>
<polygon fill="#9a32cd" stroke="#9a32cd" points="865.165,-127.264 855.41,-131.397 865.613,-134.25 865.165,-127.264"/>
<text text-anchor="middle" x="1035.5" y="-130.117" font-family="Helvetica,sans-Serif" font-size="10.00"> defaultDomains</text>
</g>
<!-- Node6 -->
<g id="node7" class="node"><title>Node6</title>
<g id="a_node7"><a xlink:href="classaworx_1_1lib_1_1strings_1_1PreallocatedString.html" target="_top" xlink:title="PreallocatedString\l\&lt; TCapacity \&gt;">
<polygon fill="white" stroke="black" points="355,-229.117 355,-259.117 451,-259.117 451,-229.117 355,-229.117"/>
<text text-anchor="start" x="363" y="-247.117" font-family="Helvetica,sans-Serif" font-size="10.00">PreallocatedString</text>
<text text-anchor="middle" x="403" y="-236.117" font-family="Helvetica,sans-Serif" font-size="10.00">&lt; TCapacity &gt;</text>
</a>
</g>
</g>
<!-- Node6&#45;&gt;Node17 -->
<g id="edge10" class="edge"><title>Node6&#45;&gt;Node17</title>
<path fill="none" stroke="#9a32cd" stroke-dasharray="5,2" d="M430.122,-265.504C467.788,-295.553 540.383,-350.563 609,-386.117 615.827,-389.654 623.466,-392.836 630.741,-395.539"/>
<polygon fill="#9a32cd" stroke="#9a32cd" points="432.181,-262.668 422.193,-259.134 427.797,-268.125 432.181,-262.668"/>
<text text-anchor="middle" x="530" y="-377.117" font-family="Helvetica,sans-Serif" font-size="10.00"> elements</text>
</g>
<!-- Node6&#45;&gt;Node4 -->
<g id="edge7" class="edge"><title>Node6&#45;&gt;Node4</title>
<path fill="none" stroke="#9a32cd" stroke-dasharray="5,2" d="M415.817,-219.756C427.148,-198.321 445.918,-167.312 469,-146.117 483.272,-133.012 596.72,-74.1168 642.219,-50.7314"/>
<polygon fill="#9a32cd" stroke="#9a32cd" points="412.596,-218.366 411.145,-228.862 418.824,-221.562 412.596,-218.366"/>
<text text-anchor="middle" x="530" y="-149.117" font-family="Helvetica,sans-Serif" font-size="10.00"> name</text>
</g>
<!-- Node13 -->
<g id="node12" class="node"><title>Node13</title>
<g id="a_node12"><a xlink:href="classaworx_1_1lox_1_1core_1_1Logger.html" target="_top" xlink:title="Logger">
<polygon fill="white" stroke="black" points="903.5,-278.617 903.5,-297.617 949.5,-297.617 949.5,-278.617 903.5,-278.617"/>
<text text-anchor="middle" x="926.5" y="-285.617" font-family="Helvetica,sans-Serif" font-size="10.00">Logger</text>
</a>
</g>
</g>
<!-- Node6&#45;&gt;Node13 -->
<g id="edge8" class="edge"><title>Node6&#45;&gt;Node13</title>
<path fill="none" stroke="#9a32cd" stroke-dasharray="5,2" d="M461.273,-239.156C502.355,-235.854 559.042,-231.821 609,-230.117 656.084,-228.511 668.223,-224.518 715,-230.117 778.577,-237.726 793.519,-246.226 855,-264.117 871.387,-268.885 889.619,-275.117 903.436,-280.035"/>
<polygon fill="#9a32cd" stroke="#9a32cd" points="460.861,-235.677 451.178,-239.978 461.43,-242.654 460.861,-235.677"/>
<text text-anchor="middle" x="662" y="-244.117" font-family="Helvetica,sans-Serif" font-size="10.00"> TypeName</text>
<text text-anchor="middle" x="662" y="-233.117" font-family="Helvetica,sans-Serif" font-size="10.00">Name</text>
</g>
<!-- Node16 -->
<g id="node13" class="node"><title>Node16</title>
<g id="a_node13"><a xlink:href="classaworx_1_1lox_1_1core_1_1Domain.html" target="_top" xlink:title="Domain">
<polygon fill="white" stroke="red" points="637,-261.617 637,-280.617 687,-280.617 687,-261.617 637,-261.617"/>
<text text-anchor="middle" x="662" y="-268.617" font-family="Helvetica,sans-Serif" font-size="10.00">Domain</text>
</a>
</g>
</g>
<!-- Node6&#45;&gt;Node16 -->
<g id="edge9" class="edge"><title>Node6&#45;&gt;Node16</title>
<path fill="none" stroke="#9a32cd" stroke-dasharray="5,2" d="M461.123,-250.118C516.283,-255.913 597.144,-264.408 636.992,-268.594"/>
<polygon fill="#9a32cd" stroke="#9a32cd" points="461.449,-246.633 451.138,-249.069 460.717,-253.595 461.449,-246.633"/>
<text text-anchor="middle" x="530" y="-267.117" font-family="Helvetica,sans-Serif" font-size="10.00"> Name</text>
</g>
<!-- Node2 -->
<g id="node8" class="node"><title>Node2</title>
<g id="a_node8"><a xlink:href="classaworx_1_1lib_1_1threads_1_1ThreadLock.html" target="_top" xlink:title="ThreadLock">
<polygon fill="white" stroke="black" points="892.5,-88.6167 892.5,-107.617 960.5,-107.617 960.5,-88.6167 892.5,-88.6167"/>
<text text-anchor="middle" x="926.5" y="-95.6167" font-family="Helvetica,sans-Serif" font-size="10.00">ThreadLock</text>
</a>
</g>
</g>
<!-- Node2&#45;&gt;Node1 -->
<g id="edge1" class="edge"><title>Node2&#45;&gt;Node1</title>
<path fill="none" stroke="midnightblue" d="M970.13,-86.1077C1041.51,-68.8645 1185.32,-46.8443 1266,-122.117 1299.3,-153.183 1299.66,-306.34 1299.17,-346.474"/>
<polygon fill="midnightblue" stroke="midnightblue" points="968.992,-82.7843 960.139,-88.6049 970.69,-89.5753 968.992,-82.7843"/>
</g>
<!-- Node3 -->
<g id="node9" class="node"><title>Node3</title>
<g id="a_node9"><a xlink:href="classaworx_1_1lib_1_1Ownable.html" target="_top" xlink:title="Ownable">
<polygon fill="white" stroke="black" points="634.5,-89.6167 634.5,-108.617 689.5,-108.617 689.5,-89.6167 634.5,-89.6167"/>
<text text-anchor="middle" x="662" y="-96.6167" font-family="Helvetica,sans-Serif" font-size="10.00">Ownable</text>
</a>
</g>
</g>
<!-- Node3&#45;&gt;Node2 -->
<g id="edge2" class="edge"><title>Node3&#45;&gt;Node2</title>
<path fill="none" stroke="midnightblue" d="M699.9,-98.9761C751.133,-98.781 843.052,-98.4308 892.26,-98.2433"/>
<polygon fill="midnightblue" stroke="midnightblue" points="699.601,-95.4772 689.614,-99.0153 699.628,-102.477 699.601,-95.4772"/>
</g>
<!-- Node4&#45;&gt;Node10 -->
<g id="edge4" class="edge"><title>Node4&#45;&gt;Node10</title>
<path fill="none" stroke="#9a32cd" stroke-dasharray="5,2" d="M686.078,-26.164C699.248,-18.5267 716.4,-10.0354 733,-6.1167 779.51,4.86271 833.887,-1.33863 872.962,-8.99568"/>
<polygon fill="#9a32cd" stroke="#9a32cd" points="684.003,-23.3282 677.256,-31.4965 687.624,-29.3188 684.003,-23.3282"/>
<text text-anchor="middle" x="794" y="-9.1167" font-family="Helvetica,sans-Serif" font-size="10.00"> elements</text>
</g>
<!-- Node4&#45;&gt;Node2 -->
<g id="edge3" class="edge"><title>Node4&#45;&gt;Node2</title>
<path fill="none" stroke="#9a32cd" stroke-dasharray="5,2" d="M695.858,-48.2516C746.203,-59.1837 841.888,-79.961 892.386,-90.9263"/>
<polygon fill="#9a32cd" stroke="#9a32cd" points="696.351,-44.7771 685.836,-46.0754 694.866,-51.6177 696.351,-44.7771"/>
<text text-anchor="middle" x="794" y="-85.1167" font-family="Helvetica,sans-Serif" font-size="10.00"> owner</text>
</g>
<!-- Node5 -->
<g id="node11" class="node"><title>Node5</title>
<g id="a_node11"><a xlink:href="classaworx_1_1lib_1_1threads_1_1Runnable.html" target="_top" xlink:title="Runnable">
<polygon fill="white" stroke="black" points="374,-54.6167 374,-73.6167 432,-73.6167 432,-54.6167 374,-54.6167"/>
<text text-anchor="middle" x="403" y="-61.6167" font-family="Helvetica,sans-Serif" font-size="10.00">Runnable</text>
</a>
</g>
</g>
<!-- Node5&#45;&gt;Node4 -->
<g id="edge5" class="edge"><title>Node5&#45;&gt;Node4</title>
<path fill="none" stroke="midnightblue" d="M442.133,-58.4161C450.943,-57.216 460.287,-56.0366 469,-55.1167 530.156,-48.66 602.588,-44.2524 638.493,-42.2838"/>
<polygon fill="midnightblue" stroke="midnightblue" points="441.525,-54.967 432.106,-59.8199 442.495,-61.8994 441.525,-54.967"/>
</g>
<!-- Node5&#45;&gt;Node4 -->
<g id="edge6" class="edge"><title>Node5&#45;&gt;Node4</title>
<path fill="none" stroke="#9a32cd" stroke-dasharray="5,2" d="M442.346,-62.6862C480.209,-61.0312 539.719,-57.7792 591,-52.1167 606.896,-50.3615 624.699,-47.5523 638.373,-45.2122"/>
<polygon fill="#9a32cd" stroke="#9a32cd" points="442.109,-59.193 432.266,-63.1113 442.404,-66.1867 442.109,-59.193"/>
<text text-anchor="middle" x="530" y="-65.1167" font-family="Helvetica,sans-Serif" font-size="10.00"> runnable</text>
</g>
<!-- Node13&#45;&gt;Node12 -->
<g id="edge24" class="edge"><title>Node13&#45;&gt;Node12</title>
<path fill="none" stroke="#9a32cd" stroke-dasharray="5,2" d="M959.859,-293.474C994.78,-299.255 1051.09,-308.577 1093.57,-315.609"/>
<polygon fill="#9a32cd" stroke="#9a32cd" points="960.185,-289.98 949.747,-291.8 959.041,-296.886 960.185,-289.98"/>
<text text-anchor="middle" x="1035.5" y="-315.117" font-family="Helvetica,sans-Serif" font-size="10.00"> elements</text>
</g>
<!-- Node16&#45;&gt;Node13 -->
<g id="edge28" class="edge"><title>Node16&#45;&gt;Node13</title>
<path fill="none" stroke="#9a32cd" stroke-dasharray="5,2" d="M697.19,-269.06C735.692,-267.261 800.059,-265.816 855,-272.117 871.459,-274.004 889.689,-278.199 903.487,-281.82"/>
<polygon fill="#9a32cd" stroke="#9a32cd" points="696.857,-265.572 687.046,-269.57 697.209,-272.563 696.857,-265.572"/>
<text text-anchor="middle" x="794" y="-275.117" font-family="Helvetica,sans-Serif" font-size="10.00"> RootDomain</text>
</g>
<!-- Node16&#45;&gt;Node16 -->
<g id="edge29" class="edge"><title>Node16&#45;&gt;Node16</title>
<path fill="none" stroke="#9a32cd" stroke-dasharray="5,2" d="M637.447,-290.146C638.786,-295.245 646.97,-299.117 662,-299.117 685.461,-299.117 692.243,-289.682 682.345,-280.874"/>
<polygon fill="#9a32cd" stroke="#9a32cd" points="640.709,-291.426 641.655,-280.874 634.335,-288.533 640.709,-291.426"/>
<text text-anchor="middle" x="662" y="-302.117" font-family="Helvetica,sans-Serif" font-size="10.00"> Parent</text>
</g>
<!-- Node7 -->
<g id="node14" class="node"><title>Node7</title>
<g id="a_node14"><a xlink:href="classaworx_1_1lib_1_1strings_1_1AString.html" target="_top" xlink:title="AString">
<polygon fill="white" stroke="black" points="164,-234.617 164,-253.617 213,-253.617 213,-234.617 164,-234.617"/>
<text text-anchor="middle" x="188.5" y="-241.617" font-family="Helvetica,sans-Serif" font-size="10.00">AString</text>
</a>
</g>
</g>
<!-- Node7&#45;&gt;Node1 -->
<g id="edge11" class="edge"><title>Node7&#45;&gt;Node1</title>
<path fill="none" stroke="#9a32cd" stroke-dasharray="5,2" d="M210.169,-260.003C273.666,-307.167 472.999,-443.117 661,-443.117 661,-443.117 661,-443.117 1153,-443.117 1212.9,-443.117 1269.61,-388.411 1290.52,-365.76"/>
<polygon fill="#9a32cd" stroke="#9a32cd" points="211.9,-256.926 201.804,-253.715 207.694,-262.521 211.9,-256.926"/>
<text text-anchor="middle" x="794" y="-446.117" font-family="Helvetica,sans-Serif" font-size="10.00"> resDomain</text>
</g>
<!-- Node7&#45;&gt;Node18 -->
<g id="edge13" class="edge"><title>Node7&#45;&gt;Node18</title>
<path fill="none" stroke="#9a32cd" stroke-dasharray="5,2" d="M223,-231.398C225.688,-230.565 228.378,-229.791 231,-229.117 312.162,-208.252 408.278,-195.108 468.951,-188.185"/>
<polygon fill="#9a32cd" stroke="#9a32cd" points="221.773,-228.118 213.396,-234.604 223.99,-234.758 221.773,-228.118"/>
<text text-anchor="middle" x="284" y="-232.117" font-family="Helvetica,sans-Serif" font-size="10.00"> keys</text>
</g>
<!-- Node7&#45;&gt;Node19 -->
<g id="edge14" class="edge"><title>Node7&#45;&gt;Node19</title>
<path fill="none" stroke="#9a32cd" stroke-dasharray="5,2" d="M203.964,-226.886C211.356,-219.004 220.91,-210.108 231,-204.117 280.675,-174.619 298.239,-175.88 355,-165.117 488.276,-139.846 647.97,-135.697 732.911,-135.515"/>
<polygon fill="#9a32cd" stroke="#9a32cd" points="201.156,-224.776 197.112,-234.568 206.38,-229.435 201.156,-224.776"/>
<text text-anchor="middle" x="403" y="-179.117" font-family="Helvetica,sans-Serif" font-size="10.00"> keys</text>
<text text-anchor="middle" x="403" y="-168.117" font-family="Helvetica,sans-Serif" font-size="10.00">elements</text>
</g>
<!-- Node7&#45;&gt;Node6 -->
<g id="edge12" class="edge"><title>Node7&#45;&gt;Node6</title>
<path fill="none" stroke="midnightblue" d="M223.367,-244.117C258.858,-244.117 314.887,-244.117 354.726,-244.117"/>
<polygon fill="midnightblue" stroke="midnightblue" points="223.053,-240.617 213.053,-244.117 223.053,-247.617 223.053,-240.617"/>
</g>
<!-- Node8 -->
<g id="node15" class="node"><title>Node8</title>
<g id="a_node15"><a xlink:href="classaworx_1_1lib_1_1strings_1_1TString.html" target="_top" xlink:title="TString">
<polygon fill="white" stroke="black" points="79,-471.617 79,-490.617 127,-490.617 127,-471.617 79,-471.617"/>
<text text-anchor="middle" x="103" y="-478.617" font-family="Helvetica,sans-Serif" font-size="10.00">TString</text>
</a>
</g>
</g>
<!-- Node8&#45;&gt;Node1 -->
<g id="edge15" class="edge"><title>Node8&#45;&gt;Node1</title>
<path fill="none" stroke="#9a32cd" stroke-dasharray="5,2" d="M136.851,-493.924C139.583,-494.748 142.324,-495.495 145,-496.117 427.106,-561.695 503.372,-565.117 793,-565.117 793,-565.117 793,-565.117 1153,-565.117 1215.31,-565.117 1230.98,-533.662 1266,-482.117 1291.54,-444.52 1297.32,-388.286 1298.62,-365.859"/>
<polygon fill="#9a32cd" stroke="#9a32cd" points="137.71,-490.522 127.116,-490.691 135.503,-497.165 137.71,-490.522"/>
<text text-anchor="middle" x="662" y="-578.117" font-family="Helvetica,sans-Serif" font-size="10.00"> InternalDomain</text>
<text text-anchor="middle" x="662" y="-567.117" font-family="Helvetica,sans-Serif" font-size="10.00">NullDomain</text>
</g>
<!-- Node8&#45;&gt;Node16 -->
<g id="edge17" class="edge"><title>Node8&#45;&gt;Node16</title>
<path fill="none" stroke="#9a32cd" stroke-dasharray="5,2" d="M136.675,-468.797C238.35,-430.464 547.636,-313.857 636.74,-280.263"/>
<polygon fill="#9a32cd" stroke="#9a32cd" points="135.347,-465.558 127.224,-472.361 137.816,-472.108 135.347,-465.558"/>
<text text-anchor="middle" x="284" y="-437.117" font-family="Helvetica,sans-Serif" font-size="10.00"> DomainSeparatorChars</text>
</g>
<!-- Node8&#45;&gt;Node7 -->
<g id="edge16" class="edge"><title>Node8&#45;&gt;Node7</title>
<path fill="none" stroke="midnightblue" d="M110.728,-462.022C127.645,-414.005 171.502,-289.524 184.081,-253.82"/>
<polygon fill="midnightblue" stroke="midnightblue" points="107.399,-460.938 107.377,-471.532 114.001,-463.264 107.399,-460.938"/>
</g>
<!-- Node8&#45;&gt;Node20 -->
<g id="edge18" class="edge"><title>Node8&#45;&gt;Node20</title>
<path fill="none" stroke="#9a32cd" stroke-dasharray="5,2" d="M137.092,-481.117C152.427,-481.117 170.892,-481.117 187.5,-481.117 187.5,-481.117 187.5,-481.117 663,-481.117 747.993,-481.117 848.467,-481.117 896.756,-481.117"/>
<polygon fill="#9a32cd" stroke="#9a32cd" points="137.037,-477.617 127.037,-481.117 137.037,-484.617 137.037,-477.617"/>
<text text-anchor="middle" x="403" y="-495.117" font-family="Helvetica,sans-Serif" font-size="10.00"> MethodName</text>
<text text-anchor="middle" x="403" y="-484.117" font-family="Helvetica,sans-Serif" font-size="10.00">SourceFileName</text>
</g>
<!-- Node20&#45;&gt;Node1 -->
<g id="edge34" class="edge"><title>Node20&#45;&gt;Node1</title>
<path fill="none" stroke="#9a32cd" stroke-dasharray="5,2" d="M966.063,-490.947C1034.41,-505.908 1177.88,-525.916 1266,-457.117 1294.79,-434.639 1298.79,-386.513 1299.12,-365.859"/>
<polygon fill="#9a32cd" stroke="#9a32cd" points="966.676,-487.497 956.149,-488.695 965.126,-494.323 966.676,-487.497"/>
<text text-anchor="middle" x="1152" y="-508.117" font-family="Helvetica,sans-Serif" font-size="10.00"> callerInfo</text>
</g>
<!-- Node9 -->
<g id="node17" class="node"><title>Node9</title>
<g id="a_node17"><a xlink:href="classaworx_1_1lib_1_1strings_1_1String.html" target="_top" xlink:title="String">
<polygon fill="white" stroke="black" points="0,-531.617 0,-550.617 42,-550.617 42,-531.617 0,-531.617"/>
<text text-anchor="middle" x="21" y="-538.617" font-family="Helvetica,sans-Serif" font-size="10.00">String</text>
</a>
</g>
</g>
<!-- Node9&#45;&gt;Node8 -->
<g id="edge19" class="edge"><title>Node9&#45;&gt;Node8</title>
<path fill="none" stroke="midnightblue" d="M42.8881,-525.451C57.5576,-514.448 76.7103,-500.084 89.1785,-490.733"/>
<polygon fill="midnightblue" stroke="midnightblue" points="40.7534,-522.677 34.8534,-531.477 44.9534,-528.277 40.7534,-522.677"/>
</g>
<!-- Node9&#45;&gt;Node20 -->
<g id="edge20" class="edge"><title>Node9&#45;&gt;Node20</title>
<path fill="none" stroke="#9a32cd" stroke-dasharray="5,2" d="M48.1794,-555.256C63.4308,-562.21 83.2901,-569.117 102,-569.117 102,-569.117 102,-569.117 285,-569.117 523.515,-569.117 807.381,-508.482 896.965,-487.876"/>
<polygon fill="#9a32cd" stroke="#9a32cd" points="49.4064,-551.962 38.8808,-550.753 46.3551,-558.262 49.4064,-551.962"/>
<text text-anchor="middle" x="284" y="-572.117" font-family="Helvetica,sans-Serif" font-size="10.00"> threadName</text>
</g>
<!-- Node11 -->
<g id="node18" class="node"><title>Node11</title>
<g id="a_node18"><a xlink:title="STL class. ">
<polygon fill="white" stroke="#bfbfbf" points="381,-5.6167 381,-24.6167 425,-24.6167 425,-5.6167 381,-5.6167"/>
<text text-anchor="middle" x="403" y="-12.6167" font-family="Helvetica,sans-Serif" font-size="10.00">thread</text>
</a>
</g>
</g>
<!-- Node11&#45;&gt;Node4 -->
<g id="edge22" class="edge"><title>Node11&#45;&gt;Node4</title>
<path fill="none" stroke="#9a32cd" stroke-dasharray="5,2" d="M435.266,-17.249C472.443,-19.9099 536.342,-24.8793 591,-31.1167 606.856,-32.9262 624.659,-35.4766 638.344,-37.5489"/>
<polygon fill="#9a32cd" stroke="#9a32cd" points="435.293,-13.7423 425.072,-16.5295 434.8,-20.725 435.293,-13.7423"/>
<text text-anchor="middle" x="530" y="-34.1167" font-family="Helvetica,sans-Serif" font-size="10.00"> c11Thread</text>
</g>
<!-- Node14 -->
<g id="node19" class="node"><title>Node14</title>
<g id="a_node19"><a xlink:href="classaworx_1_1lib_1_1time_1_1Ticks.html" target="_top" xlink:title="Ticks">
<polygon fill="white" stroke="black" points="641.5,-328.617 641.5,-347.617 682.5,-347.617 682.5,-328.617 641.5,-328.617"/>
<text text-anchor="middle" x="662" y="-335.617" font-family="Helvetica,sans-Serif" font-size="10.00">Ticks</text>
</a>
</g>
</g>
<!-- Node14&#45;&gt;Node13 -->
<g id="edge25" class="edge"><title>Node14&#45;&gt;Node13</title>
<path fill="none" stroke="#9a32cd" stroke-dasharray="5,2" d="M692.373,-328.981C699.926,-326.203 707.916,-322.876 715,-319.117 723.717,-314.491 723.762,-309.587 733,-306.117 791.445,-284.161 866.581,-284.607 903.302,-286.493"/>
<polygon fill="#9a32cd" stroke="#9a32cd" points="691.105,-325.716 682.808,-332.305 693.403,-332.328 691.105,-325.716"/>
<text text-anchor="middle" x="794" y="-320.117" font-family="Helvetica,sans-Serif" font-size="10.00"> TimeOfLastLog</text>
<text text-anchor="middle" x="794" y="-309.117" font-family="Helvetica,sans-Serif" font-size="10.00">TimeOfCreation</text>
</g>
<!-- Node14&#45;&gt;Node20 -->
<g id="edge27" class="edge"><title>Node14&#45;&gt;Node20</title>
<path fill="none" stroke="#9a32cd" stroke-dasharray="5,2" d="M692.682,-337.868C732.785,-338.908 804.998,-345.768 855,-379.117 890.459,-402.766 913.241,-450.85 921.744,-471.424"/>
<polygon fill="#9a32cd" stroke="#9a32cd" points="692.556,-334.366 682.504,-337.713 692.449,-341.365 692.556,-334.366"/>
<text text-anchor="middle" x="794" y="-382.117" font-family="Helvetica,sans-Serif" font-size="10.00"> TimeStamp</text>
</g>
<!-- Node14&#45;&gt;Node14 -->
<g id="edge26" class="edge"><title>Node14&#45;&gt;Node14</title>
<path fill="none" stroke="#9a32cd" stroke-dasharray="5,2" d="M637.447,-357.146C638.786,-362.245 646.97,-366.117 662,-366.117 685.461,-366.117 692.243,-356.682 682.345,-347.874"/>
<polygon fill="#9a32cd" stroke="#9a32cd" points="640.709,-358.426 641.655,-347.874 634.335,-355.533 640.709,-358.426"/>
<text text-anchor="middle" x="662" y="-369.117" font-family="Helvetica,sans-Serif" font-size="10.00"> creationTime</text>
</g>
</g>
</svg>
