<?xml version="1.0" encoding="UTF-8" standalone="no"?>
<!DOCTYPE svg PUBLIC "-//W3C//DTD SVG 1.1//EN"
 "http://www.w3.org/Graphics/SVG/1.1/DTD/svg11.dtd">
<!-- Generated by graphviz version 2.40.1 (20161225.0304)
 -->
<!-- Title: IFormat_TTicks Pages: 1 -->
<svg width="217pt" height="152pt"
 viewBox="0.00 0.00 216.50 152.00" xmlns="http://www.w3.org/2000/svg" xmlns:xlink="http://www.w3.org/1999/xlink">
<g id="graph0" class="graph" transform="scale(1 1) rotate(0) translate(4 148)">
<title>IFormat_TTicks</title>
<polygon fill="#ffffff" stroke="transparent" points="-4,4 -4,-148 212.5,-148 212.5,4 -4,4"/>
<!-- Node4 -->
<g id="node1" class="node">
<title>Node4</title>
<polygon fill="#bfbfbf" stroke="#000000" points="81,-.5 81,-19.5 167,-19.5 167,-.5 81,-.5"/>
<text text-anchor="middle" x="124" y="-7.5" font-family="Helvetica,sans-Serif" font-size="10.00" fill="#000000">IFormat_TTicks</text>
</g>
<!-- Node7 -->
<g id="node2" class="node">
<title>Node7</title>
<g id="a_node2"><a xlink:href="classaworx_1_1lib_1_1lang_1_1Singleton.html" target="_top" xlink:title="Singleton\&lt;IFormat_TTicks\&gt;">
<polygon fill="#ffffff" stroke="#000000" points="0,-57.5 0,-76.5 138,-76.5 138,-57.5 0,-57.5"/>
<text text-anchor="middle" x="69" y="-64.5" font-family="Helvetica,sans-Serif" font-size="10.00" fill="#000000">Singleton&lt;IFormat_TTicks&gt;</text>
</a>
</g>
</g>
<!-- Node7&#45;&gt;Node4 -->
<g id="edge3" class="edge">
<title>Node7&#45;&gt;Node4</title>
<path fill="none" stroke="#191970" d="M85.4575,-49.944C95.0623,-39.99 106.8221,-27.8026 114.8078,-19.5265"/>
<polygon fill="#191970" stroke="#191970" points="82.755,-47.7042 78.33,-57.3307 87.7924,-52.5648 82.755,-47.7042"/>
</g>
<!-- Node5 -->
<g id="node3" class="node">
<title>Node5</title>
<g id="a_node3"><a xlink:href="classaworx_1_1lib_1_1strings_1_1boxing_1_1IFormat.html" target="_top" xlink:title="IFormat">
<polygon fill="#ffffff" stroke="#000000" points="156,-57.5 156,-76.5 206,-76.5 206,-57.5 156,-57.5"/>
<text text-anchor="middle" x="181" y="-64.5" font-family="Helvetica,sans-Serif" font-size="10.00" fill="#000000">IFormat</text>
</a>
</g>
</g>
<!-- Node5&#45;&gt;Node4 -->
<g id="edge1" class="edge">
<title>Node5&#45;&gt;Node4</title>
<path fill="none" stroke="#191970" d="M164.239,-50.239C154.2317,-40.2317 141.8845,-27.8845 133.5265,-19.5265"/>
<polygon fill="#191970" stroke="#191970" points="161.7847,-52.7345 171.3307,-57.3307 166.7345,-47.7847 161.7847,-52.7345"/>
</g>
<!-- Node6 -->
<g id="node4" class="node">
<title>Node6</title>
<g id="a_node4"><a xlink:href="classaworx_1_1lib_1_1boxing_1_1Interface.html" target="_top" xlink:title="Interface">
<polygon fill="#ffffff" stroke="#000000" points="153.5,-124.5 153.5,-143.5 208.5,-143.5 208.5,-124.5 153.5,-124.5"/>
<text text-anchor="middle" x="181" y="-131.5" font-family="Helvetica,sans-Serif" font-size="10.00" fill="#000000">Interface</text>
</a>
</g>
</g>
<!-- Node6&#45;&gt;Node5 -->
<g id="edge2" class="edge">
<title>Node6&#45;&gt;Node5</title>
<path fill="none" stroke="#191970" d="M181,-114.1079C181,-101.714 181,-86.3263 181,-76.5817"/>
<polygon fill="#191970" stroke="#191970" points="177.5001,-114.4005 181,-124.4005 184.5001,-114.4006 177.5001,-114.4005"/>
</g>
<!-- Node8 -->
<g id="node5" class="node">
<title>Node8</title>
<polygon fill="#ffffff" stroke="#bfbfbf" points="29,-124.5 29,-143.5 109,-143.5 109,-124.5 29,-124.5"/>
<text text-anchor="middle" x="69" y="-131.5" font-family="Helvetica,sans-Serif" font-size="10.00" fill="#000000">TDerivedClass</text>
</g>
<!-- Node8&#45;&gt;Node7 -->
<g id="edge4" class="edge">
<title>Node8&#45;&gt;Node7</title>
<path fill="none" stroke="#9a32cd" stroke-dasharray="5,2" d="M69,-114.1079C69,-101.714 69,-86.3263 69,-76.5817"/>
<polygon fill="#9a32cd" stroke="#9a32cd" points="65.5001,-114.4005 69,-124.4005 72.5001,-114.4006 65.5001,-114.4005"/>
<text text-anchor="middle" x="90.5" y="-98" font-family="Helvetica,sans-Serif" font-size="10.00" fill="#000000"> singleton</text>
</g>
</g>
</svg>
