<?xml version="1.0" encoding="UTF-8" standalone="no"?>
<!DOCTYPE svg PUBLIC "-//W3C//DTD SVG 1.1//EN"
 "http://www.w3.org/Graphics/SVG/1.1/DTD/svg11.dtd">
<!-- Generated by graphviz version 2.38.0 (20140413.2041)
 -->
<!-- Title: Domain Pages: 1 -->
<svg width="1189pt" height="152pt"
 viewBox="0.00 0.00 1189.00 152.00" xmlns="http://www.w3.org/2000/svg" xmlns:xlink="http://www.w3.org/1999/xlink">
<g id="graph0" class="graph" transform="scale(1 1) rotate(0) translate(4 148)">
<title>Domain</title>
<polygon fill="white" stroke="none" points="-4,4 -4,-148 1185,-148 1185,4 -4,4"/>
<!-- Node1 -->
<g id="node1" class="node"><title>Node1</title>
<polygon fill="#bfbfbf" stroke="black" points="939,-60.5 939,-79.5 989,-79.5 989,-60.5 939,-60.5"/>
<text text-anchor="middle" x="964" y="-67.5" font-family="Helvetica,sans-Serif" font-size="10.00">Domain</text>
</g>
<!-- Node1&#45;&gt;Node1 -->
<g id="edge1" class="edge"><title>Node1&#45;&gt;Node1</title>
<path fill="none" stroke="#9a32cd" stroke-dasharray="5,2" d="M950.741,-89.7663C951.782,-94.4965 956.202,-98 964,-98 976.797,-98 980.496,-88.5653 975.097,-79.7571"/>
<polygon fill="#9a32cd" stroke="#9a32cd" points="954.212,-90.2706 952.903,-79.7571 947.37,-88.7927 954.212,-90.2706"/>
<text text-anchor="middle" x="964" y="-101" font-family="Helvetica,sans-Serif" font-size="10.00"> Parent</text>
</g>
<!-- Node10 -->
<g id="node4" class="node"><title>Node10</title>
<polygon fill="white" stroke="#bfbfbf" points="1085,-60.5 1085,-79.5 1181,-79.5 1181,-60.5 1085,-60.5"/>
<text text-anchor="middle" x="1133" y="-67.5" font-family="Helvetica,sans-Serif" font-size="10.00">vector&lt;Domain *&gt;</text>
</g>
<!-- Node1&#45;&gt;Node10 -->
<g id="edge2" class="edge"><title>Node1&#45;&gt;Node10</title>
<path fill="none" stroke="#9a32cd" stroke-dasharray="5,2" d="M999.284,-70C1024,-70 1057.66,-70 1084.9,-70"/>
<polygon fill="#9a32cd" stroke="#9a32cd" points="999.283,-66.5001 989.283,-70 999.283,-73.5001 999.283,-66.5001"/>
<text text-anchor="middle" x="1037" y="-73" font-family="Helvetica,sans-Serif" font-size="10.00"> elements</text>
</g>
<!-- Node5 -->
<g id="node2" class="node"><title>Node5</title>
<polygon fill="white" stroke="#bfbfbf" points="681,-38.5 681,-57.5 827,-57.5 827,-38.5 681,-38.5"/>
<text text-anchor="middle" x="754" y="-45.5" font-family="Helvetica,sans-Serif" font-size="10.00">vector&lt;Domain::LoggerData&gt;</text>
</g>
<!-- Node5&#45;&gt;Node1 -->
<g id="edge8" class="edge"><title>Node5&#45;&gt;Node1</title>
<path fill="none" stroke="#9a32cd" stroke-dasharray="5,2" d="M837.243,-52.2692C864.034,-54.2387 893.859,-57.0472 921,-61 926.756,-61.8383 932.903,-63.0013 938.669,-64.2132"/>
<polygon fill="#9a32cd" stroke="#9a32cd" points="837.358,-48.7687 827.136,-51.5549 836.864,-55.7513 837.358,-48.7687"/>
<text text-anchor="middle" x="887" y="-64" font-family="Helvetica,sans-Serif" font-size="10.00"> Data</text>
</g>
<!-- Node9 -->
<g id="node3" class="node"><title>Node9</title>
<polygon fill="white" stroke="#bfbfbf" points="673,-0.5 673,-19.5 835,-19.5 835,-0.5 673,-0.5"/>
<text text-anchor="middle" x="754" y="-7.5" font-family="Helvetica,sans-Serif" font-size="10.00">vector&lt;pair&lt;Logable, Inclusion&gt;&gt;</text>
</g>
<!-- Node9&#45;&gt;Node1 -->
<g id="edge11" class="edge"><title>Node9&#45;&gt;Node1</title>
<path fill="none" stroke="#9a32cd" stroke-dasharray="5,2" d="M845.29,-17.1538C870.512,-21.2876 897.446,-27.7881 921,-38 933.279,-43.3237 945.213,-52.9833 953.202,-60.3015"/>
<polygon fill="#9a32cd" stroke="#9a32cd" points="845.764,-13.6855 835.349,-15.6295 844.703,-20.6047 845.764,-13.6855"/>
<text text-anchor="middle" x="887" y="-41" font-family="Helvetica,sans-Serif" font-size="10.00"> PrefixLogables</text>
</g>
<!-- Node10&#45;&gt;Node1 -->
<g id="edge12" class="edge"><title>Node10&#45;&gt;Node1</title>
<path fill="none" stroke="#9a32cd" stroke-dasharray="5,2" d="M1086.92,-58.214C1080.28,-56.8822 1073.49,-55.7396 1067,-55 1040.5,-51.9825 1033.28,-50.4487 1007,-55 1000.44,-56.1365 993.546,-58.2022 987.285,-60.4445"/>
<polygon fill="#9a32cd" stroke="#9a32cd" points="1086.66,-61.7369 1097.17,-60.4321 1088.14,-54.8954 1086.66,-61.7369"/>
<text text-anchor="middle" x="1037" y="-58" font-family="Helvetica,sans-Serif" font-size="10.00"> SubDomains</text>
</g>
<!-- Node2 -->
<g id="node5" class="node"><title>Node2</title>
<g id="a_node5"><a xlink:href="classaworx_1_1lib_1_1strings_1_1PreallocatedString.html" target="_top" xlink:title="PreallocatedString\&lt;TCapacity\&gt;">
<polygon fill="white" stroke="black" points="171,-76.5 171,-95.5 324,-95.5 324,-76.5 171,-76.5"/>
<text text-anchor="middle" x="247.5" y="-83.5" font-family="Helvetica,sans-Serif" font-size="10.00">PreallocatedString&lt;TCapacity&gt;</text>
</a>
</g>
</g>
<!-- Node2&#45;&gt;Node1 -->
<g id="edge3" class="edge"><title>Node2&#45;&gt;Node1</title>
<path fill="none" stroke="#9a32cd" stroke-dasharray="5,2" d="M280.475,-99.2524C316.959,-113.152 378.731,-133 434,-133 434,-133 434,-133 755,-133 830.221,-133 851.96,-129.863 921,-100 932.679,-94.9485 944.324,-86.2707 952.379,-79.5437"/>
<polygon fill="#9a32cd" stroke="#9a32cd" points="281.47,-95.8838 270.882,-95.5112 278.927,-102.405 281.47,-95.8838"/>
<text text-anchor="middle" x="560.5" y="-136" font-family="Helvetica,sans-Serif" font-size="10.00"> FullPath</text>
</g>
<!-- Node2&#45;&gt;Node1 -->
<g id="edge4" class="edge"><title>Node2&#45;&gt;Node1</title>
<path fill="none" stroke="#9a32cd" stroke-dasharray="5,2" d="M334.331,-86C365.694,-86 401.453,-86 434,-86 434,-86 434,-86 755,-86 821.641,-86 899.939,-77.7344 938.71,-73.085"/>
<polygon fill="#9a32cd" stroke="#9a32cd" points="334.312,-82.5001 324.312,-86 334.312,-89.5001 334.312,-82.5001"/>
<text text-anchor="middle" x="560.5" y="-89" font-family="Helvetica,sans-Serif" font-size="10.00"> Name</text>
</g>
<!-- Node7 -->
<g id="node6" class="node"><title>Node7</title>
<g id="a_node6"><a xlink:href="classaworx_1_1lox_1_1core_1_1Logger.html" target="_top" xlink:title="Logger">
<polygon fill="white" stroke="red" points="412,-36.5 412,-55.5 458,-55.5 458,-36.5 412,-36.5"/>
<text text-anchor="middle" x="435" y="-43.5" font-family="Helvetica,sans-Serif" font-size="10.00">Logger</text>
</a>
</g>
</g>
<!-- Node2&#45;&gt;Node7 -->
<g id="edge5" class="edge"><title>Node2&#45;&gt;Node7</title>
<path fill="none" stroke="#9a32cd" stroke-dasharray="5,2" d="M277.393,-72.0726C295.504,-64.0564 319.586,-54.6717 342,-50 365.476,-45.1067 393.027,-44.5745 411.818,-44.9726"/>
<polygon fill="#9a32cd" stroke="#9a32cd" points="275.649,-69.0209 267.995,-76.3466 278.547,-75.3929 275.649,-69.0209"/>
<text text-anchor="middle" x="368" y="-64" font-family="Helvetica,sans-Serif" font-size="10.00"> TypeName</text>
<text text-anchor="middle" x="368" y="-53" font-family="Helvetica,sans-Serif" font-size="10.00">Name</text>
</g>
<!-- Node6 -->
<g id="node9" class="node"><title>Node6</title>
<g id="a_node9"><a xlink:href="structaworx_1_1lox_1_1core_1_1Domain_1_1LoggerData.html" target="_top" xlink:title="LoggerData">
<polygon fill="white" stroke="black" points="527,-30.5 527,-49.5 594,-49.5 594,-30.5 527,-30.5"/>
<text text-anchor="middle" x="560.5" y="-37.5" font-family="Helvetica,sans-Serif" font-size="10.00">LoggerData</text>
</a>
</g>
</g>
<!-- Node7&#45;&gt;Node6 -->
<g id="edge10" class="edge"><title>Node7&#45;&gt;Node6</title>
<path fill="none" stroke="#9a32cd" stroke-dasharray="5,2" d="M468.15,-44.438C486.24,-43.5592 508.768,-42.4647 526.926,-41.5826"/>
<polygon fill="#9a32cd" stroke="#9a32cd" points="467.898,-40.9461 458.079,-44.9273 468.237,-47.9378 467.898,-40.9461"/>
<text text-anchor="middle" x="492.5" y="-47" font-family="Helvetica,sans-Serif" font-size="10.00"> Logger</text>
</g>
<!-- Node3 -->
<g id="node7" class="node"><title>Node3</title>
<g id="a_node7"><a xlink:href="classaworx_1_1lib_1_1strings_1_1AString.html" target="_top" xlink:title="AString">
<polygon fill="white" stroke="black" points="85,-76.5 85,-95.5 134,-95.5 134,-76.5 85,-76.5"/>
<text text-anchor="middle" x="109.5" y="-83.5" font-family="Helvetica,sans-Serif" font-size="10.00">AString</text>
</a>
</g>
</g>
<!-- Node3&#45;&gt;Node2 -->
<g id="edge6" class="edge"><title>Node3&#45;&gt;Node2</title>
<path fill="none" stroke="midnightblue" d="M144.347,-86C152.506,-86 161.551,-86 170.789,-86"/>
<polygon fill="midnightblue" stroke="midnightblue" points="144.189,-82.5001 134.189,-86 144.189,-89.5001 144.189,-82.5001"/>
</g>
<!-- Node4 -->
<g id="node8" class="node"><title>Node4</title>
<g id="a_node8"><a xlink:href="classaworx_1_1lib_1_1strings_1_1TString.html" target="_top" xlink:title="TString">
<polygon fill="white" stroke="red" points="0,-76.5 0,-95.5 48,-95.5 48,-76.5 0,-76.5"/>
<text text-anchor="middle" x="24" y="-83.5" font-family="Helvetica,sans-Serif" font-size="10.00">TString</text>
</a>
</g>
</g>
<!-- Node4&#45;&gt;Node3 -->
<g id="edge7" class="edge"><title>Node4&#45;&gt;Node3</title>
<path fill="none" stroke="midnightblue" d="M58.3132,-86C67.1705,-86 76.5564,-86 84.7851,-86"/>
<polygon fill="midnightblue" stroke="midnightblue" points="58.2594,-82.5001 48.2594,-86 58.2594,-89.5001 58.2594,-82.5001"/>
</g>
<!-- Node6&#45;&gt;Node5 -->
<g id="edge9" class="edge"><title>Node6&#45;&gt;Node5</title>
<path fill="none" stroke="#9a32cd" stroke-dasharray="5,2" d="M604.643,-41.8023C627.114,-42.7411 655.192,-43.914 680.856,-44.9861"/>
<polygon fill="#9a32cd" stroke="#9a32cd" points="604.557,-38.2958 594.42,-41.3752 604.265,-45.2897 604.557,-38.2958"/>
<text text-anchor="middle" x="633.5" y="-47" font-family="Helvetica,sans-Serif" font-size="10.00"> elements</text>
</g>
</g>
</svg>
