<?xml version="1.0" encoding="UTF-8" standalone="no"?>
<!DOCTYPE svg PUBLIC "-//W3C//DTD SVG 1.1//EN"
 "http://www.w3.org/Graphics/SVG/1.1/DTD/svg11.dtd">
<!-- Generated by graphviz version 2.40.1 (20161225.0304)
 -->
<!-- Title: ScopeInfo Pages: 1 -->
<svg width="1037pt" height="427pt"
 viewBox="0.00 0.00 1037.00 427.00" xmlns="http://www.w3.org/2000/svg" xmlns:xlink="http://www.w3.org/1999/xlink">
<g id="graph0" class="graph" transform="scale(1 1) rotate(0) translate(4 423)">
<title>ScopeInfo</title>
<polygon fill="#ffffff" stroke="transparent" points="-4,4 -4,-423 1033,-423 1033,4 -4,4"/>
<!-- Node1 -->
<g id="node1" class="node">
<title>Node1</title>
<polygon fill="#bfbfbf" stroke="#000000" points="968,-203.5 968,-222.5 1029,-222.5 1029,-203.5 968,-203.5"/>
<text text-anchor="middle" x="998.5" y="-210.5" font-family="Helvetica,sans-Serif" font-size="10.00" fill="#000000">ScopeInfo</text>
</g>
<!-- Node2 -->
<g id="node2" class="node">
<title>Node2</title>
<g id="a_node2"><a xlink:title="STL class. ">
<polygon fill="#ffffff" stroke="#bfbfbf" points="727,-361.5 727,-380.5 793,-380.5 793,-361.5 727,-361.5"/>
<text text-anchor="middle" x="760" y="-368.5" font-family="Helvetica,sans-Serif" font-size="10.00" fill="#000000">map&lt;K, T&gt;</text>
</a>
</g>
</g>
<!-- Node2&#45;&gt;Node1 -->
<g id="edge1" class="edge">
<title>Node2&#45;&gt;Node1</title>
<path fill="none" stroke="#9a32cd" stroke-dasharray="5,2" d="M803.3703,-377.206C845.4146,-380.7259 908.7267,-379.1021 950,-346 970.1316,-329.854 989.8711,-250.7001 996.3149,-222.7756"/>
<polygon fill="#9a32cd" stroke="#9a32cd" points="803.4568,-373.698 793.1656,-376.2163 802.781,-380.6654 803.4568,-373.698"/>
<text text-anchor="middle" x="913" y="-377" font-family="Helvetica,sans-Serif" font-size="10.00" fill="#000000"> threadDictionary</text>
</g>
<!-- Node8 -->
<g id="node3" class="node">
<title>Node8</title>
<polygon fill="#ffffff" stroke="#bfbfbf" points="693,-199.5 693,-218.5 827,-218.5 827,-199.5 693,-199.5"/>
<text text-anchor="middle" x="760" y="-206.5" font-family="Helvetica,sans-Serif" font-size="10.00" fill="#000000">vector&lt;ScopeInfo::Scope&gt;</text>
</g>
<!-- Node8&#45;&gt;Node1 -->
<g id="edge12" class="edge">
<title>Node8&#45;&gt;Node1</title>
<path fill="none" stroke="#9a32cd" stroke-dasharray="5,2" d="M837.2663,-210.2959C881.6503,-211.0403 934.929,-211.9338 967.7505,-212.4843"/>
<polygon fill="#9a32cd" stroke="#9a32cd" points="837.1276,-206.7931 827.0702,-210.1249 837.0101,-213.7922 837.1276,-206.7931"/>
<text text-anchor="middle" x="913" y="-215" font-family="Helvetica,sans-Serif" font-size="10.00" fill="#000000"> scopes</text>
</g>
<!-- Node11 -->
<g id="node4" class="node">
<title>Node11</title>
<polygon fill="#ffffff" stroke="#bfbfbf" points="662,-158.5 662,-177.5 858,-177.5 858,-158.5 662,-158.5"/>
<text text-anchor="middle" x="760" y="-165.5" font-family="Helvetica,sans-Serif" font-size="10.00" fill="#000000">vector&lt;ScopeInfo::SourcePathTrimRule&gt;</text>
</g>
<!-- Node11&#45;&gt;Node1 -->
<g id="edge15" class="edge">
<title>Node11&#45;&gt;Node1</title>
<path fill="none" stroke="#9a32cd" stroke-dasharray="5,2" d="M868.5419,-169.5723C895.6056,-172.169 924.2414,-176.8508 950,-185 962.9777,-189.1057 976.266,-197.0948 985.644,-203.492"/>
<polygon fill="#9a32cd" stroke="#9a32cd" points="868.5218,-166.0573 858.2558,-168.6763 867.9143,-173.0309 868.5218,-166.0573"/>
<text text-anchor="middle" x="913" y="-199" font-family="Helvetica,sans-Serif" font-size="10.00" fill="#000000"> GlobalSPTRs</text>
<text text-anchor="middle" x="913" y="-188" font-family="Helvetica,sans-Serif" font-size="10.00" fill="#000000">LocalSPTRs</text>
</g>
<!-- Node14 -->
<g id="node5" class="node">
<title>Node14</title>
<g id="a_node5"><a xlink:href="classaworx_1_1lib_1_1strings_1_1PreallocatedString.html" target="_top" xlink:title="PreallocatedString\&lt;TCapacity\&gt;">
<polygon fill="#ffffff" stroke="#000000" points="411,-93.5 411,-112.5 563,-112.5 563,-93.5 411,-93.5"/>
<text text-anchor="middle" x="487" y="-100.5" font-family="Helvetica,sans-Serif" font-size="10.00" fill="#000000">PreallocatedString&lt;TCapacity&gt;</text>
</a>
</g>
</g>
<!-- Node14&#45;&gt;Node1 -->
<g id="edge19" class="edge">
<title>Node14&#45;&gt;Node1</title>
<path fill="none" stroke="#9a32cd" stroke-dasharray="5,2" d="M573.5477,-109.1398C665.733,-116.0407 805.4623,-127.6369 858,-138 899.9327,-146.2713 913.1786,-144.2986 950,-166 966.7682,-175.8827 982.183,-192.7109 990.949,-203.3218"/>
<polygon fill="#9a32cd" stroke="#9a32cd" points="573.6201,-105.6356 563.3879,-108.3838 573.1006,-112.6163 573.6201,-105.6356"/>
<text text-anchor="middle" x="760" y="-141" font-family="Helvetica,sans-Serif" font-size="10.00" fill="#000000"> loxName</text>
</g>
<!-- Node15 -->
<g id="node15" class="node">
<title>Node15</title>
<g id="a_node15"><a xlink:href="classaworx_1_1lib_1_1threads_1_1Thread.html" target="_top" xlink:title="Thread">
<polygon fill="#ffffff" stroke="#000000" points="736.5,-59.5 736.5,-78.5 783.5,-78.5 783.5,-59.5 736.5,-59.5"/>
<text text-anchor="middle" x="760" y="-66.5" font-family="Helvetica,sans-Serif" font-size="10.00" fill="#000000">Thread</text>
</a>
</g>
</g>
<!-- Node14&#45;&gt;Node15 -->
<g id="edge20" class="edge">
<title>Node14&#45;&gt;Node15</title>
<path fill="none" stroke="#9a32cd" stroke-dasharray="5,2" d="M573.1324,-92.2729C630.0035,-85.19 700.442,-76.4175 736.425,-71.9361"/>
<polygon fill="#9a32cd" stroke="#9a32cd" points="572.5365,-88.82 563.0457,-93.5291 573.4016,-95.7663 572.5365,-88.82"/>
<text text-anchor="middle" x="612.5" y="-95" font-family="Helvetica,sans-Serif" font-size="10.00" fill="#000000"> name</text>
</g>
<!-- Node3 -->
<g id="node6" class="node">
<title>Node3</title>
<polygon fill="#ffffff" stroke="#bfbfbf" points="472.5,-361.5 472.5,-380.5 501.5,-380.5 501.5,-361.5 472.5,-361.5"/>
<text text-anchor="middle" x="487" y="-368.5" font-family="Helvetica,sans-Serif" font-size="10.00" fill="#000000">K</text>
</g>
<!-- Node3&#45;&gt;Node2 -->
<g id="edge2" class="edge">
<title>Node3&#45;&gt;Node2</title>
<path fill="none" stroke="#9a32cd" stroke-dasharray="5,2" d="M511.7482,-371C560.9653,-371 671.1575,-371 726.6785,-371"/>
<polygon fill="#9a32cd" stroke="#9a32cd" points="511.6777,-367.5001 501.6777,-371 511.6776,-374.5001 511.6777,-367.5001"/>
<text text-anchor="middle" x="612.5" y="-374" font-family="Helvetica,sans-Serif" font-size="10.00" fill="#000000"> keys</text>
</g>
<!-- Node4 -->
<g id="node7" class="node">
<title>Node4</title>
<polygon fill="#ffffff" stroke="#bfbfbf" points="472.5,-399.5 472.5,-418.5 501.5,-418.5 501.5,-399.5 472.5,-399.5"/>
<text text-anchor="middle" x="487" y="-406.5" font-family="Helvetica,sans-Serif" font-size="10.00" fill="#000000">T</text>
</g>
<!-- Node4&#45;&gt;Node2 -->
<g id="edge3" class="edge">
<title>Node4&#45;&gt;Node2</title>
<path fill="none" stroke="#9a32cd" stroke-dasharray="5,2" d="M511.7482,-405.5552C560.9653,-398.7045 671.1575,-383.3664 726.6785,-375.6382"/>
<polygon fill="#9a32cd" stroke="#9a32cd" points="511.0996,-402.1116 501.6777,-406.957 512.0647,-409.0448 511.0996,-402.1116"/>
<text text-anchor="middle" x="612.5" y="-398" font-family="Helvetica,sans-Serif" font-size="10.00" fill="#000000"> elements</text>
</g>
<!-- Node5 -->
<g id="node8" class="node">
<title>Node5</title>
<g id="a_node8"><a xlink:href="classaworx_1_1lib_1_1strings_1_1String.html" target="_top" xlink:title="String">
<polygon fill="#ffffff" stroke="#000000" points="0,-240.5 0,-259.5 42,-259.5 42,-240.5 0,-240.5"/>
<text text-anchor="middle" x="21" y="-247.5" font-family="Helvetica,sans-Serif" font-size="10.00" fill="#000000">String</text>
</a>
</g>
</g>
<!-- Node5&#45;&gt;Node1 -->
<g id="edge4" class="edge">
<title>Node5&#45;&gt;Node1</title>
<path fill="none" stroke="#9a32cd" stroke-dasharray="5,2" d="M31.7645,-268.2853C47.6904,-292.7248 80.0032,-333 120,-333 120,-333 120,-333 760,-333 857.8027,-333 956.4055,-251.4796 988.0486,-222.8201"/>
<polygon fill="#9a32cd" stroke="#9a32cd" points="34.5649,-266.1611 26.3089,-259.5212 28.6222,-269.8604 34.5649,-266.1611"/>
<text text-anchor="middle" x="353" y="-336" font-family="Helvetica,sans-Serif" font-size="10.00" fill="#000000"> threadName</text>
</g>
<!-- Node6 -->
<g id="node9" class="node">
<title>Node6</title>
<g id="a_node9"><a xlink:href="structaworx_1_1lox_1_1core_1_1ScopeInfo_1_1SourceFile.html" target="_top" xlink:title="SourceFile">
<polygon fill="#ffffff" stroke="#000000" points="232,-230.5 232,-249.5 295,-249.5 295,-230.5 232,-230.5"/>
<text text-anchor="middle" x="263.5" y="-237.5" font-family="Helvetica,sans-Serif" font-size="10.00" fill="#000000">SourceFile</text>
</a>
</g>
</g>
<!-- Node5&#45;&gt;Node6 -->
<g id="edge5" class="edge">
<title>Node5&#45;&gt;Node6</title>
<path fill="none" stroke="#9a32cd" stroke-dasharray="5,2" d="M52.1476,-248.7156C98.4572,-246.8059 185.0066,-243.2368 231.6942,-241.3116"/>
<polygon fill="#9a32cd" stroke="#9a32cd" points="51.9433,-245.2209 42.0961,-249.1301 52.2318,-252.215 51.9433,-245.2209"/>
<text text-anchor="middle" x="120" y="-294" font-family="Helvetica,sans-Serif" font-size="10.00" fill="#000000"> fullPath</text>
<text text-anchor="middle" x="120" y="-283" font-family="Helvetica,sans-Serif" font-size="10.00" fill="#000000">nameWOExt</text>
<text text-anchor="middle" x="120" y="-272" font-family="Helvetica,sans-Serif" font-size="10.00" fill="#000000">trimmedPathPrefix</text>
<text text-anchor="middle" x="120" y="-261" font-family="Helvetica,sans-Serif" font-size="10.00" fill="#000000">name</text>
<text text-anchor="middle" x="120" y="-250" font-family="Helvetica,sans-Serif" font-size="10.00" fill="#000000">trimmedPath</text>
</g>
<!-- Node7 -->
<g id="node10" class="node">
<title>Node7</title>
<g id="a_node10"><a xlink:href="classaworx_1_1lib_1_1strings_1_1TString.html" target="_top" xlink:title="TString">
<polygon fill="#ffffff" stroke="#000000" points="96,-188.5 96,-207.5 144,-207.5 144,-188.5 96,-188.5"/>
<text text-anchor="middle" x="120" y="-195.5" font-family="Helvetica,sans-Serif" font-size="10.00" fill="#000000">TString</text>
</a>
</g>
</g>
<!-- Node5&#45;&gt;Node7 -->
<g id="edge6" class="edge">
<title>Node5&#45;&gt;Node7</title>
<path fill="none" stroke="#191970" d="M48.0786,-235.7769C65.09,-226.8416 86.5809,-215.5535 101.6217,-207.6532"/>
<polygon fill="#191970" stroke="#191970" points="46.3836,-232.7137 39.1581,-240.4624 49.6387,-238.9108 46.3836,-232.7137"/>
</g>
<!-- Node6&#45;&gt;Node1 -->
<g id="edge7" class="edge">
<title>Node6&#45;&gt;Node1</title>
<path fill="none" stroke="#9a32cd" stroke-dasharray="5,2" d="M305.3478,-242.9882C413.0246,-249.862 708.1742,-263.5428 950,-227 956.5858,-226.0048 963.5358,-224.3666 970.0534,-222.5549"/>
<polygon fill="#9a32cd" stroke="#9a32cd" points="305.4306,-239.4863 295.2235,-242.3263 304.9738,-246.4713 305.4306,-239.4863"/>
<text text-anchor="middle" x="612.5" y="-265" font-family="Helvetica,sans-Serif" font-size="10.00" fill="#000000"> cache</text>
<text text-anchor="middle" x="612.5" y="-254" font-family="Helvetica,sans-Serif" font-size="10.00" fill="#000000">lastSourceFile</text>
</g>
<!-- Node9 -->
<g id="node11" class="node">
<title>Node9</title>
<g id="a_node11"><a xlink:href="structaworx_1_1lox_1_1core_1_1ScopeInfo_1_1Scope.html" target="_top" xlink:title="Scope">
<polygon fill="#ffffff" stroke="#000000" points="465,-185.5 465,-204.5 509,-204.5 509,-185.5 465,-185.5"/>
<text text-anchor="middle" x="487" y="-192.5" font-family="Helvetica,sans-Serif" font-size="10.00" fill="#000000">Scope</text>
</a>
</g>
</g>
<!-- Node6&#45;&gt;Node9 -->
<g id="edge8" class="edge">
<title>Node6&#45;&gt;Node9</title>
<path fill="none" stroke="#9a32cd" stroke-dasharray="5,2" d="M302.6465,-227.6533C306.133,-226.7007 309.6208,-225.8001 313,-225 366.9911,-212.2167 431.6168,-202.513 464.8494,-197.9244"/>
<polygon fill="#9a32cd" stroke="#9a32cd" points="301.5682,-224.3213 292.9153,-230.435 303.4922,-231.0517 301.5682,-224.3213"/>
<text text-anchor="middle" x="353" y="-228" font-family="Helvetica,sans-Serif" font-size="10.00" fill="#000000"> sourceFile</text>
</g>
<!-- Node7&#45;&gt;Node6 -->
<g id="edge9" class="edge">
<title>Node7&#45;&gt;Node6</title>
<path fill="none" stroke="#9a32cd" stroke-dasharray="5,2" d="M154.0698,-207.6571C171.9339,-212.7533 194.1686,-219.1475 214,-225 219.9426,-226.7537 226.2778,-228.6518 232.3622,-230.489"/>
<polygon fill="#9a32cd" stroke="#9a32cd" points="154.9499,-204.2687 144.3737,-204.896 153.0327,-211.001 154.9499,-204.2687"/>
<text text-anchor="middle" x="196.5" y="-228" font-family="Helvetica,sans-Serif" font-size="10.00" fill="#000000"> origFile</text>
</g>
<!-- Node7&#45;&gt;Node9 -->
<g id="edge10" class="edge">
<title>Node7&#45;&gt;Node9</title>
<path fill="none" stroke="#9a32cd" stroke-dasharray="5,2" d="M154.2962,-197.7196C228.624,-197.1121 402.843,-195.6879 464.715,-195.1822"/>
<polygon fill="#9a32cd" stroke="#9a32cd" points="154.0509,-194.2214 144.0799,-197.8032 154.1082,-201.2212 154.0509,-194.2214"/>
<text text-anchor="middle" x="263.5" y="-200" font-family="Helvetica,sans-Serif" font-size="10.00" fill="#000000"> origMethod</text>
</g>
<!-- Node13 -->
<g id="node12" class="node">
<title>Node13</title>
<g id="a_node12"><a xlink:href="classaworx_1_1lib_1_1strings_1_1AString.html" target="_top" xlink:title="AString">
<polygon fill="#ffffff" stroke="#000000" points="239,-97.5 239,-116.5 288,-116.5 288,-97.5 239,-97.5"/>
<text text-anchor="middle" x="263.5" y="-104.5" font-family="Helvetica,sans-Serif" font-size="10.00" fill="#000000">AString</text>
</a>
</g>
</g>
<!-- Node7&#45;&gt;Node13 -->
<g id="edge11" class="edge">
<title>Node7&#45;&gt;Node13</title>
<path fill="none" stroke="#191970" d="M143.3338,-182.7243C165.9042,-168.0138 201.1312,-145.2263 232,-126 236.9874,-122.8937 242.4583,-119.5662 247.4211,-116.5776"/>
<polygon fill="#191970" stroke="#191970" points="141.2308,-179.9173 134.77,-188.3142 145.0571,-185.779 141.2308,-179.9173"/>
</g>
<!-- Node9&#45;&gt;Node8 -->
<g id="edge13" class="edge">
<title>Node9&#45;&gt;Node8</title>
<path fill="none" stroke="#9a32cd" stroke-dasharray="5,2" d="M519.4027,-196.6617C561.9186,-198.842 637.5939,-202.7228 692.7495,-205.5513"/>
<polygon fill="#9a32cd" stroke="#9a32cd" points="519.5069,-193.1625 509.3407,-196.1457 519.1483,-200.1533 519.5069,-193.1625"/>
<text text-anchor="middle" x="612.5" y="-205" font-family="Helvetica,sans-Serif" font-size="10.00" fill="#000000"> elements</text>
</g>
<!-- Node13&#45;&gt;Node14 -->
<g id="edge18" class="edge">
<title>Node13&#45;&gt;Node14</title>
<path fill="none" stroke="#191970" d="M298.1203,-102.2655C303.1046,-101.7406 308.1773,-101.2912 313,-101 344.9647,-99.0698 380.2906,-99.081 410.7138,-99.7567"/>
<polygon fill="#191970" stroke="#191970" points="297.653,-98.7961 288.1214,-103.422 298.4574,-105.7497 297.653,-98.7961"/>
</g>
<!-- Node12 -->
<g id="node14" class="node">
<title>Node12</title>
<g id="a_node14"><a xlink:href="structaworx_1_1lox_1_1core_1_1ScopeInfo_1_1SourcePathTrimRule.html" target="_top" xlink:title="SourcePathTrimRule">
<polygon fill="#ffffff" stroke="#000000" points="433.5,-139.5 433.5,-158.5 540.5,-158.5 540.5,-139.5 433.5,-139.5"/>
<text text-anchor="middle" x="487" y="-146.5" font-family="Helvetica,sans-Serif" font-size="10.00" fill="#000000">SourcePathTrimRule</text>
</a>
</g>
</g>
<!-- Node13&#45;&gt;Node12 -->
<g id="edge17" class="edge">
<title>Node13&#45;&gt;Node12</title>
<path fill="none" stroke="#9a32cd" stroke-dasharray="5,2" d="M298.2461,-109.0352C324.4714,-110.986 361.2401,-114.6083 393,-121 415.8699,-125.6026 441.1827,-133.2979 459.774,-139.4577"/>
<polygon fill="#9a32cd" stroke="#9a32cd" points="298.2675,-105.5283 288.0474,-108.3212 297.7785,-112.5112 298.2675,-105.5283"/>
<text text-anchor="middle" x="353" y="-135" font-family="Helvetica,sans-Serif" font-size="10.00" fill="#000000"> TrimReplacement</text>
<text text-anchor="middle" x="353" y="-124" font-family="Helvetica,sans-Serif" font-size="10.00" fill="#000000">Path</text>
</g>
<!-- Node10 -->
<g id="node13" class="node">
<title>Node10</title>
<g id="a_node13"><a xlink:href="classaworx_1_1lib_1_1time_1_1Ticks.html" target="_top" xlink:title="Ticks">
<polygon fill="#ffffff" stroke="#000000" points="243,-135.5 243,-154.5 284,-154.5 284,-135.5 243,-135.5"/>
<text text-anchor="middle" x="263.5" y="-142.5" font-family="Helvetica,sans-Serif" font-size="10.00" fill="#000000">Ticks</text>
</a>
</g>
</g>
<!-- Node10&#45;&gt;Node9 -->
<g id="edge14" class="edge">
<title>Node10&#45;&gt;Node9</title>
<path fill="none" stroke="#9a32cd" stroke-dasharray="5,2" d="M294.4571,-148.7928C320.8409,-152.3171 359.6702,-158.1959 393,-166 417.943,-171.8404 445.9283,-180.7929 464.8271,-187.2054"/>
<polygon fill="#9a32cd" stroke="#9a32cd" points="294.6756,-145.2918 284.3074,-147.4713 293.7718,-152.2332 294.6756,-145.2918"/>
<text text-anchor="middle" x="353" y="-169" font-family="Helvetica,sans-Serif" font-size="10.00" fill="#000000"> timeStamp</text>
</g>
<!-- Node12&#45;&gt;Node11 -->
<g id="edge16" class="edge">
<title>Node12&#45;&gt;Node11</title>
<path fill="none" stroke="#9a32cd" stroke-dasharray="5,2" d="M550.5916,-153.4258C583.6315,-155.7253 624.7374,-158.5861 661.7587,-161.1627"/>
<polygon fill="#9a32cd" stroke="#9a32cd" points="550.8292,-149.9339 540.6103,-152.7311 550.3431,-156.9171 550.8292,-149.9339"/>
<text text-anchor="middle" x="612.5" y="-162" font-family="Helvetica,sans-Serif" font-size="10.00" fill="#000000"> elements</text>
</g>
<!-- Node15&#45;&gt;Node1 -->
<g id="edge21" class="edge">
<title>Node15&#45;&gt;Node1</title>
<path fill="none" stroke="#9a32cd" stroke-dasharray="5,2" d="M793.6192,-66.2906C834.8437,-64.7927 904.7936,-68.3938 950,-104 982.5426,-129.6318 993.8394,-181.7422 997.2246,-203.314"/>
<polygon fill="#9a32cd" stroke="#9a32cd" points="793.3603,-62.799 783.5418,-66.78 793.6998,-69.7907 793.3603,-62.799"/>
<text text-anchor="middle" x="913" y="-107" font-family="Helvetica,sans-Serif" font-size="10.00" fill="#000000"> thread</text>
</g>
<!-- Node16 -->
<g id="node16" class="node">
<title>Node16</title>
<g id="a_node16"><a xlink:href="classaworx_1_1lib_1_1threads_1_1Runnable.html" target="_top" xlink:title="Runnable">
<polygon fill="#ffffff" stroke="#000000" points="458.5,-47.5 458.5,-66.5 515.5,-66.5 515.5,-47.5 458.5,-47.5"/>
<text text-anchor="middle" x="487" y="-54.5" font-family="Helvetica,sans-Serif" font-size="10.00" fill="#000000">Runnable</text>
</a>
</g>
</g>
<!-- Node16&#45;&gt;Node15 -->
<g id="edge22" class="edge">
<title>Node16&#45;&gt;Node15</title>
<path fill="none" stroke="#191970" d="M525.852,-53.4553C542.7759,-52.0798 562.8529,-50.6748 581,-50 608.9807,-48.9596 616.0922,-47.7296 644,-50 676.1373,-52.6145 712.7919,-59.2392 736.146,-63.9281"/>
<polygon fill="#191970" stroke="#191970" points="525.4398,-49.9775 515.7673,-54.3011 526.0249,-56.953 525.4398,-49.9775"/>
</g>
<!-- Node16&#45;&gt;Node15 -->
<g id="edge23" class="edge">
<title>Node16&#45;&gt;Node15</title>
<path fill="none" stroke="#9a32cd" stroke-dasharray="5,2" d="M525.8448,-58.7075C583.3348,-61.2345 689.3361,-65.8939 736.4101,-67.9631"/>
<polygon fill="#9a32cd" stroke="#9a32cd" points="525.8439,-55.2041 515.6998,-58.2615 525.5364,-62.1974 525.8439,-55.2041"/>
<text text-anchor="middle" x="612.5" y="-67" font-family="Helvetica,sans-Serif" font-size="10.00" fill="#000000"> runnable</text>
</g>
<!-- Node18 -->
<g id="node17" class="node">
<title>Node18</title>
<g id="a_node17"><a xlink:title="STL class. ">
<polygon fill="#ffffff" stroke="#bfbfbf" points="465,-.5 465,-19.5 509,-19.5 509,-.5 465,-.5"/>
<text text-anchor="middle" x="487" y="-7.5" font-family="Helvetica,sans-Serif" font-size="10.00" fill="#000000">thread</text>
</a>
</g>
</g>
<!-- Node18&#45;&gt;Node15 -->
<g id="edge24" class="edge">
<title>Node18&#45;&gt;Node15</title>
<path fill="none" stroke="#9a32cd" stroke-dasharray="5,2" d="M519.1076,-13.5597C551.0153,-17.4127 601.2312,-24.3298 644,-34 676.418,-41.3298 713.0068,-52.9441 736.2694,-60.7621"/>
<polygon fill="#9a32cd" stroke="#9a32cd" points="519.3669,-10.0661 509.0258,-12.371 518.5472,-17.018 519.3669,-10.0661"/>
<text text-anchor="middle" x="612.5" y="-37" font-family="Helvetica,sans-Serif" font-size="10.00" fill="#000000"> c11Thread</text>
</g>
</g>
</svg>
