<?xml version="1.0" encoding="UTF-8" standalone="no"?>
<!DOCTYPE svg PUBLIC "-//W3C//DTD SVG 1.1//EN"
 "http://www.w3.org/Graphics/SVG/1.1/DTD/svg11.dtd">
<!-- Generated by graphviz version 2.40.1 (20161225.0304)
 -->
<!-- Title: IIsLess_double Pages: 1 -->
<svg width="213pt" height="140pt"
 viewBox="0.00 0.00 213.00 140.00" xmlns="http://www.w3.org/2000/svg" xmlns:xlink="http://www.w3.org/1999/xlink">
<g id="graph0" class="graph" transform="scale(1 1) rotate(0) translate(4 136)">
<title>IIsLess_double</title>
<polygon fill="#ffffff" stroke="transparent" points="-4,4 -4,-136 209,-136 209,4 -4,4"/>
<!-- Node0 -->
<g id="node1" class="node">
<title>Node0</title>
<polygon fill="#bfbfbf" stroke="#000000" points="81,-.5 81,-19.5 164,-19.5 164,-.5 81,-.5"/>
<text text-anchor="middle" x="122.5" y="-7.5" font-family="Helvetica,sans-Serif" font-size="10.00" fill="#000000">IIsLess_double</text>
</g>
<!-- Node3 -->
<g id="node2" class="node">
<title>Node3</title>
<g id="a_node2"><a xlink:href="classaworx_1_1lib_1_1lang_1_1Singleton.html" target="_top" xlink:title="Singleton\&lt;IIsLess_double\&gt;">
<polygon fill="#ffffff" stroke="#000000" points="0,-56.5 0,-75.5 135,-75.5 135,-56.5 0,-56.5"/>
<text text-anchor="middle" x="67.5" y="-63.5" font-family="Helvetica,sans-Serif" font-size="10.00" fill="#000000">Singleton&lt;IIsLess_double&gt;</text>
</a>
</g>
</g>
<!-- Node3&#45;&gt;Node0 -->
<g id="edge3" class="edge">
<title>Node3&#45;&gt;Node0</title>
<path fill="none" stroke="#191970" d="M84.1226,-49.0751C93.5855,-39.4402 105.0969,-27.7196 113.0295,-19.6427"/>
<polygon fill="#191970" stroke="#191970" points="81.5903,-46.6585 77.0803,-56.2455 86.5845,-51.5635 81.5903,-46.6585"/>
</g>
<!-- Node1 -->
<g id="node3" class="node">
<title>Node1</title>
<g id="a_node3"><a xlink:href="classaworx_1_1lib_1_1boxing_1_1IIsLess.html" target="_top" xlink:title="IIsLess">
<polygon fill="#ffffff" stroke="#000000" points="153,-56.5 153,-75.5 202,-75.5 202,-56.5 153,-56.5"/>
<text text-anchor="middle" x="177.5" y="-63.5" font-family="Helvetica,sans-Serif" font-size="10.00" fill="#000000">IIsLess</text>
</a>
</g>
</g>
<!-- Node1&#45;&gt;Node0 -->
<g id="edge1" class="edge">
<title>Node1&#45;&gt;Node0</title>
<path fill="none" stroke="#191970" d="M160.8774,-49.0751C151.4145,-39.4402 139.9031,-27.7196 131.9705,-19.6427"/>
<polygon fill="#191970" stroke="#191970" points="158.4155,-51.5635 167.9197,-56.2455 163.4097,-46.6585 158.4155,-51.5635"/>
</g>
<!-- Node2 -->
<g id="node4" class="node">
<title>Node2</title>
<g id="a_node4"><a xlink:href="classaworx_1_1lib_1_1boxing_1_1Interface.html" target="_top" xlink:title="Interface">
<polygon fill="#ffffff" stroke="#000000" points="150,-112.5 150,-131.5 205,-131.5 205,-112.5 150,-112.5"/>
<text text-anchor="middle" x="177.5" y="-119.5" font-family="Helvetica,sans-Serif" font-size="10.00" fill="#000000">Interface</text>
</a>
</g>
</g>
<!-- Node2&#45;&gt;Node1 -->
<g id="edge2" class="edge">
<title>Node2&#45;&gt;Node1</title>
<path fill="none" stroke="#191970" d="M177.5,-102.1575C177.5,-93.155 177.5,-82.9199 177.5,-75.6427"/>
<polygon fill="#191970" stroke="#191970" points="174.0001,-102.2455 177.5,-112.2455 181.0001,-102.2456 174.0001,-102.2455"/>
</g>
</g>
</svg>
