<?xml version="1.0" encoding="UTF-8" standalone="no"?>
<!DOCTYPE svg PUBLIC "-//W3C//DTD SVG 1.1//EN"
 "http://www.w3.org/Graphics/SVG/1.1/DTD/svg11.dtd">
<!-- Generated by graphviz version 2.40.1 (20161225.0304)
 -->
<!-- Title: PathMap&lt;StoreT&gt; Pages: 1 -->
<svg width="202pt" height="209pt"
 viewBox="0.00 0.00 202.00 209.00" xmlns="http://www.w3.org/2000/svg" xmlns:xlink="http://www.w3.org/1999/xlink">
<g id="graph0" class="graph" transform="scale(1 1) rotate(0) translate(4 205)">
<title>PathMap&lt;StoreT&gt;</title>
<polygon fill="#ffffff" stroke="transparent" points="-4,4 -4,-205 198,-205 198,4 -4,4"/>
<!-- Node2 -->
<g id="node1" class="node">
<title>Node2</title>
<polygon fill="#ffffff" stroke="#bfbfbf" points="0,-67.5 0,-86.5 101,-86.5 101,-67.5 0,-67.5"/>
<text text-anchor="middle" x="50.5" y="-74.5" font-family="Helvetica,sans-Serif" font-size="10.00" fill="#000000">vector&lt;PathMap *&gt;</text>
</g>
<!-- Node1 -->
<g id="node2" class="node">
<title>Node1</title>
<polygon fill="#bfbfbf" stroke="#000000" points="47,-.5 47,-19.5 144,-19.5 144,-.5 47,-.5"/>
<text text-anchor="middle" x="95.5" y="-7.5" font-family="Helvetica,sans-Serif" font-size="10.00" fill="#000000">PathMap&lt;StoreT&gt;</text>
</g>
<!-- Node2&#45;&gt;Node1 -->
<g id="edge3" class="edge">
<title>Node2&#45;&gt;Node1</title>
<path fill="none" stroke="#9a32cd" stroke-dasharray="5,2" d="M33.3108,-59.3583C28.7064,-52.5037 26.0883,-44.704 30.5,-38 36.0387,-29.5834 44.6981,-23.6859 53.9109,-19.5572"/>
<polygon fill="#9a32cd" stroke="#9a32cd" points="30.805,-61.8249 39.8256,-67.3819 36.2392,-57.4125 30.805,-61.8249"/>
<text text-anchor="middle" x="50" y="-41" font-family="Helvetica,sans-Serif" font-size="10.00" fill="#000000"> Children</text>
</g>
<!-- Node1&#45;&gt;Node2 -->
<g id="edge2" class="edge">
<title>Node1&#45;&gt;Node2</title>
<path fill="none" stroke="#9a32cd" stroke-dasharray="5,2" d="M85.9276,-28.4979C82.279,-35.118 77.9279,-42.5367 73.5,-49 69.0913,-55.4354 63.5573,-62.2058 59.0225,-67.4768"/>
<polygon fill="#9a32cd" stroke="#9a32cd" points="89.0701,-30.0434 90.6977,-19.5743 82.8968,-26.7434 89.0701,-30.0434"/>
<text text-anchor="middle" x="101" y="-41" font-family="Helvetica,sans-Serif" font-size="10.00" fill="#000000"> elements</text>
</g>
<!-- Node1&#45;&gt;Node1 -->
<g id="edge1" class="edge">
<title>Node1&#45;&gt;Node1</title>
<path fill="none" stroke="#9a32cd" stroke-dasharray="5,2" d="M154.3803,-14.5752C159.0867,-13.5758 162,-12.0508 162,-10 162,-6.7188 154.5419,-4.7833 144.2141,-4.1937"/>
<polygon fill="#9a32cd" stroke="#9a32cd" points="153.7208,-11.1294 144.2141,-15.8063 154.5624,-18.0786 153.7208,-11.1294"/>
<text text-anchor="middle" x="178" y="-7.5" font-family="Helvetica,sans-Serif" font-size="10.00" fill="#000000"> Parent</text>
</g>
<!-- Node3 -->
<g id="node3" class="node">
<title>Node3</title>
<g id="a_node3"><a xlink:href="classaworx_1_1lib_1_1strings_1_1AString.html" target="_top" xlink:title="AString">
<polygon fill="#ffffff" stroke="#000000" points="137,-67.5 137,-86.5 186,-86.5 186,-67.5 137,-67.5"/>
<text text-anchor="middle" x="161.5" y="-74.5" font-family="Helvetica,sans-Serif" font-size="10.00" fill="#000000">AString</text>
</a>
</g>
</g>
<!-- Node3&#45;&gt;Node1 -->
<g id="edge4" class="edge">
<title>Node3&#45;&gt;Node1</title>
<path fill="none" stroke="#9a32cd" stroke-dasharray="5,2" d="M146.4535,-59.4534C140.407,-52.6114 133.2739,-44.7956 126.5,-38 120.1513,-31.6309 112.6797,-24.8626 106.6625,-19.576"/>
<polygon fill="#9a32cd" stroke="#9a32cd" points="144.2134,-62.2102 153.4225,-67.4489 149.4904,-57.6108 144.2134,-62.2102"/>
<text text-anchor="middle" x="147.5" y="-41" font-family="Helvetica,sans-Serif" font-size="10.00" fill="#000000"> Path</text>
</g>
<!-- Node4 -->
<g id="node4" class="node">
<title>Node4</title>
<g id="a_node4"><a xlink:href="classaworx_1_1lib_1_1strings_1_1TString.html" target="_top" xlink:title="TString">
<polygon fill="#ffffff" stroke="#000000" points="137.5,-124.5 137.5,-143.5 185.5,-143.5 185.5,-124.5 137.5,-124.5"/>
<text text-anchor="middle" x="161.5" y="-131.5" font-family="Helvetica,sans-Serif" font-size="10.00" fill="#000000">TString</text>
</a>
</g>
</g>
<!-- Node4&#45;&gt;Node3 -->
<g id="edge5" class="edge">
<title>Node4&#45;&gt;Node3</title>
<path fill="none" stroke="#191970" d="M161.5,-114.2342C161.5,-104.8491 161.5,-94.0651 161.5,-86.5265"/>
<polygon fill="#191970" stroke="#191970" points="158.0001,-114.3307 161.5,-124.3307 165.0001,-114.3308 158.0001,-114.3307"/>
</g>
<!-- Node5 -->
<g id="node5" class="node">
<title>Node5</title>
<g id="a_node5"><a xlink:href="classaworx_1_1lib_1_1strings_1_1String.html" target="_top" xlink:title="String">
<polygon fill="#ffffff" stroke="#000000" points="140.5,-181.5 140.5,-200.5 182.5,-200.5 182.5,-181.5 140.5,-181.5"/>
<text text-anchor="middle" x="161.5" y="-188.5" font-family="Helvetica,sans-Serif" font-size="10.00" fill="#000000">String</text>
</a>
</g>
</g>
<!-- Node5&#45;&gt;Node4 -->
<g id="edge6" class="edge">
<title>Node5&#45;&gt;Node4</title>
<path fill="none" stroke="#191970" d="M161.5,-171.2342C161.5,-161.8491 161.5,-151.0651 161.5,-143.5265"/>
<polygon fill="#191970" stroke="#191970" points="158.0001,-171.3307 161.5,-181.3307 165.0001,-171.3308 158.0001,-171.3307"/>
</g>
</g>
</svg>
