<?xml version="1.0" encoding="UTF-8" standalone="no"?>
<!DOCTYPE svg PUBLIC "-//W3C//DTD SVG 1.1//EN"
 "http://www.w3.org/Graphics/SVG/1.1/DTD/svg11.dtd">
<!-- Generated by graphviz version 2.38.0 (20140413.2041)
 -->
<!-- Title: AnsiConsoleLogger Pages: 1 -->
<svg width="1263pt" height="620pt"
 viewBox="0.00 0.00 1263.00 619.52" xmlns="http://www.w3.org/2000/svg" xmlns:xlink="http://www.w3.org/1999/xlink">
<g id="graph0" class="graph" transform="scale(1 1) rotate(0) translate(4 615.519)">
<title>AnsiConsoleLogger</title>
<polygon fill="white" stroke="none" points="-4,4 -4,-615.519 1259,-615.519 1259,4 -4,4"/>
<!-- Node1 -->
<g id="node1" class="node"><title>Node1</title>
<polygon fill="#bfbfbf" stroke="black" points="1154,-341.019 1154,-360.019 1255,-360.019 1255,-341.019 1154,-341.019"/>
<text text-anchor="middle" x="1204.5" y="-348.019" font-family="Helvetica,sans-Serif" font-size="10.00">AnsiConsoleLogger</text>
</g>
<!-- Node6 -->
<g id="node2" class="node"><title>Node6</title>
<polygon fill="white" stroke="#bfbfbf" points="416,-409.519 416,-439.519 515,-439.519 515,-409.519 416,-409.519"/>
<text text-anchor="start" x="424" y="-427.519" font-family="Helvetica,sans-Serif" font-size="10.00">vector&lt; aworx::lib</text>
<text text-anchor="middle" x="465.5" y="-416.519" font-family="Helvetica,sans-Serif" font-size="10.00">::strings::AString &gt;</text>
</g>
<!-- Node3 -->
<g id="node8" class="node"><title>Node3</title>
<g id="a_node8"><a xlink:href="classaworx_1_1lox_1_1core_1_1textlogger_1_1TextLogger.html" target="_top" xlink:title="TextLogger">
<polygon fill="white" stroke="black" points="789.5,-439.019 789.5,-458.019 854.5,-458.019 854.5,-439.019 789.5,-439.019"/>
<text text-anchor="middle" x="822" y="-446.019" font-family="Helvetica,sans-Serif" font-size="10.00">TextLogger</text>
</a>
</g>
</g>
<!-- Node6&#45;&gt;Node3 -->
<g id="edge5" class="edge"><title>Node6&#45;&gt;Node3</title>
<path fill="none" stroke="#9a32cd" stroke-dasharray="5,2" d="M525.367,-428.505C601.084,-433.631 729.892,-442.351 789.283,-446.372"/>
<polygon fill="#9a32cd" stroke="#9a32cd" points="525.262,-424.99 515.048,-427.806 524.789,-431.974 525.262,-424.99"/>
<text text-anchor="middle" x="591.5" y="-439.519" font-family="Helvetica,sans-Serif" font-size="10.00"> replacements</text>
</g>
<!-- Node17 -->
<g id="node3" class="node"><title>Node17</title>
<polygon fill="white" stroke="#bfbfbf" points="763.5,-548.019 763.5,-567.019 880.5,-567.019 880.5,-548.019 763.5,-548.019"/>
<text text-anchor="middle" x="822" y="-555.019" font-family="Helvetica,sans-Serif" font-size="10.00">basic_ostream&lt; char &gt;</text>
</g>
<!-- Node2 -->
<g id="node7" class="node"><title>Node2</title>
<g id="a_node7"><a xlink:href="classaworx_1_1lox_1_1loggers_1_1AnsiLogger.html" target="_top" xlink:title="AnsiLogger">
<polygon fill="white" stroke="black" points="1052,-341.019 1052,-360.019 1117,-360.019 1117,-341.019 1052,-341.019"/>
<text text-anchor="middle" x="1084.5" y="-348.019" font-family="Helvetica,sans-Serif" font-size="10.00">AnsiLogger</text>
</a>
</g>
</g>
<!-- Node17&#45;&gt;Node2 -->
<g id="edge23" class="edge"><title>Node17&#45;&gt;Node2</title>
<path fill="none" stroke="#9a32cd" stroke-dasharray="5,2" d="M890.55,-549.769C936.392,-541.197 995.452,-523.206 1034,-485.519 1070.59,-449.745 1080.32,-384.697 1082.75,-360.199"/>
<polygon fill="#9a32cd" stroke="#9a32cd" points="889.926,-546.325 880.686,-551.507 891.142,-553.218 889.926,-546.325"/>
<text text-anchor="middle" x="967.5" y="-549.519" font-family="Helvetica,sans-Serif" font-size="10.00"> oStream</text>
</g>
<!-- Node18 -->
<g id="node4" class="node"><title>Node18</title>
<g id="a_node4"><a xlink:title="STL class. ">
<polygon fill="white" stroke="#bfbfbf" points="544,-592.019 544,-611.019 639,-611.019 639,-592.019 544,-592.019"/>
<text text-anchor="middle" x="591.5" y="-599.019" font-family="Helvetica,sans-Serif" font-size="10.00">basic_ios&lt; char &gt;</text>
</a>
</g>
</g>
<!-- Node18&#45;&gt;Node17 -->
<g id="edge24" class="edge"><title>Node18&#45;&gt;Node17</title>
<path fill="none" stroke="midnightblue" d="M649.3,-594.361C677.595,-590.41 712.246,-584.988 743,-578.519 758.096,-575.344 774.62,-571.02 788.558,-567.121"/>
<polygon fill="midnightblue" stroke="midnightblue" points="648.614,-590.922 639.183,-595.75 649.566,-597.857 648.614,-590.922"/>
</g>
<!-- Node10 -->
<g id="node5" class="node"><title>Node10</title>
<g id="a_node5"><a xlink:href="classaworx_1_1lib_1_1strings_1_1PreallocatedString.html" target="_top" xlink:title="PreallocatedString\l\&lt; TCapacity \&gt;">
<polygon fill="white" stroke="black" points="297,-328.519 297,-358.519 393,-358.519 393,-328.519 297,-328.519"/>
<text text-anchor="start" x="305" y="-346.519" font-family="Helvetica,sans-Serif" font-size="10.00">PreallocatedString</text>
<text text-anchor="middle" x="345" y="-335.519" font-family="Helvetica,sans-Serif" font-size="10.00">&lt; TCapacity &gt;</text>
</a>
</g>
</g>
<!-- Node10&#45;&gt;Node3 -->
<g id="edge14" class="edge"><title>Node10&#45;&gt;Node3</title>
<path fill="none" stroke="#9a32cd" stroke-dasharray="5,2" d="M403.163,-338.401C499.071,-330.904 687.361,-321.18 743,-354.519 778.653,-375.883 805.435,-419.635 816.03,-438.97"/>
<polygon fill="#9a32cd" stroke="#9a32cd" points="402.747,-334.923 393.058,-339.21 403.305,-341.901 402.747,-334.923"/>
<text text-anchor="middle" x="591.5" y="-335.519" font-family="Helvetica,sans-Serif" font-size="10.00"> FmtMultiLineMsgHeadline</text>
</g>
<!-- Node10&#45;&gt;Node3 -->
<g id="edge15" class="edge"><title>Node10&#45;&gt;Node3</title>
<path fill="none" stroke="#9a32cd" stroke-dasharray="5,2" d="M403.26,-348.716C478.017,-355.806 604.672,-368.955 650,-380.519 706.961,-395.052 770.379,-423.823 801.547,-438.857"/>
<polygon fill="#9a32cd" stroke="#9a32cd" points="403.354,-345.209 393.07,-347.756 402.698,-352.178 403.354,-345.209"/>
<text text-anchor="middle" x="591.5" y="-416.519" font-family="Helvetica,sans-Serif" font-size="10.00"> MultiLineDelimiterRepl</text>
<text text-anchor="middle" x="591.5" y="-405.519" font-family="Helvetica,sans-Serif" font-size="10.00">FmtIndentString</text>
<text text-anchor="middle" x="591.5" y="-394.519" font-family="Helvetica,sans-Serif" font-size="10.00">FmtMultiLineSuffix</text>
<text text-anchor="middle" x="591.5" y="-383.519" font-family="Helvetica,sans-Serif" font-size="10.00">FmtMultiLinePrefix</text>
</g>
<!-- Node11 -->
<g id="node12" class="node"><title>Node11</title>
<g id="a_node12"><a xlink:href="classaworx_1_1lox_1_1core_1_1textlogger_1_1MetaInfo.html" target="_top" xlink:title="MetaInfo">
<polygon fill="white" stroke="red" points="564,-232.019 564,-251.019 619,-251.019 619,-232.019 564,-232.019"/>
<text text-anchor="middle" x="591.5" y="-239.019" font-family="Helvetica,sans-Serif" font-size="10.00">MetaInfo</text>
</a>
</g>
</g>
<!-- Node10&#45;&gt;Node11 -->
<g id="edge16" class="edge"><title>Node10&#45;&gt;Node11</title>
<path fill="none" stroke="#9a32cd" stroke-dasharray="5,2" d="M350.824,-318.348C358.453,-286.357 376.68,-232.423 416,-208.519 453.598,-185.663 473.382,-194.24 515,-208.519 524.586,-211.809 524.058,-217.749 533,-222.519 542.647,-227.666 553.946,-231.767 563.962,-234.822"/>
<polygon fill="#9a32cd" stroke="#9a32cd" points="347.369,-317.762 348.628,-328.281 354.204,-319.273 347.369,-317.762"/>
<text text-anchor="middle" x="465.5" y="-321.519" font-family="Helvetica,sans-Serif" font-size="10.00"> TimeDiffHours</text>
<text text-anchor="middle" x="465.5" y="-310.519" font-family="Helvetica,sans-Serif" font-size="10.00">LogLevelError</text>
<text text-anchor="middle" x="465.5" y="-299.519" font-family="Helvetica,sans-Serif" font-size="10.00">TimeDiffMicros</text>
<text text-anchor="middle" x="465.5" y="-288.519" font-family="Helvetica,sans-Serif" font-size="10.00">LogLevelInfo</text>
<text text-anchor="middle" x="465.5" y="-277.519" font-family="Helvetica,sans-Serif" font-size="10.00">TimeElapsedDays</text>
<text text-anchor="middle" x="465.5" y="-266.519" font-family="Helvetica,sans-Serif" font-size="10.00">TimeOfDayFormat</text>
<text text-anchor="middle" x="465.5" y="-255.519" font-family="Helvetica,sans-Serif" font-size="10.00">DateFormat</text>
<text text-anchor="middle" x="465.5" y="-244.519" font-family="Helvetica,sans-Serif" font-size="10.00">TimeDiffMins</text>
<text text-anchor="middle" x="465.5" y="-233.519" font-family="Helvetica,sans-Serif" font-size="10.00">TimeDiffSecs</text>
<text text-anchor="middle" x="465.5" y="-222.519" font-family="Helvetica,sans-Serif" font-size="10.00">TimeDiffNone</text>
<text text-anchor="middle" x="465.5" y="-211.519" font-family="Helvetica,sans-Serif" font-size="10.00">...</text>
</g>
<!-- Node14 -->
<g id="node6" class="node"><title>Node14</title>
<g id="a_node6"><a xlink:href="classaworx_1_1lib_1_1strings_1_1StringLiteral.html" target="_top" xlink:title="StringLiteral\&lt; TLength \&gt;">
<polygon fill="white" stroke="black" points="761,-186.019 761,-205.019 883,-205.019 883,-186.019 761,-186.019"/>
<text text-anchor="middle" x="822" y="-193.019" font-family="Helvetica,sans-Serif" font-size="10.00">StringLiteral&lt; TLength &gt;</text>
</a>
</g>
</g>
<!-- Node14&#45;&gt;Node2 -->
<g id="edge19" class="edge"><title>Node14&#45;&gt;Node2</title>
<path fill="none" stroke="#9a32cd" stroke-dasharray="5,2" d="M893.092,-187.279C945.698,-182.647 1012.24,-180.579 1034,-196.519 1081.57,-231.372 1084.41,-312.673 1083.89,-340.765"/>
<polygon fill="#9a32cd" stroke="#9a32cd" points="892.745,-183.796 883.11,-188.203 893.39,-190.767 892.745,-183.796"/>
<text text-anchor="middle" x="967.5" y="-320.519" font-family="Helvetica,sans-Serif" font-size="10.00"> ANSI_STD_COL</text>
<text text-anchor="middle" x="967.5" y="-309.519" font-family="Helvetica,sans-Serif" font-size="10.00">ANSI_CYAN</text>
<text text-anchor="middle" x="967.5" y="-298.519" font-family="Helvetica,sans-Serif" font-size="10.00">ANSI_BG_CYAN</text>
<text text-anchor="middle" x="967.5" y="-287.519" font-family="Helvetica,sans-Serif" font-size="10.00">ANSI_BG_RED</text>
<text text-anchor="middle" x="967.5" y="-276.519" font-family="Helvetica,sans-Serif" font-size="10.00">ANSI_BG_STD_COL</text>
<text text-anchor="start" x="915.5" y="-265.519" font-family="Helvetica,sans-Serif" font-size="10.00">ANSI_BG_LIGHT_STD</text>
<text text-anchor="middle" x="967.5" y="-254.519" font-family="Helvetica,sans-Serif" font-size="10.00">_COL</text>
<text text-anchor="middle" x="967.5" y="-243.519" font-family="Helvetica,sans-Serif" font-size="10.00">ANSI_BG_MAGENTA</text>
<text text-anchor="middle" x="967.5" y="-232.519" font-family="Helvetica,sans-Serif" font-size="10.00">ANSI_BG_GREEN</text>
<text text-anchor="middle" x="967.5" y="-221.519" font-family="Helvetica,sans-Serif" font-size="10.00">ANSI_BLACK</text>
<text text-anchor="middle" x="967.5" y="-210.519" font-family="Helvetica,sans-Serif" font-size="10.00">ANSI_BG_BLACK</text>
<text text-anchor="middle" x="967.5" y="-199.519" font-family="Helvetica,sans-Serif" font-size="10.00">...</text>
</g>
<!-- Node14&#45;&gt;Node2 -->
<g id="edge20" class="edge"><title>Node14&#45;&gt;Node2</title>
<path fill="none" stroke="#9a32cd" stroke-dasharray="5,2" d="M827.582,-175.89C836.039,-144.705 857.369,-84.7935 901,-59.5194 952.149,-29.8904 988.833,-21.3869 1034,-59.5194 1078.25,-96.8762 1082.95,-295.068 1083.44,-341.006"/>
<polygon fill="#9a32cd" stroke="#9a32cd" points="824.094,-175.408 825.031,-185.962 830.879,-177.127 824.094,-175.408"/>
<text text-anchor="middle" x="967.5" y="-172.519" font-family="Helvetica,sans-Serif" font-size="10.00"> ANSI_BG_LIGHT_GREEN</text>
<text text-anchor="middle" x="967.5" y="-161.519" font-family="Helvetica,sans-Serif" font-size="10.00">ANSI_LIGHT_YELLOW</text>
<text text-anchor="middle" x="967.5" y="-150.519" font-family="Helvetica,sans-Serif" font-size="10.00">ANSI_BG_LIGHT_MAGENTA</text>
<text text-anchor="middle" x="967.5" y="-139.519" font-family="Helvetica,sans-Serif" font-size="10.00">ANSI_BG_LIGHT_BLUE</text>
<text text-anchor="middle" x="967.5" y="-128.519" font-family="Helvetica,sans-Serif" font-size="10.00">ANSI_BG_LIGHT_RED</text>
<text text-anchor="middle" x="967.5" y="-117.519" font-family="Helvetica,sans-Serif" font-size="10.00">ANSI_WHITE</text>
<text text-anchor="middle" x="967.5" y="-106.519" font-family="Helvetica,sans-Serif" font-size="10.00">ANSI_LIGHT_BLUE</text>
<text text-anchor="middle" x="967.5" y="-95.5194" font-family="Helvetica,sans-Serif" font-size="10.00">ANSI_BG_WHITE</text>
<text text-anchor="middle" x="967.5" y="-84.5194" font-family="Helvetica,sans-Serif" font-size="10.00">ANSI_LIGHT_CYAN</text>
<text text-anchor="middle" x="967.5" y="-73.5194" font-family="Helvetica,sans-Serif" font-size="10.00">ANSI_LIGHT_GREEN</text>
<text text-anchor="middle" x="967.5" y="-62.5194" font-family="Helvetica,sans-Serif" font-size="10.00">...</text>
</g>
<!-- Node14&#45;&gt;Node2 -->
<g id="edge21" class="edge"><title>Node14&#45;&gt;Node2</title>
<path fill="none" stroke="#9a32cd" stroke-dasharray="5,2" d="M823.821,-215.344C826.752,-257.15 840.117,-353.914 901,-395.519 925.402,-412.195 1006.43,-406.177 1034,-395.519 1052.2,-388.484 1067.83,-371.302 1076.43,-360.322"/>
<polygon fill="#9a32cd" stroke="#9a32cd" points="827.313,-215.1 823.25,-205.315 820.324,-215.498 827.313,-215.1"/>
<text text-anchor="middle" x="967.5" y="-441.519" font-family="Helvetica,sans-Serif" font-size="10.00"> ANSI_BG_LIGHT_GRAY</text>
<text text-anchor="middle" x="967.5" y="-430.519" font-family="Helvetica,sans-Serif" font-size="10.00">ANSI_GRAY</text>
<text text-anchor="middle" x="967.5" y="-419.519" font-family="Helvetica,sans-Serif" font-size="10.00">ANSI_LIGHT_GRAY</text>
<text text-anchor="middle" x="967.5" y="-408.519" font-family="Helvetica,sans-Serif" font-size="10.00">ANSI_BG_GRAY</text>
</g>
<!-- Node14&#45;&gt;Node2 -->
<g id="edge22" class="edge"><title>Node14&#45;&gt;Node2</title>
<path fill="none" stroke="#9a32cd" stroke-dasharray="5,2" d="M828.344,-215.015C837.662,-244.953 859.925,-301.598 901,-328.519 913.311,-336.589 1002.67,-344.454 1051.62,-348.218"/>
<polygon fill="#9a32cd" stroke="#9a32cd" points="831.666,-213.905 825.486,-205.299 824.95,-215.88 831.666,-213.905"/>
<text text-anchor="middle" x="967.5" y="-382.519" font-family="Helvetica,sans-Serif" font-size="10.00"> ANSI_ITALICS</text>
<text text-anchor="middle" x="967.5" y="-371.519" font-family="Helvetica,sans-Serif" font-size="10.00">ANSI_STD_STYLE</text>
<text text-anchor="middle" x="967.5" y="-360.519" font-family="Helvetica,sans-Serif" font-size="10.00">ANSI_RESET</text>
<text text-anchor="middle" x="967.5" y="-349.519" font-family="Helvetica,sans-Serif" font-size="10.00">ANSI_BOLD</text>
</g>
<!-- Node2&#45;&gt;Node1 -->
<g id="edge1" class="edge"><title>Node2&#45;&gt;Node1</title>
<path fill="none" stroke="midnightblue" d="M1127.33,-350.519C1135.96,-350.519 1145.13,-350.519 1154,-350.519"/>
<polygon fill="midnightblue" stroke="midnightblue" points="1127.12,-347.02 1117.12,-350.519 1127.12,-354.02 1127.12,-347.02"/>
</g>
<!-- Node3&#45;&gt;Node2 -->
<g id="edge2" class="edge"><title>Node3&#45;&gt;Node2</title>
<path fill="none" stroke="midnightblue" d="M854.83,-461.651C898.929,-477.564 979.347,-498.117 1034,-462.519 1069.98,-439.082 1080,-382.898 1082.62,-360.239"/>
<polygon fill="midnightblue" stroke="midnightblue" points="855.807,-458.279 845.215,-458.045 853.349,-464.833 855.807,-458.279"/>
</g>
<!-- Node4 -->
<g id="node9" class="node"><title>Node4</title>
<g id="a_node9"><a xlink:href="classaworx_1_1lox_1_1core_1_1Logger.html" target="_top" xlink:title="Logger">
<polygon fill="white" stroke="red" points="568.5,-194.019 568.5,-213.019 614.5,-213.019 614.5,-194.019 568.5,-194.019"/>
<text text-anchor="middle" x="591.5" y="-201.019" font-family="Helvetica,sans-Serif" font-size="10.00">Logger</text>
</a>
</g>
</g>
<!-- Node4&#45;&gt;Node3 -->
<g id="edge3" class="edge"><title>Node4&#45;&gt;Node3</title>
<path fill="none" stroke="midnightblue" d="M624.828,-206.567C658.384,-211.355 710.429,-223.565 743,-254.519 799.311,-308.035 815.983,-407.645 819.937,-438.889"/>
<polygon fill="midnightblue" stroke="midnightblue" points="624.995,-203.06 614.631,-205.26 624.104,-210.003 624.995,-203.06"/>
</g>
<!-- Node5 -->
<g id="node10" class="node"><title>Node5</title>
<g id="a_node10"><a xlink:href="classaworx_1_1lox_1_1core_1_1textlogger_1_1AutoSizes.html" target="_top" xlink:title="AutoSizes">
<polygon fill="white" stroke="red" points="560.5,-554.019 560.5,-573.019 622.5,-573.019 622.5,-554.019 560.5,-554.019"/>
<text text-anchor="middle" x="591.5" y="-561.019" font-family="Helvetica,sans-Serif" font-size="10.00">AutoSizes</text>
</a>
</g>
</g>
<!-- Node5&#45;&gt;Node3 -->
<g id="edge4" class="edge"><title>Node5&#45;&gt;Node3</title>
<path fill="none" stroke="#9a32cd" stroke-dasharray="5,2" d="M633.019,-564.491C664.809,-563.568 709.186,-558.44 743,-539.519 778.409,-519.706 805.131,-477.277 815.856,-458.183"/>
<polygon fill="#9a32cd" stroke="#9a32cd" points="632.696,-560.995 622.754,-564.657 632.809,-567.995 632.696,-560.995"/>
<text text-anchor="middle" x="705.5" y="-564.519" font-family="Helvetica,sans-Serif" font-size="10.00"> AutoSizes</text>
</g>
<!-- Node7 -->
<g id="node11" class="node"><title>Node7</title>
<g id="a_node11"><a xlink:href="classaworx_1_1lib_1_1strings_1_1AString.html" target="_top" xlink:title="AString">
<polygon fill="white" stroke="black" points="164,-334.019 164,-353.019 213,-353.019 213,-334.019 164,-334.019"/>
<text text-anchor="middle" x="188.5" y="-341.019" font-family="Helvetica,sans-Serif" font-size="10.00">AString</text>
</a>
</g>
</g>
<!-- Node7&#45;&gt;Node6 -->
<g id="edge7" class="edge"><title>Node7&#45;&gt;Node6</title>
<path fill="none" stroke="#9a32cd" stroke-dasharray="5,2" d="M222.64,-354.85C225.463,-355.769 228.278,-356.67 231,-357.519 294.41,-377.301 368.179,-398.102 415.559,-411.181"/>
<polygon fill="#9a32cd" stroke="#9a32cd" points="223.734,-351.526 213.141,-351.704 221.533,-358.171 223.734,-351.526"/>
<text text-anchor="middle" x="252.5" y="-372.519" font-family="Helvetica,sans-Serif" font-size="10.00"> elements</text>
</g>
<!-- Node7&#45;&gt;Node10 -->
<g id="edge8" class="edge"><title>Node7&#45;&gt;Node10</title>
<path fill="none" stroke="midnightblue" d="M223.587,-343.519C245.095,-343.519 273.176,-343.519 296.81,-343.519"/>
<polygon fill="midnightblue" stroke="midnightblue" points="223.302,-340.02 213.302,-343.519 223.302,-347.02 223.302,-340.02"/>
</g>
<!-- Node7&#45;&gt;Node3 -->
<g id="edge6" class="edge"><title>Node7&#45;&gt;Node3</title>
<path fill="none" stroke="#9a32cd" stroke-dasharray="5,2" d="M203.877,-360.591C211.335,-368.651 220.972,-377.926 231,-384.519 351.957,-464.049 390.898,-478.901 533,-506.519 624.919,-524.384 654.486,-520.073 743,-489.519 766.138,-481.533 790.822,-467.514 806.082,-458.123"/>
<polygon fill="#9a32cd" stroke="#9a32cd" points="206.466,-358.235 197.21,-353.079 201.23,-362.882 206.466,-358.235"/>
<text text-anchor="middle" x="465.5" y="-527.519" font-family="Helvetica,sans-Serif" font-size="10.00"> logBuf</text>
<text text-anchor="middle" x="465.5" y="-516.519" font-family="Helvetica,sans-Serif" font-size="10.00">MultiLineDelimiter</text>
<text text-anchor="middle" x="465.5" y="-505.519" font-family="Helvetica,sans-Serif" font-size="10.00">msgBuf</text>
</g>
<!-- Node7&#45;&gt;Node11 -->
<g id="edge9" class="edge"><title>Node7&#45;&gt;Node11</title>
<path fill="none" stroke="#9a32cd" stroke-dasharray="5,2" d="M206.695,-326.389C242.117,-292.46 327.364,-217.651 416,-190.519 458.073,-177.641 477.019,-168.306 515,-190.519 529.086,-198.757 520.402,-212.148 533,-222.519 541.766,-229.736 553.37,-234.246 563.856,-237.047"/>
<polygon fill="#9a32cd" stroke="#9a32cd" points="203.89,-324.235 199.16,-333.715 208.77,-329.254 203.89,-324.235"/>
<text text-anchor="middle" x="345" y="-280.519" font-family="Helvetica,sans-Serif" font-size="10.00"> Format</text>
<text text-anchor="start" x="292" y="-269.519" font-family="Helvetica,sans-Serif" font-size="10.00">ConsumableSourcePath</text>
<text text-anchor="middle" x="345" y="-258.519" font-family="Helvetica,sans-Serif" font-size="10.00">Prefix</text>
</g>
<!-- Node11&#45;&gt;Node3 -->
<g id="edge17" class="edge"><title>Node11&#45;&gt;Node3</title>
<path fill="none" stroke="#9a32cd" stroke-dasharray="5,2" d="M629.362,-247.15C662.483,-253.878 710.735,-268.019 743,-296.519 789.238,-337.363 811.832,-412.179 818.678,-438.8"/>
<polygon fill="#9a32cd" stroke="#9a32cd" points="629.657,-243.643 619.18,-245.217 628.352,-250.52 629.657,-243.643"/>
<text text-anchor="middle" x="705.5" y="-299.519" font-family="Helvetica,sans-Serif" font-size="10.00"> MetaInfo</text>
</g>
<!-- Node8 -->
<g id="node13" class="node"><title>Node8</title>
<g id="a_node13"><a xlink:href="classaworx_1_1lib_1_1strings_1_1TString.html" target="_top" xlink:title="TString">
<polygon fill="white" stroke="black" points="79,-119.019 79,-138.019 127,-138.019 127,-119.019 79,-119.019"/>
<text text-anchor="middle" x="103" y="-126.019" font-family="Helvetica,sans-Serif" font-size="10.00">TString</text>
</a>
</g>
</g>
<!-- Node8&#45;&gt;Node14 -->
<g id="edge11" class="edge"><title>Node8&#45;&gt;Node14</title>
<path fill="none" stroke="midnightblue" d="M137.092,-128.519C152.427,-128.519 170.892,-128.519 187.5,-128.519 187.5,-128.519 187.5,-128.519 592.5,-128.519 673.114,-128.519 763.497,-167.394 801.993,-185.92"/>
<polygon fill="midnightblue" stroke="midnightblue" points="137.037,-125.02 127.037,-128.519 137.037,-132.02 137.037,-125.02"/>
</g>
<!-- Node8&#45;&gt;Node7 -->
<g id="edge10" class="edge"><title>Node8&#45;&gt;Node7</title>
<path fill="none" stroke="midnightblue" d="M111.409,-147.597C128.601,-191.862 170.719,-300.31 183.656,-333.623"/>
<polygon fill="midnightblue" stroke="midnightblue" points="114.579,-146.09 107.696,-138.035 108.053,-148.624 114.579,-146.09"/>
</g>
<!-- Node9 -->
<g id="node14" class="node"><title>Node9</title>
<g id="a_node14"><a xlink:href="classaworx_1_1lib_1_1strings_1_1String.html" target="_top" xlink:title="String">
<polygon fill="white" stroke="black" points="0,-42.0194 0,-61.0194 42,-61.0194 42,-42.0194 0,-42.0194"/>
<text text-anchor="middle" x="21" y="-49.0194" font-family="Helvetica,sans-Serif" font-size="10.00">String</text>
</a>
</g>
</g>
<!-- Node9&#45;&gt;Node2 -->
<g id="edge12" class="edge"><title>Node9&#45;&gt;Node2</title>
<path fill="none" stroke="#9a32cd" stroke-dasharray="5,2" d="M44.5676,-36.6877C60.0654,-27.9209 81.4709,-18.5194 102,-18.5194 102,-18.5194 102,-18.5194 823,-18.5194 916.984,-18.5194 964.679,30.944 1034,-32.5194 1080.77,-75.3416 1083.52,-292.255 1083.54,-340.85"/>
<polygon fill="#9a32cd" stroke="#9a32cd" points="42.5221,-33.833 35.7421,-41.9745 46.1193,-39.838 42.5221,-33.833"/>
<text text-anchor="middle" x="345" y="-65.5194" font-family="Helvetica,sans-Serif" font-size="10.00"> MsgPrefixVerbose</text>
<text text-anchor="middle" x="345" y="-54.5194" font-family="Helvetica,sans-Serif" font-size="10.00">MsgSuffix</text>
<text text-anchor="middle" x="345" y="-43.5194" font-family="Helvetica,sans-Serif" font-size="10.00">MsgPrefixWarning</text>
<text text-anchor="middle" x="345" y="-32.5194" font-family="Helvetica,sans-Serif" font-size="10.00">MsgPrefixError</text>
<text text-anchor="middle" x="345" y="-21.5194" font-family="Helvetica,sans-Serif" font-size="10.00">MsgPrefixInfo</text>
</g>
<!-- Node9&#45;&gt;Node8 -->
<g id="edge13" class="edge"><title>Node9&#45;&gt;Node8</title>
<path fill="none" stroke="midnightblue" d="M39.3606,-68.229C55.4302,-83.696 78.768,-106.159 91.9502,-118.847"/>
<polygon fill="midnightblue" stroke="midnightblue" points="41.7641,-65.6845 32.1321,-61.2715 36.9098,-70.728 41.7641,-65.6845"/>
</g>
<!-- Node13 -->
<g id="node15" class="node"><title>Node13</title>
<g id="a_node15"><a xlink:href="classaworx_1_1lox_1_1core_1_1textlogger_1_1ObjectConverter.html" target="_top" xlink:title="ObjectConverter">
<polygon fill="white" stroke="red" points="547.5,-478.019 547.5,-497.019 635.5,-497.019 635.5,-478.019 547.5,-478.019"/>
<text text-anchor="middle" x="591.5" y="-485.019" font-family="Helvetica,sans-Serif" font-size="10.00">ObjectConverter</text>
</a>
</g>
</g>
<!-- Node13&#45;&gt;Node3 -->
<g id="edge18" class="edge"><title>Node13&#45;&gt;Node3</title>
<path fill="none" stroke="#9a32cd" stroke-dasharray="5,2" d="M645.538,-478.882C674.378,-474.141 710.664,-468.107 743,-462.519 758.184,-459.896 775.012,-456.888 789.139,-454.335"/>
<polygon fill="#9a32cd" stroke="#9a32cd" points="644.967,-475.428 635.666,-480.502 646.101,-482.336 644.967,-475.428"/>
<text text-anchor="middle" x="705.5" y="-477.519" font-family="Helvetica,sans-Serif" font-size="10.00"> ObjectConverter</text>
</g>
</g>
</svg>
