<?xml version="1.0" encoding="UTF-8" standalone="no"?>
<!DOCTYPE svg PUBLIC "-//W3C//DTD SVG 1.1//EN"
 "http://www.w3.org/Graphics/SVG/1.1/DTD/svg11.dtd">
<!-- Generated by graphviz version 2.38.0 (20140413.2041)
 -->
<!-- Title: ESC Pages: 1 -->
<svg width="115pt" height="319pt"
 viewBox="0.00 0.00 115.00 319.00" xmlns="http://www.w3.org/2000/svg" xmlns:xlink="http://www.w3.org/1999/xlink">
<g id="graph0" class="graph" transform="scale(1 1) rotate(0) translate(4 315)">
<title>ESC</title>
<polygon fill="white" stroke="none" points="-4,4 -4,-315 111,-315 111,4 -4,4"/>
<!-- Node1 -->
<g id="node1" class="node"><title>Node1</title>
<polygon fill="#bfbfbf" stroke="black" points="27,-0.5 27,-19.5 65,-19.5 65,-0.5 27,-0.5"/>
<text text-anchor="middle" x="46" y="-7.5" font-family="Helvetica,sans-Serif" font-size="10.00">ESC</text>
</g>
<!-- Node2 -->
<g id="node2" class="node"><title>Node2</title>
<g id="a_node2"><a xlink:href="classaworx_1_1lib_1_1strings_1_1StringLiteral.html" target="_top" xlink:title="StringLiteral\&lt; 3 \&gt;">
<polygon fill="white" stroke="black" points="0,-177.5 0,-196.5 92,-196.5 92,-177.5 0,-177.5"/>
<text text-anchor="middle" x="46" y="-184.5" font-family="Helvetica,sans-Serif" font-size="10.00">StringLiteral&lt; 3 &gt;</text>
</a>
</g>
</g>
<!-- Node2&#45;&gt;Node1 -->
<g id="edge1" class="edge"><title>Node2&#45;&gt;Node1</title>
<path fill="none" stroke="#9a32cd" stroke-dasharray="5,2" d="M46,-166.951C46,-129.297 46,-46.6537 46,-19.6932"/>
<polygon fill="#9a32cd" stroke="#9a32cd" points="42.5001,-167.081 46,-177.081 49.5001,-167.081 42.5001,-167.081"/>
<text text-anchor="middle" x="76.5" y="-151" font-family="Helvetica,sans-Serif" font-size="10.00"> EOMETA</text>
<text text-anchor="middle" x="76.5" y="-140" font-family="Helvetica,sans-Serif" font-size="10.00">TAB</text>
<text text-anchor="middle" x="76.5" y="-129" font-family="Helvetica,sans-Serif" font-size="10.00">BG_RESET</text>
<text text-anchor="middle" x="76.5" y="-118" font-family="Helvetica,sans-Serif" font-size="10.00">BG_YELLOW</text>
<text text-anchor="middle" x="76.5" y="-107" font-family="Helvetica,sans-Serif" font-size="10.00">GRAY</text>
<text text-anchor="middle" x="76.5" y="-96" font-family="Helvetica,sans-Serif" font-size="10.00">CYAN</text>
<text text-anchor="middle" x="76.5" y="-85" font-family="Helvetica,sans-Serif" font-size="10.00">BOLD</text>
<text text-anchor="middle" x="76.5" y="-74" font-family="Helvetica,sans-Serif" font-size="10.00">WHITE</text>
<text text-anchor="middle" x="76.5" y="-63" font-family="Helvetica,sans-Serif" font-size="10.00">MAGENTA</text>
<text text-anchor="middle" x="76.5" y="-52" font-family="Helvetica,sans-Serif" font-size="10.00">YELLOW</text>
<text text-anchor="middle" x="76.5" y="-41" font-family="Helvetica,sans-Serif" font-size="10.00">...</text>
</g>
<!-- Node3 -->
<g id="node3" class="node"><title>Node3</title>
<g id="a_node3"><a xlink:href="classaworx_1_1lib_1_1strings_1_1TString.html" target="_top" xlink:title="TString">
<polygon fill="white" stroke="black" points="22,-234.5 22,-253.5 70,-253.5 70,-234.5 22,-234.5"/>
<text text-anchor="middle" x="46" y="-241.5" font-family="Helvetica,sans-Serif" font-size="10.00">TString</text>
</a>
</g>
</g>
<!-- Node3&#45;&gt;Node2 -->
<g id="edge2" class="edge"><title>Node3&#45;&gt;Node2</title>
<path fill="none" stroke="midnightblue" d="M46,-224.117C46,-214.817 46,-204.056 46,-196.715"/>
<polygon fill="midnightblue" stroke="midnightblue" points="42.5001,-224.406 46,-234.406 49.5001,-224.406 42.5001,-224.406"/>
</g>
<!-- Node4 -->
<g id="node4" class="node"><title>Node4</title>
<g id="a_node4"><a xlink:href="classaworx_1_1lib_1_1strings_1_1String.html" target="_top" xlink:title="String">
<polygon fill="white" stroke="black" points="25,-291.5 25,-310.5 67,-310.5 67,-291.5 25,-291.5"/>
<text text-anchor="middle" x="46" y="-298.5" font-family="Helvetica,sans-Serif" font-size="10.00">String</text>
</a>
</g>
</g>
<!-- Node4&#45;&gt;Node3 -->
<g id="edge3" class="edge"><title>Node4&#45;&gt;Node3</title>
<path fill="none" stroke="midnightblue" d="M46,-281.117C46,-271.817 46,-261.056 46,-253.715"/>
<polygon fill="midnightblue" stroke="midnightblue" points="42.5001,-281.406 46,-291.406 49.5001,-281.406 42.5001,-281.406"/>
</g>
</g>
</svg>
