<?xml version="1.0" encoding="UTF-8" standalone="no"?>
<!DOCTYPE svg PUBLIC "-//W3C//DTD SVG 1.1//EN"
 "http://www.w3.org/Graphics/SVG/1.1/DTD/svg11.dtd">
<!-- Generated by graphviz version 2.40.1 (20161225.0304)
 -->
<!-- Title: ThreadLock Pages: 1 -->
<svg width="925pt" height="135pt"
 viewBox="0.00 0.00 925.00 135.00" xmlns="http://www.w3.org/2000/svg" xmlns:xlink="http://www.w3.org/1999/xlink">
<g id="graph0" class="graph" transform="scale(1 1) rotate(0) translate(4 131)">
<title>ThreadLock</title>
<polygon fill="#ffffff" stroke="transparent" points="-4,4 -4,-131 921,-131 921,4 -4,4"/>
<!-- Node15 -->
<g id="node1" class="node">
<title>Node15</title>
<polygon fill="#bfbfbf" stroke="#000000" points="817.5,-5.5 817.5,-24.5 885.5,-24.5 885.5,-5.5 817.5,-5.5"/>
<text text-anchor="middle" x="851.5" y="-12.5" font-family="Helvetica,sans-Serif" font-size="10.00" fill="#000000">ThreadLock</text>
</g>
<!-- Node21 -->
<g id="node2" class="node">
<title>Node21</title>
<polygon fill="#ffffff" stroke="#bfbfbf" points="786,-57.5 786,-76.5 917,-76.5 917,-57.5 786,-57.5"/>
<text text-anchor="middle" x="851.5" y="-64.5" font-family="Helvetica,sans-Serif" font-size="10.00" fill="#000000">map&lt;thread::id, Thread *&gt;</text>
</g>
<!-- Node19 -->
<g id="node8" class="node">
<title>Node19</title>
<g id="a_node8"><a xlink:href="classaworx_1_1lib_1_1threads_1_1Thread.html" target="_top" xlink:title="Thread">
<polygon fill="#ffffff" stroke="#000000" points="654,-48.5 654,-67.5 701,-67.5 701,-48.5 654,-48.5"/>
<text text-anchor="middle" x="677.5" y="-55.5" font-family="Helvetica,sans-Serif" font-size="10.00" fill="#000000">Thread</text>
</a>
</g>
</g>
<!-- Node21&#45;&gt;Node19 -->
<g id="edge9" class="edge">
<title>Node21&#45;&gt;Node19</title>
<path fill="none" stroke="#9a32cd" stroke-dasharray="5,2" d="M775.7584,-57.5301C773.1425,-57.3303 770.5505,-57.1522 768,-57 746.2609,-55.7029 740.7762,-56.7377 719,-57 713.2349,-57.0694 707.0202,-57.1931 701.2,-57.3304"/>
<polygon fill="#9a32cd" stroke="#9a32cd" points="775.6677,-61.035 785.9294,-58.399 776.2636,-54.0604 775.6677,-61.035"/>
<text text-anchor="middle" x="743.5" y="-60" font-family="Helvetica,sans-Serif" font-size="10.00" fill="#000000"> threadMap</text>
</g>
<!-- Node22 -->
<g id="node3" class="node">
<title>Node22</title>
<g id="a_node3"><a xlink:href="classaworx_1_1lib_1_1strings_1_1PreallocatedString.html" target="_top" xlink:title="PreallocatedString\&lt;TCapacity\&gt;">
<polygon fill="#ffffff" stroke="#000000" points="417,-107.5 417,-126.5 569,-126.5 569,-107.5 417,-107.5"/>
<text text-anchor="middle" x="493" y="-114.5" font-family="Helvetica,sans-Serif" font-size="10.00" fill="#000000">PreallocatedString&lt;TCapacity&gt;</text>
</a>
</g>
</g>
<!-- Node22&#45;&gt;Node19 -->
<g id="edge10" class="edge">
<title>Node22&#45;&gt;Node19</title>
<path fill="none" stroke="#9a32cd" stroke-dasharray="5,2" d="M568.0254,-105.4553C590.4105,-100.6271 614.6561,-93.9857 636,-85 646.6156,-80.5309 657.4884,-73.3427 665.4407,-67.5065"/>
<polygon fill="#9a32cd" stroke="#9a32cd" points="567.3096,-102.0292 558.2253,-107.4813 568.7268,-108.8842 567.3096,-102.0292"/>
<text text-anchor="middle" x="611.5" y="-103" font-family="Helvetica,sans-Serif" font-size="10.00" fill="#000000"> name</text>
</g>
<!-- Node16 -->
<g id="node4" class="node">
<title>Node16</title>
<g id="a_node4"><a xlink:href="classaworx_1_1lib_1_1lang_1_1Ownable.html" target="_top" xlink:title="Ownable">
<polygon fill="#ffffff" stroke="#000000" points="345,-.5 345,-19.5 399,-19.5 399,-.5 345,-.5"/>
<text text-anchor="middle" x="372" y="-7.5" font-family="Helvetica,sans-Serif" font-size="10.00" fill="#000000">Ownable</text>
</a>
</g>
</g>
<!-- Node16&#45;&gt;Node15 -->
<g id="edge1" class="edge">
<title>Node16&#45;&gt;Node15</title>
<path fill="none" stroke="#191970" d="M409.3328,-9.8035C448.9539,-9.6409 513.3932,-9.5079 569,-10 658.5179,-10.7921 763.973,-12.9959 817.1482,-14.1961"/>
<polygon fill="#191970" stroke="#191970" points="409.0711,-6.3045 399.0866,-9.8485 409.1019,-13.3044 409.0711,-6.3045"/>
</g>
<!-- Node17 -->
<g id="node5" class="node">
<title>Node17</title>
<g id="a_node5"><a xlink:href="classaworx_1_1lib_1_1strings_1_1TString.html" target="_top" xlink:title="TString">
<polygon fill="#ffffff" stroke="#000000" points="79,-56.5 79,-75.5 127,-75.5 127,-56.5 79,-56.5"/>
<text text-anchor="middle" x="103" y="-63.5" font-family="Helvetica,sans-Serif" font-size="10.00" fill="#000000">TString</text>
</a>
</g>
</g>
<!-- Node17&#45;&gt;Node16 -->
<g id="edge2" class="edge">
<title>Node17&#45;&gt;Node16</title>
<path fill="none" stroke="#9a32cd" stroke-dasharray="5,2" d="M132.2454,-52.4184C136.4672,-50.7667 140.8037,-49.2311 145,-48 215.5493,-27.3019 301.9525,-16.7264 344.9738,-12.415"/>
<polygon fill="#9a32cd" stroke="#9a32cd" points="130.6017,-49.3118 122.7226,-56.395 133.2991,-55.7713 130.6017,-49.3118"/>
<text text-anchor="middle" x="202.5" y="-62" font-family="Helvetica,sans-Serif" font-size="10.00" fill="#000000"> acquirementMethodName</text>
<text text-anchor="middle" x="202.5" y="-51" font-family="Helvetica,sans-Serif" font-size="10.00" fill="#000000">acquirementSourcefile</text>
</g>
<!-- Node23 -->
<g id="node6" class="node">
<title>Node23</title>
<g id="a_node6"><a xlink:href="classaworx_1_1lib_1_1strings_1_1AString.html" target="_top" xlink:title="AString">
<polygon fill="#ffffff" stroke="#000000" points="278,-84.5 278,-103.5 327,-103.5 327,-84.5 278,-84.5"/>
<text text-anchor="middle" x="302.5" y="-91.5" font-family="Helvetica,sans-Serif" font-size="10.00" fill="#000000">AString</text>
</a>
</g>
</g>
<!-- Node17&#45;&gt;Node23 -->
<g id="edge3" class="edge">
<title>Node17&#45;&gt;Node23</title>
<path fill="none" stroke="#191970" d="M137.3223,-72.7174C139.9172,-73.1702 142.4982,-73.6033 145,-74 191.8239,-81.4251 246.8262,-87.901 277.8801,-91.3514"/>
<polygon fill="#191970" stroke="#191970" points="137.8502,-69.2561 127.3851,-70.9094 136.597,-76.143 137.8502,-69.2561"/>
</g>
<!-- Node23&#45;&gt;Node22 -->
<g id="edge11" class="edge">
<title>Node23&#45;&gt;Node22</title>
<path fill="none" stroke="#191970" d="M336.9797,-98.1629C359.2404,-100.8505 389.1047,-104.4562 416.7446,-107.7933"/>
<polygon fill="#191970" stroke="#191970" points="337.362,-94.6837 327.0146,-96.9598 336.5229,-101.6333 337.362,-94.6837"/>
</g>
<!-- Node18 -->
<g id="node7" class="node">
<title>Node18</title>
<g id="a_node7"><a xlink:href="classaworx_1_1lib_1_1strings_1_1String.html" target="_top" xlink:title="String">
<polygon fill="#ffffff" stroke="#000000" points="0,-56.5 0,-75.5 42,-75.5 42,-56.5 0,-56.5"/>
<text text-anchor="middle" x="21" y="-63.5" font-family="Helvetica,sans-Serif" font-size="10.00" fill="#000000">String</text>
</a>
</g>
</g>
<!-- Node18&#45;&gt;Node17 -->
<g id="edge4" class="edge">
<title>Node18&#45;&gt;Node17</title>
<path fill="none" stroke="#191970" d="M52.3676,-66C61.1183,-66 70.4895,-66 78.7613,-66"/>
<polygon fill="#191970" stroke="#191970" points="52.1171,-62.5001 42.117,-66 52.117,-69.5001 52.1171,-62.5001"/>
</g>
<!-- Node19&#45;&gt;Node15 -->
<g id="edge5" class="edge">
<title>Node19&#45;&gt;Node15</title>
<path fill="none" stroke="#9a32cd" stroke-dasharray="5,2" d="M710.0096,-44.8793C713.027,-43.8397 716.0563,-42.8608 719,-42 751.8975,-32.3797 790.3677,-24.9506 817.3542,-20.3425"/>
<polygon fill="#9a32cd" stroke="#9a32cd" points="708.7266,-41.6216 700.5313,-48.3362 711.1252,-48.1979 708.7266,-41.6216"/>
<text text-anchor="middle" x="743.5" y="-45" font-family="Helvetica,sans-Serif" font-size="10.00" fill="#000000"> owner</text>
</g>
<!-- Node19&#45;&gt;Node21 -->
<g id="edge6" class="edge">
<title>Node19&#45;&gt;Node21</title>
<path fill="none" stroke="#9a32cd" stroke-dasharray="5,2" d="M711.2738,-68.6081C713.87,-69.1644 716.4659,-69.641 719,-70 740.6428,-73.0663 764.4692,-73.4437 785.8782,-72.7056"/>
<polygon fill="#9a32cd" stroke="#9a32cd" points="711.9384,-65.1668 701.389,-66.1466 710.2469,-71.9594 711.9384,-65.1668"/>
<text text-anchor="middle" x="743.5" y="-76" font-family="Helvetica,sans-Serif" font-size="10.00" fill="#000000"> elements</text>
</g>
<!-- Node20 -->
<g id="node9" class="node">
<title>Node20</title>
<g id="a_node9"><a xlink:href="classaworx_1_1lib_1_1threads_1_1Runnable.html" target="_top" xlink:title="Runnable">
<polygon fill="#ffffff" stroke="#000000" points="464.5,-65.5 464.5,-84.5 521.5,-84.5 521.5,-65.5 464.5,-65.5"/>
<text text-anchor="middle" x="493" y="-72.5" font-family="Helvetica,sans-Serif" font-size="10.00" fill="#000000">Runnable</text>
</a>
</g>
</g>
<!-- Node20&#45;&gt;Node19 -->
<g id="edge7" class="edge">
<title>Node20&#45;&gt;Node19</title>
<path fill="none" stroke="#191970" d="M532.2137,-71.3868C569.107,-67.9874 623.1399,-63.0088 653.8516,-60.179"/>
<polygon fill="#191970" stroke="#191970" points="531.4648,-67.9409 521.8281,-72.3438 532.1071,-74.9114 531.4648,-67.9409"/>
</g>
<!-- Node20&#45;&gt;Node19 -->
<g id="edge8" class="edge">
<title>Node20&#45;&gt;Node19</title>
<path fill="none" stroke="#9a32cd" stroke-dasharray="5,2" d="M531.6664,-73.9016C560.5113,-72.7587 600.8363,-70.4773 636,-66 641.823,-65.2586 648.0594,-64.1993 653.8821,-63.0932"/>
<polygon fill="#9a32cd" stroke="#9a32cd" points="531.4538,-70.407 521.5896,-74.2732 531.7118,-77.4022 531.4538,-70.407"/>
<text text-anchor="middle" x="611.5" y="-73" font-family="Helvetica,sans-Serif" font-size="10.00" fill="#000000"> runnable</text>
</g>
<!-- Node24 -->
<g id="node10" class="node">
<title>Node24</title>
<g id="a_node10"><a xlink:title="STL class. ">
<polygon fill="#ffffff" stroke="#bfbfbf" points="471,-19.5 471,-38.5 515,-38.5 515,-19.5 471,-19.5"/>
<text text-anchor="middle" x="493" y="-26.5" font-family="Helvetica,sans-Serif" font-size="10.00" fill="#000000">thread</text>
</a>
</g>
</g>
<!-- Node24&#45;&gt;Node19 -->
<g id="edge12" class="edge">
<title>Node24&#45;&gt;Node19</title>
<path fill="none" stroke="#9a32cd" stroke-dasharray="5,2" d="M525.4184,-32.3306C554.5021,-35.5502 598.2844,-40.9702 636,-48 641.8285,-49.0864 648.0669,-50.4703 653.8899,-51.8598"/>
<polygon fill="#9a32cd" stroke="#9a32cd" points="525.7259,-28.8435 515.4068,-31.245 524.9712,-35.8027 525.7259,-28.8435"/>
<text text-anchor="middle" x="611.5" y="-51" font-family="Helvetica,sans-Serif" font-size="10.00" fill="#000000"> c11Thread</text>
</g>
</g>
</svg>
