<?xml version="1.0" encoding="UTF-8" standalone="no"?>
<!DOCTYPE svg PUBLIC "-//W3C//DTD SVG 1.1//EN"
 "http://www.w3.org/Graphics/SVG/1.1/DTD/svg11.dtd">
<!-- Generated by graphviz version 2.40.1 (20161225.0304)
 -->
<!-- Title: FormatterJavaStyle Pages: 1 -->
<svg width="807pt" height="435pt"
 viewBox="0.00 0.00 807.00 435.00" xmlns="http://www.w3.org/2000/svg" xmlns:xlink="http://www.w3.org/1999/xlink">
<g id="graph0" class="graph" transform="scale(1 1) rotate(0) translate(4 431)">
<title>FormatterJavaStyle</title>
<polygon fill="#ffffff" stroke="transparent" points="-4,4 -4,-431 803,-431 803,4 -4,4"/>
<!-- Node3 -->
<g id="node1" class="node">
<title>Node3</title>
<polygon fill="#bfbfbf" stroke="#000000" points="298,-.5 298,-19.5 400,-19.5 400,-.5 298,-.5"/>
<text text-anchor="middle" x="349" y="-7.5" font-family="Helvetica,sans-Serif" font-size="10.00" fill="#000000">FormatterJavaStyle</text>
</g>
<!-- Node4 -->
<g id="node2" class="node">
<title>Node4</title>
<g id="a_node2"><a xlink:href="classaworx_1_1lib_1_1strings_1_1format_1_1FormatterStdImpl.html" target="_top" xlink:title="FormatterStdImpl">
<polygon fill="#ffffff" stroke="#000000" points="303,-57.5 303,-76.5 395,-76.5 395,-57.5 303,-57.5"/>
<text text-anchor="middle" x="349" y="-64.5" font-family="Helvetica,sans-Serif" font-size="10.00" fill="#000000">FormatterStdImpl</text>
</a>
</g>
</g>
<!-- Node4&#45;&gt;Node3 -->
<g id="edge1" class="edge">
<title>Node4&#45;&gt;Node3</title>
<path fill="none" stroke="#191970" d="M349,-47.2342C349,-37.8491 349,-27.0651 349,-19.5265"/>
<polygon fill="#191970" stroke="#191970" points="345.5001,-47.3307 349,-57.3307 352.5001,-47.3308 345.5001,-47.3307"/>
</g>
<!-- Node5 -->
<g id="node3" class="node">
<title>Node5</title>
<g id="a_node3"><a xlink:href="classaworx_1_1lib_1_1strings_1_1format_1_1Formatter.html" target="_top" xlink:title="[DOX_ALIB_ENUM_META_DATA_SPECIFCATION_using_enum] ">
<polygon fill="#ffffff" stroke="#000000" points="436.5,-131 436.5,-150 495.5,-150 495.5,-131 436.5,-131"/>
<text text-anchor="middle" x="466" y="-138" font-family="Helvetica,sans-Serif" font-size="10.00" fill="#000000">Formatter</text>
</a>
</g>
</g>
<!-- Node5&#45;&gt;Node4 -->
<g id="edge2" class="edge">
<title>Node5&#45;&gt;Node4</title>
<path fill="none" stroke="#191970" d="M442.0945,-125.4825C418.8042,-110.8514 384.0966,-89.0479 364.2995,-76.6112"/>
<polygon fill="#191970" stroke="#191970" points="440.3747,-128.5353 450.7043,-130.8912 444.0984,-122.6079 440.3747,-128.5353"/>
</g>
<!-- Node5&#45;&gt;Node5 -->
<g id="edge3" class="edge">
<title>Node5&#45;&gt;Node5</title>
<path fill="none" stroke="#9a32cd" stroke-dasharray="5,2" d="M505.6722,-146.9453C510.4076,-145.7734 513.5,-143.625 513.5,-140.5 513.5,-135.5 505.5833,-133 495.6875,-133"/>
<polygon fill="#9a32cd" stroke="#9a32cd" points="505.2645,-143.4688 495.6875,-148 505.9999,-150.4301 505.2645,-143.4688"/>
<text text-anchor="middle" x="549.5" y="-143.5" font-family="Helvetica,sans-Serif" font-size="10.00" fill="#000000"> Next</text>
<text text-anchor="middle" x="549.5" y="-132.5" font-family="Helvetica,sans-Serif" font-size="10.00" fill="#000000">defaultFormatter</text>
</g>
<!-- Node6 -->
<g id="node4" class="node">
<title>Node6</title>
<g id="a_node4"><a xlink:href="classaworx_1_1lib_1_1strings_1_1AString.html" target="_top" xlink:title="AString">
<polygon fill="#ffffff" stroke="#000000" points="324.5,-216.5 324.5,-235.5 373.5,-235.5 373.5,-216.5 324.5,-216.5"/>
<text text-anchor="middle" x="349" y="-223.5" font-family="Helvetica,sans-Serif" font-size="10.00" fill="#000000">AString</text>
</a>
</g>
</g>
<!-- Node6&#45;&gt;Node4 -->
<g id="edge4" class="edge">
<title>Node6&#45;&gt;Node4</title>
<path fill="none" stroke="#9a32cd" stroke-dasharray="5,2" d="M349,-205.756C349,-171.1365 349,-101.8485 349,-76.5382"/>
<polygon fill="#9a32cd" stroke="#9a32cd" points="345.5001,-206.0538 349,-216.0538 352.5001,-206.0539 345.5001,-206.0538"/>
<text text-anchor="middle" x="374.5" y="-143.5" font-family="Helvetica,sans-Serif" font-size="10.00" fill="#000000"> fieldBuffer</text>
<text text-anchor="middle" x="374.5" y="-132.5" font-family="Helvetica,sans-Serif" font-size="10.00" fill="#000000">targetString</text>
</g>
<!-- Node6&#45;&gt;Node5 -->
<g id="edge5" class="edge">
<title>Node6&#45;&gt;Node5</title>
<path fill="none" stroke="#9a32cd" stroke-dasharray="5,2" d="M360.9348,-207.6965C368.5525,-197.0979 379.1941,-184.0967 391,-175 404.9643,-164.2402 422.8236,-155.8556 437.6113,-150.0476"/>
<polygon fill="#9a32cd" stroke="#9a32cd" points="357.8469,-206.0101 355.0656,-216.2334 363.6152,-209.9758 357.8469,-206.0101"/>
<text text-anchor="middle" x="430.5" y="-183.5" font-family="Helvetica,sans-Serif" font-size="10.00" fill="#000000"> mbsFormatString</text>
</g>
<!-- Node7 -->
<g id="node5" class="node">
<title>Node7</title>
<g id="a_node5"><a xlink:href="classaworx_1_1lib_1_1strings_1_1TString.html" target="_top" xlink:title="TString">
<polygon fill="#ffffff" stroke="#000000" points="188,-350.5 188,-369.5 236,-369.5 236,-350.5 188,-350.5"/>
<text text-anchor="middle" x="212" y="-357.5" font-family="Helvetica,sans-Serif" font-size="10.00" fill="#000000">TString</text>
</a>
</g>
</g>
<!-- Node7&#45;&gt;Node6 -->
<g id="edge6" class="edge">
<title>Node7&#45;&gt;Node6</title>
<path fill="none" stroke="#191970" d="M246.2925,-355.8092C264.0756,-352.101 285.1261,-345.1225 300,-332 330.1017,-305.4427 342.9519,-256.5564 347.2295,-235.768"/>
<polygon fill="#191970" stroke="#191970" points="245.4811,-352.3993 236.271,-357.6363 246.7367,-359.2858 245.4811,-352.3993"/>
</g>
<!-- Node18 -->
<g id="node6" class="node">
<title>Node18</title>
<g id="a_node6"><a xlink:href="classaworx_1_1lib_1_1strings_1_1NumberFormat.html" target="_top" xlink:title="NumberFormat">
<polygon fill="#ffffff" stroke="#000000" points="171.5,-176.5 171.5,-195.5 252.5,-195.5 252.5,-176.5 171.5,-176.5"/>
<text text-anchor="middle" x="212" y="-183.5" font-family="Helvetica,sans-Serif" font-size="10.00" fill="#000000">NumberFormat</text>
</a>
</g>
</g>
<!-- Node7&#45;&gt;Node18 -->
<g id="edge7" class="edge">
<title>Node7&#45;&gt;Node18</title>
<path fill="none" stroke="#9a32cd" stroke-dasharray="5,2" d="M212,-340.2961C212,-303.041 212,-223.5239 212,-195.7877"/>
<polygon fill="#9a32cd" stroke="#9a32cd" points="208.5001,-340.3971 212,-350.3972 215.5001,-340.3972 208.5001,-340.3971"/>
<text text-anchor="middle" x="254" y="-324" font-family="Helvetica,sans-Serif" font-size="10.00" fill="#000000"> Whitespaces</text>
<text text-anchor="middle" x="254" y="-313" font-family="Helvetica,sans-Serif" font-size="10.00" fill="#000000">OctLiteralPrefix</text>
<text text-anchor="middle" x="254" y="-302" font-family="Helvetica,sans-Serif" font-size="10.00" fill="#000000">INFLiteral</text>
<text text-anchor="middle" x="254" y="-291" font-family="Helvetica,sans-Serif" font-size="10.00" fill="#000000">NANLiteral</text>
<text text-anchor="middle" x="254" y="-280" font-family="Helvetica,sans-Serif" font-size="10.00" fill="#000000">ExponentSeparator</text>
<text text-anchor="middle" x="254" y="-269" font-family="Helvetica,sans-Serif" font-size="10.00" fill="#000000">BinLiteralPrefix</text>
<text text-anchor="middle" x="254" y="-258" font-family="Helvetica,sans-Serif" font-size="10.00" fill="#000000">HexLiteralPrefix</text>
</g>
<!-- Node18&#45;&gt;Node4 -->
<g id="edge14" class="edge">
<title>Node18&#45;&gt;Node4</title>
<path fill="none" stroke="#9a32cd" stroke-dasharray="5,2" d="M207.8887,-166.2601C206.2931,-153.142 206.5299,-136.1582 215,-124 235.0149,-95.2701 272.5946,-80.943 302.8751,-73.8437"/>
<polygon fill="#9a32cd" stroke="#9a32cd" points="204.4435,-166.8797 209.5195,-176.1794 211.3508,-165.7441 204.4435,-166.8797"/>
<text text-anchor="middle" x="271" y="-149" font-family="Helvetica,sans-Serif" font-size="10.00" fill="#000000"> DefaultNumberFormat</text>
<text text-anchor="middle" x="271" y="-138" font-family="Helvetica,sans-Serif" font-size="10.00" fill="#000000">AlternativeNumberFormat</text>
<text text-anchor="middle" x="271" y="-127" font-family="Helvetica,sans-Serif" font-size="10.00" fill="#000000">phaNF</text>
</g>
<!-- Node18&#45;&gt;Node18 -->
<g id="edge15" class="edge">
<title>Node18&#45;&gt;Node18</title>
<path fill="none" stroke="#9a32cd" stroke-dasharray="5,2" d="M262.8235,-191.9931C267.5317,-190.7565 270.5,-188.7588 270.5,-186 270.5,-181.5859 262.9013,-179.1203 252.735,-178.603"/>
<polygon fill="#9a32cd" stroke="#9a32cd" points="262.1571,-188.552 252.735,-193.397 263.122,-195.4852 262.1571,-188.552"/>
<text text-anchor="middle" x="302" y="-189" font-family="Helvetica,sans-Serif" font-size="10.00" fill="#000000"> Global</text>
<text text-anchor="middle" x="302" y="-178" font-family="Helvetica,sans-Serif" font-size="10.00" fill="#000000">Computational</text>
</g>
<!-- Node8 -->
<g id="node7" class="node">
<title>Node8</title>
<g id="a_node7"><a xlink:href="classaworx_1_1lib_1_1strings_1_1String.html" target="_top" xlink:title="String">
<polygon fill="#ffffff" stroke="#000000" points="72,-407.5 72,-426.5 114,-426.5 114,-407.5 72,-407.5"/>
<text text-anchor="middle" x="93" y="-414.5" font-family="Helvetica,sans-Serif" font-size="10.00" fill="#000000">String</text>
</a>
</g>
</g>
<!-- Node8&#45;&gt;Node4 -->
<g id="edge8" class="edge">
<title>Node8&#45;&gt;Node4</title>
<path fill="none" stroke="#9a32cd" stroke-dasharray="5,2" d="M62.0061,-411.3522C34.956,-404.4243 0,-389.7217 0,-360 0,-360 0,-360 0,-140.5 0,-109.9273 207.7207,-82.781 302.6555,-71.9708"/>
<polygon fill="#9a32cd" stroke="#9a32cd" points="61.3651,-414.7963 71.8969,-413.6418 62.9439,-407.9766 61.3651,-414.7963"/>
<text text-anchor="middle" x="32.5" y="-229" font-family="Helvetica,sans-Serif" font-size="10.00" fill="#000000"> formatString</text>
<text text-anchor="middle" x="32.5" y="-218" font-family="Helvetica,sans-Serif" font-size="10.00" fill="#000000">formatterName</text>
</g>
<!-- Node8&#45;&gt;Node7 -->
<g id="edge9" class="edge">
<title>Node8&#45;&gt;Node7</title>
<path fill="none" stroke="#191970" d="M122.0132,-403.1029C143.7257,-392.7028 172.8594,-378.748 192.0171,-369.5716"/>
<polygon fill="#191970" stroke="#191970" points="120.4247,-399.9829 112.9179,-407.4595 123.4487,-406.2961 120.4247,-399.9829"/>
</g>
<!-- Node19 -->
<g id="node8" class="node">
<title>Node19</title>
<g id="a_node8"><a xlink:href="classaworx_1_1lib_1_1strings_1_1Substring.html" target="_top" xlink:title="Substring">
<polygon fill="#ffffff" stroke="#000000" points="64,-284 64,-303 122,-303 122,-284 64,-284"/>
<text text-anchor="middle" x="93" y="-291" font-family="Helvetica,sans-Serif" font-size="10.00" fill="#000000">Substring</text>
</a>
</g>
</g>
<!-- Node8&#45;&gt;Node19 -->
<g id="edge10" class="edge">
<title>Node8&#45;&gt;Node19</title>
<path fill="none" stroke="#191970" d="M93,-397.1501C93,-370.2605 93,-323.3067 93,-303.1458"/>
<polygon fill="#191970" stroke="#191970" points="89.5001,-397.3091 93,-407.3092 96.5001,-397.3092 89.5001,-397.3091"/>
</g>
<!-- Node19&#45;&gt;Node4 -->
<g id="edge16" class="edge">
<title>Node19&#45;&gt;Node4</title>
<path fill="none" stroke="#9a32cd" stroke-dasharray="5,2" d="M86.4325,-274.0791C79.2999,-249.2808 71.1375,-205.8902 89,-175 124.6814,-113.2948 161.6697,-121.0957 228,-95 251.9778,-85.5667 279.9358,-78.8391 302.9335,-74.3466"/>
<polygon fill="#9a32cd" stroke="#9a32cd" points="83.1329,-275.2557 89.4436,-283.766 89.8174,-273.1777 83.1329,-275.2557"/>
<text text-anchor="middle" x="125.5" y="-189" font-family="Helvetica,sans-Serif" font-size="10.00" fill="#000000"> phaFormatSpec</text>
<text text-anchor="middle" x="125.5" y="-178" font-family="Helvetica,sans-Serif" font-size="10.00" fill="#000000">parser</text>
</g>
<!-- Node9 -->
<g id="node9" class="node">
<title>Node9</title>
<g id="a_node9"><a xlink:href="classaworx_1_1lib_1_1threads_1_1ThreadLock.html" target="_top" xlink:title="ThreadLock">
<polygon fill="#ffffff" stroke="#ff0000" points="450,-216.5 450,-235.5 518,-235.5 518,-216.5 450,-216.5"/>
<text text-anchor="middle" x="484" y="-223.5" font-family="Helvetica,sans-Serif" font-size="10.00" fill="#000000">ThreadLock</text>
</a>
</g>
</g>
<!-- Node9&#45;&gt;Node5 -->
<g id="edge11" class="edge">
<title>Node9&#45;&gt;Node5</title>
<path fill="none" stroke="#9a32cd" stroke-dasharray="5,2" d="M479.8707,-206.386C476.172,-188.8172 470.9027,-163.7877 468.0407,-150.1936"/>
<polygon fill="#9a32cd" stroke="#9a32cd" points="476.4501,-207.1276 481.9352,-216.1921 483.2999,-205.6855 476.4501,-207.1276"/>
<text text-anchor="middle" x="526" y="-183.5" font-family="Helvetica,sans-Serif" font-size="10.00" fill="#000000"> defaultFormatterLock</text>
</g>
<!-- Node15 -->
<g id="node10" class="node">
<title>Node15</title>
<g id="a_node10"><a xlink:href="classaworx_1_1lib_1_1boxing_1_1Boxes.html" target="_top" xlink:title="Boxes">
<polygon fill="#ffffff" stroke="#ff0000" points="603,-216.5 603,-235.5 647,-235.5 647,-216.5 603,-216.5"/>
<text text-anchor="middle" x="625" y="-223.5" font-family="Helvetica,sans-Serif" font-size="10.00" fill="#000000">Boxes</text>
</a>
</g>
</g>
<!-- Node15&#45;&gt;Node4 -->
<g id="edge12" class="edge">
<title>Node15&#45;&gt;Node4</title>
<path fill="none" stroke="#9a32cd" stroke-dasharray="5,2" d="M632.8722,-206.853C635.7519,-197.1279 637.535,-185.2352 634,-175 624.5959,-147.7715 618.2968,-139.4756 594,-124 561.3562,-103.2078 456.4649,-83.8825 395.0212,-73.9604"/>
<polygon fill="#9a32cd" stroke="#9a32cd" points="629.5396,-205.7794 629.5167,-216.3742 636.1416,-208.1061 629.5396,-205.7794"/>
<text text-anchor="middle" x="651.5" y="-138" font-family="Helvetica,sans-Serif" font-size="10.00" fill="#000000"> arguments</text>
</g>
<!-- Node15&#45;&gt;Node5 -->
<g id="edge13" class="edge">
<title>Node15&#45;&gt;Node5</title>
<path fill="none" stroke="#9a32cd" stroke-dasharray="5,2" d="M612.4773,-208.1888C603.9118,-197.2031 591.6629,-183.6136 578,-175 552.6995,-159.0496 519.5256,-150.0416 495.8627,-145.2624"/>
<polygon fill="#9a32cd" stroke="#9a32cd" points="609.7343,-210.3654 618.5136,-216.2962 615.3489,-206.185 609.7343,-210.3654"/>
<text text-anchor="middle" x="618" y="-183.5" font-family="Helvetica,sans-Serif" font-size="10.00" fill="#000000"> boxes</text>
</g>
<!-- Node20 -->
<g id="node11" class="node">
<title>Node20</title>
<g id="a_node11"><a xlink:href="classaworx_1_1lib_1_1boxing_1_1Box.html" target="_top" xlink:title="Box">
<polygon fill="#ffffff" stroke="#000000" points="715,-131 715,-150 749,-150 749,-131 715,-131"/>
<text text-anchor="middle" x="732" y="-138" font-family="Helvetica,sans-Serif" font-size="10.00" fill="#000000">Box</text>
</a>
</g>
</g>
<!-- Node20&#45;&gt;Node4 -->
<g id="edge17" class="edge">
<title>Node20&#45;&gt;Node4</title>
<path fill="none" stroke="#9a32cd" stroke-dasharray="5,2" d="M713.0884,-124.5335C699.7178,-114.2113 680.8792,-101.5256 662,-95 613.9167,-78.3799 469.7722,-71.1152 395.0502,-68.3957"/>
<polygon fill="#9a32cd" stroke="#9a32cd" points="711.0354,-127.3733 721.0307,-130.8869 715.4082,-121.9071 711.0354,-127.3733"/>
<text text-anchor="middle" x="715.5" y="-98" font-family="Helvetica,sans-Serif" font-size="10.00" fill="#000000"> phaArgument</text>
</g>
<!-- Node21 -->
<g id="node12" class="node">
<title>Node21</title>
<g id="a_node12"><a xlink:href="structaworx_1_1lib_1_1boxing_1_1BoxData.html" target="_top" xlink:title="BoxData">
<polygon fill="#ffffff" stroke="#000000" points="685,-216.5 685,-235.5 739,-235.5 739,-216.5 685,-216.5"/>
<text text-anchor="middle" x="712" y="-223.5" font-family="Helvetica,sans-Serif" font-size="10.00" fill="#000000">BoxData</text>
</a>
</g>
</g>
<!-- Node21&#45;&gt;Node20 -->
<g id="edge18" class="edge">
<title>Node21&#45;&gt;Node20</title>
<path fill="none" stroke="#9a32cd" stroke-dasharray="5,2" d="M716.5881,-206.386C720.6977,-188.8172 726.5526,-163.7877 729.7325,-150.1936"/>
<polygon fill="#9a32cd" stroke="#9a32cd" points="713.164,-205.6577 714.2943,-216.1921 719.98,-207.2521 713.164,-205.6577"/>
<text text-anchor="middle" x="735" y="-183.5" font-family="Helvetica,sans-Serif" font-size="10.00" fill="#000000"> data</text>
</g>
<!-- Node22 -->
<g id="node13" class="node">
<title>Node22</title>
<g id="a_node13"><a xlink:href="classaworx_1_1lib_1_1boxing_1_1Boxer.html" target="_top" xlink:title="Boxer">
<polygon fill="#ffffff" stroke="#000000" points="757,-216.5 757,-235.5 799,-235.5 799,-216.5 757,-216.5"/>
<text text-anchor="middle" x="778" y="-223.5" font-family="Helvetica,sans-Serif" font-size="10.00" fill="#000000">Boxer</text>
</a>
</g>
</g>
<!-- Node22&#45;&gt;Node20 -->
<g id="edge19" class="edge">
<title>Node22&#45;&gt;Node20</title>
<path fill="none" stroke="#9a32cd" stroke-dasharray="5,2" d="M767.9781,-207.3724C758.5056,-189.7658 744.667,-164.0442 737.2152,-150.1936"/>
<polygon fill="#9a32cd" stroke="#9a32cd" points="764.903,-209.044 772.7232,-216.1921 771.0675,-205.7274 764.903,-209.044"/>
<text text-anchor="middle" x="776" y="-183.5" font-family="Helvetica,sans-Serif" font-size="10.00" fill="#000000"> boxer</text>
</g>
</g>
</svg>
