<?xml version="1.0" encoding="UTF-8" standalone="no"?>
<!DOCTYPE svg PUBLIC "-//W3C//DTD SVG 1.1//EN"
 "http://www.w3.org/Graphics/SVG/1.1/DTD/svg11.dtd">
<!-- Generated by graphviz version 2.40.1 (20161225.0304)
 -->
<!-- Title: FormatterPythonStyle Pages: 1 -->
<svg width="809pt" height="456pt"
 viewBox="0.00 0.00 809.00 456.00" xmlns="http://www.w3.org/2000/svg" xmlns:xlink="http://www.w3.org/1999/xlink">
<g id="graph0" class="graph" transform="scale(1 1) rotate(0) translate(4 452)">
<title>FormatterPythonStyle</title>
<polygon fill="#ffffff" stroke="transparent" points="-4,4 -4,-452 805,-452 805,4 -4,4"/>
<!-- Node3 -->
<g id="node1" class="node">
<title>Node3</title>
<polygon fill="#bfbfbf" stroke="#000000" points="549,-.5 549,-19.5 661,-19.5 661,-.5 549,-.5"/>
<text text-anchor="middle" x="605" y="-7.5" font-family="Helvetica,sans-Serif" font-size="10.00" fill="#000000">FormatterPythonStyle</text>
</g>
<!-- Node18 -->
<g id="node2" class="node">
<title>Node18</title>
<polygon fill="#ffffff" stroke="#bfbfbf" points="694.5,-152 694.5,-171 779.5,-171 779.5,-152 694.5,-152"/>
<text text-anchor="middle" x="737" y="-159" font-family="Helvetica,sans-Serif" font-size="10.00" fill="#000000">vector&lt;integer&gt;</text>
</g>
<!-- Node17 -->
<g id="node14" class="node">
<title>Node17</title>
<g id="a_node14"><a xlink:href="classaworx_1_1lib_1_1strings_1_1AutoSizes.html" target="_top" xlink:title="AutoSizes">
<polygon fill="#ffffff" stroke="#000000" points="706,-67.5 706,-86.5 768,-86.5 768,-67.5 706,-67.5"/>
<text text-anchor="middle" x="737" y="-74.5" font-family="Helvetica,sans-Serif" font-size="10.00" fill="#000000">AutoSizes</text>
</a>
</g>
</g>
<!-- Node18&#45;&gt;Node17 -->
<g id="edge21" class="edge">
<title>Node18&#45;&gt;Node17</title>
<path fill="none" stroke="#9a32cd" stroke-dasharray="5,2" d="M737,-141.6221C737,-124.2864 737,-99.8886 737,-86.5802"/>
<polygon fill="#9a32cd" stroke="#9a32cd" points="733.5001,-141.8067 737,-151.8068 740.5001,-141.8068 733.5001,-141.8067"/>
<text text-anchor="middle" x="769" y="-119" font-family="Helvetica,sans-Serif" font-size="10.00" fill="#000000"> values</text>
<text text-anchor="middle" x="769" y="-108" font-family="Helvetica,sans-Serif" font-size="10.00" fill="#000000">sessionValues</text>
</g>
<!-- Node4 -->
<g id="node3" class="node">
<title>Node4</title>
<g id="a_node3"><a xlink:href="classaworx_1_1lib_1_1strings_1_1FormatterStdImpl.html" target="_top" xlink:title="FormatterStdImpl">
<polygon fill="#ffffff" stroke="#000000" points="258,-67.5 258,-86.5 350,-86.5 350,-67.5 258,-67.5"/>
<text text-anchor="middle" x="304" y="-74.5" font-family="Helvetica,sans-Serif" font-size="10.00" fill="#000000">FormatterStdImpl</text>
</a>
</g>
</g>
<!-- Node4&#45;&gt;Node3 -->
<g id="edge1" class="edge">
<title>Node4&#45;&gt;Node3</title>
<path fill="none" stroke="#191970" d="M356.9169,-65.2211C415.1966,-52.2486 507.7962,-31.6367 561.854,-19.6039"/>
<polygon fill="#191970" stroke="#191970" points="355.8069,-61.8825 346.8063,-67.4717 357.3279,-68.7153 355.8069,-61.8825"/>
</g>
<!-- Node5 -->
<g id="node4" class="node">
<title>Node5</title>
<g id="a_node4"><a xlink:href="classaworx_1_1lib_1_1strings_1_1Formatter.html" target="_top" xlink:title="Formatter">
<polygon fill="#ffffff" stroke="#000000" points="346.5,-152 346.5,-171 405.5,-171 405.5,-152 346.5,-152"/>
<text text-anchor="middle" x="376" y="-159" font-family="Helvetica,sans-Serif" font-size="10.00" fill="#000000">Formatter</text>
</a>
</g>
</g>
<!-- Node5&#45;&gt;Node4 -->
<g id="edge2" class="edge">
<title>Node5&#45;&gt;Node4</title>
<path fill="none" stroke="#191970" d="M361.1302,-144.0486C346.2926,-126.6351 324.0427,-100.5223 312.163,-86.5802"/>
<polygon fill="#191970" stroke="#191970" points="358.5909,-146.4651 367.7407,-151.8068 363.9191,-141.9252 358.5909,-146.4651"/>
</g>
<!-- Node5&#45;&gt;Node5 -->
<g id="edge3" class="edge">
<title>Node5&#45;&gt;Node5</title>
<path fill="none" stroke="#9a32cd" stroke-dasharray="5,2" d="M415.6722,-168.5898C420.4076,-167.3008 423.5,-164.9375 423.5,-161.5 423.5,-156 415.5833,-153.25 405.6875,-153.25"/>
<polygon fill="#9a32cd" stroke="#9a32cd" points="415.2167,-165.1191 405.6875,-169.75 416.0247,-172.0724 415.2167,-165.1191"/>
<text text-anchor="middle" x="435.5" y="-159" font-family="Helvetica,sans-Serif" font-size="10.00" fill="#000000"> Next</text>
</g>
<!-- Node6 -->
<g id="node5" class="node">
<title>Node6</title>
<g id="a_node5"><a xlink:href="classaworx_1_1lib_1_1strings_1_1AString.html" target="_top" xlink:title="AString">
<polygon fill="#ffffff" stroke="#000000" points="351.5,-237.5 351.5,-256.5 400.5,-256.5 400.5,-237.5 351.5,-237.5"/>
<text text-anchor="middle" x="376" y="-244.5" font-family="Helvetica,sans-Serif" font-size="10.00" fill="#000000">AString</text>
</a>
</g>
</g>
<!-- Node6&#45;&gt;Node4 -->
<g id="edge4" class="edge">
<title>Node6&#45;&gt;Node4</title>
<path fill="none" stroke="#9a32cd" stroke-dasharray="5,2" d="M410.4121,-239.2372C430.5131,-233.9288 453.0665,-226.3585 459,-218 466.4934,-207.4442 468.8269,-163.5714 456,-145 431.849,-110.033 385.3154,-92.802 350.0674,-84.4678"/>
<polygon fill="#9a32cd" stroke="#9a32cd" points="409.3683,-235.8907 400.5259,-241.7271 411.0779,-242.6788 409.3683,-235.8907"/>
<text text-anchor="middle" x="490.5" y="-164.5" font-family="Helvetica,sans-Serif" font-size="10.00" fill="#000000"> fieldBuffer</text>
<text text-anchor="middle" x="490.5" y="-153.5" font-family="Helvetica,sans-Serif" font-size="10.00" fill="#000000">targetString</text>
</g>
<!-- Node6&#45;&gt;Node5 -->
<g id="edge5" class="edge">
<title>Node6&#45;&gt;Node5</title>
<path fill="none" stroke="#9a32cd" stroke-dasharray="5,2" d="M376,-226.8868C376,-209.346 376,-184.6594 376,-171.1936"/>
<polygon fill="#9a32cd" stroke="#9a32cd" points="372.5001,-227.192 376,-237.1921 379.5001,-227.1921 372.5001,-227.192"/>
<text text-anchor="middle" x="415.5" y="-204.5" font-family="Helvetica,sans-Serif" font-size="10.00" fill="#000000"> mbsFormatString</text>
</g>
<!-- Node7 -->
<g id="node6" class="node">
<title>Node7</title>
<g id="a_node6"><a xlink:href="classaworx_1_1lib_1_1strings_1_1TString.html" target="_top" xlink:title="TString">
<polygon fill="#ffffff" stroke="#000000" points="226,-371.5 226,-390.5 274,-390.5 274,-371.5 226,-371.5"/>
<text text-anchor="middle" x="250" y="-378.5" font-family="Helvetica,sans-Serif" font-size="10.00" fill="#000000">TString</text>
</a>
</g>
</g>
<!-- Node7&#45;&gt;Node6 -->
<g id="edge6" class="edge">
<title>Node7&#45;&gt;Node6</title>
<path fill="none" stroke="#191970" d="M266.1996,-363.7718C293.06,-335.206 345.9436,-278.9648 367.0205,-256.5496"/>
<polygon fill="#191970" stroke="#191970" points="263.3621,-361.6802 259.0616,-371.3631 268.4617,-366.4754 263.3621,-361.6802"/>
</g>
<!-- Node12 -->
<g id="node7" class="node">
<title>Node12</title>
<g id="a_node7"><a xlink:href="classaworx_1_1lib_1_1strings_1_1NumberFormat.html" target="_top" xlink:title="NumberFormat">
<polygon fill="#ffffff" stroke="#000000" points="15.5,-197.5 15.5,-216.5 96.5,-216.5 96.5,-197.5 15.5,-197.5"/>
<text text-anchor="middle" x="56" y="-204.5" font-family="Helvetica,sans-Serif" font-size="10.00" fill="#000000">NumberFormat</text>
</a>
</g>
</g>
<!-- Node7&#45;&gt;Node12 -->
<g id="edge7" class="edge">
<title>Node7&#45;&gt;Node12</title>
<path fill="none" stroke="#9a32cd" stroke-dasharray="5,2" d="M216.5741,-368.2085C207.5441,-364.0195 198.0513,-358.9003 190,-353 132.8335,-311.1061 80.9014,-242.097 62.7961,-216.7384"/>
<polygon fill="#9a32cd" stroke="#9a32cd" points="215.1734,-371.416 225.7369,-372.231 217.9873,-365.0065 215.1734,-371.416"/>
<text text-anchor="middle" x="232" y="-345" font-family="Helvetica,sans-Serif" font-size="10.00" fill="#000000"> Whitespaces</text>
<text text-anchor="middle" x="232" y="-334" font-family="Helvetica,sans-Serif" font-size="10.00" fill="#000000">OctLiteralPrefix</text>
<text text-anchor="middle" x="232" y="-323" font-family="Helvetica,sans-Serif" font-size="10.00" fill="#000000">INFLiteral</text>
<text text-anchor="middle" x="232" y="-312" font-family="Helvetica,sans-Serif" font-size="10.00" fill="#000000">NANLiteral</text>
<text text-anchor="middle" x="232" y="-301" font-family="Helvetica,sans-Serif" font-size="10.00" fill="#000000">ExponentSeparator</text>
<text text-anchor="middle" x="232" y="-290" font-family="Helvetica,sans-Serif" font-size="10.00" fill="#000000">BinLiteralPrefix</text>
<text text-anchor="middle" x="232" y="-279" font-family="Helvetica,sans-Serif" font-size="10.00" fill="#000000">HexLiteralPrefix</text>
</g>
<!-- Node12&#45;&gt;Node4 -->
<g id="edge13" class="edge">
<title>Node12&#45;&gt;Node4</title>
<path fill="none" stroke="#9a32cd" stroke-dasharray="5,2" d="M53.7671,-187.2066C53.3672,-173.7999 55.1736,-156.4987 65,-145 89.9433,-115.8116 195.7467,-94.3381 257.905,-83.9623"/>
<polygon fill="#9a32cd" stroke="#9a32cd" points="50.2874,-187.6156 54.4944,-197.3393 57.2694,-187.1144 50.2874,-187.6156"/>
<text text-anchor="middle" x="121" y="-170" font-family="Helvetica,sans-Serif" font-size="10.00" fill="#000000"> DefaultNumberFormat</text>
<text text-anchor="middle" x="121" y="-159" font-family="Helvetica,sans-Serif" font-size="10.00" fill="#000000">AlternativeNumberFormat</text>
<text text-anchor="middle" x="121" y="-148" font-family="Helvetica,sans-Serif" font-size="10.00" fill="#000000">phaNF</text>
</g>
<!-- Node12&#45;&gt;Node12 -->
<g id="edge14" class="edge">
<title>Node12&#45;&gt;Node12</title>
<path fill="none" stroke="#9a32cd" stroke-dasharray="5,2" d="M106.8235,-212.9931C111.5317,-211.7565 114.5,-209.7588 114.5,-207 114.5,-202.5859 106.9013,-200.1203 96.735,-199.603"/>
<polygon fill="#9a32cd" stroke="#9a32cd" points="106.1571,-209.552 96.735,-214.397 107.122,-216.4852 106.1571,-209.552"/>
<text text-anchor="middle" x="146" y="-210" font-family="Helvetica,sans-Serif" font-size="10.00" fill="#000000"> Global</text>
<text text-anchor="middle" x="146" y="-199" font-family="Helvetica,sans-Serif" font-size="10.00" fill="#000000">Computational</text>
</g>
<!-- Node8 -->
<g id="node8" class="node">
<title>Node8</title>
<g id="a_node8"><a xlink:href="classaworx_1_1lib_1_1strings_1_1String.html" target="_top" xlink:title="String">
<polygon fill="#ffffff" stroke="#000000" points="229,-428.5 229,-447.5 271,-447.5 271,-428.5 229,-428.5"/>
<text text-anchor="middle" x="250" y="-435.5" font-family="Helvetica,sans-Serif" font-size="10.00" fill="#000000">String</text>
</a>
</g>
</g>
<!-- Node8&#45;&gt;Node4 -->
<g id="edge8" class="edge">
<title>Node8&#45;&gt;Node4</title>
<path fill="none" stroke="#9a32cd" stroke-dasharray="5,2" d="M218.6773,-437.3797C151.5763,-435.2009 0,-425.3688 0,-381 0,-381 0,-381 0,-161.5 0,-114.6469 44.9486,-120.9589 89,-105 119.0821,-94.1019 204.0219,-85.3304 257.6959,-80.667"/>
<polygon fill="#9a32cd" stroke="#9a32cd" points="218.5885,-440.8785 228.6851,-437.6678 218.79,-433.8814 218.5885,-440.8785"/>
<text text-anchor="middle" x="32.5" y="-250" font-family="Helvetica,sans-Serif" font-size="10.00" fill="#000000"> formatString</text>
<text text-anchor="middle" x="32.5" y="-239" font-family="Helvetica,sans-Serif" font-size="10.00" fill="#000000">formatterName</text>
</g>
<!-- Node8&#45;&gt;Node7 -->
<g id="edge9" class="edge">
<title>Node8&#45;&gt;Node7</title>
<path fill="none" stroke="#191970" d="M250,-418.2342C250,-408.8491 250,-398.0651 250,-390.5265"/>
<polygon fill="#191970" stroke="#191970" points="246.5001,-418.3307 250,-428.3307 253.5001,-418.3308 246.5001,-418.3307"/>
</g>
<!-- Node13 -->
<g id="node9" class="node">
<title>Node13</title>
<g id="a_node9"><a xlink:href="classaworx_1_1lib_1_1strings_1_1Substring.html" target="_top" xlink:title="Substring">
<polygon fill="#ffffff" stroke="#000000" points="553,-152 553,-171 611,-171 611,-152 553,-152"/>
<text text-anchor="middle" x="582" y="-159" font-family="Helvetica,sans-Serif" font-size="10.00" fill="#000000">Substring</text>
</a>
</g>
</g>
<!-- Node8&#45;&gt;Node13 -->
<g id="edge10" class="edge">
<title>Node8&#45;&gt;Node13</title>
<path fill="none" stroke="#191970" d="M269.2092,-422.002C330.6197,-370.8574 521.0288,-212.2787 570.2761,-171.264"/>
<polygon fill="#191970" stroke="#191970" points="266.8725,-419.3932 261.4282,-428.4822 271.3522,-424.7721 266.8725,-419.3932"/>
</g>
<!-- Node13&#45;&gt;Node3 -->
<g id="edge15" class="edge">
<title>Node13&#45;&gt;Node3</title>
<path fill="none" stroke="#9a32cd" stroke-dasharray="5,2" d="M587.5623,-142.071C588.8256,-137.1811 590.0679,-131.9226 591,-127 598.4598,-87.6035 602.7033,-39.9497 604.2827,-19.776"/>
<polygon fill="#9a32cd" stroke="#9a32cd" points="584.1326,-141.3448 584.8759,-151.9135 590.8856,-143.188 584.1326,-141.3448"/>
<text text-anchor="middle" x="641.5" y="-74.5" font-family="Helvetica,sans-Serif" font-size="10.00" fill="#000000"> phaExtConversion</text>
</g>
<!-- Node13&#45;&gt;Node4 -->
<g id="edge16" class="edge">
<title>Node13&#45;&gt;Node4</title>
<path fill="none" stroke="#9a32cd" stroke-dasharray="5,2" d="M551.7187,-147.3034C540.7104,-141.6008 528.4222,-134.5797 518,-127 506.5599,-118.68 507.7104,-111.2085 495,-105 470.2315,-92.9017 398.4292,-84.7902 350.266,-80.5373"/>
<polygon fill="#9a32cd" stroke="#9a32cd" points="550.4769,-150.5963 560.9841,-151.9562 553.6183,-144.3407 550.4769,-150.5963"/>
<text text-anchor="middle" x="554.5" y="-119" font-family="Helvetica,sans-Serif" font-size="10.00" fill="#000000"> phaFormatSpec</text>
<text text-anchor="middle" x="554.5" y="-108" font-family="Helvetica,sans-Serif" font-size="10.00" fill="#000000">parser</text>
</g>
<!-- Node9 -->
<g id="node10" class="node">
<title>Node9</title>
<g id="a_node10"><a xlink:href="classaworx_1_1lib_1_1boxing_1_1Boxes.html" target="_top" xlink:title="Boxes">
<polygon fill="#ffffff" stroke="#ff0000" points="287,-237.5 287,-256.5 331,-256.5 331,-237.5 287,-237.5"/>
<text text-anchor="middle" x="309" y="-244.5" font-family="Helvetica,sans-Serif" font-size="10.00" fill="#000000">Boxes</text>
</a>
</g>
</g>
<!-- Node9&#45;&gt;Node4 -->
<g id="edge11" class="edge">
<title>Node9&#45;&gt;Node4</title>
<path fill="none" stroke="#9a32cd" stroke-dasharray="5,2" d="M301.4422,-227.6873C296.522,-214.0444 290.5595,-195.2001 288,-178 283.0092,-144.4603 294.3721,-104.7459 300.4641,-86.7407"/>
<polygon fill="#9a32cd" stroke="#9a32cd" points="298.29,-229.2495 305.0797,-237.3828 304.8439,-226.7905 298.29,-229.2495"/>
<text text-anchor="middle" x="312.5" y="-159" font-family="Helvetica,sans-Serif" font-size="10.00" fill="#000000"> arguments</text>
</g>
<!-- Node9&#45;&gt;Node5 -->
<g id="edge12" class="edge">
<title>Node9&#45;&gt;Node5</title>
<path fill="none" stroke="#9a32cd" stroke-dasharray="5,2" d="M319.7042,-228.508C325.7814,-218.5396 333.7973,-206.2227 342,-196 349.1575,-187.0798 358.3059,-177.9005 365.3098,-171.2549"/>
<polygon fill="#9a32cd" stroke="#9a32cd" points="316.6371,-226.8178 314.5288,-237.2008 322.6519,-230.3989 316.6371,-226.8178"/>
<text text-anchor="middle" x="357" y="-204.5" font-family="Helvetica,sans-Serif" font-size="10.00" fill="#000000"> boxes</text>
</g>
<!-- Node14 -->
<g id="node11" class="node">
<title>Node14</title>
<g id="a_node11"><a xlink:href="classaworx_1_1lib_1_1boxing_1_1Box.html" target="_top" xlink:title="Box">
<polygon fill="#ffffff" stroke="#000000" points="186,-152 186,-171 220,-171 220,-152 186,-152"/>
<text text-anchor="middle" x="203" y="-159" font-family="Helvetica,sans-Serif" font-size="10.00" fill="#000000">Box</text>
</a>
</g>
</g>
<!-- Node14&#45;&gt;Node4 -->
<g id="edge17" class="edge">
<title>Node14&#45;&gt;Node4</title>
<path fill="none" stroke="#9a32cd" stroke-dasharray="5,2" d="M197.9558,-142.1142C196.0651,-130.2215 196.0102,-115.3429 204,-105 210.9161,-96.0471 235.0841,-89.143 257.927,-84.4306"/>
<polygon fill="#9a32cd" stroke="#9a32cd" points="194.5475,-142.915 200.03,-151.981 201.3978,-141.4749 194.5475,-142.915"/>
<text text-anchor="middle" x="234.5" y="-113.5" font-family="Helvetica,sans-Serif" font-size="10.00" fill="#000000"> phaArgument</text>
</g>
<!-- Node15 -->
<g id="node12" class="node">
<title>Node15</title>
<g id="a_node12"><a xlink:href="structaworx_1_1lib_1_1boxing_1_1BoxData.html" target="_top" xlink:title="BoxData">
<polygon fill="#ffffff" stroke="#000000" points="154,-237.5 154,-256.5 208,-256.5 208,-237.5 154,-237.5"/>
<text text-anchor="middle" x="181" y="-244.5" font-family="Helvetica,sans-Serif" font-size="10.00" fill="#000000">BoxData</text>
</a>
</g>
</g>
<!-- Node15&#45;&gt;Node14 -->
<g id="edge18" class="edge">
<title>Node15&#45;&gt;Node14</title>
<path fill="none" stroke="#9a32cd" stroke-dasharray="5,2" d="M186.0469,-227.386C190.5675,-209.8172 197.0078,-184.7877 200.5058,-171.1936"/>
<polygon fill="#9a32cd" stroke="#9a32cd" points="182.6261,-226.6353 183.5237,-237.1921 189.4053,-228.3797 182.6261,-226.6353"/>
<text text-anchor="middle" x="205" y="-204.5" font-family="Helvetica,sans-Serif" font-size="10.00" fill="#000000"> data</text>
</g>
<!-- Node16 -->
<g id="node13" class="node">
<title>Node16</title>
<g id="a_node13"><a xlink:href="classaworx_1_1lib_1_1boxing_1_1Boxer.html" target="_top" xlink:title="Boxer">
<polygon fill="#ffffff" stroke="#000000" points="226,-237.5 226,-256.5 268,-256.5 268,-237.5 226,-237.5"/>
<text text-anchor="middle" x="247" y="-244.5" font-family="Helvetica,sans-Serif" font-size="10.00" fill="#000000">Boxer</text>
</a>
</g>
</g>
<!-- Node16&#45;&gt;Node14 -->
<g id="edge19" class="edge">
<title>Node16&#45;&gt;Node14</title>
<path fill="none" stroke="#9a32cd" stroke-dasharray="5,2" d="M237.1611,-227.8813C228.1086,-210.2905 215.0503,-184.9159 207.9885,-171.1936"/>
<polygon fill="#9a32cd" stroke="#9a32cd" points="234.2647,-229.9019 241.9526,-237.1921 240.4888,-226.6988 234.2647,-229.9019"/>
<text text-anchor="middle" x="246" y="-204.5" font-family="Helvetica,sans-Serif" font-size="10.00" fill="#000000"> boxer</text>
</g>
<!-- Node17&#45;&gt;Node3 -->
<g id="edge20" class="edge">
<title>Node17&#45;&gt;Node3</title>
<path fill="none" stroke="#9a32cd" stroke-dasharray="5,2" d="M708.8855,-62.7298C683.2596,-49.7227 646.1122,-30.8676 623.8773,-19.5817"/>
<polygon fill="#9a32cd" stroke="#9a32cd" points="707.5864,-65.9954 718.0876,-67.4005 710.7547,-59.7534 707.5864,-65.9954"/>
<text text-anchor="middle" x="700" y="-41" font-family="Helvetica,sans-Serif" font-size="10.00" fill="#000000"> TabSizes</text>
</g>
</g>
</svg>
