<?xml version="1.0" encoding="UTF-8" standalone="no"?>
<!DOCTYPE svg PUBLIC "-//W3C//DTD SVG 1.1//EN"
 "http://www.w3.org/Graphics/SVG/1.1/DTD/svg11.dtd">
<!-- Generated by graphviz version 2.38.0 (20140413.2041)
 -->
<!-- Title: EnvironmentPlugIn Pages: 1 -->
<svg width="624pt" height="214pt"
 viewBox="0.00 0.00 624.00 214.00" xmlns="http://www.w3.org/2000/svg" xmlns:xlink="http://www.w3.org/1999/xlink">
<g id="graph0" class="graph" transform="scale(1 1) rotate(0) translate(4 210)">
<title>EnvironmentPlugIn</title>
<polygon fill="white" stroke="none" points="-4,4 -4,-210 620,-210 620,4 -4,4"/>
<!-- Node1 -->
<g id="node1" class="node"><title>Node1</title>
<polygon fill="#bfbfbf" stroke="black" points="12,-186.5 12,-205.5 111,-205.5 111,-186.5 12,-186.5"/>
<text text-anchor="middle" x="61.5" y="-193.5" font-family="Helvetica,sans-Serif" font-size="10.00">EnvironmentPlugIn</text>
</g>
<!-- Node3 -->
<g id="node3" class="node"><title>Node3</title>
<g id="a_node3"><a xlink:href="classaworx_1_1lib_1_1config_1_1Configuration.html" target="_top" xlink:title="Configuration">
<polygon fill="white" stroke="black" points="228,-116.5 228,-135.5 302,-135.5 302,-116.5 228,-116.5"/>
<text text-anchor="middle" x="265" y="-123.5" font-family="Helvetica,sans-Serif" font-size="10.00">Configuration</text>
</a>
</g>
</g>
<!-- Node1&#45;&gt;Node3 -->
<g id="edge8" class="edge"><title>Node1&#45;&gt;Node3</title>
<path fill="none" stroke="#9a32cd" stroke-dasharray="5,2" d="M108.705,-183.67C138.058,-175.405 176.665,-163.732 210,-151 221.774,-146.503 234.59,-140.614 244.781,-135.682"/>
<polygon fill="#9a32cd" stroke="#9a32cd" points="107.427,-180.392 98.7326,-186.447 109.305,-187.136 107.427,-180.392"/>
<text text-anchor="middle" x="175.5" y="-176" font-family="Helvetica,sans-Serif" font-size="10.00"> envCP</text>
</g>
<!-- Node2 -->
<g id="node2" class="node"><title>Node2</title>
<g id="a_node2"><a xlink:href="classaworx_1_1lib_1_1config_1_1ConfigurationPlugIn.html" target="_top" xlink:title="ConfigurationPlugIn">
<polygon fill="white" stroke="black" points="370,-155.5 370,-174.5 472,-174.5 472,-155.5 370,-155.5"/>
<text text-anchor="middle" x="421" y="-162.5" font-family="Helvetica,sans-Serif" font-size="10.00">ConfigurationPlugIn</text>
</a>
</g>
</g>
<!-- Node2&#45;&gt;Node1 -->
<g id="edge1" class="edge"><title>Node2&#45;&gt;Node1</title>
<path fill="none" stroke="midnightblue" d="M359.918,-171.523C317.949,-175.954 260.596,-181.756 210,-186 177.006,-188.767 139.811,-191.285 111.026,-193.102"/>
<polygon fill="midnightblue" stroke="midnightblue" points="360.398,-174.992 369.973,-170.457 359.66,-168.031 360.398,-174.992"/>
</g>
<!-- Node8 -->
<g id="node8" class="node"><title>Node8</title>
<g id="a_node8"><a xlink:href="classaworx_1_1lib_1_1config_1_1CommandLinePlugIn.html" target="_top" xlink:title="CommandLinePlugIn">
<polygon fill="white" stroke="black" points="509,-132.5 509,-151.5 616,-151.5 616,-132.5 509,-132.5"/>
<text text-anchor="middle" x="562.5" y="-139.5" font-family="Helvetica,sans-Serif" font-size="10.00">CommandLinePlugIn</text>
</a>
</g>
</g>
<!-- Node2&#45;&gt;Node8 -->
<g id="edge10" class="edge"><title>Node2&#45;&gt;Node8</title>
<path fill="none" stroke="midnightblue" d="M482.245,-155.067C491.104,-153.607 500.171,-152.112 508.86,-150.679"/>
<polygon fill="midnightblue" stroke="midnightblue" points="481.66,-151.616 472.363,-156.696 482.799,-158.523 481.66,-151.616"/>
</g>
<!-- Node3&#45;&gt;Node2 -->
<g id="edge2" class="edge"><title>Node3&#45;&gt;Node2</title>
<path fill="none" stroke="#9a32cd" stroke-dasharray="5,2" d="M311.922,-137.935C314.655,-138.636 317.363,-139.329 320,-140 340.29,-145.166 362.922,-150.832 381.516,-155.462"/>
<polygon fill="#9a32cd" stroke="#9a32cd" points="312.564,-134.486 302.007,-135.382 310.818,-141.265 312.564,-134.486"/>
<text text-anchor="middle" x="336" y="-150" font-family="Helvetica,sans-Serif" font-size="10.00"> Parent</text>
</g>
<!-- Node4 -->
<g id="node4" class="node"><title>Node4</title>
<g id="a_node4"><a xlink:href="classaworx_1_1lib_1_1threads_1_1ThreadLock.html" target="_top" xlink:title="ThreadLock">
<polygon fill="white" stroke="red" points="27.5,-143.5 27.5,-162.5 95.5,-162.5 95.5,-143.5 27.5,-143.5"/>
<text text-anchor="middle" x="61.5" y="-150.5" font-family="Helvetica,sans-Serif" font-size="10.00">ThreadLock</text>
</a>
</g>
</g>
<!-- Node4&#45;&gt;Node3 -->
<g id="edge3" class="edge"><title>Node4&#45;&gt;Node3</title>
<path fill="none" stroke="midnightblue" d="M106.092,-147.159C142.511,-142.279 193.82,-135.404 227.954,-130.83"/>
<polygon fill="midnightblue" stroke="midnightblue" points="105.22,-143.744 95.7736,-148.541 106.15,-150.682 105.22,-143.744"/>
</g>
<!-- Node5 -->
<g id="node5" class="node"><title>Node5</title>
<polygon fill="white" stroke="#bfbfbf" points="0,-105.5 0,-124.5 123,-124.5 123,-105.5 0,-105.5"/>
<text text-anchor="middle" x="61.5" y="-112.5" font-family="Helvetica,sans-Serif" font-size="10.00">vector&lt; PrioAndPlugin &gt;</text>
</g>
<!-- Node5&#45;&gt;Node3 -->
<g id="edge4" class="edge"><title>Node5&#45;&gt;Node3</title>
<path fill="none" stroke="#9a32cd" stroke-dasharray="5,2" d="M133.48,-112.953C157.791,-112.923 185.128,-113.631 210,-116 215.79,-116.551 221.886,-117.408 227.815,-118.392"/>
<polygon fill="#9a32cd" stroke="#9a32cd" points="133.243,-109.454 123.262,-113.009 133.281,-116.454 133.243,-109.454"/>
<text text-anchor="middle" x="175.5" y="-119" font-family="Helvetica,sans-Serif" font-size="10.00"> plugins</text>
</g>
<!-- Node6 -->
<g id="node6" class="node"><title>Node6</title>
<g id="a_node6"><a xlink:href="classaworx_1_1lib_1_1strings_1_1NumberFormat.html" target="_top" xlink:title="NumberFormat">
<polygon fill="white" stroke="red" points="20.5,-38.5 20.5,-57.5 102.5,-57.5 102.5,-38.5 20.5,-38.5"/>
<text text-anchor="middle" x="61.5" y="-45.5" font-family="Helvetica,sans-Serif" font-size="10.00">NumberFormat</text>
</a>
</g>
</g>
<!-- Node6&#45;&gt;Node3 -->
<g id="edge5" class="edge"><title>Node6&#45;&gt;Node3</title>
<path fill="none" stroke="#9a32cd" stroke-dasharray="5,2" d="M106.469,-60.4365C136.187,-69.3664 176.046,-82.3722 210,-97 223.096,-102.642 237.277,-110.323 247.82,-116.363"/>
<polygon fill="#9a32cd" stroke="#9a32cd" points="107.385,-57.0576 96.8022,-57.5678 105.393,-63.7683 107.385,-57.0576"/>
<text text-anchor="middle" x="175.5" y="-100" font-family="Helvetica,sans-Serif" font-size="10.00"> NumberFormat</text>
</g>
<!-- Node6&#45;&gt;Node6 -->
<g id="edge6" class="edge"><title>Node6&#45;&gt;Node6</title>
<path fill="none" stroke="#9a32cd" stroke-dasharray="5,2" d="M40.3899,-67.4C41.7997,-72.3146 48.8364,-76 61.5,-76 81.7617,-76 87.6186,-66.5653 79.0707,-57.7571"/>
<polygon fill="#9a32cd" stroke="#9a32cd" points="43.7693,-68.3507 43.9293,-57.7571 37.1979,-65.9387 43.7693,-68.3507"/>
<text text-anchor="middle" x="61.5" y="-79" font-family="Helvetica,sans-Serif" font-size="10.00"> Global</text>
</g>
<!-- Node7 -->
<g id="node7" class="node"><title>Node7</title>
<polygon fill="white" stroke="#bfbfbf" points="6.5,-0.5 6.5,-19.5 116.5,-19.5 116.5,-0.5 6.5,-0.5"/>
<text text-anchor="middle" x="61.5" y="-7.5" font-family="Helvetica,sans-Serif" font-size="10.00">vector&lt; strings::AS &gt;</text>
</g>
<!-- Node7&#45;&gt;Node3 -->
<g id="edge7" class="edge"><title>Node7&#45;&gt;Node3</title>
<path fill="none" stroke="#9a32cd" stroke-dasharray="5,2" d="M126.439,-20.9595C153.904,-27.8457 185.293,-38.8048 210,-56 233.18,-72.1326 250.935,-101.237 259.089,-116.332"/>
<polygon fill="#9a32cd" stroke="#9a32cd" points="127.055,-17.5087 116.517,-18.6028 125.438,-24.3192 127.055,-17.5087"/>
<text text-anchor="middle" x="175.5" y="-59" font-family="Helvetica,sans-Serif" font-size="10.00"> TrueValues</text>
</g>
<!-- Node8&#45;&gt;Node3 -->
<g id="edge9" class="edge"><title>Node8&#45;&gt;Node3</title>
<path fill="none" stroke="#9a32cd" stroke-dasharray="5,2" d="M498.9,-136.828C489.877,-136.163 480.703,-135.53 472,-135 412.507,-131.375 343.262,-128.658 302.116,-127.202"/>
<polygon fill="#9a32cd" stroke="#9a32cd" points="498.755,-140.327 508.99,-137.589 499.281,-133.347 498.755,-140.327"/>
<text text-anchor="middle" x="421" y="-138" font-family="Helvetica,sans-Serif" font-size="10.00"> cmdLineCP</text>
</g>
</g>
</svg>
