<?xml version="1.0" encoding="UTF-8" standalone="no"?>
<!DOCTYPE svg PUBLIC "-//W3C//DTD SVG 1.1//EN"
 "http://www.w3.org/Graphics/SVG/1.1/DTD/svg11.dtd">
<!-- Generated by graphviz version 2.40.1 (20161225.0304)
 -->
<!-- Title: StringTree&lt;T, TKeyAllocator, TSeparator&gt;::StdIterator Pages: 1 -->
<svg width="1032pt" height="133pt"
 viewBox="0.00 0.00 1032.00 133.00" xmlns="http://www.w3.org/2000/svg" xmlns:xlink="http://www.w3.org/1999/xlink">
<g id="graph0" class="graph" transform="scale(1 1) rotate(0) translate(4 129)">
<title>StringTree&lt;T, TKeyAllocator, TSeparator&gt;::StdIterator</title>
<polygon fill="#ffffff" stroke="transparent" points="-4,4 -4,-129 1028,-129 1028,4 -4,4"/>
<!-- Node2 -->
<g id="node1" class="node">
<title>Node2</title>
<polygon fill="#bfbfbf" stroke="#000000" points="773,-60.5 773,-79.5 1024,-79.5 1024,-60.5 773,-60.5"/>
<text text-anchor="middle" x="898.5" y="-67.5" font-family="Helvetica,sans-Serif" font-size="10.00" fill="#000000">StringTree&lt;T, TKeyAllocator, TSeparator&gt;::StdIterator</text>
</g>
<!-- Node3 -->
<g id="node2" class="node">
<title>Node3</title>
<polygon fill="#ffffff" stroke="#bfbfbf" points="523.5,-98.5 523.5,-117.5 669.5,-117.5 669.5,-98.5 523.5,-98.5"/>
<text text-anchor="middle" x="596.5" y="-105.5" font-family="Helvetica,sans-Serif" font-size="10.00" fill="#000000">iterator&lt;input_iterator_tag, T&gt;</text>
</g>
<!-- Node3&#45;&gt;Node2 -->
<g id="edge1" class="edge">
<title>Node3&#45;&gt;Node2</title>
<path fill="none" stroke="#191970" d="M679.592,-97.5447C724.4087,-91.9055 779.306,-84.9979 822.9136,-79.5109"/>
<polygon fill="#191970" stroke="#191970" points="679.0906,-94.0801 669.6058,-98.8013 679.9645,-101.0254 679.0906,-94.0801"/>
</g>
<!-- Node4 -->
<g id="node3" class="node">
<title>Node4</title>
<polygon fill="#ffffff" stroke="#bfbfbf" points="484,-60.5 484,-79.5 709,-79.5 709,-60.5 484,-60.5"/>
<text text-anchor="middle" x="596.5" y="-67.5" font-family="Helvetica,sans-Serif" font-size="10.00" fill="#000000">stack&lt;StringTree::StdIterator::RecursionDataIt&gt;</text>
</g>
<!-- Node4&#45;&gt;Node2 -->
<g id="edge2" class="edge">
<title>Node4&#45;&gt;Node2</title>
<path fill="none" stroke="#9a32cd" stroke-dasharray="5,2" d="M719.6419,-70C737.1801,-70 755.2378,-70 772.8237,-70"/>
<polygon fill="#9a32cd" stroke="#9a32cd" points="719.3831,-66.5001 709.3831,-70 719.3831,-73.5001 719.3831,-66.5001"/>
<text text-anchor="middle" x="741" y="-73" font-family="Helvetica,sans-Serif" font-size="10.00" fill="#000000"> stack</text>
</g>
<!-- Node10 -->
<g id="node4" class="node">
<title>Node10</title>
<g id="a_node4"><a xlink:href="classaworx_1_1lib_1_1util_1_1StringTree.html" target="_top" xlink:title="StringTree\&lt;T, TKeyAllocator, TSeparator\&gt;">
<polygon fill="#ffffff" stroke="#000000" points="266,-6.5 266,-25.5 466,-25.5 466,-6.5 266,-6.5"/>
<text text-anchor="middle" x="366" y="-13.5" font-family="Helvetica,sans-Serif" font-size="10.00" fill="#000000">StringTree&lt;T, TKeyAllocator, TSeparator&gt;</text>
</a>
</g>
</g>
<!-- Node10&#45;&gt;Node2 -->
<g id="edge9" class="edge">
<title>Node10&#45;&gt;Node2</title>
<path fill="none" stroke="#9a32cd" stroke-dasharray="5,2" d="M476.229,-21.266C543.5948,-25.0914 631.43,-31.1631 709,-40 755.6639,-45.316 808.4113,-53.8769 846.3849,-60.4956"/>
<polygon fill="#9a32cd" stroke="#9a32cd" points="476.2004,-17.759 466.0204,-20.6945 475.8091,-24.748 476.2004,-17.759"/>
<text text-anchor="middle" x="596.5" y="-43" font-family="Helvetica,sans-Serif" font-size="10.00" fill="#000000"> stringTree</text>
</g>
<!-- Node5 -->
<g id="node5" class="node">
<title>Node5</title>
<g id="a_node5"><a xlink:href="structaworx_1_1lib_1_1util_1_1StringTree_1_1StdIterator_1_1RecursionDataIt.html" target="_top" xlink:title="RecursionDataIt">
<polygon fill="#ffffff" stroke="#000000" points="162,-66.5 162,-85.5 248,-85.5 248,-66.5 162,-66.5"/>
<text text-anchor="middle" x="205" y="-73.5" font-family="Helvetica,sans-Serif" font-size="10.00" fill="#000000">RecursionDataIt</text>
</a>
</g>
</g>
<!-- Node5&#45;&gt;Node4 -->
<g id="edge3" class="edge">
<title>Node5&#45;&gt;Node4</title>
<path fill="none" stroke="#9a32cd" stroke-dasharray="5,2" d="M258.3608,-75.1822C316.0664,-74.2978 409.7386,-72.8622 483.8749,-71.7261"/>
<polygon fill="#9a32cd" stroke="#9a32cd" points="257.9624,-71.6878 248.0173,-75.3407 258.0697,-78.687 257.9624,-71.6878"/>
<text text-anchor="middle" x="366" y="-77" font-family="Helvetica,sans-Serif" font-size="10.00" fill="#000000"> elements</text>
</g>
<!-- Node6 -->
<g id="node6" class="node">
<title>Node6</title>
<g id="a_node6"><a xlink:title="STL iterator class. ">
<polygon fill="#ffffff" stroke="#bfbfbf" points="0,-105.5 0,-124.5 76,-124.5 76,-105.5 0,-105.5"/>
<text text-anchor="middle" x="38" y="-112.5" font-family="Helvetica,sans-Serif" font-size="10.00" fill="#000000">const_iterator</text>
</a>
</g>
</g>
<!-- Node6&#45;&gt;Node5 -->
<g id="edge4" class="edge">
<title>Node6&#45;&gt;Node5</title>
<path fill="none" stroke="#9a32cd" stroke-dasharray="5,2" d="M86.0947,-104.3077C104.2573,-100.2181 125.097,-95.4637 144,-91 151.3236,-89.2706 159.1307,-87.3838 166.6288,-85.55"/>
<polygon fill="#9a32cd" stroke="#9a32cd" points="85.2991,-100.8991 76.309,-106.5053 86.8329,-107.729 85.2991,-100.8991"/>
<text text-anchor="middle" x="119" y="-105" font-family="Helvetica,sans-Serif" font-size="10.00" fill="#000000"> actChild</text>
</g>
<!-- Node7 -->
<g id="node7" class="node">
<title>Node7</title>
<g id="a_node7"><a xlink:href="classaworx_1_1lib_1_1strings_1_1String.html" target="_top" xlink:title="String">
<polygon fill="#ffffff" stroke="#000000" points="17,-67.5 17,-86.5 59,-86.5 59,-67.5 17,-67.5"/>
<text text-anchor="middle" x="38" y="-74.5" font-family="Helvetica,sans-Serif" font-size="10.00" fill="#000000">String</text>
</a>
</g>
</g>
<!-- Node7&#45;&gt;Node5 -->
<g id="edge5" class="edge">
<title>Node7&#45;&gt;Node5</title>
<path fill="none" stroke="#9a32cd" stroke-dasharray="5,2" d="M69.247,-76.8129C95.3721,-76.6565 132.9071,-76.4317 161.8899,-76.2581"/>
<polygon fill="#9a32cd" stroke="#9a32cd" points="69.1295,-73.3134 59.1507,-76.8733 69.1715,-80.3133 69.1295,-73.3134"/>
<text text-anchor="middle" x="119" y="-79" font-family="Helvetica,sans-Serif" font-size="10.00" fill="#000000"> nodeName</text>
</g>
<!-- Node8 -->
<g id="node8" class="node">
<title>Node8</title>
<g id="a_node8"><a xlink:href="structaworx_1_1lib_1_1util_1_1StringTree_1_1Node.html" target="_top" xlink:title="Node">
<polygon fill="#ffffff" stroke="#ff0000" points="18.5,-.5 18.5,-19.5 57.5,-19.5 57.5,-.5 18.5,-.5"/>
<text text-anchor="middle" x="38" y="-7.5" font-family="Helvetica,sans-Serif" font-size="10.00" fill="#000000">Node</text>
</a>
</g>
</g>
<!-- Node8&#45;&gt;Node10 -->
<g id="edge8" class="edge">
<title>Node8&#45;&gt;Node10</title>
<path fill="none" stroke="#9a32cd" stroke-dasharray="5,2" d="M67.6142,-10.5417C111.895,-11.3517 197.4478,-12.9167 265.6325,-14.164"/>
<polygon fill="#9a32cd" stroke="#9a32cd" points="67.598,-7.0409 57.5356,-10.3574 67.4699,-14.0398 67.598,-7.0409"/>
<text text-anchor="middle" x="119" y="-15" font-family="Helvetica,sans-Serif" font-size="10.00" fill="#000000"> root</text>
</g>
<!-- Node8&#45;&gt;Node5 -->
<g id="edge6" class="edge">
<title>Node8&#45;&gt;Node5</title>
<path fill="none" stroke="#9a32cd" stroke-dasharray="5,2" d="M67.1673,-21.5272C99.4325,-34.2787 150.8263,-54.59 180.9007,-66.4757"/>
<polygon fill="#9a32cd" stroke="#9a32cd" points="68.3994,-18.2508 57.8129,-17.8302 65.8265,-24.7608 68.3994,-18.2508"/>
<text text-anchor="middle" x="119" y="-53" font-family="Helvetica,sans-Serif" font-size="10.00" fill="#000000"> node</text>
</g>
<!-- Node8&#45;&gt;Node8 -->
<g id="edge7" class="edge">
<title>Node8&#45;&gt;Node8</title>
<path fill="none" stroke="#9a32cd" stroke-dasharray="5,2" d="M23.2675,-29.7663C24.4246,-34.4965 29.3354,-38 38,-38 52.2188,-38 56.3289,-28.5653 50.3303,-19.7571"/>
<polygon fill="#9a32cd" stroke="#9a32cd" points="26.7393,-30.2978 25.6697,-19.7571 19.9326,-28.6641 26.7393,-30.2978"/>
<text text-anchor="middle" x="38" y="-41" font-family="Helvetica,sans-Serif" font-size="10.00" fill="#000000"> parent</text>
</g>
</g>
</svg>
