<?xml version="1.0" encoding="UTF-8" standalone="no"?>
<!DOCTYPE svg PUBLIC "-//W3C//DTD SVG 1.1//EN"
 "http://www.w3.org/Graphics/SVG/1.1/DTD/svg11.dtd">
<!-- Generated by graphviz version 2.40.1 (20161225.0304)
 -->
<!-- Title: Exception Pages: 1 -->
<svg width="236pt" height="298pt"
 viewBox="0.00 0.00 236.00 298.00" xmlns="http://www.w3.org/2000/svg" xmlns:xlink="http://www.w3.org/1999/xlink">
<g id="graph0" class="graph" transform="scale(1 1) rotate(0) translate(4 294)">
<title>Exception</title>
<polygon fill="#ffffff" stroke="transparent" points="-4,4 -4,-294 232,-294 232,4 -4,4"/>
<!-- Node1 -->
<g id="node1" class="node">
<title>Node1</title>
<polygon fill="#bfbfbf" stroke="#000000" points="75,-.5 75,-19.5 135,-19.5 135,-.5 75,-.5"/>
<text text-anchor="middle" x="105" y="-7.5" font-family="Helvetica,sans-Serif" font-size="10.00" fill="#000000">Exception</text>
</g>
<!-- Node2 -->
<g id="node2" class="node">
<title>Node2</title>
<polygon fill="#ffffff" stroke="#bfbfbf" points="41,-67.5 41,-86.5 169,-86.5 169,-67.5 41,-67.5"/>
<text text-anchor="middle" x="105" y="-74.5" font-family="Helvetica,sans-Serif" font-size="10.00" fill="#000000">vector&lt;Exception::Entry&gt;</text>
</g>
<!-- Node2&#45;&gt;Node1 -->
<g id="edge1" class="edge">
<title>Node2&#45;&gt;Node1</title>
<path fill="none" stroke="#9a32cd" stroke-dasharray="5,2" d="M105,-57.1079C105,-44.714 105,-29.3263 105,-19.5817"/>
<polygon fill="#9a32cd" stroke="#9a32cd" points="101.5001,-57.4005 105,-67.4005 108.5001,-57.4006 101.5001,-57.4005"/>
<text text-anchor="middle" x="122" y="-41" font-family="Helvetica,sans-Serif" font-size="10.00" fill="#000000"> Entries</text>
</g>
<!-- Node3 -->
<g id="node3" class="node">
<title>Node3</title>
<g id="a_node3"><a xlink:href="structaworx_1_1lib_1_1lang_1_1Exception_1_1Entry.html" target="_top" xlink:title="Entry">
<polygon fill="#ffffff" stroke="#000000" points="85,-134.5 85,-153.5 125,-153.5 125,-134.5 85,-134.5"/>
<text text-anchor="middle" x="105" y="-141.5" font-family="Helvetica,sans-Serif" font-size="10.00" fill="#000000">Entry</text>
</a>
</g>
</g>
<!-- Node3&#45;&gt;Node2 -->
<g id="edge2" class="edge">
<title>Node3&#45;&gt;Node2</title>
<path fill="none" stroke="#9a32cd" stroke-dasharray="5,2" d="M105,-124.1079C105,-111.714 105,-96.3263 105,-86.5817"/>
<polygon fill="#9a32cd" stroke="#9a32cd" points="101.5001,-124.4005 105,-134.4005 108.5001,-124.4006 101.5001,-124.4005"/>
<text text-anchor="middle" x="126.5" y="-108" font-family="Helvetica,sans-Serif" font-size="10.00" fill="#000000"> elements</text>
</g>
<!-- Node4 -->
<g id="node4" class="node">
<title>Node4</title>
<g id="a_node4"><a xlink:href="classaworx_1_1lib_1_1strings_1_1TString.html" target="_top" xlink:title="TString">
<polygon fill="#ffffff" stroke="#ff0000" points="0,-270.5 0,-289.5 48,-289.5 48,-270.5 0,-270.5"/>
<text text-anchor="middle" x="24" y="-277.5" font-family="Helvetica,sans-Serif" font-size="10.00" fill="#000000">TString</text>
</a>
</g>
</g>
<!-- Node4&#45;&gt;Node3 -->
<g id="edge3" class="edge">
<title>Node4&#45;&gt;Node3</title>
<path fill="none" stroke="#9a32cd" stroke-dasharray="5,2" d="M16.5513,-260.3026C11.5071,-243.5676 7.3433,-219.4028 17,-201 30.9557,-174.4048 63.4786,-158.4135 84.837,-150.4052"/>
<polygon fill="#9a32cd" stroke="#9a32cd" points="13.3414,-261.737 19.8568,-270.0917 19.9736,-259.4975 13.3414,-261.737"/>
<text text-anchor="middle" x="29.5" y="-215" font-family="Helvetica,sans-Serif" font-size="10.00" fill="#000000"> Func</text>
<text text-anchor="middle" x="29.5" y="-204" font-family="Helvetica,sans-Serif" font-size="10.00" fill="#000000">File</text>
</g>
<!-- Node6 -->
<g id="node5" class="node">
<title>Node6</title>
<g id="a_node5"><a xlink:href="classaworx_1_1lib_1_1lang_1_1Library.html" target="_top" xlink:title="Library">
<polygon fill="#ffffff" stroke="#ff0000" points="51,-202.5 51,-221.5 97,-221.5 97,-202.5 51,-202.5"/>
<text text-anchor="middle" x="74" y="-209.5" font-family="Helvetica,sans-Serif" font-size="10.00" fill="#000000">Library</text>
</a>
</g>
</g>
<!-- Node4&#45;&gt;Node6 -->
<g id="edge4" class="edge">
<title>Node4&#45;&gt;Node6</title>
<path fill="none" stroke="#9a32cd" stroke-dasharray="5,2" d="M37.1727,-262.0852C46.6721,-249.1659 59.1321,-232.2203 66.8495,-221.7247"/>
<polygon fill="#9a32cd" stroke="#9a32cd" points="34.2679,-260.1273 31.1638,-270.2573 39.9075,-264.2741 34.2679,-260.1273"/>
<text text-anchor="middle" x="93" y="-244" font-family="Helvetica,sans-Serif" font-size="10.00" fill="#000000"> ResourceCategory</text>
</g>
<!-- Node6&#45;&gt;Node3 -->
<g id="edge5" class="edge">
<title>Node6&#45;&gt;Node3</title>
<path fill="none" stroke="#9a32cd" stroke-dasharray="5,2" d="M65.0932,-192.5107C63.278,-185.7454 62.7751,-178.2852 66,-172 70.0333,-164.1391 77.413,-157.9875 84.6764,-153.4773"/>
<polygon fill="#9a32cd" stroke="#9a32cd" points="61.9532,-194.1146 68.6788,-202.3011 68.5263,-191.7073 61.9532,-194.1146"/>
<text text-anchor="middle" x="95" y="-175" font-family="Helvetica,sans-Serif" font-size="10.00" fill="#000000"> EnumLibrary</text>
</g>
<!-- Node31 -->
<g id="node6" class="node">
<title>Node31</title>
<g id="a_node6"><a xlink:href="classaworx_1_1lib_1_1boxing_1_1Boxes.html" target="_top" xlink:title="Boxes">
<polygon fill="#ffffff" stroke="#ff0000" points="124,-202.5 124,-221.5 168,-221.5 168,-202.5 124,-202.5"/>
<text text-anchor="middle" x="146" y="-209.5" font-family="Helvetica,sans-Serif" font-size="10.00" fill="#000000">Boxes</text>
</a>
</g>
</g>
<!-- Node31&#45;&gt;Node3 -->
<g id="edge6" class="edge">
<title>Node31&#45;&gt;Node3</title>
<path fill="none" stroke="#9a32cd" stroke-dasharray="5,2" d="M136.1451,-193.229C132.4683,-186.4592 128.1717,-178.8115 124,-172 120.1954,-165.7879 115.6188,-159.0245 111.9106,-153.7012"/>
<polygon fill="#9a32cd" stroke="#9a32cd" points="133.2025,-195.1488 141.0016,-202.3199 139.3767,-191.8504 133.2025,-195.1488"/>
<text text-anchor="middle" x="141.5" y="-175" font-family="Helvetica,sans-Serif" font-size="10.00" fill="#000000"> Args</text>
</g>
<!-- Node34 -->
<g id="node7" class="node">
<title>Node34</title>
<g id="a_node7"><a xlink:href="structaworx_1_1lib_1_1lang_1_1Enum.html" target="_top" xlink:title="Enum">
<polygon fill="#ffffff" stroke="#ff0000" points="186,-202.5 186,-221.5 228,-221.5 228,-202.5 186,-202.5"/>
<text text-anchor="middle" x="207" y="-209.5" font-family="Helvetica,sans-Serif" font-size="10.00" fill="#000000">Enum</text>
</a>
</g>
</g>
<!-- Node34&#45;&gt;Node3 -->
<g id="edge7" class="edge">
<title>Node34&#45;&gt;Node3</title>
<path fill="none" stroke="#9a32cd" stroke-dasharray="5,2" d="M188.2331,-195.6517C179.1029,-188.0509 167.7903,-179.1366 157,-172 146.7375,-165.2125 134.6703,-158.6359 124.7453,-153.5639"/>
<polygon fill="#9a32cd" stroke="#9a32cd" points="186.0357,-198.3773 195.9268,-202.1742 190.5623,-193.0378 186.0357,-198.3773"/>
<text text-anchor="middle" x="184" y="-175" font-family="Helvetica,sans-Serif" font-size="10.00" fill="#000000"> Code</text>
</g>
</g>
</svg>
