<?xml version="1.0" encoding="UTF-8" standalone="no"?>
<!DOCTYPE svg PUBLIC "-//W3C//DTD SVG 1.1//EN"
 "http://www.w3.org/Graphics/SVG/1.1/DTD/svg11.dtd">
<!-- Generated by graphviz version 2.38.0 (20140413.2041)
 -->
<!-- Title: Directory Pages: 1 -->
<svg width="109pt" height="209pt"
 viewBox="0.00 0.00 109.00 209.00" xmlns="http://www.w3.org/2000/svg" xmlns:xlink="http://www.w3.org/1999/xlink">
<g id="graph0" class="graph" transform="scale(1 1) rotate(0) translate(4 205)">
<title>Directory</title>
<polygon fill="white" stroke="none" points="-4,4 -4,-205 105,-205 105,4 -4,4"/>
<!-- Node1 -->
<g id="node1" class="node"><title>Node1</title>
<polygon fill="#bfbfbf" stroke="black" points="22.5,-0.5 22.5,-19.5 78.5,-19.5 78.5,-0.5 22.5,-0.5"/>
<text text-anchor="middle" x="50.5" y="-7.5" font-family="Helvetica,sans-Serif" font-size="10.00">Directory</text>
</g>
<!-- Node2 -->
<g id="node2" class="node"><title>Node2</title>
<g id="a_node2"><a xlink:href="classaworx_1_1lib_1_1strings_1_1ASPreAlloc.html" target="_top" xlink:title="ASPreAlloc\&lt; 256 \&gt;">
<polygon fill="white" stroke="black" points="0,-67.5 0,-86.5 101,-86.5 101,-67.5 0,-67.5"/>
<text text-anchor="middle" x="50.5" y="-74.5" font-family="Helvetica,sans-Serif" font-size="10.00">ASPreAlloc&lt; 256 &gt;</text>
</a>
</g>
</g>
<!-- Node2&#45;&gt;Node1 -->
<g id="edge1" class="edge"><title>Node2&#45;&gt;Node1</title>
<path fill="none" stroke="#9a32cd" stroke-dasharray="5,2" d="M50.5,-57.037C50.5,-44.6703 50.5,-29.1198 50.5,-19.6273"/>
<polygon fill="#9a32cd" stroke="#9a32cd" points="47.0001,-57.2338 50.5,-67.2338 54.0001,-57.2338 47.0001,-57.2338"/>
<text text-anchor="middle" x="62.5" y="-41" font-family="Helvetica,sans-Serif" font-size="10.00"> Path</text>
</g>
<!-- Node3 -->
<g id="node3" class="node"><title>Node3</title>
<g id="a_node3"><a xlink:href="classaworx_1_1lib_1_1strings_1_1ASAlloc.html" target="_top" xlink:title="ASAlloc">
<polygon fill="white" stroke="black" points="24.5,-124.5 24.5,-143.5 76.5,-143.5 76.5,-124.5 24.5,-124.5"/>
<text text-anchor="middle" x="50.5" y="-131.5" font-family="Helvetica,sans-Serif" font-size="10.00">ASAlloc</text>
</a>
</g>
</g>
<!-- Node3&#45;&gt;Node2 -->
<g id="edge2" class="edge"><title>Node3&#45;&gt;Node2</title>
<path fill="none" stroke="midnightblue" d="M50.5,-114.117C50.5,-104.817 50.5,-94.0557 50.5,-86.7149"/>
<polygon fill="midnightblue" stroke="midnightblue" points="47.0001,-114.406 50.5,-124.406 54.0001,-114.406 47.0001,-114.406"/>
</g>
<!-- Node4 -->
<g id="node4" class="node"><title>Node4</title>
<g id="a_node4"><a xlink:href="classaworx_1_1lib_1_1strings_1_1ASTerminatable.html" target="_top" xlink:title="ASTerminatable">
<polygon fill="white" stroke="red" points="7.5,-181.5 7.5,-200.5 93.5,-200.5 93.5,-181.5 7.5,-181.5"/>
<text text-anchor="middle" x="50.5" y="-188.5" font-family="Helvetica,sans-Serif" font-size="10.00">ASTerminatable</text>
</a>
</g>
</g>
<!-- Node4&#45;&gt;Node3 -->
<g id="edge3" class="edge"><title>Node4&#45;&gt;Node3</title>
<path fill="none" stroke="midnightblue" d="M50.5,-171.117C50.5,-161.817 50.5,-151.056 50.5,-143.715"/>
<polygon fill="midnightblue" stroke="midnightblue" points="47.0001,-171.406 50.5,-181.406 54.0001,-171.406 47.0001,-171.406"/>
</g>
</g>
</svg>
