<?xml version="1.0" encoding="UTF-8" standalone="no"?>
<!DOCTYPE svg PUBLIC "-//W3C//DTD SVG 1.1//EN"
 "http://www.w3.org/Graphics/SVG/1.1/DTD/svg11.dtd">
<!-- Generated by graphviz version 2.38.0 (20140413.2041)
 -->
<!-- Title: IniFile Pages: 1 -->
<svg width="577pt" height="320pt"
 viewBox="0.00 0.00 577.00 320.00" xmlns="http://www.w3.org/2000/svg" xmlns:xlink="http://www.w3.org/1999/xlink">
<g id="graph0" class="graph" transform="scale(1 1) rotate(0) translate(4 316)">
<title>IniFile</title>
<polygon fill="white" stroke="none" points="-4,4 -4,-316 573,-316 573,4 -4,4"/>
<!-- Node1 -->
<g id="node1" class="node"><title>Node1</title>
<polygon fill="#bfbfbf" stroke="black" points="159.5,-0.5 159.5,-19.5 202.5,-19.5 202.5,-0.5 159.5,-0.5"/>
<text text-anchor="middle" x="181" y="-7.5" font-family="Helvetica,sans-Serif" font-size="10.00">IniFile</text>
</g>
<!-- Node5 -->
<g id="node2" class="node"><title>Node5</title>
<polygon fill="white" stroke="#bfbfbf" points="230,-146.5 230,-165.5 402,-165.5 402,-146.5 230,-146.5"/>
<text text-anchor="middle" x="316" y="-153.5" font-family="Helvetica,sans-Serif" font-size="10.00">vector&lt;InMemoryPlugin::Section *&gt;</text>
</g>
<!-- Node2 -->
<g id="node4" class="node"><title>Node2</title>
<g id="a_node4"><a xlink:href="classaworx_1_1lib_1_1config_1_1InMemoryPlugin.html" target="_top" xlink:title="InMemoryPlugin">
<polygon fill="white" stroke="black" points="222.5,-78.5 222.5,-97.5 309.5,-97.5 309.5,-78.5 222.5,-78.5"/>
<text text-anchor="middle" x="266" y="-85.5" font-family="Helvetica,sans-Serif" font-size="10.00">InMemoryPlugin</text>
</a>
</g>
</g>
<!-- Node5&#45;&gt;Node2 -->
<g id="edge4" class="edge"><title>Node5&#45;&gt;Node2</title>
<path fill="none" stroke="#9a32cd" stroke-dasharray="5,2" d="M303.356,-138.31C293.609,-125.444 280.514,-108.158 272.698,-97.8411"/>
<polygon fill="#9a32cd" stroke="#9a32cd" points="300.635,-140.514 309.463,-146.372 306.215,-136.287 300.635,-140.514"/>
<text text-anchor="middle" x="315" y="-119" font-family="Helvetica,sans-Serif" font-size="10.00"> Sections</text>
</g>
<!-- Node9 -->
<g id="node3" class="node"><title>Node9</title>
<polygon fill="white" stroke="#bfbfbf" points="0,-78.5 0,-97.5 66,-97.5 66,-78.5 0,-78.5"/>
<text text-anchor="middle" x="33" y="-85.5" font-family="Helvetica,sans-Serif" font-size="10.00">vector&lt;int&gt;</text>
</g>
<!-- Node9&#45;&gt;Node1 -->
<g id="edge9" class="edge"><title>Node9&#45;&gt;Node1</title>
<path fill="none" stroke="#9a32cd" stroke-dasharray="5,2" d="M28.1491,-68.3188C26.7018,-58.2241 27.037,-46.187 34,-38 49.886,-19.3213 122.439,-13.5062 159.328,-11.7419"/>
<polygon fill="#9a32cd" stroke="#9a32cd" points="24.746,-69.1468 30.1898,-78.2361 31.6024,-67.7359 24.746,-69.1468"/>
<text text-anchor="middle" x="82.5" y="-46.5" font-family="Helvetica,sans-Serif" font-size="10.00"> LinesWithReadErrors</text>
</g>
<!-- Node2&#45;&gt;Node1 -->
<g id="edge1" class="edge"><title>Node2&#45;&gt;Node1</title>
<path fill="none" stroke="midnightblue" d="M248.445,-71.3041C230.929,-55.6422 204.661,-32.1562 190.637,-19.6165"/>
<polygon fill="midnightblue" stroke="midnightblue" points="246.462,-74.2256 256.249,-78.2818 251.128,-69.0073 246.462,-74.2256"/>
</g>
<!-- Node3 -->
<g id="node5" class="node"><title>Node3</title>
<g id="a_node5"><a xlink:href="classaworx_1_1lib_1_1config_1_1ConfigurationPlugin.html" target="_top" xlink:title="ConfigurationPlugin">
<polygon fill="white" stroke="black" points="420.5,-146.5 420.5,-165.5 521.5,-165.5 521.5,-146.5 420.5,-146.5"/>
<text text-anchor="middle" x="471" y="-153.5" font-family="Helvetica,sans-Serif" font-size="10.00">ConfigurationPlugin</text>
</a>
</g>
</g>
<!-- Node3&#45;&gt;Node2 -->
<g id="edge2" class="edge"><title>Node3&#45;&gt;Node2</title>
<path fill="none" stroke="midnightblue" d="M434.64,-143.294C393.862,-130.165 328.709,-109.189 292.482,-97.5259"/>
<polygon fill="midnightblue" stroke="midnightblue" points="433.608,-146.639 444.2,-146.372 435.754,-139.975 433.608,-146.639"/>
</g>
<!-- Node4 -->
<g id="node6" class="node"><title>Node4</title>
<g id="a_node6"><a xlink:href="classaworx_1_1lib_1_1config_1_1XTernalizer.html" target="_top" xlink:title="XTernalizer">
<polygon fill="white" stroke="black" points="438,-225.5 438,-244.5 504,-244.5 504,-225.5 438,-225.5"/>
<text text-anchor="middle" x="471" y="-232.5" font-family="Helvetica,sans-Serif" font-size="10.00">XTernalizer</text>
</a>
</g>
</g>
<!-- Node4&#45;&gt;Node3 -->
<g id="edge3" class="edge"><title>Node4&#45;&gt;Node3</title>
<path fill="none" stroke="#9a32cd" stroke-dasharray="5,2" d="M471,-215.315C471,-199.592 471,-177.808 471,-165.809"/>
<polygon fill="#9a32cd" stroke="#9a32cd" points="467.5,-215.465 471,-225.465 474.5,-215.465 467.5,-215.465"/>
<text text-anchor="middle" x="520" y="-199" font-family="Helvetica,sans-Serif" font-size="10.00"> StringConverter</text>
<text text-anchor="middle" x="520" y="-188" font-family="Helvetica,sans-Serif" font-size="10.00">defaultStringConverter</text>
</g>
<!-- Node6 -->
<g id="node7" class="node"><title>Node6</title>
<g id="a_node7"><a xlink:href="classaworx_1_1lib_1_1config_1_1InMemoryPlugin_1_1Section.html" target="_top" xlink:title="Section">
<polygon fill="white" stroke="red" points="203,-225.5 203,-244.5 253,-244.5 253,-225.5 203,-225.5"/>
<text text-anchor="middle" x="228" y="-232.5" font-family="Helvetica,sans-Serif" font-size="10.00">Section</text>
</a>
</g>
</g>
<!-- Node6&#45;&gt;Node5 -->
<g id="edge5" class="edge"><title>Node6&#45;&gt;Node5</title>
<path fill="none" stroke="#9a32cd" stroke-dasharray="5,2" d="M245.346,-218.822C263.545,-202.898 291.507,-178.431 306.203,-165.573"/>
<polygon fill="#9a32cd" stroke="#9a32cd" points="242.975,-216.246 237.754,-225.465 247.584,-221.514 242.975,-216.246"/>
<text text-anchor="middle" x="304.5" y="-193.5" font-family="Helvetica,sans-Serif" font-size="10.00"> elements</text>
</g>
<!-- Node7 -->
<g id="node8" class="node"><title>Node7</title>
<g id="a_node8"><a xlink:href="classaworx_1_1lib_1_1strings_1_1AString.html" target="_top" xlink:title="AString">
<polygon fill="white" stroke="red" points="149.5,-292.5 149.5,-311.5 198.5,-311.5 198.5,-292.5 149.5,-292.5"/>
<text text-anchor="middle" x="174" y="-299.5" font-family="Helvetica,sans-Serif" font-size="10.00">AString</text>
</a>
</g>
</g>
<!-- Node7&#45;&gt;Node1 -->
<g id="edge6" class="edge"><title>Node7&#45;&gt;Node1</title>
<path fill="none" stroke="#9a32cd" stroke-dasharray="5,2" d="M161.575,-283.78C153.704,-271.181 145,-253.331 145,-236 145,-236 145,-236 145,-87 145,-60.4283 163.196,-33.2254 173.715,-19.719"/>
<polygon fill="#9a32cd" stroke="#9a32cd" points="158.803,-285.932 167.274,-292.296 164.621,-282.039 158.803,-285.932"/>
<text text-anchor="middle" x="178.5" y="-159" font-family="Helvetica,sans-Serif" font-size="10.00"> FileComments</text>
<text text-anchor="middle" x="178.5" y="-148" font-family="Helvetica,sans-Serif" font-size="10.00">FileName</text>
</g>
<!-- Node7&#45;&gt;Node6 -->
<g id="edge7" class="edge"><title>Node7&#45;&gt;Node6</title>
<path fill="none" stroke="#9a32cd" stroke-dasharray="5,2" d="M187.898,-284.27C198.427,-271.597 212.464,-254.701 220.833,-244.627"/>
<polygon fill="#9a32cd" stroke="#9a32cd" points="184.981,-282.305 181.283,-292.234 190.365,-286.778 184.981,-282.305"/>
<text text-anchor="middle" x="231" y="-266" font-family="Helvetica,sans-Serif" font-size="10.00"> Comments</text>
</g>
<!-- Node8 -->
<g id="node9" class="node"><title>Node8</title>
<g id="a_node9"><a xlink:href="classaworx_1_1lib_1_1strings_1_1String.html" target="_top" xlink:title="String">
<polygon fill="white" stroke="black" points="328,-78.5 328,-97.5 370,-97.5 370,-78.5 328,-78.5"/>
<text text-anchor="middle" x="349" y="-85.5" font-family="Helvetica,sans-Serif" font-size="10.00">String</text>
</a>
</g>
</g>
<!-- Node8&#45;&gt;Node1 -->
<g id="edge8" class="edge"><title>Node8&#45;&gt;Node1</title>
<path fill="none" stroke="#9a32cd" stroke-dasharray="5,2" d="M320.58,-74.1433C286.198,-58.5895 229.278,-32.8399 199.876,-19.5391"/>
<polygon fill="#9a32cd" stroke="#9a32cd" points="319.501,-77.4967 330.055,-78.4296 322.386,-71.119 319.501,-77.4967"/>
<text text-anchor="middle" x="336.5" y="-52" font-family="Helvetica,sans-Serif" font-size="10.00"> DefaultCommentPrefix</text>
<text text-anchor="middle" x="336.5" y="-41" font-family="Helvetica,sans-Serif" font-size="10.00">DefaultFileExtension</text>
</g>
</g>
</svg>
