<?xml version="1.0" encoding="UTF-8" standalone="no"?>
<!DOCTYPE svg PUBLIC "-//W3C//DTD SVG 1.1//EN"
 "http://www.w3.org/Graphics/SVG/1.1/DTD/svg11.dtd">
<!-- Generated by graphviz version 2.38.0 (20140413.2041)
 -->
<!-- Title: Logger Pages: 1 -->
<svg width="345pt" height="310pt"
 viewBox="0.00 0.00 344.94 310.00" xmlns="http://www.w3.org/2000/svg" xmlns:xlink="http://www.w3.org/1999/xlink">
<g id="graph0" class="graph" transform="scale(1 1) rotate(0) translate(4 306)">
<title>Logger</title>
<polygon fill="white" stroke="none" points="-4,4 -4,-306 340.94,-306 340.94,4 -4,4"/>
<!-- Node1 -->
<g id="node1" class="node"><title>Node1</title>
<polygon fill="#bfbfbf" stroke="black" points="32.9404,-6 32.9404,-25 78.9404,-25 78.9404,-6 32.9404,-6"/>
<text text-anchor="middle" x="55.9404" y="-13" font-family="Helvetica,sans-Serif" font-size="10.00">Logger</text>
</g>
<!-- Node2 -->
<g id="node2" class="node"><title>Node2</title>
<g id="a_node2"><a xlink:href="classaworx_1_1lib_1_1strings_1_1ASPreAlloc.html" target="_top" xlink:title="ASPreAlloc\&lt; 32 \&gt;">
<polygon fill="white" stroke="black" points="106.44,-158.5 106.44,-177.5 201.44,-177.5 201.44,-158.5 106.44,-158.5"/>
<text text-anchor="middle" x="153.94" y="-165.5" font-family="Helvetica,sans-Serif" font-size="10.00">ASPreAlloc&lt; 32 &gt;</text>
</a>
</g>
</g>
<!-- Node2&#45;&gt;Node1 -->
<g id="edge1" class="edge"><title>Node2&#45;&gt;Node1</title>
<path fill="none" stroke="#9a32cd" stroke-dasharray="5,2" d="M96.4618,-161.018C64.1148,-154.376 26.2467,-140.395 5.94036,-111 -14.5262,-81.3732 24.7409,-42.3801 44.9613,-25.2305"/>
<polygon fill="#9a32cd" stroke="#9a32cd" points="95.8255,-164.46 106.298,-162.853 97.1091,-157.579 95.8255,-164.46"/>
<text text-anchor="middle" x="31.9404" y="-103" font-family="Helvetica,sans-Serif" font-size="10.00"> TypeName</text>
<text text-anchor="middle" x="31.9404" y="-92" font-family="Helvetica,sans-Serif" font-size="10.00">Name</text>
</g>
<!-- Node6 -->
<g id="node6" class="node"><title>Node6</title>
<g id="a_node6"><a xlink:href="classaworx_1_1lox_1_1core_1_1Domain.html" target="_top" xlink:title="Domain">
<polygon fill="white" stroke="black" points="204.94,-90.5 204.94,-109.5 254.94,-109.5 254.94,-90.5 204.94,-90.5"/>
<text text-anchor="middle" x="229.94" y="-97.5" font-family="Helvetica,sans-Serif" font-size="10.00">Domain</text>
</a>
</g>
</g>
<!-- Node2&#45;&gt;Node6 -->
<g id="edge7" class="edge"><title>Node2&#45;&gt;Node6</title>
<path fill="none" stroke="#9a32cd" stroke-dasharray="5,2" d="M166.374,-150.055C171.927,-143.097 178.821,-135.23 185.94,-129 194.526,-121.487 205.319,-114.587 214.067,-109.516"/>
<polygon fill="#9a32cd" stroke="#9a32cd" points="163.444,-148.124 160.139,-158.191 169,-152.382 163.444,-148.124"/>
<text text-anchor="middle" x="200.94" y="-132" font-family="Helvetica,sans-Serif" font-size="10.00"> Name</text>
</g>
<!-- Node3 -->
<g id="node3" class="node"><title>Node3</title>
<g id="a_node3"><a xlink:href="classaworx_1_1lib_1_1strings_1_1ASAlloc.html" target="_top" xlink:title="ASAlloc">
<polygon fill="white" stroke="black" points="144.94,-225.5 144.94,-244.5 196.94,-244.5 196.94,-225.5 144.94,-225.5"/>
<text text-anchor="middle" x="170.94" y="-232.5" font-family="Helvetica,sans-Serif" font-size="10.00">ASAlloc</text>
</a>
</g>
</g>
<!-- Node3&#45;&gt;Node2 -->
<g id="edge2" class="edge"><title>Node3&#45;&gt;Node2</title>
<path fill="none" stroke="midnightblue" d="M166.08,-215.415C162.83,-202.988 158.705,-187.217 156.197,-177.627"/>
<polygon fill="midnightblue" stroke="midnightblue" points="162.731,-216.445 168.648,-225.234 169.503,-214.674 162.731,-216.445"/>
</g>
<!-- Node4 -->
<g id="node4" class="node"><title>Node4</title>
<g id="a_node4"><a xlink:href="classaworx_1_1lib_1_1strings_1_1ASTerminatable.html" target="_top" xlink:title="ASTerminatable">
<polygon fill="white" stroke="red" points="165.94,-282.5 165.94,-301.5 251.94,-301.5 251.94,-282.5 165.94,-282.5"/>
<text text-anchor="middle" x="208.94" y="-289.5" font-family="Helvetica,sans-Serif" font-size="10.00">ASTerminatable</text>
</a>
</g>
</g>
<!-- Node4&#45;&gt;Node3 -->
<g id="edge3" class="edge"><title>Node4&#45;&gt;Node3</title>
<path fill="none" stroke="midnightblue" d="M197.15,-273.936C190.459,-264.251 182.368,-252.54 176.962,-244.715"/>
<polygon fill="midnightblue" stroke="midnightblue" points="194.439,-276.168 203.003,-282.406 200.198,-272.189 194.439,-276.168"/>
</g>
<!-- Node4&#45;&gt;Node6 -->
<g id="edge8" class="edge"><title>Node4&#45;&gt;Node6</title>
<path fill="none" stroke="#9a32cd" stroke-dasharray="5,2" d="M211.007,-272.304C215.452,-232.085 225.779,-138.654 228.978,-109.708"/>
<polygon fill="#9a32cd" stroke="#9a32cd" points="207.517,-272.018 209.897,-282.342 214.475,-272.787 207.517,-272.018"/>
<text text-anchor="middle" x="272.94" y="-199" font-family="Helvetica,sans-Serif" font-size="10.00"> DomainSeparatorChars</text>
</g>
<!-- Node5 -->
<g id="node5" class="node"><title>Node5</title>
<g id="a_node5"><a xlink:href="classaworx_1_1lib_1_1time_1_1Ticks.html" target="_top" xlink:title="Ticks">
<polygon fill="white" stroke="black" points="67.4404,-90.5 67.4404,-109.5 108.44,-109.5 108.44,-90.5 67.4404,-90.5"/>
<text text-anchor="middle" x="87.9404" y="-97.5" font-family="Helvetica,sans-Serif" font-size="10.00">Ticks</text>
</a>
</g>
</g>
<!-- Node5&#45;&gt;Node1 -->
<g id="edge4" class="edge"><title>Node5&#45;&gt;Node1</title>
<path fill="none" stroke="#9a32cd" stroke-dasharray="5,2" d="M66.1533,-83.6473C62.4323,-79.9566 59.0816,-75.7027 56.9404,-71 50.1169,-56.014 52.1071,-36.222 54.0822,-25.0802"/>
<polygon fill="#9a32cd" stroke="#9a32cd" points="64.1682,-86.555 74.0426,-90.3952 68.7182,-81.2354 64.1682,-86.555"/>
<text text-anchor="middle" x="91.9404" y="-63" font-family="Helvetica,sans-Serif" font-size="10.00"> TimeOfLastLog</text>
<text text-anchor="middle" x="91.9404" y="-52" font-family="Helvetica,sans-Serif" font-size="10.00">TimeOfCreation</text>
</g>
<!-- Node5&#45;&gt;Node5 -->
<g id="edge5" class="edge"><title>Node5&#45;&gt;Node5</title>
<path fill="none" stroke="#9a32cd" stroke-dasharray="5,2" d="M118.756,-105.782C123.34,-104.881 126.44,-102.954 126.44,-100 126.44,-95.1523 118.092,-93.0694 108.537,-93.7511"/>
<polygon fill="#9a32cd" stroke="#9a32cd" points="118.367,-102.296 108.537,-106.249 118.687,-109.289 118.367,-102.296"/>
<text text-anchor="middle" x="156.44" y="-97.5" font-family="Helvetica,sans-Serif" font-size="10.00"> creationTime</text>
</g>
<!-- Node6&#45;&gt;Node1 -->
<g id="edge6" class="edge"><title>Node6&#45;&gt;Node1</title>
<path fill="none" stroke="#9a32cd" stroke-dasharray="5,2" d="M196.994,-86.75C185.692,-82.2039 173.088,-76.7453 161.94,-71 145.609,-62.5827 143.106,-57.7315 126.94,-49 110.361,-40.0451 90.8537,-31.2332 76.4861,-25.049"/>
<polygon fill="#9a32cd" stroke="#9a32cd" points="195.934,-90.094 206.521,-90.4945 198.494,-83.5791 195.934,-90.094"/>
<text text-anchor="middle" x="190.94" y="-57.5" font-family="Helvetica,sans-Serif" font-size="10.00"> RootDomain</text>
</g>
<!-- Node6&#45;&gt;Node6 -->
<g id="edge11" class="edge"><title>Node6&#45;&gt;Node6</title>
<path fill="none" stroke="#9a32cd" stroke-dasharray="5,2" d="M265.386,-105.583C269.936,-104.613 272.94,-102.752 272.94,-100 272.94,-95.4844 264.85,-93.3677 255.116,-93.6499"/>
<polygon fill="#9a32cd" stroke="#9a32cd" points="264.827,-102.115 255.116,-106.35 265.349,-109.095 264.827,-102.115"/>
<text text-anchor="middle" x="288.94" y="-97.5" font-family="Helvetica,sans-Serif" font-size="10.00"> Parent</text>
</g>
<!-- Node7 -->
<g id="node7" class="node"><title>Node7</title>
<polygon fill="white" stroke="#bfbfbf" points="213.94,-0.5 213.94,-30.5 311.94,-30.5 311.94,-0.5 213.94,-0.5"/>
<text text-anchor="start" x="221.94" y="-18.5" font-family="Helvetica,sans-Serif" font-size="10.00">vector&lt; aworx::lox</text>
<text text-anchor="middle" x="262.94" y="-7.5" font-family="Helvetica,sans-Serif" font-size="10.00">::core::Domain * &gt;</text>
</g>
<!-- Node6&#45;&gt;Node7 -->
<g id="edge10" class="edge"><title>Node6&#45;&gt;Node7</title>
<path fill="none" stroke="#9a32cd" stroke-dasharray="5,2" d="M224.857,-80.5731C223.124,-70.7987 222.578,-58.8154 226.94,-49 230.087,-41.9211 235.621,-35.7328 241.42,-30.7092"/>
<polygon fill="#9a32cd" stroke="#9a32cd" points="221.472,-81.4727 227.119,-90.4368 228.295,-79.9074 221.472,-81.4727"/>
<text text-anchor="middle" x="248.44" y="-57.5" font-family="Helvetica,sans-Serif" font-size="10.00"> elements</text>
</g>
<!-- Node7&#45;&gt;Node6 -->
<g id="edge9" class="edge"><title>Node7&#45;&gt;Node6</title>
<path fill="none" stroke="#9a32cd" stroke-dasharray="5,2" d="M274.492,-40.1072C277.713,-50.1141 279.096,-61.6077 273.94,-71 269.235,-79.5722 260.668,-85.895 252.336,-90.3406"/>
<polygon fill="#9a32cd" stroke="#9a32cd" points="277.728,-38.7723 270.832,-30.7287 271.207,-41.317 277.728,-38.7723"/>
<text text-anchor="middle" x="306.94" y="-57.5" font-family="Helvetica,sans-Serif" font-size="10.00"> SubDomains</text>
</g>
</g>
</svg>
