<?xml version="1.0" encoding="UTF-8" standalone="no"?>
<!DOCTYPE svg PUBLIC "-//W3C//DTD SVG 1.1//EN"
 "http://www.w3.org/Graphics/SVG/1.1/DTD/svg11.dtd">
<!-- Generated by graphviz version 2.38.0 (20140413.2041)
 -->
<!-- Title: TextLogger Pages: 1 -->
<svg width="939pt" height="677pt"
 viewBox="0.00 0.00 939.00 677.00" xmlns="http://www.w3.org/2000/svg" xmlns:xlink="http://www.w3.org/1999/xlink">
<g id="graph0" class="graph" transform="scale(1 1) rotate(0) translate(4 673)">
<title>TextLogger</title>
<polygon fill="white" stroke="none" points="-4,4 -4,-673 935,-673 935,4 -4,4"/>
<!-- Node1 -->
<g id="node1" class="node"><title>Node1</title>
<polygon fill="#bfbfbf" stroke="black" points="866,-178.5 866,-197.5 931,-197.5 931,-178.5 866,-178.5"/>
<text text-anchor="middle" x="898.5" y="-185.5" font-family="Helvetica,sans-Serif" font-size="10.00">TextLogger</text>
</g>
<!-- Node5 -->
<g id="node2" class="node"><title>Node5</title>
<polygon fill="white" stroke="#bfbfbf" points="147,-630.5 147,-649.5 260,-649.5 260,-630.5 147,-630.5"/>
<text text-anchor="middle" x="203.5" y="-637.5" font-family="Helvetica,sans-Serif" font-size="10.00">vector&lt;ThreadLock *&gt;</text>
</g>
<!-- Node3 -->
<g id="node8" class="node"><title>Node3</title>
<g id="a_node8"><a xlink:href="classaworx_1_1lib_1_1threads_1_1SmartLock.html" target="_top" xlink:title="SmartLock">
<polygon fill="white" stroke="black" points="383.5,-631.5 383.5,-650.5 447.5,-650.5 447.5,-631.5 383.5,-631.5"/>
<text text-anchor="middle" x="415.5" y="-638.5" font-family="Helvetica,sans-Serif" font-size="10.00">SmartLock</text>
</a>
</g>
</g>
<!-- Node5&#45;&gt;Node3 -->
<g id="edge5" class="edge"><title>Node5&#45;&gt;Node3</title>
<path fill="none" stroke="#9a32cd" stroke-dasharray="5,2" d="M270.62,-640.315C308.275,-640.494 353.699,-640.71 383.298,-640.851"/>
<polygon fill="#9a32cd" stroke="#9a32cd" points="270.241,-636.813 260.225,-640.265 270.208,-643.813 270.241,-636.813"/>
<text text-anchor="middle" x="299.5" y="-643" font-family="Helvetica,sans-Serif" font-size="10.00"> acquirers</text>
</g>
<!-- Node11 -->
<g id="node3" class="node"><title>Node11</title>
<polygon fill="white" stroke="#bfbfbf" points="382.5,-0.5 382.5,-19.5 448.5,-19.5 448.5,-0.5 382.5,-0.5"/>
<text text-anchor="middle" x="415.5" y="-7.5" font-family="Helvetica,sans-Serif" font-size="10.00">vector&lt;int&gt;</text>
</g>
<!-- Node10 -->
<g id="node14" class="node"><title>Node10</title>
<g id="a_node14"><a xlink:href="classaworx_1_1lox_1_1core_1_1textlogger_1_1AutoSizes.html" target="_top" xlink:title="AutoSizes">
<polygon fill="white" stroke="black" points="652,-4.5 652,-23.5 714,-23.5 714,-4.5 652,-4.5"/>
<text text-anchor="middle" x="683" y="-11.5" font-family="Helvetica,sans-Serif" font-size="10.00">AutoSizes</text>
</a>
</g>
</g>
<!-- Node11&#45;&gt;Node10 -->
<g id="edge21" class="edge"><title>Node11&#45;&gt;Node10</title>
<path fill="none" stroke="#9a32cd" stroke-dasharray="5,2" d="M458.778,-10.637C512.698,-11.4493 604.603,-12.8339 651.906,-13.5466"/>
<polygon fill="#9a32cd" stroke="#9a32cd" points="458.577,-7.13363 448.526,-10.4825 458.472,-14.1328 458.577,-7.13363"/>
<text text-anchor="middle" x="554" y="-27" font-family="Helvetica,sans-Serif" font-size="10.00"> values</text>
<text text-anchor="middle" x="554" y="-16" font-family="Helvetica,sans-Serif" font-size="10.00">sessionValues</text>
</g>
<!-- Node12 -->
<g id="node4" class="node"><title>Node12</title>
<polygon fill="white" stroke="#bfbfbf" points="510,-542.5 510,-561.5 598,-561.5 598,-542.5 510,-542.5"/>
<text text-anchor="middle" x="554" y="-549.5" font-family="Helvetica,sans-Serif" font-size="10.00">vector&lt;AString&gt;</text>
</g>
<!-- Node12&#45;&gt;Node1 -->
<g id="edge22" class="edge"><title>Node12&#45;&gt;Node1</title>
<path fill="none" stroke="#9a32cd" stroke-dasharray="5,2" d="M608.306,-546.822C649.936,-540.637 707.633,-527.169 750,-498 859.964,-422.291 890.421,-241.729 896.317,-197.771"/>
<polygon fill="#9a32cd" stroke="#9a32cd" points="607.776,-543.362 598.354,-548.208 608.742,-550.295 607.776,-543.362"/>
<text text-anchor="middle" x="683" y="-548" font-family="Helvetica,sans-Serif" font-size="10.00"> replacements</text>
</g>
<!-- Node17 -->
<g id="node5" class="node"><title>Node17</title>
<polygon fill="white" stroke="#bfbfbf" points="616,-45.5 616,-64.5 750,-64.5 750,-45.5 616,-45.5"/>
<text text-anchor="middle" x="683" y="-52.5" font-family="Helvetica,sans-Serif" font-size="10.00">vector&lt;ObjectConverter *&gt;</text>
</g>
<!-- Node17&#45;&gt;Node1 -->
<g id="edge25" class="edge"><title>Node17&#45;&gt;Node1</title>
<path fill="none" stroke="#9a32cd" stroke-dasharray="5,2" d="M752.036,-44.9597C783.934,-43.8686 820.81,-48.2035 848,-68 884.984,-94.9278 894.439,-154.606 896.769,-178.162"/>
<polygon fill="#9a32cd" stroke="#9a32cd" points="751.676,-41.4736 741.873,-45.4918 752.042,-48.464 751.676,-41.4736"/>
<text text-anchor="middle" x="808" y="-71" font-family="Helvetica,sans-Serif" font-size="10.00"> ObjectConverters</text>
</g>
<!-- Node7 -->
<g id="node6" class="node"><title>Node7</title>
<g id="a_node6"><a xlink:href="classaworx_1_1lib_1_1strings_1_1PreallocatedString.html" target="_top" xlink:title="PreallocatedString\&lt;TCapacity\&gt;">
<polygon fill="white" stroke="black" points="339,-249.5 339,-268.5 492,-268.5 492,-249.5 339,-249.5"/>
<text text-anchor="middle" x="415.5" y="-256.5" font-family="Helvetica,sans-Serif" font-size="10.00">PreallocatedString&lt;TCapacity&gt;</text>
</a>
</g>
</g>
<!-- Node7&#45;&gt;Node1 -->
<g id="edge9" class="edge"><title>Node7&#45;&gt;Node1</title>
<path fill="none" stroke="#9a32cd" stroke-dasharray="5,2" d="M431.387,-241.773C448.306,-223.641 477.784,-196.206 510,-185 635.654,-141.292 798.402,-166.9 865.96,-180.816"/>
<polygon fill="#9a32cd" stroke="#9a32cd" points="428.641,-239.591 424.532,-249.357 433.834,-244.285 428.641,-239.591"/>
<text text-anchor="middle" x="683" y="-188" font-family="Helvetica,sans-Serif" font-size="10.00"> MultiLineDelimiterRepl</text>
<text text-anchor="middle" x="683" y="-177" font-family="Helvetica,sans-Serif" font-size="10.00">FmtMultiLineSuffix</text>
<text text-anchor="middle" x="683" y="-166" font-family="Helvetica,sans-Serif" font-size="10.00">FmtMultiLinePrefix</text>
</g>
<!-- Node7&#45;&gt;Node1 -->
<g id="edge10" class="edge"><title>Node7&#45;&gt;Node1</title>
<path fill="none" stroke="#9a32cd" stroke-dasharray="5,2" d="M427.953,-241.095C443.539,-218.373 473.69,-179.874 510,-161 576.646,-126.358 776.956,-136.619 848,-161 860.407,-165.258 873.388,-172.456 882.942,-178.35"/>
<polygon fill="#9a32cd" stroke="#9a32cd" points="424.989,-239.231 422.362,-249.495 430.816,-243.11 424.989,-239.231"/>
<text text-anchor="middle" x="683" y="-145" font-family="Helvetica,sans-Serif" font-size="10.00"> FmtMultiLineMsgHeadline</text>
</g>
<!-- Node2 -->
<g id="node7" class="node"><title>Node2</title>
<g id="a_node7"><a xlink:href="classaworx_1_1lox_1_1core_1_1Logger.html" target="_top" xlink:title="Logger">
<polygon fill="white" stroke="black" points="660,-469.5 660,-488.5 706,-488.5 706,-469.5 660,-469.5"/>
<text text-anchor="middle" x="683" y="-476.5" font-family="Helvetica,sans-Serif" font-size="10.00">Logger</text>
</a>
</g>
</g>
<!-- Node7&#45;&gt;Node2 -->
<g id="edge11" class="edge"><title>Node7&#45;&gt;Node2</title>
<path fill="none" stroke="#9a32cd" stroke-dasharray="5,2" d="M437.647,-274.957C455.168,-289.408 479.198,-312.32 492,-338 514.103,-382.335 475.254,-412.689 510,-448 515.254,-453.339 614.774,-468.891 659.983,-475.72"/>
<polygon fill="#9a32cd" stroke="#9a32cd" points="439.645,-272.073 429.647,-268.568 435.277,-277.543 439.645,-272.073"/>
<text text-anchor="middle" x="554" y="-479" font-family="Helvetica,sans-Serif" font-size="10.00"> TypeName</text>
<text text-anchor="middle" x="554" y="-468" font-family="Helvetica,sans-Serif" font-size="10.00">Name</text>
</g>
<!-- Node15 -->
<g id="node11" class="node"><title>Node15</title>
<g id="a_node11"><a xlink:href="classaworx_1_1lox_1_1core_1_1textlogger_1_1MetaInfo.html" target="_top" xlink:title="MetaInfo">
<polygon fill="white" stroke="black" points="655.5,-350.5 655.5,-369.5 710.5,-369.5 710.5,-350.5 655.5,-350.5"/>
<text text-anchor="middle" x="683" y="-357.5" font-family="Helvetica,sans-Serif" font-size="10.00">MetaInfo</text>
</a>
</g>
</g>
<!-- Node7&#45;&gt;Node15 -->
<g id="edge12" class="edge"><title>Node7&#45;&gt;Node15</title>
<path fill="none" stroke="#9a32cd" stroke-dasharray="5,2" d="M435.279,-243.116C469.598,-216.131 543.889,-167.293 598,-200 612.499,-208.764 662.332,-316.645 677.55,-350.144"/>
<polygon fill="#9a32cd" stroke="#9a32cd" points="433.028,-240.435 427.452,-249.443 437.429,-245.879 433.028,-240.435"/>
<text text-anchor="middle" x="554" y="-313" font-family="Helvetica,sans-Serif" font-size="10.00"> TimeDiffHours</text>
<text text-anchor="middle" x="554" y="-302" font-family="Helvetica,sans-Serif" font-size="10.00">VerbosityInfo</text>
<text text-anchor="middle" x="554" y="-291" font-family="Helvetica,sans-Serif" font-size="10.00">VerbosityWarning</text>
<text text-anchor="middle" x="554" y="-280" font-family="Helvetica,sans-Serif" font-size="10.00">VerbosityVerbose</text>
<text text-anchor="middle" x="554" y="-269" font-family="Helvetica,sans-Serif" font-size="10.00">TimeDiffMicros</text>
<text text-anchor="middle" x="554" y="-258" font-family="Helvetica,sans-Serif" font-size="10.00">TimeElapsedDays</text>
<text text-anchor="middle" x="554" y="-247" font-family="Helvetica,sans-Serif" font-size="10.00">VerbosityError</text>
<text text-anchor="middle" x="554" y="-236" font-family="Helvetica,sans-Serif" font-size="10.00">TimeOfDayFormat</text>
<text text-anchor="middle" x="554" y="-225" font-family="Helvetica,sans-Serif" font-size="10.00">TimeDiffMins</text>
<text text-anchor="middle" x="554" y="-214" font-family="Helvetica,sans-Serif" font-size="10.00">TimeDiffSecs</text>
<text text-anchor="middle" x="554" y="-203" font-family="Helvetica,sans-Serif" font-size="10.00">...</text>
</g>
<!-- Node7&#45;&gt;Node15 -->
<g id="edge13" class="edge"><title>Node7&#45;&gt;Node15</title>
<path fill="none" stroke="#9a32cd" stroke-dasharray="5,2" d="M435.826,-274.877C453.937,-288.983 482.3,-309.149 510,-321 523.266,-326.675 610.251,-345.138 655.199,-354.479"/>
<polygon fill="#9a32cd" stroke="#9a32cd" points="437.812,-271.985 427.806,-268.503 433.457,-277.465 437.812,-271.985"/>
<text text-anchor="middle" x="554" y="-345" font-family="Helvetica,sans-Serif" font-size="10.00"> DateFormat</text>
</g>
<!-- Node2&#45;&gt;Node1 -->
<g id="edge1" class="edge"><title>Node2&#45;&gt;Node1</title>
<path fill="none" stroke="midnightblue" d="M702.991,-462.85C736.111,-433.873 804.998,-369.901 848,-304 871.692,-267.692 888.346,-218.156 894.677,-197.574"/>
<polygon fill="midnightblue" stroke="midnightblue" points="700.647,-460.25 695.379,-469.442 705.23,-465.541 700.647,-460.25"/>
</g>
<!-- Node3&#45;&gt;Node2 -->
<g id="edge2" class="edge"><title>Node3&#45;&gt;Node2</title>
<path fill="none" stroke="midnightblue" d="M457.442,-629.325C468.77,-625.734 480.978,-621.524 492,-617 540.912,-596.924 563.158,-602.768 598,-563 613.84,-544.92 600.092,-530.02 616,-512 627.53,-498.939 645.437,-490.441 659.69,-485.345"/>
<polygon fill="midnightblue" stroke="midnightblue" points="456.286,-626.019 447.764,-632.314 458.352,-632.707 456.286,-626.019"/>
</g>
<!-- Node4 -->
<g id="node9" class="node"><title>Node4</title>
<g id="a_node9"><a xlink:href="classaworx_1_1lib_1_1threads_1_1ThreadLock.html" target="_top" xlink:title="ThreadLock">
<polygon fill="white" stroke="red" points="0,-649.5 0,-668.5 68,-668.5 68,-649.5 0,-649.5"/>
<text text-anchor="middle" x="34" y="-656.5" font-family="Helvetica,sans-Serif" font-size="10.00">ThreadLock</text>
</a>
</g>
</g>
<!-- Node4&#45;&gt;Node5 -->
<g id="edge4" class="edge"><title>Node4&#45;&gt;Node5</title>
<path fill="none" stroke="#9a32cd" stroke-dasharray="5,2" d="M78.281,-653.89C80.8927,-653.587 83.4812,-653.289 86,-653 105.814,-650.729 127.531,-648.292 146.79,-646.148"/>
<polygon fill="#9a32cd" stroke="#9a32cd" points="77.7192,-650.432 68.1916,-655.066 78.5296,-657.385 77.7192,-650.432"/>
<text text-anchor="middle" x="107.5" y="-656" font-family="Helvetica,sans-Serif" font-size="10.00"> elements</text>
</g>
<!-- Node4&#45;&gt;Node3 -->
<g id="edge3" class="edge"><title>Node4&#45;&gt;Node3</title>
<path fill="none" stroke="midnightblue" d="M78.2617,-663.536C80.8782,-663.719 83.473,-663.876 86,-664 190.396,-669.105 217.077,-666.168 321,-655 341.889,-652.755 365.264,-649.255 383.417,-646.316"/>
<polygon fill="midnightblue" stroke="midnightblue" points="78.4084,-660.036 68.1604,-662.725 77.8483,-667.014 78.4084,-660.036"/>
</g>
<!-- Node6 -->
<g id="node10" class="node"><title>Node6</title>
<g id="a_node10"><a xlink:href="classaworx_1_1lib_1_1time_1_1Ticks.html" target="_top" xlink:title="Ticks">
<polygon fill="white" stroke="black" points="395,-443.5 395,-462.5 436,-462.5 436,-443.5 395,-443.5"/>
<text text-anchor="middle" x="415.5" y="-450.5" font-family="Helvetica,sans-Serif" font-size="10.00">Ticks</text>
</a>
</g>
</g>
<!-- Node6&#45;&gt;Node2 -->
<g id="edge6" class="edge"><title>Node6&#45;&gt;Node2</title>
<path fill="none" stroke="#9a32cd" stroke-dasharray="5,2" d="M441.915,-467.209C460.218,-476.597 485.845,-488.05 510,-493 562.977,-503.856 626.755,-492.443 659.767,-484.768"/>
<polygon fill="#9a32cd" stroke="#9a32cd" points="443.534,-464.106 433.057,-462.533 440.267,-470.296 443.534,-464.106"/>
<text text-anchor="middle" x="554" y="-511" font-family="Helvetica,sans-Serif" font-size="10.00"> TimeOfLastLog</text>
<text text-anchor="middle" x="554" y="-500" font-family="Helvetica,sans-Serif" font-size="10.00">TimeOfCreation</text>
</g>
<!-- Node6&#45;&gt;Node6 -->
<g id="edge7" class="edge"><title>Node6&#45;&gt;Node6</title>
<path fill="none" stroke="#9a32cd" stroke-dasharray="5,2" d="M394.02,-472.4C395.454,-477.315 402.614,-481 415.5,-481 436.117,-481 442.077,-471.565 433.379,-462.757"/>
<polygon fill="#9a32cd" stroke="#9a32cd" points="397.401,-473.35 397.621,-462.757 390.843,-470.9 397.401,-473.35"/>
<text text-anchor="middle" x="415.5" y="-484" font-family="Helvetica,sans-Serif" font-size="10.00"> creationTime</text>
</g>
<!-- Node6&#45;&gt;Node15 -->
<g id="edge8" class="edge"><title>Node6&#45;&gt;Node15</title>
<path fill="none" stroke="#9a32cd" stroke-dasharray="5,2" d="M446.158,-447.961C490.257,-440.244 570.834,-425.214 598,-414 625.884,-402.489 654.669,-381.679 670.249,-369.529"/>
<polygon fill="#9a32cd" stroke="#9a32cd" points="445.557,-444.513 436.302,-449.671 446.753,-451.41 445.557,-444.513"/>
<text text-anchor="middle" x="554" y="-438" font-family="Helvetica,sans-Serif" font-size="10.00"> MaxElapsedTime</text>
</g>
<!-- Node15&#45;&gt;Node1 -->
<g id="edge23" class="edge"><title>Node15&#45;&gt;Node1</title>
<path fill="none" stroke="#9a32cd" stroke-dasharray="5,2" d="M704,-343.888C747.677,-308.7 850.483,-225.878 885.542,-197.633"/>
<polygon fill="#9a32cd" stroke="#9a32cd" points="701.682,-341.261 696.09,-350.26 706.073,-346.712 701.682,-341.261"/>
<text text-anchor="middle" x="808" y="-292" font-family="Helvetica,sans-Serif" font-size="10.00"> MetaInfo</text>
</g>
<!-- Node8 -->
<g id="node12" class="node"><title>Node8</title>
<g id="a_node12"><a xlink:href="classaworx_1_1lib_1_1strings_1_1AString.html" target="_top" xlink:title="AString">
<polygon fill="white" stroke="black" points="179,-393.5 179,-412.5 228,-412.5 228,-393.5 179,-393.5"/>
<text text-anchor="middle" x="203.5" y="-400.5" font-family="Helvetica,sans-Serif" font-size="10.00">AString</text>
</a>
</g>
</g>
<!-- Node8&#45;&gt;Node1 -->
<g id="edge14" class="edge"><title>Node8&#45;&gt;Node1</title>
<path fill="none" stroke="#9a32cd" stroke-dasharray="5,2" d="M214.975,-384.694C248.696,-328.004 360.975,-156.036 510,-104 591.236,-75.6342 793.787,-114.597 848,-141 865.899,-149.717 881.623,-167.234 890.319,-178.247"/>
<polygon fill="#9a32cd" stroke="#9a32cd" points="211.951,-382.932 209.919,-393.33 217.992,-386.468 211.951,-382.932"/>
<text text-anchor="middle" x="554" y="-129" font-family="Helvetica,sans-Serif" font-size="10.00"> logBuf</text>
<text text-anchor="middle" x="554" y="-118" font-family="Helvetica,sans-Serif" font-size="10.00">MultiLineDelimiter</text>
<text text-anchor="middle" x="554" y="-107" font-family="Helvetica,sans-Serif" font-size="10.00">msgBuf</text>
</g>
<!-- Node8&#45;&gt;Node12 -->
<g id="edge16" class="edge"><title>Node8&#45;&gt;Node12</title>
<path fill="none" stroke="#9a32cd" stroke-dasharray="5,2" d="M222.126,-419.46C246.515,-441.338 292.794,-479.707 339,-501 395.02,-526.815 465.527,-540.356 509.947,-546.835"/>
<polygon fill="#9a32cd" stroke="#9a32cd" points="224.477,-416.866 214.726,-412.721 219.763,-422.042 224.477,-416.866"/>
<text text-anchor="middle" x="299.5" y="-493" font-family="Helvetica,sans-Serif" font-size="10.00"> elements</text>
</g>
<!-- Node8&#45;&gt;Node7 -->
<g id="edge15" class="edge"><title>Node8&#45;&gt;Node7</title>
<path fill="none" stroke="midnightblue" d="M227.075,-387.52C270.565,-357.699 364.808,-293.075 400.457,-268.63"/>
<polygon fill="midnightblue" stroke="midnightblue" points="224.873,-384.786 218.605,-393.328 228.831,-390.559 224.873,-384.786"/>
</g>
<!-- Node8&#45;&gt;Node15 -->
<g id="edge17" class="edge"><title>Node8&#45;&gt;Node15</title>
<path fill="none" stroke="#9a32cd" stroke-dasharray="5,2" d="M238.22,-401.557C306.375,-398.412 465.329,-389.911 598,-374 617.23,-371.694 638.775,-368.082 655.231,-365.104"/>
<polygon fill="#9a32cd" stroke="#9a32cd" points="237.911,-398.068 228.08,-402.017 238.228,-405.061 237.911,-398.068"/>
<text text-anchor="middle" x="415.5" y="-399" font-family="Helvetica,sans-Serif" font-size="10.00"> Format</text>
</g>
<!-- Node9 -->
<g id="node13" class="node"><title>Node9</title>
<g id="a_node13"><a xlink:href="classaworx_1_1lib_1_1strings_1_1TString.html" target="_top" xlink:title="TString">
<polygon fill="white" stroke="red" points="10,-555.5 10,-574.5 58,-574.5 58,-555.5 10,-555.5"/>
<text text-anchor="middle" x="34" y="-562.5" font-family="Helvetica,sans-Serif" font-size="10.00">TString</text>
</a>
</g>
</g>
<!-- Node9&#45;&gt;Node1 -->
<g id="edge18" class="edge"><title>Node9&#45;&gt;Node1</title>
<path fill="none" stroke="#9a32cd" stroke-dasharray="5,2" d="M67.9253,-576.717C101.365,-587.555 154.865,-602 202.5,-602 202.5,-602 202.5,-602 684,-602 872.022,-602 894.621,-260.519 897.186,-197.825"/>
<polygon fill="#9a32cd" stroke="#9a32cd" points="68.8139,-573.324 58.2204,-573.489 66.6046,-579.966 68.8139,-573.324"/>
<text text-anchor="middle" x="415.5" y="-605" font-family="Helvetica,sans-Serif" font-size="10.00"> FmtUnknownObject</text>
</g>
<!-- Node9&#45;&gt;Node8 -->
<g id="edge19" class="edge"><title>Node9&#45;&gt;Node8</title>
<path fill="none" stroke="midnightblue" d="M52.5053,-548.07C87.4027,-514.318 164.658,-439.6 192.364,-412.803"/>
<polygon fill="midnightblue" stroke="midnightblue" points="49.7312,-545.883 44.9763,-555.351 54.5976,-550.915 49.7312,-545.883"/>
</g>
<!-- Node10&#45;&gt;Node1 -->
<g id="edge20" class="edge"><title>Node10&#45;&gt;Node1</title>
<path fill="none" stroke="#9a32cd" stroke-dasharray="5,2" d="M724.561,-6.4277C760.908,-2.07377 813.644,-2.09117 848,-30 894.854,-68.0613 898.147,-149.998 897.818,-178.216"/>
<polygon fill="#9a32cd" stroke="#9a32cd" points="723.746,-3.00617 714.309,-7.82222 724.69,-9.94229 723.746,-3.00617"/>
<text text-anchor="middle" x="808" y="-33" font-family="Helvetica,sans-Serif" font-size="10.00"> AutoSizes</text>
</g>
<!-- Node16 -->
<g id="node15" class="node"><title>Node16</title>
<g id="a_node15"><a xlink:href="classaworx_1_1lib_1_1time_1_1TicksCalendarTime.html" target="_top" xlink:title="TicksCalendarTime">
<polygon fill="white" stroke="black" points="365,-347.5 365,-366.5 466,-366.5 466,-347.5 365,-347.5"/>
<text text-anchor="middle" x="415.5" y="-354.5" font-family="Helvetica,sans-Serif" font-size="10.00">TicksCalendarTime</text>
</a>
</g>
</g>
<!-- Node16&#45;&gt;Node15 -->
<g id="edge24" class="edge"><title>Node16&#45;&gt;Node15</title>
<path fill="none" stroke="#9a32cd" stroke-dasharray="5,2" d="M476.292,-357.676C532.384,-358.309 613.685,-359.228 655.286,-359.698"/>
<polygon fill="#9a32cd" stroke="#9a32cd" points="476.166,-354.174 466.127,-357.561 476.087,-361.174 476.166,-354.174"/>
<text text-anchor="middle" x="554" y="-362" font-family="Helvetica,sans-Serif" font-size="10.00"> callerDateTime</text>
</g>
<!-- Node18 -->
<g id="node16" class="node"><title>Node18</title>
<g id="a_node16"><a xlink:href="classaworx_1_1lox_1_1core_1_1textlogger_1_1ObjectConverter.html" target="_top" xlink:title="ObjectConverter">
<polygon fill="white" stroke="black" points="371.5,-45.5 371.5,-64.5 459.5,-64.5 459.5,-45.5 371.5,-45.5"/>
<text text-anchor="middle" x="415.5" y="-52.5" font-family="Helvetica,sans-Serif" font-size="10.00">ObjectConverter</text>
</a>
</g>
</g>
<!-- Node18&#45;&gt;Node17 -->
<g id="edge26" class="edge"><title>Node18&#45;&gt;Node17</title>
<path fill="none" stroke="#9a32cd" stroke-dasharray="5,2" d="M469.797,-55C511.879,-55 570.816,-55 615.902,-55"/>
<polygon fill="#9a32cd" stroke="#9a32cd" points="469.748,-51.5001 459.748,-55 469.748,-58.5001 469.748,-51.5001"/>
<text text-anchor="middle" x="554" y="-58" font-family="Helvetica,sans-Serif" font-size="10.00"> elements</text>
</g>
</g>
</svg>
