<?xml version="1.0" encoding="UTF-8" standalone="no"?>
<!DOCTYPE svg PUBLIC "-//W3C//DTD SVG 1.1//EN"
 "http://www.w3.org/Graphics/SVG/1.1/DTD/svg11.dtd">
<!-- Generated by graphviz version 2.38.0 (20140413.2041)
 -->
<!-- Title: InMemoryPlugin::Section Pages: 1 -->
<svg width="1072pt" height="172pt"
 viewBox="0.00 0.00 1072.00 172.20" xmlns="http://www.w3.org/2000/svg" xmlns:xlink="http://www.w3.org/1999/xlink">
<g id="graph0" class="graph" transform="scale(1 1) rotate(0) translate(4 168.203)">
<title>InMemoryPlugin::Section</title>
<polygon fill="white" stroke="none" points="-4,4 -4,-168.203 1068,-168.203 1068,4 -4,4"/>
<!-- Node1 -->
<g id="node1" class="node"><title>Node1</title>
<polygon fill="#bfbfbf" stroke="black" points="938,-61.7029 938,-80.7029 1064,-80.7029 1064,-61.7029 938,-61.7029"/>
<text text-anchor="middle" x="1001" y="-68.7029" font-family="Helvetica,sans-Serif" font-size="10.00">InMemoryPlugin::Section</text>
</g>
<!-- Node6 -->
<g id="node2" class="node"><title>Node6</title>
<polygon fill="white" stroke="#bfbfbf" points="706,-61.7029 706,-80.7029 868,-80.7029 868,-61.7029 706,-61.7029"/>
<text text-anchor="middle" x="787" y="-68.7029" font-family="Helvetica,sans-Serif" font-size="10.00">vector&lt;InMemoryPlugin::Entry *&gt;</text>
</g>
<!-- Node6&#45;&gt;Node1 -->
<g id="edge10" class="edge"><title>Node6&#45;&gt;Node1</title>
<path fill="none" stroke="#9a32cd" stroke-dasharray="5,2" d="M878.259,-71.2029C898.366,-71.2029 919.246,-71.2029 937.917,-71.2029"/>
<polygon fill="#9a32cd" stroke="#9a32cd" points="878.148,-67.703 868.148,-71.2029 878.148,-74.703 878.148,-67.703"/>
<text text-anchor="middle" x="903" y="-74.2029" font-family="Helvetica,sans-Serif" font-size="10.00"> Entries</text>
</g>
<!-- Node8 -->
<g id="node3" class="node"><title>Node8</title>
<polygon fill="white" stroke="#bfbfbf" points="324.5,-58.7029 324.5,-77.7029 412.5,-77.7029 412.5,-58.7029 324.5,-58.7029"/>
<text text-anchor="middle" x="368.5" y="-65.7029" font-family="Helvetica,sans-Serif" font-size="10.00">vector&lt;AString&gt;</text>
</g>
<!-- Node7 -->
<g id="node6" class="node"><title>Node7</title>
<g id="a_node6"><a xlink:href="classaworx_1_1lib_1_1config_1_1InMemoryPlugin_1_1Entry.html" target="_top" xlink:title="Entry">
<polygon fill="white" stroke="black" points="581,-61.7029 581,-80.7029 621,-80.7029 621,-61.7029 581,-61.7029"/>
<text text-anchor="middle" x="601" y="-68.7029" font-family="Helvetica,sans-Serif" font-size="10.00">Entry</text>
</a>
</g>
</g>
<!-- Node8&#45;&gt;Node7 -->
<g id="edge12" class="edge"><title>Node8&#45;&gt;Node7</title>
<path fill="none" stroke="#9a32cd" stroke-dasharray="5,2" d="M422.7,-68.8953C473.303,-69.5539 546.646,-70.5085 580.959,-70.9551"/>
<polygon fill="#9a32cd" stroke="#9a32cd" points="422.63,-65.3942 412.585,-68.7636 422.538,-72.3936 422.63,-65.3942"/>
<text text-anchor="middle" x="510" y="-74.2029" font-family="Helvetica,sans-Serif" font-size="10.00"> Values</text>
</g>
<!-- Node5 -->
<g id="node4" class="node"><title>Node5</title>
<g id="a_node4"><a xlink:href="classaworx_1_1lib_1_1strings_1_1PreallocatedString.html" target="_top" xlink:title="PreallocatedString\&lt;TCapacity\&gt;">
<polygon fill="white" stroke="black" points="292,-15.7029 292,-34.7029 445,-34.7029 445,-15.7029 292,-15.7029"/>
<text text-anchor="middle" x="368.5" y="-22.7029" font-family="Helvetica,sans-Serif" font-size="10.00">PreallocatedString&lt;TCapacity&gt;</text>
</a>
</g>
</g>
<!-- Node5&#45;&gt;Node1 -->
<g id="edge7" class="edge"><title>Node5&#45;&gt;Node1</title>
<path fill="none" stroke="#9a32cd" stroke-dasharray="5,2" d="M412.087,-12.9935C427.929,-9.03331 446.151,-5.15846 463,-3.20287 504.499,1.61362 515.343,-0.0243616 557,-3.20287 702.666,-14.3176 872.947,-45.7046 953.389,-61.6503"/>
<polygon fill="#9a32cd" stroke="#9a32cd" points="410.862,-9.69509 402.058,-15.5889 412.616,-16.4718 410.862,-9.69509"/>
<text text-anchor="middle" x="666.5" y="-20.2029" font-family="Helvetica,sans-Serif" font-size="10.00"> Name</text>
</g>
<!-- Node5&#45;&gt;Node7 -->
<g id="edge8" class="edge"><title>Node5&#45;&gt;Node7</title>
<path fill="none" stroke="#9a32cd" stroke-dasharray="5,2" d="M414.729,-13.5757C454.165,-5.85789 511.947,-0.526393 557,-21.2029 575.106,-29.5123 588.464,-49.6249 595.164,-61.6569"/>
<polygon fill="#9a32cd" stroke="#9a32cd" points="413.944,-10.164 404.868,-15.6298 415.372,-17.0169 413.944,-10.164"/>
<text text-anchor="middle" x="510" y="-24.2029" font-family="Helvetica,sans-Serif" font-size="10.00"> FormatAttrAlignment</text>
</g>
<!-- Node5&#45;&gt;Node7 -->
<g id="edge9" class="edge"><title>Node5&#45;&gt;Node7</title>
<path fill="none" stroke="#9a32cd" stroke-dasharray="5,2" d="M455.305,-35.296C487.493,-40.0298 524.206,-46.5689 557,-55.2029 565.011,-57.312 573.61,-60.3481 580.997,-63.2099"/>
<polygon fill="#9a32cd" stroke="#9a32cd" points="455.419,-31.7767 445.024,-33.8221 454.426,-38.7058 455.419,-31.7767"/>
<text text-anchor="middle" x="510" y="-58.2029" font-family="Helvetica,sans-Serif" font-size="10.00"> Name</text>
</g>
<!-- Node2 -->
<g id="node5" class="node"><title>Node2</title>
<g id="a_node5"><a xlink:href="classaworx_1_1lib_1_1strings_1_1AString.html" target="_top" xlink:title="AString">
<polygon fill="white" stroke="black" points="164,-91.7029 164,-110.703 213,-110.703 213,-91.7029 164,-91.7029"/>
<text text-anchor="middle" x="188.5" y="-98.7029" font-family="Helvetica,sans-Serif" font-size="10.00">AString</text>
</a>
</g>
</g>
<!-- Node2&#45;&gt;Node1 -->
<g id="edge1" class="edge"><title>Node2&#45;&gt;Node1</title>
<path fill="none" stroke="#9a32cd" stroke-dasharray="5,2" d="M218.172,-115.059C252.74,-130.463 312.998,-153.203 367.5,-153.203 367.5,-153.203 367.5,-153.203 788,-153.203 867.32,-153.203 952.775,-102.652 985.832,-80.9314"/>
<polygon fill="#9a32cd" stroke="#9a32cd" points="219.267,-111.711 208.716,-110.74 216.358,-118.079 219.267,-111.711"/>
<text text-anchor="middle" x="601" y="-156.203" font-family="Helvetica,sans-Serif" font-size="10.00"> Comments</text>
</g>
<!-- Node2&#45;&gt;Node8 -->
<g id="edge4" class="edge"><title>Node2&#45;&gt;Node8</title>
<path fill="none" stroke="#9a32cd" stroke-dasharray="5,2" d="M222.87,-91.1509C225.61,-90.4487 228.345,-89.7884 231,-89.2029 261.907,-82.3868 297.232,-77.0165 324.202,-73.4133"/>
<polygon fill="#9a32cd" stroke="#9a32cd" points="221.797,-87.8157 213.067,-93.8184 223.635,-94.5701 221.797,-87.8157"/>
<text text-anchor="middle" x="252.5" y="-92.2029" font-family="Helvetica,sans-Serif" font-size="10.00"> elements</text>
</g>
<!-- Node2&#45;&gt;Node5 -->
<g id="edge2" class="edge"><title>Node2&#45;&gt;Node5</title>
<path fill="none" stroke="midnightblue" d="M215.267,-86.5972C220.445,-83.754 225.872,-80.8396 231,-78.2029 257.697,-64.476 264.076,-60.2198 292,-49.2029 305.562,-43.8523 320.837,-38.818 334.082,-34.7553"/>
<polygon fill="midnightblue" stroke="midnightblue" points="213.373,-83.6455 206.332,-91.5624 216.773,-89.7642 213.373,-83.6455"/>
</g>
<!-- Node2&#45;&gt;Node7 -->
<g id="edge3" class="edge"><title>Node2&#45;&gt;Node7</title>
<path fill="none" stroke="#9a32cd" stroke-dasharray="5,2" d="M223.325,-101.093C238.779,-100.968 257.319,-100.714 274,-100.203 399.873,-96.346 433.395,-110.299 557,-86.2029 564.916,-84.6597 573.35,-81.965 580.633,-79.2813"/>
<polygon fill="#9a32cd" stroke="#9a32cd" points="223.157,-97.5941 213.18,-101.16 223.203,-104.594 223.157,-97.5941"/>
<text text-anchor="middle" x="368.5" y="-104.203" font-family="Helvetica,sans-Serif" font-size="10.00"> Comments</text>
</g>
<!-- Node7&#45;&gt;Node6 -->
<g id="edge11" class="edge"><title>Node7&#45;&gt;Node6</title>
<path fill="none" stroke="#9a32cd" stroke-dasharray="5,2" d="M631.421,-71.2029C651.576,-71.2029 679.349,-71.2029 705.8,-71.2029"/>
<polygon fill="#9a32cd" stroke="#9a32cd" points="631.343,-67.703 621.343,-71.2029 631.343,-74.703 631.343,-67.703"/>
<text text-anchor="middle" x="666.5" y="-74.2029" font-family="Helvetica,sans-Serif" font-size="10.00"> elements</text>
</g>
<!-- Node3 -->
<g id="node7" class="node"><title>Node3</title>
<g id="a_node7"><a xlink:href="classaworx_1_1lib_1_1strings_1_1TString.html" target="_top" xlink:title="TString">
<polygon fill="white" stroke="black" points="79,-91.7029 79,-110.703 127,-110.703 127,-91.7029 79,-91.7029"/>
<text text-anchor="middle" x="103" y="-98.7029" font-family="Helvetica,sans-Serif" font-size="10.00">TString</text>
</a>
</g>
</g>
<!-- Node3&#45;&gt;Node2 -->
<g id="edge5" class="edge"><title>Node3&#45;&gt;Node2</title>
<path fill="none" stroke="midnightblue" d="M137.313,-101.203C146.17,-101.203 155.556,-101.203 163.785,-101.203"/>
<polygon fill="midnightblue" stroke="midnightblue" points="137.259,-97.703 127.259,-101.203 137.259,-104.703 137.259,-97.703"/>
</g>
<!-- Node4 -->
<g id="node8" class="node"><title>Node4</title>
<g id="a_node8"><a xlink:href="classaworx_1_1lib_1_1strings_1_1String.html" target="_top" xlink:title="String">
<polygon fill="white" stroke="black" points="0,-91.7029 0,-110.703 42,-110.703 42,-91.7029 0,-91.7029"/>
<text text-anchor="middle" x="21" y="-98.7029" font-family="Helvetica,sans-Serif" font-size="10.00">String</text>
</a>
</g>
</g>
<!-- Node4&#45;&gt;Node3 -->
<g id="edge6" class="edge"><title>Node4&#45;&gt;Node3</title>
<path fill="none" stroke="midnightblue" d="M52.4727,-101.203C61.2719,-101.203 70.7241,-101.203 78.9881,-101.203"/>
<polygon fill="midnightblue" stroke="midnightblue" points="52.1874,-97.703 42.1874,-101.203 52.1873,-104.703 52.1874,-97.703"/>
</g>
</g>
</svg>
