<?xml version="1.0" encoding="UTF-8" standalone="no"?>
<!DOCTYPE svg PUBLIC "-//W3C//DTD SVG 1.1//EN"
 "http://www.w3.org/Graphics/SVG/1.1/DTD/svg11.dtd">
<!-- Generated by graphviz version 2.40.1 (20161225.0304)
 -->
<!-- Title: IIsLess_boxed_int Pages: 1 -->
<svg width="227pt" height="152pt"
 viewBox="0.00 0.00 227.00 152.00" xmlns="http://www.w3.org/2000/svg" xmlns:xlink="http://www.w3.org/1999/xlink">
<g id="graph0" class="graph" transform="scale(1 1) rotate(0) translate(4 148)">
<title>IIsLess_boxed_int</title>
<polygon fill="#ffffff" stroke="transparent" points="-4,4 -4,-148 223,-148 223,4 -4,4"/>
<!-- Node4 -->
<g id="node1" class="node">
<title>Node4</title>
<polygon fill="#bfbfbf" stroke="#000000" points="84.5,-.5 84.5,-19.5 180.5,-19.5 180.5,-.5 84.5,-.5"/>
<text text-anchor="middle" x="132.5" y="-7.5" font-family="Helvetica,sans-Serif" font-size="10.00" fill="#000000">IIsLess_boxed_int</text>
</g>
<!-- Node7 -->
<g id="node2" class="node">
<title>Node7</title>
<g id="a_node2"><a xlink:href="classaworx_1_1lib_1_1lang_1_1Singleton.html" target="_top" xlink:title="Singleton\&lt;IIsLess_boxed_int\&gt;">
<polygon fill="#ffffff" stroke="#000000" points="0,-57.5 0,-76.5 149,-76.5 149,-57.5 0,-57.5"/>
<text text-anchor="middle" x="74.5" y="-64.5" font-family="Helvetica,sans-Serif" font-size="10.00" fill="#000000">Singleton&lt;IIsLess_boxed_int&gt;</text>
</a>
</g>
</g>
<!-- Node7&#45;&gt;Node4 -->
<g id="edge3" class="edge">
<title>Node7&#45;&gt;Node4</title>
<path fill="none" stroke="#191970" d="M91.555,-50.239C101.7379,-40.2317 114.3017,-27.8845 122.8064,-19.5265"/>
<polygon fill="#191970" stroke="#191970" points="89.018,-47.8251 84.3389,-57.3307 93.9245,-52.8177 89.018,-47.8251"/>
</g>
<!-- Node5 -->
<g id="node3" class="node">
<title>Node5</title>
<g id="a_node3"><a xlink:href="classaworx_1_1lib_1_1boxing_1_1IIsLess.html" target="_top" xlink:title="IIsLess">
<polygon fill="#ffffff" stroke="#000000" points="167,-57.5 167,-76.5 216,-76.5 216,-57.5 167,-57.5"/>
<text text-anchor="middle" x="191.5" y="-64.5" font-family="Helvetica,sans-Serif" font-size="10.00" fill="#000000">IIsLess</text>
</a>
</g>
</g>
<!-- Node5&#45;&gt;Node4 -->
<g id="edge1" class="edge">
<title>Node5&#45;&gt;Node4</title>
<path fill="none" stroke="#191970" d="M174.1509,-50.239C163.7925,-40.2317 151.012,-27.8845 142.3607,-19.5265"/>
<polygon fill="#191970" stroke="#191970" points="171.8677,-52.8998 181.4915,-57.3307 176.7314,-47.8654 171.8677,-52.8998"/>
</g>
<!-- Node6 -->
<g id="node4" class="node">
<title>Node6</title>
<g id="a_node4"><a xlink:href="classaworx_1_1lib_1_1boxing_1_1Interface.html" target="_top" xlink:title="Interface">
<polygon fill="#ffffff" stroke="#000000" points="164,-124.5 164,-143.5 219,-143.5 219,-124.5 164,-124.5"/>
<text text-anchor="middle" x="191.5" y="-131.5" font-family="Helvetica,sans-Serif" font-size="10.00" fill="#000000">Interface</text>
</a>
</g>
</g>
<!-- Node6&#45;&gt;Node5 -->
<g id="edge2" class="edge">
<title>Node6&#45;&gt;Node5</title>
<path fill="none" stroke="#191970" d="M191.5,-114.1079C191.5,-101.714 191.5,-86.3263 191.5,-76.5817"/>
<polygon fill="#191970" stroke="#191970" points="188.0001,-114.4005 191.5,-124.4005 195.0001,-114.4006 188.0001,-114.4005"/>
</g>
<!-- Node8 -->
<g id="node5" class="node">
<title>Node8</title>
<polygon fill="#ffffff" stroke="#bfbfbf" points="34.5,-124.5 34.5,-143.5 114.5,-143.5 114.5,-124.5 34.5,-124.5"/>
<text text-anchor="middle" x="74.5" y="-131.5" font-family="Helvetica,sans-Serif" font-size="10.00" fill="#000000">TDerivedClass</text>
</g>
<!-- Node8&#45;&gt;Node7 -->
<g id="edge4" class="edge">
<title>Node8&#45;&gt;Node7</title>
<path fill="none" stroke="#9a32cd" stroke-dasharray="5,2" d="M74.5,-114.1079C74.5,-101.714 74.5,-86.3263 74.5,-76.5817"/>
<polygon fill="#9a32cd" stroke="#9a32cd" points="71.0001,-114.4005 74.5,-124.4005 78.0001,-114.4006 71.0001,-114.4005"/>
<text text-anchor="middle" x="96" y="-98" font-family="Helvetica,sans-Serif" font-size="10.00" fill="#000000"> singleton</text>
</g>
</g>
</svg>
