<?xml version="1.0" encoding="UTF-8" standalone="no"?>
<!DOCTYPE svg PUBLIC "-//W3C//DTD SVG 1.1//EN"
 "http://www.w3.org/Graphics/SVG/1.1/DTD/svg11.dtd">
<!-- Generated by graphviz version 2.38.0 (20140413.2041)
 -->
<!-- Title: WindowsConsoleLogger Pages: 1 -->
<svg width="972pt" height="703pt"
 viewBox="0.00 0.00 972.00 703.00" xmlns="http://www.w3.org/2000/svg" xmlns:xlink="http://www.w3.org/1999/xlink">
<g id="graph0" class="graph" transform="scale(1 1) rotate(0) translate(4 699)">
<title>WindowsConsoleLogger</title>
<polygon fill="white" stroke="none" points="-4,4 -4,-699 968,-699 968,4 -4,4"/>
<!-- Node1 -->
<g id="node1" class="node"><title>Node1</title>
<polygon fill="#bfbfbf" stroke="black" points="842,-383.5 842,-402.5 964,-402.5 964,-383.5 842,-383.5"/>
<text text-anchor="middle" x="903" y="-390.5" font-family="Helvetica,sans-Serif" font-size="10.00">WindowsConsoleLogger</text>
</g>
<!-- Node10 -->
<g id="node2" class="node"><title>Node10</title>
<polygon fill="white" stroke="#bfbfbf" points="256.5,-0.5 256.5,-19.5 322.5,-19.5 322.5,-0.5 256.5,-0.5"/>
<text text-anchor="middle" x="289.5" y="-7.5" font-family="Helvetica,sans-Serif" font-size="10.00">vector&lt;int&gt;</text>
</g>
<!-- Node9 -->
<g id="node13" class="node"><title>Node9</title>
<g id="a_node13"><a xlink:href="classaworx_1_1lox_1_1core_1_1textlogger_1_1AutoSizes.html" target="_top" xlink:title="AutoSizes">
<polygon fill="white" stroke="black" points="526,-4.5 526,-23.5 588,-23.5 588,-4.5 526,-4.5"/>
<text text-anchor="middle" x="557" y="-11.5" font-family="Helvetica,sans-Serif" font-size="10.00">AutoSizes</text>
</a>
</g>
</g>
<!-- Node10&#45;&gt;Node9 -->
<g id="edge19" class="edge"><title>Node10&#45;&gt;Node9</title>
<path fill="none" stroke="#9a32cd" stroke-dasharray="5,2" d="M332.778,-10.637C386.698,-11.4493 478.603,-12.8339 525.906,-13.5466"/>
<polygon fill="#9a32cd" stroke="#9a32cd" points="332.577,-7.13363 322.526,-10.4825 332.472,-14.1328 332.577,-7.13363"/>
<text text-anchor="middle" x="428" y="-27" font-family="Helvetica,sans-Serif" font-size="10.00"> values</text>
<text text-anchor="middle" x="428" y="-16" font-family="Helvetica,sans-Serif" font-size="10.00">sessionValues</text>
</g>
<!-- Node11 -->
<g id="node3" class="node"><title>Node11</title>
<polygon fill="white" stroke="#bfbfbf" points="384,-513.5 384,-532.5 472,-532.5 472,-513.5 384,-513.5"/>
<text text-anchor="middle" x="428" y="-520.5" font-family="Helvetica,sans-Serif" font-size="10.00">vector&lt;AString&gt;</text>
</g>
<!-- Node2 -->
<g id="node6" class="node"><title>Node2</title>
<g id="a_node6"><a xlink:href="classaworx_1_1lox_1_1core_1_1textlogger_1_1TextLogger.html" target="_top" xlink:title="TextLogger">
<polygon fill="white" stroke="black" points="740,-383.5 740,-402.5 805,-402.5 805,-383.5 740,-383.5"/>
<text text-anchor="middle" x="772.5" y="-390.5" font-family="Helvetica,sans-Serif" font-size="10.00">TextLogger</text>
</a>
</g>
</g>
<!-- Node11&#45;&gt;Node2 -->
<g id="edge20" class="edge"><title>Node11&#45;&gt;Node2</title>
<path fill="none" stroke="#9a32cd" stroke-dasharray="5,2" d="M482.118,-512.522C542.738,-499.148 643.616,-472.513 722,-430 736.336,-422.225 751.098,-410.639 760.727,-402.508"/>
<polygon fill="#9a32cd" stroke="#9a32cd" points="481.046,-509.173 472.014,-514.71 482.528,-516.014 481.046,-509.173"/>
<text text-anchor="middle" x="557" y="-513" font-family="Helvetica,sans-Serif" font-size="10.00"> replacements</text>
</g>
<!-- Node16 -->
<g id="node4" class="node"><title>Node16</title>
<polygon fill="white" stroke="#bfbfbf" points="490,-544.5 490,-563.5 624,-563.5 624,-544.5 490,-544.5"/>
<text text-anchor="middle" x="557" y="-551.5" font-family="Helvetica,sans-Serif" font-size="10.00">vector&lt;ObjectConverter *&gt;</text>
</g>
<!-- Node16&#45;&gt;Node2 -->
<g id="edge23" class="edge"><title>Node16&#45;&gt;Node2</title>
<path fill="none" stroke="#9a32cd" stroke-dasharray="5,2" d="M634.422,-550.706C664.648,-545.88 697.86,-535.724 722,-515 757.206,-484.775 767.703,-425.771 770.541,-402.636"/>
<polygon fill="#9a32cd" stroke="#9a32cd" points="633.711,-547.272 624.304,-552.146 634.697,-554.202 633.711,-547.272"/>
<text text-anchor="middle" x="682" y="-552" font-family="Helvetica,sans-Serif" font-size="10.00"> ObjectConverters</text>
</g>
<!-- Node6 -->
<g id="node5" class="node"><title>Node6</title>
<g id="a_node5"><a xlink:href="classaworx_1_1lib_1_1strings_1_1PreallocatedString.html" target="_top" xlink:title="PreallocatedString\&lt;TCapacity\&gt;">
<polygon fill="white" stroke="black" points="213,-314.5 213,-333.5 366,-333.5 366,-314.5 213,-314.5"/>
<text text-anchor="middle" x="289.5" y="-321.5" font-family="Helvetica,sans-Serif" font-size="10.00">PreallocatedString&lt;TCapacity&gt;</text>
</a>
</g>
</g>
<!-- Node6&#45;&gt;Node2 -->
<g id="edge7" class="edge"><title>Node6&#45;&gt;Node2</title>
<path fill="none" stroke="#9a32cd" stroke-dasharray="5,2" d="M346.761,-335.525C386.63,-343.425 441.445,-353.747 490,-361 580.239,-374.48 687.506,-385.226 739.743,-390.123"/>
<polygon fill="#9a32cd" stroke="#9a32cd" points="347.195,-332.043 336.703,-333.521 345.826,-338.908 347.195,-332.043"/>
<text text-anchor="middle" x="557" y="-381" font-family="Helvetica,sans-Serif" font-size="10.00"> FmtMultiLineMsgHeadline</text>
</g>
<!-- Node6&#45;&gt;Node2 -->
<g id="edge8" class="edge"><title>Node6&#45;&gt;Node2</title>
<path fill="none" stroke="#9a32cd" stroke-dasharray="5,2" d="M376.46,-319.778C459.349,-316.47 578.696,-313.927 624,-324 675.883,-335.535 731.11,-367.34 756.789,-383.423"/>
<polygon fill="#9a32cd" stroke="#9a32cd" points="376.134,-316.289 366.286,-320.195 376.421,-323.283 376.134,-316.289"/>
<text text-anchor="middle" x="557" y="-349" font-family="Helvetica,sans-Serif" font-size="10.00"> MultiLineDelimiterRepl</text>
<text text-anchor="middle" x="557" y="-338" font-family="Helvetica,sans-Serif" font-size="10.00">FmtMultiLineSuffix</text>
<text text-anchor="middle" x="557" y="-327" font-family="Helvetica,sans-Serif" font-size="10.00">FmtMultiLinePrefix</text>
</g>
<!-- Node3 -->
<g id="node7" class="node"><title>Node3</title>
<g id="a_node7"><a xlink:href="classaworx_1_1lox_1_1core_1_1Logger.html" target="_top" xlink:title="Logger">
<polygon fill="white" stroke="black" points="534,-437.5 534,-456.5 580,-456.5 580,-437.5 534,-437.5"/>
<text text-anchor="middle" x="557" y="-444.5" font-family="Helvetica,sans-Serif" font-size="10.00">Logger</text>
</a>
</g>
</g>
<!-- Node6&#45;&gt;Node3 -->
<g id="edge9" class="edge"><title>Node6&#45;&gt;Node3</title>
<path fill="none" stroke="#9a32cd" stroke-dasharray="5,2" d="M322.689,-337.418C340.572,-344.612 363.325,-353.341 384,-360 422.478,-372.393 438.664,-360.134 472,-383 483.291,-390.744 479.891,-398.766 490,-408 503.364,-420.208 521.156,-430.452 534.899,-437.373"/>
<polygon fill="#9a32cd" stroke="#9a32cd" points="323.881,-334.124 313.299,-333.602 321.245,-340.609 323.881,-334.124"/>
<text text-anchor="middle" x="428" y="-397" font-family="Helvetica,sans-Serif" font-size="10.00"> TypeName</text>
<text text-anchor="middle" x="428" y="-386" font-family="Helvetica,sans-Serif" font-size="10.00">Name</text>
</g>
<!-- Node14 -->
<g id="node10" class="node"><title>Node14</title>
<g id="a_node10"><a xlink:href="classaworx_1_1lox_1_1core_1_1textlogger_1_1MetaInfo.html" target="_top" xlink:title="MetaInfo">
<polygon fill="white" stroke="black" points="529.5,-206.5 529.5,-225.5 584.5,-225.5 584.5,-206.5 529.5,-206.5"/>
<text text-anchor="middle" x="557" y="-213.5" font-family="Helvetica,sans-Serif" font-size="10.00">MetaInfo</text>
</a>
</g>
</g>
<!-- Node6&#45;&gt;Node14 -->
<g id="edge10" class="edge"><title>Node6&#45;&gt;Node14</title>
<path fill="none" stroke="#9a32cd" stroke-dasharray="5,2" d="M294.568,-304.322C303.411,-267.258 328.243,-187.873 384,-155 417.691,-135.136 434.802,-142.918 472,-155 503.198,-165.133 532.492,-191.689 546.822,-206.196"/>
<polygon fill="#9a32cd" stroke="#9a32cd" points="291.088,-303.845 292.32,-314.368 297.919,-305.373 291.088,-303.845"/>
<text text-anchor="middle" x="428" y="-268" font-family="Helvetica,sans-Serif" font-size="10.00"> TimeDiffHours</text>
<text text-anchor="middle" x="428" y="-257" font-family="Helvetica,sans-Serif" font-size="10.00">VerbosityInfo</text>
<text text-anchor="middle" x="428" y="-246" font-family="Helvetica,sans-Serif" font-size="10.00">VerbosityWarning</text>
<text text-anchor="middle" x="428" y="-235" font-family="Helvetica,sans-Serif" font-size="10.00">VerbosityVerbose</text>
<text text-anchor="middle" x="428" y="-224" font-family="Helvetica,sans-Serif" font-size="10.00">TimeDiffMicros</text>
<text text-anchor="middle" x="428" y="-213" font-family="Helvetica,sans-Serif" font-size="10.00">TimeElapsedDays</text>
<text text-anchor="middle" x="428" y="-202" font-family="Helvetica,sans-Serif" font-size="10.00">VerbosityError</text>
<text text-anchor="middle" x="428" y="-191" font-family="Helvetica,sans-Serif" font-size="10.00">TimeOfDayFormat</text>
<text text-anchor="middle" x="428" y="-180" font-family="Helvetica,sans-Serif" font-size="10.00">TimeDiffMins</text>
<text text-anchor="middle" x="428" y="-169" font-family="Helvetica,sans-Serif" font-size="10.00">TimeDiffSecs</text>
<text text-anchor="middle" x="428" y="-158" font-family="Helvetica,sans-Serif" font-size="10.00">...</text>
</g>
<!-- Node6&#45;&gt;Node14 -->
<g id="edge11" class="edge"><title>Node6&#45;&gt;Node14</title>
<path fill="none" stroke="#9a32cd" stroke-dasharray="5,2" d="M335.762,-311.843C351.075,-307.745 368.276,-303.157 384,-299 423.082,-288.668 435.39,-293.143 472,-276 500.89,-262.472 530.215,-238.749 545.404,-225.548"/>
<polygon fill="#9a32cd" stroke="#9a32cd" points="334.761,-308.488 326.007,-314.456 336.572,-315.249 334.761,-308.488"/>
<text text-anchor="middle" x="428" y="-302" font-family="Helvetica,sans-Serif" font-size="10.00"> DateFormat</text>
</g>
<!-- Node2&#45;&gt;Node1 -->
<g id="edge1" class="edge"><title>Node2&#45;&gt;Node1</title>
<path fill="none" stroke="midnightblue" d="M815.538,-393C823.932,-393 832.904,-393 841.773,-393"/>
<polygon fill="midnightblue" stroke="midnightblue" points="815.264,-389.5 805.264,-393 815.264,-396.5 815.264,-389.5"/>
</g>
<!-- Node3&#45;&gt;Node2 -->
<g id="edge2" class="edge"><title>Node3&#45;&gt;Node2</title>
<path fill="none" stroke="midnightblue" d="M590.099,-439.536C623.224,-431.748 676.351,-419.018 722,-407 727.786,-405.477 733.935,-403.792 739.859,-402.134"/>
<polygon fill="midnightblue" stroke="midnightblue" points="589.019,-436.194 580.081,-441.884 590.616,-443.009 589.019,-436.194"/>
</g>
<!-- Node4 -->
<g id="node8" class="node"><title>Node4</title>
<g id="a_node8"><a xlink:href="classaworx_1_1lib_1_1threads_1_1SmartLock.html" target="_top" xlink:title="SmartLock">
<polygon fill="white" stroke="red" points="257.5,-475.5 257.5,-494.5 321.5,-494.5 321.5,-475.5 257.5,-475.5"/>
<text text-anchor="middle" x="289.5" y="-482.5" font-family="Helvetica,sans-Serif" font-size="10.00">SmartLock</text>
</a>
</g>
</g>
<!-- Node4&#45;&gt;Node3 -->
<g id="edge3" class="edge"><title>Node4&#45;&gt;Node3</title>
<path fill="none" stroke="midnightblue" d="M331.956,-484.172C368.94,-482.872 424.436,-479.539 472,-471 493.347,-467.167 517.056,-460.128 533.827,-454.66"/>
<polygon fill="midnightblue" stroke="midnightblue" points="331.455,-480.686 321.57,-484.5 331.676,-487.682 331.455,-480.686"/>
</g>
<!-- Node5 -->
<g id="node9" class="node"><title>Node5</title>
<g id="a_node9"><a xlink:href="classaworx_1_1lib_1_1time_1_1Ticks.html" target="_top" xlink:title="Ticks">
<polygon fill="white" stroke="black" points="269,-408.5 269,-427.5 310,-427.5 310,-408.5 269,-408.5"/>
<text text-anchor="middle" x="289.5" y="-415.5" font-family="Helvetica,sans-Serif" font-size="10.00">Ticks</text>
</a>
</g>
</g>
<!-- Node5&#45;&gt;Node3 -->
<g id="edge4" class="edge"><title>Node5&#45;&gt;Node3</title>
<path fill="none" stroke="#9a32cd" stroke-dasharray="5,2" d="M319.8,-425.963C338.109,-430.593 362.259,-436.076 384,-439 437.476,-446.193 501.05,-447.22 533.897,-447.2"/>
<polygon fill="#9a32cd" stroke="#9a32cd" points="320.578,-422.549 310.02,-423.43 318.823,-429.325 320.578,-422.549"/>
<text text-anchor="middle" x="428" y="-459" font-family="Helvetica,sans-Serif" font-size="10.00"> TimeOfLastLog</text>
<text text-anchor="middle" x="428" y="-448" font-family="Helvetica,sans-Serif" font-size="10.00">TimeOfCreation</text>
</g>
<!-- Node5&#45;&gt;Node5 -->
<g id="edge5" class="edge"><title>Node5&#45;&gt;Node5</title>
<path fill="none" stroke="#9a32cd" stroke-dasharray="5,2" d="M268.02,-437.4C269.454,-442.315 276.614,-446 289.5,-446 310.117,-446 316.077,-436.565 307.379,-427.757"/>
<polygon fill="#9a32cd" stroke="#9a32cd" points="271.401,-438.35 271.621,-427.757 264.843,-435.9 271.401,-438.35"/>
<text text-anchor="middle" x="289.5" y="-449" font-family="Helvetica,sans-Serif" font-size="10.00"> creationTime</text>
</g>
<!-- Node5&#45;&gt;Node14 -->
<g id="edge6" class="edge"><title>Node5&#45;&gt;Node14</title>
<path fill="none" stroke="#9a32cd" stroke-dasharray="5,2" d="M320.205,-420.107C365.894,-422.67 450.406,-424.507 472,-405 506.485,-373.849 471.315,-344.55 490,-302 503.773,-270.637 531.321,-240.401 546.096,-225.542"/>
<polygon fill="#9a32cd" stroke="#9a32cd" points="320.212,-416.601 310.018,-419.487 319.787,-423.588 320.212,-416.601"/>
<text text-anchor="middle" x="428" y="-424" font-family="Helvetica,sans-Serif" font-size="10.00"> MaxElapsedTime</text>
</g>
<!-- Node14&#45;&gt;Node2 -->
<g id="edge21" class="edge"><title>Node14&#45;&gt;Node2</title>
<path fill="none" stroke="#9a32cd" stroke-dasharray="5,2" d="M594.254,-227.056C630.355,-239.598 685.511,-263.097 722,-299 747.374,-323.966 762.623,-364.715 768.592,-383.259"/>
<polygon fill="#9a32cd" stroke="#9a32cd" points="595.203,-223.683 584.609,-223.808 592.969,-230.317 595.203,-223.683"/>
<text text-anchor="middle" x="682" y="-302" font-family="Helvetica,sans-Serif" font-size="10.00"> MetaInfo</text>
</g>
<!-- Node7 -->
<g id="node11" class="node"><title>Node7</title>
<g id="a_node11"><a xlink:href="classaworx_1_1lib_1_1strings_1_1AString.html" target="_top" xlink:title="AString">
<polygon fill="white" stroke="black" points="85,-314.5 85,-333.5 134,-333.5 134,-314.5 85,-314.5"/>
<text text-anchor="middle" x="109.5" y="-321.5" font-family="Helvetica,sans-Serif" font-size="10.00">AString</text>
</a>
</g>
</g>
<!-- Node7&#45;&gt;Node11 -->
<g id="edge14" class="edge"><title>Node7&#45;&gt;Node11</title>
<path fill="none" stroke="#9a32cd" stroke-dasharray="5,2" d="M115.171,-343.469C125.474,-381.7 154.063,-466.152 213,-504 264.471,-537.053 337.821,-535.555 383.893,-530.209"/>
<polygon fill="#9a32cd" stroke="#9a32cd" points="118.512,-342.408 112.643,-333.587 111.731,-344.143 118.512,-342.408"/>
<text text-anchor="middle" x="173.5" y="-492" font-family="Helvetica,sans-Serif" font-size="10.00"> elements</text>
</g>
<!-- Node7&#45;&gt;Node6 -->
<g id="edge13" class="edge"><title>Node7&#45;&gt;Node6</title>
<path fill="none" stroke="midnightblue" d="M144.263,-324C163.642,-324 188.799,-324 212.664,-324"/>
<polygon fill="midnightblue" stroke="midnightblue" points="144.137,-320.5 134.137,-324 144.137,-327.5 144.137,-320.5"/>
</g>
<!-- Node7&#45;&gt;Node2 -->
<g id="edge12" class="edge"><title>Node7&#45;&gt;Node2</title>
<path fill="none" stroke="#9a32cd" stroke-dasharray="5,2" d="M110.51,-343.946C111.794,-396.411 123.709,-537.172 213,-580 417.074,-677.882 547.484,-708.123 722,-564 772.521,-522.278 773.313,-432.388 772.093,-402.721"/>
<polygon fill="#9a32cd" stroke="#9a32cd" points="114.006,-343.59 110.372,-333.637 107.006,-343.683 114.006,-343.59"/>
<text text-anchor="middle" x="428" y="-687" font-family="Helvetica,sans-Serif" font-size="10.00"> logBuf</text>
<text text-anchor="middle" x="428" y="-676" font-family="Helvetica,sans-Serif" font-size="10.00">MultiLineDelimiter</text>
<text text-anchor="middle" x="428" y="-665" font-family="Helvetica,sans-Serif" font-size="10.00">msgBuf</text>
</g>
<!-- Node7&#45;&gt;Node14 -->
<g id="edge15" class="edge"><title>Node7&#45;&gt;Node14</title>
<path fill="none" stroke="#9a32cd" stroke-dasharray="5,2" d="M127.03,-307.264C166.862,-268.278 273.097,-172.138 384,-138 421.38,-126.494 435.595,-123.704 472,-138 507.566,-151.966 537.033,-188.858 549.544,-206.431"/>
<polygon fill="#9a32cd" stroke="#9a32cd" points="124.4,-304.942 119.763,-314.469 129.328,-309.913 124.4,-304.942"/>
<text text-anchor="middle" x="289.5" y="-233" font-family="Helvetica,sans-Serif" font-size="10.00"> Format</text>
</g>
<!-- Node8 -->
<g id="node12" class="node"><title>Node8</title>
<g id="a_node12"><a xlink:href="classaworx_1_1lib_1_1strings_1_1TString.html" target="_top" xlink:title="TString">
<polygon fill="white" stroke="red" points="0,-119.5 0,-138.5 48,-138.5 48,-119.5 0,-119.5"/>
<text text-anchor="middle" x="24" y="-126.5" font-family="Helvetica,sans-Serif" font-size="10.00">TString</text>
</a>
</g>
</g>
<!-- Node8&#45;&gt;Node2 -->
<g id="edge16" class="edge"><title>Node8&#45;&gt;Node2</title>
<path fill="none" stroke="#9a32cd" stroke-dasharray="5,2" d="M35.2595,-110.759C48.9265,-89.1362 75.289,-56 108.5,-56 108.5,-56 108.5,-56 558,-56 717.298,-56 762.692,-328.023 770.27,-383.278"/>
<polygon fill="#9a32cd" stroke="#9a32cd" points="32.185,-109.08 30.0451,-119.457 38.1888,-112.679 32.185,-109.08"/>
<text text-anchor="middle" x="289.5" y="-59" font-family="Helvetica,sans-Serif" font-size="10.00"> FmtUnknownObject</text>
</g>
<!-- Node8&#45;&gt;Node7 -->
<g id="edge17" class="edge"><title>Node8&#45;&gt;Node7</title>
<path fill="none" stroke="midnightblue" d="M33.1479,-148.028C50.6316,-188.858 91.2217,-283.649 104.334,-314.272"/>
<polygon fill="midnightblue" stroke="midnightblue" points="36.2946,-146.485 29.1408,-138.67 29.8597,-149.24 36.2946,-146.485"/>
</g>
<!-- Node9&#45;&gt;Node2 -->
<g id="edge18" class="edge"><title>Node9&#45;&gt;Node2</title>
<path fill="none" stroke="#9a32cd" stroke-dasharray="5,2" d="M598.291,-5.61408C635.507,-0.42971 689.757,0.208276 722,-31 774.187,-81.5128 772.617,-331.322 771.706,-383.455"/>
<polygon fill="#9a32cd" stroke="#9a32cd" points="597.621,-2.17624 588.279,-7.1742 598.699,-9.09277 597.621,-2.17624"/>
<text text-anchor="middle" x="682" y="-34" font-family="Helvetica,sans-Serif" font-size="10.00"> AutoSizes</text>
</g>
<!-- Node15 -->
<g id="node14" class="node"><title>Node15</title>
<g id="a_node14"><a xlink:href="classaworx_1_1lib_1_1time_1_1TicksCalendarTime.html" target="_top" xlink:title="TicksCalendarTime">
<polygon fill="white" stroke="black" points="239,-85.5 239,-104.5 340,-104.5 340,-85.5 239,-85.5"/>
<text text-anchor="middle" x="289.5" y="-92.5" font-family="Helvetica,sans-Serif" font-size="10.00">TicksCalendarTime</text>
</a>
</g>
</g>
<!-- Node15&#45;&gt;Node14 -->
<g id="edge22" class="edge"><title>Node15&#45;&gt;Node14</title>
<path fill="none" stroke="#9a32cd" stroke-dasharray="5,2" d="M338.977,-83.6776C377.309,-77.3529 431.008,-74.5137 472,-96 518.174,-120.202 544.262,-182.593 552.825,-206.492"/>
<polygon fill="#9a32cd" stroke="#9a32cd" points="338.319,-80.2397 329.089,-85.4418 339.548,-87.1309 338.319,-80.2397"/>
<text text-anchor="middle" x="428" y="-99" font-family="Helvetica,sans-Serif" font-size="10.00"> callerDateTime</text>
</g>
<!-- Node17 -->
<g id="node15" class="node"><title>Node17</title>
<g id="a_node15"><a xlink:href="classaworx_1_1lox_1_1core_1_1textlogger_1_1ObjectConverter.html" target="_top" xlink:title="ObjectConverter">
<polygon fill="white" stroke="black" points="245.5,-551.5 245.5,-570.5 333.5,-570.5 333.5,-551.5 245.5,-551.5"/>
<text text-anchor="middle" x="289.5" y="-558.5" font-family="Helvetica,sans-Serif" font-size="10.00">ObjectConverter</text>
</a>
</g>
</g>
<!-- Node17&#45;&gt;Node16 -->
<g id="edge24" class="edge"><title>Node17&#45;&gt;Node16</title>
<path fill="none" stroke="#9a32cd" stroke-dasharray="5,2" d="M343.797,-559.595C385.879,-558.485 444.816,-556.931 489.902,-555.743"/>
<polygon fill="#9a32cd" stroke="#9a32cd" points="343.652,-556.097 333.748,-559.86 343.837,-563.095 343.652,-556.097"/>
<text text-anchor="middle" x="428" y="-561" font-family="Helvetica,sans-Serif" font-size="10.00"> elements</text>
</g>
</g>
</svg>
