<?xml version="1.0" encoding="UTF-8" standalone="no"?>
<!DOCTYPE svg PUBLIC "-//W3C//DTD SVG 1.1//EN"
 "http://www.w3.org/Graphics/SVG/1.1/DTD/svg11.dtd">
<!-- Generated by graphviz version 2.38.0 (20140413.2041)
 -->
<!-- Title: String Pages: 1 -->
<svg width="434pt" height="91pt"
 viewBox="0.00 0.00 434.00 90.50" xmlns="http://www.w3.org/2000/svg" xmlns:xlink="http://www.w3.org/1999/xlink">
<g id="graph0" class="graph" transform="scale(1 1) rotate(0) translate(4 86.5)">
<title>String</title>
<polygon fill="white" stroke="none" points="-4,4 -4,-86.5 430,-86.5 430,4 -4,4"/>
<!-- Node1 -->
<g id="node1" class="node"><title>Node1</title>
<polygon fill="#bfbfbf" stroke="black" points="0,-44 0,-63 42,-63 42,-44 0,-44"/>
<text text-anchor="middle" x="21" y="-51" font-family="Helvetica,sans-Serif" font-size="10.00">String</text>
</g>
<!-- Node2 -->
<g id="node4" class="node"><title>Node2</title>
<g id="a_node4"><a xlink:href="classaworx_1_1lib_1_1strings_1_1Substring.html" target="_top" xlink:title="Substring">
<polygon fill="white" stroke="black" points="78,-63 78,-82 136,-82 136,-63 78,-63"/>
<text text-anchor="middle" x="107" y="-70" font-family="Helvetica,sans-Serif" font-size="10.00">Substring</text>
</a>
</g>
</g>
<!-- Node1&#45;&gt;Node2 -->
<g id="edge1" class="edge"><title>Node1&#45;&gt;Node2</title>
<path fill="none" stroke="midnightblue" d="M52.1418,-60.3178C60.5457,-62.2187 69.6396,-64.2756 77.9197,-66.1485"/>
<polygon fill="midnightblue" stroke="midnightblue" points="52.8599,-56.8919 42.3341,-58.0994 51.3155,-63.7194 52.8599,-56.8919"/>
</g>
<!-- Node3 -->
<g id="node5" class="node"><title>Node3</title>
<g id="a_node5"><a xlink:href="classaworx_1_1lib_1_1strings_1_1TString.html" target="_top" xlink:title="TString">
<polygon fill="white" stroke="black" points="83,-25 83,-44 131,-44 131,-25 83,-25"/>
<text text-anchor="middle" x="107" y="-32" font-family="Helvetica,sans-Serif" font-size="10.00">TString</text>
</a>
</g>
</g>
<!-- Node1&#45;&gt;Node3 -->
<g id="edge2" class="edge"><title>Node1&#45;&gt;Node3</title>
<path fill="none" stroke="midnightblue" d="M52.3636,-46.6321C62.4274,-44.3557 73.459,-41.8605 82.8869,-39.728"/>
<polygon fill="midnightblue" stroke="midnightblue" points="51.3155,-43.2806 42.3341,-48.9006 52.8599,-50.1081 51.3155,-43.2806"/>
</g>
<!-- Node5 -->
<g id="node2" class="node"><title>Node5</title>
<g id="a_node2"><a xlink:href="classaworx_1_1lib_1_1strings_1_1PreallocatedString.html" target="_top" xlink:title="PreallocatedString\l\&lt; TCapacity \&gt;">
<polygon fill="white" stroke="black" points="330,-0.5 330,-30.5 426,-30.5 426,-0.5 330,-0.5"/>
<text text-anchor="start" x="338" y="-18.5" font-family="Helvetica,sans-Serif" font-size="10.00">PreallocatedString</text>
<text text-anchor="middle" x="378" y="-7.5" font-family="Helvetica,sans-Serif" font-size="10.00">&lt; TCapacity &gt;</text>
</a>
</g>
</g>
<!-- Node10 -->
<g id="node3" class="node"><title>Node10</title>
<g id="a_node3"><a xlink:href="classaworx_1_1lib_1_1strings_1_1StringLiteral.html" target="_top" xlink:title="StringLiteral\&lt; TLength \&gt;">
<polygon fill="white" stroke="black" points="172,-44 172,-63 294,-63 294,-44 172,-44"/>
<text text-anchor="middle" x="233" y="-51" font-family="Helvetica,sans-Serif" font-size="10.00">StringLiteral&lt; TLength &gt;</text>
</a>
</g>
</g>
<!-- Node3&#45;&gt;Node10 -->
<g id="edge4" class="edge"><title>Node3&#45;&gt;Node10</title>
<path fill="none" stroke="midnightblue" d="M141.194,-39.5862C150.688,-41.0409 161.341,-42.6733 171.92,-44.2942"/>
<polygon fill="midnightblue" stroke="midnightblue" points="141.448,-36.0843 131.033,-38.0292 140.387,-43.0035 141.448,-36.0843"/>
</g>
<!-- Node4 -->
<g id="node6" class="node"><title>Node4</title>
<g id="a_node6"><a xlink:href="classaworx_1_1lib_1_1strings_1_1AString.html" target="_top" xlink:title="AString">
<polygon fill="white" stroke="black" points="208.5,-6 208.5,-25 257.5,-25 257.5,-6 208.5,-6"/>
<text text-anchor="middle" x="233" y="-13" font-family="Helvetica,sans-Serif" font-size="10.00">AString</text>
</a>
</g>
</g>
<!-- Node3&#45;&gt;Node4 -->
<g id="edge3" class="edge"><title>Node3&#45;&gt;Node4</title>
<path fill="none" stroke="midnightblue" d="M141.192,-29.4141C162.337,-26.1742 189.23,-22.0534 208.246,-19.1397"/>
<polygon fill="midnightblue" stroke="midnightblue" points="140.387,-25.9965 131.033,-30.9708 141.448,-32.9157 140.387,-25.9965"/>
</g>
<!-- Node4&#45;&gt;Node5 -->
<g id="edge5" class="edge"><title>Node4&#45;&gt;Node5</title>
<path fill="none" stroke="midnightblue" d="M267.657,-15.5C286.219,-15.5 309.561,-15.5 329.907,-15.5"/>
<polygon fill="midnightblue" stroke="midnightblue" points="267.614,-12.0001 257.614,-15.5 267.614,-19.0001 267.614,-12.0001"/>
</g>
</g>
</svg>
