<?xml version="1.0" encoding="UTF-8" standalone="no"?>
<!DOCTYPE svg PUBLIC "-//W3C//DTD SVG 1.1//EN"
 "http://www.w3.org/Graphics/SVG/1.1/DTD/svg11.dtd">
<!-- Generated by graphviz version 2.38.0 (20140413.2041)
 -->
<!-- Title: Report Pages: 1 -->
<svg width="273pt" height="152pt"
 viewBox="0.00 0.00 273.00 152.00" xmlns="http://www.w3.org/2000/svg" xmlns:xlink="http://www.w3.org/1999/xlink">
<g id="graph0" class="graph" transform="scale(1 1) rotate(0) translate(4 148)">
<title>Report</title>
<polygon fill="white" stroke="none" points="-4,4 -4,-148 269,-148 269,4 -4,4"/>
<!-- Node1 -->
<g id="node1" class="node"><title>Node1</title>
<polygon fill="#bfbfbf" stroke="black" points="104.5,-0.5 104.5,-19.5 150.5,-19.5 150.5,-0.5 104.5,-0.5"/>
<text text-anchor="middle" x="127.5" y="-7.5" font-family="Helvetica,sans-Serif" font-size="10.00">Report</text>
</g>
<!-- Node1&#45;&gt;Node1 -->
<g id="edge2" class="edge"><title>Node1&#45;&gt;Node1</title>
<path fill="none" stroke="#9a32cd" stroke-dasharray="5,2" d="M160.911,-15.3327C165.464,-14.4436 168.5,-12.666 168.5,-10 168.5,-5.625 160.325,-3.64258 150.682,-4.05273"/>
<polygon fill="#9a32cd" stroke="#9a32cd" points="160.454,-11.8537 150.682,-15.9473 160.874,-18.8411 160.454,-11.8537"/>
<text text-anchor="middle" x="199.5" y="-7.5" font-family="Helvetica,sans-Serif" font-size="10.00"> defaultReport</text>
</g>
<!-- Node2 -->
<g id="node2" class="node"><title>Node2</title>
<polygon fill="white" stroke="#bfbfbf" points="0,-67.5 0,-86.5 69,-86.5 69,-67.5 0,-67.5"/>
<text text-anchor="middle" x="34.5" y="-74.5" font-family="Helvetica,sans-Serif" font-size="10.00">stack&lt; int &gt;</text>
</g>
<!-- Node2&#45;&gt;Node1 -->
<g id="edge1" class="edge"><title>Node2&#45;&gt;Node1</title>
<path fill="none" stroke="#9a32cd" stroke-dasharray="5,2" d="M40.2902,-57.8034C43.2856,-50.825 47.5835,-43.2788 53.5,-38 67.7862,-25.2535 88.5782,-18.3736 104.488,-14.7557"/>
<polygon fill="#9a32cd" stroke="#9a32cd" points="36.9676,-56.6977 36.7967,-67.2912 43.5365,-59.1165 36.9676,-56.6977"/>
<text text-anchor="middle" x="88.5" y="-41" font-family="Helvetica,sans-Serif" font-size="10.00"> haltAfterReport</text>
</g>
<!-- Node3 -->
<g id="node3" class="node"><title>Node3</title>
<g id="a_node3"><a xlink:href="classaworx_1_1lib_1_1ReportWriter.html" target="_top" xlink:title="ReportWriter">
<polygon fill="white" stroke="black" points="91.5,-67.5 91.5,-86.5 163.5,-86.5 163.5,-67.5 91.5,-67.5"/>
<text text-anchor="middle" x="127.5" y="-74.5" font-family="Helvetica,sans-Serif" font-size="10.00">ReportWriter</text>
</a>
</g>
</g>
<!-- Node3&#45;&gt;Node1 -->
<g id="edge3" class="edge"><title>Node3&#45;&gt;Node1</title>
<path fill="none" stroke="#9a32cd" stroke-dasharray="5,2" d="M127.5,-57.037C127.5,-44.6703 127.5,-29.1198 127.5,-19.6273"/>
<polygon fill="#9a32cd" stroke="#9a32cd" points="124,-57.2338 127.5,-67.2338 131,-57.2338 124,-57.2338"/>
<text text-anchor="middle" x="155" y="-41" font-family="Helvetica,sans-Serif" font-size="10.00"> reportWriter</text>
</g>
<!-- Node4 -->
<g id="node4" class="node"><title>Node4</title>
<g id="a_node4"><a xlink:href="classaworx_1_1lib_1_1threads_1_1ThreadLockNR.html" target="_top" xlink:title="ThreadLockNR">
<polygon fill="white" stroke="black" points="182,-67.5 182,-86.5 265,-86.5 265,-67.5 182,-67.5"/>
<text text-anchor="middle" x="223.5" y="-74.5" font-family="Helvetica,sans-Serif" font-size="10.00">ThreadLockNR</text>
</a>
</g>
</g>
<!-- Node4&#45;&gt;Node1 -->
<g id="edge4" class="edge"><title>Node4&#45;&gt;Node1</title>
<path fill="none" stroke="#9a32cd" stroke-dasharray="5,2" d="M209.821,-59.3939C203.292,-52.1815 195.047,-44.0242 186.5,-38 175.543,-30.2773 162.024,-23.9002 150.692,-19.2864"/>
<polygon fill="#9a32cd" stroke="#9a32cd" points="207.422,-61.9707 216.613,-67.2422 212.716,-57.3901 207.422,-61.9707"/>
<text text-anchor="middle" x="210.5" y="-41" font-family="Helvetica,sans-Serif" font-size="10.00"> lock</text>
</g>
<!-- Node5 -->
<g id="node5" class="node"><title>Node5</title>
<g id="a_node5"><a xlink:href="classaworx_1_1lib_1_1Ownable.html" target="_top" xlink:title="Ownable">
<polygon fill="white" stroke="black" points="196,-124.5 196,-143.5 251,-143.5 251,-124.5 196,-124.5"/>
<text text-anchor="middle" x="223.5" y="-131.5" font-family="Helvetica,sans-Serif" font-size="10.00">Ownable</text>
</a>
</g>
</g>
<!-- Node5&#45;&gt;Node4 -->
<g id="edge5" class="edge"><title>Node5&#45;&gt;Node4</title>
<path fill="none" stroke="midnightblue" d="M223.5,-114.117C223.5,-104.817 223.5,-94.0557 223.5,-86.7149"/>
<polygon fill="midnightblue" stroke="midnightblue" points="220,-114.406 223.5,-124.406 227,-114.406 220,-114.406"/>
</g>
</g>
</svg>
