<?xml version="1.0" encoding="UTF-8" standalone="no"?>
<!DOCTYPE svg PUBLIC "-//W3C//DTD SVG 1.1//EN"
 "http://www.w3.org/Graphics/SVG/1.1/DTD/svg11.dtd">
<!-- Generated by graphviz version 2.38.0 (20140413.2041)
 -->
<!-- Title: ALIB Pages: 1 -->
<svg width="1306pt" height="305pt"
 viewBox="0.00 0.00 1306.00 304.56" xmlns="http://www.w3.org/2000/svg" xmlns:xlink="http://www.w3.org/1999/xlink">
<g id="graph0" class="graph" transform="scale(1 1) rotate(0) translate(4 300.562)">
<title>ALIB</title>
<polygon fill="white" stroke="none" points="-4,4 -4,-300.562 1302,-300.562 1302,4 -4,4"/>
<!-- Node1 -->
<g id="node1" class="node"><title>Node1</title>
<polygon fill="#bfbfbf" stroke="black" points="1225.5,-220.062 1225.5,-239.062 1263.5,-239.062 1263.5,-220.062 1225.5,-220.062"/>
<text text-anchor="middle" x="1244.5" y="-227.062" font-family="Helvetica,sans-Serif" font-size="10.00">ALIB</text>
</g>
<!-- Node2 -->
<g id="node2" class="node"><title>Node2</title>
<g id="a_node2"><a xlink:href="classaworx_1_1lib_1_1strings_1_1String.html" target="_top" xlink:title="String">
<polygon fill="white" stroke="black" points="0,-103.062 0,-122.062 42,-122.062 42,-103.062 0,-103.062"/>
<text text-anchor="middle" x="21" y="-110.062" font-family="Helvetica,sans-Serif" font-size="10.00">String</text>
</a>
</g>
</g>
<!-- Node2&#45;&gt;Node1 -->
<g id="edge1" class="edge"><title>Node2&#45;&gt;Node1</title>
<path fill="none" stroke="#9a32cd" stroke-dasharray="5,2" d="M25.963,-131.883C36.4663,-177.015 69.4744,-285.562 144,-285.562 144,-285.562 144,-285.562 999,-285.562 1085.66,-285.562 1185.33,-251.723 1225.42,-236.654"/>
<polygon fill="#9a32cd" stroke="#9a32cd" points="29.3798,-131.124 23.8133,-122.109 22.5432,-132.628 29.3798,-131.124"/>
<text text-anchor="middle" x="559.5" y="-288.562" font-family="Helvetica,sans-Serif" font-size="10.00"> ConfigCategoryName</text>
</g>
<!-- Node5 -->
<g id="node5" class="node"><title>Node5</title>
<g id="a_node5"><a xlink:href="classaworx_1_1lib_1_1strings_1_1TString.html" target="_top" xlink:title="TString">
<polygon fill="white" stroke="black" points="121,-103.062 121,-122.062 169,-122.062 169,-103.062 121,-103.062"/>
<text text-anchor="middle" x="145" y="-110.062" font-family="Helvetica,sans-Serif" font-size="10.00">TString</text>
</a>
</g>
</g>
<!-- Node2&#45;&gt;Node5 -->
<g id="edge5" class="edge"><title>Node2&#45;&gt;Node5</title>
<path fill="none" stroke="midnightblue" d="M52.2595,-112.562C73.4956,-112.562 101.461,-112.562 120.909,-112.562"/>
<polygon fill="midnightblue" stroke="midnightblue" points="52.1459,-109.062 42.1458,-112.562 52.1458,-116.062 52.1459,-109.062"/>
</g>
<!-- Node12 -->
<g id="node12" class="node"><title>Node12</title>
<polygon fill="white" stroke="#bfbfbf" points="199.5,-32.5617 199.5,-62.5617 294.5,-62.5617 294.5,-32.5617 199.5,-32.5617"/>
<text text-anchor="start" x="207.5" y="-50.5617" font-family="Helvetica,sans-Serif" font-size="10.00">vector&lt; aworx::lib</text>
<text text-anchor="middle" x="247" y="-39.5617" font-family="Helvetica,sans-Serif" font-size="10.00">::strings::String &gt;</text>
</g>
<!-- Node2&#45;&gt;Node12 -->
<g id="edge18" class="edge"><title>Node2&#45;&gt;Node12</title>
<path fill="none" stroke="#9a32cd" stroke-dasharray="5,2" d="M51.9682,-100.369C54.67,-99.3803 57.3758,-98.4293 60,-97.5617 106.828,-82.0804 161.442,-67.8402 199.323,-58.5503"/>
<polygon fill="#9a32cd" stroke="#9a32cd" points="50.4507,-97.202 42.3543,-104.036 52.9451,-103.742 50.4507,-97.202"/>
<text text-anchor="middle" x="81.5" y="-100.562" font-family="Helvetica,sans-Serif" font-size="10.00"> elements</text>
</g>
<!-- Node3 -->
<g id="node3" class="node"><title>Node3</title>
<g id="a_node3"><a xlink:href="classaworx_1_1lib_1_1threads_1_1ThreadLockNR.html" target="_top" xlink:title="ThreadLockNR">
<polygon fill="white" stroke="black" points="639,-229.062 639,-248.062 722,-248.062 722,-229.062 639,-229.062"/>
<text text-anchor="middle" x="680.5" y="-236.062" font-family="Helvetica,sans-Serif" font-size="10.00">ThreadLockNR</text>
</a>
</g>
</g>
<!-- Node3&#45;&gt;Node1 -->
<g id="edge2" class="edge"><title>Node3&#45;&gt;Node1</title>
<path fill="none" stroke="#9a32cd" stroke-dasharray="5,2" d="M732.411,-238.823C821.669,-239.107 1012.2,-238.938 1173,-233.562 1190.77,-232.968 1211.02,-231.763 1225.25,-230.831"/>
<polygon fill="#9a32cd" stroke="#9a32cd" points="732.306,-235.323 722.294,-238.788 732.281,-242.323 732.306,-235.323"/>
<text text-anchor="middle" x="907.5" y="-242.562" font-family="Helvetica,sans-Serif" font-size="10.00"> Lock</text>
</g>
<!-- Node4 -->
<g id="node4" class="node"><title>Node4</title>
<g id="a_node4"><a xlink:href="classaworx_1_1lib_1_1Ownable.html" target="_top" xlink:title="Ownable">
<polygon fill="white" stroke="black" points="325,-178.062 325,-197.062 380,-197.062 380,-178.062 325,-178.062"/>
<text text-anchor="middle" x="352.5" y="-185.062" font-family="Helvetica,sans-Serif" font-size="10.00">Ownable</text>
</a>
</g>
</g>
<!-- Node4&#45;&gt;Node3 -->
<g id="edge3" class="edge"><title>Node4&#45;&gt;Node3</title>
<path fill="none" stroke="midnightblue" d="M390.201,-193.303C451.667,-202.919 574.964,-222.208 638.925,-232.214"/>
<polygon fill="midnightblue" stroke="midnightblue" points="390.599,-189.823 380.178,-191.735 389.517,-196.739 390.599,-189.823"/>
</g>
<!-- Node7 -->
<g id="node7" class="node"><title>Node7</title>
<g id="a_node7"><a xlink:href="classaworx_1_1lib_1_1threads_1_1ThreadLock.html" target="_top" xlink:title="ThreadLock">
<polygon fill="white" stroke="black" points="525.5,-150.062 525.5,-169.062 593.5,-169.062 593.5,-150.062 525.5,-150.062"/>
<text text-anchor="middle" x="559.5" y="-157.062" font-family="Helvetica,sans-Serif" font-size="10.00">ThreadLock</text>
</a>
</g>
</g>
<!-- Node4&#45;&gt;Node7 -->
<g id="edge8" class="edge"><title>Node4&#45;&gt;Node7</title>
<path fill="none" stroke="midnightblue" d="M390.528,-182.504C428.899,-177.263 488.321,-169.147 525.239,-164.105"/>
<polygon fill="midnightblue" stroke="midnightblue" points="389.734,-179.08 380.3,-183.901 390.682,-186.016 389.734,-179.08"/>
</g>
<!-- Node5&#45;&gt;Node4 -->
<g id="edge4" class="edge"><title>Node5&#45;&gt;Node4</title>
<path fill="none" stroke="#9a32cd" stroke-dasharray="5,2" d="M178.613,-124.464C219.212,-139.282 287.758,-164.298 325.182,-177.957"/>
<polygon fill="#9a32cd" stroke="#9a32cd" points="179.768,-121.16 169.174,-121.019 177.368,-127.736 179.768,-121.16"/>
<text text-anchor="middle" x="247" y="-183.562" font-family="Helvetica,sans-Serif" font-size="10.00"> acquirementMethodName</text>
<text text-anchor="middle" x="247" y="-172.562" font-family="Helvetica,sans-Serif" font-size="10.00">acquirementSourcefile</text>
</g>
<!-- Node11 -->
<g id="node11" class="node"><title>Node11</title>
<g id="a_node11"><a xlink:href="classaworx_1_1lib_1_1strings_1_1NumberFormat.html" target="_top" xlink:title="NumberFormat">
<polygon fill="white" stroke="black" points="398,-77.0617 398,-96.0617 480,-96.0617 480,-77.0617 398,-77.0617"/>
<text text-anchor="middle" x="439" y="-84.0617" font-family="Helvetica,sans-Serif" font-size="10.00">NumberFormat</text>
</a>
</g>
</g>
<!-- Node5&#45;&gt;Node11 -->
<g id="edge16" class="edge"><title>Node5&#45;&gt;Node11</title>
<path fill="none" stroke="#9a32cd" stroke-dasharray="5,2" d="M179.265,-104.827C181.874,-104.353 184.475,-103.922 187,-103.562 260.936,-93.0025 348.09,-88.9647 397.814,-87.4473"/>
<polygon fill="#9a32cd" stroke="#9a32cd" points="178.427,-101.425 169.307,-106.818 179.799,-108.289 178.427,-101.425"/>
<text text-anchor="middle" x="247" y="-117.562" font-family="Helvetica,sans-Serif" font-size="10.00"> DecimalPointCharacters</text>
<text text-anchor="middle" x="247" y="-106.562" font-family="Helvetica,sans-Serif" font-size="10.00">DecimalExponentSeparator</text>
</g>
<!-- Node6 -->
<g id="node6" class="node"><title>Node6</title>
<g id="a_node6"><a xlink:href="classaworx_1_1lib_1_1threads_1_1SmartLock.html" target="_top" xlink:title="SmartLock">
<polygon fill="white" stroke="black" points="966,-194.062 966,-213.062 1030,-213.062 1030,-194.062 966,-194.062"/>
<text text-anchor="middle" x="998" y="-201.062" font-family="Helvetica,sans-Serif" font-size="10.00">SmartLock</text>
</a>
</g>
</g>
<!-- Node6&#45;&gt;Node1 -->
<g id="edge6" class="edge"><title>Node6&#45;&gt;Node1</title>
<path fill="none" stroke="#9a32cd" stroke-dasharray="5,2" d="M1040.74,-208.001C1094.8,-213.749 1186.66,-223.517 1225.4,-227.637"/>
<polygon fill="#9a32cd" stroke="#9a32cd" points="1040.78,-204.485 1030.46,-206.908 1040.04,-211.445 1040.78,-204.485"/>
<text text-anchor="middle" x="1120" y="-225.562" font-family="Helvetica,sans-Serif" font-size="10.00"> StdOutputStreamsLock</text>
</g>
<!-- Node7&#45;&gt;Node6 -->
<g id="edge7" class="edge"><title>Node7&#45;&gt;Node6</title>
<path fill="none" stroke="midnightblue" d="M604.045,-160.476C663.781,-162.133 774.399,-166.651 868,-178.562 901.719,-182.852 939.887,-190.617 965.902,-196.359"/>
<polygon fill="midnightblue" stroke="midnightblue" points="603.939,-156.972 593.85,-160.207 603.755,-163.969 603.939,-156.972"/>
</g>
<!-- Node9 -->
<g id="node9" class="node"><title>Node9</title>
<polygon fill="white" stroke="#bfbfbf" points="740,-188.562 740,-218.562 868,-218.562 868,-188.562 740,-188.562"/>
<text text-anchor="start" x="748" y="-206.562" font-family="Helvetica,sans-Serif" font-size="10.00">vector&lt; aworx::lib</text>
<text text-anchor="middle" x="804" y="-195.562" font-family="Helvetica,sans-Serif" font-size="10.00">::threads::ThreadLock * &gt;</text>
</g>
<!-- Node7&#45;&gt;Node9 -->
<g id="edge11" class="edge"><title>Node7&#45;&gt;Node9</title>
<path fill="none" stroke="#9a32cd" stroke-dasharray="5,2" d="M603.89,-167.434C641.717,-174.298 697.066,-184.341 739.812,-192.097"/>
<polygon fill="#9a32cd" stroke="#9a32cd" points="604.174,-163.929 593.71,-165.587 602.925,-170.817 604.174,-163.929"/>
<text text-anchor="middle" x="680.5" y="-191.562" font-family="Helvetica,sans-Serif" font-size="10.00"> elements</text>
</g>
<!-- Node10 -->
<g id="node10" class="node"><title>Node10</title>
<g id="a_node10"><a xlink:href="classaworx_1_1lib_1_1config_1_1Configuration.html" target="_top" xlink:title="Configuration">
<polygon fill="white" stroke="black" points="767,-72.0617 767,-91.0617 841,-91.0617 841,-72.0617 767,-72.0617"/>
<text text-anchor="middle" x="804" y="-79.0617" font-family="Helvetica,sans-Serif" font-size="10.00">Configuration</text>
</a>
</g>
</g>
<!-- Node7&#45;&gt;Node10 -->
<g id="edge13" class="edge"><title>Node7&#45;&gt;Node10</title>
<path fill="none" stroke="midnightblue" d="M603.988,-150.75C636.859,-143.557 682.853,-132.346 722,-118.562 744.02,-110.808 768.244,-99.3287 784.412,-91.2161"/>
<polygon fill="midnightblue" stroke="midnightblue" points="602.842,-147.417 593.803,-152.943 604.315,-154.26 602.842,-147.417"/>
</g>
<!-- Node8 -->
<g id="node8" class="node"><title>Node8</title>
<g id="a_node8"><a xlink:href="classaworx_1_1lib_1_1threads_1_1Thread.html" target="_top" xlink:title="Thread">
<polygon fill="white" stroke="red" points="329,-140.062 329,-159.062 376,-159.062 376,-140.062 329,-140.062"/>
<text text-anchor="middle" x="352.5" y="-147.062" font-family="Helvetica,sans-Serif" font-size="10.00">Thread</text>
</a>
</g>
</g>
<!-- Node8&#45;&gt;Node7 -->
<g id="edge9" class="edge"><title>Node8&#45;&gt;Node7</title>
<path fill="none" stroke="#9a32cd" stroke-dasharray="5,2" d="M386.617,-149.757C412.151,-150.051 448.334,-150.776 480,-152.562 494.89,-153.401 511.332,-154.795 525.304,-156.119"/>
<polygon fill="#9a32cd" stroke="#9a32cd" points="386.405,-146.255 376.37,-149.656 386.335,-153.255 386.405,-146.255"/>
<text text-anchor="middle" x="439" y="-155.562" font-family="Helvetica,sans-Serif" font-size="10.00"> owner</text>
</g>
<!-- Node9&#45;&gt;Node6 -->
<g id="edge10" class="edge"><title>Node9&#45;&gt;Node6</title>
<path fill="none" stroke="#9a32cd" stroke-dasharray="5,2" d="M878.286,-203.562C908.639,-203.562 942.206,-203.562 965.88,-203.562"/>
<polygon fill="#9a32cd" stroke="#9a32cd" points="878.134,-200.062 868.134,-203.562 878.134,-207.062 878.134,-200.062"/>
<text text-anchor="middle" x="907.5" y="-206.562" font-family="Helvetica,sans-Serif" font-size="10.00"> acquirers</text>
</g>
<!-- Node10&#45;&gt;Node1 -->
<g id="edge12" class="edge"><title>Node10&#45;&gt;Node1</title>
<path fill="none" stroke="#9a32cd" stroke-dasharray="5,2" d="M843.047,-94.403C933.749,-125.016 1160.01,-201.384 1225.49,-223.482"/>
<polygon fill="#9a32cd" stroke="#9a32cd" points="844.028,-91.0401 833.433,-91.1584 841.789,-97.6725 844.028,-91.0401"/>
<text text-anchor="middle" x="998" y="-166.562" font-family="Helvetica,sans-Serif" font-size="10.00"> Config</text>
</g>
<!-- Node14 -->
<g id="node14" class="node"><title>Node14</title>
<g id="a_node14"><a xlink:href="classaworx_1_1lib_1_1config_1_1ConfigurationPlugIn.html" target="_top" xlink:title="ConfigurationPlugIn">
<polygon fill="white" stroke="black" points="947,-32.0617 947,-51.0617 1049,-51.0617 1049,-32.0617 947,-32.0617"/>
<text text-anchor="middle" x="998" y="-39.0617" font-family="Helvetica,sans-Serif" font-size="10.00">ConfigurationPlugIn</text>
</a>
</g>
</g>
<!-- Node10&#45;&gt;Node14 -->
<g id="edge21" class="edge"><title>Node10&#45;&gt;Node14</title>
<path fill="none" stroke="#9a32cd" stroke-dasharray="5,2" d="M850.997,-70.4066C862.413,-67.7391 874.634,-64.9688 886,-62.5617 905.859,-58.3561 927.803,-54.1186 946.901,-50.5623"/>
<polygon fill="#9a32cd" stroke="#9a32cd" points="850.145,-67.0117 841.214,-72.7127 851.751,-73.8249 850.145,-67.0117"/>
<text text-anchor="middle" x="907.5" y="-65.5617" font-family="Helvetica,sans-Serif" font-size="10.00"> Parent</text>
</g>
<!-- Node11&#45;&gt;Node10 -->
<g id="edge14" class="edge"><title>Node11&#45;&gt;Node10</title>
<path fill="none" stroke="#9a32cd" stroke-dasharray="5,2" d="M490.317,-84.751C492.915,-84.6811 495.488,-84.6174 498,-84.5617 595.147,-82.4093 709.733,-81.8012 766.844,-81.6294"/>
<polygon fill="#9a32cd" stroke="#9a32cd" points="490.139,-81.2546 480.246,-85.0456 490.344,-88.2516 490.139,-81.2546"/>
<text text-anchor="middle" x="559.5" y="-87.5617" font-family="Helvetica,sans-Serif" font-size="10.00"> NumberFormat</text>
</g>
<!-- Node11&#45;&gt;Node11 -->
<g id="edge15" class="edge"><title>Node11&#45;&gt;Node11</title>
<path fill="none" stroke="#9a32cd" stroke-dasharray="5,2" d="M423.075,-105.962C424.138,-110.876 429.447,-114.562 439,-114.562 454.285,-114.562 458.704,-105.127 452.255,-96.3188"/>
<polygon fill="#9a32cd" stroke="#9a32cd" points="426.449,-106.89 425.745,-96.3188 419.703,-105.022 426.449,-106.89"/>
<text text-anchor="middle" x="439" y="-117.562" font-family="Helvetica,sans-Serif" font-size="10.00"> Global</text>
</g>
<!-- Node12&#45;&gt;Node10 -->
<g id="edge17" class="edge"><title>Node12&#45;&gt;Node10</title>
<path fill="none" stroke="#9a32cd" stroke-dasharray="5,2" d="M304.964,-49.1604C351.946,-50.6259 420.33,-53.0964 480,-56.5617 584.157,-62.6106 706.962,-73.0198 766.701,-78.2942"/>
<polygon fill="#9a32cd" stroke="#9a32cd" points="304.787,-45.6534 294.684,-48.8452 304.572,-52.6502 304.787,-45.6534"/>
<text text-anchor="middle" x="439" y="-59.5617" font-family="Helvetica,sans-Serif" font-size="10.00"> TrueValues</text>
</g>
<!-- Node13 -->
<g id="node13" class="node"><title>Node13</title>
<g id="a_node13"><a xlink:href="classaworx_1_1lib_1_1config_1_1EnvironmentPlugIn.html" target="_top" xlink:title="EnvironmentPlugIn">
<polygon fill="white" stroke="black" points="1195,-57.0617 1195,-76.0617 1294,-76.0617 1294,-57.0617 1195,-57.0617"/>
<text text-anchor="middle" x="1244.5" y="-64.0617" font-family="Helvetica,sans-Serif" font-size="10.00">EnvironmentPlugIn</text>
</a>
</g>
</g>
<!-- Node13&#45;&gt;Node10 -->
<g id="edge19" class="edge"><title>Node13&#45;&gt;Node10</title>
<path fill="none" stroke="#9a32cd" stroke-dasharray="5,2" d="M1184.73,-68.5719C1092.64,-71.7224 917.007,-77.7302 841.257,-80.3214"/>
<polygon fill="#9a32cd" stroke="#9a32cd" points="1184.86,-72.0699 1194.73,-68.23 1184.62,-65.074 1184.86,-72.0699"/>
<text text-anchor="middle" x="998" y="-79.5617" font-family="Helvetica,sans-Serif" font-size="10.00"> envCP</text>
</g>
<!-- Node14&#45;&gt;Node13 -->
<g id="edge20" class="edge"><title>Node14&#45;&gt;Node13</title>
<path fill="none" stroke="midnightblue" d="M1059.11,-47.7076C1100.84,-51.9748 1155.74,-57.588 1194.75,-61.5771"/>
<polygon fill="midnightblue" stroke="midnightblue" points="1059.37,-44.2166 1049.07,-46.6811 1058.66,-51.1803 1059.37,-44.2166"/>
</g>
<!-- Node16 -->
<g id="node16" class="node"><title>Node16</title>
<g id="a_node16"><a xlink:href="classaworx_1_1lib_1_1config_1_1CommandLinePlugIn.html" target="_top" xlink:title="CommandLinePlugIn">
<polygon fill="white" stroke="black" points="1191,-11.0617 1191,-30.0617 1298,-30.0617 1298,-11.0617 1191,-11.0617"/>
<text text-anchor="middle" x="1244.5" y="-18.0617" font-family="Helvetica,sans-Serif" font-size="10.00">CommandLinePlugIn</text>
</a>
</g>
</g>
<!-- Node14&#45;&gt;Node16 -->
<g id="edge24" class="edge"><title>Node14&#45;&gt;Node16</title>
<path fill="none" stroke="midnightblue" d="M1059.06,-36.4033C1099.47,-32.9327 1152.23,-28.401 1190.96,-25.074"/>
<polygon fill="midnightblue" stroke="midnightblue" points="1058.73,-32.9184 1049.07,-37.2614 1059.33,-39.8927 1058.73,-32.9184"/>
</g>
<!-- Node15 -->
<g id="node15" class="node"><title>Node15</title>
<polygon fill="white" stroke="#bfbfbf" points="498,-105.062 498,-124.062 621,-124.062 621,-105.062 498,-105.062"/>
<text text-anchor="middle" x="559.5" y="-112.062" font-family="Helvetica,sans-Serif" font-size="10.00">vector&lt; PluginAndPrio &gt;</text>
</g>
<!-- Node15&#45;&gt;Node10 -->
<g id="edge22" class="edge"><title>Node15&#45;&gt;Node10</title>
<path fill="none" stroke="#9a32cd" stroke-dasharray="5,2" d="M631.243,-104.935C675.708,-98.8839 731.207,-91.3314 766.874,-86.4778"/>
<polygon fill="#9a32cd" stroke="#9a32cd" points="630.504,-101.503 621.067,-106.32 631.448,-108.439 630.504,-101.503"/>
<text text-anchor="middle" x="680.5" y="-106.562" font-family="Helvetica,sans-Serif" font-size="10.00"> plugins</text>
</g>
<!-- Node16&#45;&gt;Node10 -->
<g id="edge23" class="edge"><title>Node16&#45;&gt;Node10</title>
<path fill="none" stroke="#9a32cd" stroke-dasharray="5,2" d="M1181.64,-9.55004C1121.02,-0.881615 1026.42,6.94903 947,-11.5617 896.676,-23.2915 843.684,-55.5446 819.083,-71.8515"/>
<polygon fill="#9a32cd" stroke="#9a32cd" points="1181.41,-13.0535 1191.82,-11.058 1182.44,-6.12915 1181.41,-13.0535"/>
<text text-anchor="middle" x="998" y="-14.5617" font-family="Helvetica,sans-Serif" font-size="10.00"> cmdLineCP</text>
</g>
</g>
</svg>
