<?xml version="1.0" encoding="UTF-8" standalone="no"?>
<!DOCTYPE svg PUBLIC "-//W3C//DTD SVG 1.1//EN"
 "http://www.w3.org/Graphics/SVG/1.1/DTD/svg11.dtd">
<!-- Generated by graphviz version 2.38.0 (20140413.2041)
 -->
<!-- Title: PlainTextLogger Pages: 1 -->
<svg width="958pt" height="544pt"
 viewBox="0.00 0.00 958.00 544.00" xmlns="http://www.w3.org/2000/svg" xmlns:xlink="http://www.w3.org/1999/xlink">
<g id="graph0" class="graph" transform="scale(1 1) rotate(0) translate(4 540)">
<title>PlainTextLogger</title>
<polygon fill="white" stroke="none" points="-4,4 -4,-540 954,-540 954,4 -4,4"/>
<!-- Node1 -->
<g id="node1" class="node"><title>Node1</title>
<polygon fill="#bfbfbf" stroke="black" points="863,-357.5 863,-376.5 950,-376.5 950,-357.5 863,-357.5"/>
<text text-anchor="middle" x="906.5" y="-364.5" font-family="Helvetica,sans-Serif" font-size="10.00">PlainTextLogger</text>
</g>
<!-- Node9 -->
<g id="node2" class="node"><title>Node9</title>
<polygon fill="white" stroke="#bfbfbf" points="372.5,-0.5 372.5,-19.5 444.5,-19.5 444.5,-0.5 372.5,-0.5"/>
<text text-anchor="middle" x="408.5" y="-7.5" font-family="Helvetica,sans-Serif" font-size="10.00">vector&lt; int &gt;</text>
</g>
<!-- Node8 -->
<g id="node12" class="node"><title>Node8</title>
<g id="a_node12"><a xlink:href="classaworx_1_1lox_1_1core_1_1textlogger_1_1AutoSizes.html" target="_top" xlink:title="AutoSizes">
<polygon fill="white" stroke="black" points="607.5,-4.5 607.5,-23.5 669.5,-23.5 669.5,-4.5 607.5,-4.5"/>
<text text-anchor="middle" x="638.5" y="-11.5" font-family="Helvetica,sans-Serif" font-size="10.00">AutoSizes</text>
</a>
</g>
</g>
<!-- Node9&#45;&gt;Node8 -->
<g id="edge19" class="edge"><title>Node9&#45;&gt;Node8</title>
<path fill="none" stroke="#9a32cd" stroke-dasharray="5,2" d="M454.763,-10.7941C500.051,-11.5886 568.435,-12.7883 607.434,-13.4725"/>
<polygon fill="#9a32cd" stroke="#9a32cd" points="454.685,-7.29228 444.625,-10.6162 454.562,-14.2912 454.685,-7.29228"/>
<text text-anchor="middle" x="524.5" y="-28" font-family="Helvetica,sans-Serif" font-size="10.00"> values</text>
<text text-anchor="middle" x="524.5" y="-17" font-family="Helvetica,sans-Serif" font-size="10.00">sessionValues</text>
</g>
<!-- Node10 -->
<g id="node3" class="node"><title>Node10</title>
<polygon fill="white" stroke="#bfbfbf" points="252,-503 252,-533 351,-533 351,-503 252,-503"/>
<text text-anchor="start" x="260" y="-521" font-family="Helvetica,sans-Serif" font-size="10.00">vector&lt; aworx::lib</text>
<text text-anchor="middle" x="301.5" y="-510" font-family="Helvetica,sans-Serif" font-size="10.00">::strings::AString &gt;</text>
</g>
<!-- Node2 -->
<g id="node5" class="node"><title>Node2</title>
<g id="a_node5"><a xlink:href="classaworx_1_1lox_1_1core_1_1textlogger_1_1TextLogger.html" target="_top" xlink:title="TextLogger">
<polygon fill="white" stroke="black" points="761,-357.5 761,-376.5 826,-376.5 826,-357.5 761,-357.5"/>
<text text-anchor="middle" x="793.5" y="-364.5" font-family="Helvetica,sans-Serif" font-size="10.00">TextLogger</text>
</a>
</g>
</g>
<!-- Node10&#45;&gt;Node2 -->
<g id="edge20" class="edge"><title>Node10&#45;&gt;Node2</title>
<path fill="none" stroke="#9a32cd" stroke-dasharray="5,2" d="M361.246,-522.854C435.696,-527.375 567.408,-529.904 676,-503 708.031,-495.064 719.681,-494.35 743,-471 770.836,-443.126 785.144,-396.565 790.26,-376.584"/>
<polygon fill="#9a32cd" stroke="#9a32cd" points="361.333,-519.353 351.129,-522.206 360.885,-526.338 361.333,-519.353"/>
<text text-anchor="middle" x="524.5" y="-528" font-family="Helvetica,sans-Serif" font-size="10.00"> replacements</text>
</g>
<!-- Node5 -->
<g id="node4" class="node"><title>Node5</title>
<g id="a_node4"><a xlink:href="classaworx_1_1lib_1_1strings_1_1PreallocatedString.html" target="_top" xlink:title="PreallocatedString\l\&lt; TCapacity \&gt;">
<polygon fill="white" stroke="black" points="133,-340 133,-370 229,-370 229,-340 133,-340"/>
<text text-anchor="start" x="141" y="-358" font-family="Helvetica,sans-Serif" font-size="10.00">PreallocatedString</text>
<text text-anchor="middle" x="181" y="-347" font-family="Helvetica,sans-Serif" font-size="10.00">&lt; TCapacity &gt;</text>
</a>
</g>
</g>
<!-- Node5&#45;&gt;Node2 -->
<g id="edge5" class="edge"><title>Node5&#45;&gt;Node2</title>
<path fill="none" stroke="#9a32cd" stroke-dasharray="5,2" d="M229.878,-375.7C231.306,-376.756 232.685,-377.856 234,-379 245.162,-388.71 239.032,-399.881 252,-407 299.823,-433.254 691.621,-425.345 743,-407 759.857,-400.981 775.202,-386.562 784.198,-376.784"/>
<polygon fill="#9a32cd" stroke="#9a32cd" points="231.566,-372.623 221.271,-370.119 227.758,-378.496 231.566,-372.623"/>
<text text-anchor="middle" x="524.5" y="-460" font-family="Helvetica,sans-Serif" font-size="10.00"> MultiLineDelimiterRepl</text>
<text text-anchor="middle" x="524.5" y="-449" font-family="Helvetica,sans-Serif" font-size="10.00">FmtIndentString</text>
<text text-anchor="middle" x="524.5" y="-438" font-family="Helvetica,sans-Serif" font-size="10.00">FmtMultiLineSuffix</text>
<text text-anchor="middle" x="524.5" y="-427" font-family="Helvetica,sans-Serif" font-size="10.00">FmtMultiLinePrefix</text>
</g>
<!-- Node5&#45;&gt;Node2 -->
<g id="edge6" class="edge"><title>Node5&#45;&gt;Node2</title>
<path fill="none" stroke="#9a32cd" stroke-dasharray="5,2" d="M239.284,-367.926C243.575,-368.695 247.849,-369.398 252,-370 303.614,-377.481 316.885,-376.999 369,-379 515.448,-384.624 690.478,-374.224 760.882,-369.337"/>
<polygon fill="#9a32cd" stroke="#9a32cd" points="239.765,-364.455 229.289,-366.033 238.463,-371.333 239.765,-364.455"/>
<text text-anchor="middle" x="524.5" y="-384" font-family="Helvetica,sans-Serif" font-size="10.00"> FmtMultiLineMsgHeadline</text>
</g>
<!-- Node3 -->
<g id="node6" class="node"><title>Node3</title>
<g id="a_node6"><a xlink:href="classaworx_1_1lox_1_1core_1_1Logger.html" target="_top" xlink:title="Logger">
<polygon fill="white" stroke="black" points="615.5,-305.5 615.5,-324.5 661.5,-324.5 661.5,-305.5 615.5,-305.5"/>
<text text-anchor="middle" x="638.5" y="-312.5" font-family="Helvetica,sans-Serif" font-size="10.00">Logger</text>
</a>
</g>
</g>
<!-- Node5&#45;&gt;Node3 -->
<g id="edge7" class="edge"><title>Node5&#45;&gt;Node3</title>
<path fill="none" stroke="#9a32cd" stroke-dasharray="5,2" d="M239.321,-356.102C272.059,-356.371 313.862,-356.105 351,-354 454.542,-348.13 480.956,-347.505 583,-329 593.766,-327.048 605.543,-324.124 615.386,-321.453"/>
<polygon fill="#9a32cd" stroke="#9a32cd" points="239.063,-352.599 229.028,-355.998 238.992,-359.599 239.063,-352.599"/>
<text text-anchor="middle" x="408.5" y="-367" font-family="Helvetica,sans-Serif" font-size="10.00"> TypeName</text>
<text text-anchor="middle" x="408.5" y="-356" font-family="Helvetica,sans-Serif" font-size="10.00">Name</text>
</g>
<!-- Node7 -->
<g id="node8" class="node"><title>Node7</title>
<g id="a_node8"><a xlink:href="classaworx_1_1lox_1_1core_1_1Domain.html" target="_top" xlink:title="Domain">
<polygon fill="white" stroke="red" points="383.5,-191.5 383.5,-210.5 433.5,-210.5 433.5,-191.5 383.5,-191.5"/>
<text text-anchor="middle" x="408.5" y="-198.5" font-family="Helvetica,sans-Serif" font-size="10.00">Domain</text>
</a>
</g>
</g>
<!-- Node5&#45;&gt;Node7 -->
<g id="edge8" class="edge"><title>Node5&#45;&gt;Node7</title>
<path fill="none" stroke="#9a32cd" stroke-dasharray="5,2" d="M239.084,-344.665C286.488,-335.85 346.831,-323.989 351,-320 374.521,-297.494 354.485,-278.139 369,-249 376.335,-234.274 388.778,-219.895 397.528,-210.775"/>
<polygon fill="#9a32cd" stroke="#9a32cd" points="238.385,-341.235 229.189,-346.496 239.659,-348.118 238.385,-341.235"/>
<text text-anchor="middle" x="301.5" y="-345" font-family="Helvetica,sans-Serif" font-size="10.00"> Name</text>
</g>
<!-- Node12 -->
<g id="node9" class="node"><title>Node12</title>
<g id="a_node9"><a xlink:href="classaworx_1_1lox_1_1core_1_1textlogger_1_1MetaInfo.html" target="_top" xlink:title="MetaInfo">
<polygon fill="white" stroke="black" points="381,-143.5 381,-162.5 436,-162.5 436,-143.5 381,-143.5"/>
<text text-anchor="middle" x="408.5" y="-150.5" font-family="Helvetica,sans-Serif" font-size="10.00">MetaInfo</text>
</a>
</g>
</g>
<!-- Node5&#45;&gt;Node12 -->
<g id="edge9" class="edge"><title>Node5&#45;&gt;Node12</title>
<path fill="none" stroke="#9a32cd" stroke-dasharray="5,2" d="M187.01,-329.908C197.375,-280.808 222.673,-174.983 252,-154 289.874,-126.901 347.311,-135.868 380.75,-144.601"/>
<polygon fill="#9a32cd" stroke="#9a32cd" points="183.574,-329.242 184.974,-339.744 190.428,-330.661 183.574,-329.242"/>
<text text-anchor="middle" x="301.5" y="-267" font-family="Helvetica,sans-Serif" font-size="10.00"> TimeDiffHours</text>
<text text-anchor="middle" x="301.5" y="-256" font-family="Helvetica,sans-Serif" font-size="10.00">LogLevelError</text>
<text text-anchor="middle" x="301.5" y="-245" font-family="Helvetica,sans-Serif" font-size="10.00">TimeDiffMicros</text>
<text text-anchor="middle" x="301.5" y="-234" font-family="Helvetica,sans-Serif" font-size="10.00">LogLevelInfo</text>
<text text-anchor="middle" x="301.5" y="-223" font-family="Helvetica,sans-Serif" font-size="10.00">TimeElapsedDays</text>
<text text-anchor="middle" x="301.5" y="-212" font-family="Helvetica,sans-Serif" font-size="10.00">TimeOfDayFormat</text>
<text text-anchor="middle" x="301.5" y="-201" font-family="Helvetica,sans-Serif" font-size="10.00">DateFormat</text>
<text text-anchor="middle" x="301.5" y="-190" font-family="Helvetica,sans-Serif" font-size="10.00">TimeDiffMins</text>
<text text-anchor="middle" x="301.5" y="-179" font-family="Helvetica,sans-Serif" font-size="10.00">TimeDiffSecs</text>
<text text-anchor="middle" x="301.5" y="-168" font-family="Helvetica,sans-Serif" font-size="10.00">TimeDiffNone</text>
<text text-anchor="middle" x="301.5" y="-157" font-family="Helvetica,sans-Serif" font-size="10.00">...</text>
</g>
<!-- Node5&#45;&gt;Node12 -->
<g id="edge10" class="edge"><title>Node5&#45;&gt;Node12</title>
<path fill="none" stroke="#9a32cd" stroke-dasharray="5,2" d="M201.872,-332.51C214.836,-319.262 232.859,-303.322 252,-294 292.28,-274.383 319.295,-306.656 351,-275 380.793,-245.254 346.701,-217.71 369,-182 373.964,-174.05 381.954,-167.506 389.371,-162.659"/>
<polygon fill="#9a32cd" stroke="#9a32cd" points="199.184,-330.259 194.854,-339.929 204.269,-335.07 199.184,-330.259"/>
<text text-anchor="middle" x="301.5" y="-308" font-family="Helvetica,sans-Serif" font-size="10.00"> NoSourceFileInfo</text>
<text text-anchor="middle" x="301.5" y="-297" font-family="Helvetica,sans-Serif" font-size="10.00">NoMethodInfo</text>
</g>
<!-- Node15 -->
<g id="node10" class="node"><title>Node15</title>
<g id="a_node10"><a xlink:href="classaworx_1_1lox_1_1core_1_1textlogger_1_1ObjectConverter.html" target="_top" xlink:title="ObjectConverter">
<polygon fill="white" stroke="black" points="480.5,-480.5 480.5,-499.5 568.5,-499.5 568.5,-480.5 480.5,-480.5"/>
<text text-anchor="middle" x="524.5" y="-487.5" font-family="Helvetica,sans-Serif" font-size="10.00">ObjectConverter</text>
</a>
</g>
</g>
<!-- Node5&#45;&gt;Node15 -->
<g id="edge11" class="edge"><title>Node5&#45;&gt;Node15</title>
<path fill="none" stroke="#9a32cd" stroke-dasharray="5,2" d="M194.125,-379.258C205.928,-400.198 225.893,-429.457 252,-445 289.82,-467.517 413.839,-480.932 480.386,-486.683"/>
<polygon fill="#9a32cd" stroke="#9a32cd" points="197.118,-377.434 189.283,-370.302 190.96,-380.763 197.118,-377.434"/>
<text text-anchor="middle" x="301.5" y="-485" font-family="Helvetica,sans-Serif" font-size="10.00"> FmtUnknownObject</text>
<text text-anchor="middle" x="301.5" y="-474" font-family="Helvetica,sans-Serif" font-size="10.00">FmtNullObject</text>
</g>
<!-- Node2&#45;&gt;Node1 -->
<g id="edge1" class="edge"><title>Node2&#45;&gt;Node1</title>
<path fill="none" stroke="midnightblue" d="M836.263,-367C844.911,-367 854.034,-367 862.718,-367"/>
<polygon fill="midnightblue" stroke="midnightblue" points="836.011,-363.5 826.011,-367 836.011,-370.5 836.011,-363.5"/>
</g>
<!-- Node3&#45;&gt;Node2 -->
<g id="edge2" class="edge"><title>Node3&#45;&gt;Node2</title>
<path fill="none" stroke="midnightblue" d="M671.297,-325.807C698.801,-335.155 738.181,-348.538 764.51,-357.487"/>
<polygon fill="midnightblue" stroke="midnightblue" points="672.342,-322.465 661.748,-322.561 670.089,-329.093 672.342,-322.465"/>
</g>
<!-- Node4 -->
<g id="node7" class="node"><title>Node4</title>
<g id="a_node7"><a xlink:href="classaworx_1_1lib_1_1time_1_1Ticks.html" target="_top" xlink:title="Ticks">
<polygon fill="white" stroke="black" points="388,-258.5 388,-277.5 429,-277.5 429,-258.5 388,-258.5"/>
<text text-anchor="middle" x="408.5" y="-265.5" font-family="Helvetica,sans-Serif" font-size="10.00">Ticks</text>
</a>
</g>
</g>
<!-- Node4&#45;&gt;Node3 -->
<g id="edge3" class="edge"><title>Node4&#45;&gt;Node3</title>
<path fill="none" stroke="#9a32cd" stroke-dasharray="5,2" d="M439.365,-274.156C485.729,-283.714 573.971,-301.904 615.214,-310.406"/>
<polygon fill="#9a32cd" stroke="#9a32cd" points="439.835,-270.68 429.335,-272.089 438.422,-277.536 439.835,-270.68"/>
<text text-anchor="middle" x="524.5" y="-318" font-family="Helvetica,sans-Serif" font-size="10.00"> TimeOfLastLog</text>
<text text-anchor="middle" x="524.5" y="-307" font-family="Helvetica,sans-Serif" font-size="10.00">TimeOfCreation</text>
</g>
<!-- Node4&#45;&gt;Node4 -->
<g id="edge4" class="edge"><title>Node4&#45;&gt;Node4</title>
<path fill="none" stroke="#9a32cd" stroke-dasharray="5,2" d="M388.871,-287.4C390.182,-292.315 396.725,-296 408.5,-296 427.34,-296 432.786,-286.565 424.838,-277.757"/>
<polygon fill="#9a32cd" stroke="#9a32cd" points="392.245,-288.352 392.162,-277.757 385.62,-286.091 392.245,-288.352"/>
<text text-anchor="middle" x="408.5" y="-299" font-family="Helvetica,sans-Serif" font-size="10.00"> creationTime</text>
</g>
<!-- Node7&#45;&gt;Node3 -->
<g id="edge16" class="edge"><title>Node7&#45;&gt;Node3</title>
<path fill="none" stroke="#9a32cd" stroke-dasharray="5,2" d="M443.864,-209.749C480.152,-219.906 538.198,-238.816 583,-266 601.057,-276.957 618.612,-294.307 628.724,-305.152"/>
<polygon fill="#9a32cd" stroke="#9a32cd" points="444.356,-206.256 433.787,-206.998 442.512,-213.008 444.356,-206.256"/>
<text text-anchor="middle" x="524.5" y="-269" font-family="Helvetica,sans-Serif" font-size="10.00"> RootDomain</text>
</g>
<!-- Node7&#45;&gt;Node7 -->
<g id="edge17" class="edge"><title>Node7&#45;&gt;Node7</title>
<path fill="none" stroke="#9a32cd" stroke-dasharray="5,2" d="M388.871,-220.4C390.182,-225.315 396.725,-229 408.5,-229 427.34,-229 432.786,-219.565 424.838,-210.757"/>
<polygon fill="#9a32cd" stroke="#9a32cd" points="392.245,-221.352 392.162,-210.757 385.62,-219.091 392.245,-221.352"/>
<text text-anchor="middle" x="408.5" y="-232" font-family="Helvetica,sans-Serif" font-size="10.00"> Parent</text>
</g>
<!-- Node12&#45;&gt;Node2 -->
<g id="edge21" class="edge"><title>Node12&#45;&gt;Node2</title>
<path fill="none" stroke="#9a32cd" stroke-dasharray="5,2" d="M446.122,-162.487C482.151,-172.592 538.124,-190.384 583,-214 665.901,-257.627 752.391,-331.364 781.91,-357.482"/>
<polygon fill="#9a32cd" stroke="#9a32cd" points="446.636,-158.999 436.066,-159.722 444.78,-165.748 446.636,-158.999"/>
<text text-anchor="middle" x="638.5" y="-274" font-family="Helvetica,sans-Serif" font-size="10.00"> MetaInfo</text>
</g>
<!-- Node15&#45;&gt;Node2 -->
<g id="edge23" class="edge"><title>Node15&#45;&gt;Node2</title>
<path fill="none" stroke="#9a32cd" stroke-dasharray="5,2" d="M578.856,-490.313C625.899,-488.112 694.337,-478.626 743,-445 767.938,-427.768 783.034,-393.465 789.227,-376.691"/>
<polygon fill="#9a32cd" stroke="#9a32cd" points="578.431,-486.826 568.568,-490.695 578.691,-493.822 578.431,-486.826"/>
<text text-anchor="middle" x="638.5" y="-491" font-family="Helvetica,sans-Serif" font-size="10.00"> ObjectConverter</text>
</g>
<!-- Node6 -->
<g id="node11" class="node"><title>Node6</title>
<g id="a_node11"><a xlink:href="classaworx_1_1lib_1_1strings_1_1AString.html" target="_top" xlink:title="AString">
<polygon fill="white" stroke="red" points="0,-190.5 0,-209.5 49,-209.5 49,-190.5 0,-190.5"/>
<text text-anchor="middle" x="24.5" y="-197.5" font-family="Helvetica,sans-Serif" font-size="10.00">AString</text>
</a>
</g>
</g>
<!-- Node6&#45;&gt;Node10 -->
<g id="edge14" class="edge"><title>Node6&#45;&gt;Node10</title>
<path fill="none" stroke="#9a32cd" stroke-dasharray="5,2" d="M35.2286,-218.976C43.4637,-234.868 55.6978,-258.083 67,-278 129.882,-388.816 145.746,-426.683 252,-497 255.214,-499.127 258.678,-501.121 262.225,-502.969"/>
<polygon fill="#9a32cd" stroke="#9a32cd" points="38.1384,-216.982 30.4444,-209.698 31.9169,-220.19 38.1384,-216.982"/>
<text text-anchor="middle" x="88.5" y="-354" font-family="Helvetica,sans-Serif" font-size="10.00"> elements</text>
</g>
<!-- Node6&#45;&gt;Node5 -->
<g id="edge13" class="edge"><title>Node6&#45;&gt;Node5</title>
<path fill="none" stroke="midnightblue" d="M42.4455,-217C72.693,-247.346 135.53,-310.386 164.614,-339.565"/>
<polygon fill="midnightblue" stroke="midnightblue" points="44.7032,-214.308 35.1647,-209.696 39.7455,-219.249 44.7032,-214.308"/>
</g>
<!-- Node6&#45;&gt;Node2 -->
<g id="edge12" class="edge"><title>Node6&#45;&gt;Node2</title>
<path fill="none" stroke="#9a32cd" stroke-dasharray="5,2" d="M34.5846,-181.046C54.7955,-141.953 107.479,-56 180,-56 180,-56 180,-56 639.5,-56 777.297,-56 790.995,-304.858 792.352,-357.351"/>
<polygon fill="#9a32cd" stroke="#9a32cd" points="31.398,-179.593 30.0531,-190.102 37.658,-182.726 31.398,-179.593"/>
<text text-anchor="middle" x="408.5" y="-81" font-family="Helvetica,sans-Serif" font-size="10.00"> logBuf</text>
<text text-anchor="middle" x="408.5" y="-70" font-family="Helvetica,sans-Serif" font-size="10.00">MultiLineDelimiter</text>
<text text-anchor="middle" x="408.5" y="-59" font-family="Helvetica,sans-Serif" font-size="10.00">msgBuf</text>
</g>
<!-- Node6&#45;&gt;Node12 -->
<g id="edge15" class="edge"><title>Node6&#45;&gt;Node12</title>
<path fill="none" stroke="#9a32cd" stroke-dasharray="5,2" d="M58.6507,-187.109C102.21,-170.926 181.468,-144.067 252,-134 295.559,-127.783 307.578,-126.894 351,-134 362.336,-135.855 374.464,-139.674 384.566,-143.404"/>
<polygon fill="#9a32cd" stroke="#9a32cd" points="57.2711,-183.888 49.1422,-190.683 59.7343,-190.441 57.2711,-183.888"/>
<text text-anchor="middle" x="181" y="-188" font-family="Helvetica,sans-Serif" font-size="10.00"> Format</text>
<text text-anchor="start" x="128" y="-177" font-family="Helvetica,sans-Serif" font-size="10.00">ConsumableSourcePath</text>
<text text-anchor="middle" x="181" y="-166" font-family="Helvetica,sans-Serif" font-size="10.00">Prefix</text>
</g>
<!-- Node8&#45;&gt;Node2 -->
<g id="edge18" class="edge"><title>Node8&#45;&gt;Node2</title>
<path fill="none" stroke="#9a32cd" stroke-dasharray="5,2" d="M679.847,-10.0431C701.455,-10.2461 726.869,-14.6 743,-31 790.032,-78.8162 792.564,-306.998 792.545,-357.212"/>
<polygon fill="#9a32cd" stroke="#9a32cd" points="679.533,-6.54848 669.603,-10.2423 679.67,-13.5472 679.533,-6.54848"/>
<text text-anchor="middle" x="718.5" y="-34" font-family="Helvetica,sans-Serif" font-size="10.00"> AutoSizes</text>
</g>
<!-- Node13 -->
<g id="node13" class="node"><title>Node13</title>
<g id="a_node13"><a xlink:href="classaworx_1_1lib_1_1time_1_1TicksCalendarTime.html" target="_top" xlink:title="TicksCalendarTime">
<polygon fill="white" stroke="black" points="130.5,-84.5 130.5,-103.5 231.5,-103.5 231.5,-84.5 130.5,-84.5"/>
<text text-anchor="middle" x="181" y="-91.5" font-family="Helvetica,sans-Serif" font-size="10.00">TicksCalendarTime</text>
</a>
</g>
</g>
<!-- Node13&#45;&gt;Node12 -->
<g id="edge22" class="edge"><title>Node13&#45;&gt;Node12</title>
<path fill="none" stroke="#9a32cd" stroke-dasharray="5,2" d="M241.828,-83.3489C275.231,-80.057 316.867,-80.4799 351,-95 374.284,-104.905 392.758,-129.555 401.674,-143.319"/>
<polygon fill="#9a32cd" stroke="#9a32cd" points="241.291,-79.8871 231.743,-84.4784 242.07,-86.8436 241.291,-79.8871"/>
<text text-anchor="middle" x="301.5" y="-98" font-family="Helvetica,sans-Serif" font-size="10.00"> callerDateTime</text>
</g>
</g>
</svg>
