<?xml version="1.0" encoding="UTF-8" standalone="no"?>
<!DOCTYPE svg PUBLIC "-//W3C//DTD SVG 1.1//EN"
 "http://www.w3.org/Graphics/SVG/1.1/DTD/svg11.dtd">
<!-- Generated by graphviz version 2.38.0 (20140413.2041)
 -->
<!-- Title: ConfigurationPlugIn Pages: 1 -->
<svg width="835pt" height="255pt"
 viewBox="0.00 0.00 835.00 255.00" xmlns="http://www.w3.org/2000/svg" xmlns:xlink="http://www.w3.org/1999/xlink">
<g id="graph0" class="graph" transform="scale(1 1) rotate(0) translate(4 251)">
<title>ConfigurationPlugIn</title>
<polygon fill="white" stroke="none" points="-4,4 -4,-251 831,-251 831,4 -4,4"/>
<!-- Node1 -->
<g id="node1" class="node"><title>Node1</title>
<polygon fill="#bfbfbf" stroke="black" points="325,-200.5 325,-219.5 427,-219.5 427,-200.5 325,-200.5"/>
<text text-anchor="middle" x="376" y="-207.5" font-family="Helvetica,sans-Serif" font-size="10.00">ConfigurationPlugIn</text>
</g>
<!-- Node10 -->
<g id="node4" class="node"><title>Node10</title>
<g id="a_node4"><a xlink:href="classaworx_1_1lib_1_1config_1_1EnvironmentPlugIn.html" target="_top" xlink:title="EnvironmentPlugIn">
<polygon fill="white" stroke="black" points="554,-200.5 554,-219.5 653,-219.5 653,-200.5 554,-200.5"/>
<text text-anchor="middle" x="603.5" y="-207.5" font-family="Helvetica,sans-Serif" font-size="10.00">EnvironmentPlugIn</text>
</a>
</g>
</g>
<!-- Node1&#45;&gt;Node10 -->
<g id="edge1" class="edge"><title>Node1&#45;&gt;Node10</title>
<path fill="none" stroke="midnightblue" d="M437.067,-210C473.554,-210 519.537,-210 553.756,-210"/>
<polygon fill="midnightblue" stroke="midnightblue" points="437.046,-206.5 427.046,-210 437.046,-213.5 437.046,-206.5"/>
</g>
<!-- Node12 -->
<g id="node5" class="node"><title>Node12</title>
<g id="a_node5"><a xlink:href="classaworx_1_1lib_1_1config_1_1CommandLinePlugIn.html" target="_top" xlink:title="CommandLinePlugIn">
<polygon fill="white" stroke="black" points="550,-162.5 550,-181.5 657,-181.5 657,-162.5 550,-162.5"/>
<text text-anchor="middle" x="603.5" y="-169.5" font-family="Helvetica,sans-Serif" font-size="10.00">CommandLinePlugIn</text>
</a>
</g>
</g>
<!-- Node1&#45;&gt;Node12 -->
<g id="edge2" class="edge"><title>Node1&#45;&gt;Node12</title>
<path fill="none" stroke="midnightblue" d="M437.166,-199.861C472.264,-193.947 516.124,-186.556 549.848,-180.873"/>
<polygon fill="midnightblue" stroke="midnightblue" points="436.325,-196.453 427.046,-201.567 437.488,-203.356 436.325,-196.453"/>
</g>
<!-- Node9 -->
<g id="node2" class="node"><title>Node9</title>
<polygon fill="white" stroke="#bfbfbf" points="206.5,-122.5 206.5,-141.5 287.5,-141.5 287.5,-122.5 206.5,-122.5"/>
<text text-anchor="middle" x="247" y="-129.5" font-family="Helvetica,sans-Serif" font-size="10.00">vector&lt;String&gt;</text>
</g>
<!-- Node2 -->
<g id="node6" class="node"><title>Node2</title>
<g id="a_node6"><a xlink:href="classaworx_1_1lib_1_1config_1_1Configuration.html" target="_top" xlink:title="Configuration">
<polygon fill="white" stroke="black" points="753,-124.5 753,-143.5 827,-143.5 827,-124.5 753,-124.5"/>
<text text-anchor="middle" x="790" y="-131.5" font-family="Helvetica,sans-Serif" font-size="10.00">Configuration</text>
</a>
</g>
</g>
<!-- Node9&#45;&gt;Node2 -->
<g id="edge13" class="edge"><title>Node9&#45;&gt;Node2</title>
<path fill="none" stroke="#9a32cd" stroke-dasharray="5,2" d="M298.075,-132.185C406.043,-132.584 658.582,-133.518 752.751,-133.866"/>
<polygon fill="#9a32cd" stroke="#9a32cd" points="297.794,-128.684 287.781,-132.147 297.768,-135.684 297.794,-128.684"/>
<text text-anchor="middle" x="486" y="-136" font-family="Helvetica,sans-Serif" font-size="10.00"> TrueValues</text>
</g>
<!-- Node11 -->
<g id="node3" class="node"><title>Node11</title>
<polygon fill="white" stroke="#bfbfbf" points="545,-0.5 545,-19.5 662,-19.5 662,-0.5 545,-0.5"/>
<text text-anchor="middle" x="603.5" y="-7.5" font-family="Helvetica,sans-Serif" font-size="10.00">vector&lt;PluginAndPrio&gt;</text>
</g>
<!-- Node11&#45;&gt;Node2 -->
<g id="edge15" class="edge"><title>Node11&#45;&gt;Node2</title>
<path fill="none" stroke="#9a32cd" stroke-dasharray="5,2" d="M672.136,-17.9778C693.804,-23.0646 716.858,-31.3873 735,-45 762.9,-65.9351 779.424,-105.889 785.868,-124.286"/>
<polygon fill="#9a32cd" stroke="#9a32cd" points="672.814,-14.5435 662.301,-15.861 671.341,-21.3868 672.814,-14.5435"/>
<text text-anchor="middle" x="707.5" y="-48" font-family="Helvetica,sans-Serif" font-size="10.00"> plugins</text>
</g>
<!-- Node10&#45;&gt;Node2 -->
<g id="edge14" class="edge"><title>Node10&#45;&gt;Node2</title>
<path fill="none" stroke="#9a32cd" stroke-dasharray="5,2" d="M663.088,-198.026C686.161,-192.133 712.474,-183.906 735,-173 751.238,-165.139 767.738,-152.376 778.151,-143.605"/>
<polygon fill="#9a32cd" stroke="#9a32cd" points="661.953,-194.701 653.079,-200.491 663.626,-201.498 661.953,-194.701"/>
<text text-anchor="middle" x="707.5" y="-195" font-family="Helvetica,sans-Serif" font-size="10.00"> envCP</text>
</g>
<!-- Node12&#45;&gt;Node2 -->
<g id="edge16" class="edge"><title>Node12&#45;&gt;Node2</title>
<path fill="none" stroke="#9a32cd" stroke-dasharray="5,2" d="M667.092,-161.43C688.676,-157.536 712.962,-152.877 735,-148 741.052,-146.661 747.453,-145.116 753.65,-143.553"/>
<polygon fill="#9a32cd" stroke="#9a32cd" points="666.29,-158.018 657.06,-163.221 667.519,-164.909 666.29,-158.018"/>
<text text-anchor="middle" x="707.5" y="-161" font-family="Helvetica,sans-Serif" font-size="10.00"> cmdLineCP</text>
</g>
<!-- Node2&#45;&gt;Node1 -->
<g id="edge3" class="edge"><title>Node2&#45;&gt;Node1</title>
<path fill="none" stroke="#9a32cd" stroke-dasharray="5,2" d="M779.574,-152.867C770.368,-169.438 754.856,-193.024 735,-207 707.29,-226.504 695.524,-224.058 662,-229 566.561,-243.069 540.699,-236.171 445,-224 436.271,-222.89 426.992,-221.275 418.185,-219.532"/>
<polygon fill="#9a32cd" stroke="#9a32cd" points="782.892,-154.08 784.474,-143.604 776.704,-150.807 782.892,-154.08"/>
<text text-anchor="middle" x="603.5" y="-239" font-family="Helvetica,sans-Serif" font-size="10.00"> Parent</text>
</g>
<!-- Node3 -->
<g id="node7" class="node"><title>Node3</title>
<g id="a_node7"><a xlink:href="classaworx_1_1lib_1_1threads_1_1ThreadLock.html" target="_top" xlink:title="ThreadLock">
<polygon fill="white" stroke="black" points="569.5,-38.5 569.5,-57.5 637.5,-57.5 637.5,-38.5 569.5,-38.5"/>
<text text-anchor="middle" x="603.5" y="-45.5" font-family="Helvetica,sans-Serif" font-size="10.00">ThreadLock</text>
</a>
</g>
</g>
<!-- Node3&#45;&gt;Node2 -->
<g id="edge4" class="edge"><title>Node3&#45;&gt;Node2</title>
<path fill="none" stroke="midnightblue" d="M647.82,-52.6163C674.323,-56.856 708.174,-64.8914 735,-80 755.101,-91.3209 772.824,-112.199 782.115,-124.413"/>
<polygon fill="midnightblue" stroke="midnightblue" points="648.092,-49.1185 637.688,-51.1209 647.07,-56.0435 648.092,-49.1185"/>
</g>
<!-- Node4 -->
<g id="node8" class="node"><title>Node4</title>
<g id="a_node8"><a xlink:href="classaworx_1_1lib_1_1Ownable.html" target="_top" xlink:title="Ownable">
<polygon fill="white" stroke="black" points="348.5,-38.5 348.5,-57.5 403.5,-57.5 403.5,-38.5 348.5,-38.5"/>
<text text-anchor="middle" x="376" y="-45.5" font-family="Helvetica,sans-Serif" font-size="10.00">Ownable</text>
</a>
</g>
</g>
<!-- Node4&#45;&gt;Node3 -->
<g id="edge5" class="edge"><title>Node4&#45;&gt;Node3</title>
<path fill="none" stroke="midnightblue" d="M413.819,-48C456.92,-48 527.676,-48 569.2,-48"/>
<polygon fill="midnightblue" stroke="midnightblue" points="413.753,-44.5001 403.753,-48 413.753,-51.5001 413.753,-44.5001"/>
</g>
<!-- Node5 -->
<g id="node9" class="node"><title>Node5</title>
<g id="a_node9"><a xlink:href="classaworx_1_1lib_1_1strings_1_1TString.html" target="_top" xlink:title="TString">
<polygon fill="white" stroke="black" points="121,-83.5 121,-102.5 169,-102.5 169,-83.5 121,-83.5"/>
<text text-anchor="middle" x="145" y="-90.5" font-family="Helvetica,sans-Serif" font-size="10.00">TString</text>
</a>
</g>
</g>
<!-- Node5&#45;&gt;Node4 -->
<g id="edge6" class="edge"><title>Node5&#45;&gt;Node4</title>
<path fill="none" stroke="#9a32cd" stroke-dasharray="5,2" d="M157.214,-75.1644C164.409,-65.4716 174.699,-54.3902 187,-49 240.363,-25.6164 310.711,-34.3558 348.414,-41.7903"/>
<polygon fill="#9a32cd" stroke="#9a32cd" points="154.284,-73.2479 151.508,-83.4725 160.055,-77.211 154.284,-73.2479"/>
<text text-anchor="middle" x="247" y="-63" font-family="Helvetica,sans-Serif" font-size="10.00"> acquirementMethodName</text>
<text text-anchor="middle" x="247" y="-52" font-family="Helvetica,sans-Serif" font-size="10.00">acquirementSourcefile</text>
</g>
<!-- Node8 -->
<g id="node10" class="node"><title>Node8</title>
<g id="a_node10"><a xlink:href="classaworx_1_1lib_1_1strings_1_1NumberFormat.html" target="_top" xlink:title="NumberFormat">
<polygon fill="white" stroke="black" points="445,-62.5 445,-81.5 527,-81.5 527,-62.5 445,-62.5"/>
<text text-anchor="middle" x="486" y="-69.5" font-family="Helvetica,sans-Serif" font-size="10.00">NumberFormat</text>
</a>
</g>
</g>
<!-- Node5&#45;&gt;Node8 -->
<g id="edge7" class="edge"><title>Node5&#45;&gt;Node8</title>
<path fill="none" stroke="#9a32cd" stroke-dasharray="5,2" d="M179.148,-90.9466C241.798,-87.0656 377.351,-78.6685 444.964,-74.4801"/>
<polygon fill="#9a32cd" stroke="#9a32cd" points="178.799,-87.4614 169.034,-91.5731 179.232,-94.448 178.799,-87.4614"/>
<text text-anchor="middle" x="247" y="-105" font-family="Helvetica,sans-Serif" font-size="10.00"> DecimalPointCharacters</text>
<text text-anchor="middle" x="247" y="-94" font-family="Helvetica,sans-Serif" font-size="10.00">DecimalExponentSeparator</text>
</g>
<!-- Node8&#45;&gt;Node2 -->
<g id="edge11" class="edge"><title>Node8&#45;&gt;Node2</title>
<path fill="none" stroke="#9a32cd" stroke-dasharray="5,2" d="M537.057,-80.7399C587.284,-89.7318 666.771,-104.568 735,-120 741.046,-121.367 747.443,-122.926 753.64,-124.495"/>
<polygon fill="#9a32cd" stroke="#9a32cd" points="537.566,-77.2754 527.107,-78.9664 536.337,-84.1668 537.566,-77.2754"/>
<text text-anchor="middle" x="603.5" y="-106" font-family="Helvetica,sans-Serif" font-size="10.00"> NumberFormat</text>
</g>
<!-- Node8&#45;&gt;Node8 -->
<g id="edge12" class="edge"><title>Node8&#45;&gt;Node8</title>
<path fill="none" stroke="#9a32cd" stroke-dasharray="5,2" d="M465.631,-91.4C466.991,-96.3146 473.781,-100 486,-100 505.551,-100 511.202,-90.5653 502.954,-81.7571"/>
<polygon fill="#9a32cd" stroke="#9a32cd" points="469.007,-92.3518 469.046,-81.7571 462.408,-90.0149 469.007,-92.3518"/>
<text text-anchor="middle" x="486" y="-103" font-family="Helvetica,sans-Serif" font-size="10.00"> Global</text>
</g>
<!-- Node6 -->
<g id="node11" class="node"><title>Node6</title>
<g id="a_node11"><a xlink:href="classaworx_1_1lib_1_1strings_1_1String.html" target="_top" xlink:title="String">
<polygon fill="white" stroke="black" points="0,-103.5 0,-122.5 42,-122.5 42,-103.5 0,-103.5"/>
<text text-anchor="middle" x="21" y="-110.5" font-family="Helvetica,sans-Serif" font-size="10.00">String</text>
</a>
</g>
</g>
<!-- Node6&#45;&gt;Node9 -->
<g id="edge9" class="edge"><title>Node6&#45;&gt;Node9</title>
<path fill="none" stroke="#9a32cd" stroke-dasharray="5,2" d="M52.4249,-115.581C92.2444,-118.958 162.126,-124.886 206.138,-128.619"/>
<polygon fill="#9a32cd" stroke="#9a32cd" points="52.5336,-112.077 42.2736,-114.72 51.942,-119.052 52.5336,-112.077"/>
<text text-anchor="middle" x="81.5" y="-122" font-family="Helvetica,sans-Serif" font-size="10.00"> elements</text>
</g>
<!-- Node6&#45;&gt;Node5 -->
<g id="edge8" class="edge"><title>Node6&#45;&gt;Node5</title>
<path fill="none" stroke="midnightblue" d="M52.2595,-108.039C73.4956,-104.558 101.461,-99.9736 120.909,-96.7854"/>
<polygon fill="midnightblue" stroke="midnightblue" points="51.4479,-104.626 42.1458,-109.697 52.5803,-111.533 51.4479,-104.626"/>
</g>
<!-- Node7 -->
<g id="node12" class="node"><title>Node7</title>
<g id="a_node12"><a xlink:href="classaworx_1_1lib_1_1threads_1_1Thread.html" target="_top" xlink:title="Thread">
<polygon fill="white" stroke="red" points="352.5,-0.5 352.5,-19.5 399.5,-19.5 399.5,-0.5 352.5,-0.5"/>
<text text-anchor="middle" x="376" y="-7.5" font-family="Helvetica,sans-Serif" font-size="10.00">Thread</text>
</a>
</g>
</g>
<!-- Node7&#45;&gt;Node3 -->
<g id="edge10" class="edge"><title>Node7&#45;&gt;Node3</title>
<path fill="none" stroke="#9a32cd" stroke-dasharray="5,2" d="M409.722,-14.5944C440.155,-18.9676 486.729,-25.9157 527,-33 540.951,-35.4543 556.294,-38.4478 569.483,-41.1133"/>
<polygon fill="#9a32cd" stroke="#9a32cd" points="410.062,-11.1075 399.668,-13.159 409.073,-18.0373 410.062,-11.1075"/>
<text text-anchor="middle" x="486" y="-36" font-family="Helvetica,sans-Serif" font-size="10.00"> owner</text>
</g>
</g>
</svg>
