<?xml version="1.0" encoding="UTF-8" standalone="no"?>
<!DOCTYPE svg PUBLIC "-//W3C//DTD SVG 1.1//EN"
 "http://www.w3.org/Graphics/SVG/1.1/DTD/svg11.dtd">
<!-- Generated by graphviz version 2.38.0 (20140413.2041)
 -->
<!-- Title: MetaInfo Pages: 1 -->
<svg width="396pt" height="332pt"
 viewBox="0.00 0.00 395.56 332.00" xmlns="http://www.w3.org/2000/svg" xmlns:xlink="http://www.w3.org/1999/xlink">
<g id="graph0" class="graph" transform="scale(1 1) rotate(0) translate(4 328)">
<title>MetaInfo</title>
<polygon fill="white" stroke="none" points="-4,4 -4,-328 391.558,-328 391.558,4 -4,4"/>
<!-- Node1 -->
<g id="node1" class="node"><title>Node1</title>
<polygon fill="#bfbfbf" stroke="black" points="119.058,-0.5 119.058,-19.5 174.058,-19.5 174.058,-0.5 119.058,-0.5"/>
<text text-anchor="middle" x="146.558" y="-7.5" font-family="Helvetica,sans-Serif" font-size="10.00">MetaInfo</text>
</g>
<!-- Node2 -->
<g id="node2" class="node"><title>Node2</title>
<g id="a_node2"><a xlink:href="classaworx_1_1lib_1_1strings_1_1ASPreAlloc.html" target="_top" xlink:title="ASPreAlloc\&lt; TCapacity \&gt;">
<polygon fill="white" stroke="black" points="118.558,-184 118.558,-203 248.558,-203 248.558,-184 118.558,-184"/>
<text text-anchor="middle" x="183.558" y="-191" font-family="Helvetica,sans-Serif" font-size="10.00">ASPreAlloc&lt; TCapacity &gt;</text>
</a>
</g>
</g>
<!-- Node2&#45;&gt;Node1 -->
<g id="edge1" class="edge"><title>Node2&#45;&gt;Node1</title>
<path fill="none" stroke="#9a32cd" stroke-dasharray="5,2" d="M123.181,-180.176C112.692,-175.299 103.076,-168.495 96.5579,-159 66.1208,-114.664 69.0089,-84.1855 96.5579,-38 101.561,-29.6122 110.172,-23.6739 118.852,-19.5451"/>
<polygon fill="#9a32cd" stroke="#9a32cd" points="121.984,-183.467 132.566,-183.984 124.616,-176.981 121.984,-183.467"/>
<text text-anchor="middle" x="136.058" y="-101.5" font-family="Helvetica,sans-Serif" font-size="10.00"> NoSourceFileInfo</text>
<text text-anchor="middle" x="136.058" y="-90.5" font-family="Helvetica,sans-Serif" font-size="10.00">NoMethodInfo</text>
</g>
<!-- Node2&#45;&gt;Node1 -->
<g id="edge2" class="edge"><title>Node2&#45;&gt;Node1</title>
<path fill="none" stroke="#9a32cd" stroke-dasharray="5,2" d="M186.876,-173.99C191.368,-143.876 196.598,-83.1106 175.558,-38 172.127,-30.6436 165.697,-24.3323 159.762,-19.6657"/>
<polygon fill="#9a32cd" stroke="#9a32cd" points="183.41,-173.499 185.247,-183.933 190.318,-174.631 183.41,-173.499"/>
<text text-anchor="middle" x="232.558" y="-151" font-family="Helvetica,sans-Serif" font-size="10.00"> TimeDiffHours</text>
<text text-anchor="middle" x="232.558" y="-140" font-family="Helvetica,sans-Serif" font-size="10.00">LogLevelError</text>
<text text-anchor="middle" x="232.558" y="-129" font-family="Helvetica,sans-Serif" font-size="10.00">TimeDiffMicros</text>
<text text-anchor="middle" x="232.558" y="-118" font-family="Helvetica,sans-Serif" font-size="10.00">LogLevelInfo</text>
<text text-anchor="middle" x="232.558" y="-107" font-family="Helvetica,sans-Serif" font-size="10.00">TimeElapsedDays</text>
<text text-anchor="middle" x="232.558" y="-96" font-family="Helvetica,sans-Serif" font-size="10.00">TimeOfDayFormat</text>
<text text-anchor="middle" x="232.558" y="-85" font-family="Helvetica,sans-Serif" font-size="10.00">DateFormat</text>
<text text-anchor="middle" x="232.558" y="-74" font-family="Helvetica,sans-Serif" font-size="10.00">TimeDiffMins</text>
<text text-anchor="middle" x="232.558" y="-63" font-family="Helvetica,sans-Serif" font-size="10.00">TimeDiffSecs</text>
<text text-anchor="middle" x="232.558" y="-52" font-family="Helvetica,sans-Serif" font-size="10.00">TimeDiffNone</text>
<text text-anchor="middle" x="232.558" y="-41" font-family="Helvetica,sans-Serif" font-size="10.00">...</text>
</g>
<!-- Node3 -->
<g id="node3" class="node"><title>Node3</title>
<g id="a_node3"><a xlink:href="classaworx_1_1lib_1_1strings_1_1ASAlloc.html" target="_top" xlink:title="ASAlloc">
<polygon fill="white" stroke="black" points="21.5579,-247.5 21.5579,-266.5 73.5579,-266.5 73.5579,-247.5 21.5579,-247.5"/>
<text text-anchor="middle" x="47.5579" y="-254.5" font-family="Helvetica,sans-Serif" font-size="10.00">ASAlloc</text>
</a>
</g>
</g>
<!-- Node3&#45;&gt;Node1 -->
<g id="edge3" class="edge"><title>Node3&#45;&gt;Node1</title>
<path fill="none" stroke="#9a32cd" stroke-dasharray="5,2" d="M27.1968,-240.842C18.1264,-232.804 8.41023,-222.093 3.55786,-210 -1.90396,-196.388 0.250059,-191.289 3.55786,-177 19.0686,-109.998 20.3407,-83.8986 71.5579,-38 84.7496,-26.1782 103.5,-19.4282 118.952,-15.6336"/>
<polygon fill="#9a32cd" stroke="#9a32cd" points="25.2462,-243.77 35.1872,-247.434 29.7009,-238.37 25.2462,-243.77"/>
<text text-anchor="middle" x="56.5579" y="-202" font-family="Helvetica,sans-Serif" font-size="10.00"> Format</text>
<text text-anchor="start" x="3.55786" y="-191" font-family="Helvetica,sans-Serif" font-size="10.00">ConsumableSourcePath</text>
<text text-anchor="middle" x="56.5579" y="-180" font-family="Helvetica,sans-Serif" font-size="10.00">Prefix</text>
</g>
<!-- Node3&#45;&gt;Node2 -->
<g id="edge4" class="edge"><title>Node3&#45;&gt;Node2</title>
<path fill="none" stroke="midnightblue" d="M75.6197,-243.31C102.145,-231.315 141.23,-213.641 164.37,-203.177"/>
<polygon fill="midnightblue" stroke="midnightblue" points="74.1376,-240.139 66.4681,-247.449 77.0219,-246.517 74.1376,-240.139"/>
</g>
<!-- Node4 -->
<g id="node4" class="node"><title>Node4</title>
<g id="a_node4"><a xlink:href="classaworx_1_1lib_1_1strings_1_1ASTerminatable.html" target="_top" xlink:title="ASTerminatable">
<polygon fill="white" stroke="red" points="4.55786,-304.5 4.55786,-323.5 90.5579,-323.5 90.5579,-304.5 4.55786,-304.5"/>
<text text-anchor="middle" x="47.5579" y="-311.5" font-family="Helvetica,sans-Serif" font-size="10.00">ASTerminatable</text>
</a>
</g>
</g>
<!-- Node4&#45;&gt;Node3 -->
<g id="edge5" class="edge"><title>Node4&#45;&gt;Node3</title>
<path fill="none" stroke="midnightblue" d="M47.5579,-294.117C47.5579,-284.817 47.5579,-274.056 47.5579,-266.715"/>
<polygon fill="midnightblue" stroke="midnightblue" points="44.058,-294.406 47.5579,-304.406 51.058,-294.406 44.058,-294.406"/>
</g>
<!-- Node6 -->
<g id="node5" class="node"><title>Node6</title>
<g id="a_node5"><a xlink:href="classaworx_1_1lib_1_1time_1_1TicksCalendarTime.html" target="_top" xlink:title="TicksCalendarTime">
<polygon fill="white" stroke="black" points="267.058,-184 267.058,-203 368.058,-203 368.058,-184 267.058,-184"/>
<text text-anchor="middle" x="317.558" y="-191" font-family="Helvetica,sans-Serif" font-size="10.00">TicksCalendarTime</text>
</a>
</g>
</g>
<!-- Node6&#45;&gt;Node1 -->
<g id="edge6" class="edge"><title>Node6&#45;&gt;Node1</title>
<path fill="none" stroke="#9a32cd" stroke-dasharray="5,2" d="M318.572,-173.61C319.214,-140.97 315.465,-74.0545 277.558,-38 263.004,-24.1569 208.295,-16.6933 174.35,-13.3087"/>
<polygon fill="#9a32cd" stroke="#9a32cd" points="315.061,-173.843 318.191,-183.964 322.056,-174.1 315.061,-173.843"/>
<text text-anchor="middle" x="352.558" y="-96" font-family="Helvetica,sans-Serif" font-size="10.00"> callerDateTime</text>
</g>
</g>
</svg>
