<?xml version="1.0" encoding="UTF-8" standalone="no"?>
<!DOCTYPE svg PUBLIC "-//W3C//DTD SVG 1.1//EN"
 "http://www.w3.org/Graphics/SVG/1.1/DTD/svg11.dtd">
<!-- Generated by graphviz version 2.40.1 (20161225.0304)
 -->
<!-- Title: IApply_TApplicable&lt;TApplicable&gt; Pages: 1 -->
<svg width="291pt" height="152pt"
 viewBox="0.00 0.00 291.00 152.00" xmlns="http://www.w3.org/2000/svg" xmlns:xlink="http://www.w3.org/1999/xlink">
<g id="graph0" class="graph" transform="scale(1 1) rotate(0) translate(4 148)">
<title>IApply_TApplicable&lt;TApplicable&gt;</title>
<polygon fill="#ffffff" stroke="transparent" points="-4,4 -4,-148 287,-148 287,4 -4,4"/>
<!-- Node4 -->
<g id="node1" class="node">
<title>Node4</title>
<polygon fill="#bfbfbf" stroke="#000000" points="99.5,-.5 99.5,-19.5 261.5,-19.5 261.5,-.5 99.5,-.5"/>
<text text-anchor="middle" x="180.5" y="-7.5" font-family="Helvetica,sans-Serif" font-size="10.00" fill="#000000">IApply_TApplicable&lt;TApplicable&gt;</text>
</g>
<!-- Node7 -->
<g id="node2" class="node">
<title>Node7</title>
<g id="a_node2"><a xlink:href="classaworx_1_1lib_1_1lang_1_1Singleton.html" target="_top" xlink:title="Singleton\&lt;IApply_TApplicable\&lt;TApplicable\&gt;\&gt;">
<polygon fill="#ffffff" stroke="#000000" points="0,-57.5 0,-76.5 215,-76.5 215,-57.5 0,-57.5"/>
<text text-anchor="middle" x="107.5" y="-64.5" font-family="Helvetica,sans-Serif" font-size="10.00" fill="#000000">Singleton&lt;IApply_TApplicable&lt;TApplicable&gt;&gt;</text>
</a>
</g>
</g>
<!-- Node7&#45;&gt;Node4 -->
<g id="edge3" class="edge">
<title>Node7&#45;&gt;Node4</title>
<path fill="none" stroke="#191970" d="M127.8429,-51.1158C140.8476,-40.9615 157.2805,-28.1303 168.2994,-19.5265"/>
<polygon fill="#191970" stroke="#191970" points="125.6113,-48.4177 119.8835,-57.3307 129.9194,-53.935 125.6113,-48.4177"/>
</g>
<!-- Node5 -->
<g id="node3" class="node">
<title>Node5</title>
<g id="a_node3"><a xlink:href="classaworx_1_1lib_1_1strings_1_1boxing_1_1IApply.html" target="_top" xlink:title="IApply">
<polygon fill="#ffffff" stroke="#000000" points="233.5,-57.5 233.5,-76.5 277.5,-76.5 277.5,-57.5 233.5,-57.5"/>
<text text-anchor="middle" x="255.5" y="-64.5" font-family="Helvetica,sans-Serif" font-size="10.00" fill="#000000">IApply</text>
</a>
</g>
</g>
<!-- Node5&#45;&gt;Node4 -->
<g id="edge1" class="edge">
<title>Node5&#45;&gt;Node4</title>
<path fill="none" stroke="#191970" d="M234.5997,-51.1158C221.2388,-40.9615 204.3557,-28.1303 193.0348,-19.5265"/>
<polygon fill="#191970" stroke="#191970" points="232.6978,-54.0664 242.7773,-57.3307 236.9334,-48.4933 232.6978,-54.0664"/>
</g>
<!-- Node6 -->
<g id="node4" class="node">
<title>Node6</title>
<g id="a_node4"><a xlink:href="classaworx_1_1lib_1_1boxing_1_1Interface.html" target="_top" xlink:title="Interface">
<polygon fill="#ffffff" stroke="#000000" points="228,-124.5 228,-143.5 283,-143.5 283,-124.5 228,-124.5"/>
<text text-anchor="middle" x="255.5" y="-131.5" font-family="Helvetica,sans-Serif" font-size="10.00" fill="#000000">Interface</text>
</a>
</g>
</g>
<!-- Node6&#45;&gt;Node5 -->
<g id="edge2" class="edge">
<title>Node6&#45;&gt;Node5</title>
<path fill="none" stroke="#191970" d="M255.5,-114.1079C255.5,-101.714 255.5,-86.3263 255.5,-76.5817"/>
<polygon fill="#191970" stroke="#191970" points="252.0001,-114.4005 255.5,-124.4005 259.0001,-114.4006 252.0001,-114.4005"/>
</g>
<!-- Node8 -->
<g id="node5" class="node">
<title>Node8</title>
<polygon fill="#ffffff" stroke="#bfbfbf" points="67.5,-124.5 67.5,-143.5 147.5,-143.5 147.5,-124.5 67.5,-124.5"/>
<text text-anchor="middle" x="107.5" y="-131.5" font-family="Helvetica,sans-Serif" font-size="10.00" fill="#000000">TDerivedClass</text>
</g>
<!-- Node8&#45;&gt;Node7 -->
<g id="edge4" class="edge">
<title>Node8&#45;&gt;Node7</title>
<path fill="none" stroke="#9a32cd" stroke-dasharray="5,2" d="M107.5,-114.1079C107.5,-101.714 107.5,-86.3263 107.5,-76.5817"/>
<polygon fill="#9a32cd" stroke="#9a32cd" points="104.0001,-114.4005 107.5,-124.4005 111.0001,-114.4006 104.0001,-114.4005"/>
<text text-anchor="middle" x="129" y="-98" font-family="Helvetica,sans-Serif" font-size="10.00" fill="#000000"> singleton</text>
</g>
</g>
</svg>
