<?xml version="1.0" encoding="UTF-8" standalone="no"?>
<!DOCTYPE svg PUBLIC "-//W3C//DTD SVG 1.1//EN"
 "http://www.w3.org/Graphics/SVG/1.1/DTD/svg11.dtd">
<!-- Generated by graphviz version 2.40.1 (20161225.0304)
 -->
<!-- Title: IFormat_TimeStamp Pages: 1 -->
<svg width="237pt" height="152pt"
 viewBox="0.00 0.00 236.50 152.00" xmlns="http://www.w3.org/2000/svg" xmlns:xlink="http://www.w3.org/1999/xlink">
<g id="graph0" class="graph" transform="scale(1 1) rotate(0) translate(4 148)">
<title>IFormat_TimeStamp</title>
<polygon fill="#ffffff" stroke="transparent" points="-4,4 -4,-148 232.5,-148 232.5,4 -4,4"/>
<!-- Node4 -->
<g id="node1" class="node">
<title>Node4</title>
<polygon fill="#bfbfbf" stroke="#000000" points="86,-.5 86,-19.5 192,-19.5 192,-.5 86,-.5"/>
<text text-anchor="middle" x="139" y="-7.5" font-family="Helvetica,sans-Serif" font-size="10.00" fill="#000000">IFormat_TimeStamp</text>
</g>
<!-- Node7 -->
<g id="node2" class="node">
<title>Node7</title>
<g id="a_node2"><a xlink:href="classaworx_1_1lib_1_1lang_1_1Singleton.html" target="_top" xlink:title="Singleton\&lt;IFormat_TimeStamp\&gt;">
<polygon fill="#ffffff" stroke="#000000" points="0,-57.5 0,-76.5 158,-76.5 158,-57.5 0,-57.5"/>
<text text-anchor="middle" x="79" y="-64.5" font-family="Helvetica,sans-Serif" font-size="10.00" fill="#000000">Singleton&lt;IFormat_TimeStamp&gt;</text>
</a>
</g>
</g>
<!-- Node7&#45;&gt;Node4 -->
<g id="edge3" class="edge">
<title>Node7&#45;&gt;Node4</title>
<path fill="none" stroke="#191970" d="M96.6431,-50.239C107.1771,-40.2317 120.1742,-27.8845 128.9721,-19.5265"/>
<polygon fill="#191970" stroke="#191970" points="94.0176,-47.9057 89.1782,-57.3307 98.8388,-52.9807 94.0176,-47.9057"/>
</g>
<!-- Node5 -->
<g id="node3" class="node">
<title>Node5</title>
<g id="a_node3"><a xlink:href="classaworx_1_1lib_1_1strings_1_1boxing_1_1IFormat.html" target="_top" xlink:title="IFormat">
<polygon fill="#ffffff" stroke="#000000" points="176,-57.5 176,-76.5 226,-76.5 226,-57.5 176,-57.5"/>
<text text-anchor="middle" x="201" y="-64.5" font-family="Helvetica,sans-Serif" font-size="10.00" fill="#000000">IFormat</text>
</a>
</g>
</g>
<!-- Node5&#45;&gt;Node4 -->
<g id="edge1" class="edge">
<title>Node5&#45;&gt;Node4</title>
<path fill="none" stroke="#191970" d="M183.0882,-50.5327C172.1474,-40.4742 158.5425,-27.9664 149.3621,-19.5265"/>
<polygon fill="#191970" stroke="#191970" points="180.752,-53.1393 190.4825,-57.3307 185.4897,-47.9861 180.752,-53.1393"/>
</g>
<!-- Node6 -->
<g id="node4" class="node">
<title>Node6</title>
<g id="a_node4"><a xlink:href="classaworx_1_1lib_1_1boxing_1_1Interface.html" target="_top" xlink:title="Interface">
<polygon fill="#ffffff" stroke="#000000" points="173.5,-124.5 173.5,-143.5 228.5,-143.5 228.5,-124.5 173.5,-124.5"/>
<text text-anchor="middle" x="201" y="-131.5" font-family="Helvetica,sans-Serif" font-size="10.00" fill="#000000">Interface</text>
</a>
</g>
</g>
<!-- Node6&#45;&gt;Node5 -->
<g id="edge2" class="edge">
<title>Node6&#45;&gt;Node5</title>
<path fill="none" stroke="#191970" d="M201,-114.1079C201,-101.714 201,-86.3263 201,-76.5817"/>
<polygon fill="#191970" stroke="#191970" points="197.5001,-114.4005 201,-124.4005 204.5001,-114.4006 197.5001,-114.4005"/>
</g>
<!-- Node8 -->
<g id="node5" class="node">
<title>Node8</title>
<polygon fill="#ffffff" stroke="#bfbfbf" points="39,-124.5 39,-143.5 119,-143.5 119,-124.5 39,-124.5"/>
<text text-anchor="middle" x="79" y="-131.5" font-family="Helvetica,sans-Serif" font-size="10.00" fill="#000000">TDerivedClass</text>
</g>
<!-- Node8&#45;&gt;Node7 -->
<g id="edge4" class="edge">
<title>Node8&#45;&gt;Node7</title>
<path fill="none" stroke="#9a32cd" stroke-dasharray="5,2" d="M79,-114.1079C79,-101.714 79,-86.3263 79,-76.5817"/>
<polygon fill="#9a32cd" stroke="#9a32cd" points="75.5001,-114.4005 79,-124.4005 82.5001,-114.4006 75.5001,-114.4005"/>
<text text-anchor="middle" x="100.5" y="-98" font-family="Helvetica,sans-Serif" font-size="10.00" fill="#000000"> singleton</text>
</g>
</g>
</svg>
