<?xml version="1.0" encoding="UTF-8" standalone="no"?>
<!DOCTYPE svg PUBLIC "-//W3C//DTD SVG 1.1//EN"
 "http://www.w3.org/Graphics/SVG/1.1/DTD/svg11.dtd">
<!-- Generated by graphviz version 2.40.1 (20161225.0304)
 -->
<!-- Title: PropertyFormatters&lt;TFormattable, TVariable&gt; Pages: 1 -->
<svg width="1671pt" height="209pt"
 viewBox="0.00 0.00 1671.00 209.00" xmlns="http://www.w3.org/2000/svg" xmlns:xlink="http://www.w3.org/1999/xlink">
<g id="graph0" class="graph" transform="scale(1 1) rotate(0) translate(4 205)">
<title>PropertyFormatters&lt;TFormattable, TVariable&gt;</title>
<polygon fill="#ffffff" stroke="transparent" points="-4,4 -4,-205 1667,-205 1667,4 -4,4"/>
<!-- Node1 -->
<g id="node1" class="node">
<title>Node1</title>
<polygon fill="#bfbfbf" stroke="#000000" points="1446,-67.5 1446,-86.5 1663,-86.5 1663,-67.5 1446,-67.5"/>
<text text-anchor="middle" x="1554.5" y="-74.5" font-family="Helvetica,sans-Serif" font-size="10.00" fill="#000000">PropertyFormatters&lt;TFormattable, TVariable&gt;</text>
</g>
<!-- Node13 -->
<g id="node2" class="node">
<title>Node13</title>
<g id="a_node2"><a xlink:title="STL class. ">
<polygon fill="#ffffff" stroke="#bfbfbf" points="199,-176.5 199,-195.5 272,-195.5 272,-176.5 199,-176.5"/>
<text text-anchor="middle" x="235.5" y="-183.5" font-family="Helvetica,sans-Serif" font-size="10.00" fill="#000000">vector&lt;Box&gt;</text>
</a>
</g>
</g>
<!-- Node12 -->
<g id="node12" class="node">
<title>Node12</title>
<g id="a_node12"><a xlink:href="classaworx_1_1lib_1_1boxing_1_1Boxes.html" target="_top" xlink:title="Boxes">
<polygon fill="#ffffff" stroke="#000000" points="349,-176.5 349,-195.5 393,-195.5 393,-176.5 349,-176.5"/>
<text text-anchor="middle" x="371" y="-183.5" font-family="Helvetica,sans-Serif" font-size="10.00" fill="#000000">Boxes</text>
</a>
</g>
</g>
<!-- Node13&#45;&gt;Node12 -->
<g id="edge13" class="edge">
<title>Node13&#45;&gt;Node12</title>
<path fill="none" stroke="#191970" d="M282.2355,-186C304.7626,-186 330.7299,-186 348.734,-186"/>
<polygon fill="#191970" stroke="#191970" points="282.1683,-182.5001 272.1683,-186 282.1682,-189.5001 282.1683,-182.5001"/>
</g>
<!-- Node15 -->
<g id="node3" class="node">
<title>Node15</title>
<polygon fill="#ffffff" stroke="#bfbfbf" points="1079,-67.5 1079,-86.5 1362,-86.5 1362,-67.5 1079,-67.5"/>
<text text-anchor="middle" x="1220.5" y="-74.5" font-family="Helvetica,sans-Serif" font-size="10.00" fill="#000000">map&lt;TVariable, format::PropertyFormatter&lt;TFormattable&gt; *&gt;</text>
</g>
<!-- Node15&#45;&gt;Node1 -->
<g id="edge14" class="edge">
<title>Node15&#45;&gt;Node1</title>
<path fill="none" stroke="#9a32cd" stroke-dasharray="5,2" d="M1372.3561,-77C1397.1334,-77 1422.3591,-77 1445.8272,-77"/>
<polygon fill="#9a32cd" stroke="#9a32cd" points="1372.1461,-73.5001 1362.1461,-77 1372.146,-80.5001 1372.1461,-73.5001"/>
<text text-anchor="middle" x="1404" y="-80" font-family="Helvetica,sans-Serif" font-size="10.00" fill="#000000"> formatters</text>
</g>
<!-- Node17 -->
<g id="node4" class="node">
<title>Node17</title>
<polygon fill="#ffffff" stroke="#bfbfbf" points="537,-.5 537,-19.5 716,-19.5 716,-.5 537,-.5"/>
<text text-anchor="middle" x="626.5" y="-7.5" font-family="Helvetica,sans-Serif" font-size="10.00" fill="#000000">vector&lt;const TCallbackTableEntry *&gt;</text>
</g>
<!-- Node16 -->
<g id="node5" class="node">
<title>Node16</title>
<g id="a_node5"><a xlink:href="classaworx_1_1lib_1_1strings_1_1format_1_1PropertyFormatter.html" target="_top" xlink:title="PropertyFormatter\&lt;TFormattable\&gt;">
<polygon fill="#ffffff" stroke="#000000" points="811,-55.5 811,-74.5 976,-74.5 976,-55.5 811,-55.5"/>
<text text-anchor="middle" x="893.5" y="-62.5" font-family="Helvetica,sans-Serif" font-size="10.00" fill="#000000">PropertyFormatter&lt;TFormattable&gt;</text>
</a>
</g>
</g>
<!-- Node17&#45;&gt;Node16 -->
<g id="edge17" class="edge">
<title>Node17&#45;&gt;Node16</title>
<path fill="none" stroke="#9a32cd" stroke-dasharray="5,2" d="M726.1708,-19.2579C748.3201,-22.2329 771.577,-26.0778 793,-31 819.7479,-37.1457 849.405,-47.6552 869.5237,-55.367"/>
<polygon fill="#9a32cd" stroke="#9a32cd" points="726.4493,-15.7648 716.0826,-17.9514 725.5502,-22.7068 726.4493,-15.7648"/>
<text text-anchor="middle" x="763.5" y="-34" font-family="Helvetica,sans-Serif" font-size="10.00" fill="#000000"> callBacks</text>
</g>
<!-- Node16&#45;&gt;Node1 -->
<g id="edge15" class="edge">
<title>Node16&#45;&gt;Node1</title>
<path fill="none" stroke="#9a32cd" stroke-dasharray="5,2" d="M984.2471,-54.4251C1014.3552,-51.3893 1048.0767,-48.4968 1079,-47 1204.6307,-40.919 1236.5978,-37.287 1362,-47 1411.7408,-50.8527 1468.0681,-60.2249 1506.8793,-67.4774"/>
<polygon fill="#9a32cd" stroke="#9a32cd" points="983.7746,-50.9551 974.1844,-55.4583 984.4896,-57.9185 983.7746,-50.9551"/>
<text text-anchor="middle" x="1220.5" y="-50" font-family="Helvetica,sans-Serif" font-size="10.00" fill="#000000"> callbacks</text>
</g>
<!-- Node16&#45;&gt;Node15 -->
<g id="edge16" class="edge">
<title>Node16&#45;&gt;Node15</title>
<path fill="none" stroke="#9a32cd" stroke-dasharray="5,2" d="M986.0616,-68.3968C1014.9156,-69.4556 1047.4261,-70.6487 1078.8413,-71.8015"/>
<polygon fill="#9a32cd" stroke="#9a32cd" points="986.1376,-64.8973 976.0159,-68.0281 985.8808,-71.8926 986.1376,-64.8973"/>
<text text-anchor="middle" x="1027.5" y="-74" font-family="Helvetica,sans-Serif" font-size="10.00" fill="#000000"> elements</text>
</g>
<!-- Node2 -->
<g id="node6" class="node">
<title>Node2</title>
<g id="a_node6"><a xlink:href="classaworx_1_1lib_1_1strings_1_1format_1_1Formatter.html" target="_top" xlink:title="[DOX_ALIB_ENUM_META_DATA_SPECIFCATION_using_enum] ">
<polygon fill="#ffffff" stroke="#000000" points="597,-96.5 597,-115.5 656,-115.5 656,-96.5 597,-96.5"/>
<text text-anchor="middle" x="626.5" y="-103.5" font-family="Helvetica,sans-Serif" font-size="10.00" fill="#000000">Formatter</text>
</a>
</g>
</g>
<!-- Node2&#45;&gt;Node1 -->
<g id="edge1" class="edge">
<title>Node2&#45;&gt;Node1</title>
<path fill="none" stroke="#9a32cd" stroke-dasharray="5,2" d="M666.3179,-106.1151C776.7953,-106.2927 1096.5108,-105.8445 1362,-96 1391.367,-94.9111 1398.7299,-94.6202 1428,-92 1444.9612,-90.4817 1463.1636,-88.5197 1480.326,-86.5183"/>
<polygon fill="#9a32cd" stroke="#9a32cd" points="666.2952,-102.6152 656.2886,-106.0963 666.282,-109.6152 666.2952,-102.6152"/>
<text text-anchor="middle" x="1027.5" y="-108" font-family="Helvetica,sans-Serif" font-size="10.00" fill="#000000"> baseFormatter</text>
</g>
<!-- Node2&#45;&gt;Node16 -->
<g id="edge3" class="edge">
<title>Node2&#45;&gt;Node16</title>
<path fill="none" stroke="#9a32cd" stroke-dasharray="5,2" d="M666.0373,-99.9287C709.658,-93.2304 780.4276,-82.3632 831.4529,-74.5278"/>
<polygon fill="#9a32cd" stroke="#9a32cd" points="665.4467,-96.4783 656.0938,-101.4556 666.5092,-103.3972 665.4467,-96.4783"/>
<text text-anchor="middle" x="763.5" y="-93" font-family="Helvetica,sans-Serif" font-size="10.00" fill="#000000"> theFormatter</text>
</g>
<!-- Node2&#45;&gt;Node2 -->
<g id="edge2" class="edge">
<title>Node2&#45;&gt;Node2</title>
<path fill="none" stroke="#9a32cd" stroke-dasharray="5,2" d="M601.2025,-125.0292C602.5824,-130.128 611.0149,-134 626.5,-134 650.6719,-134 657.6591,-124.5653 647.4615,-115.7571"/>
<polygon fill="#9a32cd" stroke="#9a32cd" points="604.4728,-126.2982 605.5385,-115.7571 598.1319,-123.3329 604.4728,-126.2982"/>
<text text-anchor="middle" x="626.5" y="-148" font-family="Helvetica,sans-Serif" font-size="10.00" fill="#000000"> Next</text>
<text text-anchor="middle" x="626.5" y="-137" font-family="Helvetica,sans-Serif" font-size="10.00" fill="#000000">defaultFormatter</text>
</g>
<!-- Node3 -->
<g id="node7" class="node">
<title>Node3</title>
<g id="a_node7"><a xlink:href="classaworx_1_1lib_1_1strings_1_1AString.html" target="_top" xlink:title="AString">
<polygon fill="#ffffff" stroke="#000000" points="346.5,-57.5 346.5,-76.5 395.5,-76.5 395.5,-57.5 346.5,-57.5"/>
<text text-anchor="middle" x="371" y="-64.5" font-family="Helvetica,sans-Serif" font-size="10.00" fill="#000000">AString</text>
</a>
</g>
</g>
<!-- Node3&#45;&gt;Node16 -->
<g id="edge5" class="edge">
<title>Node3&#45;&gt;Node16</title>
<path fill="none" stroke="#9a32cd" stroke-dasharray="5,2" d="M405.9694,-66.4564C439.5626,-65.9631 491.7488,-65.2726 537,-65 630.7652,-64.4352 738.4052,-64.5389 810.6591,-64.7176"/>
<polygon fill="#9a32cd" stroke="#9a32cd" points="405.6949,-62.96 395.7482,-66.6088 405.7993,-69.9592 405.6949,-62.96"/>
<text text-anchor="middle" x="626.5" y="-79" font-family="Helvetica,sans-Serif" font-size="10.00" fill="#000000"> propertyFormatString</text>
<text text-anchor="middle" x="626.5" y="-68" font-family="Helvetica,sans-Serif" font-size="10.00" fill="#000000">formatString</text>
</g>
<!-- Node3&#45;&gt;Node2 -->
<g id="edge4" class="edge">
<title>Node3&#45;&gt;Node2</title>
<path fill="none" stroke="#9a32cd" stroke-dasharray="5,2" d="M406.0943,-72.3569C456.7029,-80.0819 549.2945,-94.2152 596.7428,-101.4578"/>
<polygon fill="#9a32cd" stroke="#9a32cd" points="406.3773,-68.8596 395.9636,-70.8105 405.321,-75.7794 406.3773,-68.8596"/>
<text text-anchor="middle" x="471" y="-92" font-family="Helvetica,sans-Serif" font-size="10.00" fill="#000000"> mbsFormatString</text>
</g>
<!-- Node4 -->
<g id="node8" class="node">
<title>Node4</title>
<g id="a_node8"><a xlink:href="classaworx_1_1lib_1_1strings_1_1TString.html" target="_top" xlink:title="TString">
<polygon fill="#ffffff" stroke="#ff0000" points="0,-73.5 0,-92.5 48,-92.5 48,-73.5 0,-73.5"/>
<text text-anchor="middle" x="24" y="-80.5" font-family="Helvetica,sans-Serif" font-size="10.00" fill="#000000">TString</text>
</a>
</g>
</g>
<!-- Node4&#45;&gt;Node3 -->
<g id="edge6" class="edge">
<title>Node4&#45;&gt;Node3</title>
<path fill="none" stroke="#191970" d="M58.1422,-81.4257C127.8424,-78.2119 285.0626,-70.9625 346.1078,-68.1478"/>
<polygon fill="#191970" stroke="#191970" points="57.953,-77.9306 48.1249,-81.8876 58.2755,-84.9232 57.953,-77.9306"/>
</g>
<!-- Node7 -->
<g id="node9" class="node">
<title>Node7</title>
<g id="a_node9"><a xlink:href="classaworx_1_1lib_1_1lang_1_1Ownable.html" target="_top" xlink:title="Ownable">
<polygon fill="#ffffff" stroke="#000000" points="208.5,-95.5 208.5,-114.5 262.5,-114.5 262.5,-95.5 208.5,-95.5"/>
<text text-anchor="middle" x="235.5" y="-102.5" font-family="Helvetica,sans-Serif" font-size="10.00" fill="#000000">Ownable</text>
</a>
</g>
</g>
<!-- Node4&#45;&gt;Node7 -->
<g id="edge7" class="edge">
<title>Node4&#45;&gt;Node7</title>
<path fill="none" stroke="#9a32cd" stroke-dasharray="5,2" d="M58.2455,-86.5622C100.032,-90.9088 169.8398,-98.1701 208.1953,-102.1598"/>
<polygon fill="#9a32cd" stroke="#9a32cd" points="58.5702,-83.0772 48.2617,-85.5237 57.8459,-90.0396 58.5702,-83.0772"/>
<text text-anchor="middle" x="123.5" y="-114" font-family="Helvetica,sans-Serif" font-size="10.00" fill="#000000"> acquirementMethodName</text>
<text text-anchor="middle" x="123.5" y="-103" font-family="Helvetica,sans-Serif" font-size="10.00" fill="#000000">acquirementSourcefile</text>
</g>
<!-- Node6 -->
<g id="node10" class="node">
<title>Node6</title>
<g id="a_node10"><a xlink:href="classaworx_1_1lib_1_1threads_1_1ThreadLock.html" target="_top" xlink:title="ThreadLock">
<polygon fill="#ffffff" stroke="#000000" points="337,-113.5 337,-132.5 405,-132.5 405,-113.5 337,-113.5"/>
<text text-anchor="middle" x="371" y="-120.5" font-family="Helvetica,sans-Serif" font-size="10.00" fill="#000000">ThreadLock</text>
</a>
</g>
</g>
<!-- Node7&#45;&gt;Node6 -->
<g id="edge9" class="edge">
<title>Node7&#45;&gt;Node6</title>
<path fill="none" stroke="#191970" d="M272.5999,-109.9284C292.617,-112.5875 317.1571,-115.8474 336.7228,-118.4466"/>
<polygon fill="#191970" stroke="#191970" points="272.9686,-106.4467 262.5948,-108.5993 272.0468,-113.3858 272.9686,-106.4467"/>
</g>
<!-- Node6&#45;&gt;Node2 -->
<g id="edge8" class="edge">
<title>Node6&#45;&gt;Node2</title>
<path fill="none" stroke="#9a32cd" stroke-dasharray="5,2" d="M415.4606,-120.0418C467.5081,-116.5787 552.252,-110.9402 596.8705,-107.9714"/>
<polygon fill="#9a32cd" stroke="#9a32cd" points="414.9383,-116.5687 405.1928,-120.7249 415.4031,-123.5532 414.9383,-116.5687"/>
<text text-anchor="middle" x="471" y="-122" font-family="Helvetica,sans-Serif" font-size="10.00" fill="#000000"> defaultFormatterLock</text>
</g>
<!-- Node8 -->
<g id="node11" class="node">
<title>Node8</title>
<g id="a_node11"><a xlink:href="classaworx_1_1lib_1_1threads_1_1Thread.html" target="_top" xlink:title="Thread">
<polygon fill="#ffffff" stroke="#ff0000" points="212,-133.5 212,-152.5 259,-152.5 259,-133.5 212,-133.5"/>
<text text-anchor="middle" x="235.5" y="-140.5" font-family="Helvetica,sans-Serif" font-size="10.00" fill="#000000">Thread</text>
</a>
</g>
</g>
<!-- Node8&#45;&gt;Node6 -->
<g id="edge10" class="edge">
<title>Node8&#45;&gt;Node6</title>
<path fill="none" stroke="#9a32cd" stroke-dasharray="5,2" d="M269.0075,-138.0542C289.6282,-135.0106 315.9905,-131.1195 336.7474,-128.0557"/>
<polygon fill="#9a32cd" stroke="#9a32cd" points="268.484,-134.5935 259.1023,-139.5163 269.5062,-141.5185 268.484,-134.5935"/>
<text text-anchor="middle" x="304.5" y="-137" font-family="Helvetica,sans-Serif" font-size="10.00" fill="#000000"> owner</text>
</g>
<!-- Node12&#45;&gt;Node16 -->
<g id="edge12" class="edge">
<title>Node12&#45;&gt;Node16</title>
<path fill="none" stroke="#9a32cd" stroke-dasharray="5,2" d="M403.3828,-188.8276C465.5069,-193.2148 605.0955,-198.0321 716,-165 783.4577,-144.9083 853.2965,-95.6266 881.0523,-74.6769"/>
<polygon fill="#9a32cd" stroke="#9a32cd" points="403.6332,-185.3366 393.3992,-188.0779 403.109,-192.3169 403.6332,-185.3366"/>
<text text-anchor="middle" x="626.5" y="-193" font-family="Helvetica,sans-Serif" font-size="10.00" fill="#000000"> results</text>
</g>
<!-- Node12&#45;&gt;Node2 -->
<g id="edge11" class="edge">
<title>Node12&#45;&gt;Node2</title>
<path fill="none" stroke="#9a32cd" stroke-dasharray="5,2" d="M402.64,-174.1014C409.337,-171.6779 416.3814,-169.199 423,-167 484.2529,-146.6489 556.8572,-125.6162 596.67,-114.3439"/>
<polygon fill="#9a32cd" stroke="#9a32cd" points="401.3516,-170.8459 393.1667,-177.5733 403.7604,-177.4184 401.3516,-170.8459"/>
<text text-anchor="middle" x="471" y="-170" font-family="Helvetica,sans-Serif" font-size="10.00" fill="#000000"> boxes</text>
</g>
</g>
</svg>
