<?xml version="1.0" encoding="UTF-8" standalone="no"?>
<!DOCTYPE svg PUBLIC "-//W3C//DTD SVG 1.1//EN"
 "http://www.w3.org/Graphics/SVG/1.1/DTD/svg11.dtd">
<!-- Generated by graphviz version 2.38.0 (20140413.2041)
 -->
<!-- Title: Log Pages: 1 -->
<svg width="1527pt" height="988pt"
 viewBox="0.00 0.00 1527.00 988.00" xmlns="http://www.w3.org/2000/svg" xmlns:xlink="http://www.w3.org/1999/xlink">
<g id="graph0" class="graph" transform="scale(1 1) rotate(0) translate(4 984)">
<title>Log</title>
<polygon fill="white" stroke="none" points="-4,4 -4,-984 1523,-984 1523,4 -4,4"/>
<!-- Node1 -->
<g id="node1" class="node"><title>Node1</title>
<polygon fill="#bfbfbf" stroke="black" points="1487,-460.5 1487,-479.5 1519,-479.5 1519,-460.5 1487,-460.5"/>
<text text-anchor="middle" x="1503" y="-467.5" font-family="Helvetica,sans-Serif" font-size="10.00">Log</text>
</g>
<!-- Node11 -->
<g id="node2" class="node"><title>Node11</title>
<polygon fill="white" stroke="#bfbfbf" points="898,-393.5 898,-412.5 1020,-412.5 1020,-393.5 898,-393.5"/>
<text text-anchor="middle" x="959" y="-400.5" font-family="Helvetica,sans-Serif" font-size="10.00">vector&lt; core::Logger * &gt;</text>
</g>
<!-- Node3 -->
<g id="node11" class="node"><title>Node3</title>
<g id="a_node11"><a xlink:href="classaworx_1_1lox_1_1Lox.html" target="_top" xlink:title="Lox">
<polygon fill="white" stroke="black" points="1119,-285.5 1119,-304.5 1151,-304.5 1151,-285.5 1119,-285.5"/>
<text text-anchor="middle" x="1135" y="-292.5" font-family="Helvetica,sans-Serif" font-size="10.00">Lox</text>
</a>
</g>
</g>
<!-- Node11&#45;&gt;Node3 -->
<g id="edge29" class="edge"><title>Node11&#45;&gt;Node3</title>
<path fill="none" stroke="#9a32cd" stroke-dasharray="5,2" d="M1003.45,-390.238C1027.6,-381.913 1057.44,-369.507 1081,-353 1100.44,-339.381 1117.94,-317.481 1127.15,-304.848"/>
<polygon fill="#9a32cd" stroke="#9a32cd" points="1002.2,-386.965 993.823,-393.447 1004.42,-393.606 1002.2,-386.965"/>
<text text-anchor="middle" x="1059.5" y="-379" font-family="Helvetica,sans-Serif" font-size="10.00"> loggers</text>
</g>
<!-- Node15 -->
<g id="node3" class="node"><title>Node15</title>
<polygon fill="white" stroke="#bfbfbf" points="758,-152.5 758,-193.5 880,-193.5 880,-152.5 758,-152.5"/>
<text text-anchor="start" x="766" y="-181.5" font-family="Helvetica,sans-Serif" font-size="10.00">map&lt; aworx::lib::strings</text>
<text text-anchor="start" x="766" y="-170.5" font-family="Helvetica,sans-Serif" font-size="10.00">::ASAlloc, aworx::lib::</text>
<text text-anchor="middle" x="819" y="-159.5" font-family="Helvetica,sans-Serif" font-size="10.00">strings::ASAlloc &gt;</text>
</g>
<!-- Node15&#45;&gt;Node3 -->
<g id="edge35" class="edge"><title>Node15&#45;&gt;Node3</title>
<path fill="none" stroke="#9a32cd" stroke-dasharray="5,2" d="M890.439,-163.346C946.997,-159.418 1025.81,-162.965 1081,-202 1110.59,-222.926 1125.85,-265.933 1131.45,-285.24"/>
<polygon fill="#9a32cd" stroke="#9a32cd" points="889.841,-159.883 880.147,-164.16 890.392,-166.861 889.841,-159.883"/>
<text text-anchor="middle" x="959" y="-177" font-family="Helvetica,sans-Serif" font-size="10.00"> defaultDomains</text>
</g>
<!-- Node16 -->
<g id="node4" class="node"><title>Node16</title>
<polygon fill="white" stroke="#bfbfbf" points="483,-231 483,-261 605,-261 605,-231 483,-231"/>
<text text-anchor="start" x="491" y="-249" font-family="Helvetica,sans-Serif" font-size="10.00">map&lt; aworx::lib::strings</text>
<text text-anchor="middle" x="544" y="-238" font-family="Helvetica,sans-Serif" font-size="10.00">::ASAlloc, void * &gt;</text>
</g>
<!-- Node16&#45;&gt;Node3 -->
<g id="edge36" class="edge"><title>Node16&#45;&gt;Node3</title>
<path fill="none" stroke="#9a32cd" stroke-dasharray="5,2" d="M615.261,-251.845C752.469,-263.26 1048.78,-287.91 1118.9,-293.744"/>
<polygon fill="#9a32cd" stroke="#9a32cd" points="615.521,-248.355 605.265,-251.014 614.941,-255.331 615.521,-248.355"/>
<text text-anchor="middle" x="819" y="-277" font-family="Helvetica,sans-Serif" font-size="10.00"> markers</text>
</g>
<!-- Node17 -->
<g id="node5" class="node"><title>Node17</title>
<polygon fill="white" stroke="#bfbfbf" points="628.5,-291.5 628.5,-310.5 734.5,-310.5 734.5,-291.5 628.5,-291.5"/>
<text text-anchor="middle" x="681.5" y="-298.5" font-family="Helvetica,sans-Serif" font-size="10.00">map&lt; int, String32 &gt;</text>
</g>
<!-- Node17&#45;&gt;Node3 -->
<g id="edge37" class="edge"><title>Node17&#45;&gt;Node3</title>
<path fill="none" stroke="#9a32cd" stroke-dasharray="5,2" d="M744.971,-300.17C850.976,-298.761 1060.27,-295.98 1118.59,-295.205"/>
<polygon fill="#9a32cd" stroke="#9a32cd" points="744.686,-296.673 734.734,-300.306 744.78,-303.673 744.686,-296.673"/>
<text text-anchor="middle" x="959" y="-302" font-family="Helvetica,sans-Serif" font-size="10.00"> threadDictionary</text>
</g>
<!-- Node18 -->
<g id="node21" class="node"><title>Node18</title>
<g id="a_node21"><a xlink:href="classaworx_1_1lox_1_1core_1_1CallerInfo.html" target="_top" xlink:title="CallerInfo">
<polygon fill="white" stroke="black" points="929.5,-82.5 929.5,-101.5 988.5,-101.5 988.5,-82.5 929.5,-82.5"/>
<text text-anchor="middle" x="959" y="-89.5" font-family="Helvetica,sans-Serif" font-size="10.00">CallerInfo</text>
</a>
</g>
</g>
<!-- Node17&#45;&gt;Node18 -->
<g id="edge38" class="edge"><title>Node17&#45;&gt;Node18</title>
<path fill="none" stroke="#9a32cd" stroke-dasharray="5,2" d="M701.408,-284.817C716.092,-272.866 737.364,-256.854 758,-246 808.882,-219.236 838.945,-243.246 880,-203 896.27,-187.05 885.9,-174.305 898,-155 911.477,-133.499 933.105,-113.087 946.382,-101.593"/>
<polygon fill="#9a32cd" stroke="#9a32cd" points="699.038,-282.236 693.578,-291.315 703.509,-287.622 699.038,-282.236"/>
<text text-anchor="middle" x="819" y="-249" font-family="Helvetica,sans-Serif" font-size="10.00"> threadDictionary</text>
</g>
<!-- Node21 -->
<g id="node6" class="node"><title>Node21</title>
<polygon fill="white" stroke="#bfbfbf" points="364,-766.5 364,-785.5 436,-785.5 436,-766.5 364,-766.5"/>
<text text-anchor="middle" x="400" y="-773.5" font-family="Helvetica,sans-Serif" font-size="10.00">vector&lt; int &gt;</text>
</g>
<!-- Node20 -->
<g id="node24" class="node"><title>Node20</title>
<g id="a_node24"><a xlink:href="classaworx_1_1lox_1_1core_1_1textlogger_1_1AutoSizes.html" target="_top" xlink:title="AutoSizes">
<polygon fill="white" stroke="black" points="650.5,-658.5 650.5,-677.5 712.5,-677.5 712.5,-658.5 650.5,-658.5"/>
<text text-anchor="middle" x="681.5" y="-665.5" font-family="Helvetica,sans-Serif" font-size="10.00">AutoSizes</text>
</a>
</g>
</g>
<!-- Node21&#45;&gt;Node20 -->
<g id="edge42" class="edge"><title>Node21&#45;&gt;Node20</title>
<path fill="none" stroke="#9a32cd" stroke-dasharray="5,2" d="M446.185,-780.13C498.889,-783.923 581.779,-786.378 605,-767 632.648,-743.927 598.984,-714.833 623,-688 630.049,-680.124 640.364,-675.35 650.319,-672.455"/>
<polygon fill="#9a32cd" stroke="#9a32cd" points="446.311,-776.63 436.074,-779.36 445.779,-783.61 446.311,-776.63"/>
<text text-anchor="middle" x="544" y="-797" font-family="Helvetica,sans-Serif" font-size="10.00"> values</text>
<text text-anchor="middle" x="544" y="-786" font-family="Helvetica,sans-Serif" font-size="10.00">sessionValues</text>
</g>
<!-- Node26 -->
<g id="node7" class="node"><title>Node26</title>
<polygon fill="white" stroke="#bfbfbf" points="493,-735 493,-765 595,-765 595,-735 493,-735"/>
<text text-anchor="start" x="501" y="-753" font-family="Helvetica,sans-Serif" font-size="10.00">vector&lt; aworx::lib</text>
<text text-anchor="middle" x="544" y="-742" font-family="Helvetica,sans-Serif" font-size="10.00">::strings::ASAlloc &gt;</text>
</g>
<!-- Node19 -->
<g id="node16" class="node"><title>Node19</title>
<g id="a_node16"><a xlink:href="classaworx_1_1lox_1_1core_1_1textlogger_1_1TextLogger.html" target="_top" xlink:title="TextLogger">
<polygon fill="white" stroke="black" points="926.5,-570.5 926.5,-589.5 991.5,-589.5 991.5,-570.5 926.5,-570.5"/>
<text text-anchor="middle" x="959" y="-577.5" font-family="Helvetica,sans-Serif" font-size="10.00">TextLogger</text>
</a>
</g>
</g>
<!-- Node26&#45;&gt;Node19 -->
<g id="edge45" class="edge"><title>Node26&#45;&gt;Node19</title>
<path fill="none" stroke="#9a32cd" stroke-dasharray="5,2" d="M603.075,-731.062C603.74,-730.398 604.383,-729.711 605,-729 632.021,-697.861 593.421,-666.719 623,-638 664.545,-597.663 823.009,-605.246 880,-595 895.201,-592.267 912.031,-589.054 926.155,-586.305"/>
<polygon fill="#9a32cd" stroke="#9a32cd" points="600.835,-728.371 595.166,-737.321 605.18,-733.86 600.835,-728.371"/>
<text text-anchor="middle" x="681.5" y="-641" font-family="Helvetica,sans-Serif" font-size="10.00"> replacements</text>
</g>
<!-- Node7 -->
<g id="node8" class="node"><title>Node7</title>
<g id="a_node8"><a xlink:href="classaworx_1_1lib_1_1strings_1_1ASPreAlloc.html" target="_top" xlink:title="ASPreAlloc\&lt; TCapacity \&gt;">
<polygon fill="white" stroke="black" points="335,-450.5 335,-469.5 465,-469.5 465,-450.5 335,-450.5"/>
<text text-anchor="middle" x="400" y="-457.5" font-family="Helvetica,sans-Serif" font-size="10.00">ASPreAlloc&lt; TCapacity &gt;</text>
</a>
</g>
</g>
<!-- Node7&#45;&gt;Node17 -->
<g id="edge10" class="edge"><title>Node7&#45;&gt;Node17</title>
<path fill="none" stroke="#9a32cd" stroke-dasharray="5,2" d="M411.229,-441.367C424.657,-418.734 450.396,-381.094 483,-361 530.36,-331.812 554.33,-355.966 605,-333 613.988,-328.926 614.212,-324.49 623,-320 630.115,-316.365 638.074,-313.214 645.748,-310.579"/>
<polygon fill="#9a32cd" stroke="#9a32cd" points="408.032,-439.908 406.095,-450.324 414.105,-443.389 408.032,-439.908"/>
<text text-anchor="middle" x="544" y="-364" font-family="Helvetica,sans-Serif" font-size="10.00"> elements</text>
</g>
<!-- Node6 -->
<g id="node14" class="node"><title>Node6</title>
<g id="a_node14"><a xlink:href="classaworx_1_1lib_1_1threads_1_1Thread.html" target="_top" xlink:title="Thread">
<polygon fill="white" stroke="red" points="658,-367.5 658,-386.5 705,-386.5 705,-367.5 658,-367.5"/>
<text text-anchor="middle" x="681.5" y="-374.5" font-family="Helvetica,sans-Serif" font-size="10.00">Thread</text>
</a>
</g>
</g>
<!-- Node7&#45;&gt;Node6 -->
<g id="edge8" class="edge"><title>Node7&#45;&gt;Node6</title>
<path fill="none" stroke="#9a32cd" stroke-dasharray="5,2" d="M417.148,-443.11C432.538,-428.195 457.141,-407.269 483,-397 542.737,-373.278 620.255,-373.505 657.943,-375.377"/>
<polygon fill="#9a32cd" stroke="#9a32cd" points="414.58,-440.729 409.982,-450.274 419.529,-445.679 414.58,-440.729"/>
<text text-anchor="middle" x="544" y="-400" font-family="Helvetica,sans-Serif" font-size="10.00"> name</text>
</g>
<!-- Node12 -->
<g id="node15" class="node"><title>Node12</title>
<g id="a_node15"><a xlink:href="classaworx_1_1lox_1_1core_1_1Logger.html" target="_top" xlink:title="Logger">
<polygon fill="white" stroke="red" points="658.5,-405.5 658.5,-424.5 704.5,-424.5 704.5,-405.5 658.5,-405.5"/>
<text text-anchor="middle" x="681.5" y="-412.5" font-family="Helvetica,sans-Serif" font-size="10.00">Logger</text>
</a>
</g>
</g>
<!-- Node7&#45;&gt;Node12 -->
<g id="edge9" class="edge"><title>Node7&#45;&gt;Node12</title>
<path fill="none" stroke="#9a32cd" stroke-dasharray="5,2" d="M427.032,-445.616C442.741,-437.697 463.442,-428.572 483,-424 545.167,-409.469 621.256,-411.303 658.22,-413.391"/>
<polygon fill="#9a32cd" stroke="#9a32cd" points="425.207,-442.62 417.95,-450.339 428.437,-448.83 425.207,-442.62"/>
<text text-anchor="middle" x="544" y="-438" font-family="Helvetica,sans-Serif" font-size="10.00"> TypeName</text>
<text text-anchor="middle" x="544" y="-427" font-family="Helvetica,sans-Serif" font-size="10.00">Name</text>
</g>
<!-- Node7&#45;&gt;Node19 -->
<g id="edge11" class="edge"><title>Node7&#45;&gt;Node19</title>
<path fill="none" stroke="#9a32cd" stroke-dasharray="5,2" d="M472.288,-471.165C521.023,-479.266 580.978,-490.286 605,-499 613.603,-502.121 614.428,-505.793 623,-509 730.19,-549.099 865.596,-569.039 926.176,-576.463"/>
<polygon fill="#9a32cd" stroke="#9a32cd" points="472.826,-467.707 462.39,-469.534 471.688,-474.614 472.826,-467.707"/>
<text text-anchor="middle" x="681.5" y="-547" font-family="Helvetica,sans-Serif" font-size="10.00"> FmtMultiLineMsgHeadline</text>
</g>
<!-- Node7&#45;&gt;Node19 -->
<g id="edge12" class="edge"><title>Node7&#45;&gt;Node19</title>
<path fill="none" stroke="#9a32cd" stroke-dasharray="5,2" d="M475.328,-455.975C559.702,-452.154 691.863,-448.641 740,-461 825.617,-482.981 913.906,-546.067 945.685,-570.33"/>
<polygon fill="#9a32cd" stroke="#9a32cd" points="475.112,-452.481 465.285,-456.442 475.436,-459.474 475.112,-452.481"/>
<text text-anchor="middle" x="681.5" y="-497" font-family="Helvetica,sans-Serif" font-size="10.00"> FmtMultiLinePostfix</text>
<text text-anchor="middle" x="681.5" y="-486" font-family="Helvetica,sans-Serif" font-size="10.00">MultiLineDelimiterRepl</text>
<text text-anchor="middle" x="681.5" y="-475" font-family="Helvetica,sans-Serif" font-size="10.00">FmtIndentString</text>
<text text-anchor="middle" x="681.5" y="-464" font-family="Helvetica,sans-Serif" font-size="10.00">FmtMultiLinePrefix</text>
</g>
<!-- Node22 -->
<g id="node17" class="node"><title>Node22</title>
<g id="a_node17"><a xlink:href="classaworx_1_1lox_1_1core_1_1textlogger_1_1MetaInfo.html" target="_top" xlink:title="MetaInfo">
<polygon fill="white" stroke="black" points="654,-697.5 654,-716.5 709,-716.5 709,-697.5 654,-697.5"/>
<text text-anchor="middle" x="681.5" y="-704.5" font-family="Helvetica,sans-Serif" font-size="10.00">MetaInfo</text>
</a>
</g>
</g>
<!-- Node7&#45;&gt;Node22 -->
<g id="edge13" class="edge"><title>Node7&#45;&gt;Node22</title>
<path fill="none" stroke="#9a32cd" stroke-dasharray="5,2" d="M410.699,-478.57C424.454,-505.552 449.658,-557.461 465,-604 476.546,-639.024 455.557,-660.365 483,-685 495.484,-696.206 603.004,-703.084 653.943,-705.741"/>
<polygon fill="#9a32cd" stroke="#9a32cd" points="413.724,-476.799 406.032,-469.513 407.501,-480.005 413.724,-476.799"/>
<text text-anchor="middle" x="544" y="-717" font-family="Helvetica,sans-Serif" font-size="10.00"> NoSourceFileInfo</text>
<text text-anchor="middle" x="544" y="-706" font-family="Helvetica,sans-Serif" font-size="10.00">NoMethodInfo</text>
</g>
<!-- Node7&#45;&gt;Node22 -->
<g id="edge14" class="edge"><title>Node7&#45;&gt;Node22</title>
<path fill="none" stroke="#9a32cd" stroke-dasharray="5,2" d="M413.571,-477.834C428.009,-496.826 453.537,-526.149 483,-541 532.003,-565.7 566.464,-520.932 605,-560 645.034,-600.586 586.781,-642.975 623,-687 630.588,-696.223 642.68,-701.201 653.822,-703.884"/>
<polygon fill="#9a32cd" stroke="#9a32cd" points="416.321,-475.666 407.574,-469.687 410.683,-479.815 416.321,-475.666"/>
<text text-anchor="middle" x="544" y="-673" font-family="Helvetica,sans-Serif" font-size="10.00"> TimeDiffHours</text>
<text text-anchor="middle" x="544" y="-662" font-family="Helvetica,sans-Serif" font-size="10.00">LogLevelError</text>
<text text-anchor="middle" x="544" y="-651" font-family="Helvetica,sans-Serif" font-size="10.00">TimeDiffMicros</text>
<text text-anchor="middle" x="544" y="-640" font-family="Helvetica,sans-Serif" font-size="10.00">LogLevelInfo</text>
<text text-anchor="middle" x="544" y="-629" font-family="Helvetica,sans-Serif" font-size="10.00">TimeElapsedDays</text>
<text text-anchor="middle" x="544" y="-618" font-family="Helvetica,sans-Serif" font-size="10.00">TimeOfDayFormat</text>
<text text-anchor="middle" x="544" y="-607" font-family="Helvetica,sans-Serif" font-size="10.00">DateFormat</text>
<text text-anchor="middle" x="544" y="-596" font-family="Helvetica,sans-Serif" font-size="10.00">TimeDiffMins</text>
<text text-anchor="middle" x="544" y="-585" font-family="Helvetica,sans-Serif" font-size="10.00">TimeDiffSecs</text>
<text text-anchor="middle" x="544" y="-574" font-family="Helvetica,sans-Serif" font-size="10.00">TimeDiffNone</text>
<text text-anchor="middle" x="544" y="-563" font-family="Helvetica,sans-Serif" font-size="10.00">...</text>
</g>
<!-- Node27 -->
<g id="node18" class="node"><title>Node27</title>
<g id="a_node18"><a xlink:href="classaworx_1_1lox_1_1core_1_1textlogger_1_1ObjectConverter.html" target="_top" xlink:title="ObjectConverter">
<polygon fill="white" stroke="black" points="637.5,-570.5 637.5,-589.5 725.5,-589.5 725.5,-570.5 637.5,-570.5"/>
<text text-anchor="middle" x="681.5" y="-577.5" font-family="Helvetica,sans-Serif" font-size="10.00">ObjectConverter</text>
</a>
</g>
</g>
<!-- Node7&#45;&gt;Node27 -->
<g id="edge15" class="edge"><title>Node7&#45;&gt;Node27</title>
<path fill="none" stroke="#9a32cd" stroke-dasharray="5,2" d="M428.529,-473.965C444.168,-481.417 464.304,-490.216 483,-496 535.713,-512.307 561.147,-485.512 605,-519 619.534,-530.099 609.703,-543.445 623,-556 629.528,-562.164 637.867,-566.854 646.157,-570.377"/>
<polygon fill="#9a32cd" stroke="#9a32cd" points="429.949,-470.764 419.426,-469.539 426.889,-477.059 429.949,-470.764"/>
<text text-anchor="middle" x="544" y="-533" font-family="Helvetica,sans-Serif" font-size="10.00"> FmtUnknownObject</text>
<text text-anchor="middle" x="544" y="-522" font-family="Helvetica,sans-Serif" font-size="10.00">FmtNullObject</text>
</g>
<!-- Node2 -->
<g id="node9" class="node"><title>Node2</title>
<g id="a_node9"><a xlink:href="classaworx_1_1lib_1_1ReportWriter.html" target="_top" xlink:title="ReportWriter">
<polygon fill="white" stroke="black" points="1099,-439.5 1099,-458.5 1171,-458.5 1171,-439.5 1099,-439.5"/>
<text text-anchor="middle" x="1135" y="-446.5" font-family="Helvetica,sans-Serif" font-size="10.00">ReportWriter</text>
</a>
</g>
</g>
<!-- Node2&#45;&gt;Node1 -->
<g id="edge1" class="edge"><title>Node2&#45;&gt;Node1</title>
<path fill="none" stroke="#9a32cd" stroke-dasharray="5,2" d="M1181.17,-451.592C1263.6,-456.321 1434.74,-466.141 1486.71,-469.123"/>
<polygon fill="#9a32cd" stroke="#9a32cd" points="1181.28,-448.092 1171.09,-451.014 1180.88,-455.081 1181.28,-448.092"/>
<text text-anchor="middle" x="1315.5" y="-465" font-family="Helvetica,sans-Serif" font-size="10.00"> OrigReportWriter</text>
</g>
<!-- Node28 -->
<g id="node10" class="node"><title>Node28</title>
<g id="a_node10"><a xlink:href="classaworx_1_1lox_1_1ALoxReportWriter.html" target="_top" xlink:title="ALoxReportWriter">
<polygon fill="white" stroke="black" points="1268,-414.5 1268,-433.5 1363,-433.5 1363,-414.5 1268,-414.5"/>
<text text-anchor="middle" x="1315.5" y="-421.5" font-family="Helvetica,sans-Serif" font-size="10.00">ALoxReportWriter</text>
</a>
</g>
</g>
<!-- Node2&#45;&gt;Node28 -->
<g id="edge2" class="edge"><title>Node2&#45;&gt;Node28</title>
<path fill="none" stroke="midnightblue" d="M1181.41,-442.641C1207.85,-438.936 1241.14,-434.275 1267.81,-430.54"/>
<polygon fill="midnightblue" stroke="midnightblue" points="1180.68,-439.208 1171.27,-444.061 1181.65,-446.14 1180.68,-439.208"/>
</g>
<!-- Node28&#45;&gt;Node1 -->
<g id="edge47" class="edge"><title>Node28&#45;&gt;Node1</title>
<path fill="none" stroke="#9a32cd" stroke-dasharray="5,2" d="M1373.27,-424.979C1402.77,-427.163 1438.85,-432.515 1469,-445 1477.63,-448.575 1486.01,-454.966 1492.16,-460.391"/>
<polygon fill="#9a32cd" stroke="#9a32cd" points="1373.34,-421.476 1363.13,-424.332 1372.89,-428.462 1373.34,-421.476"/>
<text text-anchor="middle" x="1425" y="-448" font-family="Helvetica,sans-Serif" font-size="10.00"> DebugReportWriter</text>
</g>
<!-- Node3&#45;&gt;Node1 -->
<g id="edge3" class="edge"><title>Node3&#45;&gt;Node1</title>
<path fill="none" stroke="#9a32cd" stroke-dasharray="5,2" d="M1161.15,-298.139C1221.59,-306.906 1376.76,-336.865 1469,-422 1481.19,-433.248 1491.3,-449.784 1497,-460.216"/>
<polygon fill="#9a32cd" stroke="#9a32cd" points="1161.39,-294.639 1151.01,-296.74 1160.44,-301.573 1161.39,-294.639"/>
<text text-anchor="middle" x="1315.5" y="-390" font-family="Helvetica,sans-Serif" font-size="10.00"> defaultRelLox</text>
<text text-anchor="middle" x="1315.5" y="-379" font-family="Helvetica,sans-Serif" font-size="10.00">defaultDbgLox</text>
<text text-anchor="middle" x="1315.5" y="-368" font-family="Helvetica,sans-Serif" font-size="10.00">relLox</text>
<text text-anchor="middle" x="1315.5" y="-357" font-family="Helvetica,sans-Serif" font-size="10.00">lox</text>
</g>
<!-- Node3&#45;&gt;Node28 -->
<g id="edge4" class="edge"><title>Node3&#45;&gt;Node28</title>
<path fill="none" stroke="#9a32cd" stroke-dasharray="5,2" d="M1157.6,-310.61C1194.86,-337.534 1270.15,-391.95 1300.93,-414.192"/>
<polygon fill="#9a32cd" stroke="#9a32cd" points="1159.57,-307.717 1149.42,-304.696 1155.47,-313.39 1159.57,-307.717"/>
<text text-anchor="middle" x="1219.5" y="-378" font-family="Helvetica,sans-Serif" font-size="10.00"> lox</text>
</g>
<!-- Node4 -->
<g id="node12" class="node"><title>Node4</title>
<g id="a_node12"><a xlink:href="classaworx_1_1lib_1_1threads_1_1ThreadLock.html" target="_top" xlink:title="ThreadLock">
<polygon fill="white" stroke="black" points="925,-347.5 925,-366.5 993,-366.5 993,-347.5 925,-347.5"/>
<text text-anchor="middle" x="959" y="-354.5" font-family="Helvetica,sans-Serif" font-size="10.00">ThreadLock</text>
</a>
</g>
</g>
<!-- Node4&#45;&gt;Node3 -->
<g id="edge5" class="edge"><title>Node4&#45;&gt;Node3</title>
<path fill="none" stroke="midnightblue" d="M1003.28,-352.391C1026.95,-348.814 1056.37,-342.605 1081,-332 1096.87,-325.165 1112.83,-313.164 1123.02,-304.686"/>
<polygon fill="midnightblue" stroke="midnightblue" points="1002.6,-348.952 993.185,-353.812 1003.58,-355.884 1002.6,-348.952"/>
</g>
<!-- Node5 -->
<g id="node13" class="node"><title>Node5</title>
<g id="a_node13"><a xlink:href="classaworx_1_1lib_1_1Ownable.html" target="_top" xlink:title="Ownable">
<polygon fill="white" stroke="black" points="654,-329.5 654,-348.5 709,-348.5 709,-329.5 654,-329.5"/>
<text text-anchor="middle" x="681.5" y="-336.5" font-family="Helvetica,sans-Serif" font-size="10.00">Ownable</text>
</a>
</g>
</g>
<!-- Node5&#45;&gt;Node4 -->
<g id="edge6" class="edge"><title>Node5&#45;&gt;Node4</title>
<path fill="none" stroke="midnightblue" d="M719.328,-341.406C773.335,-344.935 873.202,-351.46 924.963,-354.842"/>
<polygon fill="midnightblue" stroke="midnightblue" points="719.373,-337.902 709.166,-340.742 718.917,-344.887 719.373,-337.902"/>
</g>
<!-- Node6&#45;&gt;Node4 -->
<g id="edge7" class="edge"><title>Node6&#45;&gt;Node4</title>
<path fill="none" stroke="#9a32cd" stroke-dasharray="5,2" d="M715.2,-374.626C767.983,-370.794 871.407,-363.286 924.62,-359.423"/>
<polygon fill="#9a32cd" stroke="#9a32cd" points="714.766,-371.148 705.045,-375.363 715.273,-378.13 714.766,-371.148"/>
<text text-anchor="middle" x="819" y="-375" font-family="Helvetica,sans-Serif" font-size="10.00"> owner</text>
</g>
<!-- Node12&#45;&gt;Node11 -->
<g id="edge30" class="edge"><title>Node12&#45;&gt;Node11</title>
<path fill="none" stroke="#9a32cd" stroke-dasharray="5,2" d="M714.789,-413.197C728.16,-412.475 743.826,-411.659 758,-411 804.862,-408.821 857.917,-406.716 897.602,-405.212"/>
<polygon fill="#9a32cd" stroke="#9a32cd" points="714.425,-409.712 704.631,-413.752 714.807,-416.701 714.425,-409.712"/>
<text text-anchor="middle" x="819" y="-414" font-family="Helvetica,sans-Serif" font-size="10.00"> elements</text>
</g>
<!-- Node12&#45;&gt;Node19 -->
<g id="edge31" class="edge"><title>Node12&#45;&gt;Node19</title>
<path fill="none" stroke="midnightblue" d="M714.794,-419.233C767.272,-426.332 866.583,-440.764 880,-450 924.444,-480.595 947.726,-545.553 955.238,-570.22"/>
<polygon fill="midnightblue" stroke="midnightblue" points="715.035,-415.734 704.659,-417.874 714.105,-422.672 715.035,-415.734"/>
</g>
<!-- Node19&#45;&gt;Node1 -->
<g id="edge40" class="edge"><title>Node19&#45;&gt;Node1</title>
<path fill="none" stroke="#9a32cd" stroke-dasharray="5,2" d="M1001.54,-573.292C1088.75,-558.892 1297.06,-522.826 1469,-480 1474.93,-478.524 1481.37,-476.637 1486.97,-474.9"/>
<polygon fill="#9a32cd" stroke="#9a32cd" points="1000.82,-569.864 991.518,-574.94 1001.95,-576.771 1000.82,-569.864"/>
<text text-anchor="middle" x="1219.5" y="-543" font-family="Helvetica,sans-Serif" font-size="10.00"> DebugLogger</text>
</g>
<!-- Node22&#45;&gt;Node19 -->
<g id="edge43" class="edge"><title>Node22&#45;&gt;Node19</title>
<path fill="none" stroke="#9a32cd" stroke-dasharray="5,2" d="M719.122,-710.189C760.88,-712.098 829.841,-709.855 880,-681 918.216,-659.015 944.151,-610.179 953.805,-589.522"/>
<polygon fill="#9a32cd" stroke="#9a32cd" points="719.3,-706.694 709.12,-709.628 718.908,-713.683 719.3,-706.694"/>
<text text-anchor="middle" x="819" y="-714" font-family="Helvetica,sans-Serif" font-size="10.00"> MetaInfo</text>
</g>
<!-- Node27&#45;&gt;Node19 -->
<g id="edge46" class="edge"><title>Node27&#45;&gt;Node19</title>
<path fill="none" stroke="#9a32cd" stroke-dasharray="5,2" d="M735.731,-580C792.297,-580 879.856,-580 926.397,-580"/>
<polygon fill="#9a32cd" stroke="#9a32cd" points="735.547,-576.5 725.547,-580 735.547,-583.5 735.547,-576.5"/>
<text text-anchor="middle" x="819" y="-583" font-family="Helvetica,sans-Serif" font-size="10.00"> ObjectConverter</text>
</g>
<!-- Node8 -->
<g id="node19" class="node"><title>Node8</title>
<g id="a_node19"><a xlink:href="classaworx_1_1lib_1_1strings_1_1ASAlloc.html" target="_top" xlink:title="ASAlloc">
<polygon fill="white" stroke="black" points="190,-311.5 190,-330.5 242,-330.5 242,-311.5 190,-311.5"/>
<text text-anchor="middle" x="216" y="-318.5" font-family="Helvetica,sans-Serif" font-size="10.00">ASAlloc</text>
</a>
</g>
</g>
<!-- Node8&#45;&gt;Node15 -->
<g id="edge18" class="edge"><title>Node8&#45;&gt;Node15</title>
<path fill="none" stroke="#9a32cd" stroke-dasharray="5,2" d="M218.929,-301.249C222.502,-275.476 232.499,-230.649 260,-205 285.404,-181.307 300.668,-188.295 335,-183 485.657,-159.766 665.846,-164.482 757.696,-169.172"/>
<polygon fill="#9a32cd" stroke="#9a32cd" points="215.438,-300.971 217.73,-311.315 222.389,-301.8 215.438,-300.971"/>
<text text-anchor="middle" x="400" y="-197" font-family="Helvetica,sans-Serif" font-size="10.00"> keys</text>
<text text-anchor="middle" x="400" y="-186" font-family="Helvetica,sans-Serif" font-size="10.00">elements</text>
</g>
<!-- Node8&#45;&gt;Node16 -->
<g id="edge19" class="edge"><title>Node8&#45;&gt;Node16</title>
<path fill="none" stroke="#9a32cd" stroke-dasharray="5,2" d="M251.957,-310.073C275.329,-302.978 306.843,-293.818 335,-287 384.366,-275.046 440.951,-264.066 482.628,-256.483"/>
<polygon fill="#9a32cd" stroke="#9a32cd" points="250.691,-306.8 242.153,-313.072 252.739,-313.493 250.691,-306.8"/>
<text text-anchor="middle" x="288.5" y="-311" font-family="Helvetica,sans-Serif" font-size="10.00"> keys</text>
</g>
<!-- Node8&#45;&gt;Node26 -->
<g id="edge22" class="edge"><title>Node8&#45;&gt;Node26</title>
<path fill="none" stroke="#9a32cd" stroke-dasharray="5,2" d="M228.416,-339.235C237.035,-352.957 249.185,-372.207 260,-389 357.851,-540.93 340.624,-617.704 483,-729 486.043,-731.379 489.376,-733.5 492.862,-735.389"/>
<polygon fill="#9a32cd" stroke="#9a32cd" points="231.352,-337.328 223.073,-330.716 225.422,-341.048 231.352,-337.328"/>
<text text-anchor="middle" x="288.5" y="-491" font-family="Helvetica,sans-Serif" font-size="10.00"> elements</text>
</g>
<!-- Node8&#45;&gt;Node7 -->
<g id="edge17" class="edge"><title>Node8&#45;&gt;Node7</title>
<path fill="none" stroke="midnightblue" d="M237.809,-336.892C275.848,-365.944 355.53,-426.8 386.403,-450.379"/>
<polygon fill="midnightblue" stroke="midnightblue" points="239.581,-333.842 229.51,-330.554 235.333,-339.405 239.581,-333.842"/>
</g>
<!-- Node8&#45;&gt;Node3 -->
<g id="edge16" class="edge"><title>Node8&#45;&gt;Node3</title>
<path fill="none" stroke="#9a32cd" stroke-dasharray="5,2" d="M235.616,-305.002C242.92,-299.193 251.564,-292.867 260,-288 291.242,-269.976 300.432,-267.295 335,-257 567.52,-187.749 639.517,-193.917 880,-226 972.853,-238.387 1079.87,-275.182 1118.83,-289.351"/>
<polygon fill="#9a32cd" stroke="#9a32cd" points="233.254,-302.413 227.75,-311.466 237.698,-307.821 233.254,-302.413"/>
<text text-anchor="middle" x="681.5" y="-212" font-family="Helvetica,sans-Serif" font-size="10.00"> resDomain</text>
</g>
<!-- Node8&#45;&gt;Node19 -->
<g id="edge20" class="edge"><title>Node8&#45;&gt;Node19</title>
<path fill="none" stroke="#9a32cd" stroke-dasharray="5,2" d="M217.451,-341.035C220.089,-436.179 237.009,-840.383 335,-903 442.302,-971.566 789.714,-815.796 880,-726 921.974,-684.253 946.903,-615.155 955.039,-589.755"/>
<polygon fill="#9a32cd" stroke="#9a32cd" points="220.944,-340.698 217.191,-330.79 213.946,-340.875 220.944,-340.698"/>
<text text-anchor="middle" x="544" y="-937" font-family="Helvetica,sans-Serif" font-size="10.00"> logBuf</text>
<text text-anchor="middle" x="544" y="-926" font-family="Helvetica,sans-Serif" font-size="10.00">MultiLineDelimiter</text>
<text text-anchor="middle" x="544" y="-915" font-family="Helvetica,sans-Serif" font-size="10.00">msgBuf</text>
</g>
<!-- Node8&#45;&gt;Node22 -->
<g id="edge21" class="edge"><title>Node8&#45;&gt;Node22</title>
<path fill="none" stroke="#9a32cd" stroke-dasharray="5,2" d="M218.529,-340.726C225.608,-426.556 258.181,-766.173 335,-833 380.321,-872.426 553.373,-876.709 605,-846 654.092,-816.798 673.251,-743.288 678.71,-716.748"/>
<polygon fill="#9a32cd" stroke="#9a32cd" points="222.001,-340.238 217.712,-330.55 215.023,-340.798 222.001,-340.238"/>
<text text-anchor="middle" x="400" y="-891" font-family="Helvetica,sans-Serif" font-size="10.00"> Format</text>
<text text-anchor="start" x="347" y="-880" font-family="Helvetica,sans-Serif" font-size="10.00">ConsumableSourcePath</text>
<text text-anchor="middle" x="400" y="-869" font-family="Helvetica,sans-Serif" font-size="10.00">Prefix</text>
</g>
<!-- Node9 -->
<g id="node20" class="node"><title>Node9</title>
<g id="a_node20"><a xlink:href="classaworx_1_1lib_1_1strings_1_1ASTerminatable.html" target="_top" xlink:title="ASTerminatable">
<polygon fill="white" stroke="black" points="67,-113.5 67,-132.5 153,-132.5 153,-113.5 67,-113.5"/>
<text text-anchor="middle" x="110" y="-120.5" font-family="Helvetica,sans-Serif" font-size="10.00">ASTerminatable</text>
</a>
</g>
</g>
<!-- Node9&#45;&gt;Node3 -->
<g id="edge23" class="edge"><title>Node9&#45;&gt;Node3</title>
<path fill="none" stroke="#9a32cd" stroke-dasharray="5,2" d="M163.224,-122.968C330.887,-123.195 854.236,-126.552 1020,-159 1047.74,-164.43 1059.71,-158.408 1081,-177 1115.17,-206.837 1128.41,-263.057 1132.48,-285.447"/>
<polygon fill="#9a32cd" stroke="#9a32cd" points="163.171,-119.468 153.167,-122.958 163.164,-126.468 163.171,-119.468"/>
<text text-anchor="middle" x="544" y="-144" font-family="Helvetica,sans-Serif" font-size="10.00"> InternalDomain</text>
<text text-anchor="middle" x="544" y="-133" font-family="Helvetica,sans-Serif" font-size="10.00">NullDomain</text>
</g>
<!-- Node9&#45;&gt;Node8 -->
<g id="edge24" class="edge"><title>Node9&#45;&gt;Node8</title>
<path fill="none" stroke="midnightblue" d="M120.697,-141.462C142.209,-182.416 193.32,-279.724 209.789,-311.079"/>
<polygon fill="midnightblue" stroke="midnightblue" points="123.765,-139.775 116.016,-132.55 117.568,-143.031 123.765,-139.775"/>
</g>
<!-- Node9&#45;&gt;Node18 -->
<g id="edge25" class="edge"><title>Node9&#45;&gt;Node18</title>
<path fill="none" stroke="#9a32cd" stroke-dasharray="5,2" d="M123.633,-105.017C141.256,-82.2622 175.532,-46 215,-46 215,-46 215,-46 682.5,-46 773.665,-46 879.51,-70.8081 929.308,-83.9874"/>
<polygon fill="#9a32cd" stroke="#9a32cd" points="120.673,-103.132 117.523,-113.248 126.294,-107.305 120.673,-103.132"/>
<text text-anchor="middle" x="400" y="-60" font-family="Helvetica,sans-Serif" font-size="10.00"> MethodName</text>
<text text-anchor="middle" x="400" y="-49" font-family="Helvetica,sans-Serif" font-size="10.00">SourceFileName</text>
</g>
<!-- Node18&#45;&gt;Node3 -->
<g id="edge39" class="edge"><title>Node18&#45;&gt;Node3</title>
<path fill="none" stroke="#9a32cd" stroke-dasharray="5,2" d="M998.683,-86.1469C1024.87,-84.433 1058.63,-86.9166 1081,-106 1109.26,-130.108 1127.82,-250.212 1132.71,-285.337"/>
<polygon fill="#9a32cd" stroke="#9a32cd" points="998.357,-82.6619 988.701,-87.0223 998.969,-89.6351 998.357,-82.6619"/>
<text text-anchor="middle" x="1059.5" y="-109" font-family="Helvetica,sans-Serif" font-size="10.00"> callerInfo</text>
</g>
<!-- Node10 -->
<g id="node22" class="node"><title>Node10</title>
<g id="a_node22"><a xlink:href="classaworx_1_1lib_1_1strings_1_1AS.html" target="_top" xlink:title="AS">
<polygon fill="white" stroke="black" points="0,-113.5 0,-132.5 30,-132.5 30,-113.5 0,-113.5"/>
<text text-anchor="middle" x="15" y="-120.5" font-family="Helvetica,sans-Serif" font-size="10.00">AS</text>
</a>
</g>
</g>
<!-- Node10&#45;&gt;Node1 -->
<g id="edge26" class="edge"><title>Node10&#45;&gt;Node1</title>
<path fill="none" stroke="#9a32cd" stroke-dasharray="5,2" d="M16.0345,-142.692C16.5093,-269.784 23.028,-969 109,-969 109,-969 109,-969 1316.5,-969 1425.1,-969 1490.63,-548.509 1500.65,-479.523"/>
<polygon fill="#9a32cd" stroke="#9a32cd" points="19.5341,-142.491 16.0055,-132.501 12.5341,-142.511 19.5341,-142.491"/>
<text text-anchor="middle" x="681.5" y="-972" font-family="Helvetica,sans-Serif" font-size="10.00"> ConfigCategoryName</text>
</g>
<!-- Node10&#45;&gt;Node9 -->
<g id="edge27" class="edge"><title>Node10&#45;&gt;Node9</title>
<path fill="none" stroke="midnightblue" d="M40.3631,-123C48.5052,-123 57.8283,-123 66.9237,-123"/>
<polygon fill="midnightblue" stroke="midnightblue" points="40.1247,-119.5 30.1247,-123 40.1247,-126.5 40.1247,-119.5"/>
</g>
<!-- Node10&#45;&gt;Node18 -->
<g id="edge28" class="edge"><title>Node10&#45;&gt;Node18</title>
<path fill="none" stroke="#9a32cd" stroke-dasharray="5,2" d="M21.0052,-103.4C31.1826,-68.6817 57.7878,-0 109,-0 109,-0 109,-0 682.5,-0 772.729,-0 796.156,-13.6618 880,-47 903.825,-56.4733 929.135,-72.2769 944.25,-82.4123"/>
<polygon fill="#9a32cd" stroke="#9a32cd" points="17.5463,-102.778 18.2678,-113.348 24.2954,-104.635 17.5463,-102.778"/>
<text text-anchor="middle" x="288.5" y="-3" font-family="Helvetica,sans-Serif" font-size="10.00"> threadName</text>
</g>
<!-- Node14 -->
<g id="node23" class="node"><title>Node14</title>
<g id="a_node23"><a xlink:href="classaworx_1_1lib_1_1time_1_1Ticks.html" target="_top" xlink:title="Ticks">
<polygon fill="white" stroke="black" points="379.5,-296.5 379.5,-315.5 420.5,-315.5 420.5,-296.5 379.5,-296.5"/>
<text text-anchor="middle" x="400" y="-303.5" font-family="Helvetica,sans-Serif" font-size="10.00">Ticks</text>
</a>
</g>
</g>
<!-- Node14&#45;&gt;Node12 -->
<g id="edge32" class="edge"><title>Node14&#45;&gt;Node12</title>
<path fill="none" stroke="#9a32cd" stroke-dasharray="5,2" d="M430.959,-302.382C481.175,-297.012 579.36,-289.696 605,-311 634.701,-335.679 597.244,-367.229 623,-396 631.976,-406.027 646.351,-410.777 658.482,-413.02"/>
<polygon fill="#9a32cd" stroke="#9a32cd" points="430.279,-298.936 420.728,-303.521 431.054,-305.893 430.279,-298.936"/>
<text text-anchor="middle" x="544" y="-325" font-family="Helvetica,sans-Serif" font-size="10.00"> TimeOfLastLog</text>
<text text-anchor="middle" x="544" y="-314" font-family="Helvetica,sans-Serif" font-size="10.00">TimeOfCreation</text>
</g>
<!-- Node14&#45;&gt;Node18 -->
<g id="edge34" class="edge"><title>Node14&#45;&gt;Node18</title>
<path fill="none" stroke="#9a32cd" stroke-dasharray="5,2" d="M430.405,-300.668C485.379,-290.579 598.775,-269.157 605,-263 631.219,-237.066 597.752,-208.88 623,-182 705.668,-93.9916 864.336,-88.6335 929.248,-90.4467"/>
<polygon fill="#9a32cd" stroke="#9a32cd" points="429.755,-297.228 420.548,-302.47 431.014,-304.114 429.755,-297.228"/>
<text text-anchor="middle" x="681.5" y="-185" font-family="Helvetica,sans-Serif" font-size="10.00"> TimeStamp</text>
</g>
<!-- Node14&#45;&gt;Node14 -->
<g id="edge33" class="edge"><title>Node14&#45;&gt;Node14</title>
<path fill="none" stroke="#9a32cd" stroke-dasharray="5,2" d="M379.631,-325.4C380.991,-330.315 387.781,-334 400,-334 419.551,-334 425.202,-324.565 416.954,-315.757"/>
<polygon fill="#9a32cd" stroke="#9a32cd" points="383.007,-326.352 383.046,-315.757 376.408,-324.015 383.007,-326.352"/>
<text text-anchor="middle" x="400" y="-337" font-family="Helvetica,sans-Serif" font-size="10.00"> creationTime</text>
</g>
<!-- Node20&#45;&gt;Node19 -->
<g id="edge41" class="edge"><title>Node20&#45;&gt;Node19</title>
<path fill="none" stroke="#9a32cd" stroke-dasharray="5,2" d="M722.742,-668.9C763.852,-668.423 828.747,-663.745 880,-642 908.664,-629.839 935.581,-604.127 949.037,-589.933"/>
<polygon fill="#9a32cd" stroke="#9a32cd" points="722.558,-665.401 712.571,-668.938 722.584,-672.401 722.558,-665.401"/>
<text text-anchor="middle" x="819" y="-671" font-family="Helvetica,sans-Serif" font-size="10.00"> AutoSizes</text>
</g>
<!-- Node24 -->
<g id="node25" class="node"><title>Node24</title>
<g id="a_node25"><a xlink:href="classaworx_1_1lib_1_1time_1_1TicksCalendarTime.html" target="_top" xlink:title="TicksCalendarTime">
<polygon fill="white" stroke="black" points="349.5,-804.5 349.5,-823.5 450.5,-823.5 450.5,-804.5 349.5,-804.5"/>
<text text-anchor="middle" x="400" y="-811.5" font-family="Helvetica,sans-Serif" font-size="10.00">TicksCalendarTime</text>
</a>
</g>
</g>
<!-- Node24&#45;&gt;Node22 -->
<g id="edge44" class="edge"><title>Node24&#45;&gt;Node22</title>
<path fill="none" stroke="#9a32cd" stroke-dasharray="5,2" d="M449.953,-825.378C493.246,-832.785 556.831,-836.992 605,-812 645.059,-791.216 668.756,-738.34 677.09,-716.579"/>
<polygon fill="#9a32cd" stroke="#9a32cd" points="450.417,-821.905 439.951,-823.548 449.158,-828.79 450.417,-821.905"/>
<text text-anchor="middle" x="544" y="-835" font-family="Helvetica,sans-Serif" font-size="10.00"> callerDateTime</text>
</g>
</g>
</svg>
