<?xml version="1.0" encoding="UTF-8" standalone="no"?>
<!DOCTYPE svg PUBLIC "-//W3C//DTD SVG 1.1//EN"
 "http://www.w3.org/Graphics/SVG/1.1/DTD/svg11.dtd">
<!-- Generated by graphviz version 2.38.0 (20140413.2041)
 -->
<!-- Title: ScopeInfo Pages: 1 -->
<svg width="1048pt" height="416pt"
 viewBox="0.00 0.00 1048.00 416.00" xmlns="http://www.w3.org/2000/svg" xmlns:xlink="http://www.w3.org/1999/xlink">
<g id="graph0" class="graph" transform="scale(1 1) rotate(0) translate(4 412)">
<title>ScopeInfo</title>
<polygon fill="white" stroke="none" points="-4,4 -4,-412 1044,-412 1044,4 -4,4"/>
<!-- Node1 -->
<g id="node1" class="node"><title>Node1</title>
<polygon fill="#bfbfbf" stroke="black" points="944,-224.5 944,-243.5 1005,-243.5 1005,-224.5 944,-224.5"/>
<text text-anchor="middle" x="974.5" y="-231.5" font-family="Helvetica,sans-Serif" font-size="10.00">ScopeInfo</text>
</g>
<!-- Node2 -->
<g id="node2" class="node"><title>Node2</title>
<g id="a_node2"><a xlink:title="STL class. ">
<polygon fill="white" stroke="#bfbfbf" points="666.5,-310.5 666.5,-329.5 732.5,-329.5 732.5,-310.5 666.5,-310.5"/>
<text text-anchor="middle" x="699.5" y="-317.5" font-family="Helvetica,sans-Serif" font-size="10.00">map&lt;K, T&gt;</text>
</a>
</g>
</g>
<!-- Node2&#45;&gt;Node1 -->
<g id="edge1" class="edge"><title>Node2&#45;&gt;Node1</title>
<path fill="none" stroke="#9a32cd" stroke-dasharray="5,2" d="M743.192,-313.325C760.379,-310.213 780.287,-306.066 798,-301 854.912,-284.723 919.341,-257.848 952.021,-243.585"/>
<polygon fill="#9a32cd" stroke="#9a32cd" points="742.134,-309.957 732.887,-315.128 743.34,-316.852 742.134,-309.957"/>
<text text-anchor="middle" x="853.5" y="-298" font-family="Helvetica,sans-Serif" font-size="10.00"> threadDictionary</text>
</g>
<!-- Node9 -->
<g id="node3" class="node"><title>Node9</title>
<polygon fill="white" stroke="#bfbfbf" points="601,-205.5 601,-224.5 798,-224.5 798,-205.5 601,-205.5"/>
<text text-anchor="middle" x="699.5" y="-212.5" font-family="Helvetica,sans-Serif" font-size="10.00">vector&lt;ScopeInfo::SourcePathTrimRule&gt;</text>
</g>
<!-- Node9&#45;&gt;Node1 -->
<g id="edge13" class="edge"><title>Node9&#45;&gt;Node1</title>
<path fill="none" stroke="#9a32cd" stroke-dasharray="5,2" d="M808.429,-209.782C835.465,-209.751 864.356,-210.816 891,-214 908.707,-216.116 928.106,-220.699 943.642,-224.946"/>
<polygon fill="#9a32cd" stroke="#9a32cd" points="808.144,-206.283 798.166,-209.845 808.187,-213.283 808.144,-206.283"/>
<text text-anchor="middle" x="853.5" y="-228" font-family="Helvetica,sans-Serif" font-size="10.00"> GlobalSPTRs</text>
<text text-anchor="middle" x="853.5" y="-217" font-family="Helvetica,sans-Serif" font-size="10.00">LocalSPTRs</text>
</g>
<!-- Node16 -->
<g id="node4" class="node"><title>Node16</title>
<polygon fill="white" stroke="#bfbfbf" points="909,-37.5 909,-56.5 1040,-56.5 1040,-37.5 909,-37.5"/>
<text text-anchor="middle" x="974.5" y="-44.5" font-family="Helvetica,sans-Serif" font-size="10.00">map&lt;thread::id, Thread *&gt;</text>
</g>
<!-- Node13 -->
<g id="node14" class="node"><title>Node13</title>
<g id="a_node14"><a xlink:href="classaworx_1_1lib_1_1threads_1_1Thread.html" target="_top" xlink:title="Thread">
<polygon fill="white" stroke="black" points="676,-52.5 676,-71.5 723,-71.5 723,-52.5 676,-52.5"/>
<text text-anchor="middle" x="699.5" y="-59.5" font-family="Helvetica,sans-Serif" font-size="10.00">Thread</text>
</a>
</g>
</g>
<!-- Node16&#45;&gt;Node13 -->
<g id="edge23" class="edge"><title>Node16&#45;&gt;Node13</title>
<path fill="none" stroke="#9a32cd" stroke-dasharray="5,2" d="M898.666,-37.5301C896.081,-37.3303 893.52,-37.1522 891,-37 857.727,-34.9908 849.144,-33.454 816,-37 783.36,-40.492 746.403,-49.3847 723.275,-55.563"/>
<polygon fill="#9a32cd" stroke="#9a32cd" points="898.452,-41.0245 908.716,-38.3991 899.055,-34.0505 898.452,-41.0245"/>
<text text-anchor="middle" x="853.5" y="-40" font-family="Helvetica,sans-Serif" font-size="10.00"> threadMap</text>
</g>
<!-- Node12 -->
<g id="node5" class="node"><title>Node12</title>
<g id="a_node5"><a xlink:href="classaworx_1_1lib_1_1strings_1_1PreallocatedString.html" target="_top" xlink:title="PreallocatedString\&lt;TCapacity\&gt;">
<polygon fill="white" stroke="black" points="363,-166.5 363,-185.5 516,-185.5 516,-166.5 363,-166.5"/>
<text text-anchor="middle" x="439.5" y="-173.5" font-family="Helvetica,sans-Serif" font-size="10.00">PreallocatedString&lt;TCapacity&gt;</text>
</a>
</g>
</g>
<!-- Node12&#45;&gt;Node1 -->
<g id="edge17" class="edge"><title>Node12&#45;&gt;Node1</title>
<path fill="none" stroke="#9a32cd" stroke-dasharray="5,2" d="M526.132,-173.688C598.756,-172.793 705.557,-173.994 798,-185 839.982,-189.998 850.309,-193.522 891,-205 910.726,-210.564 932.59,-218.324 948.851,-224.417"/>
<polygon fill="#9a32cd" stroke="#9a32cd" points="526.067,-170.188 516.117,-173.827 526.164,-177.187 526.067,-170.188"/>
<text text-anchor="middle" x="699.5" y="-188" font-family="Helvetica,sans-Serif" font-size="10.00"> loxName</text>
</g>
<!-- Node12&#45;&gt;Node13 -->
<g id="edge18" class="edge"><title>Node12&#45;&gt;Node13</title>
<path fill="none" stroke="#9a32cd" stroke-dasharray="5,2" d="M455.681,-158.921C472.857,-140.706 502.557,-112.406 534,-97 581.065,-73.9397 643.004,-66.0104 675.819,-63.3306"/>
<polygon fill="#9a32cd" stroke="#9a32cd" points="452.905,-156.768 448.71,-166.497 458.056,-161.508 452.905,-156.768"/>
<text text-anchor="middle" x="558.5" y="-100" font-family="Helvetica,sans-Serif" font-size="10.00"> name</text>
</g>
<!-- Node3 -->
<g id="node6" class="node"><title>Node3</title>
<polygon fill="white" stroke="#bfbfbf" points="425,-264.5 425,-283.5 454,-283.5 454,-264.5 425,-264.5"/>
<text text-anchor="middle" x="439.5" y="-271.5" font-family="Helvetica,sans-Serif" font-size="10.00">K</text>
</g>
<!-- Node3&#45;&gt;Node2 -->
<g id="edge2" class="edge"><title>Node3&#45;&gt;Node2</title>
<path fill="none" stroke="#9a32cd" stroke-dasharray="5,2" d="M464.014,-278.192C510.418,-286.466 613.826,-304.903 666.432,-314.282"/>
<polygon fill="#9a32cd" stroke="#9a32cd" points="464.467,-274.718 454.008,-276.408 463.238,-281.609 464.467,-274.718"/>
<text text-anchor="middle" x="558.5" y="-301" font-family="Helvetica,sans-Serif" font-size="10.00"> keys</text>
</g>
<!-- Node4 -->
<g id="node7" class="node"><title>Node4</title>
<polygon fill="white" stroke="#bfbfbf" points="425,-302.5 425,-321.5 454,-321.5 454,-302.5 425,-302.5"/>
<text text-anchor="middle" x="439.5" y="-309.5" font-family="Helvetica,sans-Serif" font-size="10.00">T</text>
</g>
<!-- Node4&#45;&gt;Node2 -->
<g id="edge3" class="edge"><title>Node4&#45;&gt;Node2</title>
<path fill="none" stroke="#9a32cd" stroke-dasharray="5,2" d="M464.014,-312.729C510.418,-314.168 613.826,-317.374 666.432,-319.006"/>
<polygon fill="#9a32cd" stroke="#9a32cd" points="464.112,-309.231 454.008,-312.419 463.895,-316.227 464.112,-309.231"/>
<text text-anchor="middle" x="558.5" y="-319" font-family="Helvetica,sans-Serif" font-size="10.00"> elements</text>
</g>
<!-- Node5 -->
<g id="node8" class="node"><title>Node5</title>
<g id="a_node8"><a xlink:href="classaworx_1_1lib_1_1strings_1_1String.html" target="_top" xlink:title="String">
<polygon fill="white" stroke="black" points="0,-222.5 0,-241.5 42,-241.5 42,-222.5 0,-222.5"/>
<text text-anchor="middle" x="21" y="-229.5" font-family="Helvetica,sans-Serif" font-size="10.00">String</text>
</a>
</g>
</g>
<!-- Node5&#45;&gt;Node1 -->
<g id="edge4" class="edge"><title>Node5&#45;&gt;Node1</title>
<path fill="none" stroke="#9a32cd" stroke-dasharray="5,2" d="M23.0917,-251.875C26.6814,-295.744 41.9577,-397 106.5,-397 106.5,-397 106.5,-397 700.5,-397 788.749,-397 819.066,-392.122 891,-341 929.049,-313.959 957.796,-264.302 968.71,-243.53"/>
<polygon fill="#9a32cd" stroke="#9a32cd" points="26.5784,-251.561 22.3951,-241.827 19.5952,-252.046 26.5784,-251.561"/>
<text text-anchor="middle" x="316.5" y="-400" font-family="Helvetica,sans-Serif" font-size="10.00"> threadName</text>
</g>
<!-- Node6 -->
<g id="node9" class="node"><title>Node6</title>
<g id="a_node9"><a xlink:href="classaworx_1_1lib_1_1strings_1_1TString.html" target="_top" xlink:title="TString">
<polygon fill="white" stroke="black" points="83.5,-222.5 83.5,-241.5 131.5,-241.5 131.5,-222.5 83.5,-222.5"/>
<text text-anchor="middle" x="107.5" y="-229.5" font-family="Helvetica,sans-Serif" font-size="10.00">TString</text>
</a>
</g>
</g>
<!-- Node5&#45;&gt;Node6 -->
<g id="edge5" class="edge"><title>Node5&#45;&gt;Node6</title>
<path fill="none" stroke="midnightblue" d="M52.2117,-232C62.4525,-232 73.7228,-232 83.3279,-232"/>
<polygon fill="midnightblue" stroke="midnightblue" points="52.0254,-228.5 42.0253,-232 52.0253,-235.5 52.0254,-228.5"/>
</g>
<!-- Node7 -->
<g id="node10" class="node"><title>Node7</title>
<g id="a_node10"><a xlink:href="structaworx_1_1lox_1_1core_1_1ScopeInfo_1_1SourceFile.html" target="_top" xlink:title="SourceFile">
<polygon fill="white" stroke="black" points="207,-150.5 207,-169.5 270,-169.5 270,-150.5 207,-150.5"/>
<text text-anchor="middle" x="238.5" y="-157.5" font-family="Helvetica,sans-Serif" font-size="10.00">SourceFile</text>
</a>
</g>
</g>
<!-- Node5&#45;&gt;Node7 -->
<g id="edge6" class="edge"><title>Node5&#45;&gt;Node7</title>
<path fill="none" stroke="#9a32cd" stroke-dasharray="5,2" d="M32.8159,-213.664C42.7466,-198.725 58.9443,-178.59 79,-169 119.903,-149.441 173.685,-151.302 206.905,-155.131"/>
<polygon fill="#9a32cd" stroke="#9a32cd" points="29.8361,-211.828 27.464,-222.154 35.7576,-215.561 29.8361,-211.828"/>
<text text-anchor="middle" x="107.5" y="-205" font-family="Helvetica,sans-Serif" font-size="10.00"> fullPath</text>
<text text-anchor="middle" x="107.5" y="-194" font-family="Helvetica,sans-Serif" font-size="10.00">nameWOExt</text>
<text text-anchor="middle" x="107.5" y="-183" font-family="Helvetica,sans-Serif" font-size="10.00">name</text>
<text text-anchor="middle" x="107.5" y="-172" font-family="Helvetica,sans-Serif" font-size="10.00">trimmedPath</text>
</g>
<!-- Node6&#45;&gt;Node1 -->
<g id="edge7" class="edge"><title>Node6&#45;&gt;Node1</title>
<path fill="none" stroke="#9a32cd" stroke-dasharray="5,2" d="M117.127,-251.162C134.462,-286.42 177.093,-358 237.5,-358 237.5,-358 237.5,-358 700.5,-358 787.813,-358 815.374,-353.637 891,-310 922.542,-291.8 952.024,-259.637 965.625,-243.621"/>
<polygon fill="#9a32cd" stroke="#9a32cd" points="120.18,-249.431 112.741,-241.887 113.852,-252.423 120.18,-249.431"/>
<text text-anchor="middle" x="439.5" y="-361" font-family="Helvetica,sans-Serif" font-size="10.00"> origMethod</text>
</g>
<!-- Node6&#45;&gt;Node7 -->
<g id="edge8" class="edge"><title>Node6&#45;&gt;Node7</title>
<path fill="none" stroke="#9a32cd" stroke-dasharray="5,2" d="M134.297,-217.166C140.722,-213.497 147.603,-209.589 154,-206 176.661,-193.285 202.932,-178.864 219.863,-169.612"/>
<polygon fill="#9a32cd" stroke="#9a32cd" points="132.258,-214.3 125.319,-222.306 135.736,-220.375 132.258,-214.3"/>
<text text-anchor="middle" x="171.5" y="-209" font-family="Helvetica,sans-Serif" font-size="10.00"> origFile</text>
</g>
<!-- Node11 -->
<g id="node11" class="node"><title>Node11</title>
<g id="a_node11"><a xlink:href="classaworx_1_1lib_1_1strings_1_1AString.html" target="_top" xlink:title="AString">
<polygon fill="white" stroke="black" points="214,-205.5 214,-224.5 263,-224.5 263,-205.5 214,-205.5"/>
<text text-anchor="middle" x="238.5" y="-212.5" font-family="Helvetica,sans-Serif" font-size="10.00">AString</text>
</a>
</g>
</g>
<!-- Node6&#45;&gt;Node11 -->
<g id="edge9" class="edge"><title>Node6&#45;&gt;Node11</title>
<path fill="none" stroke="midnightblue" d="M141.707,-227.624C164.256,-224.652 193.54,-220.793 213.764,-218.128"/>
<polygon fill="midnightblue" stroke="midnightblue" points="141.02,-224.184 131.563,-228.961 141.934,-231.124 141.02,-224.184"/>
</g>
<!-- Node7&#45;&gt;Node1 -->
<g id="edge10" class="edge"><title>Node7&#45;&gt;Node1</title>
<path fill="none" stroke="#9a32cd" stroke-dasharray="5,2" d="M280.016,-157.645C336.776,-154.476 443.204,-149.003 534,-147 651.711,-144.403 681.189,-154.24 798,-169 839.469,-174.24 851.757,-168.606 891,-183 918.191,-192.973 946.086,-212.567 961.464,-224.352"/>
<polygon fill="#9a32cd" stroke="#9a32cd" points="279.798,-154.152 270.01,-158.209 280.191,-161.141 279.798,-154.152"/>
<text text-anchor="middle" x="558.5" y="-161" font-family="Helvetica,sans-Serif" font-size="10.00"> cache</text>
<text text-anchor="middle" x="558.5" y="-150" font-family="Helvetica,sans-Serif" font-size="10.00">actual</text>
</g>
<!-- Node11&#45;&gt;Node12 -->
<g id="edge16" class="edge"><title>Node11&#45;&gt;Node12</title>
<path fill="none" stroke="midnightblue" d="M273.295,-208.377C305.305,-202.104 353.723,-192.615 389.879,-185.529"/>
<polygon fill="midnightblue" stroke="midnightblue" points="272.25,-205.015 263.109,-210.373 273.596,-211.884 272.25,-205.015"/>
</g>
<!-- Node10 -->
<g id="node13" class="node"><title>Node10</title>
<g id="a_node13"><a xlink:href="structaworx_1_1lox_1_1core_1_1ScopeInfo_1_1SourcePathTrimRule.html" target="_top" xlink:title="SourcePathTrimRule">
<polygon fill="white" stroke="black" points="386,-205.5 386,-224.5 493,-224.5 493,-205.5 386,-205.5"/>
<text text-anchor="middle" x="439.5" y="-212.5" font-family="Helvetica,sans-Serif" font-size="10.00">SourcePathTrimRule</text>
</a>
</g>
</g>
<!-- Node11&#45;&gt;Node10 -->
<g id="edge15" class="edge"><title>Node11&#45;&gt;Node10</title>
<path fill="none" stroke="#9a32cd" stroke-dasharray="5,2" d="M273.339,-215C304.169,-215 350.194,-215 385.833,-215"/>
<polygon fill="#9a32cd" stroke="#9a32cd" points="273.109,-211.5 263.109,-215 273.109,-218.5 273.109,-211.5"/>
<text text-anchor="middle" x="316.5" y="-218" font-family="Helvetica,sans-Serif" font-size="10.00"> Path</text>
</g>
<!-- Node8 -->
<g id="node12" class="node"><title>Node8</title>
<g id="a_node12"><a xlink:href="classaworx_1_1lib_1_1time_1_1Ticks.html" target="_top" xlink:title="Ticks">
<polygon fill="white" stroke="black" points="679,-243.5 679,-262.5 720,-262.5 720,-243.5 679,-243.5"/>
<text text-anchor="middle" x="699.5" y="-250.5" font-family="Helvetica,sans-Serif" font-size="10.00">Ticks</text>
</a>
</g>
</g>
<!-- Node8&#45;&gt;Node1 -->
<g id="edge11" class="edge"><title>Node8&#45;&gt;Node1</title>
<path fill="none" stroke="#9a32cd" stroke-dasharray="5,2" d="M730.13,-250.938C782.534,-247.291 890.992,-239.742 943.593,-236.081"/>
<polygon fill="#9a32cd" stroke="#9a32cd" points="729.866,-247.448 720.133,-251.634 730.352,-254.431 729.866,-247.448"/>
<text text-anchor="middle" x="853.5" y="-247" font-family="Helvetica,sans-Serif" font-size="10.00"> timeStamp</text>
</g>
<!-- Node8&#45;&gt;Node8 -->
<g id="edge12" class="edge"><title>Node8&#45;&gt;Node8</title>
<path fill="none" stroke="#9a32cd" stroke-dasharray="5,2" d="M673.265,-270.912C673.669,-276.552 682.414,-281 699.5,-281 724.93,-281 731.883,-271.146 720.36,-262.177"/>
<polygon fill="#9a32cd" stroke="#9a32cd" points="676.38,-272.528 678.64,-262.177 670.418,-268.86 676.38,-272.528"/>
<text text-anchor="middle" x="699.5" y="-284" font-family="Helvetica,sans-Serif" font-size="10.00"> creationTime</text>
</g>
<!-- Node10&#45;&gt;Node9 -->
<g id="edge14" class="edge"><title>Node10&#45;&gt;Node9</title>
<path fill="none" stroke="#9a32cd" stroke-dasharray="5,2" d="M503.127,-215C532.484,-215 568.144,-215 600.922,-215"/>
<polygon fill="#9a32cd" stroke="#9a32cd" points="503.021,-211.5 493.021,-215 503.021,-218.5 503.021,-211.5"/>
<text text-anchor="middle" x="558.5" y="-218" font-family="Helvetica,sans-Serif" font-size="10.00"> elements</text>
</g>
<!-- Node13&#45;&gt;Node1 -->
<g id="edge19" class="edge"><title>Node13&#45;&gt;Node1</title>
<path fill="none" stroke="#9a32cd" stroke-dasharray="5,2" d="M733.393,-62.0401C773.954,-63.6368 843.359,-71.5674 891,-105 935.609,-136.305 961.677,-200.194 970.293,-224.408"/>
<polygon fill="#9a32cd" stroke="#9a32cd" points="733.343,-58.5373 723.247,-61.7501 733.143,-65.5344 733.343,-58.5373"/>
<text text-anchor="middle" x="853.5" y="-108" font-family="Helvetica,sans-Serif" font-size="10.00"> thread</text>
</g>
<!-- Node13&#45;&gt;Node16 -->
<g id="edge20" class="edge"><title>Node13&#45;&gt;Node16</title>
<path fill="none" stroke="#9a32cd" stroke-dasharray="5,2" d="M733.558,-60.1836C776.86,-57.8044 853.739,-53.5803 908.812,-50.5543"/>
<polygon fill="#9a32cd" stroke="#9a32cd" points="733.099,-56.7035 723.306,-60.7469 733.483,-63.6929 733.099,-56.7035"/>
<text text-anchor="middle" x="853.5" y="-59" font-family="Helvetica,sans-Serif" font-size="10.00"> elements</text>
</g>
<!-- Node14 -->
<g id="node15" class="node"><title>Node14</title>
<g id="a_node15"><a xlink:href="classaworx_1_1lib_1_1threads_1_1Runnable.html" target="_top" xlink:title="Runnable">
<polygon fill="white" stroke="black" points="410.5,-0.5 410.5,-19.5 468.5,-19.5 468.5,-0.5 410.5,-0.5"/>
<text text-anchor="middle" x="439.5" y="-7.5" font-family="Helvetica,sans-Serif" font-size="10.00">Runnable</text>
</a>
</g>
</g>
<!-- Node14&#45;&gt;Node13 -->
<g id="edge21" class="edge"><title>Node14&#45;&gt;Node13</title>
<path fill="none" stroke="midnightblue" d="M478.843,-5.19423C507.803,-2.65205 548.342,-1.42785 583,-9 621.151,-17.3353 661.76,-39.4807 683.191,-52.3548"/>
<polygon fill="midnightblue" stroke="midnightblue" points="478.345,-1.72606 468.73,-6.1766 479.022,-8.69326 478.345,-1.72606"/>
</g>
<!-- Node14&#45;&gt;Node13 -->
<g id="edge22" class="edge"><title>Node14&#45;&gt;Node13</title>
<path fill="none" stroke="#9a32cd" stroke-dasharray="5,2" d="M478.548,-17.6687C532.961,-28.6356 631.321,-48.46 675.694,-57.4035"/>
<polygon fill="#9a32cd" stroke="#9a32cd" points="479.096,-14.2087 468.602,-15.6639 477.713,-21.0708 479.096,-14.2087"/>
<text text-anchor="middle" x="558.5" y="-41" font-family="Helvetica,sans-Serif" font-size="10.00"> runnable</text>
</g>
<!-- Node17 -->
<g id="node16" class="node"><title>Node17</title>
<g id="a_node16"><a xlink:title="STL class. ">
<polygon fill="white" stroke="#bfbfbf" points="417.5,-52.5 417.5,-71.5 461.5,-71.5 461.5,-52.5 417.5,-52.5"/>
<text text-anchor="middle" x="439.5" y="-59.5" font-family="Helvetica,sans-Serif" font-size="10.00">thread</text>
</a>
</g>
</g>
<!-- Node17&#45;&gt;Node13 -->
<g id="edge24" class="edge"><title>Node17&#45;&gt;Node13</title>
<path fill="none" stroke="#9a32cd" stroke-dasharray="5,2" d="M471.722,-62C524.438,-62 629.85,-62 675.994,-62"/>
<polygon fill="#9a32cd" stroke="#9a32cd" points="471.613,-58.5001 461.613,-62 471.613,-65.5001 471.613,-58.5001"/>
<text text-anchor="middle" x="558.5" y="-65" font-family="Helvetica,sans-Serif" font-size="10.00"> c11Thread</text>
</g>
</g>
</svg>
