<?xml version="1.0" encoding="UTF-8" standalone="no"?>
<!DOCTYPE svg PUBLIC "-//W3C//DTD SVG 1.1//EN"
 "http://www.w3.org/Graphics/SVG/1.1/DTD/svg11.dtd">
<!-- Generated by graphviz version 2.40.1 (20161225.0304)
 -->
<!-- Title: Boxing Pages: 1 -->
<svg width="867pt" height="112pt"
 viewBox="0.00 0.00 867.00 112.00" xmlns="http://www.w3.org/2000/svg" xmlns:xlink="http://www.w3.org/1999/xlink">
<g id="graph0" class="graph" transform="scale(1 1) rotate(0) translate(4 108)">
<title>Boxing</title>
<polygon fill="#ffffff" stroke="transparent" points="-4,4 -4,-108 863,-108 863,4 -4,4"/>
<!-- Node1 -->
<g id="node1" class="node">
<title>Node1</title>
<polygon fill="#bfbfbf" stroke="#000000" points="812,-22.5 812,-41.5 859,-41.5 859,-22.5 812,-22.5"/>
<text text-anchor="middle" x="835.5" y="-29.5" font-family="Helvetica,sans-Serif" font-size="10.00" fill="#000000">Boxing</text>
</g>
<!-- Node6 -->
<g id="node2" class="node">
<title>Node6</title>
<g id="a_node2"><a xlink:title="STL class. ">
<polygon fill="#ffffff" stroke="#bfbfbf" points="302,-81.5 302,-100.5 511,-100.5 511,-81.5 302,-81.5"/>
<text text-anchor="middle" x="406.5" y="-88.5" font-family="Helvetica,sans-Serif" font-size="10.00" fill="#000000">vector&lt;tuple&lt;String, TAssociatedTypes...&gt;&gt;</text>
</a>
</g>
</g>
<!-- Node5 -->
<g id="node4" class="node">
<title>Node5</title>
<g id="a_node4"><a xlink:href="classaworx_1_1lib_1_1strings_1_1StringTuples.html" target="_top" xlink:title="StringTuples\&lt;TAssociatedTypes\&gt;">
<polygon fill="#ffffff" stroke="#000000" points="579,-45.5 579,-64.5 743,-64.5 743,-45.5 579,-45.5"/>
<text text-anchor="middle" x="661" y="-52.5" font-family="Helvetica,sans-Serif" font-size="10.00" fill="#000000">StringTuples&lt;TAssociatedTypes&gt;</text>
</a>
</g>
</g>
<!-- Node6&#45;&gt;Node5 -->
<g id="edge5" class="edge">
<title>Node6&#45;&gt;Node5</title>
<path fill="none" stroke="#191970" d="M483.8625,-80.0568C518.8117,-75.1131 559.726,-69.3256 593.4232,-64.559"/>
<polygon fill="#191970" stroke="#191970" points="483.111,-76.6282 473.6998,-81.4943 484.0915,-83.5592 483.111,-76.6282"/>
</g>
<!-- Node9 -->
<g id="node3" class="node">
<title>Node9</title>
<polygon fill="#ffffff" stroke="#bfbfbf" points="0,-39.5 0,-58.5 223,-58.5 223,-39.5 0,-39.5"/>
<text text-anchor="middle" x="111.5" y="-46.5" font-family="Helvetica,sans-Serif" font-size="10.00" fill="#000000">vector&lt;MemoryBlocks::MemoryBlocks::Block&gt;</text>
</g>
<!-- Node8 -->
<g id="node9" class="node">
<title>Node8</title>
<g id="a_node9"><a xlink:href="classaworx_1_1lib_1_1lang_1_1MemoryBlocks.html" target="_top" xlink:title="MemoryBlocks">
<polygon fill="#ffffff" stroke="#000000" points="365.5,-40.5 365.5,-59.5 447.5,-59.5 447.5,-40.5 365.5,-40.5"/>
<text text-anchor="middle" x="406.5" y="-47.5" font-family="Helvetica,sans-Serif" font-size="10.00" fill="#000000">MemoryBlocks</text>
</a>
</g>
</g>
<!-- Node9&#45;&gt;Node8 -->
<g id="edge8" class="edge">
<title>Node9&#45;&gt;Node8</title>
<path fill="none" stroke="#9a32cd" stroke-dasharray="5,2" d="M233.3061,-49.4129C280.3026,-49.5722 330.8899,-49.7437 365.183,-49.8599"/>
<polygon fill="#9a32cd" stroke="#9a32cd" points="233.0387,-45.9121 223.0269,-49.3781 233.0149,-52.912 233.0387,-45.9121"/>
<text text-anchor="middle" x="262.5" y="-63" font-family="Helvetica,sans-Serif" font-size="10.00" fill="#000000"> blocks</text>
<text text-anchor="middle" x="262.5" y="-52" font-family="Helvetica,sans-Serif" font-size="10.00" fill="#000000">actBlock</text>
</g>
<!-- Node5&#45;&gt;Node1 -->
<g id="edge4" class="edge">
<title>Node5&#45;&gt;Node1</title>
<path fill="none" stroke="#9a32cd" stroke-dasharray="5,2" d="M743.1932,-44.1665C768.3221,-40.8544 794.0121,-37.4683 811.8882,-35.1122"/>
<polygon fill="#9a32cd" stroke="#9a32cd" points="742.6923,-40.7022 733.2355,-45.479 743.6071,-47.6421 742.6923,-40.7022"/>
<text text-anchor="middle" x="777.5" y="-44" font-family="Helvetica,sans-Serif" font-size="10.00" fill="#000000"> strings</text>
</g>
<!-- Node2 -->
<g id="node5" class="node">
<title>Node2</title>
<g id="a_node5"><a xlink:href="classaworx_1_1lib_1_1strings_1_1AString.html" target="_top" xlink:title="AString">
<polygon fill="#ffffff" stroke="#000000" points="636.5,-.5 636.5,-19.5 685.5,-19.5 685.5,-.5 636.5,-.5"/>
<text text-anchor="middle" x="661" y="-7.5" font-family="Helvetica,sans-Serif" font-size="10.00" fill="#000000">AString</text>
</a>
</g>
</g>
<!-- Node2&#45;&gt;Node1 -->
<g id="edge1" class="edge">
<title>Node2&#45;&gt;Node1</title>
<path fill="none" stroke="#9a32cd" stroke-dasharray="5,2" d="M696.1009,-5.9395C723.2305,-3.8321 761.5109,-3.1187 794,-11 803.4166,-13.2843 813.1238,-18.0414 820.7801,-22.451"/>
<polygon fill="#9a32cd" stroke="#9a32cd" points="695.5805,-2.4717 685.9261,-6.8356 696.1947,-9.4447 695.5805,-2.4717"/>
<text text-anchor="middle" x="777.5" y="-25" font-family="Helvetica,sans-Serif" font-size="10.00" fill="#000000"> target</text>
<text text-anchor="middle" x="777.5" y="-14" font-family="Helvetica,sans-Serif" font-size="10.00" fill="#000000">dump</text>
</g>
<!-- Node3 -->
<g id="node6" class="node">
<title>Node3</title>
<g id="a_node6"><a xlink:href="classaworx_1_1lib_1_1strings_1_1TString.html" target="_top" xlink:title="TString">
<polygon fill="#ffffff" stroke="#000000" points="382.5,-.5 382.5,-19.5 430.5,-19.5 430.5,-.5 382.5,-.5"/>
<text text-anchor="middle" x="406.5" y="-7.5" font-family="Helvetica,sans-Serif" font-size="10.00" fill="#000000">TString</text>
</a>
</g>
</g>
<!-- Node3&#45;&gt;Node2 -->
<g id="edge2" class="edge">
<title>Node3&#45;&gt;Node2</title>
<path fill="none" stroke="#191970" d="M440.9953,-10C493.1128,-10 590.675,-10 636.2974,-10"/>
<polygon fill="#191970" stroke="#191970" points="440.9026,-6.5001 430.9025,-10 440.9025,-13.5001 440.9026,-6.5001"/>
</g>
<!-- Node4 -->
<g id="node7" class="node">
<title>Node4</title>
<g id="a_node7"><a xlink:href="classaworx_1_1lib_1_1strings_1_1String.html" target="_top" xlink:title="String">
<polygon fill="#ffffff" stroke="#000000" points="90.5,-.5 90.5,-19.5 132.5,-19.5 132.5,-.5 90.5,-.5"/>
<text text-anchor="middle" x="111.5" y="-7.5" font-family="Helvetica,sans-Serif" font-size="10.00" fill="#000000">String</text>
</a>
</g>
</g>
<!-- Node4&#45;&gt;Node3 -->
<g id="edge3" class="edge">
<title>Node4&#45;&gt;Node3</title>
<path fill="none" stroke="#191970" d="M142.9517,-10C202.1635,-10 329.0077,-10 382.2179,-10"/>
<polygon fill="#191970" stroke="#191970" points="142.7157,-6.5001 132.7157,-10 142.7156,-13.5001 142.7157,-6.5001"/>
</g>
<!-- Node7 -->
<g id="node8" class="node">
<title>Node7</title>
<polygon fill="#ffffff" stroke="#bfbfbf" points="97,-84.5 97,-103.5 126,-103.5 126,-84.5 97,-84.5"/>
<text text-anchor="middle" x="111.5" y="-91.5" font-family="Helvetica,sans-Serif" font-size="10.00" fill="#000000">T</text>
</g>
<!-- Node7&#45;&gt;Node6 -->
<g id="edge6" class="edge">
<title>Node7&#45;&gt;Node6</title>
<path fill="none" stroke="#9a32cd" stroke-dasharray="5,2" d="M136.2583,-93.7482C172.511,-93.3795 242.1984,-92.6709 301.7251,-92.0655"/>
<polygon fill="#9a32cd" stroke="#9a32cd" points="136.093,-90.2496 126.1291,-93.8512 136.1642,-97.2493 136.093,-90.2496"/>
<text text-anchor="middle" x="262.5" y="-95" font-family="Helvetica,sans-Serif" font-size="10.00" fill="#000000"> elements</text>
</g>
<!-- Node8&#45;&gt;Node5 -->
<g id="edge7" class="edge">
<title>Node8&#45;&gt;Node5</title>
<path fill="none" stroke="#9a32cd" stroke-dasharray="5,2" d="M458.0224,-51.0122C492.6543,-51.6926 539.0484,-52.6041 578.7398,-53.3839"/>
<polygon fill="#9a32cd" stroke="#9a32cd" points="457.7395,-47.5061 447.6727,-50.8089 457.602,-54.5047 457.7395,-47.5061"/>
<text text-anchor="middle" x="545" y="-55" font-family="Helvetica,sans-Serif" font-size="10.00" fill="#000000"> blocks</text>
</g>
</g>
</svg>
