<?xml version="1.0" encoding="UTF-8" standalone="no"?>
<!DOCTYPE svg PUBLIC "-//W3C//DTD SVG 1.1//EN"
 "http://www.w3.org/Graphics/SVG/1.1/DTD/svg11.dtd">
<!-- Generated by graphviz version 2.38.0 (20140413.2041)
 -->
<!-- Title: Thread Pages: 1 -->
<svg width="639pt" height="113pt"
 viewBox="0.00 0.00 639.00 113.00" xmlns="http://www.w3.org/2000/svg" xmlns:xlink="http://www.w3.org/1999/xlink">
<g id="graph0" class="graph" transform="scale(1 1) rotate(0) translate(4 109)">
<title>Thread</title>
<polygon fill="white" stroke="none" points="-4,4 -4,-109 635,-109 635,4 -4,4"/>
<!-- Node1 -->
<g id="node1" class="node"><title>Node1</title>
<polygon fill="#bfbfbf" stroke="black" points="392,-53.5 392,-72.5 439,-72.5 439,-53.5 392,-53.5"/>
<text text-anchor="middle" x="415.5" y="-60.5" font-family="Helvetica,sans-Serif" font-size="10.00">Thread</text>
</g>
<!-- Node6 -->
<g id="node6" class="node"><title>Node6</title>
<polygon fill="white" stroke="#bfbfbf" points="524,-42.5 524,-83.5 631,-83.5 631,-42.5 524,-42.5"/>
<text text-anchor="start" x="532" y="-71.5" font-family="Helvetica,sans-Serif" font-size="10.00">map&lt; std::thread::id,</text>
<text text-anchor="start" x="532" y="-60.5" font-family="Helvetica,sans-Serif" font-size="10.00"> aworx::lib::threads</text>
<text text-anchor="middle" x="577.5" y="-49.5" font-family="Helvetica,sans-Serif" font-size="10.00">::Thread * &gt;</text>
</g>
<!-- Node1&#45;&gt;Node6 -->
<g id="edge7" class="edge"><title>Node1&#45;&gt;Node6</title>
<path fill="none" stroke="#9a32cd" stroke-dasharray="5,2" d="M449.321,-63C470.816,-63 499.381,-63 523.993,-63"/>
<polygon fill="#9a32cd" stroke="#9a32cd" points="449.085,-59.5001 439.085,-63 449.085,-66.5001 449.085,-59.5001"/>
<text text-anchor="middle" x="481.5" y="-66" font-family="Helvetica,sans-Serif" font-size="10.00"> elements</text>
</g>
<!-- Node2 -->
<g id="node2" class="node"><title>Node2</title>
<g id="a_node2"><a xlink:href="classaworx_1_1lib_1_1threads_1_1Runnable.html" target="_top" xlink:title="Runnable">
<polygon fill="white" stroke="black" points="230.5,-85.5 230.5,-104.5 288.5,-104.5 288.5,-85.5 230.5,-85.5"/>
<text text-anchor="middle" x="259.5" y="-92.5" font-family="Helvetica,sans-Serif" font-size="10.00">Runnable</text>
</a>
</g>
</g>
<!-- Node2&#45;&gt;Node1 -->
<g id="edge1" class="edge"><title>Node2&#45;&gt;Node1</title>
<path fill="none" stroke="midnightblue" d="M298.981,-99.5043C321.427,-100.788 349.964,-100.07 374,-92 385.805,-88.0364 397.144,-79.356 404.806,-72.5194"/>
<polygon fill="midnightblue" stroke="midnightblue" points="299.045,-95.9998 288.817,-98.7652 298.537,-102.981 299.045,-95.9998"/>
</g>
<!-- Node2&#45;&gt;Node1 -->
<g id="edge2" class="edge"><title>Node2&#45;&gt;Node1</title>
<path fill="none" stroke="#9a32cd" stroke-dasharray="5,2" d="M298.538,-85.1202C307.211,-82.9915 316.403,-80.8326 325,-79 347.693,-74.1624 373.835,-69.6049 391.983,-66.6008"/>
<polygon fill="#9a32cd" stroke="#9a32cd" points="297.519,-81.7672 288.663,-87.5839 299.213,-88.559 297.519,-81.7672"/>
<text text-anchor="middle" x="349.5" y="-82" font-family="Helvetica,sans-Serif" font-size="10.00"> runnable</text>
</g>
<!-- Node3 -->
<g id="node3" class="node"><title>Node3</title>
<g id="a_node3"><a xlink:href="classaworx_1_1lib_1_1strings_1_1ASPreAlloc.html" target="_top" xlink:title="ASPreAlloc\&lt; 64 \&gt;">
<polygon fill="white" stroke="black" points="212,-38.5 212,-57.5 307,-57.5 307,-38.5 212,-38.5"/>
<text text-anchor="middle" x="259.5" y="-45.5" font-family="Helvetica,sans-Serif" font-size="10.00">ASPreAlloc&lt; 64 &gt;</text>
</a>
</g>
</g>
<!-- Node3&#45;&gt;Node1 -->
<g id="edge3" class="edge"><title>Node3&#45;&gt;Node1</title>
<path fill="none" stroke="#9a32cd" stroke-dasharray="5,2" d="M317.433,-43.1446C335.64,-42.7495 355.791,-43.5336 374,-47 380.981,-48.329 388.296,-50.8392 394.758,-53.4841"/>
<polygon fill="#9a32cd" stroke="#9a32cd" points="317.131,-39.6527 307.255,-43.4889 317.368,-46.6487 317.131,-39.6527"/>
<text text-anchor="middle" x="349.5" y="-50" font-family="Helvetica,sans-Serif" font-size="10.00"> name</text>
</g>
<!-- Node4 -->
<g id="node4" class="node"><title>Node4</title>
<g id="a_node4"><a xlink:href="classaworx_1_1lib_1_1strings_1_1ASAlloc.html" target="_top" xlink:title="ASAlloc">
<polygon fill="white" stroke="black" points="123,-38.5 123,-57.5 175,-57.5 175,-38.5 123,-38.5"/>
<text text-anchor="middle" x="149" y="-45.5" font-family="Helvetica,sans-Serif" font-size="10.00">ASAlloc</text>
</a>
</g>
</g>
<!-- Node4&#45;&gt;Node3 -->
<g id="edge4" class="edge"><title>Node4&#45;&gt;Node3</title>
<path fill="none" stroke="midnightblue" d="M185.381,-48C193.796,-48 202.902,-48 211.738,-48"/>
<polygon fill="midnightblue" stroke="midnightblue" points="185.165,-44.5001 175.165,-48 185.165,-51.5001 185.165,-44.5001"/>
</g>
<!-- Node5 -->
<g id="node5" class="node"><title>Node5</title>
<g id="a_node5"><a xlink:href="classaworx_1_1lib_1_1strings_1_1ASTerminatable.html" target="_top" xlink:title="ASTerminatable">
<polygon fill="white" stroke="red" points="0,-38.5 0,-57.5 86,-57.5 86,-38.5 0,-38.5"/>
<text text-anchor="middle" x="43" y="-45.5" font-family="Helvetica,sans-Serif" font-size="10.00">ASTerminatable</text>
</a>
</g>
</g>
<!-- Node5&#45;&gt;Node4 -->
<g id="edge5" class="edge"><title>Node5&#45;&gt;Node4</title>
<path fill="none" stroke="midnightblue" d="M96.0869,-48C105.433,-48 114.775,-48 122.906,-48"/>
<polygon fill="midnightblue" stroke="midnightblue" points="96.001,-44.5001 86.001,-48 96.001,-51.5001 96.001,-44.5001"/>
</g>
<!-- Node6&#45;&gt;Node1 -->
<g id="edge6" class="edge"><title>Node6&#45;&gt;Node1</title>
<path fill="none" stroke="#9a32cd" stroke-dasharray="5,2" d="M513.921,-47.0479C495.517,-44.3971 475.39,-43.499 457,-47 450.019,-48.329 442.704,-50.8392 436.242,-53.4841"/>
<polygon fill="#9a32cd" stroke="#9a32cd" points="513.513,-50.5276 523.947,-48.6841 514.641,-43.619 513.513,-50.5276"/>
<text text-anchor="middle" x="481.5" y="-50" font-family="Helvetica,sans-Serif" font-size="10.00"> threadMap</text>
</g>
<!-- Node7 -->
<g id="node7" class="node"><title>Node7</title>
<g id="a_node7"><a xlink:title="STL class. ">
<polygon fill="white" stroke="#bfbfbf" points="237.5,-0.5 237.5,-19.5 281.5,-19.5 281.5,-0.5 237.5,-0.5"/>
<text text-anchor="middle" x="259.5" y="-7.5" font-family="Helvetica,sans-Serif" font-size="10.00">thread</text>
</a>
</g>
</g>
<!-- Node7&#45;&gt;Node1 -->
<g id="edge8" class="edge"><title>Node7&#45;&gt;Node1</title>
<path fill="none" stroke="#9a32cd" stroke-dasharray="5,2" d="M291.686,-10.8111C315.249,-12.4487 347.883,-16.9553 374,-29 386.505,-34.7671 398.26,-45.4488 405.851,-53.3059"/>
<polygon fill="#9a32cd" stroke="#9a32cd" points="291.734,-7.30837 281.554,-10.2438 291.343,-14.2974 291.734,-7.30837"/>
<text text-anchor="middle" x="349.5" y="-32" font-family="Helvetica,sans-Serif" font-size="10.00"> c11Thread</text>
</g>
</g>
</svg>
