<?xml version="1.0" encoding="UTF-8" standalone="no"?>
<!DOCTYPE svg PUBLIC "-//W3C//DTD SVG 1.1//EN"
 "http://www.w3.org/Graphics/SVG/1.1/DTD/svg11.dtd">
<!-- Generated by graphviz version 2.38.0 (20140413.2041)
 -->
<!-- Title: PlainTextLogger Pages: 1 -->
<svg width="1016pt" height="410pt"
 viewBox="0.00 0.00 1016.00 410.00" xmlns="http://www.w3.org/2000/svg" xmlns:xlink="http://www.w3.org/1999/xlink">
<g id="graph0" class="graph" transform="scale(1 1) rotate(0) translate(4 406)">
<title>PlainTextLogger</title>
<polygon fill="white" stroke="none" points="-4,4 -4,-406 1012,-406 1012,4 -4,4"/>
<!-- Node1 -->
<g id="node1" class="node"><title>Node1</title>
<polygon fill="#bfbfbf" stroke="black" points="921,-169.5 921,-188.5 1008,-188.5 1008,-169.5 921,-169.5"/>
<text text-anchor="middle" x="964.5" y="-176.5" font-family="Helvetica,sans-Serif" font-size="10.00">PlainTextLogger</text>
</g>
<!-- Node10 -->
<g id="node2" class="node"><title>Node10</title>
<polygon fill="white" stroke="#bfbfbf" points="335.5,-0.5 335.5,-19.5 401.5,-19.5 401.5,-0.5 335.5,-0.5"/>
<text text-anchor="middle" x="368.5" y="-7.5" font-family="Helvetica,sans-Serif" font-size="10.00">vector&lt;int&gt;</text>
</g>
<!-- Node9 -->
<g id="node13" class="node"><title>Node9</title>
<g id="a_node13"><a xlink:href="classaworx_1_1lox_1_1core_1_1textlogger_1_1AutoSizes.html" target="_top" xlink:title="AutoSizes">
<polygon fill="white" stroke="black" points="605,-4.5 605,-23.5 667,-23.5 667,-4.5 605,-4.5"/>
<text text-anchor="middle" x="636" y="-11.5" font-family="Helvetica,sans-Serif" font-size="10.00">AutoSizes</text>
</a>
</g>
</g>
<!-- Node10&#45;&gt;Node9 -->
<g id="edge15" class="edge"><title>Node10&#45;&gt;Node9</title>
<path fill="none" stroke="#9a32cd" stroke-dasharray="5,2" d="M411.778,-10.637C465.698,-11.4493 557.603,-12.8339 604.906,-13.5466"/>
<polygon fill="#9a32cd" stroke="#9a32cd" points="411.577,-7.13363 401.526,-10.4825 411.472,-14.1328 411.577,-7.13363"/>
<text text-anchor="middle" x="507" y="-27" font-family="Helvetica,sans-Serif" font-size="10.00"> values</text>
<text text-anchor="middle" x="507" y="-16" font-family="Helvetica,sans-Serif" font-size="10.00">sessionValues</text>
</g>
<!-- Node11 -->
<g id="node3" class="node"><title>Node11</title>
<polygon fill="white" stroke="#bfbfbf" points="463,-382.5 463,-401.5 551,-401.5 551,-382.5 463,-382.5"/>
<text text-anchor="middle" x="507" y="-389.5" font-family="Helvetica,sans-Serif" font-size="10.00">vector&lt;AString&gt;</text>
</g>
<!-- Node2 -->
<g id="node6" class="node"><title>Node2</title>
<g id="a_node6"><a xlink:href="classaworx_1_1lox_1_1core_1_1textlogger_1_1TextLogger.html" target="_top" xlink:title="TextLogger">
<polygon fill="white" stroke="black" points="819,-169.5 819,-188.5 884,-188.5 884,-169.5 819,-169.5"/>
<text text-anchor="middle" x="851.5" y="-176.5" font-family="Helvetica,sans-Serif" font-size="10.00">TextLogger</text>
</a>
</g>
</g>
<!-- Node11&#45;&gt;Node2 -->
<g id="edge16" class="edge"><title>Node11&#45;&gt;Node2</title>
<path fill="none" stroke="#9a32cd" stroke-dasharray="5,2" d="M561.4,-388.499C627.058,-381.298 737.565,-359.286 801,-292 830.237,-260.988 843.931,-209.908 848.579,-188.699"/>
<polygon fill="#9a32cd" stroke="#9a32cd" points="560.855,-385.036 551.261,-389.532 561.565,-392 560.855,-385.036"/>
<text text-anchor="middle" x="636" y="-390" font-family="Helvetica,sans-Serif" font-size="10.00"> replacements</text>
</g>
<!-- Node14 -->
<g id="node4" class="node"><title>Node14</title>
<polygon fill="white" stroke="#bfbfbf" points="569,-313.5 569,-332.5 703,-332.5 703,-313.5 569,-313.5"/>
<text text-anchor="middle" x="636" y="-320.5" font-family="Helvetica,sans-Serif" font-size="10.00">vector&lt;ObjectConverter *&gt;</text>
</g>
<!-- Node14&#45;&gt;Node2 -->
<g id="edge19" class="edge"><title>Node14&#45;&gt;Node2</title>
<path fill="none" stroke="#9a32cd" stroke-dasharray="5,2" d="M665.941,-308.772C699.775,-291.538 756.77,-260.61 801,-227 816.631,-215.122 832.55,-198.764 841.972,-188.54"/>
<polygon fill="#9a32cd" stroke="#9a32cd" points="663.987,-305.837 656.633,-313.464 667.138,-312.088 663.987,-305.837"/>
<text text-anchor="middle" x="761" y="-280" font-family="Helvetica,sans-Serif" font-size="10.00"> ObjectConverters</text>
</g>
<!-- Node6 -->
<g id="node5" class="node"><title>Node6</title>
<g id="a_node5"><a xlink:href="classaworx_1_1lib_1_1strings_1_1PreallocatedString.html" target="_top" xlink:title="PreallocatedString\&lt;TCapacity\&gt;">
<polygon fill="white" stroke="black" points="292,-312.5 292,-331.5 445,-331.5 445,-312.5 292,-312.5"/>
<text text-anchor="middle" x="368.5" y="-319.5" font-family="Helvetica,sans-Serif" font-size="10.00">PreallocatedString&lt;TCapacity&gt;</text>
</a>
</g>
</g>
<!-- Node3 -->
<g id="node7" class="node"><title>Node3</title>
<g id="a_node7"><a xlink:href="classaworx_1_1lox_1_1core_1_1Logger.html" target="_top" xlink:title="Logger">
<polygon fill="white" stroke="black" points="613,-253.5 613,-272.5 659,-272.5 659,-253.5 613,-253.5"/>
<text text-anchor="middle" x="636" y="-260.5" font-family="Helvetica,sans-Serif" font-size="10.00">Logger</text>
</a>
</g>
</g>
<!-- Node6&#45;&gt;Node3 -->
<g id="edge6" class="edge"><title>Node6&#45;&gt;Node3</title>
<path fill="none" stroke="#9a32cd" stroke-dasharray="5,2" d="M432.996,-310.557C467.945,-303.97 512.013,-295.192 551,-286 572.045,-281.038 595.789,-274.443 612.65,-269.588"/>
<polygon fill="#9a32cd" stroke="#9a32cd" points="432.112,-307.162 422.927,-312.442 433.4,-314.042 432.112,-307.162"/>
<text text-anchor="middle" x="507" y="-318" font-family="Helvetica,sans-Serif" font-size="10.00"> typeName</text>
<text text-anchor="middle" x="507" y="-307" font-family="Helvetica,sans-Serif" font-size="10.00">name</text>
</g>
<!-- Node2&#45;&gt;Node1 -->
<g id="edge1" class="edge"><title>Node2&#45;&gt;Node1</title>
<path fill="none" stroke="midnightblue" d="M894.263,-179C902.911,-179 912.034,-179 920.718,-179"/>
<polygon fill="midnightblue" stroke="midnightblue" points="894.011,-175.5 884.011,-179 894.011,-182.5 894.011,-175.5"/>
</g>
<!-- Node3&#45;&gt;Node2 -->
<g id="edge2" class="edge"><title>Node3&#45;&gt;Node2</title>
<path fill="none" stroke="midnightblue" d="M668.445,-250.628C711.399,-233.728 787.501,-203.786 826.298,-188.522"/>
<polygon fill="midnightblue" stroke="midnightblue" points="667.068,-247.409 659.044,-254.327 669.631,-253.923 667.068,-247.409"/>
</g>
<!-- Node4 -->
<g id="node8" class="node"><title>Node4</title>
<g id="a_node8"><a xlink:href="classaworx_1_1lib_1_1threads_1_1SmartLock.html" target="_top" xlink:title="SmartLock">
<polygon fill="white" stroke="red" points="336.5,-274.5 336.5,-293.5 400.5,-293.5 400.5,-274.5 336.5,-274.5"/>
<text text-anchor="middle" x="368.5" y="-281.5" font-family="Helvetica,sans-Serif" font-size="10.00">SmartLock</text>
</a>
</g>
</g>
<!-- Node4&#45;&gt;Node3 -->
<g id="edge3" class="edge"><title>Node4&#45;&gt;Node3</title>
<path fill="none" stroke="midnightblue" d="M410.833,-280.731C467.746,-276.229 568.24,-268.28 612.733,-264.761"/>
<polygon fill="midnightblue" stroke="midnightblue" points="410.43,-277.252 400.737,-281.529 410.982,-284.23 410.43,-277.252"/>
</g>
<!-- Node5 -->
<g id="node9" class="node"><title>Node5</title>
<g id="a_node9"><a xlink:href="classaworx_1_1lib_1_1time_1_1Ticks.html" target="_top" xlink:title="Ticks">
<polygon fill="white" stroke="black" points="348,-207.5 348,-226.5 389,-226.5 389,-207.5 348,-207.5"/>
<text text-anchor="middle" x="368.5" y="-214.5" font-family="Helvetica,sans-Serif" font-size="10.00">Ticks</text>
</a>
</g>
</g>
<!-- Node5&#45;&gt;Node3 -->
<g id="edge4" class="edge"><title>Node5&#45;&gt;Node3</title>
<path fill="none" stroke="#9a32cd" stroke-dasharray="5,2" d="M399.528,-220.448C435.636,-224.79 498.005,-232.917 551,-243 572.059,-247.007 595.802,-252.778 612.659,-257.092"/>
<polygon fill="#9a32cd" stroke="#9a32cd" points="399.547,-216.925 389.204,-219.223 398.722,-223.877 399.547,-216.925"/>
<text text-anchor="middle" x="507" y="-257" font-family="Helvetica,sans-Serif" font-size="10.00"> TimeOfLastLog</text>
<text text-anchor="middle" x="507" y="-246" font-family="Helvetica,sans-Serif" font-size="10.00">TimeOfCreation</text>
</g>
<!-- Node5&#45;&gt;Node5 -->
<g id="edge5" class="edge"><title>Node5&#45;&gt;Node5</title>
<path fill="none" stroke="#9a32cd" stroke-dasharray="5,2" d="M344.691,-236.029C345.989,-241.128 353.926,-245 368.5,-245 391.25,-245 397.826,-235.565 388.229,-226.757"/>
<polygon fill="#9a32cd" stroke="#9a32cd" points="347.947,-237.32 348.771,-226.757 341.54,-234.5 347.947,-237.32"/>
<text text-anchor="middle" x="368.5" y="-248" font-family="Helvetica,sans-Serif" font-size="10.00"> creationTime</text>
</g>
<!-- Node7 -->
<g id="node10" class="node"><title>Node7</title>
<g id="a_node10"><a xlink:href="classaworx_1_1lib_1_1strings_1_1AString.html" target="_top" xlink:title="AString">
<polygon fill="white" stroke="black" points="111,-279.5 111,-298.5 160,-298.5 160,-279.5 111,-279.5"/>
<text text-anchor="middle" x="135.5" y="-286.5" font-family="Helvetica,sans-Serif" font-size="10.00">AString</text>
</a>
</g>
</g>
<!-- Node7&#45;&gt;Node11 -->
<g id="edge9" class="edge"><title>Node7&#45;&gt;Node11</title>
<path fill="none" stroke="#9a32cd" stroke-dasharray="5,2" d="M156.751,-304.922C185.124,-326.204 239.18,-363.084 292,-379 349.2,-396.236 418.793,-396.969 462.757,-395.118"/>
<polygon fill="#9a32cd" stroke="#9a32cd" points="158.548,-301.891 148.475,-298.607 154.302,-307.456 158.548,-301.891"/>
<text text-anchor="middle" x="239" y="-375" font-family="Helvetica,sans-Serif" font-size="10.00"> elements</text>
</g>
<!-- Node7&#45;&gt;Node6 -->
<g id="edge8" class="edge"><title>Node7&#45;&gt;Node6</title>
<path fill="none" stroke="midnightblue" d="M170.285,-293.826C204.424,-298.703 258.088,-306.37 300.823,-312.475"/>
<polygon fill="midnightblue" stroke="midnightblue" points="170.746,-290.357 160.351,-292.407 169.755,-297.286 170.746,-290.357"/>
</g>
<!-- Node7&#45;&gt;Node2 -->
<g id="edge7" class="edge"><title>Node7&#45;&gt;Node2</title>
<path fill="none" stroke="#9a32cd" stroke-dasharray="5,2" d="M166.642,-275.053C173.099,-271.881 179.831,-268.431 186,-265 234.707,-237.911 238.746,-214.437 292,-198 391.308,-167.349 715.579,-174.694 818.706,-177.906"/>
<polygon fill="#9a32cd" stroke="#9a32cd" points="164.968,-271.975 157.478,-279.468 168.006,-278.281 164.968,-271.975"/>
<text text-anchor="middle" x="507" y="-202" font-family="Helvetica,sans-Serif" font-size="10.00"> logBuf</text>
<text text-anchor="middle" x="507" y="-191" font-family="Helvetica,sans-Serif" font-size="10.00">MultiLineDelimiter</text>
<text text-anchor="middle" x="507" y="-180" font-family="Helvetica,sans-Serif" font-size="10.00">msgBuf</text>
</g>
<!-- Node12 -->
<g id="node11" class="node"><title>Node12</title>
<g id="a_node11"><a xlink:href="classaworx_1_1lox_1_1core_1_1textlogger_1_1MetaInfo.html" target="_top" xlink:title="MetaInfo">
<polygon fill="white" stroke="black" points="341,-130.5 341,-149.5 396,-149.5 396,-130.5 341,-130.5"/>
<text text-anchor="middle" x="368.5" y="-137.5" font-family="Helvetica,sans-Serif" font-size="10.00">MetaInfo</text>
</a>
</g>
</g>
<!-- Node7&#45;&gt;Node12 -->
<g id="edge10" class="edge"><title>Node7&#45;&gt;Node12</title>
<path fill="none" stroke="#9a32cd" stroke-dasharray="5,2" d="M169.459,-278.327C175.739,-274.949 181.687,-270.588 186,-265 211.19,-232.362 174.99,-203.294 204,-174 213.563,-164.343 296.826,-150.593 340.7,-143.926"/>
<polygon fill="#9a32cd" stroke="#9a32cd" points="167.794,-275.241 160.173,-282.601 170.72,-281.6 167.794,-275.241"/>
<text text-anchor="middle" x="239" y="-177" font-family="Helvetica,sans-Serif" font-size="10.00"> Format</text>
</g>
<!-- Node12&#45;&gt;Node2 -->
<g id="edge17" class="edge"><title>Node12&#45;&gt;Node2</title>
<path fill="none" stroke="#9a32cd" stroke-dasharray="5,2" d="M406.338,-140.706C467.865,-142.074 595.4,-145.713 703,-154 746.7,-157.366 757.991,-156.563 801,-165 807.135,-166.203 813.615,-167.795 819.794,-169.474"/>
<polygon fill="#9a32cd" stroke="#9a32cd" points="406.413,-137.207 396.34,-140.491 406.262,-144.206 406.413,-137.207"/>
<text text-anchor="middle" x="636" y="-157" font-family="Helvetica,sans-Serif" font-size="10.00"> MetaInfo</text>
</g>
<!-- Node8 -->
<g id="node12" class="node"><title>Node8</title>
<g id="a_node12"><a xlink:href="classaworx_1_1lib_1_1strings_1_1TString.html" target="_top" xlink:title="TString">
<polygon fill="white" stroke="red" points="0,-130.5 0,-149.5 48,-149.5 48,-130.5 0,-130.5"/>
<text text-anchor="middle" x="24" y="-137.5" font-family="Helvetica,sans-Serif" font-size="10.00">TString</text>
</a>
</g>
</g>
<!-- Node8&#45;&gt;Node2 -->
<g id="edge11" class="edge"><title>Node8&#45;&gt;Node2</title>
<path fill="none" stroke="#9a32cd" stroke-dasharray="5,2" d="M36.8471,-122.147C54.796,-97.4851 91.3949,-56 134.5,-56 134.5,-56 134.5,-56 637,-56 727.688,-56 814.59,-140.352 841.784,-169.348"/>
<polygon fill="#9a32cd" stroke="#9a32cd" points="33.9635,-120.163 31.1006,-130.364 39.6999,-124.175 33.9635,-120.163"/>
<text text-anchor="middle" x="368.5" y="-103" font-family="Helvetica,sans-Serif" font-size="10.00"> FmtUnknownObject</text>
<text text-anchor="middle" x="368.5" y="-92" font-family="Helvetica,sans-Serif" font-size="10.00">FmtMultiLineMsgHeadline</text>
<text text-anchor="middle" x="368.5" y="-81" font-family="Helvetica,sans-Serif" font-size="10.00">MultiLineDelimiterRepl</text>
<text text-anchor="middle" x="368.5" y="-70" font-family="Helvetica,sans-Serif" font-size="10.00">FmtMultiLineSuffix</text>
<text text-anchor="middle" x="368.5" y="-59" font-family="Helvetica,sans-Serif" font-size="10.00">FmtMultiLinePrefix</text>
</g>
<!-- Node8&#45;&gt;Node7 -->
<g id="edge12" class="edge"><title>Node8&#45;&gt;Node7</title>
<path fill="none" stroke="midnightblue" d="M29.9542,-159.495C37.655,-186.32 54.8398,-234.721 85,-265 92.1444,-272.173 101.859,-277.52 110.79,-281.324"/>
<polygon fill="midnightblue" stroke="midnightblue" points="33.3031,-158.472 27.3022,-149.74 26.5483,-160.308 33.3031,-158.472"/>
</g>
<!-- Node8&#45;&gt;Node12 -->
<g id="edge13" class="edge"><title>Node8&#45;&gt;Node12</title>
<path fill="none" stroke="#9a32cd" stroke-dasharray="5,2" d="M58.1147,-140C125.852,-140 279.055,-140 340.883,-140"/>
<polygon fill="#9a32cd" stroke="#9a32cd" points="58.0043,-136.5 48.0042,-140 58.0042,-143.5 58.0043,-136.5"/>
<text text-anchor="middle" x="135.5" y="-253" font-family="Helvetica,sans-Serif" font-size="10.00"> TimeDiffHours</text>
<text text-anchor="middle" x="135.5" y="-242" font-family="Helvetica,sans-Serif" font-size="10.00">VerbosityInfo</text>
<text text-anchor="middle" x="135.5" y="-231" font-family="Helvetica,sans-Serif" font-size="10.00">VerbosityWarning</text>
<text text-anchor="middle" x="135.5" y="-220" font-family="Helvetica,sans-Serif" font-size="10.00">VerbosityVerbose</text>
<text text-anchor="middle" x="135.5" y="-209" font-family="Helvetica,sans-Serif" font-size="10.00">TimeDiffMicros</text>
<text text-anchor="middle" x="135.5" y="-198" font-family="Helvetica,sans-Serif" font-size="10.00">TimeElapsedDays</text>
<text text-anchor="middle" x="135.5" y="-187" font-family="Helvetica,sans-Serif" font-size="10.00">VerbosityError</text>
<text text-anchor="middle" x="135.5" y="-176" font-family="Helvetica,sans-Serif" font-size="10.00">TimeOfDayFormat</text>
<text text-anchor="middle" x="135.5" y="-165" font-family="Helvetica,sans-Serif" font-size="10.00">DateFormat</text>
<text text-anchor="middle" x="135.5" y="-154" font-family="Helvetica,sans-Serif" font-size="10.00">TimeDiffMins</text>
<text text-anchor="middle" x="135.5" y="-143" font-family="Helvetica,sans-Serif" font-size="10.00">...</text>
</g>
<!-- Node9&#45;&gt;Node2 -->
<g id="edge14" class="edge"><title>Node9&#45;&gt;Node2</title>
<path fill="none" stroke="#9a32cd" stroke-dasharray="5,2" d="M677.465,-6.87158C713.747,-2.87397 766.441,-3.30036 801,-31 845.184,-66.4143 850.217,-142.649 850.575,-169.447"/>
<polygon fill="#9a32cd" stroke="#9a32cd" points="676.717,-3.4382 667.234,-8.16277 677.593,-10.3831 676.717,-3.4382"/>
<text text-anchor="middle" x="761" y="-34" font-family="Helvetica,sans-Serif" font-size="10.00"> AutoSizes</text>
</g>
<!-- Node13 -->
<g id="node14" class="node"><title>Node13</title>
<g id="a_node14"><a xlink:href="classaworx_1_1lib_1_1time_1_1TicksCalendarTime.html" target="_top" xlink:title="TicksCalendarTime">
<polygon fill="white" stroke="black" points="85,-84.5 85,-103.5 186,-103.5 186,-84.5 85,-84.5"/>
<text text-anchor="middle" x="135.5" y="-91.5" font-family="Helvetica,sans-Serif" font-size="10.00">TicksCalendarTime</text>
</a>
</g>
</g>
<!-- Node13&#45;&gt;Node12 -->
<g id="edge18" class="edge"><title>Node13&#45;&gt;Node12</title>
<path fill="none" stroke="#9a32cd" stroke-dasharray="5,2" d="M196.188,-101.661C220.441,-105.151 248.665,-109.695 274,-115 296.696,-119.752 322.093,-126.646 340.683,-131.991"/>
<polygon fill="#9a32cd" stroke="#9a32cd" points="196.448,-98.1627 186.057,-100.23 195.469,-105.094 196.448,-98.1627"/>
<text text-anchor="middle" x="239" y="-118" font-family="Helvetica,sans-Serif" font-size="10.00"> callerDateTime</text>
</g>
<!-- Node15 -->
<g id="node15" class="node"><title>Node15</title>
<g id="a_node15"><a xlink:href="classaworx_1_1lox_1_1core_1_1textlogger_1_1ObjectConverter.html" target="_top" xlink:title="ObjectConverter">
<polygon fill="white" stroke="black" points="324.5,-350.5 324.5,-369.5 412.5,-369.5 412.5,-350.5 324.5,-350.5"/>
<text text-anchor="middle" x="368.5" y="-357.5" font-family="Helvetica,sans-Serif" font-size="10.00">ObjectConverter</text>
</a>
</g>
</g>
<!-- Node15&#45;&gt;Node14 -->
<g id="edge20" class="edge"><title>Node15&#45;&gt;Node14</title>
<path fill="none" stroke="#9a32cd" stroke-dasharray="5,2" d="M423.195,-354.291C459.379,-350.248 508.144,-344.419 551,-338 561.841,-336.376 573.434,-334.438 584.438,-332.502"/>
<polygon fill="#9a32cd" stroke="#9a32cd" points="422.419,-350.856 412.865,-355.435 423.19,-357.813 422.419,-350.856"/>
<text text-anchor="middle" x="507" y="-352" font-family="Helvetica,sans-Serif" font-size="10.00"> elements</text>
</g>
</g>
</svg>
