<?xml version="1.0" encoding="UTF-8" standalone="no"?>
<!DOCTYPE svg PUBLIC "-//W3C//DTD SVG 1.1//EN"
 "http://www.w3.org/Graphics/SVG/1.1/DTD/svg11.dtd">
<!-- Generated by graphviz version 2.40.1 (20161225.0304)
 -->
<!-- Title: AnsiLogger Pages: 1 -->
<svg width="1123pt" height="756pt"
 viewBox="0.00 0.00 1123.00 756.00" xmlns="http://www.w3.org/2000/svg" xmlns:xlink="http://www.w3.org/1999/xlink">
<g id="graph0" class="graph" transform="scale(1 1) rotate(0) translate(4 752)">
<title>AnsiLogger</title>
<polygon fill="#ffffff" stroke="transparent" points="-4,4 -4,-752 1119,-752 1119,4 -4,4"/>
<!-- Node7 -->
<g id="node1" class="node">
<title>Node7</title>
<polygon fill="#bfbfbf" stroke="#000000" points="1050,-363.5 1050,-382.5 1115,-382.5 1115,-363.5 1050,-363.5"/>
<text text-anchor="middle" x="1082.5" y="-370.5" font-family="Helvetica,sans-Serif" font-size="10.00" fill="#000000">AnsiLogger</text>
</g>
<!-- Node25 -->
<g id="node2" class="node">
<title>Node25</title>
<polygon fill="#ffffff" stroke="#bfbfbf" points="462,-464.5 462,-483.5 550,-483.5 550,-464.5 462,-464.5"/>
<text text-anchor="middle" x="506" y="-471.5" font-family="Helvetica,sans-Serif" font-size="10.00" fill="#000000">vector&lt;AString&gt;</text>
</g>
<!-- Node8 -->
<g id="node8" class="node">
<title>Node8</title>
<g id="a_node8"><a xlink:href="classaworx_1_1lox_1_1core_1_1textlogger_1_1TextLogger.html" target="_top" xlink:title="TextLogger">
<polygon fill="#ffffff" stroke="#000000" points="793.5,-263.5 793.5,-282.5 858.5,-282.5 858.5,-263.5 793.5,-263.5"/>
<text text-anchor="middle" x="826" y="-270.5" font-family="Helvetica,sans-Serif" font-size="10.00" fill="#000000">TextLogger</text>
</a>
</g>
</g>
<!-- Node25&#45;&gt;Node8 -->
<g id="edge20" class="edge">
<title>Node25&#45;&gt;Node8</title>
<path fill="none" stroke="#9a32cd" stroke-dasharray="5,2" d="M547.9179,-458.8769C548.6369,-458.2748 549.3322,-457.6495 550,-457 564.8516,-442.5548 554.1293,-429.3895 568,-414 603.1995,-374.9463 748.8105,-307.444 804.347,-282.5658"/>
<polygon fill="#9a32cd" stroke="#9a32cd" points="545.8753,-456.0317 539.4759,-464.4755 549.7442,-461.8654 545.8753,-456.0317"/>
<text text-anchor="middle" x="626" y="-417" font-family="Helvetica,sans-Serif" font-size="10.00" fill="#000000"> replacements</text>
</g>
<!-- Node30 -->
<g id="node3" class="node">
<title>Node30</title>
<polygon fill="#ffffff" stroke="#bfbfbf" points="325.5,-507.5 325.5,-526.5 410.5,-526.5 410.5,-507.5 325.5,-507.5"/>
<text text-anchor="middle" x="368" y="-514.5" font-family="Helvetica,sans-Serif" font-size="10.00" fill="#000000">vector&lt;integer&gt;</text>
</g>
<!-- Node29 -->
<g id="node17" class="node">
<title>Node29</title>
<g id="a_node17"><a xlink:href="classaworx_1_1lib_1_1strings_1_1AutoSizes.html" target="_top" xlink:title="AutoSizes">
<polygon fill="#ffffff" stroke="#000000" points="595,-434.5 595,-453.5 657,-453.5 657,-434.5 595,-434.5"/>
<text text-anchor="middle" x="626" y="-441.5" font-family="Helvetica,sans-Serif" font-size="10.00" fill="#000000">AutoSizes</text>
</a>
</g>
</g>
<!-- Node30&#45;&gt;Node29 -->
<g id="edge24" class="edge">
<title>Node30&#45;&gt;Node29</title>
<path fill="none" stroke="#9a32cd" stroke-dasharray="5,2" d="M420.7231,-513.7254C457.7535,-510.2016 507.9737,-502.9327 550,-488 573.7043,-479.5774 598.4242,-463.7336 613.0033,-453.5338"/>
<polygon fill="#9a32cd" stroke="#9a32cd" points="420.2961,-510.2495 410.6462,-514.6232 420.9174,-517.2218 420.2961,-510.2495"/>
<text text-anchor="middle" x="506" y="-522" font-family="Helvetica,sans-Serif" font-size="10.00" fill="#000000"> values</text>
<text text-anchor="middle" x="506" y="-511" font-family="Helvetica,sans-Serif" font-size="10.00" fill="#000000">sessionValues</text>
</g>
<!-- Node35 -->
<g id="node4" class="node">
<title>Node35</title>
<polygon fill="#ffffff" stroke="#bfbfbf" points="770.5,-718.5 770.5,-737.5 881.5,-737.5 881.5,-718.5 770.5,-718.5"/>
<text text-anchor="middle" x="826" y="-725.5" font-family="Helvetica,sans-Serif" font-size="10.00" fill="#000000">basic_ostream&lt;char&gt;</text>
</g>
<!-- Node35&#45;&gt;Node7 -->
<g id="edge30" class="edge">
<title>Node35&#45;&gt;Node7</title>
<path fill="none" stroke="#9a32cd" stroke-dasharray="5,2" d="M892.0113,-737.383C937.4476,-739.8789 995.9017,-734.6026 1032,-699 1055.2937,-676.0263 1077.2376,-434.3414 1081.6834,-382.6821"/>
<polygon fill="#9a32cd" stroke="#9a32cd" points="892.1568,-733.8849 881.9409,-736.6931 891.6783,-740.8685 892.1568,-733.8849"/>
<text text-anchor="middle" x="967" y="-740" font-family="Helvetica,sans-Serif" font-size="10.00" fill="#000000"> oStream</text>
</g>
<!-- Node36 -->
<g id="node5" class="node">
<title>Node36</title>
<g id="a_node5"><a xlink:title="STL class. ">
<polygon fill="#ffffff" stroke="#bfbfbf" points="581.5,-718.5 581.5,-737.5 670.5,-737.5 670.5,-718.5 581.5,-718.5"/>
<text text-anchor="middle" x="626" y="-725.5" font-family="Helvetica,sans-Serif" font-size="10.00" fill="#000000">basic_ios&lt;char&gt;</text>
</a>
</g>
</g>
<!-- Node36&#45;&gt;Node35 -->
<g id="edge31" class="edge">
<title>Node36&#45;&gt;Node35</title>
<path fill="none" stroke="#191970" d="M681.1956,-728C708.9024,-728 742.394,-728 770.186,-728"/>
<polygon fill="#191970" stroke="#191970" points="680.8839,-724.5001 670.8839,-728 680.8839,-731.5001 680.8839,-724.5001"/>
</g>
<!-- Node24 -->
<g id="node6" class="node">
<title>Node24</title>
<g id="a_node6"><a xlink:href="classaworx_1_1lib_1_1strings_1_1PreallocatedString.html" target="_top" xlink:title="PreallocatedString\&lt;TCapacity\&gt;">
<polygon fill="#ffffff" stroke="#000000" points="292,-213.5 292,-232.5 444,-232.5 444,-213.5 292,-213.5"/>
<text text-anchor="middle" x="368" y="-220.5" font-family="Helvetica,sans-Serif" font-size="10.00" fill="#000000">PreallocatedString&lt;TCapacity&gt;</text>
</a>
</g>
</g>
<!-- Node24&#45;&gt;Node8 -->
<g id="edge15" class="edge">
<title>Node24&#45;&gt;Node8</title>
<path fill="none" stroke="#9a32cd" stroke-dasharray="5,2" d="M385.7304,-206.6381C403.4968,-191.4484 432.3917,-169.8851 462,-161 556.5032,-132.6406 589.1198,-133.9287 684,-161 745.5942,-178.5741 799.194,-239.2606 818.4276,-263.1893"/>
<polygon fill="#9a32cd" stroke="#9a32cd" points="383.1345,-204.2606 377.9482,-213.4993 387.7638,-209.5113 383.1345,-204.2606"/>
<text text-anchor="middle" x="626" y="-186" font-family="Helvetica,sans-Serif" font-size="10.00" fill="#000000"> MultiLineDelimiterRepl</text>
<text text-anchor="middle" x="626" y="-175" font-family="Helvetica,sans-Serif" font-size="10.00" fill="#000000">FmtMultiLineSuffix</text>
<text text-anchor="middle" x="626" y="-164" font-family="Helvetica,sans-Serif" font-size="10.00" fill="#000000">FmtMultiLinePrefix</text>
</g>
<!-- Node24&#45;&gt;Node8 -->
<g id="edge16" class="edge">
<title>Node24&#45;&gt;Node8</title>
<path fill="none" stroke="#9a32cd" stroke-dasharray="5,2" d="M454.0813,-215.4941C518.0524,-211.8566 607.1706,-210.8897 684,-225 728.0235,-233.0852 776.9915,-251.9739 804.3869,-263.4991"/>
<polygon fill="#9a32cd" stroke="#9a32cd" points="453.8075,-212.0042 444.036,-216.0989 454.2283,-218.9915 453.8075,-212.0042"/>
<text text-anchor="middle" x="626" y="-228" font-family="Helvetica,sans-Serif" font-size="10.00" fill="#000000"> FmtMultiLineMsgHeadline</text>
</g>
<!-- Node9 -->
<g id="node9" class="node">
<title>Node9</title>
<g id="a_node9"><a xlink:href="classaworx_1_1lox_1_1core_1_1Logger.html" target="_top" xlink:title="Logger">
<polygon fill="#ffffff" stroke="#000000" points="603,-73.5 603,-92.5 649,-92.5 649,-73.5 603,-73.5"/>
<text text-anchor="middle" x="626" y="-80.5" font-family="Helvetica,sans-Serif" font-size="10.00" fill="#000000">Logger</text>
</a>
</g>
</g>
<!-- Node24&#45;&gt;Node9 -->
<g id="edge17" class="edge">
<title>Node24&#45;&gt;Node9</title>
<path fill="none" stroke="#9a32cd" stroke-dasharray="5,2" d="M392.7199,-207.5863C409.2153,-196.2022 430.3106,-179.3651 444,-160 457.3924,-141.055 444.1647,-125.8382 462,-111 483.0387,-93.4966 562.7936,-86.5639 602.8091,-84.1433"/>
<polygon fill="#9a32cd" stroke="#9a32cd" points="390.4831,-204.871 384.1053,-213.3312 394.3669,-210.6948 390.4831,-204.871"/>
<text text-anchor="middle" x="506" y="-125" font-family="Helvetica,sans-Serif" font-size="10.00" fill="#000000"> TypeName</text>
<text text-anchor="middle" x="506" y="-114" font-family="Helvetica,sans-Serif" font-size="10.00" fill="#000000">Name</text>
</g>
<!-- Node27 -->
<g id="node14" class="node">
<title>Node27</title>
<g id="a_node14"><a xlink:href="classaworx_1_1lox_1_1core_1_1textlogger_1_1MetaInfo.html" target="_top" xlink:title="MetaInfo">
<polygon fill="#ffffff" stroke="#000000" points="598.5,-283.5 598.5,-302.5 653.5,-302.5 653.5,-283.5 598.5,-283.5"/>
<text text-anchor="middle" x="626" y="-290.5" font-family="Helvetica,sans-Serif" font-size="10.00" fill="#000000">MetaInfo</text>
</a>
</g>
</g>
<!-- Node24&#45;&gt;Node27 -->
<g id="edge18" class="edge">
<title>Node24&#45;&gt;Node27</title>
<path fill="none" stroke="#9a32cd" stroke-dasharray="5,2" d="M408.697,-235.4975C425.2002,-240.4674 444.4688,-246.1461 462,-251 487.5637,-258.0779 558.6088,-276.0545 598.2907,-286.0423"/>
<polygon fill="#9a32cd" stroke="#9a32cd" points="409.4042,-232.0548 398.819,-232.5084 407.3766,-238.7548 409.4042,-232.0548"/>
<text text-anchor="middle" x="506" y="-386" font-family="Helvetica,sans-Serif" font-size="10.00" fill="#000000"> TimeDiffHours</text>
<text text-anchor="middle" x="506" y="-375" font-family="Helvetica,sans-Serif" font-size="10.00" fill="#000000">VerbosityInfo</text>
<text text-anchor="middle" x="506" y="-364" font-family="Helvetica,sans-Serif" font-size="10.00" fill="#000000">VerbosityWarning</text>
<text text-anchor="middle" x="506" y="-353" font-family="Helvetica,sans-Serif" font-size="10.00" fill="#000000">VerbosityVerbose</text>
<text text-anchor="middle" x="506" y="-342" font-family="Helvetica,sans-Serif" font-size="10.00" fill="#000000">TimeDiffMicros</text>
<text text-anchor="middle" x="506" y="-331" font-family="Helvetica,sans-Serif" font-size="10.00" fill="#000000">TimeElapsedDays</text>
<text text-anchor="middle" x="506" y="-320" font-family="Helvetica,sans-Serif" font-size="10.00" fill="#000000">VerbosityError</text>
<text text-anchor="middle" x="506" y="-309" font-family="Helvetica,sans-Serif" font-size="10.00" fill="#000000">TimeOfDayFormat</text>
<text text-anchor="middle" x="506" y="-298" font-family="Helvetica,sans-Serif" font-size="10.00" fill="#000000">TimeDiffMins</text>
<text text-anchor="middle" x="506" y="-287" font-family="Helvetica,sans-Serif" font-size="10.00" fill="#000000">TimeDiffSecs</text>
<text text-anchor="middle" x="506" y="-276" font-family="Helvetica,sans-Serif" font-size="10.00" fill="#000000">...</text>
</g>
<!-- Node24&#45;&gt;Node27 -->
<g id="edge19" class="edge">
<title>Node24&#45;&gt;Node27</title>
<path fill="none" stroke="#9a32cd" stroke-dasharray="5,2" d="M454.8282,-222.199C493.7208,-223.4246 534.3303,-227.4015 550,-238 564.8175,-248.0221 554.4557,-262.3144 568,-274 576.5041,-281.337 587.9097,-285.8556 598.356,-288.6318"/>
<polygon fill="#9a32cd" stroke="#9a32cd" points="454.5482,-218.6907 444.4619,-221.9335 454.369,-225.6884 454.5482,-218.6907"/>
<text text-anchor="middle" x="506" y="-241" font-family="Helvetica,sans-Serif" font-size="10.00" fill="#000000"> DateFormat</text>
</g>
<!-- Node32 -->
<g id="node7" class="node">
<title>Node32</title>
<g id="a_node7"><a xlink:href="classaworx_1_1lib_1_1strings_1_1StringLiteral.html" target="_top" xlink:title="StringLiteral\&lt;TLength\&gt;">
<polygon fill="#ffffff" stroke="#000000" points="768,-507.5 768,-526.5 884,-526.5 884,-507.5 768,-507.5"/>
<text text-anchor="middle" x="826" y="-514.5" font-family="Helvetica,sans-Serif" font-size="10.00" fill="#000000">StringLiteral&lt;TLength&gt;</text>
</a>
</g>
</g>
<!-- Node32&#45;&gt;Node7 -->
<g id="edge26" class="edge">
<title>Node32&#45;&gt;Node7</title>
<path fill="none" stroke="#9a32cd" stroke-dasharray="5,2" d="M894.2813,-517.0559C945.6792,-515.7687 1010.7725,-510.883 1032,-495 1069.4429,-466.9843 1079.2792,-406.1474 1081.7303,-382.5884"/>
<polygon fill="#9a32cd" stroke="#9a32cd" points="894.1257,-513.5583 884.2014,-517.2676 894.2727,-520.5568 894.1257,-513.5583"/>
<text text-anchor="middle" x="967" y="-629" font-family="Helvetica,sans-Serif" font-size="10.00" fill="#000000"> ANSI_STD_COL</text>
<text text-anchor="middle" x="967" y="-618" font-family="Helvetica,sans-Serif" font-size="10.00" fill="#000000">ANSI_CYAN</text>
<text text-anchor="middle" x="967" y="-607" font-family="Helvetica,sans-Serif" font-size="10.00" fill="#000000">ANSI_BG_CYAN</text>
<text text-anchor="middle" x="967" y="-596" font-family="Helvetica,sans-Serif" font-size="10.00" fill="#000000">ANSI_BG_RED</text>
<text text-anchor="middle" x="967" y="-585" font-family="Helvetica,sans-Serif" font-size="10.00" fill="#000000">ANSI_BG_STD_COL</text>
<text text-anchor="middle" x="967" y="-574" font-family="Helvetica,sans-Serif" font-size="10.00" fill="#000000">ANSI_BG_LIGHT_STD_COL</text>
<text text-anchor="middle" x="967" y="-563" font-family="Helvetica,sans-Serif" font-size="10.00" fill="#000000">ANSI_BG_MAGENTA</text>
<text text-anchor="middle" x="967" y="-552" font-family="Helvetica,sans-Serif" font-size="10.00" fill="#000000">ANSI_BG_GREEN</text>
<text text-anchor="middle" x="967" y="-541" font-family="Helvetica,sans-Serif" font-size="10.00" fill="#000000">ANSI_BLACK</text>
<text text-anchor="middle" x="967" y="-530" font-family="Helvetica,sans-Serif" font-size="10.00" fill="#000000">ANSI_BG_BLACK</text>
<text text-anchor="middle" x="967" y="-519" font-family="Helvetica,sans-Serif" font-size="10.00" fill="#000000">...</text>
</g>
<!-- Node32&#45;&gt;Node7 -->
<g id="edge27" class="edge">
<title>Node32&#45;&gt;Node7</title>
<path fill="none" stroke="#9a32cd" stroke-dasharray="5,2" d="M829.498,-497.2193C836.5495,-464.0388 855.9193,-398.051 902,-370 948.4478,-341.7256 1014.845,-353.1542 1052.8163,-363.4568"/>
<polygon fill="#9a32cd" stroke="#9a32cd" points="826.0479,-496.6252 827.5581,-507.1119 832.9171,-497.9723 826.0479,-496.6252"/>
<text text-anchor="middle" x="967" y="-483" font-family="Helvetica,sans-Serif" font-size="10.00" fill="#000000"> ANSI_BG_LIGHT_GREEN</text>
<text text-anchor="middle" x="967" y="-472" font-family="Helvetica,sans-Serif" font-size="10.00" fill="#000000">ANSI_LIGHT_YELLOW</text>
<text text-anchor="middle" x="967" y="-461" font-family="Helvetica,sans-Serif" font-size="10.00" fill="#000000">ANSI_BG_LIGHT_MAGENTA</text>
<text text-anchor="middle" x="967" y="-450" font-family="Helvetica,sans-Serif" font-size="10.00" fill="#000000">ANSI_BG_LIGHT_BLUE</text>
<text text-anchor="middle" x="967" y="-439" font-family="Helvetica,sans-Serif" font-size="10.00" fill="#000000">ANSI_BG_LIGHT_RED</text>
<text text-anchor="middle" x="967" y="-428" font-family="Helvetica,sans-Serif" font-size="10.00" fill="#000000">ANSI_WHITE</text>
<text text-anchor="middle" x="967" y="-417" font-family="Helvetica,sans-Serif" font-size="10.00" fill="#000000">ANSI_LIGHT_BLUE</text>
<text text-anchor="middle" x="967" y="-406" font-family="Helvetica,sans-Serif" font-size="10.00" fill="#000000">ANSI_BG_WHITE</text>
<text text-anchor="middle" x="967" y="-395" font-family="Helvetica,sans-Serif" font-size="10.00" fill="#000000">ANSI_LIGHT_CYAN</text>
<text text-anchor="middle" x="967" y="-384" font-family="Helvetica,sans-Serif" font-size="10.00" fill="#000000">ANSI_LIGHT_GREEN</text>
<text text-anchor="middle" x="967" y="-373" font-family="Helvetica,sans-Serif" font-size="10.00" fill="#000000">...</text>
</g>
<!-- Node32&#45;&gt;Node7 -->
<g id="edge28" class="edge">
<title>Node32&#45;&gt;Node7</title>
<path fill="none" stroke="#9a32cd" stroke-dasharray="5,2" d="M829.996,-497.4624C840.282,-449.3056 869.177,-327.1383 902,-304 925.6118,-287.3551 1006.237,-290.9296 1032,-304 1056.756,-316.5595 1072.2911,-347.5877 1078.867,-363.4014"/>
<polygon fill="#9a32cd" stroke="#9a32cd" points="826.5627,-496.7817 827.938,-507.2869 833.414,-498.217 826.5627,-496.7817"/>
<text text-anchor="middle" x="967" y="-340" font-family="Helvetica,sans-Serif" font-size="10.00" fill="#000000"> ANSI_BG_LIGHT_GRAY</text>
<text text-anchor="middle" x="967" y="-329" font-family="Helvetica,sans-Serif" font-size="10.00" fill="#000000">ANSI_GRAY</text>
<text text-anchor="middle" x="967" y="-318" font-family="Helvetica,sans-Serif" font-size="10.00" fill="#000000">ANSI_LIGHT_GRAY</text>
<text text-anchor="middle" x="967" y="-307" font-family="Helvetica,sans-Serif" font-size="10.00" fill="#000000">ANSI_BG_GRAY</text>
</g>
<!-- Node32&#45;&gt;Node7 -->
<g id="edge29" class="edge">
<title>Node32&#45;&gt;Node7</title>
<path fill="none" stroke="#9a32cd" stroke-dasharray="5,2" d="M831.4602,-536.2667C840.6846,-564.7201 862.3416,-616.9812 902,-639 927.2571,-653.0231 1009.7488,-657.4242 1032,-639 1072.6403,-605.3494 1080.8382,-426.1523 1082.2403,-382.5626"/>
<polygon fill="#9a32cd" stroke="#9a32cd" points="834.7888,-535.1827 828.5219,-526.6401 828.0937,-537.2262 834.7888,-535.1827"/>
<text text-anchor="middle" x="967" y="-687" font-family="Helvetica,sans-Serif" font-size="10.00" fill="#000000"> ANSI_ITALICS</text>
<text text-anchor="middle" x="967" y="-676" font-family="Helvetica,sans-Serif" font-size="10.00" fill="#000000">ANSI_STD_STYLE</text>
<text text-anchor="middle" x="967" y="-665" font-family="Helvetica,sans-Serif" font-size="10.00" fill="#000000">ANSI_RESET</text>
<text text-anchor="middle" x="967" y="-654" font-family="Helvetica,sans-Serif" font-size="10.00" fill="#000000">ANSI_BOLD</text>
</g>
<!-- Node8&#45;&gt;Node7 -->
<g id="edge1" class="edge">
<title>Node8&#45;&gt;Node7</title>
<path fill="none" stroke="#191970" d="M868.9393,-264.9237C913.2262,-258.9639 982.6065,-256.4546 1032,-287 1060.5685,-304.667 1074.839,-344.9455 1080.0756,-363.4192"/>
<polygon fill="#191970" stroke="#191970" points="868.1828,-261.4971 858.795,-266.4084 869.1965,-268.4233 868.1828,-261.4971"/>
</g>
<!-- Node9&#45;&gt;Node8 -->
<g id="edge2" class="edge">
<title>Node9&#45;&gt;Node8</title>
<path fill="none" stroke="#191970" d="M658.887,-89.7175C685.984,-96.6661 724.0417,-109.8456 750,-133 792.5155,-170.9231 815.8193,-238.4668 823.3005,-263.4044"/>
<polygon fill="#191970" stroke="#191970" points="659.6288,-86.296 649.0866,-87.3516 657.9861,-93.1006 659.6288,-86.296"/>
</g>
<!-- Node10 -->
<g id="node10" class="node">
<title>Node10</title>
<g id="a_node10"><a xlink:href="classaworx_1_1lib_1_1threads_1_1SmartLock.html" target="_top" xlink:title="SmartLock">
<polygon fill="#ffffff" stroke="#ff0000" points="336,-29.5 336,-48.5 400,-48.5 400,-29.5 336,-29.5"/>
<text text-anchor="middle" x="368" y="-36.5" font-family="Helvetica,sans-Serif" font-size="10.00" fill="#000000">SmartLock</text>
</a>
</g>
</g>
<!-- Node10&#45;&gt;Node9 -->
<g id="edge3" class="edge">
<title>Node10&#45;&gt;Node9</title>
<path fill="none" stroke="#191970" d="M410.6935,-40.4386C447.8543,-42.3495 502.9823,-46.7767 550,-57 568.1236,-60.9407 587.929,-67.8045 602.777,-73.4905"/>
<polygon fill="#191970" stroke="#191970" points="410.3937,-36.9206 400.2392,-39.9432 410.0622,-43.9127 410.3937,-36.9206"/>
</g>
<!-- Node13 -->
<g id="node11" class="node">
<title>Node13</title>
<g id="a_node11"><a xlink:href="classaworx_1_1lib_1_1strings_1_1TString.html" target="_top" xlink:title="TString">
<polygon fill="#ffffff" stroke="#000000" points="79,-450.5 79,-469.5 127,-469.5 127,-450.5 79,-450.5"/>
<text text-anchor="middle" x="103" y="-457.5" font-family="Helvetica,sans-Serif" font-size="10.00" fill="#000000">TString</text>
</a>
</g>
</g>
<!-- Node13&#45;&gt;Node32 -->
<g id="edge5" class="edge">
<title>Node13&#45;&gt;Node32</title>
<path fill="none" stroke="#191970" d="M105.5356,-479.8213C111.785,-519.0875 131.776,-603 188.5,-603 188.5,-603 188.5,-603 626,-603 702.7263,-603 783.5294,-548.9232 813.6983,-526.5321"/>
<polygon fill="#191970" stroke="#191970" points="108.9859,-479.2254 104.0912,-469.829 102.0579,-480.2269 108.9859,-479.2254"/>
</g>
<!-- Node19 -->
<g id="node12" class="node">
<title>Node19</title>
<g id="a_node12"><a xlink:href="classaworx_1_1lib_1_1strings_1_1AString.html" target="_top" xlink:title="AString">
<polygon fill="#ffffff" stroke="#000000" points="164,-450.5 164,-469.5 213,-469.5 213,-450.5 164,-450.5"/>
<text text-anchor="middle" x="188.5" y="-457.5" font-family="Helvetica,sans-Serif" font-size="10.00" fill="#000000">AString</text>
</a>
</g>
</g>
<!-- Node13&#45;&gt;Node19 -->
<g id="edge4" class="edge">
<title>Node13&#45;&gt;Node19</title>
<path fill="none" stroke="#191970" d="M137.3599,-460C146.2317,-460 155.6054,-460 163.8702,-460"/>
<polygon fill="#191970" stroke="#191970" points="137.2722,-456.5001 127.2722,-460 137.2721,-463.5001 137.2722,-456.5001"/>
</g>
<!-- Node19&#45;&gt;Node25 -->
<g id="edge10" class="edge">
<title>Node19&#45;&gt;Node25</title>
<path fill="none" stroke="#9a32cd" stroke-dasharray="5,2" d="M223.297,-461.5344C281.4365,-464.098 398.2178,-469.2474 461.983,-472.0591"/>
<polygon fill="#9a32cd" stroke="#9a32cd" points="223.294,-458.0309 213.1495,-461.0869 222.9856,-465.0241 223.294,-458.0309"/>
<text text-anchor="middle" x="252.5" y="-466" font-family="Helvetica,sans-Serif" font-size="10.00" fill="#000000"> elements</text>
</g>
<!-- Node19&#45;&gt;Node24 -->
<g id="edge9" class="edge">
<title>Node19&#45;&gt;Node24</title>
<path fill="none" stroke="#191970" d="M201.8356,-442.3925C237.3411,-395.5134 333.3254,-268.7821 360.6507,-232.7035"/>
<polygon fill="#191970" stroke="#191970" points="199.0065,-440.3309 195.7589,-450.4158 204.5867,-444.5573 199.0065,-440.3309"/>
</g>
<!-- Node19&#45;&gt;Node8 -->
<g id="edge8" class="edge">
<title>Node19&#45;&gt;Node8</title>
<path fill="none" stroke="#9a32cd" stroke-dasharray="5,2" d="M204.4605,-476.9245C223.307,-495.5535 256.5959,-524.3974 292,-536 400.9719,-571.7121 438.9456,-561.5858 550,-533 646.8279,-508.0761 680.1807,-501.5689 750,-430 793.9846,-384.9132 816.6661,-309.4479 823.6253,-282.7335"/>
<polygon fill="#9a32cd" stroke="#9a32cd" points="206.8105,-474.3225 197.3035,-469.6461 201.8193,-479.2305 206.8105,-474.3225"/>
<text text-anchor="middle" x="506" y="-578" font-family="Helvetica,sans-Serif" font-size="10.00" fill="#000000"> logBuf</text>
<text text-anchor="middle" x="506" y="-567" font-family="Helvetica,sans-Serif" font-size="10.00" fill="#000000">MultiLineDelimiter</text>
<text text-anchor="middle" x="506" y="-556" font-family="Helvetica,sans-Serif" font-size="10.00" fill="#000000">msgBuf</text>
</g>
<!-- Node19&#45;&gt;Node27 -->
<g id="edge11" class="edge">
<title>Node19&#45;&gt;Node27</title>
<path fill="none" stroke="#9a32cd" stroke-dasharray="5,2" d="M223.1009,-456.0734C243.1999,-453.8548 269.0153,-451.1119 292,-449 320.6321,-446.3693 528.5453,-448.1419 550,-429 581.4146,-400.972 545.5652,-371.6248 568,-336 577.218,-321.3625 593.352,-310.0108 606.267,-302.6558"/>
<polygon fill="#9a32cd" stroke="#9a32cd" points="222.7085,-452.5953 213.1568,-457.1796 223.4825,-459.5524 222.7085,-452.5953"/>
<text text-anchor="middle" x="368" y="-452" font-family="Helvetica,sans-Serif" font-size="10.00" fill="#000000"> Format</text>
</g>
<!-- Node14 -->
<g id="node13" class="node">
<title>Node14</title>
<g id="a_node13"><a xlink:href="classaworx_1_1lib_1_1strings_1_1String.html" target="_top" xlink:title="String">
<polygon fill="#ffffff" stroke="#000000" points="0,-2.5 0,-21.5 42,-21.5 42,-2.5 0,-2.5"/>
<text text-anchor="middle" x="21" y="-9.5" font-family="Helvetica,sans-Serif" font-size="10.00" fill="#000000">String</text>
</a>
</g>
</g>
<!-- Node14&#45;&gt;Node7 -->
<g id="edge6" class="edge">
<title>Node14&#45;&gt;Node7</title>
<path fill="none" stroke="#9a32cd" stroke-dasharray="5,2" d="M52.0674,-5.2852C67.3337,-2.5415 86.0494,0 103,0 103,0 103,0 826,0 1007.9374,0 1070.5776,-305.0218 1080.9009,-363.4049"/>
<polygon fill="#9a32cd" stroke="#9a32cd" points="51.2783,-1.8726 42.1135,-7.1883 52.5929,-8.748 51.2783,-1.8726"/>
<text text-anchor="middle" x="368" y="-3" font-family="Helvetica,sans-Serif" font-size="10.00" fill="#000000"> MsgSuffix</text>
</g>
<!-- Node14&#45;&gt;Node13 -->
<g id="edge7" class="edge">
<title>Node14&#45;&gt;Node13</title>
<path fill="none" stroke="#191970" d="M24.6075,-31.7093C38.8591,-109.5717 90.9626,-394.2345 101.2346,-450.3549"/>
<polygon fill="#191970" stroke="#191970" points="28.0323,-30.9802 22.7889,-21.7738 21.1467,-32.2405 28.0323,-30.9802"/>
</g>
<!-- Node27&#45;&gt;Node8 -->
<g id="edge21" class="edge">
<title>Node27&#45;&gt;Node8</title>
<path fill="none" stroke="#9a32cd" stroke-dasharray="5,2" d="M663.8237,-289.2176C701.2611,-285.4739 757.9731,-279.8027 793.4563,-276.2544"/>
<polygon fill="#9a32cd" stroke="#9a32cd" points="663.4112,-285.7413 653.8091,-290.2191 664.1078,-292.7066 663.4112,-285.7413"/>
<text text-anchor="middle" x="726" y="-288" font-family="Helvetica,sans-Serif" font-size="10.00" fill="#000000"> MetaInfo</text>
</g>
<!-- Node23 -->
<g id="node15" class="node">
<title>Node23</title>
<g id="a_node15"><a xlink:href="classaworx_1_1lib_1_1time_1_1Ticks.html" target="_top" xlink:title="Ticks">
<polygon fill="#ffffff" stroke="#000000" points="347.5,-102.5 347.5,-121.5 388.5,-121.5 388.5,-102.5 347.5,-102.5"/>
<text text-anchor="middle" x="368" y="-109.5" font-family="Helvetica,sans-Serif" font-size="10.00" fill="#000000">Ticks</text>
</a>
</g>
</g>
<!-- Node23&#45;&gt;Node9 -->
<g id="edge12" class="edge">
<title>Node23&#45;&gt;Node9</title>
<path fill="none" stroke="#9a32cd" stroke-dasharray="5,2" d="M390.7297,-97.1987C409.1122,-86.1596 436.107,-71.9958 462,-66 511.3598,-54.5702 570.8632,-67.0724 602.8875,-75.8771"/>
<polygon fill="#9a32cd" stroke="#9a32cd" points="388.8636,-94.2375 382.1968,-102.4719 392.5435,-100.1922 388.8636,-94.2375"/>
<text text-anchor="middle" x="506" y="-80" font-family="Helvetica,sans-Serif" font-size="10.00" fill="#000000"> TimeOfLastLog</text>
<text text-anchor="middle" x="506" y="-69" font-family="Helvetica,sans-Serif" font-size="10.00" fill="#000000">TimeOfCreation</text>
</g>
<!-- Node23&#45;&gt;Node27 -->
<g id="edge14" class="edge">
<title>Node23&#45;&gt;Node27</title>
<path fill="none" stroke="#9a32cd" stroke-dasharray="5,2" d="M398.5972,-119.665C439.3091,-131.4654 510.7092,-158.0222 550,-207 569.2941,-231.051 546.7951,-251.6155 568,-274 575.9429,-282.3847 587.6367,-287.0739 598.4474,-289.6943"/>
<polygon fill="#9a32cd" stroke="#9a32cd" points="399.2767,-116.2212 388.7045,-116.9137 397.4011,-122.9652 399.2767,-116.2212"/>
<text text-anchor="middle" x="506" y="-210" font-family="Helvetica,sans-Serif" font-size="10.00" fill="#000000"> MaxElapsedTime</text>
</g>
<!-- Node23&#45;&gt;Node23 -->
<g id="edge13" class="edge">
<title>Node23&#45;&gt;Node23</title>
<path fill="none" stroke="#9a32cd" stroke-dasharray="5,2" d="M346.8899,-131.4C348.2997,-136.3146 355.3364,-140 368,-140 388.2617,-140 394.1186,-130.5653 385.5707,-121.7571"/>
<polygon fill="#9a32cd" stroke="#9a32cd" points="350.2693,-132.3507 350.4293,-121.7571 343.6979,-129.9387 350.2693,-132.3507"/>
<text text-anchor="middle" x="368" y="-143" font-family="Helvetica,sans-Serif" font-size="10.00" fill="#000000"> creationTime</text>
</g>
<!-- Node28 -->
<g id="node16" class="node">
<title>Node28</title>
<g id="a_node16"><a xlink:href="classaworx_1_1lib_1_1time_1_1TicksCalendarTime.html" target="_top" xlink:title="TicksCalendarTime">
<polygon fill="#ffffff" stroke="#000000" points="317.5,-384.5 317.5,-403.5 418.5,-403.5 418.5,-384.5 317.5,-384.5"/>
<text text-anchor="middle" x="368" y="-391.5" font-family="Helvetica,sans-Serif" font-size="10.00" fill="#000000">TicksCalendarTime</text>
</a>
</g>
</g>
<!-- Node28&#45;&gt;Node27 -->
<g id="edge22" class="edge">
<title>Node28&#45;&gt;Node27</title>
<path fill="none" stroke="#9a32cd" stroke-dasharray="5,2" d="M407.1949,-406.0961C446.76,-415.7733 507.8779,-423.5181 550,-395 567.8371,-382.9237 556.064,-367.9313 568,-350 580.6734,-330.961 600.5332,-313.1925 613.4091,-302.7107"/>
<polygon fill="#9a32cd" stroke="#9a32cd" points="407.938,-402.6731 397.3793,-403.5476 406.1788,-409.4484 407.938,-402.6731"/>
<text text-anchor="middle" x="506" y="-417" font-family="Helvetica,sans-Serif" font-size="10.00" fill="#000000"> callerDateTime</text>
</g>
<!-- Node29&#45;&gt;Node8 -->
<g id="edge23" class="edge">
<title>Node29&#45;&gt;Node8</title>
<path fill="none" stroke="#9a32cd" stroke-dasharray="5,2" d="M666.7113,-431.3162C692.5858,-421.8074 725.6684,-406.8341 750,-386 785.7374,-355.3996 811.8383,-304.0915 821.6897,-282.7604"/>
<polygon fill="#9a32cd" stroke="#9a32cd" points="665.4372,-428.0543 657.1808,-434.6938 667.7756,-434.6522 665.4372,-428.0543"/>
<text text-anchor="middle" x="726" y="-418" font-family="Helvetica,sans-Serif" font-size="10.00" fill="#000000"> AutoSizes</text>
</g>
<!-- Node31 -->
<g id="node18" class="node">
<title>Node31</title>
<g id="a_node18"><a xlink:href="classaworx_1_1lox_1_1core_1_1textlogger_1_1ObjectConverter.html" target="_top" xlink:title="ObjectConverter">
<polygon fill="#ffffff" stroke="#000000" points="582.5,-245.5 582.5,-264.5 669.5,-264.5 669.5,-245.5 582.5,-245.5"/>
<text text-anchor="middle" x="626" y="-252.5" font-family="Helvetica,sans-Serif" font-size="10.00" fill="#000000">ObjectConverter</text>
</a>
</g>
</g>
<!-- Node31&#45;&gt;Node8 -->
<g id="edge25" class="edge">
<title>Node31&#45;&gt;Node8</title>
<path fill="none" stroke="#9a32cd" stroke-dasharray="5,2" d="M679.8159,-254.3059C701.6542,-254.5433 727.0866,-255.4803 750,-258 764.3042,-259.573 779.928,-262.4515 793.2694,-265.2694"/>
<polygon fill="#9a32cd" stroke="#9a32cd" points="679.7569,-250.8056 669.735,-254.2423 679.7127,-257.8054 679.7569,-250.8056"/>
<text text-anchor="middle" x="726" y="-261" font-family="Helvetica,sans-Serif" font-size="10.00" fill="#000000"> Converter</text>
</g>
<!-- Node37 -->
<g id="node19" class="node">
<title>Node37</title>
<g id="a_node19"><a xlink:title="STL class. ">
<polygon fill="#ffffff" stroke="#bfbfbf" points="340,-718.5 340,-737.5 396,-737.5 396,-718.5 340,-718.5"/>
<text text-anchor="middle" x="368" y="-725.5" font-family="Helvetica,sans-Serif" font-size="10.00" fill="#000000">ios_base</text>
</a>
</g>
</g>
<!-- Node37&#45;&gt;Node36 -->
<g id="edge32" class="edge">
<title>Node37&#45;&gt;Node36</title>
<path fill="none" stroke="#191970" d="M406.1018,-728C452.7302,-728 531.573,-728 581.1001,-728"/>
<polygon fill="#191970" stroke="#191970" points="406.1017,-724.5001 396.1017,-728 406.1016,-731.5001 406.1017,-724.5001"/>
</g>
</g>
</svg>
