<?xml version="1.0" encoding="UTF-8" standalone="no"?>
<!DOCTYPE svg PUBLIC "-//W3C//DTD SVG 1.1//EN"
 "http://www.w3.org/Graphics/SVG/1.1/DTD/svg11.dtd">
<!-- Generated by graphviz version 2.38.0 (20140413.2041)
 -->
<!-- Title: ReportWriter Pages: 1 -->
<svg width="230pt" height="84pt"
 viewBox="0.00 0.00 229.50 84.00" xmlns="http://www.w3.org/2000/svg" xmlns:xlink="http://www.w3.org/1999/xlink">
<g id="graph0" class="graph" transform="scale(1 1) rotate(0) translate(4 80)">
<title>ReportWriter</title>
<polygon fill="white" stroke="none" points="-4,4 -4,-80 225.5,-80 225.5,4 -4,4"/>
<!-- Node1 -->
<g id="node1" class="node"><title>Node1</title>
<polygon fill="#bfbfbf" stroke="black" points="78,-56.5 78,-75.5 150,-75.5 150,-56.5 78,-56.5"/>
<text text-anchor="middle" x="114" y="-63.5" font-family="Helvetica,sans-Serif" font-size="10.00">ReportWriter</text>
</g>
<!-- Node2 -->
<g id="node2" class="node"><title>Node2</title>
<g id="a_node2"><a xlink:href="classaworx_1_1lib_1_1ConsoleReportWriter.html" target="_top" xlink:title="ConsoleReportWriter">
<polygon fill="white" stroke="black" points="0,-0.5 0,-19.5 108,-19.5 108,-0.5 0,-0.5"/>
<text text-anchor="middle" x="54" y="-7.5" font-family="Helvetica,sans-Serif" font-size="10.00">ConsoleReportWriter</text>
</a>
</g>
</g>
<!-- Node1&#45;&gt;Node2 -->
<g id="edge1" class="edge"><title>Node1&#45;&gt;Node2</title>
<path fill="none" stroke="midnightblue" d="M96.8191,-49.5372C86.1208,-39.9087 72.7437,-27.8694 63.8154,-19.8339"/>
<polygon fill="midnightblue" stroke="midnightblue" points="94.5856,-52.2358 104.36,-56.324 99.2684,-47.0327 94.5856,-52.2358"/>
</g>
<!-- Node3 -->
<g id="node3" class="node"><title>Node3</title>
<g id="a_node3"><a xlink:href="classaworx_1_1lox_1_1ALoxReportWriter.html" target="_top" xlink:title="ALoxReportWriter">
<polygon fill="white" stroke="black" points="126.5,-0.5 126.5,-19.5 221.5,-19.5 221.5,-0.5 126.5,-0.5"/>
<text text-anchor="middle" x="174" y="-7.5" font-family="Helvetica,sans-Serif" font-size="10.00">ALoxReportWriter</text>
</a>
</g>
</g>
<!-- Node1&#45;&gt;Node3 -->
<g id="edge2" class="edge"><title>Node1&#45;&gt;Node3</title>
<path fill="none" stroke="midnightblue" d="M131.181,-49.5372C141.879,-39.9087 155.256,-27.8694 164.185,-19.8339"/>
<polygon fill="midnightblue" stroke="midnightblue" points="128.732,-47.0327 123.64,-56.324 133.414,-52.2358 128.732,-47.0327"/>
</g>
</g>
</svg>
