<?xml version="1.0" encoding="UTF-8" standalone="no"?>
<!DOCTYPE svg PUBLIC "-//W3C//DTD SVG 1.1//EN"
 "http://www.w3.org/Graphics/SVG/1.1/DTD/svg11.dtd">
<!-- Generated by graphviz version 2.38.0 (20140413.2041)
 -->
<!-- Title: Domain Pages: 1 -->
<svg width="171pt" height="365pt"
 viewBox="0.00 0.00 171.00 365.00" xmlns="http://www.w3.org/2000/svg" xmlns:xlink="http://www.w3.org/1999/xlink">
<g id="graph0" class="graph" transform="scale(1 1) rotate(0) translate(4 361)">
<title>Domain</title>
<polygon fill="white" stroke="none" points="-4,4 -4,-361 167,-361 167,4 -4,4"/>
<!-- Node1 -->
<g id="node1" class="node"><title>Node1</title>
<polygon fill="#bfbfbf" stroke="black" points="24,-78.5 24,-97.5 74,-97.5 74,-78.5 24,-78.5"/>
<text text-anchor="middle" x="49" y="-85.5" font-family="Helvetica,sans-Serif" font-size="10.00">Domain</text>
</g>
<!-- Node1&#45;&gt;Node1 -->
<g id="edge8" class="edge"><title>Node1&#45;&gt;Node1</title>
<path fill="none" stroke="#9a32cd" stroke-dasharray="5,2" d="M84.446,-93.2543C88.9957,-92.3413 92,-90.5898 92,-88 92,-83.75 83.9095,-81.7578 74.1756,-82.0234"/>
<polygon fill="#9a32cd" stroke="#9a32cd" points="83.9054,-89.7836 74.1756,-93.9766 84.3966,-96.7663 83.9054,-89.7836"/>
<text text-anchor="middle" x="108" y="-85.5" font-family="Helvetica,sans-Serif" font-size="10.00"> Parent</text>
</g>
<!-- Node6 -->
<g id="node6" class="node"><title>Node6</title>
<polygon fill="white" stroke="#bfbfbf" points="0,-0.5 0,-30.5 98,-30.5 98,-0.5 0,-0.5"/>
<text text-anchor="start" x="8" y="-18.5" font-family="Helvetica,sans-Serif" font-size="10.00">vector&lt; aworx::lox</text>
<text text-anchor="middle" x="49" y="-7.5" font-family="Helvetica,sans-Serif" font-size="10.00">::core::Domain * &gt;</text>
</g>
<!-- Node1&#45;&gt;Node6 -->
<g id="edge7" class="edge"><title>Node1&#45;&gt;Node6</title>
<path fill="none" stroke="#9a32cd" stroke-dasharray="5,2" d="M22.8188,-72.576C14.7983,-66.1333 9.01388,-57.9688 13,-49 16.1462,-41.9211 21.6804,-35.7328 27.48,-30.7092"/>
<polygon fill="#9a32cd" stroke="#9a32cd" points="21.0822,-75.6295 31.3055,-78.4107 25.048,-69.8612 21.0822,-75.6295"/>
<text text-anchor="middle" x="34.5" y="-52" font-family="Helvetica,sans-Serif" font-size="10.00"> elements</text>
</g>
<!-- Node2 -->
<g id="node2" class="node"><title>Node2</title>
<g id="a_node2"><a xlink:href="classaworx_1_1lib_1_1strings_1_1TString.html" target="_top" xlink:title="TString">
<polygon fill="white" stroke="black" points="5,-280.5 5,-299.5 53,-299.5 53,-280.5 5,-280.5"/>
<text text-anchor="middle" x="29" y="-287.5" font-family="Helvetica,sans-Serif" font-size="10.00">TString</text>
</a>
</g>
</g>
<!-- Node2&#45;&gt;Node1 -->
<g id="edge1" class="edge"><title>Node2&#45;&gt;Node1</title>
<path fill="none" stroke="#9a32cd" stroke-dasharray="5,2" d="M22.6751,-270.812C16.8328,-251.685 9.66471,-220.715 14,-194 20.002,-157.014 37.1679,-115.451 45.0077,-97.744"/>
<polygon fill="#9a32cd" stroke="#9a32cd" points="19.3574,-271.928 25.784,-280.351 26.0129,-269.759 19.3574,-271.928"/>
<text text-anchor="middle" x="67" y="-197" font-family="Helvetica,sans-Serif" font-size="10.00"> DomainSeparatorChars</text>
</g>
<!-- Node5 -->
<g id="node5" class="node"><title>Node5</title>
<g id="a_node5"><a xlink:href="classaworx_1_1lib_1_1strings_1_1AString.html" target="_top" xlink:title="AString">
<polygon fill="white" stroke="black" points="79.5,-223.5 79.5,-242.5 128.5,-242.5 128.5,-223.5 79.5,-223.5"/>
<text text-anchor="middle" x="104" y="-230.5" font-family="Helvetica,sans-Serif" font-size="10.00">AString</text>
</a>
</g>
</g>
<!-- Node2&#45;&gt;Node5 -->
<g id="edge5" class="edge"><title>Node2&#45;&gt;Node5</title>
<path fill="none" stroke="midnightblue" d="M49.0632,-274.287C62.8052,-264.21 80.5658,-251.185 92.116,-242.715"/>
<polygon fill="midnightblue" stroke="midnightblue" points="46.713,-271.67 40.7188,-280.406 50.8526,-277.315 46.713,-271.67"/>
</g>
<!-- Node3 -->
<g id="node3" class="node"><title>Node3</title>
<g id="a_node3"><a xlink:href="classaworx_1_1lib_1_1strings_1_1String.html" target="_top" xlink:title="String">
<polygon fill="white" stroke="black" points="8,-337.5 8,-356.5 50,-356.5 50,-337.5 8,-337.5"/>
<text text-anchor="middle" x="29" y="-344.5" font-family="Helvetica,sans-Serif" font-size="10.00">String</text>
</a>
</g>
</g>
<!-- Node3&#45;&gt;Node2 -->
<g id="edge2" class="edge"><title>Node3&#45;&gt;Node2</title>
<path fill="none" stroke="midnightblue" d="M29,-327.117C29,-317.817 29,-307.056 29,-299.715"/>
<polygon fill="midnightblue" stroke="midnightblue" points="25.5001,-327.406 29,-337.406 32.5001,-327.406 25.5001,-327.406"/>
</g>
<!-- Node4 -->
<g id="node4" class="node"><title>Node4</title>
<g id="a_node4"><a xlink:href="classaworx_1_1lib_1_1strings_1_1PreallocatedString.html" target="_top" xlink:title="PreallocatedString\l\&lt; 32 \&gt;">
<polygon fill="white" stroke="black" points="67,-145.5 67,-175.5 163,-175.5 163,-145.5 67,-145.5"/>
<text text-anchor="start" x="75" y="-163.5" font-family="Helvetica,sans-Serif" font-size="10.00">PreallocatedString</text>
<text text-anchor="middle" x="115" y="-152.5" font-family="Helvetica,sans-Serif" font-size="10.00">&lt; 32 &gt;</text>
</a>
</g>
</g>
<!-- Node4&#45;&gt;Node1 -->
<g id="edge3" class="edge"><title>Node4&#45;&gt;Node1</title>
<path fill="none" stroke="#9a32cd" stroke-dasharray="5,2" d="M94.6491,-137.762C82.0879,-124.344 66.6456,-107.849 57.3255,-97.8932"/>
<polygon fill="#9a32cd" stroke="#9a32cd" points="92.2546,-140.325 101.644,-145.233 97.3647,-135.541 92.2546,-140.325"/>
<text text-anchor="middle" x="99" y="-119" font-family="Helvetica,sans-Serif" font-size="10.00"> Name</text>
</g>
<!-- Node5&#45;&gt;Node4 -->
<g id="edge4" class="edge"><title>Node5&#45;&gt;Node4</title>
<path fill="none" stroke="midnightblue" d="M118.907,-215.192C120.998,-211.999 122.831,-208.542 124,-205 127.142,-195.479 124.772,-184.411 121.678,-175.821"/>
<polygon fill="midnightblue" stroke="midnightblue" points="115.963,-213.279 112.66,-223.346 121.52,-217.536 115.963,-213.279"/>
</g>
<!-- Node6&#45;&gt;Node1 -->
<g id="edge6" class="edge"><title>Node6&#45;&gt;Node1</title>
<path fill="none" stroke="#9a32cd" stroke-dasharray="5,2" d="M58.968,-40.4904C60.5187,-46.8057 61.2471,-53.6336 60,-60 58.7545,-66.358 56.0045,-73.108 53.5659,-78.2685"/>
<polygon fill="#9a32cd" stroke="#9a32cd" points="62.1603,-38.9807 55.7859,-30.518 55.4915,-41.1087 62.1603,-38.9807"/>
<text text-anchor="middle" x="91" y="-52" font-family="Helvetica,sans-Serif" font-size="10.00"> SubDomains</text>
</g>
</g>
</svg>
