<?xml version="1.0" encoding="UTF-8" standalone="no"?>
<!DOCTYPE svg PUBLIC "-//W3C//DTD SVG 1.1//EN"
 "http://www.w3.org/Graphics/SVG/1.1/DTD/svg11.dtd">
<!-- Generated by graphviz version 2.38.0 (20140413.2041)
 -->
<!-- Title: InMemoryPlugin Pages: 1 -->
<svg width="863pt" height="111pt"
 viewBox="0.00 0.00 863.00 111.00" xmlns="http://www.w3.org/2000/svg" xmlns:xlink="http://www.w3.org/1999/xlink">
<g id="graph0" class="graph" transform="scale(1 1) rotate(0) translate(4 107)">
<title>InMemoryPlugin</title>
<polygon fill="white" stroke="none" points="-4,4 -4,-107 859,-107 859,4 -4,4"/>
<!-- Node1 -->
<g id="node1" class="node"><title>Node1</title>
<polygon fill="#bfbfbf" stroke="black" points="768,-23.5 768,-42.5 855,-42.5 855,-23.5 768,-23.5"/>
<text text-anchor="middle" x="811.5" y="-30.5" font-family="Helvetica,sans-Serif" font-size="10.00">InMemoryPlugin</text>
</g>
<!-- Node4 -->
<g id="node2" class="node"><title>Node4</title>
<polygon fill="white" stroke="#bfbfbf" points="518,-43.5 518,-62.5 690,-62.5 690,-43.5 518,-43.5"/>
<text text-anchor="middle" x="604" y="-50.5" font-family="Helvetica,sans-Serif" font-size="10.00">vector&lt;InMemoryPlugin::Section *&gt;</text>
</g>
<!-- Node4&#45;&gt;Node1 -->
<g id="edge3" class="edge"><title>Node4&#45;&gt;Node1</title>
<path fill="none" stroke="#9a32cd" stroke-dasharray="5,2" d="M700.193,-43.7355C723.929,-41.4254 748.206,-39.0626 767.921,-37.144"/>
<polygon fill="#9a32cd" stroke="#9a32cd" points="699.682,-40.2686 690.068,-44.7209 700.36,-47.2357 699.682,-40.2686"/>
<text text-anchor="middle" x="729" y="-45" font-family="Helvetica,sans-Serif" font-size="10.00"> Sections</text>
</g>
<!-- Node8 -->
<g id="node3" class="node"><title>Node8</title>
<polygon fill="white" stroke="#bfbfbf" points="86,-83.5 86,-102.5 248,-102.5 248,-83.5 86,-83.5"/>
<text text-anchor="middle" x="167" y="-90.5" font-family="Helvetica,sans-Serif" font-size="10.00">vector&lt;InMemoryPlugin::Entry *&gt;</text>
</g>
<!-- Node5 -->
<g id="node7" class="node"><title>Node5</title>
<g id="a_node7"><a xlink:href="classaworx_1_1lib_1_1config_1_1InMemoryPlugin_1_1Section.html" target="_top" xlink:title="Section">
<polygon fill="white" stroke="black" points="326,-45.5 326,-64.5 376,-64.5 376,-45.5 326,-45.5"/>
<text text-anchor="middle" x="351" y="-52.5" font-family="Helvetica,sans-Serif" font-size="10.00">Section</text>
</a>
</g>
</g>
<!-- Node8&#45;&gt;Node5 -->
<g id="edge8" class="edge"><title>Node8&#45;&gt;Node5</title>
<path fill="none" stroke="#9a32cd" stroke-dasharray="5,2" d="M241.872,-81.7241C260.903,-78.3833 281.29,-74.42 300,-70 308.555,-67.9789 317.806,-65.3359 325.996,-62.8324"/>
<polygon fill="#9a32cd" stroke="#9a32cd" points="241.021,-78.3189 231.759,-83.464 242.208,-85.2175 241.021,-78.3189"/>
<text text-anchor="middle" x="283" y="-79" font-family="Helvetica,sans-Serif" font-size="10.00"> Entries</text>
</g>
<!-- Node7 -->
<g id="node4" class="node"><title>Node7</title>
<g id="a_node4"><a xlink:href="classaworx_1_1lib_1_1strings_1_1PreallocatedString.html" target="_top" xlink:title="PreallocatedString\&lt;TCapacity\&gt;">
<polygon fill="white" stroke="black" points="90.5,-45.5 90.5,-64.5 243.5,-64.5 243.5,-45.5 90.5,-45.5"/>
<text text-anchor="middle" x="167" y="-52.5" font-family="Helvetica,sans-Serif" font-size="10.00">PreallocatedString&lt;TCapacity&gt;</text>
</a>
</g>
</g>
<!-- Node7&#45;&gt;Node5 -->
<g id="edge7" class="edge"><title>Node7&#45;&gt;Node5</title>
<path fill="none" stroke="#9a32cd" stroke-dasharray="5,2" d="M253.694,-55C280.147,-55 307.2,-55 325.871,-55"/>
<polygon fill="#9a32cd" stroke="#9a32cd" points="253.603,-51.5001 243.603,-55 253.603,-58.5001 253.603,-51.5001"/>
<text text-anchor="middle" x="283" y="-58" font-family="Helvetica,sans-Serif" font-size="10.00"> Name</text>
</g>
<!-- Node2 -->
<g id="node5" class="node"><title>Node2</title>
<g id="a_node5"><a xlink:href="classaworx_1_1lib_1_1config_1_1ConfigurationPlugin.html" target="_top" xlink:title="ConfigurationPlugin">
<polygon fill="white" stroke="black" points="553.5,-3.5 553.5,-22.5 654.5,-22.5 654.5,-3.5 553.5,-3.5"/>
<text text-anchor="middle" x="604" y="-10.5" font-family="Helvetica,sans-Serif" font-size="10.00">ConfigurationPlugin</text>
</a>
</g>
</g>
<!-- Node2&#45;&gt;Node1 -->
<g id="edge1" class="edge"><title>Node2&#45;&gt;Node1</title>
<path fill="none" stroke="midnightblue" d="M664.739,-18.814C697.749,-22.0266 737.986,-25.9427 767.815,-28.8457"/>
<polygon fill="midnightblue" stroke="midnightblue" points="665.038,-15.3267 654.746,-17.8414 664.36,-22.2937 665.038,-15.3267"/>
</g>
<!-- Node3 -->
<g id="node6" class="node"><title>Node3</title>
<g id="a_node6"><a xlink:href="classaworx_1_1lib_1_1config_1_1XTernalizer.html" target="_top" xlink:title="XTernalizer">
<polygon fill="white" stroke="black" points="318,-0.5 318,-19.5 384,-19.5 384,-0.5 318,-0.5"/>
<text text-anchor="middle" x="351" y="-7.5" font-family="Helvetica,sans-Serif" font-size="10.00">XTernalizer</text>
</a>
</g>
</g>
<!-- Node3&#45;&gt;Node2 -->
<g id="edge2" class="edge"><title>Node3&#45;&gt;Node2</title>
<path fill="none" stroke="#9a32cd" stroke-dasharray="5,2" d="M394.107,-10.5033C438.048,-11.0285 506.902,-11.8514 553.436,-12.4076"/>
<polygon fill="#9a32cd" stroke="#9a32cd" points="394.085,-7.00286 384.044,-10.383 394.002,-14.0024 394.085,-7.00286"/>
<text text-anchor="middle" x="451" y="-26" font-family="Helvetica,sans-Serif" font-size="10.00"> StringConverter</text>
<text text-anchor="middle" x="451" y="-15" font-family="Helvetica,sans-Serif" font-size="10.00">defaultStringConverter</text>
</g>
<!-- Node5&#45;&gt;Node4 -->
<g id="edge4" class="edge"><title>Node5&#45;&gt;Node4</title>
<path fill="none" stroke="#9a32cd" stroke-dasharray="5,2" d="M386.314,-54.7266C420.049,-54.4578 472.883,-54.0368 517.934,-53.6778"/>
<polygon fill="#9a32cd" stroke="#9a32cd" points="386.039,-51.2286 376.067,-54.8082 386.095,-58.2283 386.039,-51.2286"/>
<text text-anchor="middle" x="451" y="-57" font-family="Helvetica,sans-Serif" font-size="10.00"> elements</text>
</g>
<!-- Node6 -->
<g id="node8" class="node"><title>Node6</title>
<g id="a_node8"><a xlink:href="classaworx_1_1lib_1_1strings_1_1AString.html" target="_top" xlink:title="AString">
<polygon fill="white" stroke="red" points="0,-22.5 0,-41.5 49,-41.5 49,-22.5 0,-22.5"/>
<text text-anchor="middle" x="24.5" y="-29.5" font-family="Helvetica,sans-Serif" font-size="10.00">AString</text>
</a>
</g>
</g>
<!-- Node6&#45;&gt;Node7 -->
<g id="edge6" class="edge"><title>Node6&#45;&gt;Node7</title>
<path fill="none" stroke="midnightblue" d="M59.0757,-37.4964C73.6794,-39.887 91.2217,-42.7587 107.834,-45.4782"/>
<polygon fill="midnightblue" stroke="midnightblue" points="59.4506,-34.0112 49.0165,-35.8497 58.3197,-40.9193 59.4506,-34.0112"/>
</g>
<!-- Node6&#45;&gt;Node5 -->
<g id="edge5" class="edge"><title>Node6&#45;&gt;Node5</title>
<path fill="none" stroke="#9a32cd" stroke-dasharray="5,2" d="M59.1155,-27.3261C102.861,-22.0687 181.562,-15.4324 248,-25 275.222,-28.9202 305.31,-38.4399 325.705,-45.7129"/>
<polygon fill="#9a32cd" stroke="#9a32cd" points="58.5217,-23.873 49.0342,-28.5885 59.3916,-30.8188 58.5217,-23.873"/>
<text text-anchor="middle" x="167" y="-28" font-family="Helvetica,sans-Serif" font-size="10.00"> Comments</text>
</g>
</g>
</svg>
