<?xml version="1.0" encoding="UTF-8" standalone="no"?>
<!DOCTYPE svg PUBLIC "-//W3C//DTD SVG 1.1//EN"
 "http://www.w3.org/Graphics/SVG/1.1/DTD/svg11.dtd">
<!-- Generated by graphviz version 2.38.0 (20140413.2041)
 -->
<!-- Title: Thread Pages: 1 -->
<svg width="599pt" height="119pt"
 viewBox="0.00 0.00 599.00 119.00" xmlns="http://www.w3.org/2000/svg" xmlns:xlink="http://www.w3.org/1999/xlink">
<g id="graph0" class="graph" transform="scale(1 1) rotate(0) translate(4 115)">
<title>Thread</title>
<polygon fill="white" stroke="none" points="-4,4 -4,-115 595,-115 595,4 -4,4"/>
<!-- Node1 -->
<g id="node1" class="node"><title>Node1</title>
<polygon fill="#bfbfbf" stroke="black" points="352,-56.5 352,-75.5 399,-75.5 399,-56.5 352,-56.5"/>
<text text-anchor="middle" x="375.5" y="-63.5" font-family="Helvetica,sans-Serif" font-size="10.00">Thread</text>
</g>
<!-- Node6 -->
<g id="node6" class="node"><title>Node6</title>
<polygon fill="white" stroke="#bfbfbf" points="484,-45.5 484,-86.5 591,-86.5 591,-45.5 484,-45.5"/>
<text text-anchor="start" x="492" y="-74.5" font-family="Helvetica,sans-Serif" font-size="10.00">map&lt; std::thread::id,</text>
<text text-anchor="start" x="492" y="-63.5" font-family="Helvetica,sans-Serif" font-size="10.00"> aworx::lib::threads</text>
<text text-anchor="middle" x="537.5" y="-52.5" font-family="Helvetica,sans-Serif" font-size="10.00">::Thread * &gt;</text>
</g>
<!-- Node1&#45;&gt;Node6 -->
<g id="edge7" class="edge"><title>Node1&#45;&gt;Node6</title>
<path fill="none" stroke="#9a32cd" stroke-dasharray="5,2" d="M409.321,-66C430.816,-66 459.381,-66 483.993,-66"/>
<polygon fill="#9a32cd" stroke="#9a32cd" points="409.085,-62.5001 399.085,-66 409.085,-69.5001 409.085,-62.5001"/>
<text text-anchor="middle" x="441.5" y="-69" font-family="Helvetica,sans-Serif" font-size="10.00"> elements</text>
</g>
<!-- Node2 -->
<g id="node2" class="node"><title>Node2</title>
<g id="a_node2"><a xlink:href="classaworx_1_1lib_1_1threads_1_1Runnable.html" target="_top" xlink:title="Runnable">
<polygon fill="white" stroke="black" points="190,-91.5 190,-110.5 248,-110.5 248,-91.5 190,-91.5"/>
<text text-anchor="middle" x="219" y="-98.5" font-family="Helvetica,sans-Serif" font-size="10.00">Runnable</text>
</a>
</g>
</g>
<!-- Node2&#45;&gt;Node1 -->
<g id="edge1" class="edge"><title>Node2&#45;&gt;Node1</title>
<path fill="none" stroke="midnightblue" d="M258.259,-104.269C280.893,-104.922 309.779,-103.486 334,-95 345.589,-90.9395 356.783,-82.461 364.454,-75.715"/>
<polygon fill="midnightblue" stroke="midnightblue" points="258.162,-100.762 248.019,-103.822 257.856,-107.755 258.162,-100.762"/>
</g>
<!-- Node2&#45;&gt;Node1 -->
<g id="edge2" class="edge"><title>Node2&#45;&gt;Node1</title>
<path fill="none" stroke="#9a32cd" stroke-dasharray="5,2" d="M257.964,-89.1597C266.791,-86.614 276.185,-84.0699 285,-82 307.589,-76.6956 333.746,-72.2074 351.926,-69.347"/>
<polygon fill="#9a32cd" stroke="#9a32cd" points="256.902,-85.8237 248.3,-92.0092 258.882,-92.5379 256.902,-85.8237"/>
<text text-anchor="middle" x="309.5" y="-85" font-family="Helvetica,sans-Serif" font-size="10.00"> runnable</text>
</g>
<!-- Node3 -->
<g id="node3" class="node"><title>Node3</title>
<g id="a_node3"><a xlink:href="classaworx_1_1lib_1_1strings_1_1PreallocatedString.html" target="_top" xlink:title="PreallocatedString\l\&lt; 64 \&gt;">
<polygon fill="white" stroke="black" points="171,-39 171,-69 267,-69 267,-39 171,-39"/>
<text text-anchor="start" x="179" y="-57" font-family="Helvetica,sans-Serif" font-size="10.00">PreallocatedString</text>
<text text-anchor="middle" x="219" y="-46" font-family="Helvetica,sans-Serif" font-size="10.00">&lt; 64 &gt;</text>
</a>
</g>
</g>
<!-- Node3&#45;&gt;Node1 -->
<g id="edge3" class="edge"><title>Node3&#45;&gt;Node1</title>
<path fill="none" stroke="#9a32cd" stroke-dasharray="5,2" d="M277.416,-47.0292C295.639,-46.1362 315.782,-46.5319 334,-50 340.981,-51.329 348.296,-53.8392 354.758,-56.4841"/>
<polygon fill="#9a32cd" stroke="#9a32cd" points="276.988,-43.5491 267.227,-47.6684 277.427,-50.5354 276.988,-43.5491"/>
<text text-anchor="middle" x="309.5" y="-53" font-family="Helvetica,sans-Serif" font-size="10.00"> name</text>
</g>
<!-- Node4 -->
<g id="node4" class="node"><title>Node4</title>
<g id="a_node4"><a xlink:href="classaworx_1_1lib_1_1strings_1_1AString.html" target="_top" xlink:title="AString">
<polygon fill="white" stroke="black" points="85,-44.5 85,-63.5 134,-63.5 134,-44.5 85,-44.5"/>
<text text-anchor="middle" x="109.5" y="-51.5" font-family="Helvetica,sans-Serif" font-size="10.00">AString</text>
</a>
</g>
</g>
<!-- Node4&#45;&gt;Node3 -->
<g id="edge4" class="edge"><title>Node4&#45;&gt;Node3</title>
<path fill="none" stroke="midnightblue" d="M144.224,-54C152.603,-54 161.738,-54 170.637,-54"/>
<polygon fill="midnightblue" stroke="midnightblue" points="144.091,-50.5001 134.091,-54 144.091,-57.5001 144.091,-50.5001"/>
</g>
<!-- Node5 -->
<g id="node5" class="node"><title>Node5</title>
<g id="a_node5"><a xlink:href="classaworx_1_1lib_1_1strings_1_1TString.html" target="_top" xlink:title="TString">
<polygon fill="white" stroke="red" points="0,-44.5 0,-63.5 48,-63.5 48,-44.5 0,-44.5"/>
<text text-anchor="middle" x="24" y="-51.5" font-family="Helvetica,sans-Serif" font-size="10.00">TString</text>
</a>
</g>
</g>
<!-- Node5&#45;&gt;Node4 -->
<g id="edge5" class="edge"><title>Node5&#45;&gt;Node4</title>
<path fill="none" stroke="midnightblue" d="M58.3132,-54C67.1705,-54 76.5564,-54 84.7851,-54"/>
<polygon fill="midnightblue" stroke="midnightblue" points="58.2594,-50.5001 48.2594,-54 58.2594,-57.5001 58.2594,-50.5001"/>
</g>
<!-- Node6&#45;&gt;Node1 -->
<g id="edge6" class="edge"><title>Node6&#45;&gt;Node1</title>
<path fill="none" stroke="#9a32cd" stroke-dasharray="5,2" d="M473.921,-50.0479C455.517,-47.3971 435.39,-46.499 417,-50 410.019,-51.329 402.704,-53.8392 396.242,-56.4841"/>
<polygon fill="#9a32cd" stroke="#9a32cd" points="473.513,-53.5276 483.947,-51.6841 474.641,-46.619 473.513,-53.5276"/>
<text text-anchor="middle" x="441.5" y="-53" font-family="Helvetica,sans-Serif" font-size="10.00"> threadMap</text>
</g>
<!-- Node7 -->
<g id="node7" class="node"><title>Node7</title>
<g id="a_node7"><a xlink:title="STL class. ">
<polygon fill="white" stroke="#bfbfbf" points="197,-0.5 197,-19.5 241,-19.5 241,-0.5 197,-0.5"/>
<text text-anchor="middle" x="219" y="-7.5" font-family="Helvetica,sans-Serif" font-size="10.00">thread</text>
</a>
</g>
</g>
<!-- Node7&#45;&gt;Node1 -->
<g id="edge8" class="edge"><title>Node7&#45;&gt;Node1</title>
<path fill="none" stroke="#9a32cd" stroke-dasharray="5,2" d="M251.344,-11.7835C275.021,-14.1213 307.803,-19.5226 334,-32 346.433,-37.9216 358.2,-48.5768 365.814,-56.3854"/>
<polygon fill="#9a32cd" stroke="#9a32cd" points="251.424,-8.27761 241.162,-10.9104 250.826,-15.252 251.424,-8.27761"/>
<text text-anchor="middle" x="309.5" y="-35" font-family="Helvetica,sans-Serif" font-size="10.00"> c11Thread</text>
</g>
</g>
</svg>
