<?xml version="1.0" encoding="UTF-8" standalone="no"?>
<!DOCTYPE svg PUBLIC "-//W3C//DTD SVG 1.1//EN"
 "http://www.w3.org/Graphics/SVG/1.1/DTD/svg11.dtd">
<!-- Generated by graphviz version 2.38.0 (20140413.2041)
 -->
<!-- Title: IniFile::Section Pages: 1 -->
<svg width="235pt" height="308pt"
 viewBox="0.00 0.00 234.50 308.00" xmlns="http://www.w3.org/2000/svg" xmlns:xlink="http://www.w3.org/1999/xlink">
<g id="graph0" class="graph" transform="scale(1 1) rotate(0) translate(4 304)">
<title>IniFile::Section</title>
<polygon fill="white" stroke="none" points="-4,4 -4,-304 230.5,-304 230.5,4 -4,4"/>
<!-- Node1 -->
<g id="node1" class="node"><title>Node1</title>
<polygon fill="#bfbfbf" stroke="black" points="56,-0.5 56,-19.5 138,-19.5 138,-0.5 56,-0.5"/>
<text text-anchor="middle" x="97" y="-7.5" font-family="Helvetica,sans-Serif" font-size="10.00">IniFile::Section</text>
</g>
<!-- Node2 -->
<g id="node2" class="node"><title>Node2</title>
<polygon fill="white" stroke="#bfbfbf" points="28,-67.5 28,-97.5 166,-97.5 166,-67.5 28,-67.5"/>
<text text-anchor="start" x="36" y="-85.5" font-family="Helvetica,sans-Serif" font-size="10.00">vector&lt; aworx::lib</text>
<text text-anchor="middle" x="97" y="-74.5" font-family="Helvetica,sans-Serif" font-size="10.00">::config::IniFile::Variable * &gt;</text>
</g>
<!-- Node2&#45;&gt;Node1 -->
<g id="edge1" class="edge"><title>Node2&#45;&gt;Node1</title>
<path fill="none" stroke="#9a32cd" stroke-dasharray="5,2" d="M97,-57.0913C97,-44.2136 97,-29.1974 97,-19.8932"/>
<polygon fill="#9a32cd" stroke="#9a32cd" points="93.5001,-57.2332 97,-67.2333 100.5,-57.2333 93.5001,-57.2332"/>
<text text-anchor="middle" x="119" y="-41" font-family="Helvetica,sans-Serif" font-size="10.00"> Variables</text>
</g>
<!-- Node3 -->
<g id="node3" class="node"><title>Node3</title>
<g id="a_node3"><a xlink:href="classaworx_1_1lib_1_1config_1_1IniFile_1_1Variable.html" target="_top" xlink:title="Variable">
<polygon fill="white" stroke="black" points="71,-145.5 71,-164.5 123,-164.5 123,-145.5 71,-145.5"/>
<text text-anchor="middle" x="97" y="-152.5" font-family="Helvetica,sans-Serif" font-size="10.00">Variable</text>
</a>
</g>
</g>
<!-- Node3&#45;&gt;Node2 -->
<g id="edge2" class="edge"><title>Node3&#45;&gt;Node2</title>
<path fill="none" stroke="#9a32cd" stroke-dasharray="5,2" d="M97,-135.236C97,-123.408 97,-108.383 97,-97.5762"/>
<polygon fill="#9a32cd" stroke="#9a32cd" points="93.5001,-135.355 97,-145.355 100.5,-135.355 93.5001,-135.355"/>
<text text-anchor="middle" x="118.5" y="-119" font-family="Helvetica,sans-Serif" font-size="10.00"> elements</text>
</g>
<!-- Node4 -->
<g id="node4" class="node"><title>Node4</title>
<g id="a_node4"><a xlink:href="classaworx_1_1lib_1_1strings_1_1ASPreAlloc.html" target="_top" xlink:title="ASPreAlloc\&lt; 32 \&gt;">
<polygon fill="white" stroke="black" points="131.5,-223.5 131.5,-242.5 226.5,-242.5 226.5,-223.5 131.5,-223.5"/>
<text text-anchor="middle" x="179" y="-230.5" font-family="Helvetica,sans-Serif" font-size="10.00">ASPreAlloc&lt; 32 &gt;</text>
</a>
</g>
</g>
<!-- Node4&#45;&gt;Node1 -->
<g id="edge6" class="edge"><title>Node4&#45;&gt;Node1</title>
<path fill="none" stroke="#9a32cd" stroke-dasharray="5,2" d="M183.073,-213.167C188.981,-181.406 196.985,-115.875 175,-67 164.537,-43.7395 138.719,-28.2797 119.638,-19.6049"/>
<polygon fill="#9a32cd" stroke="#9a32cd" points="179.586,-212.755 181.05,-223.248 186.449,-214.132 179.586,-212.755"/>
<text text-anchor="middle" x="203" y="-119" font-family="Helvetica,sans-Serif" font-size="10.00"> Name</text>
</g>
<!-- Node4&#45;&gt;Node3 -->
<g id="edge3" class="edge"><title>Node4&#45;&gt;Node3</title>
<path fill="none" stroke="#9a32cd" stroke-dasharray="5,2" d="M162.065,-216.304C145.167,-200.642 119.826,-177.156 106.297,-164.616"/>
<polygon fill="#9a32cd" stroke="#9a32cd" points="159.88,-219.051 169.594,-223.282 164.638,-213.917 159.88,-219.051"/>
<text text-anchor="middle" x="162" y="-197" font-family="Helvetica,sans-Serif" font-size="10.00"> Name</text>
<text text-anchor="middle" x="162" y="-186" font-family="Helvetica,sans-Serif" font-size="10.00">Value</text>
</g>
<!-- Node5 -->
<g id="node5" class="node"><title>Node5</title>
<g id="a_node5"><a xlink:href="classaworx_1_1lib_1_1strings_1_1ASAlloc.html" target="_top" xlink:title="ASAlloc">
<polygon fill="white" stroke="red" points="35,-280.5 35,-299.5 87,-299.5 87,-280.5 35,-280.5"/>
<text text-anchor="middle" x="61" y="-287.5" font-family="Helvetica,sans-Serif" font-size="10.00">ASAlloc</text>
</a>
</g>
</g>
<!-- Node5&#45;&gt;Node1 -->
<g id="edge7" class="edge"><title>Node5&#45;&gt;Node1</title>
<path fill="none" stroke="#9a32cd" stroke-dasharray="5,2" d="M31.0612,-275.525C15.6265,-266.339 0,-252.476 0,-234 0,-234 0,-234 0,-81.5 0,-48.503 37.1835,-29.3404 65.5069,-19.5303"/>
<polygon fill="#9a32cd" stroke="#9a32cd" points="29.5506,-278.688 40.0073,-280.393 32.8964,-272.539 29.5506,-278.688"/>
<text text-anchor="middle" x="26" y="-152.5" font-family="Helvetica,sans-Serif" font-size="10.00"> Comments</text>
</g>
<!-- Node5&#45;&gt;Node3 -->
<g id="edge5" class="edge"><title>Node5&#45;&gt;Node3</title>
<path fill="none" stroke="#9a32cd" stroke-dasharray="5,2" d="M62.3328,-270.042C63.572,-256.717 65.8719,-238.562 70,-223 75.7237,-201.423 86.5413,-177.46 92.6019,-164.86"/>
<polygon fill="#9a32cd" stroke="#9a32cd" points="58.8189,-270.072 61.4975,-280.323 65.7959,-270.639 58.8189,-270.072"/>
<text text-anchor="middle" x="96" y="-230.5" font-family="Helvetica,sans-Serif" font-size="10.00"> Comments</text>
</g>
<!-- Node5&#45;&gt;Node4 -->
<g id="edge4" class="edge"><title>Node5&#45;&gt;Node4</title>
<path fill="none" stroke="midnightblue" d="M88.685,-276.096C110.892,-265.745 141.432,-251.511 160.692,-242.533"/>
<polygon fill="midnightblue" stroke="midnightblue" points="87.0227,-273.009 79.4375,-280.406 89.9799,-279.354 87.0227,-273.009"/>
</g>
</g>
</svg>
