<?xml version="1.0" encoding="UTF-8" standalone="no"?>
<!DOCTYPE svg PUBLIC "-//W3C//DTD SVG 1.1//EN"
 "http://www.w3.org/Graphics/SVG/1.1/DTD/svg11.dtd">
<!-- Generated by graphviz version 2.38.0 (20140413.2041)
 -->
<!-- Title: TextFileLogger Pages: 1 -->
<svg width="982pt" height="542pt"
 viewBox="0.00 0.00 982.00 542.00" xmlns="http://www.w3.org/2000/svg" xmlns:xlink="http://www.w3.org/1999/xlink">
<g id="graph0" class="graph" transform="scale(1 1) rotate(0) translate(4 538)">
<title>TextFileLogger</title>
<polygon fill="white" stroke="none" points="-4,4 -4,-538 978,-538 978,4 -4,4"/>
<!-- Node1 -->
<g id="node1" class="node"><title>Node1</title>
<polygon fill="#bfbfbf" stroke="black" points="893,-295.5 893,-314.5 974,-314.5 974,-295.5 893,-295.5"/>
<text text-anchor="middle" x="933.5" y="-302.5" font-family="Helvetica,sans-Serif" font-size="10.00">TextFileLogger</text>
</g>
<!-- Node6 -->
<g id="node2" class="node"><title>Node6</title>
<polygon fill="white" stroke="#bfbfbf" points="252,-368 252,-398 351,-398 351,-368 252,-368"/>
<text text-anchor="start" x="260" y="-386" font-family="Helvetica,sans-Serif" font-size="10.00">vector&lt; aworx::lib</text>
<text text-anchor="middle" x="301.5" y="-375" font-family="Helvetica,sans-Serif" font-size="10.00">::strings::AString &gt;</text>
</g>
<!-- Node3 -->
<g id="node7" class="node"><title>Node3</title>
<g id="a_node7"><a xlink:href="classaworx_1_1lox_1_1core_1_1textlogger_1_1TextLogger.html" target="_top" xlink:title="TextLogger">
<polygon fill="white" stroke="black" points="626.5,-295.5 626.5,-314.5 691.5,-314.5 691.5,-295.5 626.5,-295.5"/>
<text text-anchor="middle" x="659" y="-302.5" font-family="Helvetica,sans-Serif" font-size="10.00">TextLogger</text>
</a>
</g>
</g>
<!-- Node6&#45;&gt;Node3 -->
<g id="edge5" class="edge"><title>Node6&#45;&gt;Node3</title>
<path fill="none" stroke="#9a32cd" stroke-dasharray="5,2" d="M361.074,-385.435C397.852,-385.823 446.088,-384.239 488,-376 531.183,-367.511 540.452,-359.106 581,-342 601.224,-333.468 623.8,-322.435 639.248,-314.644"/>
<polygon fill="#9a32cd" stroke="#9a32cd" points="361.073,-381.935 351.02,-385.277 360.963,-388.934 361.073,-381.935"/>
<text text-anchor="middle" x="428.5" y="-389" font-family="Helvetica,sans-Serif" font-size="10.00"> replacements</text>
</g>
<!-- Node13 -->
<g id="node3" class="node"><title>Node13</title>
<g id="a_node3"><a xlink:title="STL class. ">
<polygon fill="white" stroke="#bfbfbf" points="599,-117.5 599,-136.5 719,-136.5 719,-117.5 599,-117.5"/>
<text text-anchor="middle" x="659" y="-124.5" font-family="Helvetica,sans-Serif" font-size="10.00">basic_ofstream&lt; char &gt;</text>
</a>
</g>
</g>
<!-- Node12 -->
<g id="node13" class="node"><title>Node12</title>
<g id="a_node13"><a xlink:title="STL class. ">
<polygon fill="white" stroke="#bfbfbf" points="772,-222.5 772,-241.5 827,-241.5 827,-222.5 772,-222.5"/>
<text text-anchor="middle" x="799.5" y="-229.5" font-family="Helvetica,sans-Serif" font-size="10.00">ofstream</text>
</a>
</g>
</g>
<!-- Node13&#45;&gt;Node12 -->
<g id="edge17" class="edge"><title>Node13&#45;&gt;Node12</title>
<path fill="none" stroke="midnightblue" d="M681.039,-142.95C710.161,-165.028 761.862,-204.224 785.749,-222.333"/>
<polygon fill="midnightblue" stroke="midnightblue" points="682.865,-139.942 672.781,-136.69 678.636,-145.52 682.865,-139.942"/>
</g>
<!-- Node14 -->
<g id="node4" class="node"><title>Node14</title>
<g id="a_node4"><a xlink:title="STL class. ">
<polygon fill="white" stroke="#bfbfbf" points="369,-0.5 369,-19.5 488,-19.5 488,-0.5 369,-0.5"/>
<text text-anchor="middle" x="428.5" y="-7.5" font-family="Helvetica,sans-Serif" font-size="10.00">basic_ostream&lt; Char &gt;</text>
</a>
</g>
</g>
<!-- Node14&#45;&gt;Node13 -->
<g id="edge18" class="edge"><title>Node14&#45;&gt;Node13</title>
<path fill="none" stroke="midnightblue" d="M498.345,-10.5609C525.551,-13.3432 556.179,-19.8483 581,-34 616.691,-54.3492 642.866,-98.0536 653.175,-117.422"/>
<polygon fill="midnightblue" stroke="midnightblue" points="498.37,-7.05 488.104,-9.66871 497.763,-14.0236 498.37,-7.05"/>
</g>
<!-- Node8 -->
<g id="node5" class="node"><title>Node8</title>
<g id="a_node5"><a xlink:href="classaworx_1_1lib_1_1strings_1_1PreallocatedString.html" target="_top" xlink:title="PreallocatedString\l\&lt; TCapacity \&gt;">
<polygon fill="white" stroke="black" points="133,-288 133,-318 229,-318 229,-288 133,-288"/>
<text text-anchor="start" x="141" y="-306" font-family="Helvetica,sans-Serif" font-size="10.00">PreallocatedString</text>
<text text-anchor="middle" x="181" y="-295" font-family="Helvetica,sans-Serif" font-size="10.00">&lt; TCapacity &gt;</text>
</a>
</g>
</g>
<!-- Node8&#45;&gt;Node3 -->
<g id="edge11" class="edge"><title>Node8&#45;&gt;Node3</title>
<path fill="none" stroke="#9a32cd" stroke-dasharray="5,2" d="M239.311,-312.746C243.596,-313.248 247.861,-313.677 252,-314 391.173,-324.868 557.934,-313.541 626.354,-307.85"/>
<polygon fill="#9a32cd" stroke="#9a32cd" points="239.691,-309.266 229.326,-311.46 238.797,-316.209 239.691,-309.266"/>
<text text-anchor="middle" x="428.5" y="-355" font-family="Helvetica,sans-Serif" font-size="10.00"> MultiLineDelimiterRepl</text>
<text text-anchor="middle" x="428.5" y="-344" font-family="Helvetica,sans-Serif" font-size="10.00">FmtIndentString</text>
<text text-anchor="middle" x="428.5" y="-333" font-family="Helvetica,sans-Serif" font-size="10.00">FmtMultiLineSuffix</text>
<text text-anchor="middle" x="428.5" y="-322" font-family="Helvetica,sans-Serif" font-size="10.00">FmtMultiLinePrefix</text>
</g>
<!-- Node8&#45;&gt;Node3 -->
<g id="edge12" class="edge"><title>Node8&#45;&gt;Node3</title>
<path fill="none" stroke="#9a32cd" stroke-dasharray="5,2" d="M239.452,-302.398C300.949,-301.851 401.374,-301.236 488,-302 536.261,-302.426 592.219,-303.531 626.357,-304.275"/>
<polygon fill="#9a32cd" stroke="#9a32cd" points="239.147,-298.901 229.18,-302.492 239.212,-305.9 239.147,-298.901"/>
<text text-anchor="middle" x="428.5" y="-305" font-family="Helvetica,sans-Serif" font-size="10.00"> FmtMultiLineMsgHeadline</text>
</g>
<!-- Node9 -->
<g id="node11" class="node"><title>Node9</title>
<g id="a_node11"><a xlink:href="classaworx_1_1lox_1_1core_1_1textlogger_1_1MetaInfo.html" target="_top" xlink:title="MetaInfo">
<polygon fill="white" stroke="red" points="401,-157.5 401,-176.5 456,-176.5 456,-157.5 401,-157.5"/>
<text text-anchor="middle" x="428.5" y="-164.5" font-family="Helvetica,sans-Serif" font-size="10.00">MetaInfo</text>
</a>
</g>
</g>
<!-- Node8&#45;&gt;Node9 -->
<g id="edge13" class="edge"><title>Node8&#45;&gt;Node9</title>
<path fill="none" stroke="#9a32cd" stroke-dasharray="5,2" d="M186.845,-277.863C194.497,-245.909 212.748,-192.015 252,-168 298.003,-139.854 364.289,-150.151 400.819,-159.186"/>
<polygon fill="#9a32cd" stroke="#9a32cd" points="183.393,-277.263 184.641,-287.784 190.226,-278.781 183.393,-277.263"/>
<text text-anchor="middle" x="301.5" y="-281" font-family="Helvetica,sans-Serif" font-size="10.00"> TimeDiffHours</text>
<text text-anchor="middle" x="301.5" y="-270" font-family="Helvetica,sans-Serif" font-size="10.00">LogLevelError</text>
<text text-anchor="middle" x="301.5" y="-259" font-family="Helvetica,sans-Serif" font-size="10.00">TimeDiffMicros</text>
<text text-anchor="middle" x="301.5" y="-248" font-family="Helvetica,sans-Serif" font-size="10.00">LogLevelInfo</text>
<text text-anchor="middle" x="301.5" y="-237" font-family="Helvetica,sans-Serif" font-size="10.00">TimeElapsedDays</text>
<text text-anchor="middle" x="301.5" y="-226" font-family="Helvetica,sans-Serif" font-size="10.00">TimeOfDayFormat</text>
<text text-anchor="middle" x="301.5" y="-215" font-family="Helvetica,sans-Serif" font-size="10.00">DateFormat</text>
<text text-anchor="middle" x="301.5" y="-204" font-family="Helvetica,sans-Serif" font-size="10.00">TimeDiffMins</text>
<text text-anchor="middle" x="301.5" y="-193" font-family="Helvetica,sans-Serif" font-size="10.00">TimeDiffSecs</text>
<text text-anchor="middle" x="301.5" y="-182" font-family="Helvetica,sans-Serif" font-size="10.00">TimeDiffNone</text>
<text text-anchor="middle" x="301.5" y="-171" font-family="Helvetica,sans-Serif" font-size="10.00">...</text>
</g>
<!-- Node2 -->
<g id="node6" class="node"><title>Node2</title>
<g id="a_node6"><a xlink:href="classaworx_1_1lox_1_1core_1_1textlogger_1_1PlainTextLogger.html" target="_top" xlink:title="PlainTextLogger">
<polygon fill="white" stroke="black" points="756,-295.5 756,-314.5 843,-314.5 843,-295.5 756,-295.5"/>
<text text-anchor="middle" x="799.5" y="-302.5" font-family="Helvetica,sans-Serif" font-size="10.00">PlainTextLogger</text>
</a>
</g>
</g>
<!-- Node2&#45;&gt;Node1 -->
<g id="edge1" class="edge"><title>Node2&#45;&gt;Node1</title>
<path fill="none" stroke="midnightblue" d="M853.69,-305C866.815,-305 880.643,-305 892.988,-305"/>
<polygon fill="midnightblue" stroke="midnightblue" points="853.357,-301.5 843.357,-305 853.357,-308.5 853.357,-301.5"/>
</g>
<!-- Node3&#45;&gt;Node2 -->
<g id="edge2" class="edge"><title>Node3&#45;&gt;Node2</title>
<path fill="none" stroke="midnightblue" d="M702.007,-305C719.059,-305 738.732,-305 755.849,-305"/>
<polygon fill="midnightblue" stroke="midnightblue" points="701.775,-301.5 691.775,-305 701.775,-308.5 701.775,-301.5"/>
</g>
<!-- Node4 -->
<g id="node8" class="node"><title>Node4</title>
<g id="a_node8"><a xlink:href="classaworx_1_1lox_1_1core_1_1Logger.html" target="_top" xlink:title="Logger">
<polygon fill="white" stroke="red" points="405.5,-38.5 405.5,-57.5 451.5,-57.5 451.5,-38.5 405.5,-38.5"/>
<text text-anchor="middle" x="428.5" y="-45.5" font-family="Helvetica,sans-Serif" font-size="10.00">Logger</text>
</a>
</g>
</g>
<!-- Node4&#45;&gt;Node3 -->
<g id="edge3" class="edge"><title>Node4&#45;&gt;Node3</title>
<path fill="none" stroke="midnightblue" d="M462.115,-43.5697C496.18,-40.8899 549.018,-42.524 581,-72 605.889,-94.9392 589.095,-113.634 599,-146 616.662,-203.717 643.871,-270.955 654.011,-295.455"/>
<polygon fill="midnightblue" stroke="midnightblue" points="461.385,-40.1235 451.765,-44.5616 462.053,-47.0916 461.385,-40.1235"/>
</g>
<!-- Node5 -->
<g id="node9" class="node"><title>Node5</title>
<g id="a_node9"><a xlink:href="classaworx_1_1lox_1_1core_1_1textlogger_1_1AutoSizes.html" target="_top" xlink:title="AutoSizes">
<polygon fill="white" stroke="red" points="397.5,-475.5 397.5,-494.5 459.5,-494.5 459.5,-475.5 397.5,-475.5"/>
<text text-anchor="middle" x="428.5" y="-482.5" font-family="Helvetica,sans-Serif" font-size="10.00">AutoSizes</text>
</a>
</g>
</g>
<!-- Node5&#45;&gt;Node3 -->
<g id="edge4" class="edge"><title>Node5&#45;&gt;Node3</title>
<path fill="none" stroke="#9a32cd" stroke-dasharray="5,2" d="M469.806,-488.253C502.759,-488.817 548.976,-484.58 581,-461 632.074,-423.392 651.169,-342.51 656.382,-314.658"/>
<polygon fill="#9a32cd" stroke="#9a32cd" points="469.717,-484.749 459.608,-487.92 469.488,-491.745 469.717,-484.749"/>
<text text-anchor="middle" x="543.5" y="-489" font-family="Helvetica,sans-Serif" font-size="10.00"> AutoSizes</text>
</g>
<!-- Node7 -->
<g id="node10" class="node"><title>Node7</title>
<g id="a_node10"><a xlink:href="classaworx_1_1lib_1_1strings_1_1AString.html" target="_top" xlink:title="AString">
<polygon fill="white" stroke="red" points="0,-293.5 0,-312.5 49,-312.5 49,-293.5 0,-293.5"/>
<text text-anchor="middle" x="24.5" y="-300.5" font-family="Helvetica,sans-Serif" font-size="10.00">AString</text>
</a>
</g>
</g>
<!-- Node7&#45;&gt;Node1 -->
<g id="edge6" class="edge"><title>Node7&#45;&gt;Node1</title>
<path fill="none" stroke="#9a32cd" stroke-dasharray="5,2" d="M29.4055,-322.788C41.3407,-376.845 82.6148,-523 180,-523 180,-523 180,-523 800.5,-523 899.387,-523 926.22,-356.838 931.439,-314.648"/>
<polygon fill="#9a32cd" stroke="#9a32cd" points="32.7752,-321.804 27.2944,-312.737 25.9247,-323.243 32.7752,-321.804"/>
<text text-anchor="middle" x="543.5" y="-526" font-family="Helvetica,sans-Serif" font-size="10.00"> FileName</text>
</g>
<!-- Node7&#45;&gt;Node6 -->
<g id="edge8" class="edge"><title>Node7&#45;&gt;Node6</title>
<path fill="none" stroke="#9a32cd" stroke-dasharray="5,2" d="M58.6368,-314.343C61.46,-315.259 64.2763,-316.156 67,-317 130.579,-336.696 204.622,-357.221 251.995,-370.048"/>
<polygon fill="#9a32cd" stroke="#9a32cd" points="59.7288,-311.017 49.1355,-311.2 57.5308,-317.663 59.7288,-311.017"/>
<text text-anchor="middle" x="88.5" y="-333" font-family="Helvetica,sans-Serif" font-size="10.00"> elements</text>
</g>
<!-- Node7&#45;&gt;Node8 -->
<g id="edge9" class="edge"><title>Node7&#45;&gt;Node8</title>
<path fill="none" stroke="midnightblue" d="M59.5871,-303C81.0948,-303 109.176,-303 132.81,-303"/>
<polygon fill="midnightblue" stroke="midnightblue" points="59.3021,-299.5 49.302,-303 59.302,-306.5 59.3021,-299.5"/>
</g>
<!-- Node7&#45;&gt;Node3 -->
<g id="edge7" class="edge"><title>Node7&#45;&gt;Node3</title>
<path fill="none" stroke="#9a32cd" stroke-dasharray="5,2" d="M33.0587,-283.713C46.8346,-251.156 79.1845,-185.481 128,-151 210.657,-92.6154 250.97,-89.6705 351,-105 461.712,-121.966 498.017,-132.775 581,-208 611.745,-235.871 639.897,-276.85 651.891,-295.332"/>
<polygon fill="#9a32cd" stroke="#9a32cd" points="29.6464,-282.811 29.102,-293.392 36.1259,-285.46 29.6464,-282.811"/>
<text text-anchor="middle" x="301.5" y="-130" font-family="Helvetica,sans-Serif" font-size="10.00"> logBuf</text>
<text text-anchor="middle" x="301.5" y="-119" font-family="Helvetica,sans-Serif" font-size="10.00">MultiLineDelimiter</text>
<text text-anchor="middle" x="301.5" y="-108" font-family="Helvetica,sans-Serif" font-size="10.00">msgBuf</text>
</g>
<!-- Node7&#45;&gt;Node9 -->
<g id="edge10" class="edge"><title>Node7&#45;&gt;Node9</title>
<path fill="none" stroke="#9a32cd" stroke-dasharray="5,2" d="M42.1485,-286.136C77.1771,-252.005 162.66,-175.642 252,-148 303.089,-132.193 366.073,-146.763 400.997,-157.643"/>
<polygon fill="#9a32cd" stroke="#9a32cd" points="39.3686,-283.963 34.7208,-293.484 44.2915,-288.939 39.3686,-283.963"/>
<text text-anchor="middle" x="181" y="-239" font-family="Helvetica,sans-Serif" font-size="10.00"> Format</text>
<text text-anchor="start" x="128" y="-228" font-family="Helvetica,sans-Serif" font-size="10.00">ConsumableSourcePath</text>
<text text-anchor="middle" x="181" y="-217" font-family="Helvetica,sans-Serif" font-size="10.00">Prefix</text>
</g>
<!-- Node9&#45;&gt;Node3 -->
<g id="edge14" class="edge"><title>Node9&#45;&gt;Node3</title>
<path fill="none" stroke="#9a32cd" stroke-dasharray="5,2" d="M455.489,-181.892C485.799,-199.345 537.324,-229.286 581,-256 602.898,-269.394 627.916,-285.458 643.336,-295.45"/>
<polygon fill="#9a32cd" stroke="#9a32cd" points="456.844,-178.634 446.43,-176.683 453.355,-184.702 456.844,-178.634"/>
<text text-anchor="middle" x="543.5" y="-259" font-family="Helvetica,sans-Serif" font-size="10.00"> MetaInfo</text>
</g>
<!-- Node11 -->
<g id="node12" class="node"><title>Node11</title>
<g id="a_node12"><a xlink:href="classaworx_1_1lox_1_1core_1_1textlogger_1_1ObjectConverter.html" target="_top" xlink:title="ObjectConverter">
<polygon fill="white" stroke="red" points="384.5,-437.5 384.5,-456.5 472.5,-456.5 472.5,-437.5 384.5,-437.5"/>
<text text-anchor="middle" x="428.5" y="-444.5" font-family="Helvetica,sans-Serif" font-size="10.00">ObjectConverter</text>
</a>
</g>
</g>
<!-- Node11&#45;&gt;Node3 -->
<g id="edge15" class="edge"><title>Node11&#45;&gt;Node3</title>
<path fill="none" stroke="#9a32cd" stroke-dasharray="5,2" d="M482.802,-448.492C513.696,-446.972 552.079,-440.789 581,-422 622.394,-395.108 646.557,-337.295 654.788,-314.51"/>
<polygon fill="#9a32cd" stroke="#9a32cd" points="482.511,-445 472.636,-448.84 482.75,-451.996 482.511,-445"/>
<text text-anchor="middle" x="543.5" y="-449" font-family="Helvetica,sans-Serif" font-size="10.00"> ObjectConverter</text>
</g>
<!-- Node12&#45;&gt;Node1 -->
<g id="edge16" class="edge"><title>Node12&#45;&gt;Node1</title>
<path fill="none" stroke="#9a32cd" stroke-dasharray="5,2" d="M826.776,-246.531C853.052,-261.063 892.706,-282.993 915.239,-295.454"/>
<polygon fill="#9a32cd" stroke="#9a32cd" points="828.201,-243.32 817.757,-241.543 824.814,-249.446 828.201,-243.32"/>
<text text-anchor="middle" x="868" y="-276" font-family="Helvetica,sans-Serif" font-size="10.00"> os</text>
</g>
</g>
</svg>
