<?xml version="1.0" encoding="UTF-8" standalone="no"?>
<!DOCTYPE svg PUBLIC "-//W3C//DTD SVG 1.1//EN"
 "http://www.w3.org/Graphics/SVG/1.1/DTD/svg11.dtd">
<!-- Generated by graphviz version 2.38.0 (20140413.2041)
 -->
<!-- Title: CallerInfo Pages: 1 -->
<svg width="352pt" height="354pt"
 viewBox="0.00 0.00 351.50 354.00" xmlns="http://www.w3.org/2000/svg" xmlns:xlink="http://www.w3.org/1999/xlink">
<g id="graph0" class="graph" transform="scale(1 1) rotate(0) translate(4 350)">
<title>CallerInfo</title>
<polygon fill="white" stroke="none" points="-4,4 -4,-350 347.5,-350 347.5,4 -4,4"/>
<!-- Node1 -->
<g id="node1" class="node"><title>Node1</title>
<polygon fill="#bfbfbf" stroke="black" points="63.5,-0.5 63.5,-19.5 122.5,-19.5 122.5,-0.5 63.5,-0.5"/>
<text text-anchor="middle" x="93" y="-7.5" font-family="Helvetica,sans-Serif" font-size="10.00">CallerInfo</text>
</g>
<!-- Node2 -->
<g id="node2" class="node"><title>Node2</title>
<g id="a_node2"><a xlink:href="classaworx_1_1lib_1_1strings_1_1String.html" target="_top" xlink:title="String">
<polygon fill="white" stroke="black" points="3,-326.5 3,-345.5 45,-345.5 45,-326.5 3,-326.5"/>
<text text-anchor="middle" x="24" y="-333.5" font-family="Helvetica,sans-Serif" font-size="10.00">String</text>
</a>
</g>
</g>
<!-- Node2&#45;&gt;Node1 -->
<g id="edge1" class="edge"><title>Node2&#45;&gt;Node1</title>
<path fill="none" stroke="#9a32cd" stroke-dasharray="5,2" d="M12.0879,-317.654C6.05874,-307.219 0,-293.4 0,-280 0,-280 0,-280 0,-76 0,-44.5808 36.1014,-27.0807 63.3185,-18.3517"/>
<polygon fill="#9a32cd" stroke="#9a32cd" points="9.1583,-319.57 17.4419,-326.175 15.0856,-315.846 9.1583,-319.57"/>
<text text-anchor="middle" x="28.5" y="-186" font-family="Helvetica,sans-Serif" font-size="10.00"> threadName</text>
</g>
<!-- Node3 -->
<g id="node3" class="node"><title>Node3</title>
<g id="a_node3"><a xlink:href="classaworx_1_1lib_1_1strings_1_1TString.html" target="_top" xlink:title="TString">
<polygon fill="white" stroke="black" points="48,-269.5 48,-288.5 96,-288.5 96,-269.5 48,-269.5"/>
<text text-anchor="middle" x="72" y="-276.5" font-family="Helvetica,sans-Serif" font-size="10.00">TString</text>
</a>
</g>
</g>
<!-- Node2&#45;&gt;Node3 -->
<g id="edge3" class="edge"><title>Node2&#45;&gt;Node3</title>
<path fill="none" stroke="midnightblue" d="M38.1136,-318.828C46.7088,-308.979 57.3541,-296.782 64.3943,-288.715"/>
<polygon fill="midnightblue" stroke="midnightblue" points="35.4384,-316.571 31.5,-326.406 40.7124,-321.173 35.4384,-316.571"/>
</g>
<!-- Node3&#45;&gt;Node1 -->
<g id="edge2" class="edge"><title>Node3&#45;&gt;Node1</title>
<path fill="none" stroke="#9a32cd" stroke-dasharray="5,2" d="M72,-259.242C72,-248.61 72,-235.061 72,-223 72,-223 72,-223 72,-76 72,-54.8909 82.1526,-31.7118 88.3394,-19.5466"/>
<polygon fill="#9a32cd" stroke="#9a32cd" points="68.5001,-259.426 72,-269.426 75.5001,-259.426 68.5001,-259.426"/>
<text text-anchor="middle" x="108.5" y="-152.5" font-family="Helvetica,sans-Serif" font-size="10.00"> MethodName</text>
<text text-anchor="middle" x="108.5" y="-141.5" font-family="Helvetica,sans-Serif" font-size="10.00">SourceFileName</text>
</g>
<!-- Node7 -->
<g id="node7" class="node"><title>Node7</title>
<g id="a_node7"><a xlink:href="classaworx_1_1lib_1_1strings_1_1AString.html" target="_top" xlink:title="AString">
<polygon fill="white" stroke="black" points="121.5,-212.5 121.5,-231.5 170.5,-231.5 170.5,-212.5 121.5,-212.5"/>
<text text-anchor="middle" x="146" y="-219.5" font-family="Helvetica,sans-Serif" font-size="10.00">AString</text>
</a>
</g>
</g>
<!-- Node3&#45;&gt;Node7 -->
<g id="edge9" class="edge"><title>Node3&#45;&gt;Node7</title>
<path fill="none" stroke="midnightblue" d="M91.7957,-263.287C105.354,-253.21 122.878,-240.185 134.274,-231.715"/>
<polygon fill="midnightblue" stroke="midnightblue" points="89.5006,-260.632 83.5625,-269.406 93.6763,-266.25 89.5006,-260.632"/>
</g>
<!-- Node4 -->
<g id="node4" class="node"><title>Node4</title>
<g id="a_node4"><a xlink:href="classaworx_1_1lib_1_1time_1_1Ticks.html" target="_top" xlink:title="Ticks">
<polygon fill="white" stroke="black" points="224.5,-67.5 224.5,-86.5 265.5,-86.5 265.5,-67.5 224.5,-67.5"/>
<text text-anchor="middle" x="245" y="-74.5" font-family="Helvetica,sans-Serif" font-size="10.00">Ticks</text>
</a>
</g>
</g>
<!-- Node4&#45;&gt;Node1 -->
<g id="edge4" class="edge"><title>Node4&#45;&gt;Node1</title>
<path fill="none" stroke="#9a32cd" stroke-dasharray="5,2" d="M231.907,-59.6567C224.969,-52.0158 215.851,-43.4262 206,-38 180.029,-23.6945 146.625,-16.9153 122.887,-13.7359"/>
<polygon fill="#9a32cd" stroke="#9a32cd" points="229.353,-62.0555 238.513,-67.3809 234.673,-57.5061 229.353,-62.0555"/>
<text text-anchor="middle" x="248" y="-41" font-family="Helvetica,sans-Serif" font-size="10.00"> TimeStamp</text>
</g>
<!-- Node4&#45;&gt;Node4 -->
<g id="edge5" class="edge"><title>Node4&#45;&gt;Node4</title>
<path fill="none" stroke="#9a32cd" stroke-dasharray="5,2" d="M275.816,-82.4421C280.4,-81.5943 283.5,-79.7803 283.5,-77 283.5,-72.4375 275.152,-70.4771 265.597,-71.1187"/>
<polygon fill="#9a32cd" stroke="#9a32cd" points="275.437,-78.955 265.597,-82.8813 275.738,-85.9486 275.437,-78.955"/>
<text text-anchor="middle" x="313.5" y="-74.5" font-family="Helvetica,sans-Serif" font-size="10.00"> creationTime</text>
</g>
<!-- Node5 -->
<g id="node5" class="node"><title>Node5</title>
<polygon fill="white" stroke="#bfbfbf" points="100,-67.5 100,-86.5 206,-86.5 206,-67.5 100,-67.5"/>
<text text-anchor="middle" x="153" y="-74.5" font-family="Helvetica,sans-Serif" font-size="10.00">map&lt; int, String32 &gt;</text>
</g>
<!-- Node5&#45;&gt;Node1 -->
<g id="edge6" class="edge"><title>Node5&#45;&gt;Node1</title>
<path fill="none" stroke="#9a32cd" stroke-dasharray="5,2" d="M137.894,-59.6348C126.159,-46.9228 110.352,-29.7978 100.964,-19.6273"/>
<polygon fill="#9a32cd" stroke="#9a32cd" points="135.553,-62.2597 144.908,-67.2338 140.697,-57.5118 135.553,-62.2597"/>
<text text-anchor="middle" x="164.5" y="-41" font-family="Helvetica,sans-Serif" font-size="10.00"> threadDictionary</text>
</g>
<!-- Node6 -->
<g id="node6" class="node"><title>Node6</title>
<g id="a_node6"><a xlink:href="classaworx_1_1lib_1_1strings_1_1PreallocatedString.html" target="_top" xlink:title="PreallocatedString\l\&lt; 32 \&gt;">
<polygon fill="white" stroke="black" points="163,-134.5 163,-164.5 259,-164.5 259,-134.5 163,-134.5"/>
<text text-anchor="start" x="171" y="-152.5" font-family="Helvetica,sans-Serif" font-size="10.00">PreallocatedString</text>
<text text-anchor="middle" x="211" y="-141.5" font-family="Helvetica,sans-Serif" font-size="10.00">&lt; 32 &gt;</text>
</a>
</g>
</g>
<!-- Node6&#45;&gt;Node5 -->
<g id="edge7" class="edge"><title>Node6&#45;&gt;Node5</title>
<path fill="none" stroke="#9a32cd" stroke-dasharray="5,2" d="M192.806,-126.385C181.824,-113.036 168.43,-96.7556 160.316,-86.8932"/>
<polygon fill="#9a32cd" stroke="#9a32cd" points="190.207,-128.734 199.263,-134.233 195.612,-124.287 190.207,-128.734"/>
<text text-anchor="middle" x="205.5" y="-108" font-family="Helvetica,sans-Serif" font-size="10.00"> elements</text>
</g>
<!-- Node7&#45;&gt;Node6 -->
<g id="edge8" class="edge"><title>Node7&#45;&gt;Node6</title>
<path fill="none" stroke="midnightblue" d="M160.988,-204.744C172.186,-192.598 187.339,-176.163 198.022,-164.576"/>
<polygon fill="midnightblue" stroke="midnightblue" points="158.176,-202.631 153.97,-212.355 163.322,-207.376 158.176,-202.631"/>
</g>
</g>
</svg>
