<?xml version="1.0" encoding="UTF-8" standalone="no"?>
<!DOCTYPE svg PUBLIC "-//W3C//DTD SVG 1.1//EN"
 "http://www.w3.org/Graphics/SVG/1.1/DTD/svg11.dtd">
<!-- Generated by graphviz version 2.40.1 (20161225.0304)
 -->
<!-- Title: IIsLess_double Pages: 1 -->
<svg width="213pt" height="152pt"
 viewBox="0.00 0.00 213.00 152.00" xmlns="http://www.w3.org/2000/svg" xmlns:xlink="http://www.w3.org/1999/xlink">
<g id="graph0" class="graph" transform="scale(1 1) rotate(0) translate(4 148)">
<title>IIsLess_double</title>
<polygon fill="#ffffff" stroke="transparent" points="-4,4 -4,-148 209,-148 209,4 -4,4"/>
<!-- Node4 -->
<g id="node1" class="node">
<title>Node4</title>
<polygon fill="#bfbfbf" stroke="#000000" points="80,-.5 80,-19.5 163,-19.5 163,-.5 80,-.5"/>
<text text-anchor="middle" x="121.5" y="-7.5" font-family="Helvetica,sans-Serif" font-size="10.00" fill="#000000">IIsLess_double</text>
</g>
<!-- Node7 -->
<g id="node2" class="node">
<title>Node7</title>
<g id="a_node2"><a xlink:href="classaworx_1_1lib_1_1lang_1_1Singleton.html" target="_top" xlink:title="Singleton\&lt;IIsLess_double\&gt;">
<polygon fill="#ffffff" stroke="#000000" points="0,-57.5 0,-76.5 135,-76.5 135,-57.5 0,-57.5"/>
<text text-anchor="middle" x="67.5" y="-64.5" font-family="Helvetica,sans-Serif" font-size="10.00" fill="#000000">Singleton&lt;IIsLess_double&gt;</text>
</a>
</g>
</g>
<!-- Node7&#45;&gt;Node4 -->
<g id="edge3" class="edge">
<title>Node7&#45;&gt;Node4</title>
<path fill="none" stroke="#191970" d="M83.6583,-49.944C93.0884,-39.99 104.6344,-27.8026 112.4749,-19.5265"/>
<polygon fill="#191970" stroke="#191970" points="80.997,-47.6641 76.6604,-57.3307 86.0787,-52.4783 80.997,-47.6641"/>
</g>
<!-- Node5 -->
<g id="node3" class="node">
<title>Node5</title>
<g id="a_node3"><a xlink:href="classaworx_1_1lib_1_1boxing_1_1IIsLess.html" target="_top" xlink:title="IIsLess">
<polygon fill="#ffffff" stroke="#000000" points="153,-57.5 153,-76.5 202,-76.5 202,-57.5 153,-57.5"/>
<text text-anchor="middle" x="177.5" y="-64.5" font-family="Helvetica,sans-Serif" font-size="10.00" fill="#000000">IIsLess</text>
</a>
</g>
</g>
<!-- Node5&#45;&gt;Node4 -->
<g id="edge1" class="edge">
<title>Node5&#45;&gt;Node4</title>
<path fill="none" stroke="#191970" d="M160.7433,-49.944C150.9639,-39.99 138.9902,-27.8026 130.8593,-19.5265"/>
<polygon fill="#191970" stroke="#191970" points="158.4954,-52.6502 168.0004,-57.3307 163.4888,-47.7444 158.4954,-52.6502"/>
</g>
<!-- Node6 -->
<g id="node4" class="node">
<title>Node6</title>
<g id="a_node4"><a xlink:href="classaworx_1_1lib_1_1boxing_1_1Interface.html" target="_top" xlink:title="Interface">
<polygon fill="#ffffff" stroke="#000000" points="150,-124.5 150,-143.5 205,-143.5 205,-124.5 150,-124.5"/>
<text text-anchor="middle" x="177.5" y="-131.5" font-family="Helvetica,sans-Serif" font-size="10.00" fill="#000000">Interface</text>
</a>
</g>
</g>
<!-- Node6&#45;&gt;Node5 -->
<g id="edge2" class="edge">
<title>Node6&#45;&gt;Node5</title>
<path fill="none" stroke="#191970" d="M177.5,-114.1079C177.5,-101.714 177.5,-86.3263 177.5,-76.5817"/>
<polygon fill="#191970" stroke="#191970" points="174.0001,-114.4005 177.5,-124.4005 181.0001,-114.4006 174.0001,-114.4005"/>
</g>
<!-- Node8 -->
<g id="node5" class="node">
<title>Node8</title>
<polygon fill="#ffffff" stroke="#bfbfbf" points="27.5,-124.5 27.5,-143.5 107.5,-143.5 107.5,-124.5 27.5,-124.5"/>
<text text-anchor="middle" x="67.5" y="-131.5" font-family="Helvetica,sans-Serif" font-size="10.00" fill="#000000">TDerivedClass</text>
</g>
<!-- Node8&#45;&gt;Node7 -->
<g id="edge4" class="edge">
<title>Node8&#45;&gt;Node7</title>
<path fill="none" stroke="#9a32cd" stroke-dasharray="5,2" d="M67.5,-114.1079C67.5,-101.714 67.5,-86.3263 67.5,-76.5817"/>
<polygon fill="#9a32cd" stroke="#9a32cd" points="64.0001,-114.4005 67.5,-124.4005 71.0001,-114.4006 64.0001,-114.4005"/>
<text text-anchor="middle" x="89" y="-98" font-family="Helvetica,sans-Serif" font-size="10.00" fill="#000000"> singleton</text>
</g>
</g>
</svg>
