<?xml version="1.0" encoding="UTF-8" standalone="no"?>
<!DOCTYPE svg PUBLIC "-//W3C//DTD SVG 1.1//EN"
 "http://www.w3.org/Graphics/SVG/1.1/DTD/svg11.dtd">
<!-- Generated by graphviz version 2.40.1 (20161225.0304)
 -->
<!-- Title: Ownable Pages: 1 -->
<svg width="550pt" height="142pt"
 viewBox="0.00 0.00 550.00 142.00" xmlns="http://www.w3.org/2000/svg" xmlns:xlink="http://www.w3.org/1999/xlink">
<g id="graph0" class="graph" transform="scale(1 1) rotate(0) translate(4 138)">
<title>Ownable</title>
<polygon fill="#ffffff" stroke="transparent" points="-4,4 -4,-138 546,-138 546,4 -4,4"/>
<!-- Node0 -->
<g id="node1" class="node">
<title>Node0</title>
<polygon fill="#bfbfbf" stroke="#000000" points="0,-38.5 0,-57.5 54,-57.5 54,-38.5 0,-38.5"/>
<text text-anchor="middle" x="27" y="-45.5" font-family="Helvetica,sans-Serif" font-size="10.00" fill="#000000">Ownable</text>
</g>
<!-- Node1 -->
<g id="node4" class="node">
<title>Node1</title>
<g id="a_node4"><a xlink:href="classaworx_1_1lib_1_1threads_1_1ThreadLock.html" target="_top" xlink:title="ThreadLock">
<polygon fill="#ffffff" stroke="#000000" points="96.5,-57.5 96.5,-76.5 164.5,-76.5 164.5,-57.5 96.5,-57.5"/>
<text text-anchor="middle" x="130.5" y="-64.5" font-family="Helvetica,sans-Serif" font-size="10.00" fill="#000000">ThreadLock</text>
</a>
</g>
</g>
<!-- Node0&#45;&gt;Node1 -->
<g id="edge1" class="edge">
<title>Node0&#45;&gt;Node1</title>
<path fill="none" stroke="#191970" d="M64.3247,-54.8519C74.8136,-56.7774 86.1617,-58.8606 96.4489,-60.7491"/>
<polygon fill="#191970" stroke="#191970" points="64.661,-51.3552 54.1934,-52.992 63.3971,-58.2402 64.661,-51.3552"/>
</g>
<!-- Node17 -->
<g id="node5" class="node">
<title>Node17</title>
<g id="a_node5"><a xlink:href="classaworx_1_1lib_1_1threads_1_1ThreadLockNR.html" target="_top" xlink:title="ThreadLockNR">
<polygon fill="#ffffff" stroke="#000000" points="90,-19.5 90,-38.5 171,-38.5 171,-19.5 90,-19.5"/>
<text text-anchor="middle" x="130.5" y="-26.5" font-family="Helvetica,sans-Serif" font-size="10.00" fill="#000000">ThreadLockNR</text>
</a>
</g>
</g>
<!-- Node0&#45;&gt;Node17 -->
<g id="edge2" class="edge">
<title>Node0&#45;&gt;Node17</title>
<path fill="none" stroke="#191970" d="M64.0548,-41.1977C72.4205,-39.6619 81.3448,-38.0237 89.8494,-36.4624"/>
<polygon fill="#191970" stroke="#191970" points="63.3971,-37.7598 54.1934,-43.008 64.661,-44.6448 63.3971,-37.7598"/>
</g>
<!-- Node13 -->
<g id="node2" class="node">
<title>Node13</title>
<g id="a_node2"><a xlink:href="classaworx_1_1lib_1_1util_1_1PluginContainer.html" target="_top" xlink:title="PluginContainer\&lt;pTPlugin, pTPriorities\&gt;">
<polygon fill="#ffffff" stroke="#000000" points="224,-114.5 224,-133.5 415,-133.5 415,-114.5 224,-114.5"/>
<text text-anchor="middle" x="319.5" y="-121.5" font-family="Helvetica,sans-Serif" font-size="10.00" fill="#000000">PluginContainer&lt;pTPlugin, pTPriorities&gt;</text>
</a>
</g>
</g>
<!-- Node15 -->
<g id="node3" class="node">
<title>Node15</title>
<g id="a_node3"><a xlink:href="classaworx_1_1lib_1_1util_1_1PluginContainer.html" target="_top" xlink:title="PluginContainer\&lt;ConfigurationPlugin, Priorities\&gt;">
<polygon fill="#ffffff" stroke="#000000" points="207,-76.5 207,-95.5 432,-95.5 432,-76.5 207,-76.5"/>
<text text-anchor="middle" x="319.5" y="-83.5" font-family="Helvetica,sans-Serif" font-size="10.00" fill="#000000">PluginContainer&lt;ConfigurationPlugin, Priorities&gt;</text>
</a>
</g>
</g>
<!-- Node16 -->
<g id="node9" class="node">
<title>Node16</title>
<g id="a_node9"><a xlink:href="classaworx_1_1lib_1_1config_1_1Configuration.html" target="_top" xlink:title="Configuration">
<polygon fill="#ffffff" stroke="#000000" points="468,-76.5 468,-95.5 542,-95.5 542,-76.5 468,-76.5"/>
<text text-anchor="middle" x="505" y="-83.5" font-family="Helvetica,sans-Serif" font-size="10.00" fill="#000000">Configuration</text>
</a>
</g>
</g>
<!-- Node15&#45;&gt;Node16 -->
<g id="edge8" class="edge">
<title>Node15&#45;&gt;Node16</title>
<path fill="none" stroke="#191970" d="M442.2435,-86C451.3444,-86 460.0134,-86 467.8446,-86"/>
<polygon fill="#191970" stroke="#191970" points="442.2179,-82.5001 432.2179,-86 442.2179,-89.5001 442.2179,-82.5001"/>
</g>
<!-- Node1&#45;&gt;Node13 -->
<g id="edge4" class="edge">
<title>Node1&#45;&gt;Node13</title>
<path fill="none" stroke="#191970" d="M155.2212,-81.6065C169.8316,-89.6387 188.9517,-99.1355 207,-105 218.8681,-108.8563 231.7082,-111.9653 244.323,-114.4612"/>
<polygon fill="#191970" stroke="#191970" points="156.7577,-78.4548 146.3278,-76.5925 153.3199,-84.5525 156.7577,-78.4548"/>
</g>
<!-- Node1&#45;&gt;Node15 -->
<g id="edge6" class="edge">
<title>Node1&#45;&gt;Node15</title>
<path fill="none" stroke="#191970" d="M174.7431,-71.4477C189.8087,-72.9622 207.2777,-74.7184 224.7578,-76.4756"/>
<polygon fill="#191970" stroke="#191970" points="175.0264,-67.9586 164.7265,-70.4408 174.3262,-74.9235 175.0264,-67.9586"/>
</g>
<!-- Node2 -->
<g id="node6" class="node">
<title>Node2</title>
<g id="a_node6"><a xlink:href="classaworx_1_1lib_1_1threads_1_1SmartLock.html" target="_top" xlink:title="SmartLock">
<polygon fill="#ffffff" stroke="#000000" points="287.5,-38.5 287.5,-57.5 351.5,-57.5 351.5,-38.5 287.5,-38.5"/>
<text text-anchor="middle" x="319.5" y="-45.5" font-family="Helvetica,sans-Serif" font-size="10.00" fill="#000000">SmartLock</text>
</a>
</g>
</g>
<!-- Node1&#45;&gt;Node2 -->
<g id="edge3" class="edge">
<title>Node1&#45;&gt;Node2</title>
<path fill="none" stroke="#191970" d="M175.0041,-62.526C209.5154,-59.0567 256.5202,-54.3313 287.4187,-51.2251"/>
<polygon fill="#191970" stroke="#191970" points="174.3262,-59.0765 164.7265,-63.5592 175.0264,-66.0414 174.3262,-59.0765"/>
</g>
<!-- Node14 -->
<g id="node7" class="node">
<title>Node14</title>
<g id="a_node7"><a xlink:href="classaworx_1_1lox_1_1Lox.html" target="_top" xlink:title="Lox">
<polygon fill="#ffffff" stroke="#000000" points="303.5,-.5 303.5,-19.5 335.5,-19.5 335.5,-.5 303.5,-.5"/>
<text text-anchor="middle" x="319.5" y="-7.5" font-family="Helvetica,sans-Serif" font-size="10.00" fill="#000000">Lox</text>
</a>
</g>
</g>
<!-- Node1&#45;&gt;Node14 -->
<g id="edge5" class="edge">
<title>Node1&#45;&gt;Node14</title>
<path fill="none" stroke="#006400" d="M160.6949,-53.0256C164.1811,-51.3556 167.6761,-49.6557 171,-48 187.1939,-39.9336 189.8639,-34.802 207,-29 240.2081,-17.7564 281.2754,-12.9778 303.4592,-11.0992"/>
<polygon fill="#006400" stroke="#006400" points="159.152,-49.8836 151.6104,-57.3251 162.1465,-56.2107 159.152,-49.8836"/>
</g>
<!-- Node3 -->
<g id="node8" class="node">
<title>Node3</title>
<g id="a_node8"><a xlink:href="classaworx_1_1lox_1_1core_1_1Logger.html" target="_top" xlink:title="Logger">
<polygon fill="#ffffff" stroke="#ff0000" points="482,-38.5 482,-57.5 528,-57.5 528,-38.5 482,-38.5"/>
<text text-anchor="middle" x="505" y="-45.5" font-family="Helvetica,sans-Serif" font-size="10.00" fill="#000000">Logger</text>
</a>
</g>
</g>
<!-- Node2&#45;&gt;Node3 -->
<g id="edge7" class="edge">
<title>Node2&#45;&gt;Node3</title>
<path fill="none" stroke="#191970" d="M361.8684,-48C399.099,-48 451.8788,-48 481.8463,-48"/>
<polygon fill="#191970" stroke="#191970" points="361.8117,-44.5001 351.8116,-48 361.8116,-51.5001 361.8117,-44.5001"/>
</g>
</g>
</svg>
