<?xml version="1.0" encoding="UTF-8" standalone="no"?>
<!DOCTYPE svg PUBLIC "-//W3C//DTD SVG 1.1//EN"
 "http://www.w3.org/Graphics/SVG/1.1/DTD/svg11.dtd">
<!-- Generated by graphviz version 2.40.1 (20161225.0304)
 -->
<!-- Title: Formatter Pages: 1 -->
<svg width="444pt" height="442pt"
 viewBox="0.00 0.00 444.00 442.00" xmlns="http://www.w3.org/2000/svg" xmlns:xlink="http://www.w3.org/1999/xlink">
<g id="graph0" class="graph" transform="scale(1 1) rotate(0) translate(4 438)">
<title>Formatter</title>
<polygon fill="#ffffff" stroke="transparent" points="-4,4 -4,-438 440,-438 440,4 -4,4"/>
<!-- Node4 -->
<g id="node1" class="node">
<title>Node4</title>
<polygon fill="#bfbfbf" stroke="#000000" points="199.5,-1.5 199.5,-20.5 258.5,-20.5 258.5,-1.5 199.5,-1.5"/>
<text text-anchor="middle" x="229" y="-8.5" font-family="Helvetica,sans-Serif" font-size="10.00" fill="#000000">Formatter</text>
</g>
<!-- Node4&#45;&gt;Node4 -->
<g id="edge1" class="edge">
<title>Node4&#45;&gt;Node4</title>
<path fill="none" stroke="#9a32cd" stroke-dasharray="5,2" d="M268.6722,-16.4785C273.4076,-15.4824 276.5,-13.6563 276.5,-11 276.5,-6.75 268.5833,-4.625 258.6875,-4.625"/>
<polygon fill="#9a32cd" stroke="#9a32cd" points="268.3344,-12.9947 258.6875,-17.375 268.9605,-19.9666 268.3344,-12.9947"/>
<text text-anchor="middle" x="312.5" y="-14" font-family="Helvetica,sans-Serif" font-size="10.00" fill="#000000"> Next</text>
<text text-anchor="middle" x="312.5" y="-3" font-family="Helvetica,sans-Serif" font-size="10.00" fill="#000000">defaultFormatter</text>
</g>
<!-- Node15 -->
<g id="node2" class="node">
<title>Node15</title>
<g id="a_node2"><a xlink:title="STL class. ">
<polygon fill="#ffffff" stroke="#bfbfbf" points="336.5,-136.5 336.5,-155.5 409.5,-155.5 409.5,-136.5 336.5,-136.5"/>
<text text-anchor="middle" x="373" y="-143.5" font-family="Helvetica,sans-Serif" font-size="10.00" fill="#000000">vector&lt;Box&gt;</text>
</a>
</g>
</g>
<!-- Node14 -->
<g id="node12" class="node">
<title>Node14</title>
<g id="a_node12"><a xlink:href="classaworx_1_1lib_1_1boxing_1_1Boxes.html" target="_top" xlink:title="Boxes">
<polygon fill="#ffffff" stroke="#000000" points="341,-69.5 341,-88.5 385,-88.5 385,-69.5 341,-69.5"/>
<text text-anchor="middle" x="363" y="-76.5" font-family="Helvetica,sans-Serif" font-size="10.00" fill="#000000">Boxes</text>
</a>
</g>
</g>
<!-- Node15&#45;&gt;Node14 -->
<g id="edge15" class="edge">
<title>Node15&#45;&gt;Node14</title>
<path fill="none" stroke="#191970" d="M370.0875,-126.4863C368.2282,-114.0286 365.8994,-98.4258 364.4301,-88.5817"/>
<polygon fill="#191970" stroke="#191970" points="366.6293,-127.0268 371.5672,-136.4005 373.5526,-125.9934 366.6293,-127.0268"/>
</g>
<!-- Node12 -->
<g id="node3" class="node">
<title>Node12</title>
<g id="a_node3"><a xlink:href="classaworx_1_1lib_1_1strings_1_1PreallocatedString.html" target="_top" xlink:title="PreallocatedString\&lt;TCapacity\&gt;">
<polygon fill="#ffffff" stroke="#000000" points="28,-203.5 28,-222.5 180,-222.5 180,-203.5 28,-203.5"/>
<text text-anchor="middle" x="104" y="-210.5" font-family="Helvetica,sans-Serif" font-size="10.00" fill="#000000">PreallocatedString&lt;TCapacity&gt;</text>
</a>
</g>
</g>
<!-- Node10 -->
<g id="node9" class="node">
<title>Node10</title>
<g id="a_node9"><a xlink:href="classaworx_1_1lib_1_1threads_1_1Thread.html" target="_top" xlink:title="Thread">
<polygon fill="#ffffff" stroke="#000000" points="236.5,-136.5 236.5,-155.5 283.5,-155.5 283.5,-136.5 236.5,-136.5"/>
<text text-anchor="middle" x="260" y="-143.5" font-family="Helvetica,sans-Serif" font-size="10.00" fill="#000000">Thread</text>
</a>
</g>
</g>
<!-- Node12&#45;&gt;Node10 -->
<g id="edge12" class="edge">
<title>Node12&#45;&gt;Node10</title>
<path fill="none" stroke="#9a32cd" stroke-dasharray="5,2" d="M135.6381,-199.4118C165.9587,-186.3895 210.9498,-167.0664 237.6905,-155.5817"/>
<polygon fill="#9a32cd" stroke="#9a32cd" points="134.1582,-196.2382 126.351,-203.4005 136.9206,-202.6701 134.1582,-196.2382"/>
<text text-anchor="middle" x="206" y="-177" font-family="Helvetica,sans-Serif" font-size="10.00" fill="#000000"> name</text>
</g>
<!-- Node5 -->
<g id="node4" class="node">
<title>Node5</title>
<g id="a_node4"><a xlink:href="classaworx_1_1lib_1_1strings_1_1AString.html" target="_top" xlink:title="AString">
<polygon fill="#ffffff" stroke="#000000" points="79.5,-279.5 79.5,-298.5 128.5,-298.5 128.5,-279.5 79.5,-279.5"/>
<text text-anchor="middle" x="104" y="-286.5" font-family="Helvetica,sans-Serif" font-size="10.00" fill="#000000">AString</text>
</a>
</g>
</g>
<!-- Node5&#45;&gt;Node4 -->
<g id="edge2" class="edge">
<title>Node5&#45;&gt;Node4</title>
<path fill="none" stroke="#9a32cd" stroke-dasharray="5,2" d="M69.5004,-279.4915C39.2288,-268.7993 0,-248.1603 0,-213 0,-213 0,-213 0,-79 0,-37.942 136.9891,-19.7176 199.0622,-13.5672"/>
<polygon fill="#9a32cd" stroke="#9a32cd" points="68.7603,-282.9328 79.3535,-282.7428 70.9539,-276.2854 68.7603,-282.9328"/>
<text text-anchor="middle" x="39.5" y="-143.5" font-family="Helvetica,sans-Serif" font-size="10.00" fill="#000000"> mbsFormatString</text>
</g>
<!-- Node5&#45;&gt;Node12 -->
<g id="edge3" class="edge">
<title>Node5&#45;&gt;Node12</title>
<path fill="none" stroke="#191970" d="M104,-269.1362C104,-254.2258 104,-234.4488 104,-222.7874"/>
<polygon fill="#191970" stroke="#191970" points="100.5001,-269.3745 104,-279.3745 107.5001,-269.3746 100.5001,-269.3745"/>
</g>
<!-- Node6 -->
<g id="node5" class="node">
<title>Node6</title>
<g id="a_node5"><a xlink:href="classaworx_1_1lib_1_1strings_1_1TString.html" target="_top" xlink:title="TString">
<polygon fill="#ffffff" stroke="#000000" points="119,-357.5 119,-376.5 167,-376.5 167,-357.5 119,-357.5"/>
<text text-anchor="middle" x="143" y="-364.5" font-family="Helvetica,sans-Serif" font-size="10.00" fill="#000000">TString</text>
</a>
</g>
</g>
<!-- Node6&#45;&gt;Node5 -->
<g id="edge4" class="edge">
<title>Node6&#45;&gt;Node5</title>
<path fill="none" stroke="#191970" d="M133.593,-348.186C125.7794,-332.5589 114.9811,-310.9623 108.8213,-298.6426"/>
<polygon fill="#191970" stroke="#191970" points="130.6151,-350.0567 138.2178,-357.4357 136.8761,-346.9261 130.6151,-350.0567"/>
</g>
<!-- Node9 -->
<g id="node6" class="node">
<title>Node9</title>
<g id="a_node6"><a xlink:href="classaworx_1_1lib_1_1lang_1_1Ownable.html" target="_top" xlink:title="Ownable">
<polygon fill="#ffffff" stroke="#000000" points="168,-241.5 168,-260.5 222,-260.5 222,-241.5 168,-241.5"/>
<text text-anchor="middle" x="195" y="-248.5" font-family="Helvetica,sans-Serif" font-size="10.00" fill="#000000">Ownable</text>
</a>
</g>
</g>
<!-- Node6&#45;&gt;Node9 -->
<g id="edge5" class="edge">
<title>Node6&#45;&gt;Node9</title>
<path fill="none" stroke="#9a32cd" stroke-dasharray="5,2" d="M151.5789,-347.8625C162.8401,-322.7414 182.1769,-279.6054 190.7239,-260.539"/>
<polygon fill="#9a32cd" stroke="#9a32cd" points="148.3303,-346.5531 147.4335,-357.1099 154.7179,-349.4165 148.3303,-346.5531"/>
<text text-anchor="middle" x="222.5" y="-331" font-family="Helvetica,sans-Serif" font-size="10.00" fill="#000000"> acquirementMethodName</text>
<text text-anchor="middle" x="222.5" y="-320" font-family="Helvetica,sans-Serif" font-size="10.00" fill="#000000">acquirementSourcefile</text>
</g>
<!-- Node8 -->
<g id="node8" class="node">
<title>Node8</title>
<g id="a_node8"><a xlink:href="classaworx_1_1lib_1_1threads_1_1ThreadLock.html" target="_top" xlink:title="ThreadLock">
<polygon fill="#ffffff" stroke="#000000" points="195,-69.5 195,-88.5 263,-88.5 263,-69.5 195,-69.5"/>
<text text-anchor="middle" x="229" y="-76.5" font-family="Helvetica,sans-Serif" font-size="10.00" fill="#000000">ThreadLock</text>
</a>
</g>
</g>
<!-- Node9&#45;&gt;Node8 -->
<g id="edge8" class="edge">
<title>Node9&#45;&gt;Node8</title>
<path fill="none" stroke="#191970" d="M198.9112,-231.2139C206.2201,-194.2395 221.6986,-115.9366 227.0957,-88.6335"/>
<polygon fill="#191970" stroke="#191970" points="195.4311,-230.7708 196.9254,-241.2597 202.2983,-232.1283 195.4311,-230.7708"/>
</g>
<!-- Node7 -->
<g id="node7" class="node">
<title>Node7</title>
<g id="a_node7"><a xlink:href="classaworx_1_1lib_1_1strings_1_1String.html" target="_top" xlink:title="String">
<polygon fill="#ffffff" stroke="#000000" points="122,-414.5 122,-433.5 164,-433.5 164,-414.5 122,-414.5"/>
<text text-anchor="middle" x="143" y="-421.5" font-family="Helvetica,sans-Serif" font-size="10.00" fill="#000000">String</text>
</a>
</g>
</g>
<!-- Node7&#45;&gt;Node6 -->
<g id="edge6" class="edge">
<title>Node7&#45;&gt;Node6</title>
<path fill="none" stroke="#191970" d="M143,-404.2342C143,-394.8491 143,-384.0651 143,-376.5265"/>
<polygon fill="#191970" stroke="#191970" points="139.5001,-404.3307 143,-414.3307 146.5001,-404.3308 139.5001,-404.3307"/>
</g>
<!-- Node8&#45;&gt;Node4 -->
<g id="edge7" class="edge">
<title>Node8&#45;&gt;Node4</title>
<path fill="none" stroke="#9a32cd" stroke-dasharray="5,2" d="M229,-59.1951C229,-46.5514 229,-30.7157 229,-20.7247"/>
<polygon fill="#9a32cd" stroke="#9a32cd" points="225.5001,-59.2572 229,-69.2573 232.5001,-59.2573 225.5001,-59.2572"/>
<text text-anchor="middle" x="277" y="-43" font-family="Helvetica,sans-Serif" font-size="10.00" fill="#000000"> defaultFormatterLock</text>
</g>
<!-- Node10&#45;&gt;Node8 -->
<g id="edge9" class="edge">
<title>Node10&#45;&gt;Node8</title>
<path fill="none" stroke="#9a32cd" stroke-dasharray="5,2" d="M251.3188,-127.2374C245.5,-114.6614 238.0801,-98.6246 233.4333,-88.5817"/>
<polygon fill="#9a32cd" stroke="#9a32cd" points="248.1828,-128.7946 255.5585,-136.4005 254.5357,-125.8552 248.1828,-128.7946"/>
<text text-anchor="middle" x="261.5" y="-110" font-family="Helvetica,sans-Serif" font-size="10.00" fill="#000000"> owner</text>
</g>
<!-- Node11 -->
<g id="node10" class="node">
<title>Node11</title>
<g id="a_node10"><a xlink:href="classaworx_1_1lib_1_1threads_1_1Runnable.html" target="_top" xlink:title="Runnable">
<polygon fill="#ffffff" stroke="#000000" points="308.5,-203.5 308.5,-222.5 365.5,-222.5 365.5,-203.5 308.5,-203.5"/>
<text text-anchor="middle" x="337" y="-210.5" font-family="Helvetica,sans-Serif" font-size="10.00" fill="#000000">Runnable</text>
</a>
</g>
</g>
<!-- Node11&#45;&gt;Node10 -->
<g id="edge10" class="edge">
<title>Node11&#45;&gt;Node10</title>
<path fill="none" stroke="#191970" d="M321.3085,-195.6074C314.6839,-188.6131 306.7257,-180.6476 299,-174 291.2918,-167.3675 282.0731,-160.6975 274.5343,-155.532"/>
<polygon fill="#191970" stroke="#191970" points="319.0138,-198.2803 328.3788,-203.2349 324.1475,-193.5216 319.0138,-198.2803"/>
</g>
<!-- Node11&#45;&gt;Node10 -->
<g id="edge11" class="edge">
<title>Node11&#45;&gt;Node10</title>
<path fill="none" stroke="#9a32cd" stroke-dasharray="5,2" d="M331.2239,-193.8046C328.4071,-186.9072 324.4267,-179.485 319,-174 309.2715,-164.1669 295.4159,-157.3468 283.5762,-152.9012"/>
<polygon fill="#9a32cd" stroke="#9a32cd" points="327.9269,-194.9792 334.5512,-203.2478 334.529,-192.6529 327.9269,-194.9792"/>
<text text-anchor="middle" x="347" y="-177" font-family="Helvetica,sans-Serif" font-size="10.00" fill="#000000"> runnable</text>
</g>
<!-- Node13 -->
<g id="node11" class="node">
<title>Node13</title>
<g id="a_node11"><a xlink:title="STL class. ">
<polygon fill="#ffffff" stroke="#bfbfbf" points="236,-203.5 236,-222.5 280,-222.5 280,-203.5 236,-203.5"/>
<text text-anchor="middle" x="258" y="-210.5" font-family="Helvetica,sans-Serif" font-size="10.00" fill="#000000">thread</text>
</a>
</g>
</g>
<!-- Node13&#45;&gt;Node10 -->
<g id="edge13" class="edge">
<title>Node13&#45;&gt;Node10</title>
<path fill="none" stroke="#9a32cd" stroke-dasharray="5,2" d="M251.149,-193.7657C249.6889,-187.4808 248.8815,-180.4571 250,-174 251.0924,-167.6932 253.4727,-160.9268 255.637,-155.6257"/>
<polygon fill="#9a32cd" stroke="#9a32cd" points="247.8094,-194.8151 253.9977,-203.4149 254.5229,-192.8331 247.8094,-194.8151"/>
<text text-anchor="middle" x="274.5" y="-177" font-family="Helvetica,sans-Serif" font-size="10.00" fill="#000000"> c11Thread</text>
</g>
<!-- Node14&#45;&gt;Node4 -->
<g id="edge14" class="edge">
<title>Node14&#45;&gt;Node4</title>
<path fill="none" stroke="#9a32cd" stroke-dasharray="5,2" d="M350.8986,-61.0251C345.0655,-53.5717 337.4901,-45.4182 329,-40 307.667,-26.3857 279.7598,-18.989 258.849,-15.081"/>
<polygon fill="#9a32cd" stroke="#9a32cd" points="348.1754,-63.2309 356.8964,-69.2472 353.8307,-59.1056 348.1754,-63.2309"/>
<text text-anchor="middle" x="357" y="-43" font-family="Helvetica,sans-Serif" font-size="10.00" fill="#000000"> boxes</text>
</g>
<!-- Node16 -->
<g id="node13" class="node">
<title>Node16</title>
<polygon fill="#ffffff" stroke="#bfbfbf" points="394.5,-203.5 394.5,-222.5 423.5,-222.5 423.5,-203.5 394.5,-203.5"/>
<text text-anchor="middle" x="409" y="-210.5" font-family="Helvetica,sans-Serif" font-size="10.00" fill="#000000">T</text>
</g>
<!-- Node16&#45;&gt;Node15 -->
<g id="edge16" class="edge">
<title>Node16&#45;&gt;Node15</title>
<path fill="none" stroke="#9a32cd" stroke-dasharray="5,2" d="M398.9186,-194.2374C392.1613,-181.6614 383.5446,-165.6246 378.1484,-155.5817"/>
<polygon fill="#9a32cd" stroke="#9a32cd" points="396.0257,-196.2482 403.8421,-203.4005 402.192,-192.935 396.0257,-196.2482"/>
<text text-anchor="middle" x="414.5" y="-177" font-family="Helvetica,sans-Serif" font-size="10.00" fill="#000000"> elements</text>
</g>
</g>
</svg>
