<?xml version="1.0" encoding="UTF-8" standalone="no"?>
<!DOCTYPE svg PUBLIC "-//W3C//DTD SVG 1.1//EN"
 "http://www.w3.org/Graphics/SVG/1.1/DTD/svg11.dtd">
<!-- Generated by graphviz version 2.38.0 (20140413.2041)
 -->
<!-- Title: Tokenizer Pages: 1 -->
<svg width="164pt" height="317pt"
 viewBox="0.00 0.00 164.00 317.00" xmlns="http://www.w3.org/2000/svg" xmlns:xlink="http://www.w3.org/1999/xlink">
<g id="graph0" class="graph" transform="scale(1 1) rotate(0) translate(4 313)">
<title>Tokenizer</title>
<polygon fill="white" stroke="none" points="-4,4 -4,-313 160,-313 160,4 -4,4"/>
<!-- Node1 -->
<g id="node1" class="node"><title>Node1</title>
<polygon fill="#bfbfbf" stroke="black" points="56.5,-0.5 56.5,-19.5 115.5,-19.5 115.5,-0.5 56.5,-0.5"/>
<text text-anchor="middle" x="86" y="-7.5" font-family="Helvetica,sans-Serif" font-size="10.00">Tokenizer</text>
</g>
<!-- Node2 -->
<g id="node2" class="node"><title>Node2</title>
<g id="a_node2"><a xlink:href="classaworx_1_1lib_1_1strings_1_1PreallocatedString.html" target="_top" xlink:title="PreallocatedString\l\&lt; 16 \&gt;">
<polygon fill="white" stroke="black" points="0,-67.5 0,-97.5 96,-97.5 96,-67.5 0,-67.5"/>
<text text-anchor="start" x="8" y="-85.5" font-family="Helvetica,sans-Serif" font-size="10.00">PreallocatedString</text>
<text text-anchor="middle" x="48" y="-74.5" font-family="Helvetica,sans-Serif" font-size="10.00">&lt; 16 &gt;</text>
</a>
</g>
</g>
<!-- Node2&#45;&gt;Node1 -->
<g id="edge1" class="edge"><title>Node2&#45;&gt;Node1</title>
<path fill="none" stroke="#9a32cd" stroke-dasharray="5,2" d="M44.7564,-57.0103C44.8939,-50.5309 45.9958,-43.7468 49,-38 53.1261,-30.1071 60.7239,-23.9525 67.9659,-19.526"/>
<polygon fill="#9a32cd" stroke="#9a32cd" points="41.28,-57.5753 45.2697,-67.3902 48.2714,-57.2295 41.28,-57.5753"/>
<text text-anchor="middle" x="79.5" y="-41" font-family="Helvetica,sans-Serif" font-size="10.00"> Whitespaces</text>
</g>
<!-- Node3 -->
<g id="node3" class="node"><title>Node3</title>
<g id="a_node3"><a xlink:href="classaworx_1_1lib_1_1strings_1_1AString.html" target="_top" xlink:title="AString">
<polygon fill="white" stroke="black" points="40.5,-156.5 40.5,-175.5 89.5,-175.5 89.5,-156.5 40.5,-156.5"/>
<text text-anchor="middle" x="65" y="-163.5" font-family="Helvetica,sans-Serif" font-size="10.00">AString</text>
</a>
</g>
</g>
<!-- Node3&#45;&gt;Node2 -->
<g id="edge2" class="edge"><title>Node3&#45;&gt;Node2</title>
<path fill="none" stroke="midnightblue" d="M61.0846,-146.229C57.993,-131.408 53.7467,-111.051 50.9406,-97.5974"/>
<polygon fill="midnightblue" stroke="midnightblue" points="57.7124,-147.203 63.1807,-156.278 64.5649,-145.774 57.7124,-147.203"/>
</g>
<!-- Node4 -->
<g id="node4" class="node"><title>Node4</title>
<g id="a_node4"><a xlink:href="classaworx_1_1lib_1_1strings_1_1TString.html" target="_top" xlink:title="TString">
<polygon fill="white" stroke="black" points="45,-232.5 45,-251.5 93,-251.5 93,-232.5 45,-232.5"/>
<text text-anchor="middle" x="69" y="-239.5" font-family="Helvetica,sans-Serif" font-size="10.00">TString</text>
</a>
</g>
</g>
<!-- Node4&#45;&gt;Node3 -->
<g id="edge3" class="edge"><title>Node4&#45;&gt;Node3</title>
<path fill="none" stroke="midnightblue" d="M67.9769,-222.072C67.1719,-207.18 66.0871,-187.111 65.4739,-175.768"/>
<polygon fill="midnightblue" stroke="midnightblue" points="64.4907,-222.424 68.5254,-232.221 71.4805,-222.046 64.4907,-222.424"/>
</g>
<!-- Node5 -->
<g id="node5" class="node"><title>Node5</title>
<g id="a_node5"><a xlink:href="classaworx_1_1lib_1_1strings_1_1String.html" target="_top" xlink:title="String">
<polygon fill="white" stroke="black" points="81,-289.5 81,-308.5 123,-308.5 123,-289.5 81,-289.5"/>
<text text-anchor="middle" x="102" y="-296.5" font-family="Helvetica,sans-Serif" font-size="10.00">String</text>
</a>
</g>
</g>
<!-- Node5&#45;&gt;Node4 -->
<g id="edge4" class="edge"><title>Node5&#45;&gt;Node4</title>
<path fill="none" stroke="midnightblue" d="M91.5812,-280.635C85.8061,-271.01 78.8754,-259.459 74.2289,-251.715"/>
<polygon fill="midnightblue" stroke="midnightblue" points="88.6975,-282.632 96.8438,-289.406 94.7,-279.031 88.6975,-282.632"/>
</g>
<!-- Node6 -->
<g id="node6" class="node"><title>Node6</title>
<g id="a_node6"><a xlink:href="classaworx_1_1lib_1_1strings_1_1Substring.html" target="_top" xlink:title="Substring">
<polygon fill="white" stroke="black" points="94,-194.5 94,-213.5 152,-213.5 152,-194.5 94,-194.5"/>
<text text-anchor="middle" x="123" y="-201.5" font-family="Helvetica,sans-Serif" font-size="10.00">Substring</text>
</a>
</g>
</g>
<!-- Node5&#45;&gt;Node6 -->
<g id="edge6" class="edge"><title>Node5&#45;&gt;Node6</title>
<path fill="none" stroke="midnightblue" d="M106.15,-279.622C110.667,-259.618 117.695,-228.495 121.067,-213.562"/>
<polygon fill="midnightblue" stroke="midnightblue" points="102.727,-278.892 103.938,-289.417 109.555,-280.434 102.727,-278.892"/>
</g>
<!-- Node6&#45;&gt;Node1 -->
<g id="edge5" class="edge"><title>Node6&#45;&gt;Node1</title>
<path fill="none" stroke="#9a32cd" stroke-dasharray="5,2" d="M125.263,-184.291C128.286,-152.713 131.059,-87.445 110,-38 107.051,-31.0758 101.593,-24.7105 96.6267,-19.9014"/>
<polygon fill="#9a32cd" stroke="#9a32cd" points="121.775,-183.992 124.182,-194.31 128.735,-184.743 121.775,-183.992"/>
<text text-anchor="middle" x="142" y="-130" font-family="Helvetica,sans-Serif" font-size="10.00"> Rest</text>
<text text-anchor="middle" x="142" y="-119" font-family="Helvetica,sans-Serif" font-size="10.00">Actual</text>
</g>
</g>
</svg>
