<?xml version="1.0" encoding="UTF-8" standalone="no"?>
<!DOCTYPE svg PUBLIC "-//W3C//DTD SVG 1.1//EN"
 "http://www.w3.org/Graphics/SVG/1.1/DTD/svg11.dtd">
<!-- Generated by graphviz version 2.38.0 (20140413.2041)
 -->
<!-- Title: PlainTextLogger Pages: 1 -->
<svg width="958pt" height="536pt"
 viewBox="0.00 0.00 958.00 535.67" xmlns="http://www.w3.org/2000/svg" xmlns:xlink="http://www.w3.org/1999/xlink">
<g id="graph0" class="graph" transform="scale(1 1) rotate(0) translate(4 531.668)">
<title>PlainTextLogger</title>
<polygon fill="white" stroke="none" points="-4,4 -4,-531.668 954,-531.668 954,4 -4,4"/>
<!-- Node1 -->
<g id="node1" class="node"><title>Node1</title>
<polygon fill="#bfbfbf" stroke="black" points="863,-259.168 863,-278.168 950,-278.168 950,-259.168 863,-259.168"/>
<text text-anchor="middle" x="906.5" y="-266.168" font-family="Helvetica,sans-Serif" font-size="10.00">PlainTextLogger</text>
</g>
<!-- Node2 -->
<g id="node2" class="node"><title>Node2</title>
<g id="a_node2"><a xlink:href="classaworx_1_1lox_1_1core_1_1textlogger_1_1TextLogger.html" target="_top" xlink:title="TextLogger">
<polygon fill="white" stroke="black" points="761,-259.168 761,-278.168 826,-278.168 826,-259.168 761,-259.168"/>
<text text-anchor="middle" x="793.5" y="-266.168" font-family="Helvetica,sans-Serif" font-size="10.00">TextLogger</text>
</a>
</g>
</g>
<!-- Node2&#45;&gt;Node1 -->
<g id="edge1" class="edge"><title>Node2&#45;&gt;Node1</title>
<path fill="none" stroke="midnightblue" d="M836.263,-268.668C844.911,-268.668 854.034,-268.668 862.718,-268.668"/>
<polygon fill="midnightblue" stroke="midnightblue" points="836.011,-265.168 826.011,-268.668 836.011,-272.168 836.011,-265.168"/>
</g>
<!-- Node3 -->
<g id="node3" class="node"><title>Node3</title>
<g id="a_node3"><a xlink:href="classaworx_1_1lox_1_1core_1_1Logger.html" target="_top" xlink:title="Logger">
<polygon fill="white" stroke="black" points="570,-422.168 570,-441.168 616,-441.168 616,-422.168 570,-422.168"/>
<text text-anchor="middle" x="593" y="-429.168" font-family="Helvetica,sans-Serif" font-size="10.00">Logger</text>
</a>
</g>
</g>
<!-- Node3&#45;&gt;Node2 -->
<g id="edge2" class="edge"><title>Node3&#45;&gt;Node2</title>
<path fill="none" stroke="midnightblue" d="M626.115,-424.774C658.991,-416.278 709.835,-398.964 743,-367.668 770.393,-341.818 784.856,-297.519 790.131,-278.173"/>
<polygon fill="midnightblue" stroke="midnightblue" points="624.995,-421.445 616.118,-427.23 626.664,-428.243 624.995,-421.445"/>
</g>
<!-- Node4 -->
<g id="node4" class="node"><title>Node4</title>
<g id="a_node4"><a xlink:href="classaworx_1_1lib_1_1threads_1_1SmartLock.html" target="_top" xlink:title="SmartLock">
<polygon fill="white" stroke="red" points="317,-508.168 317,-527.168 381,-527.168 381,-508.168 317,-508.168"/>
<text text-anchor="middle" x="349" y="-515.168" font-family="Helvetica,sans-Serif" font-size="10.00">SmartLock</text>
</a>
</g>
</g>
<!-- Node4&#45;&gt;Node3 -->
<g id="edge3" class="edge"><title>Node4&#45;&gt;Node3</title>
<path fill="none" stroke="midnightblue" d="M391.058,-509.119C426.682,-501.036 479.259,-487.495 523,-469.668 542.503,-461.719 563.511,-449.582 577.156,-441.172"/>
<polygon fill="midnightblue" stroke="midnightblue" points="390.029,-505.762 381.028,-511.352 391.55,-512.595 390.029,-505.762"/>
</g>
<!-- Node5 -->
<g id="node5" class="node"><title>Node5</title>
<g id="a_node5"><a xlink:href="classaworx_1_1lib_1_1time_1_1Ticks.html" target="_top" xlink:title="Ticks">
<polygon fill="white" stroke="black" points="328.5,-441.168 328.5,-460.168 369.5,-460.168 369.5,-441.168 328.5,-441.168"/>
<text text-anchor="middle" x="349" y="-448.168" font-family="Helvetica,sans-Serif" font-size="10.00">Ticks</text>
</a>
</g>
</g>
<!-- Node5&#45;&gt;Node3 -->
<g id="edge4" class="edge"><title>Node5&#45;&gt;Node3</title>
<path fill="none" stroke="#9a32cd" stroke-dasharray="5,2" d="M379.825,-448.326C429.048,-444.461 526.182,-436.835 569.835,-433.408"/>
<polygon fill="#9a32cd" stroke="#9a32cd" points="379.499,-444.841 369.804,-449.113 380.047,-451.819 379.499,-444.841"/>
<text text-anchor="middle" x="473.5" y="-457.668" font-family="Helvetica,sans-Serif" font-size="10.00"> TimeOfLastLog</text>
<text text-anchor="middle" x="473.5" y="-446.668" font-family="Helvetica,sans-Serif" font-size="10.00">TimeOfCreation</text>
</g>
<!-- Node5&#45;&gt;Node5 -->
<g id="edge5" class="edge"><title>Node5&#45;&gt;Node5</title>
<path fill="none" stroke="#9a32cd" stroke-dasharray="5,2" d="M328.631,-470.068C329.991,-474.982 336.781,-478.668 349,-478.668 368.551,-478.668 374.202,-469.233 365.954,-460.425"/>
<polygon fill="#9a32cd" stroke="#9a32cd" points="332.007,-471.019 332.046,-460.425 325.408,-468.682 332.007,-471.019"/>
<text text-anchor="middle" x="349" y="-481.668" font-family="Helvetica,sans-Serif" font-size="10.00"> creationTime</text>
</g>
<!-- Node6 -->
<g id="node6" class="node"><title>Node6</title>
<g id="a_node6"><a xlink:href="classaworx_1_1lib_1_1strings_1_1PreallocatedString.html" target="_top" xlink:title="PreallocatedString\l\&lt; 32 \&gt;">
<polygon fill="white" stroke="black" points="301,-388.668 301,-418.668 397,-418.668 397,-388.668 301,-388.668"/>
<text text-anchor="start" x="309" y="-406.668" font-family="Helvetica,sans-Serif" font-size="10.00">PreallocatedString</text>
<text text-anchor="middle" x="349" y="-395.668" font-family="Helvetica,sans-Serif" font-size="10.00">&lt; 32 &gt;</text>
</a>
</g>
</g>
<!-- Node6&#45;&gt;Node3 -->
<g id="edge6" class="edge"><title>Node6&#45;&gt;Node3</title>
<path fill="none" stroke="#9a32cd" stroke-dasharray="5,2" d="M407.506,-402.342C441.351,-402.468 484.862,-404.202 523,-410.668 539.049,-413.388 556.592,-418.761 569.972,-423.391"/>
<polygon fill="#9a32cd" stroke="#9a32cd" points="407.326,-398.842 397.329,-402.351 407.332,-405.842 407.326,-398.842"/>
<text text-anchor="middle" x="473.5" y="-424.668" font-family="Helvetica,sans-Serif" font-size="10.00"> typeName</text>
<text text-anchor="middle" x="473.5" y="-413.668" font-family="Helvetica,sans-Serif" font-size="10.00">name</text>
</g>
<!-- Node7 -->
<g id="node7" class="node"><title>Node7</title>
<g id="a_node7"><a xlink:href="classaworx_1_1lib_1_1strings_1_1AString.html" target="_top" xlink:title="AString">
<polygon fill="white" stroke="black" points="111,-306.168 111,-325.168 160,-325.168 160,-306.168 111,-306.168"/>
<text text-anchor="middle" x="135.5" y="-313.168" font-family="Helvetica,sans-Serif" font-size="10.00">AString</text>
</a>
</g>
</g>
<!-- Node7&#45;&gt;Node2 -->
<g id="edge18" class="edge"><title>Node7&#45;&gt;Node2</title>
<path fill="none" stroke="#9a32cd" stroke-dasharray="5,2" d="M169.92,-324.578C180.714,-327.056 192.79,-329.411 204,-330.668 398.793,-352.499 450.644,-351.1 645,-325.668 689.168,-319.888 702.326,-322.829 743,-304.668 757.748,-298.082 772.434,-286.626 781.932,-278.404"/>
<polygon fill="#9a32cd" stroke="#9a32cd" points="170.574,-321.136 160.032,-322.197 168.935,-327.941 170.574,-321.136"/>
<text text-anchor="middle" x="473.5" y="-371.668" font-family="Helvetica,sans-Serif" font-size="10.00"> logBuf</text>
<text text-anchor="middle" x="473.5" y="-360.668" font-family="Helvetica,sans-Serif" font-size="10.00">MultiLineDelimiter</text>
<text text-anchor="middle" x="473.5" y="-349.668" font-family="Helvetica,sans-Serif" font-size="10.00">msgBuf</text>
</g>
<!-- Node7&#45;&gt;Node6 -->
<g id="edge7" class="edge"><title>Node7&#45;&gt;Node6</title>
<path fill="none" stroke="midnightblue" d="M153.734,-332.197C166.63,-343.71 185.212,-358.576 204,-367.668 234.619,-382.484 271.947,-391.593 300.925,-396.94"/>
<polygon fill="midnightblue" stroke="midnightblue" points="155.865,-329.402 146.135,-325.21 151.127,-334.555 155.865,-329.402"/>
</g>
<!-- Node11 -->
<g id="node11" class="node"><title>Node11</title>
<polygon fill="white" stroke="#bfbfbf" points="424,-299.668 424,-329.668 523,-329.668 523,-299.668 424,-299.668"/>
<text text-anchor="start" x="432" y="-317.668" font-family="Helvetica,sans-Serif" font-size="10.00">vector&lt; aworx::lib</text>
<text text-anchor="middle" x="473.5" y="-306.668" font-family="Helvetica,sans-Serif" font-size="10.00">::strings::AString &gt;</text>
</g>
<!-- Node7&#45;&gt;Node11 -->
<g id="edge12" class="edge"><title>Node7&#45;&gt;Node11</title>
<path fill="none" stroke="#9a32cd" stroke-dasharray="5,2" d="M170.16,-315.567C229.911,-315.39 354.708,-315.018 423.822,-314.812"/>
<polygon fill="#9a32cd" stroke="#9a32cd" points="170.116,-312.067 160.127,-315.597 170.137,-319.067 170.116,-312.067"/>
<text text-anchor="middle" x="239" y="-318.668" font-family="Helvetica,sans-Serif" font-size="10.00"> elements</text>
</g>
<!-- Node12 -->
<g id="node12" class="node"><title>Node12</title>
<g id="a_node12"><a xlink:href="classaworx_1_1lox_1_1core_1_1textlogger_1_1MetaInfo.html" target="_top" xlink:title="MetaInfo">
<polygon fill="white" stroke="black" points="321.5,-139.168 321.5,-158.168 376.5,-158.168 376.5,-139.168 321.5,-139.168"/>
<text text-anchor="middle" x="349" y="-146.168" font-family="Helvetica,sans-Serif" font-size="10.00">MetaInfo</text>
</a>
</g>
</g>
<!-- Node7&#45;&gt;Node12 -->
<g id="edge16" class="edge"><title>Node7&#45;&gt;Node12</title>
<path fill="none" stroke="#9a32cd" stroke-dasharray="5,2" d="M151.544,-298.451C177.689,-269.364 234.263,-210.02 292,-172.668 301.059,-166.807 311.789,-161.807 321.42,-157.911"/>
<polygon fill="#9a32cd" stroke="#9a32cd" points="148.746,-296.33 144.719,-306.13 153.978,-300.98 148.746,-296.33"/>
<text text-anchor="middle" x="239" y="-244.668" font-family="Helvetica,sans-Serif" font-size="10.00"> Format</text>
</g>
<!-- Node8 -->
<g id="node8" class="node"><title>Node8</title>
<g id="a_node8"><a xlink:href="classaworx_1_1lib_1_1strings_1_1TString.html" target="_top" xlink:title="TString">
<polygon fill="white" stroke="red" points="0,-185.168 0,-204.168 48,-204.168 48,-185.168 0,-185.168"/>
<text text-anchor="middle" x="24" y="-192.168" font-family="Helvetica,sans-Serif" font-size="10.00">TString</text>
</a>
</g>
</g>
<!-- Node8&#45;&gt;Node2 -->
<g id="edge13" class="edge"><title>Node8&#45;&gt;Node2</title>
<path fill="none" stroke="#9a32cd" stroke-dasharray="5,2" d="M58.1006,-194.668C79.822,-194.668 108.851,-194.668 134.5,-194.668 134.5,-194.668 134.5,-194.668 594,-194.668 666.822,-194.668 745.741,-238.935 777.764,-258.993"/>
<polygon fill="#9a32cd" stroke="#9a32cd" points="58.0713,-191.168 48.0712,-194.668 58.0712,-198.168 58.0713,-191.168"/>
<text text-anchor="middle" x="349" y="-241.668" font-family="Helvetica,sans-Serif" font-size="10.00"> FmtUnknownObject</text>
<text text-anchor="middle" x="349" y="-230.668" font-family="Helvetica,sans-Serif" font-size="10.00">FmtMultiLineMsgHeadline</text>
<text text-anchor="middle" x="349" y="-219.668" font-family="Helvetica,sans-Serif" font-size="10.00">MultiLineDelimiterRepl</text>
<text text-anchor="middle" x="349" y="-208.668" font-family="Helvetica,sans-Serif" font-size="10.00">FmtMultiLineSuffix</text>
<text text-anchor="middle" x="349" y="-197.668" font-family="Helvetica,sans-Serif" font-size="10.00">FmtMultiLinePrefix</text>
</g>
<!-- Node8&#45;&gt;Node7 -->
<g id="edge8" class="edge"><title>Node8&#45;&gt;Node7</title>
<path fill="none" stroke="midnightblue" d="M40.8095,-212.137C64.2042,-237.989 107.262,-285.569 125.721,-305.967"/>
<polygon fill="midnightblue" stroke="midnightblue" points="43.2659,-209.636 33.9608,-204.569 38.0757,-214.333 43.2659,-209.636"/>
</g>
<!-- Node8&#45;&gt;Node12 -->
<g id="edge15" class="edge"><title>Node8&#45;&gt;Node12</title>
<path fill="none" stroke="#9a32cd" stroke-dasharray="5,2" d="M24.8119,-174.86C25.6583,-136.712 33.6306,-53.5613 85,-16.6675 121.46,9.51811 144.324,0.00868028 186,-16.6675 246.416,-40.8421 239.551,-79.1509 292,-117.668 303.196,-125.889 316.81,-133.473 327.811,-139.082"/>
<polygon fill="#9a32cd" stroke="#9a32cd" points="21.31,-175.129 24.7379,-185.154 28.3098,-175.179 21.31,-175.129"/>
<text text-anchor="middle" x="135.5" y="-129.668" font-family="Helvetica,sans-Serif" font-size="10.00"> TimeDiffHours</text>
<text text-anchor="middle" x="135.5" y="-118.668" font-family="Helvetica,sans-Serif" font-size="10.00">VerbosityInfo</text>
<text text-anchor="middle" x="135.5" y="-107.668" font-family="Helvetica,sans-Serif" font-size="10.00">VerbosityWarning</text>
<text text-anchor="middle" x="135.5" y="-96.6675" font-family="Helvetica,sans-Serif" font-size="10.00">VerbosityVerbose</text>
<text text-anchor="middle" x="135.5" y="-85.6675" font-family="Helvetica,sans-Serif" font-size="10.00">TimeDiffMicros</text>
<text text-anchor="middle" x="135.5" y="-74.6675" font-family="Helvetica,sans-Serif" font-size="10.00">TimeElapsedDays</text>
<text text-anchor="middle" x="135.5" y="-63.6675" font-family="Helvetica,sans-Serif" font-size="10.00">VerbosityError</text>
<text text-anchor="middle" x="135.5" y="-52.6675" font-family="Helvetica,sans-Serif" font-size="10.00">TimeOfDayFormat</text>
<text text-anchor="middle" x="135.5" y="-41.6675" font-family="Helvetica,sans-Serif" font-size="10.00">DateFormat</text>
<text text-anchor="middle" x="135.5" y="-30.6675" font-family="Helvetica,sans-Serif" font-size="10.00">TimeDiffMins</text>
<text text-anchor="middle" x="135.5" y="-19.6675" font-family="Helvetica,sans-Serif" font-size="10.00">...</text>
</g>
<!-- Node9 -->
<g id="node9" class="node"><title>Node9</title>
<g id="a_node9"><a xlink:href="classaworx_1_1lox_1_1core_1_1textlogger_1_1AutoSizes.html" target="_top" xlink:title="AutoSizes">
<polygon fill="white" stroke="black" points="562,-259.168 562,-278.168 624,-278.168 624,-259.168 562,-259.168"/>
<text text-anchor="middle" x="593" y="-266.168" font-family="Helvetica,sans-Serif" font-size="10.00">AutoSizes</text>
</a>
</g>
</g>
<!-- Node9&#45;&gt;Node2 -->
<g id="edge9" class="edge"><title>Node9&#45;&gt;Node2</title>
<path fill="none" stroke="#9a32cd" stroke-dasharray="5,2" d="M634.183,-268.668C671.522,-268.668 726.393,-268.668 760.752,-268.668"/>
<polygon fill="#9a32cd" stroke="#9a32cd" points="634.148,-265.168 624.148,-268.668 634.148,-272.168 634.148,-265.168"/>
<text text-anchor="middle" x="703" y="-271.668" font-family="Helvetica,sans-Serif" font-size="10.00"> AutoSizes</text>
</g>
<!-- Node10 -->
<g id="node10" class="node"><title>Node10</title>
<polygon fill="white" stroke="#bfbfbf" points="313,-268.168 313,-287.168 385,-287.168 385,-268.168 313,-268.168"/>
<text text-anchor="middle" x="349" y="-275.168" font-family="Helvetica,sans-Serif" font-size="10.00">vector&lt; int &gt;</text>
</g>
<!-- Node10&#45;&gt;Node9 -->
<g id="edge10" class="edge"><title>Node10&#45;&gt;Node9</title>
<path fill="none" stroke="#9a32cd" stroke-dasharray="5,2" d="M395.311,-270.565C404.768,-269.358 414.691,-268.294 424,-267.668 467.901,-264.715 479.001,-267.349 523,-267.668 535.699,-267.76 549.711,-267.947 561.773,-268.135"/>
<polygon fill="#9a32cd" stroke="#9a32cd" points="394.727,-267.112 385.284,-271.916 395.662,-274.049 394.727,-267.112"/>
<text text-anchor="middle" x="473.5" y="-281.668" font-family="Helvetica,sans-Serif" font-size="10.00"> values</text>
<text text-anchor="middle" x="473.5" y="-270.668" font-family="Helvetica,sans-Serif" font-size="10.00">sessionValues</text>
</g>
<!-- Node11&#45;&gt;Node2 -->
<g id="edge11" class="edge"><title>Node11&#45;&gt;Node2</title>
<path fill="none" stroke="#9a32cd" stroke-dasharray="5,2" d="M533.637,-310.9C588.366,-306.693 671.78,-298.445 743,-283.668 749.946,-282.226 757.319,-280.246 764.194,-278.197"/>
<polygon fill="#9a32cd" stroke="#9a32cd" points="533.135,-307.428 523.424,-311.664 533.657,-314.408 533.135,-307.428"/>
<text text-anchor="middle" x="593" y="-313.668" font-family="Helvetica,sans-Serif" font-size="10.00"> replacements</text>
</g>
<!-- Node12&#45;&gt;Node2 -->
<g id="edge14" class="edge"><title>Node12&#45;&gt;Node2</title>
<path fill="none" stroke="#9a32cd" stroke-dasharray="5,2" d="M386.681,-147.263C472.838,-144.647 685.204,-142.379 743,-180.668 771.35,-199.448 785.159,-240.301 790.185,-258.988"/>
<polygon fill="#9a32cd" stroke="#9a32cd" points="386.462,-143.768 376.58,-147.589 386.688,-150.764 386.462,-143.768"/>
<text text-anchor="middle" x="593" y="-157.668" font-family="Helvetica,sans-Serif" font-size="10.00"> MetaInfo</text>
</g>
<!-- Node13 -->
<g id="node13" class="node"><title>Node13</title>
<g id="a_node13"><a xlink:href="classaworx_1_1lib_1_1time_1_1TicksCalendarTime.html" target="_top" xlink:title="TicksCalendarTime">
<polygon fill="white" stroke="black" points="85,-147.168 85,-166.168 186,-166.168 186,-147.168 85,-147.168"/>
<text text-anchor="middle" x="135.5" y="-154.168" font-family="Helvetica,sans-Serif" font-size="10.00">TicksCalendarTime</text>
</a>
</g>
</g>
<!-- Node13&#45;&gt;Node12 -->
<g id="edge17" class="edge"><title>Node13&#45;&gt;Node12</title>
<path fill="none" stroke="#9a32cd" stroke-dasharray="5,2" d="M196.277,-154.406C237.411,-152.851 290.07,-150.859 321.299,-149.678"/>
<polygon fill="#9a32cd" stroke="#9a32cd" points="195.948,-150.916 186.087,-154.792 196.213,-157.911 195.948,-150.916"/>
<text text-anchor="middle" x="239" y="-157.668" font-family="Helvetica,sans-Serif" font-size="10.00"> callerDateTime</text>
</g>
<!-- Node14 -->
<g id="node14" class="node"><title>Node14</title>
<polygon fill="white" stroke="#bfbfbf" points="541,-78.1675 541,-119.168 645,-119.168 645,-78.1675 541,-78.1675"/>
<text text-anchor="start" x="549" y="-107.168" font-family="Helvetica,sans-Serif" font-size="10.00">vector&lt; aworx::lox</text>
<text text-anchor="start" x="549" y="-96.1675" font-family="Helvetica,sans-Serif" font-size="10.00">::core::textlogger::</text>
<text text-anchor="middle" x="593" y="-85.1675" font-family="Helvetica,sans-Serif" font-size="10.00">ObjectConverter * &gt;</text>
</g>
<!-- Node14&#45;&gt;Node2 -->
<g id="edge19" class="edge"><title>Node14&#45;&gt;Node2</title>
<path fill="none" stroke="#9a32cd" stroke-dasharray="5,2" d="M655.346,-98.4708C684.952,-101.437 719.136,-109.78 743,-130.668 782.455,-165.201 790.464,-233.515 792.088,-258.883"/>
<polygon fill="#9a32cd" stroke="#9a32cd" points="655.34,-94.9589 645.089,-97.6341 654.771,-101.936 655.34,-94.9589"/>
<text text-anchor="middle" x="703" y="-133.668" font-family="Helvetica,sans-Serif" font-size="10.00"> ObjectConverters</text>
</g>
<!-- Node15 -->
<g id="node15" class="node"><title>Node15</title>
<g id="a_node15"><a xlink:href="classaworx_1_1lox_1_1core_1_1textlogger_1_1ObjectConverter.html" target="_top" xlink:title="ObjectConverter">
<polygon fill="white" stroke="black" points="305,-89.1675 305,-108.168 393,-108.168 393,-89.1675 305,-89.1675"/>
<text text-anchor="middle" x="349" y="-96.1675" font-family="Helvetica,sans-Serif" font-size="10.00">ObjectConverter</text>
</a>
</g>
</g>
<!-- Node15&#45;&gt;Node14 -->
<g id="edge20" class="edge"><title>Node15&#45;&gt;Node14</title>
<path fill="none" stroke="#9a32cd" stroke-dasharray="5,2" d="M403.317,-98.6675C444.218,-98.6675 500.33,-98.6675 540.715,-98.6675"/>
<polygon fill="#9a32cd" stroke="#9a32cd" points="403.265,-95.1676 393.265,-98.6675 403.265,-102.168 403.265,-95.1676"/>
<text text-anchor="middle" x="473.5" y="-101.668" font-family="Helvetica,sans-Serif" font-size="10.00"> elements</text>
</g>
</g>
</svg>
