<?xml version="1.0" encoding="UTF-8" standalone="no"?>
<!DOCTYPE svg PUBLIC "-//W3C//DTD SVG 1.1//EN"
 "http://www.w3.org/Graphics/SVG/1.1/DTD/svg11.dtd">
<!-- Generated by graphviz version 2.38.0 (20140413.2041)
 -->
<!-- Title: ThreadLock Pages: 1 -->
<svg width="927pt" height="149pt"
 viewBox="0.00 0.00 927.00 149.00" xmlns="http://www.w3.org/2000/svg" xmlns:xlink="http://www.w3.org/1999/xlink">
<g id="graph0" class="graph" transform="scale(1 1) rotate(0) translate(4 145)">
<title>ThreadLock</title>
<polygon fill="white" stroke="none" points="-4,4 -4,-145 923,-145 923,4 -4,4"/>
<!-- Node1 -->
<g id="node1" class="node"><title>Node1</title>
<polygon fill="#bfbfbf" stroke="black" points="819.5,-19.5 819.5,-38.5 887.5,-38.5 887.5,-19.5 819.5,-19.5"/>
<text text-anchor="middle" x="853.5" y="-26.5" font-family="Helvetica,sans-Serif" font-size="10.00">ThreadLock</text>
</g>
<!-- Node9 -->
<g id="node2" class="node"><title>Node9</title>
<polygon fill="white" stroke="#bfbfbf" points="788,-71.5 788,-90.5 919,-90.5 919,-71.5 788,-71.5"/>
<text text-anchor="middle" x="853.5" y="-78.5" font-family="Helvetica,sans-Serif" font-size="10.00">map&lt;thread::id, Thread *&gt;</text>
</g>
<!-- Node5 -->
<g id="node8" class="node"><title>Node5</title>
<g id="a_node8"><a xlink:href="classaworx_1_1lib_1_1threads_1_1Thread.html" target="_top" xlink:title="Thread">
<polygon fill="white" stroke="black" points="656,-62.5 656,-81.5 703,-81.5 703,-62.5 656,-62.5"/>
<text text-anchor="middle" x="679.5" y="-69.5" font-family="Helvetica,sans-Serif" font-size="10.00">Thread</text>
</a>
</g>
</g>
<!-- Node9&#45;&gt;Node5 -->
<g id="edge11" class="edge"><title>Node9&#45;&gt;Node5</title>
<path fill="none" stroke="#9a32cd" stroke-dasharray="5,2" d="M777.666,-71.5301C775.081,-71.3303 772.52,-71.1522 770,-71 748.262,-69.6873 742.776,-70.7312 721,-71 715.233,-71.0712 709.005,-71.1994 703.204,-71.3407"/>
<polygon fill="#9a32cd" stroke="#9a32cd" points="777.452,-75.0245 787.716,-72.3991 778.055,-68.0505 777.452,-75.0245"/>
<text text-anchor="middle" x="745.5" y="-74" font-family="Helvetica,sans-Serif" font-size="10.00"> threadMap</text>
</g>
<!-- Node7 -->
<g id="node3" class="node"><title>Node7</title>
<g id="a_node3"><a xlink:href="classaworx_1_1lib_1_1strings_1_1PreallocatedString.html" target="_top" xlink:title="PreallocatedString\&lt;TCapacity\&gt;">
<polygon fill="white" stroke="black" points="418,-121.5 418,-140.5 571,-140.5 571,-121.5 418,-121.5"/>
<text text-anchor="middle" x="494.5" y="-128.5" font-family="Helvetica,sans-Serif" font-size="10.00">PreallocatedString&lt;TCapacity&gt;</text>
</a>
</g>
</g>
<!-- Node7&#45;&gt;Node5 -->
<g id="edge9" class="edge"><title>Node7&#45;&gt;Node5</title>
<path fill="none" stroke="#9a32cd" stroke-dasharray="5,2" d="M571.265,-119.372C593.311,-114.565 617.078,-107.955 638,-99 648.41,-94.544 659.019,-87.3552 666.766,-81.5154"/>
<polygon fill="#9a32cd" stroke="#9a32cd" points="570.347,-115.988 561.273,-121.456 571.777,-122.841 570.347,-115.988"/>
<text text-anchor="middle" x="613.5" y="-117" font-family="Helvetica,sans-Serif" font-size="10.00"> name</text>
</g>
<!-- Node2 -->
<g id="node4" class="node"><title>Node2</title>
<g id="a_node4"><a xlink:href="classaworx_1_1lib_1_1Ownable.html" target="_top" xlink:title="Ownable">
<polygon fill="white" stroke="black" points="345,-0.5 345,-19.5 400,-19.5 400,-0.5 345,-0.5"/>
<text text-anchor="middle" x="372.5" y="-7.5" font-family="Helvetica,sans-Serif" font-size="10.00">Ownable</text>
</a>
</g>
</g>
<!-- Node2&#45;&gt;Node1 -->
<g id="edge1" class="edge"><title>Node2&#45;&gt;Node1</title>
<path fill="none" stroke="midnightblue" d="M410.346,-11.4615C500.85,-15.0515 732.973,-24.2589 819.411,-27.6875"/>
<polygon fill="midnightblue" stroke="midnightblue" points="410.41,-7.96143 400.28,-11.0622 410.133,-14.9559 410.41,-7.96143"/>
</g>
<!-- Node3 -->
<g id="node5" class="node"><title>Node3</title>
<g id="a_node5"><a xlink:href="classaworx_1_1lib_1_1strings_1_1TString.html" target="_top" xlink:title="TString">
<polygon fill="white" stroke="black" points="79,-37.5 79,-56.5 127,-56.5 127,-37.5 79,-37.5"/>
<text text-anchor="middle" x="103" y="-44.5" font-family="Helvetica,sans-Serif" font-size="10.00">TString</text>
</a>
</g>
</g>
<!-- Node3&#45;&gt;Node2 -->
<g id="edge2" class="edge"><title>Node3&#45;&gt;Node2</title>
<path fill="none" stroke="#9a32cd" stroke-dasharray="5,2" d="M136.878,-35.0493C139.605,-34.28 142.336,-33.582 145,-33 216.05,-17.4752 301.976,-12.3855 344.689,-10.7505"/>
<polygon fill="#9a32cd" stroke="#9a32cd" points="135.667,-31.7603 127.155,-38.0684 137.743,-38.4455 135.667,-31.7603"/>
<text text-anchor="middle" x="202.5" y="-47" font-family="Helvetica,sans-Serif" font-size="10.00"> acquirementMethodName</text>
<text text-anchor="middle" x="202.5" y="-36" font-family="Helvetica,sans-Serif" font-size="10.00">acquirementSourcefile</text>
</g>
<!-- Node8 -->
<g id="node6" class="node"><title>Node8</title>
<g id="a_node6"><a xlink:href="classaworx_1_1lib_1_1strings_1_1AString.html" target="_top" xlink:title="AString">
<polygon fill="white" stroke="black" points="278,-95.5 278,-114.5 327,-114.5 327,-95.5 278,-95.5"/>
<text text-anchor="middle" x="302.5" y="-102.5" font-family="Helvetica,sans-Serif" font-size="10.00">AString</text>
</a>
</g>
</g>
<!-- Node3&#45;&gt;Node8 -->
<g id="edge3" class="edge"><title>Node3&#45;&gt;Node8</title>
<path fill="none" stroke="midnightblue" d="M136.811,-56.6358C176.662,-68.3386 242.893,-87.7889 277.992,-98.0965"/>
<polygon fill="midnightblue" stroke="midnightblue" points="137.623,-53.2265 127.042,-53.7668 135.651,-59.9428 137.623,-53.2265"/>
</g>
<!-- Node8&#45;&gt;Node7 -->
<g id="edge10" class="edge"><title>Node8&#45;&gt;Node7</title>
<path fill="none" stroke="midnightblue" d="M337.21,-109.613C361.25,-112.903 394.425,-117.442 424.029,-121.493"/>
<polygon fill="midnightblue" stroke="midnightblue" points="337.562,-106.129 327.179,-108.24 336.613,-113.064 337.562,-106.129"/>
</g>
<!-- Node4 -->
<g id="node7" class="node"><title>Node4</title>
<g id="a_node7"><a xlink:href="classaworx_1_1lib_1_1strings_1_1String.html" target="_top" xlink:title="String">
<polygon fill="white" stroke="black" points="0,-37.5 0,-56.5 42,-56.5 42,-37.5 0,-37.5"/>
<text text-anchor="middle" x="21" y="-44.5" font-family="Helvetica,sans-Serif" font-size="10.00">String</text>
</a>
</g>
</g>
<!-- Node4&#45;&gt;Node3 -->
<g id="edge4" class="edge"><title>Node4&#45;&gt;Node3</title>
<path fill="none" stroke="midnightblue" d="M52.4727,-47C61.2719,-47 70.7241,-47 78.9881,-47"/>
<polygon fill="midnightblue" stroke="midnightblue" points="52.1874,-43.5001 42.1874,-47 52.1873,-50.5001 52.1874,-43.5001"/>
</g>
<!-- Node5&#45;&gt;Node1 -->
<g id="edge5" class="edge"><title>Node5&#45;&gt;Node1</title>
<path fill="none" stroke="#9a32cd" stroke-dasharray="5,2" d="M710.684,-58.5512C714.127,-57.2506 717.615,-56.0333 721,-55 753.83,-44.9771 792.483,-37.8727 819.35,-33.651"/>
<polygon fill="#9a32cd" stroke="#9a32cd" points="709.196,-55.377 701.223,-62.3539 711.807,-61.872 709.196,-55.377"/>
<text text-anchor="middle" x="745.5" y="-58" font-family="Helvetica,sans-Serif" font-size="10.00"> owner</text>
</g>
<!-- Node5&#45;&gt;Node9 -->
<g id="edge6" class="edge"><title>Node5&#45;&gt;Node9</title>
<path fill="none" stroke="#9a32cd" stroke-dasharray="5,2" d="M713.257,-82.5648C715.857,-83.1396 718.46,-83.6316 721,-84 742.582,-87.1301 766.362,-87.5074 787.697,-86.7501"/>
<polygon fill="#9a32cd" stroke="#9a32cd" points="713.931,-79.1242 703.374,-80.0228 712.187,-85.9036 713.931,-79.1242"/>
<text text-anchor="middle" x="745.5" y="-90" font-family="Helvetica,sans-Serif" font-size="10.00"> elements</text>
</g>
<!-- Node6 -->
<g id="node9" class="node"><title>Node6</title>
<g id="a_node9"><a xlink:href="classaworx_1_1lib_1_1threads_1_1Runnable.html" target="_top" xlink:title="Runnable">
<polygon fill="white" stroke="black" points="465.5,-79.5 465.5,-98.5 523.5,-98.5 523.5,-79.5 465.5,-79.5"/>
<text text-anchor="middle" x="494.5" y="-86.5" font-family="Helvetica,sans-Serif" font-size="10.00">Runnable</text>
</a>
</g>
</g>
<!-- Node6&#45;&gt;Node5 -->
<g id="edge7" class="edge"><title>Node6&#45;&gt;Node5</title>
<path fill="none" stroke="midnightblue" d="M534.066,-85.4173C570.958,-81.9902 625.349,-76.9376 655.769,-74.1116"/>
<polygon fill="midnightblue" stroke="midnightblue" points="533.326,-81.9709 523.693,-86.381 533.974,-88.9409 533.326,-81.9709"/>
</g>
<!-- Node6&#45;&gt;Node5 -->
<g id="edge8" class="edge"><title>Node6&#45;&gt;Node5</title>
<path fill="none" stroke="#9a32cd" stroke-dasharray="5,2" d="M533.768,-87.9526C562.533,-86.8337 602.86,-84.56 638,-80 643.828,-79.2437 650.078,-78.1511 655.881,-77.0152"/>
<polygon fill="#9a32cd" stroke="#9a32cd" points="533.592,-84.4565 523.725,-88.3146 533.844,-91.452 533.592,-84.4565"/>
<text text-anchor="middle" x="613.5" y="-87" font-family="Helvetica,sans-Serif" font-size="10.00"> runnable</text>
</g>
<!-- Node10 -->
<g id="node10" class="node"><title>Node10</title>
<g id="a_node10"><a xlink:title="STL class. ">
<polygon fill="white" stroke="#bfbfbf" points="472.5,-33.5 472.5,-52.5 516.5,-52.5 516.5,-33.5 472.5,-33.5"/>
<text text-anchor="middle" x="494.5" y="-40.5" font-family="Helvetica,sans-Serif" font-size="10.00">thread</text>
</a>
</g>
</g>
<!-- Node10&#45;&gt;Node5 -->
<g id="edge12" class="edge"><title>Node10&#45;&gt;Node5</title>
<path fill="none" stroke="#9a32cd" stroke-dasharray="5,2" d="M526.853,-45.6914C555.861,-48.481 600.092,-53.496 638,-61 643.861,-62.1602 650.122,-63.7057 655.927,-65.2707"/>
<polygon fill="#9a32cd" stroke="#9a32cd" points="527.176,-42.2065 516.894,-44.7639 526.527,-49.1763 527.176,-42.2065"/>
<text text-anchor="middle" x="613.5" y="-64" font-family="Helvetica,sans-Serif" font-size="10.00"> c11Thread</text>
</g>
</g>
</svg>
