<?xml version="1.0" encoding="UTF-8" standalone="no"?>
<!DOCTYPE svg PUBLIC "-//W3C//DTD SVG 1.1//EN"
 "http://www.w3.org/Graphics/SVG/1.1/DTD/svg11.dtd">
<!-- Generated by graphviz version 2.40.1 (20161225.0304)
 -->
<!-- Title: MetaInfo Pages: 1 -->
<svg width="492pt" height="319pt"
 viewBox="0.00 0.00 491.50 319.00" xmlns="http://www.w3.org/2000/svg" xmlns:xlink="http://www.w3.org/1999/xlink">
<g id="graph0" class="graph" transform="scale(1 1) rotate(0) translate(4 315)">
<title>MetaInfo</title>
<polygon fill="#ffffff" stroke="transparent" points="-4,4 -4,-315 487.5,-315 487.5,4 -4,4"/>
<!-- Node1 -->
<g id="node1" class="node">
<title>Node1</title>
<polygon fill="#bfbfbf" stroke="#000000" points="150,-.5 150,-19.5 205,-19.5 205,-.5 150,-.5"/>
<text text-anchor="middle" x="177.5" y="-7.5" font-family="Helvetica,sans-Serif" font-size="10.00" fill="#000000">MetaInfo</text>
</g>
<!-- Node2 -->
<g id="node2" class="node">
<title>Node2</title>
<g id="a_node2"><a xlink:href="classaworx_1_1lib_1_1strings_1_1PreallocatedString.html" target="_top" xlink:title="PreallocatedString\&lt;TCapacity\&gt;">
<polygon fill="#ffffff" stroke="#000000" points="64.5,-177.5 64.5,-196.5 216.5,-196.5 216.5,-177.5 64.5,-177.5"/>
<text text-anchor="middle" x="140.5" y="-184.5" font-family="Helvetica,sans-Serif" font-size="10.00" fill="#000000">PreallocatedString&lt;TCapacity&gt;</text>
</a>
</g>
</g>
<!-- Node2&#45;&gt;Node1 -->
<g id="edge1" class="edge">
<title>Node2&#45;&gt;Node1</title>
<path fill="none" stroke="#9a32cd" stroke-dasharray="5,2" d="M88.7342,-172.5113C83.1335,-168.9499 78.1523,-164.5169 74.5,-159 44.8136,-114.1584 41.8397,-80.7241 74.5,-38 83.644,-26.0384 122.6809,-17.9804 149.9764,-13.69"/>
<polygon fill="#9a32cd" stroke="#9a32cd" points="87.4724,-175.8049 97.9433,-177.4209 90.7655,-169.6279 87.4724,-175.8049"/>
<text text-anchor="middle" x="115" y="-151" font-family="Helvetica,sans-Serif" font-size="10.00" fill="#000000"> TimeDiffHours</text>
<text text-anchor="middle" x="115" y="-140" font-family="Helvetica,sans-Serif" font-size="10.00" fill="#000000">VerbosityInfo</text>
<text text-anchor="middle" x="115" y="-129" font-family="Helvetica,sans-Serif" font-size="10.00" fill="#000000">VerbosityWarning</text>
<text text-anchor="middle" x="115" y="-118" font-family="Helvetica,sans-Serif" font-size="10.00" fill="#000000">VerbosityVerbose</text>
<text text-anchor="middle" x="115" y="-107" font-family="Helvetica,sans-Serif" font-size="10.00" fill="#000000">TimeDiffMicros</text>
<text text-anchor="middle" x="115" y="-96" font-family="Helvetica,sans-Serif" font-size="10.00" fill="#000000">TimeElapsedDays</text>
<text text-anchor="middle" x="115" y="-85" font-family="Helvetica,sans-Serif" font-size="10.00" fill="#000000">VerbosityError</text>
<text text-anchor="middle" x="115" y="-74" font-family="Helvetica,sans-Serif" font-size="10.00" fill="#000000">TimeOfDayFormat</text>
<text text-anchor="middle" x="115" y="-63" font-family="Helvetica,sans-Serif" font-size="10.00" fill="#000000">TimeDiffMins</text>
<text text-anchor="middle" x="115" y="-52" font-family="Helvetica,sans-Serif" font-size="10.00" fill="#000000">TimeDiffSecs</text>
<text text-anchor="middle" x="115" y="-41" font-family="Helvetica,sans-Serif" font-size="10.00" fill="#000000">...</text>
</g>
<!-- Node2&#45;&gt;Node1 -->
<g id="edge2" class="edge">
<title>Node2&#45;&gt;Node1</title>
<path fill="none" stroke="#9a32cd" stroke-dasharray="5,2" d="M151.6561,-168.2789C153.1276,-165.2519 154.4773,-162.0942 155.5,-159 172.2394,-108.3516 176.2706,-43.8076 177.2176,-19.6764"/>
<polygon fill="#9a32cd" stroke="#9a32cd" points="148.4733,-166.8066 146.7916,-177.2671 154.6295,-170.1385 148.4733,-166.8066"/>
<text text-anchor="middle" x="203" y="-96" font-family="Helvetica,sans-Serif" font-size="10.00" fill="#000000"> DateFormat</text>
</g>
<!-- Node3 -->
<g id="node3" class="node">
<title>Node3</title>
<g id="a_node3"><a xlink:href="classaworx_1_1lib_1_1strings_1_1AString.html" target="_top" xlink:title="AString">
<polygon fill="#ffffff" stroke="#000000" points="0,-234.5 0,-253.5 49,-253.5 49,-234.5 0,-234.5"/>
<text text-anchor="middle" x="24.5" y="-241.5" font-family="Helvetica,sans-Serif" font-size="10.00" fill="#000000">AString</text>
</a>
</g>
</g>
<!-- Node3&#45;&gt;Node1 -->
<g id="edge3" class="edge">
<title>Node3&#45;&gt;Node1</title>
<path fill="none" stroke="#9a32cd" stroke-dasharray="5,2" d="M19.716,-224.2785C11.083,-183.353 -1.9273,-88.7919 47.5,-38 61.4275,-23.6879 115.8996,-15.9325 149.7573,-12.408"/>
<polygon fill="#9a32cd" stroke="#9a32cd" points="16.3179,-225.1204 21.9287,-234.1076 23.147,-223.583 16.3179,-225.1204"/>
<text text-anchor="middle" x="32.5" y="-184.5" font-family="Helvetica,sans-Serif" font-size="10.00" fill="#000000"> Format</text>
</g>
<!-- Node3&#45;&gt;Node2 -->
<g id="edge4" class="edge">
<title>Node3&#45;&gt;Node2</title>
<path fill="none" stroke="#191970" d="M53.0669,-229.9628C74.2014,-219.5778 102.4299,-205.7069 121.0209,-196.5716"/>
<polygon fill="#191970" stroke="#191970" points="51.3472,-226.908 43.9158,-234.4595 54.4344,-233.1906 51.3472,-226.908"/>
</g>
<!-- Node4 -->
<g id="node4" class="node">
<title>Node4</title>
<g id="a_node4"><a xlink:href="classaworx_1_1lib_1_1strings_1_1TString.html" target="_top" xlink:title="TString">
<polygon fill="#ffffff" stroke="#ff0000" points=".5,-291.5 .5,-310.5 48.5,-310.5 48.5,-291.5 .5,-291.5"/>
<text text-anchor="middle" x="24.5" y="-298.5" font-family="Helvetica,sans-Serif" font-size="10.00" fill="#000000">TString</text>
</a>
</g>
</g>
<!-- Node4&#45;&gt;Node3 -->
<g id="edge5" class="edge">
<title>Node4&#45;&gt;Node3</title>
<path fill="none" stroke="#191970" d="M24.5,-281.2342C24.5,-271.8491 24.5,-261.0651 24.5,-253.5265"/>
<polygon fill="#191970" stroke="#191970" points="21.0001,-281.3307 24.5,-291.3307 28.0001,-281.3308 21.0001,-281.3307"/>
</g>
<!-- Node6 -->
<g id="node5" class="node">
<title>Node6</title>
<g id="a_node5"><a xlink:href="classaworx_1_1lib_1_1time_1_1Ticks.html" target="_top" xlink:title="Ticks">
<polygon fill="#ffffff" stroke="#000000" points="235,-177.5 235,-196.5 276,-196.5 276,-177.5 235,-177.5"/>
<text text-anchor="middle" x="255.5" y="-184.5" font-family="Helvetica,sans-Serif" font-size="10.00" fill="#000000">Ticks</text>
</a>
</g>
</g>
<!-- Node6&#45;&gt;Node1 -->
<g id="edge6" class="edge">
<title>Node6&#45;&gt;Node1</title>
<path fill="none" stroke="#9a32cd" stroke-dasharray="5,2" d="M258.0162,-166.8463C260.7539,-136.0226 261.5189,-76.6824 233.5,-38 226.6135,-28.4927 215.5707,-22.0238 205.1041,-17.7217"/>
<polygon fill="#9a32cd" stroke="#9a32cd" points="254.4966,-166.8485 256.9263,-177.161 261.4578,-167.5842 254.4966,-166.8485"/>
<text text-anchor="middle" x="298" y="-96" font-family="Helvetica,sans-Serif" font-size="10.00" fill="#000000"> MaxElapsedTime</text>
</g>
<!-- Node6&#45;&gt;Node6 -->
<g id="edge7" class="edge">
<title>Node6&#45;&gt;Node6</title>
<path fill="none" stroke="#9a32cd" stroke-dasharray="5,2" d="M286.316,-191.7618C290.9,-191.02 294,-189.4327 294,-187 294,-183.0078 285.6518,-181.2924 276.0969,-181.8538"/>
<polygon fill="#9a32cd" stroke="#9a32cd" points="285.9583,-188.2727 276.0969,-192.1462 286.2214,-195.2678 285.9583,-188.2727"/>
<text text-anchor="middle" x="324" y="-184.5" font-family="Helvetica,sans-Serif" font-size="10.00" fill="#000000"> creationTime</text>
</g>
<!-- Node8 -->
<g id="node6" class="node">
<title>Node8</title>
<g id="a_node6"><a xlink:href="classaworx_1_1lib_1_1time_1_1TicksCalendarTime.html" target="_top" xlink:title="TicksCalendarTime">
<polygon fill="#ffffff" stroke="#000000" points="372,-177.5 372,-196.5 473,-196.5 473,-177.5 372,-177.5"/>
<text text-anchor="middle" x="422.5" y="-184.5" font-family="Helvetica,sans-Serif" font-size="10.00" fill="#000000">TicksCalendarTime</text>
</a>
</g>
</g>
<!-- Node8&#45;&gt;Node1 -->
<g id="edge8" class="edge">
<title>Node8&#45;&gt;Node1</title>
<path fill="none" stroke="#9a32cd" stroke-dasharray="5,2" d="M417.7721,-167.3211C408.8492,-134.7433 386.2697,-70.0278 341.5,-38 320.1225,-22.7067 246.2503,-15.0065 205.3291,-11.8326"/>
<polygon fill="#9a32cd" stroke="#9a32cd" points="414.4847,-168.5897 420.3727,-177.3977 421.2626,-166.8404 414.4847,-168.5897"/>
<text text-anchor="middle" x="449" y="-96" font-family="Helvetica,sans-Serif" font-size="10.00" fill="#000000"> callerDateTime</text>
</g>
</g>
</svg>
