<?xml version="1.0" encoding="UTF-8" standalone="no"?>
<!DOCTYPE svg PUBLIC "-//W3C//DTD SVG 1.1//EN"
 "http://www.w3.org/Graphics/SVG/1.1/DTD/svg11.dtd">
<!-- Generated by graphviz version 2.38.0 (20140413.2041)
 -->
<!-- Title: Tokenizer Pages: 1 -->
<svg width="221pt" height="306pt"
 viewBox="0.00 0.00 220.50 306.00" xmlns="http://www.w3.org/2000/svg" xmlns:xlink="http://www.w3.org/1999/xlink">
<g id="graph0" class="graph" transform="scale(1 1) rotate(0) translate(4 302)">
<title>Tokenizer</title>
<polygon fill="white" stroke="none" points="-4,4 -4,-302 216.5,-302 216.5,4 -4,4"/>
<!-- Node1 -->
<g id="node1" class="node"><title>Node1</title>
<polygon fill="#bfbfbf" stroke="black" points="113,-0.5 113,-19.5 172,-19.5 172,-0.5 113,-0.5"/>
<text text-anchor="middle" x="142.5" y="-7.5" font-family="Helvetica,sans-Serif" font-size="10.00">Tokenizer</text>
</g>
<!-- Node2 -->
<g id="node2" class="node"><title>Node2</title>
<g id="a_node2"><a xlink:href="classaworx_1_1lib_1_1strings_1_1PreallocatedString.html" target="_top" xlink:title="PreallocatedString\&lt;TCapacity\&gt;">
<polygon fill="white" stroke="black" points="0,-67.5 0,-86.5 153,-86.5 153,-67.5 0,-67.5"/>
<text text-anchor="middle" x="76.5" y="-74.5" font-family="Helvetica,sans-Serif" font-size="10.00">PreallocatedString&lt;TCapacity&gt;</text>
</a>
</g>
</g>
<!-- Node2&#45;&gt;Node1 -->
<g id="edge1" class="edge"><title>Node2&#45;&gt;Node1</title>
<path fill="none" stroke="#9a32cd" stroke-dasharray="5,2" d="M88.5795,-58.7963C93.7356,-51.9849 100.047,-44.2949 106.5,-38 113.434,-31.2353 122.097,-24.6892 129.188,-19.7371"/>
<polygon fill="#9a32cd" stroke="#9a32cd" points="85.4235,-57.184 82.36,-67.3263 91.0797,-61.3081 85.4235,-57.184"/>
<text text-anchor="middle" x="137" y="-41" font-family="Helvetica,sans-Serif" font-size="10.00"> Whitespaces</text>
</g>
<!-- Node3 -->
<g id="node3" class="node"><title>Node3</title>
<g id="a_node3"><a xlink:href="classaworx_1_1lib_1_1strings_1_1AString.html" target="_top" xlink:title="AString">
<polygon fill="white" stroke="black" points="91,-145.5 91,-164.5 140,-164.5 140,-145.5 91,-145.5"/>
<text text-anchor="middle" x="115.5" y="-152.5" font-family="Helvetica,sans-Serif" font-size="10.00">AString</text>
</a>
</g>
</g>
<!-- Node3&#45;&gt;Node2 -->
<g id="edge2" class="edge"><title>Node3&#45;&gt;Node2</title>
<path fill="none" stroke="midnightblue" d="M106.326,-136.122C98.3245,-120.53 87.064,-98.5862 80.9216,-86.6165"/>
<polygon fill="midnightblue" stroke="midnightblue" points="103.347,-137.983 111.026,-145.282 109.575,-134.787 103.347,-137.983"/>
</g>
<!-- Node4 -->
<g id="node4" class="node"><title>Node4</title>
<g id="a_node4"><a xlink:href="classaworx_1_1lib_1_1strings_1_1TString.html" target="_top" xlink:title="TString">
<polygon fill="white" stroke="black" points="100.5,-221.5 100.5,-240.5 148.5,-240.5 148.5,-221.5 100.5,-221.5"/>
<text text-anchor="middle" x="124.5" y="-228.5" font-family="Helvetica,sans-Serif" font-size="10.00">TString</text>
</a>
</g>
</g>
<!-- Node4&#45;&gt;Node3 -->
<g id="edge3" class="edge"><title>Node4&#45;&gt;Node3</title>
<path fill="none" stroke="midnightblue" d="M122.198,-211.072C120.387,-196.18 117.946,-176.111 116.566,-164.768"/>
<polygon fill="midnightblue" stroke="midnightblue" points="118.75,-211.716 123.432,-221.221 125.699,-210.871 118.75,-211.716"/>
</g>
<!-- Node5 -->
<g id="node5" class="node"><title>Node5</title>
<g id="a_node5"><a xlink:href="classaworx_1_1lib_1_1strings_1_1String.html" target="_top" xlink:title="String">
<polygon fill="white" stroke="black" points="136.5,-278.5 136.5,-297.5 178.5,-297.5 178.5,-278.5 136.5,-278.5"/>
<text text-anchor="middle" x="157.5" y="-285.5" font-family="Helvetica,sans-Serif" font-size="10.00">String</text>
</a>
</g>
</g>
<!-- Node5&#45;&gt;Node4 -->
<g id="edge4" class="edge"><title>Node5&#45;&gt;Node4</title>
<path fill="none" stroke="midnightblue" d="M147.081,-269.635C141.306,-260.01 134.375,-248.459 129.729,-240.715"/>
<polygon fill="midnightblue" stroke="midnightblue" points="144.198,-271.632 152.344,-278.406 150.2,-268.031 144.198,-271.632"/>
</g>
<!-- Node6 -->
<g id="node6" class="node"><title>Node6</title>
<g id="a_node6"><a xlink:href="classaworx_1_1lib_1_1strings_1_1Substring.html" target="_top" xlink:title="Substring">
<polygon fill="white" stroke="black" points="151.5,-183.5 151.5,-202.5 209.5,-202.5 209.5,-183.5 151.5,-183.5"/>
<text text-anchor="middle" x="180.5" y="-190.5" font-family="Helvetica,sans-Serif" font-size="10.00">Substring</text>
</a>
</g>
</g>
<!-- Node5&#45;&gt;Node6 -->
<g id="edge5" class="edge"><title>Node5&#45;&gt;Node6</title>
<path fill="none" stroke="midnightblue" d="M162.045,-268.622C166.992,-248.618 174.689,-217.495 178.383,-202.562"/>
<polygon fill="midnightblue" stroke="midnightblue" points="158.626,-267.87 159.623,-278.417 165.421,-269.55 158.626,-267.87"/>
</g>
<!-- Node6&#45;&gt;Node1 -->
<g id="edge6" class="edge"><title>Node6&#45;&gt;Node1</title>
<path fill="none" stroke="#9a32cd" stroke-dasharray="5,2" d="M182.74,-172.841C185.435,-142.719 187.391,-83.075 167.5,-38 164.353,-30.8697 158.528,-24.4034 153.292,-19.5877"/>
<polygon fill="#9a32cd" stroke="#9a32cd" points="179.219,-172.867 181.677,-183.173 186.182,-173.584 179.219,-172.867"/>
<text text-anchor="middle" x="198.5" y="-119" font-family="Helvetica,sans-Serif" font-size="10.00"> Rest</text>
<text text-anchor="middle" x="198.5" y="-108" font-family="Helvetica,sans-Serif" font-size="10.00">Actual</text>
</g>
</g>
</svg>
