<?xml version="1.0" encoding="UTF-8" standalone="no"?>
<!DOCTYPE svg PUBLIC "-//W3C//DTD SVG 1.1//EN"
 "http://www.w3.org/Graphics/SVG/1.1/DTD/svg11.dtd">
<!-- Generated by graphviz version 2.38.0 (20140413.2041)
 -->
<!-- Title: ScopeInfo Pages: 1 -->
<svg width="930pt" height="438pt"
 viewBox="0.00 0.00 930.00 438.00" xmlns="http://www.w3.org/2000/svg" xmlns:xlink="http://www.w3.org/1999/xlink">
<g id="graph0" class="graph" transform="scale(1 1) rotate(0) translate(4 434)">
<title>ScopeInfo</title>
<polygon fill="white" stroke="none" points="-4,4 -4,-434 926,-434 926,4 -4,4"/>
<!-- Node1 -->
<g id="node1" class="node"><title>Node1</title>
<polygon fill="#bfbfbf" stroke="black" points="838,-240.5 838,-259.5 899,-259.5 899,-240.5 838,-240.5"/>
<text text-anchor="middle" x="868.5" y="-247.5" font-family="Helvetica,sans-Serif" font-size="10.00">ScopeInfo</text>
</g>
<!-- Node2 -->
<g id="node2" class="node"><title>Node2</title>
<g id="a_node2"><a xlink:title="STL class. ">
<polygon fill="white" stroke="#bfbfbf" points="593.5,-332.5 593.5,-351.5 665.5,-351.5 665.5,-332.5 593.5,-332.5"/>
<text text-anchor="middle" x="629.5" y="-339.5" font-family="Helvetica,sans-Serif" font-size="10.00">map&lt; K, T &gt;</text>
</a>
</g>
</g>
<!-- Node2&#45;&gt;Node1 -->
<g id="edge1" class="edge"><title>Node2&#45;&gt;Node1</title>
<path fill="none" stroke="#9a32cd" stroke-dasharray="5,2" d="M675.371,-331.673C684.91,-329.124 694.859,-326.197 704,-323 757.992,-304.117 818.835,-274.666 848.788,-259.594"/>
<polygon fill="#9a32cd" stroke="#9a32cd" points="674.436,-328.299 665.628,-334.187 676.186,-335.077 674.436,-328.299"/>
<text text-anchor="middle" x="759.5" y="-320" font-family="Helvetica,sans-Serif" font-size="10.00"> threadDictionary</text>
</g>
<!-- Node9 -->
<g id="node3" class="node"><title>Node9</title>
<polygon fill="white" stroke="#bfbfbf" points="555,-205.5 555,-246.5 704,-246.5 704,-205.5 555,-205.5"/>
<text text-anchor="start" x="563" y="-234.5" font-family="Helvetica,sans-Serif" font-size="10.00">vector&lt; aworx::lox</text>
<text text-anchor="start" x="563" y="-223.5" font-family="Helvetica,sans-Serif" font-size="10.00">::core::ScopeInfo::SourcePath</text>
<text text-anchor="middle" x="629.5" y="-212.5" font-family="Helvetica,sans-Serif" font-size="10.00">TrimRule &gt;</text>
</g>
<!-- Node9&#45;&gt;Node1 -->
<g id="edge13" class="edge"><title>Node9&#45;&gt;Node1</title>
<path fill="none" stroke="#9a32cd" stroke-dasharray="5,2" d="M714.261,-223.087C740.846,-223.342 770.273,-224.858 797,-229 812.018,-231.328 828.308,-236.029 841.442,-240.394"/>
<polygon fill="#9a32cd" stroke="#9a32cd" points="714.236,-219.587 704.223,-223.048 714.209,-226.587 714.236,-219.587"/>
<text text-anchor="middle" x="759.5" y="-243" font-family="Helvetica,sans-Serif" font-size="10.00"> GlobalSPTRs</text>
<text text-anchor="middle" x="759.5" y="-232" font-family="Helvetica,sans-Serif" font-size="10.00">LocalSPTRs</text>
</g>
<!-- Node16 -->
<g id="node4" class="node"><title>Node16</title>
<polygon fill="white" stroke="#bfbfbf" points="815,-26.5 815,-67.5 922,-67.5 922,-26.5 815,-26.5"/>
<text text-anchor="start" x="823" y="-55.5" font-family="Helvetica,sans-Serif" font-size="10.00">map&lt; std::thread::id,</text>
<text text-anchor="start" x="823" y="-44.5" font-family="Helvetica,sans-Serif" font-size="10.00"> aworx::lib::threads</text>
<text text-anchor="middle" x="868.5" y="-33.5" font-family="Helvetica,sans-Serif" font-size="10.00">::Thread * &gt;</text>
</g>
<!-- Node13 -->
<g id="node14" class="node"><title>Node13</title>
<g id="a_node14"><a xlink:href="classaworx_1_1lib_1_1threads_1_1Thread.html" target="_top" xlink:title="Thread">
<polygon fill="white" stroke="black" points="606,-52.5 606,-71.5 653,-71.5 653,-52.5 606,-52.5"/>
<text text-anchor="middle" x="629.5" y="-59.5" font-family="Helvetica,sans-Serif" font-size="10.00">Thread</text>
</a>
</g>
</g>
<!-- Node16&#45;&gt;Node13 -->
<g id="edge23" class="edge"><title>Node16&#45;&gt;Node13</title>
<path fill="none" stroke="#9a32cd" stroke-dasharray="5,2" d="M804.725,-37.6372C802.119,-37.3936 799.536,-37.1789 797,-37 763.749,-34.6535 755.037,-32.5679 722,-37 698.007,-40.2187 671.399,-47.9841 653.089,-54.0133"/>
<polygon fill="#9a32cd" stroke="#9a32cd" points="804.533,-41.1363 814.845,-38.7053 805.268,-34.175 804.533,-41.1363"/>
<text text-anchor="middle" x="759.5" y="-40" font-family="Helvetica,sans-Serif" font-size="10.00"> threadMap</text>
</g>
<!-- Node12 -->
<g id="node5" class="node"><title>Node12</title>
<g id="a_node5"><a xlink:href="classaworx_1_1lib_1_1strings_1_1PreallocatedString.html" target="_top" xlink:title="PreallocatedString\l\&lt; TCapacity \&gt;">
<polygon fill="white" stroke="black" points="368.5,-161 368.5,-191 464.5,-191 464.5,-161 368.5,-161"/>
<text text-anchor="start" x="376.5" y="-179" font-family="Helvetica,sans-Serif" font-size="10.00">PreallocatedString</text>
<text text-anchor="middle" x="416.5" y="-168" font-family="Helvetica,sans-Serif" font-size="10.00">&lt; TCapacity &gt;</text>
</a>
</g>
</g>
<!-- Node12&#45;&gt;Node1 -->
<g id="edge17" class="edge"><title>Node12&#45;&gt;Node1</title>
<path fill="none" stroke="#9a32cd" stroke-dasharray="5,2" d="M474.795,-172.334C533.08,-169.875 625.716,-169.483 704,-185 747.321,-193.587 756.005,-203.572 797,-220 813.422,-226.581 831.809,-234.421 845.687,-240.436"/>
<polygon fill="#9a32cd" stroke="#9a32cd" points="474.509,-168.843 464.679,-172.796 474.828,-175.836 474.509,-168.843"/>
<text text-anchor="middle" x="629.5" y="-188" font-family="Helvetica,sans-Serif" font-size="10.00"> loxName</text>
</g>
<!-- Node12&#45;&gt;Node13 -->
<g id="edge18" class="edge"><title>Node12&#45;&gt;Node13</title>
<path fill="none" stroke="#9a32cd" stroke-dasharray="5,2" d="M432.961,-152.007C445.658,-134.215 465.218,-110.754 488,-97 525.337,-74.4581 576.6,-66.3947 605.763,-63.5387"/>
<polygon fill="#9a32cd" stroke="#9a32cd" points="429.755,-150.491 426.966,-160.712 435.52,-154.461 429.755,-150.491"/>
<text text-anchor="middle" x="512.5" y="-100" font-family="Helvetica,sans-Serif" font-size="10.00"> name</text>
</g>
<!-- Node3 -->
<g id="node6" class="node"><title>Node3</title>
<polygon fill="white" stroke="#bfbfbf" points="402,-286.5 402,-305.5 431,-305.5 431,-286.5 402,-286.5"/>
<text text-anchor="middle" x="416.5" y="-293.5" font-family="Helvetica,sans-Serif" font-size="10.00">K</text>
</g>
<!-- Node3&#45;&gt;Node2 -->
<g id="edge2" class="edge"><title>Node3&#45;&gt;Node2</title>
<path fill="none" stroke="#9a32cd" stroke-dasharray="5,2" d="M441.114,-301.131C465.221,-306.37 503.72,-314.742 537,-322 555.588,-326.054 576.298,-330.579 593.307,-334.299"/>
<polygon fill="#9a32cd" stroke="#9a32cd" points="441.636,-297.663 431.121,-298.959 440.15,-304.503 441.636,-297.663"/>
<text text-anchor="middle" x="512.5" y="-325" font-family="Helvetica,sans-Serif" font-size="10.00"> keys</text>
</g>
<!-- Node4 -->
<g id="node7" class="node"><title>Node4</title>
<polygon fill="white" stroke="#bfbfbf" points="402,-324.5 402,-343.5 431,-343.5 431,-324.5 402,-324.5"/>
<text text-anchor="middle" x="416.5" y="-331.5" font-family="Helvetica,sans-Serif" font-size="10.00">T</text>
</g>
<!-- Node4&#45;&gt;Node2 -->
<g id="edge3" class="edge"><title>Node4&#45;&gt;Node2</title>
<path fill="none" stroke="#9a32cd" stroke-dasharray="5,2" d="M441.354,-334.904C478.462,-336.311 550.216,-339.032 593.29,-340.665"/>
<polygon fill="#9a32cd" stroke="#9a32cd" points="441.145,-331.394 431.02,-334.513 440.88,-338.389 441.145,-331.394"/>
<text text-anchor="middle" x="512.5" y="-342" font-family="Helvetica,sans-Serif" font-size="10.00"> elements</text>
</g>
<!-- Node5 -->
<g id="node8" class="node"><title>Node5</title>
<g id="a_node8"><a xlink:href="classaworx_1_1lib_1_1strings_1_1String.html" target="_top" xlink:title="String">
<polygon fill="white" stroke="black" points="0,-233.5 0,-252.5 42,-252.5 42,-233.5 0,-233.5"/>
<text text-anchor="middle" x="21" y="-240.5" font-family="Helvetica,sans-Serif" font-size="10.00">String</text>
</a>
</g>
</g>
<!-- Node5&#45;&gt;Node1 -->
<g id="edge4" class="edge"><title>Node5&#45;&gt;Node1</title>
<path fill="none" stroke="#9a32cd" stroke-dasharray="5,2" d="M22.5412,-262.949C24.9588,-309.037 37.9134,-419 106.5,-419 106.5,-419 106.5,-419 630.5,-419 708.159,-419 735.958,-414.008 797,-366 834.233,-336.717 856.46,-281.907 864.292,-259.707"/>
<polygon fill="#9a32cd" stroke="#9a32cd" points="26.0286,-262.563 22.1262,-252.713 19.0343,-262.847 26.0286,-262.563"/>
<text text-anchor="middle" x="316.5" y="-422" font-family="Helvetica,sans-Serif" font-size="10.00"> threadName</text>
</g>
<!-- Node6 -->
<g id="node9" class="node"><title>Node6</title>
<g id="a_node9"><a xlink:href="classaworx_1_1lib_1_1strings_1_1TString.html" target="_top" xlink:title="TString">
<polygon fill="white" stroke="black" points="83.5,-233.5 83.5,-252.5 131.5,-252.5 131.5,-233.5 83.5,-233.5"/>
<text text-anchor="middle" x="107.5" y="-240.5" font-family="Helvetica,sans-Serif" font-size="10.00">TString</text>
</a>
</g>
</g>
<!-- Node5&#45;&gt;Node6 -->
<g id="edge5" class="edge"><title>Node5&#45;&gt;Node6</title>
<path fill="none" stroke="midnightblue" d="M52.2117,-243C62.4525,-243 73.7228,-243 83.3279,-243"/>
<polygon fill="midnightblue" stroke="midnightblue" points="52.0254,-239.5 42.0253,-243 52.0253,-246.5 52.0254,-239.5"/>
</g>
<!-- Node7 -->
<g id="node10" class="node"><title>Node7</title>
<g id="a_node10"><a xlink:href="structaworx_1_1lox_1_1core_1_1ScopeInfo_1_1SourceFile.html" target="_top" xlink:title="SourceFile">
<polygon fill="white" stroke="black" points="207,-161.5 207,-180.5 270,-180.5 270,-161.5 207,-161.5"/>
<text text-anchor="middle" x="238.5" y="-168.5" font-family="Helvetica,sans-Serif" font-size="10.00">SourceFile</text>
</a>
</g>
</g>
<!-- Node5&#45;&gt;Node7 -->
<g id="edge6" class="edge"><title>Node5&#45;&gt;Node7</title>
<path fill="none" stroke="#9a32cd" stroke-dasharray="5,2" d="M32.8159,-224.664C42.7466,-209.725 58.9443,-189.59 79,-180 119.903,-160.441 173.685,-162.302 206.905,-166.131"/>
<polygon fill="#9a32cd" stroke="#9a32cd" points="29.8361,-222.828 27.464,-233.154 35.7576,-226.561 29.8361,-222.828"/>
<text text-anchor="middle" x="107.5" y="-216" font-family="Helvetica,sans-Serif" font-size="10.00"> fullPath</text>
<text text-anchor="middle" x="107.5" y="-205" font-family="Helvetica,sans-Serif" font-size="10.00">nameWOExt</text>
<text text-anchor="middle" x="107.5" y="-194" font-family="Helvetica,sans-Serif" font-size="10.00">name</text>
<text text-anchor="middle" x="107.5" y="-183" font-family="Helvetica,sans-Serif" font-size="10.00">trimmedPath</text>
</g>
<!-- Node6&#45;&gt;Node1 -->
<g id="edge7" class="edge"><title>Node6&#45;&gt;Node1</title>
<path fill="none" stroke="#9a32cd" stroke-dasharray="5,2" d="M115.981,-262.275C132.034,-300.013 173.596,-380 237.5,-380 237.5,-380 237.5,-380 630.5,-380 707.514,-380 732.643,-374.3 797,-332 826.809,-312.408 851.205,-276.729 861.802,-259.634"/>
<polygon fill="#9a32cd" stroke="#9a32cd" points="119.154,-260.787 112.132,-252.853 112.673,-263.434 119.154,-260.787"/>
<text text-anchor="middle" x="416.5" y="-383" font-family="Helvetica,sans-Serif" font-size="10.00"> origMethod</text>
</g>
<!-- Node6&#45;&gt;Node7 -->
<g id="edge8" class="edge"><title>Node6&#45;&gt;Node7</title>
<path fill="none" stroke="#9a32cd" stroke-dasharray="5,2" d="M134.412,-228.538C159.963,-214.277 198.289,-192.885 220.299,-180.601"/>
<polygon fill="#9a32cd" stroke="#9a32cd" points="132.656,-225.509 125.63,-233.439 136.068,-231.621 132.656,-225.509"/>
<text text-anchor="middle" x="171.5" y="-219" font-family="Helvetica,sans-Serif" font-size="10.00"> origFile</text>
</g>
<!-- Node11 -->
<g id="node11" class="node"><title>Node11</title>
<g id="a_node11"><a xlink:href="classaworx_1_1lib_1_1strings_1_1AString.html" target="_top" xlink:title="AString">
<polygon fill="white" stroke="black" points="214,-216.5 214,-235.5 263,-235.5 263,-216.5 214,-216.5"/>
<text text-anchor="middle" x="238.5" y="-223.5" font-family="Helvetica,sans-Serif" font-size="10.00">AString</text>
</a>
</g>
</g>
<!-- Node6&#45;&gt;Node11 -->
<g id="edge9" class="edge"><title>Node6&#45;&gt;Node11</title>
<path fill="none" stroke="midnightblue" d="M141.707,-238.624C164.256,-235.652 193.54,-231.793 213.764,-229.128"/>
<polygon fill="midnightblue" stroke="midnightblue" points="141.02,-235.184 131.563,-239.961 141.934,-242.124 141.02,-235.184"/>
</g>
<!-- Node7&#45;&gt;Node1 -->
<g id="edge10" class="edge"><title>Node7&#45;&gt;Node1</title>
<path fill="none" stroke="#9a32cd" stroke-dasharray="5,2" d="M279.908,-163.194C303.95,-158.866 335.108,-153.806 363,-151 513.982,-135.811 554.221,-143.662 704,-168 745.555,-174.752 759.354,-167.153 797,-186 823.903,-199.468 848.186,-226.134 859.977,-240.425"/>
<polygon fill="#9a32cd" stroke="#9a32cd" points="279.276,-159.752 270.07,-164.996 280.537,-166.637 279.276,-159.752"/>
<text text-anchor="middle" x="512.5" y="-159" font-family="Helvetica,sans-Serif" font-size="10.00"> cache</text>
<text text-anchor="middle" x="512.5" y="-148" font-family="Helvetica,sans-Serif" font-size="10.00">actual</text>
</g>
<!-- Node11&#45;&gt;Node12 -->
<g id="edge16" class="edge"><title>Node11&#45;&gt;Node12</title>
<path fill="none" stroke="midnightblue" d="M272.99,-216.486C299.989,-208.816 338.281,-197.937 368.375,-189.388"/>
<polygon fill="midnightblue" stroke="midnightblue" points="271.899,-213.157 263.236,-219.257 273.812,-219.891 271.899,-213.157"/>
</g>
<!-- Node10 -->
<g id="node13" class="node"><title>Node10</title>
<g id="a_node13"><a xlink:href="structaworx_1_1lox_1_1core_1_1ScopeInfo_1_1SourcePathTrimRule.html" target="_top" xlink:title="SourcePathTrimRule">
<polygon fill="white" stroke="black" points="363,-216.5 363,-235.5 470,-235.5 470,-216.5 363,-216.5"/>
<text text-anchor="middle" x="416.5" y="-223.5" font-family="Helvetica,sans-Serif" font-size="10.00">SourcePathTrimRule</text>
</a>
</g>
</g>
<!-- Node11&#45;&gt;Node10 -->
<g id="edge15" class="edge"><title>Node11&#45;&gt;Node10</title>
<path fill="none" stroke="#9a32cd" stroke-dasharray="5,2" d="M273.463,-226C298.83,-226 333.972,-226 362.953,-226"/>
<polygon fill="#9a32cd" stroke="#9a32cd" points="273.236,-222.5 263.236,-226 273.236,-229.5 273.236,-222.5"/>
<text text-anchor="middle" x="316.5" y="-229" font-family="Helvetica,sans-Serif" font-size="10.00"> Path</text>
</g>
<!-- Node8 -->
<g id="node12" class="node"><title>Node8</title>
<g id="a_node12"><a xlink:href="classaworx_1_1lib_1_1time_1_1Ticks.html" target="_top" xlink:title="Ticks">
<polygon fill="white" stroke="black" points="609,-265.5 609,-284.5 650,-284.5 650,-265.5 609,-265.5"/>
<text text-anchor="middle" x="629.5" y="-272.5" font-family="Helvetica,sans-Serif" font-size="10.00">Ticks</text>
</a>
</g>
</g>
<!-- Node8&#45;&gt;Node1 -->
<g id="edge11" class="edge"><title>Node8&#45;&gt;Node1</title>
<path fill="none" stroke="#9a32cd" stroke-dasharray="5,2" d="M660.432,-271.843C706.001,-267.036 792.268,-257.936 837.737,-253.14"/>
<polygon fill="#9a32cd" stroke="#9a32cd" points="659.876,-268.382 650.299,-272.912 660.611,-275.343 659.876,-268.382"/>
<text text-anchor="middle" x="759.5" y="-268" font-family="Helvetica,sans-Serif" font-size="10.00"> timeStamp</text>
</g>
<!-- Node8&#45;&gt;Node8 -->
<g id="edge12" class="edge"><title>Node8&#45;&gt;Node8</title>
<path fill="none" stroke="#9a32cd" stroke-dasharray="5,2" d="M608.02,-294.4C609.454,-299.315 616.614,-303 629.5,-303 650.117,-303 656.077,-293.565 647.379,-284.757"/>
<polygon fill="#9a32cd" stroke="#9a32cd" points="611.401,-295.35 611.621,-284.757 604.843,-292.9 611.401,-295.35"/>
<text text-anchor="middle" x="629.5" y="-306" font-family="Helvetica,sans-Serif" font-size="10.00"> creationTime</text>
</g>
<!-- Node10&#45;&gt;Node9 -->
<g id="edge14" class="edge"><title>Node10&#45;&gt;Node9</title>
<path fill="none" stroke="#9a32cd" stroke-dasharray="5,2" d="M480.323,-226C503.666,-226 530.36,-226 554.602,-226"/>
<polygon fill="#9a32cd" stroke="#9a32cd" points="480.2,-222.5 470.2,-226 480.2,-229.5 480.2,-222.5"/>
<text text-anchor="middle" x="512.5" y="-229" font-family="Helvetica,sans-Serif" font-size="10.00"> elements</text>
</g>
<!-- Node13&#45;&gt;Node1 -->
<g id="edge19" class="edge"><title>Node13&#45;&gt;Node1</title>
<path fill="none" stroke="#9a32cd" stroke-dasharray="5,2" d="M663.166,-67.1019C705.6,-74.2827 776.664,-88.3694 797,-105 841.854,-141.68 860.265,-213.846 865.67,-240.128"/>
<polygon fill="#9a32cd" stroke="#9a32cd" points="663.736,-63.6486 653.298,-65.469 662.593,-70.5547 663.736,-63.6486"/>
<text text-anchor="middle" x="759.5" y="-108" font-family="Helvetica,sans-Serif" font-size="10.00"> thread</text>
</g>
<!-- Node13&#45;&gt;Node16 -->
<g id="edge20" class="edge"><title>Node13&#45;&gt;Node16</title>
<path fill="none" stroke="#9a32cd" stroke-dasharray="5,2" d="M663.286,-59.9249C702.461,-57.4455 768.517,-53.2648 814.868,-50.3312"/>
<polygon fill="#9a32cd" stroke="#9a32cd" points="662.983,-56.437 653.225,-60.5617 663.426,-63.423 662.983,-56.437"/>
<text text-anchor="middle" x="759.5" y="-59" font-family="Helvetica,sans-Serif" font-size="10.00"> elements</text>
</g>
<!-- Node14 -->
<g id="node15" class="node"><title>Node14</title>
<g id="a_node15"><a xlink:href="classaworx_1_1lib_1_1threads_1_1Runnable.html" target="_top" xlink:title="Runnable">
<polygon fill="white" stroke="black" points="387.5,-0.5 387.5,-19.5 445.5,-19.5 445.5,-0.5 387.5,-0.5"/>
<text text-anchor="middle" x="416.5" y="-7.5" font-family="Helvetica,sans-Serif" font-size="10.00">Runnable</text>
</a>
</g>
</g>
<!-- Node14&#45;&gt;Node13 -->
<g id="edge21" class="edge"><title>Node14&#45;&gt;Node13</title>
<path fill="none" stroke="midnightblue" d="M455.615,-4.54107C479.416,-2.38424 510.47,-1.87133 537,-9 568.38,-17.4321 600.108,-39.5404 616.702,-52.3824"/>
<polygon fill="midnightblue" stroke="midnightblue" points="455.147,-1.07077 445.563,-5.58715 455.872,-8.03317 455.147,-1.07077"/>
</g>
<!-- Node14&#45;&gt;Node13 -->
<g id="edge22" class="edge"><title>Node14&#45;&gt;Node13</title>
<path fill="none" stroke="#9a32cd" stroke-dasharray="5,2" d="M455.232,-19.2988C499.022,-30.0908 569.821,-47.5389 605.859,-56.4202"/>
<polygon fill="#9a32cd" stroke="#9a32cd" points="456.066,-15.8998 445.519,-16.9052 454.391,-22.6965 456.066,-15.8998"/>
<text text-anchor="middle" x="512.5" y="-43" font-family="Helvetica,sans-Serif" font-size="10.00"> runnable</text>
</g>
<!-- Node17 -->
<g id="node16" class="node"><title>Node17</title>
<g id="a_node16"><a xlink:title="STL class. ">
<polygon fill="white" stroke="#bfbfbf" points="394.5,-52.5 394.5,-71.5 438.5,-71.5 438.5,-52.5 394.5,-52.5"/>
<text text-anchor="middle" x="416.5" y="-59.5" font-family="Helvetica,sans-Serif" font-size="10.00">thread</text>
</a>
</g>
</g>
<!-- Node17&#45;&gt;Node13 -->
<g id="edge24" class="edge"><title>Node17&#45;&gt;Node13</title>
<path fill="none" stroke="#9a32cd" stroke-dasharray="5,2" d="M448.669,-62C491.666,-62 568.146,-62 605.997,-62"/>
<polygon fill="#9a32cd" stroke="#9a32cd" points="448.503,-58.5001 438.503,-62 448.503,-65.5001 448.503,-58.5001"/>
<text text-anchor="middle" x="512.5" y="-65" font-family="Helvetica,sans-Serif" font-size="10.00"> c11Thread</text>
</g>
</g>
</svg>
