<?xml version="1.0" encoding="UTF-8" standalone="no"?>
<!DOCTYPE svg PUBLIC "-//W3C//DTD SVG 1.1//EN"
 "http://www.w3.org/Graphics/SVG/1.1/DTD/svg11.dtd">
<!-- Generated by graphviz version 2.40.1 (20161225.0304)
 -->
<!-- Title: Logger Pages: 1 -->
<svg width="380pt" height="316pt"
 viewBox="0.00 0.00 379.50 316.00" xmlns="http://www.w3.org/2000/svg" xmlns:xlink="http://www.w3.org/1999/xlink">
<g id="graph0" class="graph" transform="scale(1 1) rotate(0) translate(4 312)">
<title>Logger</title>
<polygon fill="#ffffff" stroke="transparent" points="-4,4 -4,-312 375.5,-312 375.5,4 -4,4"/>
<!-- Node13 -->
<g id="node1" class="node">
<title>Node13</title>
<polygon fill="#bfbfbf" stroke="#000000" points="179,-.5 179,-19.5 225,-19.5 225,-.5 179,-.5"/>
<text text-anchor="middle" x="202" y="-7.5" font-family="Helvetica,sans-Serif" font-size="10.00" fill="#000000">Logger</text>
</g>
<!-- Node26 -->
<g id="node2" class="node">
<title>Node26</title>
<polygon fill="#ffffff" stroke="#bfbfbf" points="230.5,-145.5 230.5,-164.5 343.5,-164.5 343.5,-145.5 230.5,-145.5"/>
<text text-anchor="middle" x="287" y="-152.5" font-family="Helvetica,sans-Serif" font-size="10.00" fill="#000000">vector&lt;ThreadLock *&gt;</text>
</g>
<!-- Node14 -->
<g id="node4" class="node">
<title>Node14</title>
<g id="a_node4"><a xlink:href="classaworx_1_1lib_1_1threads_1_1SmartLock.html" target="_top" xlink:title="SmartLock">
<polygon fill="#ffffff" stroke="#000000" points="170,-78.5 170,-97.5 234,-97.5 234,-78.5 170,-78.5"/>
<text text-anchor="middle" x="202" y="-85.5" font-family="Helvetica,sans-Serif" font-size="10.00" fill="#000000">SmartLock</text>
</a>
</g>
</g>
<!-- Node26&#45;&gt;Node14 -->
<g id="edge9" class="edge">
<title>Node26&#45;&gt;Node14</title>
<path fill="none" stroke="#9a32cd" stroke-dasharray="5,2" d="M266.8993,-139.1559C250.5128,-126.2395 227.9061,-108.4201 214.1558,-97.5817"/>
<polygon fill="#9a32cd" stroke="#9a32cd" points="264.8013,-141.9588 274.8216,-145.4005 269.1347,-136.4613 264.8013,-141.9588"/>
<text text-anchor="middle" x="270.5" y="-119" font-family="Helvetica,sans-Serif" font-size="10.00" fill="#000000"> acquirers</text>
</g>
<!-- Node28 -->
<g id="node3" class="node">
<title>Node28</title>
<g id="a_node3"><a xlink:href="classaworx_1_1lib_1_1strings_1_1PreallocatedString.html" target="_top" xlink:title="PreallocatedString\&lt;TCapacity\&gt;">
<polygon fill="#ffffff" stroke="#000000" points="0,-78.5 0,-97.5 152,-97.5 152,-78.5 0,-78.5"/>
<text text-anchor="middle" x="76" y="-85.5" font-family="Helvetica,sans-Serif" font-size="10.00" fill="#000000">PreallocatedString&lt;TCapacity&gt;</text>
</a>
</g>
</g>
<!-- Node28&#45;&gt;Node13 -->
<g id="edge12" class="edge">
<title>Node28&#45;&gt;Node13</title>
<path fill="none" stroke="#9a32cd" stroke-dasharray="5,2" d="M96.7472,-72.531C110.8827,-62.2585 130.1929,-48.7388 148,-38 159.0327,-31.3466 171.8139,-24.6756 182.1714,-19.5148"/>
<polygon fill="#9a32cd" stroke="#9a32cd" points="94.6668,-69.7164 88.6742,-78.4536 98.8074,-75.3604 94.6668,-69.7164"/>
<text text-anchor="middle" x="173" y="-52" font-family="Helvetica,sans-Serif" font-size="10.00" fill="#000000"> TypeName</text>
<text text-anchor="middle" x="173" y="-41" font-family="Helvetica,sans-Serif" font-size="10.00" fill="#000000">Name</text>
</g>
<!-- Node14&#45;&gt;Node13 -->
<g id="edge1" class="edge">
<title>Node14&#45;&gt;Node13</title>
<path fill="none" stroke="#191970" d="M202,-68.2866C202,-52.7395 202,-31.7276 202,-19.6426"/>
<polygon fill="#191970" stroke="#191970" points="198.5001,-68.4356 202,-78.4357 205.5001,-68.4357 198.5001,-68.4356"/>
</g>
<!-- Node15 -->
<g id="node5" class="node">
<title>Node15</title>
<g id="a_node5"><a xlink:href="classaworx_1_1lib_1_1threads_1_1ThreadLock.html" target="_top" xlink:title="ThreadLock">
<polygon fill="#ffffff" stroke="#000000" points="178,-221.5 178,-240.5 246,-240.5 246,-221.5 178,-221.5"/>
<text text-anchor="middle" x="212" y="-228.5" font-family="Helvetica,sans-Serif" font-size="10.00" fill="#000000">ThreadLock</text>
</a>
</g>
</g>
<!-- Node15&#45;&gt;Node26 -->
<g id="edge3" class="edge">
<title>Node15&#45;&gt;Node26</title>
<path fill="none" stroke="#9a32cd" stroke-dasharray="5,2" d="M228.6451,-214.133C243.6002,-198.9785 265.0437,-177.2491 277.3414,-164.7874"/>
<polygon fill="#9a32cd" stroke="#9a32cd" points="226.0317,-211.7983 221.4988,-221.3745 231.0141,-216.7152 226.0317,-211.7983"/>
<text text-anchor="middle" x="279.5" y="-190.5" font-family="Helvetica,sans-Serif" font-size="10.00" fill="#000000"> elements</text>
</g>
<!-- Node15&#45;&gt;Node14 -->
<g id="edge2" class="edge">
<title>Node15&#45;&gt;Node14</title>
<path fill="none" stroke="#191970" d="M210.6051,-211.0524C208.4213,-179.8244 204.2784,-120.5816 202.6658,-97.5211"/>
<polygon fill="#191970" stroke="#191970" points="207.1235,-211.4396 211.3127,-221.171 214.1064,-210.9512 207.1235,-211.4396"/>
</g>
<!-- Node16 -->
<g id="node6" class="node">
<title>Node16</title>
<g id="a_node6"><a xlink:href="classaworx_1_1lib_1_1lang_1_1Ownable.html" target="_top" xlink:title="Ownable">
<polygon fill="#ffffff" stroke="#ff0000" points="119,-288.5 119,-307.5 173,-307.5 173,-288.5 119,-288.5"/>
<text text-anchor="middle" x="146" y="-295.5" font-family="Helvetica,sans-Serif" font-size="10.00" fill="#000000">Ownable</text>
</a>
</g>
</g>
<!-- Node16&#45;&gt;Node15 -->
<g id="edge4" class="edge">
<title>Node16&#45;&gt;Node15</title>
<path fill="none" stroke="#191970" d="M162.6689,-281.0785C175.2923,-268.2639 192.1785,-251.1218 202.5614,-240.5817"/>
<polygon fill="#191970" stroke="#191970" points="159.9805,-278.8203 155.4562,-288.4005 164.9673,-283.7327 159.9805,-278.8203"/>
</g>
<!-- Node25 -->
<g id="node7" class="node">
<title>Node25</title>
<g id="a_node7"><a xlink:href="classaworx_1_1lib_1_1threads_1_1ThreadLockNR.html" target="_top" xlink:title="ThreadLockNR">
<polygon fill="#ffffff" stroke="#000000" points="105.5,-183.5 105.5,-202.5 186.5,-202.5 186.5,-183.5 105.5,-183.5"/>
<text text-anchor="middle" x="146" y="-190.5" font-family="Helvetica,sans-Serif" font-size="10.00" fill="#000000">ThreadLockNR</text>
</a>
</g>
</g>
<!-- Node16&#45;&gt;Node25 -->
<g id="edge5" class="edge">
<title>Node16&#45;&gt;Node25</title>
<path fill="none" stroke="#191970" d="M146,-278.1842C146,-255.6455 146,-219.7613 146,-202.6665"/>
<polygon fill="#191970" stroke="#191970" points="142.5001,-278.31 146,-288.3101 149.5001,-278.3101 142.5001,-278.31"/>
</g>
<!-- Node25&#45;&gt;Node14 -->
<g id="edge8" class="edge">
<title>Node25&#45;&gt;Node14</title>
<path fill="none" stroke="#9a32cd" stroke-dasharray="5,2" d="M153.1631,-173.7411C156.6926,-164.8353 161.2146,-154.2133 166,-145 174.9556,-127.758 187.4339,-108.9099 195.1008,-97.7883"/>
<polygon fill="#9a32cd" stroke="#9a32cd" points="149.8404,-172.6303 149.5193,-183.2203 156.3743,-175.142 149.8404,-172.6303"/>
<text text-anchor="middle" x="177" y="-152.5" font-family="Helvetica,sans-Serif" font-size="10.00" fill="#000000"> lock</text>
</g>
<!-- Node19 -->
<g id="node8" class="node">
<title>Node19</title>
<g id="a_node8"><a xlink:href="classaworx_1_1lib_1_1threads_1_1Thread.html" target="_top" xlink:title="Thread">
<polygon fill="#ffffff" stroke="#ff0000" points="191.5,-288.5 191.5,-307.5 238.5,-307.5 238.5,-288.5 191.5,-288.5"/>
<text text-anchor="middle" x="215" y="-295.5" font-family="Helvetica,sans-Serif" font-size="10.00" fill="#000000">Thread</text>
</a>
</g>
</g>
<!-- Node19&#45;&gt;Node15 -->
<g id="edge6" class="edge">
<title>Node19&#45;&gt;Node15</title>
<path fill="none" stroke="#9a32cd" stroke-dasharray="5,2" d="M214.1093,-278.1079C213.5544,-265.714 212.8654,-250.3263 212.429,-240.5817"/>
<polygon fill="#9a32cd" stroke="#9a32cd" points="210.6263,-278.5671 214.5702,-288.4005 217.6193,-278.254 210.6263,-278.5671"/>
<text text-anchor="middle" x="227.5" y="-262" font-family="Helvetica,sans-Serif" font-size="10.00" fill="#000000"> owner</text>
</g>
<!-- Node23 -->
<g id="node9" class="node">
<title>Node23</title>
<g id="a_node9"><a xlink:href="classaworx_1_1lib_1_1strings_1_1AString.html" target="_top" xlink:title="AString">
<polygon fill="#ffffff" stroke="#ff0000" points="51.5,-145.5 51.5,-164.5 100.5,-164.5 100.5,-145.5 51.5,-145.5"/>
<text text-anchor="middle" x="76" y="-152.5" font-family="Helvetica,sans-Serif" font-size="10.00" fill="#000000">AString</text>
</a>
</g>
</g>
<!-- Node23&#45;&gt;Node28 -->
<g id="edge7" class="edge">
<title>Node23&#45;&gt;Node28</title>
<path fill="none" stroke="#191970" d="M76,-135.1079C76,-122.714 76,-107.3263 76,-97.5817"/>
<polygon fill="#191970" stroke="#191970" points="72.5001,-135.4005 76,-145.4005 79.5001,-135.4006 72.5001,-135.4005"/>
</g>
<!-- Node27 -->
<g id="node10" class="node">
<title>Node27</title>
<g id="a_node10"><a xlink:href="classaworx_1_1lib_1_1time_1_1Ticks.html" target="_top" xlink:title="Ticks">
<polygon fill="#ffffff" stroke="#000000" points="252.5,-78.5 252.5,-97.5 293.5,-97.5 293.5,-78.5 252.5,-78.5"/>
<text text-anchor="middle" x="273" y="-85.5" font-family="Helvetica,sans-Serif" font-size="10.00" fill="#000000">Ticks</text>
</a>
</g>
</g>
<!-- Node27&#45;&gt;Node13 -->
<g id="edge10" class="edge">
<title>Node27&#45;&gt;Node13</title>
<path fill="none" stroke="#9a32cd" stroke-dasharray="5,2" d="M257.4757,-70.9451C243.1598,-55.2178 222.4185,-32.4316 210.7772,-19.6426"/>
<polygon fill="#9a32cd" stroke="#9a32cd" points="254.9742,-73.3966 264.294,-78.4357 260.1508,-68.6845 254.9742,-73.3966"/>
<text text-anchor="middle" x="280" y="-52" font-family="Helvetica,sans-Serif" font-size="10.00" fill="#000000"> TimeOfLastLog</text>
<text text-anchor="middle" x="280" y="-41" font-family="Helvetica,sans-Serif" font-size="10.00" fill="#000000">TimeOfCreation</text>
</g>
<!-- Node27&#45;&gt;Node27 -->
<g id="edge11" class="edge">
<title>Node27&#45;&gt;Node27</title>
<path fill="none" stroke="#9a32cd" stroke-dasharray="5,2" d="M303.816,-93.4421C308.4,-92.5943 311.5,-90.7803 311.5,-88 311.5,-83.4375 303.1518,-81.4771 293.5969,-82.1187"/>
<polygon fill="#9a32cd" stroke="#9a32cd" points="303.4374,-89.955 293.5969,-93.8813 303.738,-96.9486 303.4374,-89.955"/>
<text text-anchor="middle" x="341.5" y="-85.5" font-family="Helvetica,sans-Serif" font-size="10.00" fill="#000000"> creationTime</text>
</g>
</g>
</svg>
