<?xml version="1.0" encoding="UTF-8" standalone="no"?>
<!DOCTYPE svg PUBLIC "-//W3C//DTD SVG 1.1//EN"
 "http://www.w3.org/Graphics/SVG/1.1/DTD/svg11.dtd">
<!-- Generated by graphviz version 2.38.0 (20140413.2041)
 -->
<!-- Title: configuration.hpp Pages: 1 -->
<svg width="1815pt" height="308pt"
 viewBox="0.00 0.00 1815.00 308.00" xmlns="http://www.w3.org/2000/svg" xmlns:xlink="http://www.w3.org/1999/xlink">
<g id="graph0" class="graph" transform="scale(1 1) rotate(0) translate(4 304)">
<title>configuration.hpp</title>
<polygon fill="white" stroke="none" points="-4,4 -4,-304 1811,-304 1811,4 -4,4"/>
<!-- Node1 -->
<g id="node1" class="node"><title>Node1</title>
<polygon fill="#bfbfbf" stroke="black" points="1121.5,-280.5 1121.5,-299.5 1212.5,-299.5 1212.5,-280.5 1121.5,-280.5"/>
<text text-anchor="middle" x="1167" y="-287.5" font-family="Helvetica,sans-Serif" font-size="10.00">configuration.hpp</text>
</g>
<!-- Node2 -->
<g id="node2" class="node"><title>Node2</title>
<g id="a_node2"><a xlink:href="threadlock_8hpp.html" target="_top" xlink:title="alib/threads/threadlock.hpp">
<polygon fill="white" stroke="black" points="868,-224.5 868,-243.5 1002,-243.5 1002,-224.5 868,-224.5"/>
<text text-anchor="middle" x="935" y="-231.5" font-family="Helvetica,sans-Serif" font-size="10.00">alib/threads/threadlock.hpp</text>
</a>
</g>
</g>
<!-- Node1&#45;&gt;Node2 -->
<g id="edge1" class="edge"><title>Node1&#45;&gt;Node2</title>
<path fill="none" stroke="midnightblue" d="M1130.24,-280.444C1089.94,-271.063 1025.19,-255.993 981.415,-245.804"/>
<polygon fill="midnightblue" stroke="midnightblue" points="982.122,-242.375 971.589,-243.516 980.535,-249.192 982.122,-242.375"/>
</g>
<!-- Node25 -->
<g id="node25" class="node"><title>Node25</title>
<g id="a_node25"><a xlink:href="numberformat_8hpp.html" target="_top" xlink:title="alib/strings/numberformat.hpp">
<polygon fill="white" stroke="black" points="1020,-224.5 1020,-243.5 1166,-243.5 1166,-224.5 1020,-224.5"/>
<text text-anchor="middle" x="1093" y="-231.5" font-family="Helvetica,sans-Serif" font-size="10.00">alib/strings/numberformat.hpp</text>
</a>
</g>
</g>
<!-- Node1&#45;&gt;Node25 -->
<g id="edge34" class="edge"><title>Node1&#45;&gt;Node25</title>
<path fill="none" stroke="midnightblue" d="M1155.11,-280.324C1143.85,-272.107 1126.71,-259.602 1113.29,-249.807"/>
<polygon fill="midnightblue" stroke="midnightblue" points="1115.25,-246.901 1105.11,-243.834 1111.12,-252.556 1115.25,-246.901"/>
</g>
<!-- Node26 -->
<g id="node26" class="node"><title>Node26</title>
<g id="a_node26"><a xlink:href="plugins_8hpp.html" target="_top" xlink:title="alib/config/plugins.hpp">
<polygon fill="white" stroke="black" points="1184.5,-224.5 1184.5,-243.5 1297.5,-243.5 1297.5,-224.5 1184.5,-224.5"/>
<text text-anchor="middle" x="1241" y="-231.5" font-family="Helvetica,sans-Serif" font-size="10.00">alib/config/plugins.hpp</text>
</a>
</g>
</g>
<!-- Node1&#45;&gt;Node26 -->
<g id="edge35" class="edge"><title>Node1&#45;&gt;Node26</title>
<path fill="none" stroke="midnightblue" d="M1178.89,-280.324C1190.15,-272.107 1207.29,-259.602 1220.71,-249.807"/>
<polygon fill="midnightblue" stroke="midnightblue" points="1222.88,-252.556 1228.89,-243.834 1218.75,-246.901 1222.88,-252.556"/>
</g>
<!-- Node27 -->
<g id="node27" class="node"><title>Node27</title>
<polygon fill="white" stroke="#bfbfbf" points="1316,-224.5 1316,-243.5 1360,-243.5 1360,-224.5 1316,-224.5"/>
<text text-anchor="middle" x="1338" y="-231.5" font-family="Helvetica,sans-Serif" font-size="10.00">vector</text>
</g>
<!-- Node1&#45;&gt;Node27 -->
<g id="edge36" class="edge"><title>Node1&#45;&gt;Node27</title>
<path fill="none" stroke="midnightblue" d="M1194.1,-280.444C1224.52,-270.837 1273.84,-255.262 1306.1,-245.075"/>
<polygon fill="midnightblue" stroke="midnightblue" points="1307.44,-248.32 1315.93,-241.971 1305.34,-241.645 1307.44,-248.32"/>
</g>
<!-- Node3 -->
<g id="node3" class="node"><title>Node3</title>
<g id="a_node3"><a xlink:href="alib_8hpp.html" target="_top" xlink:title="alib/alib.hpp">
<polygon fill="white" stroke="black" points="817,-112.5 817,-131.5 885,-131.5 885,-112.5 817,-112.5"/>
<text text-anchor="middle" x="851" y="-119.5" font-family="Helvetica,sans-Serif" font-size="10.00">alib/alib.hpp</text>
</a>
</g>
</g>
<!-- Node2&#45;&gt;Node3 -->
<g id="edge2" class="edge"><title>Node2&#45;&gt;Node3</title>
<path fill="none" stroke="midnightblue" d="M916.102,-224.373C901.482,-216.773 881.802,-204.364 870,-188 860.221,-174.441 855.444,-155.892 853.129,-142.079"/>
<polygon fill="midnightblue" stroke="midnightblue" points="856.545,-141.229 851.707,-131.803 849.611,-142.189 856.545,-141.229"/>
</g>
<!-- Node19 -->
<g id="node19" class="node"><title>Node19</title>
<g id="a_node19"><a xlink:href="ownable_8hpp.html" target="_top" xlink:title="alib/core/ownable.hpp">
<polygon fill="white" stroke="black" points="879.5,-168.5 879.5,-187.5 990.5,-187.5 990.5,-168.5 879.5,-168.5"/>
<text text-anchor="middle" x="935" y="-175.5" font-family="Helvetica,sans-Serif" font-size="10.00">alib/core/ownable.hpp</text>
</a>
</g>
</g>
<!-- Node2&#45;&gt;Node19 -->
<g id="edge25" class="edge"><title>Node2&#45;&gt;Node19</title>
<path fill="none" stroke="midnightblue" d="M935,-224.083C935,-217.006 935,-206.861 935,-197.986"/>
<polygon fill="midnightblue" stroke="midnightblue" points="938.5,-197.751 935,-187.751 931.5,-197.751 938.5,-197.751"/>
</g>
<!-- Node20 -->
<g id="node20" class="node"><title>Node20</title>
<g id="a_node20"><a xlink:href="thread_8hpp.html" target="_top" xlink:title="thread.hpp">
<polygon fill="white" stroke="black" points="1520,-168.5 1520,-187.5 1582,-187.5 1582,-168.5 1520,-168.5"/>
<text text-anchor="middle" x="1551" y="-175.5" font-family="Helvetica,sans-Serif" font-size="10.00">thread.hpp</text>
</a>
</g>
</g>
<!-- Node2&#45;&gt;Node20 -->
<g id="edge27" class="edge"><title>Node2&#45;&gt;Node20</title>
<path fill="none" stroke="midnightblue" d="M1002.12,-224.923C1005.12,-224.603 1008.09,-224.293 1011,-224 1196.92,-205.25 1419.43,-188.505 1509.81,-181.942"/>
<polygon fill="midnightblue" stroke="midnightblue" points="1510.2,-185.423 1519.92,-181.21 1509.69,-178.441 1510.2,-185.423"/>
</g>
<!-- Node4 -->
<g id="node4" class="node"><title>Node4</title>
<g id="a_node4"><a xlink:href="symbols_8hpp.html" target="_top" xlink:title="alib/core/symbols.hpp">
<polygon fill="white" stroke="black" points="0,-56.5 0,-75.5 112,-75.5 112,-56.5 0,-56.5"/>
<text text-anchor="middle" x="56" y="-63.5" font-family="Helvetica,sans-Serif" font-size="10.00">alib/core/symbols.hpp</text>
</a>
</g>
</g>
<!-- Node3&#45;&gt;Node4 -->
<g id="edge3" class="edge"><title>Node3&#45;&gt;Node4</title>
<path fill="none" stroke="midnightblue" d="M816.669,-119.842C713.249,-116.15 395.45,-103.325 122.269,-76.1646"/>
<polygon fill="midnightblue" stroke="midnightblue" points="122.461,-72.6664 112.162,-75.151 121.763,-79.6315 122.461,-72.6664"/>
</g>
<!-- Node5 -->
<g id="node5" class="node"><title>Node5</title>
<g id="a_node5"><a xlink:href="macros_8hpp.html" target="_top" xlink:title="alib/core/macros.hpp">
<polygon fill="white" stroke="black" points="129.5,-56.5 129.5,-75.5 236.5,-75.5 236.5,-56.5 129.5,-56.5"/>
<text text-anchor="middle" x="183" y="-63.5" font-family="Helvetica,sans-Serif" font-size="10.00">alib/core/macros.hpp</text>
</a>
</g>
</g>
<!-- Node3&#45;&gt;Node5 -->
<g id="edge4" class="edge"><title>Node3&#45;&gt;Node5</title>
<path fill="none" stroke="midnightblue" d="M816.813,-119.27C725.89,-114.495 470.384,-99.9505 246.546,-75.9817"/>
<polygon fill="midnightblue" stroke="midnightblue" points="246.903,-72.5 236.585,-74.9065 246.152,-79.4596 246.903,-72.5"/>
</g>
<!-- Node6 -->
<g id="node6" class="node"><title>Node6</title>
<polygon fill="white" stroke="#bfbfbf" points="255,-56.5 255,-75.5 307,-75.5 307,-56.5 255,-56.5"/>
<text text-anchor="middle" x="281" y="-63.5" font-family="Helvetica,sans-Serif" font-size="10.00">assert.h</text>
</g>
<!-- Node3&#45;&gt;Node6 -->
<g id="edge5" class="edge"><title>Node3&#45;&gt;Node6</title>
<path fill="none" stroke="midnightblue" d="M816.951,-120.115C733.347,-117.522 511.243,-108.088 317.358,-75.9563"/>
<polygon fill="midnightblue" stroke="midnightblue" points="317.714,-72.467 307.272,-74.2596 316.552,-79.37 317.714,-72.467"/>
</g>
<!-- Node7 -->
<g id="node7" class="node"><title>Node7</title>
<polygon fill="white" stroke="#bfbfbf" points="325.5,-56.5 325.5,-75.5 374.5,-75.5 374.5,-56.5 325.5,-56.5"/>
<text text-anchor="middle" x="350" y="-63.5" font-family="Helvetica,sans-Serif" font-size="10.00">cstddef</text>
</g>
<!-- Node3&#45;&gt;Node7 -->
<g id="edge6" class="edge"><title>Node3&#45;&gt;Node7</title>
<path fill="none" stroke="midnightblue" d="M816.957,-119.715C740.902,-116.42 551.378,-105.856 384.695,-76.0443"/>
<polygon fill="midnightblue" stroke="midnightblue" points="385.227,-72.5837 374.762,-74.2397 383.975,-79.4709 385.227,-72.5837"/>
</g>
<!-- Node8 -->
<g id="node8" class="node"><title>Node8</title>
<polygon fill="white" stroke="#bfbfbf" points="392.5,-56.5 392.5,-75.5 455.5,-75.5 455.5,-56.5 392.5,-56.5"/>
<text text-anchor="middle" x="424" y="-63.5" font-family="Helvetica,sans-Serif" font-size="10.00">windows.h</text>
</g>
<!-- Node3&#45;&gt;Node8 -->
<g id="edge7" class="edge"><title>Node3&#45;&gt;Node8</title>
<path fill="none" stroke="midnightblue" d="M816.922,-118.255C750.958,-112.681 601.083,-98.7424 465.934,-76.1865"/>
<polygon fill="midnightblue" stroke="midnightblue" points="466.26,-72.6921 455.817,-74.4769 465.094,-79.5942 466.26,-72.6921"/>
</g>
<!-- Node9 -->
<g id="node9" class="node"><title>Node9</title>
<polygon fill="white" stroke="#bfbfbf" points="473.5,-56.5 473.5,-75.5 522.5,-75.5 522.5,-56.5 473.5,-56.5"/>
<text text-anchor="middle" x="498" y="-63.5" font-family="Helvetica,sans-Serif" font-size="10.00">stdint.h</text>
</g>
<!-- Node3&#45;&gt;Node9 -->
<g id="edge8" class="edge"><title>Node3&#45;&gt;Node9</title>
<path fill="none" stroke="midnightblue" d="M816.782,-117.522C759.852,-111.443 641.962,-97.6198 532.672,-75.9157"/>
<polygon fill="midnightblue" stroke="midnightblue" points="533.297,-72.4712 522.802,-73.9291 531.915,-79.3336 533.297,-72.4712"/>
</g>
<!-- Node10 -->
<g id="node10" class="node"><title>Node10</title>
<polygon fill="white" stroke="#bfbfbf" points="541,-56.5 541,-75.5 603,-75.5 603,-56.5 541,-56.5"/>
<text text-anchor="middle" x="572" y="-63.5" font-family="Helvetica,sans-Serif" font-size="10.00">type_traits</text>
</g>
<!-- Node3&#45;&gt;Node10 -->
<g id="edge9" class="edge"><title>Node3&#45;&gt;Node10</title>
<path fill="none" stroke="midnightblue" d="M816.889,-114.967C772.354,-107.006 691.736,-92.3034 613.449,-76.2465"/>
<polygon fill="midnightblue" stroke="midnightblue" points="613.921,-72.7702 603.42,-74.1793 612.508,-79.6261 613.921,-72.7702"/>
</g>
<!-- Node11 -->
<g id="node11" class="node"><title>Node11</title>
<polygon fill="white" stroke="#bfbfbf" points="621,-56.5 621,-75.5 661,-75.5 661,-56.5 621,-56.5"/>
<text text-anchor="middle" x="641" y="-63.5" font-family="Helvetica,sans-Serif" font-size="10.00">utility</text>
</g>
<!-- Node3&#45;&gt;Node11 -->
<g id="edge10" class="edge"><title>Node3&#45;&gt;Node11</title>
<path fill="none" stroke="midnightblue" d="M816.821,-113.119C782.311,-105.025 727.272,-91.7484 671.011,-76.1691"/>
<polygon fill="midnightblue" stroke="midnightblue" points="671.81,-72.7586 661.238,-73.4426 669.929,-79.5012 671.81,-72.7586"/>
</g>
<!-- Node12 -->
<g id="node12" class="node"><title>Node12</title>
<g id="a_node12"><a xlink:href="enums_8hpp.html" target="_top" xlink:title="alib/core/enums.hpp">
<polygon fill="white" stroke="black" points="679,-56.5 679,-75.5 783,-75.5 783,-56.5 679,-56.5"/>
<text text-anchor="middle" x="731" y="-63.5" font-family="Helvetica,sans-Serif" font-size="10.00">alib/core/enums.hpp</text>
</a>
</g>
</g>
<!-- Node3&#45;&gt;Node12 -->
<g id="edge11" class="edge"><title>Node3&#45;&gt;Node12</title>
<path fill="none" stroke="midnightblue" d="M826.897,-112.444C805.585,-103.715 774.979,-90.0591 754.009,-79.9943"/>
<polygon fill="midnightblue" stroke="midnightblue" points="755.367,-76.7624 744.845,-75.5164 752.293,-83.0517 755.367,-76.7624"/>
</g>
<!-- Node13 -->
<g id="node13" class="node"><title>Node13</title>
<g id="a_node13"><a xlink:href="report_8hpp.html" target="_top" xlink:title="alib/core/report.hpp">
<polygon fill="white" stroke="black" points="801,-56.5 801,-75.5 901,-75.5 901,-56.5 801,-56.5"/>
<text text-anchor="middle" x="851" y="-63.5" font-family="Helvetica,sans-Serif" font-size="10.00">alib/core/report.hpp</text>
</a>
</g>
</g>
<!-- Node3&#45;&gt;Node13 -->
<g id="edge13" class="edge"><title>Node3&#45;&gt;Node13</title>
<path fill="none" stroke="midnightblue" d="M845.834,-112.083C844.324,-104.927 843.894,-94.6353 844.542,-85.6911"/>
<polygon fill="midnightblue" stroke="midnightblue" points="848.015,-86.1262 845.869,-75.7511 841.077,-85.2002 848.015,-86.1262"/>
</g>
<!-- Node14 -->
<g id="node14" class="node"><title>Node14</title>
<g id="a_node14"><a xlink:href="cstring_8hpp.html" target="_top" xlink:title="alib/strings/cstring.hpp">
<polygon fill="white" stroke="red" points="919.5,-56.5 919.5,-75.5 1034.5,-75.5 1034.5,-56.5 919.5,-56.5"/>
<text text-anchor="middle" x="977" y="-63.5" font-family="Helvetica,sans-Serif" font-size="10.00">alib/strings/cstring.hpp</text>
</a>
</g>
</g>
<!-- Node3&#45;&gt;Node14 -->
<g id="edge15" class="edge"><title>Node3&#45;&gt;Node14</title>
<path fill="none" stroke="midnightblue" d="M865.876,-112.444C884.747,-103.517 917.369,-89.4387 942.49,-79.3168"/>
<polygon fill="midnightblue" stroke="midnightblue" points="944.049,-82.4636 952.048,-75.5164 941.463,-75.959 944.049,-82.4636"/>
</g>
<!-- Node15 -->
<g id="node15" class="node"><title>Node15</title>
<g id="a_node15"><a xlink:href="as_8hpp.html" target="_top" xlink:title="alib/strings/as.hpp">
<polygon fill="white" stroke="red" points="1053,-56.5 1053,-75.5 1149,-75.5 1149,-56.5 1053,-56.5"/>
<text text-anchor="middle" x="1101" y="-63.5" font-family="Helvetica,sans-Serif" font-size="10.00">alib/strings/as.hpp</text>
</a>
</g>
</g>
<!-- Node3&#45;&gt;Node15 -->
<g id="edge17" class="edge"><title>Node3&#45;&gt;Node15</title>
<path fill="none" stroke="midnightblue" d="M885.262,-112.503C926.915,-103.055 997.479,-87.7841 1046.57,-77.5716"/>
<polygon fill="midnightblue" stroke="midnightblue" points="1047.31,-80.9922 1056.4,-75.5364 1045.89,-74.1378 1047.31,-80.9922"/>
</g>
<!-- Node16 -->
<g id="node16" class="node"><title>Node16</title>
<g id="a_node16"><a xlink:href="ns__aworx_8hpp.html" target="_top" xlink:title="alib/core/ns_aworx.hpp">
<polygon fill="white" stroke="black" points="1167.5,-56.5 1167.5,-75.5 1284.5,-75.5 1284.5,-56.5 1167.5,-56.5"/>
<text text-anchor="middle" x="1226" y="-63.5" font-family="Helvetica,sans-Serif" font-size="10.00">alib/core/ns_aworx.hpp</text>
</a>
</g>
</g>
<!-- Node3&#45;&gt;Node16 -->
<g id="edge19" class="edge"><title>Node3&#45;&gt;Node16</title>
<path fill="none" stroke="midnightblue" d="M885.078,-115.475C946.586,-106.195 1076.87,-87.3899 1157.43,-76.1244"/>
<polygon fill="midnightblue" stroke="midnightblue" points="1158.06,-79.57 1167.48,-74.7216 1157.09,-72.6371 1158.06,-79.57"/>
</g>
<!-- Node17 -->
<g id="node17" class="node"><title>Node17</title>
<g id="a_node17"><a xlink:href="namespace_8hpp.html" target="_top" xlink:title="alib/strings/namespace.hpp">
<polygon fill="white" stroke="red" points="1303,-56.5 1303,-75.5 1439,-75.5 1439,-56.5 1303,-56.5"/>
<text text-anchor="middle" x="1371" y="-63.5" font-family="Helvetica,sans-Serif" font-size="10.00">alib/strings/namespace.hpp</text>
</a>
</g>
</g>
<!-- Node3&#45;&gt;Node17 -->
<g id="edge21" class="edge"><title>Node3&#45;&gt;Node17</title>
<path fill="none" stroke="midnightblue" d="M885.242,-117.174C958.568,-109.622 1135.43,-92.1337 1284,-76 1286.86,-75.6896 1289.78,-75.3692 1292.73,-75.0426"/>
<polygon fill="midnightblue" stroke="midnightblue" points="1293.31,-78.4995 1302.86,-73.9139 1292.53,-71.5426 1293.31,-78.4995"/>
</g>
<!-- Node12&#45;&gt;Node3 -->
<g id="edge12" class="edge"><title>Node12&#45;&gt;Node3</title>
<path fill="none" stroke="midnightblue" d="M755.342,-75.6545C776.543,-84.3458 806.809,-97.8492 827.692,-107.862"/>
<polygon fill="midnightblue" stroke="midnightblue" points="826.313,-111.084 836.835,-112.324 829.383,-104.793 826.313,-111.084"/>
</g>
<!-- Node13&#45;&gt;Node3 -->
<g id="edge14" class="edge"><title>Node13&#45;&gt;Node3</title>
<path fill="none" stroke="midnightblue" d="M856.131,-75.7511C857.657,-82.8579 858.104,-93.1357 857.472,-102.101"/>
<polygon fill="midnightblue" stroke="midnightblue" points="853.993,-101.713 856.166,-112.083 860.934,-102.622 853.993,-101.713"/>
</g>
<!-- Node14&#45;&gt;Node3 -->
<g id="edge16" class="edge"><title>Node14&#45;&gt;Node3</title>
<path fill="none" stroke="midnightblue" d="M962.208,-75.5164C943.379,-84.4274 910.766,-98.504 885.622,-108.638"/>
<polygon fill="midnightblue" stroke="midnightblue" points="884.052,-105.495 876.054,-112.444 886.639,-112 884.052,-105.495"/>
</g>
<!-- Node15&#45;&gt;Node3 -->
<g id="edge18" class="edge"><title>Node15&#45;&gt;Node3</title>
<path fill="none" stroke="midnightblue" d="M1066.6,-75.5285C1021.93,-85.6576 944.191,-102.449 895.208,-112.545"/>
<polygon fill="midnightblue" stroke="midnightblue" points="894.308,-109.157 885.215,-114.593 895.714,-116.014 894.308,-109.157"/>
</g>
<!-- Node16&#45;&gt;Node3 -->
<g id="edge20" class="edge"><title>Node16&#45;&gt;Node3</title>
<path fill="none" stroke="midnightblue" d="M1171.88,-75.5243C1097.29,-86.6178 964.485,-105.707 895.386,-115.237"/>
<polygon fill="midnightblue" stroke="midnightblue" points="894.696,-111.799 885.265,-116.627 895.648,-118.734 894.696,-111.799"/>
</g>
<!-- Node17&#45;&gt;Node3 -->
<g id="edge22" class="edge"><title>Node17&#45;&gt;Node3</title>
<path fill="none" stroke="midnightblue" d="M1306.51,-75.5068C1305,-75.6735 1303.49,-75.8381 1302,-76 1153.39,-92.1378 976.479,-109.631 895.377,-117.179"/>
<polygon fill="midnightblue" stroke="midnightblue" points="894.679,-113.729 885.044,-118.135 895.324,-120.699 894.679,-113.729"/>
</g>
<!-- Node18 -->
<g id="node18" class="node"><title>Node18</title>
<g id="a_node18"><a xlink:href="asprealloc_8hpp.html" target="_top" xlink:title="alib/strings/asprealloc.hpp">
<polygon fill="white" stroke="black" points="1402,-0.5 1402,-19.5 1532,-19.5 1532,-0.5 1402,-0.5"/>
<text text-anchor="middle" x="1467" y="-7.5" font-family="Helvetica,sans-Serif" font-size="10.00">alib/strings/asprealloc.hpp</text>
</a>
</g>
</g>
<!-- Node17&#45;&gt;Node18 -->
<g id="edge23" class="edge"><title>Node17&#45;&gt;Node18</title>
<path fill="none" stroke="midnightblue" d="M1386.42,-56.324C1401.54,-47.8215 1424.82,-34.7288 1442.47,-24.7975"/>
<polygon fill="midnightblue" stroke="midnightblue" points="1444.61,-27.6077 1451.61,-19.6545 1441.18,-21.5066 1444.61,-27.6077"/>
</g>
<!-- Node18&#45;&gt;Node3 -->
<g id="edge24" class="edge"><title>Node18&#45;&gt;Node3</title>
<path fill="none" stroke="midnightblue" d="M1467.33,-19.8346C1467.32,-34.1596 1464.99,-62.2356 1448,-76 1405.34,-110.556 1026.46,-118.724 895.386,-120.524"/>
<polygon fill="midnightblue" stroke="midnightblue" points="895.247,-117.025 885.294,-120.656 895.339,-124.024 895.247,-117.025"/>
</g>
<!-- Node19&#45;&gt;Node3 -->
<g id="edge26" class="edge"><title>Node19&#45;&gt;Node3</title>
<path fill="none" stroke="midnightblue" d="M921.504,-168.324C908.4,-159.9 888.288,-146.971 872.893,-137.074"/>
<polygon fill="midnightblue" stroke="midnightblue" points="874.767,-134.118 864.463,-131.655 870.982,-140.006 874.767,-134.118"/>
</g>
<!-- Node20&#45;&gt;Node3 -->
<g id="edge28" class="edge"><title>Node20&#45;&gt;Node3</title>
<path fill="none" stroke="midnightblue" d="M1519.56,-174.575C1407.28,-165.913 1025.79,-136.484 895.24,-126.413"/>
<polygon fill="midnightblue" stroke="midnightblue" points="895.436,-122.918 885.196,-125.638 894.897,-129.897 895.436,-122.918"/>
</g>
<!-- Node20&#45;&gt;Node18 -->
<g id="edge29" class="edge"><title>Node20&#45;&gt;Node18</title>
<path fill="none" stroke="midnightblue" d="M1545.35,-168.187C1539.7,-159.223 1530.86,-144.86 1524,-132 1504.85,-96.1326 1485.23,-52.7264 1474.74,-28.8717"/>
<polygon fill="midnightblue" stroke="midnightblue" points="1477.93,-27.4172 1470.72,-19.6538 1471.51,-30.2188 1477.93,-27.4172"/>
</g>
<!-- Node21 -->
<g id="node21" class="node"><title>Node21</title>
<polygon fill="white" stroke="#bfbfbf" points="1533.5,-112.5 1533.5,-131.5 1568.5,-131.5 1568.5,-112.5 1533.5,-112.5"/>
<text text-anchor="middle" x="1551" y="-119.5" font-family="Helvetica,sans-Serif" font-size="10.00">map</text>
</g>
<!-- Node20&#45;&gt;Node21 -->
<g id="edge30" class="edge"><title>Node20&#45;&gt;Node21</title>
<path fill="none" stroke="midnightblue" d="M1551,-168.083C1551,-161.006 1551,-150.861 1551,-141.986"/>
<polygon fill="midnightblue" stroke="midnightblue" points="1554.5,-141.751 1551,-131.751 1547.5,-141.751 1554.5,-141.751"/>
</g>
<!-- Node22 -->
<g id="node22" class="node"><title>Node22</title>
<polygon fill="white" stroke="#bfbfbf" points="1587,-112.5 1587,-131.5 1631,-131.5 1631,-112.5 1587,-112.5"/>
<text text-anchor="middle" x="1609" y="-119.5" font-family="Helvetica,sans-Serif" font-size="10.00">mutex</text>
</g>
<!-- Node20&#45;&gt;Node22 -->
<g id="edge31" class="edge"><title>Node20&#45;&gt;Node22</title>
<path fill="none" stroke="midnightblue" d="M1560.32,-168.324C1568.89,-160.341 1581.81,-148.313 1592.19,-138.653"/>
<polygon fill="midnightblue" stroke="midnightblue" points="1594.58,-141.21 1599.51,-131.834 1589.81,-136.086 1594.58,-141.21"/>
</g>
<!-- Node23 -->
<g id="node23" class="node"><title>Node23</title>
<polygon fill="white" stroke="#bfbfbf" points="1649.5,-112.5 1649.5,-131.5 1744.5,-131.5 1744.5,-112.5 1649.5,-112.5"/>
<text text-anchor="middle" x="1697" y="-119.5" font-family="Helvetica,sans-Serif" font-size="10.00">condition_variable</text>
</g>
<!-- Node20&#45;&gt;Node23 -->
<g id="edge32" class="edge"><title>Node20&#45;&gt;Node23</title>
<path fill="none" stroke="midnightblue" d="M1574.13,-168.444C1598.48,-159.438 1637.01,-145.189 1664.42,-135.049"/>
<polygon fill="midnightblue" stroke="midnightblue" points="1665.81,-138.268 1673.97,-131.516 1663.38,-131.703 1665.81,-138.268"/>
</g>
<!-- Node24 -->
<g id="node24" class="node"><title>Node24</title>
<polygon fill="white" stroke="#bfbfbf" points="1763,-112.5 1763,-131.5 1807,-131.5 1807,-112.5 1763,-112.5"/>
<text text-anchor="middle" x="1785" y="-119.5" font-family="Helvetica,sans-Serif" font-size="10.00">thread</text>
</g>
<!-- Node20&#45;&gt;Node24 -->
<g id="edge33" class="edge"><title>Node20&#45;&gt;Node24</title>
<path fill="none" stroke="midnightblue" d="M1582.27,-170.591C1620.21,-162.693 1686.33,-148.541 1752.85,-131.921"/>
<polygon fill="midnightblue" stroke="midnightblue" points="1753.82,-135.286 1762.66,-129.451 1752.11,-128.498 1753.82,-135.286"/>
</g>
</g>
</svg>
