<?xml version="1.0" encoding="UTF-8" standalone="no"?>
<!DOCTYPE svg PUBLIC "-//W3C//DTD SVG 1.1//EN"
 "http://www.w3.org/Graphics/SVG/1.1/DTD/svg11.dtd">
<!-- Generated by graphviz version 2.38.0 (20140413.2041)
 -->
<!-- Title: consolelogger.hpp Pages: 1 -->
<svg width="1447pt" height="498pt"
 viewBox="0.00 0.00 1447.00 498.00" xmlns="http://www.w3.org/2000/svg" xmlns:xlink="http://www.w3.org/1999/xlink">
<g id="graph0" class="graph" transform="scale(1 1) rotate(0) translate(4 494)">
<title>consolelogger.hpp</title>
<polygon fill="white" stroke="none" points="-4,4 -4,-494 1443,-494 1443,4 -4,4"/>
<!-- Node1 -->
<g id="node1" class="node"><title>Node1</title>
<polygon fill="#bfbfbf" stroke="black" points="585.5,-470.5 585.5,-489.5 680.5,-489.5 680.5,-470.5 585.5,-470.5"/>
<text text-anchor="middle" x="633" y="-477.5" font-family="Helvetica,sans-Serif" font-size="10.00">consolelogger.hpp</text>
</g>
<!-- Node2 -->
<g id="node2" class="node"><title>Node2</title>
<g id="a_node2"><a xlink:href="alox_8hpp.html" target="_top" xlink:title="alox/alox.hpp">
<polygon fill="white" stroke="black" points="598,-224.5 598,-243.5 672,-243.5 672,-224.5 598,-224.5"/>
<text text-anchor="middle" x="635" y="-231.5" font-family="Helvetica,sans-Serif" font-size="10.00">alox/alox.hpp</text>
</a>
</g>
</g>
<!-- Node1&#45;&gt;Node2 -->
<g id="edge1" class="edge"><title>Node1&#45;&gt;Node2</title>
<path fill="none" stroke="midnightblue" d="M638.384,-470.443C643.556,-461.678 651.012,-447.467 654,-434 668.447,-368.879 650.491,-289.371 640.644,-253.785"/>
<polygon fill="midnightblue" stroke="midnightblue" points="643.913,-252.49 637.783,-243.849 637.187,-254.427 643.913,-252.49"/>
</g>
<!-- Node27 -->
<g id="node27" class="node"><title>Node27</title>
<g id="a_node27"><a xlink:href="plaintextlogger_8hpp.html" target="_top" xlink:title="alox/core/textlogger\l/plaintextlogger.hpp">
<polygon fill="white" stroke="black" points="543,-403.5 543,-433.5 645,-433.5 645,-403.5 543,-403.5"/>
<text text-anchor="start" x="551" y="-421.5" font-family="Helvetica,sans-Serif" font-size="10.00">alox/core/textlogger</text>
<text text-anchor="middle" x="594" y="-410.5" font-family="Helvetica,sans-Serif" font-size="10.00">/plaintextlogger.hpp</text>
</a>
</g>
</g>
<!-- Node1&#45;&gt;Node27 -->
<g id="edge37" class="edge"><title>Node1&#45;&gt;Node27</title>
<path fill="none" stroke="midnightblue" d="M627.412,-470.475C622.575,-463.094 615.353,-452.077 608.86,-442.171"/>
<polygon fill="midnightblue" stroke="midnightblue" points="611.601,-439.968 603.192,-433.523 605.746,-443.805 611.601,-439.968"/>
</g>
<!-- Node3 -->
<g id="node3" class="node"><title>Node3</title>
<g id="a_node3"><a xlink:href="alib_8hpp.html" target="_top" xlink:title="alib/alib.hpp">
<polygon fill="white" stroke="black" points="757,-56.5 757,-75.5 825,-75.5 825,-56.5 757,-56.5"/>
<text text-anchor="middle" x="791" y="-63.5" font-family="Helvetica,sans-Serif" font-size="10.00">alib/alib.hpp</text>
</a>
</g>
</g>
<!-- Node2&#45;&gt;Node3 -->
<g id="edge2" class="edge"><title>Node2&#45;&gt;Node3</title>
<path fill="none" stroke="midnightblue" d="M672.264,-233.558C748.44,-233.817 917.868,-229.587 954,-188 996.588,-138.983 893.446,-97.8469 832.279,-78.6372"/>
<polygon fill="midnightblue" stroke="midnightblue" points="833.072,-75.2198 822.486,-75.6353 831.021,-81.9125 833.072,-75.2198"/>
</g>
<!-- Node18 -->
<g id="node18" class="node"><title>Node18</title>
<g id="a_node18"><a xlink:href="alox__symbols_8hpp.html" target="_top" xlink:title="internals/alox_symbols.hpp">
<polygon fill="white" stroke="black" points="556.5,-168.5 556.5,-187.5 691.5,-187.5 691.5,-168.5 556.5,-168.5"/>
<text text-anchor="middle" x="624" y="-175.5" font-family="Helvetica,sans-Serif" font-size="10.00">internals/alox_symbols.hpp</text>
</a>
</g>
</g>
<!-- Node2&#45;&gt;Node18 -->
<g id="edge23" class="edge"><title>Node2&#45;&gt;Node18</title>
<path fill="none" stroke="midnightblue" d="M633.184,-224.083C631.726,-216.927 629.629,-206.635 627.807,-197.691"/>
<polygon fill="midnightblue" stroke="midnightblue" points="631.208,-196.851 625.783,-187.751 624.349,-198.248 631.208,-196.851"/>
</g>
<!-- Node19 -->
<g id="node19" class="node"><title>Node19</title>
<g id="a_node19"><a xlink:href="alox__macros_8hpp.html" target="_top" xlink:title="internals/alox_macros.hpp">
<polygon fill="white" stroke="black" points="709.5,-168.5 709.5,-187.5 840.5,-187.5 840.5,-168.5 709.5,-168.5"/>
<text text-anchor="middle" x="775" y="-175.5" font-family="Helvetica,sans-Serif" font-size="10.00">internals/alox_macros.hpp</text>
</a>
</g>
</g>
<!-- Node2&#45;&gt;Node19 -->
<g id="edge24" class="edge"><title>Node2&#45;&gt;Node19</title>
<path fill="none" stroke="midnightblue" d="M657.183,-224.444C680.428,-215.478 717.149,-201.314 743.415,-191.183"/>
<polygon fill="midnightblue" stroke="midnightblue" points="744.85,-194.381 752.92,-187.516 742.331,-187.85 744.85,-194.381"/>
</g>
<!-- Node20 -->
<g id="node20" class="node"><title>Node20</title>
<g id="a_node20"><a xlink:href="log_8hpp.html" target="_top" xlink:title="log.hpp">
<polygon fill="white" stroke="black" points="897,-168.5 897,-187.5 945,-187.5 945,-168.5 897,-168.5"/>
<text text-anchor="middle" x="921" y="-175.5" font-family="Helvetica,sans-Serif" font-size="10.00">log.hpp</text>
</a>
</g>
</g>
<!-- Node2&#45;&gt;Node20 -->
<g id="edge25" class="edge"><title>Node2&#45;&gt;Node20</title>
<path fill="none" stroke="midnightblue" d="M672.094,-226.901C720.685,-218.767 808.47,-203.576 883,-188 884.269,-187.735 885.561,-187.459 886.865,-187.176"/>
<polygon fill="midnightblue" stroke="midnightblue" points="887.936,-190.522 896.92,-184.906 886.395,-183.693 887.936,-190.522"/>
</g>
<!-- Node21 -->
<g id="node21" class="node"><title>Node21</title>
<g id="a_node21"><a xlink:href="lox_8hpp.html" target="_top" xlink:title="lox.hpp">
<polygon fill="white" stroke="black" points="452,-168.5 452,-187.5 500,-187.5 500,-168.5 452,-168.5"/>
<text text-anchor="middle" x="476" y="-175.5" font-family="Helvetica,sans-Serif" font-size="10.00">lox.hpp</text>
</a>
</g>
</g>
<!-- Node2&#45;&gt;Node21 -->
<g id="edge26" class="edge"><title>Node2&#45;&gt;Node21</title>
<path fill="none" stroke="midnightblue" d="M609.806,-224.444C582.743,-215.252 539.596,-200.599 509.645,-190.426"/>
<polygon fill="midnightblue" stroke="midnightblue" points="510.63,-187.065 500.035,-187.163 508.379,-193.693 510.63,-187.065"/>
</g>
<!-- Node4 -->
<g id="node4" class="node"><title>Node4</title>
<g id="a_node4"><a xlink:href="symbols_8hpp.html" target="_top" xlink:title="alib/core/symbols.hpp">
<polygon fill="white" stroke="black" points="0,-0.5 0,-19.5 112,-19.5 112,-0.5 0,-0.5"/>
<text text-anchor="middle" x="56" y="-7.5" font-family="Helvetica,sans-Serif" font-size="10.00">alib/core/symbols.hpp</text>
</a>
</g>
</g>
<!-- Node3&#45;&gt;Node4 -->
<g id="edge3" class="edge"><title>Node3&#45;&gt;Node4</title>
<path fill="none" stroke="midnightblue" d="M756.986,-62.8649C634.417,-55.1518 217.929,-28.7696 122.206,-20.1005"/>
<polygon fill="midnightblue" stroke="midnightblue" points="122.453,-16.6082 112.164,-19.1336 121.782,-23.576 122.453,-16.6082"/>
</g>
<!-- Node5 -->
<g id="node5" class="node"><title>Node5</title>
<g id="a_node5"><a xlink:href="macros_8hpp.html" target="_top" xlink:title="alib/core/macros.hpp">
<polygon fill="white" stroke="black" points="129.5,-0.5 129.5,-19.5 236.5,-19.5 236.5,-0.5 129.5,-0.5"/>
<text text-anchor="middle" x="183" y="-7.5" font-family="Helvetica,sans-Serif" font-size="10.00">alib/core/macros.hpp</text>
</a>
</g>
</g>
<!-- Node3&#45;&gt;Node5 -->
<g id="edge4" class="edge"><title>Node3&#45;&gt;Node5</title>
<path fill="none" stroke="midnightblue" d="M756.815,-62.8871C672.263,-57.5095 446.364,-42.2191 246.678,-20.0076"/>
<polygon fill="midnightblue" stroke="midnightblue" points="246.916,-16.5124 236.588,-18.8768 246.136,-23.4688 246.916,-16.5124"/>
</g>
<!-- Node6 -->
<g id="node6" class="node"><title>Node6</title>
<polygon fill="white" stroke="#bfbfbf" points="255,-0.5 255,-19.5 307,-19.5 307,-0.5 255,-0.5"/>
<text text-anchor="middle" x="281" y="-7.5" font-family="Helvetica,sans-Serif" font-size="10.00">assert.h</text>
</g>
<!-- Node3&#45;&gt;Node6 -->
<g id="edge5" class="edge"><title>Node3&#45;&gt;Node6</title>
<path fill="none" stroke="midnightblue" d="M756.795,-62.4631C665.777,-55.6042 418.251,-36.2175 317.162,-19.8991"/>
<polygon fill="midnightblue" stroke="midnightblue" points="317.72,-16.444 307.277,-18.2293 316.554,-23.3462 317.72,-16.444"/>
</g>
<!-- Node7 -->
<g id="node7" class="node"><title>Node7</title>
<polygon fill="white" stroke="#bfbfbf" points="325.5,-0.5 325.5,-19.5 374.5,-19.5 374.5,-0.5 325.5,-0.5"/>
<text text-anchor="middle" x="350" y="-7.5" font-family="Helvetica,sans-Serif" font-size="10.00">cstddef</text>
</g>
<!-- Node3&#45;&gt;Node7 -->
<g id="edge6" class="edge"><title>Node3&#45;&gt;Node7</title>
<path fill="none" stroke="midnightblue" d="M756.881,-63.046C688.062,-58.7174 527.634,-46.6693 384.6,-20.0592"/>
<polygon fill="midnightblue" stroke="midnightblue" points="385.245,-16.6193 374.769,-18.2018 383.945,-23.4976 385.245,-16.6193"/>
</g>
<!-- Node8 -->
<g id="node8" class="node"><title>Node8</title>
<polygon fill="white" stroke="#bfbfbf" points="392.5,-0.5 392.5,-19.5 455.5,-19.5 455.5,-0.5 392.5,-0.5"/>
<text text-anchor="middle" x="424" y="-7.5" font-family="Helvetica,sans-Serif" font-size="10.00">windows.h</text>
</g>
<!-- Node3&#45;&gt;Node8 -->
<g id="edge7" class="edge"><title>Node3&#45;&gt;Node8</title>
<path fill="none" stroke="midnightblue" d="M756.956,-61.2764C699.093,-54.7396 577.681,-40.126 465.918,-20.2317"/>
<polygon fill="midnightblue" stroke="midnightblue" points="466.289,-16.7423 455.827,-18.4161 465.049,-23.6317 466.289,-16.7423"/>
</g>
<!-- Node9 -->
<g id="node9" class="node"><title>Node9</title>
<polygon fill="white" stroke="#bfbfbf" points="473.5,-0.5 473.5,-19.5 522.5,-19.5 522.5,-0.5 473.5,-0.5"/>
<text text-anchor="middle" x="498" y="-7.5" font-family="Helvetica,sans-Serif" font-size="10.00">stdint.h</text>
</g>
<!-- Node3&#45;&gt;Node9 -->
<g id="edge8" class="edge"><title>Node3&#45;&gt;Node9</title>
<path fill="none" stroke="midnightblue" d="M756.877,-60.0371C709.01,-52.8651 619.027,-38.6184 532.775,-20.0076"/>
<polygon fill="midnightblue" stroke="midnightblue" points="533.338,-16.5482 522.822,-17.8365 531.846,-23.3874 533.338,-16.5482"/>
</g>
<!-- Node10 -->
<g id="node10" class="node"><title>Node10</title>
<polygon fill="white" stroke="#bfbfbf" points="541,-0.5 541,-19.5 603,-19.5 603,-0.5 541,-0.5"/>
<text text-anchor="middle" x="572" y="-7.5" font-family="Helvetica,sans-Serif" font-size="10.00">type_traits</text>
</g>
<!-- Node3&#45;&gt;Node10 -->
<g id="edge9" class="edge"><title>Node3&#45;&gt;Node10</title>
<path fill="none" stroke="midnightblue" d="M756.781,-56.5625C717.883,-46.9712 654.421,-31.3229 612.933,-21.093"/>
<polygon fill="midnightblue" stroke="midnightblue" points="613.692,-17.6754 603.145,-18.6795 612.016,-24.4719 613.692,-17.6754"/>
</g>
<!-- Node11 -->
<g id="node11" class="node"><title>Node11</title>
<polygon fill="white" stroke="#bfbfbf" points="621,-0.5 621,-19.5 661,-19.5 661,-0.5 621,-0.5"/>
<text text-anchor="middle" x="641" y="-7.5" font-family="Helvetica,sans-Serif" font-size="10.00">utility</text>
</g>
<!-- Node3&#45;&gt;Node11 -->
<g id="edge10" class="edge"><title>Node3&#45;&gt;Node11</title>
<path fill="none" stroke="midnightblue" d="M767.232,-56.4435C741.187,-47.0673 699.352,-32.0068 671.05,-21.818"/>
<polygon fill="midnightblue" stroke="midnightblue" points="671.884,-18.3983 661.289,-18.3042 669.513,-24.9845 671.884,-18.3983"/>
</g>
<!-- Node12 -->
<g id="node12" class="node"><title>Node12</title>
<g id="a_node12"><a xlink:href="enums_8hpp.html" target="_top" xlink:title="alib/core/enums.hpp">
<polygon fill="white" stroke="black" points="679,-0.5 679,-19.5 783,-19.5 783,-0.5 679,-0.5"/>
<text text-anchor="middle" x="731" y="-7.5" font-family="Helvetica,sans-Serif" font-size="10.00">alib/core/enums.hpp</text>
</a>
</g>
</g>
<!-- Node3&#45;&gt;Node12 -->
<g id="edge11" class="edge"><title>Node3&#45;&gt;Node12</title>
<path fill="none" stroke="midnightblue" d="M776.245,-56.324C765.855,-48.4979 752.461,-36.7829 742.779,-27.2238"/>
<polygon fill="midnightblue" stroke="midnightblue" points="745.123,-24.612 735.667,-19.8339 740.079,-29.4661 745.123,-24.612"/>
</g>
<!-- Node13 -->
<g id="node13" class="node"><title>Node13</title>
<g id="a_node13"><a xlink:href="report_8hpp.html" target="_top" xlink:title="alib/core/report.hpp">
<polygon fill="white" stroke="black" points="801,-0.5 801,-19.5 901,-19.5 901,-0.5 801,-0.5"/>
<text text-anchor="middle" x="851" y="-7.5" font-family="Helvetica,sans-Serif" font-size="10.00">alib/core/report.hpp</text>
</a>
</g>
</g>
<!-- Node3&#45;&gt;Node13 -->
<g id="edge13" class="edge"><title>Node3&#45;&gt;Node13</title>
<path fill="none" stroke="midnightblue" d="M795.741,-56.083C803.103,-47.905 816.425,-35.6307 828.272,-25.9535"/>
<polygon fill="midnightblue" stroke="midnightblue" points="830.456,-28.6885 836.146,-19.7511 826.124,-23.1896 830.456,-28.6885"/>
</g>
<!-- Node14 -->
<g id="node14" class="node"><title>Node14</title>
<g id="a_node14"><a xlink:href="cstring_8hpp.html" target="_top" xlink:title="alib/strings/cstring.hpp">
<polygon fill="white" stroke="red" points="919.5,-0.5 919.5,-19.5 1034.5,-19.5 1034.5,-0.5 919.5,-0.5"/>
<text text-anchor="middle" x="977" y="-7.5" font-family="Helvetica,sans-Serif" font-size="10.00">alib/strings/cstring.hpp</text>
</a>
</g>
</g>
<!-- Node3&#45;&gt;Node14 -->
<g id="edge15" class="edge"><title>Node3&#45;&gt;Node14</title>
<path fill="none" stroke="midnightblue" d="M815.383,-56.4435C845.191,-47.2011 895.879,-32.4356 932.621,-22.2572"/>
<polygon fill="midnightblue" stroke="midnightblue" points="933.872,-25.5432 942.586,-19.5164 932.016,-18.7939 933.872,-25.5432"/>
</g>
<!-- Node15 -->
<g id="node15" class="node"><title>Node15</title>
<g id="a_node15"><a xlink:href="as_8hpp.html" target="_top" xlink:title="alib/strings/as.hpp">
<polygon fill="white" stroke="red" points="1053,-0.5 1053,-19.5 1149,-19.5 1149,-0.5 1053,-0.5"/>
<text text-anchor="middle" x="1101" y="-7.5" font-family="Helvetica,sans-Serif" font-size="10.00">alib/strings/as.hpp</text>
</a>
</g>
</g>
<!-- Node3&#45;&gt;Node15 -->
<g id="edge17" class="edge"><title>Node3&#45;&gt;Node15</title>
<path fill="none" stroke="midnightblue" d="M825.289,-58.2155C877.888,-48.603 978.802,-30.9915 1042.92,-20.2069"/>
<polygon fill="midnightblue" stroke="midnightblue" points="1043.6,-23.6422 1052.88,-18.5369 1042.44,-16.7386 1043.6,-23.6422"/>
</g>
<!-- Node16 -->
<g id="node16" class="node"><title>Node16</title>
<g id="a_node16"><a xlink:href="ns__aworx_8hpp.html" target="_top" xlink:title="alib/core/ns_aworx.hpp">
<polygon fill="white" stroke="black" points="1167.5,-0.5 1167.5,-19.5 1284.5,-19.5 1284.5,-0.5 1167.5,-0.5"/>
<text text-anchor="middle" x="1226" y="-7.5" font-family="Helvetica,sans-Serif" font-size="10.00">alib/core/ns_aworx.hpp</text>
</a>
</g>
</g>
<!-- Node3&#45;&gt;Node16 -->
<g id="edge19" class="edge"><title>Node3&#45;&gt;Node16</title>
<path fill="none" stroke="midnightblue" d="M825.169,-60.2633C888.985,-52.1943 1029.92,-35.18 1149,-20 1151.68,-19.6588 1154.41,-19.3075 1157.18,-18.9506"/>
<polygon fill="midnightblue" stroke="midnightblue" points="1157.84,-22.3945 1167.31,-17.6415 1156.94,-15.4522 1157.84,-22.3945"/>
</g>
<!-- Node17 -->
<g id="node17" class="node"><title>Node17</title>
<g id="a_node17"><a xlink:href="namespace_8hpp.html" target="_top" xlink:title="alib/strings/namespace.hpp">
<polygon fill="white" stroke="red" points="1303,-0.5 1303,-19.5 1439,-19.5 1439,-0.5 1303,-0.5"/>
<text text-anchor="middle" x="1371" y="-7.5" font-family="Helvetica,sans-Serif" font-size="10.00">alib/strings/namespace.hpp</text>
</a>
</g>
</g>
<!-- Node3&#45;&gt;Node17 -->
<g id="edge21" class="edge"><title>Node3&#45;&gt;Node17</title>
<path fill="none" stroke="midnightblue" d="M825.027,-61.886C905.335,-55.034 1112.1,-37.8352 1285,-20 1287.52,-19.7402 1290.08,-19.47 1292.68,-19.1923"/>
<polygon fill="midnightblue" stroke="midnightblue" points="1293.22,-22.6533 1302.79,-18.0902 1292.47,-15.6945 1293.22,-22.6533"/>
</g>
<!-- Node12&#45;&gt;Node3 -->
<g id="edge12" class="edge"><title>Node12&#45;&gt;Node3</title>
<path fill="none" stroke="midnightblue" d="M745.854,-19.7511C756.209,-27.5608 769.515,-39.1997 779.162,-48.7175"/>
<polygon fill="midnightblue" stroke="midnightblue" points="776.8,-51.3104 786.259,-56.083 781.84,-46.4533 776.8,-51.3104"/>
</g>
<!-- Node13&#45;&gt;Node3 -->
<g id="edge14" class="edge"><title>Node13&#45;&gt;Node3</title>
<path fill="none" stroke="midnightblue" d="M846.333,-19.8339C838.974,-28.0269 825.565,-40.3824 813.662,-50.1008"/>
<polygon fill="midnightblue" stroke="midnightblue" points="811.448,-47.3889 805.755,-56.324 815.778,-52.8896 811.448,-47.3889"/>
</g>
<!-- Node14&#45;&gt;Node3 -->
<g id="edge16" class="edge"><title>Node14&#45;&gt;Node3</title>
<path fill="none" stroke="midnightblue" d="M952.617,-19.5565C922.731,-28.823 871.857,-43.6416 835.091,-53.8224"/>
<polygon fill="midnightblue" stroke="midnightblue" points="833.839,-50.5367 825.125,-56.5625 835.695,-57.2863 833.839,-50.5367"/>
</g>
<!-- Node15&#45;&gt;Node3 -->
<g id="edge18" class="edge"><title>Node15&#45;&gt;Node3</title>
<path fill="none" stroke="midnightblue" d="M1057.09,-19.5344C998.201,-30.2011 894.461,-48.2491 835.347,-58.0923"/>
<polygon fill="midnightblue" stroke="midnightblue" points="834.494,-54.6857 825.201,-59.7732 835.638,-61.5916 834.494,-54.6857"/>
</g>
<!-- Node16&#45;&gt;Node3 -->
<g id="edge20" class="edge"><title>Node16&#45;&gt;Node3</title>
<path fill="none" stroke="midnightblue" d="M1170.58,-19.5427C1169.37,-19.6968 1168.18,-19.8494 1167,-20 1047.53,-35.2302 906.052,-52.3069 835.452,-60.343"/>
<polygon fill="midnightblue" stroke="midnightblue" points="834.696,-56.9062 825.152,-61.5077 835.482,-63.8619 834.696,-56.9062"/>
</g>
<!-- Node17&#45;&gt;Node3 -->
<g id="edge22" class="edge"><title>Node17&#45;&gt;Node3</title>
<path fill="none" stroke="midnightblue" d="M1307.46,-19.5342C1305.96,-19.6926 1304.47,-19.8481 1303,-20 1130.39,-37.8049 924.036,-54.9757 835.119,-61.8511"/>
<polygon fill="midnightblue" stroke="midnightblue" points="834.822,-58.3635 825.119,-62.6187 835.358,-65.343 834.822,-58.3635"/>
</g>
<!-- Node22 -->
<g id="node22" class="node"><title>Node22</title>
<g id="a_node22"><a xlink:href="threadlock_8hpp.html" target="_top" xlink:title="alib/threads/threadlock.hpp">
<polygon fill="white" stroke="red" points="542,-112.5 542,-131.5 676,-131.5 676,-112.5 542,-112.5"/>
<text text-anchor="middle" x="609" y="-119.5" font-family="Helvetica,sans-Serif" font-size="10.00">alib/threads/threadlock.hpp</text>
</a>
</g>
</g>
<!-- Node21&#45;&gt;Node22 -->
<g id="edge27" class="edge"><title>Node21&#45;&gt;Node22</title>
<path fill="none" stroke="midnightblue" d="M497.074,-168.444C519.06,-159.517 553.734,-145.439 578.664,-135.317"/>
<polygon fill="midnightblue" stroke="midnightblue" points="580.076,-138.521 588.024,-131.516 577.442,-132.035 580.076,-138.521"/>
</g>
<!-- Node23 -->
<g id="node23" class="node"><title>Node23</title>
<g id="a_node23"><a xlink:href="callerinfo_8hpp.html" target="_top" xlink:title="alox/core/callerinfo.hpp">
<polygon fill="white" stroke="red" points="694.5,-112.5 694.5,-131.5 811.5,-131.5 811.5,-112.5 694.5,-112.5"/>
<text text-anchor="middle" x="753" y="-119.5" font-family="Helvetica,sans-Serif" font-size="10.00">alox/core/callerinfo.hpp</text>
</a>
</g>
</g>
<!-- Node21&#45;&gt;Node23 -->
<g id="edge29" class="edge"><title>Node21&#45;&gt;Node23</title>
<path fill="none" stroke="midnightblue" d="M500.085,-171.118C504.695,-170.042 509.49,-168.958 514,-168 575.114,-155.017 645.43,-142.008 693.892,-133.341"/>
<polygon fill="midnightblue" stroke="midnightblue" points="694.659,-136.759 703.89,-131.559 693.431,-129.868 694.659,-136.759"/>
</g>
<!-- Node24 -->
<g id="node24" class="node"><title>Node24</title>
<polygon fill="white" stroke="#bfbfbf" points="599.5,-56.5 599.5,-75.5 634.5,-75.5 634.5,-56.5 599.5,-56.5"/>
<text text-anchor="middle" x="617" y="-63.5" font-family="Helvetica,sans-Serif" font-size="10.00">map</text>
</g>
<!-- Node21&#45;&gt;Node24 -->
<g id="edge36" class="edge"><title>Node21&#45;&gt;Node24</title>
<path fill="none" stroke="midnightblue" d="M482.173,-168.106C491.825,-154.677 511.612,-128.992 533,-112 550.434,-98.1496 572.754,-86.4248 590.003,-78.4187"/>
<polygon fill="midnightblue" stroke="midnightblue" points="591.815,-81.4415 599.498,-74.1466 588.943,-75.0579 591.815,-81.4415"/>
</g>
<!-- Node25 -->
<g id="node25" class="node"><title>Node25</title>
<g id="a_node25"><a xlink:href="domain_8hpp.html" target="_top" xlink:title="alox/core/domain.hpp">
<polygon fill="white" stroke="black" points="338,-112.5 338,-131.5 448,-131.5 448,-112.5 338,-112.5"/>
<text text-anchor="middle" x="393" y="-119.5" font-family="Helvetica,sans-Serif" font-size="10.00">alox/core/domain.hpp</text>
</a>
</g>
</g>
<!-- Node21&#45;&gt;Node25 -->
<g id="edge32" class="edge"><title>Node21&#45;&gt;Node25</title>
<path fill="none" stroke="midnightblue" d="M462.665,-168.324C449.838,-159.979 430.215,-147.212 415.06,-137.352"/>
<polygon fill="midnightblue" stroke="midnightblue" points="416.593,-134.174 406.302,-131.655 412.776,-140.042 416.593,-134.174"/>
</g>
<!-- Node26 -->
<g id="node26" class="node"><title>Node26</title>
<polygon fill="white" stroke="#bfbfbf" points="371,-56.5 371,-75.5 415,-75.5 415,-56.5 371,-56.5"/>
<text text-anchor="middle" x="393" y="-63.5" font-family="Helvetica,sans-Serif" font-size="10.00">vector</text>
</g>
<!-- Node21&#45;&gt;Node26 -->
<g id="edge35" class="edge"><title>Node21&#45;&gt;Node26</title>
<path fill="none" stroke="midnightblue" d="M475.277,-168.208C473.803,-154.913 469.453,-129.4 457,-112 447.585,-98.8456 433.08,-88.1914 420.257,-80.5581"/>
<polygon fill="midnightblue" stroke="midnightblue" points="421.748,-77.3815 411.314,-75.5411 418.323,-83.4864 421.748,-77.3815"/>
</g>
<!-- Node22&#45;&gt;Node3 -->
<g id="edge28" class="edge"><title>Node22&#45;&gt;Node3</title>
<path fill="none" stroke="midnightblue" d="M637.838,-112.444C668.856,-103.241 718.329,-88.5617 752.618,-78.3879"/>
<polygon fill="midnightblue" stroke="midnightblue" points="753.705,-81.7164 762.296,-75.5164 751.714,-75.0055 753.705,-81.7164"/>
</g>
<!-- Node23&#45;&gt;Node2 -->
<g id="edge30" class="edge"><title>Node23&#45;&gt;Node2</title>
<path fill="none" stroke="midnightblue" d="M787.104,-131.548C822.591,-142.074 870.245,-161.823 849,-188 828.448,-213.323 739.096,-224.925 682.546,-229.817"/>
<polygon fill="midnightblue" stroke="midnightblue" points="682.072,-226.344 672.393,-230.654 682.647,-233.32 682.072,-226.344"/>
</g>
<!-- Node23&#45;&gt;Node24 -->
<g id="edge31" class="edge"><title>Node23&#45;&gt;Node24</title>
<path fill="none" stroke="midnightblue" d="M731.45,-112.444C707.779,-103.045 669.722,-87.9336 644.059,-77.7438"/>
<polygon fill="midnightblue" stroke="midnightblue" points="645.142,-74.4084 634.557,-73.971 642.559,-80.9143 645.142,-74.4084"/>
</g>
<!-- Node25&#45;&gt;Node2 -->
<g id="edge33" class="edge"><title>Node25&#45;&gt;Node2</title>
<path fill="none" stroke="midnightblue" d="M397.179,-131.703C404.434,-145.84 420.744,-173.651 443,-188 486.901,-216.305 546.671,-226.855 587.801,-230.76"/>
<polygon fill="midnightblue" stroke="midnightblue" points="587.573,-234.253 597.835,-231.616 588.169,-227.278 587.573,-234.253"/>
</g>
<!-- Node25&#45;&gt;Node26 -->
<g id="edge34" class="edge"><title>Node25&#45;&gt;Node26</title>
<path fill="none" stroke="midnightblue" d="M393,-112.083C393,-105.006 393,-94.8611 393,-85.9865"/>
<polygon fill="midnightblue" stroke="midnightblue" points="396.5,-85.751 393,-75.7511 389.5,-85.7511 396.5,-85.751"/>
</g>
<!-- Node27&#45;&gt;Node2 -->
<g id="edge38" class="edge"><title>Node27&#45;&gt;Node2</title>
<path fill="none" stroke="midnightblue" d="M601.414,-403.294C606.281,-393.377 612.392,-379.694 616,-367 627.197,-327.601 631.992,-279.62 633.886,-253.732"/>
<polygon fill="midnightblue" stroke="midnightblue" points="637.395,-253.712 634.565,-243.503 630.411,-253.249 637.395,-253.712"/>
</g>
<!-- Node28 -->
<g id="node28" class="node"><title>Node28</title>
<g id="a_node28"><a xlink:href="textlogger_8hpp.html" target="_top" xlink:title="alox/core/textlogger\l/textlogger.hpp">
<polygon fill="white" stroke="black" points="505,-336.5 505,-366.5 607,-366.5 607,-336.5 505,-336.5"/>
<text text-anchor="start" x="513" y="-354.5" font-family="Helvetica,sans-Serif" font-size="10.00">alox/core/textlogger</text>
<text text-anchor="middle" x="556" y="-343.5" font-family="Helvetica,sans-Serif" font-size="10.00">/textlogger.hpp</text>
</a>
</g>
</g>
<!-- Node27&#45;&gt;Node28 -->
<g id="edge39" class="edge"><title>Node27&#45;&gt;Node28</title>
<path fill="none" stroke="midnightblue" d="M585.755,-403.396C580.974,-395.219 574.839,-384.725 569.384,-375.393"/>
<polygon fill="midnightblue" stroke="midnightblue" points="572.298,-373.443 564.229,-366.577 566.255,-376.976 572.298,-373.443"/>
</g>
<!-- Node28&#45;&gt;Node2 -->
<g id="edge40" class="edge"><title>Node28&#45;&gt;Node2</title>
<path fill="none" stroke="midnightblue" d="M565.687,-336.337C580.244,-315.054 607.718,-274.887 623.349,-252.035"/>
<polygon fill="midnightblue" stroke="midnightblue" points="626.314,-253.899 629.07,-243.669 620.536,-249.947 626.314,-253.899"/>
</g>
<!-- Node29 -->
<g id="node29" class="node"><title>Node29</title>
<g id="a_node29"><a xlink:href="logger_8hpp.html" target="_top" xlink:title="alox/core/logger.hpp">
<polygon fill="white" stroke="black" points="465,-280.5 465,-299.5 569,-299.5 569,-280.5 465,-280.5"/>
<text text-anchor="middle" x="517" y="-287.5" font-family="Helvetica,sans-Serif" font-size="10.00">alox/core/logger.hpp</text>
</a>
</g>
</g>
<!-- Node28&#45;&gt;Node29 -->
<g id="edge41" class="edge"><title>Node28&#45;&gt;Node29</title>
<path fill="none" stroke="midnightblue" d="M546.758,-336.399C541.207,-327.932 534.107,-317.099 528.234,-308.139"/>
<polygon fill="midnightblue" stroke="midnightblue" points="531.084,-306.103 522.675,-299.658 525.23,-309.94 531.084,-306.103"/>
</g>
<!-- Node29&#45;&gt;Node2 -->
<g id="edge42" class="edge"><title>Node29&#45;&gt;Node2</title>
<path fill="none" stroke="midnightblue" d="M535.697,-280.444C554.944,-271.636 585.152,-257.812 607.2,-247.722"/>
<polygon fill="midnightblue" stroke="midnightblue" points="608.753,-250.86 616.39,-243.516 605.84,-244.495 608.753,-250.86"/>
</g>
<!-- Node29&#45;&gt;Node23 -->
<g id="edge43" class="edge"><title>Node29&#45;&gt;Node23</title>
<path fill="none" stroke="midnightblue" d="M516.31,-280.189C515.089,-257.915 515.191,-198.931 547,-168 557.383,-157.903 633.646,-143.094 690.373,-133.256"/>
<polygon fill="midnightblue" stroke="midnightblue" points="691.098,-136.683 700.361,-131.54 689.913,-129.784 691.098,-136.683"/>
</g>
<!-- Node29&#45;&gt;Node25 -->
<g id="edge44" class="edge"><title>Node29&#45;&gt;Node25</title>
<path fill="none" stroke="midnightblue" d="M505.998,-280.402C485.986,-264.256 443.358,-227.45 418,-188 408.611,-173.394 401.889,-154.72 397.796,-141.139"/>
<polygon fill="midnightblue" stroke="midnightblue" points="401.164,-140.185 395.077,-131.514 394.427,-142.089 401.164,-140.185"/>
</g>
<!-- Node29&#45;&gt;Node26 -->
<g id="edge45" class="edge"><title>Node29&#45;&gt;Node26</title>
<path fill="none" stroke="midnightblue" d="M497.437,-280.432C456.218,-261.101 361.564,-209.644 329,-132 325.562,-123.803 324.903,-119.889 329,-112 336.153,-98.2262 349.671,-87.783 362.447,-80.4413"/>
<polygon fill="midnightblue" stroke="midnightblue" points="364.317,-83.412 371.517,-75.6403 361.042,-77.2252 364.317,-83.412"/>
</g>
</g>
</svg>
