<?xml version="1.0" encoding="UTF-8" standalone="no"?>
<!DOCTYPE svg PUBLIC "-//W3C//DTD SVG 1.1//EN"
 "http://www.w3.org/Graphics/SVG/1.1/DTD/svg11.dtd">
<!-- Generated by graphviz version 2.38.0 (20140413.2041)
 -->
<!-- Title: domain.hpp Pages: 1 -->
<svg width="1447pt" height="308pt"
 viewBox="0.00 0.00 1447.00 308.00" xmlns="http://www.w3.org/2000/svg" xmlns:xlink="http://www.w3.org/1999/xlink">
<g id="graph0" class="graph" transform="scale(1 1) rotate(0) translate(4 304)">
<title>domain.hpp</title>
<polygon fill="white" stroke="none" points="-4,4 -4,-304 1443,-304 1443,4 -4,4"/>
<!-- Node1 -->
<g id="node1" class="node"><title>Node1</title>
<polygon fill="#bfbfbf" stroke="black" points="1022.5,-280.5 1022.5,-299.5 1089.5,-299.5 1089.5,-280.5 1022.5,-280.5"/>
<text text-anchor="middle" x="1056" y="-287.5" font-family="Helvetica,sans-Serif" font-size="10.00">domain.hpp</text>
</g>
<!-- Node2 -->
<g id="node2" class="node"><title>Node2</title>
<g id="a_node2"><a xlink:href="alox_8hpp.html" target="_top" xlink:title="alox/alox.hpp">
<polygon fill="white" stroke="black" points="845,-224.5 845,-243.5 919,-243.5 919,-224.5 845,-224.5"/>
<text text-anchor="middle" x="882" y="-231.5" font-family="Helvetica,sans-Serif" font-size="10.00">alox/alox.hpp</text>
</a>
</g>
</g>
<!-- Node1&#45;&gt;Node2 -->
<g id="edge1" class="edge"><title>Node1&#45;&gt;Node2</title>
<path fill="none" stroke="midnightblue" d="M1028.43,-280.444C998.903,-271.28 951.882,-256.688 919.117,-246.519"/>
<polygon fill="midnightblue" stroke="midnightblue" points="920.03,-243.138 909.442,-243.516 917.955,-249.823 920.03,-243.138"/>
</g>
<!-- Node25 -->
<g id="node25" class="node"><title>Node25</title>
<polygon fill="white" stroke="#bfbfbf" points="1085,-112.5 1085,-131.5 1129,-131.5 1129,-112.5 1085,-112.5"/>
<text text-anchor="middle" x="1107" y="-119.5" font-family="Helvetica,sans-Serif" font-size="10.00">vector</text>
</g>
<!-- Node1&#45;&gt;Node25 -->
<g id="edge35" class="edge"><title>Node1&#45;&gt;Node25</title>
<path fill="none" stroke="midnightblue" d="M1058.96,-280.395C1064.9,-263.014 1078.61,-222.439 1089,-188 1093.7,-172.41 1098.61,-154.578 1102.11,-141.539"/>
<polygon fill="midnightblue" stroke="midnightblue" points="1105.49,-142.432 1104.68,-131.868 1098.73,-140.631 1105.49,-142.432"/>
</g>
<!-- Node3 -->
<g id="node3" class="node"><title>Node3</title>
<g id="a_node3"><a xlink:href="alib_8hpp.html" target="_top" xlink:title="alib/alib.hpp">
<polygon fill="white" stroke="black" points="757,-56.5 757,-75.5 825,-75.5 825,-56.5 757,-56.5"/>
<text text-anchor="middle" x="791" y="-63.5" font-family="Helvetica,sans-Serif" font-size="10.00">alib/alib.hpp</text>
</a>
</g>
</g>
<!-- Node2&#45;&gt;Node3 -->
<g id="edge2" class="edge"><title>Node2&#45;&gt;Node3</title>
<path fill="none" stroke="midnightblue" d="M844.968,-232.408C778.699,-230.479 644.024,-222.325 615,-188 570.821,-135.752 681.775,-95.958 747.173,-77.8106"/>
<polygon fill="midnightblue" stroke="midnightblue" points="748.12,-81.1803 756.858,-75.1882 746.29,-74.4237 748.12,-81.1803"/>
</g>
<!-- Node18 -->
<g id="node18" class="node"><title>Node18</title>
<g id="a_node18"><a xlink:href="alox__symbols_8hpp.html" target="_top" xlink:title="internals/alox_symbols.hpp">
<polygon fill="white" stroke="black" points="624.5,-168.5 624.5,-187.5 759.5,-187.5 759.5,-168.5 624.5,-168.5"/>
<text text-anchor="middle" x="692" y="-175.5" font-family="Helvetica,sans-Serif" font-size="10.00">internals/alox_symbols.hpp</text>
</a>
</g>
</g>
<!-- Node2&#45;&gt;Node18 -->
<g id="edge23" class="edge"><title>Node2&#45;&gt;Node18</title>
<path fill="none" stroke="midnightblue" d="M851.894,-224.444C819.374,-215.201 767.421,-200.436 731.609,-190.257"/>
<polygon fill="midnightblue" stroke="midnightblue" points="732.541,-186.884 721.965,-187.516 730.627,-193.617 732.541,-186.884"/>
</g>
<!-- Node19 -->
<g id="node19" class="node"><title>Node19</title>
<g id="a_node19"><a xlink:href="alox__macros_8hpp.html" target="_top" xlink:title="internals/alox_macros.hpp">
<polygon fill="white" stroke="black" points="816.5,-168.5 816.5,-187.5 947.5,-187.5 947.5,-168.5 816.5,-168.5"/>
<text text-anchor="middle" x="882" y="-175.5" font-family="Helvetica,sans-Serif" font-size="10.00">internals/alox_macros.hpp</text>
</a>
</g>
</g>
<!-- Node2&#45;&gt;Node19 -->
<g id="edge24" class="edge"><title>Node2&#45;&gt;Node19</title>
<path fill="none" stroke="midnightblue" d="M882,-224.083C882,-217.006 882,-206.861 882,-197.986"/>
<polygon fill="midnightblue" stroke="midnightblue" points="885.5,-197.751 882,-187.751 878.5,-197.751 885.5,-197.751"/>
</g>
<!-- Node20 -->
<g id="node20" class="node"><title>Node20</title>
<g id="a_node20"><a xlink:href="log_8hpp.html" target="_top" xlink:title="log.hpp">
<polygon fill="white" stroke="black" points="966,-168.5 966,-187.5 1014,-187.5 1014,-168.5 966,-168.5"/>
<text text-anchor="middle" x="990" y="-175.5" font-family="Helvetica,sans-Serif" font-size="10.00">log.hpp</text>
</a>
</g>
</g>
<!-- Node2&#45;&gt;Node20 -->
<g id="edge25" class="edge"><title>Node2&#45;&gt;Node20</title>
<path fill="none" stroke="midnightblue" d="M899.352,-224.324C916.672,-215.664 943.515,-202.242 963.502,-192.249"/>
<polygon fill="midnightblue" stroke="midnightblue" points="965.312,-195.257 972.691,-187.655 962.181,-188.996 965.312,-195.257"/>
</g>
<!-- Node21 -->
<g id="node21" class="node"><title>Node21</title>
<g id="a_node21"><a xlink:href="lox_8hpp.html" target="_top" xlink:title="lox.hpp">
<polygon fill="white" stroke="black" points="1032,-168.5 1032,-187.5 1080,-187.5 1080,-168.5 1032,-168.5"/>
<text text-anchor="middle" x="1056" y="-175.5" font-family="Helvetica,sans-Serif" font-size="10.00">lox.hpp</text>
</a>
</g>
</g>
<!-- Node2&#45;&gt;Node21 -->
<g id="edge26" class="edge"><title>Node2&#45;&gt;Node21</title>
<path fill="none" stroke="midnightblue" d="M909.571,-224.444C940.14,-214.957 989.459,-199.651 1022.3,-189.46"/>
<polygon fill="midnightblue" stroke="midnightblue" points="1023.41,-192.78 1031.92,-186.473 1021.33,-186.094 1023.41,-192.78"/>
</g>
<!-- Node4 -->
<g id="node4" class="node"><title>Node4</title>
<g id="a_node4"><a xlink:href="symbols_8hpp.html" target="_top" xlink:title="alib/core/symbols.hpp">
<polygon fill="white" stroke="black" points="0,-0.5 0,-19.5 112,-19.5 112,-0.5 0,-0.5"/>
<text text-anchor="middle" x="56" y="-7.5" font-family="Helvetica,sans-Serif" font-size="10.00">alib/core/symbols.hpp</text>
</a>
</g>
</g>
<!-- Node3&#45;&gt;Node4 -->
<g id="edge3" class="edge"><title>Node3&#45;&gt;Node4</title>
<path fill="none" stroke="midnightblue" d="M756.708,-63.5827C659.066,-59.3595 371.027,-45.6006 122.118,-20.1595"/>
<polygon fill="midnightblue" stroke="midnightblue" points="122.47,-16.6773 112.164,-19.1336 121.752,-23.6404 122.47,-16.6773"/>
</g>
<!-- Node5 -->
<g id="node5" class="node"><title>Node5</title>
<g id="a_node5"><a xlink:href="macros_8hpp.html" target="_top" xlink:title="alib/core/macros.hpp">
<polygon fill="white" stroke="black" points="129.5,-0.5 129.5,-19.5 236.5,-19.5 236.5,-0.5 129.5,-0.5"/>
<text text-anchor="middle" x="183" y="-7.5" font-family="Helvetica,sans-Serif" font-size="10.00">alib/core/macros.hpp</text>
</a>
</g>
</g>
<!-- Node3&#45;&gt;Node5 -->
<g id="edge4" class="edge"><title>Node3&#45;&gt;Node5</title>
<path fill="none" stroke="midnightblue" d="M756.815,-62.8871C672.263,-57.5095 446.364,-42.2191 246.678,-20.0076"/>
<polygon fill="midnightblue" stroke="midnightblue" points="246.916,-16.5124 236.588,-18.8768 246.136,-23.4688 246.916,-16.5124"/>
</g>
<!-- Node6 -->
<g id="node6" class="node"><title>Node6</title>
<polygon fill="white" stroke="#bfbfbf" points="255,-0.5 255,-19.5 307,-19.5 307,-0.5 255,-0.5"/>
<text text-anchor="middle" x="281" y="-7.5" font-family="Helvetica,sans-Serif" font-size="10.00">assert.h</text>
</g>
<!-- Node3&#45;&gt;Node6 -->
<g id="edge5" class="edge"><title>Node3&#45;&gt;Node6</title>
<path fill="none" stroke="midnightblue" d="M756.772,-63.6048C679.799,-60.0732 487.126,-49.0326 317.149,-19.9439"/>
<polygon fill="midnightblue" stroke="midnightblue" points="317.728,-16.4921 307.277,-18.2293 316.53,-23.3889 317.728,-16.4921"/>
</g>
<!-- Node7 -->
<g id="node7" class="node"><title>Node7</title>
<polygon fill="white" stroke="#bfbfbf" points="325.5,-0.5 325.5,-19.5 374.5,-19.5 374.5,-0.5 325.5,-0.5"/>
<text text-anchor="middle" x="350" y="-7.5" font-family="Helvetica,sans-Serif" font-size="10.00">cstddef</text>
</g>
<!-- Node3&#45;&gt;Node7 -->
<g id="edge6" class="edge"><title>Node3&#45;&gt;Node7</title>
<path fill="none" stroke="midnightblue" d="M756.881,-63.046C688.062,-58.7174 527.634,-46.6693 384.6,-20.0592"/>
<polygon fill="midnightblue" stroke="midnightblue" points="385.245,-16.6193 374.769,-18.2018 383.945,-23.4976 385.245,-16.6193"/>
</g>
<!-- Node8 -->
<g id="node8" class="node"><title>Node8</title>
<polygon fill="white" stroke="#bfbfbf" points="392.5,-0.5 392.5,-19.5 455.5,-19.5 455.5,-0.5 392.5,-0.5"/>
<text text-anchor="middle" x="424" y="-7.5" font-family="Helvetica,sans-Serif" font-size="10.00">windows.h</text>
</g>
<!-- Node3&#45;&gt;Node8 -->
<g id="edge7" class="edge"><title>Node3&#45;&gt;Node8</title>
<path fill="none" stroke="midnightblue" d="M756.956,-61.2764C699.093,-54.7396 577.681,-40.126 465.918,-20.2317"/>
<polygon fill="midnightblue" stroke="midnightblue" points="466.289,-16.7423 455.827,-18.4161 465.049,-23.6317 466.289,-16.7423"/>
</g>
<!-- Node9 -->
<g id="node9" class="node"><title>Node9</title>
<polygon fill="white" stroke="#bfbfbf" points="473.5,-0.5 473.5,-19.5 522.5,-19.5 522.5,-0.5 473.5,-0.5"/>
<text text-anchor="middle" x="498" y="-7.5" font-family="Helvetica,sans-Serif" font-size="10.00">stdint.h</text>
</g>
<!-- Node3&#45;&gt;Node9 -->
<g id="edge8" class="edge"><title>Node3&#45;&gt;Node9</title>
<path fill="none" stroke="midnightblue" d="M756.877,-60.0371C709.01,-52.8651 619.027,-38.6184 532.775,-20.0076"/>
<polygon fill="midnightblue" stroke="midnightblue" points="533.338,-16.5482 522.822,-17.8365 531.846,-23.3874 533.338,-16.5482"/>
</g>
<!-- Node10 -->
<g id="node10" class="node"><title>Node10</title>
<polygon fill="white" stroke="#bfbfbf" points="541,-0.5 541,-19.5 603,-19.5 603,-0.5 541,-0.5"/>
<text text-anchor="middle" x="572" y="-7.5" font-family="Helvetica,sans-Serif" font-size="10.00">type_traits</text>
</g>
<!-- Node3&#45;&gt;Node10 -->
<g id="edge9" class="edge"><title>Node3&#45;&gt;Node10</title>
<path fill="none" stroke="midnightblue" d="M756.781,-56.5625C717.883,-46.9712 654.421,-31.3229 612.933,-21.093"/>
<polygon fill="midnightblue" stroke="midnightblue" points="613.692,-17.6754 603.145,-18.6795 612.016,-24.4719 613.692,-17.6754"/>
</g>
<!-- Node11 -->
<g id="node11" class="node"><title>Node11</title>
<polygon fill="white" stroke="#bfbfbf" points="621,-0.5 621,-19.5 661,-19.5 661,-0.5 621,-0.5"/>
<text text-anchor="middle" x="641" y="-7.5" font-family="Helvetica,sans-Serif" font-size="10.00">utility</text>
</g>
<!-- Node3&#45;&gt;Node11 -->
<g id="edge10" class="edge"><title>Node3&#45;&gt;Node11</title>
<path fill="none" stroke="midnightblue" d="M767.232,-56.4435C741.187,-47.0673 699.352,-32.0068 671.05,-21.818"/>
<polygon fill="midnightblue" stroke="midnightblue" points="671.884,-18.3983 661.289,-18.3042 669.513,-24.9845 671.884,-18.3983"/>
</g>
<!-- Node12 -->
<g id="node12" class="node"><title>Node12</title>
<g id="a_node12"><a xlink:href="enums_8hpp.html" target="_top" xlink:title="alib/core/enums.hpp">
<polygon fill="white" stroke="black" points="679,-0.5 679,-19.5 783,-19.5 783,-0.5 679,-0.5"/>
<text text-anchor="middle" x="731" y="-7.5" font-family="Helvetica,sans-Serif" font-size="10.00">alib/core/enums.hpp</text>
</a>
</g>
</g>
<!-- Node3&#45;&gt;Node12 -->
<g id="edge11" class="edge"><title>Node3&#45;&gt;Node12</title>
<path fill="none" stroke="midnightblue" d="M776.245,-56.324C765.855,-48.4979 752.461,-36.7829 742.779,-27.2238"/>
<polygon fill="midnightblue" stroke="midnightblue" points="745.123,-24.612 735.667,-19.8339 740.079,-29.4661 745.123,-24.612"/>
</g>
<!-- Node13 -->
<g id="node13" class="node"><title>Node13</title>
<g id="a_node13"><a xlink:href="report_8hpp.html" target="_top" xlink:title="alib/core/report.hpp">
<polygon fill="white" stroke="black" points="801,-0.5 801,-19.5 901,-19.5 901,-0.5 801,-0.5"/>
<text text-anchor="middle" x="851" y="-7.5" font-family="Helvetica,sans-Serif" font-size="10.00">alib/core/report.hpp</text>
</a>
</g>
</g>
<!-- Node3&#45;&gt;Node13 -->
<g id="edge13" class="edge"><title>Node3&#45;&gt;Node13</title>
<path fill="none" stroke="midnightblue" d="M795.741,-56.083C803.103,-47.905 816.425,-35.6307 828.272,-25.9535"/>
<polygon fill="midnightblue" stroke="midnightblue" points="830.456,-28.6885 836.146,-19.7511 826.124,-23.1896 830.456,-28.6885"/>
</g>
<!-- Node14 -->
<g id="node14" class="node"><title>Node14</title>
<g id="a_node14"><a xlink:href="cstring_8hpp.html" target="_top" xlink:title="alib/strings/cstring.hpp">
<polygon fill="white" stroke="red" points="919.5,-0.5 919.5,-19.5 1034.5,-19.5 1034.5,-0.5 919.5,-0.5"/>
<text text-anchor="middle" x="977" y="-7.5" font-family="Helvetica,sans-Serif" font-size="10.00">alib/strings/cstring.hpp</text>
</a>
</g>
</g>
<!-- Node3&#45;&gt;Node14 -->
<g id="edge15" class="edge"><title>Node3&#45;&gt;Node14</title>
<path fill="none" stroke="midnightblue" d="M815.383,-56.4435C845.191,-47.2011 895.879,-32.4356 932.621,-22.2572"/>
<polygon fill="midnightblue" stroke="midnightblue" points="933.872,-25.5432 942.586,-19.5164 932.016,-18.7939 933.872,-25.5432"/>
</g>
<!-- Node15 -->
<g id="node15" class="node"><title>Node15</title>
<g id="a_node15"><a xlink:href="as_8hpp.html" target="_top" xlink:title="alib/strings/as.hpp">
<polygon fill="white" stroke="red" points="1053,-0.5 1053,-19.5 1149,-19.5 1149,-0.5 1053,-0.5"/>
<text text-anchor="middle" x="1101" y="-7.5" font-family="Helvetica,sans-Serif" font-size="10.00">alib/strings/as.hpp</text>
</a>
</g>
</g>
<!-- Node3&#45;&gt;Node15 -->
<g id="edge17" class="edge"><title>Node3&#45;&gt;Node15</title>
<path fill="none" stroke="midnightblue" d="M825.289,-58.2155C877.888,-48.603 978.802,-30.9915 1042.92,-20.2069"/>
<polygon fill="midnightblue" stroke="midnightblue" points="1043.6,-23.6422 1052.88,-18.5369 1042.44,-16.7386 1043.6,-23.6422"/>
</g>
<!-- Node16 -->
<g id="node16" class="node"><title>Node16</title>
<g id="a_node16"><a xlink:href="ns__aworx_8hpp.html" target="_top" xlink:title="alib/core/ns_aworx.hpp">
<polygon fill="white" stroke="black" points="1167.5,-0.5 1167.5,-19.5 1284.5,-19.5 1284.5,-0.5 1167.5,-0.5"/>
<text text-anchor="middle" x="1226" y="-7.5" font-family="Helvetica,sans-Serif" font-size="10.00">alib/core/ns_aworx.hpp</text>
</a>
</g>
</g>
<!-- Node3&#45;&gt;Node16 -->
<g id="edge19" class="edge"><title>Node3&#45;&gt;Node16</title>
<path fill="none" stroke="midnightblue" d="M825.169,-60.2633C888.985,-52.1943 1029.92,-35.18 1149,-20 1151.68,-19.6588 1154.41,-19.3075 1157.18,-18.9506"/>
<polygon fill="midnightblue" stroke="midnightblue" points="1157.84,-22.3945 1167.31,-17.6415 1156.94,-15.4522 1157.84,-22.3945"/>
</g>
<!-- Node17 -->
<g id="node17" class="node"><title>Node17</title>
<g id="a_node17"><a xlink:href="namespace_8hpp.html" target="_top" xlink:title="alib/strings/namespace.hpp">
<polygon fill="white" stroke="red" points="1303,-0.5 1303,-19.5 1439,-19.5 1439,-0.5 1303,-0.5"/>
<text text-anchor="middle" x="1371" y="-7.5" font-family="Helvetica,sans-Serif" font-size="10.00">alib/strings/namespace.hpp</text>
</a>
</g>
</g>
<!-- Node3&#45;&gt;Node17 -->
<g id="edge21" class="edge"><title>Node3&#45;&gt;Node17</title>
<path fill="none" stroke="midnightblue" d="M825.251,-61.8374C905.604,-54.9239 1111.65,-37.6654 1284,-20 1286.86,-19.7068 1289.78,-19.4008 1292.73,-19.0862"/>
<polygon fill="midnightblue" stroke="midnightblue" points="1293.3,-22.5449 1302.87,-17.9888 1292.55,-15.5855 1293.3,-22.5449"/>
</g>
<!-- Node12&#45;&gt;Node3 -->
<g id="edge12" class="edge"><title>Node12&#45;&gt;Node3</title>
<path fill="none" stroke="midnightblue" d="M745.854,-19.7511C756.209,-27.5608 769.515,-39.1997 779.162,-48.7175"/>
<polygon fill="midnightblue" stroke="midnightblue" points="776.8,-51.3104 786.259,-56.083 781.84,-46.4533 776.8,-51.3104"/>
</g>
<!-- Node13&#45;&gt;Node3 -->
<g id="edge14" class="edge"><title>Node13&#45;&gt;Node3</title>
<path fill="none" stroke="midnightblue" d="M846.333,-19.8339C838.974,-28.0269 825.565,-40.3824 813.662,-50.1008"/>
<polygon fill="midnightblue" stroke="midnightblue" points="811.448,-47.3889 805.755,-56.324 815.778,-52.8896 811.448,-47.3889"/>
</g>
<!-- Node14&#45;&gt;Node3 -->
<g id="edge16" class="edge"><title>Node14&#45;&gt;Node3</title>
<path fill="none" stroke="midnightblue" d="M952.617,-19.5565C922.731,-28.823 871.857,-43.6416 835.091,-53.8224"/>
<polygon fill="midnightblue" stroke="midnightblue" points="833.839,-50.5367 825.125,-56.5625 835.695,-57.2863 833.839,-50.5367"/>
</g>
<!-- Node15&#45;&gt;Node3 -->
<g id="edge18" class="edge"><title>Node15&#45;&gt;Node3</title>
<path fill="none" stroke="midnightblue" d="M1057.09,-19.5344C998.201,-30.2011 894.461,-48.2491 835.347,-58.0923"/>
<polygon fill="midnightblue" stroke="midnightblue" points="834.494,-54.6857 825.201,-59.7732 835.638,-61.5916 834.494,-54.6857"/>
</g>
<!-- Node16&#45;&gt;Node3 -->
<g id="edge20" class="edge"><title>Node16&#45;&gt;Node3</title>
<path fill="none" stroke="midnightblue" d="M1170.58,-19.5427C1169.37,-19.6968 1168.18,-19.8494 1167,-20 1047.53,-35.2302 906.052,-52.3069 835.452,-60.343"/>
<polygon fill="midnightblue" stroke="midnightblue" points="834.696,-56.9062 825.152,-61.5077 835.482,-63.8619 834.696,-56.9062"/>
</g>
<!-- Node17&#45;&gt;Node3 -->
<g id="edge22" class="edge"><title>Node17&#45;&gt;Node3</title>
<path fill="none" stroke="midnightblue" d="M1306.52,-19.5315C1305,-19.6907 1303.49,-19.8471 1302,-20 1129.72,-37.6577 923.783,-54.9088 835.039,-61.8283"/>
<polygon fill="midnightblue" stroke="midnightblue" points="834.758,-58.3395 825.058,-62.601 835.298,-65.3186 834.758,-58.3395"/>
</g>
<!-- Node21&#45;&gt;Node1 -->
<g id="edge32" class="edge"><title>Node21&#45;&gt;Node1</title>
<path fill="none" stroke="midnightblue" d="M1056,-187.591C1056,-205.308 1056,-246.254 1056,-270.348"/>
<polygon fill="midnightblue" stroke="midnightblue" points="1052.5,-270.368 1056,-280.368 1059.5,-270.369 1052.5,-270.368"/>
</g>
<!-- Node22 -->
<g id="node22" class="node"><title>Node22</title>
<g id="a_node22"><a xlink:href="threadlock_8hpp.html" target="_top" xlink:title="alib/threads/threadlock.hpp">
<polygon fill="white" stroke="red" points="894,-112.5 894,-131.5 1028,-131.5 1028,-112.5 894,-112.5"/>
<text text-anchor="middle" x="961" y="-119.5" font-family="Helvetica,sans-Serif" font-size="10.00">alib/threads/threadlock.hpp</text>
</a>
</g>
</g>
<!-- Node21&#45;&gt;Node22 -->
<g id="edge27" class="edge"><title>Node21&#45;&gt;Node22</title>
<path fill="none" stroke="midnightblue" d="M1040.74,-168.324C1025.78,-159.822 1002.75,-146.729 985.273,-136.797"/>
<polygon fill="midnightblue" stroke="midnightblue" points="986.649,-133.553 976.226,-131.655 983.19,-139.639 986.649,-133.553"/>
</g>
<!-- Node23 -->
<g id="node23" class="node"><title>Node23</title>
<g id="a_node23"><a xlink:href="callerinfo_8hpp.html" target="_top" xlink:title="alox/core/callerinfo.hpp">
<polygon fill="white" stroke="red" points="758.5,-112.5 758.5,-131.5 875.5,-131.5 875.5,-112.5 758.5,-112.5"/>
<text text-anchor="middle" x="817" y="-119.5" font-family="Helvetica,sans-Serif" font-size="10.00">alox/core/callerinfo.hpp</text>
</a>
</g>
</g>
<!-- Node21&#45;&gt;Node23 -->
<g id="edge29" class="edge"><title>Node21&#45;&gt;Node23</title>
<path fill="none" stroke="midnightblue" d="M1031.89,-170.271C1028.9,-169.482 1025.88,-168.708 1023,-168 970.778,-155.184 910.663,-142.26 868.906,-133.571"/>
<polygon fill="midnightblue" stroke="midnightblue" points="869.469,-130.113 858.966,-131.511 868.048,-136.968 869.469,-130.113"/>
</g>
<!-- Node24 -->
<g id="node24" class="node"><title>Node24</title>
<polygon fill="white" stroke="#bfbfbf" points="918.5,-56.5 918.5,-75.5 953.5,-75.5 953.5,-56.5 918.5,-56.5"/>
<text text-anchor="middle" x="936" y="-63.5" font-family="Helvetica,sans-Serif" font-size="10.00">map</text>
</g>
<!-- Node21&#45;&gt;Node24 -->
<g id="edge34" class="edge"><title>Node21&#45;&gt;Node24</title>
<path fill="none" stroke="midnightblue" d="M1055.71,-168.333C1054.82,-154.743 1051.23,-128.292 1037,-112 1017.94,-90.1857 986.263,-78.4533 963.46,-72.4965"/>
<polygon fill="midnightblue" stroke="midnightblue" points="964.226,-69.0809 953.685,-70.1505 962.592,-75.8876 964.226,-69.0809"/>
</g>
<!-- Node21&#45;&gt;Node25 -->
<g id="edge33" class="edge"><title>Node21&#45;&gt;Node25</title>
<path fill="none" stroke="midnightblue" d="M1064.42,-168.083C1071.85,-160.22 1082.85,-148.569 1091.81,-139.081"/>
<polygon fill="midnightblue" stroke="midnightblue" points="1094.41,-141.424 1098.74,-131.751 1089.32,-136.618 1094.41,-141.424"/>
</g>
<!-- Node22&#45;&gt;Node3 -->
<g id="edge28" class="edge"><title>Node22&#45;&gt;Node3</title>
<path fill="none" stroke="midnightblue" d="M934.063,-112.444C905.34,-103.32 859.671,-88.8133 827.679,-78.6509"/>
<polygon fill="midnightblue" stroke="midnightblue" points="828.401,-75.2081 817.811,-75.5164 826.282,-81.8797 828.401,-75.2081"/>
</g>
<!-- Node23&#45;&gt;Node2 -->
<g id="edge30" class="edge"><title>Node23&#45;&gt;Node2</title>
<path fill="none" stroke="midnightblue" d="M812.41,-131.621C806.135,-144.693 796.762,-169.917 807,-188 815.347,-202.742 830.662,-213.181 845.287,-220.268"/>
<polygon fill="midnightblue" stroke="midnightblue" points="844.158,-223.596 854.718,-224.453 846.997,-217.197 844.158,-223.596"/>
</g>
<!-- Node23&#45;&gt;Node24 -->
<g id="edge31" class="edge"><title>Node23&#45;&gt;Node24</title>
<path fill="none" stroke="midnightblue" d="M835.856,-112.444C855.609,-103.48 886.809,-89.3221 909.134,-79.1914"/>
<polygon fill="midnightblue" stroke="midnightblue" points="910.736,-82.3078 918.396,-74.9883 907.844,-75.9334 910.736,-82.3078"/>
</g>
</g>
</svg>
