<?xml version="1.0" encoding="UTF-8" standalone="no"?>
<!DOCTYPE svg PUBLIC "-//W3C//DTD SVG 1.1//EN"
 "http://www.w3.org/Graphics/SVG/1.1/DTD/svg11.dtd">
<!-- Generated by graphviz version 2.40.1 (20161225.0304)
 -->
<!-- Title: domain.hpp Pages: 1 -->
<svg width="3168pt" height="420pt"
 viewBox="0.00 0.00 3168.00 420.00" xmlns="http://www.w3.org/2000/svg" xmlns:xlink="http://www.w3.org/1999/xlink">
<g id="graph0" class="graph" transform="scale(1 1) rotate(0) translate(4 416)">
<title>domain.hpp</title>
<polygon fill="#ffffff" stroke="transparent" points="-4,4 -4,-416 3164,-416 3164,4 -4,4"/>
<!-- Node0 -->
<g id="node1" class="node">
<title>Node0</title>
<polygon fill="#bfbfbf" stroke="#000000" points="1562.5,-392.5 1562.5,-411.5 1629.5,-411.5 1629.5,-392.5 1562.5,-392.5"/>
<text text-anchor="middle" x="1596" y="-399.5" font-family="Helvetica,sans-Serif" font-size="10.00" fill="#000000">domain.hpp</text>
</g>
<!-- Node1 -->
<g id="node2" class="node">
<title>Node1</title>
<g id="a_node2"><a xlink:href="alox_8hpp.html" target="_top" xlink:title="alox/alox.hpp">
<polygon fill="#ffffff" stroke="#000000" points="1559,-336.5 1559,-355.5 1633,-355.5 1633,-336.5 1559,-336.5"/>
<text text-anchor="middle" x="1596" y="-343.5" font-family="Helvetica,sans-Serif" font-size="10.00" fill="#000000">alox/alox.hpp</text>
</a>
</g>
</g>
<!-- Node0&#45;&gt;Node1 -->
<g id="edge1" class="edge">
<title>Node0&#45;&gt;Node1</title>
<path fill="none" stroke="#191970" d="M1596,-392.2455C1596,-384.9382 1596,-374.6944 1596,-365.7046"/>
<polygon fill="#191970" stroke="#191970" points="1599.5001,-365.6426 1596,-355.6427 1592.5001,-365.6427 1599.5001,-365.6426"/>
</g>
<!-- Node13 -->
<g id="node3" class="node">
<title>Node13</title>
<polygon fill="#ffffff" stroke="#bfbfbf" points="536,-.5 536,-19.5 580,-19.5 580,-.5 536,-.5"/>
<text text-anchor="middle" x="558" y="-7.5" font-family="Helvetica,sans-Serif" font-size="10.00" fill="#000000">vector</text>
</g>
<!-- Node0&#45;&gt;Node13 -->
<g id="edge2" class="edge">
<title>Node0&#45;&gt;Node13</title>
<path fill="none" stroke="#191970" d="M1629.7545,-401.4047C1857.4469,-397.174 3160,-369.4977 3160,-290 3160,-290 3160,-290 3160,-122 3160,16.1143 2679.8773,-64.0875 2542,-56 2139.5111,-32.3912 814.7062,-13.5027 590.4018,-10.4361"/>
<polygon fill="#191970" stroke="#191970" points="590.3225,-6.9348 580.2758,-10.2983 590.2271,-13.9342 590.3225,-6.9348"/>
</g>
<!-- Node1&#45;&gt;Node13 -->
<g id="edge4" class="edge">
<title>Node1&#45;&gt;Node13</title>
<path fill="none" stroke="#191970" d="M1633.3426,-345.2705C1867.362,-340.4604 3122,-311.078 3122,-234 3122,-234 3122,-234 3122,-122 3122,-55.4312 886.3661,-15.5263 590.2476,-10.5327"/>
<polygon fill="#191970" stroke="#191970" points="590.2233,-7.0319 580.1659,-10.3636 590.1058,-14.0309 590.2233,-7.0319"/>
</g>
<!-- Node2 -->
<g id="node4" class="node">
<title>Node2</title>
<g id="a_node4"><a xlink:href="alib_8hpp.html" target="_top" xlink:title="alib/alib.hpp">
<polygon fill="#ffffff" stroke="#000000" points="1562,-280.5 1562,-299.5 1630,-299.5 1630,-280.5 1562,-280.5"/>
<text text-anchor="middle" x="1596" y="-287.5" font-family="Helvetica,sans-Serif" font-size="10.00" fill="#000000">alib/alib.hpp</text>
</a>
</g>
</g>
<!-- Node1&#45;&gt;Node2 -->
<g id="edge3" class="edge">
<title>Node1&#45;&gt;Node2</title>
<path fill="none" stroke="#191970" d="M1596,-336.2455C1596,-328.9382 1596,-318.6944 1596,-309.7046"/>
<polygon fill="#191970" stroke="#191970" points="1599.5001,-309.6426 1596,-299.6427 1592.5001,-309.6427 1599.5001,-309.6426"/>
</g>
<!-- Node39 -->
<g id="node5" class="node">
<title>Node39</title>
<g id="a_node5"><a xlink:href="alox__symbols_8hpp.html" target="_top" xlink:title="internals/alox_symbols.hpp">
<polygon fill="#ffffff" stroke="#000000" points="1648.5,-280.5 1648.5,-299.5 1783.5,-299.5 1783.5,-280.5 1648.5,-280.5"/>
<text text-anchor="middle" x="1716" y="-287.5" font-family="Helvetica,sans-Serif" font-size="10.00" fill="#000000">internals/alox_symbols.hpp</text>
</a>
</g>
</g>
<!-- Node1&#45;&gt;Node39 -->
<g id="edge5" class="edge">
<title>Node1&#45;&gt;Node39</title>
<path fill="none" stroke="#191970" d="M1616.6287,-336.3733C1635.8919,-327.3838 1664.8486,-313.8706 1686.5419,-303.7471"/>
<polygon fill="#191970" stroke="#191970" points="1688.0587,-306.9017 1695.6405,-299.5011 1685.0985,-300.5584 1688.0587,-306.9017"/>
</g>
<!-- Node40 -->
<g id="node6" class="node">
<title>Node40</title>
<g id="a_node6"><a xlink:href="alox__macros_8hpp.html" target="_top" xlink:title="internals/alox_macros.hpp">
<polygon fill="#ffffff" stroke="#000000" points="1801.5,-280.5 1801.5,-299.5 1932.5,-299.5 1932.5,-280.5 1801.5,-280.5"/>
<text text-anchor="middle" x="1867" y="-287.5" font-family="Helvetica,sans-Serif" font-size="10.00" fill="#000000">internals/alox_macros.hpp</text>
</a>
</g>
</g>
<!-- Node1&#45;&gt;Node40 -->
<g id="edge6" class="edge">
<title>Node1&#45;&gt;Node40</title>
<path fill="none" stroke="#191970" d="M1633.1132,-338.3309C1679.0072,-328.8472 1757.5725,-312.6123 1810.8565,-301.6016"/>
<polygon fill="#191970" stroke="#191970" points="1811.7434,-304.9924 1820.8282,-299.541 1810.3268,-298.1372 1811.7434,-304.9924"/>
</g>
<!-- Node41 -->
<g id="node7" class="node">
<title>Node41</title>
<g id="a_node7"><a xlink:href="configuration_8hpp.html" target="_top" xlink:title="alib/config/configuration.hpp">
<polygon fill="#ffffff" stroke="#000000" points="460,-224.5 460,-243.5 598,-243.5 598,-224.5 460,-224.5"/>
<text text-anchor="middle" x="529" y="-231.5" font-family="Helvetica,sans-Serif" font-size="10.00" fill="#000000">alib/config/configuration.hpp</text>
</a>
</g>
</g>
<!-- Node1&#45;&gt;Node41 -->
<g id="edge7" class="edge">
<title>Node1&#45;&gt;Node41</title>
<path fill="none" stroke="#191970" d="M1558.8312,-343.1095C1473.572,-336.3907 1257.3846,-318.8518 1077,-300 909.8845,-282.535 714.6084,-258.0317 608.1483,-244.3252"/>
<polygon fill="#191970" stroke="#191970" points="608.4925,-240.8407 598.127,-243.0331 607.5972,-247.7832 608.4925,-240.8407"/>
</g>
<!-- Node55 -->
<g id="node8" class="node">
<title>Node55</title>
<g id="a_node8"><a xlink:href="aloxtypesandenums_8hpp.html" target="_top" xlink:title="aloxtypesandenums.hpp">
<polygon fill="#ffffff" stroke="#000000" points="1951,-280.5 1951,-299.5 2073,-299.5 2073,-280.5 1951,-280.5"/>
<text text-anchor="middle" x="2012" y="-287.5" font-family="Helvetica,sans-Serif" font-size="10.00" fill="#000000">aloxtypesandenums.hpp</text>
</a>
</g>
</g>
<!-- Node1&#45;&gt;Node55 -->
<g id="edge8" class="edge">
<title>Node1&#45;&gt;Node55</title>
<path fill="none" stroke="#191970" d="M1633.1385,-341.1829C1694.7786,-333.1616 1822.3682,-316.4473 1940.9442,-300.1357"/>
<polygon fill="#191970" stroke="#191970" points="1941.4928,-303.5932 1950.9215,-298.7611 1940.5374,-296.6587 1941.4928,-303.5932"/>
</g>
<!-- Node56 -->
<g id="node9" class="node">
<title>Node56</title>
<g id="a_node9"><a xlink:href="log_8hpp.html" target="_top" xlink:title="log.hpp">
<polygon fill="#ffffff" stroke="#000000" points="2091,-280.5 2091,-299.5 2139,-299.5 2139,-280.5 2091,-280.5"/>
<text text-anchor="middle" x="2115" y="-287.5" font-family="Helvetica,sans-Serif" font-size="10.00" fill="#000000">log.hpp</text>
</a>
</g>
</g>
<!-- Node1&#45;&gt;Node56 -->
<g id="edge9" class="edge">
<title>Node1&#45;&gt;Node56</title>
<path fill="none" stroke="#191970" d="M1633.3,-344.8333C1714.2428,-341.8713 1911.0512,-331.869 2073,-300 2075.6083,-299.4867 2078.3047,-298.8506 2081.0271,-298.1498"/>
<polygon fill="#191970" stroke="#191970" points="2082.1783,-301.463 2090.8884,-295.4312 2080.3178,-294.7148 2082.1783,-301.463"/>
</g>
<!-- Node57 -->
<g id="node10" class="node">
<title>Node57</title>
<g id="a_node10"><a xlink:href="lox_8hpp.html" target="_top" xlink:title="lox.hpp">
<polygon fill="#ffffff" stroke="#000000" points="554,-280.5 554,-299.5 602,-299.5 602,-280.5 554,-280.5"/>
<text text-anchor="middle" x="578" y="-287.5" font-family="Helvetica,sans-Serif" font-size="10.00" fill="#000000">lox.hpp</text>
</a>
</g>
</g>
<!-- Node1&#45;&gt;Node57 -->
<g id="edge10" class="edge">
<title>Node1&#45;&gt;Node57</title>
<path fill="none" stroke="#191970" d="M1558.6735,-344.628C1434.8954,-339.7396 1027.7192,-322.2696 692,-300 665.2404,-298.2249 635.2419,-295.7949 612.6221,-293.7748"/>
<polygon fill="#191970" stroke="#191970" points="612.7489,-290.2719 602.4725,-292.85 612.1137,-297.243 612.7489,-290.2719"/>
</g>
<!-- Node3 -->
<g id="node11" class="node">
<title>Node3</title>
<polygon fill="#ffffff" stroke="#bfbfbf" points="2522,-224.5 2522,-243.5 2574,-243.5 2574,-224.5 2522,-224.5"/>
<text text-anchor="middle" x="2548" y="-231.5" font-family="Helvetica,sans-Serif" font-size="10.00" fill="#000000">assert.h</text>
</g>
<!-- Node2&#45;&gt;Node3 -->
<g id="edge11" class="edge">
<title>Node2&#45;&gt;Node3</title>
<path fill="none" stroke="#191970" d="M1630.4793,-281.5392C1633.6843,-280.9419 1636.8939,-280.4135 1640,-280 2021.6446,-229.1942 2127.8058,-304.4679 2511.7874,-243.8126"/>
<polygon fill="#191970" stroke="#191970" points="2512.4565,-247.2502 2521.7778,-242.2139 2511.3503,-240.3381 2512.4565,-247.2502"/>
</g>
<!-- Node4 -->
<g id="node12" class="node">
<title>Node4</title>
<polygon fill="#ffffff" stroke="#bfbfbf" points="2592,-224.5 2592,-243.5 2638,-243.5 2638,-224.5 2592,-224.5"/>
<text text-anchor="middle" x="2615" y="-231.5" font-family="Helvetica,sans-Serif" font-size="10.00" fill="#000000">cstdint</text>
</g>
<!-- Node2&#45;&gt;Node4 -->
<g id="edge12" class="edge">
<title>Node2&#45;&gt;Node4</title>
<path fill="none" stroke="#191970" d="M1630.4779,-281.5291C1633.6832,-280.9339 1636.8933,-280.4087 1640,-280 2052.4826,-225.7303 2167.8128,-313.7343 2581.6145,-243.7812"/>
<polygon fill="#191970" stroke="#191970" points="2582.4905,-247.1822 2591.7566,-242.0453 2581.3095,-240.2825 2582.4905,-247.1822"/>
</g>
<!-- Node5 -->
<g id="node13" class="node">
<title>Node5</title>
<g id="a_node13"><a xlink:href="prepro_8hpp.html" target="_top" xlink:title="alib/alib/prepro.hpp">
<polygon fill="#ffffff" stroke="#000000" points="2656,-224.5 2656,-243.5 2754,-243.5 2754,-224.5 2656,-224.5"/>
<text text-anchor="middle" x="2705" y="-231.5" font-family="Helvetica,sans-Serif" font-size="10.00" fill="#000000">alib/alib/prepro.hpp</text>
</a>
</g>
</g>
<!-- Node2&#45;&gt;Node5 -->
<g id="edge13" class="edge">
<title>Node2&#45;&gt;Node5</title>
<path fill="none" stroke="#191970" d="M1630.4769,-281.5211C1633.6824,-280.9275 1636.8928,-280.405 1640,-280 2080.7244,-222.5577 2199.7462,-289.1282 2645.4476,-244.0173"/>
<polygon fill="#191970" stroke="#191970" points="2646.1111,-247.4677 2655.7018,-242.9657 2645.3968,-240.5043 2646.1111,-247.4677"/>
</g>
<!-- Node6 -->
<g id="node14" class="node">
<title>Node6</title>
<g id="a_node14"><a xlink:href="distribution_8hpp_source.html" target="_top" xlink:title="alib/distribution.hpp">
<polygon fill="#ffffff" stroke="#000000" points="2772.5,-224.5 2772.5,-243.5 2873.5,-243.5 2873.5,-224.5 2772.5,-224.5"/>
<text text-anchor="middle" x="2823" y="-231.5" font-family="Helvetica,sans-Serif" font-size="10.00" fill="#000000">alib/distribution.hpp</text>
</a>
</g>
</g>
<!-- Node2&#45;&gt;Node6 -->
<g id="edge14" class="edge">
<title>Node2&#45;&gt;Node6</title>
<path fill="none" stroke="#191970" d="M1630.4753,-281.5088C1633.6811,-280.9179 1636.8921,-280.3992 1640,-280 2132.0326,-216.793 2264.3181,-292.1504 2762.3613,-243.9097"/>
<polygon fill="#191970" stroke="#191970" points="2762.7134,-247.3921 2772.3242,-242.933 2762.0304,-240.4255 2762.7134,-247.3921"/>
</g>
<!-- Node7 -->
<g id="node15" class="node">
<title>Node7</title>
<g id="a_node15"><a xlink:href="debug_8hpp.html" target="_top" xlink:title="alib/alib/debug.hpp">
<polygon fill="#ffffff" stroke="#000000" points="2892,-224.5 2892,-243.5 2990,-243.5 2990,-224.5 2892,-224.5"/>
<text text-anchor="middle" x="2941" y="-231.5" font-family="Helvetica,sans-Serif" font-size="10.00" fill="#000000">alib/alib/debug.hpp</text>
</a>
</g>
</g>
<!-- Node2&#45;&gt;Node7 -->
<g id="edge15" class="edge">
<title>Node2&#45;&gt;Node7</title>
<path fill="none" stroke="#191970" d="M1630.474,-281.4986C1633.6801,-280.9098 1636.8914,-280.3944 1640,-280 2184.9333,-210.8535 2331.2939,-298.0137 2881.5214,-243.9998"/>
<polygon fill="#191970" stroke="#191970" points="2882.0989,-247.4597 2891.7041,-242.9886 2881.4072,-240.494 2882.0989,-247.4597"/>
</g>
<!-- Node8 -->
<g id="node16" class="node">
<title>Node8</title>
<g id="a_node16"><a xlink:href="rtti_8hpp.html" target="_top" xlink:title="alib/lang/rtti.hpp">
<polygon fill="#ffffff" stroke="#ff0000" points="3008,-224.5 3008,-243.5 3094,-243.5 3094,-224.5 3008,-224.5"/>
<text text-anchor="middle" x="3051" y="-231.5" font-family="Helvetica,sans-Serif" font-size="10.00" fill="#000000">alib/lang/rtti.hpp</text>
</a>
</g>
</g>
<!-- Node2&#45;&gt;Node8 -->
<g id="edge16" class="edge">
<title>Node2&#45;&gt;Node8</title>
<path fill="none" stroke="#191970" d="M1630.4729,-281.4904C1633.6793,-280.9033 1636.891,-280.3906 1640,-280 2236.1328,-205.1048 2396.5263,-308.101 2997.7247,-243.9433"/>
<polygon fill="#191970" stroke="#191970" points="2998.3848,-247.3925 3007.9518,-242.8404 2997.6342,-240.4329 2998.3848,-247.3925"/>
</g>
<!-- Node12 -->
<g id="node17" class="node">
<title>Node12</title>
<g id="a_node17"><a xlink:href="singleton_8hpp.html" target="_top" xlink:title="alib/lang/singleton.hpp">
<polygon fill="#ffffff" stroke="#000000" points="757.5,-112.5 757.5,-131.5 870.5,-131.5 870.5,-112.5 757.5,-112.5"/>
<text text-anchor="middle" x="814" y="-119.5" font-family="Helvetica,sans-Serif" font-size="10.00" fill="#000000">alib/lang/singleton.hpp</text>
</a>
</g>
</g>
<!-- Node2&#45;&gt;Node12 -->
<g id="edge17" class="edge">
<title>Node2&#45;&gt;Node12</title>
<path fill="none" stroke="#191970" d="M1561.815,-289.175C1416.2101,-285.5065 853.9364,-269.7144 827,-244 799.5109,-217.758 804.0241,-168.8351 809.2842,-141.5926"/>
<polygon fill="#191970" stroke="#191970" points="812.7345,-142.1959 811.4192,-131.683 805.8915,-140.7215 812.7345,-142.1959"/>
</g>
<!-- Node14 -->
<g id="node18" class="node">
<title>Node14</title>
<g id="a_node18"><a xlink:href="types_8hpp.html" target="_top" xlink:title="alib/lang/types.hpp">
<polygon fill="#ffffff" stroke="#000000" points="836,-224.5 836,-243.5 934,-243.5 934,-224.5 836,-224.5"/>
<text text-anchor="middle" x="885" y="-231.5" font-family="Helvetica,sans-Serif" font-size="10.00" fill="#000000">alib/lang/types.hpp</text>
</a>
</g>
</g>
<!-- Node2&#45;&gt;Node14 -->
<g id="edge18" class="edge">
<title>Node2&#45;&gt;Node14</title>
<path fill="none" stroke="#191970" d="M1561.895,-288.8058C1466.1482,-285.1968 1186.5886,-272.9027 944.3621,-244.0577"/>
<polygon fill="#191970" stroke="#191970" points="944.6579,-240.5681 934.3114,-242.8487 943.8218,-247.518 944.6579,-240.5681"/>
</g>
<!-- Node15 -->
<g id="node19" class="node">
<title>Node15</title>
<g id="a_node19"><a xlink:href="boxing_8hpp.html" target="_top" xlink:title="alib/boxing/boxing.hpp">
<polygon fill="#ffffff" stroke="#ff0000" points="952.5,-224.5 952.5,-243.5 1065.5,-243.5 1065.5,-224.5 952.5,-224.5"/>
<text text-anchor="middle" x="1009" y="-231.5" font-family="Helvetica,sans-Serif" font-size="10.00" fill="#000000">alib/boxing/boxing.hpp</text>
</a>
</g>
</g>
<!-- Node2&#45;&gt;Node15 -->
<g id="edge19" class="edge">
<title>Node2&#45;&gt;Node15</title>
<path fill="none" stroke="#191970" d="M1561.7873,-287.7205C1479.8532,-282.1029 1265.7271,-266.4855 1076.0104,-244.0543"/>
<polygon fill="#191970" stroke="#191970" points="1076.195,-240.5516 1065.8511,-242.8437 1075.3667,-247.5024 1076.195,-240.5516"/>
</g>
<!-- Node23 -->
<g id="node20" class="node">
<title>Node23</title>
<g id="a_node20"><a xlink:href="enums_8hpp.html" target="_top" xlink:title="alib/lang/enums.hpp">
<polygon fill="#ffffff" stroke="#000000" points="1084,-224.5 1084,-243.5 1188,-243.5 1188,-224.5 1084,-224.5"/>
<text text-anchor="middle" x="1136" y="-231.5" font-family="Helvetica,sans-Serif" font-size="10.00" fill="#000000">alib/lang/enums.hpp</text>
</a>
</g>
</g>
<!-- Node2&#45;&gt;Node23 -->
<g id="edge20" class="edge">
<title>Node2&#45;&gt;Node23</title>
<path fill="none" stroke="#191970" d="M1561.7716,-286.6099C1494.3031,-279.8079 1339.1654,-263.5749 1198.3324,-244.1338"/>
<polygon fill="#191970" stroke="#191970" points="1198.6051,-240.6381 1188.2185,-242.7285 1197.6417,-247.5715 1198.6051,-240.6381"/>
</g>
<!-- Node24 -->
<g id="node21" class="node">
<title>Node24</title>
<g id="a_node21"><a xlink:href="cstring_8hpp.html" target="_top" xlink:title="alib/strings/cstring.hpp">
<polygon fill="#ffffff" stroke="#ff0000" points="1206.5,-224.5 1206.5,-243.5 1321.5,-243.5 1321.5,-224.5 1206.5,-224.5"/>
<text text-anchor="middle" x="1264" y="-231.5" font-family="Helvetica,sans-Serif" font-size="10.00" fill="#000000">alib/strings/cstring.hpp</text>
</a>
</g>
</g>
<!-- Node2&#45;&gt;Node24 -->
<g id="edge21" class="edge">
<title>Node2&#45;&gt;Node24</title>
<path fill="none" stroke="#191970" d="M1561.7206,-284.2179C1507.3211,-275.0421 1400.2489,-256.9817 1330.4368,-245.2062"/>
<polygon fill="#191970" stroke="#191970" points="1330.8606,-241.7283 1320.4177,-243.5162 1329.6962,-248.6308 1330.8606,-241.7283"/>
</g>
<!-- Node27 -->
<g id="node22" class="node">
<title>Node27</title>
<g id="a_node22"><a xlink:href="string_8hpp.html" target="_top" xlink:title="alib/strings/string.hpp">
<polygon fill="#ffffff" stroke="#ff0000" points="1340,-224.5 1340,-243.5 1450,-243.5 1450,-224.5 1340,-224.5"/>
<text text-anchor="middle" x="1395" y="-231.5" font-family="Helvetica,sans-Serif" font-size="10.00" fill="#000000">alib/strings/string.hpp</text>
</a>
</g>
</g>
<!-- Node2&#45;&gt;Node27 -->
<g id="edge22" class="edge">
<title>Node2&#45;&gt;Node27</title>
<path fill="none" stroke="#191970" d="M1561.9031,-280.5004C1528.118,-271.0876 1476.2113,-256.626 1439.2617,-246.3316"/>
<polygon fill="#191970" stroke="#191970" points="1439.8367,-242.8586 1429.2642,-243.5462 1437.9579,-249.6018 1439.8367,-242.8586"/>
</g>
<!-- Node30 -->
<g id="node23" class="node">
<title>Node30</title>
<g id="a_node23"><a xlink:href="tstring_8hpp.html" target="_top" xlink:title="alib/strings/tstring.hpp">
<polygon fill="#ffffff" stroke="#000000" points="1468.5,-224.5 1468.5,-243.5 1581.5,-243.5 1581.5,-224.5 1468.5,-224.5"/>
<text text-anchor="middle" x="1525" y="-231.5" font-family="Helvetica,sans-Serif" font-size="10.00" fill="#000000">alib/strings/tstring.hpp</text>
</a>
</g>
</g>
<!-- Node2&#45;&gt;Node30 -->
<g id="edge23" class="edge">
<title>Node2&#45;&gt;Node30</title>
<path fill="none" stroke="#191970" d="M1583.6327,-280.2455C1573.0446,-271.8943 1557.5936,-259.7076 1545.2107,-249.9408"/>
<polygon fill="#191970" stroke="#191970" points="1547.2447,-247.0875 1537.2255,-243.6427 1542.9097,-252.5837 1547.2447,-247.0875"/>
</g>
<!-- Node31 -->
<g id="node24" class="node">
<title>Node31</title>
<g id="a_node24"><a xlink:href="stringliteral_8hpp.html" target="_top" xlink:title="alib/strings/stringliteral.hpp">
<polygon fill="#ffffff" stroke="#ff0000" points="1599.5,-224.5 1599.5,-243.5 1732.5,-243.5 1732.5,-224.5 1599.5,-224.5"/>
<text text-anchor="middle" x="1666" y="-231.5" font-family="Helvetica,sans-Serif" font-size="10.00" fill="#000000">alib/strings/stringliteral.hpp</text>
</a>
</g>
</g>
<!-- Node2&#45;&gt;Node31 -->
<g id="edge24" class="edge">
<title>Node2&#45;&gt;Node31</title>
<path fill="none" stroke="#191970" d="M1608.1931,-280.2455C1618.6321,-271.8943 1633.8655,-259.7076 1646.074,-249.9408"/>
<polygon fill="#191970" stroke="#191970" points="1648.3244,-252.6227 1653.9467,-243.6427 1643.9515,-247.1566 1648.3244,-252.6227"/>
</g>
<!-- Node32 -->
<g id="node25" class="node">
<title>Node32</title>
<g id="a_node25"><a xlink:href="astring_8hpp.html" target="_top" xlink:title="alib/strings/astring.hpp">
<polygon fill="#ffffff" stroke="#ff0000" points="1750.5,-224.5 1750.5,-243.5 1865.5,-243.5 1865.5,-224.5 1750.5,-224.5"/>
<text text-anchor="middle" x="1808" y="-231.5" font-family="Helvetica,sans-Serif" font-size="10.00" fill="#000000">alib/strings/astring.hpp</text>
</a>
</g>
</g>
<!-- Node2&#45;&gt;Node32 -->
<g id="edge25" class="edge">
<title>Node2&#45;&gt;Node32</title>
<path fill="none" stroke="#191970" d="M1630.0615,-281.0026C1665.8848,-271.5399 1722.4637,-256.5945 1762.1826,-246.1027"/>
<polygon fill="#191970" stroke="#191970" points="1763.12,-249.4752 1771.8945,-243.5373 1761.3322,-242.7074 1763.12,-249.4752"/>
</g>
<!-- Node34 -->
<g id="node26" class="node">
<title>Node34</title>
<g id="a_node26"><a xlink:href="preallocatedstring_8hpp.html" target="_top" xlink:title="alib/strings/preallocatedstring.hpp">
<polygon fill="#ffffff" stroke="#000000" points="1884,-224.5 1884,-243.5 2046,-243.5 2046,-224.5 1884,-224.5"/>
<text text-anchor="middle" x="1965" y="-231.5" font-family="Helvetica,sans-Serif" font-size="10.00" fill="#000000">alib/strings/preallocatedstring.hpp</text>
</a>
</g>
</g>
<!-- Node2&#45;&gt;Node34 -->
<g id="edge26" class="edge">
<title>Node2&#45;&gt;Node34</title>
<path fill="none" stroke="#191970" d="M1630.0522,-281.9679C1633.4058,-281.265 1636.7642,-280.5956 1640,-280 1718.7336,-265.5068 1808.9266,-253.0677 1874.2917,-244.7928"/>
<polygon fill="#191970" stroke="#191970" points="1875.0786,-248.2215 1884.5636,-243.5008 1874.205,-241.2762 1875.0786,-248.2215"/>
</g>
<!-- Node35 -->
<g id="node27" class="node">
<title>Node35</title>
<g id="a_node27"><a xlink:href="stringboxing_8hpp.html" target="_top" xlink:title="alib/strings/boxing/stringboxing.hpp">
<polygon fill="#ffffff" stroke="#000000" points="2064,-224.5 2064,-243.5 2234,-243.5 2234,-224.5 2064,-224.5"/>
<text text-anchor="middle" x="2149" y="-231.5" font-family="Helvetica,sans-Serif" font-size="10.00" fill="#000000">alib/strings/boxing/stringboxing.hpp</text>
</a>
</g>
</g>
<!-- Node2&#45;&gt;Node35 -->
<g id="edge27" class="edge">
<title>Node2&#45;&gt;Node35</title>
<path fill="none" stroke="#191970" d="M1630.0209,-281.784C1633.3809,-281.1184 1636.7493,-280.5079 1640,-280 1819.7022,-251.9203 1868.9976,-261.4406 2053.8964,-244.0805"/>
<polygon fill="#191970" stroke="#191970" points="2054.3302,-247.5551 2063.9531,-243.1225 2053.6663,-240.5867 2054.3302,-247.5551"/>
</g>
<!-- Node36 -->
<g id="node28" class="node">
<title>Node36</title>
<g id="a_node28"><a xlink:href="report_8hpp.html" target="_top" xlink:title="alib/lang/report.hpp">
<polygon fill="#ffffff" stroke="#ff0000" points="2252.5,-224.5 2252.5,-243.5 2351.5,-243.5 2351.5,-224.5 2252.5,-224.5"/>
<text text-anchor="middle" x="2302" y="-231.5" font-family="Helvetica,sans-Serif" font-size="10.00" fill="#000000">alib/lang/report.hpp</text>
</a>
</g>
</g>
<!-- Node2&#45;&gt;Node36 -->
<g id="edge28" class="edge">
<title>Node2&#45;&gt;Node36</title>
<path fill="none" stroke="#191970" d="M1630.0072,-281.6923C1633.37,-281.0452 1636.7428,-280.4642 1640,-280 1902.5473,-242.5852 1974.5088,-273.6976 2242.4566,-243.9249"/>
<polygon fill="#191970" stroke="#191970" points="2242.9368,-247.393 2252.4809,-242.793 2242.1513,-240.4372 2242.9368,-247.393"/>
</g>
<!-- Node38 -->
<g id="node29" class="node">
<title>Node38</title>
<g id="a_node29"><a xlink:href="applicables_8hpp.html" target="_top" xlink:title="alib/strings/applicables.hpp">
<polygon fill="#ffffff" stroke="#ff0000" points="2370,-224.5 2370,-243.5 2504,-243.5 2504,-224.5 2370,-224.5"/>
<text text-anchor="middle" x="2437" y="-231.5" font-family="Helvetica,sans-Serif" font-size="10.00" fill="#000000">alib/strings/applicables.hpp</text>
</a>
</g>
</g>
<!-- Node2&#45;&gt;Node38 -->
<g id="edge29" class="edge">
<title>Node2&#45;&gt;Node38</title>
<path fill="none" stroke="#191970" d="M1630.0026,-281.659C1633.3663,-281.0187 1636.7405,-280.4483 1640,-280 1954.5921,-236.7309 2039.7259,-272.2079 2359.8697,-244.0255"/>
<polygon fill="#191970" stroke="#191970" points="2360.2476,-247.5058 2369.896,-243.1289 2359.624,-240.5336 2360.2476,-247.5058"/>
</g>
<!-- Node41&#45;&gt;Node13 -->
<g id="edge31" class="edge">
<title>Node41&#45;&gt;Node13</title>
<path fill="none" stroke="#191970" d="M538.1083,-224.2537C551.7158,-210.1746 578.6879,-184.0762 606,-168 645.6291,-144.674 676.7434,-169.7513 703,-132 738.5596,-80.873 642.2454,-38.6496 589.6426,-20.118"/>
<polygon fill="#191970" stroke="#191970" points="590.6583,-16.7663 580.0637,-16.8341 588.3882,-23.388 590.6583,-16.7663"/>
</g>
<!-- Node42 -->
<g id="node30" class="node">
<title>Node42</title>
<g id="a_node30"><a xlink:href="threadlock_8hpp.html" target="_top" xlink:title="alib/threads/threadlock.hpp">
<polygon fill="#ffffff" stroke="#ff0000" points="103,-168.5 103,-187.5 237,-187.5 237,-168.5 103,-168.5"/>
<text text-anchor="middle" x="170" y="-175.5" font-family="Helvetica,sans-Serif" font-size="10.00" fill="#000000">alib/threads/threadlock.hpp</text>
</a>
</g>
</g>
<!-- Node41&#45;&gt;Node42 -->
<g id="edge32" class="edge">
<title>Node41&#45;&gt;Node42</title>
<path fill="none" stroke="#191970" d="M467.6936,-224.4369C404.8337,-214.6314 307.1617,-199.3957 240.9868,-189.0731"/>
<polygon fill="#191970" stroke="#191970" points="241.4735,-185.6068 231.0535,-187.5237 240.3946,-192.5232 241.4735,-185.6068"/>
</g>
<!-- Node50 -->
<g id="node31" class="node">
<title>Node50</title>
<g id="a_node31"><a xlink:href="substring_8hpp.html" target="_top" xlink:title="alib/strings/substring.hpp">
<polygon fill="#ffffff" stroke="#000000" points="471.5,-56.5 471.5,-75.5 596.5,-75.5 596.5,-56.5 471.5,-56.5"/>
<text text-anchor="middle" x="534" y="-63.5" font-family="Helvetica,sans-Serif" font-size="10.00" fill="#000000">alib/strings/substring.hpp</text>
</a>
</g>
</g>
<!-- Node41&#45;&gt;Node50 -->
<g id="edge33" class="edge">
<title>Node41&#45;&gt;Node50</title>
<path fill="none" stroke="#191970" d="M529.2831,-224.4862C530.0735,-197.9293 532.3165,-122.5651 533.3998,-86.1655"/>
<polygon fill="#191970" stroke="#191970" points="536.9084,-85.9276 533.7075,-75.8279 529.9115,-85.7193 536.9084,-85.9276"/>
</g>
<!-- Node51 -->
<g id="node32" class="node">
<title>Node51</title>
<g id="a_node32"><a xlink:href="numberformat_8hpp.html" target="_top" xlink:title="alib/strings/numberformat.hpp">
<polygon fill="#ffffff" stroke="#000000" points="615,-168.5 615,-187.5 761,-187.5 761,-168.5 615,-168.5"/>
<text text-anchor="middle" x="688" y="-175.5" font-family="Helvetica,sans-Serif" font-size="10.00" fill="#000000">alib/strings/numberformat.hpp</text>
</a>
</g>
</g>
<!-- Node41&#45;&gt;Node51 -->
<g id="edge34" class="edge">
<title>Node41&#45;&gt;Node51</title>
<path fill="none" stroke="#191970" d="M556.3331,-224.3733C582.5434,-215.1419 622.2984,-201.1402 651.2668,-190.9375"/>
<polygon fill="#191970" stroke="#191970" points="652.7542,-194.1244 661.0236,-187.5011 650.4288,-187.5219 652.7542,-194.1244"/>
</g>
<!-- Node52 -->
<g id="node33" class="node">
<title>Node52</title>
<g id="a_node33"><a xlink:href="variable_8hpp.html" target="_top" xlink:title="alib/config/variable.hpp">
<polygon fill="#ffffff" stroke="#000000" points="337,-56.5 337,-75.5 453,-75.5 453,-56.5 337,-56.5"/>
<text text-anchor="middle" x="395" y="-63.5" font-family="Helvetica,sans-Serif" font-size="10.00" fill="#000000">alib/config/variable.hpp</text>
</a>
</g>
</g>
<!-- Node41&#45;&gt;Node52 -->
<g id="edge35" class="edge">
<title>Node41&#45;&gt;Node52</title>
<path fill="none" stroke="#191970" d="M468.4691,-224.4726C410.7547,-214.7726 331.2718,-199.5584 322,-188 293.9064,-152.9781 342.5915,-106.1313 373.13,-81.9451"/>
<polygon fill="#191970" stroke="#191970" points="375.3892,-84.6231 381.1834,-75.753 371.1224,-79.0738 375.3892,-84.6231"/>
</g>
<!-- Node53 -->
<g id="node34" class="node">
<title>Node53</title>
<g id="a_node34"><a xlink:href="plugins_8hpp.html" target="_top" xlink:title="alib/config/plugins.hpp">
<polygon fill="#ffffff" stroke="#000000" points="380.5,-112.5 380.5,-131.5 493.5,-131.5 493.5,-112.5 380.5,-112.5"/>
<text text-anchor="middle" x="437" y="-119.5" font-family="Helvetica,sans-Serif" font-size="10.00" fill="#000000">alib/config/plugins.hpp</text>
</a>
</g>
</g>
<!-- Node41&#45;&gt;Node53 -->
<g id="edge36" class="edge">
<title>Node41&#45;&gt;Node53</title>
<path fill="none" stroke="#191970" d="M524.758,-224.3917C518.5425,-210.9343 506.05,-186.0939 491,-168 481.771,-156.9044 469.6759,-146.328 459.2725,-138.1204"/>
<polygon fill="#191970" stroke="#191970" points="461.1026,-135.1141 451.0316,-131.8238 456.8527,-140.6763 461.1026,-135.1141"/>
</g>
<!-- Node54 -->
<g id="node35" class="node">
<title>Node54</title>
<g id="a_node35"><a xlink:href="inmemoryplugin_8hpp.html" target="_top" xlink:title="alib/config/inmemoryplugin.hpp">
<polygon fill="#ffffff" stroke="#000000" points="331.5,-168.5 331.5,-187.5 482.5,-187.5 482.5,-168.5 331.5,-168.5"/>
<text text-anchor="middle" x="407" y="-175.5" font-family="Helvetica,sans-Serif" font-size="10.00" fill="#000000">alib/config/inmemoryplugin.hpp</text>
</a>
</g>
</g>
<!-- Node41&#45;&gt;Node54 -->
<g id="edge37" class="edge">
<title>Node41&#45;&gt;Node54</title>
<path fill="none" stroke="#191970" d="M508.0275,-224.3733C488.4433,-215.3838 459.0039,-201.8706 436.949,-191.7471"/>
<polygon fill="#191970" stroke="#191970" points="438.2473,-188.4919 427.6989,-187.5011 435.3271,-194.8538 438.2473,-188.4919"/>
</g>
<!-- Node56&#45;&gt;Node1 -->
<g id="edge43" class="edge">
<title>Node56&#45;&gt;Node1</title>
<path fill="none" stroke="#191970" d="M2093.1308,-299.5581C2092.4161,-299.7136 2091.7049,-299.8613 2091,-300 1929.0199,-331.8752 1732.1668,-341.8752 1643.3238,-344.835"/>
<polygon fill="#191970" stroke="#191970" points="1643.1713,-341.338 1633.2877,-345.1544 1643.394,-348.3344 1643.1713,-341.338"/>
</g>
<!-- Node57&#45;&gt;Node0 -->
<g id="edge44" class="edge">
<title>Node57&#45;&gt;Node0</title>
<path fill="none" stroke="#191970" d="M602.3884,-292.6832C735.8569,-307.3674 1378.1452,-378.0317 1552.3381,-397.1963"/>
<polygon fill="#191970" stroke="#191970" points="1552.0965,-400.6908 1562.4193,-398.3055 1552.862,-393.7328 1552.0965,-400.6908"/>
</g>
<!-- Node57&#45;&gt;Node1 -->
<g id="edge45" class="edge">
<title>Node57&#45;&gt;Node1</title>
<path fill="none" stroke="#191970" d="M602.0384,-291.6245C628.848,-293.7566 672.5891,-297.5184 710,-300 1030.4432,-321.2563 1415.9885,-338.1399 1548.615,-343.8833"/>
<polygon fill="#191970" stroke="#191970" points="1548.6853,-347.3895 1558.8273,-344.3253 1548.988,-340.3961 1548.6853,-347.3895"/>
</g>
<!-- Node57&#45;&gt;Node41 -->
<g id="edge46" class="edge">
<title>Node57&#45;&gt;Node41</title>
<path fill="none" stroke="#191970" d="M569.4649,-280.2455C562.5088,-272.2958 552.5117,-260.8706 544.1949,-251.3656"/>
<polygon fill="#191970" stroke="#191970" points="546.6564,-248.8637 537.4373,-243.6427 541.3884,-253.4732 546.6564,-248.8637"/>
</g>
<!-- Node47 -->
<g id="node36" class="node">
<title>Node47</title>
<polygon fill="#ffffff" stroke="#bfbfbf" points="11.5,-168.5 11.5,-187.5 46.5,-187.5 46.5,-168.5 11.5,-168.5"/>
<text text-anchor="middle" x="29" y="-175.5" font-family="Helvetica,sans-Serif" font-size="10.00" fill="#000000">map</text>
</g>
<!-- Node57&#45;&gt;Node47 -->
<g id="edge47" class="edge">
<title>Node57&#45;&gt;Node47</title>
<path fill="none" stroke="#191970" d="M553.8363,-288.478C477.1903,-283.4656 240.2688,-266.5017 167,-244 148.7557,-238.397 146.1199,-232.4354 129,-224 104.5459,-211.9509 76.2931,-199.0462 56.0689,-189.9811"/>
<polygon fill="#191970" stroke="#191970" points="57.3956,-186.7405 46.8375,-185.86 54.5421,-193.1325 57.3956,-186.7405"/>
</g>
<!-- Node58 -->
<g id="node37" class="node">
<title>Node58</title>
<g id="a_node37"><a xlink:href="smartlock_8hpp.html" target="_top" xlink:title="alib/threads/smartlock.hpp">
<polygon fill="#ffffff" stroke="#000000" points="176.5,-224.5 176.5,-243.5 307.5,-243.5 307.5,-224.5 176.5,-224.5"/>
<text text-anchor="middle" x="242" y="-231.5" font-family="Helvetica,sans-Serif" font-size="10.00" fill="#000000">alib/threads/smartlock.hpp</text>
</a>
</g>
</g>
<!-- Node57&#45;&gt;Node58 -->
<g id="edge48" class="edge">
<title>Node57&#45;&gt;Node58</title>
<path fill="none" stroke="#191970" d="M553.8357,-285.9726C503.2174,-277.5362 384.5004,-257.7501 309.0208,-245.1701"/>
<polygon fill="#191970" stroke="#191970" points="309.565,-241.7126 299.1257,-243.5209 308.4142,-248.6174 309.565,-241.7126"/>
</g>
<!-- Node59 -->
<g id="node38" class="node">
<title>Node59</title>
<g id="a_node38"><a xlink:href="tokenizer_8hpp.html" target="_top" xlink:title="alib/strings/util/tokenizer.hpp">
<polygon fill="#ffffff" stroke="#ff0000" points="554,-112.5 554,-131.5 694,-131.5 694,-112.5 554,-112.5"/>
<text text-anchor="middle" x="624" y="-119.5" font-family="Helvetica,sans-Serif" font-size="10.00" fill="#000000">alib/strings/util/tokenizer.hpp</text>
</a>
</g>
</g>
<!-- Node57&#45;&gt;Node59 -->
<g id="edge49" class="edge">
<title>Node57&#45;&gt;Node59</title>
<path fill="none" stroke="#191970" d="M585.1281,-280.4042C596.3057,-266.0308 619.3476,-239.0008 645,-224 694.907,-194.8159 735.2336,-234.1922 770,-188 792.9088,-157.5623 749.5233,-140.8025 704.2176,-131.797"/>
<polygon fill="#191970" stroke="#191970" points="704.711,-128.3288 694.2391,-129.9375 703.4286,-135.2103 704.711,-128.3288"/>
</g>
<!-- Node60 -->
<g id="node39" class="node">
<title>Node60</title>
<g id="a_node39"><a xlink:href="scopeinfo_8hpp.html" target="_top" xlink:title="alox/core/scopeinfo.hpp">
<polygon fill="#ffffff" stroke="#ff0000" points="0,-224.5 0,-243.5 120,-243.5 120,-224.5 0,-224.5"/>
<text text-anchor="middle" x="60" y="-231.5" font-family="Helvetica,sans-Serif" font-size="10.00" fill="#000000">alox/core/scopeinfo.hpp</text>
</a>
</g>
</g>
<!-- Node57&#45;&gt;Node60 -->
<g id="edge50" class="edge">
<title>Node57&#45;&gt;Node60</title>
<path fill="none" stroke="#191970" d="M553.9063,-287.7694C487.1303,-281.5301 294.0558,-263.1011 134,-244 132.7328,-243.8488 131.4537,-243.6944 130.1654,-243.5373"/>
<polygon fill="#191970" stroke="#191970" points="130.512,-240.0535 120.1555,-242.2882 129.6451,-246.9996 130.512,-240.0535"/>
</g>
<!-- Node64 -->
<g id="node40" class="node">
<title>Node64</title>
<g id="a_node40"><a xlink:href="logger_8hpp.html" target="_top" xlink:title="alox/core/logger.hpp">
<polygon fill="#ffffff" stroke="#000000" points="338,-224.5 338,-243.5 442,-243.5 442,-224.5 338,-224.5"/>
<text text-anchor="middle" x="390" y="-231.5" font-family="Helvetica,sans-Serif" font-size="10.00" fill="#000000">alox/core/logger.hpp</text>
</a>
</g>
</g>
<!-- Node57&#45;&gt;Node64 -->
<g id="edge51" class="edge">
<title>Node57&#45;&gt;Node64</title>
<path fill="none" stroke="#191970" d="M553.8072,-282.7936C522.9458,-273.6009 469.0864,-257.5576 431.5857,-246.3872"/>
<polygon fill="#191970" stroke="#191970" points="432.5354,-243.0182 421.9524,-243.5177 430.537,-249.7269 432.5354,-243.0182"/>
</g>
<!-- Node65 -->
<g id="node41" class="node">
<title>Node65</title>
<g id="a_node41"><a xlink:href="scopestore_8hpp.html" target="_top" xlink:title="alox/core/scopestore.hpp">
<polygon fill="#ffffff" stroke="#000000" points="654,-224.5 654,-243.5 780,-243.5 780,-224.5 654,-224.5"/>
<text text-anchor="middle" x="717" y="-231.5" font-family="Helvetica,sans-Serif" font-size="10.00" fill="#000000">alox/core/scopestore.hpp</text>
</a>
</g>
</g>
<!-- Node57&#45;&gt;Node65 -->
<g id="edge52" class="edge">
<title>Node57&#45;&gt;Node65</title>
<path fill="none" stroke="#191970" d="M601.895,-280.3733C624.5082,-271.2629 658.6542,-257.5062 683.8873,-247.3404"/>
<polygon fill="#191970" stroke="#191970" points="685.4493,-250.4845 693.4169,-243.5011 682.8334,-243.9917 685.4493,-250.4845"/>
</g>
<!-- Node12&#45;&gt;Node13 -->
<g id="edge30" class="edge">
<title>Node12&#45;&gt;Node13</title>
<path fill="none" stroke="#191970" d="M805.4029,-112.3636C792,-97.9373 764.6726,-70.839 736,-56 688.657,-31.4984 627.3262,-19.3878 590.409,-13.9288"/>
<polygon fill="#191970" stroke="#191970" points="590.6162,-10.4237 580.227,-12.5011 589.6441,-17.3559 590.6162,-10.4237"/>
</g>
<!-- Node52&#45;&gt;Node13 -->
<g id="edge38" class="edge">
<title>Node52&#45;&gt;Node13</title>
<path fill="none" stroke="#191970" d="M423.0207,-56.3733C451.7251,-46.5116 496.2758,-31.2059 526.2634,-20.9034"/>
<polygon fill="#191970" stroke="#191970" points="527.5107,-24.1757 535.8309,-17.6164 525.2362,-17.5555 527.5107,-24.1757"/>
</g>
<!-- Node53&#45;&gt;Node50 -->
<g id="edge39" class="edge">
<title>Node53&#45;&gt;Node50</title>
<path fill="none" stroke="#191970" d="M453.8961,-112.2455C468.918,-103.5731 491.1043,-90.7645 508.321,-80.825"/>
<polygon fill="#191970" stroke="#191970" points="510.3871,-83.6737 517.2975,-75.6427 506.8872,-77.6114 510.3871,-83.6737"/>
</g>
<!-- Node53&#45;&gt;Node52 -->
<g id="edge40" class="edge">
<title>Node53&#45;&gt;Node52</title>
<path fill="none" stroke="#191970" d="M429.6842,-112.2455C423.7821,-104.3761 415.3258,-93.101 408.2406,-83.6542"/>
<polygon fill="#191970" stroke="#191970" points="411.0321,-81.5427 402.232,-75.6427 405.432,-85.7427 411.0321,-81.5427"/>
</g>
<!-- Node54&#45;&gt;Node13 -->
<g id="edge41" class="edge">
<title>Node54&#45;&gt;Node13</title>
<path fill="none" stroke="#191970" d="M392.2598,-168.3241C361.5601,-147.0129 296.1646,-94.833 328,-56 352.6176,-25.9714 468.1981,-15.1546 525.5528,-11.5904"/>
<polygon fill="#191970" stroke="#191970" points="526.0974,-15.0647 535.8767,-10.9885 525.6899,-8.0766 526.0974,-15.0647"/>
</g>
<!-- Node54&#45;&gt;Node53 -->
<g id="edge42" class="edge">
<title>Node54&#45;&gt;Node53</title>
<path fill="none" stroke="#191970" d="M412.2256,-168.2455C416.3123,-160.617 422.1135,-149.7881 427.075,-140.5267"/>
<polygon fill="#191970" stroke="#191970" points="430.1972,-142.1103 431.8343,-131.6427 424.0268,-138.8047 430.1972,-142.1103"/>
</g>
<!-- Node58&#45;&gt;Node13 -->
<g id="edge53" class="edge">
<title>Node58&#45;&gt;Node13</title>
<path fill="none" stroke="#191970" d="M189.5689,-224.4976C151.8289,-216.4668 105.607,-203.7623 94,-188 88.7293,-180.8424 89.481,-175.6545 94,-168 146.3862,-79.2669 199.832,-90.2965 297,-56 376.2263,-28.0362 475.2217,-16.561 525.4754,-12.2796"/>
<polygon fill="#191970" stroke="#191970" points="526.0384,-15.7456 535.7232,-11.4497 525.4732,-8.7684 526.0384,-15.7456"/>
</g>
<!-- Node58&#45;&gt;Node42 -->
<g id="edge54" class="edge">
<title>Node58&#45;&gt;Node42</title>
<path fill="none" stroke="#191970" d="M229.4586,-224.2455C218.7213,-215.8943 203.0527,-203.7076 190.4953,-193.9408"/>
<polygon fill="#191970" stroke="#191970" points="192.4401,-191.0194 182.3977,-187.6427 188.1425,-196.5449 192.4401,-191.0194"/>
</g>
<!-- Node59&#45;&gt;Node50 -->
<g id="edge55" class="edge">
<title>Node59&#45;&gt;Node50</title>
<path fill="none" stroke="#191970" d="M608.3232,-112.2455C594.5144,-103.6534 574.1807,-91.0014 558.2708,-81.1018"/>
<polygon fill="#191970" stroke="#191970" points="559.8368,-77.954 549.4972,-75.6427 556.1387,-83.8974 559.8368,-77.954"/>
</g>
<!-- Node60&#45;&gt;Node1 -->
<g id="edge56" class="edge">
<title>Node60&#45;&gt;Node1</title>
<path fill="none" stroke="#191970" d="M116.9208,-243.5191C207.3337,-258.238 389.4601,-286.2542 545,-300 931.4255,-334.1502 1400.1239,-343.298 1548.5581,-345.4234"/>
<polygon fill="#191970" stroke="#191970" points="1548.6385,-348.9247 1558.6864,-345.5645 1548.7361,-341.9254 1548.6385,-348.9247"/>
</g>
<!-- Node60&#45;&gt;Node47 -->
<g id="edge57" class="edge">
<title>Node60&#45;&gt;Node47</title>
<path fill="none" stroke="#191970" d="M54.6002,-224.2455C50.3773,-216.617 44.3827,-205.7881 39.2559,-196.5267"/>
<polygon fill="#191970" stroke="#191970" points="42.2432,-194.6965 34.3379,-187.6427 36.119,-198.0867 42.2432,-194.6965"/>
</g>
<!-- Node64&#45;&gt;Node1 -->
<g id="edge58" class="edge">
<title>Node64&#45;&gt;Node1</title>
<path fill="none" stroke="#191970" d="M442.222,-242.7039C445.1899,-243.154 448.1317,-243.5893 451,-244 653.5647,-273.0024 704.2797,-280.7226 908,-300 1148.1452,-322.7241 1436.4936,-338.1744 1548.383,-343.7229"/>
<polygon fill="#191970" stroke="#191970" points="1548.4925,-347.2325 1558.6526,-344.2289 1548.837,-340.241 1548.4925,-347.2325"/>
</g>
<!-- Node64&#45;&gt;Node13 -->
<g id="edge59" class="edge">
<title>Node64&#45;&gt;Node13</title>
<path fill="none" stroke="#191970" d="M358.11,-224.4777C340.5823,-217.43 320.3495,-205.8893 310,-188 292.5833,-157.8948 226.8021,-158.0624 316,-56 343.0796,-25.0149 466.2028,-14.6201 525.667,-11.3685"/>
<polygon fill="#191970" stroke="#191970" points="525.847,-14.864 535.6549,-10.8572 525.489,-7.8732 525.847,-14.864"/>
</g>
<!-- Node65&#45;&gt;Node1 -->
<g id="edge60" class="edge">
<title>Node65&#45;&gt;Node1</title>
<path fill="none" stroke="#191970" d="M780.0304,-242.1995C784.7575,-242.8103 789.4541,-243.4157 794,-244 1080.4343,-280.8142 1424.5096,-324.3406 1548.5428,-340.0088"/>
<polygon fill="#191970" stroke="#191970" points="1548.4605,-343.5261 1558.8203,-341.3069 1549.3377,-336.5813 1548.4605,-343.5261"/>
</g>
</g>
</svg>
