<?xml version="1.0" encoding="UTF-8" standalone="no"?>
<!DOCTYPE svg PUBLIC "-//W3C//DTD SVG 1.1//EN"
 "http://www.w3.org/Graphics/SVG/1.1/DTD/svg11.dtd">
<!-- Generated by graphviz version 2.38.0 (20140413.2041)
 -->
<!-- Title: domain.hpp Pages: 1 -->
<svg width="2118pt" height="308pt"
 viewBox="0.00 0.00 2117.50 308.00" xmlns="http://www.w3.org/2000/svg" xmlns:xlink="http://www.w3.org/1999/xlink">
<g id="graph0" class="graph" transform="scale(1 1) rotate(0) translate(4 304)">
<title>domain.hpp</title>
<polygon fill="white" stroke="none" points="-4,4 -4,-304 2113.5,-304 2113.5,4 -4,4"/>
<!-- Node1 -->
<g id="node1" class="node"><title>Node1</title>
<polygon fill="#bfbfbf" stroke="black" points="1268.5,-280.5 1268.5,-299.5 1335.5,-299.5 1335.5,-280.5 1268.5,-280.5"/>
<text text-anchor="middle" x="1302" y="-287.5" font-family="Helvetica,sans-Serif" font-size="10.00">domain.hpp</text>
</g>
<!-- Node2 -->
<g id="node2" class="node"><title>Node2</title>
<g id="a_node2"><a xlink:href="alox_8hpp.html" target="_top" xlink:title="alox/alox.hpp">
<polygon fill="white" stroke="black" points="1145,-224.5 1145,-243.5 1219,-243.5 1219,-224.5 1145,-224.5"/>
<text text-anchor="middle" x="1182" y="-231.5" font-family="Helvetica,sans-Serif" font-size="10.00">alox/alox.hpp</text>
</a>
</g>
</g>
<!-- Node1&#45;&gt;Node2 -->
<g id="edge1" class="edge"><title>Node1&#45;&gt;Node2</title>
<path fill="none" stroke="midnightblue" d="M1282.99,-280.444C1263.41,-271.636 1232.69,-257.812 1210.27,-247.722"/>
<polygon fill="midnightblue" stroke="midnightblue" points="1211.48,-244.428 1200.93,-243.516 1208.61,-250.812 1211.48,-244.428"/>
</g>
<!-- Node30 -->
<g id="node30" class="node"><title>Node30</title>
<polygon fill="white" stroke="#bfbfbf" points="1331,-112.5 1331,-131.5 1375,-131.5 1375,-112.5 1331,-112.5"/>
<text text-anchor="middle" x="1353" y="-119.5" font-family="Helvetica,sans-Serif" font-size="10.00">vector</text>
</g>
<!-- Node1&#45;&gt;Node30 -->
<g id="edge45" class="edge"><title>Node1&#45;&gt;Node30</title>
<path fill="none" stroke="midnightblue" d="M1304.96,-280.395C1310.9,-263.014 1324.61,-222.439 1335,-188 1339.7,-172.41 1344.61,-154.578 1348.11,-141.539"/>
<polygon fill="midnightblue" stroke="midnightblue" points="1351.49,-142.432 1350.68,-131.868 1344.73,-140.631 1351.49,-142.432"/>
</g>
<!-- Node3 -->
<g id="node3" class="node"><title>Node3</title>
<g id="a_node3"><a xlink:href="alib_8hpp.html" target="_top" xlink:title="alib/alib.hpp">
<polygon fill="white" stroke="black" points="1003,-56.5 1003,-75.5 1071,-75.5 1071,-56.5 1003,-56.5"/>
<text text-anchor="middle" x="1037" y="-63.5" font-family="Helvetica,sans-Serif" font-size="10.00">alib/alib.hpp</text>
</a>
</g>
</g>
<!-- Node2&#45;&gt;Node3 -->
<g id="edge2" class="edge"><title>Node2&#45;&gt;Node3</title>
<path fill="none" stroke="midnightblue" d="M1144.8,-233.595C1068.29,-233.938 897.419,-229.88 861,-188 816.102,-136.368 927.373,-96.3023 993.005,-77.9548"/>
<polygon fill="midnightblue" stroke="midnightblue" points="993.999,-81.3116 1002.72,-75.3022 992.156,-74.5586 993.999,-81.3116"/>
</g>
<!-- Node23 -->
<g id="node23" class="node"><title>Node23</title>
<g id="a_node23"><a xlink:href="alox__symbols_8hpp.html" target="_top" xlink:title="internals/alox_symbols.hpp">
<polygon fill="white" stroke="black" points="870.5,-168.5 870.5,-187.5 1005.5,-187.5 1005.5,-168.5 870.5,-168.5"/>
<text text-anchor="middle" x="938" y="-175.5" font-family="Helvetica,sans-Serif" font-size="10.00">internals/alox_symbols.hpp</text>
</a>
</g>
</g>
<!-- Node2&#45;&gt;Node23 -->
<g id="edge32" class="edge"><title>Node2&#45;&gt;Node23</title>
<path fill="none" stroke="midnightblue" d="M1144.94,-224.799C1102.59,-215.425 1033.12,-200.051 986.494,-189.732"/>
<polygon fill="midnightblue" stroke="midnightblue" points="987.138,-186.29 976.618,-187.547 985.626,-193.125 987.138,-186.29"/>
</g>
<!-- Node24 -->
<g id="node24" class="node"><title>Node24</title>
<g id="a_node24"><a xlink:href="alox__macros_8hpp.html" target="_top" xlink:title="internals/alox_macros.hpp">
<polygon fill="white" stroke="black" points="1062.5,-168.5 1062.5,-187.5 1193.5,-187.5 1193.5,-168.5 1062.5,-168.5"/>
<text text-anchor="middle" x="1128" y="-175.5" font-family="Helvetica,sans-Serif" font-size="10.00">internals/alox_macros.hpp</text>
</a>
</g>
</g>
<!-- Node2&#45;&gt;Node24 -->
<g id="edge33" class="edge"><title>Node2&#45;&gt;Node24</title>
<path fill="none" stroke="midnightblue" d="M1173.08,-224.083C1165.22,-216.22 1153.57,-204.569 1144.08,-195.081"/>
<polygon fill="midnightblue" stroke="midnightblue" points="1146.3,-192.347 1136.75,-187.751 1141.35,-197.297 1146.3,-192.347"/>
</g>
<!-- Node25 -->
<g id="node25" class="node"><title>Node25</title>
<g id="a_node25"><a xlink:href="log_8hpp.html" target="_top" xlink:title="log.hpp">
<polygon fill="white" stroke="black" points="1212,-168.5 1212,-187.5 1260,-187.5 1260,-168.5 1212,-168.5"/>
<text text-anchor="middle" x="1236" y="-175.5" font-family="Helvetica,sans-Serif" font-size="10.00">log.hpp</text>
</a>
</g>
</g>
<!-- Node2&#45;&gt;Node25 -->
<g id="edge34" class="edge"><title>Node2&#45;&gt;Node25</title>
<path fill="none" stroke="midnightblue" d="M1185.75,-224.083C1192.08,-216.062 1203.7,-204.101 1214.31,-194.515"/>
<polygon fill="midnightblue" stroke="midnightblue" points="1216.85,-196.944 1222.12,-187.751 1212.27,-191.653 1216.85,-196.944"/>
</g>
<!-- Node26 -->
<g id="node26" class="node"><title>Node26</title>
<g id="a_node26"><a xlink:href="lox_8hpp.html" target="_top" xlink:title="lox.hpp">
<polygon fill="white" stroke="black" points="1278,-168.5 1278,-187.5 1326,-187.5 1326,-168.5 1278,-168.5"/>
<text text-anchor="middle" x="1302" y="-175.5" font-family="Helvetica,sans-Serif" font-size="10.00">lox.hpp</text>
</a>
</g>
</g>
<!-- Node2&#45;&gt;Node26 -->
<g id="edge36" class="edge"><title>Node2&#45;&gt;Node26</title>
<path fill="none" stroke="midnightblue" d="M1201.01,-224.444C1220.59,-215.636 1251.31,-201.812 1273.73,-191.722"/>
<polygon fill="midnightblue" stroke="midnightblue" points="1275.39,-194.812 1283.07,-187.516 1272.52,-188.428 1275.39,-194.812"/>
</g>
<!-- Node4 -->
<g id="node4" class="node"><title>Node4</title>
<g id="a_node4"><a xlink:href="symbols_8hpp.html" target="_top" xlink:title="alib/core/symbols.hpp">
<polygon fill="white" stroke="black" points="0,-0.5 0,-19.5 112,-19.5 112,-0.5 0,-0.5"/>
<text text-anchor="middle" x="56" y="-7.5" font-family="Helvetica,sans-Serif" font-size="10.00">alib/core/symbols.hpp</text>
</a>
</g>
</g>
<!-- Node3&#45;&gt;Node4 -->
<g id="edge3" class="edge"><title>Node3&#45;&gt;Node4</title>
<path fill="none" stroke="midnightblue" d="M1002.78,-64.4391C883.02,-62.2406 471.489,-52.7019 122.213,-20.1363"/>
<polygon fill="midnightblue" stroke="midnightblue" points="122.442,-16.6425 112.158,-19.1908 121.786,-23.6117 122.442,-16.6425"/>
</g>
<!-- Node5 -->
<g id="node5" class="node"><title>Node5</title>
<g id="a_node5"><a xlink:href="macros_8hpp.html" target="_top" xlink:title="alib/core/macros.hpp">
<polygon fill="white" stroke="black" points="129.5,-0.5 129.5,-19.5 236.5,-19.5 236.5,-0.5 129.5,-0.5"/>
<text text-anchor="middle" x="183" y="-7.5" font-family="Helvetica,sans-Serif" font-size="10.00">alib/core/macros.hpp</text>
</a>
</g>
</g>
<!-- Node3&#45;&gt;Node5 -->
<g id="edge4" class="edge"><title>Node3&#45;&gt;Node5</title>
<path fill="none" stroke="midnightblue" d="M1003,-64.0997C894.423,-61.0066 546.16,-49.3963 246.761,-19.9795"/>
<polygon fill="midnightblue" stroke="midnightblue" points="246.875,-16.4738 236.579,-18.9703 246.185,-23.4396 246.875,-16.4738"/>
</g>
<!-- Node6 -->
<g id="node6" class="node"><title>Node6</title>
<polygon fill="white" stroke="#bfbfbf" points="255,-0.5 255,-19.5 307,-19.5 307,-0.5 255,-0.5"/>
<text text-anchor="middle" x="281" y="-7.5" font-family="Helvetica,sans-Serif" font-size="10.00">assert.h</text>
</g>
<!-- Node3&#45;&gt;Node6 -->
<g id="edge5" class="edge"><title>Node3&#45;&gt;Node6</title>
<path fill="none" stroke="midnightblue" d="M1002.97,-65.1534C900.476,-65.1353 585.804,-61.5662 317.198,-19.8845"/>
<polygon fill="midnightblue" stroke="midnightblue" points="317.684,-16.4179 307.261,-18.3216 316.596,-23.3329 317.684,-16.4179"/>
</g>
<!-- Node7 -->
<g id="node7" class="node"><title>Node7</title>
<polygon fill="white" stroke="#bfbfbf" points="325.5,-0.5 325.5,-19.5 374.5,-19.5 374.5,-0.5 325.5,-0.5"/>
<text text-anchor="middle" x="350" y="-7.5" font-family="Helvetica,sans-Serif" font-size="10.00">cstddef</text>
</g>
<!-- Node3&#45;&gt;Node7 -->
<g id="edge6" class="edge"><title>Node3&#45;&gt;Node7</title>
<path fill="none" stroke="midnightblue" d="M1002.68,-65.016C906.357,-64.5588 625.361,-59.7835 384.732,-19.9885"/>
<polygon fill="midnightblue" stroke="midnightblue" points="385.19,-16.5167 374.749,-18.3134 384.032,-23.4202 385.19,-16.5167"/>
</g>
<!-- Node8 -->
<g id="node8" class="node"><title>Node8</title>
<polygon fill="white" stroke="#bfbfbf" points="392.5,-0.5 392.5,-19.5 455.5,-19.5 455.5,-0.5 392.5,-0.5"/>
<text text-anchor="middle" x="424" y="-7.5" font-family="Helvetica,sans-Serif" font-size="10.00">windows.h</text>
</g>
<!-- Node3&#45;&gt;Node8 -->
<g id="edge7" class="edge"><title>Node3&#45;&gt;Node8</title>
<path fill="none" stroke="midnightblue" d="M1002.9,-64.0219C915.218,-61.1457 674.683,-50.974 465.725,-20.0727"/>
<polygon fill="midnightblue" stroke="midnightblue" points="466.207,-16.606 455.799,-18.5855 465.17,-23.5288 466.207,-16.606"/>
</g>
<!-- Node9 -->
<g id="node9" class="node"><title>Node9</title>
<polygon fill="white" stroke="#bfbfbf" points="473.5,-0.5 473.5,-19.5 522.5,-19.5 522.5,-0.5 473.5,-0.5"/>
<text text-anchor="middle" x="498" y="-7.5" font-family="Helvetica,sans-Serif" font-size="10.00">stdint.h</text>
</g>
<!-- Node3&#45;&gt;Node9 -->
<g id="edge8" class="edge"><title>Node3&#45;&gt;Node9</title>
<path fill="none" stroke="midnightblue" d="M1002.75,-63.9536C922.311,-61.0692 715.011,-51.1559 532.805,-19.8294"/>
<polygon fill="midnightblue" stroke="midnightblue" points="533.227,-16.3502 522.774,-18.0784 532.023,-23.246 533.227,-16.3502"/>
</g>
<!-- Node10 -->
<g id="node10" class="node"><title>Node10</title>
<polygon fill="white" stroke="#bfbfbf" points="541,-0.5 541,-19.5 603,-19.5 603,-0.5 541,-0.5"/>
<text text-anchor="middle" x="572" y="-7.5" font-family="Helvetica,sans-Serif" font-size="10.00">type_traits</text>
</g>
<!-- Node3&#45;&gt;Node10 -->
<g id="edge9" class="edge"><title>Node3&#45;&gt;Node10</title>
<path fill="none" stroke="midnightblue" d="M1002.94,-62.7395C932.149,-57.7528 763.842,-44.3987 613.267,-20.0406"/>
<polygon fill="midnightblue" stroke="midnightblue" points="613.81,-16.583 603.376,-18.4203 612.678,-23.4909 613.81,-16.583"/>
</g>
<!-- Node11 -->
<g id="node11" class="node"><title>Node11</title>
<polygon fill="white" stroke="#bfbfbf" points="621,-0.5 621,-19.5 661,-19.5 661,-0.5 621,-0.5"/>
<text text-anchor="middle" x="641" y="-7.5" font-family="Helvetica,sans-Serif" font-size="10.00">utility</text>
</g>
<!-- Node3&#45;&gt;Node11 -->
<g id="edge10" class="edge"><title>Node3&#45;&gt;Node11</title>
<path fill="none" stroke="midnightblue" d="M1002.76,-62.8547C939.109,-58.4267 798.212,-46.5597 671.067,-19.8775"/>
<polygon fill="midnightblue" stroke="midnightblue" points="671.669,-16.4274 661.159,-17.7619 670.208,-23.2731 671.669,-16.4274"/>
</g>
<!-- Node12 -->
<g id="node12" class="node"><title>Node12</title>
<polygon fill="white" stroke="#bfbfbf" points="679.5,-0.5 679.5,-19.5 720.5,-19.5 720.5,-0.5 679.5,-0.5"/>
<text text-anchor="middle" x="700" y="-7.5" font-family="Helvetica,sans-Serif" font-size="10.00">stack</text>
</g>
<!-- Node3&#45;&gt;Node12 -->
<g id="edge11" class="edge"><title>Node3&#45;&gt;Node12</title>
<path fill="none" stroke="midnightblue" d="M1002.63,-61.6179C947.282,-55.8138 834.886,-42.554 730.321,-19.7593"/>
<polygon fill="midnightblue" stroke="midnightblue" points="731.073,-16.3411 720.553,-17.5965 729.56,-23.1756 731.073,-16.3411"/>
</g>
<!-- Node13 -->
<g id="node13" class="node"><title>Node13</title>
<g id="a_node13"><a xlink:href="enums_8hpp.html" target="_top" xlink:title="alib/core/enums.hpp">
<polygon fill="white" stroke="black" points="739,-0.5 739,-19.5 843,-19.5 843,-0.5 739,-0.5"/>
<text text-anchor="middle" x="791" y="-7.5" font-family="Helvetica,sans-Serif" font-size="10.00">alib/core/enums.hpp</text>
</a>
</g>
</g>
<!-- Node3&#45;&gt;Node13 -->
<g id="edge12" class="edge"><title>Node3&#45;&gt;Node13</title>
<path fill="none" stroke="midnightblue" d="M1002.74,-58.4863C958.818,-49.3989 882.886,-32.8003 834.821,-21.8337"/>
<polygon fill="midnightblue" stroke="midnightblue" points="835.538,-18.4074 825.009,-19.5837 833.974,-25.2303 835.538,-18.4074"/>
</g>
<!-- Node14 -->
<g id="node14" class="node"><title>Node14</title>
<g id="a_node14"><a xlink:href="report_8hpp.html" target="_top" xlink:title="alib/core/report.hpp">
<polygon fill="white" stroke="black" points="861,-0.5 861,-19.5 961,-19.5 961,-0.5 861,-0.5"/>
<text text-anchor="middle" x="911" y="-7.5" font-family="Helvetica,sans-Serif" font-size="10.00">alib/core/report.hpp</text>
</a>
</g>
</g>
<!-- Node3&#45;&gt;Node14 -->
<g id="edge14" class="edge"><title>Node3&#45;&gt;Node14</title>
<path fill="none" stroke="midnightblue" d="M1011.95,-56.4435C989.563,-47.6751 957.251,-33.9355 935.153,-23.8579"/>
<polygon fill="midnightblue" stroke="midnightblue" points="936.336,-20.5484 925.792,-19.5164 933.391,-26.8988 936.336,-20.5484"/>
</g>
<!-- Node15 -->
<g id="node15" class="node"><title>Node15</title>
<g id="a_node15"><a xlink:href="cstring_8hpp.html" target="_top" xlink:title="alib/strings/cstring.hpp">
<polygon fill="white" stroke="red" points="979.5,-0.5 979.5,-19.5 1094.5,-19.5 1094.5,-0.5 979.5,-0.5"/>
<text text-anchor="middle" x="1037" y="-7.5" font-family="Helvetica,sans-Serif" font-size="10.00">alib/strings/cstring.hpp</text>
</a>
</g>
</g>
<!-- Node3&#45;&gt;Node15 -->
<g id="edge16" class="edge"><title>Node3&#45;&gt;Node15</title>
<path fill="none" stroke="midnightblue" d="M1031.83,-56.083C1030.32,-48.9272 1029.89,-38.6353 1030.54,-29.6911"/>
<polygon fill="midnightblue" stroke="midnightblue" points="1034.02,-30.1262 1031.87,-19.7511 1027.08,-29.2002 1034.02,-30.1262"/>
</g>
<!-- Node16 -->
<g id="node16" class="node"><title>Node16</title>
<g id="a_node16"><a xlink:href="string_8hpp.html" target="_top" xlink:title="alib/strings/string.hpp">
<polygon fill="white" stroke="red" points="1113,-0.5 1113,-19.5 1223,-19.5 1223,-0.5 1113,-0.5"/>
<text text-anchor="middle" x="1168" y="-7.5" font-family="Helvetica,sans-Serif" font-size="10.00">alib/strings/string.hpp</text>
</a>
</g>
</g>
<!-- Node3&#45;&gt;Node16 -->
<g id="edge18" class="edge"><title>Node3&#45;&gt;Node16</title>
<path fill="none" stroke="midnightblue" d="M1052.67,-56.4435C1072.45,-47.4776 1106.59,-33.314 1132.7,-23.1827"/>
<polygon fill="midnightblue" stroke="midnightblue" points="1134.18,-26.3639 1142.26,-19.5164 1131.67,-19.8277 1134.18,-26.3639"/>
</g>
<!-- Node17 -->
<g id="node17" class="node"><title>Node17</title>
<g id="a_node17"><a xlink:href="tstring_8hpp.html" target="_top" xlink:title="alib/strings/tstring.hpp">
<polygon fill="white" stroke="black" points="1241.5,-0.5 1241.5,-19.5 1354.5,-19.5 1354.5,-0.5 1241.5,-0.5"/>
<text text-anchor="middle" x="1298" y="-7.5" font-family="Helvetica,sans-Serif" font-size="10.00">alib/strings/tstring.hpp</text>
</a>
</g>
</g>
<!-- Node3&#45;&gt;Node17 -->
<g id="edge20" class="edge"><title>Node3&#45;&gt;Node17</title>
<path fill="none" stroke="midnightblue" d="M1071.09,-56.9157C1114.38,-47.5097 1189.42,-31.9489 1241.34,-21.5864"/>
<polygon fill="midnightblue" stroke="midnightblue" points="1242.28,-24.9692 1251.4,-19.5865 1240.91,-18.1036 1242.28,-24.9692"/>
</g>
<!-- Node18 -->
<g id="node18" class="node"><title>Node18</title>
<g id="a_node18"><a xlink:href="stringliteral_8hpp.html" target="_top" xlink:title="alib/strings/stringliteral.hpp">
<polygon fill="white" stroke="red" points="1372.5,-0.5 1372.5,-19.5 1505.5,-19.5 1505.5,-0.5 1372.5,-0.5"/>
<text text-anchor="middle" x="1439" y="-7.5" font-family="Helvetica,sans-Serif" font-size="10.00">alib/strings/stringliteral.hpp</text>
</a>
</g>
</g>
<!-- Node3&#45;&gt;Node18 -->
<g id="edge22" class="edge"><title>Node3&#45;&gt;Node18</title>
<path fill="none" stroke="midnightblue" d="M1071.02,-59.8711C1135.03,-50.8684 1274.43,-32.091 1362.14,-20.6117"/>
<polygon fill="midnightblue" stroke="midnightblue" points="1362.84,-24.0494 1372.31,-19.2835 1361.94,-17.1084 1362.84,-24.0494"/>
</g>
<!-- Node19 -->
<g id="node19" class="node"><title>Node19</title>
<g id="a_node19"><a xlink:href="astring_8hpp.html" target="_top" xlink:title="alib/strings/astring.hpp">
<polygon fill="white" stroke="red" points="1523.5,-0.5 1523.5,-19.5 1638.5,-19.5 1638.5,-0.5 1523.5,-0.5"/>
<text text-anchor="middle" x="1581" y="-7.5" font-family="Helvetica,sans-Serif" font-size="10.00">alib/strings/astring.hpp</text>
</a>
</g>
</g>
<!-- Node3&#45;&gt;Node19 -->
<g id="edge24" class="edge"><title>Node3&#45;&gt;Node19</title>
<path fill="none" stroke="midnightblue" d="M1071.08,-61.8451C1148.48,-55.1402 1342.61,-38.5596 1505,-20 1507.69,-19.692 1510.45,-19.3663 1513.24,-19.0286"/>
<polygon fill="midnightblue" stroke="midnightblue" points="1513.94,-22.4686 1523.43,-17.7632 1513.07,-15.5219 1513.94,-22.4686"/>
</g>
<!-- Node20 -->
<g id="node20" class="node"><title>Node20</title>
<g id="a_node20"><a xlink:href="preallocatedstring_8hpp.html" target="_top" xlink:title="alib/strings/preallocatedstring.hpp">
<polygon fill="white" stroke="black" points="1657,-0.5 1657,-19.5 1819,-19.5 1819,-0.5 1657,-0.5"/>
<text text-anchor="middle" x="1738" y="-7.5" font-family="Helvetica,sans-Serif" font-size="10.00">alib/strings/preallocatedstring.hpp</text>
</a>
</g>
</g>
<!-- Node3&#45;&gt;Node20 -->
<g id="edge26" class="edge"><title>Node3&#45;&gt;Node20</title>
<path fill="none" stroke="midnightblue" d="M1071.05,-61.7612C1092.57,-60.0342 1120.8,-57.883 1146,-56 1364.64,-39.6629 1419.56,-38.791 1638,-20 1640.72,-19.7657 1643.49,-19.5222 1646.29,-19.2718"/>
<polygon fill="midnightblue" stroke="midnightblue" points="1646.88,-22.7324 1656.53,-18.3392 1646.25,-15.7613 1646.88,-22.7324"/>
</g>
<!-- Node21 -->
<g id="node21" class="node"><title>Node21</title>
<g id="a_node21"><a xlink:href="applyto_8hpp.html" target="_top" xlink:title="alib/strings/applyto.hpp">
<polygon fill="white" stroke="black" points="1837.5,-0.5 1837.5,-19.5 1954.5,-19.5 1954.5,-0.5 1837.5,-0.5"/>
<text text-anchor="middle" x="1896" y="-7.5" font-family="Helvetica,sans-Serif" font-size="10.00">alib/strings/applyto.hpp</text>
</a>
</g>
</g>
<!-- Node3&#45;&gt;Node21 -->
<g id="edge28" class="edge"><title>Node3&#45;&gt;Node21</title>
<path fill="none" stroke="midnightblue" d="M1071.03,-61.5612C1092.56,-59.7775 1120.78,-57.636 1146,-56 1444.91,-36.6087 1520.74,-47.6722 1819,-20 1821.69,-19.7507 1824.43,-19.4751 1827.21,-19.1797"/>
<polygon fill="midnightblue" stroke="midnightblue" points="1827.81,-22.6341 1837.35,-18.0356 1827.02,-15.6782 1827.81,-22.6341"/>
</g>
<!-- Node22 -->
<g id="node22" class="node"><title>Node22</title>
<g id="a_node22"><a xlink:href="applyformat_8hpp.html" target="_top" xlink:title="alib/strings/applyformat.hpp">
<polygon fill="white" stroke="red" points="1972.5,-0.5 1972.5,-19.5 2109.5,-19.5 2109.5,-0.5 1972.5,-0.5"/>
<text text-anchor="middle" x="2041" y="-7.5" font-family="Helvetica,sans-Serif" font-size="10.00">alib/strings/applyformat.hpp</text>
</a>
</g>
</g>
<!-- Node3&#45;&gt;Node22 -->
<g id="edge30" class="edge"><title>Node3&#45;&gt;Node22</title>
<path fill="none" stroke="midnightblue" d="M1071.03,-61.4696C1092.55,-59.66 1120.77,-57.5228 1146,-56 1505.26,-34.3116 1596.25,-48.9102 1955,-20 1957.38,-19.8084 1959.79,-19.6003 1962.24,-19.3787"/>
<polygon fill="midnightblue" stroke="midnightblue" points="1962.77,-22.8436 1972.39,-18.4008 1962.1,-15.8758 1962.77,-22.8436"/>
</g>
<!-- Node13&#45;&gt;Node3 -->
<g id="edge13" class="edge"><title>Node13&#45;&gt;Node3</title>
<path fill="none" stroke="midnightblue" d="M834.877,-19.5164C879.6,-28.8809 948.4,-43.95 993.12,-54.1529"/>
<polygon fill="midnightblue" stroke="midnightblue" points="992.58,-57.6198 1003.11,-56.4435 994.145,-50.7969 992.58,-57.6198"/>
</g>
<!-- Node14&#45;&gt;Node3 -->
<g id="edge15" class="edge"><title>Node14&#45;&gt;Node3</title>
<path fill="none" stroke="midnightblue" d="M935.952,-19.5164C958.405,-28.3091 990.908,-42.1312 1013.04,-52.2321"/>
<polygon fill="midnightblue" stroke="midnightblue" points="1011.58,-55.4109 1022.12,-56.4435 1014.52,-49.0607 1011.58,-55.4109"/>
</g>
<!-- Node15&#45;&gt;Node3 -->
<g id="edge17" class="edge"><title>Node15&#45;&gt;Node3</title>
<path fill="none" stroke="midnightblue" d="M1042.13,-19.7511C1043.66,-26.8579 1044.1,-37.1357 1043.47,-46.1005"/>
<polygon fill="midnightblue" stroke="midnightblue" points="1039.99,-45.7134 1042.17,-56.083 1046.93,-46.6216 1039.99,-45.7134"/>
</g>
<!-- Node16&#45;&gt;Node3 -->
<g id="edge19" class="edge"><title>Node16&#45;&gt;Node3</title>
<path fill="none" stroke="midnightblue" d="M1152.42,-19.5164C1132.68,-28.4669 1098.55,-42.6287 1072.42,-52.772"/>
<polygon fill="midnightblue" stroke="midnightblue" points="1070.93,-49.5952 1062.85,-56.4435 1073.44,-56.1312 1070.93,-49.5952"/>
</g>
<!-- Node17&#45;&gt;Node3 -->
<g id="edge21" class="edge"><title>Node17&#45;&gt;Node3</title>
<path fill="none" stroke="midnightblue" d="M1261.86,-19.5298C1214.6,-29.7732 1132.14,-46.8283 1081.22,-56.884"/>
<polygon fill="midnightblue" stroke="midnightblue" points="1080.3,-53.4966 1071.16,-58.8581 1081.65,-60.3654 1080.3,-53.4966"/>
</g>
<!-- Node18&#45;&gt;Node3 -->
<g id="edge23" class="edge"><title>Node18&#45;&gt;Node3</title>
<path fill="none" stroke="midnightblue" d="M1380.55,-19.5342C1299.41,-30.7656 1154.6,-50.1807 1081.57,-59.5843"/>
<polygon fill="midnightblue" stroke="midnightblue" points="1080.81,-56.1535 1071.34,-60.8969 1081.7,-63.0966 1080.81,-56.1535"/>
</g>
<!-- Node19&#45;&gt;Node3 -->
<g id="edge25" class="edge"><title>Node19&#45;&gt;Node3</title>
<path fill="none" stroke="midnightblue" d="M1527.24,-19.5067C1525.81,-19.6754 1524.4,-19.8401 1523,-20 1360.76,-38.5418 1166.85,-55.1085 1081.18,-61.8258"/>
<polygon fill="midnightblue" stroke="midnightblue" points="1080.74,-58.3497 1071.04,-62.6143 1081.28,-65.3287 1080.74,-58.3497"/>
</g>
<!-- Node20&#45;&gt;Node3 -->
<g id="edge27" class="edge"><title>Node20&#45;&gt;Node3</title>
<path fill="none" stroke="midnightblue" d="M1661.27,-19.5403C1659.5,-19.6969 1657.74,-19.8503 1656,-20 1437.56,-38.791 1382.64,-39.6629 1164,-56 1136.66,-58.0428 1105.76,-60.4013 1081.17,-62.1913"/>
<polygon fill="midnightblue" stroke="midnightblue" points="1080.77,-58.7111 1071.04,-62.9211 1081.27,-65.693 1080.77,-58.7111"/>
</g>
<!-- Node21&#45;&gt;Node3 -->
<g id="edge29" class="edge"><title>Node21&#45;&gt;Node3</title>
<path fill="none" stroke="midnightblue" d="M1842.04,-19.5093C1840.34,-19.6819 1838.66,-19.846 1837,-20 1538.74,-47.6722 1462.91,-36.6087 1164,-56 1136.64,-57.7748 1105.74,-60.1446 1081.16,-62.007"/>
<polygon fill="midnightblue" stroke="midnightblue" points="1080.74,-58.5282 1071.03,-62.7708 1081.27,-65.5084 1080.74,-58.5282"/>
</g>
<!-- Node22&#45;&gt;Node3 -->
<g id="edge31" class="edge"><title>Node22&#45;&gt;Node3</title>
<path fill="none" stroke="midnightblue" d="M1978.7,-19.5164C1976.78,-19.6869 1974.88,-19.8486 1973,-20 1614.25,-48.9102 1523.26,-34.3116 1164,-56 1136.63,-57.6521 1105.74,-60.0271 1081.15,-61.9226"/>
<polygon fill="midnightblue" stroke="midnightblue" points="1080.73,-58.4445 1071.03,-62.7021 1081.27,-65.4238 1080.73,-58.4445"/>
</g>
<!-- Node25&#45;&gt;Node2 -->
<g id="edge35" class="edge"><title>Node25&#45;&gt;Node2</title>
<path fill="none" stroke="midnightblue" d="M1232.31,-187.834C1225.99,-195.869 1214.29,-207.909 1203.63,-217.537"/>
<polygon fill="midnightblue" stroke="midnightblue" points="1201.06,-215.133 1195.79,-224.324 1205.64,-220.426 1201.06,-215.133"/>
</g>
<!-- Node26&#45;&gt;Node1 -->
<g id="edge42" class="edge"><title>Node26&#45;&gt;Node1</title>
<path fill="none" stroke="midnightblue" d="M1302,-187.591C1302,-205.308 1302,-246.254 1302,-270.348"/>
<polygon fill="midnightblue" stroke="midnightblue" points="1298.5,-270.368 1302,-280.368 1305.5,-270.369 1298.5,-270.368"/>
</g>
<!-- Node27 -->
<g id="node27" class="node"><title>Node27</title>
<g id="a_node27"><a xlink:href="threadlock_8hpp.html" target="_top" xlink:title="alib/threads/threadlock.hpp">
<polygon fill="white" stroke="red" points="1140,-112.5 1140,-131.5 1274,-131.5 1274,-112.5 1140,-112.5"/>
<text text-anchor="middle" x="1207" y="-119.5" font-family="Helvetica,sans-Serif" font-size="10.00">alib/threads/threadlock.hpp</text>
</a>
</g>
</g>
<!-- Node26&#45;&gt;Node27 -->
<g id="edge37" class="edge"><title>Node26&#45;&gt;Node27</title>
<path fill="none" stroke="midnightblue" d="M1286.74,-168.324C1271.78,-159.822 1248.75,-146.729 1231.27,-136.797"/>
<polygon fill="midnightblue" stroke="midnightblue" points="1232.65,-133.553 1222.23,-131.655 1229.19,-139.639 1232.65,-133.553"/>
</g>
<!-- Node28 -->
<g id="node28" class="node"><title>Node28</title>
<g id="a_node28"><a xlink:href="callerinfo_8hpp.html" target="_top" xlink:title="alox/core/callerinfo.hpp">
<polygon fill="white" stroke="red" points="1004.5,-112.5 1004.5,-131.5 1121.5,-131.5 1121.5,-112.5 1004.5,-112.5"/>
<text text-anchor="middle" x="1063" y="-119.5" font-family="Helvetica,sans-Serif" font-size="10.00">alox/core/callerinfo.hpp</text>
</a>
</g>
</g>
<!-- Node26&#45;&gt;Node28 -->
<g id="edge39" class="edge"><title>Node26&#45;&gt;Node28</title>
<path fill="none" stroke="midnightblue" d="M1277.89,-170.271C1274.9,-169.482 1271.88,-168.708 1269,-168 1216.78,-155.184 1156.66,-142.26 1114.91,-133.571"/>
<polygon fill="midnightblue" stroke="midnightblue" points="1115.47,-130.113 1104.97,-131.511 1114.05,-136.968 1115.47,-130.113"/>
</g>
<!-- Node29 -->
<g id="node29" class="node"><title>Node29</title>
<polygon fill="white" stroke="#bfbfbf" points="1164.5,-56.5 1164.5,-75.5 1199.5,-75.5 1199.5,-56.5 1164.5,-56.5"/>
<text text-anchor="middle" x="1182" y="-63.5" font-family="Helvetica,sans-Serif" font-size="10.00">map</text>
</g>
<!-- Node26&#45;&gt;Node29 -->
<g id="edge44" class="edge"><title>Node26&#45;&gt;Node29</title>
<path fill="none" stroke="midnightblue" d="M1301.71,-168.333C1300.82,-154.743 1297.23,-128.292 1283,-112 1263.94,-90.1857 1232.26,-78.4533 1209.46,-72.4965"/>
<polygon fill="midnightblue" stroke="midnightblue" points="1210.23,-69.0809 1199.69,-70.1505 1208.59,-75.8876 1210.23,-69.0809"/>
</g>
<!-- Node26&#45;&gt;Node30 -->
<g id="edge43" class="edge"><title>Node26&#45;&gt;Node30</title>
<path fill="none" stroke="midnightblue" d="M1310.42,-168.083C1317.85,-160.22 1328.85,-148.569 1337.81,-139.081"/>
<polygon fill="midnightblue" stroke="midnightblue" points="1340.41,-141.424 1344.74,-131.751 1335.32,-136.618 1340.41,-141.424"/>
</g>
<!-- Node27&#45;&gt;Node3 -->
<g id="edge38" class="edge"><title>Node27&#45;&gt;Node3</title>
<path fill="none" stroke="midnightblue" d="M1180.06,-112.444C1151.34,-103.32 1105.67,-88.8133 1073.68,-78.6509"/>
<polygon fill="midnightblue" stroke="midnightblue" points="1074.4,-75.2081 1063.81,-75.5164 1072.28,-81.8797 1074.4,-75.2081"/>
</g>
<!-- Node28&#45;&gt;Node2 -->
<g id="edge40" class="edge"><title>Node28&#45;&gt;Node2</title>
<path fill="none" stroke="midnightblue" d="M1057.96,-131.907C1051.1,-145.353 1040.97,-171.059 1053,-188 1071.41,-213.92 1105.91,-225.034 1134.6,-229.74"/>
<polygon fill="midnightblue" stroke="midnightblue" points="1134.47,-233.258 1144.86,-231.2 1135.46,-226.327 1134.47,-233.258"/>
</g>
<!-- Node28&#45;&gt;Node29 -->
<g id="edge41" class="edge"><title>Node28&#45;&gt;Node29</title>
<path fill="none" stroke="midnightblue" d="M1081.86,-112.444C1101.61,-103.48 1132.81,-89.3221 1155.13,-79.1914"/>
<polygon fill="midnightblue" stroke="midnightblue" points="1156.74,-82.3078 1164.4,-74.9883 1153.84,-75.9334 1156.74,-82.3078"/>
</g>
</g>
</svg>
