<?xml version="1.0" encoding="UTF-8" standalone="no"?>
<!DOCTYPE svg PUBLIC "-//W3C//DTD SVG 1.1//EN"
 "http://www.w3.org/Graphics/SVG/1.1/DTD/svg11.dtd">
<!-- Generated by graphviz version 2.40.1 (20161225.0304)
 -->
<!-- Title: enumiterators.hpp Pages: 1 -->
<svg width="200pt" height="140pt"
 viewBox="0.00 0.00 200.00 140.00" xmlns="http://www.w3.org/2000/svg" xmlns:xlink="http://www.w3.org/1999/xlink">
<g id="graph0" class="graph" transform="scale(1 1) rotate(0) translate(4 136)">
<title>enumiterators.hpp</title>
<polygon fill="#ffffff" stroke="transparent" points="-4,4 -4,-136 196,-136 196,4 -4,4"/>
<!-- Node0 -->
<g id="node1" class="node">
<title>Node0</title>
<polygon fill="#bfbfbf" stroke="#000000" points="68.5,-112.5 68.5,-131.5 163.5,-131.5 163.5,-112.5 68.5,-112.5"/>
<text text-anchor="middle" x="116" y="-119.5" font-family="Helvetica,sans-Serif" font-size="10.00" fill="#000000">enumiterators.hpp</text>
</g>
<!-- Node1 -->
<g id="node2" class="node">
<title>Node1</title>
<g id="a_node2"><a xlink:href="enumbitwise_8hpp.html" target="_top" xlink:title="alib/lang/enumbitwise.hpp">
<polygon fill="#ffffff" stroke="#000000" points="0,-56.5 0,-75.5 128,-75.5 128,-56.5 0,-56.5"/>
<text text-anchor="middle" x="64" y="-63.5" font-family="Helvetica,sans-Serif" font-size="10.00" fill="#000000">alib/lang/enumbitwise.hpp</text>
</a>
</g>
</g>
<!-- Node0&#45;&gt;Node1 -->
<g id="edge1" class="edge">
<title>Node0&#45;&gt;Node1</title>
<path fill="none" stroke="#191970" d="M106.9423,-112.2455C99.4858,-104.2155 88.7366,-92.6394 79.8583,-83.0781"/>
<polygon fill="#191970" stroke="#191970" points="82.3232,-80.589 72.9539,-75.6427 77.1937,-85.3522 82.3232,-80.589"/>
</g>
<!-- Node3 -->
<g id="node3" class="node">
<title>Node3</title>
<polygon fill="#ffffff" stroke="#bfbfbf" points="146,-56.5 146,-75.5 192,-75.5 192,-56.5 146,-56.5"/>
<text text-anchor="middle" x="169" y="-63.5" font-family="Helvetica,sans-Serif" font-size="10.00" fill="#000000">intrin.h</text>
</g>
<!-- Node0&#45;&gt;Node3 -->
<g id="edge2" class="edge">
<title>Node0&#45;&gt;Node3</title>
<path fill="none" stroke="#191970" d="M125.2319,-112.2455C132.8317,-104.2155 143.7877,-92.6394 152.8368,-83.0781"/>
<polygon fill="#191970" stroke="#191970" points="155.5421,-85.3115 159.8739,-75.6427 150.458,-80.4998 155.5421,-85.3115"/>
</g>
<!-- Node2 -->
<g id="node4" class="node">
<title>Node2</title>
<g id="a_node4"><a xlink:href="enumarithmetical_8hpp.html" target="_top" xlink:title="enumarithmetical.hpp">
<polygon fill="#ffffff" stroke="#000000" points="9,-.5 9,-19.5 119,-19.5 119,-.5 9,-.5"/>
<text text-anchor="middle" x="64" y="-7.5" font-family="Helvetica,sans-Serif" font-size="10.00" fill="#000000">enumarithmetical.hpp</text>
</a>
</g>
</g>
<!-- Node1&#45;&gt;Node2 -->
<g id="edge3" class="edge">
<title>Node1&#45;&gt;Node2</title>
<path fill="none" stroke="#191970" d="M64,-56.2455C64,-48.9382 64,-38.6944 64,-29.7046"/>
<polygon fill="#191970" stroke="#191970" points="67.5001,-29.6426 64,-19.6427 60.5001,-29.6427 67.5001,-29.6426"/>
</g>
</g>
</svg>
