<?xml version="1.0" encoding="UTF-8" standalone="no"?>
<!DOCTYPE svg PUBLIC "-//W3C//DTD SVG 1.1//EN"
 "http://www.w3.org/Graphics/SVG/1.1/DTD/svg11.dtd">
<!-- Generated by graphviz version 2.38.0 (20140413.2041)
 -->
<!-- Title: enums.hpp Pages: 1 -->
<svg width="1682pt" height="252pt"
 viewBox="0.00 0.00 1681.50 252.00" xmlns="http://www.w3.org/2000/svg" xmlns:xlink="http://www.w3.org/1999/xlink">
<g id="graph0" class="graph" transform="scale(1 1) rotate(0) translate(4 248)">
<title>enums.hpp</title>
<polygon fill="white" stroke="none" points="-4,4 -4,-248 1677.5,-248 1677.5,4 -4,4"/>
<!-- Node1 -->
<g id="node1" class="node"><title>Node1</title>
<polygon fill="#bfbfbf" stroke="black" points="869.5,-224.5 869.5,-243.5 934.5,-243.5 934.5,-224.5 869.5,-224.5"/>
<text text-anchor="middle" x="902" y="-231.5" font-family="Helvetica,sans-Serif" font-size="10.00">enums.hpp</text>
</g>
<!-- Node2 -->
<g id="node2" class="node"><title>Node2</title>
<g id="a_node2"><a xlink:href="alib_8hpp.html" target="_top" xlink:title="alib/alib.hpp">
<polygon fill="white" stroke="black" points="868,-168.5 868,-187.5 936,-187.5 936,-168.5 868,-168.5"/>
<text text-anchor="middle" x="902" y="-175.5" font-family="Helvetica,sans-Serif" font-size="10.00">alib/alib.hpp</text>
</a>
</g>
</g>
<!-- Node1&#45;&gt;Node2 -->
<g id="edge1" class="edge"><title>Node1&#45;&gt;Node2</title>
<path fill="none" stroke="midnightblue" d="M896.834,-224.083C895.324,-216.927 894.894,-206.635 895.542,-197.691"/>
<polygon fill="midnightblue" stroke="midnightblue" points="899.015,-198.126 896.869,-187.751 892.077,-197.2 899.015,-198.126"/>
</g>
<!-- Node2&#45;&gt;Node1 -->
<g id="edge10" class="edge"><title>Node2&#45;&gt;Node1</title>
<path fill="none" stroke="midnightblue" d="M907.131,-187.751C908.657,-194.858 909.104,-205.136 908.472,-214.101"/>
<polygon fill="midnightblue" stroke="midnightblue" points="904.993,-213.713 907.166,-224.083 911.934,-214.622 904.993,-213.713"/>
</g>
<!-- Node3 -->
<g id="node3" class="node"><title>Node3</title>
<g id="a_node3"><a xlink:href="symbols_8hpp.html" target="_top" xlink:title="alib/core/symbols.hpp">
<polygon fill="white" stroke="black" points="0,-112.5 0,-131.5 112,-131.5 112,-112.5 0,-112.5"/>
<text text-anchor="middle" x="56" y="-119.5" font-family="Helvetica,sans-Serif" font-size="10.00">alib/core/symbols.hpp</text>
</a>
</g>
</g>
<!-- Node2&#45;&gt;Node3 -->
<g id="edge2" class="edge"><title>Node2&#45;&gt;Node3</title>
<path fill="none" stroke="midnightblue" d="M867.62,-176.031C759.422,-172.768 416.078,-160.786 122.156,-132.146"/>
<polygon fill="midnightblue" stroke="midnightblue" points="122.455,-128.659 112.161,-131.164 121.77,-135.625 122.455,-128.659"/>
</g>
<!-- Node4 -->
<g id="node4" class="node"><title>Node4</title>
<g id="a_node4"><a xlink:href="macros_8hpp.html" target="_top" xlink:title="alib/core/macros.hpp">
<polygon fill="white" stroke="black" points="129.5,-112.5 129.5,-131.5 236.5,-131.5 236.5,-112.5 129.5,-112.5"/>
<text text-anchor="middle" x="183" y="-119.5" font-family="Helvetica,sans-Serif" font-size="10.00">alib/core/macros.hpp</text>
</a>
</g>
</g>
<!-- Node2&#45;&gt;Node4 -->
<g id="edge3" class="edge"><title>Node2&#45;&gt;Node4</title>
<path fill="none" stroke="midnightblue" d="M867.777,-175.54C771.69,-171.251 491.083,-157.436 246.723,-131.992"/>
<polygon fill="midnightblue" stroke="midnightblue" points="246.894,-128.491 236.583,-130.928 246.163,-135.453 246.894,-128.491"/>
</g>
<!-- Node5 -->
<g id="node5" class="node"><title>Node5</title>
<polygon fill="white" stroke="#bfbfbf" points="255,-112.5 255,-131.5 307,-131.5 307,-112.5 255,-112.5"/>
<text text-anchor="middle" x="281" y="-119.5" font-family="Helvetica,sans-Serif" font-size="10.00">assert.h</text>
</g>
<!-- Node2&#45;&gt;Node5 -->
<g id="edge4" class="edge"><title>Node2&#45;&gt;Node5</title>
<path fill="none" stroke="midnightblue" d="M867.731,-176.459C778.482,-174.606 531.499,-166.648 317.436,-131.953"/>
<polygon fill="midnightblue" stroke="midnightblue" points="317.704,-128.45 307.268,-130.28 316.567,-135.357 317.704,-128.45"/>
</g>
<!-- Node6 -->
<g id="node6" class="node"><title>Node6</title>
<polygon fill="white" stroke="#bfbfbf" points="325.5,-112.5 325.5,-131.5 374.5,-131.5 374.5,-112.5 325.5,-112.5"/>
<text text-anchor="middle" x="350" y="-119.5" font-family="Helvetica,sans-Serif" font-size="10.00">cstddef</text>
</g>
<!-- Node2&#45;&gt;Node6 -->
<g id="edge5" class="edge"><title>Node2&#45;&gt;Node6</title>
<path fill="none" stroke="midnightblue" d="M867.717,-176.154C785.657,-173.679 571.457,-164.543 384.752,-132.033"/>
<polygon fill="midnightblue" stroke="midnightblue" points="385.214,-128.56 374.757,-130.265 383.995,-135.453 385.214,-128.56"/>
</g>
<!-- Node7 -->
<g id="node7" class="node"><title>Node7</title>
<polygon fill="white" stroke="#bfbfbf" points="392.5,-112.5 392.5,-131.5 455.5,-131.5 455.5,-112.5 392.5,-112.5"/>
<text text-anchor="middle" x="424" y="-119.5" font-family="Helvetica,sans-Serif" font-size="10.00">windows.h</text>
</g>
<!-- Node2&#45;&gt;Node7 -->
<g id="edge6" class="edge"><title>Node2&#45;&gt;Node7</title>
<path fill="none" stroke="midnightblue" d="M867.742,-174.873C795.291,-170.076 621.076,-156.969 465.996,-132.166"/>
<polygon fill="midnightblue" stroke="midnightblue" points="466.241,-128.661 455.81,-130.516 465.121,-135.57 466.241,-128.661"/>
</g>
<!-- Node8 -->
<g id="node8" class="node"><title>Node8</title>
<polygon fill="white" stroke="#bfbfbf" points="473.5,-112.5 473.5,-131.5 522.5,-131.5 522.5,-112.5 473.5,-112.5"/>
<text text-anchor="middle" x="498" y="-119.5" font-family="Helvetica,sans-Serif" font-size="10.00">stdint.h</text>
</g>
<!-- Node2&#45;&gt;Node8 -->
<g id="edge7" class="edge"><title>Node2&#45;&gt;Node8</title>
<path fill="none" stroke="midnightblue" d="M867.833,-174.428C803.944,-169.279 661.937,-156.229 532.852,-131.908"/>
<polygon fill="midnightblue" stroke="midnightblue" points="533.271,-128.425 522.792,-129.985 531.956,-135.301 533.271,-128.425"/>
</g>
<!-- Node9 -->
<g id="node9" class="node"><title>Node9</title>
<polygon fill="white" stroke="#bfbfbf" points="541,-112.5 541,-131.5 603,-131.5 603,-112.5 541,-112.5"/>
<text text-anchor="middle" x="572" y="-119.5" font-family="Helvetica,sans-Serif" font-size="10.00">type_traits</text>
</g>
<!-- Node2&#45;&gt;Node9 -->
<g id="edge8" class="edge"><title>Node2&#45;&gt;Node9</title>
<path fill="none" stroke="midnightblue" d="M867.941,-172.473C815.426,-165.329 711.314,-150.513 613.459,-132.177"/>
<polygon fill="midnightblue" stroke="midnightblue" points="613.877,-128.694 603.401,-130.275 612.577,-135.572 613.877,-128.694"/>
</g>
<!-- Node10 -->
<g id="node10" class="node"><title>Node10</title>
<polygon fill="white" stroke="#bfbfbf" points="621,-112.5 621,-131.5 661,-131.5 661,-112.5 621,-112.5"/>
<text text-anchor="middle" x="641" y="-119.5" font-family="Helvetica,sans-Serif" font-size="10.00">utility</text>
</g>
<!-- Node2&#45;&gt;Node10 -->
<g id="edge9" class="edge"><title>Node2&#45;&gt;Node10</title>
<path fill="none" stroke="midnightblue" d="M867.933,-171.592C824.432,-164.426 746.684,-150.744 671.333,-132.117"/>
<polygon fill="midnightblue" stroke="midnightblue" points="671.752,-128.614 661.202,-129.579 670.051,-135.404 671.752,-128.614"/>
</g>
<!-- Node11 -->
<g id="node11" class="node"><title>Node11</title>
<g id="a_node11"><a xlink:href="report_8hpp.html" target="_top" xlink:title="alib/core/report.hpp">
<polygon fill="white" stroke="black" points="679,-112.5 679,-131.5 779,-131.5 779,-112.5 679,-112.5"/>
<text text-anchor="middle" x="729" y="-119.5" font-family="Helvetica,sans-Serif" font-size="10.00">alib/core/report.hpp</text>
</a>
</g>
</g>
<!-- Node2&#45;&gt;Node11 -->
<g id="edge11" class="edge"><title>Node2&#45;&gt;Node11</title>
<path fill="none" stroke="midnightblue" d="M869.499,-168.444C838.402,-159.359 792.004,-144.939 761.061,-134.783"/>
<polygon fill="midnightblue" stroke="midnightblue" points="761.798,-131.34 751.204,-131.516 759.595,-137.985 761.798,-131.34"/>
</g>
<!-- Node12 -->
<g id="node12" class="node"><title>Node12</title>
<g id="a_node12"><a xlink:href="cstring_8hpp.html" target="_top" xlink:title="alib/strings/cstring.hpp">
<polygon fill="white" stroke="black" points="797.5,-112.5 797.5,-131.5 912.5,-131.5 912.5,-112.5 797.5,-112.5"/>
<text text-anchor="middle" x="855" y="-119.5" font-family="Helvetica,sans-Serif" font-size="10.00">alib/strings/cstring.hpp</text>
</a>
</g>
</g>
<!-- Node2&#45;&gt;Node12 -->
<g id="edge13" class="edge"><title>Node2&#45;&gt;Node12</title>
<path fill="none" stroke="midnightblue" d="M889.334,-168.324C881.083,-160.733 870.886,-149.482 863.546,-140.09"/>
<polygon fill="midnightblue" stroke="midnightblue" points="866.253,-137.862 857.54,-131.834 860.593,-141.979 866.253,-137.862"/>
</g>
<!-- Node15 -->
<g id="node15" class="node"><title>Node15</title>
<g id="a_node15"><a xlink:href="as_8hpp.html" target="_top" xlink:title="alib/strings/as.hpp">
<polygon fill="white" stroke="black" points="701,-56.5 701,-75.5 797,-75.5 797,-56.5 701,-56.5"/>
<text text-anchor="middle" x="749" y="-63.5" font-family="Helvetica,sans-Serif" font-size="10.00">alib/strings/as.hpp</text>
</a>
</g>
</g>
<!-- Node2&#45;&gt;Node15 -->
<g id="edge17" class="edge"><title>Node2&#45;&gt;Node15</title>
<path fill="none" stroke="midnightblue" d="M903.576,-168.108C910.49,-154.681 926.144,-129 913,-112 905.55,-102.365 842.185,-87.6251 796.356,-77.6644"/>
<polygon fill="midnightblue" stroke="midnightblue" points="797.094,-74.2431 786.58,-75.5529 795.616,-81.0853 797.094,-74.2431"/>
</g>
<!-- Node18 -->
<g id="node18" class="node"><title>Node18</title>
<g id="a_node18"><a xlink:href="ns__aworx_8hpp.html" target="_top" xlink:title="alib/core/ns_aworx.hpp">
<polygon fill="white" stroke="black" points="1369.5,-112.5 1369.5,-131.5 1486.5,-131.5 1486.5,-112.5 1369.5,-112.5"/>
<text text-anchor="middle" x="1428" y="-119.5" font-family="Helvetica,sans-Serif" font-size="10.00">alib/core/ns_aworx.hpp</text>
</a>
</g>
</g>
<!-- Node2&#45;&gt;Node18 -->
<g id="edge21" class="edge"><title>Node2&#45;&gt;Node18</title>
<path fill="none" stroke="midnightblue" d="M936.078,-173.428C1010.64,-166.19 1193.03,-149.025 1346,-132 1350.33,-131.518 1354.8,-131.005 1359.32,-130.477"/>
<polygon fill="midnightblue" stroke="midnightblue" points="1359.74,-133.953 1369.26,-129.306 1358.92,-127.001 1359.74,-133.953"/>
</g>
<!-- Node19 -->
<g id="node19" class="node"><title>Node19</title>
<g id="a_node19"><a xlink:href="namespace_8hpp.html" target="_top" xlink:title="alib/strings/namespace.hpp">
<polygon fill="white" stroke="black" points="1101,-112.5 1101,-131.5 1237,-131.5 1237,-112.5 1101,-112.5"/>
<text text-anchor="middle" x="1169" y="-119.5" font-family="Helvetica,sans-Serif" font-size="10.00">alib/strings/namespace.hpp</text>
</a>
</g>
</g>
<!-- Node2&#45;&gt;Node19 -->
<g id="edge23" class="edge"><title>Node2&#45;&gt;Node19</title>
<path fill="none" stroke="midnightblue" d="M936.168,-169.09C980.489,-159.678 1058.18,-143.929 1111.6,-133.502"/>
<polygon fill="midnightblue" stroke="midnightblue" points="1112.46,-136.9 1121.61,-131.556 1111.12,-130.029 1112.46,-136.9"/>
</g>
<!-- Node11&#45;&gt;Node2 -->
<g id="edge12" class="edge"><title>Node11&#45;&gt;Node2</title>
<path fill="none" stroke="midnightblue" d="M761.364,-131.516C792.416,-140.585 838.814,-155.004 869.803,-165.172"/>
<polygon fill="midnightblue" stroke="midnightblue" points="869.083,-168.621 879.676,-168.444 871.285,-161.976 869.083,-168.621"/>
</g>
<!-- Node12&#45;&gt;Node2 -->
<g id="edge14" class="edge"><title>Node12&#45;&gt;Node2</title>
<path fill="none" stroke="midnightblue" d="M867.748,-131.751C875.968,-139.327 886.098,-150.505 893.411,-159.855"/>
<polygon fill="midnightblue" stroke="midnightblue" points="890.688,-162.061 899.405,-168.083 896.346,-157.94 890.688,-162.061"/>
</g>
<!-- Node13 -->
<g id="node13" class="node"><title>Node13</title>
<polygon fill="white" stroke="#bfbfbf" points="637,-56.5 637,-75.5 683,-75.5 683,-56.5 637,-56.5"/>
<text text-anchor="middle" x="660" y="-63.5" font-family="Helvetica,sans-Serif" font-size="10.00">cstring</text>
</g>
<!-- Node12&#45;&gt;Node13 -->
<g id="edge15" class="edge"><title>Node12&#45;&gt;Node13</title>
<path fill="none" stroke="midnightblue" d="M823.739,-112.418C792.905,-103.942 744.169,-90.5173 692.99,-76.2667"/>
<polygon fill="midnightblue" stroke="midnightblue" points="693.641,-72.8148 683.068,-73.5022 691.762,-79.5579 693.641,-72.8148"/>
</g>
<!-- Node14 -->
<g id="node14" class="node"><title>Node14</title>
<polygon fill="white" stroke="#bfbfbf" points="579,-56.5 579,-75.5 619,-75.5 619,-56.5 579,-56.5"/>
<text text-anchor="middle" x="599" y="-63.5" font-family="Helvetica,sans-Serif" font-size="10.00">limits</text>
</g>
<!-- Node12&#45;&gt;Node14 -->
<g id="edge16" class="edge"><title>Node12&#45;&gt;Node14</title>
<path fill="none" stroke="midnightblue" d="M803.719,-112.424C759.742,-104.712 694.531,-92.4298 629.255,-76.1127"/>
<polygon fill="midnightblue" stroke="midnightblue" points="629.758,-72.6296 619.204,-73.5679 628.039,-79.4155 629.758,-72.6296"/>
</g>
<!-- Node15&#45;&gt;Node2 -->
<g id="edge18" class="edge"><title>Node15&#45;&gt;Node2</title>
<path fill="none" stroke="midnightblue" d="M797.186,-75.1173C848.422,-84.9519 922.885,-101.504 931,-112 941.987,-126.211 932.851,-146.488 921.741,-160.602"/>
<polygon fill="midnightblue" stroke="midnightblue" points="919.107,-158.297 915.108,-168.108 924.353,-162.932 919.107,-158.297"/>
</g>
<!-- Node16 -->
<g id="node16" class="node"><title>Node16</title>
<polygon fill="white" stroke="#bfbfbf" points="757.5,-0.5 757.5,-19.5 802.5,-19.5 802.5,-0.5 757.5,-0.5"/>
<text text-anchor="middle" x="780" y="-7.5" font-family="Helvetica,sans-Serif" font-size="10.00">iosfwd</text>
</g>
<!-- Node15&#45;&gt;Node16 -->
<g id="edge19" class="edge"><title>Node15&#45;&gt;Node16</title>
<path fill="none" stroke="midnightblue" d="M754.119,-56.083C758.408,-48.6127 764.658,-37.7244 769.942,-28.5199"/>
<polygon fill="midnightblue" stroke="midnightblue" points="773.033,-30.1662 774.976,-19.7511 766.962,-26.6811 773.033,-30.1662"/>
</g>
<!-- Node17 -->
<g id="node17" class="node"><title>Node17</title>
<polygon fill="white" stroke="#bfbfbf" points="852,-0.5 852,-19.5 898,-19.5 898,-0.5 852,-0.5"/>
<text text-anchor="middle" x="875" y="-7.5" font-family="Helvetica,sans-Serif" font-size="10.00">cctype</text>
</g>
<!-- Node15&#45;&gt;Node17 -->
<g id="edge20" class="edge"><title>Node15&#45;&gt;Node17</title>
<path fill="none" stroke="midnightblue" d="M768.965,-56.4435C789.609,-47.5961 822.063,-33.6875 845.632,-23.5865"/>
<polygon fill="midnightblue" stroke="midnightblue" points="847.316,-26.6727 855.128,-19.5164 844.558,-20.2387 847.316,-26.6727"/>
</g>
<!-- Node18&#45;&gt;Node2 -->
<g id="edge22" class="edge"><title>Node18&#45;&gt;Node2</title>
<path fill="none" stroke="midnightblue" d="M1369.39,-131.392C1367.58,-131.599 1365.78,-131.802 1364,-132 1211.09,-149.019 1028.78,-166.176 946.25,-173.42"/>
<polygon fill="midnightblue" stroke="midnightblue" points="945.877,-169.939 936.219,-174.294 946.485,-176.913 945.877,-169.939"/>
</g>
<!-- Node19&#45;&gt;Node2 -->
<g id="edge24" class="edge"><title>Node19&#45;&gt;Node2</title>
<path fill="none" stroke="midnightblue" d="M1131.64,-131.587C1082.83,-141.915 997.765,-159.108 945.93,-169.114"/>
<polygon fill="midnightblue" stroke="midnightblue" points="945.187,-165.692 936.026,-171.015 946.507,-172.567 945.187,-165.692"/>
</g>
<!-- Node20 -->
<g id="node20" class="node"><title>Node20</title>
<g id="a_node20"><a xlink:href="asterminatable_8hpp.html" target="_top" xlink:title="alib/strings/asterminatable.hpp">
<polygon fill="white" stroke="black" points="1107.5,-56.5 1107.5,-75.5 1256.5,-75.5 1256.5,-56.5 1107.5,-56.5"/>
<text text-anchor="middle" x="1182" y="-63.5" font-family="Helvetica,sans-Serif" font-size="10.00">alib/strings/asterminatable.hpp</text>
</a>
</g>
</g>
<!-- Node19&#45;&gt;Node20 -->
<g id="edge25" class="edge"><title>Node19&#45;&gt;Node20</title>
<path fill="none" stroke="midnightblue" d="M1171.15,-112.083C1172.87,-104.927 1175.35,-94.6353 1177.5,-85.6911"/>
<polygon fill="midnightblue" stroke="midnightblue" points="1180.96,-86.2925 1179.89,-75.7511 1174.15,-84.6541 1180.96,-86.2925"/>
</g>
<!-- Node21 -->
<g id="node21" class="node"><title>Node21</title>
<g id="a_node21"><a xlink:href="asliteral_8hpp.html" target="_top" xlink:title="alib/strings/asliteral.hpp">
<polygon fill="white" stroke="black" points="815.5,-56.5 815.5,-75.5 934.5,-75.5 934.5,-56.5 815.5,-56.5"/>
<text text-anchor="middle" x="875" y="-63.5" font-family="Helvetica,sans-Serif" font-size="10.00">alib/strings/asliteral.hpp</text>
</a>
</g>
</g>
<!-- Node19&#45;&gt;Node21 -->
<g id="edge27" class="edge"><title>Node19&#45;&gt;Node21</title>
<path fill="none" stroke="midnightblue" d="M1122.41,-112.444C1070.59,-102.925 986.868,-87.5472 931.385,-77.3563"/>
<polygon fill="midnightblue" stroke="midnightblue" points="931.835,-73.8806 921.367,-75.5164 930.57,-80.7654 931.835,-73.8806"/>
</g>
<!-- Node22 -->
<g id="node22" class="node"><title>Node22</title>
<g id="a_node22"><a xlink:href="asalloc_8hpp.html" target="_top" xlink:title="alib/strings/asalloc.hpp">
<polygon fill="white" stroke="red" points="1274,-56.5 1274,-75.5 1390,-75.5 1390,-56.5 1274,-56.5"/>
<text text-anchor="middle" x="1332" y="-63.5" font-family="Helvetica,sans-Serif" font-size="10.00">alib/strings/asalloc.hpp</text>
</a>
</g>
</g>
<!-- Node19&#45;&gt;Node22 -->
<g id="edge31" class="edge"><title>Node19&#45;&gt;Node22</title>
<path fill="none" stroke="midnightblue" d="M1194.83,-112.444C1222.25,-103.359 1265.78,-88.9388 1296.43,-78.7831"/>
<polygon fill="midnightblue" stroke="midnightblue" points="1297.9,-81.9837 1306.29,-75.5164 1295.7,-75.3389 1297.9,-81.9837"/>
</g>
<!-- Node23 -->
<g id="node23" class="node"><title>Node23</title>
<g id="a_node23"><a xlink:href="asprealloc_8hpp.html" target="_top" xlink:title="alib/strings/asprealloc.hpp">
<polygon fill="white" stroke="black" points="1408,-56.5 1408,-75.5 1538,-75.5 1538,-56.5 1408,-56.5"/>
<text text-anchor="middle" x="1473" y="-63.5" font-family="Helvetica,sans-Serif" font-size="10.00">alib/strings/asprealloc.hpp</text>
</a>
</g>
</g>
<!-- Node19&#45;&gt;Node23 -->
<g id="edge33" class="edge"><title>Node19&#45;&gt;Node23</title>
<path fill="none" stroke="midnightblue" d="M1217.17,-112.444C1270.87,-102.905 1357.69,-87.4834 1415.05,-77.293"/>
<polygon fill="midnightblue" stroke="midnightblue" points="1415.82,-80.7115 1425.06,-75.5164 1414.6,-73.8194 1415.82,-80.7115"/>
</g>
<!-- Node24 -->
<g id="node24" class="node"><title>Node24</title>
<g id="a_node24"><a xlink:href="applyto_8hpp.html" target="_top" xlink:title="alib/strings/applyto.hpp">
<polygon fill="white" stroke="black" points="1556.5,-56.5 1556.5,-75.5 1673.5,-75.5 1673.5,-56.5 1556.5,-56.5"/>
<text text-anchor="middle" x="1615" y="-63.5" font-family="Helvetica,sans-Serif" font-size="10.00">alib/strings/applyto.hpp</text>
</a>
</g>
</g>
<!-- Node19&#45;&gt;Node24 -->
<g id="edge35" class="edge"><title>Node19&#45;&gt;Node24</title>
<path fill="none" stroke="midnightblue" d="M1237.32,-113.139C1310.91,-104.611 1431.72,-90.4309 1546.39,-76.062"/>
<polygon fill="midnightblue" stroke="midnightblue" points="1546.91,-79.5239 1556.4,-74.8053 1546.04,-72.5784 1546.91,-79.5239"/>
</g>
<!-- Node25 -->
<g id="node25" class="node"><title>Node25</title>
<g id="a_node25"><a xlink:href="applyformat_8hpp.html" target="_top" xlink:title="alib/strings/applyformat.hpp">
<polygon fill="white" stroke="black" points="952.5,-56.5 952.5,-75.5 1089.5,-75.5 1089.5,-56.5 952.5,-56.5"/>
<text text-anchor="middle" x="1021" y="-63.5" font-family="Helvetica,sans-Serif" font-size="10.00">alib/strings/applyformat.hpp</text>
</a>
</g>
</g>
<!-- Node19&#45;&gt;Node25 -->
<g id="edge37" class="edge"><title>Node19&#45;&gt;Node25</title>
<path fill="none" stroke="midnightblue" d="M1145.55,-112.444C1120.87,-103.438 1081.81,-89.1891 1054.02,-79.049"/>
<polygon fill="midnightblue" stroke="midnightblue" points="1054.94,-75.6561 1044.34,-75.5164 1052.54,-82.2321 1054.94,-75.6561"/>
</g>
<!-- Node20&#45;&gt;Node2 -->
<g id="edge26" class="edge"><title>Node20&#45;&gt;Node2</title>
<path fill="none" stroke="midnightblue" d="M1160.13,-75.5914C1110.85,-94.9513 990.964,-142.05 933.599,-164.586"/>
<polygon fill="midnightblue" stroke="midnightblue" points="931.999,-161.454 923.971,-168.368 934.558,-167.97 931.999,-161.454"/>
</g>
<!-- Node21&#45;&gt;Node2 -->
<g id="edge28" class="edge"><title>Node21&#45;&gt;Node2</title>
<path fill="none" stroke="midnightblue" d="M918.067,-75.5139C938.396,-81.9259 960.823,-93.0089 973,-112 986.758,-133.456 958.922,-152.418 934.17,-164.241"/>
<polygon fill="midnightblue" stroke="midnightblue" points="932.602,-161.109 924.928,-168.413 935.482,-167.489 932.602,-161.109"/>
</g>
<!-- Node21&#45;&gt;Node16 -->
<g id="edge29" class="edge"><title>Node21&#45;&gt;Node16</title>
<path fill="none" stroke="midnightblue" d="M859.737,-56.324C844.779,-47.8215 821.745,-34.7288 804.273,-24.7975"/>
<polygon fill="midnightblue" stroke="midnightblue" points="805.649,-21.5534 795.226,-19.6545 802.19,-27.639 805.649,-21.5534"/>
</g>
<!-- Node21&#45;&gt;Node17 -->
<g id="edge30" class="edge"><title>Node21&#45;&gt;Node17</title>
<path fill="none" stroke="midnightblue" d="M875,-56.083C875,-49.0059 875,-38.8611 875,-29.9865"/>
<polygon fill="midnightblue" stroke="midnightblue" points="878.5,-29.751 875,-19.7511 871.5,-29.7511 878.5,-29.751"/>
</g>
<!-- Node22&#45;&gt;Node2 -->
<g id="edge32" class="edge"><title>Node22&#45;&gt;Node2</title>
<path fill="none" stroke="midnightblue" d="M1323.45,-75.9632C1309.02,-90.4732 1278.21,-118.809 1246,-132 1192.66,-153.843 1026.78,-168.179 946.462,-174.023"/>
<polygon fill="midnightblue" stroke="midnightblue" points="945.904,-170.554 936.18,-174.759 946.404,-177.536 945.904,-170.554"/>
</g>
<!-- Node23&#45;&gt;Node2 -->
<g id="edge34" class="edge"><title>Node23&#45;&gt;Node2</title>
<path fill="none" stroke="midnightblue" d="M1442.87,-75.5722C1413.2,-84.1808 1366.68,-98.1247 1327,-112 1304.02,-120.036 1299.61,-126.053 1276,-132 1159.28,-161.399 1017.07,-171.785 946.36,-175.301"/>
<polygon fill="midnightblue" stroke="midnightblue" points="945.872,-171.82 936.049,-175.79 946.203,-178.812 945.872,-171.82"/>
</g>
<!-- Node24&#45;&gt;Node2 -->
<g id="edge36" class="edge"><title>Node24&#45;&gt;Node2</title>
<path fill="none" stroke="midnightblue" d="M1557.8,-75.535C1494.57,-85.2519 1396.91,-101.177 1361,-112 1339.66,-118.433 1336.55,-126.283 1315,-132 1184,-166.755 1022.79,-174.734 946.305,-176.519"/>
<polygon fill="midnightblue" stroke="midnightblue" points="946.012,-173.024 936.087,-176.732 946.158,-180.023 946.012,-173.024"/>
</g>
<!-- Node25&#45;&gt;Node2 -->
<g id="edge38" class="edge"><title>Node25&#45;&gt;Node2</title>
<path fill="none" stroke="midnightblue" d="M1018.52,-75.6012C1014.25,-89.1019 1004.36,-115.433 988,-132 973.844,-146.331 954.157,-157.09 937.191,-164.488"/>
<polygon fill="midnightblue" stroke="midnightblue" points="935.485,-161.406 927.578,-168.458 938.157,-167.876 935.485,-161.406"/>
</g>
<!-- Node25&#45;&gt;Node17 -->
<g id="edge39" class="edge"><title>Node25&#45;&gt;Node17</title>
<path fill="none" stroke="midnightblue" d="M997.866,-56.4435C973.518,-47.4381 934.993,-33.1891 907.577,-23.049"/>
<polygon fill="midnightblue" stroke="midnightblue" points="908.619,-19.7028 898.026,-19.5164 906.191,-26.2681 908.619,-19.7028"/>
</g>
</g>
</svg>
