<?xml version="1.0" encoding="UTF-8" standalone="no"?>
<!DOCTYPE svg PUBLIC "-//W3C//DTD SVG 1.1//EN"
 "http://www.w3.org/Graphics/SVG/1.1/DTD/svg11.dtd">
<!-- Generated by graphviz version 2.40.1 (20161225.0304)
 -->
<!-- Title: formatterpythonstyle.hpp Pages: 1 -->
<svg width="561pt" height="196pt"
 viewBox="0.00 0.00 561.00 196.00" xmlns="http://www.w3.org/2000/svg" xmlns:xlink="http://www.w3.org/1999/xlink">
<g id="graph0" class="graph" transform="scale(1 1) rotate(0) translate(4 192)">
<title>formatterpythonstyle.hpp</title>
<polygon fill="#ffffff" stroke="transparent" points="-4,4 -4,-192 557,-192 557,4 -4,4"/>
<!-- Node0 -->
<g id="node1" class="node">
<title>Node0</title>
<polygon fill="#bfbfbf" stroke="#000000" points="92,-168.5 92,-187.5 217,-187.5 217,-168.5 92,-168.5"/>
<text text-anchor="middle" x="154.5" y="-175.5" font-family="Helvetica,sans-Serif" font-size="10.00" fill="#000000">formatterpythonstyle.hpp</text>
</g>
<!-- Node1 -->
<g id="node2" class="node">
<title>Node1</title>
<g id="a_node2"><a xlink:href="formatterstdimpl_8hpp.html" target="_top" xlink:title="alib/strings/format/formatterstdimpl.hpp">
<polygon fill="#ffffff" stroke="#000000" points="133,-112.5 133,-131.5 320,-131.5 320,-112.5 133,-112.5"/>
<text text-anchor="middle" x="226.5" y="-119.5" font-family="Helvetica,sans-Serif" font-size="10.00" fill="#000000">alib/strings/format/formatterstdimpl.hpp</text>
</a>
</g>
</g>
<!-- Node0&#45;&gt;Node1 -->
<g id="edge1" class="edge">
<title>Node0&#45;&gt;Node1</title>
<path fill="none" stroke="#191970" d="M167.0414,-168.2455C177.7787,-159.8943 193.4473,-147.7076 206.0047,-137.9408"/>
<polygon fill="#191970" stroke="#191970" points="208.3575,-140.5449 214.1023,-131.6427 204.0599,-135.0194 208.3575,-140.5449"/>
</g>
<!-- Node48 -->
<g id="node3" class="node">
<title>Node48</title>
<g id="a_node3"><a xlink:href="autosizes_8hpp.html" target="_top" xlink:title="alib/strings/util/autosizes.hpp">
<polygon fill="#ffffff" stroke="#000000" points="0,-56.5 0,-75.5 143,-75.5 143,-56.5 0,-56.5"/>
<text text-anchor="middle" x="71.5" y="-63.5" font-family="Helvetica,sans-Serif" font-size="10.00" fill="#000000">alib/strings/util/autosizes.hpp</text>
</a>
</g>
</g>
<!-- Node0&#45;&gt;Node48 -->
<g id="edge2" class="edge">
<title>Node0&#45;&gt;Node48</title>
<path fill="none" stroke="#191970" d="M147.4235,-168.4509C133.5188,-149.688 102.4433,-107.7548 84.6599,-83.758"/>
<polygon fill="#191970" stroke="#191970" points="87.3247,-81.4753 78.5586,-75.5249 81.7006,-85.6431 87.3247,-81.4753"/>
</g>
<!-- Node2 -->
<g id="node4" class="node">
<title>Node2</title>
<g id="a_node4"><a xlink:href="formatter_8hpp.html" target="_top" xlink:title="alib/strings/format/formatter.hpp">
<polygon fill="#ffffff" stroke="#000000" points="161,-56.5 161,-75.5 316,-75.5 316,-56.5 161,-56.5"/>
<text text-anchor="middle" x="238.5" y="-63.5" font-family="Helvetica,sans-Serif" font-size="10.00" fill="#000000">alib/strings/format/formatter.hpp</text>
</a>
</g>
</g>
<!-- Node1&#45;&gt;Node2 -->
<g id="edge3" class="edge">
<title>Node1&#45;&gt;Node2</title>
<path fill="none" stroke="#191970" d="M228.5902,-112.2455C230.1561,-104.9382 232.3512,-94.6944 234.2776,-85.7046"/>
<polygon fill="#191970" stroke="#191970" points="237.7607,-86.1541 236.4337,-75.6427 230.916,-84.6873 237.7607,-86.1541"/>
</g>
<!-- Node3 -->
<g id="node5" class="node">
<title>Node3</title>
<polygon fill="#ffffff" stroke="#bfbfbf" points="49.5,-.5 49.5,-19.5 93.5,-19.5 93.5,-.5 49.5,-.5"/>
<text text-anchor="middle" x="71.5" y="-7.5" font-family="Helvetica,sans-Serif" font-size="10.00" fill="#000000">vector</text>
</g>
<!-- Node48&#45;&gt;Node3 -->
<g id="edge8" class="edge">
<title>Node48&#45;&gt;Node3</title>
<path fill="none" stroke="#191970" d="M71.5,-56.2455C71.5,-48.9382 71.5,-38.6944 71.5,-29.7046"/>
<polygon fill="#191970" stroke="#191970" points="75.0001,-29.6426 71.5,-19.6427 68.0001,-29.6427 75.0001,-29.6426"/>
</g>
<!-- Node2&#45;&gt;Node3 -->
<g id="edge4" class="edge">
<title>Node2&#45;&gt;Node3</title>
<path fill="none" stroke="#191970" d="M209.7917,-56.3733C180.2153,-46.4554 134.2182,-31.0313 103.4917,-20.7278"/>
<polygon fill="#191970" stroke="#191970" points="104.2965,-17.3062 93.7026,-17.4452 102.071,-23.943 104.2965,-17.3062"/>
</g>
<!-- Node4 -->
<g id="node6" class="node">
<title>Node4</title>
<g id="a_node6"><a xlink:href="threadlock_8hpp.html" target="_top" xlink:title="alib/threads/threadlock.hpp">
<polygon fill="#ffffff" stroke="#ff0000" points="111.5,-.5 111.5,-19.5 245.5,-19.5 245.5,-.5 111.5,-.5"/>
<text text-anchor="middle" x="178.5" y="-7.5" font-family="Helvetica,sans-Serif" font-size="10.00" fill="#000000">alib/threads/threadlock.hpp</text>
</a>
</g>
</g>
<!-- Node2&#45;&gt;Node4 -->
<g id="edge5" class="edge">
<title>Node2&#45;&gt;Node4</title>
<path fill="none" stroke="#191970" d="M228.0488,-56.2455C219.2731,-48.0549 206.5446,-36.1749 196.186,-26.5069"/>
<polygon fill="#191970" stroke="#191970" points="198.5301,-23.9072 188.8314,-19.6427 193.7539,-29.0246 198.5301,-23.9072"/>
</g>
<!-- Node46 -->
<g id="node7" class="node">
<title>Node46</title>
<g id="a_node7"><a xlink:href="numberformat_8hpp.html" target="_top" xlink:title="alib/strings/numberformat.hpp">
<polygon fill="#ffffff" stroke="#000000" points="263.5,-.5 263.5,-19.5 409.5,-19.5 409.5,-.5 263.5,-.5"/>
<text text-anchor="middle" x="336.5" y="-7.5" font-family="Helvetica,sans-Serif" font-size="10.00" fill="#000000">alib/strings/numberformat.hpp</text>
</a>
</g>
</g>
<!-- Node2&#45;&gt;Node46 -->
<g id="edge6" class="edge">
<title>Node2&#45;&gt;Node46</title>
<path fill="none" stroke="#191970" d="M255.5703,-56.2455C270.747,-47.5731 293.1621,-34.7645 310.5563,-24.825"/>
<polygon fill="#191970" stroke="#191970" points="312.6794,-27.643 319.6253,-19.6427 309.2064,-21.5653 312.6794,-27.643"/>
</g>
<!-- Node47 -->
<g id="node8" class="node">
<title>Node47</title>
<g id="a_node8"><a xlink:href="substring_8hpp.html" target="_top" xlink:title="alib/strings/substring.hpp">
<polygon fill="#ffffff" stroke="#000000" points="428,-.5 428,-19.5 553,-19.5 553,-.5 428,-.5"/>
<text text-anchor="middle" x="490.5" y="-7.5" font-family="Helvetica,sans-Serif" font-size="10.00" fill="#000000">alib/strings/substring.hpp</text>
</a>
</g>
</g>
<!-- Node2&#45;&gt;Node47 -->
<g id="edge7" class="edge">
<title>Node2&#45;&gt;Node47</title>
<path fill="none" stroke="#191970" d="M281.534,-56.4369C324.7525,-46.8328 391.4141,-32.0191 437.7818,-21.7152"/>
<polygon fill="#191970" stroke="#191970" points="438.6409,-25.1097 447.6435,-19.5237 437.1223,-18.2764 438.6409,-25.1097"/>
</g>
</g>
</svg>
