<?xml version="1.0" encoding="UTF-8" standalone="no"?>
<!DOCTYPE svg PUBLIC "-//W3C//DTD SVG 1.1//EN"
 "http://www.w3.org/Graphics/SVG/1.1/DTD/svg11.dtd">
<!-- Generated by graphviz version 2.40.1 (20161225.0304)
 -->
<!-- Title: formatterjavastyle.hpp Pages: 1 -->
<svg width="573pt" height="252pt"
 viewBox="0.00 0.00 573.00 252.00" xmlns="http://www.w3.org/2000/svg" xmlns:xlink="http://www.w3.org/1999/xlink">
<g id="graph0" class="graph" transform="scale(1 1) rotate(0) translate(4 248)">
<title>formatterjavastyle.hpp</title>
<polygon fill="#ffffff" stroke="transparent" points="-4,4 -4,-248 569,-248 569,4 -4,4"/>
<!-- Node50 -->
<g id="node1" class="node">
<title>Node50</title>
<polygon fill="#bfbfbf" stroke="#000000" points="320,-224.5 320,-243.5 433,-243.5 433,-224.5 320,-224.5"/>
<text text-anchor="middle" x="376.5" y="-231.5" font-family="Helvetica,sans-Serif" font-size="10.00" fill="#000000">formatterjavastyle.hpp</text>
</g>
<!-- Node51 -->
<g id="node2" class="node">
<title>Node51</title>
<g id="a_node2"><a xlink:href="textlogger_8hpp.html" target="_top" xlink:title="textlogger.hpp">
<polygon fill="#ffffff" stroke="#000000" points="338,-168.5 338,-187.5 415,-187.5 415,-168.5 338,-168.5"/>
<text text-anchor="middle" x="376.5" y="-175.5" font-family="Helvetica,sans-Serif" font-size="10.00" fill="#000000">textlogger.hpp</text>
</a>
</g>
</g>
<!-- Node50&#45;&gt;Node51 -->
<g id="edge1" class="edge">
<title>Node50&#45;&gt;Node51</title>
<path fill="none" stroke="#191970" d="M376.5,-214.1575C376.5,-205.155 376.5,-194.9199 376.5,-187.6427"/>
<polygon fill="#191970" stroke="#191970" points="373.0001,-214.2455 376.5,-224.2455 380.0001,-214.2456 373.0001,-214.2455"/>
</g>
<!-- Node52 -->
<g id="node3" class="node">
<title>Node52</title>
<g id="a_node3"><a xlink:href="plaintextlogger_8hpp.html" target="_top" xlink:title="plaintextlogger.hpp">
<polygon fill="#ffffff" stroke="#000000" points="220.5,-112.5 220.5,-131.5 318.5,-131.5 318.5,-112.5 220.5,-112.5"/>
<text text-anchor="middle" x="269.5" y="-119.5" font-family="Helvetica,sans-Serif" font-size="10.00" fill="#000000">plaintextlogger.hpp</text>
</a>
</g>
</g>
<!-- Node51&#45;&gt;Node52 -->
<g id="edge2" class="edge">
<title>Node51&#45;&gt;Node52</title>
<path fill="none" stroke="#191970" d="M348.9801,-163.5971C329.7983,-153.558 304.7322,-140.4393 287.9244,-131.6427"/>
<polygon fill="#191970" stroke="#191970" points="347.3791,-166.7095 357.862,-168.2455 350.625,-160.5075 347.3791,-166.7095"/>
</g>
<!-- Node58 -->
<g id="node4" class="node">
<title>Node58</title>
<g id="a_node4"><a xlink:href="ansilogger_8hpp.html" target="_top" xlink:title="ansilogger.hpp">
<polygon fill="#ffffff" stroke="#000000" points="337,-112.5 337,-131.5 416,-131.5 416,-112.5 337,-112.5"/>
<text text-anchor="middle" x="376.5" y="-119.5" font-family="Helvetica,sans-Serif" font-size="10.00" fill="#000000">ansilogger.hpp</text>
</a>
</g>
</g>
<!-- Node51&#45;&gt;Node58 -->
<g id="edge3" class="edge">
<title>Node51&#45;&gt;Node58</title>
<path fill="none" stroke="#191970" d="M376.5,-158.1575C376.5,-149.155 376.5,-138.9199 376.5,-131.6427"/>
<polygon fill="#191970" stroke="#191970" points="373.0001,-158.2455 376.5,-168.2455 380.0001,-158.2456 373.0001,-158.2455"/>
</g>
<!-- Node59 -->
<g id="node5" class="node">
<title>Node59</title>
<g id="a_node5"><a xlink:href="windowsconsolelogger_8hpp.html" target="_top" xlink:title="windowsconsolelogger.hpp">
<polygon fill="#ffffff" stroke="#000000" points="434,-112.5 434,-131.5 565,-131.5 565,-112.5 434,-112.5"/>
<text text-anchor="middle" x="499.5" y="-119.5" font-family="Helvetica,sans-Serif" font-size="10.00" fill="#000000">windowsconsolelogger.hpp</text>
</a>
</g>
</g>
<!-- Node51&#45;&gt;Node59 -->
<g id="edge4" class="edge">
<title>Node51&#45;&gt;Node59</title>
<path fill="none" stroke="#191970" d="M407.0065,-164.1109C429.3112,-153.9559 458.9799,-140.4482 478.6315,-131.5011"/>
<polygon fill="#191970" stroke="#191970" points="405.2953,-161.0442 397.6445,-168.3733 408.1959,-167.415 405.2953,-161.0442"/>
</g>
<!-- Node53 -->
<g id="node6" class="node">
<title>Node53</title>
<g id="a_node6"><a xlink:href="consolelogger_8hpp.html" target="_top" xlink:title="consolelogger.hpp">
<polygon fill="#ffffff" stroke="#000000" points="0,-56.5 0,-75.5 95,-75.5 95,-56.5 0,-56.5"/>
<text text-anchor="middle" x="47.5" y="-63.5" font-family="Helvetica,sans-Serif" font-size="10.00" fill="#000000">consolelogger.hpp</text>
</a>
</g>
</g>
<!-- Node52&#45;&gt;Node53 -->
<g id="edge5" class="edge">
<title>Node52&#45;&gt;Node53</title>
<path fill="none" stroke="#191970" d="M221.8572,-109.982C181.0097,-99.6781 122.9525,-85.0331 85.2546,-75.5237"/>
<polygon fill="#191970" stroke="#191970" points="221.0367,-113.3846 231.5891,-112.4369 222.7489,-106.5972 221.0367,-113.3846"/>
</g>
<!-- Node55 -->
<g id="node7" class="node">
<title>Node55</title>
<g id="a_node7"><a xlink:href="memorylogger_8hpp.html" target="_top" xlink:title="memorylogger.hpp">
<polygon fill="#ffffff" stroke="#000000" points="113.5,-56.5 113.5,-75.5 209.5,-75.5 209.5,-56.5 113.5,-56.5"/>
<text text-anchor="middle" x="161.5" y="-63.5" font-family="Helvetica,sans-Serif" font-size="10.00" fill="#000000">memorylogger.hpp</text>
</a>
</g>
</g>
<!-- Node52&#45;&gt;Node55 -->
<g id="edge6" class="edge">
<title>Node52&#45;&gt;Node55</title>
<path fill="none" stroke="#191970" d="M241.7229,-107.5971C222.3618,-97.558 197.0615,-84.4393 180.0966,-75.6427"/>
<polygon fill="#191970" stroke="#191970" points="240.1992,-110.7495 250.6878,-112.2455 243.4214,-104.5352 240.1992,-110.7495"/>
</g>
<!-- Node56 -->
<g id="node8" class="node">
<title>Node56</title>
<g id="a_node8"><a xlink:href="textfilelogger_8hpp.html" target="_top" xlink:title="textfilelogger.hpp">
<polygon fill="#ffffff" stroke="#000000" points="227.5,-56.5 227.5,-75.5 317.5,-75.5 317.5,-56.5 227.5,-56.5"/>
<text text-anchor="middle" x="272.5" y="-63.5" font-family="Helvetica,sans-Serif" font-size="10.00" fill="#000000">textfilelogger.hpp</text>
</a>
</g>
</g>
<!-- Node52&#45;&gt;Node56 -->
<g id="edge7" class="edge">
<title>Node52&#45;&gt;Node56</title>
<path fill="none" stroke="#191970" d="M270.563,-102.1575C271.0453,-93.155 271.5936,-82.9199 271.9834,-75.6427"/>
<polygon fill="#191970" stroke="#191970" points="267.0626,-102.0726 270.0226,-112.2455 274.0526,-102.4471 267.0626,-102.0726"/>
</g>
<!-- Node57 -->
<g id="node9" class="node">
<title>Node57</title>
<g id="a_node9"><a xlink:href="vstudiologger_8hpp.html" target="_top" xlink:title="vstudiologger.hpp">
<polygon fill="#ffffff" stroke="#000000" points="335.5,-56.5 335.5,-75.5 427.5,-75.5 427.5,-56.5 335.5,-56.5"/>
<text text-anchor="middle" x="381.5" y="-63.5" font-family="Helvetica,sans-Serif" font-size="10.00" fill="#000000">vstudiologger.hpp</text>
</a>
</g>
</g>
<!-- Node52&#45;&gt;Node57 -->
<g id="edge8" class="edge">
<title>Node52&#45;&gt;Node57</title>
<path fill="none" stroke="#191970" d="M297.8263,-107.8368C318.0721,-97.7139 344.7642,-84.3679 362.4978,-75.5011"/>
<polygon fill="#191970" stroke="#191970" points="296.1325,-104.7706 288.7535,-112.3733 299.263,-111.0316 296.1325,-104.7706"/>
</g>
<!-- Node54 -->
<g id="node10" class="node">
<title>Node54</title>
<g id="a_node10"><a xlink:href="alox__console__loggers_8hpp.html" target="_top" xlink:title="alox_console_loggers.hpp">
<polygon fill="#ffffff" stroke="#000000" points="354,-.5 354,-19.5 483,-19.5 483,-.5 354,-.5"/>
<text text-anchor="middle" x="418.5" y="-7.5" font-family="Helvetica,sans-Serif" font-size="10.00" fill="#000000">alox_console_loggers.hpp</text>
</a>
</g>
</g>
<!-- Node58&#45;&gt;Node54 -->
<g id="edge11" class="edge">
<title>Node58&#45;&gt;Node54</title>
<path fill="none" stroke="#191970" d="M406.0593,-107.1349C417.7938,-99.5543 430.0207,-89.1319 436.5,-76 445.7492,-57.2544 433.7729,-33.0887 425.3845,-19.8157"/>
<polygon fill="#191970" stroke="#191970" points="404.0756,-104.2428 397.2852,-112.3756 407.6652,-110.2525 404.0756,-104.2428"/>
</g>
<!-- Node59&#45;&gt;Node54 -->
<g id="edge12" class="edge">
<title>Node59&#45;&gt;Node54</title>
<path fill="none" stroke="#191970" d="M486.6941,-103.8348C477.2922,-90.543 464.1787,-72.0965 452.5,-56 443.4022,-43.4607 432.7669,-29.1221 425.8462,-19.8335"/>
<polygon fill="#191970" stroke="#191970" points="483.9188,-105.9723 492.5469,-112.1211 489.6364,-101.9339 483.9188,-105.9723"/>
</g>
<!-- Node53&#45;&gt;Node54 -->
<g id="edge9" class="edge">
<title>Node53&#45;&gt;Node54</title>
<path fill="none" stroke="#191970" d="M105.156,-55.9308C197.543,-41.1474 292.4598,-27.5296 353.7708,-18.939"/>
<polygon fill="#191970" stroke="#191970" points="104.3871,-52.5093 95.0689,-57.5512 105.4974,-59.4207 104.3871,-52.5093"/>
</g>
<!-- Node57&#45;&gt;Node54 -->
<g id="edge10" class="edge">
<title>Node57&#45;&gt;Node54</title>
<path fill="none" stroke="#191970" d="M393.6376,-47.6296C399.8093,-38.2887 407.0566,-27.3197 412.1289,-19.6427"/>
<polygon fill="#191970" stroke="#191970" points="390.5373,-45.9728 387.9449,-56.2455 396.3777,-49.8316 390.5373,-45.9728"/>
</g>
</g>
</svg>
