<?xml version="1.0" encoding="UTF-8" standalone="no"?>
<!DOCTYPE svg PUBLIC "-//W3C//DTD SVG 1.1//EN"
 "http://www.w3.org/Graphics/SVG/1.1/DTD/svg11.dtd">
<!-- Generated by graphviz version 2.40.1 (20161225.0304)
 -->
<!-- Title: formatterstdimpl.hpp Pages: 1 -->
<svg width="353pt" height="196pt"
 viewBox="0.00 0.00 352.50 196.00" xmlns="http://www.w3.org/2000/svg" xmlns:xlink="http://www.w3.org/1999/xlink">
<g id="graph0" class="graph" transform="scale(1 1) rotate(0) translate(4 192)">
<title>formatterstdimpl.hpp</title>
<polygon fill="#ffffff" stroke="transparent" points="-4,4 -4,-192 348.5,-192 348.5,4 -4,4"/>
<!-- Node63 -->
<g id="node1" class="node">
<title>Node63</title>
<polygon fill="#bfbfbf" stroke="#000000" points="151,-168.5 151,-187.5 257,-187.5 257,-168.5 151,-168.5"/>
<text text-anchor="middle" x="204" y="-175.5" font-family="Helvetica,sans-Serif" font-size="10.00" fill="#000000">formatterstdimpl.hpp</text>
</g>
<!-- Node64 -->
<g id="node2" class="node">
<title>Node64</title>
<g id="a_node2"><a xlink:href="formatterjavastyle_8hpp.html" target="_top" xlink:title="formatterjavastyle.hpp">
<polygon fill="#ffffff" stroke="#000000" points="79.5,-112.5 79.5,-131.5 192.5,-131.5 192.5,-112.5 79.5,-112.5"/>
<text text-anchor="middle" x="136" y="-119.5" font-family="Helvetica,sans-Serif" font-size="10.00" fill="#000000">formatterjavastyle.hpp</text>
</a>
</g>
</g>
<!-- Node63&#45;&gt;Node64 -->
<g id="edge1" class="edge">
<title>Node63&#45;&gt;Node64</title>
<path fill="none" stroke="#191970" d="M184.1404,-161.645C172.3142,-151.9058 157.7108,-139.8795 147.709,-131.6427"/>
<polygon fill="#191970" stroke="#191970" points="182.211,-164.5902 192.1553,-168.2455 186.661,-159.1867 182.211,-164.5902"/>
</g>
<!-- Node74 -->
<g id="node3" class="node">
<title>Node74</title>
<g id="a_node3"><a xlink:href="formatterpythonstyle_8hpp.html" target="_top" xlink:title="formatterpythonstyle.hpp">
<polygon fill="#ffffff" stroke="#000000" points="210.5,-112.5 210.5,-131.5 335.5,-131.5 335.5,-112.5 210.5,-112.5"/>
<text text-anchor="middle" x="273" y="-119.5" font-family="Helvetica,sans-Serif" font-size="10.00" fill="#000000">formatterpythonstyle.hpp</text>
</a>
</g>
</g>
<!-- Node63&#45;&gt;Node74 -->
<g id="edge2" class="edge">
<title>Node63&#45;&gt;Node74</title>
<path fill="none" stroke="#191970" d="M223.803,-161.928C235.8636,-152.1397 250.8714,-139.9595 261.1188,-131.6427"/>
<polygon fill="#191970" stroke="#191970" points="221.5779,-159.2262 216.0189,-168.2455 225.9891,-164.6614 221.5779,-159.2262"/>
</g>
<!-- Node65 -->
<g id="node4" class="node">
<title>Node65</title>
<g id="a_node4"><a xlink:href="textlogger_8hpp.html" target="_top" xlink:title="textlogger.hpp">
<polygon fill="#ffffff" stroke="#000000" points="117.5,-56.5 117.5,-75.5 194.5,-75.5 194.5,-56.5 117.5,-56.5"/>
<text text-anchor="middle" x="156" y="-63.5" font-family="Helvetica,sans-Serif" font-size="10.00" fill="#000000">textlogger.hpp</text>
</a>
</g>
</g>
<!-- Node64&#45;&gt;Node65 -->
<g id="edge3" class="edge">
<title>Node64&#45;&gt;Node65</title>
<path fill="none" stroke="#191970" d="M142.8753,-102.7493C146.1406,-93.6064 149.9001,-83.0798 152.5562,-75.6427"/>
<polygon fill="#191970" stroke="#191970" points="139.5511,-101.6509 139.4837,-112.2455 146.1433,-104.0053 139.5511,-101.6509"/>
</g>
<!-- Node74&#45;&gt;Node65 -->
<g id="edge7" class="edge">
<title>Node74&#45;&gt;Node65</title>
<path fill="none" stroke="#191970" d="M243.6958,-107.9741C222.512,-97.8348 194.4597,-84.408 175.8506,-75.5011"/>
<polygon fill="#191970" stroke="#191970" points="242.3559,-111.2129 252.887,-112.3733 245.378,-104.8989 242.3559,-111.2129"/>
</g>
<!-- Node75 -->
<g id="node8" class="node">
<title>Node75</title>
<g id="a_node8"><a xlink:href="simpletext_8hpp.html" target="_top" xlink:title="simpletext.hpp">
<polygon fill="#ffffff" stroke="#000000" points="233,-56.5 233,-75.5 313,-75.5 313,-56.5 233,-56.5"/>
<text text-anchor="middle" x="273" y="-63.5" font-family="Helvetica,sans-Serif" font-size="10.00" fill="#000000">simpletext.hpp</text>
</a>
</g>
</g>
<!-- Node74&#45;&gt;Node75 -->
<g id="edge8" class="edge">
<title>Node74&#45;&gt;Node75</title>
<path fill="none" stroke="#191970" d="M273,-102.1575C273,-93.155 273,-82.9199 273,-75.6427"/>
<polygon fill="#191970" stroke="#191970" points="269.5001,-102.2455 273,-112.2455 276.5001,-102.2456 269.5001,-102.2455"/>
</g>
<!-- Node66 -->
<g id="node5" class="node">
<title>Node66</title>
<g id="a_node5"><a xlink:href="plaintextlogger_8hpp.html" target="_top" xlink:title="plaintextlogger.hpp">
<polygon fill="#ffffff" stroke="#ff0000" points="0,-.5 0,-19.5 98,-19.5 98,-.5 0,-.5"/>
<text text-anchor="middle" x="49" y="-7.5" font-family="Helvetica,sans-Serif" font-size="10.00" fill="#000000">plaintextlogger.hpp</text>
</a>
</g>
</g>
<!-- Node65&#45;&gt;Node66 -->
<g id="edge4" class="edge">
<title>Node65&#45;&gt;Node66</title>
<path fill="none" stroke="#191970" d="M128.4801,-51.5971C109.2983,-41.558 84.2322,-28.4393 67.4244,-19.6427"/>
<polygon fill="#191970" stroke="#191970" points="126.8791,-54.7095 137.362,-56.2455 130.125,-48.5075 126.8791,-54.7095"/>
</g>
<!-- Node72 -->
<g id="node6" class="node">
<title>Node72</title>
<g id="a_node6"><a xlink:href="ansilogger_8hpp.html" target="_top" xlink:title="ansilogger.hpp">
<polygon fill="#ffffff" stroke="#ff0000" points="116.5,-.5 116.5,-19.5 195.5,-19.5 195.5,-.5 116.5,-.5"/>
<text text-anchor="middle" x="156" y="-7.5" font-family="Helvetica,sans-Serif" font-size="10.00" fill="#000000">ansilogger.hpp</text>
</a>
</g>
</g>
<!-- Node65&#45;&gt;Node72 -->
<g id="edge5" class="edge">
<title>Node65&#45;&gt;Node72</title>
<path fill="none" stroke="#191970" d="M156,-46.1575C156,-37.155 156,-26.9199 156,-19.6427"/>
<polygon fill="#191970" stroke="#191970" points="152.5001,-46.2455 156,-56.2455 159.5001,-46.2456 152.5001,-46.2455"/>
</g>
<!-- Node73 -->
<g id="node7" class="node">
<title>Node73</title>
<g id="a_node7"><a xlink:href="windowsconsolelogger_8hpp.html" target="_top" xlink:title="windowsconsolelogger.hpp">
<polygon fill="#ffffff" stroke="#ff0000" points="213.5,-.5 213.5,-19.5 344.5,-19.5 344.5,-.5 213.5,-.5"/>
<text text-anchor="middle" x="279" y="-7.5" font-family="Helvetica,sans-Serif" font-size="10.00" fill="#000000">windowsconsolelogger.hpp</text>
</a>
</g>
</g>
<!-- Node65&#45;&gt;Node73 -->
<g id="edge6" class="edge">
<title>Node65&#45;&gt;Node73</title>
<path fill="none" stroke="#191970" d="M186.5065,-52.1109C208.8112,-41.9559 238.4799,-28.4482 258.1315,-19.5011"/>
<polygon fill="#191970" stroke="#191970" points="184.7953,-49.0442 177.1445,-56.3733 187.6959,-55.415 184.7953,-49.0442"/>
</g>
</g>
</svg>
