<?xml version="1.0" encoding="UTF-8" standalone="no"?>
<!DOCTYPE svg PUBLIC "-//W3C//DTD SVG 1.1//EN"
 "http://www.w3.org/Graphics/SVG/1.1/DTD/svg11.dtd">
<!-- Generated by graphviz version 2.40.1 (20161225.0304)
 -->
<!-- Title: formatterpythonstyle.hpp Pages: 1 -->
<svg width="654pt" height="196pt"
 viewBox="0.00 0.00 654.00 196.00" xmlns="http://www.w3.org/2000/svg" xmlns:xlink="http://www.w3.org/1999/xlink">
<g id="graph0" class="graph" transform="scale(1 1) rotate(0) translate(4 192)">
<title>formatterpythonstyle.hpp</title>
<polygon fill="#ffffff" stroke="transparent" points="-4,4 -4,-192 650,-192 650,4 -4,4"/>
<!-- Node0 -->
<g id="node1" class="node">
<title>Node0</title>
<polygon fill="#bfbfbf" stroke="#000000" points="92,-168.5 92,-187.5 217,-187.5 217,-168.5 92,-168.5"/>
<text text-anchor="middle" x="154.5" y="-175.5" font-family="Helvetica,sans-Serif" font-size="10.00" fill="#000000">formatterpythonstyle.hpp</text>
</g>
<!-- Node1 -->
<g id="node2" class="node">
<title>Node1</title>
<g id="a_node2"><a xlink:href="formatterstdimpl_8hpp.html" target="_top" xlink:title="alib/strings/format/formatterstdimpl.hpp">
<polygon fill="#ffffff" stroke="#000000" points="133,-112.5 133,-131.5 320,-131.5 320,-112.5 133,-112.5"/>
<text text-anchor="middle" x="226.5" y="-119.5" font-family="Helvetica,sans-Serif" font-size="10.00" fill="#000000">alib/strings/format/formatterstdimpl.hpp</text>
</a>
</g>
</g>
<!-- Node0&#45;&gt;Node1 -->
<g id="edge1" class="edge">
<title>Node0&#45;&gt;Node1</title>
<path fill="none" stroke="#191970" d="M167.0414,-168.2455C177.7787,-159.8943 193.4473,-147.7076 206.0047,-137.9408"/>
<polygon fill="#191970" stroke="#191970" points="208.3575,-140.5449 214.1023,-131.6427 204.0599,-135.0194 208.3575,-140.5449"/>
</g>
<!-- Node64 -->
<g id="node3" class="node">
<title>Node64</title>
<g id="a_node3"><a xlink:href="autosizes_8hpp.html" target="_top" xlink:title="alib/strings/util/autosizes.hpp">
<polygon fill="#ffffff" stroke="#000000" points="0,-56.5 0,-75.5 143,-75.5 143,-56.5 0,-56.5"/>
<text text-anchor="middle" x="71.5" y="-63.5" font-family="Helvetica,sans-Serif" font-size="10.00" fill="#000000">alib/strings/util/autosizes.hpp</text>
</a>
</g>
</g>
<!-- Node0&#45;&gt;Node64 -->
<g id="edge2" class="edge">
<title>Node0&#45;&gt;Node64</title>
<path fill="none" stroke="#191970" d="M147.4235,-168.4509C133.5188,-149.688 102.4433,-107.7548 84.6599,-83.758"/>
<polygon fill="#191970" stroke="#191970" points="87.3247,-81.4753 78.5586,-75.5249 81.7006,-85.6431 87.3247,-81.4753"/>
</g>
<!-- Node2 -->
<g id="node4" class="node">
<title>Node2</title>
<g id="a_node4"><a xlink:href="formatter_8hpp.html" target="_top" xlink:title="alib/strings/format/formatter.hpp">
<polygon fill="#ffffff" stroke="#000000" points="182,-56.5 182,-75.5 337,-75.5 337,-56.5 182,-56.5"/>
<text text-anchor="middle" x="259.5" y="-63.5" font-family="Helvetica,sans-Serif" font-size="10.00" fill="#000000">alib/strings/format/formatter.hpp</text>
</a>
</g>
</g>
<!-- Node1&#45;&gt;Node2 -->
<g id="edge3" class="edge">
<title>Node1&#45;&gt;Node2</title>
<path fill="none" stroke="#191970" d="M232.2482,-112.2455C236.7435,-104.617 243.1248,-93.7881 248.5825,-84.5267"/>
<polygon fill="#191970" stroke="#191970" points="251.7561,-86.035 253.8177,-75.6427 245.7253,-82.4811 251.7561,-86.035"/>
</g>
<!-- Node3 -->
<g id="node5" class="node">
<title>Node3</title>
<polygon fill="#ffffff" stroke="#bfbfbf" points="8.5,-.5 8.5,-19.5 52.5,-19.5 52.5,-.5 8.5,-.5"/>
<text text-anchor="middle" x="30.5" y="-7.5" font-family="Helvetica,sans-Serif" font-size="10.00" fill="#000000">vector</text>
</g>
<!-- Node64&#45;&gt;Node3 -->
<g id="edge9" class="edge">
<title>Node64&#45;&gt;Node3</title>
<path fill="none" stroke="#191970" d="M64.3583,-56.2455C58.6556,-48.4564 50.51,-37.3308 43.6375,-27.9439"/>
<polygon fill="#191970" stroke="#191970" points="46.2913,-25.6437 37.5598,-19.6427 40.6432,-29.7789 46.2913,-25.6437"/>
</g>
<!-- Node2&#45;&gt;Node3 -->
<g id="edge4" class="edge">
<title>Node2&#45;&gt;Node3</title>
<path fill="none" stroke="#191970" d="M213.613,-56.4811C175.51,-48.3207 119.7112,-35.7815 62.6892,-20.174"/>
<polygon fill="#191970" stroke="#191970" points="63.3548,-16.7268 52.7837,-17.4348 61.489,-23.4736 63.3548,-16.7268"/>
</g>
<!-- Node4 -->
<g id="node6" class="node">
<title>Node4</title>
<g id="a_node6"><a xlink:href="threadlock_8hpp.html" target="_top" xlink:title="alib/threads/threadlock.hpp">
<polygon fill="#ffffff" stroke="#ff0000" points="70.5,-.5 70.5,-19.5 204.5,-19.5 204.5,-.5 70.5,-.5"/>
<text text-anchor="middle" x="137.5" y="-7.5" font-family="Helvetica,sans-Serif" font-size="10.00" fill="#000000">alib/threads/threadlock.hpp</text>
</a>
</g>
</g>
<!-- Node2&#45;&gt;Node4 -->
<g id="edge5" class="edge">
<title>Node2&#45;&gt;Node4</title>
<path fill="none" stroke="#191970" d="M238.5275,-56.3733C218.9433,-47.3838 189.5039,-33.8706 167.449,-23.7471"/>
<polygon fill="#191970" stroke="#191970" points="168.7473,-20.4919 158.1989,-19.5011 165.8271,-26.8538 168.7473,-20.4919"/>
</g>
<!-- Node50 -->
<g id="node7" class="node">
<title>Node50</title>
<g id="a_node7"><a xlink:href="exception_8hpp.html" target="_top" xlink:title="alib/lang/exception.hpp">
<polygon fill="#ffffff" stroke="#ff0000" points="222.5,-.5 222.5,-19.5 338.5,-19.5 338.5,-.5 222.5,-.5"/>
<text text-anchor="middle" x="280.5" y="-7.5" font-family="Helvetica,sans-Serif" font-size="10.00" fill="#000000">alib/lang/exception.hpp</text>
</a>
</g>
</g>
<!-- Node2&#45;&gt;Node50 -->
<g id="edge6" class="edge">
<title>Node2&#45;&gt;Node50</title>
<path fill="none" stroke="#191970" d="M263.1579,-56.2455C265.9584,-48.7776 269.909,-38.2427 273.3324,-29.1137"/>
<polygon fill="#191970" stroke="#191970" points="276.6499,-30.2349 276.884,-19.6427 270.0955,-27.777 276.6499,-30.2349"/>
</g>
<!-- Node62 -->
<g id="node8" class="node">
<title>Node62</title>
<g id="a_node8"><a xlink:href="numberformat_8hpp.html" target="_top" xlink:title="alib/strings/numberformat.hpp">
<polygon fill="#ffffff" stroke="#000000" points="356.5,-.5 356.5,-19.5 502.5,-19.5 502.5,-.5 356.5,-.5"/>
<text text-anchor="middle" x="429.5" y="-7.5" font-family="Helvetica,sans-Serif" font-size="10.00" fill="#000000">alib/strings/numberformat.hpp</text>
</a>
</g>
</g>
<!-- Node2&#45;&gt;Node62 -->
<g id="edge7" class="edge">
<title>Node2&#45;&gt;Node62</title>
<path fill="none" stroke="#191970" d="M288.724,-56.3733C316.9925,-47.0613 359.9965,-32.8953 391.0344,-22.671"/>
<polygon fill="#191970" stroke="#191970" points="392.2544,-25.9542 400.6573,-19.5011 390.0643,-19.3056 392.2544,-25.9542"/>
</g>
<!-- Node63 -->
<g id="node9" class="node">
<title>Node63</title>
<g id="a_node9"><a xlink:href="substring_8hpp.html" target="_top" xlink:title="alib/strings/substring.hpp">
<polygon fill="#ffffff" stroke="#ff0000" points="521,-.5 521,-19.5 646,-19.5 646,-.5 521,-.5"/>
<text text-anchor="middle" x="583.5" y="-7.5" font-family="Helvetica,sans-Serif" font-size="10.00" fill="#000000">alib/strings/substring.hpp</text>
</a>
</g>
</g>
<!-- Node2&#45;&gt;Node63 -->
<g id="edge8" class="edge">
<title>Node2&#45;&gt;Node63</title>
<path fill="none" stroke="#191970" d="M314.8294,-56.4369C371.2115,-46.6918 458.6258,-31.5832 518.327,-21.2645"/>
<polygon fill="#191970" stroke="#191970" points="519.141,-24.6758 528.3988,-19.5237 517.9487,-17.778 519.141,-24.6758"/>
</g>
</g>
</svg>
