<?xml version="1.0" encoding="UTF-8" standalone="no"?>
<!DOCTYPE svg PUBLIC "-//W3C//DTD SVG 1.1//EN"
 "http://www.w3.org/Graphics/SVG/1.1/DTD/svg11.dtd">
<!-- Generated by graphviz version 2.38.0 (20140413.2041)
 -->
<!-- Title: Graphical Class Hierarchy Pages: 1 -->
<svg width="241pt" height="176pt"
 viewBox="0.00 0.00 241.00 176.00" xmlns="http://www.w3.org/2000/svg" xmlns:xlink="http://www.w3.org/1999/xlink">
<g id="graph0" class="graph" transform="scale(1 1) rotate(0) translate(4 172)">
<title>Graphical Class Hierarchy</title>
<polygon fill="white" stroke="none" points="-4,4 -4,-172 237,-172 237,4 -4,4"/>
<!-- Node1 -->
<g id="node1" class="node"><title>Node1</title>
<polygon fill="white" stroke="#bfbfbf" points="0,-77 0,-96 57,-96 57,-77 0,-77"/>
<text text-anchor="middle" x="28.5" y="-84" font-family="Helvetica,sans-Serif" font-size="10.00">true_type</text>
</g>
<!-- Node2 -->
<g id="node2" class="node"><title>Node2</title>
<g id="a_node2"><a xlink:href="structaworx_1_1lib_1_1strings_1_1IsApplicable_3_01const_01std_1_1string_01_6_01_4.html" target="_top" xlink:title="IsApplicable\&lt; const\l std::string &amp; \&gt;">
<polygon fill="white" stroke="black" points="111.5,-137.5 111.5,-167.5 214.5,-167.5 214.5,-137.5 111.5,-137.5"/>
<text text-anchor="start" x="119.5" y="-155.5" font-family="Helvetica,sans-Serif" font-size="10.00">IsApplicable&lt; const</text>
<text text-anchor="middle" x="163" y="-144.5" font-family="Helvetica,sans-Serif" font-size="10.00"> std::string &amp; &gt;</text>
</a>
</g>
</g>
<!-- Node1&#45;&gt;Node2 -->
<g id="edge1" class="edge"><title>Node1&#45;&gt;Node2</title>
<path fill="none" stroke="midnightblue" d="M51.0206,-102.131C62.9916,-110.374 78.3861,-120.251 93,-127.5 100.191,-131.067 108.021,-134.392 115.741,-137.379"/>
<polygon fill="midnightblue" stroke="midnightblue" points="52.7976,-99.1022 42.6033,-96.2166 48.7731,-104.83 52.7976,-99.1022"/>
</g>
<!-- Node3 -->
<g id="node3" class="node"><title>Node3</title>
<g id="a_node3"><a xlink:href="structaworx_1_1lib_1_1strings_1_1IsTerminatable_3_01ASAlloc_01_4.html" target="_top" xlink:title="IsTerminatable\&lt; ASAlloc \&gt;">
<polygon fill="white" stroke="black" points="96,-99 96,-118 230,-118 230,-99 96,-99"/>
<text text-anchor="middle" x="163" y="-106" font-family="Helvetica,sans-Serif" font-size="10.00">IsTerminatable&lt; ASAlloc &gt;</text>
</a>
</g>
</g>
<!-- Node1&#45;&gt;Node3 -->
<g id="edge2" class="edge"><title>Node1&#45;&gt;Node3</title>
<path fill="none" stroke="midnightblue" d="M67.4962,-92.8088C79.12,-94.7388 92.1718,-96.9059 104.779,-98.9992"/>
<polygon fill="midnightblue" stroke="midnightblue" points="67.7146,-89.2972 57.2763,-91.1119 66.568,-96.2027 67.7146,-89.2972"/>
</g>
<!-- Node4 -->
<g id="node4" class="node"><title>Node4</title>
<g id="a_node4"><a xlink:href="structaworx_1_1lib_1_1strings_1_1IsTerminatable_3_01ASPreAlloc_3_01TCapacity_01_4_01_4.html" target="_top" xlink:title="IsTerminatable\&lt; ASPreAlloc\l\&lt; TCapacity \&gt; \&gt;">
<polygon fill="white" stroke="black" points="93,-49.5 93,-79.5 233,-79.5 233,-49.5 93,-49.5"/>
<text text-anchor="start" x="101" y="-67.5" font-family="Helvetica,sans-Serif" font-size="10.00">IsTerminatable&lt; ASPreAlloc</text>
<text text-anchor="middle" x="163" y="-56.5" font-family="Helvetica,sans-Serif" font-size="10.00">&lt; TCapacity &gt; &gt;</text>
</a>
</g>
</g>
<!-- Node1&#45;&gt;Node4 -->
<g id="edge3" class="edge"><title>Node1&#45;&gt;Node4</title>
<path fill="none" stroke="midnightblue" d="M67.3437,-80.2165C75.3394,-78.8889 84.016,-77.4483 92.7622,-75.9961"/>
<polygon fill="midnightblue" stroke="midnightblue" points="66.568,-76.7973 57.2763,-81.8881 67.7146,-83.7028 66.568,-76.7973"/>
</g>
<!-- Node5 -->
<g id="node5" class="node"><title>Node5</title>
<g id="a_node5"><a xlink:href="structaworx_1_1lib_1_1strings_1_1ToASDefined_3_01const_01std_1_1string_01_6_01_4.html" target="_top" xlink:title="ToASDefined\&lt; const\l std::string &amp; \&gt;">
<polygon fill="white" stroke="black" points="109,-0.5 109,-30.5 217,-30.5 217,-0.5 109,-0.5"/>
<text text-anchor="start" x="117" y="-18.5" font-family="Helvetica,sans-Serif" font-size="10.00">ToASDefined&lt; const</text>
<text text-anchor="middle" x="163" y="-7.5" font-family="Helvetica,sans-Serif" font-size="10.00"> std::string &amp; &gt;</text>
</a>
</g>
</g>
<!-- Node1&#45;&gt;Node5 -->
<g id="edge4" class="edge"><title>Node1&#45;&gt;Node5</title>
<path fill="none" stroke="midnightblue" d="M48.5951,-70.4927C60.7434,-60.8747 77.1259,-48.9113 93,-40.5 99.8676,-36.861 107.38,-33.5368 114.84,-30.5839"/>
<polygon fill="midnightblue" stroke="midnightblue" points="46.1327,-67.9831 40.5654,-76.9973 50.5389,-73.4224 46.1327,-67.9831"/>
</g>
</g>
</svg>
