<?xml version="1.0" encoding="UTF-8" standalone="no"?>
<!DOCTYPE svg PUBLIC "-//W3C//DTD SVG 1.1//EN"
 "http://www.w3.org/Graphics/SVG/1.1/DTD/svg11.dtd">
<!-- Generated by graphviz version 2.40.1 (20161225.0304)
 -->
<!-- Title: Graphical Class Hierarchy Pages: 1 -->
<svg width="311pt" height="104pt"
 viewBox="0.00 0.00 311.00 104.00" xmlns="http://www.w3.org/2000/svg" xmlns:xlink="http://www.w3.org/1999/xlink">
<g id="graph0" class="graph" transform="scale(1 1) rotate(0) translate(4 100)">
<title>Graphical Class Hierarchy</title>
<polygon fill="#ffffff" stroke="transparent" points="-4,4 -4,-100 307,-100 307,4 -4,4"/>
<!-- Node0 -->
<g id="node1" class="node">
<title>Node0</title>
<g id="a_node1"><a xlink:href="classaworx_1_1lib_1_1config_1_1ConfigurationPlugin.html" target="_top" xlink:title="ConfigurationPlugin">
<polygon fill="#ffffff" stroke="#000000" points="0,-38.5 0,-57.5 101,-57.5 101,-38.5 0,-38.5"/>
<text text-anchor="middle" x="50.5" y="-45.5" font-family="Helvetica,sans-Serif" font-size="10.00" fill="#000000">ConfigurationPlugin</text>
</a>
</g>
</g>
<!-- Node1 -->
<g id="node2" class="node">
<title>Node1</title>
<g id="a_node2"><a xlink:href="classaworx_1_1lib_1_1config_1_1CLIArgs.html" target="_top" xlink:title="CLIArgs">
<polygon fill="#ffffff" stroke="#000000" points="154.5,-76.5 154.5,-95.5 206.5,-95.5 206.5,-76.5 154.5,-76.5"/>
<text text-anchor="middle" x="180.5" y="-83.5" font-family="Helvetica,sans-Serif" font-size="10.00" fill="#000000">CLIArgs</text>
</a>
</g>
</g>
<!-- Node0&#45;&gt;Node1 -->
<g id="edge1" class="edge">
<title>Node0&#45;&gt;Node1</title>
<path fill="none" stroke="#191970" d="M92.9189,-60.3994C113.1311,-66.3076 136.6698,-73.1881 154.2512,-78.3273"/>
<polygon fill="#191970" stroke="#191970" points="93.8848,-57.0353 83.3045,-57.589 91.9208,-63.7542 93.8848,-57.0353"/>
</g>
<!-- Node2 -->
<g id="node3" class="node">
<title>Node2</title>
<g id="a_node3"><a xlink:href="classaworx_1_1lib_1_1config_1_1Environment.html" target="_top" xlink:title="Environment">
<polygon fill="#ffffff" stroke="#000000" points="145,-38.5 145,-57.5 216,-57.5 216,-38.5 145,-38.5"/>
<text text-anchor="middle" x="180.5" y="-45.5" font-family="Helvetica,sans-Serif" font-size="10.00" fill="#000000">Environment</text>
</a>
</g>
</g>
<!-- Node0&#45;&gt;Node2 -->
<g id="edge2" class="edge">
<title>Node0&#45;&gt;Node2</title>
<path fill="none" stroke="#191970" d="M111.1381,-48C122.6172,-48 134.2784,-48 144.6812,-48"/>
<polygon fill="#191970" stroke="#191970" points="111.1337,-44.5001 101.1336,-48 111.1336,-51.5001 111.1337,-44.5001"/>
</g>
<!-- Node3 -->
<g id="node4" class="node">
<title>Node3</title>
<g id="a_node4"><a xlink:href="classaworx_1_1lib_1_1config_1_1InMemoryPlugin.html" target="_top" xlink:title="InMemoryPlugin">
<polygon fill="#ffffff" stroke="#000000" points="137,-.5 137,-19.5 224,-19.5 224,-.5 137,-.5"/>
<text text-anchor="middle" x="180.5" y="-7.5" font-family="Helvetica,sans-Serif" font-size="10.00" fill="#000000">InMemoryPlugin</text>
</a>
</g>
</g>
<!-- Node0&#45;&gt;Node3 -->
<g id="edge3" class="edge">
<title>Node0&#45;&gt;Node3</title>
<path fill="none" stroke="#191970" d="M93.3839,-35.4647C111.0689,-30.2952 131.2337,-24.4009 147.706,-19.5859"/>
<polygon fill="#191970" stroke="#191970" points="91.9208,-32.2458 83.3045,-38.411 93.8848,-38.9647 91.9208,-32.2458"/>
</g>
<!-- Node4 -->
<g id="node5" class="node">
<title>Node4</title>
<g id="a_node5"><a xlink:href="classaworx_1_1lib_1_1config_1_1IniFile.html" target="_top" xlink:title="IniFile">
<polygon fill="#ffffff" stroke="#000000" points="260,-.5 260,-19.5 303,-19.5 303,-.5 260,-.5"/>
<text text-anchor="middle" x="281.5" y="-7.5" font-family="Helvetica,sans-Serif" font-size="10.00" fill="#000000">IniFile</text>
</a>
</g>
</g>
<!-- Node3&#45;&gt;Node4 -->
<g id="edge4" class="edge">
<title>Node3&#45;&gt;Node4</title>
<path fill="none" stroke="#191970" d="M234.4208,-10C243.462,-10 252.3564,-10 259.9375,-10"/>
<polygon fill="#191970" stroke="#191970" points="234.2127,-6.5001 224.2126,-10 234.2126,-13.5001 234.2127,-6.5001"/>
</g>
</g>
</svg>
