<?xml version="1.0" encoding="UTF-8" standalone="no"?>
<!DOCTYPE svg PUBLIC "-//W3C//DTD SVG 1.1//EN"
 "http://www.w3.org/Graphics/SVG/1.1/DTD/svg11.dtd">
<!-- Generated by graphviz version 2.40.1 (20161225.0304)
 -->
<!-- Title: Graphical Class Hierarchy Pages: 1 -->
<svg width="475pt" height="788pt"
 viewBox="0.00 0.00 475.00 788.00" xmlns="http://www.w3.org/2000/svg" xmlns:xlink="http://www.w3.org/1999/xlink">
<g id="graph0" class="graph" transform="scale(1 1) rotate(0) translate(4 784)">
<title>Graphical Class Hierarchy</title>
<polygon fill="#ffffff" stroke="transparent" points="-4,4 -4,-784 471,-784 471,4 -4,4"/>
<!-- Node273 -->
<g id="node1" class="node">
<title>Node273</title>
<g id="a_node1"><a xlink:href="classaworx_1_1lib_1_1boxing_1_1Boxer.html" target="_top" xlink:title="Boxer">
<polygon fill="#ffffff" stroke="#000000" points="136.5,-741.5 136.5,-760.5 178.5,-760.5 178.5,-741.5 136.5,-741.5"/>
<text text-anchor="middle" x="157.5" y="-748.5" font-family="Helvetica,sans-Serif" font-size="10.00" fill="#000000">Boxer</text>
</a>
</g>
</g>
<!-- Node1 -->
<g id="node2" class="node">
<title>Node1</title>
<g id="a_node2"><a xlink:href="classaworx_1_1lib_1_1boxing_1_1ArrayBoxerT.html" target="_top" xlink:title="ArrayBoxerT\&lt;TElementType\&gt;">
<polygon fill="#ffffff" stroke="#000000" points="290.5,-760.5 290.5,-779.5 436.5,-779.5 436.5,-760.5 290.5,-760.5"/>
<text text-anchor="middle" x="363.5" y="-767.5" font-family="Helvetica,sans-Serif" font-size="10.00" fill="#000000">ArrayBoxerT&lt;TElementType&gt;</text>
</a>
</g>
</g>
<!-- Node273&#45;&gt;Node1 -->
<g id="edge48" class="edge">
<title>Node273&#45;&gt;Node1</title>
<path fill="none" stroke="#191970" d="M188.7554,-753.8828C215.6587,-756.3641 255.537,-760.0422 290.4077,-763.2585"/>
<polygon fill="#191970" stroke="#191970" points="189.0489,-750.3951 178.7697,-752.9618 188.406,-757.3655 189.0489,-750.3951"/>
</g>
<!-- Node2 -->
<g id="node3" class="node">
<title>Node2</title>
<g id="a_node3"><a xlink:href="classaworx_1_1lib_1_1boxing_1_1BoxerT.html" target="_top" xlink:title="BoxerT\&lt;TBoxable\&gt;">
<polygon fill="#ffffff" stroke="#000000" points="313,-722.5 313,-741.5 414,-741.5 414,-722.5 313,-722.5"/>
<text text-anchor="middle" x="363.5" y="-729.5" font-family="Helvetica,sans-Serif" font-size="10.00" fill="#000000">BoxerT&lt;TBoxable&gt;</text>
</a>
</g>
</g>
<!-- Node273&#45;&gt;Node2 -->
<g id="edge49" class="edge">
<title>Node273&#45;&gt;Node2</title>
<path fill="none" stroke="#191970" d="M189.1485,-748.081C222.0493,-745.0464 274.0458,-740.2506 312.7046,-736.685"/>
<polygon fill="#191970" stroke="#191970" points="188.406,-744.6345 178.7697,-749.0382 189.0489,-751.6049 188.406,-744.6345"/>
</g>
<!-- Node11 -->
<g id="node4" class="node">
<title>Node11</title>
<g id="a_node4"><a xlink:href="classaworx_1_1lib_1_1boxing_1_1IEquals__TComparable.html" target="_top" xlink:title="IEquals_TComparable\&lt;TComparable\&gt;">
<polygon fill="#ffffff" stroke="#000000" points="272.5,-304.5 272.5,-323.5 454.5,-323.5 454.5,-304.5 272.5,-304.5"/>
<text text-anchor="middle" x="363.5" y="-311.5" font-family="Helvetica,sans-Serif" font-size="10.00" fill="#000000">IEquals_TComparable&lt;TComparable&gt;</text>
</a>
</g>
</g>
<!-- Node13 -->
<g id="node5" class="node">
<title>Node13</title>
<g id="a_node5"><a xlink:href="classaworx_1_1lib_1_1strings_1_1boxing_1_1IApply__BoxedAs__TApplicable.html" target="_top" xlink:title="IApply_BoxedAs_TApplicable\&lt;TApplicable\&gt;">
<polygon fill="#ffffff" stroke="#000000" points="260,-532.5 260,-551.5 467,-551.5 467,-532.5 260,-532.5"/>
<text text-anchor="middle" x="363.5" y="-539.5" font-family="Helvetica,sans-Serif" font-size="10.00" fill="#000000">IApply_BoxedAs_TApplicable&lt;TApplicable&gt;</text>
</a>
</g>
</g>
<!-- Node14 -->
<g id="node6" class="node">
<title>Node14</title>
<g id="a_node6"><a xlink:href="classaworx_1_1lib_1_1strings_1_1boxing_1_1IApply__TApplicable.html" target="_top" xlink:title="IApply_TApplicable\&lt;TApplicable\&gt;">
<polygon fill="#ffffff" stroke="#000000" points="282.5,-494.5 282.5,-513.5 444.5,-513.5 444.5,-494.5 282.5,-494.5"/>
<text text-anchor="middle" x="363.5" y="-501.5" font-family="Helvetica,sans-Serif" font-size="10.00" fill="#000000">IApply_TApplicable&lt;TApplicable&gt;</text>
</a>
</g>
</g>
<!-- Node0 -->
<g id="node7" class="node">
<title>Node0</title>
<g id="a_node7"><a xlink:href="classaworx_1_1lib_1_1lang_1_1Singleton.html" target="_top" xlink:title="Singleton\&lt;TDerivedClass\&gt;">
<polygon fill="#ffffff" stroke="#000000" points="91,-380.5 91,-399.5 224,-399.5 224,-380.5 91,-380.5"/>
<text text-anchor="middle" x="157.5" y="-387.5" font-family="Helvetica,sans-Serif" font-size="10.00" fill="#000000">Singleton&lt;TDerivedClass&gt;</text>
</a>
</g>
</g>
<!-- Node0&#45;&gt;Node1 -->
<g id="edge1" class="edge">
<title>Node0&#45;&gt;Node1</title>
<path fill="none" stroke="#191970" d="M220.7564,-405.5969C221.9018,-406.6604 222.9863,-407.7933 224,-409 322.3085,-526.0275 156.1477,-638.863 260,-751 268.1309,-759.7795 278.8765,-765.3102 290.3667,-768.6798"/>
<polygon fill="#191970" stroke="#191970" points="222.565,-402.5848 212.4174,-399.5387 218.4506,-408.248 222.565,-402.5848"/>
</g>
<!-- Node0&#45;&gt;Node2 -->
<g id="edge2" class="edge">
<title>Node0&#45;&gt;Node2</title>
<path fill="none" stroke="#191970" d="M220.7353,-405.6148C221.887,-406.673 222.9785,-407.7999 224,-409 312.1875,-512.6049 166.906,-613.7805 260,-713 273.4379,-727.3221 293.8406,-732.9662 312.9893,-734.695"/>
<polygon fill="#191970" stroke="#191970" points="222.5242,-402.5899 212.365,-399.5831 218.4318,-408.269 222.5242,-402.5899"/>
</g>
<!-- Node0&#45;&gt;Node11 -->
<g id="edge11" class="edge">
<title>Node0&#45;&gt;Node11</title>
<path fill="none" stroke="#191970" d="M179.8341,-374.7576C199.9437,-361.7374 230.7494,-343.4964 260,-333 270.7471,-329.1434 282.4157,-326.0375 293.9153,-323.5455"/>
<polygon fill="#191970" stroke="#191970" points="177.8122,-371.8984 171.3912,-380.3259 181.6662,-377.7419 177.8122,-371.8984"/>
</g>
<!-- Node0&#45;&gt;Node13 -->
<g id="edge13" class="edge">
<title>Node0&#45;&gt;Node13</title>
<path fill="none" stroke="#191970" d="M219.261,-404.9843C220.9289,-406.2199 222.5154,-407.5558 224,-409 262.0852,-446.049 220.1679,-487.8359 260,-523 264.2457,-526.7481 268.9808,-529.8671 274.0245,-532.4543"/>
<polygon fill="#191970" stroke="#191970" points="220.7092,-401.7706 210.338,-399.6053 217.0952,-407.7656 220.7092,-401.7706"/>
</g>
<!-- Node0&#45;&gt;Node14 -->
<g id="edge14" class="edge">
<title>Node0&#45;&gt;Node14</title>
<path fill="none" stroke="#191970" d="M217.5999,-404.3448C219.8504,-405.754 221.9968,-407.3012 224,-409 252.5054,-433.174 230.359,-462.2326 260,-485 266.6646,-490.1191 274.2759,-494.012 282.2785,-496.9541"/>
<polygon fill="#191970" stroke="#191970" points="218.9678,-401.1101 208.4861,-399.5657 215.7169,-407.3095 218.9678,-401.1101"/>
</g>
<!-- Node3 -->
<g id="node8" class="node">
<title>Node3</title>
<g id="a_node8"><a xlink:href="classaworx_1_1lib_1_1boxing_1_1ftypes_1_1IEquals__Tchar16__tArr.html" target="_top" xlink:title="IEquals_Tchar16_tArr">
<polygon fill="#ffffff" stroke="#000000" points="308.5,-266.5 308.5,-285.5 418.5,-285.5 418.5,-266.5 308.5,-266.5"/>
<text text-anchor="middle" x="363.5" y="-273.5" font-family="Helvetica,sans-Serif" font-size="10.00" fill="#000000">IEquals_Tchar16_tArr</text>
</a>
</g>
</g>
<!-- Node0&#45;&gt;Node3 -->
<g id="edge3" class="edge">
<title>Node0&#45;&gt;Node3</title>
<path fill="none" stroke="#191970" d="M170.993,-372.4585C188.8439,-350.5909 222.4658,-313.807 260,-295 274.8633,-287.5525 292.2378,-282.9989 308.4601,-280.2229"/>
<polygon fill="#191970" stroke="#191970" points="168.2386,-370.2989 164.7457,-380.3014 173.7139,-374.6603 168.2386,-370.2989"/>
</g>
<!-- Node4 -->
<g id="node9" class="node">
<title>Node4</title>
<g id="a_node9"><a xlink:href="classaworx_1_1lib_1_1boxing_1_1ftypes_1_1IEquals__Tchar32__tArr.html" target="_top" xlink:title="IEquals_Tchar32_tArr">
<polygon fill="#ffffff" stroke="#000000" points="308.5,-228.5 308.5,-247.5 418.5,-247.5 418.5,-228.5 308.5,-228.5"/>
<text text-anchor="middle" x="363.5" y="-235.5" font-family="Helvetica,sans-Serif" font-size="10.00" fill="#000000">IEquals_Tchar32_tArr</text>
</a>
</g>
</g>
<!-- Node0&#45;&gt;Node4 -->
<g id="edge4" class="edge">
<title>Node0&#45;&gt;Node4</title>
<path fill="none" stroke="#191970" d="M174.1202,-372.5975C188.094,-357.6032 208.2523,-335.1034 224,-314 241.9195,-289.9861 235.1781,-273.7825 260,-257 274.1507,-247.4325 291.7712,-242.3192 308.4394,-239.6828"/>
<polygon fill="#191970" stroke="#191970" points="171.3651,-370.4179 167.0605,-380.0989 176.4627,-375.2153 171.3651,-370.4179"/>
</g>
<!-- Node5 -->
<g id="node10" class="node">
<title>Node5</title>
<g id="a_node10"><a xlink:href="classaworx_1_1lib_1_1boxing_1_1ftypes_1_1IEquals__TcharArr.html" target="_top" xlink:title="IEquals_TcharArr">
<polygon fill="#ffffff" stroke="#000000" points="317.5,-190.5 317.5,-209.5 409.5,-209.5 409.5,-190.5 317.5,-190.5"/>
<text text-anchor="middle" x="363.5" y="-197.5" font-family="Helvetica,sans-Serif" font-size="10.00" fill="#000000">IEquals_TcharArr</text>
</a>
</g>
</g>
<!-- Node0&#45;&gt;Node5 -->
<g id="edge5" class="edge">
<title>Node0&#45;&gt;Node5</title>
<path fill="none" stroke="#191970" d="M175.7431,-372.8602C190.3715,-358.3218 210.6024,-336.3238 224,-314 247.2348,-275.2849 225.3225,-247.9169 260,-219 275.7847,-205.8374 297.684,-200.5743 317.2753,-198.8096"/>
<polygon fill="#191970" stroke="#191970" points="173.0017,-370.644 168.2716,-380.1244 177.8813,-375.6629 173.0017,-370.644"/>
</g>
<!-- Node6 -->
<g id="node11" class="node">
<title>Node6</title>
<g id="a_node11"><a xlink:href="classaworx_1_1lib_1_1boxing_1_1ftypes_1_1IEquals__Tdouble.html" target="_top" xlink:title="IEquals_Tdouble">
<polygon fill="#ffffff" stroke="#000000" points="319,-152.5 319,-171.5 408,-171.5 408,-152.5 319,-152.5"/>
<text text-anchor="middle" x="363.5" y="-159.5" font-family="Helvetica,sans-Serif" font-size="10.00" fill="#000000">IEquals_Tdouble</text>
</a>
</g>
</g>
<!-- Node0&#45;&gt;Node6 -->
<g id="edge6" class="edge">
<title>Node0&#45;&gt;Node6</title>
<path fill="none" stroke="#191970" d="M176.3294,-373.1928C191.3022,-358.8499 211.7106,-336.9526 224,-314 252.906,-260.0133 214.9432,-222.4729 260,-181 275.6595,-166.5861 298.5009,-161.3562 318.7445,-159.9366"/>
<polygon fill="#191970" stroke="#191970" points="173.5864,-370.9647 168.6564,-380.3427 178.3586,-376.086 173.5864,-370.9647"/>
</g>
<!-- Node7 -->
<g id="node12" class="node">
<title>Node7</title>
<g id="a_node12"><a xlink:href="classaworx_1_1lib_1_1boxing_1_1ftypes_1_1IEquals__Twchar__tArr.html" target="_top" xlink:title="IEquals_Twchar_tArr">
<polygon fill="#ffffff" stroke="#000000" points="310,-342.5 310,-361.5 417,-361.5 417,-342.5 310,-342.5"/>
<text text-anchor="middle" x="363.5" y="-349.5" font-family="Helvetica,sans-Serif" font-size="10.00" fill="#000000">IEquals_Twchar_tArr</text>
</a>
</g>
</g>
<!-- Node0&#45;&gt;Node7 -->
<g id="edge7" class="edge">
<title>Node0&#45;&gt;Node7</title>
<path fill="none" stroke="#191970" d="M219.011,-378.5801C232.5147,-376.078 246.7391,-373.4462 260,-371 276.7981,-367.9013 295.1322,-364.5315 311.6395,-361.5021"/>
<polygon fill="#191970" stroke="#191970" points="218.0476,-375.1989 208.853,-380.4629 219.3234,-382.0817 218.0476,-375.1989"/>
</g>
<!-- Node8 -->
<g id="node13" class="node">
<title>Node8</title>
<g id="a_node13"><a xlink:href="classaworx_1_1lib_1_1boxing_1_1ftypes_1_1IIsLess__boxed__int.html" target="_top" xlink:title="IIsLess_boxed_int">
<polygon fill="#ffffff" stroke="#000000" points="315.5,-76.5 315.5,-95.5 411.5,-95.5 411.5,-76.5 315.5,-76.5"/>
<text text-anchor="middle" x="363.5" y="-83.5" font-family="Helvetica,sans-Serif" font-size="10.00" fill="#000000">IIsLess_boxed_int</text>
</a>
</g>
</g>
<!-- Node0&#45;&gt;Node8 -->
<g id="edge8" class="edge">
<title>Node0&#45;&gt;Node8</title>
<path fill="none" stroke="#191970" d="M176.7438,-373.6337C192.0717,-359.4661 212.7603,-337.5861 224,-314 264.5483,-228.9107 193.7172,-172.0145 260,-105 274.3244,-90.5174 295.805,-85.0462 315.4907,-83.484"/>
<polygon fill="#191970" stroke="#191970" points="174.4075,-371.0277 169.2954,-380.3077 179.0788,-376.2411 174.4075,-371.0277"/>
</g>
<!-- Node9 -->
<g id="node14" class="node">
<title>Node9</title>
<g id="a_node14"><a xlink:href="classaworx_1_1lib_1_1boxing_1_1ftypes_1_1IIsLess__boxed__uint.html" target="_top" xlink:title="IIsLess_boxed_uint">
<polygon fill="#ffffff" stroke="#000000" points="313,-38.5 313,-57.5 414,-57.5 414,-38.5 313,-38.5"/>
<text text-anchor="middle" x="363.5" y="-45.5" font-family="Helvetica,sans-Serif" font-size="10.00" fill="#000000">IIsLess_boxed_uint</text>
</a>
</g>
</g>
<!-- Node0&#45;&gt;Node9 -->
<g id="edge9" class="edge">
<title>Node0&#45;&gt;Node9</title>
<path fill="none" stroke="#191970" d="M176.904,-373.7088C192.3272,-359.5859 213.066,-337.7294 224,-314 270.4261,-213.244 183.0128,-146.8757 260,-67 273.5656,-52.9254 293.8724,-47.2971 312.9154,-45.5132"/>
<polygon fill="#191970" stroke="#191970" points="174.5644,-371.1055 169.4033,-380.3582 179.208,-376.3436 174.5644,-371.1055"/>
</g>
<!-- Node10 -->
<g id="node15" class="node">
<title>Node10</title>
<g id="a_node15"><a xlink:href="classaworx_1_1lib_1_1boxing_1_1ftypes_1_1IIsLess__double.html" target="_top" xlink:title="IIsLess_double">
<polygon fill="#ffffff" stroke="#000000" points="322,-.5 322,-19.5 405,-19.5 405,-.5 322,-.5"/>
<text text-anchor="middle" x="363.5" y="-7.5" font-family="Helvetica,sans-Serif" font-size="10.00" fill="#000000">IIsLess_double</text>
</a>
</g>
</g>
<!-- Node0&#45;&gt;Node10 -->
<g id="edge10" class="edge">
<title>Node0&#45;&gt;Node10</title>
<path fill="none" stroke="#191970" d="M177.0228,-373.7629C192.5168,-359.6721 213.2929,-337.8326 224,-314 250.1606,-255.77 216.1399,-75.3832 260,-29 275.6273,-12.4737 300.5339,-7.528 321.9982,-6.8077"/>
<polygon fill="#191970" stroke="#191970" points="174.6803,-371.162 169.4833,-380.3946 179.3036,-376.4181 174.6803,-371.162"/>
</g>
<!-- Node12 -->
<g id="node16" class="node">
<title>Node12</title>
<g id="a_node16"><a xlink:href="classaworx_1_1lib_1_1boxing_1_1IIsNull__false.html" target="_top" xlink:title="IIsNull_false">
<polygon fill="#ffffff" stroke="#000000" points="328,-684.5 328,-703.5 399,-703.5 399,-684.5 328,-684.5"/>
<text text-anchor="middle" x="363.5" y="-691.5" font-family="Helvetica,sans-Serif" font-size="10.00" fill="#000000">IIsNull_false</text>
</a>
</g>
</g>
<!-- Node0&#45;&gt;Node12 -->
<g id="edge12" class="edge">
<title>Node0&#45;&gt;Node12</title>
<path fill="none" stroke="#191970" d="M220.7084,-405.6379C221.8681,-406.6892 222.9686,-407.8085 224,-409 302.0808,-499.1992 177.6491,-588.6819 260,-675 277.1507,-692.9769 305.2892,-697.2157 327.9006,-697.2395"/>
<polygon fill="#191970" stroke="#191970" points="222.4722,-402.5969 212.2982,-399.6404 218.4079,-408.2962 222.4722,-402.5969"/>
</g>
<!-- Node15 -->
<g id="node17" class="node">
<title>Node15</title>
<g id="a_node17"><a xlink:href="classaworx_1_1lib_1_1strings_1_1boxing_1_1IApply__Tchar16__tArr.html" target="_top" xlink:title="IApply_Tchar16_tArr">
<polygon fill="#ffffff" stroke="#000000" points="311,-456.5 311,-475.5 416,-475.5 416,-456.5 311,-456.5"/>
<text text-anchor="middle" x="363.5" y="-463.5" font-family="Helvetica,sans-Serif" font-size="10.00" fill="#000000">IApply_Tchar16_tArr</text>
</a>
</g>
</g>
<!-- Node0&#45;&gt;Node15 -->
<g id="edge15" class="edge">
<title>Node0&#45;&gt;Node15</title>
<path fill="none" stroke="#191970" d="M212.6206,-403.1763C216.5812,-404.8949 220.4199,-406.8278 224,-409 243.8897,-421.0679 239.55,-435.908 260,-447 275.4165,-455.3619 293.8254,-460.1242 310.8143,-462.8108"/>
<polygon fill="#191970" stroke="#191970" points="213.812,-399.8845 203.2226,-399.5436 211.2881,-406.4137 213.812,-399.8845"/>
</g>
<!-- Node16 -->
<g id="node18" class="node">
<title>Node16</title>
<g id="a_node18"><a xlink:href="classaworx_1_1lib_1_1strings_1_1boxing_1_1IApply__Tchar32__tArr.html" target="_top" xlink:title="IApply_Tchar32_tArr">
<polygon fill="#ffffff" stroke="#000000" points="311,-646.5 311,-665.5 416,-665.5 416,-646.5 311,-646.5"/>
<text text-anchor="middle" x="363.5" y="-653.5" font-family="Helvetica,sans-Serif" font-size="10.00" fill="#000000">IApply_Tchar32_tArr</text>
</a>
</g>
</g>
<!-- Node0&#45;&gt;Node16 -->
<g id="edge16" class="edge">
<title>Node0&#45;&gt;Node16</title>
<path fill="none" stroke="#191970" d="M220.2273,-405.2775C221.5615,-406.4322 222.8237,-407.671 224,-409 291.9956,-485.8182 188.3695,-563.5595 260,-637 273.1387,-650.4706 292.4594,-656.1774 310.8608,-658.187"/>
<polygon fill="#191970" stroke="#191970" points="222.1166,-402.329 211.8946,-399.5427 218.148,-408.0953 222.1166,-402.329"/>
</g>
<!-- Node17 -->
<g id="node19" class="node">
<title>Node17</title>
<g id="a_node19"><a xlink:href="classaworx_1_1lib_1_1strings_1_1boxing_1_1IApply__TcharArr.html" target="_top" xlink:title="IApply_TcharArr">
<polygon fill="#ffffff" stroke="#000000" points="320.5,-608.5 320.5,-627.5 406.5,-627.5 406.5,-608.5 320.5,-608.5"/>
<text text-anchor="middle" x="363.5" y="-615.5" font-family="Helvetica,sans-Serif" font-size="10.00" fill="#000000">IApply_TcharArr</text>
</a>
</g>
</g>
<!-- Node0&#45;&gt;Node17 -->
<g id="edge17" class="edge">
<title>Node0&#45;&gt;Node17</title>
<path fill="none" stroke="#191970" d="M220.1734,-405.3259C221.5233,-406.4665 222.8034,-407.6892 224,-409 281.945,-472.4763 199.0534,-538.3999 260,-599 275.6107,-614.5219 299.457,-619.6411 320.3271,-620.7116"/>
<polygon fill="#191970" stroke="#191970" points="222.0185,-402.3486 211.7724,-399.6526 218.1009,-408.1497 222.0185,-402.3486"/>
</g>
<!-- Node18 -->
<g id="node20" class="node">
<title>Node18</title>
<g id="a_node20"><a xlink:href="classaworx_1_1lib_1_1strings_1_1boxing_1_1IApply__Twchar__tArr.html" target="_top" xlink:title="IApply_Twchar_tArr">
<polygon fill="#ffffff" stroke="#000000" points="313,-570.5 313,-589.5 414,-589.5 414,-570.5 313,-570.5"/>
<text text-anchor="middle" x="363.5" y="-577.5" font-family="Helvetica,sans-Serif" font-size="10.00" fill="#000000">IApply_Twchar_tArr</text>
</a>
</g>
</g>
<!-- Node0&#45;&gt;Node18 -->
<g id="edge18" class="edge">
<title>Node0&#45;&gt;Node18</title>
<path fill="none" stroke="#191970" d="M219.9992,-405.3211C221.4072,-406.4625 222.7455,-407.6868 224,-409 271.955,-459.2003 209.6737,-513.1772 260,-561 274.0379,-574.3396 294.1956,-579.8899 312.9982,-581.8143"/>
<polygon fill="#191970" stroke="#191970" points="221.5657,-402.1649 211.2738,-399.6495 217.7508,-408.034 221.5657,-402.1649"/>
</g>
<!-- Node19 -->
<g id="node21" class="node">
<title>Node19</title>
<g id="a_node21"><a xlink:href="classaworx_1_1lib_1_1strings_1_1boxing_1_1IIsLess__Tchar__arr.html" target="_top" xlink:title="IIsLess_Tchar_arr">
<polygon fill="#ffffff" stroke="#000000" points="316,-114.5 316,-133.5 411,-133.5 411,-114.5 316,-114.5"/>
<text text-anchor="middle" x="363.5" y="-121.5" font-family="Helvetica,sans-Serif" font-size="10.00" fill="#000000">IIsLess_Tchar_arr</text>
</a>
</g>
</g>
<!-- Node0&#45;&gt;Node19 -->
<g id="edge19" class="edge">
<title>Node0&#45;&gt;Node19</title>
<path fill="none" stroke="#191970" d="M176.677,-373.3727C191.8542,-359.1354 212.3678,-337.2925 224,-314 258.6996,-244.5166 204.3742,-197.2012 260,-143 274.5893,-128.7843 296.1041,-123.3475 315.7439,-121.7391"/>
<polygon fill="#191970" stroke="#191970" points="173.9271,-371.1427 168.8846,-380.4607 178.6373,-376.321 173.9271,-371.1427"/>
</g>
<!-- Node20 -->
<g id="node22" class="node">
<title>Node20</title>
<g id="a_node22"><a xlink:href="classaworx_1_1lib_1_1time_1_1IFormat__TimeStamp.html" target="_top" xlink:title="IFormat_TimeStamp">
<polygon fill="#ffffff" stroke="#000000" points="310.5,-380.5 310.5,-399.5 416.5,-399.5 416.5,-380.5 310.5,-380.5"/>
<text text-anchor="middle" x="363.5" y="-387.5" font-family="Helvetica,sans-Serif" font-size="10.00" fill="#000000">IFormat_TimeStamp</text>
</a>
</g>
</g>
<!-- Node0&#45;&gt;Node20 -->
<g id="edge20" class="edge">
<title>Node0&#45;&gt;Node20</title>
<path fill="none" stroke="#191970" d="M234.4247,-390C259.762,-390 287.3527,-390 310.4969,-390"/>
<polygon fill="#191970" stroke="#191970" points="234.0978,-386.5001 224.0978,-390 234.0978,-393.5001 234.0978,-386.5001"/>
</g>
<!-- Node21 -->
<g id="node23" class="node">
<title>Node21</title>
<g id="a_node23"><a xlink:href="classaworx_1_1lib_1_1time_1_1IFormat__TTicks.html" target="_top" xlink:title="IFormat_TTicks">
<polygon fill="#ffffff" stroke="#000000" points="320.5,-418.5 320.5,-437.5 406.5,-437.5 406.5,-418.5 320.5,-418.5"/>
<text text-anchor="middle" x="363.5" y="-425.5" font-family="Helvetica,sans-Serif" font-size="10.00" fill="#000000">IFormat_TTicks</text>
</a>
</g>
</g>
<!-- Node0&#45;&gt;Node21 -->
<g id="edge21" class="edge">
<title>Node0&#45;&gt;Node21</title>
<path fill="none" stroke="#191970" d="M219.011,-401.4199C232.5147,-403.922 246.7391,-406.5538 260,-409 279.8523,-412.6622 301.8499,-416.7028 320.4421,-420.1129"/>
<polygon fill="#191970" stroke="#191970" points="219.3234,-397.9183 208.853,-399.5371 218.0476,-404.8011 219.3234,-397.9183"/>
</g>
<!-- Node224 -->
<g id="node24" class="node">
<title>Node224</title>
<g id="a_node24"><a xlink:href="classaworx_1_1lib_1_1boxing_1_1Interface.html" target="_top" xlink:title="Interface">
<polygon fill="#ffffff" stroke="#000000" points="0,-418.5 0,-437.5 55,-437.5 55,-418.5 0,-418.5"/>
<text text-anchor="middle" x="27.5" y="-425.5" font-family="Helvetica,sans-Serif" font-size="10.00" fill="#000000">Interface</text>
</a>
</g>
</g>
<!-- Node225 -->
<g id="node25" class="node">
<title>Node225</title>
<g id="a_node25"><a xlink:href="classaworx_1_1lib_1_1boxing_1_1IEquals.html" target="_top" xlink:title="IEquals">
<polygon fill="#ffffff" stroke="#000000" points="132.5,-285.5 132.5,-304.5 182.5,-304.5 182.5,-285.5 132.5,-285.5"/>
<text text-anchor="middle" x="157.5" y="-292.5" font-family="Helvetica,sans-Serif" font-size="10.00" fill="#000000">IEquals</text>
</a>
</g>
</g>
<!-- Node224&#45;&gt;Node225 -->
<g id="edge22" class="edge">
<title>Node224&#45;&gt;Node225</title>
<path fill="none" stroke="#191970" d="M44.1741,-410.9411C71.727,-382.7523 125.8976,-327.3317 147.8847,-304.8372"/>
<polygon fill="#191970" stroke="#191970" points="41.3363,-408.8372 36.8493,-418.435 46.3422,-413.7302 41.3363,-408.8372"/>
</g>
<!-- Node226 -->
<g id="node26" class="node">
<title>Node226</title>
<g id="a_node26"><a xlink:href="classaworx_1_1lib_1_1boxing_1_1IIsEmpty.html" target="_top" xlink:title="IIsEmpty">
<polygon fill="#ffffff" stroke="#000000" points="129.5,-247.5 129.5,-266.5 185.5,-266.5 185.5,-247.5 129.5,-247.5"/>
<text text-anchor="middle" x="157.5" y="-254.5" font-family="Helvetica,sans-Serif" font-size="10.00" fill="#000000">IIsEmpty</text>
</a>
</g>
</g>
<!-- Node224&#45;&gt;Node226 -->
<g id="edge23" class="edge">
<title>Node224&#45;&gt;Node226</title>
<path fill="none" stroke="#191970" d="M30.2238,-408.081C35.7266,-375.6106 51.2302,-311.354 91,-276 101.4995,-266.6663 116.2921,-261.8956 129.2606,-259.4665"/>
<polygon fill="#191970" stroke="#191970" points="26.7375,-407.7241 28.6711,-418.141 33.6556,-408.792 26.7375,-407.7241"/>
</g>
<!-- Node227 -->
<g id="node27" class="node">
<title>Node227</title>
<g id="a_node27"><a xlink:href="classaworx_1_1lib_1_1boxing_1_1IIsLess.html" target="_top" xlink:title="IIsLess">
<polygon fill="#ffffff" stroke="#000000" points="133,-76.5 133,-95.5 182,-95.5 182,-76.5 133,-76.5"/>
<text text-anchor="middle" x="157.5" y="-83.5" font-family="Helvetica,sans-Serif" font-size="10.00" fill="#000000">IIsLess</text>
</a>
</g>
</g>
<!-- Node224&#45;&gt;Node227 -->
<g id="edge24" class="edge">
<title>Node224&#45;&gt;Node227</title>
<path fill="none" stroke="#191970" d="M33.3366,-408.6452C43.9059,-374.0587 67.3231,-299.5046 91,-238 112.0066,-183.4319 141.5132,-119.8279 152.8304,-95.8307"/>
<polygon fill="#191970" stroke="#191970" points="29.9302,-407.8174 30.3724,-418.403 36.6279,-409.852 29.9302,-407.8174"/>
</g>
<!-- Node228 -->
<g id="node28" class="node">
<title>Node228</title>
<g id="a_node28"><a xlink:href="classaworx_1_1lib_1_1boxing_1_1IIsNull.html" target="_top" xlink:title="IIsNull">
<polygon fill="#ffffff" stroke="#000000" points="135.5,-656.5 135.5,-675.5 179.5,-675.5 179.5,-656.5 135.5,-656.5"/>
<text text-anchor="middle" x="157.5" y="-663.5" font-family="Helvetica,sans-Serif" font-size="10.00" fill="#000000">IIsNull</text>
</a>
</g>
</g>
<!-- Node224&#45;&gt;Node228 -->
<g id="edge25" class="edge">
<title>Node224&#45;&gt;Node228</title>
<path fill="none" stroke="#191970" d="M33.6935,-447.2C43.6377,-476.7975 64.7397,-534.8682 91,-580 108.3701,-609.8529 134.888,-640.9716 148.599,-656.2916"/>
<polygon fill="#191970" stroke="#191970" points="37.0031,-446.0603 30.5458,-437.6607 30.3557,-448.2538 37.0031,-446.0603"/>
</g>
<!-- Node229 -->
<g id="node29" class="node">
<title>Node229</title>
<g id="a_node29"><a xlink:href="classaworx_1_1lib_1_1boxing_1_1IIsTrue.html" target="_top" xlink:title="IIsTrue">
<polygon fill="#ffffff" stroke="#000000" points="134,-551.5 134,-570.5 181,-570.5 181,-551.5 134,-551.5"/>
<text text-anchor="middle" x="157.5" y="-558.5" font-family="Helvetica,sans-Serif" font-size="10.00" fill="#000000">IIsTrue</text>
</a>
</g>
</g>
<!-- Node224&#45;&gt;Node229 -->
<g id="edge26" class="edge">
<title>Node224&#45;&gt;Node229</title>
<path fill="none" stroke="#191970" d="M33.0927,-447.2366C41.486,-472.6967 59.78,-517.2435 91,-542 103.2306,-551.6985 120.1881,-556.4466 133.9178,-558.771"/>
<polygon fill="#191970" stroke="#191970" points="36.4088,-446.1136 30.0929,-437.6071 29.7256,-448.1956 36.4088,-446.1136"/>
</g>
<!-- Node230 -->
<g id="node30" class="node">
<title>Node230</title>
<g id="a_node30"><a xlink:href="classaworx_1_1lib_1_1strings_1_1boxing_1_1IApply.html" target="_top" xlink:title="IApply">
<polygon fill="#ffffff" stroke="#000000" points="135.5,-513.5 135.5,-532.5 179.5,-532.5 179.5,-513.5 135.5,-513.5"/>
<text text-anchor="middle" x="157.5" y="-520.5" font-family="Helvetica,sans-Serif" font-size="10.00" fill="#000000">IApply</text>
</a>
</g>
</g>
<!-- Node224&#45;&gt;Node230 -->
<g id="edge27" class="edge">
<title>Node224&#45;&gt;Node230</title>
<path fill="none" stroke="#191970" d="M49.021,-443.7269C76.1474,-463.55 121.9325,-497.0084 144.344,-513.386"/>
<polygon fill="#191970" stroke="#191970" points="51.0616,-440.8832 40.9226,-437.8089 46.9315,-446.5349 51.0616,-440.8832"/>
</g>
<!-- Node231 -->
<g id="node31" class="node">
<title>Node231</title>
<g id="a_node31"><a xlink:href="classaworx_1_1lib_1_1strings_1_1boxing_1_1IFormat.html" target="_top" xlink:title="IFormat">
<polygon fill="#ffffff" stroke="#000000" points="132.5,-418.5 132.5,-437.5 182.5,-437.5 182.5,-418.5 132.5,-418.5"/>
<text text-anchor="middle" x="157.5" y="-425.5" font-family="Helvetica,sans-Serif" font-size="10.00" fill="#000000">IFormat</text>
</a>
</g>
</g>
<!-- Node224&#45;&gt;Node231 -->
<g id="edge28" class="edge">
<title>Node224&#45;&gt;Node231</title>
<path fill="none" stroke="#191970" d="M65.1909,-428C86.7167,-428 113.1263,-428 132.1744,-428"/>
<polygon fill="#191970" stroke="#191970" points="65.0697,-424.5001 55.0697,-428 65.0696,-431.5001 65.0697,-424.5001"/>
</g>
<!-- Node225&#45;&gt;Node11 -->
<g id="edge34" class="edge">
<title>Node225&#45;&gt;Node11</title>
<path fill="none" stroke="#191970" d="M192.8946,-298.2645C214.8126,-300.2861 244.0463,-302.9824 272.1145,-305.5712"/>
<polygon fill="#191970" stroke="#191970" points="193.0389,-294.7631 182.7596,-297.3298 192.3959,-301.7335 193.0389,-294.7631"/>
</g>
<!-- Node225&#45;&gt;Node3 -->
<g id="edge29" class="edge">
<title>Node225&#45;&gt;Node3</title>
<path fill="none" stroke="#191970" d="M192.8803,-291.7368C224.561,-288.8148 271.5341,-284.4823 308.1773,-281.1026"/>
<polygon fill="#191970" stroke="#191970" points="192.3959,-288.2665 182.7596,-292.6702 193.0389,-295.2369 192.3959,-288.2665"/>
</g>
<!-- Node225&#45;&gt;Node4 -->
<g id="edge30" class="edge">
<title>Node225&#45;&gt;Node4</title>
<path fill="none" stroke="#191970" d="M192.4726,-286.4748C202.7762,-283.5721 213.9723,-280.028 224,-276 240.7879,-269.2565 242.9057,-262.9238 260,-257 275.3631,-251.6761 292.5536,-247.7575 308.4439,-244.9106"/>
<polygon fill="#191970" stroke="#191970" points="191.2837,-283.1704 182.5428,-289.1578 193.1096,-289.9281 191.2837,-283.1704"/>
</g>
<!-- Node225&#45;&gt;Node5 -->
<g id="edge31" class="edge">
<title>Node225&#45;&gt;Node5</title>
<path fill="none" stroke="#191970" d="M192.8448,-289.93C203.6086,-287.1227 214.9695,-282.7642 224,-276 247.9813,-258.0369 235.1781,-235.7825 260,-219 276.7235,-207.6929 298.2934,-202.6071 317.41,-200.4785"/>
<polygon fill="#191970" stroke="#191970" points="191.7992,-286.5773 182.8034,-292.1743 193.326,-293.4088 191.7992,-286.5773"/>
</g>
<!-- Node225&#45;&gt;Node6 -->
<g id="edge32" class="edge">
<title>Node225&#45;&gt;Node6</title>
<path fill="none" stroke="#191970" d="M192.59,-291.2586C203.7461,-288.5422 215.4054,-283.9019 224,-276 257.2387,-245.4401 225.3225,-209.9169 260,-181 276.2056,-167.4864 298.8563,-162.2992 318.8376,-160.6758"/>
<polygon fill="#191970" stroke="#191970" points="191.712,-287.8646 182.5884,-293.2507 193.0795,-294.7298 191.712,-287.8646"/>
</g>
<!-- Node225&#45;&gt;Node7 -->
<g id="edge33" class="edge">
<title>Node225&#45;&gt;Node7</title>
<path fill="none" stroke="#191970" d="M189.1902,-308.3728C209.2096,-316.4122 235.7814,-326.3419 260,-333 276.0301,-337.4069 293.7418,-341.0816 309.9141,-343.9878"/>
<polygon fill="#191970" stroke="#191970" points="190.5094,-305.131 179.9278,-304.6007 187.8691,-311.614 190.5094,-305.131"/>
</g>
<!-- Node227&#45;&gt;Node8 -->
<g id="edge35" class="edge">
<title>Node227&#45;&gt;Node8</title>
<path fill="none" stroke="#191970" d="M192.6696,-86C226.4817,-86 277.8528,-86 315.4327,-86"/>
<polygon fill="#191970" stroke="#191970" points="192.3484,-82.5001 182.3484,-86 192.3484,-89.5001 192.3484,-82.5001"/>
</g>
<!-- Node227&#45;&gt;Node9 -->
<g id="edge36" class="edge">
<title>Node227&#45;&gt;Node9</title>
<path fill="none" stroke="#191970" d="M192.1871,-79.5548C212.0407,-75.8696 237.4174,-71.1658 260,-67 277.2473,-63.8184 296.1138,-60.3511 312.9597,-57.2598"/>
<polygon fill="#191970" stroke="#191970" points="191.5454,-76.114 182.3524,-81.3808 192.8233,-82.9964 191.5454,-76.114"/>
</g>
<!-- Node227&#45;&gt;Node10 -->
<g id="edge37" class="edge">
<title>Node227&#45;&gt;Node10</title>
<path fill="none" stroke="#191970" d="M179.8341,-70.7576C199.9437,-57.7374 230.7494,-39.4964 260,-29 279.7747,-21.9039 302.6691,-17.3491 321.8899,-14.4843"/>
<polygon fill="#191970" stroke="#191970" points="177.8122,-67.8984 171.3912,-76.3259 181.6662,-73.7419 177.8122,-67.8984"/>
</g>
<!-- Node227&#45;&gt;Node19 -->
<g id="edge38" class="edge">
<title>Node227&#45;&gt;Node19</title>
<path fill="none" stroke="#191970" d="M192.1871,-92.4452C212.0407,-96.1304 237.4174,-100.8342 260,-105 278.2354,-108.3639 298.2809,-112.0471 315.8345,-115.2676"/>
<polygon fill="#191970" stroke="#191970" points="192.8233,-89.0036 182.3524,-90.6192 191.5454,-95.886 192.8233,-89.0036"/>
</g>
<!-- Node228&#45;&gt;Node12 -->
<g id="edge39" class="edge">
<title>Node228&#45;&gt;Node12</title>
<path fill="none" stroke="#191970" d="M189.9074,-670.4049C227.4267,-675.5046 289.0291,-683.8777 327.8674,-689.1567"/>
<polygon fill="#191970" stroke="#191970" points="189.9259,-666.8753 179.5456,-668.9965 188.9831,-673.8115 189.9259,-666.8753"/>
</g>
<!-- Node230&#45;&gt;Node13 -->
<g id="edge40" class="edge">
<title>Node230&#45;&gt;Node13</title>
<path fill="none" stroke="#191970" d="M189.5325,-525.9545C208.7727,-527.729 234.4423,-530.0966 260.1417,-532.4669"/>
<polygon fill="#191970" stroke="#191970" points="189.8248,-522.4666 179.5456,-525.0333 189.1819,-529.4371 189.8248,-522.4666"/>
</g>
<!-- Node230&#45;&gt;Node14 -->
<g id="edge41" class="edge">
<title>Node230&#45;&gt;Node14</title>
<path fill="none" stroke="#191970" d="M189.7973,-520.0211C214.5455,-517.7385 249.8183,-514.4852 282.1203,-511.5059"/>
<polygon fill="#191970" stroke="#191970" points="189.1819,-516.5629 179.5456,-520.9667 189.8248,-523.5334 189.1819,-516.5629"/>
</g>
<!-- Node230&#45;&gt;Node15 -->
<g id="edge42" class="edge">
<title>Node230&#45;&gt;Node15</title>
<path fill="none" stroke="#191970" d="M188.801,-509.7836C208.8644,-501.7169 235.6242,-491.7013 260,-485 276.3824,-480.4962 294.5212,-476.7572 310.9782,-473.8217"/>
<polygon fill="#191970" stroke="#191970" points="187.4678,-506.5473 179.5294,-513.5639 190.1108,-513.0292 187.4678,-506.5473"/>
</g>
<!-- Node230&#45;&gt;Node16 -->
<g id="edge43" class="edge">
<title>Node230&#45;&gt;Node16</title>
<path fill="none" stroke="#191970" d="M189.8645,-526.1127C201.8183,-528.7205 214.7025,-533.4518 224,-542 257.2387,-572.5599 225.3225,-608.0831 260,-637 274.101,-648.7586 293.0817,-654.2131 310.9375,-656.501"/>
<polygon fill="#191970" stroke="#191970" points="190.1683,-522.6124 179.7128,-524.3251 188.9543,-529.5064 190.1683,-522.6124"/>
</g>
<!-- Node230&#45;&gt;Node17 -->
<g id="edge44" class="edge">
<title>Node230&#45;&gt;Node17</title>
<path fill="none" stroke="#191970" d="M189.5433,-527.2515C201.2452,-530.0056 214.04,-534.5395 224,-542 247.9813,-559.9631 235.1781,-582.2175 260,-599 277.5559,-610.8698 300.4526,-615.8838 320.2454,-617.8178"/>
<polygon fill="#191970" stroke="#191970" points="190.1336,-523.8002 179.6399,-525.2605 188.7539,-530.6629 190.1336,-523.8002"/>
</g>
<!-- Node230&#45;&gt;Node18 -->
<g id="edge45" class="edge">
<title>Node230&#45;&gt;Node18</title>
<path fill="none" stroke="#191970" d="M189.4893,-530.6955C200.5842,-533.7421 212.9957,-537.5797 224,-542 240.7879,-548.7435 242.9057,-555.0762 260,-561 276.8304,-566.8324 295.8538,-570.9781 312.9585,-573.876"/>
<polygon fill="#191970" stroke="#191970" points="190.3104,-527.2924 179.7484,-528.126 188.5249,-534.0609 190.3104,-527.2924"/>
</g>
<!-- Node231&#45;&gt;Node20 -->
<g id="edge46" class="edge">
<title>Node231&#45;&gt;Node20</title>
<path fill="none" stroke="#191970" d="M192.8603,-421.4298C212.6122,-417.7637 237.6719,-413.1189 260,-409 276.7981,-405.9013 295.1322,-402.5315 311.6395,-399.5021"/>
<polygon fill="#191970" stroke="#191970" points="191.9647,-418.0362 182.7716,-423.3029 193.2425,-424.9186 191.9647,-418.0362"/>
</g>
<!-- Node231&#45;&gt;Node21 -->
<g id="edge47" class="edge">
<title>Node231&#45;&gt;Node21</title>
<path fill="none" stroke="#191970" d="M193.0835,-428C228.4296,-428 282.6653,-428 320.4254,-428"/>
<polygon fill="#191970" stroke="#191970" points="192.7597,-424.5001 182.7596,-428 192.7596,-431.5001 192.7597,-424.5001"/>
</g>
</g>
</svg>
