<?xml version="1.0" encoding="UTF-8" standalone="no"?>
<!DOCTYPE svg PUBLIC "-//W3C//DTD SVG 1.1//EN"
 "http://www.w3.org/Graphics/SVG/1.1/DTD/svg11.dtd">
<!-- Generated by graphviz version 2.40.1 (20161225.0304)
 -->
<!-- Title: Graphical Class Hierarchy Pages: 1 -->
<svg width="366pt" height="66pt"
 viewBox="0.00 0.00 366.00 66.00" xmlns="http://www.w3.org/2000/svg" xmlns:xlink="http://www.w3.org/1999/xlink">
<g id="graph0" class="graph" transform="scale(1 1) rotate(0) translate(4 62)">
<title>Graphical Class Hierarchy</title>
<polygon fill="#ffffff" stroke="transparent" points="-4,4 -4,-62 362,-62 362,4 -4,4"/>
<!-- Node176 -->
<g id="node1" class="node">
<title>Node176</title>
<polygon fill="#ffffff" stroke="#bfbfbf" points="0,-19.5 0,-38.5 47,-38.5 47,-19.5 0,-19.5"/>
<text text-anchor="middle" x="23.5" y="-26.5" font-family="Helvetica,sans-Serif" font-size="10.00" fill="#000000">iterator</text>
</g>
<!-- Node0 -->
<g id="node2" class="node">
<title>Node0</title>
<g id="a_node2"><a xlink:href="classaworx_1_1lib_1_1containers_1_1StringTree_1_1StdIterator.html" target="_top" xlink:title="StringTree\&lt;T, TKeyAllocator, TSeparator\&gt;::StdIterator">
<polygon fill="#ffffff" stroke="#000000" points="95,-38.5 95,-57.5 346,-57.5 346,-38.5 95,-38.5"/>
<text text-anchor="middle" x="220.5" y="-45.5" font-family="Helvetica,sans-Serif" font-size="10.00" fill="#000000">StringTree&lt;T, TKeyAllocator, TSeparator&gt;::StdIterator</text>
</a>
</g>
</g>
<!-- Node176&#45;&gt;Node0 -->
<g id="edge1" class="edge">
<title>Node176&#45;&gt;Node0</title>
<path fill="none" stroke="#191970" d="M57.2631,-32.2563C75.3394,-33.9997 98.6364,-36.2467 121.938,-38.494"/>
<polygon fill="#191970" stroke="#191970" points="57.5527,-28.7681 47.2628,-31.2918 56.8806,-35.7358 57.5527,-28.7681"/>
</g>
<!-- Node178 -->
<g id="node3" class="node">
<title>Node178</title>
<g id="a_node3"><a xlink:href="classaworx_1_1lib_1_1strings_1_1String_1_1RandomAccessIteratorBase.html" target="_top" xlink:title="String::RandomAccessIteratorBase\&lt;TPointer, TReference\&gt;">
<polygon fill="#ffffff" stroke="#000000" points="83,-.5 83,-19.5 358,-19.5 358,-.5 83,-.5"/>
<text text-anchor="middle" x="220.5" y="-7.5" font-family="Helvetica,sans-Serif" font-size="10.00" fill="#000000">String::RandomAccessIteratorBase&lt;TPointer, TReference&gt;</text>
</a>
</g>
</g>
<!-- Node176&#45;&gt;Node178 -->
<g id="edge2" class="edge">
<title>Node176&#45;&gt;Node178</title>
<path fill="none" stroke="#191970" d="M57.2631,-25.7437C75.3394,-24.0003 98.6364,-21.7533 121.938,-19.506"/>
<polygon fill="#191970" stroke="#191970" points="56.8806,-22.2642 47.2628,-26.7082 57.5527,-29.2319 56.8806,-22.2642"/>
</g>
</g>
</svg>
