<?xml version="1.0" encoding="UTF-8" standalone="no"?>
<!DOCTYPE svg PUBLIC "-//W3C//DTD SVG 1.1//EN"
 "http://www.w3.org/Graphics/SVG/1.1/DTD/svg11.dtd">
<!-- Generated by graphviz version 2.40.1 (20161225.0304)
 -->
<!-- Title: Graphical Class Hierarchy Pages: 1 -->
<svg width="154pt" height="66pt"
 viewBox="0.00 0.00 154.00 66.00" xmlns="http://www.w3.org/2000/svg" xmlns:xlink="http://www.w3.org/1999/xlink">
<g id="graph0" class="graph" transform="scale(1 1) rotate(0) translate(4 62)">
<title>Graphical Class Hierarchy</title>
<polygon fill="#ffffff" stroke="transparent" points="-4,4 -4,-62 150,-62 150,4 -4,4"/>
<!-- Node0 -->
<g id="node1" class="node">
<title>Node0</title>
<g id="a_node1"><a xlink:href="classaworx_1_1lib_1_1boxing_1_1Box.html" target="_top" xlink:title="Box">
<polygon fill="#ffffff" stroke="#000000" points="0,-19.5 0,-38.5 34,-38.5 34,-19.5 0,-19.5"/>
<text text-anchor="middle" x="17" y="-26.5" font-family="Helvetica,sans-Serif" font-size="10.00" fill="#000000">Box</text>
</a>
</g>
</g>
<!-- Node1 -->
<g id="node2" class="node">
<title>Node1</title>
<g id="a_node2"><a xlink:href="structaworx_1_1lib_1_1lang_1_1Enum.html" target="_top" xlink:title="Enum">
<polygon fill="#ffffff" stroke="#000000" points="87,-38.5 87,-57.5 129,-57.5 129,-38.5 87,-38.5"/>
<text text-anchor="middle" x="108" y="-45.5" font-family="Helvetica,sans-Serif" font-size="10.00" fill="#000000">Enum</text>
</a>
</g>
</g>
<!-- Node0&#45;&gt;Node1 -->
<g id="edge1" class="edge">
<title>Node0&#45;&gt;Node1</title>
<path fill="none" stroke="#191970" d="M43.9506,-34.627C57.6361,-37.4845 74.023,-40.9059 86.7955,-43.5727"/>
<polygon fill="#191970" stroke="#191970" points="44.6207,-31.1916 34.1164,-32.5738 43.1899,-38.0438 44.6207,-31.1916"/>
</g>
<!-- Node2 -->
<g id="node3" class="node">
<title>Node2</title>
<g id="a_node3"><a xlink:href="classaworx_1_1lox_1_1PrefixLogable.html" target="_top" xlink:title="PrefixLogable">
<polygon fill="#ffffff" stroke="#000000" points="70,-.5 70,-19.5 146,-19.5 146,-.5 70,-.5"/>
<text text-anchor="middle" x="108" y="-7.5" font-family="Helvetica,sans-Serif" font-size="10.00" fill="#000000">PrefixLogable</text>
</a>
</g>
</g>
<!-- Node0&#45;&gt;Node2 -->
<g id="edge2" class="edge">
<title>Node0&#45;&gt;Node2</title>
<path fill="none" stroke="#191970" d="M44.095,-23.3428C52.1768,-21.6554 61.1904,-19.7734 69.8404,-17.9674"/>
<polygon fill="#191970" stroke="#191970" points="43.1899,-19.9562 34.1164,-25.4262 44.6207,-26.8084 43.1899,-19.9562"/>
</g>
</g>
</svg>
