<?xml version="1.0" encoding="UTF-8" standalone="no"?>
<!DOCTYPE svg PUBLIC "-//W3C//DTD SVG 1.1//EN"
 "http://www.w3.org/Graphics/SVG/1.1/DTD/svg11.dtd">
<!-- Generated by graphviz version 2.40.1 (20161225.0304)
 -->
<!-- Title: inifile.hpp Pages: 1 -->
<svg width="326pt" height="252pt"
 viewBox="0.00 0.00 325.50 252.00" xmlns="http://www.w3.org/2000/svg" xmlns:xlink="http://www.w3.org/1999/xlink">
<g id="graph0" class="graph" transform="scale(1 1) rotate(0) translate(4 248)">
<title>inifile.hpp</title>
<polygon fill="#ffffff" stroke="transparent" points="-4,4 -4,-248 321.5,-248 321.5,4 -4,4"/>
<!-- Node0 -->
<g id="node1" class="node">
<title>Node0</title>
<polygon fill="#bfbfbf" stroke="#000000" points="213,-224.5 213,-243.5 271,-243.5 271,-224.5 213,-224.5"/>
<text text-anchor="middle" x="242" y="-231.5" font-family="Helvetica,sans-Serif" font-size="10.00" fill="#000000">inifile.hpp</text>
</g>
<!-- Node1 -->
<g id="node2" class="node">
<title>Node1</title>
<g id="a_node2"><a xlink:href="inmemoryplugin_8hpp.html" target="_top" xlink:title="alib/config/inmemoryplugin.hpp">
<polygon fill="#ffffff" stroke="#000000" points="166.5,-168.5 166.5,-187.5 317.5,-187.5 317.5,-168.5 166.5,-168.5"/>
<text text-anchor="middle" x="242" y="-175.5" font-family="Helvetica,sans-Serif" font-size="10.00" fill="#000000">alib/config/inmemoryplugin.hpp</text>
</a>
</g>
</g>
<!-- Node0&#45;&gt;Node1 -->
<g id="edge1" class="edge">
<title>Node0&#45;&gt;Node1</title>
<path fill="none" stroke="#191970" d="M242,-224.2455C242,-216.9382 242,-206.6944 242,-197.7046"/>
<polygon fill="#191970" stroke="#191970" points="245.5001,-197.6426 242,-187.6427 238.5001,-197.6427 245.5001,-197.6426"/>
</g>
<!-- Node2 -->
<g id="node3" class="node">
<title>Node2</title>
<g id="a_node3"><a xlink:href="plugins_8hpp.html" target="_top" xlink:title="alib/config/plugins.hpp">
<polygon fill="#ffffff" stroke="#000000" points="140.5,-112.5 140.5,-131.5 253.5,-131.5 253.5,-112.5 140.5,-112.5"/>
<text text-anchor="middle" x="197" y="-119.5" font-family="Helvetica,sans-Serif" font-size="10.00" fill="#000000">alib/config/plugins.hpp</text>
</a>
</g>
</g>
<!-- Node1&#45;&gt;Node2 -->
<g id="edge2" class="edge">
<title>Node1&#45;&gt;Node2</title>
<path fill="none" stroke="#191970" d="M234.1616,-168.2455C227.838,-160.3761 218.7776,-149.101 211.1864,-139.6542"/>
<polygon fill="#191970" stroke="#191970" points="213.7408,-137.2454 204.7486,-131.6427 208.2842,-141.6302 213.7408,-137.2454"/>
</g>
<!-- Node4 -->
<g id="node4" class="node">
<title>Node4</title>
<polygon fill="#ffffff" stroke="#bfbfbf" points="151,-.5 151,-19.5 195,-19.5 195,-.5 151,-.5"/>
<text text-anchor="middle" x="173" y="-7.5" font-family="Helvetica,sans-Serif" font-size="10.00" fill="#000000">vector</text>
</g>
<!-- Node1&#45;&gt;Node4 -->
<g id="edge3" class="edge">
<title>Node1&#45;&gt;Node4</title>
<path fill="none" stroke="#191970" d="M248.6295,-168.3108C262.635,-146.525 292.1187,-92.7135 269,-56 255.0575,-33.8588 227.1747,-22.1383 205.0349,-16.0843"/>
<polygon fill="#191970" stroke="#191970" points="205.5736,-12.6123 195.0264,-13.6155 203.8971,-19.4086 205.5736,-12.6123"/>
</g>
<!-- Node3 -->
<g id="node5" class="node">
<title>Node3</title>
<g id="a_node5"><a xlink:href="variable_8hpp.html" target="_top" xlink:title="alib/config/variable.hpp">
<polygon fill="#ffffff" stroke="#000000" points="0,-56.5 0,-75.5 116,-75.5 116,-56.5 0,-56.5"/>
<text text-anchor="middle" x="58" y="-63.5" font-family="Helvetica,sans-Serif" font-size="10.00" fill="#000000">alib/config/variable.hpp</text>
</a>
</g>
</g>
<!-- Node2&#45;&gt;Node3 -->
<g id="edge4" class="edge">
<title>Node2&#45;&gt;Node3</title>
<path fill="none" stroke="#191970" d="M173.105,-112.3733C150.4918,-103.2629 116.3458,-89.5062 91.1127,-79.3404"/>
<polygon fill="#191970" stroke="#191970" points="92.1666,-75.9917 81.5831,-75.5011 89.5507,-82.4845 92.1666,-75.9917"/>
</g>
<!-- Node5 -->
<g id="node6" class="node">
<title>Node5</title>
<g id="a_node6"><a xlink:href="substring_8hpp.html" target="_top" xlink:title="alib/strings/substring.hpp">
<polygon fill="#ffffff" stroke="#ff0000" points="134.5,-56.5 134.5,-75.5 259.5,-75.5 259.5,-56.5 134.5,-56.5"/>
<text text-anchor="middle" x="197" y="-63.5" font-family="Helvetica,sans-Serif" font-size="10.00" fill="#000000">alib/strings/substring.hpp</text>
</a>
</g>
</g>
<!-- Node2&#45;&gt;Node5 -->
<g id="edge5" class="edge">
<title>Node2&#45;&gt;Node5</title>
<path fill="none" stroke="#191970" d="M197,-112.2455C197,-104.9382 197,-94.6944 197,-85.7046"/>
<polygon fill="#191970" stroke="#191970" points="200.5001,-85.6426 197,-75.6427 193.5001,-85.6427 200.5001,-85.6426"/>
</g>
<!-- Node3&#45;&gt;Node4 -->
<g id="edge6" class="edge">
<title>Node3&#45;&gt;Node4</title>
<path fill="none" stroke="#191970" d="M77.7692,-56.3733C96.1469,-47.4241 123.7312,-33.9917 144.4893,-23.8835"/>
<polygon fill="#191970" stroke="#191970" points="146.0304,-27.026 153.4888,-19.5011 142.9657,-20.7325 146.0304,-27.026"/>
</g>
</g>
</svg>
