<?xml version="1.0" encoding="UTF-8" standalone="no"?>
<!DOCTYPE svg PUBLIC "-//W3C//DTD SVG 1.1//EN"
 "http://www.w3.org/Graphics/SVG/1.1/DTD/svg11.dtd">
<!-- Generated by graphviz version 2.40.1 (20161225.0304)
 -->
<!-- Title: log.hpp Pages: 1 -->
<svg width="964pt" height="364pt"
 viewBox="0.00 0.00 964.03 364.00" xmlns="http://www.w3.org/2000/svg" xmlns:xlink="http://www.w3.org/1999/xlink">
<g id="graph0" class="graph" transform="scale(1 1) rotate(0) translate(4 360)">
<title>log.hpp</title>
<polygon fill="#ffffff" stroke="transparent" points="-4,4 -4,-360 960.0284,-360 960.0284,4 -4,4"/>
<!-- Node67 -->
<g id="node1" class="node">
<title>Node67</title>
<polygon fill="#bfbfbf" stroke="#000000" points="427.9605,-336.5 427.9605,-355.5 475.9605,-355.5 475.9605,-336.5 427.9605,-336.5"/>
<text text-anchor="middle" x="451.9605" y="-343.5" font-family="Helvetica,sans-Serif" font-size="10.00" fill="#000000">log.hpp</text>
</g>
<!-- Node68 -->
<g id="node2" class="node">
<title>Node68</title>
<g id="a_node2"><a xlink:href="alox_8hpp.html" target="_top" xlink:title="alox.hpp">
<polygon fill="#ffffff" stroke="#000000" points="425.4605,-280.5 425.4605,-299.5 478.4605,-299.5 478.4605,-280.5 425.4605,-280.5"/>
<text text-anchor="middle" x="451.9605" y="-287.5" font-family="Helvetica,sans-Serif" font-size="10.00" fill="#000000">alox.hpp</text>
</a>
</g>
</g>
<!-- Node67&#45;&gt;Node68 -->
<g id="edge1" class="edge">
<title>Node67&#45;&gt;Node68</title>
<path fill="none" stroke="#191970" d="M445.4718,-326.1575C444.8795,-317.155 445.294,-306.9199 446.7154,-299.6427"/>
<polygon fill="#191970" stroke="#191970" points="442.0166,-326.739 446.6937,-336.2455 448.9658,-325.8972 442.0166,-326.739"/>
</g>
<!-- Node68&#45;&gt;Node67 -->
<g id="edge2" class="edge">
<title>Node68&#45;&gt;Node67</title>
<path fill="none" stroke="#191970" d="M458.44,-309.7046C459.0426,-318.6944 458.6384,-328.9382 457.2274,-336.2455"/>
<polygon fill="#191970" stroke="#191970" points="461.8973,-309.1421 457.2056,-299.6427 454.9494,-309.9945 461.8973,-309.1421"/>
</g>
<!-- Node69 -->
<g id="node3" class="node">
<title>Node69</title>
<g id="a_node3"><a xlink:href="lox_8hpp.html" target="_top" xlink:title="lox.hpp">
<polygon fill="#ffffff" stroke="#000000" points="78.9605,-168.5 78.9605,-187.5 126.9605,-187.5 126.9605,-168.5 78.9605,-168.5"/>
<text text-anchor="middle" x="102.9605" y="-175.5" font-family="Helvetica,sans-Serif" font-size="10.00" fill="#000000">lox.hpp</text>
</a>
</g>
</g>
<!-- Node68&#45;&gt;Node69 -->
<g id="edge3" class="edge">
<title>Node68&#45;&gt;Node69</title>
<path fill="none" stroke="#191970" d="M415.1311,-289.0205C313.0202,-285.7945 32.9198,-273.9461 5.9605,-244 -18.4444,-216.8914 42.5531,-193.4946 78.8396,-183.3611"/>
<polygon fill="#191970" stroke="#191970" points="415.1818,-292.5236 425.2841,-289.331 415.3958,-285.5269 415.1818,-292.5236"/>
</g>
<!-- Node70 -->
<g id="node4" class="node">
<title>Node70</title>
<g id="a_node4"><a xlink:href="alox__console__loggers_8hpp.html" target="_top" xlink:title="alox_console_loggers.hpp">
<polygon fill="#ffffff" stroke="#000000" points="480.4605,-.5 480.4605,-19.5 609.4605,-19.5 609.4605,-.5 480.4605,-.5"/>
<text text-anchor="middle" x="544.9605" y="-7.5" font-family="Helvetica,sans-Serif" font-size="10.00" fill="#000000">alox_console_loggers.hpp</text>
</a>
</g>
</g>
<!-- Node68&#45;&gt;Node70 -->
<g id="edge4" class="edge">
<title>Node68&#45;&gt;Node70</title>
<path fill="none" stroke="#191970" d="M488.8131,-285.7288C604.8393,-271.7899 954.9605,-225.7703 954.9605,-178 954.9605,-178 954.9605,-178 954.9605,-122 954.9605,-91.4754 959.2321,-75.7531 935.9605,-56 911.5994,-35.3221 714.1968,-20.3084 609.5542,-13.7173"/>
<polygon fill="#191970" stroke="#191970" points="488.1646,-282.2812 478.6488,-286.9395 488.9926,-289.2321 488.1646,-282.2812"/>
</g>
<!-- Node71 -->
<g id="node5" class="node">
<title>Node71</title>
<g id="a_node5"><a xlink:href="domain_8hpp.html" target="_top" xlink:title="domain.hpp">
<polygon fill="#ffffff" stroke="#000000" points="24.4605,-224.5 24.4605,-243.5 91.4605,-243.5 91.4605,-224.5 24.4605,-224.5"/>
<text text-anchor="middle" x="57.9605" y="-231.5" font-family="Helvetica,sans-Serif" font-size="10.00" fill="#000000">domain.hpp</text>
</a>
</g>
</g>
<!-- Node68&#45;&gt;Node71 -->
<g id="edge5" class="edge">
<title>Node68&#45;&gt;Node71</title>
<path fill="none" stroke="#191970" d="M415.2863,-286.4748C351.0695,-280.0203 214.2225,-265.01 99.9605,-244 97.3066,-243.512 94.5686,-242.9635 91.8225,-242.3812"/>
<polygon fill="#191970" stroke="#191970" points="415.022,-289.9657 425.3194,-287.4728 415.715,-283.0001 415.022,-289.9657"/>
</g>
<!-- Node72 -->
<g id="node6" class="node">
<title>Node72</title>
<g id="a_node6"><a xlink:href="logger_8hpp.html" target="_top" xlink:title="logger.hpp">
<polygon fill="#ffffff" stroke="#000000" points="305.4605,-224.5 305.4605,-243.5 366.4605,-243.5 366.4605,-224.5 305.4605,-224.5"/>
<text text-anchor="middle" x="335.9605" y="-231.5" font-family="Helvetica,sans-Serif" font-size="10.00" fill="#000000">logger.hpp</text>
</a>
</g>
</g>
<!-- Node68&#45;&gt;Node72 -->
<g id="edge6" class="edge">
<title>Node68&#45;&gt;Node72</title>
<path fill="none" stroke="#191970" d="M422.9068,-275.9741C401.904,-265.8348 374.0915,-252.408 355.6414,-243.5011"/>
<polygon fill="#191970" stroke="#191970" points="421.4922,-279.1776 432.0194,-280.3733 424.5355,-272.8738 421.4922,-279.1776"/>
</g>
<!-- Node73 -->
<g id="node7" class="node">
<title>Node73</title>
<g id="a_node7"><a xlink:href="textlogger_8hpp.html" target="_top" xlink:title="textlogger.hpp">
<polygon fill="#ffffff" stroke="#000000" points="491.4605,-168.5 491.4605,-187.5 568.4605,-187.5 568.4605,-168.5 491.4605,-168.5"/>
<text text-anchor="middle" x="529.9605" y="-175.5" font-family="Helvetica,sans-Serif" font-size="10.00" fill="#000000">textlogger.hpp</text>
</a>
</g>
</g>
<!-- Node68&#45;&gt;Node73 -->
<g id="edge7" class="edge">
<title>Node68&#45;&gt;Node73</title>
<path fill="none" stroke="#191970" d="M465.1393,-271.8408C471.2205,-263.4076 478.5068,-253.2268 484.9605,-244 498.7914,-224.2263 514.6098,-200.8421 523.3244,-187.8904"/>
<polygon fill="#191970" stroke="#191970" points="462.134,-270.0238 459.1099,-280.1779 467.8061,-274.1259 462.134,-270.0238"/>
</g>
<!-- Node74 -->
<g id="node8" class="node">
<title>Node74</title>
<g id="a_node8"><a xlink:href="plaintextlogger_8hpp.html" target="_top" xlink:title="plaintextlogger.hpp">
<polygon fill="#ffffff" stroke="#000000" points="684.9605,-112.5 684.9605,-131.5 782.9605,-131.5 782.9605,-112.5 684.9605,-112.5"/>
<text text-anchor="middle" x="733.9605" y="-119.5" font-family="Helvetica,sans-Serif" font-size="10.00" fill="#000000">plaintextlogger.hpp</text>
</a>
</g>
</g>
<!-- Node68&#45;&gt;Node74 -->
<g id="edge8" class="edge">
<title>Node68&#45;&gt;Node74</title>
<path fill="none" stroke="#191970" d="M488.5751,-286.1349C543.2199,-279.7416 642.7163,-265.4971 670.9605,-244 709.4668,-214.6922 726.5189,-155.1512 731.9291,-131.7537"/>
<polygon fill="#191970" stroke="#191970" points="488.1384,-282.6619 478.5997,-287.273 488.932,-289.6168 488.1384,-282.6619"/>
</g>
<!-- Node75 -->
<g id="node9" class="node">
<title>Node75</title>
<g id="a_node9"><a xlink:href="consolelogger_8hpp.html" target="_top" xlink:title="consolelogger.hpp">
<polygon fill="#ffffff" stroke="#000000" points="831.4605,-56.5 831.4605,-75.5 926.4605,-75.5 926.4605,-56.5 831.4605,-56.5"/>
<text text-anchor="middle" x="878.9605" y="-63.5" font-family="Helvetica,sans-Serif" font-size="10.00" fill="#000000">consolelogger.hpp</text>
</a>
</g>
</g>
<!-- Node68&#45;&gt;Node75 -->
<g id="edge9" class="edge">
<title>Node68&#45;&gt;Node75</title>
<path fill="none" stroke="#191970" d="M488.6662,-286.3723C552.7885,-279.6083 682.2613,-263.9324 722.9605,-244 801.9333,-205.3231 857.8849,-106.9242 874.1184,-75.6782"/>
<polygon fill="#191970" stroke="#191970" points="488.1763,-282.9043 478.5913,-287.4183 488.8993,-289.8668 488.1763,-282.9043"/>
</g>
<!-- Node76 -->
<g id="node10" class="node">
<title>Node76</title>
<g id="a_node10"><a xlink:href="memorylogger_8hpp.html" target="_top" xlink:title="memorylogger.hpp">
<polygon fill="#ffffff" stroke="#000000" points="608.9605,-56.5 608.9605,-75.5 704.9605,-75.5 704.9605,-56.5 608.9605,-56.5"/>
<text text-anchor="middle" x="656.9605" y="-63.5" font-family="Helvetica,sans-Serif" font-size="10.00" fill="#000000">memorylogger.hpp</text>
</a>
</g>
</g>
<!-- Node68&#45;&gt;Node76 -->
<g id="edge10" class="edge">
<title>Node68&#45;&gt;Node76</title>
<path fill="none" stroke="#191970" d="M488.0729,-279.0344C509.0627,-271.4623 535.186,-259.8777 554.9605,-244 603.2712,-205.2096 610.5088,-187.543 637.9605,-132 647.2588,-113.1867 652.7524,-89.0464 655.2779,-75.7959"/>
<polygon fill="#191970" stroke="#191970" points="486.8407,-275.757 478.5322,-282.3312 489.127,-282.3732 486.8407,-275.757"/>
</g>
<!-- Node77 -->
<g id="node11" class="node">
<title>Node77</title>
<g id="a_node11"><a xlink:href="textfilelogger_8hpp.html" target="_top" xlink:title="textfilelogger.hpp">
<polygon fill="#ffffff" stroke="#000000" points="722.9605,-56.5 722.9605,-75.5 812.9605,-75.5 812.9605,-56.5 722.9605,-56.5"/>
<text text-anchor="middle" x="767.9605" y="-63.5" font-family="Helvetica,sans-Serif" font-size="10.00" fill="#000000">textfilelogger.hpp</text>
</a>
</g>
</g>
<!-- Node68&#45;&gt;Node77 -->
<g id="edge11" class="edge">
<title>Node68&#45;&gt;Node77</title>
<path fill="none" stroke="#191970" d="M488.7546,-285.9772C547.5244,-279.0626 659.4726,-263.7421 693.9605,-244 751.3639,-211.1403 768.6962,-193.9168 791.9605,-132 799.4223,-112.1408 785.6533,-88.7873 776.067,-75.8641"/>
<polygon fill="#191970" stroke="#191970" points="488.3042,-282.5059 478.7722,-287.131 489.1079,-289.4596 488.3042,-282.5059"/>
</g>
<!-- Node78 -->
<g id="node12" class="node">
<title>Node78</title>
<g id="a_node12"><a xlink:href="vstudiologger_8hpp.html" target="_top" xlink:title="vstudiologger.hpp">
<polygon fill="#ffffff" stroke="#000000" points="498.9605,-56.5 498.9605,-75.5 590.9605,-75.5 590.9605,-56.5 498.9605,-56.5"/>
<text text-anchor="middle" x="544.9605" y="-63.5" font-family="Helvetica,sans-Serif" font-size="10.00" fill="#000000">vstudiologger.hpp</text>
</a>
</g>
</g>
<!-- Node68&#45;&gt;Node78 -->
<g id="edge12" class="edge">
<title>Node68&#45;&gt;Node78</title>
<path fill="none" stroke="#191970" d="M441.5231,-271.4045C419.6535,-231.2712 372.5869,-138.0551 391.9605,-112 404.8285,-94.6942 458.5149,-81.4401 498.684,-73.7006"/>
<polygon fill="#191970" stroke="#191970" points="438.5871,-273.3282 446.4845,-280.391 444.7152,-269.9449 438.5871,-273.3282"/>
</g>
<!-- Node79 -->
<g id="node13" class="node">
<title>Node79</title>
<g id="a_node13"><a xlink:href="ansilogger_8hpp.html" target="_top" xlink:title="ansilogger.hpp">
<polygon fill="#ffffff" stroke="#000000" points="400.4605,-112.5 400.4605,-131.5 479.4605,-131.5 479.4605,-112.5 400.4605,-112.5"/>
<text text-anchor="middle" x="439.9605" y="-119.5" font-family="Helvetica,sans-Serif" font-size="10.00" fill="#000000">ansilogger.hpp</text>
</a>
</g>
</g>
<!-- Node68&#45;&gt;Node79 -->
<g id="edge13" class="edge">
<title>Node68&#45;&gt;Node79</title>
<path fill="none" stroke="#191970" d="M450.5505,-270.2601C447.9724,-234.1669 442.5866,-158.7656 440.6625,-131.8279"/>
<polygon fill="#191970" stroke="#191970" points="447.0773,-270.761 451.281,-280.4862 454.0595,-270.2623 447.0773,-270.761"/>
</g>
<!-- Node80 -->
<g id="node14" class="node">
<title>Node80</title>
<g id="a_node14"><a xlink:href="windowsconsolelogger_8hpp.html" target="_top" xlink:title="windowsconsolelogger.hpp">
<polygon fill="#ffffff" stroke="#000000" points="497.4605,-112.5 497.4605,-131.5 628.4605,-131.5 628.4605,-112.5 497.4605,-112.5"/>
<text text-anchor="middle" x="562.9605" y="-119.5" font-family="Helvetica,sans-Serif" font-size="10.00" fill="#000000">windowsconsolelogger.hpp</text>
</a>
</g>
</g>
<!-- Node68&#45;&gt;Node80 -->
<g id="edge14" class="edge">
<title>Node68&#45;&gt;Node80</title>
<path fill="none" stroke="#191970" d="M481.8737,-275.8272C512.4569,-259.4811 558.1923,-229.4365 577.9605,-188 586.8653,-169.3344 576.4362,-145.1387 569.0484,-131.8392"/>
<polygon fill="#191970" stroke="#191970" points="480.191,-272.757 472.9144,-280.4578 483.405,-278.9755 480.191,-272.757"/>
</g>
<!-- Node81 -->
<g id="node15" class="node">
<title>Node81</title>
<g id="a_node15"><a xlink:href="scopedump_8hpp.html" target="_top" xlink:title="scopedump.hpp">
<polygon fill="#ffffff" stroke="#000000" points="239.9605,-168.5 239.9605,-187.5 325.9605,-187.5 325.9605,-168.5 239.9605,-168.5"/>
<text text-anchor="middle" x="282.9605" y="-175.5" font-family="Helvetica,sans-Serif" font-size="10.00" fill="#000000">scopedump.hpp</text>
</a>
</g>
</g>
<!-- Node68&#45;&gt;Node81 -->
<g id="edge15" class="edge">
<title>Node68&#45;&gt;Node81</title>
<path fill="none" stroke="#191970" d="M434.9402,-272.9472C420.1802,-258.7367 397.8098,-238.5413 375.9605,-224 353.6172,-209.1299 325.7781,-195.9865 306.4098,-187.5973"/>
<polygon fill="#191970" stroke="#191970" points="432.7096,-275.6613 442.3056,-280.1522 437.6046,-270.6574 432.7096,-275.6613"/>
</g>
<!-- Node82 -->
<g id="node16" class="node">
<title>Node82</title>
<g id="a_node16"><a xlink:href="scopestore_8hpp.html" target="_top" xlink:title="scopestore.hpp">
<polygon fill="#ffffff" stroke="#000000" points="204.4605,-224.5 204.4605,-243.5 287.4605,-243.5 287.4605,-224.5 204.4605,-224.5"/>
<text text-anchor="middle" x="245.9605" y="-231.5" font-family="Helvetica,sans-Serif" font-size="10.00" fill="#000000">scopestore.hpp</text>
</a>
</g>
</g>
<!-- Node68&#45;&gt;Node82 -->
<g id="edge16" class="edge">
<title>Node68&#45;&gt;Node82</title>
<path fill="none" stroke="#191970" d="M415.3268,-280.0413C377.3327,-269.7128 318.3555,-253.6802 280.9721,-243.5177"/>
<polygon fill="#191970" stroke="#191970" points="414.8834,-283.5477 425.4513,-282.7936 416.7197,-276.7929 414.8834,-283.5477"/>
</g>
<!-- Node83 -->
<g id="node17" class="node">
<title>Node83</title>
<g id="a_node17"><a xlink:href="scopeinfo_8hpp.html" target="_top" xlink:title="scopeinfo.hpp">
<polygon fill="#ffffff" stroke="#000000" points="109.4605,-224.5 109.4605,-243.5 186.4605,-243.5 186.4605,-224.5 109.4605,-224.5"/>
<text text-anchor="middle" x="147.9605" y="-231.5" font-family="Helvetica,sans-Serif" font-size="10.00" fill="#000000">scopeinfo.hpp</text>
</a>
</g>
</g>
<!-- Node68&#45;&gt;Node83 -->
<g id="edge17" class="edge">
<title>Node68&#45;&gt;Node83</title>
<path fill="none" stroke="#191970" d="M415.4283,-283.7622C365.7052,-275.1976 273.9735,-259.1323 195.9605,-244 192.9522,-243.4165 189.8407,-242.7993 186.7146,-242.1695"/>
<polygon fill="#191970" stroke="#191970" points="414.9325,-287.2283 425.381,-285.4729 416.1184,-280.3294 414.9325,-287.2283"/>
</g>
<!-- Node69&#45;&gt;Node68 -->
<g id="edge18" class="edge">
<title>Node69&#45;&gt;Node68</title>
<path fill="none" stroke="#191970" d="M69.5031,-190.8152C39.8463,-202.8506 4.3601,-222.2282 23.9605,-244 51.1402,-274.1909 335.6158,-285.9869 425.231,-289.0979"/>
<polygon fill="#191970" stroke="#191970" points="70.8038,-194.0647 78.8499,-187.1719 68.2615,-187.5427 70.8038,-194.0647"/>
</g>
<!-- Node71&#45;&gt;Node69 -->
<g id="edge19" class="edge">
<title>Node71&#45;&gt;Node69</title>
<path fill="none" stroke="#191970" d="M72.2551,-216.2112C79.8601,-206.7472 88.9144,-195.4797 95.2119,-187.6427"/>
<polygon fill="#191970" stroke="#191970" points="69.3346,-214.2581 65.7989,-224.2455 74.7911,-218.6428 69.3346,-214.2581"/>
</g>
<!-- Node72&#45;&gt;Node69 -->
<g id="edge20" class="edge">
<title>Node72&#45;&gt;Node69</title>
<path fill="none" stroke="#191970" d="M295.5506,-223.6796C229.2901,-207.3901 162.2204,-191.7186 127.1902,-183.596"/>
<polygon fill="#191970" stroke="#191970" points="294.7699,-227.0919 305.317,-226.0866 296.4451,-220.2952 294.7699,-227.0919"/>
</g>
<!-- Node72&#45;&gt;Node73 -->
<g id="edge21" class="edge">
<title>Node72&#45;&gt;Node73</title>
<path fill="none" stroke="#191970" d="M376.3189,-222.3501C412.0005,-212.0503 463.4222,-197.2069 496.7658,-187.582"/>
<polygon fill="#191970" stroke="#191970" points="375.3374,-218.9905 366.7004,-225.1266 377.2788,-225.7159 375.3374,-218.9905"/>
</g>
<!-- Node73&#45;&gt;Node74 -->
<g id="edge22" class="edge">
<title>Node73&#45;&gt;Node74</title>
<path fill="none" stroke="#191970" d="M574.6952,-165.7199C612.206,-155.4228 665.0026,-140.9296 699.3493,-131.5011"/>
<polygon fill="#191970" stroke="#191970" points="573.7461,-162.3509 565.0294,-168.3733 575.5992,-169.1012 573.7461,-162.3509"/>
</g>
<!-- Node73&#45;&gt;Node79 -->
<g id="edge23" class="edge">
<title>Node73&#45;&gt;Node79</title>
<path fill="none" stroke="#191970" d="M505.4821,-162.769C489.5339,-152.8456 469.2095,-140.1994 455.4577,-131.6427"/>
<polygon fill="#191970" stroke="#191970" points="503.9441,-165.9342 514.2837,-168.2455 507.6422,-159.9908 503.9441,-165.9342"/>
</g>
<!-- Node73&#45;&gt;Node80 -->
<g id="edge24" class="edge">
<title>Node73&#45;&gt;Node80</title>
<path fill="none" stroke="#191970" d="M540.7859,-159.6296C546.2904,-150.2887 552.7542,-139.3197 557.2782,-131.6427"/>
<polygon fill="#191970" stroke="#191970" points="537.7703,-157.8532 535.7087,-168.2455 543.801,-161.4071 537.7703,-157.8532"/>
</g>
<!-- Node74&#45;&gt;Node75 -->
<g id="edge25" class="edge">
<title>Node74&#45;&gt;Node75</title>
<path fill="none" stroke="#191970" d="M768.517,-108.6541C794.9591,-98.4419 830.7774,-84.6086 854.3594,-75.5011"/>
<polygon fill="#191970" stroke="#191970" points="766.9544,-105.5055 758.8869,-112.3733 769.4763,-112.0354 766.9544,-105.5055"/>
</g>
<!-- Node74&#45;&gt;Node76 -->
<g id="edge26" class="edge">
<title>Node74&#45;&gt;Node76</title>
<path fill="none" stroke="#191970" d="M712.2489,-106.2097C698.7252,-96.3743 681.7647,-84.0394 670.2192,-75.6427"/>
<polygon fill="#191970" stroke="#191970" points="710.4021,-109.1944 720.5481,-112.2455 714.5194,-103.5332 710.4021,-109.1944"/>
</g>
<!-- Node74&#45;&gt;Node77 -->
<g id="edge27" class="edge">
<title>Node74&#45;&gt;Node77</title>
<path fill="none" stroke="#191970" d="M745.114,-103.6296C750.7852,-94.2887 757.445,-83.3197 762.106,-75.6427"/>
<polygon fill="#191970" stroke="#191970" points="742.0809,-101.8812 739.8829,-112.2455 748.0644,-105.5141 742.0809,-101.8812"/>
</g>
<!-- Node74&#45;&gt;Node78 -->
<g id="edge28" class="edge">
<title>Node74&#45;&gt;Node78</title>
<path fill="none" stroke="#191970" d="M691.6248,-109.4561C656.9311,-99.1765 608.5772,-84.8494 577.0268,-75.5011"/>
<polygon fill="#191970" stroke="#191970" points="690.8879,-112.8881 701.4702,-112.3733 692.8766,-106.1765 690.8879,-112.8881"/>
</g>
<!-- Node75&#45;&gt;Node70 -->
<g id="edge29" class="edge">
<title>Node75&#45;&gt;Node70</title>
<path fill="none" stroke="#191970" d="M821.4272,-55.9207C739.76,-42.0024 657.2354,-28.3761 603.3493,-19.5378"/>
<polygon fill="#191970" stroke="#191970" points="820.9341,-59.3871 831.3804,-57.6192 822.1117,-52.4868 820.9341,-59.3871"/>
</g>
<!-- Node78&#45;&gt;Node70 -->
<g id="edge30" class="edge">
<title>Node78&#45;&gt;Node70</title>
<path fill="none" stroke="#191970" d="M544.9605,-46.1575C544.9605,-37.155 544.9605,-26.9199 544.9605,-19.6427"/>
<polygon fill="#191970" stroke="#191970" points="541.4606,-46.2455 544.9605,-56.2455 548.4606,-46.2456 541.4606,-46.2455"/>
</g>
<!-- Node79&#45;&gt;Node70 -->
<g id="edge31" class="edge">
<title>Node79&#45;&gt;Node70</title>
<path fill="none" stroke="#191970" d="M449.8268,-103.1679C457.6739,-89.2295 469.5375,-70.2661 482.9605,-56 496.7372,-41.3579 515.6554,-28.0817 528.96,-19.5977"/>
<polygon fill="#191970" stroke="#191970" points="446.5678,-101.834 444.8579,-112.29 452.715,-105.1825 446.5678,-101.834"/>
</g>
<!-- Node80&#45;&gt;Node70 -->
<g id="edge32" class="edge">
<title>Node80&#45;&gt;Node70</title>
<path fill="none" stroke="#191970" d="M526.2359,-108.0781C512.2816,-100.7767 497.8569,-90.3092 489.9605,-76 477.6374,-53.6692 506.3172,-31.7229 526.721,-19.6111"/>
<polygon fill="#191970" stroke="#191970" points="524.7365,-111.2407 535.2646,-112.4275 527.7745,-104.9343 524.7365,-111.2407"/>
</g>
<!-- Node82&#45;&gt;Node69 -->
<g id="edge33" class="edge">
<title>Node82&#45;&gt;Node69</title>
<path fill="none" stroke="#191970" d="M211.8807,-220.6541C185.8032,-210.4419 150.479,-196.6086 127.2223,-187.5011"/>
<polygon fill="#191970" stroke="#191970" points="210.7902,-223.9858 221.3779,-224.3733 213.3427,-217.4677 210.7902,-223.9858"/>
</g>
<!-- Node82&#45;&gt;Node81 -->
<g id="edge34" class="edge">
<title>Node82&#45;&gt;Node81</title>
<path fill="none" stroke="#191970" d="M258.0981,-215.6296C264.2698,-206.2887 271.5171,-195.3197 276.5895,-187.6427"/>
<polygon fill="#191970" stroke="#191970" points="254.9979,-213.9728 252.4054,-224.2455 260.8382,-217.8316 254.9979,-213.9728"/>
</g>
<!-- Node83&#45;&gt;Node69 -->
<g id="edge35" class="edge">
<title>Node83&#45;&gt;Node69</title>
<path fill="none" stroke="#191970" d="M133.666,-216.2112C126.0609,-206.7472 117.0067,-195.4797 110.7091,-187.6427"/>
<polygon fill="#191970" stroke="#191970" points="131.1299,-218.6428 140.1221,-224.2455 136.5864,-214.2581 131.1299,-218.6428"/>
</g>
</g>
</svg>
