<?xml version="1.0" encoding="UTF-8" standalone="no"?>
<!DOCTYPE svg PUBLIC "-//W3C//DTD SVG 1.1//EN"
 "http://www.w3.org/Graphics/SVG/1.1/DTD/svg11.dtd">
<!-- Generated by graphviz version 2.38.0 (20140413.2041)
 -->
<!-- Title: log.hpp Pages: 1 -->
<svg width="715pt" height="420pt"
 viewBox="0.00 0.00 714.50 420.00" xmlns="http://www.w3.org/2000/svg" xmlns:xlink="http://www.w3.org/1999/xlink">
<g id="graph0" class="graph" transform="scale(1 1) rotate(0) translate(4 416)">
<title>log.hpp</title>
<polygon fill="white" stroke="none" points="-4,4 -4,-416 710.5,-416 710.5,4 -4,4"/>
<!-- Node1 -->
<g id="node1" class="node"><title>Node1</title>
<polygon fill="#bfbfbf" stroke="black" points="376.5,-392.5 376.5,-411.5 424.5,-411.5 424.5,-392.5 376.5,-392.5"/>
<text text-anchor="middle" x="400.5" y="-399.5" font-family="Helvetica,sans-Serif" font-size="10.00">log.hpp</text>
</g>
<!-- Node2 -->
<g id="node2" class="node"><title>Node2</title>
<g id="a_node2"><a xlink:href="alox_8hpp.html" target="_top" xlink:title="alox.hpp">
<polygon fill="white" stroke="black" points="374,-336.5 374,-355.5 427,-355.5 427,-336.5 374,-336.5"/>
<text text-anchor="middle" x="400.5" y="-343.5" font-family="Helvetica,sans-Serif" font-size="10.00">alox.hpp</text>
</a>
</g>
</g>
<!-- Node1&#45;&gt;Node2 -->
<g id="edge1" class="edge"><title>Node1&#45;&gt;Node2</title>
<path fill="none" stroke="midnightblue" d="M394.028,-382.101C393.396,-373.136 393.843,-362.858 395.369,-355.751"/>
<polygon fill="midnightblue" stroke="midnightblue" points="390.566,-382.622 395.334,-392.083 397.507,-381.713 390.566,-382.622"/>
</g>
<!-- Node2&#45;&gt;Node1 -->
<g id="edge2" class="edge"><title>Node2&#45;&gt;Node1</title>
<path fill="none" stroke="midnightblue" d="M406.958,-365.691C407.606,-374.635 407.176,-384.927 405.666,-392.083"/>
<polygon fill="midnightblue" stroke="midnightblue" points="410.423,-365.2 405.631,-355.751 403.485,-366.126 410.423,-365.2"/>
</g>
<!-- Node3 -->
<g id="node3" class="node"><title>Node3</title>
<g id="a_node3"><a xlink:href="alox__console__loggers_8hpp.html" target="_top" xlink:title="alox_console_loggers.hpp">
<polygon fill="white" stroke="black" points="422,-0.5 422,-19.5 551,-19.5 551,-0.5 422,-0.5"/>
<text text-anchor="middle" x="486.5" y="-7.5" font-family="Helvetica,sans-Serif" font-size="10.00">alox_console_loggers.hpp</text>
</a>
</g>
</g>
<!-- Node2&#45;&gt;Node3 -->
<g id="edge3" class="edge"><title>Node2&#45;&gt;Node3</title>
<path fill="none" stroke="midnightblue" d="M437.413,-339.711C518.801,-327.013 706.5,-291.594 706.5,-235 706.5,-235 706.5,-235 706.5,-121 706.5,-50.8608 615.936,-25.4427 551.021,-16.2324"/>
<polygon fill="midnightblue" stroke="midnightblue" points="436.477,-336.313 427.12,-341.284 437.534,-343.233 436.477,-336.313"/>
</g>
<!-- Node4 -->
<g id="node4" class="node"><title>Node4</title>
<g id="a_node4"><a xlink:href="callerinfo_8hpp.html" target="_top" xlink:title="callerinfo.hpp">
<polygon fill="white" stroke="black" points="452.5,-280.5 452.5,-299.5 526.5,-299.5 526.5,-280.5 452.5,-280.5"/>
<text text-anchor="middle" x="489.5" y="-287.5" font-family="Helvetica,sans-Serif" font-size="10.00">callerinfo.hpp</text>
</a>
</g>
</g>
<!-- Node2&#45;&gt;Node4 -->
<g id="edge4" class="edge"><title>Node2&#45;&gt;Node4</title>
<path fill="none" stroke="midnightblue" d="M423.738,-330.901C440.058,-320.999 461.365,-308.071 475.236,-299.655"/>
<polygon fill="midnightblue" stroke="midnightblue" points="421.533,-328.144 414.799,-336.324 425.164,-334.129 421.533,-328.144"/>
</g>
<!-- Node6 -->
<g id="node6" class="node"><title>Node6</title>
<g id="a_node6"><a xlink:href="logger_8hpp.html" target="_top" xlink:title="logger.hpp">
<polygon fill="white" stroke="black" points="458.5,-224.5 458.5,-243.5 520.5,-243.5 520.5,-224.5 458.5,-224.5"/>
<text text-anchor="middle" x="489.5" y="-231.5" font-family="Helvetica,sans-Serif" font-size="10.00">logger.hpp</text>
</a>
</g>
</g>
<!-- Node2&#45;&gt;Node6 -->
<g id="edge23" class="edge"><title>Node2&#45;&gt;Node6</title>
<path fill="none" stroke="midnightblue" d="M437.349,-343.939C469.131,-340.832 513.307,-330.791 535.5,-300 549.969,-279.925 521.715,-256.145 503.408,-243.655"/>
<polygon fill="midnightblue" stroke="midnightblue" points="436.79,-340.472 427.096,-344.746 437.34,-347.45 436.79,-340.472"/>
</g>
<!-- Node7 -->
<g id="node7" class="node"><title>Node7</title>
<g id="a_node7"><a xlink:href="textlogger_8hpp.html" target="_top" xlink:title="textlogger.hpp">
<polygon fill="white" stroke="black" points="450.5,-168.5 450.5,-187.5 528.5,-187.5 528.5,-168.5 450.5,-168.5"/>
<text text-anchor="middle" x="489.5" y="-175.5" font-family="Helvetica,sans-Serif" font-size="10.00">textlogger.hpp</text>
</a>
</g>
</g>
<!-- Node2&#45;&gt;Node7 -->
<g id="edge25" class="edge"><title>Node2&#45;&gt;Node7</title>
<path fill="none" stroke="midnightblue" d="M437.117,-345.571C472.774,-343.917 525.311,-335.132 551.5,-300 579.997,-261.772 524.92,-208.536 500.416,-187.777"/>
<polygon fill="midnightblue" stroke="midnightblue" points="436.983,-342.074 427.092,-345.871 437.192,-349.071 436.983,-342.074"/>
</g>
<!-- Node8 -->
<g id="node8" class="node"><title>Node8</title>
<g id="a_node8"><a xlink:href="plaintextlogger_8hpp.html" target="_top" xlink:title="plaintextlogger.hpp">
<polygon fill="white" stroke="black" points="136.5,-112.5 136.5,-131.5 234.5,-131.5 234.5,-112.5 136.5,-112.5"/>
<text text-anchor="middle" x="185.5" y="-119.5" font-family="Helvetica,sans-Serif" font-size="10.00">plaintextlogger.hpp</text>
</a>
</g>
</g>
<!-- Node2&#45;&gt;Node8 -->
<g id="edge24" class="edge"><title>Node2&#45;&gt;Node8</title>
<path fill="none" stroke="midnightblue" d="M363.817,-343.333C329.791,-339.879 279.824,-329.673 248.5,-300 197.825,-251.996 187.849,-160.563 185.939,-131.853"/>
<polygon fill="midnightblue" stroke="midnightblue" points="363.562,-346.824 373.827,-344.202 364.167,-339.85 363.562,-346.824"/>
</g>
<!-- Node9 -->
<g id="node9" class="node"><title>Node9</title>
<g id="a_node9"><a xlink:href="consolelogger_8hpp.html" target="_top" xlink:title="consolelogger.hpp">
<polygon fill="white" stroke="black" points="335,-56.5 335,-75.5 430,-75.5 430,-56.5 335,-56.5"/>
<text text-anchor="middle" x="382.5" y="-63.5" font-family="Helvetica,sans-Serif" font-size="10.00">consolelogger.hpp</text>
</a>
</g>
</g>
<!-- Node2&#45;&gt;Node9 -->
<g id="edge27" class="edge"><title>Node2&#45;&gt;Node9</title>
<path fill="none" stroke="midnightblue" d="M374.51,-331.125C344.88,-313.204 300.5,-279.016 300.5,-235 300.5,-235 300.5,-235 300.5,-177 300.5,-131.266 346.625,-92.2582 369.688,-75.6125"/>
<polygon fill="midnightblue" stroke="midnightblue" points="373.131,-334.371 383.536,-336.364 376.644,-328.317 373.131,-334.371"/>
</g>
<!-- Node10 -->
<g id="node10" class="node"><title>Node10</title>
<g id="a_node10"><a xlink:href="memorylogger_8hpp.html" target="_top" xlink:title="memorylogger.hpp">
<polygon fill="white" stroke="black" points="111,-56.5 111,-75.5 208,-75.5 208,-56.5 111,-56.5"/>
<text text-anchor="middle" x="159.5" y="-63.5" font-family="Helvetica,sans-Serif" font-size="10.00">memorylogger.hpp</text>
</a>
</g>
</g>
<!-- Node2&#45;&gt;Node10 -->
<g id="edge28" class="edge"><title>Node2&#45;&gt;Node10</title>
<path fill="none" stroke="midnightblue" d="M363.875,-339.147C285.48,-325.583 108.5,-288.983 108.5,-235 108.5,-235 108.5,-235 108.5,-177 108.5,-146.902 114.374,-139.085 127.5,-112 134.105,-98.3697 144.747,-84.4229 151.926,-75.7423"/>
<polygon fill="midnightblue" stroke="midnightblue" points="363.368,-342.611 373.813,-340.834 364.54,-335.71 363.368,-342.611"/>
</g>
<!-- Node11 -->
<g id="node11" class="node"><title>Node11</title>
<g id="a_node11"><a xlink:href="textfilelogger_8hpp.html" target="_top" xlink:title="textfilelogger.hpp">
<polygon fill="white" stroke="black" points="226,-56.5 226,-75.5 317,-75.5 317,-56.5 226,-56.5"/>
<text text-anchor="middle" x="271.5" y="-63.5" font-family="Helvetica,sans-Serif" font-size="10.00">textfilelogger.hpp</text>
</a>
</g>
</g>
<!-- Node2&#45;&gt;Node11 -->
<g id="edge29" class="edge"><title>Node2&#45;&gt;Node11</title>
<path fill="none" stroke="midnightblue" d="M364.231,-333.729C323.344,-318.497 262.5,-287.08 262.5,-235 262.5,-235 262.5,-235 262.5,-177 262.5,-139.061 267.884,-94.0063 270.323,-75.5383"/>
<polygon fill="midnightblue" stroke="midnightblue" points="363.298,-337.112 373.892,-337.169 365.646,-330.517 363.298,-337.112"/>
</g>
<!-- Node12 -->
<g id="node12" class="node"><title>Node12</title>
<g id="a_node12"><a xlink:href="vstudiologger_8hpp.html" target="_top" xlink:title="vstudiologger.hpp">
<polygon fill="white" stroke="black" points="0,-56.5 0,-75.5 93,-75.5 93,-56.5 0,-56.5"/>
<text text-anchor="middle" x="46.5" y="-63.5" font-family="Helvetica,sans-Serif" font-size="10.00">vstudiologger.hpp</text>
</a>
</g>
</g>
<!-- Node2&#45;&gt;Node12 -->
<g id="edge30" class="edge"><title>Node2&#45;&gt;Node12</title>
<path fill="none" stroke="midnightblue" d="M363.733,-341.216C274.643,-331.032 54.5,-299.355 54.5,-235 54.5,-235 54.5,-235 54.5,-177 54.5,-139.088 49.7144,-94.0183 47.5459,-75.5424"/>
<polygon fill="midnightblue" stroke="midnightblue" points="363.598,-344.723 373.924,-342.352 364.374,-337.766 363.598,-344.723"/>
</g>
<!-- Node13 -->
<g id="node13" class="node"><title>Node13</title>
<g id="a_node13"><a xlink:href="ansilogger_8hpp.html" target="_top" xlink:title="ansilogger.hpp">
<polygon fill="white" stroke="black" points="446.5,-112.5 446.5,-131.5 526.5,-131.5 526.5,-112.5 446.5,-112.5"/>
<text text-anchor="middle" x="486.5" y="-119.5" font-family="Helvetica,sans-Serif" font-size="10.00">ansilogger.hpp</text>
</a>
</g>
</g>
<!-- Node2&#45;&gt;Node13 -->
<g id="edge26" class="edge"><title>Node2&#45;&gt;Node13</title>
<path fill="none" stroke="midnightblue" d="M437.211,-340.446C481.924,-334.057 553.493,-320.827 569.5,-300 606.286,-252.137 571.357,-217.978 537.5,-168 527.301,-152.945 510.917,-139.718 499.48,-131.569"/>
<polygon fill="midnightblue" stroke="midnightblue" points="436.717,-336.981 427.29,-341.815 437.674,-343.915 436.717,-336.981"/>
</g>
<!-- Node14 -->
<g id="node14" class="node"><title>Node14</title>
<g id="a_node14"><a xlink:href="windowsconsolelogger_8hpp.html" target="_top" xlink:title="windowsconsolelogger.hpp">
<polygon fill="white" stroke="black" points="544.5,-112.5 544.5,-131.5 678.5,-131.5 678.5,-112.5 544.5,-112.5"/>
<text text-anchor="middle" x="611.5" y="-119.5" font-family="Helvetica,sans-Serif" font-size="10.00">windowsconsolelogger.hpp</text>
</a>
</g>
</g>
<!-- Node2&#45;&gt;Node14 -->
<g id="edge31" class="edge"><title>Node2&#45;&gt;Node14</title>
<path fill="none" stroke="midnightblue" d="M437.3,-341.189C486.412,-335.306 569.532,-322.297 589.5,-300 633.709,-250.636 619.379,-160.116 613.488,-131.743"/>
<polygon fill="midnightblue" stroke="midnightblue" points="436.61,-337.746 427.077,-342.37 437.413,-344.7 436.61,-337.746"/>
</g>
<!-- Node15 -->
<g id="node15" class="node"><title>Node15</title>
<g id="a_node15"><a xlink:href="domain_8hpp.html" target="_top" xlink:title="domain.hpp">
<polygon fill="white" stroke="black" points="367,-280.5 367,-299.5 434,-299.5 434,-280.5 367,-280.5"/>
<text text-anchor="middle" x="400.5" y="-287.5" font-family="Helvetica,sans-Serif" font-size="10.00">domain.hpp</text>
</a>
</g>
</g>
<!-- Node2&#45;&gt;Node15 -->
<g id="edge20" class="edge"><title>Node2&#45;&gt;Node15</title>
<path fill="none" stroke="midnightblue" d="M400.5,-325.805C400.5,-316.91 400.5,-306.78 400.5,-299.751"/>
<polygon fill="midnightblue" stroke="midnightblue" points="397,-326.083 400.5,-336.083 404,-326.083 397,-326.083"/>
</g>
<!-- Node5 -->
<g id="node5" class="node"><title>Node5</title>
<g id="a_node5"><a xlink:href="lox_8hpp.html" target="_top" xlink:title="lox.hpp">
<polygon fill="white" stroke="black" points="376.5,-224.5 376.5,-243.5 424.5,-243.5 424.5,-224.5 376.5,-224.5"/>
<text text-anchor="middle" x="400.5" y="-231.5" font-family="Helvetica,sans-Serif" font-size="10.00">lox.hpp</text>
</a>
</g>
</g>
<!-- Node4&#45;&gt;Node5 -->
<g id="edge5" class="edge"><title>Node4&#45;&gt;Node5</title>
<path fill="none" stroke="midnightblue" d="M466.262,-274.901C449.942,-264.999 428.635,-252.071 414.764,-243.655"/>
<polygon fill="midnightblue" stroke="midnightblue" points="464.836,-278.129 475.201,-280.324 468.467,-272.144 464.836,-278.129"/>
</g>
<!-- Node4&#45;&gt;Node6 -->
<g id="edge7" class="edge"><title>Node4&#45;&gt;Node6</title>
<path fill="none" stroke="midnightblue" d="M489.5,-269.805C489.5,-260.91 489.5,-250.78 489.5,-243.751"/>
<polygon fill="midnightblue" stroke="midnightblue" points="486,-270.083 489.5,-280.083 493,-270.083 486,-270.083"/>
</g>
<!-- Node5&#45;&gt;Node2 -->
<g id="edge6" class="edge"><title>Node5&#45;&gt;Node2</title>
<path fill="none" stroke="midnightblue" d="M380.256,-250.141C371.491,-257.969 362.18,-268.328 357.5,-280 348.637,-302.103 372.285,-324.537 387.93,-336.4"/>
<polygon fill="midnightblue" stroke="midnightblue" points="382.552,-252.783 388.003,-243.698 378.076,-247.401 382.552,-252.783"/>
</g>
<!-- Node6&#45;&gt;Node7 -->
<g id="edge8" class="edge"><title>Node6&#45;&gt;Node7</title>
<path fill="none" stroke="midnightblue" d="M489.5,-213.805C489.5,-204.91 489.5,-194.78 489.5,-187.751"/>
<polygon fill="midnightblue" stroke="midnightblue" points="486,-214.083 489.5,-224.083 493,-214.083 486,-214.083"/>
</g>
<!-- Node7&#45;&gt;Node8 -->
<g id="edge9" class="edge"><title>Node7&#45;&gt;Node8</title>
<path fill="none" stroke="midnightblue" d="M440.525,-168.3C383.534,-158.177 290.04,-141.57 233.478,-131.522"/>
<polygon fill="midnightblue" stroke="midnightblue" points="439.922,-171.748 450.38,-170.051 441.146,-164.856 439.922,-171.748"/>
</g>
<!-- Node7&#45;&gt;Node13 -->
<g id="edge16" class="edge"><title>Node7&#45;&gt;Node13</title>
<path fill="none" stroke="midnightblue" d="M488.434,-157.805C487.939,-148.91 487.377,-138.78 486.986,-131.751"/>
<polygon fill="midnightblue" stroke="midnightblue" points="484.955,-158.293 489.005,-168.083 491.944,-157.904 484.955,-158.293"/>
</g>
<!-- Node7&#45;&gt;Node14 -->
<g id="edge18" class="edge"><title>Node7&#45;&gt;Node14</title>
<path fill="none" stroke="midnightblue" d="M518.039,-164.368C540.886,-154.255 572.305,-140.349 592.259,-131.516"/>
<polygon fill="midnightblue" stroke="midnightblue" points="516.559,-161.196 508.831,-168.444 519.392,-167.597 516.559,-161.196"/>
</g>
<!-- Node8&#45;&gt;Node9 -->
<g id="edge10" class="edge"><title>Node8&#45;&gt;Node9</title>
<path fill="none" stroke="midnightblue" d="M226.729,-109.699C263.909,-99.507 317.771,-84.7429 351.431,-75.5164"/>
<polygon fill="midnightblue" stroke="midnightblue" points="225.434,-106.424 216.715,-112.444 227.285,-113.175 225.434,-106.424"/>
</g>
<!-- Node8&#45;&gt;Node10 -->
<g id="edge12" class="edge"><title>Node8&#45;&gt;Node10</title>
<path fill="none" stroke="midnightblue" d="M176.825,-102.983C172.412,-93.8168 167.248,-83.0922 163.713,-75.7511"/>
<polygon fill="midnightblue" stroke="midnightblue" points="173.715,-104.591 181.207,-112.083 180.022,-101.555 173.715,-104.591"/>
</g>
<!-- Node8&#45;&gt;Node11 -->
<g id="edge13" class="edge"><title>Node8&#45;&gt;Node11</title>
<path fill="none" stroke="midnightblue" d="M207.955,-106.901C223.724,-96.9986 244.314,-84.0705 257.717,-75.6545"/>
<polygon fill="midnightblue" stroke="midnightblue" points="205.925,-104.042 199.317,-112.324 209.648,-109.97 205.925,-104.042"/>
</g>
<!-- Node8&#45;&gt;Node12 -->
<g id="edge14" class="edge"><title>Node8&#45;&gt;Node12</title>
<path fill="none" stroke="midnightblue" d="M154.024,-108.772C127.915,-98.6287 91.461,-84.4669 68.4219,-75.5164"/>
<polygon fill="midnightblue" stroke="midnightblue" points="152.886,-112.085 163.475,-112.444 155.421,-105.56 152.886,-112.085"/>
</g>
<!-- Node9&#45;&gt;Node3 -->
<g id="edge11" class="edge"><title>Node9&#45;&gt;Node3</title>
<path fill="none" stroke="midnightblue" d="M408.328,-51.5895C427.557,-41.6052 453.245,-28.2672 469.832,-19.6545"/>
<polygon fill="midnightblue" stroke="midnightblue" points="406.471,-48.6095 399.209,-56.324 409.697,-54.822 406.471,-48.6095"/>
</g>
<!-- Node12&#45;&gt;Node3 -->
<g id="edge15" class="edge"><title>Node12&#45;&gt;Node3</title>
<path fill="none" stroke="midnightblue" d="M103.194,-55.8106C220.932,-39.4691 347.153,-25.5225 421.67,-17.6605"/>
<polygon fill="midnightblue" stroke="midnightblue" points="102.705,-52.3448 93.2856,-57.1944 103.674,-59.2775 102.705,-52.3448"/>
</g>
<!-- Node13&#45;&gt;Node3 -->
<g id="edge17" class="edge"><title>Node13&#45;&gt;Node3</title>
<path fill="none" stroke="midnightblue" d="M486.5,-102.348C486.5,-78.2538 486.5,-37.3079 486.5,-19.5914"/>
<polygon fill="midnightblue" stroke="midnightblue" points="483,-102.368 486.5,-112.368 490,-102.369 483,-102.368"/>
</g>
<!-- Node14&#45;&gt;Node3 -->
<g id="edge19" class="edge"><title>Node14&#45;&gt;Node3</title>
<path fill="none" stroke="midnightblue" d="M593.9,-105.512C567.19,-82.0068 517.306,-38.1096 496.263,-19.5914"/>
<polygon fill="midnightblue" stroke="midnightblue" points="591.872,-108.39 601.691,-112.368 596.497,-103.135 591.872,-108.39"/>
</g>
<!-- Node15&#45;&gt;Node5 -->
<g id="edge21" class="edge"><title>Node15&#45;&gt;Node5</title>
<path fill="none" stroke="midnightblue" d="M400.5,-269.805C400.5,-260.91 400.5,-250.78 400.5,-243.751"/>
<polygon fill="midnightblue" stroke="midnightblue" points="397,-270.083 400.5,-280.083 404,-270.083 397,-270.083"/>
</g>
<!-- Node15&#45;&gt;Node6 -->
<g id="edge22" class="edge"><title>Node15&#45;&gt;Node6</title>
<path fill="none" stroke="midnightblue" d="M423.738,-274.901C440.058,-264.999 461.365,-252.071 475.236,-243.655"/>
<polygon fill="midnightblue" stroke="midnightblue" points="421.533,-272.144 414.799,-280.324 425.164,-278.129 421.533,-272.144"/>
</g>
</g>
</svg>
