<?xml version="1.0" encoding="UTF-8" standalone="no"?>
<!DOCTYPE svg PUBLIC "-//W3C//DTD SVG 1.1//EN"
 "http://www.w3.org/Graphics/SVG/1.1/DTD/svg11.dtd">
<!-- Generated by graphviz version 2.40.1 (20161225.0304)
 -->
<!-- Title: log.hpp Pages: 1 -->
<svg width="3610pt" height="420pt"
 viewBox="0.00 0.00 3609.50 420.00" xmlns="http://www.w3.org/2000/svg" xmlns:xlink="http://www.w3.org/1999/xlink">
<g id="graph0" class="graph" transform="scale(1 1) rotate(0) translate(4 416)">
<title>log.hpp</title>
<polygon fill="#ffffff" stroke="transparent" points="-4,4 -4,-416 3605.5,-416 3605.5,4 -4,4"/>
<!-- Node0 -->
<g id="node1" class="node">
<title>Node0</title>
<polygon fill="#bfbfbf" stroke="#000000" points="2966.5,-392.5 2966.5,-411.5 3014.5,-411.5 3014.5,-392.5 2966.5,-392.5"/>
<text text-anchor="middle" x="2990.5" y="-399.5" font-family="Helvetica,sans-Serif" font-size="10.00" fill="#000000">log.hpp</text>
</g>
<!-- Node1 -->
<g id="node2" class="node">
<title>Node1</title>
<g id="a_node2"><a xlink:href="alox_8hpp.html" target="_top" xlink:title="alox/alox.hpp">
<polygon fill="#ffffff" stroke="#000000" points="2953.5,-336.5 2953.5,-355.5 3027.5,-355.5 3027.5,-336.5 2953.5,-336.5"/>
<text text-anchor="middle" x="2990.5" y="-343.5" font-family="Helvetica,sans-Serif" font-size="10.00" fill="#000000">alox/alox.hpp</text>
</a>
</g>
</g>
<!-- Node0&#45;&gt;Node1 -->
<g id="edge1" class="edge">
<title>Node0&#45;&gt;Node1</title>
<path fill="none" stroke="#191970" d="M2985.2332,-392.2455C2983.8221,-384.9382 2983.4179,-374.6944 2984.0205,-365.7046"/>
<polygon fill="#191970" stroke="#191970" points="2987.5111,-365.9945 2985.2549,-355.6427 2980.5632,-365.1421 2987.5111,-365.9945"/>
</g>
<!-- Node1&#45;&gt;Node0 -->
<g id="edge2" class="edge">
<title>Node1&#45;&gt;Node0</title>
<path fill="none" stroke="#191970" d="M2995.7451,-355.6427C2997.1665,-362.9199 2997.581,-373.155 2996.9887,-382.1575"/>
<polygon fill="#191970" stroke="#191970" points="2993.4947,-381.8972 2995.7668,-392.2455 3000.4439,-382.739 2993.4947,-381.8972"/>
</g>
<!-- Node2 -->
<g id="node3" class="node">
<title>Node2</title>
<g id="a_node3"><a xlink:href="alib_8hpp.html" target="_top" xlink:title="alib/alib.hpp">
<polygon fill="#ffffff" stroke="#000000" points="1409.5,-280.5 1409.5,-299.5 1477.5,-299.5 1477.5,-280.5 1409.5,-280.5"/>
<text text-anchor="middle" x="1443.5" y="-287.5" font-family="Helvetica,sans-Serif" font-size="10.00" fill="#000000">alib/alib.hpp</text>
</a>
</g>
</g>
<!-- Node1&#45;&gt;Node2 -->
<g id="edge3" class="edge">
<title>Node1&#45;&gt;Node2</title>
<path fill="none" stroke="#191970" d="M2953.4064,-344.6572C2744.4366,-337.0927 1715.4157,-299.8431 1488.0283,-291.6119"/>
<polygon fill="#191970" stroke="#191970" points="1487.9329,-288.1062 1477.8128,-291.2421 1487.6796,-295.1016 1487.9329,-288.1062"/>
</g>
<!-- Node13 -->
<g id="node4" class="node">
<title>Node13</title>
<polygon fill="#ffffff" stroke="#bfbfbf" points="2549.5,-.5 2549.5,-19.5 2593.5,-19.5 2593.5,-.5 2549.5,-.5"/>
<text text-anchor="middle" x="2571.5" y="-7.5" font-family="Helvetica,sans-Serif" font-size="10.00" fill="#000000">vector</text>
</g>
<!-- Node1&#45;&gt;Node13 -->
<g id="edge4" class="edge">
<title>Node1&#45;&gt;Node13</title>
<path fill="none" stroke="#191970" d="M2953.1902,-344.9241C2858.5081,-341.7672 2611.0682,-330.7342 2535.5,-300 2491.8426,-282.2442 2452.5,-281.13 2452.5,-234 2452.5,-234 2452.5,-234 2452.5,-122 2452.5,-73.8946 2504.7043,-40.3798 2539.9592,-23.2312"/>
<polygon fill="#191970" stroke="#191970" points="2541.8126,-26.2288 2549.3959,-18.8299 2538.8537,-19.8849 2541.8126,-26.2288"/>
</g>
<!-- Node40 -->
<g id="node5" class="node">
<title>Node40</title>
<g id="a_node5"><a xlink:href="alox__symbols_8hpp.html" target="_top" xlink:title="internals/alox_symbols.hpp">
<polygon fill="#ffffff" stroke="#000000" points="2545,-280.5 2545,-299.5 2680,-299.5 2680,-280.5 2545,-280.5"/>
<text text-anchor="middle" x="2612.5" y="-287.5" font-family="Helvetica,sans-Serif" font-size="10.00" fill="#000000">internals/alox_symbols.hpp</text>
</a>
</g>
</g>
<!-- Node1&#45;&gt;Node40 -->
<g id="edge5" class="edge">
<title>Node1&#45;&gt;Node40</title>
<path fill="none" stroke="#191970" d="M2953.2214,-340.4772C2891.509,-331.3347 2766.983,-312.8864 2686.7837,-301.005"/>
<polygon fill="#191970" stroke="#191970" points="2687.15,-297.5211 2676.745,-299.5178 2686.1241,-304.4456 2687.15,-297.5211"/>
</g>
<!-- Node41 -->
<g id="node6" class="node">
<title>Node41</title>
<g id="a_node6"><a xlink:href="alox__macros_8hpp.html" target="_top" xlink:title="internals/alox_macros.hpp">
<polygon fill="#ffffff" stroke="#000000" points="2698,-280.5 2698,-299.5 2829,-299.5 2829,-280.5 2698,-280.5"/>
<text text-anchor="middle" x="2763.5" y="-287.5" font-family="Helvetica,sans-Serif" font-size="10.00" fill="#000000">internals/alox_macros.hpp</text>
</a>
</g>
</g>
<!-- Node1&#45;&gt;Node41 -->
<g id="edge6" class="edge">
<title>Node1&#45;&gt;Node41</title>
<path fill="none" stroke="#191970" d="M2953.2698,-336.8154C2914.7266,-327.307 2854.3432,-312.4106 2812.0688,-301.9817"/>
<polygon fill="#191970" stroke="#191970" points="2812.8186,-298.5618 2802.2713,-299.5647 2811.1419,-305.3581 2812.8186,-298.5618"/>
</g>
<!-- Node42 -->
<g id="node7" class="node">
<title>Node42</title>
<g id="a_node7"><a xlink:href="configuration_8hpp.html" target="_top" xlink:title="alib/config/configuration.hpp">
<polygon fill="#ffffff" stroke="#000000" points="2827.5,-224.5 2827.5,-243.5 2965.5,-243.5 2965.5,-224.5 2827.5,-224.5"/>
<text text-anchor="middle" x="2896.5" y="-231.5" font-family="Helvetica,sans-Serif" font-size="10.00" fill="#000000">alib/config/configuration.hpp</text>
</a>
</g>
</g>
<!-- Node1&#45;&gt;Node42 -->
<g id="edge7" class="edge">
<title>Node1&#45;&gt;Node42</title>
<path fill="none" stroke="#191970" d="M2999.7294,-336.3831C3011.4988,-322.9155 3028.9206,-298.0631 3016.5,-280 3007.8113,-267.3642 2973.8548,-255.0353 2944.2711,-246.3269"/>
<polygon fill="#191970" stroke="#191970" points="2945.0258,-242.9025 2934.4488,-243.5172 2943.1006,-249.6325 2945.0258,-242.9025"/>
</g>
<!-- Node57 -->
<g id="node8" class="node">
<title>Node57</title>
<g id="a_node8"><a xlink:href="aloxtypesandenums_8hpp.html" target="_top" xlink:title="aloxtypesandenums.hpp">
<polygon fill="#ffffff" stroke="#000000" points="2885.5,-280.5 2885.5,-299.5 3007.5,-299.5 3007.5,-280.5 2885.5,-280.5"/>
<text text-anchor="middle" x="2946.5" y="-287.5" font-family="Helvetica,sans-Serif" font-size="10.00" fill="#000000">aloxtypesandenums.hpp</text>
</a>
</g>
</g>
<!-- Node1&#45;&gt;Node57 -->
<g id="edge8" class="edge">
<title>Node1&#45;&gt;Node57</title>
<path fill="none" stroke="#191970" d="M2982.8358,-336.2455C2976.6527,-328.3761 2967.7937,-317.101 2960.3711,-307.6542"/>
<polygon fill="#191970" stroke="#191970" points="2963.0068,-305.3435 2954.0764,-299.6427 2957.5025,-309.6683 2963.0068,-305.3435"/>
</g>
<!-- Node58 -->
<g id="node9" class="node">
<title>Node58</title>
<g id="a_node9"><a xlink:href="lox_8hpp.html" target="_top" xlink:title="lox.hpp">
<polygon fill="#ffffff" stroke="#000000" points="3063.5,-280.5 3063.5,-299.5 3111.5,-299.5 3111.5,-280.5 3063.5,-280.5"/>
<text text-anchor="middle" x="3087.5" y="-287.5" font-family="Helvetica,sans-Serif" font-size="10.00" fill="#000000">lox.hpp</text>
</a>
</g>
</g>
<!-- Node1&#45;&gt;Node58 -->
<g id="edge9" class="edge">
<title>Node1&#45;&gt;Node58</title>
<path fill="none" stroke="#191970" d="M3002.1293,-336.2455C3015.6619,-327.4527 3038.0172,-314.4079 3056.5483,-304.4125"/>
<polygon fill="#191970" stroke="#191970" points="3058.3541,-307.4167 3065.5524,-299.6427 3055.0773,-301.2311 3058.3541,-307.4167"/>
</g>
<!-- Node3 -->
<g id="node10" class="node">
<title>Node3</title>
<polygon fill="#ffffff" stroke="#bfbfbf" points="1675.5,-224.5 1675.5,-243.5 1727.5,-243.5 1727.5,-224.5 1675.5,-224.5"/>
<text text-anchor="middle" x="1701.5" y="-231.5" font-family="Helvetica,sans-Serif" font-size="10.00" fill="#000000">assert.h</text>
</g>
<!-- Node2&#45;&gt;Node3 -->
<g id="edge10" class="edge">
<title>Node2&#45;&gt;Node3</title>
<path fill="none" stroke="#191970" d="M1477.5064,-283.6841C1521.2035,-275.4013 1599.3201,-260.0293 1665.5,-244 1665.5985,-243.9761 1665.6971,-243.9522 1665.7959,-243.9282"/>
<polygon fill="#191970" stroke="#191970" points="1666.3857,-247.3901 1675.2067,-241.5215 1664.6513,-240.6083 1666.3857,-247.3901"/>
</g>
<!-- Node4 -->
<g id="node11" class="node">
<title>Node4</title>
<polygon fill="#ffffff" stroke="#bfbfbf" points="1745.5,-224.5 1745.5,-243.5 1791.5,-243.5 1791.5,-224.5 1745.5,-224.5"/>
<text text-anchor="middle" x="1768.5" y="-231.5" font-family="Helvetica,sans-Serif" font-size="10.00" fill="#000000">cstdint</text>
</g>
<!-- Node2&#45;&gt;Node4 -->
<g id="edge11" class="edge">
<title>Node2&#45;&gt;Node4</title>
<path fill="none" stroke="#191970" d="M1477.6505,-286.2929C1530.8621,-280.1594 1636.8671,-266.5111 1735.3768,-243.9982"/>
<polygon fill="#191970" stroke="#191970" points="1736.2413,-247.3906 1745.1907,-241.7196 1734.6582,-240.572 1736.2413,-247.3906"/>
</g>
<!-- Node5 -->
<g id="node12" class="node">
<title>Node5</title>
<g id="a_node12"><a xlink:href="prepro_8hpp.html" target="_top" xlink:title="alib/alib/prepro.hpp">
<polygon fill="#ffffff" stroke="#000000" points="1809.5,-224.5 1809.5,-243.5 1907.5,-243.5 1907.5,-224.5 1809.5,-224.5"/>
<text text-anchor="middle" x="1858.5" y="-231.5" font-family="Helvetica,sans-Serif" font-size="10.00" fill="#000000">alib/alib/prepro.hpp</text>
</a>
</g>
</g>
<!-- Node2&#45;&gt;Node5 -->
<g id="edge12" class="edge">
<title>Node2&#45;&gt;Node5</title>
<path fill="none" stroke="#191970" d="M1477.5314,-286.1043C1539.4249,-278.9134 1674.7775,-262.7019 1799.3783,-244.1183"/>
<polygon fill="#191970" stroke="#191970" points="1800.106,-247.5484 1809.476,-242.6034 1799.0674,-240.6259 1800.106,-247.5484"/>
</g>
<!-- Node6 -->
<g id="node13" class="node">
<title>Node6</title>
<g id="a_node13"><a xlink:href="distribution_8hpp_source.html" target="_top" xlink:title="alib/distribution.hpp">
<polygon fill="#ffffff" stroke="#000000" points="1926,-224.5 1926,-243.5 2027,-243.5 2027,-224.5 1926,-224.5"/>
<text text-anchor="middle" x="1976.5" y="-231.5" font-family="Helvetica,sans-Serif" font-size="10.00" fill="#000000">alib/distribution.hpp</text>
</a>
</g>
</g>
<!-- Node2&#45;&gt;Node6 -->
<g id="edge13" class="edge">
<title>Node2&#45;&gt;Node6</title>
<path fill="none" stroke="#191970" d="M1477.7213,-287.4771C1554.2149,-281.6654 1745.051,-266.209 1915.6287,-244.0333"/>
<polygon fill="#191970" stroke="#191970" points="1916.3372,-247.4705 1925.7974,-242.7001 1915.4272,-240.5299 1916.3372,-247.4705"/>
</g>
<!-- Node7 -->
<g id="node14" class="node">
<title>Node7</title>
<g id="a_node14"><a xlink:href="debug_8hpp.html" target="_top" xlink:title="alib/alib/debug.hpp">
<polygon fill="#ffffff" stroke="#000000" points="2045.5,-224.5 2045.5,-243.5 2143.5,-243.5 2143.5,-224.5 2045.5,-224.5"/>
<text text-anchor="middle" x="2094.5" y="-231.5" font-family="Helvetica,sans-Serif" font-size="10.00" fill="#000000">alib/alib/debug.hpp</text>
</a>
</g>
</g>
<!-- Node2&#45;&gt;Node7 -->
<g id="edge14" class="edge">
<title>Node2&#45;&gt;Node7</title>
<path fill="none" stroke="#191970" d="M1477.644,-288.4284C1567.2232,-284.0752 1816.5242,-270.479 2035.2316,-243.9159"/>
<polygon fill="#191970" stroke="#191970" points="2035.7938,-247.3733 2045.2934,-242.682 2034.9417,-240.4253 2035.7938,-247.3733"/>
</g>
<!-- Node8 -->
<g id="node15" class="node">
<title>Node8</title>
<g id="a_node15"><a xlink:href="rtti_8hpp.html" target="_top" xlink:title="alib/lang/rtti.hpp">
<polygon fill="#ffffff" stroke="#ff0000" points="2161.5,-224.5 2161.5,-243.5 2247.5,-243.5 2247.5,-224.5 2161.5,-224.5"/>
<text text-anchor="middle" x="2204.5" y="-231.5" font-family="Helvetica,sans-Serif" font-size="10.00" fill="#000000">alib/lang/rtti.hpp</text>
</a>
</g>
</g>
<!-- Node2&#45;&gt;Node8 -->
<g id="edge15" class="edge">
<title>Node2&#45;&gt;Node8</title>
<path fill="none" stroke="#191970" d="M1477.59,-289.3007C1578.7906,-286.9049 1886.3975,-277.3133 2151.2418,-244.0084"/>
<polygon fill="#191970" stroke="#191970" points="2151.9581,-247.4456 2161.4366,-242.7119 2151.0749,-240.5015 2151.9581,-247.4456"/>
</g>
<!-- Node12 -->
<g id="node16" class="node">
<title>Node12</title>
<g id="a_node16"><a xlink:href="singleton_8hpp.html" target="_top" xlink:title="alib/lang/singleton.hpp">
<polygon fill="#ffffff" stroke="#000000" points="2311,-112.5 2311,-131.5 2424,-131.5 2424,-112.5 2311,-112.5"/>
<text text-anchor="middle" x="2367.5" y="-119.5" font-family="Helvetica,sans-Serif" font-size="10.00" fill="#000000">alib/lang/singleton.hpp</text>
</a>
</g>
</g>
<!-- Node2&#45;&gt;Node12 -->
<g id="edge16" class="edge">
<title>Node2&#45;&gt;Node12</title>
<path fill="none" stroke="#191970" d="M1477.7598,-289.611C1641.8796,-287.5838 2341.0678,-277.0271 2372.5,-244 2398.6901,-216.481 2385.7615,-167.7036 2375.6491,-140.9174"/>
<polygon fill="#191970" stroke="#191970" points="2378.8463,-139.4869 2371.8689,-131.514 2372.3514,-142.0978 2378.8463,-139.4869"/>
</g>
<!-- Node14 -->
<g id="node17" class="node">
<title>Node14</title>
<g id="a_node17"><a xlink:href="types_8hpp.html" target="_top" xlink:title="alib/lang/types.hpp">
<polygon fill="#ffffff" stroke="#000000" points="2265.5,-224.5 2265.5,-243.5 2363.5,-243.5 2363.5,-224.5 2265.5,-224.5"/>
<text text-anchor="middle" x="2314.5" y="-231.5" font-family="Helvetica,sans-Serif" font-size="10.00" fill="#000000">alib/lang/types.hpp</text>
</a>
</g>
</g>
<!-- Node2&#45;&gt;Node14 -->
<g id="edge17" class="edge">
<title>Node2&#45;&gt;Node14</title>
<path fill="none" stroke="#191970" d="M1477.6969,-289.4617C1588.5496,-287.4221 1948.0783,-278.4971 2255.2078,-244.0273"/>
<polygon fill="#191970" stroke="#191970" points="2255.652,-247.4995 2265.1941,-242.8953 2254.8635,-240.544 2255.652,-247.4995"/>
</g>
<!-- Node15 -->
<g id="node18" class="node">
<title>Node15</title>
<g id="a_node18"><a xlink:href="boxing_8hpp.html" target="_top" xlink:title="alib/boxing/boxing.hpp">
<polygon fill="#ffffff" stroke="#ff0000" points="0,-224.5 0,-243.5 113,-243.5 113,-224.5 0,-224.5"/>
<text text-anchor="middle" x="56.5" y="-231.5" font-family="Helvetica,sans-Serif" font-size="10.00" fill="#000000">alib/boxing/boxing.hpp</text>
</a>
</g>
</g>
<!-- Node2&#45;&gt;Node15 -->
<g id="edge18" class="edge">
<title>Node2&#45;&gt;Node15</title>
<path fill="none" stroke="#191970" d="M1409.4914,-289.3492C1231.369,-285.8605 403.824,-268.6417 123.4713,-243.9555"/>
<polygon fill="#191970" stroke="#191970" points="123.6056,-240.4534 113.3306,-243.0369 122.974,-247.4249 123.6056,-240.4534"/>
</g>
<!-- Node23 -->
<g id="node19" class="node">
<title>Node23</title>
<g id="a_node19"><a xlink:href="enums_8hpp.html" target="_top" xlink:title="alib/lang/enums.hpp">
<polygon fill="#ffffff" stroke="#000000" points="131.5,-224.5 131.5,-243.5 235.5,-243.5 235.5,-224.5 131.5,-224.5"/>
<text text-anchor="middle" x="183.5" y="-231.5" font-family="Helvetica,sans-Serif" font-size="10.00" fill="#000000">alib/lang/enums.hpp</text>
</a>
</g>
</g>
<!-- Node2&#45;&gt;Node23 -->
<g id="edge19" class="edge">
<title>Node2&#45;&gt;Node23</title>
<path fill="none" stroke="#191970" d="M1409.3217,-289.2629C1241.1908,-285.5507 500.139,-268.161 245.9726,-244.001"/>
<polygon fill="#191970" stroke="#191970" points="245.9807,-240.4851 235.6868,-242.9924 245.2975,-247.4517 245.9807,-240.4851"/>
</g>
<!-- Node24 -->
<g id="node20" class="node">
<title>Node24</title>
<g id="a_node20"><a xlink:href="cstring_8hpp.html" target="_top" xlink:title="alib/strings/cstring.hpp">
<polygon fill="#ffffff" stroke="#ff0000" points="254,-224.5 254,-243.5 369,-243.5 369,-224.5 254,-224.5"/>
<text text-anchor="middle" x="311.5" y="-231.5" font-family="Helvetica,sans-Serif" font-size="10.00" fill="#000000">alib/strings/cstring.hpp</text>
</a>
</g>
</g>
<!-- Node2&#45;&gt;Node24 -->
<g id="edge20" class="edge">
<title>Node2&#45;&gt;Node24</title>
<path fill="none" stroke="#191970" d="M1409.3845,-289.8276C1277.8348,-288.89 790.8023,-282.899 379.21,-243.9596"/>
<polygon fill="#191970" stroke="#191970" points="379.4835,-240.4699 369.1962,-243.0042 378.8186,-247.4382 379.4835,-240.4699"/>
</g>
<!-- Node27 -->
<g id="node21" class="node">
<title>Node27</title>
<g id="a_node21"><a xlink:href="string_8hpp.html" target="_top" xlink:title="alib/strings/string.hpp">
<polygon fill="#ffffff" stroke="#ff0000" points="387.5,-224.5 387.5,-243.5 497.5,-243.5 497.5,-224.5 387.5,-224.5"/>
<text text-anchor="middle" x="442.5" y="-231.5" font-family="Helvetica,sans-Serif" font-size="10.00" fill="#000000">alib/strings/string.hpp</text>
</a>
</g>
</g>
<!-- Node2&#45;&gt;Node27 -->
<g id="edge21" class="edge">
<title>Node2&#45;&gt;Node27</title>
<path fill="none" stroke="#191970" d="M1409.3661,-289.6287C1288.0154,-288.0344 866.0187,-280.1442 507.6601,-244.0128"/>
<polygon fill="#191970" stroke="#191970" points="507.9128,-240.5206 497.6099,-242.9904 507.2043,-247.4846 507.9128,-240.5206"/>
</g>
<!-- Node30 -->
<g id="node22" class="node">
<title>Node30</title>
<g id="a_node22"><a xlink:href="tstring_8hpp.html" target="_top" xlink:title="alib/strings/tstring.hpp">
<polygon fill="#ffffff" stroke="#000000" points="516,-224.5 516,-243.5 629,-243.5 629,-224.5 516,-224.5"/>
<text text-anchor="middle" x="572.5" y="-231.5" font-family="Helvetica,sans-Serif" font-size="10.00" fill="#000000">alib/strings/tstring.hpp</text>
</a>
</g>
</g>
<!-- Node2&#45;&gt;Node30 -->
<g id="edge22" class="edge">
<title>Node2&#45;&gt;Node30</title>
<path fill="none" stroke="#191970" d="M1409.2313,-289.2163C1299.0074,-286.4482 943.5499,-275.5958 639.5181,-244.1266"/>
<polygon fill="#191970" stroke="#191970" points="639.4884,-240.6046 629.1788,-243.0463 638.7609,-247.5667 639.4884,-240.6046"/>
</g>
<!-- Node31 -->
<g id="node23" class="node">
<title>Node31</title>
<g id="a_node23"><a xlink:href="stringliteral_8hpp.html" target="_top" xlink:title="alib/strings/stringliteral.hpp">
<polygon fill="#ffffff" stroke="#ff0000" points="647,-224.5 647,-243.5 780,-243.5 780,-224.5 647,-224.5"/>
<text text-anchor="middle" x="713.5" y="-231.5" font-family="Helvetica,sans-Serif" font-size="10.00" fill="#000000">alib/strings/stringliteral.hpp</text>
</a>
</g>
</g>
<!-- Node2&#45;&gt;Node31 -->
<g id="edge23" class="edge">
<title>Node2&#45;&gt;Node31</title>
<path fill="none" stroke="#191970" d="M1409.3414,-288.3549C1313.4332,-283.5758 1033.3288,-268.5206 790.2185,-244.1236"/>
<polygon fill="#191970" stroke="#191970" points="790.4322,-240.6275 780.1308,-243.1037 789.728,-247.592 790.4322,-240.6275"/>
</g>
<!-- Node32 -->
<g id="node24" class="node">
<title>Node32</title>
<g id="a_node24"><a xlink:href="astring_8hpp.html" target="_top" xlink:title="alib/strings/astring.hpp">
<polygon fill="#ffffff" stroke="#ff0000" points="798,-224.5 798,-243.5 913,-243.5 913,-224.5 798,-224.5"/>
<text text-anchor="middle" x="855.5" y="-231.5" font-family="Helvetica,sans-Serif" font-size="10.00" fill="#000000">alib/strings/astring.hpp</text>
</a>
</g>
</g>
<!-- Node2&#45;&gt;Node32 -->
<g id="edge24" class="edge">
<title>Node2&#45;&gt;Node32</title>
<path fill="none" stroke="#191970" d="M1409.2904,-287.6945C1327.363,-282.0202 1113.2508,-266.2872 923.3816,-244.0394"/>
<polygon fill="#191970" stroke="#191970" points="923.5554,-240.5357 913.214,-242.839 922.7346,-247.4874 923.5554,-240.5357"/>
</g>
<!-- Node34 -->
<g id="node25" class="node">
<title>Node34</title>
<g id="a_node25"><a xlink:href="preallocatedstring_8hpp.html" target="_top" xlink:title="alib/strings/preallocatedstring.hpp">
<polygon fill="#ffffff" stroke="#000000" points="931.5,-224.5 931.5,-243.5 1093.5,-243.5 1093.5,-224.5 931.5,-224.5"/>
<text text-anchor="middle" x="1012.5" y="-231.5" font-family="Helvetica,sans-Serif" font-size="10.00" fill="#000000">alib/strings/preallocatedstring.hpp</text>
</a>
</g>
</g>
<!-- Node2&#45;&gt;Node34 -->
<g id="edge25" class="edge">
<title>Node2&#45;&gt;Node34</title>
<path fill="none" stroke="#191970" d="M1409.3199,-285.559C1342.1798,-276.8354 1191.3471,-257.2377 1096.1888,-244.8737"/>
<polygon fill="#191970" stroke="#191970" points="1096.383,-241.3696 1086.0154,-243.5519 1095.481,-248.3113 1096.383,-241.3696"/>
</g>
<!-- Node35 -->
<g id="node26" class="node">
<title>Node35</title>
<g id="a_node26"><a xlink:href="stringboxing_8hpp.html" target="_top" xlink:title="alib/strings/stringboxing.hpp">
<polygon fill="#ffffff" stroke="#000000" points="1111.5,-224.5 1111.5,-243.5 1249.5,-243.5 1249.5,-224.5 1111.5,-224.5"/>
<text text-anchor="middle" x="1180.5" y="-231.5" font-family="Helvetica,sans-Serif" font-size="10.00" fill="#000000">alib/strings/stringboxing.hpp</text>
</a>
</g>
</g>
<!-- Node2&#45;&gt;Node35 -->
<g id="edge26" class="edge">
<title>Node2&#45;&gt;Node35</title>
<path fill="none" stroke="#191970" d="M1409.387,-282.7364C1365.2537,-273.3392 1287.8252,-256.8525 1235.3749,-245.6844"/>
<polygon fill="#191970" stroke="#191970" points="1236.0703,-242.2541 1225.5606,-243.5947 1234.6124,-249.1006 1236.0703,-242.2541"/>
</g>
<!-- Node36 -->
<g id="node27" class="node">
<title>Node36</title>
<g id="a_node27"><a xlink:href="report_8hpp.html" target="_top" xlink:title="alib/lang/report.hpp">
<polygon fill="#ffffff" stroke="#ff0000" points="1268,-224.5 1268,-243.5 1367,-243.5 1367,-224.5 1268,-224.5"/>
<text text-anchor="middle" x="1317.5" y="-231.5" font-family="Helvetica,sans-Serif" font-size="10.00" fill="#000000">alib/lang/report.hpp</text>
</a>
</g>
</g>
<!-- Node2&#45;&gt;Node36 -->
<g id="edge27" class="edge">
<title>Node2&#45;&gt;Node36</title>
<path fill="none" stroke="#191970" d="M1421.8398,-280.3733C1401.5228,-271.3435 1370.936,-257.7494 1348.125,-247.6111"/>
<polygon fill="#191970" stroke="#191970" points="1349.4372,-244.3642 1338.8775,-243.5011 1346.5941,-250.7609 1349.4372,-244.3642"/>
</g>
<!-- Node38 -->
<g id="node28" class="node">
<title>Node38</title>
<g id="a_node28"><a xlink:href="applyto_8hpp.html" target="_top" xlink:title="alib/strings/applyto.hpp">
<polygon fill="#ffffff" stroke="#000000" points="1385,-224.5 1385,-243.5 1502,-243.5 1502,-224.5 1385,-224.5"/>
<text text-anchor="middle" x="1443.5" y="-231.5" font-family="Helvetica,sans-Serif" font-size="10.00" fill="#000000">alib/strings/applyto.hpp</text>
</a>
</g>
</g>
<!-- Node2&#45;&gt;Node38 -->
<g id="edge28" class="edge">
<title>Node2&#45;&gt;Node38</title>
<path fill="none" stroke="#191970" d="M1443.5,-280.2455C1443.5,-272.9382 1443.5,-262.6944 1443.5,-253.7046"/>
<polygon fill="#191970" stroke="#191970" points="1447.0001,-253.6426 1443.5,-243.6427 1440.0001,-253.6427 1447.0001,-253.6426"/>
</g>
<!-- Node39 -->
<g id="node29" class="node">
<title>Node39</title>
<g id="a_node29"><a xlink:href="applyformat_8hpp.html" target="_top" xlink:title="alib/strings/applyformat.hpp">
<polygon fill="#ffffff" stroke="#ff0000" points="1520,-224.5 1520,-243.5 1657,-243.5 1657,-224.5 1520,-224.5"/>
<text text-anchor="middle" x="1588.5" y="-231.5" font-family="Helvetica,sans-Serif" font-size="10.00" fill="#000000">alib/strings/applyformat.hpp</text>
</a>
</g>
</g>
<!-- Node2&#45;&gt;Node39 -->
<g id="edge29" class="edge">
<title>Node2&#45;&gt;Node39</title>
<path fill="none" stroke="#191970" d="M1468.4264,-280.3733C1492.1202,-271.2226 1527.9511,-257.3844 1554.3068,-247.2057"/>
<polygon fill="#191970" stroke="#191970" points="1555.8314,-250.3689 1563.8989,-243.5011 1553.3094,-243.8389 1555.8314,-250.3689"/>
</g>
<!-- Node42&#45;&gt;Node13 -->
<g id="edge31" class="edge">
<title>Node42&#45;&gt;Node13</title>
<path fill="none" stroke="#191970" d="M2827.2712,-224.899C2742.6671,-213.5329 2609.5496,-194.7588 2600.5,-188 2556.3777,-155.0468 2559.5714,-129.7306 2547.5,-76 2545.5515,-67.3273 2545.3833,-64.6332 2547.5,-56 2549.8743,-46.3164 2554.6821,-36.4071 2559.3753,-28.2776"/>
<polygon fill="#191970" stroke="#191970" points="2562.4119,-30.0214 2564.6792,-19.672 2556.4528,-26.3486 2562.4119,-30.0214"/>
</g>
<!-- Node43 -->
<g id="node30" class="node">
<title>Node43</title>
<g id="a_node30"><a xlink:href="threadlock_8hpp.html" target="_top" xlink:title="alib/threads/threadlock.hpp">
<polygon fill="#ffffff" stroke="#ff0000" points="3148.5,-168.5 3148.5,-187.5 3282.5,-187.5 3282.5,-168.5 3148.5,-168.5"/>
<text text-anchor="middle" x="3215.5" y="-175.5" font-family="Helvetica,sans-Serif" font-size="10.00" fill="#000000">alib/threads/threadlock.hpp</text>
</a>
</g>
</g>
<!-- Node42&#45;&gt;Node43 -->
<g id="edge32" class="edge">
<title>Node42&#45;&gt;Node43</title>
<path fill="none" stroke="#191970" d="M2950.9756,-224.4369C3006.4875,-214.6918 3092.5529,-199.5832 3151.3328,-189.2645"/>
<polygon fill="#191970" stroke="#191970" points="3152.0049,-192.7001 3161.2491,-187.5237 3150.7945,-185.8055 3152.0049,-192.7001"/>
</g>
<!-- Node51 -->
<g id="node31" class="node">
<title>Node51</title>
<g id="a_node31"><a xlink:href="substring_8hpp.html" target="_top" xlink:title="alib/strings/substring.hpp">
<polygon fill="#ffffff" stroke="#000000" points="2914,-56.5 2914,-75.5 3039,-75.5 3039,-56.5 2914,-56.5"/>
<text text-anchor="middle" x="2976.5" y="-63.5" font-family="Helvetica,sans-Serif" font-size="10.00" fill="#000000">alib/strings/substring.hpp</text>
</a>
</g>
</g>
<!-- Node42&#45;&gt;Node51 -->
<g id="edge33" class="edge">
<title>Node42&#45;&gt;Node51</title>
<path fill="none" stroke="#191970" d="M2915.6137,-224.4369C2929.2647,-216.5691 2946.8562,-204.1029 2956.5,-188 2975.6262,-156.0638 2978.0166,-111.4034 2977.5691,-85.9183"/>
<polygon fill="#191970" stroke="#191970" points="2981.0584,-85.5455 2977.2138,-75.6729 2974.0626,-85.7882 2981.0584,-85.5455"/>
</g>
<!-- Node52 -->
<g id="node32" class="node">
<title>Node52</title>
<g id="a_node32"><a xlink:href="numberformat_8hpp.html" target="_top" xlink:title="alib/strings/numberformat.hpp">
<polygon fill="#ffffff" stroke="#000000" points="2632.5,-168.5 2632.5,-187.5 2778.5,-187.5 2778.5,-168.5 2632.5,-168.5"/>
<text text-anchor="middle" x="2705.5" y="-175.5" font-family="Helvetica,sans-Serif" font-size="10.00" fill="#000000">alib/strings/numberformat.hpp</text>
</a>
</g>
</g>
<!-- Node42&#45;&gt;Node52 -->
<g id="edge34" class="edge">
<title>Node42&#45;&gt;Node52</title>
<path fill="none" stroke="#191970" d="M2863.6659,-224.3733C2831.6305,-214.9807 2782.7513,-200.6496 2747.8145,-190.4064"/>
<polygon fill="#191970" stroke="#191970" points="2748.4864,-186.9561 2737.9056,-187.5011 2746.5169,-193.6733 2748.4864,-186.9561"/>
</g>
<!-- Node53 -->
<g id="node33" class="node">
<title>Node53</title>
<g id="a_node33"><a xlink:href="variable_8hpp.html" target="_top" xlink:title="alib/config/variable.hpp">
<polygon fill="#ffffff" stroke="#000000" points="2556.5,-56.5 2556.5,-75.5 2672.5,-75.5 2672.5,-56.5 2556.5,-56.5"/>
<text text-anchor="middle" x="2614.5" y="-63.5" font-family="Helvetica,sans-Serif" font-size="10.00" fill="#000000">alib/config/variable.hpp</text>
</a>
</g>
</g>
<!-- Node42&#45;&gt;Node53 -->
<g id="edge35" class="edge">
<title>Node42&#45;&gt;Node53</title>
<path fill="none" stroke="#191970" d="M2827.4721,-224.9516C2746.5241,-214.0097 2622.4047,-196.0597 2615.5,-188 2591.0344,-159.4418 2600.0222,-111.8175 2607.8297,-85.3076"/>
<polygon fill="#191970" stroke="#191970" points="2611.2033,-86.2481 2610.899,-75.6577 2604.5326,-84.1264 2611.2033,-86.2481"/>
</g>
<!-- Node54 -->
<g id="node34" class="node">
<title>Node54</title>
<g id="a_node34"><a xlink:href="plugins_8hpp.html" target="_top" xlink:title="alib/config/plugins.hpp">
<polygon fill="#ffffff" stroke="#000000" points="2629,-112.5 2629,-131.5 2742,-131.5 2742,-112.5 2629,-112.5"/>
<text text-anchor="middle" x="2685.5" y="-119.5" font-family="Helvetica,sans-Serif" font-size="10.00" fill="#000000">alib/config/plugins.hpp</text>
</a>
</g>
</g>
<!-- Node42&#45;&gt;Node54 -->
<g id="edge36" class="edge">
<title>Node42&#45;&gt;Node54</title>
<path fill="none" stroke="#191970" d="M2827.3521,-224.6031C2748.6661,-213.5772 2630.1046,-195.8105 2623.5,-188 2607.907,-169.5598 2633.3495,-149.4863 2656.196,-136.3788"/>
<polygon fill="#191970" stroke="#191970" points="2657.9514,-139.4082 2665.0549,-131.5474 2654.5998,-133.2627 2657.9514,-139.4082"/>
</g>
<!-- Node55 -->
<g id="node35" class="node">
<title>Node55</title>
<g id="a_node35"><a xlink:href="inmemoryplugin_8hpp.html" target="_top" xlink:title="alib/config/inmemoryplugin.hpp">
<polygon fill="#ffffff" stroke="#000000" points="2797,-168.5 2797,-187.5 2948,-187.5 2948,-168.5 2797,-168.5"/>
<text text-anchor="middle" x="2872.5" y="-175.5" font-family="Helvetica,sans-Serif" font-size="10.00" fill="#000000">alib/config/inmemoryplugin.hpp</text>
</a>
</g>
</g>
<!-- Node42&#45;&gt;Node55 -->
<g id="edge37" class="edge">
<title>Node42&#45;&gt;Node55</title>
<path fill="none" stroke="#191970" d="M2892.3195,-224.2455C2889.119,-216.7776 2884.604,-206.2427 2880.6916,-197.1137"/>
<polygon fill="#191970" stroke="#191970" points="2883.7888,-195.4554 2876.6326,-187.6427 2877.3548,-198.2129 2883.7888,-195.4554"/>
</g>
<!-- Node56 -->
<g id="node36" class="node">
<title>Node56</title>
<g id="a_node36"><a xlink:href="tokenizer_8hpp.html" target="_top" xlink:title="alib/strings/tokenizer.hpp">
<polygon fill="#ffffff" stroke="#ff0000" points="3005,-168.5 3005,-187.5 3130,-187.5 3130,-168.5 3005,-168.5"/>
<text text-anchor="middle" x="3067.5" y="-175.5" font-family="Helvetica,sans-Serif" font-size="10.00" fill="#000000">alib/strings/tokenizer.hpp</text>
</a>
</g>
</g>
<!-- Node42&#45;&gt;Node56 -->
<g id="edge38" class="edge">
<title>Node42&#45;&gt;Node56</title>
<path fill="none" stroke="#191970" d="M2925.8959,-224.3733C2954.3307,-215.0613 2997.5877,-200.8953 3028.8081,-190.671"/>
<polygon fill="#191970" stroke="#191970" points="3030.0736,-193.9396 3038.4876,-187.5011 3027.895,-187.2872 3030.0736,-193.9396"/>
</g>
<!-- Node58&#45;&gt;Node1 -->
<g id="edge45" class="edge">
<title>Node58&#45;&gt;Node1</title>
<path fill="none" stroke="#191970" d="M3076.0426,-299.6427C3062.5852,-308.3993 3040.2514,-321.4388 3021.688,-331.46"/>
<polygon fill="#191970" stroke="#191970" points="3019.8581,-328.4686 3012.663,-336.2455 3023.1374,-334.653 3019.8581,-328.4686"/>
</g>
<!-- Node58&#45;&gt;Node42 -->
<g id="edge46" class="edge">
<title>Node58&#45;&gt;Node42</title>
<path fill="none" stroke="#191970" d="M3063.3097,-282.9076C3032.0718,-273.7488 2977.1843,-257.6561 2938.9352,-246.4417"/>
<polygon fill="#191970" stroke="#191970" points="2939.6894,-243.0156 2929.1086,-243.5606 2937.7199,-249.7328 2939.6894,-243.0156"/>
</g>
<!-- Node58&#45;&gt;Node56 -->
<g id="edge48" class="edge">
<title>Node58&#45;&gt;Node56</title>
<path fill="none" stroke="#191970" d="M3063.164,-282.3112C3045.6314,-275.3488 3023.2439,-263.1933 3012.5,-244 3001.6965,-224.7001 3021.8633,-205.614 3040.7461,-192.9697"/>
<polygon fill="#191970" stroke="#191970" points="3042.6191,-195.9265 3049.2158,-187.6359 3038.8888,-190.0032 3042.6191,-195.9265"/>
</g>
<!-- Node48 -->
<g id="node37" class="node">
<title>Node48</title>
<polygon fill="#ffffff" stroke="#bfbfbf" points="3339,-168.5 3339,-187.5 3374,-187.5 3374,-168.5 3339,-168.5"/>
<text text-anchor="middle" x="3356.5" y="-175.5" font-family="Helvetica,sans-Serif" font-size="10.00" fill="#000000">map</text>
</g>
<!-- Node58&#45;&gt;Node48 -->
<g id="edge47" class="edge">
<title>Node58&#45;&gt;Node48</title>
<path fill="none" stroke="#191970" d="M3103.0294,-280.2873C3129.1334,-264.0707 3180.8766,-232.4263 3200.5,-224 3253.2309,-201.3575 3269.5544,-204.5594 3324.5,-188 3325.9629,-187.5591 3327.4622,-187.1035 3328.9752,-186.6408"/>
<polygon fill="#191970" stroke="#191970" points="3330.3956,-189.8651 3338.9145,-183.566 3328.3268,-183.1778 3330.3956,-189.8651"/>
</g>
<!-- Node59 -->
<g id="node38" class="node">
<title>Node59</title>
<g id="a_node38"><a xlink:href="smartlock_8hpp.html" target="_top" xlink:title="alib/threads/smartlock.hpp">
<polygon fill="#ffffff" stroke="#000000" points="3022,-224.5 3022,-243.5 3153,-243.5 3153,-224.5 3022,-224.5"/>
<text text-anchor="middle" x="3087.5" y="-231.5" font-family="Helvetica,sans-Serif" font-size="10.00" fill="#000000">alib/threads/smartlock.hpp</text>
</a>
</g>
</g>
<!-- Node58&#45;&gt;Node59 -->
<g id="edge49" class="edge">
<title>Node58&#45;&gt;Node59</title>
<path fill="none" stroke="#191970" d="M3087.5,-280.2455C3087.5,-272.9382 3087.5,-262.6944 3087.5,-253.7046"/>
<polygon fill="#191970" stroke="#191970" points="3091.0001,-253.6426 3087.5,-243.6427 3084.0001,-253.6427 3091.0001,-253.6426"/>
</g>
<!-- Node60 -->
<g id="node39" class="node">
<title>Node60</title>
<g id="a_node39"><a xlink:href="scopeinfo_8hpp.html" target="_top" xlink:title="alox/core/scopeinfo.hpp">
<polygon fill="#ffffff" stroke="#ff0000" points="3209.5,-224.5 3209.5,-243.5 3329.5,-243.5 3329.5,-224.5 3209.5,-224.5"/>
<text text-anchor="middle" x="3269.5" y="-231.5" font-family="Helvetica,sans-Serif" font-size="10.00" fill="#000000">alox/core/scopeinfo.hpp</text>
</a>
</g>
</g>
<!-- Node58&#45;&gt;Node60 -->
<g id="edge50" class="edge">
<title>Node58&#45;&gt;Node60</title>
<path fill="none" stroke="#191970" d="M3111.6682,-282.5636C3141.5423,-273.3716 3192.8327,-257.5899 3228.8154,-246.5183"/>
<polygon fill="#191970" stroke="#191970" points="3229.9995,-249.816 3238.5279,-243.5299 3227.9408,-243.1256 3229.9995,-249.816"/>
</g>
<!-- Node64 -->
<g id="node40" class="node">
<title>Node64</title>
<g id="a_node40"><a xlink:href="logger_8hpp.html" target="_top" xlink:title="alox/core/logger.hpp">
<polygon fill="#ffffff" stroke="#000000" points="2705.5,-224.5 2705.5,-243.5 2809.5,-243.5 2809.5,-224.5 2705.5,-224.5"/>
<text text-anchor="middle" x="2757.5" y="-231.5" font-family="Helvetica,sans-Serif" font-size="10.00" fill="#000000">alox/core/logger.hpp</text>
</a>
</g>
</g>
<!-- Node58&#45;&gt;Node64 -->
<g id="edge51" class="edge">
<title>Node58&#45;&gt;Node64</title>
<path fill="none" stroke="#191970" d="M3063.2343,-285.8822C3012.4121,-277.2578 2893.4069,-257.063 2819.7597,-244.5653"/>
<polygon fill="#191970" stroke="#191970" points="2820.1253,-241.0774 2809.6806,-242.8549 2818.9541,-247.9787 2820.1253,-241.0774"/>
</g>
<!-- Node65 -->
<g id="node41" class="node">
<title>Node65</title>
<g id="a_node41"><a xlink:href="domain_8hpp.html" target="_top" xlink:title="alox/core/domain.hpp">
<polygon fill="#ffffff" stroke="#000000" points="3347.5,-224.5 3347.5,-243.5 3457.5,-243.5 3457.5,-224.5 3347.5,-224.5"/>
<text text-anchor="middle" x="3402.5" y="-231.5" font-family="Helvetica,sans-Serif" font-size="10.00" fill="#000000">alox/core/domain.hpp</text>
</a>
</g>
</g>
<!-- Node58&#45;&gt;Node65 -->
<g id="edge52" class="edge">
<title>Node58&#45;&gt;Node65</title>
<path fill="none" stroke="#191970" d="M3111.6945,-285.6988C3159.8222,-277.1427 3268.9502,-257.7422 3338.9859,-245.2914"/>
<polygon fill="#191970" stroke="#191970" points="3339.7905,-248.7033 3349.0234,-243.5069 3338.5652,-241.8114 3339.7905,-248.7033"/>
</g>
<!-- Node66 -->
<g id="node42" class="node">
<title>Node66</title>
<g id="a_node42"><a xlink:href="scopestore_8hpp.html" target="_top" xlink:title="alox/core/scopestore.hpp">
<polygon fill="#ffffff" stroke="#000000" points="3475.5,-224.5 3475.5,-243.5 3601.5,-243.5 3601.5,-224.5 3475.5,-224.5"/>
<text text-anchor="middle" x="3538.5" y="-231.5" font-family="Helvetica,sans-Serif" font-size="10.00" fill="#000000">alox/core/scopestore.hpp</text>
</a>
</g>
</g>
<!-- Node58&#45;&gt;Node66 -->
<g id="edge53" class="edge">
<title>Node58&#45;&gt;Node66</title>
<path fill="none" stroke="#191970" d="M3111.9051,-287.1855C3170.7371,-280.3695 3325.272,-262.2791 3465.2411,-244.147"/>
<polygon fill="#191970" stroke="#191970" points="3465.8263,-247.6005 3475.2922,-242.8416 3464.9247,-240.6588 3465.8263,-247.6005"/>
</g>
<!-- Node12&#45;&gt;Node13 -->
<g id="edge30" class="edge">
<title>Node12&#45;&gt;Node13</title>
<path fill="none" stroke="#191970" d="M2375.6913,-112.1277C2387.9803,-97.8916 2412.5321,-71.5995 2438.5,-56 2470.2569,-36.9228 2511.0536,-24.3068 2539.0406,-17.1907"/>
<polygon fill="#191970" stroke="#191970" points="2540.2126,-20.5072 2549.0941,-14.7306 2538.5488,-13.7078 2540.2126,-20.5072"/>
</g>
<!-- Node53&#45;&gt;Node13 -->
<g id="edge39" class="edge">
<title>Node53&#45;&gt;Node13</title>
<path fill="none" stroke="#191970" d="M2607.01,-56.2455C2600.9674,-48.3761 2592.3097,-37.101 2585.0559,-27.6542"/>
<polygon fill="#191970" stroke="#191970" points="2587.7705,-25.4426 2578.9042,-19.6427 2582.2185,-29.7058 2587.7705,-25.4426"/>
</g>
<!-- Node54&#45;&gt;Node51 -->
<g id="edge40" class="edge">
<title>Node54&#45;&gt;Node51</title>
<path fill="none" stroke="#191970" d="M2735.194,-112.4369C2785.5196,-102.7522 2863.3723,-87.7703 2916.9651,-77.4569"/>
<polygon fill="#191970" stroke="#191970" points="2917.8525,-80.8504 2927.0109,-75.5237 2916.5297,-73.9765 2917.8525,-80.8504"/>
</g>
<!-- Node54&#45;&gt;Node53 -->
<g id="edge41" class="edge">
<title>Node54&#45;&gt;Node53</title>
<path fill="none" stroke="#191970" d="M2673.1327,-112.2455C2662.5446,-103.8943 2647.0936,-91.7076 2634.7107,-81.9408"/>
<polygon fill="#191970" stroke="#191970" points="2636.7447,-79.0875 2626.7255,-75.6427 2632.4097,-84.5837 2636.7447,-79.0875"/>
</g>
<!-- Node55&#45;&gt;Node13 -->
<g id="edge42" class="edge">
<title>Node55&#45;&gt;Node13</title>
<path fill="none" stroke="#191970" d="M2859.0882,-168.2796C2828.5793,-146.43 2751.2191,-92.4963 2681.5,-56 2655.8955,-42.5967 2625.5011,-30.131 2603.1571,-21.5668"/>
<polygon fill="#191970" stroke="#191970" points="2604.0952,-18.1797 2593.5036,-17.9171 2601.6197,-24.7274 2604.0952,-18.1797"/>
</g>
<!-- Node55&#45;&gt;Node54 -->
<g id="edge43" class="edge">
<title>Node55&#45;&gt;Node54</title>
<path fill="none" stroke="#191970" d="M2840.3536,-168.3733C2808.9891,-158.9807 2761.1335,-144.6496 2726.9284,-134.4064"/>
<polygon fill="#191970" stroke="#191970" points="2727.8107,-131.0171 2717.227,-131.5011 2725.8025,-137.7229 2727.8107,-131.0171"/>
</g>
<!-- Node56&#45;&gt;Node51 -->
<g id="edge44" class="edge">
<title>Node56&#45;&gt;Node51</title>
<path fill="none" stroke="#191970" d="M3059.7414,-168.4509C3044.4294,-149.6054 3010.1252,-107.3849 2990.6715,-83.4419"/>
<polygon fill="#191970" stroke="#191970" points="2993.2613,-81.079 2984.239,-75.5249 2987.8285,-85.4931 2993.2613,-81.079"/>
</g>
<!-- Node59&#45;&gt;Node13 -->
<g id="edge54" class="edge">
<title>Node59&#45;&gt;Node13</title>
<path fill="none" stroke="#191970" d="M3146.8935,-224.4579C3203.7966,-214.7121 3282.3597,-199.4308 3291.5,-188 3297.0512,-181.0576 3296.2985,-175.4824 3291.5,-168 3227.0858,-67.5568 3162.7099,-87.0598 3047.5,-56 2963.2586,-33.2891 2696.4927,-16.8633 2603.6941,-11.7108"/>
<polygon fill="#191970" stroke="#191970" points="2603.6884,-8.2053 2593.5116,-11.1521 2603.3048,-15.1948 2603.6884,-8.2053"/>
</g>
<!-- Node59&#45;&gt;Node43 -->
<g id="edge55" class="edge">
<title>Node59&#45;&gt;Node43</title>
<path fill="none" stroke="#191970" d="M3109.504,-224.3733C3130.1435,-215.3435 3161.2158,-201.7494 3184.3889,-191.6111"/>
<polygon fill="#191970" stroke="#191970" points="3186.0245,-194.7159 3193.7831,-187.5011 3183.2187,-188.3028 3186.0245,-194.7159"/>
</g>
<!-- Node60&#45;&gt;Node1 -->
<g id="edge56" class="edge">
<title>Node60&#45;&gt;Node1</title>
<path fill="none" stroke="#191970" d="M3248.9834,-243.6893C3220.4474,-257.0271 3167.0321,-281.4934 3120.5,-300 3090.0236,-312.121 3054.9361,-324.4426 3028.9007,-333.2788"/>
<polygon fill="#191970" stroke="#191970" points="3027.7499,-329.9732 3019.394,-336.4871 3029.9882,-336.6057 3027.7499,-329.9732"/>
</g>
<!-- Node60&#45;&gt;Node48 -->
<g id="edge57" class="edge">
<title>Node60&#45;&gt;Node48</title>
<path fill="none" stroke="#191970" d="M3284.6542,-224.2455C3298.0027,-215.6534 3317.6586,-203.0014 3333.0383,-193.1018"/>
<polygon fill="#191970" stroke="#191970" points="3335.0051,-195.9982 3341.5194,-187.6427 3331.2164,-190.1121 3335.0051,-195.9982"/>
</g>
<!-- Node64&#45;&gt;Node1 -->
<g id="edge58" class="edge">
<title>Node64&#45;&gt;Node1</title>
<path fill="none" stroke="#191970" d="M2774.4295,-243.7274C2802.2555,-259.6583 2856.5619,-290.4925 2876.5,-300 2902.1746,-312.2429 2932.0146,-324.206 2954.724,-332.8623"/>
<polygon fill="#191970" stroke="#191970" points="2953.709,-336.2201 2964.3007,-336.4781 2956.1816,-329.6714 2953.709,-336.2201"/>
</g>
<!-- Node64&#45;&gt;Node13 -->
<g id="edge59" class="edge">
<title>Node64&#45;&gt;Node13</title>
<path fill="none" stroke="#191970" d="M2705.4592,-231.6838C2641.4315,-227.616 2538.2627,-216.683 2514.5,-188 2477.0726,-142.8229 2489.1991,-108.9305 2514.5,-56 2520.6448,-43.1449 2532.3299,-32.7306 2543.5285,-25.0832"/>
<polygon fill="#191970" stroke="#191970" points="2545.7041,-27.8488 2552.29,-19.5495 2541.9661,-21.9304 2545.7041,-27.8488"/>
</g>
<!-- Node65&#45;&gt;Node1 -->
<g id="edge60" class="edge">
<title>Node65&#45;&gt;Node1</title>
<path fill="none" stroke="#191970" d="M3367.462,-243.5249C3292.8195,-263.816 3118.2052,-311.284 3035.484,-333.7713"/>
<polygon fill="#191970" stroke="#191970" points="3034.3585,-330.4502 3025.6269,-336.4509 3036.1948,-337.2051 3034.3585,-330.4502"/>
</g>
<!-- Node65&#45;&gt;Node13 -->
<g id="edge61" class="edge">
<title>Node65&#45;&gt;Node13</title>
<path fill="none" stroke="#191970" d="M3402.1366,-224.3349C3401.1257,-210.3568 3397.365,-184.3831 3383.5,-168 3346.258,-123.9945 3319.721,-134.1581 3266.5,-112 3198.1072,-83.5252 3181.8945,-71.7301 3109.5,-56 3011.9445,-34.8028 2704.3123,-17.0358 2603.6951,-11.6641"/>
<polygon fill="#191970" stroke="#191970" points="2603.7122,-8.1602 2593.5412,-11.1267 2603.3422,-15.1504 2603.7122,-8.1602"/>
</g>
<!-- Node66&#45;&gt;Node1 -->
<g id="edge62" class="edge">
<title>Node66&#45;&gt;Node1</title>
<path fill="none" stroke="#191970" d="M3491.7117,-243.5626C3388.3076,-264.6963 3141.3066,-315.1782 3037.6076,-336.3722"/>
<polygon fill="#191970" stroke="#191970" points="3036.832,-332.9582 3027.7354,-338.3898 3038.2338,-339.8165 3036.832,-332.9582"/>
</g>
</g>
</svg>
