<?xml version="1.0" encoding="UTF-8" standalone="no"?>
<!DOCTYPE svg PUBLIC "-//W3C//DTD SVG 1.1//EN"
 "http://www.w3.org/Graphics/SVG/1.1/DTD/svg11.dtd">
<!-- Generated by graphviz version 2.40.1 (20161225.0304)
 -->
<!-- Title: logger.hpp Pages: 1 -->
<svg width="3171pt" height="420pt"
 viewBox="0.00 0.00 3171.00 420.00" xmlns="http://www.w3.org/2000/svg" xmlns:xlink="http://www.w3.org/1999/xlink">
<g id="graph0" class="graph" transform="scale(1 1) rotate(0) translate(4 416)">
<title>logger.hpp</title>
<polygon fill="#ffffff" stroke="transparent" points="-4,4 -4,-416 3167,-416 3167,4 -4,4"/>
<!-- Node0 -->
<g id="node1" class="node">
<title>Node0</title>
<polygon fill="#bfbfbf" stroke="#000000" points="1568.5,-392.5 1568.5,-411.5 1629.5,-411.5 1629.5,-392.5 1568.5,-392.5"/>
<text text-anchor="middle" x="1599" y="-399.5" font-family="Helvetica,sans-Serif" font-size="10.00" fill="#000000">logger.hpp</text>
</g>
<!-- Node1 -->
<g id="node2" class="node">
<title>Node1</title>
<g id="a_node2"><a xlink:href="alox_8hpp.html" target="_top" xlink:title="alox/alox.hpp">
<polygon fill="#ffffff" stroke="#000000" points="1562,-336.5 1562,-355.5 1636,-355.5 1636,-336.5 1562,-336.5"/>
<text text-anchor="middle" x="1599" y="-343.5" font-family="Helvetica,sans-Serif" font-size="10.00" fill="#000000">alox/alox.hpp</text>
</a>
</g>
</g>
<!-- Node0&#45;&gt;Node1 -->
<g id="edge1" class="edge">
<title>Node0&#45;&gt;Node1</title>
<path fill="none" stroke="#191970" d="M1599,-392.2455C1599,-384.9382 1599,-374.6944 1599,-365.7046"/>
<polygon fill="#191970" stroke="#191970" points="1602.5001,-365.6426 1599,-355.6427 1595.5001,-365.6427 1602.5001,-365.6426"/>
</g>
<!-- Node13 -->
<g id="node3" class="node">
<title>Node13</title>
<polygon fill="#ffffff" stroke="#bfbfbf" points="539,-.5 539,-19.5 583,-19.5 583,-.5 539,-.5"/>
<text text-anchor="middle" x="561" y="-7.5" font-family="Helvetica,sans-Serif" font-size="10.00" fill="#000000">vector</text>
</g>
<!-- Node0&#45;&gt;Node13 -->
<g id="edge2" class="edge">
<title>Node0&#45;&gt;Node13</title>
<path fill="none" stroke="#191970" d="M1629.5402,-401.4642C1847.872,-397.4394 3163,-369.8805 3163,-290 3163,-290 3163,-290 3163,-122 3163,16.1143 2682.8773,-64.0875 2545,-56 2142.5111,-32.3912 817.7062,-13.5027 593.4018,-10.4361"/>
<polygon fill="#191970" stroke="#191970" points="593.3225,-6.9348 583.2758,-10.2983 593.2271,-13.9342 593.3225,-6.9348"/>
</g>
<!-- Node1&#45;&gt;Node13 -->
<g id="edge4" class="edge">
<title>Node1&#45;&gt;Node13</title>
<path fill="none" stroke="#191970" d="M1636.3426,-345.2705C1870.362,-340.4604 3125,-311.078 3125,-234 3125,-234 3125,-234 3125,-122 3125,-55.4312 889.3661,-15.5263 593.2476,-10.5327"/>
<polygon fill="#191970" stroke="#191970" points="593.2233,-7.0319 583.1659,-10.3636 593.1058,-14.0309 593.2233,-7.0319"/>
</g>
<!-- Node2 -->
<g id="node4" class="node">
<title>Node2</title>
<g id="a_node4"><a xlink:href="alib_8hpp.html" target="_top" xlink:title="alib/alib.hpp">
<polygon fill="#ffffff" stroke="#000000" points="1565,-280.5 1565,-299.5 1633,-299.5 1633,-280.5 1565,-280.5"/>
<text text-anchor="middle" x="1599" y="-287.5" font-family="Helvetica,sans-Serif" font-size="10.00" fill="#000000">alib/alib.hpp</text>
</a>
</g>
</g>
<!-- Node1&#45;&gt;Node2 -->
<g id="edge3" class="edge">
<title>Node1&#45;&gt;Node2</title>
<path fill="none" stroke="#191970" d="M1599,-336.2455C1599,-328.9382 1599,-318.6944 1599,-309.7046"/>
<polygon fill="#191970" stroke="#191970" points="1602.5001,-309.6426 1599,-299.6427 1595.5001,-309.6427 1602.5001,-309.6426"/>
</g>
<!-- Node37 -->
<g id="node5" class="node">
<title>Node37</title>
<g id="a_node5"><a xlink:href="alox__symbols_8hpp.html" target="_top" xlink:title="internals/alox_symbols.hpp">
<polygon fill="#ffffff" stroke="#000000" points="1651.5,-280.5 1651.5,-299.5 1786.5,-299.5 1786.5,-280.5 1651.5,-280.5"/>
<text text-anchor="middle" x="1719" y="-287.5" font-family="Helvetica,sans-Serif" font-size="10.00" fill="#000000">internals/alox_symbols.hpp</text>
</a>
</g>
</g>
<!-- Node1&#45;&gt;Node37 -->
<g id="edge5" class="edge">
<title>Node1&#45;&gt;Node37</title>
<path fill="none" stroke="#191970" d="M1619.6287,-336.3733C1638.8919,-327.3838 1667.8486,-313.8706 1689.5419,-303.7471"/>
<polygon fill="#191970" stroke="#191970" points="1691.0587,-306.9017 1698.6405,-299.5011 1688.0985,-300.5584 1691.0587,-306.9017"/>
</g>
<!-- Node38 -->
<g id="node6" class="node">
<title>Node38</title>
<g id="a_node6"><a xlink:href="alox__macros_8hpp.html" target="_top" xlink:title="internals/alox_macros.hpp">
<polygon fill="#ffffff" stroke="#000000" points="1804.5,-280.5 1804.5,-299.5 1935.5,-299.5 1935.5,-280.5 1804.5,-280.5"/>
<text text-anchor="middle" x="1870" y="-287.5" font-family="Helvetica,sans-Serif" font-size="10.00" fill="#000000">internals/alox_macros.hpp</text>
</a>
</g>
</g>
<!-- Node1&#45;&gt;Node38 -->
<g id="edge6" class="edge">
<title>Node1&#45;&gt;Node38</title>
<path fill="none" stroke="#191970" d="M1636.1132,-338.3309C1682.0072,-328.8472 1760.5725,-312.6123 1813.8565,-301.6016"/>
<polygon fill="#191970" stroke="#191970" points="1814.7434,-304.9924 1823.8282,-299.541 1813.3268,-298.1372 1814.7434,-304.9924"/>
</g>
<!-- Node39 -->
<g id="node7" class="node">
<title>Node39</title>
<g id="a_node7"><a xlink:href="configuration_8hpp.html" target="_top" xlink:title="alib/config/configuration.hpp">
<polygon fill="#ffffff" stroke="#000000" points="463,-224.5 463,-243.5 601,-243.5 601,-224.5 463,-224.5"/>
<text text-anchor="middle" x="532" y="-231.5" font-family="Helvetica,sans-Serif" font-size="10.00" fill="#000000">alib/config/configuration.hpp</text>
</a>
</g>
</g>
<!-- Node1&#45;&gt;Node39 -->
<g id="edge7" class="edge">
<title>Node1&#45;&gt;Node39</title>
<path fill="none" stroke="#191970" d="M1561.8312,-343.1095C1476.572,-336.3907 1260.3846,-318.8518 1080,-300 912.8845,-282.535 717.6084,-258.0317 611.1483,-244.3252"/>
<polygon fill="#191970" stroke="#191970" points="611.4925,-240.8407 601.127,-243.0331 610.5972,-247.7832 611.4925,-240.8407"/>
</g>
<!-- Node53 -->
<g id="node8" class="node">
<title>Node53</title>
<g id="a_node8"><a xlink:href="aloxtypesandenums_8hpp.html" target="_top" xlink:title="aloxtypesandenums.hpp">
<polygon fill="#ffffff" stroke="#000000" points="1954,-280.5 1954,-299.5 2076,-299.5 2076,-280.5 1954,-280.5"/>
<text text-anchor="middle" x="2015" y="-287.5" font-family="Helvetica,sans-Serif" font-size="10.00" fill="#000000">aloxtypesandenums.hpp</text>
</a>
</g>
</g>
<!-- Node1&#45;&gt;Node53 -->
<g id="edge8" class="edge">
<title>Node1&#45;&gt;Node53</title>
<path fill="none" stroke="#191970" d="M1636.1385,-341.1829C1697.7786,-333.1616 1825.3682,-316.4473 1943.9442,-300.1357"/>
<polygon fill="#191970" stroke="#191970" points="1944.4928,-303.5932 1953.9215,-298.7611 1943.5374,-296.6587 1944.4928,-303.5932"/>
</g>
<!-- Node54 -->
<g id="node9" class="node">
<title>Node54</title>
<g id="a_node9"><a xlink:href="log_8hpp.html" target="_top" xlink:title="log.hpp">
<polygon fill="#ffffff" stroke="#000000" points="2094,-280.5 2094,-299.5 2142,-299.5 2142,-280.5 2094,-280.5"/>
<text text-anchor="middle" x="2118" y="-287.5" font-family="Helvetica,sans-Serif" font-size="10.00" fill="#000000">log.hpp</text>
</a>
</g>
</g>
<!-- Node1&#45;&gt;Node54 -->
<g id="edge9" class="edge">
<title>Node1&#45;&gt;Node54</title>
<path fill="none" stroke="#191970" d="M1636.3,-344.8333C1717.2428,-341.8713 1914.0512,-331.869 2076,-300 2078.6083,-299.4867 2081.3047,-298.8506 2084.0271,-298.1498"/>
<polygon fill="#191970" stroke="#191970" points="2085.1783,-301.463 2093.8884,-295.4312 2083.3178,-294.7148 2085.1783,-301.463"/>
</g>
<!-- Node55 -->
<g id="node10" class="node">
<title>Node55</title>
<g id="a_node10"><a xlink:href="lox_8hpp.html" target="_top" xlink:title="lox.hpp">
<polygon fill="#ffffff" stroke="#000000" points="557,-280.5 557,-299.5 605,-299.5 605,-280.5 557,-280.5"/>
<text text-anchor="middle" x="581" y="-287.5" font-family="Helvetica,sans-Serif" font-size="10.00" fill="#000000">lox.hpp</text>
</a>
</g>
</g>
<!-- Node1&#45;&gt;Node55 -->
<g id="edge10" class="edge">
<title>Node1&#45;&gt;Node55</title>
<path fill="none" stroke="#191970" d="M1561.6735,-344.628C1437.8954,-339.7396 1030.7192,-322.2696 695,-300 668.2404,-298.2249 638.2419,-295.7949 615.6221,-293.7748"/>
<polygon fill="#191970" stroke="#191970" points="615.7489,-290.2719 605.4725,-292.85 615.1137,-297.243 615.7489,-290.2719"/>
</g>
<!-- Node3 -->
<g id="node11" class="node">
<title>Node3</title>
<polygon fill="#ffffff" stroke="#bfbfbf" points="2525,-224.5 2525,-243.5 2577,-243.5 2577,-224.5 2525,-224.5"/>
<text text-anchor="middle" x="2551" y="-231.5" font-family="Helvetica,sans-Serif" font-size="10.00" fill="#000000">assert.h</text>
</g>
<!-- Node2&#45;&gt;Node3 -->
<g id="edge11" class="edge">
<title>Node2&#45;&gt;Node3</title>
<path fill="none" stroke="#191970" d="M1633.4793,-281.5392C1636.6843,-280.9419 1639.8939,-280.4135 1643,-280 2024.6446,-229.1942 2130.8058,-304.4679 2514.7874,-243.8126"/>
<polygon fill="#191970" stroke="#191970" points="2515.4565,-247.2502 2524.7778,-242.2139 2514.3503,-240.3381 2515.4565,-247.2502"/>
</g>
<!-- Node4 -->
<g id="node12" class="node">
<title>Node4</title>
<polygon fill="#ffffff" stroke="#bfbfbf" points="2595,-224.5 2595,-243.5 2641,-243.5 2641,-224.5 2595,-224.5"/>
<text text-anchor="middle" x="2618" y="-231.5" font-family="Helvetica,sans-Serif" font-size="10.00" fill="#000000">cstdint</text>
</g>
<!-- Node2&#45;&gt;Node4 -->
<g id="edge12" class="edge">
<title>Node2&#45;&gt;Node4</title>
<path fill="none" stroke="#191970" d="M1633.4779,-281.5291C1636.6832,-280.9339 1639.8933,-280.4087 1643,-280 2055.4826,-225.7303 2170.8128,-313.7343 2584.6145,-243.7812"/>
<polygon fill="#191970" stroke="#191970" points="2585.4905,-247.1822 2594.7566,-242.0453 2584.3095,-240.2825 2585.4905,-247.1822"/>
</g>
<!-- Node5 -->
<g id="node13" class="node">
<title>Node5</title>
<g id="a_node13"><a xlink:href="prepro_8hpp.html" target="_top" xlink:title="alib/alib/prepro.hpp">
<polygon fill="#ffffff" stroke="#000000" points="2659,-224.5 2659,-243.5 2757,-243.5 2757,-224.5 2659,-224.5"/>
<text text-anchor="middle" x="2708" y="-231.5" font-family="Helvetica,sans-Serif" font-size="10.00" fill="#000000">alib/alib/prepro.hpp</text>
</a>
</g>
</g>
<!-- Node2&#45;&gt;Node5 -->
<g id="edge13" class="edge">
<title>Node2&#45;&gt;Node5</title>
<path fill="none" stroke="#191970" d="M1633.4769,-281.5211C1636.6824,-280.9275 1639.8928,-280.405 1643,-280 2083.7244,-222.5577 2202.7462,-289.1282 2648.4476,-244.0173"/>
<polygon fill="#191970" stroke="#191970" points="2649.1111,-247.4677 2658.7018,-242.9657 2648.3968,-240.5043 2649.1111,-247.4677"/>
</g>
<!-- Node6 -->
<g id="node14" class="node">
<title>Node6</title>
<g id="a_node14"><a xlink:href="distribution_8hpp_source.html" target="_top" xlink:title="alib/distribution.hpp">
<polygon fill="#ffffff" stroke="#000000" points="2775.5,-224.5 2775.5,-243.5 2876.5,-243.5 2876.5,-224.5 2775.5,-224.5"/>
<text text-anchor="middle" x="2826" y="-231.5" font-family="Helvetica,sans-Serif" font-size="10.00" fill="#000000">alib/distribution.hpp</text>
</a>
</g>
</g>
<!-- Node2&#45;&gt;Node6 -->
<g id="edge14" class="edge">
<title>Node2&#45;&gt;Node6</title>
<path fill="none" stroke="#191970" d="M1633.4753,-281.5088C1636.6811,-280.9179 1639.8921,-280.3992 1643,-280 2135.0326,-216.793 2267.3181,-292.1504 2765.3613,-243.9097"/>
<polygon fill="#191970" stroke="#191970" points="2765.7134,-247.3921 2775.3242,-242.933 2765.0304,-240.4255 2765.7134,-247.3921"/>
</g>
<!-- Node7 -->
<g id="node15" class="node">
<title>Node7</title>
<g id="a_node15"><a xlink:href="debug_8hpp.html" target="_top" xlink:title="alib/alib/debug.hpp">
<polygon fill="#ffffff" stroke="#000000" points="2895,-224.5 2895,-243.5 2993,-243.5 2993,-224.5 2895,-224.5"/>
<text text-anchor="middle" x="2944" y="-231.5" font-family="Helvetica,sans-Serif" font-size="10.00" fill="#000000">alib/alib/debug.hpp</text>
</a>
</g>
</g>
<!-- Node2&#45;&gt;Node7 -->
<g id="edge15" class="edge">
<title>Node2&#45;&gt;Node7</title>
<path fill="none" stroke="#191970" d="M1633.474,-281.4986C1636.6801,-280.9098 1639.8914,-280.3944 1643,-280 2187.9333,-210.8535 2334.2939,-298.0137 2884.5214,-243.9998"/>
<polygon fill="#191970" stroke="#191970" points="2885.0989,-247.4597 2894.7041,-242.9886 2884.4072,-240.494 2885.0989,-247.4597"/>
</g>
<!-- Node8 -->
<g id="node16" class="node">
<title>Node8</title>
<g id="a_node16"><a xlink:href="rtti_8hpp.html" target="_top" xlink:title="alib/lang/rtti.hpp">
<polygon fill="#ffffff" stroke="#ff0000" points="3011,-224.5 3011,-243.5 3097,-243.5 3097,-224.5 3011,-224.5"/>
<text text-anchor="middle" x="3054" y="-231.5" font-family="Helvetica,sans-Serif" font-size="10.00" fill="#000000">alib/lang/rtti.hpp</text>
</a>
</g>
</g>
<!-- Node2&#45;&gt;Node8 -->
<g id="edge16" class="edge">
<title>Node2&#45;&gt;Node8</title>
<path fill="none" stroke="#191970" d="M1633.4729,-281.4904C1636.6793,-280.9033 1639.891,-280.3906 1643,-280 2239.1328,-205.1048 2399.5263,-308.101 3000.7247,-243.9433"/>
<polygon fill="#191970" stroke="#191970" points="3001.3848,-247.3925 3010.9518,-242.8404 3000.6342,-240.4329 3001.3848,-247.3925"/>
</g>
<!-- Node12 -->
<g id="node17" class="node">
<title>Node12</title>
<g id="a_node17"><a xlink:href="singleton_8hpp.html" target="_top" xlink:title="alib/lang/singleton.hpp">
<polygon fill="#ffffff" stroke="#000000" points="760.5,-112.5 760.5,-131.5 873.5,-131.5 873.5,-112.5 760.5,-112.5"/>
<text text-anchor="middle" x="817" y="-119.5" font-family="Helvetica,sans-Serif" font-size="10.00" fill="#000000">alib/lang/singleton.hpp</text>
</a>
</g>
</g>
<!-- Node2&#45;&gt;Node12 -->
<g id="edge17" class="edge">
<title>Node2&#45;&gt;Node12</title>
<path fill="none" stroke="#191970" d="M1564.815,-289.175C1419.2101,-285.5065 856.9364,-269.7144 830,-244 802.5109,-217.758 807.0241,-168.8351 812.2842,-141.5926"/>
<polygon fill="#191970" stroke="#191970" points="815.7345,-142.1959 814.4192,-131.683 808.8915,-140.7215 815.7345,-142.1959"/>
</g>
<!-- Node14 -->
<g id="node18" class="node">
<title>Node14</title>
<g id="a_node18"><a xlink:href="types_8hpp.html" target="_top" xlink:title="alib/lang/types.hpp">
<polygon fill="#ffffff" stroke="#000000" points="839,-224.5 839,-243.5 937,-243.5 937,-224.5 839,-224.5"/>
<text text-anchor="middle" x="888" y="-231.5" font-family="Helvetica,sans-Serif" font-size="10.00" fill="#000000">alib/lang/types.hpp</text>
</a>
</g>
</g>
<!-- Node2&#45;&gt;Node14 -->
<g id="edge18" class="edge">
<title>Node2&#45;&gt;Node14</title>
<path fill="none" stroke="#191970" d="M1564.895,-288.8058C1469.1482,-285.1968 1189.5886,-272.9027 947.3621,-244.0577"/>
<polygon fill="#191970" stroke="#191970" points="947.6579,-240.5681 937.3114,-242.8487 946.8218,-247.518 947.6579,-240.5681"/>
</g>
<!-- Node15 -->
<g id="node19" class="node">
<title>Node15</title>
<g id="a_node19"><a xlink:href="boxing_8hpp.html" target="_top" xlink:title="alib/boxing/boxing.hpp">
<polygon fill="#ffffff" stroke="#ff0000" points="955.5,-224.5 955.5,-243.5 1068.5,-243.5 1068.5,-224.5 955.5,-224.5"/>
<text text-anchor="middle" x="1012" y="-231.5" font-family="Helvetica,sans-Serif" font-size="10.00" fill="#000000">alib/boxing/boxing.hpp</text>
</a>
</g>
</g>
<!-- Node2&#45;&gt;Node15 -->
<g id="edge19" class="edge">
<title>Node2&#45;&gt;Node15</title>
<path fill="none" stroke="#191970" d="M1564.7873,-287.7205C1482.8532,-282.1029 1268.7271,-266.4855 1079.0104,-244.0543"/>
<polygon fill="#191970" stroke="#191970" points="1079.195,-240.5516 1068.8511,-242.8437 1078.3667,-247.5024 1079.195,-240.5516"/>
</g>
<!-- Node23 -->
<g id="node20" class="node">
<title>Node23</title>
<g id="a_node20"><a xlink:href="enums_8hpp.html" target="_top" xlink:title="alib/lang/enums.hpp">
<polygon fill="#ffffff" stroke="#000000" points="1087,-224.5 1087,-243.5 1191,-243.5 1191,-224.5 1087,-224.5"/>
<text text-anchor="middle" x="1139" y="-231.5" font-family="Helvetica,sans-Serif" font-size="10.00" fill="#000000">alib/lang/enums.hpp</text>
</a>
</g>
</g>
<!-- Node2&#45;&gt;Node23 -->
<g id="edge20" class="edge">
<title>Node2&#45;&gt;Node23</title>
<path fill="none" stroke="#191970" d="M1564.7716,-286.6099C1497.3031,-279.8079 1342.1654,-263.5749 1201.3324,-244.1338"/>
<polygon fill="#191970" stroke="#191970" points="1201.6051,-240.6381 1191.2185,-242.7285 1200.6417,-247.5715 1201.6051,-240.6381"/>
</g>
<!-- Node24 -->
<g id="node21" class="node">
<title>Node24</title>
<g id="a_node21"><a xlink:href="cstring_8hpp.html" target="_top" xlink:title="alib/strings/cstring.hpp">
<polygon fill="#ffffff" stroke="#ff0000" points="1209.5,-224.5 1209.5,-243.5 1324.5,-243.5 1324.5,-224.5 1209.5,-224.5"/>
<text text-anchor="middle" x="1267" y="-231.5" font-family="Helvetica,sans-Serif" font-size="10.00" fill="#000000">alib/strings/cstring.hpp</text>
</a>
</g>
</g>
<!-- Node2&#45;&gt;Node24 -->
<g id="edge21" class="edge">
<title>Node2&#45;&gt;Node24</title>
<path fill="none" stroke="#191970" d="M1564.7206,-284.2179C1510.3211,-275.0421 1403.2489,-256.9817 1333.4368,-245.2062"/>
<polygon fill="#191970" stroke="#191970" points="1333.8606,-241.7283 1323.4177,-243.5162 1332.6962,-248.6308 1333.8606,-241.7283"/>
</g>
<!-- Node27 -->
<g id="node22" class="node">
<title>Node27</title>
<g id="a_node22"><a xlink:href="string_8hpp.html" target="_top" xlink:title="alib/strings/string.hpp">
<polygon fill="#ffffff" stroke="#000000" points="1343,-224.5 1343,-243.5 1453,-243.5 1453,-224.5 1343,-224.5"/>
<text text-anchor="middle" x="1398" y="-231.5" font-family="Helvetica,sans-Serif" font-size="10.00" fill="#000000">alib/strings/string.hpp</text>
</a>
</g>
</g>
<!-- Node2&#45;&gt;Node27 -->
<g id="edge22" class="edge">
<title>Node2&#45;&gt;Node27</title>
<path fill="none" stroke="#191970" d="M1564.9031,-280.5004C1531.118,-271.0876 1479.2113,-256.626 1442.2617,-246.3316"/>
<polygon fill="#191970" stroke="#191970" points="1442.8367,-242.8586 1432.2642,-243.5462 1440.9579,-249.6018 1442.8367,-242.8586"/>
</g>
<!-- Node28 -->
<g id="node23" class="node">
<title>Node28</title>
<g id="a_node23"><a xlink:href="tstring_8hpp.html" target="_top" xlink:title="alib/strings/tstring.hpp">
<polygon fill="#ffffff" stroke="#000000" points="1471.5,-224.5 1471.5,-243.5 1584.5,-243.5 1584.5,-224.5 1471.5,-224.5"/>
<text text-anchor="middle" x="1528" y="-231.5" font-family="Helvetica,sans-Serif" font-size="10.00" fill="#000000">alib/strings/tstring.hpp</text>
</a>
</g>
</g>
<!-- Node2&#45;&gt;Node28 -->
<g id="edge23" class="edge">
<title>Node2&#45;&gt;Node28</title>
<path fill="none" stroke="#191970" d="M1586.6327,-280.2455C1576.0446,-271.8943 1560.5936,-259.7076 1548.2107,-249.9408"/>
<polygon fill="#191970" stroke="#191970" points="1550.2447,-247.0875 1540.2255,-243.6427 1545.9097,-252.5837 1550.2447,-247.0875"/>
</g>
<!-- Node29 -->
<g id="node24" class="node">
<title>Node29</title>
<g id="a_node24"><a xlink:href="stringliteral_8hpp.html" target="_top" xlink:title="alib/strings/stringliteral.hpp">
<polygon fill="#ffffff" stroke="#000000" points="1602.5,-224.5 1602.5,-243.5 1735.5,-243.5 1735.5,-224.5 1602.5,-224.5"/>
<text text-anchor="middle" x="1669" y="-231.5" font-family="Helvetica,sans-Serif" font-size="10.00" fill="#000000">alib/strings/stringliteral.hpp</text>
</a>
</g>
</g>
<!-- Node2&#45;&gt;Node29 -->
<g id="edge24" class="edge">
<title>Node2&#45;&gt;Node29</title>
<path fill="none" stroke="#191970" d="M1611.1931,-280.2455C1621.6321,-271.8943 1636.8655,-259.7076 1649.074,-249.9408"/>
<polygon fill="#191970" stroke="#191970" points="1651.3244,-252.6227 1656.9467,-243.6427 1646.9515,-247.1566 1651.3244,-252.6227"/>
</g>
<!-- Node30 -->
<g id="node25" class="node">
<title>Node30</title>
<g id="a_node25"><a xlink:href="astring_8hpp.html" target="_top" xlink:title="alib/strings/astring.hpp">
<polygon fill="#ffffff" stroke="#ff0000" points="1753.5,-224.5 1753.5,-243.5 1868.5,-243.5 1868.5,-224.5 1753.5,-224.5"/>
<text text-anchor="middle" x="1811" y="-231.5" font-family="Helvetica,sans-Serif" font-size="10.00" fill="#000000">alib/strings/astring.hpp</text>
</a>
</g>
</g>
<!-- Node2&#45;&gt;Node30 -->
<g id="edge25" class="edge">
<title>Node2&#45;&gt;Node30</title>
<path fill="none" stroke="#191970" d="M1633.0615,-281.0026C1668.8848,-271.5399 1725.4637,-256.5945 1765.1826,-246.1027"/>
<polygon fill="#191970" stroke="#191970" points="1766.12,-249.4752 1774.8945,-243.5373 1764.3322,-242.7074 1766.12,-249.4752"/>
</g>
<!-- Node32 -->
<g id="node26" class="node">
<title>Node32</title>
<g id="a_node26"><a xlink:href="preallocatedstring_8hpp.html" target="_top" xlink:title="alib/strings/preallocatedstring.hpp">
<polygon fill="#ffffff" stroke="#000000" points="1887,-224.5 1887,-243.5 2049,-243.5 2049,-224.5 1887,-224.5"/>
<text text-anchor="middle" x="1968" y="-231.5" font-family="Helvetica,sans-Serif" font-size="10.00" fill="#000000">alib/strings/preallocatedstring.hpp</text>
</a>
</g>
</g>
<!-- Node2&#45;&gt;Node32 -->
<g id="edge26" class="edge">
<title>Node2&#45;&gt;Node32</title>
<path fill="none" stroke="#191970" d="M1633.0522,-281.9679C1636.4058,-281.265 1639.7642,-280.5956 1643,-280 1721.7336,-265.5068 1811.9266,-253.0677 1877.2917,-244.7928"/>
<polygon fill="#191970" stroke="#191970" points="1878.0786,-248.2215 1887.5636,-243.5008 1877.205,-241.2762 1878.0786,-248.2215"/>
</g>
<!-- Node33 -->
<g id="node27" class="node">
<title>Node33</title>
<g id="a_node27"><a xlink:href="stringboxing_8hpp.html" target="_top" xlink:title="alib/strings/boxing/stringboxing.hpp">
<polygon fill="#ffffff" stroke="#000000" points="2067,-224.5 2067,-243.5 2237,-243.5 2237,-224.5 2067,-224.5"/>
<text text-anchor="middle" x="2152" y="-231.5" font-family="Helvetica,sans-Serif" font-size="10.00" fill="#000000">alib/strings/boxing/stringboxing.hpp</text>
</a>
</g>
</g>
<!-- Node2&#45;&gt;Node33 -->
<g id="edge27" class="edge">
<title>Node2&#45;&gt;Node33</title>
<path fill="none" stroke="#191970" d="M1633.0209,-281.784C1636.3809,-281.1184 1639.7493,-280.5079 1643,-280 1822.7022,-251.9203 1871.9976,-261.4406 2056.8964,-244.0805"/>
<polygon fill="#191970" stroke="#191970" points="2057.3302,-247.5551 2066.9531,-243.1225 2056.6663,-240.5867 2057.3302,-247.5551"/>
</g>
<!-- Node34 -->
<g id="node28" class="node">
<title>Node34</title>
<g id="a_node28"><a xlink:href="report_8hpp.html" target="_top" xlink:title="alib/lang/report.hpp">
<polygon fill="#ffffff" stroke="#ff0000" points="2255.5,-224.5 2255.5,-243.5 2354.5,-243.5 2354.5,-224.5 2255.5,-224.5"/>
<text text-anchor="middle" x="2305" y="-231.5" font-family="Helvetica,sans-Serif" font-size="10.00" fill="#000000">alib/lang/report.hpp</text>
</a>
</g>
</g>
<!-- Node2&#45;&gt;Node34 -->
<g id="edge28" class="edge">
<title>Node2&#45;&gt;Node34</title>
<path fill="none" stroke="#191970" d="M1633.0072,-281.6923C1636.37,-281.0452 1639.7428,-280.4642 1643,-280 1905.5473,-242.5852 1977.5088,-273.6976 2245.4566,-243.9249"/>
<polygon fill="#191970" stroke="#191970" points="2245.9368,-247.393 2255.4809,-242.793 2245.1513,-240.4372 2245.9368,-247.393"/>
</g>
<!-- Node36 -->
<g id="node29" class="node">
<title>Node36</title>
<g id="a_node29"><a xlink:href="applicables_8hpp.html" target="_top" xlink:title="alib/strings/applicables.hpp">
<polygon fill="#ffffff" stroke="#000000" points="2373,-224.5 2373,-243.5 2507,-243.5 2507,-224.5 2373,-224.5"/>
<text text-anchor="middle" x="2440" y="-231.5" font-family="Helvetica,sans-Serif" font-size="10.00" fill="#000000">alib/strings/applicables.hpp</text>
</a>
</g>
</g>
<!-- Node2&#45;&gt;Node36 -->
<g id="edge29" class="edge">
<title>Node2&#45;&gt;Node36</title>
<path fill="none" stroke="#191970" d="M1633.0026,-281.659C1636.3663,-281.0187 1639.7405,-280.4483 1643,-280 1957.5921,-236.7309 2042.7259,-272.2079 2362.8697,-244.0255"/>
<polygon fill="#191970" stroke="#191970" points="2363.2476,-247.5058 2372.896,-243.1289 2362.624,-240.5336 2363.2476,-247.5058"/>
</g>
<!-- Node39&#45;&gt;Node13 -->
<g id="edge31" class="edge">
<title>Node39&#45;&gt;Node13</title>
<path fill="none" stroke="#191970" d="M541.1083,-224.2537C554.7158,-210.1746 581.6879,-184.0762 609,-168 648.6291,-144.674 679.7434,-169.7513 706,-132 741.5596,-80.873 645.2454,-38.6496 592.6426,-20.118"/>
<polygon fill="#191970" stroke="#191970" points="593.6583,-16.7663 583.0637,-16.8341 591.3882,-23.388 593.6583,-16.7663"/>
</g>
<!-- Node40 -->
<g id="node30" class="node">
<title>Node40</title>
<g id="a_node30"><a xlink:href="threadlock_8hpp.html" target="_top" xlink:title="alib/threads/threadlock.hpp">
<polygon fill="#ffffff" stroke="#ff0000" points="106,-168.5 106,-187.5 240,-187.5 240,-168.5 106,-168.5"/>
<text text-anchor="middle" x="173" y="-175.5" font-family="Helvetica,sans-Serif" font-size="10.00" fill="#000000">alib/threads/threadlock.hpp</text>
</a>
</g>
</g>
<!-- Node39&#45;&gt;Node40 -->
<g id="edge32" class="edge">
<title>Node39&#45;&gt;Node40</title>
<path fill="none" stroke="#191970" d="M470.6936,-224.4369C407.8337,-214.6314 310.1617,-199.3957 243.9868,-189.0731"/>
<polygon fill="#191970" stroke="#191970" points="244.4735,-185.6068 234.0535,-187.5237 243.3946,-192.5232 244.4735,-185.6068"/>
</g>
<!-- Node48 -->
<g id="node31" class="node">
<title>Node48</title>
<g id="a_node31"><a xlink:href="substring_8hpp.html" target="_top" xlink:title="alib/strings/substring.hpp">
<polygon fill="#ffffff" stroke="#000000" points="474.5,-56.5 474.5,-75.5 599.5,-75.5 599.5,-56.5 474.5,-56.5"/>
<text text-anchor="middle" x="537" y="-63.5" font-family="Helvetica,sans-Serif" font-size="10.00" fill="#000000">alib/strings/substring.hpp</text>
</a>
</g>
</g>
<!-- Node39&#45;&gt;Node48 -->
<g id="edge33" class="edge">
<title>Node39&#45;&gt;Node48</title>
<path fill="none" stroke="#191970" d="M532.2831,-224.4862C533.0735,-197.9293 535.3165,-122.5651 536.3998,-86.1655"/>
<polygon fill="#191970" stroke="#191970" points="539.9084,-85.9276 536.7075,-75.8279 532.9115,-85.7193 539.9084,-85.9276"/>
</g>
<!-- Node49 -->
<g id="node32" class="node">
<title>Node49</title>
<g id="a_node32"><a xlink:href="numberformat_8hpp.html" target="_top" xlink:title="alib/strings/numberformat.hpp">
<polygon fill="#ffffff" stroke="#000000" points="618,-168.5 618,-187.5 764,-187.5 764,-168.5 618,-168.5"/>
<text text-anchor="middle" x="691" y="-175.5" font-family="Helvetica,sans-Serif" font-size="10.00" fill="#000000">alib/strings/numberformat.hpp</text>
</a>
</g>
</g>
<!-- Node39&#45;&gt;Node49 -->
<g id="edge34" class="edge">
<title>Node39&#45;&gt;Node49</title>
<path fill="none" stroke="#191970" d="M559.3331,-224.3733C585.5434,-215.1419 625.2984,-201.1402 654.2668,-190.9375"/>
<polygon fill="#191970" stroke="#191970" points="655.7542,-194.1244 664.0236,-187.5011 653.4288,-187.5219 655.7542,-194.1244"/>
</g>
<!-- Node50 -->
<g id="node33" class="node">
<title>Node50</title>
<g id="a_node33"><a xlink:href="variable_8hpp.html" target="_top" xlink:title="alib/config/variable.hpp">
<polygon fill="#ffffff" stroke="#000000" points="340,-56.5 340,-75.5 456,-75.5 456,-56.5 340,-56.5"/>
<text text-anchor="middle" x="398" y="-63.5" font-family="Helvetica,sans-Serif" font-size="10.00" fill="#000000">alib/config/variable.hpp</text>
</a>
</g>
</g>
<!-- Node39&#45;&gt;Node50 -->
<g id="edge35" class="edge">
<title>Node39&#45;&gt;Node50</title>
<path fill="none" stroke="#191970" d="M471.4691,-224.4726C413.7547,-214.7726 334.2718,-199.5584 325,-188 296.9064,-152.9781 345.5915,-106.1313 376.13,-81.9451"/>
<polygon fill="#191970" stroke="#191970" points="378.3892,-84.6231 384.1834,-75.753 374.1224,-79.0738 378.3892,-84.6231"/>
</g>
<!-- Node51 -->
<g id="node34" class="node">
<title>Node51</title>
<g id="a_node34"><a xlink:href="plugins_8hpp.html" target="_top" xlink:title="alib/config/plugins.hpp">
<polygon fill="#ffffff" stroke="#000000" points="383.5,-112.5 383.5,-131.5 496.5,-131.5 496.5,-112.5 383.5,-112.5"/>
<text text-anchor="middle" x="440" y="-119.5" font-family="Helvetica,sans-Serif" font-size="10.00" fill="#000000">alib/config/plugins.hpp</text>
</a>
</g>
</g>
<!-- Node39&#45;&gt;Node51 -->
<g id="edge36" class="edge">
<title>Node39&#45;&gt;Node51</title>
<path fill="none" stroke="#191970" d="M527.758,-224.3917C521.5425,-210.9343 509.05,-186.0939 494,-168 484.771,-156.9044 472.6759,-146.328 462.2725,-138.1204"/>
<polygon fill="#191970" stroke="#191970" points="464.1026,-135.1141 454.0316,-131.8238 459.8527,-140.6763 464.1026,-135.1141"/>
</g>
<!-- Node52 -->
<g id="node35" class="node">
<title>Node52</title>
<g id="a_node35"><a xlink:href="inmemoryplugin_8hpp.html" target="_top" xlink:title="alib/config/inmemoryplugin.hpp">
<polygon fill="#ffffff" stroke="#000000" points="334.5,-168.5 334.5,-187.5 485.5,-187.5 485.5,-168.5 334.5,-168.5"/>
<text text-anchor="middle" x="410" y="-175.5" font-family="Helvetica,sans-Serif" font-size="10.00" fill="#000000">alib/config/inmemoryplugin.hpp</text>
</a>
</g>
</g>
<!-- Node39&#45;&gt;Node52 -->
<g id="edge37" class="edge">
<title>Node39&#45;&gt;Node52</title>
<path fill="none" stroke="#191970" d="M511.0275,-224.3733C491.4433,-215.3838 462.0039,-201.8706 439.949,-191.7471"/>
<polygon fill="#191970" stroke="#191970" points="441.2473,-188.4919 430.6989,-187.5011 438.3271,-194.8538 441.2473,-188.4919"/>
</g>
<!-- Node54&#45;&gt;Node1 -->
<g id="edge43" class="edge">
<title>Node54&#45;&gt;Node1</title>
<path fill="none" stroke="#191970" d="M2096.1308,-299.5581C2095.4161,-299.7136 2094.7049,-299.8613 2094,-300 1932.0199,-331.8752 1735.1668,-341.8752 1646.3238,-344.835"/>
<polygon fill="#191970" stroke="#191970" points="1646.1713,-341.338 1636.2877,-345.1544 1646.394,-348.3344 1646.1713,-341.338"/>
</g>
<!-- Node55&#45;&gt;Node0 -->
<g id="edge44" class="edge">
<title>Node55&#45;&gt;Node0</title>
<path fill="none" stroke="#191970" d="M605.1997,-292.6624C738.9953,-307.3826 1388.2766,-378.8163 1558.221,-397.5135"/>
<polygon fill="#191970" stroke="#191970" points="1557.9331,-401.0029 1568.2559,-398.6175 1558.6987,-394.0449 1557.9331,-401.0029"/>
</g>
<!-- Node55&#45;&gt;Node1 -->
<g id="edge45" class="edge">
<title>Node55&#45;&gt;Node1</title>
<path fill="none" stroke="#191970" d="M605.0384,-291.6245C631.848,-293.7566 675.5891,-297.5184 713,-300 1033.4432,-321.2563 1418.9885,-338.1399 1551.615,-343.8833"/>
<polygon fill="#191970" stroke="#191970" points="1551.6853,-347.3895 1561.8273,-344.3253 1551.988,-340.3961 1551.6853,-347.3895"/>
</g>
<!-- Node55&#45;&gt;Node39 -->
<g id="edge46" class="edge">
<title>Node55&#45;&gt;Node39</title>
<path fill="none" stroke="#191970" d="M572.4649,-280.2455C565.5088,-272.2958 555.5117,-260.8706 547.1949,-251.3656"/>
<polygon fill="#191970" stroke="#191970" points="549.6564,-248.8637 540.4373,-243.6427 544.3884,-253.4732 549.6564,-248.8637"/>
</g>
<!-- Node45 -->
<g id="node36" class="node">
<title>Node45</title>
<polygon fill="#ffffff" stroke="#bfbfbf" points="14.5,-168.5 14.5,-187.5 49.5,-187.5 49.5,-168.5 14.5,-168.5"/>
<text text-anchor="middle" x="32" y="-175.5" font-family="Helvetica,sans-Serif" font-size="10.00" fill="#000000">map</text>
</g>
<!-- Node55&#45;&gt;Node45 -->
<g id="edge47" class="edge">
<title>Node55&#45;&gt;Node45</title>
<path fill="none" stroke="#191970" d="M556.9307,-288.5064C480.0144,-283.5492 240.8925,-266.6608 167,-244 148.7535,-238.4043 146.0704,-232.5352 129,-224 105.4695,-212.2348 78.3978,-199.4589 58.8436,-190.3638"/>
<polygon fill="#191970" stroke="#191970" points="60.1742,-187.1228 49.6296,-186.0917 57.2297,-193.4734 60.1742,-187.1228"/>
</g>
<!-- Node56 -->
<g id="node37" class="node">
<title>Node56</title>
<g id="a_node37"><a xlink:href="smartlock_8hpp.html" target="_top" xlink:title="alib/threads/smartlock.hpp">
<polygon fill="#ffffff" stroke="#000000" points="176.5,-224.5 176.5,-243.5 307.5,-243.5 307.5,-224.5 176.5,-224.5"/>
<text text-anchor="middle" x="242" y="-231.5" font-family="Helvetica,sans-Serif" font-size="10.00" fill="#000000">alib/threads/smartlock.hpp</text>
</a>
</g>
</g>
<!-- Node55&#45;&gt;Node56 -->
<g id="edge48" class="edge">
<title>Node55&#45;&gt;Node56</title>
<path fill="none" stroke="#191970" d="M556.8917,-286.0175C506.0068,-277.6117 386.0543,-257.7966 309.7585,-245.1931"/>
<polygon fill="#191970" stroke="#191970" points="310.1929,-241.7176 299.7562,-243.5408 309.052,-248.624 310.1929,-241.7176"/>
</g>
<!-- Node57 -->
<g id="node38" class="node">
<title>Node57</title>
<g id="a_node38"><a xlink:href="tokenizer_8hpp.html" target="_top" xlink:title="alib/strings/util/tokenizer.hpp">
<polygon fill="#ffffff" stroke="#000000" points="557,-112.5 557,-131.5 697,-131.5 697,-112.5 557,-112.5"/>
<text text-anchor="middle" x="627" y="-119.5" font-family="Helvetica,sans-Serif" font-size="10.00" fill="#000000">alib/strings/util/tokenizer.hpp</text>
</a>
</g>
</g>
<!-- Node55&#45;&gt;Node57 -->
<g id="edge49" class="edge">
<title>Node55&#45;&gt;Node57</title>
<path fill="none" stroke="#191970" d="M588.1281,-280.4042C599.3057,-266.0308 622.3476,-239.0008 648,-224 697.907,-194.8159 738.2336,-234.1922 773,-188 795.9088,-157.5623 752.5233,-140.8025 707.2176,-131.797"/>
<polygon fill="#191970" stroke="#191970" points="707.711,-128.3288 697.2391,-129.9375 706.4286,-135.2103 707.711,-128.3288"/>
</g>
<!-- Node58 -->
<g id="node39" class="node">
<title>Node58</title>
<g id="a_node39"><a xlink:href="scopeinfo_8hpp.html" target="_top" xlink:title="alox/core/scopeinfo.hpp">
<polygon fill="#ffffff" stroke="#ff0000" points="0,-224.5 0,-243.5 120,-243.5 120,-224.5 0,-224.5"/>
<text text-anchor="middle" x="60" y="-231.5" font-family="Helvetica,sans-Serif" font-size="10.00" fill="#000000">alox/core/scopeinfo.hpp</text>
</a>
</g>
</g>
<!-- Node55&#45;&gt;Node58 -->
<g id="edge50" class="edge">
<title>Node55&#45;&gt;Node58</title>
<path fill="none" stroke="#191970" d="M556.743,-287.7771C489.5145,-281.5572 295.1324,-263.1733 134,-244 132.7328,-243.8492 131.4536,-243.6952 130.1653,-243.5385"/>
<polygon fill="#191970" stroke="#191970" points="130.5111,-240.0546 120.1551,-242.2917 129.6458,-247.001 130.5111,-240.0546"/>
</g>
<!-- Node62 -->
<g id="node40" class="node">
<title>Node62</title>
<g id="a_node40"><a xlink:href="domain_8hpp.html" target="_top" xlink:title="alox/core/domain.hpp">
<polygon fill="#ffffff" stroke="#000000" points="335,-224.5 335,-243.5 445,-243.5 445,-224.5 335,-224.5"/>
<text text-anchor="middle" x="390" y="-231.5" font-family="Helvetica,sans-Serif" font-size="10.00" fill="#000000">alox/core/domain.hpp</text>
</a>
</g>
</g>
<!-- Node55&#45;&gt;Node62 -->
<g id="edge51" class="edge">
<title>Node55&#45;&gt;Node62</title>
<path fill="none" stroke="#191970" d="M556.8097,-282.9076C525.5718,-273.7488 470.6843,-257.6561 432.4352,-246.4417"/>
<polygon fill="#191970" stroke="#191970" points="433.1894,-243.0156 422.6086,-243.5606 431.2199,-249.7328 433.1894,-243.0156"/>
</g>
<!-- Node63 -->
<g id="node41" class="node">
<title>Node63</title>
<g id="a_node41"><a xlink:href="scopestore_8hpp.html" target="_top" xlink:title="alox/core/scopestore.hpp">
<polygon fill="#ffffff" stroke="#ff0000" points="657,-224.5 657,-243.5 783,-243.5 783,-224.5 657,-224.5"/>
<text text-anchor="middle" x="720" y="-231.5" font-family="Helvetica,sans-Serif" font-size="10.00" fill="#000000">alox/core/scopestore.hpp</text>
</a>
</g>
</g>
<!-- Node55&#45;&gt;Node63 -->
<g id="edge52" class="edge">
<title>Node55&#45;&gt;Node63</title>
<path fill="none" stroke="#191970" d="M604.895,-280.3733C627.5082,-271.2629 661.6542,-257.5062 686.8873,-247.3404"/>
<polygon fill="#191970" stroke="#191970" points="688.4493,-250.4845 696.4169,-243.5011 685.8334,-243.9917 688.4493,-250.4845"/>
</g>
<!-- Node12&#45;&gt;Node13 -->
<g id="edge30" class="edge">
<title>Node12&#45;&gt;Node13</title>
<path fill="none" stroke="#191970" d="M808.4029,-112.3636C795,-97.9373 767.6726,-70.839 739,-56 691.657,-31.4984 630.3262,-19.3878 593.409,-13.9288"/>
<polygon fill="#191970" stroke="#191970" points="593.6162,-10.4237 583.227,-12.5011 592.6441,-17.3559 593.6162,-10.4237"/>
</g>
<!-- Node50&#45;&gt;Node13 -->
<g id="edge38" class="edge">
<title>Node50&#45;&gt;Node13</title>
<path fill="none" stroke="#191970" d="M426.0207,-56.3733C454.7251,-46.5116 499.2758,-31.2059 529.2634,-20.9034"/>
<polygon fill="#191970" stroke="#191970" points="530.5107,-24.1757 538.8309,-17.6164 528.2362,-17.5555 530.5107,-24.1757"/>
</g>
<!-- Node51&#45;&gt;Node48 -->
<g id="edge39" class="edge">
<title>Node51&#45;&gt;Node48</title>
<path fill="none" stroke="#191970" d="M456.8961,-112.2455C471.918,-103.5731 494.1043,-90.7645 511.321,-80.825"/>
<polygon fill="#191970" stroke="#191970" points="513.3871,-83.6737 520.2975,-75.6427 509.8872,-77.6114 513.3871,-83.6737"/>
</g>
<!-- Node51&#45;&gt;Node50 -->
<g id="edge40" class="edge">
<title>Node51&#45;&gt;Node50</title>
<path fill="none" stroke="#191970" d="M432.6842,-112.2455C426.7821,-104.3761 418.3258,-93.101 411.2406,-83.6542"/>
<polygon fill="#191970" stroke="#191970" points="414.0321,-81.5427 405.232,-75.6427 408.432,-85.7427 414.0321,-81.5427"/>
</g>
<!-- Node52&#45;&gt;Node13 -->
<g id="edge41" class="edge">
<title>Node52&#45;&gt;Node13</title>
<path fill="none" stroke="#191970" d="M395.2598,-168.3241C364.5601,-147.0129 299.1646,-94.833 331,-56 355.6176,-25.9714 471.1981,-15.1546 528.5528,-11.5904"/>
<polygon fill="#191970" stroke="#191970" points="529.0974,-15.0647 538.8767,-10.9885 528.6899,-8.0766 529.0974,-15.0647"/>
</g>
<!-- Node52&#45;&gt;Node51 -->
<g id="edge42" class="edge">
<title>Node52&#45;&gt;Node51</title>
<path fill="none" stroke="#191970" d="M415.2256,-168.2455C419.3123,-160.617 425.1135,-149.7881 430.075,-140.5267"/>
<polygon fill="#191970" stroke="#191970" points="433.1972,-142.1103 434.8343,-131.6427 427.0268,-138.8047 433.1972,-142.1103"/>
</g>
<!-- Node56&#45;&gt;Node13 -->
<g id="edge53" class="edge">
<title>Node56&#45;&gt;Node13</title>
<path fill="none" stroke="#191970" d="M190.999,-224.4369C153.9473,-216.3317 108.3863,-203.5578 97,-188 91.7502,-180.827 92.481,-175.6545 97,-168 149.3862,-79.2669 202.832,-90.2965 300,-56 379.2263,-28.0362 478.2217,-16.561 528.4754,-12.2796"/>
<polygon fill="#191970" stroke="#191970" points="529.0384,-15.7456 538.7232,-11.4497 528.4732,-8.7684 529.0384,-15.7456"/>
</g>
<!-- Node56&#45;&gt;Node40 -->
<g id="edge54" class="edge">
<title>Node56&#45;&gt;Node40</title>
<path fill="none" stroke="#191970" d="M229.9811,-224.2455C219.7902,-215.9746 204.9638,-203.9416 192.9893,-194.2232"/>
<polygon fill="#191970" stroke="#191970" points="194.8514,-191.2268 184.8812,-187.6427 190.4402,-196.662 194.8514,-191.2268"/>
</g>
<!-- Node57&#45;&gt;Node48 -->
<g id="edge55" class="edge">
<title>Node57&#45;&gt;Node48</title>
<path fill="none" stroke="#191970" d="M611.3232,-112.2455C597.5144,-103.6534 577.1807,-91.0014 561.2708,-81.1018"/>
<polygon fill="#191970" stroke="#191970" points="562.8368,-77.954 552.4972,-75.6427 559.1387,-83.8974 562.8368,-77.954"/>
</g>
<!-- Node58&#45;&gt;Node1 -->
<g id="edge56" class="edge">
<title>Node58&#45;&gt;Node1</title>
<path fill="none" stroke="#191970" d="M117.2756,-243.5165C208.2512,-258.2319 391.5091,-286.2434 548,-300 934.4413,-333.9707 1403.1293,-343.2369 1551.5595,-345.4078"/>
<polygon fill="#191970" stroke="#191970" points="1551.6386,-348.9091 1561.6875,-345.552 1551.7384,-341.9099 1551.6386,-348.9091"/>
</g>
<!-- Node58&#45;&gt;Node45 -->
<g id="edge57" class="edge">
<title>Node58&#45;&gt;Node45</title>
<path fill="none" stroke="#191970" d="M55.1228,-224.2455C51.3487,-216.6973 46.0079,-206.0158 41.4099,-196.8197"/>
<polygon fill="#191970" stroke="#191970" points="44.424,-195.0217 36.8213,-187.6427 38.163,-198.1522 44.424,-195.0217"/>
</g>
<!-- Node62&#45;&gt;Node1 -->
<g id="edge58" class="edge">
<title>Node62&#45;&gt;Node1</title>
<path fill="none" stroke="#191970" d="M445.1409,-242.7342C448.1362,-243.1717 451.104,-243.5964 454,-244 656.6719,-272.2434 707.2797,-280.7226 911,-300 1151.1452,-322.7241 1439.4936,-338.1744 1551.383,-343.7229"/>
<polygon fill="#191970" stroke="#191970" points="1551.4925,-347.2325 1561.6526,-344.2289 1551.837,-340.241 1551.4925,-347.2325"/>
</g>
<!-- Node62&#45;&gt;Node13 -->
<g id="edge59" class="edge">
<title>Node62&#45;&gt;Node13</title>
<path fill="none" stroke="#191970" d="M360.0542,-224.4983C342.9946,-217.3713 323.0676,-205.7417 313,-188 295.7854,-157.6635 230.9357,-156.7654 319,-56 346.0796,-25.0149 469.2028,-14.6201 528.667,-11.3685"/>
<polygon fill="#191970" stroke="#191970" points="528.847,-14.864 538.6549,-10.8572 528.489,-7.8732 528.847,-14.864"/>
</g>
<!-- Node63&#45;&gt;Node1 -->
<g id="edge60" class="edge">
<title>Node63&#45;&gt;Node1</title>
<path fill="none" stroke="#191970" d="M783.0304,-242.1995C787.7575,-242.8103 792.4541,-243.4157 797,-244 1083.4343,-280.8142 1427.5096,-324.3406 1551.5428,-340.0088"/>
<polygon fill="#191970" stroke="#191970" points="1551.4605,-343.5261 1561.8203,-341.3069 1552.3377,-336.5813 1551.4605,-343.5261"/>
</g>
</g>
</svg>
