<?xml version="1.0" encoding="UTF-8" standalone="no"?>
<!DOCTYPE svg PUBLIC "-//W3C//DTD SVG 1.1//EN"
 "http://www.w3.org/Graphics/SVG/1.1/DTD/svg11.dtd">
<!-- Generated by graphviz version 2.38.0 (20140413.2041)
 -->
<!-- Title: lox.hpp Pages: 1 -->
<svg width="1647pt" height="364pt"
 viewBox="0.00 0.00 1646.93 364.00" xmlns="http://www.w3.org/2000/svg" xmlns:xlink="http://www.w3.org/1999/xlink">
<g id="graph0" class="graph" transform="scale(1 1) rotate(0) translate(4 360)">
<title>lox.hpp</title>
<polygon fill="white" stroke="none" points="-4,4 -4,-360 1642.93,-360 1642.93,4 -4,4"/>
<!-- Node1 -->
<g id="node1" class="node"><title>Node1</title>
<polygon fill="#bfbfbf" stroke="black" points="523.407,-336.5 523.407,-355.5 571.407,-355.5 571.407,-336.5 523.407,-336.5"/>
<text text-anchor="middle" x="547.407" y="-343.5" font-family="Helvetica,sans-Serif" font-size="10.00">lox.hpp</text>
</g>
<!-- Node2 -->
<g id="node2" class="node"><title>Node2</title>
<g id="a_node2"><a xlink:href="threadlock_8hpp.html" target="_top" xlink:title="alib/threads/threadlock.hpp">
<polygon fill="white" stroke="black" points="95.4075,-280.5 95.4075,-299.5 229.407,-299.5 229.407,-280.5 95.4075,-280.5"/>
<text text-anchor="middle" x="162.407" y="-287.5" font-family="Helvetica,sans-Serif" font-size="10.00">alib/threads/threadlock.hpp</text>
</a>
</g>
</g>
<!-- Node1&#45;&gt;Node2 -->
<g id="edge1" class="edge"><title>Node1&#45;&gt;Node2</title>
<path fill="none" stroke="midnightblue" d="M523.324,-341.622C466.318,-333.626 321.324,-313.29 233.44,-300.963"/>
<polygon fill="midnightblue" stroke="midnightblue" points="233.668,-297.461 223.279,-299.538 232.696,-304.393 233.668,-297.461"/>
</g>
<!-- Node21 -->
<g id="node21" class="node"><title>Node21</title>
<polygon fill="white" stroke="#bfbfbf" points="348.907,-168.5 348.907,-187.5 383.907,-187.5 383.907,-168.5 348.907,-168.5"/>
<text text-anchor="middle" x="366.407" y="-175.5" font-family="Helvetica,sans-Serif" font-size="10.00">map</text>
</g>
<!-- Node1&#45;&gt;Node21 -->
<g id="edge51" class="edge"><title>Node1&#45;&gt;Node21</title>
<path fill="none" stroke="midnightblue" d="M523.332,-340.084C499.061,-334.103 461.671,-321.968 436.407,-300 403.558,-271.435 382.375,-223.494 372.638,-197.354"/>
<polygon fill="midnightblue" stroke="midnightblue" points="375.818,-195.852 369.165,-187.606 369.224,-198.201 375.818,-195.852"/>
</g>
<!-- Node25 -->
<g id="node25" class="node"><title>Node25</title>
<g id="a_node25"><a xlink:href="callerinfo_8hpp.html" target="_top" xlink:title="alox/core/callerinfo.hpp">
<polygon fill="white" stroke="black" points="444.907,-280.5 444.907,-299.5 561.907,-299.5 561.907,-280.5 444.907,-280.5"/>
<text text-anchor="middle" x="503.407" y="-287.5" font-family="Helvetica,sans-Serif" font-size="10.00">alox/core/callerinfo.hpp</text>
</a>
</g>
</g>
<!-- Node1&#45;&gt;Node25 -->
<g id="edge34" class="edge"><title>Node1&#45;&gt;Node25</title>
<path fill="none" stroke="midnightblue" d="M540.142,-336.083C533.863,-328.377 524.62,-317.033 516.977,-307.653"/>
<polygon fill="midnightblue" stroke="midnightblue" points="519.568,-305.293 510.538,-299.751 514.141,-309.714 519.568,-305.293"/>
</g>
<!-- Node33 -->
<g id="node33" class="node"><title>Node33</title>
<g id="a_node33"><a xlink:href="domain_8hpp.html" target="_top" xlink:title="alox/core/domain.hpp">
<polygon fill="white" stroke="black" points="621.407,-280.5 621.407,-299.5 731.407,-299.5 731.407,-280.5 621.407,-280.5"/>
<text text-anchor="middle" x="676.407" y="-287.5" font-family="Helvetica,sans-Serif" font-size="10.00">alox/core/domain.hpp</text>
</a>
</g>
</g>
<!-- Node1&#45;&gt;Node33 -->
<g id="edge47" class="edge"><title>Node1&#45;&gt;Node33</title>
<path fill="none" stroke="midnightblue" d="M567.848,-336.444C589.078,-327.557 622.506,-313.563 646.662,-303.451"/>
<polygon fill="midnightblue" stroke="midnightblue" points="648.19,-306.606 656.063,-299.516 645.487,-300.149 648.19,-306.606"/>
</g>
<!-- Node34 -->
<g id="node34" class="node"><title>Node34</title>
<polygon fill="white" stroke="#bfbfbf" points="737.407,-224.5 737.407,-243.5 781.407,-243.5 781.407,-224.5 737.407,-224.5"/>
<text text-anchor="middle" x="759.407" y="-231.5" font-family="Helvetica,sans-Serif" font-size="10.00">vector</text>
</g>
<!-- Node1&#45;&gt;Node34 -->
<g id="edge50" class="edge"><title>Node1&#45;&gt;Node34</title>
<path fill="none" stroke="midnightblue" d="M571.62,-342.396C617.829,-336.953 716.165,-322.937 740.407,-300 752.941,-288.141 757.349,-268.516 758.828,-253.927"/>
<polygon fill="midnightblue" stroke="midnightblue" points="762.346,-253.752 759.486,-243.551 755.36,-253.309 762.346,-253.752"/>
</g>
<!-- Node3 -->
<g id="node3" class="node"><title>Node3</title>
<g id="a_node3"><a xlink:href="alib_8hpp.html" target="_top" xlink:title="alib/alib.hpp">
<polygon fill="white" stroke="black" points="748.407,-112.5 748.407,-131.5 816.407,-131.5 816.407,-112.5 748.407,-112.5"/>
<text text-anchor="middle" x="782.407" y="-119.5" font-family="Helvetica,sans-Serif" font-size="10.00">alib/alib.hpp</text>
</a>
</g>
</g>
<!-- Node2&#45;&gt;Node3 -->
<g id="edge2" class="edge"><title>Node2&#45;&gt;Node3</title>
<path fill="none" stroke="midnightblue" d="M95.1893,-285.486C66.0979,-280.214 34.6019,-268.647 16.4075,-244 -3.65344,-216.825 -6.76609,-192.575 16.4075,-168 41.2833,-141.62 578.024,-127.56 737.875,-123.947"/>
<polygon fill="midnightblue" stroke="midnightblue" points="738.366,-127.437 748.286,-123.714 738.21,-120.439 738.366,-127.437"/>
</g>
<!-- Node19 -->
<g id="node19" class="node"><title>Node19</title>
<g id="a_node19"><a xlink:href="ownable_8hpp.html" target="_top" xlink:title="alib/core/ownable.hpp">
<polygon fill="white" stroke="black" points="25.9075,-224.5 25.9075,-243.5 136.907,-243.5 136.907,-224.5 25.9075,-224.5"/>
<text text-anchor="middle" x="81.4075" y="-231.5" font-family="Helvetica,sans-Serif" font-size="10.00">alib/core/ownable.hpp</text>
</a>
</g>
</g>
<!-- Node2&#45;&gt;Node19 -->
<g id="edge25" class="edge"><title>Node2&#45;&gt;Node19</title>
<path fill="none" stroke="midnightblue" d="M149.393,-280.324C136.876,-271.979 117.726,-259.212 102.936,-249.352"/>
<polygon fill="midnightblue" stroke="midnightblue" points="104.651,-246.289 94.3892,-243.655 100.768,-252.114 104.651,-246.289"/>
</g>
<!-- Node20 -->
<g id="node20" class="node"><title>Node20</title>
<g id="a_node20"><a xlink:href="thread_8hpp.html" target="_top" xlink:title="thread.hpp">
<polygon fill="white" stroke="black" points="211.407,-224.5 211.407,-243.5 273.407,-243.5 273.407,-224.5 211.407,-224.5"/>
<text text-anchor="middle" x="242.407" y="-231.5" font-family="Helvetica,sans-Serif" font-size="10.00">thread.hpp</text>
</a>
</g>
</g>
<!-- Node2&#45;&gt;Node20 -->
<g id="edge27" class="edge"><title>Node2&#45;&gt;Node20</title>
<path fill="none" stroke="midnightblue" d="M175.261,-280.324C187.624,-271.979 206.538,-259.212 221.145,-249.352"/>
<polygon fill="midnightblue" stroke="midnightblue" points="223.256,-252.15 229.586,-243.655 219.339,-246.348 223.256,-252.15"/>
</g>
<!-- Node4 -->
<g id="node4" class="node"><title>Node4</title>
<g id="a_node4"><a xlink:href="symbols_8hpp.html" target="_top" xlink:title="alib/core/symbols.hpp">
<polygon fill="white" stroke="black" points="1388.41,-56.5 1388.41,-75.5 1500.41,-75.5 1500.41,-56.5 1388.41,-56.5"/>
<text text-anchor="middle" x="1444.41" y="-63.5" font-family="Helvetica,sans-Serif" font-size="10.00">alib/core/symbols.hpp</text>
</a>
</g>
</g>
<!-- Node3&#45;&gt;Node4 -->
<g id="edge3" class="edge"><title>Node3&#45;&gt;Node4</title>
<path fill="none" stroke="midnightblue" d="M816.467,-119.179C906.418,-114.209 1157.96,-99.2852 1377.94,-76.0955"/>
<polygon fill="midnightblue" stroke="midnightblue" points="1378.49,-79.5573 1388.06,-75.0204 1377.75,-72.5964 1378.49,-79.5573"/>
</g>
<!-- Node5 -->
<g id="node5" class="node"><title>Node5</title>
<g id="a_node5"><a xlink:href="macros_8hpp.html" target="_top" xlink:title="alib/core/macros.hpp">
<polygon fill="white" stroke="black" points="1517.91,-56.5 1517.91,-75.5 1624.91,-75.5 1624.91,-56.5 1517.91,-56.5"/>
<text text-anchor="middle" x="1571.41" y="-63.5" font-family="Helvetica,sans-Serif" font-size="10.00">alib/core/macros.hpp</text>
</a>
</g>
</g>
<!-- Node3&#45;&gt;Node5 -->
<g id="edge4" class="edge"><title>Node3&#45;&gt;Node5</title>
<path fill="none" stroke="midnightblue" d="M816.556,-119.886C919.425,-116.318 1235.52,-103.806 1507.61,-76.1102"/>
<polygon fill="midnightblue" stroke="midnightblue" points="1508.08,-79.5798 1517.67,-75.0764 1507.37,-72.6164 1508.08,-79.5798"/>
</g>
<!-- Node6 -->
<g id="node6" class="node"><title>Node6</title>
<polygon fill="white" stroke="#bfbfbf" points="186.407,-56.5 186.407,-75.5 238.407,-75.5 238.407,-56.5 186.407,-56.5"/>
<text text-anchor="middle" x="212.407" y="-63.5" font-family="Helvetica,sans-Serif" font-size="10.00">assert.h</text>
</g>
<!-- Node3&#45;&gt;Node6 -->
<g id="edge5" class="edge"><title>Node3&#45;&gt;Node6</title>
<path fill="none" stroke="midnightblue" d="M748.359,-120.115C664.754,-117.522 442.65,-108.088 248.766,-75.9563"/>
<polygon fill="midnightblue" stroke="midnightblue" points="249.121,-72.467 238.679,-74.2596 247.96,-79.37 249.121,-72.467"/>
</g>
<!-- Node7 -->
<g id="node7" class="node"><title>Node7</title>
<polygon fill="white" stroke="#bfbfbf" points="256.907,-56.5 256.907,-75.5 305.907,-75.5 305.907,-56.5 256.907,-56.5"/>
<text text-anchor="middle" x="281.407" y="-63.5" font-family="Helvetica,sans-Serif" font-size="10.00">cstddef</text>
</g>
<!-- Node3&#45;&gt;Node7 -->
<g id="edge6" class="edge"><title>Node3&#45;&gt;Node7</title>
<path fill="none" stroke="midnightblue" d="M748.365,-119.715C672.31,-116.42 482.785,-105.856 316.102,-76.0443"/>
<polygon fill="midnightblue" stroke="midnightblue" points="316.634,-72.5837 306.17,-74.2397 315.383,-79.4709 316.634,-72.5837"/>
</g>
<!-- Node8 -->
<g id="node8" class="node"><title>Node8</title>
<polygon fill="white" stroke="#bfbfbf" points="323.907,-56.5 323.907,-75.5 386.907,-75.5 386.907,-56.5 323.907,-56.5"/>
<text text-anchor="middle" x="355.407" y="-63.5" font-family="Helvetica,sans-Serif" font-size="10.00">windows.h</text>
</g>
<!-- Node3&#45;&gt;Node8 -->
<g id="edge7" class="edge"><title>Node3&#45;&gt;Node8</title>
<path fill="none" stroke="midnightblue" d="M748.329,-118.255C682.365,-112.681 532.491,-98.7424 397.341,-76.1865"/>
<polygon fill="midnightblue" stroke="midnightblue" points="397.667,-72.6921 387.224,-74.4769 396.501,-79.5942 397.667,-72.6921"/>
</g>
<!-- Node9 -->
<g id="node9" class="node"><title>Node9</title>
<polygon fill="white" stroke="#bfbfbf" points="404.907,-56.5 404.907,-75.5 453.907,-75.5 453.907,-56.5 404.907,-56.5"/>
<text text-anchor="middle" x="429.407" y="-63.5" font-family="Helvetica,sans-Serif" font-size="10.00">stdint.h</text>
</g>
<!-- Node3&#45;&gt;Node9 -->
<g id="edge8" class="edge"><title>Node3&#45;&gt;Node9</title>
<path fill="none" stroke="midnightblue" d="M748.19,-117.522C691.259,-111.443 573.369,-97.6198 464.08,-75.9157"/>
<polygon fill="midnightblue" stroke="midnightblue" points="464.704,-72.4712 454.21,-73.9291 463.323,-79.3336 464.704,-72.4712"/>
</g>
<!-- Node10 -->
<g id="node10" class="node"><title>Node10</title>
<polygon fill="white" stroke="#bfbfbf" points="472.407,-56.5 472.407,-75.5 534.407,-75.5 534.407,-56.5 472.407,-56.5"/>
<text text-anchor="middle" x="503.407" y="-63.5" font-family="Helvetica,sans-Serif" font-size="10.00">type_traits</text>
</g>
<!-- Node3&#45;&gt;Node10 -->
<g id="edge9" class="edge"><title>Node3&#45;&gt;Node10</title>
<path fill="none" stroke="midnightblue" d="M748.296,-114.967C703.761,-107.006 623.144,-92.3034 544.857,-76.2465"/>
<polygon fill="midnightblue" stroke="midnightblue" points="545.328,-72.7702 534.828,-74.1793 543.915,-79.6261 545.328,-72.7702"/>
</g>
<!-- Node11 -->
<g id="node11" class="node"><title>Node11</title>
<polygon fill="white" stroke="#bfbfbf" points="552.407,-56.5 552.407,-75.5 592.407,-75.5 592.407,-56.5 552.407,-56.5"/>
<text text-anchor="middle" x="572.407" y="-63.5" font-family="Helvetica,sans-Serif" font-size="10.00">utility</text>
</g>
<!-- Node3&#45;&gt;Node11 -->
<g id="edge10" class="edge"><title>Node3&#45;&gt;Node11</title>
<path fill="none" stroke="midnightblue" d="M748.228,-113.119C713.718,-105.025 658.679,-91.7484 602.418,-76.1691"/>
<polygon fill="midnightblue" stroke="midnightblue" points="603.218,-72.7586 592.645,-73.4426 601.337,-79.5012 603.218,-72.7586"/>
</g>
<!-- Node12 -->
<g id="node12" class="node"><title>Node12</title>
<g id="a_node12"><a xlink:href="enums_8hpp.html" target="_top" xlink:title="alib/core/enums.hpp">
<polygon fill="white" stroke="black" points="610.407,-56.5 610.407,-75.5 714.407,-75.5 714.407,-56.5 610.407,-56.5"/>
<text text-anchor="middle" x="662.407" y="-63.5" font-family="Helvetica,sans-Serif" font-size="10.00">alib/core/enums.hpp</text>
</a>
</g>
</g>
<!-- Node3&#45;&gt;Node12 -->
<g id="edge11" class="edge"><title>Node3&#45;&gt;Node12</title>
<path fill="none" stroke="midnightblue" d="M758.304,-112.444C736.992,-103.715 706.387,-90.0591 685.416,-79.9943"/>
<polygon fill="midnightblue" stroke="midnightblue" points="686.774,-76.7624 676.253,-75.5164 683.701,-83.0517 686.774,-76.7624"/>
</g>
<!-- Node13 -->
<g id="node13" class="node"><title>Node13</title>
<g id="a_node13"><a xlink:href="report_8hpp.html" target="_top" xlink:title="alib/core/report.hpp">
<polygon fill="white" stroke="black" points="732.407,-56.5 732.407,-75.5 832.407,-75.5 832.407,-56.5 732.407,-56.5"/>
<text text-anchor="middle" x="782.407" y="-63.5" font-family="Helvetica,sans-Serif" font-size="10.00">alib/core/report.hpp</text>
</a>
</g>
</g>
<!-- Node3&#45;&gt;Node13 -->
<g id="edge13" class="edge"><title>Node3&#45;&gt;Node13</title>
<path fill="none" stroke="midnightblue" d="M777.241,-112.083C775.732,-104.927 775.301,-94.6353 775.95,-85.6911"/>
<polygon fill="midnightblue" stroke="midnightblue" points="779.423,-86.1262 777.276,-75.7511 772.484,-85.2002 779.423,-86.1262"/>
</g>
<!-- Node14 -->
<g id="node14" class="node"><title>Node14</title>
<g id="a_node14"><a xlink:href="cstring_8hpp.html" target="_top" xlink:title="alib/strings/cstring.hpp">
<polygon fill="white" stroke="red" points="850.907,-56.5 850.907,-75.5 965.907,-75.5 965.907,-56.5 850.907,-56.5"/>
<text text-anchor="middle" x="908.407" y="-63.5" font-family="Helvetica,sans-Serif" font-size="10.00">alib/strings/cstring.hpp</text>
</a>
</g>
</g>
<!-- Node3&#45;&gt;Node14 -->
<g id="edge15" class="edge"><title>Node3&#45;&gt;Node14</title>
<path fill="none" stroke="midnightblue" d="M797.284,-112.444C816.154,-103.517 848.777,-89.4387 873.898,-79.3168"/>
<polygon fill="midnightblue" stroke="midnightblue" points="875.457,-82.4636 883.456,-75.5164 872.87,-75.959 875.457,-82.4636"/>
</g>
<!-- Node15 -->
<g id="node15" class="node"><title>Node15</title>
<g id="a_node15"><a xlink:href="as_8hpp.html" target="_top" xlink:title="alib/strings/as.hpp">
<polygon fill="white" stroke="red" points="984.407,-56.5 984.407,-75.5 1080.41,-75.5 1080.41,-56.5 984.407,-56.5"/>
<text text-anchor="middle" x="1032.41" y="-63.5" font-family="Helvetica,sans-Serif" font-size="10.00">alib/strings/as.hpp</text>
</a>
</g>
</g>
<!-- Node3&#45;&gt;Node15 -->
<g id="edge17" class="edge"><title>Node3&#45;&gt;Node15</title>
<path fill="none" stroke="midnightblue" d="M816.669,-112.503C858.322,-103.055 928.886,-87.7841 977.978,-77.5716"/>
<polygon fill="midnightblue" stroke="midnightblue" points="978.72,-80.9922 987.803,-75.5364 977.3,-74.1378 978.72,-80.9922"/>
</g>
<!-- Node16 -->
<g id="node16" class="node"><title>Node16</title>
<g id="a_node16"><a xlink:href="ns__aworx_8hpp.html" target="_top" xlink:title="alib/core/ns_aworx.hpp">
<polygon fill="white" stroke="black" points="1098.91,-56.5 1098.91,-75.5 1215.91,-75.5 1215.91,-56.5 1098.91,-56.5"/>
<text text-anchor="middle" x="1157.41" y="-63.5" font-family="Helvetica,sans-Serif" font-size="10.00">alib/core/ns_aworx.hpp</text>
</a>
</g>
</g>
<!-- Node3&#45;&gt;Node16 -->
<g id="edge19" class="edge"><title>Node3&#45;&gt;Node16</title>
<path fill="none" stroke="midnightblue" d="M816.485,-115.475C877.994,-106.195 1008.28,-87.3899 1088.83,-76.1244"/>
<polygon fill="midnightblue" stroke="midnightblue" points="1089.47,-79.57 1098.89,-74.7216 1088.5,-72.6371 1089.47,-79.57"/>
</g>
<!-- Node17 -->
<g id="node17" class="node"><title>Node17</title>
<g id="a_node17"><a xlink:href="namespace_8hpp.html" target="_top" xlink:title="alib/strings/namespace.hpp">
<polygon fill="white" stroke="red" points="1234.41,-56.5 1234.41,-75.5 1370.41,-75.5 1370.41,-56.5 1234.41,-56.5"/>
<text text-anchor="middle" x="1302.41" y="-63.5" font-family="Helvetica,sans-Serif" font-size="10.00">alib/strings/namespace.hpp</text>
</a>
</g>
</g>
<!-- Node3&#45;&gt;Node17 -->
<g id="edge21" class="edge"><title>Node3&#45;&gt;Node17</title>
<path fill="none" stroke="midnightblue" d="M816.457,-117.225C889.788,-109.73 1067.32,-92.284 1216.41,-76 1218.92,-75.7251 1221.49,-75.442 1224.08,-75.1533"/>
<polygon fill="midnightblue" stroke="midnightblue" points="1224.64,-78.6126 1234.19,-74.0185 1223.86,-71.6563 1224.64,-78.6126"/>
</g>
<!-- Node12&#45;&gt;Node3 -->
<g id="edge12" class="edge"><title>Node12&#45;&gt;Node3</title>
<path fill="none" stroke="midnightblue" d="M686.75,-75.6545C707.95,-84.3458 738.217,-97.8492 759.1,-107.862"/>
<polygon fill="midnightblue" stroke="midnightblue" points="757.72,-111.084 768.242,-112.324 760.79,-104.793 757.72,-111.084"/>
</g>
<!-- Node13&#45;&gt;Node3 -->
<g id="edge14" class="edge"><title>Node13&#45;&gt;Node3</title>
<path fill="none" stroke="midnightblue" d="M787.538,-75.7511C789.065,-82.8579 789.512,-93.1357 788.88,-102.101"/>
<polygon fill="midnightblue" stroke="midnightblue" points="785.401,-101.713 787.574,-112.083 792.342,-102.622 785.401,-101.713"/>
</g>
<!-- Node14&#45;&gt;Node3 -->
<g id="edge16" class="edge"><title>Node14&#45;&gt;Node3</title>
<path fill="none" stroke="midnightblue" d="M893.616,-75.5164C874.787,-84.4274 842.174,-98.504 817.03,-108.638"/>
<polygon fill="midnightblue" stroke="midnightblue" points="815.46,-105.495 807.461,-112.444 818.047,-112 815.46,-105.495"/>
</g>
<!-- Node15&#45;&gt;Node3 -->
<g id="edge18" class="edge"><title>Node15&#45;&gt;Node3</title>
<path fill="none" stroke="midnightblue" d="M998.006,-75.5285C953.341,-85.6576 875.599,-102.449 826.616,-112.545"/>
<polygon fill="midnightblue" stroke="midnightblue" points="825.716,-109.157 816.622,-114.593 827.121,-116.014 825.716,-109.157"/>
</g>
<!-- Node16&#45;&gt;Node3 -->
<g id="edge20" class="edge"><title>Node16&#45;&gt;Node3</title>
<path fill="none" stroke="midnightblue" d="M1103.29,-75.5243C1028.7,-86.6178 895.893,-105.707 826.794,-115.237"/>
<polygon fill="midnightblue" stroke="midnightblue" points="826.103,-111.799 816.672,-116.627 827.056,-118.734 826.103,-111.799"/>
</g>
<!-- Node17&#45;&gt;Node3 -->
<g id="edge22" class="edge"><title>Node17&#45;&gt;Node3</title>
<path fill="none" stroke="midnightblue" d="M1238.86,-75.5099C1237.37,-75.6757 1235.88,-75.8392 1234.41,-76 1085.48,-92.2671 908.156,-109.694 826.876,-117.202"/>
<polygon fill="midnightblue" stroke="midnightblue" points="826.158,-113.753 816.52,-118.152 826.798,-120.724 826.158,-113.753"/>
</g>
<!-- Node18 -->
<g id="node18" class="node"><title>Node18</title>
<g id="a_node18"><a xlink:href="asprealloc_8hpp.html" target="_top" xlink:title="alib/strings/asprealloc.hpp">
<polygon fill="white" stroke="black" points="1237.41,-0.5 1237.41,-19.5 1367.41,-19.5 1367.41,-0.5 1237.41,-0.5"/>
<text text-anchor="middle" x="1302.41" y="-7.5" font-family="Helvetica,sans-Serif" font-size="10.00">alib/strings/asprealloc.hpp</text>
</a>
</g>
</g>
<!-- Node17&#45;&gt;Node18 -->
<g id="edge23" class="edge"><title>Node17&#45;&gt;Node18</title>
<path fill="none" stroke="midnightblue" d="M1302.41,-56.083C1302.41,-49.0059 1302.41,-38.8611 1302.41,-29.9865"/>
<polygon fill="midnightblue" stroke="midnightblue" points="1305.91,-29.751 1302.41,-19.7511 1298.91,-29.7511 1305.91,-29.751"/>
</g>
<!-- Node18&#45;&gt;Node3 -->
<g id="edge24" class="edge"><title>Node18&#45;&gt;Node3</title>
<path fill="none" stroke="midnightblue" d="M1367.7,-10.134C1454.38,-10.5427 1600.49,-17.1781 1634.41,-56 1640.26,-62.6942 1640.52,-69.551 1634.41,-76 1606.39,-105.539 997.875,-117.534 826.794,-120.33"/>
<polygon fill="midnightblue" stroke="midnightblue" points="826.575,-116.833 816.633,-120.493 826.688,-123.832 826.575,-116.833"/>
</g>
<!-- Node19&#45;&gt;Node3 -->
<g id="edge26" class="edge"><title>Node19&#45;&gt;Node3</title>
<path fill="none" stroke="midnightblue" d="M64.6696,-224.374C42.1755,-211.721 7.02009,-187.513 25.4075,-168 49.9554,-141.949 579.233,-127.682 737.864,-123.98"/>
<polygon fill="midnightblue" stroke="midnightblue" points="738.285,-127.471 748.201,-123.741 738.123,-120.473 738.285,-127.471"/>
</g>
<!-- Node20&#45;&gt;Node3 -->
<g id="edge28" class="edge"><title>Node20&#45;&gt;Node3</title>
<path fill="none" stroke="midnightblue" d="M253.796,-224.333C275.217,-208.208 321.003,-174.631 339.407,-168 412.036,-141.833 640.976,-129.106 738.124,-124.774"/>
<polygon fill="midnightblue" stroke="midnightblue" points="738.366,-128.267 748.204,-124.334 738.061,-121.274 738.366,-128.267"/>
</g>
<!-- Node20&#45;&gt;Node18 -->
<g id="edge29" class="edge"><title>Node20&#45;&gt;Node18</title>
<path fill="none" stroke="midnightblue" d="M220.599,-224.447C205.463,-217.221 186.453,-205.264 177.407,-188 150.18,-136.034 136.761,-98.3045 177.407,-56 213.747,-18.1778 980.188,-12.1447 1226.74,-11.1825"/>
<polygon fill="midnightblue" stroke="midnightblue" points="1227.05,-14.6815 1237.04,-11.1441 1227.02,-7.68155 1227.05,-14.6815"/>
</g>
<!-- Node20&#45;&gt;Node21 -->
<g id="edge30" class="edge"><title>Node20&#45;&gt;Node21</title>
<path fill="none" stroke="midnightblue" d="M262.056,-224.444C282.97,-215.336 316.199,-200.865 339.529,-190.705"/>
<polygon fill="midnightblue" stroke="midnightblue" points="341.085,-193.845 348.856,-186.643 338.29,-187.427 341.085,-193.845"/>
</g>
<!-- Node22 -->
<g id="node22" class="node"><title>Node22</title>
<polygon fill="white" stroke="#bfbfbf" points="248.407,-168.5 248.407,-187.5 292.407,-187.5 292.407,-168.5 248.407,-168.5"/>
<text text-anchor="middle" x="270.407" y="-175.5" font-family="Helvetica,sans-Serif" font-size="10.00">mutex</text>
</g>
<!-- Node20&#45;&gt;Node22 -->
<g id="edge31" class="edge"><title>Node20&#45;&gt;Node22</title>
<path fill="none" stroke="midnightblue" d="M247.031,-224.083C250.864,-216.691 256.432,-205.953 261.172,-196.811"/>
<polygon fill="midnightblue" stroke="midnightblue" points="264.374,-198.24 265.87,-187.751 258.159,-195.018 264.374,-198.24"/>
</g>
<!-- Node23 -->
<g id="node23" class="node"><title>Node23</title>
<polygon fill="white" stroke="#bfbfbf" points="34.9075,-168.5 34.9075,-187.5 129.907,-187.5 129.907,-168.5 34.9075,-168.5"/>
<text text-anchor="middle" x="82.4075" y="-175.5" font-family="Helvetica,sans-Serif" font-size="10.00">condition_variable</text>
</g>
<!-- Node20&#45;&gt;Node23 -->
<g id="edge32" class="edge"><title>Node20&#45;&gt;Node23</title>
<path fill="none" stroke="midnightblue" d="M217.055,-224.444C190.138,-215.359 147.411,-200.939 117.32,-190.783"/>
<polygon fill="midnightblue" stroke="midnightblue" points="118.236,-187.398 107.641,-187.516 115.997,-194.031 118.236,-187.398"/>
</g>
<!-- Node24 -->
<g id="node24" class="node"><title>Node24</title>
<polygon fill="white" stroke="#bfbfbf" points="186.407,-168.5 186.407,-187.5 230.407,-187.5 230.407,-168.5 186.407,-168.5"/>
<text text-anchor="middle" x="208.407" y="-175.5" font-family="Helvetica,sans-Serif" font-size="10.00">thread</text>
</g>
<!-- Node20&#45;&gt;Node24 -->
<g id="edge33" class="edge"><title>Node20&#45;&gt;Node24</title>
<path fill="none" stroke="midnightblue" d="M236.793,-224.083C232.04,-216.534 225.089,-205.495 219.256,-196.23"/>
<polygon fill="midnightblue" stroke="midnightblue" points="222.207,-194.349 213.917,-187.751 216.284,-198.078 222.207,-194.349"/>
</g>
<!-- Node25&#45;&gt;Node20 -->
<g id="edge45" class="edge"><title>Node25&#45;&gt;Node20</title>
<path fill="none" stroke="midnightblue" d="M462.051,-280.444C413.204,-270.337 332.439,-253.627 283.644,-243.532"/>
<polygon fill="midnightblue" stroke="midnightblue" points="284.242,-240.081 273.74,-241.483 282.824,-246.936 284.242,-240.081"/>
</g>
<!-- Node25&#45;&gt;Node21 -->
<g id="edge46" class="edge"><title>Node25&#45;&gt;Node21</title>
<path fill="none" stroke="midnightblue" d="M492.444,-280.419C480.941,-271.397 462.35,-256.768 446.407,-244 425.312,-227.104 401.263,-207.52 385.088,-194.301"/>
<polygon fill="midnightblue" stroke="midnightblue" points="386.937,-191.292 376.98,-187.669 382.505,-196.71 386.937,-191.292"/>
</g>
<!-- Node26 -->
<g id="node26" class="node"><title>Node26</title>
<g id="a_node26"><a xlink:href="alox_8hpp.html" target="_top" xlink:title="alox/alox.hpp">
<polygon fill="white" stroke="black" points="645.407,-224.5 645.407,-243.5 719.407,-243.5 719.407,-224.5 645.407,-224.5"/>
<text text-anchor="middle" x="682.407" y="-231.5" font-family="Helvetica,sans-Serif" font-size="10.00">alox/alox.hpp</text>
</a>
</g>
</g>
<!-- Node25&#45;&gt;Node26 -->
<g id="edge35" class="edge"><title>Node25&#45;&gt;Node26</title>
<path fill="none" stroke="midnightblue" d="M531.771,-280.444C562.146,-271.28 610.517,-256.688 644.223,-246.519"/>
<polygon fill="midnightblue" stroke="midnightblue" points="645.614,-249.756 654.177,-243.516 643.592,-243.054 645.614,-249.756"/>
</g>
<!-- Node30 -->
<g id="node30" class="node"><title>Node30</title>
<g id="a_node30"><a xlink:href="ticks_8hpp.html" target="_top" xlink:title="alib/time/ticks.hpp">
<polygon fill="white" stroke="black" points="455.407,-224.5 455.407,-243.5 551.407,-243.5 551.407,-224.5 455.407,-224.5"/>
<text text-anchor="middle" x="503.407" y="-231.5" font-family="Helvetica,sans-Serif" font-size="10.00">alib/time/ticks.hpp</text>
</a>
</g>
</g>
<!-- Node25&#45;&gt;Node30 -->
<g id="edge41" class="edge"><title>Node25&#45;&gt;Node30</title>
<path fill="none" stroke="midnightblue" d="M503.407,-280.083C503.407,-273.006 503.407,-262.861 503.407,-253.986"/>
<polygon fill="midnightblue" stroke="midnightblue" points="506.908,-253.751 503.407,-243.751 499.908,-253.751 506.908,-253.751"/>
</g>
<!-- Node26&#45;&gt;Node1 -->
<g id="edge40" class="edge"><title>Node26&#45;&gt;Node1</title>
<path fill="none" stroke="midnightblue" d="M667.022,-243.598C652.395,-252.066 630.068,-265.766 612.407,-280 593.68,-295.094 574.473,-314.945 561.843,-328.72"/>
<polygon fill="midnightblue" stroke="midnightblue" points="558.998,-326.648 554.892,-336.415 564.193,-331.341 558.998,-326.648"/>
</g>
<!-- Node26&#45;&gt;Node3 -->
<g id="edge36" class="edge"><title>Node26&#45;&gt;Node3</title>
<path fill="none" stroke="midnightblue" d="M719.563,-225.711C783.842,-213.09 909.028,-188.461 909.407,-188 935.841,-155.812 872.748,-137.864 826.339,-129.337"/>
<polygon fill="midnightblue" stroke="midnightblue" points="826.887,-125.88 816.434,-127.611 825.685,-132.776 826.887,-125.88"/>
</g>
<!-- Node27 -->
<g id="node27" class="node"><title>Node27</title>
<g id="a_node27"><a xlink:href="alox__symbols_8hpp.html" target="_top" xlink:title="internals/alox_symbols.hpp">
<polygon fill="white" stroke="black" points="615.907,-168.5 615.907,-187.5 750.907,-187.5 750.907,-168.5 615.907,-168.5"/>
<text text-anchor="middle" x="683.407" y="-175.5" font-family="Helvetica,sans-Serif" font-size="10.00">internals/alox_symbols.hpp</text>
</a>
</g>
</g>
<!-- Node26&#45;&gt;Node27 -->
<g id="edge37" class="edge"><title>Node26&#45;&gt;Node27</title>
<path fill="none" stroke="midnightblue" d="M682.573,-224.083C682.704,-217.006 682.892,-206.861 683.056,-197.986"/>
<polygon fill="midnightblue" stroke="midnightblue" points="686.56,-197.814 683.245,-187.751 679.561,-197.685 686.56,-197.814"/>
</g>
<!-- Node28 -->
<g id="node28" class="node"><title>Node28</title>
<g id="a_node28"><a xlink:href="alox__macros_8hpp.html" target="_top" xlink:title="internals/alox_macros.hpp">
<polygon fill="white" stroke="black" points="768.907,-168.5 768.907,-187.5 899.907,-187.5 899.907,-168.5 768.907,-168.5"/>
<text text-anchor="middle" x="834.407" y="-175.5" font-family="Helvetica,sans-Serif" font-size="10.00">internals/alox_macros.hpp</text>
</a>
</g>
</g>
<!-- Node26&#45;&gt;Node28 -->
<g id="edge38" class="edge"><title>Node26&#45;&gt;Node28</title>
<path fill="none" stroke="midnightblue" d="M706.492,-224.444C731.952,-215.399 772.301,-201.064 800.867,-190.916"/>
<polygon fill="midnightblue" stroke="midnightblue" points="802.184,-194.162 810.435,-187.516 799.841,-187.566 802.184,-194.162"/>
</g>
<!-- Node29 -->
<g id="node29" class="node"><title>Node29</title>
<g id="a_node29"><a xlink:href="log_8hpp.html" target="_top" xlink:title="log.hpp">
<polygon fill="white" stroke="black" points="956.407,-168.5 956.407,-187.5 1004.41,-187.5 1004.41,-168.5 956.407,-168.5"/>
<text text-anchor="middle" x="980.407" y="-175.5" font-family="Helvetica,sans-Serif" font-size="10.00">log.hpp</text>
</a>
</g>
</g>
<!-- Node26&#45;&gt;Node29 -->
<g id="edge39" class="edge"><title>Node26&#45;&gt;Node29</title>
<path fill="none" stroke="midnightblue" d="M719.549,-225.645C722.544,-225.079 725.525,-224.524 728.407,-224 823.298,-206.739 847.875,-207.124 942.407,-188 943.678,-187.743 944.971,-187.474 946.276,-187.196"/>
<polygon fill="midnightblue" stroke="midnightblue" points="947.339,-190.546 956.337,-184.953 945.815,-183.713 947.339,-190.546"/>
</g>
<!-- Node31 -->
<g id="node31" class="node"><title>Node31</title>
<g id="a_node31"><a xlink:href="assubstring_8hpp.html" target="_top" xlink:title="alib/strings/assubstring.hpp">
<polygon fill="white" stroke="black" points="402.407,-168.5 402.407,-187.5 538.407,-187.5 538.407,-168.5 402.407,-168.5"/>
<text text-anchor="middle" x="470.407" y="-175.5" font-family="Helvetica,sans-Serif" font-size="10.00">alib/strings/assubstring.hpp</text>
</a>
</g>
</g>
<!-- Node30&#45;&gt;Node31 -->
<g id="edge42" class="edge"><title>Node30&#45;&gt;Node31</title>
<path fill="none" stroke="midnightblue" d="M497.958,-224.083C493.393,-216.613 486.739,-205.724 481.114,-196.52"/>
<polygon fill="midnightblue" stroke="midnightblue" points="483.956,-194.459 475.755,-187.751 477.983,-198.109 483.956,-194.459"/>
</g>
<!-- Node32 -->
<g id="node32" class="node"><title>Node32</title>
<polygon fill="white" stroke="#bfbfbf" points="556.907,-168.5 556.907,-187.5 597.907,-187.5 597.907,-168.5 556.907,-168.5"/>
<text text-anchor="middle" x="577.407" y="-175.5" font-family="Helvetica,sans-Serif" font-size="10.00">ctime</text>
</g>
<!-- Node30&#45;&gt;Node32 -->
<g id="edge44" class="edge"><title>Node30&#45;&gt;Node32</title>
<path fill="none" stroke="midnightblue" d="M515.297,-224.324C526.558,-216.107 543.694,-203.602 557.117,-193.807"/>
<polygon fill="midnightblue" stroke="midnightblue" points="559.287,-196.556 565.302,-187.834 555.161,-190.901 559.287,-196.556"/>
</g>
<!-- Node31&#45;&gt;Node3 -->
<g id="edge43" class="edge"><title>Node31&#45;&gt;Node3</title>
<path fill="none" stroke="midnightblue" d="M519.845,-168.444C579.982,-158.035 680.59,-140.622 738.239,-130.644"/>
<polygon fill="midnightblue" stroke="midnightblue" points="738.884,-134.085 748.141,-128.931 737.69,-127.188 738.884,-134.085"/>
</g>
<!-- Node33&#45;&gt;Node26 -->
<g id="edge48" class="edge"><title>Node33&#45;&gt;Node26</title>
<path fill="none" stroke="midnightblue" d="M677.398,-280.083C678.193,-272.927 679.337,-262.635 680.331,-253.691"/>
<polygon fill="midnightblue" stroke="midnightblue" points="683.809,-254.076 681.435,-243.751 676.852,-253.303 683.809,-254.076"/>
</g>
<!-- Node33&#45;&gt;Node34 -->
<g id="edge49" class="edge"><title>Node33&#45;&gt;Node34</title>
<path fill="none" stroke="midnightblue" d="M689.743,-280.324C702.569,-271.979 722.192,-259.212 737.347,-249.352"/>
<polygon fill="midnightblue" stroke="midnightblue" points="739.632,-252.042 746.105,-243.655 735.814,-246.174 739.632,-252.042"/>
</g>
</g>
</svg>
