<?xml version="1.0" encoding="UTF-8" standalone="no"?>
<!DOCTYPE svg PUBLIC "-//W3C//DTD SVG 1.1//EN"
 "http://www.w3.org/Graphics/SVG/1.1/DTD/svg11.dtd">
<!-- Generated by graphviz version 2.38.0 (20140413.2041)
 -->
<!-- Title: lox.hpp Pages: 1 -->
<svg width="866pt" height="364pt"
 viewBox="0.00 0.00 866.00 364.00" xmlns="http://www.w3.org/2000/svg" xmlns:xlink="http://www.w3.org/1999/xlink">
<g id="graph0" class="graph" transform="scale(1 1) rotate(0) translate(4 360)">
<title>lox.hpp</title>
<polygon fill="white" stroke="none" points="-4,4 -4,-360 862,-360 862,4 -4,4"/>
<!-- Node1 -->
<g id="node1" class="node"><title>Node1</title>
<polygon fill="#bfbfbf" stroke="black" points="343.5,-336.5 343.5,-355.5 391.5,-355.5 391.5,-336.5 343.5,-336.5"/>
<text text-anchor="middle" x="367.5" y="-343.5" font-family="Helvetica,sans-Serif" font-size="10.00">lox.hpp</text>
</g>
<!-- Node2 -->
<g id="node2" class="node"><title>Node2</title>
<g id="a_node2"><a xlink:href="alox_8hpp.html" target="_top" xlink:title="alox.hpp">
<polygon fill="white" stroke="black" points="341,-280.5 341,-299.5 394,-299.5 394,-280.5 341,-280.5"/>
<text text-anchor="middle" x="367.5" y="-287.5" font-family="Helvetica,sans-Serif" font-size="10.00">alox.hpp</text>
</a>
</g>
</g>
<!-- Node1&#45;&gt;Node2 -->
<g id="edge1" class="edge"><title>Node1&#45;&gt;Node2</title>
<path fill="none" stroke="midnightblue" d="M361.028,-326.101C360.396,-317.136 360.843,-306.858 362.369,-299.751"/>
<polygon fill="midnightblue" stroke="midnightblue" points="357.566,-326.622 362.334,-336.083 364.507,-325.713 357.566,-326.622"/>
</g>
<!-- Node2&#45;&gt;Node1 -->
<g id="edge4" class="edge"><title>Node2&#45;&gt;Node1</title>
<path fill="none" stroke="midnightblue" d="M373.958,-309.691C374.606,-318.635 374.176,-328.927 372.666,-336.083"/>
<polygon fill="midnightblue" stroke="midnightblue" points="377.423,-309.2 372.631,-299.751 370.485,-310.126 377.423,-309.2"/>
</g>
<!-- Node3 -->
<g id="node3" class="node"><title>Node3</title>
<g id="a_node3"><a xlink:href="log_8hpp.html" target="_top" xlink:title="log.hpp">
<polygon fill="white" stroke="black" points="317.5,-224.5 317.5,-243.5 365.5,-243.5 365.5,-224.5 317.5,-224.5"/>
<text text-anchor="middle" x="341.5" y="-231.5" font-family="Helvetica,sans-Serif" font-size="10.00">log.hpp</text>
</a>
</g>
</g>
<!-- Node2&#45;&gt;Node3 -->
<g id="edge2" class="edge"><title>Node2&#45;&gt;Node3</title>
<path fill="none" stroke="midnightblue" d="M352.747,-271.566C347.482,-262.275 342.582,-251.248 340.582,-243.751"/>
<polygon fill="midnightblue" stroke="midnightblue" points="349.789,-273.437 358.04,-280.083 355.735,-269.742 349.789,-273.437"/>
</g>
<!-- Node4 -->
<g id="node4" class="node"><title>Node4</title>
<g id="a_node4"><a xlink:href="alox__console__loggers_8hpp.html" target="_top" xlink:title="alox_console_loggers.hpp">
<polygon fill="white" stroke="black" points="137,-0.5 137,-19.5 266,-19.5 266,-0.5 137,-0.5"/>
<text text-anchor="middle" x="201.5" y="-7.5" font-family="Helvetica,sans-Serif" font-size="10.00">alox_console_loggers.hpp</text>
</a>
</g>
</g>
<!-- Node2&#45;&gt;Node4 -->
<g id="edge5" class="edge"><title>Node2&#45;&gt;Node4</title>
<path fill="none" stroke="midnightblue" d="M330.737,-285.251C274.274,-278.923 169.478,-264.75 138.5,-244 109.721,-224.723 95.5,-213.638 95.5,-179 95.5,-179 95.5,-179 95.5,-121 95.5,-71.1404 152.667,-35.1884 183.036,-19.6068"/>
<polygon fill="midnightblue" stroke="midnightblue" points="330.367,-288.731 340.689,-286.341 331.13,-281.773 330.367,-288.731"/>
</g>
<!-- Node5 -->
<g id="node5" class="node"><title>Node5</title>
<g id="a_node5"><a xlink:href="domain_8hpp.html" target="_top" xlink:title="domain.hpp">
<polygon fill="white" stroke="black" points="0,-224.5 0,-243.5 67,-243.5 67,-224.5 0,-224.5"/>
<text text-anchor="middle" x="33.5" y="-231.5" font-family="Helvetica,sans-Serif" font-size="10.00">domain.hpp</text>
</a>
</g>
</g>
<!-- Node2&#45;&gt;Node5 -->
<g id="edge6" class="edge"><title>Node2&#45;&gt;Node5</title>
<path fill="none" stroke="midnightblue" d="M330.421,-283.52C275.833,-275.373 170.66,-259.37 81.5,-244 76.821,-243.193 71.8922,-242.309 67.0468,-241.42"/>
<polygon fill="midnightblue" stroke="midnightblue" points="330.238,-287.032 340.644,-285.043 331.269,-280.108 330.238,-287.032"/>
</g>
<!-- Node6 -->
<g id="node6" class="node"><title>Node6</title>
<g id="a_node6"><a xlink:href="logger_8hpp.html" target="_top" xlink:title="logger.hpp">
<polygon fill="white" stroke="black" points="161.5,-224.5 161.5,-243.5 223.5,-243.5 223.5,-224.5 161.5,-224.5"/>
<text text-anchor="middle" x="192.5" y="-231.5" font-family="Helvetica,sans-Serif" font-size="10.00">logger.hpp</text>
</a>
</g>
</g>
<!-- Node2&#45;&gt;Node6 -->
<g id="edge8" class="edge"><title>Node2&#45;&gt;Node6</title>
<path fill="none" stroke="midnightblue" d="M331.197,-277.798C298.194,-267.614 250.202,-252.805 220.198,-243.547"/>
<polygon fill="midnightblue" stroke="midnightblue" points="330.334,-281.194 340.921,-280.799 332.398,-274.506 330.334,-281.194"/>
</g>
<!-- Node7 -->
<g id="node7" class="node"><title>Node7</title>
<g id="a_node7"><a xlink:href="textlogger_8hpp.html" target="_top" xlink:title="textlogger.hpp">
<polygon fill="white" stroke="black" points="259.5,-168.5 259.5,-187.5 337.5,-187.5 337.5,-168.5 259.5,-168.5"/>
<text text-anchor="middle" x="298.5" y="-175.5" font-family="Helvetica,sans-Serif" font-size="10.00">textlogger.hpp</text>
</a>
</g>
</g>
<!-- Node2&#45;&gt;Node7 -->
<g id="edge29" class="edge"><title>Node2&#45;&gt;Node7</title>
<path fill="none" stroke="midnightblue" d="M341.298,-275.25C329.39,-267.641 316.258,-257.063 308.5,-244 297.889,-226.134 297.311,-200.818 297.864,-187.675"/>
<polygon fill="midnightblue" stroke="midnightblue" points="339.676,-278.359 350.056,-280.483 343.267,-272.35 339.676,-278.359"/>
</g>
<!-- Node8 -->
<g id="node8" class="node"><title>Node8</title>
<g id="a_node8"><a xlink:href="plaintextlogger_8hpp.html" target="_top" xlink:title="plaintextlogger.hpp">
<polygon fill="white" stroke="black" points="449.5,-112.5 449.5,-131.5 547.5,-131.5 547.5,-112.5 449.5,-112.5"/>
<text text-anchor="middle" x="498.5" y="-119.5" font-family="Helvetica,sans-Serif" font-size="10.00">plaintextlogger.hpp</text>
</a>
</g>
</g>
<!-- Node2&#45;&gt;Node8 -->
<g id="edge28" class="edge"><title>Node2&#45;&gt;Node8</title>
<path fill="none" stroke="midnightblue" d="M399.526,-276.242C415.043,-268.753 432.979,-257.987 445.5,-244 476.706,-209.143 491.833,-153.003 496.691,-131.635"/>
<polygon fill="midnightblue" stroke="midnightblue" points="397.889,-273.142 390.248,-280.482 400.798,-279.509 397.889,-273.142"/>
</g>
<!-- Node9 -->
<g id="node9" class="node"><title>Node9</title>
<g id="a_node9"><a xlink:href="consolelogger_8hpp.html" target="_top" xlink:title="consolelogger.hpp">
<polygon fill="white" stroke="black" points="341,-56.5 341,-75.5 436,-75.5 436,-56.5 341,-56.5"/>
<text text-anchor="middle" x="388.5" y="-63.5" font-family="Helvetica,sans-Serif" font-size="10.00">consolelogger.hpp</text>
</a>
</g>
</g>
<!-- Node2&#45;&gt;Node9 -->
<g id="edge31" class="edge"><title>Node2&#45;&gt;Node9</title>
<path fill="none" stroke="midnightblue" d="M377.752,-271.551C382.064,-263.434 386.718,-253.492 389.5,-244 403.596,-195.911 399.606,-182.028 402.5,-132 403.013,-123.126 403.835,-120.788 402.5,-112 400.533,-99.0576 395.556,-84.7151 392.1,-75.7782"/>
<polygon fill="midnightblue" stroke="midnightblue" points="374.633,-269.958 372.81,-280.395 380.743,-273.373 374.633,-269.958"/>
</g>
<!-- Node10 -->
<g id="node10" class="node"><title>Node10</title>
<g id="a_node10"><a xlink:href="memorylogger_8hpp.html" target="_top" xlink:title="memorylogger.hpp">
<polygon fill="white" stroke="black" points="454,-56.5 454,-75.5 551,-75.5 551,-56.5 454,-56.5"/>
<text text-anchor="middle" x="502.5" y="-63.5" font-family="Helvetica,sans-Serif" font-size="10.00">memorylogger.hpp</text>
</a>
</g>
</g>
<!-- Node2&#45;&gt;Node10 -->
<g id="edge32" class="edge"><title>Node2&#45;&gt;Node10</title>
<path fill="none" stroke="midnightblue" d="M403.741,-277.216C423.53,-269.676 447.748,-258.561 466.5,-244 516.937,-204.835 535.297,-192.235 556.5,-132 559.451,-123.615 560.27,-120.05 556.5,-112 548.839,-95.644 531.988,-83.1593 519.133,-75.5364"/>
<polygon fill="midnightblue" stroke="midnightblue" points="402.325,-274.006 394.138,-280.73 404.731,-280.58 402.325,-274.006"/>
</g>
<!-- Node11 -->
<g id="node11" class="node"><title>Node11</title>
<g id="a_node11"><a xlink:href="textfilelogger_8hpp.html" target="_top" xlink:title="textfilelogger.hpp">
<polygon fill="white" stroke="black" points="569,-56.5 569,-75.5 660,-75.5 660,-56.5 569,-56.5"/>
<text text-anchor="middle" x="614.5" y="-63.5" font-family="Helvetica,sans-Serif" font-size="10.00">textfilelogger.hpp</text>
</a>
</g>
</g>
<!-- Node2&#45;&gt;Node11 -->
<g id="edge33" class="edge"><title>Node2&#45;&gt;Node11</title>
<path fill="none" stroke="midnightblue" d="M404.041,-280.557C430.286,-273.429 465.775,-261.545 493.5,-244 561.126,-201.204 600.507,-105.447 611.387,-75.8728"/>
<polygon fill="midnightblue" stroke="midnightblue" points="402.91,-277.234 394.118,-283.146 404.678,-284.008 402.91,-277.234"/>
</g>
<!-- Node12 -->
<g id="node12" class="node"><title>Node12</title>
<g id="a_node12"><a xlink:href="vstudiologger_8hpp.html" target="_top" xlink:title="vstudiologger.hpp">
<polygon fill="white" stroke="black" points="230,-56.5 230,-75.5 323,-75.5 323,-56.5 230,-56.5"/>
<text text-anchor="middle" x="276.5" y="-63.5" font-family="Helvetica,sans-Serif" font-size="10.00">vstudiologger.hpp</text>
</a>
</g>
</g>
<!-- Node2&#45;&gt;Node12 -->
<g id="edge34" class="edge"><title>Node2&#45;&gt;Node12</title>
<path fill="none" stroke="midnightblue" d="M339.469,-275.596C309.941,-259.583 265.657,-229.638 250.5,-188 238.946,-156.26 241.752,-144.625 250.5,-112 254.192,-98.2304 263.231,-84.3162 269.61,-75.6811"/>
<polygon fill="midnightblue" stroke="midnightblue" points="337.998,-278.776 348.482,-280.302 341.238,-272.571 337.998,-278.776"/>
</g>
<!-- Node13 -->
<g id="node13" class="node"><title>Node13</title>
<g id="a_node13"><a xlink:href="ansilogger_8hpp.html" target="_top" xlink:title="ansilogger.hpp">
<polygon fill="white" stroke="black" points="123.5,-112.5 123.5,-131.5 203.5,-131.5 203.5,-112.5 123.5,-112.5"/>
<text text-anchor="middle" x="163.5" y="-119.5" font-family="Helvetica,sans-Serif" font-size="10.00">ansilogger.hpp</text>
</a>
</g>
</g>
<!-- Node2&#45;&gt;Node13 -->
<g id="edge30" class="edge"><title>Node2&#45;&gt;Node13</title>
<path fill="none" stroke="midnightblue" d="M330.566,-286.73C275.125,-282.465 174.525,-271.112 152.5,-244 125.368,-210.601 148.463,-153.595 158.964,-131.815"/>
<polygon fill="midnightblue" stroke="midnightblue" points="330.461,-290.231 340.689,-287.468 330.97,-283.25 330.461,-290.231"/>
</g>
<!-- Node14 -->
<g id="node14" class="node"><title>Node14</title>
<g id="a_node14"><a xlink:href="windowsconsolelogger_8hpp.html" target="_top" xlink:title="windowsconsolelogger.hpp">
<polygon fill="white" stroke="black" points="259.5,-112.5 259.5,-131.5 393.5,-131.5 393.5,-112.5 259.5,-112.5"/>
<text text-anchor="middle" x="326.5" y="-119.5" font-family="Helvetica,sans-Serif" font-size="10.00">windowsconsolelogger.hpp</text>
</a>
</g>
</g>
<!-- Node2&#45;&gt;Node14 -->
<g id="edge35" class="edge"><title>Node2&#45;&gt;Node14</title>
<path fill="none" stroke="midnightblue" d="M372.624,-270.78C375.553,-257.648 378.012,-239.57 374.5,-224 366.256,-187.449 343.161,-148.604 332.292,-131.699"/>
<polygon fill="midnightblue" stroke="midnightblue" points="369.228,-269.932 370.173,-280.485 376.015,-271.646 369.228,-269.932"/>
</g>
<!-- Node15 -->
<g id="node15" class="node"><title>Node15</title>
<g id="a_node15"><a xlink:href="scopedump_8hpp.html" target="_top" xlink:title="scopedump.hpp">
<polygon fill="white" stroke="black" points="659.5,-168.5 659.5,-187.5 745.5,-187.5 745.5,-168.5 659.5,-168.5"/>
<text text-anchor="middle" x="702.5" y="-175.5" font-family="Helvetica,sans-Serif" font-size="10.00">scopedump.hpp</text>
</a>
</g>
</g>
<!-- Node2&#45;&gt;Node15 -->
<g id="edge22" class="edge"><title>Node2&#45;&gt;Node15</title>
<path fill="none" stroke="midnightblue" d="M404.487,-288.748C456.66,-287.063 553.728,-278.977 627.5,-244 656.459,-230.27 682.929,-202.178 695.239,-187.842"/>
<polygon fill="midnightblue" stroke="midnightblue" points="404.271,-285.253 394.366,-289.012 404.454,-292.25 404.271,-285.253"/>
</g>
<!-- Node16 -->
<g id="node16" class="node"><title>Node16</title>
<g id="a_node16"><a xlink:href="scopestore_8hpp.html" target="_top" xlink:title="scopestore.hpp">
<polygon fill="white" stroke="black" points="680,-224.5 680,-243.5 763,-243.5 763,-224.5 680,-224.5"/>
<text text-anchor="middle" x="721.5" y="-231.5" font-family="Helvetica,sans-Serif" font-size="10.00">scopestore.hpp</text>
</a>
</g>
</g>
<!-- Node2&#45;&gt;Node16 -->
<g id="edge23" class="edge"><title>Node2&#45;&gt;Node16</title>
<path fill="none" stroke="midnightblue" d="M404.419,-283.54C460.748,-275.183 571.52,-258.647 665.5,-244 670.17,-243.272 675.058,-242.501 679.917,-241.728"/>
<polygon fill="midnightblue" stroke="midnightblue" points="403.604,-280.122 394.226,-285.051 404.631,-287.047 403.604,-280.122"/>
</g>
<!-- Node17 -->
<g id="node17" class="node"><title>Node17</title>
<g id="a_node17"><a xlink:href="scopeinfo_8hpp.html" target="_top" xlink:title="scopeinfo.hpp">
<polygon fill="white" stroke="black" points="781,-224.5 781,-243.5 858,-243.5 858,-224.5 781,-224.5"/>
<text text-anchor="middle" x="819.5" y="-231.5" font-family="Helvetica,sans-Serif" font-size="10.00">scopeinfo.hpp</text>
</a>
</g>
</g>
<!-- Node2&#45;&gt;Node17 -->
<g id="edge26" class="edge"><title>Node2&#45;&gt;Node17</title>
<path fill="none" stroke="midnightblue" d="M404.286,-285.827C475.426,-279.486 636.725,-264.113 771.5,-244 774.519,-243.549 777.638,-243.048 780.769,-242.518"/>
<polygon fill="midnightblue" stroke="midnightblue" points="403.712,-282.364 394.059,-286.731 404.328,-289.337 403.712,-282.364"/>
</g>
<!-- Node3&#45;&gt;Node2 -->
<g id="edge3" class="edge"><title>Node3&#45;&gt;Node2</title>
<path fill="none" stroke="midnightblue" d="M356.301,-252.52C361.509,-261.724 366.352,-272.613 368.373,-280.083"/>
<polygon fill="midnightblue" stroke="midnightblue" points="359.1,-250.392 350.844,-243.751 353.156,-254.091 359.1,-250.392"/>
</g>
<!-- Node5&#45;&gt;Node1 -->
<g id="edge7" class="edge"><title>Node5&#45;&gt;Node1</title>
<path fill="none" stroke="midnightblue" d="M69.4888,-246.853C138.02,-269.423 285.574,-318.019 343.48,-337.089"/>
<polygon fill="midnightblue" stroke="midnightblue" points="70.1754,-243.394 59.5823,-243.59 67.9856,-250.043 70.1754,-243.394"/>
</g>
<!-- Node6&#45;&gt;Node1 -->
<g id="edge9" class="edge"><title>Node6&#45;&gt;Node1</title>
<path fill="none" stroke="midnightblue" d="M214.681,-248.942C251.365,-272.001 323.61,-317.412 353.768,-336.368"/>
<polygon fill="midnightblue" stroke="midnightblue" points="216.497,-245.95 206.168,-243.591 212.772,-251.876 216.497,-245.95"/>
</g>
<!-- Node6&#45;&gt;Node7 -->
<g id="edge10" class="edge"><title>Node6&#45;&gt;Node7</title>
<path fill="none" stroke="midnightblue" d="M218.556,-219.726C238.184,-209.727 264.528,-196.307 281.512,-187.655"/>
<polygon fill="midnightblue" stroke="midnightblue" points="216.852,-216.666 209.531,-224.324 220.03,-222.903 216.852,-216.666"/>
</g>
<!-- Node7&#45;&gt;Node8 -->
<g id="edge11" class="edge"><title>Node7&#45;&gt;Node8</title>
<path fill="none" stroke="midnightblue" d="M339.874,-165.829C377.636,-155.633 432.64,-140.782 466.958,-131.516"/>
<polygon fill="midnightblue" stroke="midnightblue" points="338.933,-162.458 330.191,-168.444 340.757,-169.216 338.933,-162.458"/>
</g>
<!-- Node7&#45;&gt;Node13 -->
<g id="edge18" class="edge"><title>Node7&#45;&gt;Node13</title>
<path fill="none" stroke="midnightblue" d="M267.594,-164.638C242.26,-154.504 207.069,-140.427 184.791,-131.516"/>
<polygon fill="midnightblue" stroke="midnightblue" points="266.524,-167.979 277.109,-168.444 269.124,-161.48 266.524,-167.979"/>
</g>
<!-- Node7&#45;&gt;Node14 -->
<g id="edge20" class="edge"><title>Node7&#45;&gt;Node14</title>
<path fill="none" stroke="midnightblue" d="M307.842,-158.983C312.595,-149.817 318.156,-139.092 321.962,-131.751"/>
<polygon fill="midnightblue" stroke="midnightblue" points="304.62,-157.594 303.124,-168.083 310.834,-160.817 304.62,-157.594"/>
</g>
<!-- Node8&#45;&gt;Node9 -->
<g id="edge12" class="edge"><title>Node8&#45;&gt;Node9</title>
<path fill="none" stroke="midnightblue" d="M471.738,-107.862C451.341,-97.8492 423.834,-84.3458 406.13,-75.6545"/>
<polygon fill="midnightblue" stroke="midnightblue" points="470.308,-111.059 480.827,-112.324 473.392,-104.775 470.308,-111.059"/>
</g>
<!-- Node8&#45;&gt;Node10 -->
<g id="edge14" class="edge"><title>Node8&#45;&gt;Node10</title>
<path fill="none" stroke="midnightblue" d="M499.9,-102.101C500.564,-93.1357 501.325,-82.8579 501.852,-75.7511"/>
<polygon fill="midnightblue" stroke="midnightblue" points="496.409,-101.852 499.161,-112.083 503.39,-102.369 496.409,-101.852"/>
</g>
<!-- Node8&#45;&gt;Node11 -->
<g id="edge15" class="edge"><title>Node8&#45;&gt;Node11</title>
<path fill="none" stroke="midnightblue" d="M526.22,-108.096C547.892,-98.0073 577.402,-84.2697 596.205,-75.5164"/>
<polygon fill="midnightblue" stroke="midnightblue" points="524.469,-105.05 516.881,-112.444 527.423,-111.396 524.469,-105.05"/>
</g>
<!-- Node8&#45;&gt;Node12 -->
<g id="edge16" class="edge"><title>Node8&#45;&gt;Node12</title>
<path fill="none" stroke="midnightblue" d="M453.375,-110.024C411.44,-99.8232 349.848,-84.8414 311.512,-75.5164"/>
<polygon fill="midnightblue" stroke="midnightblue" points="452.78,-113.481 463.323,-112.444 454.434,-106.679 452.78,-113.481"/>
</g>
<!-- Node9&#45;&gt;Node4 -->
<g id="edge13" class="edge"><title>Node9&#45;&gt;Node4</title>
<path fill="none" stroke="midnightblue" d="M348.91,-53.5677C313.634,-43.381 262.806,-28.7034 230.992,-19.5164"/>
<polygon fill="midnightblue" stroke="midnightblue" points="348.291,-57.0317 358.869,-56.4435 350.233,-50.3065 348.291,-57.0317"/>
</g>
<!-- Node12&#45;&gt;Node4 -->
<g id="edge17" class="edge"><title>Node12&#45;&gt;Node4</title>
<path fill="none" stroke="midnightblue" d="M256.195,-50.3804C242.639,-40.6204 225.258,-28.1057 213.769,-19.8339"/>
<polygon fill="midnightblue" stroke="midnightblue" points="254.29,-53.3213 264.45,-56.324 258.38,-47.6405 254.29,-53.3213"/>
</g>
<!-- Node13&#45;&gt;Node4 -->
<g id="edge19" class="edge"><title>Node13&#45;&gt;Node4</title>
<path fill="none" stroke="midnightblue" d="M169.831,-102.674C178.139,-78.6248 192.384,-37.3881 198.532,-19.5914"/>
<polygon fill="midnightblue" stroke="midnightblue" points="166.439,-101.774 166.482,-112.368 173.055,-104.059 166.439,-101.774"/>
</g>
<!-- Node14&#45;&gt;Node4 -->
<g id="edge21" class="edge"><title>Node14&#45;&gt;Node4</title>
<path fill="none" stroke="midnightblue" d="M275.218,-109.327C255.706,-102.54 234.763,-92.0395 220.5,-76 206.125,-59.8345 202.598,-33.3278 201.752,-19.6965"/>
<polygon fill="midnightblue" stroke="midnightblue" points="274.354,-112.726 284.946,-112.458 276.499,-106.062 274.354,-112.726"/>
</g>
<!-- Node16&#45;&gt;Node1 -->
<g id="edge24" class="edge"><title>Node16&#45;&gt;Node1</title>
<path fill="none" stroke="midnightblue" d="M684.381,-246.534C611.648,-269.135 452.193,-318.683 391.554,-337.526"/>
<polygon fill="midnightblue" stroke="midnightblue" points="685.538,-249.84 694.049,-243.53 683.461,-243.155 685.538,-249.84"/>
</g>
<!-- Node16&#45;&gt;Node15 -->
<g id="edge25" class="edge"><title>Node16&#45;&gt;Node15</title>
<path fill="none" stroke="midnightblue" d="M714.954,-214.396C711.776,-205.362 708.107,-194.936 705.579,-187.751"/>
<polygon fill="midnightblue" stroke="midnightblue" points="711.742,-215.812 718.363,-224.083 718.345,-213.488 711.742,-215.812"/>
</g>
<!-- Node17&#45;&gt;Node1 -->
<g id="edge27" class="edge"><title>Node17&#45;&gt;Node1</title>
<path fill="none" stroke="midnightblue" d="M775.901,-246.038C724.112,-259.107 635.084,-281.443 558.5,-300 498.572,-314.521 427.906,-331.004 391.644,-339.415"/>
<polygon fill="midnightblue" stroke="midnightblue" points="776.909,-249.393 785.748,-243.551 775.195,-242.606 776.909,-249.393"/>
</g>
</g>
</svg>
