<?xml version="1.0" encoding="UTF-8" standalone="no"?>
<!DOCTYPE svg PUBLIC "-//W3C//DTD SVG 1.1//EN"
 "http://www.w3.org/Graphics/SVG/1.1/DTD/svg11.dtd">
<!-- Generated by graphviz version 2.38.0 (20140413.2041)
 -->
<!-- Title: lox.hpp Pages: 1 -->
<svg width="2118pt" height="308pt"
 viewBox="0.00 0.00 2117.50 308.00" xmlns="http://www.w3.org/2000/svg" xmlns:xlink="http://www.w3.org/1999/xlink">
<g id="graph0" class="graph" transform="scale(1 1) rotate(0) translate(4 304)">
<title>lox.hpp</title>
<polygon fill="white" stroke="none" points="-4,4 -4,-304 2113.5,-304 2113.5,4 -4,4"/>
<!-- Node1 -->
<g id="node1" class="node"><title>Node1</title>
<polygon fill="#bfbfbf" stroke="black" points="1337,-280.5 1337,-299.5 1385,-299.5 1385,-280.5 1337,-280.5"/>
<text text-anchor="middle" x="1361" y="-287.5" font-family="Helvetica,sans-Serif" font-size="10.00">lox.hpp</text>
</g>
<!-- Node2 -->
<g id="node2" class="node"><title>Node2</title>
<g id="a_node2"><a xlink:href="alox_8hpp.html" target="_top" xlink:title="alox/alox.hpp">
<polygon fill="white" stroke="black" points="1430,-168.5 1430,-187.5 1504,-187.5 1504,-168.5 1430,-168.5"/>
<text text-anchor="middle" x="1467" y="-175.5" font-family="Helvetica,sans-Serif" font-size="10.00">alox/alox.hpp</text>
</a>
</g>
</g>
<!-- Node1&#45;&gt;Node2 -->
<g id="edge1" class="edge"><title>Node1&#45;&gt;Node2</title>
<path fill="none" stroke="midnightblue" d="M1365.47,-280.368C1379.85,-261.814 1421.82,-217.913 1447.26,-194.438"/>
<polygon fill="midnightblue" stroke="midnightblue" points="1449.78,-196.877 1454.89,-187.591 1445.11,-191.669 1449.78,-196.877"/>
</g>
<!-- Node28 -->
<g id="node3" class="node"><title>Node28</title>
<g id="a_node3"><a xlink:href="threadlock_8hpp.html" target="_top" xlink:title="alib/threads/threadlock.hpp">
<polygon fill="white" stroke="black" points="1008,-224.5 1008,-243.5 1142,-243.5 1142,-224.5 1008,-224.5"/>
<text text-anchor="middle" x="1075" y="-231.5" font-family="Helvetica,sans-Serif" font-size="10.00">alib/threads/threadlock.hpp</text>
</a>
</g>
</g>
<!-- Node1&#45;&gt;Node28 -->
<g id="edge2" class="edge"><title>Node1&#45;&gt;Node28</title>
<path fill="none" stroke="midnightblue" d="M1336.62,-284.396C1291.19,-275.819 1192.58,-257.2 1130.24,-245.43"/>
<polygon fill="midnightblue" stroke="midnightblue" points="1130.66,-241.947 1120.18,-243.531 1129.36,-248.826 1130.66,-241.947"/>
</g>
<!-- Node32 -->
<g id="node4" class="node"><title>Node32</title>
<polygon fill="white" stroke="#bfbfbf" points="550.5,-112.5 550.5,-131.5 585.5,-131.5 585.5,-112.5 550.5,-112.5"/>
<text text-anchor="middle" x="568" y="-119.5" font-family="Helvetica,sans-Serif" font-size="10.00">map</text>
</g>
<!-- Node1&#45;&gt;Node32 -->
<g id="edge3" class="edge"><title>Node1&#45;&gt;Node32</title>
<path fill="none" stroke="midnightblue" d="M1336.99,-288.799C1235.01,-287.72 837.616,-281.165 719,-244 672.595,-229.46 662.379,-219.107 625,-188 607.776,-173.666 591.256,-153.944 580.476,-139.993"/>
<polygon fill="midnightblue" stroke="midnightblue" points="583.09,-137.646 574.272,-131.774 577.503,-141.864 583.09,-137.646"/>
</g>
<!-- Node36 -->
<g id="node5" class="node"><title>Node36</title>
<g id="a_node5"><a xlink:href="scopeinfo_8hpp.html" target="_top" xlink:title="alox/core/scopeinfo.hpp">
<polygon fill="white" stroke="black" points="728,-224.5 728,-243.5 848,-243.5 848,-224.5 728,-224.5"/>
<text text-anchor="middle" x="788" y="-231.5" font-family="Helvetica,sans-Serif" font-size="10.00">alox/core/scopeinfo.hpp</text>
</a>
</g>
</g>
<!-- Node1&#45;&gt;Node36 -->
<g id="edge4" class="edge"><title>Node1&#45;&gt;Node36</title>
<path fill="none" stroke="midnightblue" d="M1336.74,-286.714C1254.93,-279.004 987.041,-253.758 858.306,-241.626"/>
<polygon fill="midnightblue" stroke="midnightblue" points="858.444,-238.123 848.16,-240.669 857.787,-245.092 858.444,-238.123"/>
</g>
<!-- Node41 -->
<g id="node6" class="node"><title>Node41</title>
<g id="a_node6"><a xlink:href="logger_8hpp.html" target="_top" xlink:title="alox/core/logger.hpp">
<polygon fill="white" stroke="black" points="1576,-224.5 1576,-243.5 1680,-243.5 1680,-224.5 1576,-224.5"/>
<text text-anchor="middle" x="1628" y="-231.5" font-family="Helvetica,sans-Serif" font-size="10.00">alox/core/logger.hpp</text>
</a>
</g>
</g>
<!-- Node1&#45;&gt;Node41 -->
<g id="edge5" class="edge"><title>Node1&#45;&gt;Node41</title>
<path fill="none" stroke="midnightblue" d="M1385.17,-284.113C1428.03,-275.443 1518.29,-257.189 1575.88,-245.542"/>
<polygon fill="midnightblue" stroke="midnightblue" points="1576.77,-248.932 1585.88,-243.519 1575.38,-242.071 1576.77,-248.932"/>
</g>
<!-- Node42 -->
<g id="node7" class="node"><title>Node42</title>
<g id="a_node7"><a xlink:href="domain_8hpp.html" target="_top" xlink:title="alox/core/domain.hpp">
<polygon fill="white" stroke="black" points="1448,-224.5 1448,-243.5 1558,-243.5 1558,-224.5 1448,-224.5"/>
<text text-anchor="middle" x="1503" y="-231.5" font-family="Helvetica,sans-Serif" font-size="10.00">alox/core/domain.hpp</text>
</a>
</g>
</g>
<!-- Node1&#45;&gt;Node42 -->
<g id="edge6" class="edge"><title>Node1&#45;&gt;Node42</title>
<path fill="none" stroke="midnightblue" d="M1383.5,-280.444C1407.08,-271.478 1444.32,-257.314 1470.96,-247.183"/>
<polygon fill="midnightblue" stroke="midnightblue" points="1472.5,-250.342 1480.6,-243.516 1470.01,-243.8 1472.5,-250.342"/>
</g>
<!-- Node43 -->
<g id="node8" class="node"><title>Node43</title>
<g id="a_node8"><a xlink:href="scopestore_8hpp.html" target="_top" xlink:title="alox/core/scopestore.hpp">
<polygon fill="white" stroke="black" points="1248,-224.5 1248,-243.5 1374,-243.5 1374,-224.5 1248,-224.5"/>
<text text-anchor="middle" x="1311" y="-231.5" font-family="Helvetica,sans-Serif" font-size="10.00">alox/core/scopestore.hpp</text>
</a>
</g>
</g>
<!-- Node1&#45;&gt;Node43 -->
<g id="edge7" class="edge"><title>Node1&#45;&gt;Node43</title>
<path fill="none" stroke="midnightblue" d="M1352.74,-280.083C1345.54,-272.298 1334.89,-260.801 1326.15,-251.367"/>
<polygon fill="midnightblue" stroke="midnightblue" points="1328.47,-248.711 1319.1,-243.751 1323.33,-253.467 1328.47,-248.711"/>
</g>
<!-- Node2&#45;&gt;Node1 -->
<g id="edge8" class="edge"><title>Node2&#45;&gt;Node1</title>
<path fill="none" stroke="midnightblue" d="M1462.56,-187.591C1448.22,-206.11 1406.26,-250.007 1380.79,-273.512"/>
<polygon fill="midnightblue" stroke="midnightblue" points="1378.26,-271.082 1373.16,-280.368 1382.94,-276.289 1378.26,-271.082"/>
</g>
<!-- Node3 -->
<g id="node9" class="node"><title>Node3</title>
<g id="a_node9"><a xlink:href="alib_8hpp.html" target="_top" xlink:title="alib/alib.hpp">
<polygon fill="white" stroke="black" points="1003,-56.5 1003,-75.5 1071,-75.5 1071,-56.5 1003,-56.5"/>
<text text-anchor="middle" x="1037" y="-63.5" font-family="Helvetica,sans-Serif" font-size="10.00">alib/alib.hpp</text>
</a>
</g>
</g>
<!-- Node2&#45;&gt;Node3 -->
<g id="edge9" class="edge"><title>Node2&#45;&gt;Node3</title>
<path fill="none" stroke="midnightblue" d="M1504.29,-172.364C1554.74,-164.68 1634.96,-146.603 1603,-112 1567.83,-73.9228 1208.36,-68.0379 1081.24,-67.15"/>
<polygon fill="midnightblue" stroke="midnightblue" points="1081.11,-63.6492 1071.09,-67.0864 1081.06,-70.6491 1081.11,-63.6492"/>
</g>
<!-- Node23 -->
<g id="node10" class="node"><title>Node23</title>
<g id="a_node10"><a xlink:href="alox__symbols_8hpp.html" target="_top" xlink:title="internals/alox_symbols.hpp">
<polygon fill="white" stroke="black" points="1103.5,-112.5 1103.5,-131.5 1238.5,-131.5 1238.5,-112.5 1103.5,-112.5"/>
<text text-anchor="middle" x="1171" y="-119.5" font-family="Helvetica,sans-Serif" font-size="10.00">internals/alox_symbols.hpp</text>
</a>
</g>
</g>
<!-- Node2&#45;&gt;Node23 -->
<g id="edge10" class="edge"><title>Node2&#45;&gt;Node23</title>
<path fill="none" stroke="midnightblue" d="M1429.81,-170.216C1378.95,-160.937 1287.24,-144.206 1227.76,-133.356"/>
<polygon fill="midnightblue" stroke="midnightblue" points="1228.25,-129.886 1217.78,-131.534 1226.99,-136.772 1228.25,-129.886"/>
</g>
<!-- Node24 -->
<g id="node11" class="node"><title>Node24</title>
<g id="a_node11"><a xlink:href="alox__macros_8hpp.html" target="_top" xlink:title="internals/alox_macros.hpp">
<polygon fill="white" stroke="black" points="1256.5,-112.5 1256.5,-131.5 1387.5,-131.5 1387.5,-112.5 1256.5,-112.5"/>
<text text-anchor="middle" x="1322" y="-119.5" font-family="Helvetica,sans-Serif" font-size="10.00">internals/alox_macros.hpp</text>
</a>
</g>
</g>
<!-- Node2&#45;&gt;Node24 -->
<g id="edge11" class="edge"><title>Node2&#45;&gt;Node24</title>
<path fill="none" stroke="midnightblue" d="M1444.02,-168.444C1419.84,-159.438 1381.58,-145.189 1354.35,-135.049"/>
<polygon fill="midnightblue" stroke="midnightblue" points="1355.46,-131.727 1344.87,-131.516 1353.02,-138.286 1355.46,-131.727"/>
</g>
<!-- Node25 -->
<g id="node12" class="node"><title>Node25</title>
<polygon fill="white" stroke="#bfbfbf" points="1650,-112.5 1650,-131.5 1694,-131.5 1694,-112.5 1650,-112.5"/>
<text text-anchor="middle" x="1672" y="-119.5" font-family="Helvetica,sans-Serif" font-size="10.00">vector</text>
</g>
<!-- Node2&#45;&gt;Node25 -->
<g id="edge12" class="edge"><title>Node2&#45;&gt;Node25</title>
<path fill="none" stroke="midnightblue" d="M1499.48,-168.444C1537.87,-158.331 1601.36,-141.607 1639.68,-131.514"/>
<polygon fill="midnightblue" stroke="midnightblue" points="1641,-134.785 1649.78,-128.854 1639.22,-128.016 1641,-134.785"/>
</g>
<!-- Node26 -->
<g id="node13" class="node"><title>Node26</title>
<g id="a_node13"><a xlink:href="aloxtypesandenums_8hpp.html" target="_top" xlink:title="aloxtypesandenums.hpp">
<polygon fill="white" stroke="black" points="1406,-112.5 1406,-131.5 1528,-131.5 1528,-112.5 1406,-112.5"/>
<text text-anchor="middle" x="1467" y="-119.5" font-family="Helvetica,sans-Serif" font-size="10.00">aloxtypesandenums.hpp</text>
</a>
</g>
</g>
<!-- Node2&#45;&gt;Node26 -->
<g id="edge13" class="edge"><title>Node2&#45;&gt;Node26</title>
<path fill="none" stroke="midnightblue" d="M1467,-168.083C1467,-161.006 1467,-150.861 1467,-141.986"/>
<polygon fill="midnightblue" stroke="midnightblue" points="1470.5,-141.751 1467,-131.751 1463.5,-141.751 1470.5,-141.751"/>
</g>
<!-- Node27 -->
<g id="node14" class="node"><title>Node27</title>
<g id="a_node14"><a xlink:href="log_8hpp.html" target="_top" xlink:title="log.hpp">
<polygon fill="white" stroke="black" points="1546,-112.5 1546,-131.5 1594,-131.5 1594,-112.5 1546,-112.5"/>
<text text-anchor="middle" x="1570" y="-119.5" font-family="Helvetica,sans-Serif" font-size="10.00">log.hpp</text>
</a>
</g>
</g>
<!-- Node2&#45;&gt;Node27 -->
<g id="edge14" class="edge"><title>Node2&#45;&gt;Node27</title>
<path fill="none" stroke="midnightblue" d="M1478.43,-168.324C1493.14,-159.625 1518.65,-146.12 1539.1,-136.113"/>
<polygon fill="midnightblue" stroke="midnightblue" points="1540.88,-139.141 1548.38,-131.655 1537.85,-132.831 1540.88,-139.141"/>
</g>
<!-- Node28&#45;&gt;Node3 -->
<g id="edge45" class="edge"><title>Node28&#45;&gt;Node3</title>
<path fill="none" stroke="midnightblue" d="M1072.96,-224.075C1066.98,-197.945 1049.41,-121.211 1041.25,-85.577"/>
<polygon fill="midnightblue" stroke="midnightblue" points="1044.6,-84.5349 1038.96,-75.5681 1037.78,-86.097 1044.6,-84.5349"/>
</g>
<!-- Node28&#45;&gt;Node25 -->
<g id="edge46" class="edge"><title>Node28&#45;&gt;Node25</title>
<path fill="none" stroke="midnightblue" d="M1142.41,-228.436C1247.28,-220.937 1444.59,-205.12 1513,-188 1561.82,-175.783 1615.36,-151.432 1646.19,-136.25"/>
<polygon fill="midnightblue" stroke="midnightblue" points="1647.98,-139.267 1655.36,-131.67 1644.85,-133.004 1647.98,-139.267"/>
</g>
<!-- Node29 -->
<g id="node34" class="node"><title>Node29</title>
<g id="a_node34"><a xlink:href="ownable_8hpp.html" target="_top" xlink:title="alib/core/ownable.hpp">
<polygon fill="white" stroke="black" points="935.5,-168.5 935.5,-187.5 1046.5,-187.5 1046.5,-168.5 935.5,-168.5"/>
<text text-anchor="middle" x="991" y="-175.5" font-family="Helvetica,sans-Serif" font-size="10.00">alib/core/ownable.hpp</text>
</a>
</g>
</g>
<!-- Node28&#45;&gt;Node29 -->
<g id="edge47" class="edge"><title>Node28&#45;&gt;Node29</title>
<path fill="none" stroke="midnightblue" d="M1061.5,-224.324C1048.4,-215.9 1028.29,-202.971 1012.89,-193.074"/>
<polygon fill="midnightblue" stroke="midnightblue" points="1014.77,-190.118 1004.46,-187.655 1010.98,-196.006 1014.77,-190.118"/>
</g>
<!-- Node30 -->
<g id="node35" class="node"><title>Node30</title>
<g id="a_node35"><a xlink:href="thread_8hpp.html" target="_top" xlink:title="thread.hpp">
<polygon fill="white" stroke="black" points="813,-168.5 813,-187.5 875,-187.5 875,-168.5 813,-168.5"/>
<text text-anchor="middle" x="844" y="-175.5" font-family="Helvetica,sans-Serif" font-size="10.00">thread.hpp</text>
</a>
</g>
</g>
<!-- Node28&#45;&gt;Node30 -->
<g id="edge48" class="edge"><title>Node28&#45;&gt;Node30</title>
<path fill="none" stroke="midnightblue" d="M1038.4,-224.444C996.705,-214.697 928.738,-198.809 885.216,-188.635"/>
<polygon fill="midnightblue" stroke="midnightblue" points="885.78,-185.172 875.246,-186.304 884.186,-191.989 885.78,-185.172"/>
</g>
<!-- Node36&#45;&gt;Node2 -->
<g id="edge56" class="edge"><title>Node36&#45;&gt;Node2</title>
<path fill="none" stroke="midnightblue" d="M848.257,-228.208C981.659,-217.599 1299.62,-192.311 1419.86,-182.749"/>
<polygon fill="midnightblue" stroke="midnightblue" points="1420.17,-186.236 1429.86,-181.954 1419.61,-179.258 1420.17,-186.236"/>
</g>
<!-- Node36&#45;&gt;Node32 -->
<g id="edge58" class="edge"><title>Node36&#45;&gt;Node32</title>
<path fill="none" stroke="midnightblue" d="M755.953,-224.426C729.432,-216.703 691.187,-204.101 660,-188 632.522,-173.814 603.889,-152.354 586.011,-138.018"/>
<polygon fill="midnightblue" stroke="midnightblue" points="588.115,-135.217 578.151,-131.615 583.694,-140.644 588.115,-135.217"/>
</g>
<!-- Node36&#45;&gt;Node30 -->
<g id="edge57" class="edge"><title>Node36&#45;&gt;Node30</title>
<path fill="none" stroke="midnightblue" d="M796.997,-224.324C805.194,-216.42 817.506,-204.548 827.472,-194.938"/>
<polygon fill="midnightblue" stroke="midnightblue" points="830.07,-197.295 834.839,-187.834 825.211,-192.256 830.07,-197.295"/>
</g>
<!-- Node37 -->
<g id="node40" class="node"><title>Node37</title>
<g id="a_node40"><a xlink:href="ticks_8hpp.html" target="_top" xlink:title="alib/time/ticks.hpp">
<polygon fill="white" stroke="black" points="464,-168.5 464,-187.5 560,-187.5 560,-168.5 464,-168.5"/>
<text text-anchor="middle" x="512" y="-175.5" font-family="Helvetica,sans-Serif" font-size="10.00">alib/time/ticks.hpp</text>
</a>
</g>
</g>
<!-- Node36&#45;&gt;Node37 -->
<g id="edge59" class="edge"><title>Node36&#45;&gt;Node37</title>
<path fill="none" stroke="midnightblue" d="M744.267,-224.444C695.817,-214.964 617.671,-199.675 565.582,-189.483"/>
<polygon fill="midnightblue" stroke="midnightblue" points="566.014,-186.002 555.528,-187.516 564.67,-192.871 566.014,-186.002"/>
</g>
<!-- Node40 -->
<g id="node41" class="node"><title>Node40</title>
<g id="a_node41"><a xlink:href="directory_8hpp.html" target="_top" xlink:title="alib/system/directory.hpp">
<polygon fill="white" stroke="black" points="669,-168.5 669,-187.5 795,-187.5 795,-168.5 669,-168.5"/>
<text text-anchor="middle" x="732" y="-175.5" font-family="Helvetica,sans-Serif" font-size="10.00">alib/system/directory.hpp</text>
</a>
</g>
</g>
<!-- Node36&#45;&gt;Node40 -->
<g id="edge60" class="edge"><title>Node36&#45;&gt;Node40</title>
<path fill="none" stroke="midnightblue" d="M779.003,-224.324C770.806,-216.42 758.494,-204.548 748.528,-194.938"/>
<polygon fill="midnightblue" stroke="midnightblue" points="750.789,-192.256 741.161,-187.834 745.93,-197.295 750.789,-192.256"/>
</g>
<!-- Node41&#45;&gt;Node2 -->
<g id="edge64" class="edge"><title>Node41&#45;&gt;Node2</title>
<path fill="none" stroke="midnightblue" d="M1602.49,-224.444C1575.4,-215.359 1532.41,-200.939 1502.13,-190.783"/>
<polygon fill="midnightblue" stroke="midnightblue" points="1502.99,-187.378 1492.39,-187.516 1500.76,-194.015 1502.99,-187.378"/>
</g>
<!-- Node41&#45;&gt;Node25 -->
<g id="edge65" class="edge"><title>Node41&#45;&gt;Node25</title>
<path fill="none" stroke="midnightblue" d="M1631.45,-224.368C1638.62,-206.456 1655.23,-164.923 1664.82,-140.948"/>
<polygon fill="midnightblue" stroke="midnightblue" points="1668.1,-142.176 1668.56,-131.591 1661.6,-139.576 1668.1,-142.176"/>
</g>
<!-- Node42&#45;&gt;Node2 -->
<g id="edge66" class="edge"><title>Node42&#45;&gt;Node2</title>
<path fill="none" stroke="midnightblue" d="M1497.06,-224.083C1492.02,-216.534 1484.66,-205.495 1478.49,-196.23"/>
<polygon fill="midnightblue" stroke="midnightblue" points="1481.29,-194.13 1472.83,-187.751 1475.47,-198.013 1481.29,-194.13"/>
</g>
<!-- Node42&#45;&gt;Node25 -->
<g id="edge67" class="edge"><title>Node42&#45;&gt;Node25</title>
<path fill="none" stroke="midnightblue" d="M1517.83,-224.482C1533.09,-215.631 1557.45,-201.248 1578,-188 1603.91,-171.292 1633,-150.919 1651.86,-137.486"/>
<polygon fill="midnightblue" stroke="midnightblue" points="1653.9,-140.33 1660,-131.668 1649.83,-134.636 1653.9,-140.33"/>
</g>
<!-- Node43&#45;&gt;Node2 -->
<g id="edge68" class="edge"><title>Node43&#45;&gt;Node2</title>
<path fill="none" stroke="midnightblue" d="M1335.72,-224.444C1361.85,-215.399 1403.26,-201.064 1432.58,-190.916"/>
<polygon fill="midnightblue" stroke="midnightblue" points="1434.09,-194.095 1442.4,-187.516 1431.8,-187.48 1434.09,-194.095"/>
</g>
<!-- Node4 -->
<g id="node15" class="node"><title>Node4</title>
<g id="a_node15"><a xlink:href="symbols_8hpp.html" target="_top" xlink:title="alib/core/symbols.hpp">
<polygon fill="white" stroke="black" points="0,-0.5 0,-19.5 112,-19.5 112,-0.5 0,-0.5"/>
<text text-anchor="middle" x="56" y="-7.5" font-family="Helvetica,sans-Serif" font-size="10.00">alib/core/symbols.hpp</text>
</a>
</g>
</g>
<!-- Node3&#45;&gt;Node4 -->
<g id="edge15" class="edge"><title>Node3&#45;&gt;Node4</title>
<path fill="none" stroke="midnightblue" d="M1002.78,-64.4391C883.02,-62.2406 471.489,-52.7019 122.213,-20.1363"/>
<polygon fill="midnightblue" stroke="midnightblue" points="122.442,-16.6425 112.158,-19.1908 121.786,-23.6117 122.442,-16.6425"/>
</g>
<!-- Node5 -->
<g id="node16" class="node"><title>Node5</title>
<g id="a_node16"><a xlink:href="macros_8hpp.html" target="_top" xlink:title="alib/core/macros.hpp">
<polygon fill="white" stroke="black" points="129.5,-0.5 129.5,-19.5 236.5,-19.5 236.5,-0.5 129.5,-0.5"/>
<text text-anchor="middle" x="183" y="-7.5" font-family="Helvetica,sans-Serif" font-size="10.00">alib/core/macros.hpp</text>
</a>
</g>
</g>
<!-- Node3&#45;&gt;Node5 -->
<g id="edge16" class="edge"><title>Node3&#45;&gt;Node5</title>
<path fill="none" stroke="midnightblue" d="M1003,-64.0997C894.423,-61.0066 546.16,-49.3963 246.761,-19.9795"/>
<polygon fill="midnightblue" stroke="midnightblue" points="246.875,-16.4738 236.579,-18.9703 246.185,-23.4396 246.875,-16.4738"/>
</g>
<!-- Node6 -->
<g id="node17" class="node"><title>Node6</title>
<polygon fill="white" stroke="#bfbfbf" points="255,-0.5 255,-19.5 307,-19.5 307,-0.5 255,-0.5"/>
<text text-anchor="middle" x="281" y="-7.5" font-family="Helvetica,sans-Serif" font-size="10.00">assert.h</text>
</g>
<!-- Node3&#45;&gt;Node6 -->
<g id="edge17" class="edge"><title>Node3&#45;&gt;Node6</title>
<path fill="none" stroke="midnightblue" d="M1002.97,-65.1534C900.476,-65.1353 585.804,-61.5662 317.198,-19.8845"/>
<polygon fill="midnightblue" stroke="midnightblue" points="317.684,-16.4179 307.261,-18.3216 316.596,-23.3329 317.684,-16.4179"/>
</g>
<!-- Node7 -->
<g id="node18" class="node"><title>Node7</title>
<polygon fill="white" stroke="#bfbfbf" points="325.5,-0.5 325.5,-19.5 374.5,-19.5 374.5,-0.5 325.5,-0.5"/>
<text text-anchor="middle" x="350" y="-7.5" font-family="Helvetica,sans-Serif" font-size="10.00">cstddef</text>
</g>
<!-- Node3&#45;&gt;Node7 -->
<g id="edge18" class="edge"><title>Node3&#45;&gt;Node7</title>
<path fill="none" stroke="midnightblue" d="M1002.68,-65.016C906.357,-64.5588 625.361,-59.7835 384.732,-19.9885"/>
<polygon fill="midnightblue" stroke="midnightblue" points="385.19,-16.5167 374.749,-18.3134 384.032,-23.4202 385.19,-16.5167"/>
</g>
<!-- Node8 -->
<g id="node19" class="node"><title>Node8</title>
<polygon fill="white" stroke="#bfbfbf" points="392.5,-0.5 392.5,-19.5 455.5,-19.5 455.5,-0.5 392.5,-0.5"/>
<text text-anchor="middle" x="424" y="-7.5" font-family="Helvetica,sans-Serif" font-size="10.00">windows.h</text>
</g>
<!-- Node3&#45;&gt;Node8 -->
<g id="edge19" class="edge"><title>Node3&#45;&gt;Node8</title>
<path fill="none" stroke="midnightblue" d="M1002.9,-64.0219C915.218,-61.1457 674.683,-50.974 465.725,-20.0727"/>
<polygon fill="midnightblue" stroke="midnightblue" points="466.207,-16.606 455.799,-18.5855 465.17,-23.5288 466.207,-16.606"/>
</g>
<!-- Node9 -->
<g id="node20" class="node"><title>Node9</title>
<polygon fill="white" stroke="#bfbfbf" points="473.5,-0.5 473.5,-19.5 522.5,-19.5 522.5,-0.5 473.5,-0.5"/>
<text text-anchor="middle" x="498" y="-7.5" font-family="Helvetica,sans-Serif" font-size="10.00">stdint.h</text>
</g>
<!-- Node3&#45;&gt;Node9 -->
<g id="edge20" class="edge"><title>Node3&#45;&gt;Node9</title>
<path fill="none" stroke="midnightblue" d="M1002.75,-63.9536C922.311,-61.0692 715.011,-51.1559 532.805,-19.8294"/>
<polygon fill="midnightblue" stroke="midnightblue" points="533.227,-16.3502 522.774,-18.0784 532.023,-23.246 533.227,-16.3502"/>
</g>
<!-- Node10 -->
<g id="node21" class="node"><title>Node10</title>
<polygon fill="white" stroke="#bfbfbf" points="541,-0.5 541,-19.5 603,-19.5 603,-0.5 541,-0.5"/>
<text text-anchor="middle" x="572" y="-7.5" font-family="Helvetica,sans-Serif" font-size="10.00">type_traits</text>
</g>
<!-- Node3&#45;&gt;Node10 -->
<g id="edge21" class="edge"><title>Node3&#45;&gt;Node10</title>
<path fill="none" stroke="midnightblue" d="M1002.94,-62.7395C932.149,-57.7528 763.842,-44.3987 613.267,-20.0406"/>
<polygon fill="midnightblue" stroke="midnightblue" points="613.81,-16.583 603.376,-18.4203 612.678,-23.4909 613.81,-16.583"/>
</g>
<!-- Node11 -->
<g id="node22" class="node"><title>Node11</title>
<polygon fill="white" stroke="#bfbfbf" points="621,-0.5 621,-19.5 661,-19.5 661,-0.5 621,-0.5"/>
<text text-anchor="middle" x="641" y="-7.5" font-family="Helvetica,sans-Serif" font-size="10.00">utility</text>
</g>
<!-- Node3&#45;&gt;Node11 -->
<g id="edge22" class="edge"><title>Node3&#45;&gt;Node11</title>
<path fill="none" stroke="midnightblue" d="M1002.76,-62.8547C939.109,-58.4267 798.212,-46.5597 671.067,-19.8775"/>
<polygon fill="midnightblue" stroke="midnightblue" points="671.669,-16.4274 661.159,-17.7619 670.208,-23.2731 671.669,-16.4274"/>
</g>
<!-- Node12 -->
<g id="node23" class="node"><title>Node12</title>
<polygon fill="white" stroke="#bfbfbf" points="679.5,-0.5 679.5,-19.5 720.5,-19.5 720.5,-0.5 679.5,-0.5"/>
<text text-anchor="middle" x="700" y="-7.5" font-family="Helvetica,sans-Serif" font-size="10.00">stack</text>
</g>
<!-- Node3&#45;&gt;Node12 -->
<g id="edge23" class="edge"><title>Node3&#45;&gt;Node12</title>
<path fill="none" stroke="midnightblue" d="M1002.63,-61.6179C947.282,-55.8138 834.886,-42.554 730.321,-19.7593"/>
<polygon fill="midnightblue" stroke="midnightblue" points="731.073,-16.3411 720.553,-17.5965 729.56,-23.1756 731.073,-16.3411"/>
</g>
<!-- Node13 -->
<g id="node24" class="node"><title>Node13</title>
<g id="a_node24"><a xlink:href="enums_8hpp.html" target="_top" xlink:title="alib/core/enums.hpp">
<polygon fill="white" stroke="black" points="739,-0.5 739,-19.5 843,-19.5 843,-0.5 739,-0.5"/>
<text text-anchor="middle" x="791" y="-7.5" font-family="Helvetica,sans-Serif" font-size="10.00">alib/core/enums.hpp</text>
</a>
</g>
</g>
<!-- Node3&#45;&gt;Node13 -->
<g id="edge24" class="edge"><title>Node3&#45;&gt;Node13</title>
<path fill="none" stroke="midnightblue" d="M1002.74,-58.4863C958.818,-49.3989 882.886,-32.8003 834.821,-21.8337"/>
<polygon fill="midnightblue" stroke="midnightblue" points="835.538,-18.4074 825.009,-19.5837 833.974,-25.2303 835.538,-18.4074"/>
</g>
<!-- Node14 -->
<g id="node25" class="node"><title>Node14</title>
<g id="a_node25"><a xlink:href="report_8hpp.html" target="_top" xlink:title="alib/core/report.hpp">
<polygon fill="white" stroke="black" points="861,-0.5 861,-19.5 961,-19.5 961,-0.5 861,-0.5"/>
<text text-anchor="middle" x="911" y="-7.5" font-family="Helvetica,sans-Serif" font-size="10.00">alib/core/report.hpp</text>
</a>
</g>
</g>
<!-- Node3&#45;&gt;Node14 -->
<g id="edge25" class="edge"><title>Node3&#45;&gt;Node14</title>
<path fill="none" stroke="midnightblue" d="M1011.95,-56.4435C989.563,-47.6751 957.251,-33.9355 935.153,-23.8579"/>
<polygon fill="midnightblue" stroke="midnightblue" points="936.336,-20.5484 925.792,-19.5164 933.391,-26.8988 936.336,-20.5484"/>
</g>
<!-- Node15 -->
<g id="node26" class="node"><title>Node15</title>
<g id="a_node26"><a xlink:href="cstring_8hpp.html" target="_top" xlink:title="alib/strings/cstring.hpp">
<polygon fill="white" stroke="red" points="979.5,-0.5 979.5,-19.5 1094.5,-19.5 1094.5,-0.5 979.5,-0.5"/>
<text text-anchor="middle" x="1037" y="-7.5" font-family="Helvetica,sans-Serif" font-size="10.00">alib/strings/cstring.hpp</text>
</a>
</g>
</g>
<!-- Node3&#45;&gt;Node15 -->
<g id="edge26" class="edge"><title>Node3&#45;&gt;Node15</title>
<path fill="none" stroke="midnightblue" d="M1031.83,-56.083C1030.32,-48.9272 1029.89,-38.6353 1030.54,-29.6911"/>
<polygon fill="midnightblue" stroke="midnightblue" points="1034.02,-30.1262 1031.87,-19.7511 1027.08,-29.2002 1034.02,-30.1262"/>
</g>
<!-- Node16 -->
<g id="node27" class="node"><title>Node16</title>
<g id="a_node27"><a xlink:href="string_8hpp.html" target="_top" xlink:title="alib/strings/string.hpp">
<polygon fill="white" stroke="red" points="1113,-0.5 1113,-19.5 1223,-19.5 1223,-0.5 1113,-0.5"/>
<text text-anchor="middle" x="1168" y="-7.5" font-family="Helvetica,sans-Serif" font-size="10.00">alib/strings/string.hpp</text>
</a>
</g>
</g>
<!-- Node3&#45;&gt;Node16 -->
<g id="edge27" class="edge"><title>Node3&#45;&gt;Node16</title>
<path fill="none" stroke="midnightblue" d="M1052.67,-56.4435C1072.45,-47.4776 1106.59,-33.314 1132.7,-23.1827"/>
<polygon fill="midnightblue" stroke="midnightblue" points="1134.18,-26.3639 1142.26,-19.5164 1131.67,-19.8277 1134.18,-26.3639"/>
</g>
<!-- Node17 -->
<g id="node28" class="node"><title>Node17</title>
<g id="a_node28"><a xlink:href="tstring_8hpp.html" target="_top" xlink:title="alib/strings/tstring.hpp">
<polygon fill="white" stroke="black" points="1241.5,-0.5 1241.5,-19.5 1354.5,-19.5 1354.5,-0.5 1241.5,-0.5"/>
<text text-anchor="middle" x="1298" y="-7.5" font-family="Helvetica,sans-Serif" font-size="10.00">alib/strings/tstring.hpp</text>
</a>
</g>
</g>
<!-- Node3&#45;&gt;Node17 -->
<g id="edge28" class="edge"><title>Node3&#45;&gt;Node17</title>
<path fill="none" stroke="midnightblue" d="M1071.09,-56.9157C1114.38,-47.5097 1189.42,-31.9489 1241.34,-21.5864"/>
<polygon fill="midnightblue" stroke="midnightblue" points="1242.28,-24.9692 1251.4,-19.5865 1240.91,-18.1036 1242.28,-24.9692"/>
</g>
<!-- Node18 -->
<g id="node29" class="node"><title>Node18</title>
<g id="a_node29"><a xlink:href="stringliteral_8hpp.html" target="_top" xlink:title="alib/strings/stringliteral.hpp">
<polygon fill="white" stroke="red" points="1372.5,-0.5 1372.5,-19.5 1505.5,-19.5 1505.5,-0.5 1372.5,-0.5"/>
<text text-anchor="middle" x="1439" y="-7.5" font-family="Helvetica,sans-Serif" font-size="10.00">alib/strings/stringliteral.hpp</text>
</a>
</g>
</g>
<!-- Node3&#45;&gt;Node18 -->
<g id="edge29" class="edge"><title>Node3&#45;&gt;Node18</title>
<path fill="none" stroke="midnightblue" d="M1071.02,-59.8711C1135.03,-50.8684 1274.43,-32.091 1362.14,-20.6117"/>
<polygon fill="midnightblue" stroke="midnightblue" points="1362.84,-24.0494 1372.31,-19.2835 1361.94,-17.1084 1362.84,-24.0494"/>
</g>
<!-- Node19 -->
<g id="node30" class="node"><title>Node19</title>
<g id="a_node30"><a xlink:href="astring_8hpp.html" target="_top" xlink:title="alib/strings/astring.hpp">
<polygon fill="white" stroke="red" points="1523.5,-0.5 1523.5,-19.5 1638.5,-19.5 1638.5,-0.5 1523.5,-0.5"/>
<text text-anchor="middle" x="1581" y="-7.5" font-family="Helvetica,sans-Serif" font-size="10.00">alib/strings/astring.hpp</text>
</a>
</g>
</g>
<!-- Node3&#45;&gt;Node19 -->
<g id="edge30" class="edge"><title>Node3&#45;&gt;Node19</title>
<path fill="none" stroke="midnightblue" d="M1071.08,-61.8451C1148.48,-55.1402 1342.61,-38.5596 1505,-20 1507.69,-19.692 1510.45,-19.3663 1513.24,-19.0286"/>
<polygon fill="midnightblue" stroke="midnightblue" points="1513.94,-22.4686 1523.43,-17.7632 1513.07,-15.5219 1513.94,-22.4686"/>
</g>
<!-- Node20 -->
<g id="node31" class="node"><title>Node20</title>
<g id="a_node31"><a xlink:href="preallocatedstring_8hpp.html" target="_top" xlink:title="alib/strings/preallocatedstring.hpp">
<polygon fill="white" stroke="black" points="1657,-0.5 1657,-19.5 1819,-19.5 1819,-0.5 1657,-0.5"/>
<text text-anchor="middle" x="1738" y="-7.5" font-family="Helvetica,sans-Serif" font-size="10.00">alib/strings/preallocatedstring.hpp</text>
</a>
</g>
</g>
<!-- Node3&#45;&gt;Node20 -->
<g id="edge31" class="edge"><title>Node3&#45;&gt;Node20</title>
<path fill="none" stroke="midnightblue" d="M1071.18,-62.507C1163.19,-56.199 1422.83,-38.7656 1639,-20 1641.53,-19.7802 1644.1,-19.5521 1646.7,-19.3179"/>
<polygon fill="midnightblue" stroke="midnightblue" points="1647.19,-22.7876 1656.83,-18.3871 1646.55,-15.8169 1647.19,-22.7876"/>
</g>
<!-- Node21 -->
<g id="node32" class="node"><title>Node21</title>
<g id="a_node32"><a xlink:href="applyto_8hpp.html" target="_top" xlink:title="alib/strings/applyto.hpp">
<polygon fill="white" stroke="black" points="1837.5,-0.5 1837.5,-19.5 1954.5,-19.5 1954.5,-0.5 1837.5,-0.5"/>
<text text-anchor="middle" x="1896" y="-7.5" font-family="Helvetica,sans-Serif" font-size="10.00">alib/strings/applyto.hpp</text>
</a>
</g>
</g>
<!-- Node3&#45;&gt;Node21 -->
<g id="edge32" class="edge"><title>Node3&#45;&gt;Node21</title>
<path fill="none" stroke="midnightblue" d="M1071.37,-63.8351C1180.89,-60.1378 1530.4,-47.2691 1819,-20 1821.69,-19.7462 1824.43,-19.4668 1827.2,-19.1684"/>
<polygon fill="midnightblue" stroke="midnightblue" points="1827.81,-22.6223 1837.35,-18.0161 1827.02,-15.667 1827.81,-22.6223"/>
</g>
<!-- Node22 -->
<g id="node33" class="node"><title>Node22</title>
<g id="a_node33"><a xlink:href="applyformat_8hpp.html" target="_top" xlink:title="alib/strings/applyformat.hpp">
<polygon fill="white" stroke="red" points="1972.5,-0.5 1972.5,-19.5 2109.5,-19.5 2109.5,-0.5 1972.5,-0.5"/>
<text text-anchor="middle" x="2041" y="-7.5" font-family="Helvetica,sans-Serif" font-size="10.00">alib/strings/applyformat.hpp</text>
</a>
</g>
</g>
<!-- Node3&#45;&gt;Node22 -->
<g id="edge33" class="edge"><title>Node3&#45;&gt;Node22</title>
<path fill="none" stroke="midnightblue" d="M1071.32,-64.0792C1192.51,-60.8191 1610.56,-48.4571 1955,-20 1957.38,-19.8036 1959.79,-19.5914 1962.24,-19.3663"/>
<polygon fill="midnightblue" stroke="midnightblue" points="1962.77,-22.8305 1972.39,-18.377 1962.1,-15.8635 1962.77,-22.8305"/>
</g>
<!-- Node27&#45;&gt;Node2 -->
<g id="edge44" class="edge"><title>Node27&#45;&gt;Node2</title>
<path fill="none" stroke="midnightblue" d="M1558.84,-131.516C1544.07,-140.27 1518.12,-154.007 1497.47,-164.096"/>
<polygon fill="midnightblue" stroke="midnightblue" points="1495.91,-160.961 1488.41,-168.444 1498.94,-167.272 1495.91,-160.961"/>
</g>
<!-- Node13&#45;&gt;Node3 -->
<g id="edge34" class="edge"><title>Node13&#45;&gt;Node3</title>
<path fill="none" stroke="midnightblue" d="M834.877,-19.5164C879.6,-28.8809 948.4,-43.95 993.12,-54.1529"/>
<polygon fill="midnightblue" stroke="midnightblue" points="992.58,-57.6198 1003.11,-56.4435 994.145,-50.7969 992.58,-57.6198"/>
</g>
<!-- Node14&#45;&gt;Node3 -->
<g id="edge35" class="edge"><title>Node14&#45;&gt;Node3</title>
<path fill="none" stroke="midnightblue" d="M935.952,-19.5164C958.405,-28.3091 990.908,-42.1312 1013.04,-52.2321"/>
<polygon fill="midnightblue" stroke="midnightblue" points="1011.58,-55.4109 1022.12,-56.4435 1014.52,-49.0607 1011.58,-55.4109"/>
</g>
<!-- Node15&#45;&gt;Node3 -->
<g id="edge36" class="edge"><title>Node15&#45;&gt;Node3</title>
<path fill="none" stroke="midnightblue" d="M1042.13,-19.7511C1043.66,-26.8579 1044.1,-37.1357 1043.47,-46.1005"/>
<polygon fill="midnightblue" stroke="midnightblue" points="1039.99,-45.7134 1042.17,-56.083 1046.93,-46.6216 1039.99,-45.7134"/>
</g>
<!-- Node16&#45;&gt;Node3 -->
<g id="edge37" class="edge"><title>Node16&#45;&gt;Node3</title>
<path fill="none" stroke="midnightblue" d="M1152.42,-19.5164C1132.68,-28.4669 1098.55,-42.6287 1072.42,-52.772"/>
<polygon fill="midnightblue" stroke="midnightblue" points="1070.93,-49.5952 1062.85,-56.4435 1073.44,-56.1312 1070.93,-49.5952"/>
</g>
<!-- Node17&#45;&gt;Node3 -->
<g id="edge38" class="edge"><title>Node17&#45;&gt;Node3</title>
<path fill="none" stroke="midnightblue" d="M1261.86,-19.5298C1214.6,-29.7732 1132.14,-46.8283 1081.22,-56.884"/>
<polygon fill="midnightblue" stroke="midnightblue" points="1080.3,-53.4966 1071.16,-58.8581 1081.65,-60.3654 1080.3,-53.4966"/>
</g>
<!-- Node18&#45;&gt;Node3 -->
<g id="edge39" class="edge"><title>Node18&#45;&gt;Node3</title>
<path fill="none" stroke="midnightblue" d="M1380.55,-19.5342C1299.41,-30.7656 1154.6,-50.1807 1081.57,-59.5843"/>
<polygon fill="midnightblue" stroke="midnightblue" points="1080.81,-56.1535 1071.34,-60.8969 1081.7,-63.0966 1080.81,-56.1535"/>
</g>
<!-- Node19&#45;&gt;Node3 -->
<g id="edge40" class="edge"><title>Node19&#45;&gt;Node3</title>
<path fill="none" stroke="midnightblue" d="M1527.24,-19.5067C1525.81,-19.6754 1524.4,-19.8401 1523,-20 1360.76,-38.5418 1166.85,-55.1085 1081.18,-61.8258"/>
<polygon fill="midnightblue" stroke="midnightblue" points="1080.74,-58.3497 1071.04,-62.6143 1081.28,-65.3287 1080.74,-58.3497"/>
</g>
<!-- Node20&#45;&gt;Node3 -->
<g id="edge41" class="edge"><title>Node20&#45;&gt;Node3</title>
<path fill="none" stroke="midnightblue" d="M1662.21,-19.5411C1660.46,-19.6974 1658.72,-19.8506 1657,-20 1441.82,-38.6795 1183.57,-56.0389 1081.48,-62.4194"/>
<polygon fill="midnightblue" stroke="midnightblue" points="1081,-58.9424 1071.23,-63.0552 1081.43,-65.9289 1081,-58.9424"/>
</g>
<!-- Node21&#45;&gt;Node3 -->
<g id="edge42" class="edge"><title>Node21&#45;&gt;Node3</title>
<path fill="none" stroke="midnightblue" d="M1842.04,-19.5018C1840.34,-19.6766 1838.66,-19.8432 1837,-20 1549.92,-47.1254 1202.57,-60.0018 1081.24,-63.7759"/>
<polygon fill="midnightblue" stroke="midnightblue" points="1081.1,-60.2784 1071.21,-64.0828 1081.32,-67.2751 1081.1,-60.2784"/>
</g>
<!-- Node22&#45;&gt;Node3 -->
<g id="edge43" class="edge"><title>Node22&#45;&gt;Node3</title>
<path fill="none" stroke="midnightblue" d="M1978.7,-19.5063C1976.78,-19.6798 1974.88,-19.8449 1973,-20 1630.99,-48.2558 1216.43,-60.6433 1081.58,-64.0086"/>
<polygon fill="midnightblue" stroke="midnightblue" points="1081.15,-60.5178 1071.24,-64.2623 1081.33,-67.5157 1081.15,-60.5178"/>
</g>
<!-- Node29&#45;&gt;Node3 -->
<g id="edge49" class="edge"><title>Node29&#45;&gt;Node3</title>
<path fill="none" stroke="midnightblue" d="M995.479,-168.493C1000.12,-159.532 1007.46,-144.952 1013,-132 1019.65,-116.447 1026.24,-98.3673 1030.82,-85.23"/>
<polygon fill="midnightblue" stroke="midnightblue" points="1034.22,-86.1158 1034.16,-75.5211 1027.6,-83.8397 1034.22,-86.1158"/>
</g>
<!-- Node30&#45;&gt;Node32 -->
<g id="edge52" class="edge"><title>Node30&#45;&gt;Node32</title>
<path fill="none" stroke="midnightblue" d="M812.59,-169.772C809.69,-169.153 806.793,-168.553 804,-168 714.194,-150.211 687.476,-155.197 595.243,-131.987"/>
<polygon fill="midnightblue" stroke="midnightblue" points="596.059,-128.583 585.503,-129.494 594.323,-135.365 596.059,-128.583"/>
</g>
<!-- Node30&#45;&gt;Node3 -->
<g id="edge50" class="edge"><title>Node30&#45;&gt;Node3</title>
<path fill="none" stroke="midnightblue" d="M875.239,-171.575C904.231,-165.453 947.659,-153.431 980,-132 998.885,-119.486 1015.32,-99.133 1025.62,-84.5346"/>
<polygon fill="midnightblue" stroke="midnightblue" points="1028.75,-86.1524 1031.47,-75.9126 1022.96,-82.2212 1028.75,-86.1524"/>
</g>
<!-- Node31 -->
<g id="node36" class="node"><title>Node31</title>
<polygon fill="white" stroke="#bfbfbf" points="779,-112.5 779,-131.5 909,-131.5 909,-112.5 779,-112.5"/>
<text text-anchor="middle" x="844" y="-119.5" font-family="Helvetica,sans-Serif" font-size="10.00">alib/strings/asprealloc.hpp</text>
</g>
<!-- Node30&#45;&gt;Node31 -->
<g id="edge51" class="edge"><title>Node30&#45;&gt;Node31</title>
<path fill="none" stroke="midnightblue" d="M844,-168.083C844,-161.006 844,-150.861 844,-141.986"/>
<polygon fill="midnightblue" stroke="midnightblue" points="847.5,-141.751 844,-131.751 840.5,-141.751 847.5,-141.751"/>
</g>
<!-- Node33 -->
<g id="node37" class="node"><title>Node33</title>
<polygon fill="white" stroke="#bfbfbf" points="927,-112.5 927,-131.5 971,-131.5 971,-112.5 927,-112.5"/>
<text text-anchor="middle" x="949" y="-119.5" font-family="Helvetica,sans-Serif" font-size="10.00">mutex</text>
</g>
<!-- Node30&#45;&gt;Node33 -->
<g id="edge53" class="edge"><title>Node30&#45;&gt;Node33</title>
<path fill="none" stroke="midnightblue" d="M860.87,-168.324C877.709,-159.664 903.807,-146.242 923.238,-136.249"/>
<polygon fill="midnightblue" stroke="midnightblue" points="924.88,-139.341 932.172,-131.655 921.678,-133.116 924.88,-139.341"/>
</g>
<!-- Node34 -->
<g id="node38" class="node"><title>Node34</title>
<polygon fill="white" stroke="#bfbfbf" points="603.5,-112.5 603.5,-131.5 698.5,-131.5 698.5,-112.5 603.5,-112.5"/>
<text text-anchor="middle" x="651" y="-119.5" font-family="Helvetica,sans-Serif" font-size="10.00">condition_variable</text>
</g>
<!-- Node30&#45;&gt;Node34 -->
<g id="edge54" class="edge"><title>Node30&#45;&gt;Node34</title>
<path fill="none" stroke="midnightblue" d="M813.419,-168.444C780.385,-159.201 727.612,-144.436 691.234,-134.257"/>
<polygon fill="midnightblue" stroke="midnightblue" points="692.012,-130.84 681.438,-131.516 690.125,-137.582 692.012,-130.84"/>
</g>
<!-- Node35 -->
<g id="node39" class="node"><title>Node35</title>
<polygon fill="white" stroke="#bfbfbf" points="717,-112.5 717,-131.5 761,-131.5 761,-112.5 717,-112.5"/>
<text text-anchor="middle" x="739" y="-119.5" font-family="Helvetica,sans-Serif" font-size="10.00">thread</text>
</g>
<!-- Node30&#45;&gt;Node35 -->
<g id="edge55" class="edge"><title>Node30&#45;&gt;Node35</title>
<path fill="none" stroke="midnightblue" d="M827.13,-168.324C810.291,-159.664 784.193,-146.242 764.762,-136.249"/>
<polygon fill="midnightblue" stroke="midnightblue" points="766.322,-133.116 755.828,-131.655 763.12,-139.341 766.322,-133.116"/>
</g>
<!-- Node38 -->
<g id="node42" class="node"><title>Node38</title>
<g id="a_node42"><a xlink:href="substring_8hpp.html" target="_top" xlink:title="alib/strings/substring.hpp">
<polygon fill="white" stroke="black" points="348.5,-112.5 348.5,-131.5 473.5,-131.5 473.5,-112.5 348.5,-112.5"/>
<text text-anchor="middle" x="411" y="-119.5" font-family="Helvetica,sans-Serif" font-size="10.00">alib/strings/substring.hpp</text>
</a>
</g>
</g>
<!-- Node37&#45;&gt;Node38 -->
<g id="edge61" class="edge"><title>Node37&#45;&gt;Node38</title>
<path fill="none" stroke="midnightblue" d="M495.773,-168.324C479.649,-159.703 454.7,-146.364 436.036,-136.386"/>
<polygon fill="midnightblue" stroke="midnightblue" points="437.656,-133.283 427.187,-131.655 434.356,-139.456 437.656,-133.283"/>
</g>
<!-- Node39 -->
<g id="node43" class="node"><title>Node39</title>
<polygon fill="white" stroke="#bfbfbf" points="491.5,-112.5 491.5,-131.5 532.5,-131.5 532.5,-112.5 491.5,-112.5"/>
<text text-anchor="middle" x="512" y="-119.5" font-family="Helvetica,sans-Serif" font-size="10.00">ctime</text>
</g>
<!-- Node37&#45;&gt;Node39 -->
<g id="edge62" class="edge"><title>Node37&#45;&gt;Node39</title>
<path fill="none" stroke="midnightblue" d="M512,-168.083C512,-161.006 512,-150.861 512,-141.986"/>
<polygon fill="midnightblue" stroke="midnightblue" points="515.5,-141.751 512,-131.751 508.5,-141.751 515.5,-141.751"/>
</g>
<!-- Node38&#45;&gt;Node3 -->
<g id="edge63" class="edge"><title>Node38&#45;&gt;Node3</title>
<path fill="none" stroke="midnightblue" d="M473.702,-112.896C476.505,-112.583 479.281,-112.282 482,-112 671.76,-92.2902 898.78,-76.2259 992.838,-69.8999"/>
<polygon fill="midnightblue" stroke="midnightblue" points="993.103,-73.3901 1002.85,-69.2298 992.635,-66.4057 993.103,-73.3901"/>
</g>
</g>
</svg>
