<?xml version="1.0" encoding="UTF-8" standalone="no"?>
<!DOCTYPE svg PUBLIC "-//W3C//DTD SVG 1.1//EN"
 "http://www.w3.org/Graphics/SVG/1.1/DTD/svg11.dtd">
<!-- Generated by graphviz version 2.40.1 (20161225.0304)
 -->
<!-- Title: lox.hpp Pages: 1 -->
<svg width="3454pt" height="420pt"
 viewBox="0.00 0.00 3454.00 420.00" xmlns="http://www.w3.org/2000/svg" xmlns:xlink="http://www.w3.org/1999/xlink">
<g id="graph0" class="graph" transform="scale(1 1) rotate(0) translate(4 416)">
<title>lox.hpp</title>
<polygon fill="#ffffff" stroke="transparent" points="-4,4 -4,-416 3450,-416 3450,4 -4,4"/>
<!-- Node0 -->
<g id="node1" class="node">
<title>Node0</title>
<polygon fill="#bfbfbf" stroke="#000000" points="871,-392.5 871,-411.5 919,-411.5 919,-392.5 871,-392.5"/>
<text text-anchor="middle" x="895" y="-399.5" font-family="Helvetica,sans-Serif" font-size="10.00" fill="#000000">lox.hpp</text>
</g>
<!-- Node1 -->
<g id="node2" class="node">
<title>Node1</title>
<g id="a_node2"><a xlink:href="alox_8hpp.html" target="_top" xlink:title="alox/alox.hpp">
<polygon fill="#ffffff" stroke="#000000" points="1769,-280.5 1769,-299.5 1843,-299.5 1843,-280.5 1769,-280.5"/>
<text text-anchor="middle" x="1806" y="-287.5" font-family="Helvetica,sans-Serif" font-size="10.00" fill="#000000">alox/alox.hpp</text>
</a>
</g>
</g>
<!-- Node0&#45;&gt;Node1 -->
<g id="edge1" class="edge">
<title>Node0&#45;&gt;Node1</title>
<path fill="none" stroke="#191970" d="M919.2865,-398.7087C1041.939,-382.9575 1592.6756,-315.2229 1758.6066,-295.443"/>
<polygon fill="#191970" stroke="#191970" points="1759.4544,-298.867 1768.9711,-294.2106 1758.6277,-291.9159 1759.4544,-298.867"/>
</g>
<!-- Node39 -->
<g id="node3" class="node">
<title>Node39</title>
<g id="a_node3"><a xlink:href="configuration_8hpp.html" target="_top" xlink:title="alib/config/configuration.hpp">
<polygon fill="#ffffff" stroke="#000000" points="646,-224.5 646,-243.5 784,-243.5 784,-224.5 646,-224.5"/>
<text text-anchor="middle" x="715" y="-231.5" font-family="Helvetica,sans-Serif" font-size="10.00" fill="#000000">alib/config/configuration.hpp</text>
</a>
</g>
</g>
<!-- Node0&#45;&gt;Node39 -->
<g id="edge2" class="edge">
<title>Node0&#45;&gt;Node39</title>
<path fill="none" stroke="#191970" d="M884.8067,-392.4862C855.4906,-365.1246 770.6637,-285.9528 733.1781,-250.9663"/>
<polygon fill="#191970" stroke="#191970" points="735.2286,-248.0924 725.5299,-243.8279 730.4523,-253.2098 735.2286,-248.0924"/>
</g>
<!-- Node45 -->
<g id="node4" class="node">
<title>Node45</title>
<polygon fill="#ffffff" stroke="#bfbfbf" points="87.5,-56.5 87.5,-75.5 122.5,-75.5 122.5,-56.5 87.5,-56.5"/>
<text text-anchor="middle" x="105" y="-63.5" font-family="Helvetica,sans-Serif" font-size="10.00" fill="#000000">map</text>
</g>
<!-- Node0&#45;&gt;Node45 -->
<g id="edge3" class="edge">
<title>Node0&#45;&gt;Node45</title>
<path fill="none" stroke="#191970" d="M870.5967,-401.5826C727.1542,-398.8158 0,-380.3351 0,-290 0,-290 0,-290 0,-234 0,-170.179 55.1637,-110.614 85.5232,-82.6648"/>
<polygon fill="#191970" stroke="#191970" points="88.2488,-84.9222 93.362,-75.6428 83.5782,-79.7082 88.2488,-84.9222"/>
</g>
<!-- Node55 -->
<g id="node5" class="node">
<title>Node55</title>
<g id="a_node5"><a xlink:href="smartlock_8hpp.html" target="_top" xlink:title="alib/threads/smartlock.hpp">
<polygon fill="#ffffff" stroke="#000000" points="28.5,-224.5 28.5,-243.5 159.5,-243.5 159.5,-224.5 28.5,-224.5"/>
<text text-anchor="middle" x="94" y="-231.5" font-family="Helvetica,sans-Serif" font-size="10.00" fill="#000000">alib/threads/smartlock.hpp</text>
</a>
</g>
</g>
<!-- Node0&#45;&gt;Node55 -->
<g id="edge4" class="edge">
<title>Node0&#45;&gt;Node55</title>
<path fill="none" stroke="#191970" d="M870.8713,-400.9683C776.0872,-396.7757 429.2328,-380.0828 322,-356 253.3802,-340.5891 234.8304,-335.2963 174,-300 150.1286,-286.1488 126.1628,-265.2231 110.7738,-250.6604"/>
<polygon fill="#191970" stroke="#191970" points="113.1813,-248.1197 103.554,-243.6962 108.3215,-253.1578 113.1813,-248.1197"/>
</g>
<!-- Node56 -->
<g id="node6" class="node">
<title>Node56</title>
<g id="a_node6"><a xlink:href="tokenizer_8hpp.html" target="_top" xlink:title="alib/strings/util/tokenizer.hpp">
<polygon fill="#ffffff" stroke="#000000" points="564,-280.5 564,-299.5 704,-299.5 704,-280.5 564,-280.5"/>
<text text-anchor="middle" x="634" y="-287.5" font-family="Helvetica,sans-Serif" font-size="10.00" fill="#000000">alib/strings/util/tokenizer.hpp</text>
</a>
</g>
</g>
<!-- Node0&#45;&gt;Node56 -->
<g id="edge5" class="edge">
<title>Node0&#45;&gt;Node56</title>
<path fill="none" stroke="#191970" d="M870.8742,-394.9061C843.7297,-386.6528 798.5275,-372.0869 761,-356 724.7504,-340.4609 684.6306,-318.8194 659.3746,-304.616"/>
<polygon fill="#191970" stroke="#191970" points="660.8875,-301.4504 650.4618,-299.5648 657.4361,-307.5404 660.8875,-301.4504"/>
</g>
<!-- Node57 -->
<g id="node7" class="node">
<title>Node57</title>
<g id="a_node7"><a xlink:href="scopeinfo_8hpp.html" target="_top" xlink:title="alox/core/scopeinfo.hpp">
<polygon fill="#ffffff" stroke="#000000" points="331,-336.5 331,-355.5 451,-355.5 451,-336.5 331,-336.5"/>
<text text-anchor="middle" x="391" y="-343.5" font-family="Helvetica,sans-Serif" font-size="10.00" fill="#000000">alox/core/scopeinfo.hpp</text>
</a>
</g>
</g>
<!-- Node0&#45;&gt;Node57 -->
<g id="edge6" class="edge">
<title>Node0&#45;&gt;Node57</title>
<path fill="none" stroke="#191970" d="M870.691,-399.299C797.3008,-391.1445 575.9997,-366.5555 461.4344,-353.826"/>
<polygon fill="#191970" stroke="#191970" points="461.6853,-350.3325 451.36,-352.7067 460.9123,-357.2897 461.6853,-350.3325"/>
</g>
<!-- Node61 -->
<g id="node8" class="node">
<title>Node61</title>
<g id="a_node8"><a xlink:href="logger_8hpp.html" target="_top" xlink:title="alox/core/logger.hpp">
<polygon fill="#ffffff" stroke="#000000" points="1691,-336.5 1691,-355.5 1795,-355.5 1795,-336.5 1691,-336.5"/>
<text text-anchor="middle" x="1743" y="-343.5" font-family="Helvetica,sans-Serif" font-size="10.00" fill="#000000">alox/core/logger.hpp</text>
</a>
</g>
</g>
<!-- Node0&#45;&gt;Node61 -->
<g id="edge7" class="edge">
<title>Node0&#45;&gt;Node61</title>
<path fill="none" stroke="#191970" d="M919.013,-400.4142C1031.5355,-392.9835 1508.3778,-361.4939 1680.6169,-350.1196"/>
<polygon fill="#191970" stroke="#191970" points="1681.038,-353.5995 1690.7856,-349.4481 1680.5766,-346.6148 1681.038,-353.5995"/>
</g>
<!-- Node62 -->
<g id="node9" class="node">
<title>Node62</title>
<g id="a_node9"><a xlink:href="domain_8hpp.html" target="_top" xlink:title="alox/core/domain.hpp">
<polygon fill="#ffffff" stroke="#000000" points="1813,-336.5 1813,-355.5 1923,-355.5 1923,-336.5 1813,-336.5"/>
<text text-anchor="middle" x="1868" y="-343.5" font-family="Helvetica,sans-Serif" font-size="10.00" fill="#000000">alox/core/domain.hpp</text>
</a>
</g>
</g>
<!-- Node0&#45;&gt;Node62 -->
<g id="edge8" class="edge">
<title>Node0&#45;&gt;Node62</title>
<path fill="none" stroke="#191970" d="M919.3008,-401.7012C1023.8643,-400.2214 1445.9475,-392.262 1802.8798,-356.0109"/>
<polygon fill="#191970" stroke="#191970" points="1803.2985,-359.4864 1812.8895,-354.9851 1802.5848,-352.5229 1803.2985,-359.4864"/>
</g>
<!-- Node63 -->
<g id="node10" class="node">
<title>Node63</title>
<g id="a_node10"><a xlink:href="scopestore_8hpp.html" target="_top" xlink:title="alox/core/scopestore.hpp">
<polygon fill="#ffffff" stroke="#000000" points="893,-336.5 893,-355.5 1019,-355.5 1019,-336.5 893,-336.5"/>
<text text-anchor="middle" x="956" y="-343.5" font-family="Helvetica,sans-Serif" font-size="10.00" fill="#000000">alox/core/scopestore.hpp</text>
</a>
</g>
</g>
<!-- Node0&#45;&gt;Node63 -->
<g id="edge9" class="edge">
<title>Node0&#45;&gt;Node63</title>
<path fill="none" stroke="#191970" d="M905.6254,-392.2455C914.5473,-384.0549 927.488,-372.1749 938.0192,-362.5069"/>
<polygon fill="#191970" stroke="#191970" points="940.4968,-364.9837 945.4964,-355.6427 935.7629,-359.8271 940.4968,-364.9837"/>
</g>
<!-- Node1&#45;&gt;Node0 -->
<g id="edge10" class="edge">
<title>Node1&#45;&gt;Node0</title>
<path fill="none" stroke="#191970" d="M1768.8249,-294.9376C1620.436,-313.8099 1072.4354,-381.1696 929.3121,-398.1113"/>
<polygon fill="#191970" stroke="#191970" points="928.8617,-394.6401 919.3403,-399.2869 929.6814,-401.5919 928.8617,-394.6401"/>
</g>
<!-- Node1&#45;&gt;Node39 -->
<g id="edge15" class="edge">
<title>Node1&#45;&gt;Node39</title>
<path fill="none" stroke="#191970" d="M1768.7609,-288.0886C1612.9812,-280.0925 1011.6029,-249.2243 794.0866,-238.0594"/>
<polygon fill="#191970" stroke="#191970" points="794.1884,-234.5602 784.0221,-237.5428 793.8296,-241.5509 794.1884,-234.5602"/>
</g>
<!-- Node2 -->
<g id="node11" class="node">
<title>Node2</title>
<g id="a_node11"><a xlink:href="alib_8hpp.html" target="_top" xlink:title="alib/alib.hpp">
<polygon fill="#ffffff" stroke="#000000" points="1951,-224.5 1951,-243.5 2019,-243.5 2019,-224.5 1951,-224.5"/>
<text text-anchor="middle" x="1985" y="-231.5" font-family="Helvetica,sans-Serif" font-size="10.00" fill="#000000">alib/alib.hpp</text>
</a>
</g>
</g>
<!-- Node1&#45;&gt;Node2 -->
<g id="edge11" class="edge">
<title>Node1&#45;&gt;Node2</title>
<path fill="none" stroke="#191970" d="M1836.7712,-280.3733C1866.665,-271.021 1912.2093,-256.7725 1944.9217,-246.5385"/>
<polygon fill="#191970" stroke="#191970" points="1946.1315,-249.8273 1954.6303,-243.5011 1944.0414,-243.1466 1946.1315,-249.8273"/>
</g>
<!-- Node13 -->
<g id="node12" class="node">
<title>Node13</title>
<polygon fill="#ffffff" stroke="#bfbfbf" points="1005,-.5 1005,-19.5 1049,-19.5 1049,-.5 1005,-.5"/>
<text text-anchor="middle" x="1027" y="-7.5" font-family="Helvetica,sans-Serif" font-size="10.00" fill="#000000">vector</text>
</g>
<!-- Node1&#45;&gt;Node13 -->
<g id="edge12" class="edge">
<title>Node1&#45;&gt;Node13</title>
<path fill="none" stroke="#191970" d="M1768.8906,-287.5359C1631.4115,-277.9201 1159,-240.3421 1159,-178 1159,-178 1159,-178 1159,-122 1159,-69.4966 1097.5309,-36.4946 1058.4862,-20.8279"/>
<polygon fill="#191970" stroke="#191970" points="1059.6838,-17.5386 1049.0938,-17.2171 1057.1719,-24.0724 1059.6838,-17.5386"/>
</g>
<!-- Node37 -->
<g id="node13" class="node">
<title>Node37</title>
<g id="a_node13"><a xlink:href="alox__symbols_8hpp.html" target="_top" xlink:title="internals/alox_symbols.hpp">
<polygon fill="#ffffff" stroke="#000000" points="2103.5,-224.5 2103.5,-243.5 2238.5,-243.5 2238.5,-224.5 2103.5,-224.5"/>
<text text-anchor="middle" x="2171" y="-231.5" font-family="Helvetica,sans-Serif" font-size="10.00" fill="#000000">internals/alox_symbols.hpp</text>
</a>
</g>
</g>
<!-- Node1&#45;&gt;Node37 -->
<g id="edge13" class="edge">
<title>Node1&#45;&gt;Node37</title>
<path fill="none" stroke="#191970" d="M1843.0068,-284.3222C1902.847,-275.1413 2021.9087,-256.8743 2098.9256,-245.058"/>
<polygon fill="#191970" stroke="#191970" points="2099.6824,-248.4829 2109.0359,-243.5068 2098.6208,-241.5639 2099.6824,-248.4829"/>
</g>
<!-- Node38 -->
<g id="node14" class="node">
<title>Node38</title>
<g id="a_node14"><a xlink:href="alox__macros_8hpp.html" target="_top" xlink:title="internals/alox_macros.hpp">
<polygon fill="#ffffff" stroke="#000000" points="2256.5,-224.5 2256.5,-243.5 2387.5,-243.5 2387.5,-224.5 2256.5,-224.5"/>
<text text-anchor="middle" x="2322" y="-231.5" font-family="Helvetica,sans-Serif" font-size="10.00" fill="#000000">internals/alox_macros.hpp</text>
</a>
</g>
</g>
<!-- Node1&#45;&gt;Node38 -->
<g id="edge14" class="edge">
<title>Node1&#45;&gt;Node38</title>
<path fill="none" stroke="#191970" d="M1843.0056,-286.535C1917.3521,-279.4904 2090.3995,-262.674 2246.0217,-244.2105"/>
<polygon fill="#191970" stroke="#191970" points="2246.7303,-247.6509 2256.2458,-242.992 2245.9019,-240.7001 2246.7303,-247.6509"/>
</g>
<!-- Node53 -->
<g id="node15" class="node">
<title>Node53</title>
<g id="a_node15"><a xlink:href="aloxtypesandenums_8hpp.html" target="_top" xlink:title="aloxtypesandenums.hpp">
<polygon fill="#ffffff" stroke="#000000" points="2406,-224.5 2406,-243.5 2528,-243.5 2528,-224.5 2406,-224.5"/>
<text text-anchor="middle" x="2467" y="-231.5" font-family="Helvetica,sans-Serif" font-size="10.00" fill="#000000">aloxtypesandenums.hpp</text>
</a>
</g>
</g>
<!-- Node1&#45;&gt;Node53 -->
<g id="edge16" class="edge">
<title>Node1&#45;&gt;Node53</title>
<path fill="none" stroke="#191970" d="M1843.0738,-287.9442C1934.8592,-282.6772 2180.2343,-267.5151 2395.7085,-244.0797"/>
<polygon fill="#191970" stroke="#191970" points="2396.3868,-247.5264 2405.9459,-242.9574 2395.624,-240.568 2396.3868,-247.5264"/>
</g>
<!-- Node54 -->
<g id="node16" class="node">
<title>Node54</title>
<g id="a_node16"><a xlink:href="log_8hpp.html" target="_top" xlink:title="log.hpp">
<polygon fill="#ffffff" stroke="#000000" points="2037,-224.5 2037,-243.5 2085,-243.5 2085,-224.5 2037,-224.5"/>
<text text-anchor="middle" x="2061" y="-231.5" font-family="Helvetica,sans-Serif" font-size="10.00" fill="#000000">log.hpp</text>
</a>
</g>
</g>
<!-- Node1&#45;&gt;Node54 -->
<g id="edge17" class="edge">
<title>Node1&#45;&gt;Node54</title>
<path fill="none" stroke="#191970" d="M1843.2918,-282.0781C1886.062,-273.7091 1957.7792,-259.585 2019,-244 2021.5762,-243.3442 2024.2516,-242.615 2026.9612,-241.8576"/>
<polygon fill="#191970" stroke="#191970" points="2028.138,-245.1621 2036.8074,-239.0717 2026.2322,-238.4265 2028.138,-245.1621"/>
</g>
<!-- Node39&#45;&gt;Node13 -->
<g id="edge39" class="edge">
<title>Node39&#45;&gt;Node13</title>
<path fill="none" stroke="#191970" d="M740.6207,-224.4294C761.4197,-216.1471 791.1097,-203.1379 815,-188 894.2986,-137.7532 976.015,-60.549 1010.2886,-26.7826"/>
<polygon fill="#191970" stroke="#191970" points="1012.9587,-29.0638 1017.5912,-19.5353 1008.0278,-24.0952 1012.9587,-29.0638"/>
</g>
<!-- Node40 -->
<g id="node37" class="node">
<title>Node40</title>
<g id="a_node37"><a xlink:href="threadlock_8hpp.html" target="_top" xlink:title="alib/threads/threadlock.hpp">
<polygon fill="#ffffff" stroke="#ff0000" points="133,-168.5 133,-187.5 267,-187.5 267,-168.5 133,-168.5"/>
<text text-anchor="middle" x="200" y="-175.5" font-family="Helvetica,sans-Serif" font-size="10.00" fill="#000000">alib/threads/threadlock.hpp</text>
</a>
</g>
</g>
<!-- Node39&#45;&gt;Node40 -->
<g id="edge40" class="edge">
<title>Node39&#45;&gt;Node40</title>
<path fill="none" stroke="#191970" d="M645.8122,-226.4767C549.9372,-216.0514 377.223,-197.2709 277.246,-186.3996"/>
<polygon fill="#191970" stroke="#191970" points="277.5286,-182.9097 267.2088,-185.3081 276.7718,-189.8687 277.5286,-182.9097"/>
</g>
<!-- Node48 -->
<g id="node38" class="node">
<title>Node48</title>
<g id="a_node38"><a xlink:href="substring_8hpp.html" target="_top" xlink:title="alib/strings/substring.hpp">
<polygon fill="#ffffff" stroke="#000000" points="539.5,-56.5 539.5,-75.5 664.5,-75.5 664.5,-56.5 539.5,-56.5"/>
<text text-anchor="middle" x="602" y="-63.5" font-family="Helvetica,sans-Serif" font-size="10.00" fill="#000000">alib/strings/substring.hpp</text>
</a>
</g>
</g>
<!-- Node39&#45;&gt;Node48 -->
<g id="edge41" class="edge">
<title>Node39&#45;&gt;Node48</title>
<path fill="none" stroke="#191970" d="M746.4232,-224.4233C776.3607,-213.5221 814.7113,-193.8271 799,-168 768.7269,-118.2354 705.4645,-91.6703 658.7585,-78.2621"/>
<polygon fill="#191970" stroke="#191970" points="659.6311,-74.8722 649.0611,-75.5971 657.7761,-81.622 659.6311,-74.8722"/>
</g>
<!-- Node49 -->
<g id="node39" class="node">
<title>Node49</title>
<g id="a_node39"><a xlink:href="numberformat_8hpp.html" target="_top" xlink:title="alib/strings/numberformat.hpp">
<polygon fill="#ffffff" stroke="#000000" points="475,-168.5 475,-187.5 621,-187.5 621,-168.5 475,-168.5"/>
<text text-anchor="middle" x="548" y="-175.5" font-family="Helvetica,sans-Serif" font-size="10.00" fill="#000000">alib/strings/numberformat.hpp</text>
</a>
</g>
</g>
<!-- Node39&#45;&gt;Node49 -->
<g id="edge42" class="edge">
<title>Node39&#45;&gt;Node49</title>
<path fill="none" stroke="#191970" d="M686.2917,-224.3733C658.6423,-215.1016 616.6424,-201.0178 586.1834,-190.804"/>
<polygon fill="#191970" stroke="#191970" points="586.9276,-187.3621 576.3337,-187.5011 584.7021,-193.9989 586.9276,-187.3621"/>
</g>
<!-- Node50 -->
<g id="node40" class="node">
<title>Node50</title>
<g id="a_node40"><a xlink:href="variable_8hpp.html" target="_top" xlink:title="alib/config/variable.hpp">
<polygon fill="#ffffff" stroke="#000000" points="405,-56.5 405,-75.5 521,-75.5 521,-56.5 405,-56.5"/>
<text text-anchor="middle" x="463" y="-63.5" font-family="Helvetica,sans-Serif" font-size="10.00" fill="#000000">alib/config/variable.hpp</text>
</a>
</g>
</g>
<!-- Node39&#45;&gt;Node50 -->
<g id="edge43" class="edge">
<title>Node39&#45;&gt;Node50</title>
<path fill="none" stroke="#191970" d="M645.701,-231.0365C578.1729,-226.5585 482.2335,-215.4302 458,-188 432.9713,-159.6698 445.2385,-111.6092 454.9864,-85.0534"/>
<polygon fill="#191970" stroke="#191970" points="458.2573,-86.2992 458.642,-75.7113 451.7386,-83.7483 458.2573,-86.2992"/>
</g>
<!-- Node51 -->
<g id="node41" class="node">
<title>Node51</title>
<g id="a_node41"><a xlink:href="plugins_8hpp.html" target="_top" xlink:title="alib/config/plugins.hpp">
<polygon fill="#ffffff" stroke="#000000" points="464.5,-112.5 464.5,-131.5 577.5,-131.5 577.5,-112.5 464.5,-112.5"/>
<text text-anchor="middle" x="521" y="-119.5" font-family="Helvetica,sans-Serif" font-size="10.00" fill="#000000">alib/config/plugins.hpp</text>
</a>
</g>
</g>
<!-- Node39&#45;&gt;Node51 -->
<g id="edge44" class="edge">
<title>Node39&#45;&gt;Node51</title>
<path fill="none" stroke="#191970" d="M645.7053,-230.8497C580.1376,-226.2431 488.496,-215.0325 466,-188 451.3906,-170.4445 473.936,-150.2772 494.4152,-136.9035"/>
<polygon fill="#191970" stroke="#191970" points="496.2936,-139.8571 502.9512,-131.6153 492.607,-133.9065 496.2936,-139.8571"/>
</g>
<!-- Node52 -->
<g id="node42" class="node">
<title>Node52</title>
<g id="a_node42"><a xlink:href="inmemoryplugin_8hpp.html" target="_top" xlink:title="alib/config/inmemoryplugin.hpp">
<polygon fill="#ffffff" stroke="#000000" points="639.5,-168.5 639.5,-187.5 790.5,-187.5 790.5,-168.5 639.5,-168.5"/>
<text text-anchor="middle" x="715" y="-175.5" font-family="Helvetica,sans-Serif" font-size="10.00" fill="#000000">alib/config/inmemoryplugin.hpp</text>
</a>
</g>
</g>
<!-- Node39&#45;&gt;Node52 -->
<g id="edge45" class="edge">
<title>Node39&#45;&gt;Node52</title>
<path fill="none" stroke="#191970" d="M715,-224.2455C715,-216.9382 715,-206.6944 715,-197.7046"/>
<polygon fill="#191970" stroke="#191970" points="718.5001,-197.6426 715,-187.6427 711.5001,-197.6427 718.5001,-197.6426"/>
</g>
<!-- Node55&#45;&gt;Node13 -->
<g id="edge54" class="edge">
<title>Node55&#45;&gt;Node13</title>
<path fill="none" stroke="#191970" d="M88.7235,-224.2533C73.376,-194.4418 32.6278,-103.6247 78,-56 110.2895,-22.1074 831.6974,-12.151 994.5395,-10.3318"/>
<polygon fill="#191970" stroke="#191970" points="994.9034,-13.8281 1004.8646,-10.2191 994.8269,-6.8285 994.9034,-13.8281"/>
</g>
<!-- Node55&#45;&gt;Node40 -->
<g id="edge55" class="edge">
<title>Node55&#45;&gt;Node40</title>
<path fill="none" stroke="#191970" d="M112.4638,-224.2455C129.1074,-215.4527 153.7993,-202.4079 172.7192,-192.4125"/>
<polygon fill="#191970" stroke="#191970" points="174.5408,-195.4086 181.7478,-187.6427 171.2709,-189.2193 174.5408,-195.4086"/>
</g>
<!-- Node56&#45;&gt;Node48 -->
<g id="edge56" class="edge">
<title>Node56&#45;&gt;Node48</title>
<path fill="none" stroke="#191970" d="M598.0058,-280.4179C556.2846,-267.2125 489.2648,-239.0473 458,-188 440.3444,-159.173 434.9819,-139.2395 455,-112 465.5304,-97.6709 504.7942,-85.8149 540.0944,-77.7298"/>
<polygon fill="#191970" stroke="#191970" points="540.9139,-81.1332 549.9186,-75.5505 539.3979,-74.2993 540.9139,-81.1332"/>
</g>
<!-- Node57&#45;&gt;Node1 -->
<g id="edge57" class="edge">
<title>Node57&#45;&gt;Node1</title>
<path fill="none" stroke="#191970" d="M451.3481,-343.6117C687.6381,-334.2603 1547.3461,-300.2365 1758.7822,-291.8687"/>
<polygon fill="#191970" stroke="#191970" points="1759.0763,-295.3599 1768.9301,-291.4671 1758.7994,-288.3654 1759.0763,-295.3599"/>
</g>
<!-- Node57&#45;&gt;Node45 -->
<g id="edge59" class="edge">
<title>Node57&#45;&gt;Node45</title>
<path fill="none" stroke="#191970" d="M337.2112,-336.4567C307.3177,-329.4992 270.3475,-318.0556 241,-300 201.1093,-275.4579 202.4083,-255.7749 168,-224 149.4373,-206.858 136.5499,-209.9299 124,-188 105.5341,-155.7323 103.3683,-111.1896 103.8919,-85.8149"/>
<polygon fill="#191970" stroke="#191970" points="107.397,-85.7417 104.2729,-75.618 100.4019,-85.4803 107.397,-85.7417"/>
</g>
<!-- Node44 -->
<g id="node43" class="node">
<title>Node44</title>
<g id="a_node43"><a xlink:href="thread_8hpp.html" target="_top" xlink:title="thread.hpp">
<polygon fill="#ffffff" stroke="#ff0000" points="169,-112.5 169,-131.5 231,-131.5 231,-112.5 169,-112.5"/>
<text text-anchor="middle" x="200" y="-119.5" font-family="Helvetica,sans-Serif" font-size="10.00" fill="#000000">thread.hpp</text>
</a>
</g>
</g>
<!-- Node57&#45;&gt;Node44 -->
<g id="edge58" class="edge">
<title>Node57&#45;&gt;Node44</title>
<path fill="none" stroke="#191970" d="M344.5688,-336.4791C309.2334,-328.1809 264.8761,-315.1246 254,-300 234.2798,-272.5764 244.8513,-256.5152 254,-224 261.2427,-198.2589 289.1301,-191.2951 276,-168 267.862,-153.5618 253.1645,-143.1395 238.8484,-135.9057"/>
<polygon fill="#191970" stroke="#191970" points="240.113,-132.6342 229.5685,-131.6024 237.1681,-138.9846 240.113,-132.6342"/>
</g>
<!-- Node58 -->
<g id="node44" class="node">
<title>Node58</title>
<g id="a_node44"><a xlink:href="ticks_8hpp.html" target="_top" xlink:title="alib/time/ticks.hpp">
<polygon fill="#ffffff" stroke="#000000" points="407,-280.5 407,-299.5 503,-299.5 503,-280.5 407,-280.5"/>
<text text-anchor="middle" x="455" y="-287.5" font-family="Helvetica,sans-Serif" font-size="10.00" fill="#000000">alib/time/ticks.hpp</text>
</a>
</g>
</g>
<!-- Node57&#45;&gt;Node58 -->
<g id="edge60" class="edge">
<title>Node57&#45;&gt;Node58</title>
<path fill="none" stroke="#191970" d="M402.1479,-336.2455C411.5087,-328.0549 425.0858,-316.1749 436.1349,-306.5069"/>
<polygon fill="#191970" stroke="#191970" points="438.7588,-308.8618 443.9798,-299.6427 434.1492,-303.5937 438.7588,-308.8618"/>
</g>
<!-- Node60 -->
<g id="node45" class="node">
<title>Node60</title>
<g id="a_node45"><a xlink:href="directory_8hpp.html" target="_top" xlink:title="alib/system/directory.hpp">
<polygon fill="#ffffff" stroke="#000000" points="263.5,-280.5 263.5,-299.5 388.5,-299.5 388.5,-280.5 263.5,-280.5"/>
<text text-anchor="middle" x="326" y="-287.5" font-family="Helvetica,sans-Serif" font-size="10.00" fill="#000000">alib/system/directory.hpp</text>
</a>
</g>
</g>
<!-- Node57&#45;&gt;Node60 -->
<g id="edge61" class="edge">
<title>Node57&#45;&gt;Node60</title>
<path fill="none" stroke="#191970" d="M379.6779,-336.2455C370.0777,-327.9746 356.1108,-315.9416 344.8305,-306.2232"/>
<polygon fill="#191970" stroke="#191970" points="347.053,-303.5182 337.1924,-299.6427 342.484,-308.8214 347.053,-303.5182"/>
</g>
<!-- Node61&#45;&gt;Node1 -->
<g id="edge64" class="edge">
<title>Node61&#45;&gt;Node1</title>
<path fill="none" stroke="#191970" d="M1753.9738,-336.2455C1763.1882,-328.0549 1776.5532,-316.1749 1787.4297,-306.5069"/>
<polygon fill="#191970" stroke="#191970" points="1790.0032,-308.9023 1795.152,-299.6427 1785.3526,-303.6704 1790.0032,-308.9023"/>
</g>
<!-- Node61&#45;&gt;Node13 -->
<g id="edge65" class="edge">
<title>Node61&#45;&gt;Node13</title>
<path fill="none" stroke="#191970" d="M1795.1961,-337.0946C1798.1706,-336.6958 1801.1209,-336.3267 1804,-336 1892.7217,-325.9318 3408,-323.2911 3408,-234 3408,-234 3408,-234 3408,-122 3408,-60.3312 1342.5431,-16.3798 1059.0928,-10.6386"/>
<polygon fill="#191970" stroke="#191970" points="1059.1191,-7.1385 1049.0506,-10.4361 1058.978,-14.137 1059.1191,-7.1385"/>
</g>
<!-- Node62&#45;&gt;Node1 -->
<g id="edge66" class="edge">
<title>Node62&#45;&gt;Node1</title>
<path fill="none" stroke="#191970" d="M1857.2004,-336.2455C1848.1322,-328.0549 1834.9794,-316.1749 1824.2755,-306.5069"/>
<polygon fill="#191970" stroke="#191970" points="1826.4429,-303.7482 1816.6758,-299.6427 1821.7509,-308.9429 1826.4429,-303.7482"/>
</g>
<!-- Node62&#45;&gt;Node13 -->
<g id="edge67" class="edge">
<title>Node62&#45;&gt;Node13</title>
<path fill="none" stroke="#191970" d="M1923.0736,-345.0688C2133.1896,-341.347 2884.5087,-326.4478 3122,-300 3268.0544,-283.7349 3446,-380.9573 3446,-234 3446,-234 3446,-234 3446,-122 3446,14.1258 2972.8773,-64.22 2837,-56 2471.3511,-33.8797 1271.1949,-13.9084 1059.1551,-10.5085"/>
<polygon fill="#191970" stroke="#191970" points="1059.0553,-7.0066 1049.0006,-10.3463 1058.9434,-14.0057 1059.0553,-7.0066"/>
</g>
<!-- Node63&#45;&gt;Node1 -->
<g id="edge68" class="edge">
<title>Node63&#45;&gt;Node1</title>
<path fill="none" stroke="#191970" d="M1019.1937,-341.8366C1182.2842,-331.0919 1614.6349,-302.6076 1758.608,-293.1223"/>
<polygon fill="#191970" stroke="#191970" points="1759.118,-296.5964 1768.8662,-292.4465 1758.6578,-289.6115 1759.118,-296.5964"/>
</g>
<!-- Node64 -->
<g id="node47" class="node">
<title>Node64</title>
<g id="a_node47"><a xlink:href="stringtree_8hpp.html" target="_top" xlink:title="alib/containers/stringtree.hpp">
<polygon fill="#ffffff" stroke="#000000" points="885,-168.5 885,-187.5 1027,-187.5 1027,-168.5 885,-168.5"/>
<text text-anchor="middle" x="956" y="-175.5" font-family="Helvetica,sans-Serif" font-size="10.00" fill="#000000">alib/containers/stringtree.hpp</text>
</a>
</g>
</g>
<!-- Node63&#45;&gt;Node64 -->
<g id="edge69" class="edge">
<title>Node63&#45;&gt;Node64</title>
<path fill="none" stroke="#191970" d="M956,-336.4862C956,-309.9293 956,-234.5651 956,-198.1655"/>
<polygon fill="#191970" stroke="#191970" points="959.5001,-197.8278 956,-187.8279 952.5001,-197.8279 959.5001,-197.8278"/>
</g>
<!-- Node3 -->
<g id="node17" class="node">
<title>Node3</title>
<polygon fill="#ffffff" stroke="#bfbfbf" points="1959,-168.5 1959,-187.5 2011,-187.5 2011,-168.5 1959,-168.5"/>
<text text-anchor="middle" x="1985" y="-175.5" font-family="Helvetica,sans-Serif" font-size="10.00" fill="#000000">assert.h</text>
</g>
<!-- Node2&#45;&gt;Node3 -->
<g id="edge18" class="edge">
<title>Node2&#45;&gt;Node3</title>
<path fill="none" stroke="#191970" d="M1985,-224.2455C1985,-216.9382 1985,-206.6944 1985,-197.7046"/>
<polygon fill="#191970" stroke="#191970" points="1988.5001,-197.6426 1985,-187.6427 1981.5001,-197.6427 1988.5001,-197.6426"/>
</g>
<!-- Node4 -->
<g id="node18" class="node">
<title>Node4</title>
<polygon fill="#ffffff" stroke="#bfbfbf" points="2029,-168.5 2029,-187.5 2075,-187.5 2075,-168.5 2029,-168.5"/>
<text text-anchor="middle" x="2052" y="-175.5" font-family="Helvetica,sans-Serif" font-size="10.00" fill="#000000">cstdint</text>
</g>
<!-- Node2&#45;&gt;Node4 -->
<g id="edge19" class="edge">
<title>Node2&#45;&gt;Node4</title>
<path fill="none" stroke="#191970" d="M1996.6705,-224.2455C2006.5661,-215.9746 2020.9627,-203.9416 2032.5901,-194.2232"/>
<polygon fill="#191970" stroke="#191970" points="2035.035,-196.7413 2040.4632,-187.6427 2030.5458,-191.3703 2035.035,-196.7413"/>
</g>
<!-- Node5 -->
<g id="node19" class="node">
<title>Node5</title>
<g id="a_node19"><a xlink:href="prepro_8hpp.html" target="_top" xlink:title="alib/alib/prepro.hpp">
<polygon fill="#ffffff" stroke="#000000" points="2093,-168.5 2093,-187.5 2191,-187.5 2191,-168.5 2093,-168.5"/>
<text text-anchor="middle" x="2142" y="-175.5" font-family="Helvetica,sans-Serif" font-size="10.00" fill="#000000">alib/alib/prepro.hpp</text>
</a>
</g>
</g>
<!-- Node2&#45;&gt;Node5 -->
<g id="edge20" class="edge">
<title>Node2&#45;&gt;Node5</title>
<path fill="none" stroke="#191970" d="M2011.9893,-224.3733C2037.8699,-215.1419 2077.1248,-201.1402 2105.7289,-190.9375"/>
<polygon fill="#191970" stroke="#191970" points="2107.12,-194.1573 2115.3629,-187.5011 2104.7683,-187.5642 2107.12,-194.1573"/>
</g>
<!-- Node6 -->
<g id="node20" class="node">
<title>Node6</title>
<g id="a_node20"><a xlink:href="distribution_8hpp_source.html" target="_top" xlink:title="alib/distribution.hpp">
<polygon fill="#ffffff" stroke="#000000" points="2209.5,-168.5 2209.5,-187.5 2310.5,-187.5 2310.5,-168.5 2209.5,-168.5"/>
<text text-anchor="middle" x="2260" y="-175.5" font-family="Helvetica,sans-Serif" font-size="10.00" fill="#000000">alib/distribution.hpp</text>
</a>
</g>
</g>
<!-- Node2&#45;&gt;Node6 -->
<g id="edge21" class="edge">
<title>Node2&#45;&gt;Node6</title>
<path fill="none" stroke="#191970" d="M2019.2448,-225.9295C2022.2034,-225.2646 2025.1528,-224.6132 2028,-224 2085.9662,-211.5166 2152.3563,-198.4799 2199.2229,-189.4862"/>
<polygon fill="#191970" stroke="#191970" points="2200.0496,-192.8916 2209.213,-187.5736 2198.7333,-186.0164 2200.0496,-192.8916"/>
</g>
<!-- Node7 -->
<g id="node21" class="node">
<title>Node7</title>
<g id="a_node21"><a xlink:href="debug_8hpp.html" target="_top" xlink:title="alib/alib/debug.hpp">
<polygon fill="#ffffff" stroke="#000000" points="2329,-168.5 2329,-187.5 2427,-187.5 2427,-168.5 2329,-168.5"/>
<text text-anchor="middle" x="2378" y="-175.5" font-family="Helvetica,sans-Serif" font-size="10.00" fill="#000000">alib/alib/debug.hpp</text>
</a>
</g>
</g>
<!-- Node2&#45;&gt;Node7 -->
<g id="edge22" class="edge">
<title>Node2&#45;&gt;Node7</title>
<path fill="none" stroke="#191970" d="M2019.2003,-225.7024C2022.1685,-225.0868 2025.1323,-224.5088 2028,-224 2153.6066,-201.7162 2188.9327,-206.8404 2319.0308,-188.0767"/>
<polygon fill="#191970" stroke="#191970" points="2319.5904,-191.5322 2328.9789,-186.6224 2318.5777,-184.6059 2319.5904,-191.5322"/>
</g>
<!-- Node8 -->
<g id="node22" class="node">
<title>Node8</title>
<g id="a_node22"><a xlink:href="rtti_8hpp.html" target="_top" xlink:title="alib/lang/rtti.hpp">
<polygon fill="#ffffff" stroke="#ff0000" points="1045,-168.5 1045,-187.5 1131,-187.5 1131,-168.5 1045,-168.5"/>
<text text-anchor="middle" x="1088" y="-175.5" font-family="Helvetica,sans-Serif" font-size="10.00" fill="#000000">alib/lang/rtti.hpp</text>
</a>
</g>
</g>
<!-- Node2&#45;&gt;Node8 -->
<g id="edge23" class="edge">
<title>Node2&#45;&gt;Node8</title>
<path fill="none" stroke="#191970" d="M1950.7809,-232.6899C1839.456,-228.2903 1477.5512,-212.9061 1179,-188 1166.7498,-186.978 1153.5953,-185.6608 1141.2012,-184.32"/>
<polygon fill="#191970" stroke="#191970" points="1141.3293,-180.813 1131.0056,-183.1942 1140.561,-187.7707 1141.3293,-180.813"/>
</g>
<!-- Node12 -->
<g id="node23" class="node">
<title>Node12</title>
<g id="a_node23"><a xlink:href="singleton_8hpp.html" target="_top" xlink:title="alib/lang/singleton.hpp">
<polygon fill="#ffffff" stroke="#000000" points="1793.5,-56.5 1793.5,-75.5 1906.5,-75.5 1906.5,-56.5 1793.5,-56.5"/>
<text text-anchor="middle" x="1850" y="-63.5" font-family="Helvetica,sans-Serif" font-size="10.00" fill="#000000">alib/lang/singleton.hpp</text>
</a>
</g>
</g>
<!-- Node2&#45;&gt;Node12 -->
<g id="edge24" class="edge">
<title>Node2&#45;&gt;Node12</title>
<path fill="none" stroke="#191970" d="M2019.182,-225.5941C2022.1542,-225.0021 2025.1239,-224.459 2028,-224 2118.3731,-209.5777 2494.9028,-238.0412 2436,-168 2370.2662,-89.8362 2056.2709,-71.5661 1916.8987,-67.2989"/>
<polygon fill="#191970" stroke="#191970" points="1916.8677,-63.7966 1906.77,-67.0041 1916.6639,-70.7936 1916.8677,-63.7966"/>
</g>
<!-- Node14 -->
<g id="node24" class="node">
<title>Node14</title>
<g id="a_node24"><a xlink:href="types_8hpp.html" target="_top" xlink:title="alib/lang/types.hpp">
<polygon fill="#ffffff" stroke="#000000" points="2483,-168.5 2483,-187.5 2581,-187.5 2581,-168.5 2483,-168.5"/>
<text text-anchor="middle" x="2532" y="-175.5" font-family="Helvetica,sans-Serif" font-size="10.00" fill="#000000">alib/lang/types.hpp</text>
</a>
</g>
</g>
<!-- Node2&#45;&gt;Node14 -->
<g id="edge25" class="edge">
<title>Node2&#45;&gt;Node14</title>
<path fill="none" stroke="#191970" d="M2019.1788,-225.5736C2022.1516,-224.986 2025.1224,-224.4496 2028,-224 2222.2952,-193.6458 2273.7489,-211.4312 2469,-188 2470.2679,-187.8478 2471.5494,-187.6891 2472.8408,-187.5247"/>
<polygon fill="#191970" stroke="#191970" points="2473.4291,-190.9771 2482.8696,-186.1679 2472.4906,-184.0403 2473.4291,-190.9771"/>
</g>
<!-- Node15 -->
<g id="node25" class="node">
<title>Node15</title>
<g id="a_node25"><a xlink:href="boxing_8hpp.html" target="_top" xlink:title="alib/boxing/boxing.hpp">
<polygon fill="#ffffff" stroke="#ff0000" points="2599.5,-168.5 2599.5,-187.5 2712.5,-187.5 2712.5,-168.5 2599.5,-168.5"/>
<text text-anchor="middle" x="2656" y="-175.5" font-family="Helvetica,sans-Serif" font-size="10.00" fill="#000000">alib/boxing/boxing.hpp</text>
</a>
</g>
</g>
<!-- Node2&#45;&gt;Node15 -->
<g id="edge26" class="edge">
<title>Node2&#45;&gt;Node15</title>
<path fill="none" stroke="#191970" d="M2019.1705,-225.5188C2022.1451,-224.9431 2025.1186,-224.4244 2028,-224 2272.3539,-188.0105 2339.3868,-214.0651 2589.0537,-188.0037"/>
<polygon fill="#191970" stroke="#191970" points="2589.5842,-191.4672 2599.1588,-186.931 2588.8452,-184.5063 2589.5842,-191.4672"/>
</g>
<!-- Node23 -->
<g id="node26" class="node">
<title>Node23</title>
<g id="a_node26"><a xlink:href="enums_8hpp.html" target="_top" xlink:title="alib/lang/enums.hpp">
<polygon fill="#ffffff" stroke="#000000" points="2731,-168.5 2731,-187.5 2835,-187.5 2835,-168.5 2731,-168.5"/>
<text text-anchor="middle" x="2783" y="-175.5" font-family="Helvetica,sans-Serif" font-size="10.00" fill="#000000">alib/lang/enums.hpp</text>
</a>
</g>
</g>
<!-- Node2&#45;&gt;Node23 -->
<g id="edge27" class="edge">
<title>Node2&#45;&gt;Node23</title>
<path fill="none" stroke="#191970" d="M2019.165,-225.4808C2022.1408,-224.9133 2025.1161,-224.4069 2028,-224 2330.545,-181.3149 2413.1445,-220.1797 2720.7088,-188.0188"/>
<polygon fill="#191970" stroke="#191970" points="2721.2341,-191.4828 2730.8083,-186.9458 2720.4945,-184.522 2721.2341,-191.4828"/>
</g>
<!-- Node24 -->
<g id="node27" class="node">
<title>Node24</title>
<g id="a_node27"><a xlink:href="cstring_8hpp.html" target="_top" xlink:title="alib/strings/cstring.hpp">
<polygon fill="#ffffff" stroke="#ff0000" points="2853.5,-168.5 2853.5,-187.5 2968.5,-187.5 2968.5,-168.5 2853.5,-168.5"/>
<text text-anchor="middle" x="2911" y="-175.5" font-family="Helvetica,sans-Serif" font-size="10.00" fill="#000000">alib/strings/cstring.hpp</text>
</a>
</g>
</g>
<!-- Node2&#45;&gt;Node24 -->
<g id="edge28" class="edge">
<title>Node2&#45;&gt;Node24</title>
<path fill="none" stroke="#191970" d="M2019.1616,-225.4565C2022.1382,-224.8943 2025.1145,-224.3957 2028,-224 2384.4042,-175.1216 2480.9184,-221.9791 2843.3261,-187.9517"/>
<polygon fill="#191970" stroke="#191970" points="2843.6806,-191.4338 2853.3034,-187.0008 2843.0165,-184.4654 2843.6806,-191.4338"/>
</g>
<!-- Node27 -->
<g id="node28" class="node">
<title>Node27</title>
<g id="a_node28"><a xlink:href="string_8hpp.html" target="_top" xlink:title="alib/strings/string.hpp">
<polygon fill="#ffffff" stroke="#000000" points="2987,-168.5 2987,-187.5 3097,-187.5 3097,-168.5 2987,-168.5"/>
<text text-anchor="middle" x="3042" y="-175.5" font-family="Helvetica,sans-Serif" font-size="10.00" fill="#000000">alib/strings/string.hpp</text>
</a>
</g>
</g>
<!-- Node2&#45;&gt;Node27 -->
<g id="edge29" class="edge">
<title>Node2&#45;&gt;Node27</title>
<path fill="none" stroke="#191970" d="M2019.159,-225.437C2022.1361,-224.879 2025.1133,-224.3868 2028,-224 2443.5115,-168.3299 2555.6902,-227.7411 2976.8867,-187.9874"/>
<polygon fill="#191970" stroke="#191970" points="2977.2729,-191.4665 2986.894,-187.0297 2976.606,-184.4983 2977.2729,-191.4665"/>
</g>
<!-- Node28 -->
<g id="node29" class="node">
<title>Node28</title>
<g id="a_node29"><a xlink:href="tstring_8hpp.html" target="_top" xlink:title="alib/strings/tstring.hpp">
<polygon fill="#ffffff" stroke="#000000" points="3115.5,-168.5 3115.5,-187.5 3228.5,-187.5 3228.5,-168.5 3115.5,-168.5"/>
<text text-anchor="middle" x="3172" y="-175.5" font-family="Helvetica,sans-Serif" font-size="10.00" fill="#000000">alib/strings/tstring.hpp</text>
</a>
</g>
</g>
<!-- Node2&#45;&gt;Node28 -->
<g id="edge30" class="edge">
<title>Node2&#45;&gt;Node28</title>
<path fill="none" stroke="#191970" d="M2019.1571,-225.4229C2022.1346,-224.868 2025.1124,-224.3803 2028,-224 2499.9096,-161.8527 2626.8509,-230.9893 3104.89,-187.9793"/>
<polygon fill="#191970" stroke="#191970" points="3105.529,-191.4357 3115.1699,-187.0421 3104.8934,-184.4646 3105.529,-191.4357"/>
</g>
<!-- Node29 -->
<g id="node30" class="node">
<title>Node29</title>
<g id="a_node30"><a xlink:href="stringliteral_8hpp.html" target="_top" xlink:title="alib/strings/stringliteral.hpp">
<polygon fill="#ffffff" stroke="#000000" points="3246.5,-168.5 3246.5,-187.5 3379.5,-187.5 3379.5,-168.5 3246.5,-168.5"/>
<text text-anchor="middle" x="3313" y="-175.5" font-family="Helvetica,sans-Serif" font-size="10.00" fill="#000000">alib/strings/stringliteral.hpp</text>
</a>
</g>
</g>
<!-- Node2&#45;&gt;Node29 -->
<g id="edge31" class="edge">
<title>Node2&#45;&gt;Node29</title>
<path fill="none" stroke="#191970" d="M2019.1556,-225.4114C2022.1335,-224.859 2025.1117,-224.375 2028,-224 2558.1504,-155.164 2699.9587,-230.6405 3236.0593,-188.0742"/>
<polygon fill="#191970" stroke="#191970" points="3236.6948,-191.5345 3246.382,-187.2439 3236.1335,-184.557 3236.6948,-191.5345"/>
</g>
<!-- Node30 -->
<g id="node31" class="node">
<title>Node30</title>
<g id="a_node31"><a xlink:href="astring_8hpp.html" target="_top" xlink:title="alib/strings/astring.hpp">
<polygon fill="#ffffff" stroke="#ff0000" points="1187.5,-168.5 1187.5,-187.5 1302.5,-187.5 1302.5,-168.5 1187.5,-168.5"/>
<text text-anchor="middle" x="1245" y="-175.5" font-family="Helvetica,sans-Serif" font-size="10.00" fill="#000000">alib/strings/astring.hpp</text>
</a>
</g>
</g>
<!-- Node2&#45;&gt;Node30 -->
<g id="edge32" class="edge">
<title>Node2&#45;&gt;Node30</title>
<path fill="none" stroke="#191970" d="M1950.9504,-232.6358C1853.3358,-228.5204 1563.9735,-214.8932 1312.7534,-187.997"/>
<polygon fill="#191970" stroke="#191970" points="1313.0237,-184.5059 1302.7057,-186.9119 1312.2721,-191.4654 1313.0237,-184.5059"/>
</g>
<!-- Node32 -->
<g id="node32" class="node">
<title>Node32</title>
<g id="a_node32"><a xlink:href="preallocatedstring_8hpp.html" target="_top" xlink:title="alib/strings/preallocatedstring.hpp">
<polygon fill="#ffffff" stroke="#000000" points="1321,-168.5 1321,-187.5 1483,-187.5 1483,-168.5 1321,-168.5"/>
<text text-anchor="middle" x="1402" y="-175.5" font-family="Helvetica,sans-Serif" font-size="10.00" fill="#000000">alib/strings/preallocatedstring.hpp</text>
</a>
</g>
</g>
<!-- Node2&#45;&gt;Node32 -->
<g id="edge33" class="edge">
<title>Node2&#45;&gt;Node32</title>
<path fill="none" stroke="#191970" d="M1950.9111,-231.0277C1872.2891,-224.1277 1671.935,-206.2892 1493.5226,-188.1421"/>
<polygon fill="#191970" stroke="#191970" points="1493.7317,-184.6454 1483.4282,-187.1126 1493.0214,-191.6093 1493.7317,-184.6454"/>
</g>
<!-- Node33 -->
<g id="node33" class="node">
<title>Node33</title>
<g id="a_node33"><a xlink:href="stringboxing_8hpp.html" target="_top" xlink:title="alib/strings/boxing/stringboxing.hpp">
<polygon fill="#ffffff" stroke="#000000" points="1501,-168.5 1501,-187.5 1671,-187.5 1671,-168.5 1501,-168.5"/>
<text text-anchor="middle" x="1586" y="-175.5" font-family="Helvetica,sans-Serif" font-size="10.00" fill="#000000">alib/strings/boxing/stringboxing.hpp</text>
</a>
</g>
</g>
<!-- Node2&#45;&gt;Node33 -->
<g id="edge34" class="edge">
<title>Node2&#45;&gt;Node33</title>
<path fill="none" stroke="#191970" d="M1950.9815,-229.2255C1887.806,-220.3587 1750.8955,-201.1432 1663.887,-188.9315"/>
<polygon fill="#191970" stroke="#191970" points="1664.1838,-185.4389 1653.7943,-187.515 1663.2108,-192.371 1664.1838,-185.4389"/>
</g>
<!-- Node34 -->
<g id="node34" class="node">
<title>Node34</title>
<g id="a_node34"><a xlink:href="report_8hpp.html" target="_top" xlink:title="alib/lang/report.hpp">
<polygon fill="#ffffff" stroke="#ff0000" points="1689.5,-168.5 1689.5,-187.5 1788.5,-187.5 1788.5,-168.5 1689.5,-168.5"/>
<text text-anchor="middle" x="1739" y="-175.5" font-family="Helvetica,sans-Serif" font-size="10.00" fill="#000000">alib/lang/report.hpp</text>
</a>
</g>
</g>
<!-- Node2&#45;&gt;Node34 -->
<g id="edge35" class="edge">
<title>Node2&#45;&gt;Node34</title>
<path fill="none" stroke="#191970" d="M1950.7948,-226.2134C1909.3818,-216.7861 1839.2134,-200.8128 1791.0698,-189.8533"/>
<polygon fill="#191970" stroke="#191970" points="1791.6765,-186.4019 1781.1491,-187.5949 1790.1227,-193.2273 1791.6765,-186.4019"/>
</g>
<!-- Node36 -->
<g id="node35" class="node">
<title>Node36</title>
<g id="a_node35"><a xlink:href="applicables_8hpp.html" target="_top" xlink:title="alib/strings/applicables.hpp">
<polygon fill="#ffffff" stroke="#000000" points="1807,-168.5 1807,-187.5 1941,-187.5 1941,-168.5 1807,-168.5"/>
<text text-anchor="middle" x="1874" y="-175.5" font-family="Helvetica,sans-Serif" font-size="10.00" fill="#000000">alib/strings/applicables.hpp</text>
</a>
</g>
</g>
<!-- Node2&#45;&gt;Node36 -->
<g id="edge36" class="edge">
<title>Node2&#45;&gt;Node36</title>
<path fill="none" stroke="#191970" d="M1965.9184,-224.3733C1948.2598,-215.4644 1921.7947,-202.1127 1901.7902,-192.0203"/>
<polygon fill="#191970" stroke="#191970" points="1903.3372,-188.8806 1892.8326,-187.5011 1900.1842,-195.1303 1903.3372,-188.8806"/>
</g>
<!-- Node54&#45;&gt;Node1 -->
<g id="edge53" class="edge">
<title>Node54&#45;&gt;Node1</title>
<path fill="none" stroke="#191970" d="M2038.7537,-243.5463C2038.1653,-243.7009 2037.5801,-243.8523 2037,-244 1974.1007,-260.0123 1900.1216,-274.4825 1853.0293,-282.7534"/>
<polygon fill="#191970" stroke="#191970" points="1852.3677,-279.3158 1843.1123,-284.4721 1853.5631,-286.213 1852.3677,-279.3158"/>
</g>
<!-- Node11 -->
<g id="node36" class="node">
<title>Node11</title>
<polygon fill="#ffffff" stroke="#bfbfbf" points="1024.5,-112.5 1024.5,-131.5 1107.5,-131.5 1107.5,-112.5 1024.5,-112.5"/>
<text text-anchor="middle" x="1066" y="-119.5" font-family="Helvetica,sans-Serif" font-size="10.00" fill="#000000">unordered_map</text>
</g>
<!-- Node8&#45;&gt;Node11 -->
<g id="edge37" class="edge">
<title>Node8&#45;&gt;Node11</title>
<path fill="none" stroke="#191970" d="M1084.1679,-168.2455C1081.2341,-160.7776 1077.0953,-150.2427 1073.509,-141.1137"/>
<polygon fill="#191970" stroke="#191970" points="1076.7024,-139.6704 1069.7882,-131.6427 1070.1871,-142.23 1076.7024,-139.6704"/>
</g>
<!-- Node12&#45;&gt;Node13 -->
<g id="edge38" class="edge">
<title>Node12&#45;&gt;Node13</title>
<path fill="none" stroke="#191970" d="M1793.4319,-62.1509C1633.9313,-51.2979 1184.1024,-20.6898 1059.4057,-12.205"/>
<polygon fill="#191970" stroke="#191970" points="1059.561,-8.7076 1049.3464,-11.5205 1059.0857,-15.6914 1059.561,-8.7076"/>
</g>
<!-- Node40&#45;&gt;Node44 -->
<g id="edge46" class="edge">
<title>Node40&#45;&gt;Node44</title>
<path fill="none" stroke="#191970" d="M200,-168.2455C200,-160.9382 200,-150.6944 200,-141.7046"/>
<polygon fill="#191970" stroke="#191970" points="203.5001,-141.6426 200,-131.6427 196.5001,-141.6427 203.5001,-141.6426"/>
</g>
<!-- Node50&#45;&gt;Node13 -->
<g id="edge48" class="edge">
<title>Node50&#45;&gt;Node13</title>
<path fill="none" stroke="#191970" d="M521.0778,-57.1289C524.0932,-56.7318 527.081,-56.3526 530,-56 704.5974,-34.9071 914.7288,-18.347 994.3152,-12.3897"/>
<polygon fill="#191970" stroke="#191970" points="994.9487,-15.8524 1004.6615,-11.6202 994.4294,-8.8717 994.9487,-15.8524"/>
</g>
<!-- Node51&#45;&gt;Node48 -->
<g id="edge49" class="edge">
<title>Node51&#45;&gt;Node48</title>
<path fill="none" stroke="#191970" d="M535.1091,-112.2455C547.4209,-103.7337 565.4958,-91.2375 579.7538,-81.3801"/>
<polygon fill="#191970" stroke="#191970" points="581.8174,-84.2085 588.0526,-75.6427 577.8366,-78.4506 581.8174,-84.2085"/>
</g>
<!-- Node51&#45;&gt;Node50 -->
<g id="edge50" class="edge">
<title>Node51&#45;&gt;Node50</title>
<path fill="none" stroke="#191970" d="M510.8972,-112.2455C502.4972,-104.1352 490.3506,-92.4075 480.3916,-82.7919"/>
<polygon fill="#191970" stroke="#191970" points="482.6122,-80.0707 472.9871,-75.6427 477.75,-85.1066 482.6122,-80.0707"/>
</g>
<!-- Node52&#45;&gt;Node13 -->
<g id="edge51" class="edge">
<title>Node52&#45;&gt;Node13</title>
<path fill="none" stroke="#191970" d="M723.6237,-168.4931C744.8696,-145.6435 802.3546,-87.227 862,-56 905.0962,-33.4372 960.4855,-20.9272 994.8621,-14.8352"/>
<polygon fill="#191970" stroke="#191970" points="995.5453,-18.2694 1004.8193,-13.1466 994.3748,-11.368 995.5453,-18.2694"/>
</g>
<!-- Node52&#45;&gt;Node51 -->
<g id="edge52" class="edge">
<title>Node52&#45;&gt;Node51</title>
<path fill="none" stroke="#191970" d="M681.6502,-168.3733C648.972,-158.9404 599.0382,-144.5265 563.523,-134.2747"/>
<polygon fill="#191970" stroke="#191970" points="564.493,-130.9119 553.9146,-131.5011 562.5516,-137.6373 564.493,-130.9119"/>
</g>
<!-- Node44&#45;&gt;Node45 -->
<g id="edge47" class="edge">
<title>Node44&#45;&gt;Node45</title>
<path fill="none" stroke="#191970" d="M183.4523,-112.2455C168.7401,-103.5731 147.0112,-90.7645 130.1495,-80.825"/>
<polygon fill="#191970" stroke="#191970" points="131.7502,-77.7057 121.3581,-75.6427 128.1954,-83.736 131.7502,-77.7057"/>
</g>
<!-- Node58&#45;&gt;Node48 -->
<g id="edge62" class="edge">
<title>Node58&#45;&gt;Node48</title>
<path fill="none" stroke="#191970" d="M450.2032,-280.2739C436.6636,-251.2794 401.6127,-164.217 441,-112 452.3693,-96.9273 493.6503,-85.3076 531.562,-77.5172"/>
<polygon fill="#191970" stroke="#191970" points="532.4938,-80.9007 541.6211,-75.5208 531.131,-74.0346 532.4938,-80.9007"/>
</g>
<!-- Node59 -->
<g id="node46" class="node">
<title>Node59</title>
<polygon fill="#ffffff" stroke="#bfbfbf" points="263.5,-224.5 263.5,-243.5 304.5,-243.5 304.5,-224.5 263.5,-224.5"/>
<text text-anchor="middle" x="284" y="-231.5" font-family="Helvetica,sans-Serif" font-size="10.00" fill="#000000">ctime</text>
</g>
<!-- Node58&#45;&gt;Node59 -->
<g id="edge63" class="edge">
<title>Node58&#45;&gt;Node59</title>
<path fill="none" stroke="#191970" d="M425.6041,-280.3733C394.5844,-270.2148 345.9249,-254.2795 314.4958,-243.9869"/>
<polygon fill="#191970" stroke="#191970" points="315.5339,-240.644 304.9412,-240.8579 313.3553,-247.2964 315.5339,-240.644"/>
</g>
<!-- Node64&#45;&gt;Node11 -->
<g id="edge70" class="edge">
<title>Node64&#45;&gt;Node11</title>
<path fill="none" stroke="#191970" d="M975.1605,-168.2455C992.5111,-159.4125 1018.2901,-146.2887 1037.9583,-136.2758"/>
<polygon fill="#191970" stroke="#191970" points="1039.7353,-139.2986 1047.059,-131.6427 1036.5595,-133.0605 1039.7353,-139.2986"/>
</g>
<!-- Node64&#45;&gt;Node48 -->
<g id="edge71" class="edge">
<title>Node64&#45;&gt;Node48</title>
<path fill="none" stroke="#191970" d="M938.5869,-168.3629C912.3128,-154.1821 860.6397,-127.6828 814,-112 767.9947,-96.5305 714.5825,-84.9786 672.8799,-77.3202"/>
<polygon fill="#191970" stroke="#191970" points="673.2764,-73.8354 662.814,-75.5053 672.0342,-80.7243 673.2764,-73.8354"/>
</g>
<!-- Node65 -->
<g id="node48" class="node">
<title>Node65</title>
<polygon fill="#ffffff" stroke="#bfbfbf" points="928,-112.5 928,-131.5 984,-131.5 984,-112.5 928,-112.5"/>
<text text-anchor="middle" x="956" y="-119.5" font-family="Helvetica,sans-Serif" font-size="10.00" fill="#000000">algorithm</text>
</g>
<!-- Node64&#45;&gt;Node65 -->
<g id="edge72" class="edge">
<title>Node64&#45;&gt;Node65</title>
<path fill="none" stroke="#191970" d="M956,-168.2455C956,-160.9382 956,-150.6944 956,-141.7046"/>
<polygon fill="#191970" stroke="#191970" points="959.5001,-141.6426 956,-131.6427 952.5001,-141.6427 959.5001,-141.6426"/>
</g>
</g>
</svg>
