<?xml version="1.0" encoding="UTF-8" standalone="no"?>
<!DOCTYPE svg PUBLIC "-//W3C//DTD SVG 1.1//EN"
 "http://www.w3.org/Graphics/SVG/1.1/DTD/svg11.dtd">
<!-- Generated by graphviz version 2.38.0 (20140413.2041)
 -->
<!-- Title: namespace.hpp Pages: 1 -->
<svg width="1472pt" height="252pt"
 viewBox="0.00 0.00 1472.00 252.00" xmlns="http://www.w3.org/2000/svg" xmlns:xlink="http://www.w3.org/1999/xlink">
<g id="graph0" class="graph" transform="scale(1 1) rotate(0) translate(4 248)">
<title>namespace.hpp</title>
<polygon fill="white" stroke="none" points="-4,4 -4,-248 1468,-248 1468,4 -4,4"/>
<!-- Node1 -->
<g id="node1" class="node"><title>Node1</title>
<polygon fill="#bfbfbf" stroke="black" points="936,-224.5 936,-243.5 1022,-243.5 1022,-224.5 936,-224.5"/>
<text text-anchor="middle" x="979" y="-231.5" font-family="Helvetica,sans-Serif" font-size="10.00">namespace.hpp</text>
</g>
<!-- Node2 -->
<g id="node2" class="node"><title>Node2</title>
<g id="a_node2"><a xlink:href="alib_8hpp.html" target="_top" xlink:title="alib/alib.hpp">
<polygon fill="white" stroke="black" points="778,-112.5 778,-131.5 846,-131.5 846,-112.5 778,-112.5"/>
<text text-anchor="middle" x="812" y="-119.5" font-family="Helvetica,sans-Serif" font-size="10.00">alib/alib.hpp</text>
</a>
</g>
</g>
<!-- Node1&#45;&gt;Node2 -->
<g id="edge1" class="edge"><title>Node1&#45;&gt;Node2</title>
<path fill="none" stroke="midnightblue" d="M971.759,-224.078C965.485,-210.138 957.895,-183.216 941,-168 917.34,-146.69 883.416,-135.454 856.207,-129.538"/>
<polygon fill="midnightblue" stroke="midnightblue" points="856.636,-126.054 846.143,-127.521 855.26,-132.918 856.636,-126.054"/>
</g>
<!-- Node20 -->
<g id="node20" class="node"><title>Node20</title>
<g id="a_node20"><a xlink:href="asterminatable_8hpp.html" target="_top" xlink:title="alib/strings/asterminatable.hpp">
<polygon fill="white" stroke="black" points="508.5,-168.5 508.5,-187.5 657.5,-187.5 657.5,-168.5 508.5,-168.5"/>
<text text-anchor="middle" x="583" y="-175.5" font-family="Helvetica,sans-Serif" font-size="10.00">alib/strings/asterminatable.hpp</text>
</a>
</g>
</g>
<!-- Node1&#45;&gt;Node20 -->
<g id="edge25" class="edge"><title>Node1&#45;&gt;Node20</title>
<path fill="none" stroke="midnightblue" d="M935.867,-227.118C868.516,-217.934 737.605,-200.082 655.556,-188.894"/>
<polygon fill="midnightblue" stroke="midnightblue" points="655.934,-185.413 645.553,-187.53 654.988,-192.349 655.934,-185.413"/>
</g>
<!-- Node21 -->
<g id="node21" class="node"><title>Node21</title>
<g id="a_node21"><a xlink:href="asliteral_8hpp.html" target="_top" xlink:title="alib/strings/asliteral.hpp">
<polygon fill="white" stroke="black" points="1016.5,-168.5 1016.5,-187.5 1135.5,-187.5 1135.5,-168.5 1016.5,-168.5"/>
<text text-anchor="middle" x="1076" y="-175.5" font-family="Helvetica,sans-Serif" font-size="10.00">alib/strings/asliteral.hpp</text>
</a>
</g>
</g>
<!-- Node1&#45;&gt;Node21 -->
<g id="edge27" class="edge"><title>Node1&#45;&gt;Node21</title>
<path fill="none" stroke="midnightblue" d="M994.585,-224.324C1010,-215.743 1033.81,-202.486 1051.71,-192.522"/>
<polygon fill="midnightblue" stroke="midnightblue" points="1053.42,-195.577 1060.45,-187.655 1050.01,-189.461 1053.42,-195.577"/>
</g>
<!-- Node22 -->
<g id="node22" class="node"><title>Node22</title>
<g id="a_node22"><a xlink:href="asalloc_8hpp.html" target="_top" xlink:title="alib/strings/asalloc.hpp">
<polygon fill="white" stroke="black" points="1309,-168.5 1309,-187.5 1425,-187.5 1425,-168.5 1309,-168.5"/>
<text text-anchor="middle" x="1367" y="-175.5" font-family="Helvetica,sans-Serif" font-size="10.00">alib/strings/asalloc.hpp</text>
</a>
</g>
</g>
<!-- Node1&#45;&gt;Node22 -->
<g id="edge31" class="edge"><title>Node1&#45;&gt;Node22</title>
<path fill="none" stroke="midnightblue" d="M1022.01,-227.015C1088.99,-217.693 1218.82,-199.624 1298.7,-188.505"/>
<polygon fill="midnightblue" stroke="midnightblue" points="1299.25,-191.963 1308.67,-187.118 1298.28,-185.03 1299.25,-191.963"/>
</g>
<!-- Node24 -->
<g id="node24" class="node"><title>Node24</title>
<g id="a_node24"><a xlink:href="asprealloc_8hpp.html" target="_top" xlink:title="alib/strings/asprealloc.hpp">
<polygon fill="white" stroke="black" points="676,-168.5 676,-187.5 806,-187.5 806,-168.5 676,-168.5"/>
<text text-anchor="middle" x="741" y="-175.5" font-family="Helvetica,sans-Serif" font-size="10.00">alib/strings/asprealloc.hpp</text>
</a>
</g>
</g>
<!-- Node1&#45;&gt;Node24 -->
<g id="edge34" class="edge"><title>Node1&#45;&gt;Node24</title>
<path fill="none" stroke="midnightblue" d="M941.288,-224.444C899.857,-215.043 833.243,-199.929 788.333,-189.739"/>
<polygon fill="midnightblue" stroke="midnightblue" points="789.062,-186.316 778.535,-187.516 787.513,-193.142 789.062,-186.316"/>
</g>
<!-- Node25 -->
<g id="node25" class="node"><title>Node25</title>
<g id="a_node25"><a xlink:href="applyto_8hpp.html" target="_top" xlink:title="alib/strings/applyto.hpp">
<polygon fill="white" stroke="black" points="824.5,-168.5 824.5,-187.5 941.5,-187.5 941.5,-168.5 824.5,-168.5"/>
<text text-anchor="middle" x="883" y="-175.5" font-family="Helvetica,sans-Serif" font-size="10.00">alib/strings/applyto.hpp</text>
</a>
</g>
</g>
<!-- Node1&#45;&gt;Node25 -->
<g id="edge36" class="edge"><title>Node1&#45;&gt;Node25</title>
<path fill="none" stroke="midnightblue" d="M963.576,-224.324C948.46,-215.822 925.185,-202.729 907.529,-192.797"/>
<polygon fill="midnightblue" stroke="midnightblue" points="908.817,-189.507 898.386,-187.655 905.386,-195.608 908.817,-189.507"/>
</g>
<!-- Node26 -->
<g id="node26" class="node"><title>Node26</title>
<g id="a_node26"><a xlink:href="applyformat_8hpp.html" target="_top" xlink:title="alib/strings/applyformat.hpp">
<polygon fill="white" stroke="black" points="1153.5,-168.5 1153.5,-187.5 1290.5,-187.5 1290.5,-168.5 1153.5,-168.5"/>
<text text-anchor="middle" x="1222" y="-175.5" font-family="Helvetica,sans-Serif" font-size="10.00">alib/strings/applyformat.hpp</text>
</a>
</g>
</g>
<!-- Node1&#45;&gt;Node26 -->
<g id="edge38" class="edge"><title>Node1&#45;&gt;Node26</title>
<path fill="none" stroke="midnightblue" d="M1017.5,-224.444C1059.81,-215.043 1127.82,-199.929 1173.67,-189.739"/>
<polygon fill="midnightblue" stroke="midnightblue" points="1174.67,-193.102 1183.68,-187.516 1173.15,-186.269 1174.67,-193.102"/>
</g>
<!-- Node2&#45;&gt;Node1 -->
<g id="edge24" class="edge"><title>Node2&#45;&gt;Node1</title>
<path fill="none" stroke="midnightblue" d="M846.197,-125.394C879.12,-129.395 927.917,-140.005 959,-168 972.331,-180.007 979.869,-199.301 982.255,-213.756"/>
<polygon fill="midnightblue" stroke="midnightblue" points="978.794,-214.387 983.076,-224.078 985.772,-213.832 978.794,-214.387"/>
</g>
<!-- Node3 -->
<g id="node3" class="node"><title>Node3</title>
<g id="a_node3"><a xlink:href="symbols_8hpp.html" target="_top" xlink:title="alib/core/symbols.hpp">
<polygon fill="white" stroke="black" points="387,-56.5 387,-75.5 499,-75.5 499,-56.5 387,-56.5"/>
<text text-anchor="middle" x="443" y="-63.5" font-family="Helvetica,sans-Serif" font-size="10.00">alib/core/symbols.hpp</text>
</a>
</g>
</g>
<!-- Node2&#45;&gt;Node3 -->
<g id="edge2" class="edge"><title>Node2&#45;&gt;Node3</title>
<path fill="none" stroke="midnightblue" d="M777.947,-116.017C717.074,-107.108 588.596,-88.3068 509.644,-76.7527"/>
<polygon fill="midnightblue" stroke="midnightblue" points="509.721,-73.2268 499.319,-75.2418 508.707,-80.153 509.721,-73.2268"/>
</g>
<!-- Node4 -->
<g id="node4" class="node"><title>Node4</title>
<g id="a_node4"><a xlink:href="macros_8hpp.html" target="_top" xlink:title="alib/core/macros.hpp">
<polygon fill="white" stroke="black" points="516.5,-56.5 516.5,-75.5 623.5,-75.5 623.5,-56.5 516.5,-56.5"/>
<text text-anchor="middle" x="570" y="-63.5" font-family="Helvetica,sans-Serif" font-size="10.00">alib/core/macros.hpp</text>
</a>
</g>
</g>
<!-- Node2&#45;&gt;Node4 -->
<g id="edge3" class="edge"><title>Node2&#45;&gt;Node4</title>
<path fill="none" stroke="midnightblue" d="M777.841,-113.378C736.207,-104.087 665.581,-88.3281 618.371,-77.7936"/>
<polygon fill="midnightblue" stroke="midnightblue" points="618.9,-74.3256 608.378,-75.5637 617.376,-81.1576 618.9,-74.3256"/>
</g>
<!-- Node5 -->
<g id="node5" class="node"><title>Node5</title>
<polygon fill="white" stroke="#bfbfbf" points="642,-56.5 642,-75.5 694,-75.5 694,-56.5 642,-56.5"/>
<text text-anchor="middle" x="668" y="-63.5" font-family="Helvetica,sans-Serif" font-size="10.00">assert.h</text>
</g>
<!-- Node2&#45;&gt;Node5 -->
<g id="edge4" class="edge"><title>Node2&#45;&gt;Node5</title>
<path fill="none" stroke="midnightblue" d="M789.183,-112.444C765.168,-103.438 727.171,-89.1891 700.131,-79.049"/>
<polygon fill="midnightblue" stroke="midnightblue" points="701.303,-75.7506 690.71,-75.5164 698.845,-82.3049 701.303,-75.7506"/>
</g>
<!-- Node6 -->
<g id="node6" class="node"><title>Node6</title>
<polygon fill="white" stroke="#bfbfbf" points="712.5,-56.5 712.5,-75.5 761.5,-75.5 761.5,-56.5 712.5,-56.5"/>
<text text-anchor="middle" x="737" y="-63.5" font-family="Helvetica,sans-Serif" font-size="10.00">cstddef</text>
</g>
<!-- Node2&#45;&gt;Node6 -->
<g id="edge5" class="edge"><title>Node2&#45;&gt;Node6</title>
<path fill="none" stroke="midnightblue" d="M799.95,-112.324C788.537,-104.107 771.169,-91.6017 757.565,-81.8069"/>
<polygon fill="midnightblue" stroke="midnightblue" points="759.43,-78.8366 749.269,-75.8339 755.34,-84.5174 759.43,-78.8366"/>
</g>
<!-- Node7 -->
<g id="node7" class="node"><title>Node7</title>
<polygon fill="white" stroke="#bfbfbf" points="779.5,-56.5 779.5,-75.5 842.5,-75.5 842.5,-56.5 779.5,-56.5"/>
<text text-anchor="middle" x="811" y="-63.5" font-family="Helvetica,sans-Serif" font-size="10.00">windows.h</text>
</g>
<!-- Node2&#45;&gt;Node7 -->
<g id="edge6" class="edge"><title>Node2&#45;&gt;Node7</title>
<path fill="none" stroke="midnightblue" d="M811.835,-112.083C811.704,-105.006 811.516,-94.8611 811.352,-85.9865"/>
<polygon fill="midnightblue" stroke="midnightblue" points="814.847,-85.6845 811.162,-75.7511 807.848,-85.8142 814.847,-85.6845"/>
</g>
<!-- Node8 -->
<g id="node8" class="node"><title>Node8</title>
<polygon fill="white" stroke="#bfbfbf" points="860.5,-56.5 860.5,-75.5 909.5,-75.5 909.5,-56.5 860.5,-56.5"/>
<text text-anchor="middle" x="885" y="-63.5" font-family="Helvetica,sans-Serif" font-size="10.00">stdint.h</text>
</g>
<!-- Node2&#45;&gt;Node8 -->
<g id="edge7" class="edge"><title>Node2&#45;&gt;Node8</title>
<path fill="none" stroke="midnightblue" d="M823.729,-112.324C834.837,-104.107 851.742,-91.6017 864.983,-81.8069"/>
<polygon fill="midnightblue" stroke="midnightblue" points="867.1,-84.5948 873.058,-75.8339 862.937,-78.9671 867.1,-84.5948"/>
</g>
<!-- Node9 -->
<g id="node9" class="node"><title>Node9</title>
<polygon fill="white" stroke="#bfbfbf" points="928,-56.5 928,-75.5 990,-75.5 990,-56.5 928,-56.5"/>
<text text-anchor="middle" x="959" y="-63.5" font-family="Helvetica,sans-Serif" font-size="10.00">type_traits</text>
</g>
<!-- Node2&#45;&gt;Node9 -->
<g id="edge8" class="edge"><title>Node2&#45;&gt;Node9</title>
<path fill="none" stroke="midnightblue" d="M835.293,-112.444C859.807,-103.438 898.596,-89.1891 926.2,-79.049"/>
<polygon fill="midnightblue" stroke="midnightblue" points="927.637,-82.25 935.816,-75.5164 925.223,-75.6793 927.637,-82.25"/>
</g>
<!-- Node10 -->
<g id="node10" class="node"><title>Node10</title>
<polygon fill="white" stroke="#bfbfbf" points="1008,-56.5 1008,-75.5 1048,-75.5 1048,-56.5 1008,-56.5"/>
<text text-anchor="middle" x="1028" y="-63.5" font-family="Helvetica,sans-Serif" font-size="10.00">utility</text>
</g>
<!-- Node2&#45;&gt;Node10 -->
<g id="edge9" class="edge"><title>Node2&#45;&gt;Node10</title>
<path fill="none" stroke="midnightblue" d="M846.293,-113.449C881.943,-105.445 939.556,-92.0788 998.002,-76.1465"/>
<polygon fill="midnightblue" stroke="midnightblue" points="999.053,-79.4876 1007.77,-73.4622 997.198,-72.7379 999.053,-79.4876"/>
</g>
<!-- Node11 -->
<g id="node11" class="node"><title>Node11</title>
<g id="a_node11"><a xlink:href="enums_8hpp.html" target="_top" xlink:title="alib/core/enums.hpp">
<polygon fill="white" stroke="black" points="1066,-56.5 1066,-75.5 1170,-75.5 1170,-56.5 1066,-56.5"/>
<text text-anchor="middle" x="1118" y="-63.5" font-family="Helvetica,sans-Serif" font-size="10.00">alib/core/enums.hpp</text>
</a>
</g>
</g>
<!-- Node2&#45;&gt;Node11 -->
<g id="edge10" class="edge"><title>Node2&#45;&gt;Node11</title>
<path fill="none" stroke="midnightblue" d="M846.082,-114.161C896.775,-104.773 992.552,-87.8288 1055.88,-77.0118"/>
<polygon fill="midnightblue" stroke="midnightblue" points="1056.49,-80.4596 1065.76,-75.3305 1055.31,-73.5589 1056.49,-80.4596"/>
</g>
<!-- Node12 -->
<g id="node12" class="node"><title>Node12</title>
<g id="a_node12"><a xlink:href="report_8hpp.html" target="_top" xlink:title="alib/core/report.hpp">
<polygon fill="white" stroke="black" points="0,-56.5 0,-75.5 100,-75.5 100,-56.5 0,-56.5"/>
<text text-anchor="middle" x="50" y="-63.5" font-family="Helvetica,sans-Serif" font-size="10.00">alib/core/report.hpp</text>
</a>
</g>
</g>
<!-- Node2&#45;&gt;Node12 -->
<g id="edge12" class="edge"><title>Node2&#45;&gt;Node12</title>
<path fill="none" stroke="midnightblue" d="M777.992,-120.011C676.457,-116.657 367.574,-104.371 105.703,-76.584"/>
<polygon fill="midnightblue" stroke="midnightblue" points="105.941,-73.0895 95.625,-75.5044 105.195,-80.0497 105.941,-73.0895"/>
</g>
<!-- Node13 -->
<g id="node13" class="node"><title>Node13</title>
<g id="a_node13"><a xlink:href="cstring_8hpp.html" target="_top" xlink:title="alib/strings/cstring.hpp">
<polygon fill="white" stroke="black" points="118.5,-56.5 118.5,-75.5 233.5,-75.5 233.5,-56.5 118.5,-56.5"/>
<text text-anchor="middle" x="176" y="-63.5" font-family="Helvetica,sans-Serif" font-size="10.00">alib/strings/cstring.hpp</text>
</a>
</g>
</g>
<!-- Node2&#45;&gt;Node13 -->
<g id="edge14" class="edge"><title>Node2&#45;&gt;Node13</title>
<path fill="none" stroke="midnightblue" d="M777.85,-119.232C689.508,-114.185 447.014,-98.6731 239.01,-76.6265"/>
<polygon fill="midnightblue" stroke="midnightblue" points="239.134,-73.1199 228.819,-75.538 238.391,-80.0803 239.134,-73.1199"/>
</g>
<!-- Node16 -->
<g id="node16" class="node"><title>Node16</title>
<g id="a_node16"><a xlink:href="as_8hpp.html" target="_top" xlink:title="alib/strings/as.hpp">
<polygon fill="white" stroke="black" points="1188,-56.5 1188,-75.5 1284,-75.5 1284,-56.5 1188,-56.5"/>
<text text-anchor="middle" x="1236" y="-63.5" font-family="Helvetica,sans-Serif" font-size="10.00">alib/strings/as.hpp</text>
</a>
</g>
</g>
<!-- Node2&#45;&gt;Node16 -->
<g id="edge18" class="edge"><title>Node2&#45;&gt;Node16</title>
<path fill="none" stroke="midnightblue" d="M846.212,-116.588C910.092,-108.996 1051.12,-92.668 1170,-76 1172.61,-75.6344 1175.28,-75.249 1177.99,-74.8518"/>
<polygon fill="midnightblue" stroke="midnightblue" points="1178.51,-78.3127 1187.88,-73.3754 1177.48,-71.3893 1178.51,-78.3127"/>
</g>
<!-- Node19 -->
<g id="node19" class="node"><title>Node19</title>
<g id="a_node19"><a xlink:href="ns__aworx_8hpp.html" target="_top" xlink:title="alib/core/ns_aworx.hpp">
<polygon fill="white" stroke="black" points="251.5,-56.5 251.5,-75.5 368.5,-75.5 368.5,-56.5 251.5,-56.5"/>
<text text-anchor="middle" x="310" y="-63.5" font-family="Helvetica,sans-Serif" font-size="10.00">alib/core/ns_aworx.hpp</text>
</a>
</g>
</g>
<!-- Node2&#45;&gt;Node19 -->
<g id="edge22" class="edge"><title>Node2&#45;&gt;Node19</title>
<path fill="none" stroke="midnightblue" d="M777.921,-118.231C704.929,-111.725 528.749,-94.6844 375.144,-76.7147"/>
<polygon fill="midnightblue" stroke="midnightblue" points="375.4,-73.2208 365.06,-75.5298 374.583,-80.173 375.4,-73.2208"/>
</g>
<!-- Node11&#45;&gt;Node2 -->
<g id="edge11" class="edge"><title>Node11&#45;&gt;Node2</title>
<path fill="none" stroke="midnightblue" d="M1074.82,-75.5158C1016.85,-86.1611 914.62,-104.179 856.149,-114.039"/>
<polygon fill="midnightblue" stroke="midnightblue" points="855.392,-110.617 846.109,-115.724 856.55,-117.521 855.392,-110.617"/>
</g>
<!-- Node12&#45;&gt;Node2 -->
<g id="edge13" class="edge"><title>Node12&#45;&gt;Node2</title>
<path fill="none" stroke="midnightblue" d="M100.108,-73.7549C106.163,-74.5952 112.231,-75.3766 118,-76 363.005,-102.477 657.856,-115.153 767.905,-119.35"/>
<polygon fill="midnightblue" stroke="midnightblue" points="767.845,-122.85 777.97,-119.73 768.109,-115.855 767.845,-122.85"/>
</g>
<!-- Node13&#45;&gt;Node2 -->
<g id="edge15" class="edge"><title>Node13&#45;&gt;Node2</title>
<path fill="none" stroke="midnightblue" d="M233.558,-73.9483C239.471,-74.6902 245.366,-75.394 251,-76 443.164,-96.6707 672.737,-111.929 767.701,-118.051"/>
<polygon fill="midnightblue" stroke="midnightblue" points="767.601,-121.551 777.805,-118.701 768.05,-114.566 767.601,-121.551"/>
</g>
<!-- Node14 -->
<g id="node14" class="node"><title>Node14</title>
<polygon fill="white" stroke="#bfbfbf" points="123,-0.5 123,-19.5 169,-19.5 169,-0.5 123,-0.5"/>
<text text-anchor="middle" x="146" y="-7.5" font-family="Helvetica,sans-Serif" font-size="10.00">cstring</text>
</g>
<!-- Node13&#45;&gt;Node14 -->
<g id="edge16" class="edge"><title>Node13&#45;&gt;Node14</title>
<path fill="none" stroke="midnightblue" d="M171.046,-56.083C166.896,-48.6127 160.847,-37.7244 155.733,-28.5199"/>
<polygon fill="midnightblue" stroke="midnightblue" points="158.778,-26.7929 150.862,-19.7511 152.659,-30.1924 158.778,-26.7929"/>
</g>
<!-- Node15 -->
<g id="node15" class="node"><title>Node15</title>
<polygon fill="white" stroke="#bfbfbf" points="187,-0.5 187,-19.5 227,-19.5 227,-0.5 187,-0.5"/>
<text text-anchor="middle" x="207" y="-7.5" font-family="Helvetica,sans-Serif" font-size="10.00">limits</text>
</g>
<!-- Node13&#45;&gt;Node15 -->
<g id="edge17" class="edge"><title>Node13&#45;&gt;Node15</title>
<path fill="none" stroke="midnightblue" d="M181.119,-56.083C185.408,-48.6127 191.658,-37.7244 196.942,-28.5199"/>
<polygon fill="midnightblue" stroke="midnightblue" points="200.033,-30.1662 201.976,-19.7511 193.962,-26.6811 200.033,-30.1662"/>
</g>
<!-- Node16&#45;&gt;Node2 -->
<g id="edge19" class="edge"><title>Node16&#45;&gt;Node2</title>
<path fill="none" stroke="midnightblue" d="M1191.3,-75.5311C1190.19,-75.6905 1189.09,-75.847 1188,-76 1068.73,-92.7232 927.159,-109.104 856.495,-116.663"/>
<polygon fill="midnightblue" stroke="midnightblue" points="855.761,-113.221 846.185,-117.756 856.499,-120.182 855.761,-113.221"/>
</g>
<!-- Node17 -->
<g id="node17" class="node"><title>Node17</title>
<polygon fill="white" stroke="#bfbfbf" points="1238.5,-0.5 1238.5,-19.5 1283.5,-19.5 1283.5,-0.5 1238.5,-0.5"/>
<text text-anchor="middle" x="1261" y="-7.5" font-family="Helvetica,sans-Serif" font-size="10.00">iosfwd</text>
</g>
<!-- Node16&#45;&gt;Node17 -->
<g id="edge20" class="edge"><title>Node16&#45;&gt;Node17</title>
<path fill="none" stroke="midnightblue" d="M1240.13,-56.083C1243.51,-48.77 1248.42,-38.1814 1252.62,-29.1034"/>
<polygon fill="midnightblue" stroke="midnightblue" points="1255.92,-30.2962 1256.95,-19.7511 1249.57,-27.3553 1255.92,-30.2962"/>
</g>
<!-- Node18 -->
<g id="node18" class="node"><title>Node18</title>
<polygon fill="white" stroke="#bfbfbf" points="1327,-0.5 1327,-19.5 1373,-19.5 1373,-0.5 1327,-0.5"/>
<text text-anchor="middle" x="1350" y="-7.5" font-family="Helvetica,sans-Serif" font-size="10.00">cctype</text>
</g>
<!-- Node16&#45;&gt;Node18 -->
<g id="edge21" class="edge"><title>Node16&#45;&gt;Node18</title>
<path fill="none" stroke="midnightblue" d="M1254.06,-56.4435C1272.57,-47.6751 1301.58,-33.9355 1322.86,-23.8579"/>
<polygon fill="midnightblue" stroke="midnightblue" points="1324.48,-26.9604 1332.02,-19.5164 1321.49,-20.6343 1324.48,-26.9604"/>
</g>
<!-- Node19&#45;&gt;Node2 -->
<g id="edge23" class="edge"><title>Node19&#45;&gt;Node2</title>
<path fill="none" stroke="midnightblue" d="M368.677,-73.7487C374.889,-74.5338 381.087,-75.3023 387,-76 525.85,-92.3837 690.079,-108.534 767.546,-116.271"/>
<polygon fill="midnightblue" stroke="midnightblue" points="767.59,-119.793 777.889,-117.306 768.287,-112.828 767.59,-119.793"/>
</g>
<!-- Node20&#45;&gt;Node2 -->
<g id="edge26" class="edge"><title>Node20&#45;&gt;Node2</title>
<path fill="none" stroke="midnightblue" d="M619.286,-168.444C659.567,-158.945 724.586,-143.613 767.804,-133.422"/>
<polygon fill="midnightblue" stroke="midnightblue" points="768.824,-136.777 777.754,-131.075 767.218,-129.964 768.824,-136.777"/>
</g>
<!-- Node21&#45;&gt;Node2 -->
<g id="edge28" class="edge"><title>Node21&#45;&gt;Node2</title>
<path fill="none" stroke="midnightblue" d="M1034.17,-168.444C985.574,-158.504 905.751,-142.176 856.177,-132.036"/>
<polygon fill="midnightblue" stroke="midnightblue" points="856.579,-128.546 846.08,-129.971 855.176,-135.404 856.579,-128.546"/>
</g>
<!-- Node21&#45;&gt;Node17 -->
<g id="edge29" class="edge"><title>Node21&#45;&gt;Node17</title>
<path fill="none" stroke="midnightblue" d="M1130.56,-168.482C1182.37,-157.18 1257.48,-131.711 1293,-76 1303.17,-60.0415 1290.33,-40.3871 1278.02,-26.8947"/>
<polygon fill="midnightblue" stroke="midnightblue" points="1280.5,-24.4306 1271,-19.7372 1275.5,-29.3296 1280.5,-24.4306"/>
</g>
<!-- Node21&#45;&gt;Node18 -->
<g id="edge30" class="edge"><title>Node21&#45;&gt;Node18</title>
<path fill="none" stroke="midnightblue" d="M1125.2,-168.491C1171.73,-159.82 1237.66,-145.731 1260,-132 1300.74,-106.962 1329.17,-56.0506 1342.11,-28.9361"/>
<polygon fill="midnightblue" stroke="midnightblue" points="1345.3,-30.3607 1346.3,-19.8129 1338.94,-27.4365 1345.3,-30.3607"/>
</g>
<!-- Node22&#45;&gt;Node2 -->
<g id="edge32" class="edge"><title>Node22&#45;&gt;Node2</title>
<path fill="none" stroke="midnightblue" d="M1308.91,-169.047C1305.9,-168.682 1302.92,-168.33 1300,-168 1136.67,-149.508 941.938,-133.298 856.216,-126.458"/>
<polygon fill="midnightblue" stroke="midnightblue" points="856.315,-122.955 846.069,-125.651 855.76,-129.933 856.315,-122.955"/>
</g>
<!-- Node23 -->
<g id="node23" class="node"><title>Node23</title>
<polygon fill="white" stroke="#bfbfbf" points="1416,-112.5 1416,-131.5 1464,-131.5 1464,-112.5 1416,-112.5"/>
<text text-anchor="middle" x="1440" y="-119.5" font-family="Helvetica,sans-Serif" font-size="10.00">stdlib.h</text>
</g>
<!-- Node22&#45;&gt;Node23 -->
<g id="edge33" class="edge"><title>Node22&#45;&gt;Node23</title>
<path fill="none" stroke="midnightblue" d="M1378.73,-168.324C1389.84,-160.107 1406.74,-147.602 1419.98,-137.807"/>
<polygon fill="midnightblue" stroke="midnightblue" points="1422.1,-140.595 1428.06,-131.834 1417.94,-134.967 1422.1,-140.595"/>
</g>
<!-- Node24&#45;&gt;Node2 -->
<g id="edge35" class="edge"><title>Node24&#45;&gt;Node2</title>
<path fill="none" stroke="midnightblue" d="M752.407,-168.324C763.109,-160.185 779.341,-147.839 792.163,-138.087"/>
<polygon fill="midnightblue" stroke="midnightblue" points="794.544,-140.673 800.385,-131.834 790.307,-135.102 794.544,-140.673"/>
</g>
<!-- Node25&#45;&gt;Node2 -->
<g id="edge37" class="edge"><title>Node25&#45;&gt;Node2</title>
<path fill="none" stroke="midnightblue" d="M871.593,-168.324C860.891,-160.185 844.659,-147.839 831.837,-138.087"/>
<polygon fill="midnightblue" stroke="midnightblue" points="833.693,-135.102 823.615,-131.834 829.456,-140.673 833.693,-135.102"/>
</g>
<!-- Node26&#45;&gt;Node2 -->
<g id="edge39" class="edge"><title>Node26&#45;&gt;Node2</title>
<path fill="none" stroke="midnightblue" d="M1157.03,-168.444C1072.99,-157.375 928.806,-138.384 856.33,-128.839"/>
<polygon fill="midnightblue" stroke="midnightblue" points="856.544,-125.337 846.172,-127.501 855.63,-132.277 856.544,-125.337"/>
</g>
<!-- Node26&#45;&gt;Node18 -->
<g id="edge40" class="edge"><title>Node26&#45;&gt;Node18</title>
<path fill="none" stroke="midnightblue" d="M1268.25,-168.45C1305.13,-160.58 1352.47,-147.754 1364,-132 1386.4,-101.406 1370.55,-54.3129 1359.05,-28.8389"/>
<polygon fill="midnightblue" stroke="midnightblue" points="1362.12,-27.1533 1354.65,-19.6405 1355.81,-30.1722 1362.12,-27.1533"/>
</g>
</g>
</svg>
