<?xml version="1.0" encoding="UTF-8" standalone="no"?>
<!DOCTYPE svg PUBLIC "-//W3C//DTD SVG 1.1//EN"
 "http://www.w3.org/Graphics/SVG/1.1/DTD/svg11.dtd">
<!-- Generated by graphviz version 2.38.0 (20140413.2041)
 -->
<!-- Title: ns_aworx.hpp Pages: 1 -->
<svg width="1287pt" height="252pt"
 viewBox="0.00 0.00 1287.00 252.00" xmlns="http://www.w3.org/2000/svg" xmlns:xlink="http://www.w3.org/1999/xlink">
<g id="graph0" class="graph" transform="scale(1 1) rotate(0) translate(4 248)">
<title>ns_aworx.hpp</title>
<polygon fill="white" stroke="none" points="-4,4 -4,-248 1283,-248 1283,4 -4,4"/>
<!-- Node1 -->
<g id="node1" class="node"><title>Node1</title>
<polygon fill="#bfbfbf" stroke="black" points="496,-224.5 496,-243.5 573,-243.5 573,-224.5 496,-224.5"/>
<text text-anchor="middle" x="534.5" y="-231.5" font-family="Helvetica,sans-Serif" font-size="10.00">ns_aworx.hpp</text>
</g>
<!-- Node2 -->
<g id="node2" class="node"><title>Node2</title>
<g id="a_node2"><a xlink:href="alib_8hpp.html" target="_top" xlink:title="alib.hpp">
<polygon fill="white" stroke="black" points="509.5,-168.5 509.5,-187.5 559.5,-187.5 559.5,-168.5 509.5,-168.5"/>
<text text-anchor="middle" x="534.5" y="-175.5" font-family="Helvetica,sans-Serif" font-size="10.00">alib.hpp</text>
</a>
</g>
</g>
<!-- Node1&#45;&gt;Node2 -->
<g id="edge1" class="edge"><title>Node1&#45;&gt;Node2</title>
<path fill="none" stroke="midnightblue" d="M528.028,-214.101C527.396,-205.136 527.843,-194.858 529.369,-187.751"/>
<polygon fill="midnightblue" stroke="midnightblue" points="524.566,-214.622 529.334,-224.083 531.507,-213.713 524.566,-214.622"/>
</g>
<!-- Node2&#45;&gt;Node1 -->
<g id="edge4" class="edge"><title>Node2&#45;&gt;Node1</title>
<path fill="none" stroke="midnightblue" d="M540.958,-197.691C541.606,-206.635 541.176,-216.927 539.666,-224.083"/>
<polygon fill="midnightblue" stroke="midnightblue" points="544.423,-197.2 539.631,-187.751 537.485,-198.126 544.423,-197.2"/>
</g>
<!-- Node3 -->
<g id="node3" class="node"><title>Node3</title>
<g id="a_node3"><a xlink:href="enums_8hpp.html" target="_top" xlink:title="enums.hpp">
<polygon fill="white" stroke="black" points="0,-112.5 0,-131.5 65,-131.5 65,-112.5 0,-112.5"/>
<text text-anchor="middle" x="32.5" y="-119.5" font-family="Helvetica,sans-Serif" font-size="10.00">enums.hpp</text>
</a>
</g>
</g>
<!-- Node2&#45;&gt;Node3 -->
<g id="edge2" class="edge"><title>Node2&#45;&gt;Node3</title>
<path fill="none" stroke="midnightblue" d="M499.185,-174.925C421.189,-169.752 229.374,-155.019 70.5,-132 68.7734,-131.75 67.0137,-131.48 65.2431,-131.196"/>
<polygon fill="midnightblue" stroke="midnightblue" points="499.214,-178.435 509.42,-175.592 499.669,-171.449 499.214,-178.435"/>
</g>
<!-- Node4 -->
<g id="node4" class="node"><title>Node4</title>
<g id="a_node4"><a xlink:href="ownable_8hpp.html" target="_top" xlink:title="ownable.hpp">
<polygon fill="white" stroke="black" points="32,-56.5 32,-75.5 103,-75.5 103,-56.5 32,-56.5"/>
<text text-anchor="middle" x="67.5" y="-63.5" font-family="Helvetica,sans-Serif" font-size="10.00">ownable.hpp</text>
</a>
</g>
</g>
<!-- Node2&#45;&gt;Node4 -->
<g id="edge5" class="edge"><title>Node2&#45;&gt;Node4</title>
<path fill="none" stroke="midnightblue" d="M499.401,-176.705C411.193,-175.418 182.642,-168.549 117.5,-132 94.1572,-118.903 78.1338,-89.9874 71.2684,-75.5499"/>
<polygon fill="midnightblue" stroke="midnightblue" points="499.397,-180.205 509.442,-176.836 499.489,-173.206 499.397,-180.205"/>
</g>
<!-- Node5 -->
<g id="node5" class="node"><title>Node5</title>
<g id="a_node5"><a xlink:href="threadlock_8hpp.html" target="_top" xlink:title="threadlock.hpp">
<polygon fill="white" stroke="red" points="91.5,-0.5 91.5,-19.5 171.5,-19.5 171.5,-0.5 91.5,-0.5"/>
<text text-anchor="middle" x="131.5" y="-7.5" font-family="Helvetica,sans-Serif" font-size="10.00">threadlock.hpp</text>
</a>
</g>
</g>
<!-- Node2&#45;&gt;Node5 -->
<g id="edge34" class="edge"><title>Node2&#45;&gt;Node5</title>
<path fill="none" stroke="midnightblue" d="M499.247,-175.269C409.086,-170.511 175.427,-155.971 150.5,-132 118.926,-101.637 125.863,-41.7893 129.778,-19.5695"/>
<polygon fill="midnightblue" stroke="midnightblue" points="499.091,-178.766 509.259,-175.788 499.454,-171.775 499.091,-178.766"/>
</g>
<!-- Node6 -->
<g id="node6" class="node"><title>Node6</title>
<g id="a_node6"><a xlink:href="report_8hpp.html" target="_top" xlink:title="report.hpp">
<polygon fill="white" stroke="black" points="159.5,-112.5 159.5,-131.5 219.5,-131.5 219.5,-112.5 159.5,-112.5"/>
<text text-anchor="middle" x="189.5" y="-119.5" font-family="Helvetica,sans-Serif" font-size="10.00">report.hpp</text>
</a>
</g>
</g>
<!-- Node2&#45;&gt;Node6 -->
<g id="edge7" class="edge"><title>Node2&#45;&gt;Node6</title>
<path fill="none" stroke="midnightblue" d="M499.229,-173.407C440.554,-166.642 320.091,-150.971 219.5,-132 218.681,-131.845 217.852,-131.686 217.019,-131.521"/>
<polygon fill="midnightblue" stroke="midnightblue" points="499.117,-176.917 509.447,-174.566 499.905,-169.961 499.117,-176.917"/>
</g>
<!-- Node7 -->
<g id="node7" class="node"><title>Node7</title>
<g id="a_node7"><a xlink:href="util_8hpp.html" target="_top" xlink:title="util.hpp">
<polygon fill="white" stroke="black" points="237.5,-112.5 237.5,-131.5 285.5,-131.5 285.5,-112.5 237.5,-112.5"/>
<text text-anchor="middle" x="261.5" y="-119.5" font-family="Helvetica,sans-Serif" font-size="10.00">util.hpp</text>
</a>
</g>
</g>
<!-- Node2&#45;&gt;Node7 -->
<g id="edge9" class="edge"><title>Node2&#45;&gt;Node7</title>
<path fill="none" stroke="midnightblue" d="M499.537,-171.357C452.648,-163.581 366.906,-148.633 294.5,-132 291.606,-131.335 288.584,-130.587 285.594,-129.813"/>
<polygon fill="midnightblue" stroke="midnightblue" points="499.05,-174.824 509.486,-172.996 500.188,-167.917 499.05,-174.824"/>
</g>
<!-- Node8 -->
<g id="node8" class="node"><title>Node8</title>
<g id="a_node8"><a xlink:href="applyformat_8hpp.html" target="_top" xlink:title="applyformat.hpp">
<polygon fill="white" stroke="black" points="303.5,-112.5 303.5,-131.5 389.5,-131.5 389.5,-112.5 303.5,-112.5"/>
<text text-anchor="middle" x="346.5" y="-119.5" font-family="Helvetica,sans-Serif" font-size="10.00">applyformat.hpp</text>
</a>
</g>
</g>
<!-- Node2&#45;&gt;Node8 -->
<g id="edge10" class="edge"><title>Node2&#45;&gt;Node8</title>
<path fill="none" stroke="midnightblue" d="M499.234,-166.87C463.805,-156.694 409.802,-141.182 376.406,-131.59"/>
<polygon fill="midnightblue" stroke="midnightblue" points="498.568,-170.321 509.145,-169.717 500.5,-163.593 498.568,-170.321"/>
</g>
<!-- Node9 -->
<g id="node9" class="node"><title>Node9</title>
<g id="a_node9"><a xlink:href="namespace_8hpp.html" target="_top" xlink:title="namespace.hpp">
<polygon fill="white" stroke="black" points="528.5,-56.5 528.5,-75.5 614.5,-75.5 614.5,-56.5 528.5,-56.5"/>
<text text-anchor="middle" x="571.5" y="-63.5" font-family="Helvetica,sans-Serif" font-size="10.00">namespace.hpp</text>
</a>
</g>
</g>
<!-- Node2&#45;&gt;Node9 -->
<g id="edge32" class="edge"><title>Node2&#45;&gt;Node9</title>
<path fill="none" stroke="midnightblue" d="M499.695,-167.867C467.876,-156.839 428.56,-136.665 445.5,-112 463.612,-85.6288 499.501,-74.7056 528.484,-70.1846"/>
<polygon fill="midnightblue" stroke="midnightblue" points="498.667,-171.212 509.259,-170.99 500.84,-164.558 498.667,-171.212"/>
</g>
<!-- Node10 -->
<g id="node10" class="node"><title>Node10</title>
<g id="a_node10"><a xlink:href="applyto_8hpp.html" target="_top" xlink:title="applyto.hpp">
<polygon fill="white" stroke="black" points="464,-112.5 464,-131.5 531,-131.5 531,-112.5 464,-112.5"/>
<text text-anchor="middle" x="497.5" y="-119.5" font-family="Helvetica,sans-Serif" font-size="10.00">applyto.hpp</text>
</a>
</g>
</g>
<!-- Node2&#45;&gt;Node10 -->
<g id="edge13" class="edge"><title>Node2&#45;&gt;Node10</title>
<path fill="none" stroke="midnightblue" d="M522.554,-159.566C516.188,-150.275 508.633,-139.248 503.496,-131.751"/>
<polygon fill="midnightblue" stroke="midnightblue" points="519.851,-161.812 528.39,-168.083 525.625,-157.855 519.851,-161.812"/>
</g>
<!-- Node11 -->
<g id="node11" class="node"><title>Node11</title>
<g id="a_node11"><a xlink:href="as_8hpp.html" target="_top" xlink:title="as.hpp">
<polygon fill="white" stroke="black" points="549.5,-112.5 549.5,-131.5 595.5,-131.5 595.5,-112.5 549.5,-112.5"/>
<text text-anchor="middle" x="572.5" y="-119.5" font-family="Helvetica,sans-Serif" font-size="10.00">as.hpp</text>
</a>
</g>
</g>
<!-- Node2&#45;&gt;Node11 -->
<g id="edge15" class="edge"><title>Node2&#45;&gt;Node11</title>
<path fill="none" stroke="midnightblue" d="M540.591,-159.275C546.326,-150.045 554.397,-139.17 561.211,-131.751"/>
<polygon fill="midnightblue" stroke="midnightblue" points="537.485,-157.656 535.609,-168.083 543.578,-161.102 537.485,-157.656"/>
</g>
<!-- Node12 -->
<g id="node12" class="node"><title>Node12</title>
<g id="a_node12"><a xlink:href="asalloc_8hpp.html" target="_top" xlink:title="asalloc.hpp">
<polygon fill="white" stroke="black" points="613.5,-112.5 613.5,-131.5 679.5,-131.5 679.5,-112.5 613.5,-112.5"/>
<text text-anchor="middle" x="646.5" y="-119.5" font-family="Helvetica,sans-Serif" font-size="10.00">asalloc.hpp</text>
</a>
</g>
</g>
<!-- Node2&#45;&gt;Node12 -->
<g id="edge17" class="edge"><title>Node2&#45;&gt;Node12</title>
<path fill="none" stroke="midnightblue" d="M561.749,-163.862C582.516,-153.849 610.523,-140.346 628.55,-131.655"/>
<polygon fill="midnightblue" stroke="midnightblue" points="559.982,-160.828 552.495,-168.324 563.023,-167.134 559.982,-160.828"/>
</g>
<!-- Node13 -->
<g id="node13" class="node"><title>Node13</title>
<g id="a_node13"><a xlink:href="asliteral_8hpp.html" target="_top" xlink:title="asliteral.hpp">
<polygon fill="white" stroke="black" points="698,-112.5 698,-131.5 767,-131.5 767,-112.5 698,-112.5"/>
<text text-anchor="middle" x="732.5" y="-119.5" font-family="Helvetica,sans-Serif" font-size="10.00">asliteral.hpp</text>
</a>
</g>
</g>
<!-- Node2&#45;&gt;Node13 -->
<g id="edge19" class="edge"><title>Node2&#45;&gt;Node13</title>
<path fill="none" stroke="midnightblue" d="M569.494,-167.456C606.779,-157.288 665.264,-141.337 701.109,-131.561"/>
<polygon fill="midnightblue" stroke="midnightblue" points="568.304,-164.153 559.577,-170.161 570.145,-170.906 568.304,-164.153"/>
</g>
<!-- Node14 -->
<g id="node14" class="node"><title>Node14</title>
<g id="a_node14"><a xlink:href="asprealloc_8hpp.html" target="_top" xlink:title="asprealloc.hpp">
<polygon fill="white" stroke="black" points="902.5,-112.5 902.5,-131.5 982.5,-131.5 982.5,-112.5 902.5,-112.5"/>
<text text-anchor="middle" x="942.5" y="-119.5" font-family="Helvetica,sans-Serif" font-size="10.00">asprealloc.hpp</text>
</a>
</g>
</g>
<!-- Node2&#45;&gt;Node14 -->
<g id="edge21" class="edge"><title>Node2&#45;&gt;Node14</title>
<path fill="none" stroke="midnightblue" d="M569.749,-173.197C634.042,-166.122 774.597,-150.008 892.5,-132 895.726,-131.507 899.064,-130.969 902.414,-130.409"/>
<polygon fill="midnightblue" stroke="midnightblue" points="569.297,-169.726 559.738,-174.294 570.059,-176.684 569.297,-169.726"/>
</g>
<!-- Node15 -->
<g id="node15" class="node"><title>Node15</title>
<g id="a_node15"><a xlink:href="thread_8hpp.html" target="_top" xlink:title="thread.hpp">
<polygon fill="white" stroke="red" points="911.5,-56.5 911.5,-75.5 973.5,-75.5 973.5,-56.5 911.5,-56.5"/>
<text text-anchor="middle" x="942.5" y="-63.5" font-family="Helvetica,sans-Serif" font-size="10.00">thread.hpp</text>
</a>
</g>
</g>
<!-- Node2&#45;&gt;Node15 -->
<g id="edge33" class="edge"><title>Node2&#45;&gt;Node15</title>
<path fill="none" stroke="midnightblue" d="M569.936,-176.189C672.362,-173.48 963.318,-163.093 991.5,-132 1008.68,-113.047 977.07,-88.402 957.076,-75.5879"/>
<polygon fill="midnightblue" stroke="midnightblue" points="569.697,-172.693 559.79,-176.448 569.876,-179.691 569.697,-172.693"/>
</g>
<!-- Node16 -->
<g id="node16" class="node"><title>Node16</title>
<g id="a_node16"><a xlink:href="assubstring_8hpp.html" target="_top" xlink:title="assubstring.hpp">
<polygon fill="white" stroke="black" points="1038.5,-112.5 1038.5,-131.5 1124.5,-131.5 1124.5,-112.5 1038.5,-112.5"/>
<text text-anchor="middle" x="1081.5" y="-119.5" font-family="Helvetica,sans-Serif" font-size="10.00">assubstring.hpp</text>
</a>
</g>
</g>
<!-- Node2&#45;&gt;Node16 -->
<g id="edge25" class="edge"><title>Node2&#45;&gt;Node16</title>
<path fill="none" stroke="midnightblue" d="M569.642,-174.561C650.239,-168.795 854.537,-153.2 1024.5,-132 1028.97,-131.442 1033.64,-130.802 1038.28,-130.126"/>
<polygon fill="midnightblue" stroke="midnightblue" points="569.276,-171.078 559.549,-175.278 569.772,-178.061 569.276,-171.078"/>
</g>
<!-- Node19 -->
<g id="node19" class="node"><title>Node19</title>
<g id="a_node19"><a xlink:href="asterminatable_8hpp.html" target="_top" xlink:title="asterminatable.hpp">
<polygon fill="white" stroke="black" points="785,-112.5 785,-131.5 884,-131.5 884,-112.5 785,-112.5"/>
<text text-anchor="middle" x="834.5" y="-119.5" font-family="Helvetica,sans-Serif" font-size="10.00">asterminatable.hpp</text>
</a>
</g>
</g>
<!-- Node2&#45;&gt;Node19 -->
<g id="edge28" class="edge"><title>Node2&#45;&gt;Node19</title>
<path fill="none" stroke="midnightblue" d="M569.66,-170.671C623.571,-160.967 726.744,-142.396 787.173,-131.519"/>
<polygon fill="midnightblue" stroke="midnightblue" points="568.784,-167.273 559.562,-172.489 570.024,-174.162 568.784,-167.273"/>
</g>
<!-- Node20 -->
<g id="node20" class="node"><title>Node20</title>
<g id="a_node20"><a xlink:href="cstring_8hpp.html" target="_top" xlink:title="cstring.hpp">
<polygon fill="white" stroke="black" points="1143,-112.5 1143,-131.5 1208,-131.5 1208,-112.5 1143,-112.5"/>
<text text-anchor="middle" x="1175.5" y="-119.5" font-family="Helvetica,sans-Serif" font-size="10.00">cstring.hpp</text>
</a>
</g>
</g>
<!-- Node2&#45;&gt;Node20 -->
<g id="edge30" class="edge"><title>Node2&#45;&gt;Node20</title>
<path fill="none" stroke="midnightblue" d="M569.812,-175.88C661.779,-172.763 915.247,-162.137 1124.5,-132 1130.4,-131.15 1136.72,-129.952 1142.89,-128.707"/>
<polygon fill="midnightblue" stroke="midnightblue" points="569.539,-172.387 559.66,-176.216 569.77,-179.383 569.539,-172.387"/>
</g>
<!-- Node21 -->
<g id="node21" class="node"><title>Node21</title>
<g id="a_node21"><a xlink:href="alox_8hpp.html" target="_top" xlink:title="alox.hpp">
<polygon fill="white" stroke="red" points="1226,-112.5 1226,-131.5 1279,-131.5 1279,-112.5 1226,-112.5"/>
<text text-anchor="middle" x="1252.5" y="-119.5" font-family="Helvetica,sans-Serif" font-size="10.00">alox.hpp</text>
</a>
</g>
</g>
<!-- Node2&#45;&gt;Node21 -->
<g id="edge35" class="edge"><title>Node2&#45;&gt;Node21</title>
<path fill="none" stroke="midnightblue" d="M569.815,-176.979C671.238,-176.426 971.86,-171.324 1217.5,-132 1220.23,-131.564 1223.05,-131.011 1225.85,-130.396"/>
<polygon fill="midnightblue" stroke="midnightblue" points="569.792,-173.479 559.807,-177.022 569.822,-180.479 569.792,-173.479"/>
</g>
<!-- Node3&#45;&gt;Node2 -->
<g id="edge3" class="edge"><title>Node3&#45;&gt;Node2</title>
<path fill="none" stroke="midnightblue" d="M75.0917,-129.829C79.6417,-130.624 84.1744,-131.373 88.5,-132 248.169,-155.135 441.11,-169.9 509.339,-175.002"/>
<polygon fill="midnightblue" stroke="midnightblue" points="75.6384,-126.371 65.1767,-128.046 74.3992,-133.261 75.6384,-126.371"/>
</g>
<!-- Node4&#45;&gt;Node5 -->
<g id="edge6" class="edge"><title>Node4&#45;&gt;Node5</title>
<path fill="none" stroke="midnightblue" d="M85.4915,-49.8197C96.9576,-40.1452 111.413,-27.9481 121.03,-19.8339"/>
<polygon fill="midnightblue" stroke="midnightblue" points="83.1686,-47.2002 77.7827,-56.324 87.6827,-52.5502 83.1686,-47.2002"/>
</g>
<!-- Node6&#45;&gt;Node2 -->
<g id="edge8" class="edge"><title>Node6&#45;&gt;Node2</title>
<path fill="none" stroke="midnightblue" d="M229.489,-130.397C232.213,-130.966 234.901,-131.51 237.5,-132 337.756,-150.908 457.752,-166.537 509.282,-173.339"/>
<polygon fill="midnightblue" stroke="midnightblue" points="230.085,-126.945 219.573,-128.264 228.614,-133.788 230.085,-126.945"/>
</g>
<!-- Node8&#45;&gt;Node9 -->
<g id="edge11" class="edge"><title>Node8&#45;&gt;Node9</title>
<path fill="none" stroke="midnightblue" d="M391.965,-110.088C434.473,-99.8865 497.079,-84.8612 536.015,-75.5164"/>
<polygon fill="midnightblue" stroke="midnightblue" points="391.059,-106.706 382.152,-112.444 392.693,-113.513 391.059,-106.706"/>
</g>
<!-- Node9&#45;&gt;Node2 -->
<g id="edge12" class="edge"><title>Node9&#45;&gt;Node2</title>
<path fill="none" stroke="midnightblue" d="M518.703,-76.0171C498.036,-82.4125 476.317,-93.3383 463.5,-112 446.277,-137.077 487.207,-157.513 514.014,-168.412"/>
<polygon fill="midnightblue" stroke="midnightblue" points="519.715,-79.3688 528.404,-73.3068 517.831,-72.627 519.715,-79.3688"/>
</g>
<!-- Node10&#45;&gt;Node9 -->
<g id="edge14" class="edge"><title>Node10&#45;&gt;Node9</title>
<path fill="none" stroke="midnightblue" d="M517.534,-106.38C530.909,-96.6204 548.059,-84.1057 559.394,-75.8339"/>
<polygon fill="midnightblue" stroke="midnightblue" points="515.404,-103.602 509.389,-112.324 519.53,-109.257 515.404,-103.602"/>
</g>
<!-- Node11&#45;&gt;Node2 -->
<g id="edge16" class="edge"><title>Node11&#45;&gt;Node2</title>
<path fill="none" stroke="midnightblue" d="M566.537,-140.52C560.836,-149.724 552.774,-160.613 545.941,-168.083"/>
<polygon fill="midnightblue" stroke="midnightblue" points="569.618,-142.182 571.473,-131.751 563.518,-138.749 569.618,-142.182"/>
</g>
<!-- Node12&#45;&gt;Node9 -->
<g id="edge18" class="edge"><title>Node12&#45;&gt;Node9</title>
<path fill="none" stroke="midnightblue" d="M626.195,-106.38C612.639,-96.6204 595.258,-84.1057 583.769,-75.8339"/>
<polygon fill="midnightblue" stroke="midnightblue" points="624.29,-109.321 634.45,-112.324 628.38,-103.641 624.29,-109.321"/>
</g>
<!-- Node13&#45;&gt;Node9 -->
<g id="edge20" class="edge"><title>Node13&#45;&gt;Node9</title>
<path fill="none" stroke="midnightblue" d="M697.235,-109.172C666.919,-99.0039 623.93,-84.5852 596.892,-75.5164"/>
<polygon fill="midnightblue" stroke="midnightblue" points="696.395,-112.582 706.989,-112.444 698.621,-105.945 696.395,-112.582"/>
</g>
<!-- Node14&#45;&gt;Node9 -->
<g id="edge22" class="edge"><title>Node14&#45;&gt;Node9</title>
<path fill="none" stroke="midnightblue" d="M892.802,-112.048C892.702,-112.032 892.601,-112.016 892.5,-112 793.313,-96.1269 676.382,-80.5113 614.674,-72.5112"/>
<polygon fill="midnightblue" stroke="midnightblue" points="891.968,-115.458 902.406,-113.642 893.114,-108.552 891.968,-115.458"/>
</g>
<!-- Node14&#45;&gt;Node15 -->
<g id="edge23" class="edge"><title>Node14&#45;&gt;Node15</title>
<path fill="none" stroke="midnightblue" d="M942.5,-101.805C942.5,-92.9102 942.5,-82.7798 942.5,-75.7511"/>
<polygon fill="midnightblue" stroke="midnightblue" points="939,-102.083 942.5,-112.083 946,-102.083 939,-102.083"/>
</g>
<!-- Node15&#45;&gt;Node5 -->
<g id="edge24" class="edge"><title>Node15&#45;&gt;Node5</title>
<path fill="none" stroke="midnightblue" d="M900.936,-62.2325C761.285,-52.9339 309.97,-22.8833 171.966,-13.6944"/>
<polygon fill="midnightblue" stroke="midnightblue" points="900.994,-65.744 911.205,-62.9162 901.459,-58.7595 900.994,-65.744"/>
</g>
<!-- Node17 -->
<g id="node17" class="node"><title>Node17</title>
<g id="a_node17"><a xlink:href="tokenizer_8hpp.html" target="_top" xlink:title="tokenizer.hpp">
<polygon fill="white" stroke="black" points="1017,-56.5 1017,-75.5 1092,-75.5 1092,-56.5 1017,-56.5"/>
<text text-anchor="middle" x="1054.5" y="-63.5" font-family="Helvetica,sans-Serif" font-size="10.00">tokenizer.hpp</text>
</a>
</g>
</g>
<!-- Node16&#45;&gt;Node17 -->
<g id="edge26" class="edge"><title>Node16&#45;&gt;Node17</title>
<path fill="none" stroke="midnightblue" d="M1072.49,-102.983C1067.91,-93.8168 1062.55,-83.0922 1058.88,-75.7511"/>
<polygon fill="midnightblue" stroke="midnightblue" points="1069.44,-104.704 1077.04,-112.083 1075.7,-101.573 1069.44,-104.704"/>
</g>
<!-- Node18 -->
<g id="node18" class="node"><title>Node18</title>
<g id="a_node18"><a xlink:href="ticks_8hpp.html" target="_top" xlink:title="ticks.hpp">
<polygon fill="white" stroke="red" points="1109.5,-56.5 1109.5,-75.5 1165.5,-75.5 1165.5,-56.5 1109.5,-56.5"/>
<text text-anchor="middle" x="1137.5" y="-63.5" font-family="Helvetica,sans-Serif" font-size="10.00">ticks.hpp</text>
</a>
</g>
</g>
<!-- Node16&#45;&gt;Node18 -->
<g id="edge27" class="edge"><title>Node16&#45;&gt;Node18</title>
<path fill="none" stroke="midnightblue" d="M1097.83,-105.253C1107.76,-95.6731 1120.09,-83.7906 1128.34,-75.8339"/>
<polygon fill="midnightblue" stroke="midnightblue" points="1095.27,-102.863 1090.5,-112.324 1100.13,-107.902 1095.27,-102.863"/>
</g>
<!-- Node19&#45;&gt;Node9 -->
<g id="edge29" class="edge"><title>Node19&#45;&gt;Node9</title>
<path fill="none" stroke="midnightblue" d="M782.921,-110.41C733.217,-100.204 658.971,-84.9597 612.978,-75.5164"/>
<polygon fill="midnightblue" stroke="midnightblue" points="782.327,-113.861 792.827,-112.444 783.735,-107.004 782.327,-113.861"/>
</g>
<!-- Node20&#45;&gt;Node2 -->
<g id="edge31" class="edge"><title>Node20&#45;&gt;Node2</title>
<path fill="none" stroke="midnightblue" d="M1135.61,-132.949C910.236,-164.585 642.001,-174.218 559.604,-176.439"/>
<polygon fill="midnightblue" stroke="midnightblue" points="1136.22,-136.397 1145.63,-131.523 1135.24,-129.466 1136.22,-136.397"/>
</g>
</g>
</svg>
