<?xml version="1.0" encoding="UTF-8" standalone="no"?>
<!DOCTYPE svg PUBLIC "-//W3C//DTD SVG 1.1//EN"
 "http://www.w3.org/Graphics/SVG/1.1/DTD/svg11.dtd">
<!-- Generated by graphviz version 2.40.1 (20161225.0304)
 -->
<!-- Title: ownable.hpp Pages: 1 -->
<svg width="309pt" height="252pt"
 viewBox="0.00 0.00 309.48 252.00" xmlns="http://www.w3.org/2000/svg" xmlns:xlink="http://www.w3.org/1999/xlink">
<g id="graph0" class="graph" transform="scale(1 1) rotate(0) translate(4 248)">
<title>ownable.hpp</title>
<polygon fill="#ffffff" stroke="transparent" points="-4,4 -4,-248 305.4796,-248 305.4796,4 -4,4"/>
<!-- Node53 -->
<g id="node1" class="node">
<title>Node53</title>
<polygon fill="#bfbfbf" stroke="#000000" points="61.9796,-224.5 61.9796,-243.5 132.9796,-243.5 132.9796,-224.5 61.9796,-224.5"/>
<text text-anchor="middle" x="97.4796" y="-231.5" font-family="Helvetica,sans-Serif" font-size="10.00" fill="#000000">ownable.hpp</text>
</g>
<!-- Node54 -->
<g id="node2" class="node">
<title>Node54</title>
<g id="a_node2"><a xlink:href="threadlocknr_8hpp.html" target="_top" xlink:title="threadlocknr.hpp">
<polygon fill="#ffffff" stroke="#000000" points="53.4796,-168.5 53.4796,-187.5 141.4796,-187.5 141.4796,-168.5 53.4796,-168.5"/>
<text text-anchor="middle" x="97.4796" y="-175.5" font-family="Helvetica,sans-Serif" font-size="10.00" fill="#000000">threadlocknr.hpp</text>
</a>
</g>
</g>
<!-- Node53&#45;&gt;Node54 -->
<g id="edge1" class="edge">
<title>Node53&#45;&gt;Node54</title>
<path fill="none" stroke="#191970" d="M97.4796,-214.1575C97.4796,-205.155 97.4796,-194.9199 97.4796,-187.6427"/>
<polygon fill="#191970" stroke="#191970" points="93.9797,-214.2455 97.4796,-224.2455 100.9797,-214.2456 93.9797,-214.2455"/>
</g>
<!-- Node55 -->
<g id="node3" class="node">
<title>Node55</title>
<g id="a_node3"><a xlink:href="threadlock_8hpp.html" target="_top" xlink:title="threadlock.hpp">
<polygon fill="#ffffff" stroke="#000000" points="57.4796,-112.5 57.4796,-131.5 137.4796,-131.5 137.4796,-112.5 57.4796,-112.5"/>
<text text-anchor="middle" x="97.4796" y="-119.5" font-family="Helvetica,sans-Serif" font-size="10.00" fill="#000000">threadlock.hpp</text>
</a>
</g>
</g>
<!-- Node54&#45;&gt;Node55 -->
<g id="edge2" class="edge">
<title>Node54&#45;&gt;Node55</title>
<path fill="none" stroke="#191970" d="M97.4796,-158.1575C97.4796,-149.155 97.4796,-138.9199 97.4796,-131.6427"/>
<polygon fill="#191970" stroke="#191970" points="93.9797,-158.2455 97.4796,-168.2455 100.9797,-158.2456 93.9797,-158.2455"/>
</g>
<!-- Node56 -->
<g id="node4" class="node">
<title>Node56</title>
<g id="a_node4"><a xlink:href="configuration_8hpp.html" target="_top" xlink:title="configuration.hpp">
<polygon fill="#ffffff" stroke="#ff0000" points="72.9796,-.5 72.9796,-19.5 163.9796,-19.5 163.9796,-.5 72.9796,-.5"/>
<text text-anchor="middle" x="118.4796" y="-7.5" font-family="Helvetica,sans-Serif" font-size="10.00" fill="#000000">configuration.hpp</text>
</a>
</g>
</g>
<!-- Node55&#45;&gt;Node56 -->
<g id="edge3" class="edge">
<title>Node55&#45;&gt;Node56</title>
<path fill="none" stroke="#191970" d="M51.9959,-109.2686C20.9934,-98.147 -11.7295,-80.0194 4.4796,-56 19.7606,-33.3558 48.2606,-21.8558 72.9404,-16.0168"/>
<polygon fill="#191970" stroke="#191970" points="50.9117,-112.5967 61.506,-112.494 53.16,-105.9676 50.9117,-112.5967"/>
</g>
<!-- Node75 -->
<g id="node5" class="node">
<title>Node75</title>
<g id="a_node5"><a xlink:href="formatter_8hpp.html" target="_top" xlink:title="formatter.hpp">
<polygon fill="#ffffff" stroke="#ff0000" points="13.4796,-56.5 13.4796,-75.5 87.4796,-75.5 87.4796,-56.5 13.4796,-56.5"/>
<text text-anchor="middle" x="50.4796" y="-63.5" font-family="Helvetica,sans-Serif" font-size="10.00" fill="#000000">formatter.hpp</text>
</a>
</g>
</g>
<!-- Node55&#45;&gt;Node75 -->
<g id="edge4" class="edge">
<title>Node55&#45;&gt;Node75</title>
<path fill="none" stroke="#191970" d="M82.7924,-104.5004C74.8,-94.9775 65.2171,-83.5596 58.5725,-75.6427"/>
<polygon fill="#191970" stroke="#191970" points="80.1831,-106.8358 89.2928,-112.2455 85.545,-102.3357 80.1831,-106.8358"/>
</g>
<!-- Node82 -->
<g id="node6" class="node">
<title>Node82</title>
<g id="a_node6"><a xlink:href="smartlock_8hpp.html" target="_top" xlink:title="smartlock.hpp">
<polygon fill="#ffffff" stroke="#ff0000" points="105.4796,-56.5 105.4796,-75.5 183.4796,-75.5 183.4796,-56.5 105.4796,-56.5"/>
<text text-anchor="middle" x="144.4796" y="-63.5" font-family="Helvetica,sans-Serif" font-size="10.00" fill="#000000">smartlock.hpp</text>
</a>
</g>
</g>
<!-- Node55&#45;&gt;Node82 -->
<g id="edge5" class="edge">
<title>Node55&#45;&gt;Node82</title>
<path fill="none" stroke="#191970" d="M112.1668,-104.5004C120.1592,-94.9775 129.742,-83.5596 136.3866,-75.6427"/>
<polygon fill="#191970" stroke="#191970" points="109.4142,-102.3357 105.6664,-112.2455 114.776,-106.8358 109.4142,-102.3357"/>
</g>
<!-- Node83 -->
<g id="node7" class="node">
<title>Node83</title>
<g id="a_node7"><a xlink:href="plugincontainer_8hpp.html" target="_top" xlink:title="plugincontainer.hpp">
<polygon fill="#ffffff" stroke="#000000" points="201.4796,-56.5 201.4796,-75.5 301.4796,-75.5 301.4796,-56.5 201.4796,-56.5"/>
<text text-anchor="middle" x="251.4796" y="-63.5" font-family="Helvetica,sans-Serif" font-size="10.00" fill="#000000">plugincontainer.hpp</text>
</a>
</g>
</g>
<!-- Node55&#45;&gt;Node83 -->
<g id="edge6" class="edge">
<title>Node55&#45;&gt;Node83</title>
<path fill="none" stroke="#191970" d="M133.441,-108.9231C161.593,-98.686 200.0851,-84.6889 225.3515,-75.5011"/>
<polygon fill="#191970" stroke="#191970" points="132.1549,-105.6665 123.9531,-112.3733 134.5472,-112.245 132.1549,-105.6665"/>
</g>
<!-- Node83&#45;&gt;Node56 -->
<g id="edge7" class="edge">
<title>Node83&#45;&gt;Node56</title>
<path fill="none" stroke="#191970" d="M219.1399,-52.3833C194.9511,-42.1985 162.4846,-28.5284 141.0448,-19.5011"/>
<polygon fill="#191970" stroke="#191970" points="218.0415,-55.7184 228.6161,-56.3733 220.7579,-49.2669 218.0415,-55.7184"/>
</g>
</g>
</svg>
