<?xml version="1.0" encoding="UTF-8" standalone="no"?>
<!DOCTYPE svg PUBLIC "-//W3C//DTD SVG 1.1//EN"
 "http://www.w3.org/Graphics/SVG/1.1/DTD/svg11.dtd">
<!-- Generated by graphviz version 2.38.0 (20140413.2041)
 -->
<!-- Title: plaintextlogger.hpp Pages: 1 -->
<svg width="2118pt" height="431pt"
 viewBox="0.00 0.00 2117.50 431.00" xmlns="http://www.w3.org/2000/svg" xmlns:xlink="http://www.w3.org/1999/xlink">
<g id="graph0" class="graph" transform="scale(1 1) rotate(0) translate(4 427)">
<title>plaintextlogger.hpp</title>
<polygon fill="white" stroke="none" points="-4,4 -4,-427 2113.5,-427 2113.5,4 -4,4"/>
<!-- Node1 -->
<g id="node1" class="node"><title>Node1</title>
<polygon fill="#bfbfbf" stroke="black" points="1152,-403.5 1152,-422.5 1250,-422.5 1250,-403.5 1152,-403.5"/>
<text text-anchor="middle" x="1201" y="-410.5" font-family="Helvetica,sans-Serif" font-size="10.00">plaintextlogger.hpp</text>
</g>
<!-- Node2 -->
<g id="node2" class="node"><title>Node2</title>
<g id="a_node2"><a xlink:href="alox_8hpp.html" target="_top" xlink:title="alox/alox.hpp">
<polygon fill="white" stroke="black" points="1125,-224.5 1125,-243.5 1199,-243.5 1199,-224.5 1125,-224.5"/>
<text text-anchor="middle" x="1162" y="-231.5" font-family="Helvetica,sans-Serif" font-size="10.00">alox/alox.hpp</text>
</a>
</g>
</g>
<!-- Node1&#45;&gt;Node2 -->
<g id="edge1" class="edge"><title>Node1&#45;&gt;Node2</title>
<path fill="none" stroke="midnightblue" d="M1196.27,-403.307C1191.65,-394.436 1184.79,-380.144 1181,-367 1169.66,-327.643 1164.92,-279.646 1163.07,-253.744"/>
<polygon fill="midnightblue" stroke="midnightblue" points="1166.55,-253.264 1162.41,-243.509 1159.56,-253.713 1166.55,-253.264"/>
</g>
<!-- Node32 -->
<g id="node32" class="node"><title>Node32</title>
<g id="a_node32"><a xlink:href="textlogger_8hpp.html" target="_top" xlink:title="alox/core/textlogger\l/textlogger.hpp">
<polygon fill="white" stroke="black" points="1190,-336.5 1190,-366.5 1292,-366.5 1292,-336.5 1190,-336.5"/>
<text text-anchor="start" x="1198" y="-354.5" font-family="Helvetica,sans-Serif" font-size="10.00">alox/core/textlogger</text>
<text text-anchor="middle" x="1241" y="-343.5" font-family="Helvetica,sans-Serif" font-size="10.00">/textlogger.hpp</text>
</a>
</g>
</g>
<!-- Node1&#45;&gt;Node32 -->
<g id="edge47" class="edge"><title>Node1&#45;&gt;Node32</title>
<path fill="none" stroke="midnightblue" d="M1206.73,-403.475C1211.74,-396.019 1219.25,-384.852 1225.96,-374.869"/>
<polygon fill="midnightblue" stroke="midnightblue" points="1228.9,-376.775 1231.57,-366.523 1223.09,-372.869 1228.9,-376.775"/>
</g>
<!-- Node3 -->
<g id="node3" class="node"><title>Node3</title>
<g id="a_node3"><a xlink:href="alib_8hpp.html" target="_top" xlink:title="alib/alib.hpp">
<polygon fill="white" stroke="black" points="1003,-56.5 1003,-75.5 1071,-75.5 1071,-56.5 1003,-56.5"/>
<text text-anchor="middle" x="1037" y="-63.5" font-family="Helvetica,sans-Serif" font-size="10.00">alib/alib.hpp</text>
</a>
</g>
</g>
<!-- Node2&#45;&gt;Node3 -->
<g id="edge2" class="edge"><title>Node2&#45;&gt;Node3</title>
<path fill="none" stroke="midnightblue" d="M1124.8,-229.128C1095.32,-224.212 1054.92,-213.092 1029,-188 1003.82,-163.627 998.106,-145.618 1008,-112 1011.01,-101.765 1017.15,-91.6599 1023.01,-83.627"/>
<polygon fill="midnightblue" stroke="midnightblue" points="1025.93,-85.5773 1029.33,-75.5413 1020.41,-81.2694 1025.93,-85.5773"/>
</g>
<!-- Node23 -->
<g id="node23" class="node"><title>Node23</title>
<g id="a_node23"><a xlink:href="alox__symbols_8hpp.html" target="_top" xlink:title="internals/alox_symbols.hpp">
<polygon fill="white" stroke="black" points="1142.5,-168.5 1142.5,-187.5 1277.5,-187.5 1277.5,-168.5 1142.5,-168.5"/>
<text text-anchor="middle" x="1210" y="-175.5" font-family="Helvetica,sans-Serif" font-size="10.00">internals/alox_symbols.hpp</text>
</a>
</g>
</g>
<!-- Node2&#45;&gt;Node23 -->
<g id="edge32" class="edge"><title>Node2&#45;&gt;Node23</title>
<path fill="none" stroke="midnightblue" d="M1169.93,-224.083C1176.85,-216.298 1187.07,-204.801 1195.45,-195.367"/>
<polygon fill="midnightblue" stroke="midnightblue" points="1198.19,-197.55 1202.22,-187.751 1192.96,-192.9 1198.19,-197.55"/>
</g>
<!-- Node24 -->
<g id="node24" class="node"><title>Node24</title>
<g id="a_node24"><a xlink:href="alox__macros_8hpp.html" target="_top" xlink:title="internals/alox_macros.hpp">
<polygon fill="white" stroke="black" points="1295.5,-168.5 1295.5,-187.5 1426.5,-187.5 1426.5,-168.5 1295.5,-168.5"/>
<text text-anchor="middle" x="1361" y="-175.5" font-family="Helvetica,sans-Serif" font-size="10.00">internals/alox_macros.hpp</text>
</a>
</g>
</g>
<!-- Node2&#45;&gt;Node24 -->
<g id="edge33" class="edge"><title>Node2&#45;&gt;Node24</title>
<path fill="none" stroke="midnightblue" d="M1193.53,-224.444C1227.59,-215.201 1282.01,-200.436 1319.52,-190.257"/>
<polygon fill="midnightblue" stroke="midnightblue" points="1320.88,-193.513 1329.62,-187.516 1319.05,-186.758 1320.88,-193.513"/>
</g>
<!-- Node25 -->
<g id="node25" class="node"><title>Node25</title>
<g id="a_node25"><a xlink:href="log_8hpp.html" target="_top" xlink:title="log.hpp">
<polygon fill="white" stroke="black" points="913,-168.5 913,-187.5 961,-187.5 961,-168.5 913,-168.5"/>
<text text-anchor="middle" x="937" y="-175.5" font-family="Helvetica,sans-Serif" font-size="10.00">log.hpp</text>
</a>
</g>
</g>
<!-- Node2&#45;&gt;Node25 -->
<g id="edge34" class="edge"><title>Node2&#45;&gt;Node25</title>
<path fill="none" stroke="midnightblue" d="M1124.86,-225.263C1082.09,-215.558 1012.66,-198.923 971.171,-188.468"/>
<polygon fill="midnightblue" stroke="midnightblue" points="971.814,-185.02 961.26,-185.951 970.091,-191.805 971.814,-185.02"/>
</g>
<!-- Node26 -->
<g id="node26" class="node"><title>Node26</title>
<g id="a_node26"><a xlink:href="lox_8hpp.html" target="_top" xlink:title="lox.hpp">
<polygon fill="white" stroke="black" points="1038,-168.5 1038,-187.5 1086,-187.5 1086,-168.5 1038,-168.5"/>
<text text-anchor="middle" x="1062" y="-175.5" font-family="Helvetica,sans-Serif" font-size="10.00">lox.hpp</text>
</a>
</g>
</g>
<!-- Node2&#45;&gt;Node26 -->
<g id="edge36" class="edge"><title>Node2&#45;&gt;Node26</title>
<path fill="none" stroke="midnightblue" d="M1145.93,-224.324C1130.04,-215.743 1105.49,-202.486 1087.04,-192.522"/>
<polygon fill="midnightblue" stroke="midnightblue" points="1088.49,-189.326 1078.03,-187.655 1085.16,-195.486 1088.49,-189.326"/>
</g>
<!-- Node4 -->
<g id="node4" class="node"><title>Node4</title>
<g id="a_node4"><a xlink:href="symbols_8hpp.html" target="_top" xlink:title="alib/core/symbols.hpp">
<polygon fill="white" stroke="black" points="0,-0.5 0,-19.5 112,-19.5 112,-0.5 0,-0.5"/>
<text text-anchor="middle" x="56" y="-7.5" font-family="Helvetica,sans-Serif" font-size="10.00">alib/core/symbols.hpp</text>
</a>
</g>
</g>
<!-- Node3&#45;&gt;Node4 -->
<g id="edge3" class="edge"><title>Node3&#45;&gt;Node4</title>
<path fill="none" stroke="midnightblue" d="M1002.78,-64.4391C883.02,-62.2406 471.489,-52.7019 122.213,-20.1363"/>
<polygon fill="midnightblue" stroke="midnightblue" points="122.442,-16.6425 112.158,-19.1908 121.786,-23.6117 122.442,-16.6425"/>
</g>
<!-- Node5 -->
<g id="node5" class="node"><title>Node5</title>
<g id="a_node5"><a xlink:href="macros_8hpp.html" target="_top" xlink:title="alib/core/macros.hpp">
<polygon fill="white" stroke="black" points="129.5,-0.5 129.5,-19.5 236.5,-19.5 236.5,-0.5 129.5,-0.5"/>
<text text-anchor="middle" x="183" y="-7.5" font-family="Helvetica,sans-Serif" font-size="10.00">alib/core/macros.hpp</text>
</a>
</g>
</g>
<!-- Node3&#45;&gt;Node5 -->
<g id="edge4" class="edge"><title>Node3&#45;&gt;Node5</title>
<path fill="none" stroke="midnightblue" d="M1003,-64.0997C894.423,-61.0066 546.16,-49.3963 246.761,-19.9795"/>
<polygon fill="midnightblue" stroke="midnightblue" points="246.875,-16.4738 236.579,-18.9703 246.185,-23.4396 246.875,-16.4738"/>
</g>
<!-- Node6 -->
<g id="node6" class="node"><title>Node6</title>
<polygon fill="white" stroke="#bfbfbf" points="255,-0.5 255,-19.5 307,-19.5 307,-0.5 255,-0.5"/>
<text text-anchor="middle" x="281" y="-7.5" font-family="Helvetica,sans-Serif" font-size="10.00">assert.h</text>
</g>
<!-- Node3&#45;&gt;Node6 -->
<g id="edge5" class="edge"><title>Node3&#45;&gt;Node6</title>
<path fill="none" stroke="midnightblue" d="M1002.97,-65.1534C900.476,-65.1353 585.804,-61.5662 317.198,-19.8845"/>
<polygon fill="midnightblue" stroke="midnightblue" points="317.684,-16.4179 307.261,-18.3216 316.596,-23.3329 317.684,-16.4179"/>
</g>
<!-- Node7 -->
<g id="node7" class="node"><title>Node7</title>
<polygon fill="white" stroke="#bfbfbf" points="325.5,-0.5 325.5,-19.5 374.5,-19.5 374.5,-0.5 325.5,-0.5"/>
<text text-anchor="middle" x="350" y="-7.5" font-family="Helvetica,sans-Serif" font-size="10.00">cstddef</text>
</g>
<!-- Node3&#45;&gt;Node7 -->
<g id="edge6" class="edge"><title>Node3&#45;&gt;Node7</title>
<path fill="none" stroke="midnightblue" d="M1002.68,-65.016C906.357,-64.5588 625.361,-59.7835 384.732,-19.9885"/>
<polygon fill="midnightblue" stroke="midnightblue" points="385.19,-16.5167 374.749,-18.3134 384.032,-23.4202 385.19,-16.5167"/>
</g>
<!-- Node8 -->
<g id="node8" class="node"><title>Node8</title>
<polygon fill="white" stroke="#bfbfbf" points="392.5,-0.5 392.5,-19.5 455.5,-19.5 455.5,-0.5 392.5,-0.5"/>
<text text-anchor="middle" x="424" y="-7.5" font-family="Helvetica,sans-Serif" font-size="10.00">windows.h</text>
</g>
<!-- Node3&#45;&gt;Node8 -->
<g id="edge7" class="edge"><title>Node3&#45;&gt;Node8</title>
<path fill="none" stroke="midnightblue" d="M1002.9,-64.0219C915.218,-61.1457 674.683,-50.974 465.725,-20.0727"/>
<polygon fill="midnightblue" stroke="midnightblue" points="466.207,-16.606 455.799,-18.5855 465.17,-23.5288 466.207,-16.606"/>
</g>
<!-- Node9 -->
<g id="node9" class="node"><title>Node9</title>
<polygon fill="white" stroke="#bfbfbf" points="473.5,-0.5 473.5,-19.5 522.5,-19.5 522.5,-0.5 473.5,-0.5"/>
<text text-anchor="middle" x="498" y="-7.5" font-family="Helvetica,sans-Serif" font-size="10.00">stdint.h</text>
</g>
<!-- Node3&#45;&gt;Node9 -->
<g id="edge8" class="edge"><title>Node3&#45;&gt;Node9</title>
<path fill="none" stroke="midnightblue" d="M1002.75,-63.9536C922.311,-61.0692 715.011,-51.1559 532.805,-19.8294"/>
<polygon fill="midnightblue" stroke="midnightblue" points="533.227,-16.3502 522.774,-18.0784 532.023,-23.246 533.227,-16.3502"/>
</g>
<!-- Node10 -->
<g id="node10" class="node"><title>Node10</title>
<polygon fill="white" stroke="#bfbfbf" points="541,-0.5 541,-19.5 603,-19.5 603,-0.5 541,-0.5"/>
<text text-anchor="middle" x="572" y="-7.5" font-family="Helvetica,sans-Serif" font-size="10.00">type_traits</text>
</g>
<!-- Node3&#45;&gt;Node10 -->
<g id="edge9" class="edge"><title>Node3&#45;&gt;Node10</title>
<path fill="none" stroke="midnightblue" d="M1002.94,-62.7395C932.149,-57.7528 763.842,-44.3987 613.267,-20.0406"/>
<polygon fill="midnightblue" stroke="midnightblue" points="613.81,-16.583 603.376,-18.4203 612.678,-23.4909 613.81,-16.583"/>
</g>
<!-- Node11 -->
<g id="node11" class="node"><title>Node11</title>
<polygon fill="white" stroke="#bfbfbf" points="621,-0.5 621,-19.5 661,-19.5 661,-0.5 621,-0.5"/>
<text text-anchor="middle" x="641" y="-7.5" font-family="Helvetica,sans-Serif" font-size="10.00">utility</text>
</g>
<!-- Node3&#45;&gt;Node11 -->
<g id="edge10" class="edge"><title>Node3&#45;&gt;Node11</title>
<path fill="none" stroke="midnightblue" d="M1002.76,-62.8547C939.109,-58.4267 798.212,-46.5597 671.067,-19.8775"/>
<polygon fill="midnightblue" stroke="midnightblue" points="671.669,-16.4274 661.159,-17.7619 670.208,-23.2731 671.669,-16.4274"/>
</g>
<!-- Node12 -->
<g id="node12" class="node"><title>Node12</title>
<polygon fill="white" stroke="#bfbfbf" points="679.5,-0.5 679.5,-19.5 720.5,-19.5 720.5,-0.5 679.5,-0.5"/>
<text text-anchor="middle" x="700" y="-7.5" font-family="Helvetica,sans-Serif" font-size="10.00">stack</text>
</g>
<!-- Node3&#45;&gt;Node12 -->
<g id="edge11" class="edge"><title>Node3&#45;&gt;Node12</title>
<path fill="none" stroke="midnightblue" d="M1002.63,-61.6179C947.282,-55.8138 834.886,-42.554 730.321,-19.7593"/>
<polygon fill="midnightblue" stroke="midnightblue" points="731.073,-16.3411 720.553,-17.5965 729.56,-23.1756 731.073,-16.3411"/>
</g>
<!-- Node13 -->
<g id="node13" class="node"><title>Node13</title>
<g id="a_node13"><a xlink:href="enums_8hpp.html" target="_top" xlink:title="alib/core/enums.hpp">
<polygon fill="white" stroke="black" points="739,-0.5 739,-19.5 843,-19.5 843,-0.5 739,-0.5"/>
<text text-anchor="middle" x="791" y="-7.5" font-family="Helvetica,sans-Serif" font-size="10.00">alib/core/enums.hpp</text>
</a>
</g>
</g>
<!-- Node3&#45;&gt;Node13 -->
<g id="edge12" class="edge"><title>Node3&#45;&gt;Node13</title>
<path fill="none" stroke="midnightblue" d="M1002.74,-58.4863C958.818,-49.3989 882.886,-32.8003 834.821,-21.8337"/>
<polygon fill="midnightblue" stroke="midnightblue" points="835.538,-18.4074 825.009,-19.5837 833.974,-25.2303 835.538,-18.4074"/>
</g>
<!-- Node14 -->
<g id="node14" class="node"><title>Node14</title>
<g id="a_node14"><a xlink:href="report_8hpp.html" target="_top" xlink:title="alib/core/report.hpp">
<polygon fill="white" stroke="black" points="861,-0.5 861,-19.5 961,-19.5 961,-0.5 861,-0.5"/>
<text text-anchor="middle" x="911" y="-7.5" font-family="Helvetica,sans-Serif" font-size="10.00">alib/core/report.hpp</text>
</a>
</g>
</g>
<!-- Node3&#45;&gt;Node14 -->
<g id="edge14" class="edge"><title>Node3&#45;&gt;Node14</title>
<path fill="none" stroke="midnightblue" d="M1011.95,-56.4435C989.563,-47.6751 957.251,-33.9355 935.153,-23.8579"/>
<polygon fill="midnightblue" stroke="midnightblue" points="936.336,-20.5484 925.792,-19.5164 933.391,-26.8988 936.336,-20.5484"/>
</g>
<!-- Node15 -->
<g id="node15" class="node"><title>Node15</title>
<g id="a_node15"><a xlink:href="cstring_8hpp.html" target="_top" xlink:title="alib/strings/cstring.hpp">
<polygon fill="white" stroke="red" points="979.5,-0.5 979.5,-19.5 1094.5,-19.5 1094.5,-0.5 979.5,-0.5"/>
<text text-anchor="middle" x="1037" y="-7.5" font-family="Helvetica,sans-Serif" font-size="10.00">alib/strings/cstring.hpp</text>
</a>
</g>
</g>
<!-- Node3&#45;&gt;Node15 -->
<g id="edge16" class="edge"><title>Node3&#45;&gt;Node15</title>
<path fill="none" stroke="midnightblue" d="M1031.83,-56.083C1030.32,-48.9272 1029.89,-38.6353 1030.54,-29.6911"/>
<polygon fill="midnightblue" stroke="midnightblue" points="1034.02,-30.1262 1031.87,-19.7511 1027.08,-29.2002 1034.02,-30.1262"/>
</g>
<!-- Node16 -->
<g id="node16" class="node"><title>Node16</title>
<g id="a_node16"><a xlink:href="string_8hpp.html" target="_top" xlink:title="alib/strings/string.hpp">
<polygon fill="white" stroke="red" points="1113,-0.5 1113,-19.5 1223,-19.5 1223,-0.5 1113,-0.5"/>
<text text-anchor="middle" x="1168" y="-7.5" font-family="Helvetica,sans-Serif" font-size="10.00">alib/strings/string.hpp</text>
</a>
</g>
</g>
<!-- Node3&#45;&gt;Node16 -->
<g id="edge18" class="edge"><title>Node3&#45;&gt;Node16</title>
<path fill="none" stroke="midnightblue" d="M1052.67,-56.4435C1072.45,-47.4776 1106.59,-33.314 1132.7,-23.1827"/>
<polygon fill="midnightblue" stroke="midnightblue" points="1134.18,-26.3639 1142.26,-19.5164 1131.67,-19.8277 1134.18,-26.3639"/>
</g>
<!-- Node17 -->
<g id="node17" class="node"><title>Node17</title>
<g id="a_node17"><a xlink:href="tstring_8hpp.html" target="_top" xlink:title="alib/strings/tstring.hpp">
<polygon fill="white" stroke="black" points="1241.5,-0.5 1241.5,-19.5 1354.5,-19.5 1354.5,-0.5 1241.5,-0.5"/>
<text text-anchor="middle" x="1298" y="-7.5" font-family="Helvetica,sans-Serif" font-size="10.00">alib/strings/tstring.hpp</text>
</a>
</g>
</g>
<!-- Node3&#45;&gt;Node17 -->
<g id="edge20" class="edge"><title>Node3&#45;&gt;Node17</title>
<path fill="none" stroke="midnightblue" d="M1071.09,-56.9157C1114.38,-47.5097 1189.42,-31.9489 1241.34,-21.5864"/>
<polygon fill="midnightblue" stroke="midnightblue" points="1242.28,-24.9692 1251.4,-19.5865 1240.91,-18.1036 1242.28,-24.9692"/>
</g>
<!-- Node18 -->
<g id="node18" class="node"><title>Node18</title>
<g id="a_node18"><a xlink:href="stringliteral_8hpp.html" target="_top" xlink:title="alib/strings/stringliteral.hpp">
<polygon fill="white" stroke="red" points="1372.5,-0.5 1372.5,-19.5 1505.5,-19.5 1505.5,-0.5 1372.5,-0.5"/>
<text text-anchor="middle" x="1439" y="-7.5" font-family="Helvetica,sans-Serif" font-size="10.00">alib/strings/stringliteral.hpp</text>
</a>
</g>
</g>
<!-- Node3&#45;&gt;Node18 -->
<g id="edge22" class="edge"><title>Node3&#45;&gt;Node18</title>
<path fill="none" stroke="midnightblue" d="M1071.02,-59.8711C1135.03,-50.8684 1274.43,-32.091 1362.14,-20.6117"/>
<polygon fill="midnightblue" stroke="midnightblue" points="1362.84,-24.0494 1372.31,-19.2835 1361.94,-17.1084 1362.84,-24.0494"/>
</g>
<!-- Node19 -->
<g id="node19" class="node"><title>Node19</title>
<g id="a_node19"><a xlink:href="astring_8hpp.html" target="_top" xlink:title="alib/strings/astring.hpp">
<polygon fill="white" stroke="red" points="1523.5,-0.5 1523.5,-19.5 1638.5,-19.5 1638.5,-0.5 1523.5,-0.5"/>
<text text-anchor="middle" x="1581" y="-7.5" font-family="Helvetica,sans-Serif" font-size="10.00">alib/strings/astring.hpp</text>
</a>
</g>
</g>
<!-- Node3&#45;&gt;Node19 -->
<g id="edge24" class="edge"><title>Node3&#45;&gt;Node19</title>
<path fill="none" stroke="midnightblue" d="M1071.08,-61.8451C1148.48,-55.1402 1342.61,-38.5596 1505,-20 1507.69,-19.692 1510.45,-19.3663 1513.24,-19.0286"/>
<polygon fill="midnightblue" stroke="midnightblue" points="1513.94,-22.4686 1523.43,-17.7632 1513.07,-15.5219 1513.94,-22.4686"/>
</g>
<!-- Node20 -->
<g id="node20" class="node"><title>Node20</title>
<g id="a_node20"><a xlink:href="preallocatedstring_8hpp.html" target="_top" xlink:title="alib/strings/preallocatedstring.hpp">
<polygon fill="white" stroke="black" points="1657,-0.5 1657,-19.5 1819,-19.5 1819,-0.5 1657,-0.5"/>
<text text-anchor="middle" x="1738" y="-7.5" font-family="Helvetica,sans-Serif" font-size="10.00">alib/strings/preallocatedstring.hpp</text>
</a>
</g>
</g>
<!-- Node3&#45;&gt;Node20 -->
<g id="edge26" class="edge"><title>Node3&#45;&gt;Node20</title>
<path fill="none" stroke="midnightblue" d="M1071.12,-62.4903C1162.96,-56.1441 1422.17,-38.6306 1638,-20 1640.72,-19.7649 1643.49,-19.5207 1646.29,-19.2697"/>
<polygon fill="midnightblue" stroke="midnightblue" points="1646.88,-22.7301 1656.52,-18.3353 1646.25,-15.7591 1646.88,-22.7301"/>
</g>
<!-- Node21 -->
<g id="node21" class="node"><title>Node21</title>
<g id="a_node21"><a xlink:href="applyto_8hpp.html" target="_top" xlink:title="alib/strings/applyto.hpp">
<polygon fill="white" stroke="black" points="1837.5,-0.5 1837.5,-19.5 1954.5,-19.5 1954.5,-0.5 1837.5,-0.5"/>
<text text-anchor="middle" x="1896" y="-7.5" font-family="Helvetica,sans-Serif" font-size="10.00">alib/strings/applyto.hpp</text>
</a>
</g>
</g>
<!-- Node3&#45;&gt;Node21 -->
<g id="edge28" class="edge"><title>Node3&#45;&gt;Node21</title>
<path fill="none" stroke="midnightblue" d="M1071.29,-63.0292C1212.44,-55.2991 1743.6,-27.1246 1819,-20 1821.69,-19.7462 1824.43,-19.4668 1827.2,-19.1684"/>
<polygon fill="midnightblue" stroke="midnightblue" points="1827.81,-22.6223 1837.35,-18.0161 1827.02,-15.667 1827.81,-22.6223"/>
</g>
<!-- Node22 -->
<g id="node22" class="node"><title>Node22</title>
<g id="a_node22"><a xlink:href="applyformat_8hpp.html" target="_top" xlink:title="alib/strings/applyformat.hpp">
<polygon fill="white" stroke="red" points="1972.5,-0.5 1972.5,-19.5 2109.5,-19.5 2109.5,-0.5 1972.5,-0.5"/>
<text text-anchor="middle" x="2041" y="-7.5" font-family="Helvetica,sans-Serif" font-size="10.00">alib/strings/applyformat.hpp</text>
</a>
</g>
</g>
<!-- Node3&#45;&gt;Node22 -->
<g id="edge30" class="edge"><title>Node3&#45;&gt;Node22</title>
<path fill="none" stroke="midnightblue" d="M1071.33,-62.8573C1105.35,-61.0126 1158.6,-58.2935 1205,-56 1538.31,-39.5266 1622.41,-47.3871 1955,-20 1957.38,-19.8043 1959.79,-19.5926 1962.24,-19.368"/>
<polygon fill="midnightblue" stroke="midnightblue" points="1962.77,-22.8322 1972.39,-18.3802 1962.1,-15.8651 1962.77,-22.8322"/>
</g>
<!-- Node13&#45;&gt;Node3 -->
<g id="edge13" class="edge"><title>Node13&#45;&gt;Node3</title>
<path fill="none" stroke="midnightblue" d="M834.877,-19.5164C879.6,-28.8809 948.4,-43.95 993.12,-54.1529"/>
<polygon fill="midnightblue" stroke="midnightblue" points="992.58,-57.6198 1003.11,-56.4435 994.145,-50.7969 992.58,-57.6198"/>
</g>
<!-- Node14&#45;&gt;Node3 -->
<g id="edge15" class="edge"><title>Node14&#45;&gt;Node3</title>
<path fill="none" stroke="midnightblue" d="M935.952,-19.5164C958.405,-28.3091 990.908,-42.1312 1013.04,-52.2321"/>
<polygon fill="midnightblue" stroke="midnightblue" points="1011.58,-55.4109 1022.12,-56.4435 1014.52,-49.0607 1011.58,-55.4109"/>
</g>
<!-- Node15&#45;&gt;Node3 -->
<g id="edge17" class="edge"><title>Node15&#45;&gt;Node3</title>
<path fill="none" stroke="midnightblue" d="M1042.13,-19.7511C1043.66,-26.8579 1044.1,-37.1357 1043.47,-46.1005"/>
<polygon fill="midnightblue" stroke="midnightblue" points="1039.99,-45.7134 1042.17,-56.083 1046.93,-46.6216 1039.99,-45.7134"/>
</g>
<!-- Node16&#45;&gt;Node3 -->
<g id="edge19" class="edge"><title>Node16&#45;&gt;Node3</title>
<path fill="none" stroke="midnightblue" d="M1152.42,-19.5164C1132.68,-28.4669 1098.55,-42.6287 1072.42,-52.772"/>
<polygon fill="midnightblue" stroke="midnightblue" points="1070.93,-49.5952 1062.85,-56.4435 1073.44,-56.1312 1070.93,-49.5952"/>
</g>
<!-- Node17&#45;&gt;Node3 -->
<g id="edge21" class="edge"><title>Node17&#45;&gt;Node3</title>
<path fill="none" stroke="midnightblue" d="M1261.86,-19.5298C1214.6,-29.7732 1132.14,-46.8283 1081.22,-56.884"/>
<polygon fill="midnightblue" stroke="midnightblue" points="1080.3,-53.4966 1071.16,-58.8581 1081.65,-60.3654 1080.3,-53.4966"/>
</g>
<!-- Node18&#45;&gt;Node3 -->
<g id="edge23" class="edge"><title>Node18&#45;&gt;Node3</title>
<path fill="none" stroke="midnightblue" d="M1380.55,-19.5342C1299.41,-30.7656 1154.6,-50.1807 1081.57,-59.5843"/>
<polygon fill="midnightblue" stroke="midnightblue" points="1080.81,-56.1535 1071.34,-60.8969 1081.7,-63.0966 1080.81,-56.1535"/>
</g>
<!-- Node19&#45;&gt;Node3 -->
<g id="edge25" class="edge"><title>Node19&#45;&gt;Node3</title>
<path fill="none" stroke="midnightblue" d="M1527.24,-19.5067C1525.81,-19.6754 1524.4,-19.8401 1523,-20 1360.76,-38.5418 1166.85,-55.1085 1081.18,-61.8258"/>
<polygon fill="midnightblue" stroke="midnightblue" points="1080.74,-58.3497 1071.04,-62.6143 1081.28,-65.3287 1080.74,-58.3497"/>
</g>
<!-- Node20&#45;&gt;Node3 -->
<g id="edge27" class="edge"><title>Node20&#45;&gt;Node3</title>
<path fill="none" stroke="midnightblue" d="M1661.27,-19.5389C1659.5,-19.6959 1657.74,-19.8498 1656,-20 1441.16,-38.5451 1183.34,-55.9833 1081.41,-62.4022"/>
<polygon fill="midnightblue" stroke="midnightblue" points="1080.95,-58.9244 1071.18,-63.0418 1081.38,-65.9107 1080.95,-58.9244"/>
</g>
<!-- Node21&#45;&gt;Node3 -->
<g id="edge29" class="edge"><title>Node21&#45;&gt;Node3</title>
<path fill="none" stroke="midnightblue" d="M1842.04,-19.5018C1840.34,-19.6766 1838.66,-19.8432 1837,-20 1762.2,-27.0673 1238.95,-54.8476 1081.58,-62.8389"/>
<polygon fill="midnightblue" stroke="midnightblue" points="1081.13,-59.357 1071.32,-63.3579 1081.48,-66.348 1081.13,-59.357"/>
</g>
<!-- Node22&#45;&gt;Node3 -->
<g id="edge31" class="edge"><title>Node22&#45;&gt;Node3</title>
<path fill="none" stroke="midnightblue" d="M1978.7,-19.5076C1976.78,-19.6807 1974.88,-19.8454 1973,-20 1640.41,-47.3871 1556.31,-39.5266 1223,-56 1174.82,-58.381 1119.28,-61.2207 1081.39,-63.0646"/>
<polygon fill="midnightblue" stroke="midnightblue" points="1081.01,-59.5787 1071.19,-63.557 1081.35,-66.5706 1081.01,-59.5787"/>
</g>
<!-- Node25&#45;&gt;Node2 -->
<g id="edge35" class="edge"><title>Node25&#45;&gt;Node2</title>
<path fill="none" stroke="midnightblue" d="M961.123,-183.816C999.623,-192.339 1074.88,-210.281 1121.63,-221.976"/>
<polygon fill="midnightblue" stroke="midnightblue" points="1120.89,-225.397 1131.44,-224.444 1122.59,-218.609 1120.89,-225.397"/>
</g>
<!-- Node27 -->
<g id="node27" class="node"><title>Node27</title>
<g id="a_node27"><a xlink:href="threadlock_8hpp.html" target="_top" xlink:title="alib/threads/threadlock.hpp">
<polygon fill="white" stroke="red" points="1017,-112.5 1017,-131.5 1151,-131.5 1151,-112.5 1017,-112.5"/>
<text text-anchor="middle" x="1084" y="-119.5" font-family="Helvetica,sans-Serif" font-size="10.00">alib/threads/threadlock.hpp</text>
</a>
</g>
</g>
<!-- Node26&#45;&gt;Node27 -->
<g id="edge37" class="edge"><title>Node26&#45;&gt;Node27</title>
<path fill="none" stroke="midnightblue" d="M1065.63,-168.083C1068.61,-160.77 1072.93,-150.181 1076.62,-141.103"/>
<polygon fill="midnightblue" stroke="midnightblue" points="1079.9,-142.333 1080.43,-131.751 1073.42,-139.691 1079.9,-142.333"/>
</g>
<!-- Node28 -->
<g id="node28" class="node"><title>Node28</title>
<g id="a_node28"><a xlink:href="callerinfo_8hpp.html" target="_top" xlink:title="alox/core/callerinfo.hpp">
<polygon fill="white" stroke="red" points="1245.5,-112.5 1245.5,-131.5 1362.5,-131.5 1362.5,-112.5 1245.5,-112.5"/>
<text text-anchor="middle" x="1304" y="-119.5" font-family="Helvetica,sans-Serif" font-size="10.00">alox/core/callerinfo.hpp</text>
</a>
</g>
</g>
<!-- Node26&#45;&gt;Node28 -->
<g id="edge39" class="edge"><title>Node26&#45;&gt;Node28</title>
<path fill="none" stroke="midnightblue" d="M1086.11,-171.231C1090.72,-170.145 1095.51,-169.028 1100,-168 1152.75,-155.936 1213.3,-142.649 1254.65,-133.663"/>
<polygon fill="midnightblue" stroke="midnightblue" points="1255.44,-137.073 1264.47,-131.53 1253.96,-130.232 1255.44,-137.073"/>
</g>
<!-- Node29 -->
<g id="node29" class="node"><title>Node29</title>
<polygon fill="white" stroke="#bfbfbf" points="1223.5,-56.5 1223.5,-75.5 1258.5,-75.5 1258.5,-56.5 1223.5,-56.5"/>
<text text-anchor="middle" x="1241" y="-63.5" font-family="Helvetica,sans-Serif" font-size="10.00">map</text>
</g>
<!-- Node26&#45;&gt;Node29 -->
<g id="edge46" class="edge"><title>Node26&#45;&gt;Node29</title>
<path fill="none" stroke="midnightblue" d="M1084.59,-168.478C1104.99,-160.359 1135.47,-147.152 1160,-132 1183.56,-117.449 1208,-96.9661 1223.79,-82.904"/>
<polygon fill="midnightblue" stroke="midnightblue" points="1226.54,-85.1343 1231.61,-75.8306 1221.84,-79.9427 1226.54,-85.1343"/>
</g>
<!-- Node30 -->
<g id="node30" class="node"><title>Node30</title>
<g id="a_node30"><a xlink:href="domain_8hpp.html" target="_top" xlink:title="alox/core/domain.hpp">
<polygon fill="white" stroke="black" points="1431,-112.5 1431,-131.5 1541,-131.5 1541,-112.5 1431,-112.5"/>
<text text-anchor="middle" x="1486" y="-119.5" font-family="Helvetica,sans-Serif" font-size="10.00">alox/core/domain.hpp</text>
</a>
</g>
</g>
<!-- Node26&#45;&gt;Node30 -->
<g id="edge42" class="edge"><title>Node26&#45;&gt;Node30</title>
<path fill="none" stroke="midnightblue" d="M1086.01,-173.942C1149.65,-165.837 1324.34,-143.589 1420.46,-131.347"/>
<polygon fill="midnightblue" stroke="midnightblue" points="1421.16,-134.786 1430.64,-130.05 1420.28,-127.842 1421.16,-134.786"/>
</g>
<!-- Node31 -->
<g id="node31" class="node"><title>Node31</title>
<polygon fill="white" stroke="#bfbfbf" points="1464,-56.5 1464,-75.5 1508,-75.5 1508,-56.5 1464,-56.5"/>
<text text-anchor="middle" x="1486" y="-63.5" font-family="Helvetica,sans-Serif" font-size="10.00">vector</text>
</g>
<!-- Node26&#45;&gt;Node31 -->
<g id="edge45" class="edge"><title>Node26&#45;&gt;Node31</title>
<path fill="none" stroke="midnightblue" d="M1086.04,-168.977C1111.7,-160.298 1153.47,-145.839 1189,-132 1210.15,-123.761 1214.25,-118.496 1236,-112 1312.41,-89.1812 1405.61,-76.1468 1453.75,-70.4592"/>
<polygon fill="midnightblue" stroke="midnightblue" points="1454.34,-73.9145 1463.88,-69.2938 1453.54,-66.9604 1454.34,-73.9145"/>
</g>
<!-- Node27&#45;&gt;Node3 -->
<g id="edge38" class="edge"><title>Node27&#45;&gt;Node3</title>
<path fill="none" stroke="midnightblue" d="M1076.24,-112.083C1069.46,-104.298 1059.46,-92.8015 1051.24,-83.3665"/>
<polygon fill="midnightblue" stroke="midnightblue" points="1053.82,-80.9963 1044.62,-75.7511 1048.54,-85.592 1053.82,-80.9963"/>
</g>
<!-- Node28&#45;&gt;Node2 -->
<g id="edge40" class="edge"><title>Node28&#45;&gt;Node2</title>
<path fill="none" stroke="midnightblue" d="M1245.34,-130.736C1201.48,-137.862 1146.82,-150.069 1133,-168 1121.52,-182.889 1133.93,-203.039 1145.89,-216.937"/>
<polygon fill="midnightblue" stroke="midnightblue" points="1143.34,-219.335 1152.69,-224.311 1148.48,-214.588 1143.34,-219.335"/>
</g>
<!-- Node28&#45;&gt;Node29 -->
<g id="edge41" class="edge"><title>Node28&#45;&gt;Node29</title>
<path fill="none" stroke="midnightblue" d="M1293.88,-112.324C1284.47,-104.263 1270.26,-92.0765 1258.93,-82.3695"/>
<polygon fill="midnightblue" stroke="midnightblue" points="1261.18,-79.6844 1251.31,-75.8339 1256.62,-84.9993 1261.18,-79.6844"/>
</g>
<!-- Node30&#45;&gt;Node2 -->
<g id="edge43" class="edge"><title>Node30&#45;&gt;Node2</title>
<path fill="none" stroke="midnightblue" d="M1481.8,-131.874C1474.48,-146.255 1457.96,-174.411 1435,-188 1397.65,-210.109 1276.98,-223.429 1209.24,-229.35"/>
<polygon fill="midnightblue" stroke="midnightblue" points="1208.92,-225.866 1199.25,-230.204 1209.51,-232.84 1208.92,-225.866"/>
</g>
<!-- Node30&#45;&gt;Node31 -->
<g id="edge44" class="edge"><title>Node30&#45;&gt;Node31</title>
<path fill="none" stroke="midnightblue" d="M1486,-112.083C1486,-105.006 1486,-94.8611 1486,-85.9865"/>
<polygon fill="midnightblue" stroke="midnightblue" points="1489.5,-85.751 1486,-75.7511 1482.5,-85.7511 1489.5,-85.751"/>
</g>
<!-- Node32&#45;&gt;Node2 -->
<g id="edge48" class="edge"><title>Node32&#45;&gt;Node2</title>
<path fill="none" stroke="midnightblue" d="M1231.31,-336.337C1216.76,-315.054 1189.28,-274.887 1173.65,-252.035"/>
<polygon fill="midnightblue" stroke="midnightblue" points="1176.46,-249.947 1167.93,-243.669 1170.69,-253.899 1176.46,-249.947"/>
</g>
<!-- Node33 -->
<g id="node33" class="node"><title>Node33</title>
<g id="a_node33"><a xlink:href="logger_8hpp.html" target="_top" xlink:title="alox/core/logger.hpp">
<polygon fill="white" stroke="black" points="1403,-280.5 1403,-299.5 1507,-299.5 1507,-280.5 1403,-280.5"/>
<text text-anchor="middle" x="1455" y="-287.5" font-family="Helvetica,sans-Serif" font-size="10.00">alox/core/logger.hpp</text>
</a>
</g>
</g>
<!-- Node32&#45;&gt;Node33 -->
<g id="edge49" class="edge"><title>Node32&#45;&gt;Node33</title>
<path fill="none" stroke="midnightblue" d="M1291.44,-336.475C1329.01,-326.03 1379.62,-311.958 1414.55,-302.247"/>
<polygon fill="midnightblue" stroke="midnightblue" points="1415.71,-305.557 1424.41,-299.506 1413.83,-298.813 1415.71,-305.557"/>
</g>
<!-- Node33&#45;&gt;Node2 -->
<g id="edge50" class="edge"><title>Node33&#45;&gt;Node2</title>
<path fill="none" stroke="midnightblue" d="M1408.57,-280.444C1354.15,-270.414 1264.44,-253.879 1209.54,-243.761"/>
<polygon fill="midnightblue" stroke="midnightblue" points="1209.85,-240.259 1199.38,-241.889 1208.58,-247.143 1209.85,-240.259"/>
</g>
<!-- Node33&#45;&gt;Node28 -->
<g id="edge51" class="edge"><title>Node33&#45;&gt;Node28</title>
<path fill="none" stroke="midnightblue" d="M1456.29,-280.475C1459.05,-258.872 1463.18,-201.332 1435,-168 1419.24,-149.361 1395.39,-138.428 1372.33,-132.021"/>
<polygon fill="midnightblue" stroke="midnightblue" points="1373.08,-128.599 1362.52,-129.542 1371.36,-135.386 1373.08,-128.599"/>
</g>
<!-- Node33&#45;&gt;Node30 -->
<g id="edge52" class="edge"><title>Node33&#45;&gt;Node30</title>
<path fill="none" stroke="midnightblue" d="M1458.1,-280.485C1461.26,-271.518 1466.1,-256.933 1469,-244 1477.02,-208.245 1481.96,-165.652 1484.32,-141.728"/>
<polygon fill="midnightblue" stroke="midnightblue" points="1487.82,-141.879 1485.28,-131.594 1480.85,-141.221 1487.82,-141.879"/>
</g>
<!-- Node33&#45;&gt;Node31 -->
<g id="edge53" class="edge"><title>Node33&#45;&gt;Node31</title>
<path fill="none" stroke="midnightblue" d="M1462.79,-280.298C1482.32,-257.804 1533.03,-195.065 1550,-132 1552.31,-123.417 1554.1,-119.889 1550,-112 1542.85,-98.2262 1529.33,-87.783 1516.55,-80.4413"/>
<polygon fill="midnightblue" stroke="midnightblue" points="1517.96,-77.2252 1507.48,-75.6403 1514.68,-83.412 1517.96,-77.2252"/>
</g>
</g>
</svg>
