<?xml version="1.0" encoding="UTF-8" standalone="no"?>
<!DOCTYPE svg PUBLIC "-//W3C//DTD SVG 1.1//EN"
 "http://www.w3.org/Graphics/SVG/1.1/DTD/svg11.dtd">
<!-- Generated by graphviz version 2.38.0 (20140413.2041)
 -->
<!-- Title: plaintextlogger.hpp Pages: 1 -->
<svg width="2119pt" height="364pt"
 viewBox="0.00 0.00 2118.50 364.00" xmlns="http://www.w3.org/2000/svg" xmlns:xlink="http://www.w3.org/1999/xlink">
<g id="graph0" class="graph" transform="scale(1 1) rotate(0) translate(4 360)">
<title>plaintextlogger.hpp</title>
<polygon fill="white" stroke="none" points="-4,4 -4,-360 2114.5,-360 2114.5,4 -4,4"/>
<!-- Node1 -->
<g id="node1" class="node"><title>Node1</title>
<polygon fill="#bfbfbf" stroke="black" points="714,-336.5 714,-355.5 812,-355.5 812,-336.5 714,-336.5"/>
<text text-anchor="middle" x="763" y="-343.5" font-family="Helvetica,sans-Serif" font-size="10.00">plaintextlogger.hpp</text>
</g>
<!-- Node2 -->
<g id="node2" class="node"><title>Node2</title>
<g id="a_node2"><a xlink:href="alox_8hpp.html" target="_top" xlink:title="alox/alox.hpp">
<polygon fill="white" stroke="black" points="782,-224.5 782,-243.5 856,-243.5 856,-224.5 782,-224.5"/>
<text text-anchor="middle" x="819" y="-231.5" font-family="Helvetica,sans-Serif" font-size="10.00">alox/alox.hpp</text>
</a>
</g>
</g>
<!-- Node1&#45;&gt;Node2 -->
<g id="edge1" class="edge"><title>Node1&#45;&gt;Node2</title>
<path fill="none" stroke="midnightblue" d="M771.832,-336.477C780.188,-327.958 792.532,-314.128 800,-300 807.726,-285.383 812.698,-267.211 815.609,-253.801"/>
<polygon fill="midnightblue" stroke="midnightblue" points="819.073,-254.328 817.585,-243.838 812.206,-252.966 819.073,-254.328"/>
</g>
<!-- Node35 -->
<g id="node3" class="node"><title>Node35</title>
<g id="a_node3"><a xlink:href="textlogger_8hpp.html" target="_top" xlink:title="alox/core/textlogger/textlogger.hpp">
<polygon fill="white" stroke="black" points="624.5,-280.5 624.5,-299.5 791.5,-299.5 791.5,-280.5 624.5,-280.5"/>
<text text-anchor="middle" x="708" y="-287.5" font-family="Helvetica,sans-Serif" font-size="10.00">alox/core/textlogger/textlogger.hpp</text>
</a>
</g>
</g>
<!-- Node1&#45;&gt;Node35 -->
<g id="edge2" class="edge"><title>Node1&#45;&gt;Node35</title>
<path fill="none" stroke="midnightblue" d="M753.918,-336.083C745.829,-328.141 733.805,-316.335 724.09,-306.797"/>
<polygon fill="midnightblue" stroke="midnightblue" points="726.501,-304.26 716.913,-299.751 721.597,-309.254 726.501,-304.26"/>
</g>
<!-- Node3 -->
<g id="node4" class="node"><title>Node3</title>
<g id="a_node4"><a xlink:href="alib_8hpp.html" target="_top" xlink:title="alib/alib.hpp">
<polygon fill="white" stroke="black" points="1004,-56.5 1004,-75.5 1072,-75.5 1072,-56.5 1004,-56.5"/>
<text text-anchor="middle" x="1038" y="-63.5" font-family="Helvetica,sans-Serif" font-size="10.00">alib/alib.hpp</text>
</a>
</g>
</g>
<!-- Node2&#45;&gt;Node3 -->
<g id="edge3" class="edge"><title>Node2&#45;&gt;Node3</title>
<path fill="none" stroke="midnightblue" d="M856.161,-231.474C949.076,-227.278 1185.73,-214.109 1209,-188 1218.34,-177.515 1232.68,-143.474 1208,-112 1192.58,-92.3293 1127.33,-79.4119 1082.31,-72.6563"/>
<polygon fill="midnightblue" stroke="midnightblue" points="1082.59,-69.1603 1072.19,-71.1895 1081.59,-76.0879 1082.59,-69.1603"/>
</g>
<!-- Node23 -->
<g id="node5" class="node"><title>Node23</title>
<g id="a_node5"><a xlink:href="alox__symbols_8hpp.html" target="_top" xlink:title="internals/alox_symbols.hpp">
<polygon fill="white" stroke="black" points="676.5,-168.5 676.5,-187.5 811.5,-187.5 811.5,-168.5 676.5,-168.5"/>
<text text-anchor="middle" x="744" y="-175.5" font-family="Helvetica,sans-Serif" font-size="10.00">internals/alox_symbols.hpp</text>
</a>
</g>
</g>
<!-- Node2&#45;&gt;Node23 -->
<g id="edge4" class="edge"><title>Node2&#45;&gt;Node23</title>
<path fill="none" stroke="midnightblue" d="M806.95,-224.324C795.537,-216.107 778.169,-203.602 764.565,-193.807"/>
<polygon fill="midnightblue" stroke="midnightblue" points="766.43,-190.837 756.269,-187.834 762.34,-196.517 766.43,-190.837"/>
</g>
<!-- Node24 -->
<g id="node6" class="node"><title>Node24</title>
<g id="a_node6"><a xlink:href="alox__macros_8hpp.html" target="_top" xlink:title="internals/alox_macros.hpp">
<polygon fill="white" stroke="black" points="829.5,-168.5 829.5,-187.5 960.5,-187.5 960.5,-168.5 829.5,-168.5"/>
<text text-anchor="middle" x="895" y="-175.5" font-family="Helvetica,sans-Serif" font-size="10.00">internals/alox_macros.hpp</text>
</a>
</g>
</g>
<!-- Node2&#45;&gt;Node24 -->
<g id="edge5" class="edge"><title>Node2&#45;&gt;Node24</title>
<path fill="none" stroke="midnightblue" d="M831.211,-224.324C842.776,-216.107 860.375,-203.602 874.161,-193.807"/>
<polygon fill="midnightblue" stroke="midnightblue" points="876.443,-196.479 882.567,-187.834 872.388,-190.773 876.443,-196.479"/>
</g>
<!-- Node25 -->
<g id="node7" class="node"><title>Node25</title>
<polygon fill="white" stroke="#bfbfbf" points="563,-56.5 563,-75.5 607,-75.5 607,-56.5 563,-56.5"/>
<text text-anchor="middle" x="585" y="-63.5" font-family="Helvetica,sans-Serif" font-size="10.00">vector</text>
</g>
<!-- Node2&#45;&gt;Node25 -->
<g id="edge6" class="edge"><title>Node2&#45;&gt;Node25</title>
<path fill="none" stroke="midnightblue" d="M781.984,-229.475C725.822,-223.5 622.49,-209.855 593,-188 563.824,-166.378 554.815,-147.38 563,-112 565.23,-102.363 569.821,-92.4052 574.236,-84.3149"/>
<polygon fill="midnightblue" stroke="midnightblue" points="577.351,-85.9216 579.362,-75.5194 571.303,-82.3968 577.351,-85.9216"/>
</g>
<!-- Node26 -->
<g id="node8" class="node"><title>Node26</title>
<g id="a_node8"><a xlink:href="aloxtypesandenums_8hpp.html" target="_top" xlink:title="aloxtypesandenums.hpp">
<polygon fill="white" stroke="black" points="979,-168.5 979,-187.5 1101,-187.5 1101,-168.5 979,-168.5"/>
<text text-anchor="middle" x="1040" y="-175.5" font-family="Helvetica,sans-Serif" font-size="10.00">aloxtypesandenums.hpp</text>
</a>
</g>
</g>
<!-- Node2&#45;&gt;Node26 -->
<g id="edge7" class="edge"><title>Node2&#45;&gt;Node26</title>
<path fill="none" stroke="midnightblue" d="M854.018,-224.444C892.248,-215.102 953.567,-200.119 995.257,-189.933"/>
<polygon fill="midnightblue" stroke="midnightblue" points="996.262,-193.29 1005.15,-187.516 994.601,-186.49 996.262,-193.29"/>
</g>
<!-- Node27 -->
<g id="node9" class="node"><title>Node27</title>
<g id="a_node9"><a xlink:href="log_8hpp.html" target="_top" xlink:title="log.hpp">
<polygon fill="white" stroke="black" points="1119,-168.5 1119,-187.5 1167,-187.5 1167,-168.5 1119,-168.5"/>
<text text-anchor="middle" x="1143" y="-175.5" font-family="Helvetica,sans-Serif" font-size="10.00">log.hpp</text>
</a>
</g>
</g>
<!-- Node2&#45;&gt;Node27 -->
<g id="edge8" class="edge"><title>Node2&#45;&gt;Node27</title>
<path fill="none" stroke="midnightblue" d="M856.023,-227.871C910.238,-220.74 1013.75,-206.582 1101,-188 1103.58,-187.451 1106.26,-186.821 1108.97,-186.156"/>
<polygon fill="midnightblue" stroke="midnightblue" points="1109.98,-189.511 1118.81,-183.668 1108.26,-182.724 1109.98,-189.511"/>
</g>
<!-- Node28 -->
<g id="node10" class="node"><title>Node28</title>
<g id="a_node10"><a xlink:href="lox_8hpp.html" target="_top" xlink:title="lox.hpp">
<polygon fill="white" stroke="black" points="610,-168.5 610,-187.5 658,-187.5 658,-168.5 610,-168.5"/>
<text text-anchor="middle" x="634" y="-175.5" font-family="Helvetica,sans-Serif" font-size="10.00">lox.hpp</text>
</a>
</g>
</g>
<!-- Node2&#45;&gt;Node28 -->
<g id="edge9" class="edge"><title>Node2&#45;&gt;Node28</title>
<path fill="none" stroke="midnightblue" d="M784.597,-224.444C751.194,-215.28 701.015,-200.688 667.817,-190.519"/>
<polygon fill="midnightblue" stroke="midnightblue" points="668.684,-187.124 658.097,-187.516 666.618,-193.812 668.684,-187.124"/>
</g>
<!-- Node35&#45;&gt;Node2 -->
<g id="edge56" class="edge"><title>Node35&#45;&gt;Node2</title>
<path fill="none" stroke="midnightblue" d="M725.834,-280.324C743.716,-271.625 771.475,-258.12 792.046,-248.113"/>
<polygon fill="midnightblue" stroke="midnightblue" points="793.749,-251.177 801.21,-243.655 790.687,-244.882 793.749,-251.177"/>
</g>
<!-- Node32 -->
<g id="node33" class="node"><title>Node32</title>
<g id="a_node33"><a xlink:href="logger_8hpp.html" target="_top" xlink:title="alox/core/logger.hpp">
<polygon fill="white" stroke="black" points="412,-112.5 412,-131.5 516,-131.5 516,-112.5 412,-112.5"/>
<text text-anchor="middle" x="464" y="-119.5" font-family="Helvetica,sans-Serif" font-size="10.00">alox/core/logger.hpp</text>
</a>
</g>
</g>
<!-- Node35&#45;&gt;Node32 -->
<g id="edge57" class="edge"><title>Node35&#45;&gt;Node32</title>
<path fill="none" stroke="midnightblue" d="M677.023,-280.499C633.068,-267.113 552.157,-237.426 500,-188 486.271,-174.99 476.459,-155.56 470.581,-141.332"/>
<polygon fill="midnightblue" stroke="midnightblue" points="473.715,-139.731 466.853,-131.658 467.183,-142.248 473.715,-139.731"/>
</g>
<!-- Node4 -->
<g id="node11" class="node"><title>Node4</title>
<g id="a_node11"><a xlink:href="symbols_8hpp.html" target="_top" xlink:title="alib/core/symbols.hpp">
<polygon fill="white" stroke="black" points="0,-0.5 0,-19.5 112,-19.5 112,-0.5 0,-0.5"/>
<text text-anchor="middle" x="56" y="-7.5" font-family="Helvetica,sans-Serif" font-size="10.00">alib/core/symbols.hpp</text>
</a>
</g>
</g>
<!-- Node3&#45;&gt;Node4 -->
<g id="edge10" class="edge"><title>Node3&#45;&gt;Node4</title>
<path fill="none" stroke="midnightblue" d="M1003.79,-63.3033C967.206,-61.4904 907.504,-58.5348 856,-56 532.687,-40.0881 448.359,-50.2452 122.54,-20.0625"/>
<polygon fill="midnightblue" stroke="midnightblue" points="122.616,-16.5546 112.335,-19.1114 121.967,-23.5244 122.616,-16.5546"/>
</g>
<!-- Node5 -->
<g id="node12" class="node"><title>Node5</title>
<g id="a_node12"><a xlink:href="macros_8hpp.html" target="_top" xlink:title="alib/core/macros.hpp">
<polygon fill="white" stroke="black" points="130.5,-0.5 130.5,-19.5 237.5,-19.5 237.5,-0.5 130.5,-0.5"/>
<text text-anchor="middle" x="184" y="-7.5" font-family="Helvetica,sans-Serif" font-size="10.00">alib/core/macros.hpp</text>
</a>
</g>
</g>
<!-- Node3&#45;&gt;Node5 -->
<g id="edge11" class="edge"><title>Node3&#45;&gt;Node5</title>
<path fill="none" stroke="midnightblue" d="M1003.87,-63.2303C866.731,-56.0971 358.322,-29.4277 247.553,-19.8908"/>
<polygon fill="midnightblue" stroke="midnightblue" points="247.858,-16.4041 237.579,-18.9703 247.215,-23.3745 247.858,-16.4041"/>
</g>
<!-- Node6 -->
<g id="node13" class="node"><title>Node6</title>
<polygon fill="white" stroke="#bfbfbf" points="256,-0.5 256,-19.5 308,-19.5 308,-0.5 256,-0.5"/>
<text text-anchor="middle" x="282" y="-7.5" font-family="Helvetica,sans-Serif" font-size="10.00">assert.h</text>
</g>
<!-- Node3&#45;&gt;Node6 -->
<g id="edge12" class="edge"><title>Node3&#45;&gt;Node6</title>
<path fill="none" stroke="midnightblue" d="M1003.74,-63.2441C874.58,-56.5752 419.766,-32.6188 318.163,-19.7237"/>
<polygon fill="midnightblue" stroke="midnightblue" points="318.653,-16.2583 308.261,-18.3216 317.672,-23.1892 318.653,-16.2583"/>
</g>
<!-- Node7 -->
<g id="node14" class="node"><title>Node7</title>
<polygon fill="white" stroke="#bfbfbf" points="326.5,-0.5 326.5,-19.5 375.5,-19.5 375.5,-0.5 326.5,-0.5"/>
<text text-anchor="middle" x="351" y="-7.5" font-family="Helvetica,sans-Serif" font-size="10.00">cstddef</text>
</g>
<!-- Node3&#45;&gt;Node7 -->
<g id="edge13" class="edge"><title>Node3&#45;&gt;Node7</title>
<path fill="none" stroke="midnightblue" d="M1003.96,-63.0532C883.418,-56.1078 479.487,-32.3723 385.809,-19.8232"/>
<polygon fill="midnightblue" stroke="midnightblue" points="386.158,-16.3365 375.749,-18.3134 385.119,-23.259 386.158,-16.3365"/>
</g>
<!-- Node8 -->
<g id="node15" class="node"><title>Node8</title>
<polygon fill="white" stroke="#bfbfbf" points="393.5,-0.5 393.5,-19.5 456.5,-19.5 456.5,-0.5 393.5,-0.5"/>
<text text-anchor="middle" x="425" y="-7.5" font-family="Helvetica,sans-Serif" font-size="10.00">windows.h</text>
</g>
<!-- Node3&#45;&gt;Node8 -->
<g id="edge14" class="edge"><title>Node3&#45;&gt;Node8</title>
<path fill="none" stroke="midnightblue" d="M1003.83,-62.9605C900.001,-56.6654 588.42,-37.021 466.928,-20.0612"/>
<polygon fill="midnightblue" stroke="midnightblue" points="467.199,-16.5639 456.799,-18.5855 466.19,-23.4908 467.199,-16.5639"/>
</g>
<!-- Node9 -->
<g id="node16" class="node"><title>Node9</title>
<polygon fill="white" stroke="#bfbfbf" points="474.5,-0.5 474.5,-19.5 523.5,-19.5 523.5,-0.5 474.5,-0.5"/>
<text text-anchor="middle" x="499" y="-7.5" font-family="Helvetica,sans-Serif" font-size="10.00">stdint.h</text>
</g>
<!-- Node3&#45;&gt;Node9 -->
<g id="edge15" class="edge"><title>Node3&#45;&gt;Node9</title>
<path fill="none" stroke="midnightblue" d="M1003.76,-62.7116C908.604,-56.2344 641.444,-37.2238 533.693,-19.7629"/>
<polygon fill="midnightblue" stroke="midnightblue" points="534.219,-16.3022 523.774,-18.0784 533.047,-23.2034 534.219,-16.3022"/>
</g>
<!-- Node10 -->
<g id="node17" class="node"><title>Node10</title>
<polygon fill="white" stroke="#bfbfbf" points="542,-0.5 542,-19.5 604,-19.5 604,-0.5 542,-0.5"/>
<text text-anchor="middle" x="573" y="-7.5" font-family="Helvetica,sans-Serif" font-size="10.00">type_traits</text>
</g>
<!-- Node3&#45;&gt;Node10 -->
<g id="edge16" class="edge"><title>Node3&#45;&gt;Node10</title>
<path fill="none" stroke="midnightblue" d="M1003.94,-62.7395C933.149,-57.7528 764.842,-44.3987 614.267,-20.0406"/>
<polygon fill="midnightblue" stroke="midnightblue" points="614.81,-16.583 604.376,-18.4203 613.678,-23.4909 614.81,-16.583"/>
</g>
<!-- Node11 -->
<g id="node18" class="node"><title>Node11</title>
<polygon fill="white" stroke="#bfbfbf" points="622,-0.5 622,-19.5 662,-19.5 662,-0.5 622,-0.5"/>
<text text-anchor="middle" x="642" y="-7.5" font-family="Helvetica,sans-Serif" font-size="10.00">utility</text>
</g>
<!-- Node3&#45;&gt;Node11 -->
<g id="edge17" class="edge"><title>Node3&#45;&gt;Node11</title>
<path fill="none" stroke="midnightblue" d="M1003.76,-62.8547C940.109,-58.4267 799.212,-46.5597 672.067,-19.8775"/>
<polygon fill="midnightblue" stroke="midnightblue" points="672.669,-16.4274 662.159,-17.7619 671.208,-23.2731 672.669,-16.4274"/>
</g>
<!-- Node12 -->
<g id="node19" class="node"><title>Node12</title>
<polygon fill="white" stroke="#bfbfbf" points="680.5,-0.5 680.5,-19.5 721.5,-19.5 721.5,-0.5 680.5,-0.5"/>
<text text-anchor="middle" x="701" y="-7.5" font-family="Helvetica,sans-Serif" font-size="10.00">stack</text>
</g>
<!-- Node3&#45;&gt;Node12 -->
<g id="edge18" class="edge"><title>Node3&#45;&gt;Node12</title>
<path fill="none" stroke="midnightblue" d="M1003.63,-61.6179C948.282,-55.8138 835.886,-42.554 731.321,-19.7593"/>
<polygon fill="midnightblue" stroke="midnightblue" points="732.073,-16.3411 721.553,-17.5965 730.56,-23.1756 732.073,-16.3411"/>
</g>
<!-- Node13 -->
<g id="node20" class="node"><title>Node13</title>
<g id="a_node20"><a xlink:href="enums_8hpp.html" target="_top" xlink:title="alib/core/enums.hpp">
<polygon fill="white" stroke="black" points="740,-0.5 740,-19.5 844,-19.5 844,-0.5 740,-0.5"/>
<text text-anchor="middle" x="792" y="-7.5" font-family="Helvetica,sans-Serif" font-size="10.00">alib/core/enums.hpp</text>
</a>
</g>
</g>
<!-- Node3&#45;&gt;Node13 -->
<g id="edge19" class="edge"><title>Node3&#45;&gt;Node13</title>
<path fill="none" stroke="midnightblue" d="M1003.74,-58.4863C959.818,-49.3989 883.886,-32.8003 835.821,-21.8337"/>
<polygon fill="midnightblue" stroke="midnightblue" points="836.538,-18.4074 826.009,-19.5837 834.974,-25.2303 836.538,-18.4074"/>
</g>
<!-- Node14 -->
<g id="node21" class="node"><title>Node14</title>
<g id="a_node21"><a xlink:href="report_8hpp.html" target="_top" xlink:title="alib/core/report.hpp">
<polygon fill="white" stroke="black" points="862,-0.5 862,-19.5 962,-19.5 962,-0.5 862,-0.5"/>
<text text-anchor="middle" x="912" y="-7.5" font-family="Helvetica,sans-Serif" font-size="10.00">alib/core/report.hpp</text>
</a>
</g>
</g>
<!-- Node3&#45;&gt;Node14 -->
<g id="edge20" class="edge"><title>Node3&#45;&gt;Node14</title>
<path fill="none" stroke="midnightblue" d="M1012.95,-56.4435C990.563,-47.6751 958.251,-33.9355 936.153,-23.8579"/>
<polygon fill="midnightblue" stroke="midnightblue" points="937.336,-20.5484 926.792,-19.5164 934.391,-26.8988 937.336,-20.5484"/>
</g>
<!-- Node15 -->
<g id="node22" class="node"><title>Node15</title>
<g id="a_node22"><a xlink:href="cstring_8hpp.html" target="_top" xlink:title="alib/strings/cstring.hpp">
<polygon fill="white" stroke="red" points="980.5,-0.5 980.5,-19.5 1095.5,-19.5 1095.5,-0.5 980.5,-0.5"/>
<text text-anchor="middle" x="1038" y="-7.5" font-family="Helvetica,sans-Serif" font-size="10.00">alib/strings/cstring.hpp</text>
</a>
</g>
</g>
<!-- Node3&#45;&gt;Node15 -->
<g id="edge21" class="edge"><title>Node3&#45;&gt;Node15</title>
<path fill="none" stroke="midnightblue" d="M1032.83,-56.083C1031.32,-48.9272 1030.89,-38.6353 1031.54,-29.6911"/>
<polygon fill="midnightblue" stroke="midnightblue" points="1035.02,-30.1262 1032.87,-19.7511 1028.08,-29.2002 1035.02,-30.1262"/>
</g>
<!-- Node16 -->
<g id="node23" class="node"><title>Node16</title>
<g id="a_node23"><a xlink:href="string_8hpp.html" target="_top" xlink:title="alib/strings/string.hpp">
<polygon fill="white" stroke="red" points="1114,-0.5 1114,-19.5 1224,-19.5 1224,-0.5 1114,-0.5"/>
<text text-anchor="middle" x="1169" y="-7.5" font-family="Helvetica,sans-Serif" font-size="10.00">alib/strings/string.hpp</text>
</a>
</g>
</g>
<!-- Node3&#45;&gt;Node16 -->
<g id="edge22" class="edge"><title>Node3&#45;&gt;Node16</title>
<path fill="none" stroke="midnightblue" d="M1053.67,-56.4435C1073.45,-47.4776 1107.59,-33.314 1133.7,-23.1827"/>
<polygon fill="midnightblue" stroke="midnightblue" points="1135.18,-26.3639 1143.26,-19.5164 1132.67,-19.8277 1135.18,-26.3639"/>
</g>
<!-- Node17 -->
<g id="node24" class="node"><title>Node17</title>
<g id="a_node24"><a xlink:href="tstring_8hpp.html" target="_top" xlink:title="alib/strings/tstring.hpp">
<polygon fill="white" stroke="black" points="1242.5,-0.5 1242.5,-19.5 1355.5,-19.5 1355.5,-0.5 1242.5,-0.5"/>
<text text-anchor="middle" x="1299" y="-7.5" font-family="Helvetica,sans-Serif" font-size="10.00">alib/strings/tstring.hpp</text>
</a>
</g>
</g>
<!-- Node3&#45;&gt;Node17 -->
<g id="edge23" class="edge"><title>Node3&#45;&gt;Node17</title>
<path fill="none" stroke="midnightblue" d="M1072.09,-56.9157C1115.38,-47.5097 1190.42,-31.9489 1242.34,-21.5864"/>
<polygon fill="midnightblue" stroke="midnightblue" points="1243.28,-24.9692 1252.4,-19.5865 1241.91,-18.1036 1243.28,-24.9692"/>
</g>
<!-- Node18 -->
<g id="node25" class="node"><title>Node18</title>
<g id="a_node25"><a xlink:href="stringliteral_8hpp.html" target="_top" xlink:title="alib/strings/stringliteral.hpp">
<polygon fill="white" stroke="red" points="1373.5,-0.5 1373.5,-19.5 1506.5,-19.5 1506.5,-0.5 1373.5,-0.5"/>
<text text-anchor="middle" x="1440" y="-7.5" font-family="Helvetica,sans-Serif" font-size="10.00">alib/strings/stringliteral.hpp</text>
</a>
</g>
</g>
<!-- Node3&#45;&gt;Node18 -->
<g id="edge24" class="edge"><title>Node3&#45;&gt;Node18</title>
<path fill="none" stroke="midnightblue" d="M1072.02,-59.8711C1136.03,-50.8684 1275.43,-32.091 1363.14,-20.6117"/>
<polygon fill="midnightblue" stroke="midnightblue" points="1363.84,-24.0494 1373.31,-19.2835 1362.94,-17.1084 1363.84,-24.0494"/>
</g>
<!-- Node19 -->
<g id="node26" class="node"><title>Node19</title>
<g id="a_node26"><a xlink:href="astring_8hpp.html" target="_top" xlink:title="alib/strings/astring.hpp">
<polygon fill="white" stroke="red" points="1524.5,-0.5 1524.5,-19.5 1639.5,-19.5 1639.5,-0.5 1524.5,-0.5"/>
<text text-anchor="middle" x="1582" y="-7.5" font-family="Helvetica,sans-Serif" font-size="10.00">alib/strings/astring.hpp</text>
</a>
</g>
</g>
<!-- Node3&#45;&gt;Node19 -->
<g id="edge25" class="edge"><title>Node3&#45;&gt;Node19</title>
<path fill="none" stroke="midnightblue" d="M1072.16,-61.8751C1149.74,-55.2264 1344.29,-38.7449 1507,-20 1509.37,-19.7264 1511.8,-19.4383 1514.25,-19.1399"/>
<polygon fill="midnightblue" stroke="midnightblue" points="1514.95,-22.5798 1524.43,-17.865 1514.08,-15.634 1514.95,-22.5798"/>
</g>
<!-- Node20 -->
<g id="node27" class="node"><title>Node20</title>
<g id="a_node27"><a xlink:href="preallocatedstring_8hpp.html" target="_top" xlink:title="alib/strings/preallocatedstring.hpp">
<polygon fill="white" stroke="black" points="1658,-0.5 1658,-19.5 1820,-19.5 1820,-0.5 1658,-0.5"/>
<text text-anchor="middle" x="1739" y="-7.5" font-family="Helvetica,sans-Serif" font-size="10.00">alib/strings/preallocatedstring.hpp</text>
</a>
</g>
</g>
<!-- Node3&#45;&gt;Node20 -->
<g id="edge26" class="edge"><title>Node3&#45;&gt;Node20</title>
<path fill="none" stroke="midnightblue" d="M1072.18,-62.507C1164.19,-56.199 1423.83,-38.7656 1640,-20 1642.53,-19.7802 1645.1,-19.5521 1647.7,-19.3179"/>
<polygon fill="midnightblue" stroke="midnightblue" points="1648.19,-22.7876 1657.83,-18.3871 1647.55,-15.8169 1648.19,-22.7876"/>
</g>
<!-- Node21 -->
<g id="node28" class="node"><title>Node21</title>
<g id="a_node28"><a xlink:href="applyto_8hpp.html" target="_top" xlink:title="alib/strings/applyto.hpp">
<polygon fill="white" stroke="black" points="1838.5,-0.5 1838.5,-19.5 1955.5,-19.5 1955.5,-0.5 1838.5,-0.5"/>
<text text-anchor="middle" x="1897" y="-7.5" font-family="Helvetica,sans-Serif" font-size="10.00">alib/strings/applyto.hpp</text>
</a>
</g>
</g>
<!-- Node3&#45;&gt;Node21 -->
<g id="edge27" class="edge"><title>Node3&#45;&gt;Node21</title>
<path fill="none" stroke="midnightblue" d="M1072.37,-63.8351C1181.89,-60.1378 1531.4,-47.2691 1820,-20 1822.69,-19.7462 1825.43,-19.4668 1828.2,-19.1684"/>
<polygon fill="midnightblue" stroke="midnightblue" points="1828.81,-22.6223 1838.35,-18.0161 1828.02,-15.667 1828.81,-22.6223"/>
</g>
<!-- Node22 -->
<g id="node29" class="node"><title>Node22</title>
<g id="a_node29"><a xlink:href="applyformat_8hpp.html" target="_top" xlink:title="alib/strings/applyformat.hpp">
<polygon fill="white" stroke="red" points="1973.5,-0.5 1973.5,-19.5 2110.5,-19.5 2110.5,-0.5 1973.5,-0.5"/>
<text text-anchor="middle" x="2042" y="-7.5" font-family="Helvetica,sans-Serif" font-size="10.00">alib/strings/applyformat.hpp</text>
</a>
</g>
</g>
<!-- Node3&#45;&gt;Node22 -->
<g id="edge28" class="edge"><title>Node3&#45;&gt;Node22</title>
<path fill="none" stroke="midnightblue" d="M1072.32,-64.0792C1193.51,-60.8191 1611.56,-48.4571 1956,-20 1958.38,-19.8036 1960.79,-19.5914 1963.24,-19.3663"/>
<polygon fill="midnightblue" stroke="midnightblue" points="1963.77,-22.8305 1973.39,-18.377 1963.1,-15.8635 1963.77,-22.8305"/>
</g>
<!-- Node27&#45;&gt;Node2 -->
<g id="edge39" class="edge"><title>Node27&#45;&gt;Node2</title>
<path fill="none" stroke="midnightblue" d="M1121.11,-187.538C1120.4,-187.697 1119.7,-187.852 1119,-188 1030.8,-206.785 925.972,-221.049 866.372,-228.103"/>
<polygon fill="midnightblue" stroke="midnightblue" points="865.667,-224.661 856.14,-229.295 866.477,-231.614 865.667,-224.661"/>
</g>
<!-- Node28&#45;&gt;Node2 -->
<g id="edge40" class="edge"><title>Node28&#45;&gt;Node2</title>
<path fill="none" stroke="midnightblue" d="M658.16,-184.777C690.651,-193.483 748.169,-210.147 784.98,-221.419"/>
<polygon fill="midnightblue" stroke="midnightblue" points="784.187,-224.837 794.775,-224.444 786.253,-218.149 784.187,-224.837"/>
</g>
<!-- Node29 -->
<g id="node30" class="node"><title>Node29</title>
<g id="a_node30"><a xlink:href="threadlock_8hpp.html" target="_top" xlink:title="alib/threads/threadlock.hpp">
<polygon fill="white" stroke="red" points="738,-112.5 738,-131.5 872,-131.5 872,-112.5 738,-112.5"/>
<text text-anchor="middle" x="805" y="-119.5" font-family="Helvetica,sans-Serif" font-size="10.00">alib/threads/threadlock.hpp</text>
</a>
</g>
</g>
<!-- Node28&#45;&gt;Node29 -->
<g id="edge41" class="edge"><title>Node28&#45;&gt;Node29</title>
<path fill="none" stroke="midnightblue" d="M658.137,-169.378C686.755,-160.341 734.756,-145.182 768.057,-134.666"/>
<polygon fill="midnightblue" stroke="midnightblue" points="769.4,-137.913 777.882,-131.564 767.292,-131.238 769.4,-137.913"/>
</g>
<!-- Node30 -->
<g id="node31" class="node"><title>Node30</title>
<g id="a_node31"><a xlink:href="scopeinfo_8hpp.html" target="_top" xlink:title="alox/core/scopeinfo.hpp">
<polygon fill="white" stroke="red" points="890,-112.5 890,-131.5 1010,-131.5 1010,-112.5 890,-112.5"/>
<text text-anchor="middle" x="950" y="-119.5" font-family="Helvetica,sans-Serif" font-size="10.00">alox/core/scopeinfo.hpp</text>
</a>
</g>
</g>
<!-- Node28&#45;&gt;Node30 -->
<g id="edge42" class="edge"><title>Node28&#45;&gt;Node30</title>
<path fill="none" stroke="midnightblue" d="M658.076,-170.109C661.07,-169.349 664.097,-168.625 667,-168 706.75,-159.446 811.119,-143.469 881.379,-133.036"/>
<polygon fill="midnightblue" stroke="midnightblue" points="882.107,-136.466 891.486,-131.538 881.081,-129.542 882.107,-136.466"/>
</g>
<!-- Node31 -->
<g id="node32" class="node"><title>Node31</title>
<polygon fill="white" stroke="#bfbfbf" points="812.5,-56.5 812.5,-75.5 847.5,-75.5 847.5,-56.5 812.5,-56.5"/>
<text text-anchor="middle" x="830" y="-63.5" font-family="Helvetica,sans-Serif" font-size="10.00">map</text>
</g>
<!-- Node28&#45;&gt;Node31 -->
<g id="edge43" class="edge"><title>Node28&#45;&gt;Node31</title>
<path fill="none" stroke="midnightblue" d="M645.266,-168.294C662.629,-155.111 697.25,-129.743 729,-112 753.193,-98.48 782.222,-85.8971 802.937,-77.4944"/>
<polygon fill="midnightblue" stroke="midnightblue" points="804.395,-80.6812 812.381,-73.7195 801.796,-74.1813 804.395,-80.6812"/>
</g>
<!-- Node28&#45;&gt;Node32 -->
<g id="edge44" class="edge"><title>Node28&#45;&gt;Node32</title>
<path fill="none" stroke="midnightblue" d="M609.643,-169.263C581.105,-160.198 533.536,-145.088 500.563,-134.614"/>
<polygon fill="midnightblue" stroke="midnightblue" points="501.426,-131.216 490.836,-131.524 499.307,-137.888 501.426,-131.216"/>
</g>
<!-- Node33 -->
<g id="node34" class="node"><title>Node33</title>
<g id="a_node34"><a xlink:href="domain_8hpp.html" target="_top" xlink:title="alox/core/domain.hpp">
<polygon fill="white" stroke="black" points="572,-112.5 572,-131.5 682,-131.5 682,-112.5 572,-112.5"/>
<text text-anchor="middle" x="627" y="-119.5" font-family="Helvetica,sans-Serif" font-size="10.00">alox/core/domain.hpp</text>
</a>
</g>
</g>
<!-- Node28&#45;&gt;Node33 -->
<g id="edge45" class="edge"><title>Node28&#45;&gt;Node33</title>
<path fill="none" stroke="midnightblue" d="M632.844,-168.083C631.916,-160.927 630.582,-150.635 629.423,-141.691"/>
<polygon fill="midnightblue" stroke="midnightblue" points="632.891,-141.218 628.134,-131.751 625.949,-142.118 632.891,-141.218"/>
</g>
<!-- Node34 -->
<g id="node35" class="node"><title>Node34</title>
<g id="a_node35"><a xlink:href="scopestore_8hpp.html" target="_top" xlink:title="alox/core/scopestore.hpp">
<polygon fill="white" stroke="black" points="1073,-112.5 1073,-131.5 1199,-131.5 1199,-112.5 1073,-112.5"/>
<text text-anchor="middle" x="1136" y="-119.5" font-family="Helvetica,sans-Serif" font-size="10.00">alox/core/scopestore.hpp</text>
</a>
</g>
</g>
<!-- Node28&#45;&gt;Node34 -->
<g id="edge46" class="edge"><title>Node28&#45;&gt;Node34</title>
<path fill="none" stroke="midnightblue" d="M658.041,-169.934C661.041,-169.203 664.079,-168.534 667,-168 704.859,-161.073 940.548,-140.009 1062.72,-129.338"/>
<polygon fill="midnightblue" stroke="midnightblue" points="1063.09,-132.819 1072.75,-128.464 1062.48,-125.846 1063.09,-132.819"/>
</g>
<!-- Node13&#45;&gt;Node3 -->
<g id="edge29" class="edge"><title>Node13&#45;&gt;Node3</title>
<path fill="none" stroke="midnightblue" d="M835.877,-19.5164C880.6,-28.8809 949.4,-43.95 994.12,-54.1529"/>
<polygon fill="midnightblue" stroke="midnightblue" points="993.58,-57.6198 1004.11,-56.4435 995.145,-50.7969 993.58,-57.6198"/>
</g>
<!-- Node14&#45;&gt;Node3 -->
<g id="edge30" class="edge"><title>Node14&#45;&gt;Node3</title>
<path fill="none" stroke="midnightblue" d="M936.952,-19.5164C959.405,-28.3091 991.908,-42.1312 1014.04,-52.2321"/>
<polygon fill="midnightblue" stroke="midnightblue" points="1012.58,-55.4109 1023.12,-56.4435 1015.52,-49.0607 1012.58,-55.4109"/>
</g>
<!-- Node15&#45;&gt;Node3 -->
<g id="edge31" class="edge"><title>Node15&#45;&gt;Node3</title>
<path fill="none" stroke="midnightblue" d="M1043.13,-19.7511C1044.66,-26.8579 1045.1,-37.1357 1044.47,-46.1005"/>
<polygon fill="midnightblue" stroke="midnightblue" points="1040.99,-45.7134 1043.17,-56.083 1047.93,-46.6216 1040.99,-45.7134"/>
</g>
<!-- Node16&#45;&gt;Node3 -->
<g id="edge32" class="edge"><title>Node16&#45;&gt;Node3</title>
<path fill="none" stroke="midnightblue" d="M1153.42,-19.5164C1133.68,-28.4669 1099.55,-42.6287 1073.42,-52.772"/>
<polygon fill="midnightblue" stroke="midnightblue" points="1071.93,-49.5952 1063.85,-56.4435 1074.44,-56.1312 1071.93,-49.5952"/>
</g>
<!-- Node17&#45;&gt;Node3 -->
<g id="edge33" class="edge"><title>Node17&#45;&gt;Node3</title>
<path fill="none" stroke="midnightblue" d="M1262.86,-19.5298C1215.6,-29.7732 1133.14,-46.8283 1082.22,-56.884"/>
<polygon fill="midnightblue" stroke="midnightblue" points="1081.3,-53.4966 1072.16,-58.8581 1082.65,-60.3654 1081.3,-53.4966"/>
</g>
<!-- Node18&#45;&gt;Node3 -->
<g id="edge34" class="edge"><title>Node18&#45;&gt;Node3</title>
<path fill="none" stroke="midnightblue" d="M1381.55,-19.5342C1300.41,-30.7656 1155.6,-50.1807 1082.57,-59.5843"/>
<polygon fill="midnightblue" stroke="midnightblue" points="1081.81,-56.1535 1072.34,-60.8969 1082.7,-63.0966 1081.81,-56.1535"/>
</g>
<!-- Node19&#45;&gt;Node3 -->
<g id="edge35" class="edge"><title>Node19&#45;&gt;Node3</title>
<path fill="none" stroke="midnightblue" d="M1529.18,-19.5097C1527.77,-19.6775 1526.38,-19.8412 1525,-20 1362.44,-38.7269 1168.11,-55.1948 1082.27,-61.856"/>
<polygon fill="midnightblue" stroke="midnightblue" points="1081.81,-58.3811 1072.1,-62.6377 1082.34,-65.3605 1081.81,-58.3811"/>
</g>
<!-- Node20&#45;&gt;Node3 -->
<g id="edge36" class="edge"><title>Node20&#45;&gt;Node3</title>
<path fill="none" stroke="midnightblue" d="M1663.21,-19.5411C1661.46,-19.6974 1659.72,-19.8506 1658,-20 1442.82,-38.6795 1184.57,-56.0389 1082.48,-62.4194"/>
<polygon fill="midnightblue" stroke="midnightblue" points="1082,-58.9424 1072.23,-63.0552 1082.43,-65.9289 1082,-58.9424"/>
</g>
<!-- Node21&#45;&gt;Node3 -->
<g id="edge37" class="edge"><title>Node21&#45;&gt;Node3</title>
<path fill="none" stroke="midnightblue" d="M1843.04,-19.5018C1841.34,-19.6766 1839.66,-19.8432 1838,-20 1550.92,-47.1254 1203.57,-60.0018 1082.24,-63.7759"/>
<polygon fill="midnightblue" stroke="midnightblue" points="1082.1,-60.2784 1072.21,-64.0828 1082.32,-67.2751 1082.1,-60.2784"/>
</g>
<!-- Node22&#45;&gt;Node3 -->
<g id="edge38" class="edge"><title>Node22&#45;&gt;Node3</title>
<path fill="none" stroke="midnightblue" d="M1979.7,-19.5063C1977.78,-19.6798 1975.88,-19.8449 1974,-20 1631.99,-48.2558 1217.43,-60.6433 1082.58,-64.0086"/>
<polygon fill="midnightblue" stroke="midnightblue" points="1082.15,-60.5178 1072.24,-64.2623 1082.33,-67.5157 1082.15,-60.5178"/>
</g>
<!-- Node29&#45;&gt;Node3 -->
<g id="edge47" class="edge"><title>Node29&#45;&gt;Node3</title>
<path fill="none" stroke="midnightblue" d="M841.92,-112.444C883.229,-102.87 950.109,-87.3697 994.073,-77.1806"/>
<polygon fill="midnightblue" stroke="midnightblue" points="994.955,-80.569 1003.91,-74.9015 993.374,-73.7497 994.955,-80.569"/>
</g>
<!-- Node29&#45;&gt;Node25 -->
<g id="edge48" class="edge"><title>Node29&#45;&gt;Node25</title>
<path fill="none" stroke="midnightblue" d="M770.14,-112.444C728.121,-102.13 658.08,-84.9378 617.258,-74.9179"/>
<polygon fill="midnightblue" stroke="midnightblue" points="617.846,-71.4584 607.3,-72.4736 616.177,-78.2566 617.846,-71.4584"/>
</g>
<!-- Node30&#45;&gt;Node2 -->
<g id="edge49" class="edge"><title>Node30&#45;&gt;Node2</title>
<path fill="none" stroke="midnightblue" d="M1010.17,-126.567C1069.88,-131.512 1155.38,-142.871 1176,-168 1181.64,-174.872 1181.88,-181.333 1176,-188 1155.83,-210.868 958.808,-225.028 866.397,-230.462"/>
<polygon fill="midnightblue" stroke="midnightblue" points="865.976,-226.98 856.195,-231.052 866.38,-233.969 865.976,-226.98"/>
</g>
<!-- Node30&#45;&gt;Node31 -->
<g id="edge50" class="edge"><title>Node30&#45;&gt;Node31</title>
<path fill="none" stroke="midnightblue" d="M930.986,-112.444C911.067,-103.48 879.605,-89.3221 857.092,-79.1914"/>
<polygon fill="midnightblue" stroke="midnightblue" points="858.307,-75.9003 847.752,-74.9883 855.435,-82.2837 858.307,-75.9003"/>
</g>
<!-- Node32&#45;&gt;Node2 -->
<g id="edge51" class="edge"><title>Node32&#45;&gt;Node2</title>
<path fill="none" stroke="midnightblue" d="M470.112,-131.907C480.546,-146.335 503.278,-174.556 530,-188 571.451,-208.854 701.013,-222.867 771.751,-229.179"/>
<polygon fill="midnightblue" stroke="midnightblue" points="771.477,-232.668 781.744,-230.054 772.088,-225.695 771.477,-232.668"/>
</g>
<!-- Node32&#45;&gt;Node25 -->
<g id="edge52" class="edge"><title>Node32&#45;&gt;Node25</title>
<path fill="none" stroke="midnightblue" d="M483.173,-112.444C502.909,-103.636 533.885,-89.8116 556.493,-79.722"/>
<polygon fill="midnightblue" stroke="midnightblue" points="558.211,-82.788 565.917,-75.5164 555.359,-76.3957 558.211,-82.788"/>
</g>
<!-- Node33&#45;&gt;Node2 -->
<g id="edge53" class="edge"><title>Node33&#45;&gt;Node2</title>
<path fill="none" stroke="midnightblue" d="M618.236,-131.855C606.064,-145.232 587.029,-170.85 601,-188 622.082,-213.879 713.979,-225.323 771.519,-230.029"/>
<polygon fill="midnightblue" stroke="midnightblue" points="771.597,-233.545 781.838,-230.831 772.14,-226.566 771.597,-233.545"/>
</g>
<!-- Node33&#45;&gt;Node25 -->
<g id="edge54" class="edge"><title>Node33&#45;&gt;Node25</title>
<path fill="none" stroke="midnightblue" d="M620.065,-112.083C614.071,-104.377 605.248,-93.0333 597.952,-83.6531"/>
<polygon fill="midnightblue" stroke="midnightblue" points="600.709,-81.4958 591.806,-75.7511 595.183,-85.7934 600.709,-81.4958"/>
</g>
<!-- Node34&#45;&gt;Node2 -->
<g id="edge55" class="edge"><title>Node34&#45;&gt;Node2</title>
<path fill="none" stroke="midnightblue" d="M1153.21,-131.649C1175.86,-144.13 1210.83,-167.9 1193,-188 1171.65,-212.076 962.041,-225.731 866.284,-230.758"/>
<polygon fill="midnightblue" stroke="midnightblue" points="866.092,-227.263 856.285,-231.273 866.452,-234.254 866.092,-227.263"/>
</g>
</g>
</svg>
