<?xml version="1.0" encoding="UTF-8" standalone="no"?>
<!DOCTYPE svg PUBLIC "-//W3C//DTD SVG 1.1//EN"
 "http://www.w3.org/Graphics/SVG/1.1/DTD/svg11.dtd">
<!-- Generated by graphviz version 2.40.1 (20161225.0304)
 -->
<!-- Title: plugins.hpp Pages: 1 -->
<svg width="940pt" height="476pt"
 viewBox="0.00 0.00 940.00 476.00" xmlns="http://www.w3.org/2000/svg" xmlns:xlink="http://www.w3.org/1999/xlink">
<g id="graph0" class="graph" transform="scale(1 1) rotate(0) translate(4 472)">
<title>plugins.hpp</title>
<polygon fill="#ffffff" stroke="transparent" points="-4,4 -4,-472 936,-472 936,4 -4,4"/>
<!-- Node6 -->
<g id="node1" class="node">
<title>Node6</title>
<polygon fill="#bfbfbf" stroke="#000000" points="680,-448.5 680,-467.5 746,-467.5 746,-448.5 680,-448.5"/>
<text text-anchor="middle" x="713" y="-455.5" font-family="Helvetica,sans-Serif" font-size="10.00" fill="#000000">plugins.hpp</text>
</g>
<!-- Node7 -->
<g id="node2" class="node">
<title>Node7</title>
<g id="a_node2"><a xlink:href="configuration_8hpp.html" target="_top" xlink:title="configuration.hpp">
<polygon fill="#ffffff" stroke="#000000" points="627.5,-336.5 627.5,-355.5 718.5,-355.5 718.5,-336.5 627.5,-336.5"/>
<text text-anchor="middle" x="673" y="-343.5" font-family="Helvetica,sans-Serif" font-size="10.00" fill="#000000">configuration.hpp</text>
</a>
</g>
</g>
<!-- Node6&#45;&gt;Node7 -->
<g id="edge1" class="edge">
<title>Node6&#45;&gt;Node7</title>
<path fill="none" stroke="#191970" d="M703.6643,-439.2203C699.7702,-430.9848 695.3777,-421.1317 692,-412 684.7197,-392.3176 678.4694,-368.5032 675.2738,-355.5413"/>
<polygon fill="#191970" stroke="#191970" points="700.556,-440.8322 708.0652,-448.3063 706.8559,-437.7807 700.556,-440.8322"/>
</g>
<!-- Node26 -->
<g id="node3" class="node">
<title>Node26</title>
<g id="a_node3"><a xlink:href="inmemoryplugin_8hpp.html" target="_top" xlink:title="inmemoryplugin.hpp">
<polygon fill="#ffffff" stroke="#000000" points="701,-392.5 701,-411.5 805,-411.5 805,-392.5 701,-392.5"/>
<text text-anchor="middle" x="753" y="-399.5" font-family="Helvetica,sans-Serif" font-size="10.00" fill="#000000">inmemoryplugin.hpp</text>
</a>
</g>
</g>
<!-- Node6&#45;&gt;Node26 -->
<g id="edge2" class="edge">
<title>Node6&#45;&gt;Node26</title>
<path fill="none" stroke="#191970" d="M725.9136,-439.9209C732.6303,-430.5176 740.5717,-419.3997 746.1124,-411.6427"/>
<polygon fill="#191970" stroke="#191970" points="722.9318,-438.0738 719.9675,-448.2455 728.628,-442.1425 722.9318,-438.0738"/>
</g>
<!-- Node8 -->
<g id="node4" class="node">
<title>Node8</title>
<g id="a_node4"><a xlink:href="alox_8hpp.html" target="_top" xlink:title="alox.hpp">
<polygon fill="#ffffff" stroke="#000000" points="376.5,-280.5 376.5,-299.5 429.5,-299.5 429.5,-280.5 376.5,-280.5"/>
<text text-anchor="middle" x="403" y="-287.5" font-family="Helvetica,sans-Serif" font-size="10.00" fill="#000000">alox.hpp</text>
</a>
</g>
</g>
<!-- Node7&#45;&gt;Node8 -->
<g id="edge3" class="edge">
<title>Node7&#45;&gt;Node8</title>
<path fill="none" stroke="#191970" d="M617.2098,-334.4287C559.9006,-322.5423 473.1245,-304.5443 429.7108,-295.54"/>
<polygon fill="#191970" stroke="#191970" points="616.6957,-337.8965 627.1982,-336.5004 618.1174,-331.0424 616.6957,-337.8965"/>
</g>
<!-- Node10 -->
<g id="node5" class="node">
<title>Node10</title>
<g id="a_node5"><a xlink:href="lox_8hpp.html" target="_top" xlink:title="lox.hpp">
<polygon fill="#ffffff" stroke="#000000" points="664,-168.5 664,-187.5 712,-187.5 712,-168.5 664,-168.5"/>
<text text-anchor="middle" x="688" y="-175.5" font-family="Helvetica,sans-Serif" font-size="10.00" fill="#000000">lox.hpp</text>
</a>
</g>
</g>
<!-- Node7&#45;&gt;Node10 -->
<g id="edge4" class="edge">
<title>Node7&#45;&gt;Node10</title>
<path fill="none" stroke="#191970" d="M715.5392,-333.4287C776.3575,-314.4971 883.244,-277.3309 905,-244 909.8586,-236.5565 910.5959,-230.9064 905,-224 880.938,-194.3026 763.7238,-183.0028 712.283,-179.4249"/>
<polygon fill="#191970" stroke="#191970" points="714.3602,-330.1295 705.8329,-336.4172 716.42,-336.8196 714.3602,-330.1295"/>
</g>
<!-- Node26&#45;&gt;Node7 -->
<g id="edge41" class="edge">
<title>Node26&#45;&gt;Node7</title>
<path fill="none" stroke="#191970" d="M730.8429,-386.49C716.728,-376.6096 698.8849,-364.1194 686.7752,-355.6427"/>
<polygon fill="#191970" stroke="#191970" points="728.8656,-389.3782 739.0651,-392.2455 732.8799,-383.6436 728.8656,-389.3782"/>
</g>
<!-- Node27 -->
<g id="node22" class="node">
<title>Node27</title>
<g id="a_node22"><a xlink:href="inifile_8hpp.html" target="_top" xlink:title="inifile.hpp">
<polygon fill="#ffffff" stroke="#000000" points="737,-336.5 737,-355.5 795,-355.5 795,-336.5 737,-336.5"/>
<text text-anchor="middle" x="766" y="-343.5" font-family="Helvetica,sans-Serif" font-size="10.00" fill="#000000">inifile.hpp</text>
</a>
</g>
</g>
<!-- Node26&#45;&gt;Node27 -->
<g id="edge42" class="edge">
<title>Node26&#45;&gt;Node27</title>
<path fill="none" stroke="#191970" d="M757.5375,-382.4538C759.6439,-373.3803 762.0536,-362.9998 763.7615,-355.6427"/>
<polygon fill="#191970" stroke="#191970" points="754.1165,-381.7131 755.2644,-392.2455 760.9351,-383.2961 754.1165,-381.7131"/>
</g>
<!-- Node8&#45;&gt;Node10 -->
<g id="edge6" class="edge">
<title>Node8&#45;&gt;Node10</title>
<path fill="none" stroke="#191970" d="M439.9361,-287.1505C500.659,-282.0906 617.5427,-269.5718 650,-244 667.8925,-229.9032 675.0016,-202.4918 680.8505,-187.8224"/>
<polygon fill="#191970" stroke="#191970" points="439.3219,-283.6886 429.6362,-287.9824 439.8856,-290.6659 439.3219,-283.6886"/>
</g>
<!-- Node9 -->
<g id="node6" class="node">
<title>Node9</title>
<g id="a_node6"><a xlink:href="log_8hpp.html" target="_top" xlink:title="log.hpp">
<polygon fill="#ffffff" stroke="#000000" points="0,-224.5 0,-243.5 48,-243.5 48,-224.5 0,-224.5"/>
<text text-anchor="middle" x="24" y="-231.5" font-family="Helvetica,sans-Serif" font-size="10.00" fill="#000000">log.hpp</text>
</a>
</g>
</g>
<!-- Node8&#45;&gt;Node9 -->
<g id="edge5" class="edge">
<title>Node8&#45;&gt;Node9</title>
<path fill="none" stroke="#191970" d="M366.3823,-287.0657C302.1515,-281.1446 165.9571,-266.393 53,-244 51.394,-243.6816 49.7552,-243.3351 48.1111,-242.9684"/>
<polygon fill="#191970" stroke="#191970" points="366.1498,-290.5588 376.424,-287.9723 366.7793,-283.5872 366.1498,-290.5588"/>
</g>
<!-- Node11 -->
<g id="node7" class="node">
<title>Node11</title>
<g id="a_node7"><a xlink:href="alox__console__loggers_8hpp.html" target="_top" xlink:title="alox_console_loggers.hpp">
<polygon fill="#ffffff" stroke="#000000" points="370.5,-.5 370.5,-19.5 499.5,-19.5 499.5,-.5 370.5,-.5"/>
<text text-anchor="middle" x="435" y="-7.5" font-family="Helvetica,sans-Serif" font-size="10.00" fill="#000000">alox_console_loggers.hpp</text>
</a>
</g>
</g>
<!-- Node8&#45;&gt;Node11 -->
<g id="edge7" class="edge">
<title>Node8&#45;&gt;Node11</title>
<path fill="none" stroke="#191970" d="M422.5171,-273.9144C452.4619,-247.8177 508.5267,-192.9899 530,-132 541.7199,-98.7122 529.6265,-83.0827 507,-56 493.4953,-39.8356 472.8196,-27.4504 457.0832,-19.6252"/>
<polygon fill="#191970" stroke="#191970" points="420.1445,-271.338 414.8142,-280.4944 424.6911,-276.6605 420.1445,-271.338"/>
</g>
<!-- Node12 -->
<g id="node8" class="node">
<title>Node12</title>
<g id="a_node8"><a xlink:href="domain_8hpp.html" target="_top" xlink:title="domain.hpp">
<polygon fill="#ffffff" stroke="#000000" points="488.5,-224.5 488.5,-243.5 555.5,-243.5 555.5,-224.5 488.5,-224.5"/>
<text text-anchor="middle" x="522" y="-231.5" font-family="Helvetica,sans-Serif" font-size="10.00" fill="#000000">domain.hpp</text>
</a>
</g>
</g>
<!-- Node8&#45;&gt;Node12 -->
<g id="edge8" class="edge">
<title>Node8&#45;&gt;Node12</title>
<path fill="none" stroke="#191970" d="M432.5144,-276.1109C454.0938,-265.9559 482.7976,-252.4482 501.8101,-243.5011"/>
<polygon fill="#191970" stroke="#191970" points="431.0147,-272.9484 423.4568,-280.3733 433.9953,-279.2821 431.0147,-272.9484"/>
</g>
<!-- Node13 -->
<g id="node9" class="node">
<title>Node13</title>
<g id="a_node9"><a xlink:href="logger_8hpp.html" target="_top" xlink:title="logger.hpp">
<polygon fill="#ffffff" stroke="#000000" points="294.5,-224.5 294.5,-243.5 355.5,-243.5 355.5,-224.5 294.5,-224.5"/>
<text text-anchor="middle" x="325" y="-231.5" font-family="Helvetica,sans-Serif" font-size="10.00" fill="#000000">logger.hpp</text>
</a>
</g>
</g>
<!-- Node8&#45;&gt;Node13 -->
<g id="edge9" class="edge">
<title>Node8&#45;&gt;Node13</title>
<path fill="none" stroke="#191970" d="M381.0064,-274.2097C367.3071,-264.3743 350.1264,-252.0394 338.4309,-243.6427"/>
<polygon fill="#191970" stroke="#191970" points="379.2489,-277.2566 389.4134,-280.2455 383.3314,-271.5703 379.2489,-277.2566"/>
</g>
<!-- Node14 -->
<g id="node10" class="node">
<title>Node14</title>
<g id="a_node10"><a xlink:href="textlogger_8hpp.html" target="_top" xlink:title="textlogger.hpp">
<polygon fill="#ffffff" stroke="#000000" points="218.5,-168.5 218.5,-187.5 295.5,-187.5 295.5,-168.5 218.5,-168.5"/>
<text text-anchor="middle" x="257" y="-175.5" font-family="Helvetica,sans-Serif" font-size="10.00" fill="#000000">textlogger.hpp</text>
</a>
</g>
</g>
<!-- Node8&#45;&gt;Node14 -->
<g id="edge10" class="edge">
<title>Node8&#45;&gt;Node14</title>
<path fill="none" stroke="#191970" d="M366.5139,-283.9724C326.3678,-276.5088 265.6927,-262.4853 252,-244 239.6883,-227.3791 247.1619,-201.502 252.6844,-187.6023"/>
<polygon fill="#191970" stroke="#191970" points="366.0243,-287.4405 376.4867,-285.771 367.2667,-280.5516 366.0243,-287.4405"/>
</g>
<!-- Node15 -->
<g id="node11" class="node">
<title>Node15</title>
<g id="a_node11"><a xlink:href="plaintextlogger_8hpp.html" target="_top" xlink:title="plaintextlogger.hpp">
<polygon fill="#ffffff" stroke="#000000" points="189,-112.5 189,-131.5 287,-131.5 287,-112.5 189,-112.5"/>
<text text-anchor="middle" x="238" y="-119.5" font-family="Helvetica,sans-Serif" font-size="10.00" fill="#000000">plaintextlogger.hpp</text>
</a>
</g>
</g>
<!-- Node8&#45;&gt;Node15 -->
<g id="edge11" class="edge">
<title>Node8&#45;&gt;Node15</title>
<path fill="none" stroke="#191970" d="M366.0472,-287.2658C330.9365,-282.9922 278.2607,-272.0433 242,-244 212.8704,-221.4718 198.7791,-203.3777 209,-168 212.9829,-154.214 222.4597,-140.5821 229.5023,-131.7814"/>
<polygon fill="#191970" stroke="#191970" points="366.0213,-290.7837 376.3421,-288.3893 366.7808,-283.825 366.0213,-290.7837"/>
</g>
<!-- Node16 -->
<g id="node12" class="node">
<title>Node16</title>
<g id="a_node12"><a xlink:href="consolelogger_8hpp.html" target="_top" xlink:title="consolelogger.hpp">
<polygon fill="#ffffff" stroke="#000000" points="387.5,-56.5 387.5,-75.5 482.5,-75.5 482.5,-56.5 387.5,-56.5"/>
<text text-anchor="middle" x="435" y="-63.5" font-family="Helvetica,sans-Serif" font-size="10.00" fill="#000000">consolelogger.hpp</text>
</a>
</g>
</g>
<!-- Node8&#45;&gt;Node16 -->
<g id="edge12" class="edge">
<title>Node8&#45;&gt;Node16</title>
<path fill="none" stroke="#191970" d="M394.2889,-271.0013C380.1789,-237.2949 356.2741,-165.5438 381,-112 388.3833,-96.0115 404.3676,-83.5319 417.0401,-75.6299"/>
<polygon fill="#191970" stroke="#191970" points="391.0846,-272.4095 398.2887,-280.1781 397.5016,-269.6126 391.0846,-272.4095"/>
</g>
<!-- Node17 -->
<g id="node13" class="node">
<title>Node17</title>
<g id="a_node13"><a xlink:href="memorylogger_8hpp.html" target="_top" xlink:title="memorylogger.hpp">
<polygon fill="#ffffff" stroke="#000000" points="165,-56.5 165,-75.5 261,-75.5 261,-56.5 165,-56.5"/>
<text text-anchor="middle" x="213" y="-63.5" font-family="Helvetica,sans-Serif" font-size="10.00" fill="#000000">memorylogger.hpp</text>
</a>
</g>
</g>
<!-- Node8&#45;&gt;Node17 -->
<g id="edge13" class="edge">
<title>Node8&#45;&gt;Node17</title>
<path fill="none" stroke="#191970" d="M366.2176,-285.168C318.4096,-278.1871 238.4864,-263.9 217,-244 172.299,-202.5993 161.3466,-170.0022 180,-112 184.5738,-97.7779 195.35,-84.2277 203.3508,-75.5654"/>
<polygon fill="#191970" stroke="#191970" points="365.7936,-288.6429 376.1868,-286.586 366.7794,-281.7126 365.7936,-288.6429"/>
</g>
<!-- Node18 -->
<g id="node14" class="node">
<title>Node18</title>
<g id="a_node14"><a xlink:href="textfilelogger_8hpp.html" target="_top" xlink:title="textfilelogger.hpp">
<polygon fill="#ffffff" stroke="#000000" points="279,-56.5 279,-75.5 369,-75.5 369,-56.5 279,-56.5"/>
<text text-anchor="middle" x="324" y="-63.5" font-family="Helvetica,sans-Serif" font-size="10.00" fill="#000000">textfilelogger.hpp</text>
</a>
</g>
</g>
<!-- Node8&#45;&gt;Node18 -->
<g id="edge14" class="edge">
<title>Node8&#45;&gt;Node18</title>
<path fill="none" stroke="#191970" d="M366.732,-280.6967C335.7131,-271.9197 294.6,-258.046 285,-244 270.1697,-222.3014 295.6313,-212.9145 304,-188 317.5317,-147.7146 322.0957,-96.7646 323.4691,-75.7458"/>
<polygon fill="#191970" stroke="#191970" points="365.8251,-284.0772 376.3957,-283.3611 367.6857,-277.329 365.8251,-284.0772"/>
</g>
<!-- Node19 -->
<g id="node15" class="node">
<title>Node19</title>
<g id="a_node15"><a xlink:href="vstudiologger_8hpp.html" target="_top" xlink:title="vstudiologger.hpp">
<polygon fill="#ffffff" stroke="#000000" points="55,-56.5 55,-75.5 147,-75.5 147,-56.5 55,-56.5"/>
<text text-anchor="middle" x="101" y="-63.5" font-family="Helvetica,sans-Serif" font-size="10.00" fill="#000000">vstudiologger.hpp</text>
</a>
</g>
</g>
<!-- Node8&#45;&gt;Node19 -->
<g id="edge15" class="edge">
<title>Node8&#45;&gt;Node19</title>
<path fill="none" stroke="#191970" d="M365.9687,-285.5903C313.6446,-278.7374 221.4855,-264.1884 195,-244 135.7997,-198.875 110.0384,-105.6157 103.0545,-75.5595"/>
<polygon fill="#191970" stroke="#191970" points="365.8181,-289.0995 376.1814,-286.8964 366.7062,-282.156 365.8181,-289.0995"/>
</g>
<!-- Node20 -->
<g id="node16" class="node">
<title>Node20</title>
<g id="a_node16"><a xlink:href="ansilogger_8hpp.html" target="_top" xlink:title="ansilogger.hpp">
<polygon fill="#ffffff" stroke="#000000" points="6.5,-112.5 6.5,-131.5 85.5,-131.5 85.5,-112.5 6.5,-112.5"/>
<text text-anchor="middle" x="46" y="-119.5" font-family="Helvetica,sans-Serif" font-size="10.00" fill="#000000">ansilogger.hpp</text>
</a>
</g>
</g>
<!-- Node8&#45;&gt;Node20 -->
<g id="edge16" class="edge">
<title>Node8&#45;&gt;Node20</title>
<path fill="none" stroke="#191970" d="M366.0764,-288.7506C294.6838,-285.6475 141.1208,-275.4149 100,-244 62.4518,-215.3145 50.4555,-154.8753 47.1313,-131.5055"/>
<polygon fill="#191970" stroke="#191970" points="366.26,-292.261 376.3952,-289.174 366.5471,-285.2669 366.26,-292.261"/>
</g>
<!-- Node21 -->
<g id="node17" class="node">
<title>Node21</title>
<g id="a_node17"><a xlink:href="windowsconsolelogger_8hpp.html" target="_top" xlink:title="windowsconsolelogger.hpp">
<polygon fill="#ffffff" stroke="#000000" points="390.5,-112.5 390.5,-131.5 521.5,-131.5 521.5,-112.5 390.5,-112.5"/>
<text text-anchor="middle" x="456" y="-119.5" font-family="Helvetica,sans-Serif" font-size="10.00" fill="#000000">windowsconsolelogger.hpp</text>
</a>
</g>
</g>
<!-- Node8&#45;&gt;Node21 -->
<g id="edge17" class="edge">
<title>Node8&#45;&gt;Node21</title>
<path fill="none" stroke="#191970" d="M409.0803,-270.7267C420.4078,-234.8207 444.3646,-158.8822 452.8995,-131.8279"/>
<polygon fill="#191970" stroke="#191970" points="405.6722,-269.8965 406.0014,-280.4862 412.3479,-272.0026 405.6722,-269.8965"/>
</g>
<!-- Node22 -->
<g id="node18" class="node">
<title>Node22</title>
<g id="a_node18"><a xlink:href="scopedump_8hpp.html" target="_top" xlink:title="scopedump.hpp">
<polygon fill="#ffffff" stroke="#000000" points="846,-168.5 846,-187.5 932,-187.5 932,-168.5 846,-168.5"/>
<text text-anchor="middle" x="889" y="-175.5" font-family="Helvetica,sans-Serif" font-size="10.00" fill="#000000">scopedump.hpp</text>
</a>
</g>
</g>
<!-- Node8&#45;&gt;Node22 -->
<g id="edge18" class="edge">
<title>Node8&#45;&gt;Node22</title>
<path fill="none" stroke="#191970" d="M439.7545,-289.4244C550.2475,-287.3168 873.7461,-278.2487 905,-244 919.3055,-228.3238 905.5837,-202.0628 896.1756,-187.852"/>
<polygon fill="#191970" stroke="#191970" points="439.6779,-285.9251 429.7435,-289.6072 439.8058,-292.9239 439.6779,-285.9251"/>
</g>
<!-- Node23 -->
<g id="node19" class="node">
<title>Node23</title>
<g id="a_node19"><a xlink:href="scopestore_8hpp.html" target="_top" xlink:title="scopestore.hpp">
<polygon fill="#ffffff" stroke="#000000" points="812.5,-224.5 812.5,-243.5 895.5,-243.5 895.5,-224.5 812.5,-224.5"/>
<text text-anchor="middle" x="854" y="-231.5" font-family="Helvetica,sans-Serif" font-size="10.00" fill="#000000">scopestore.hpp</text>
</a>
</g>
</g>
<!-- Node8&#45;&gt;Node23 -->
<g id="edge19" class="edge">
<title>Node8&#45;&gt;Node23</title>
<path fill="none" stroke="#191970" d="M440.056,-286.7882C510.9657,-280.4123 670.6626,-264.9444 804,-244 806.711,-243.5742 809.4987,-243.1048 812.3046,-242.6087"/>
<polygon fill="#191970" stroke="#191970" points="439.5028,-283.3235 429.8532,-287.6977 440.1245,-290.2959 439.5028,-283.3235"/>
</g>
<!-- Node24 -->
<g id="node20" class="node">
<title>Node24</title>
<g id="a_node20"><a xlink:href="scopeinfo_8hpp.html" target="_top" xlink:title="scopeinfo.hpp">
<polygon fill="#ffffff" stroke="#000000" points="573.5,-224.5 573.5,-243.5 650.5,-243.5 650.5,-224.5 573.5,-224.5"/>
<text text-anchor="middle" x="612" y="-231.5" font-family="Helvetica,sans-Serif" font-size="10.00" fill="#000000">scopeinfo.hpp</text>
</a>
</g>
</g>
<!-- Node8&#45;&gt;Node24 -->
<g id="edge20" class="edge">
<title>Node8&#45;&gt;Node24</title>
<path fill="none" stroke="#191970" d="M439.6741,-280.1734C478.2028,-269.85 538.3887,-253.7236 576.4785,-243.5177"/>
<polygon fill="#191970" stroke="#191970" points="438.6486,-276.8247 429.8952,-282.7936 440.4604,-283.5862 438.6486,-276.8247"/>
</g>
<!-- Node25 -->
<g id="node21" class="node">
<title>Node25</title>
<g id="a_node21"><a xlink:href="logtools_8hpp.html" target="_top" xlink:title="logtools.hpp">
<polygon fill="#ffffff" stroke="#000000" points="725.5,-224.5 725.5,-243.5 794.5,-243.5 794.5,-224.5 725.5,-224.5"/>
<text text-anchor="middle" x="760" y="-231.5" font-family="Helvetica,sans-Serif" font-size="10.00" fill="#000000">logtools.hpp</text>
</a>
</g>
</g>
<!-- Node8&#45;&gt;Node25 -->
<g id="edge21" class="edge">
<title>Node8&#45;&gt;Node25</title>
<path fill="none" stroke="#191970" d="M439.9848,-285.1222C497.9141,-277.3367 613.5129,-261.2151 711,-244 715.617,-243.1847 720.4664,-242.2684 725.2448,-241.33"/>
<polygon fill="#191970" stroke="#191970" points="439.3041,-281.682 429.8566,-286.4773 440.2325,-288.6202 439.3041,-281.682"/>
</g>
<!-- Node10&#45;&gt;Node8 -->
<g id="edge23" class="edge">
<title>Node10&#45;&gt;Node8</title>
<path fill="none" stroke="#191970" d="M691.7776,-198.1204C689.6686,-213.0783 682.2581,-232.7666 668,-244 631.7317,-272.5743 490.0473,-284.8505 429.9215,-288.6334"/>
<polygon fill="#191970" stroke="#191970" points="695.29,-198.0105 692.3826,-187.8224 688.3021,-197.5999 695.29,-198.0105"/>
</g>
<!-- Node9&#45;&gt;Node8 -->
<g id="edge22" class="edge">
<title>Node9&#45;&gt;Node8</title>
<path fill="none" stroke="#191970" d="M58.1438,-241.1139C62.5007,-242.171 66.8596,-243.1792 71,-244 183.7997,-266.3618 319.7721,-281.1035 376.4602,-287.0409"/>
<polygon fill="#191970" stroke="#191970" points="58.633,-237.6294 48.085,-238.6239 56.9509,-244.4243 58.633,-237.6294"/>
</g>
<!-- Node12&#45;&gt;Node10 -->
<g id="edge24" class="edge">
<title>Node12&#45;&gt;Node10</title>
<path fill="none" stroke="#191970" d="M560.4207,-221.0388C592.3338,-210.2729 636.7492,-195.2894 663.874,-186.1389"/>
<polygon fill="#191970" stroke="#191970" points="558.893,-217.8603 550.5364,-224.3733 561.1306,-224.4931 558.893,-217.8603"/>
</g>
<!-- Node13&#45;&gt;Node10 -->
<g id="edge25" class="edge">
<title>Node13&#45;&gt;Node10</title>
<path fill="none" stroke="#191970" d="M365.7763,-227.7094C441.7783,-215.9846 602.9023,-191.128 663.9091,-181.7165"/>
<polygon fill="#191970" stroke="#191970" points="364.9858,-224.2899 355.6363,-229.2737 366.0531,-231.2081 364.9858,-224.2899"/>
</g>
<!-- Node13&#45;&gt;Node14 -->
<g id="edge26" class="edge">
<title>Node13&#45;&gt;Node14</title>
<path fill="none" stroke="#191970" d="M305.1404,-217.645C293.3142,-207.9058 278.7108,-195.8795 268.709,-187.6427"/>
<polygon fill="#191970" stroke="#191970" points="303.211,-220.5902 313.1553,-224.2455 307.661,-215.1867 303.211,-220.5902"/>
</g>
<!-- Node14&#45;&gt;Node15 -->
<g id="edge27" class="edge">
<title>Node14&#45;&gt;Node15</title>
<path fill="none" stroke="#191970" d="M250.4685,-158.7493C247.3664,-149.6064 243.7949,-139.0798 241.2716,-131.6427"/>
<polygon fill="#191970" stroke="#191970" points="247.163,-159.9003 253.6905,-168.2455 253.7918,-157.6512 247.163,-159.9003"/>
</g>
<!-- Node14&#45;&gt;Node20 -->
<g id="edge28" class="edge">
<title>Node14&#45;&gt;Node20</title>
<path fill="none" stroke="#191970" d="M210.7303,-165.7199C171.9324,-155.4228 117.3241,-140.9296 81.7989,-131.5011"/>
<polygon fill="#191970" stroke="#191970" points="210.1646,-169.1909 220.7278,-168.3733 211.9603,-162.4251 210.1646,-169.1909"/>
</g>
<!-- Node14&#45;&gt;Node21 -->
<g id="edge29" class="edge">
<title>Node14&#45;&gt;Node21</title>
<path fill="none" stroke="#191970" d="M301.1062,-165.5882C337.6677,-155.2996 388.8748,-140.8895 422.2371,-131.5011"/>
<polygon fill="#191970" stroke="#191970" points="299.8873,-162.2952 291.2093,-168.3733 301.7836,-169.0335 299.8873,-162.2952"/>
</g>
<!-- Node15&#45;&gt;Node16 -->
<g id="edge30" class="edge">
<title>Node15&#45;&gt;Node16</title>
<path fill="none" stroke="#191970" d="M281.6629,-109.5882C317.8569,-99.2996 368.5494,-84.8895 401.5764,-75.5011"/>
<polygon fill="#191970" stroke="#191970" points="280.5274,-106.2723 271.8655,-112.3733 282.4415,-113.0055 280.5274,-106.2723"/>
</g>
<!-- Node15&#45;&gt;Node17 -->
<g id="edge31" class="edge">
<title>Node15&#45;&gt;Node17</title>
<path fill="none" stroke="#191970" d="M229.5374,-103.0437C225.4255,-93.8331 220.6606,-83.1598 217.3048,-75.6427"/>
<polygon fill="#191970" stroke="#191970" points="226.3728,-104.541 233.6453,-112.2455 232.7648,-101.6874 226.3728,-104.541"/>
</g>
<!-- Node15&#45;&gt;Node18 -->
<g id="edge32" class="edge">
<title>Node15&#45;&gt;Node18</title>
<path fill="none" stroke="#191970" d="M261.3905,-106.769C276.6299,-96.8456 296.0509,-84.1994 309.1916,-75.6427"/>
<polygon fill="#191970" stroke="#191970" points="259.4502,-103.8558 252.9801,-112.2455 263.2699,-109.7218 259.4502,-103.8558"/>
</g>
<!-- Node15&#45;&gt;Node19 -->
<g id="edge33" class="edge">
<title>Node15&#45;&gt;Node19</title>
<path fill="none" stroke="#191970" d="M205.0194,-108.5189C180.0689,-98.3201 146.4266,-84.5685 124.2438,-75.5011"/>
<polygon fill="#191970" stroke="#191970" points="203.868,-111.8293 214.4489,-112.3733 206.5166,-105.3497 203.868,-111.8293"/>
</g>
<!-- Node16&#45;&gt;Node11 -->
<g id="edge34" class="edge">
<title>Node16&#45;&gt;Node11</title>
<path fill="none" stroke="#191970" d="M435,-46.1575C435,-37.155 435,-26.9199 435,-19.6427"/>
<polygon fill="#191970" stroke="#191970" points="431.5001,-46.2455 435,-56.2455 438.5001,-46.2456 431.5001,-46.2455"/>
</g>
<!-- Node19&#45;&gt;Node11 -->
<g id="edge35" class="edge">
<title>Node19&#45;&gt;Node11</title>
<path fill="none" stroke="#191970" d="M157.1025,-55.8286C238.3483,-41.7946 321.0415,-28.2987 375.3566,-19.5425"/>
<polygon fill="#191970" stroke="#191970" points="156.46,-52.3877 147.2037,-57.5424 157.6542,-59.2851 156.46,-52.3877"/>
</g>
<!-- Node20&#45;&gt;Node11 -->
<g id="edge36" class="edge">
<title>Node20&#45;&gt;Node11</title>
<path fill="none" stroke="#191970" d="M39.6676,-102.0664C36.3988,-87.5235 35.082,-68.2851 46,-56 67.1477,-32.2042 265.4784,-18.6085 370.4785,-13.0223"/>
<polygon fill="#191970" stroke="#191970" points="36.3865,-103.3409 42.3774,-112.0793 43.1434,-101.5122 36.3865,-103.3409"/>
</g>
<!-- Node21&#45;&gt;Node11 -->
<g id="edge37" class="edge">
<title>Node21&#45;&gt;Node11</title>
<path fill="none" stroke="#191970" d="M474.7953,-104.8768C486.8938,-91.6818 498.9867,-72.8962 491,-56 483.3649,-39.8476 466.97,-27.4611 453.8824,-19.6324"/>
<polygon fill="#191970" stroke="#191970" points="471.9906,-102.735 467.441,-112.3033 476.9645,-107.6605 471.9906,-102.735"/>
</g>
<!-- Node23&#45;&gt;Node10 -->
<g id="edge38" class="edge">
<title>Node23&#45;&gt;Node10</title>
<path fill="none" stroke="#191970" d="M815.5793,-221.0388C783.6662,-210.2729 739.2508,-195.2894 712.126,-186.1389"/>
<polygon fill="#191970" stroke="#191970" points="814.8694,-224.4931 825.4636,-224.3733 817.107,-217.8603 814.8694,-224.4931"/>
</g>
<!-- Node23&#45;&gt;Node22 -->
<g id="edge39" class="edge">
<title>Node23&#45;&gt;Node22</title>
<path fill="none" stroke="#191970" d="M865.4815,-215.6296C871.3196,-206.2887 878.1752,-195.3197 882.9733,-187.6427"/>
<polygon fill="#191970" stroke="#191970" points="862.4286,-213.9105 860.0965,-224.2455 868.3646,-217.6206 862.4286,-213.9105"/>
</g>
<!-- Node24&#45;&gt;Node10 -->
<g id="edge40" class="edge">
<title>Node24&#45;&gt;Node10</title>
<path fill="none" stroke="#191970" d="M633.4297,-218.2097C646.7777,-208.3743 663.5179,-196.0394 674.9135,-187.6427"/>
<polygon fill="#191970" stroke="#191970" points="631.2126,-215.4958 625.2382,-224.2455 635.365,-221.1312 631.2126,-215.4958"/>
</g>
</g>
</svg>
