<?xml version="1.0" encoding="UTF-8" standalone="no"?>
<!DOCTYPE svg PUBLIC "-//W3C//DTD SVG 1.1//EN"
 "http://www.w3.org/Graphics/SVG/1.1/DTD/svg11.dtd">
<!-- Generated by graphviz version 2.40.1 (20161225.0304)
 -->
<!-- Title: plugins.hpp Pages: 1 -->
<svg width="269pt" height="140pt"
 viewBox="0.00 0.00 269.00 140.00" xmlns="http://www.w3.org/2000/svg" xmlns:xlink="http://www.w3.org/1999/xlink">
<g id="graph0" class="graph" transform="scale(1 1) rotate(0) translate(4 136)">
<title>plugins.hpp</title>
<polygon fill="#ffffff" stroke="transparent" points="-4,4 -4,-136 265,-136 265,4 -4,4"/>
<!-- Node0 -->
<g id="node1" class="node">
<title>Node0</title>
<polygon fill="#bfbfbf" stroke="#000000" points="94,-112.5 94,-131.5 160,-131.5 160,-112.5 94,-112.5"/>
<text text-anchor="middle" x="127" y="-119.5" font-family="Helvetica,sans-Serif" font-size="10.00" fill="#000000">plugins.hpp</text>
</g>
<!-- Node1 -->
<g id="node2" class="node">
<title>Node1</title>
<g id="a_node2"><a xlink:href="variable_8hpp.html" target="_top" xlink:title="alib/config/variable.hpp">
<polygon fill="#ffffff" stroke="#000000" points="0,-56.5 0,-75.5 116,-75.5 116,-56.5 0,-56.5"/>
<text text-anchor="middle" x="58" y="-63.5" font-family="Helvetica,sans-Serif" font-size="10.00" fill="#000000">alib/config/variable.hpp</text>
</a>
</g>
</g>
<!-- Node0&#45;&gt;Node1 -->
<g id="edge1" class="edge">
<title>Node0&#45;&gt;Node1</title>
<path fill="none" stroke="#191970" d="M114.9811,-112.2455C104.7902,-103.9746 89.9638,-91.9416 77.9893,-82.2232"/>
<polygon fill="#191970" stroke="#191970" points="79.8514,-79.2268 69.8812,-75.6427 75.4402,-84.662 79.8514,-79.2268"/>
</g>
<!-- Node3 -->
<g id="node3" class="node">
<title>Node3</title>
<g id="a_node3"><a xlink:href="substring_8hpp.html" target="_top" xlink:title="alib/strings/substring.hpp">
<polygon fill="#ffffff" stroke="#000000" points="134.5,-56.5 134.5,-75.5 259.5,-75.5 259.5,-56.5 134.5,-56.5"/>
<text text-anchor="middle" x="197" y="-63.5" font-family="Helvetica,sans-Serif" font-size="10.00" fill="#000000">alib/strings/substring.hpp</text>
</a>
</g>
</g>
<!-- Node0&#45;&gt;Node3 -->
<g id="edge2" class="edge">
<title>Node0&#45;&gt;Node3</title>
<path fill="none" stroke="#191970" d="M139.1931,-112.2455C149.6321,-103.8943 164.8655,-91.7076 177.074,-81.9408"/>
<polygon fill="#191970" stroke="#191970" points="179.3244,-84.6227 184.9467,-75.6427 174.9515,-79.1566 179.3244,-84.6227"/>
</g>
<!-- Node2 -->
<g id="node4" class="node">
<title>Node2</title>
<polygon fill="#ffffff" stroke="#bfbfbf" points="36,-.5 36,-19.5 80,-19.5 80,-.5 36,-.5"/>
<text text-anchor="middle" x="58" y="-7.5" font-family="Helvetica,sans-Serif" font-size="10.00" fill="#000000">vector</text>
</g>
<!-- Node1&#45;&gt;Node2 -->
<g id="edge3" class="edge">
<title>Node1&#45;&gt;Node2</title>
<path fill="none" stroke="#191970" d="M58,-56.2455C58,-48.9382 58,-38.6944 58,-29.7046"/>
<polygon fill="#191970" stroke="#191970" points="61.5001,-29.6426 58,-19.6427 54.5001,-29.6427 61.5001,-29.6426"/>
</g>
<!-- Node4 -->
<g id="node5" class="node">
<title>Node4</title>
<g id="a_node5"><a xlink:href="enumbitwise_8hpp.html" target="_top" xlink:title="alib/lang/enumbitwise.hpp">
<polygon fill="#ffffff" stroke="#000000" points="133,-.5 133,-19.5 261,-19.5 261,-.5 133,-.5"/>
<text text-anchor="middle" x="197" y="-7.5" font-family="Helvetica,sans-Serif" font-size="10.00" fill="#000000">alib/lang/enumbitwise.hpp</text>
</a>
</g>
</g>
<!-- Node3&#45;&gt;Node4 -->
<g id="edge4" class="edge">
<title>Node3&#45;&gt;Node4</title>
<path fill="none" stroke="#191970" d="M197,-56.2455C197,-48.9382 197,-38.6944 197,-29.7046"/>
<polygon fill="#191970" stroke="#191970" points="200.5001,-29.6426 197,-19.6427 193.5001,-29.6427 200.5001,-29.6426"/>
</g>
</g>
</svg>
