<?xml version="1.0" encoding="UTF-8" standalone="no"?>
<!DOCTYPE svg PUBLIC "-//W3C//DTD SVG 1.1//EN"
 "http://www.w3.org/Graphics/SVG/1.1/DTD/svg11.dtd">
<!-- Generated by graphviz version 2.38.0 (20140413.2041)
 -->
<!-- Title: preallocatedstring.hpp Pages: 1 -->
<svg width="1311pt" height="252pt"
 viewBox="0.00 0.00 1311.00 252.00" xmlns="http://www.w3.org/2000/svg" xmlns:xlink="http://www.w3.org/1999/xlink">
<g id="graph0" class="graph" transform="scale(1 1) rotate(0) translate(4 248)">
<title>preallocatedstring.hpp</title>
<polygon fill="white" stroke="none" points="-4,4 -4,-248 1307,-248 1307,4 -4,4"/>
<!-- Node1 -->
<g id="node1" class="node"><title>Node1</title>
<polygon fill="#bfbfbf" stroke="black" points="521.5,-224.5 521.5,-243.5 633.5,-243.5 633.5,-224.5 521.5,-224.5"/>
<text text-anchor="middle" x="577.5" y="-231.5" font-family="Helvetica,sans-Serif" font-size="10.00">preallocatedstring.hpp</text>
</g>
<!-- Node2 -->
<g id="node2" class="node"><title>Node2</title>
<g id="a_node2"><a xlink:href="alib_8hpp.html" target="_top" xlink:title="alib.hpp">
<polygon fill="white" stroke="black" points="552.5,-168.5 552.5,-187.5 602.5,-187.5 602.5,-168.5 552.5,-168.5"/>
<text text-anchor="middle" x="577.5" y="-175.5" font-family="Helvetica,sans-Serif" font-size="10.00">alib.hpp</text>
</a>
</g>
</g>
<!-- Node1&#45;&gt;Node2 -->
<g id="edge1" class="edge"><title>Node1&#45;&gt;Node2</title>
<path fill="none" stroke="midnightblue" d="M571.028,-214.101C570.396,-205.136 570.843,-194.858 572.369,-187.751"/>
<polygon fill="midnightblue" stroke="midnightblue" points="567.566,-214.622 572.334,-224.083 574.507,-213.713 567.566,-214.622"/>
</g>
<!-- Node2&#45;&gt;Node1 -->
<g id="edge2" class="edge"><title>Node2&#45;&gt;Node1</title>
<path fill="none" stroke="midnightblue" d="M583.958,-197.691C584.606,-206.635 584.176,-216.927 582.666,-224.083"/>
<polygon fill="midnightblue" stroke="midnightblue" points="587.423,-197.2 582.631,-187.751 580.485,-198.126 587.423,-197.2"/>
</g>
<!-- Node3 -->
<g id="node3" class="node"><title>Node3</title>
<g id="a_node3"><a xlink:href="enums_8hpp.html" target="_top" xlink:title="enums.hpp">
<polygon fill="white" stroke="black" points="0,-112.5 0,-131.5 65,-131.5 65,-112.5 0,-112.5"/>
<text text-anchor="middle" x="32.5" y="-119.5" font-family="Helvetica,sans-Serif" font-size="10.00">enums.hpp</text>
</a>
</g>
</g>
<!-- Node2&#45;&gt;Node3 -->
<g id="edge3" class="edge"><title>Node2&#45;&gt;Node3</title>
<path fill="none" stroke="midnightblue" d="M542.12,-175.272C459.091,-170.663 246.329,-156.717 70.5,-132 68.7723,-131.757 67.0118,-131.494 65.2405,-131.214"/>
<polygon fill="midnightblue" stroke="midnightblue" points="542.102,-178.776 552.277,-175.824 542.482,-171.786 542.102,-178.776"/>
</g>
<!-- Node4 -->
<g id="node4" class="node"><title>Node4</title>
<g id="a_node4"><a xlink:href="ownable_8hpp.html" target="_top" xlink:title="ownable.hpp">
<polygon fill="white" stroke="black" points="122,-112.5 122,-131.5 193,-131.5 193,-112.5 122,-112.5"/>
<text text-anchor="middle" x="157.5" y="-119.5" font-family="Helvetica,sans-Serif" font-size="10.00">ownable.hpp</text>
</a>
</g>
</g>
<!-- Node2&#45;&gt;Node4 -->
<g id="edge4" class="edge"><title>Node2&#45;&gt;Node4</title>
<path fill="none" stroke="midnightblue" d="M542.03,-173.675C475.321,-167.214 326.705,-151.842 202.5,-132 199.51,-131.522 196.417,-130.988 193.316,-130.425"/>
<polygon fill="midnightblue" stroke="midnightblue" points="542.102,-177.198 552.391,-174.67 542.772,-170.23 542.102,-177.198"/>
</g>
<!-- Node5 -->
<g id="node5" class="node"><title>Node5</title>
<g id="a_node5"><a xlink:href="threadlock_8hpp.html" target="_top" xlink:title="threadlock.hpp">
<polygon fill="white" stroke="red" points="117.5,-56.5 117.5,-75.5 197.5,-75.5 197.5,-56.5 117.5,-56.5"/>
<text text-anchor="middle" x="157.5" y="-63.5" font-family="Helvetica,sans-Serif" font-size="10.00">threadlock.hpp</text>
</a>
</g>
</g>
<!-- Node2&#45;&gt;Node5 -->
<g id="edge5" class="edge"><title>Node2&#45;&gt;Node5</title>
<path fill="none" stroke="midnightblue" d="M542.16,-176.255C438.591,-173.709 141.263,-163.681 112.5,-132 95.7089,-113.505 125.537,-88.4548 144.185,-75.5177"/>
<polygon fill="midnightblue" stroke="midnightblue" points="542.327,-179.76 552.407,-176.498 542.493,-172.762 542.327,-179.76"/>
</g>
<!-- Node6 -->
<g id="node6" class="node"><title>Node6</title>
<g id="a_node6"><a xlink:href="report_8hpp.html" target="_top" xlink:title="report.hpp">
<polygon fill="white" stroke="black" points="211.5,-112.5 211.5,-131.5 271.5,-131.5 271.5,-112.5 211.5,-112.5"/>
<text text-anchor="middle" x="241.5" y="-119.5" font-family="Helvetica,sans-Serif" font-size="10.00">report.hpp</text>
</a>
</g>
</g>
<!-- Node2&#45;&gt;Node6 -->
<g id="edge6" class="edge"><title>Node2&#45;&gt;Node6</title>
<path fill="none" stroke="midnightblue" d="M542.266,-173.24C484.91,-166.315 368.673,-150.546 271.5,-132 270.681,-131.844 269.853,-131.682 269.02,-131.516"/>
<polygon fill="midnightblue" stroke="midnightblue" points="541.929,-176.724 552.273,-174.428 542.755,-169.773 541.929,-176.724"/>
</g>
<!-- Node7 -->
<g id="node7" class="node"><title>Node7</title>
<g id="a_node7"><a xlink:href="util_8hpp.html" target="_top" xlink:title="util.hpp">
<polygon fill="white" stroke="black" points="289.5,-112.5 289.5,-131.5 337.5,-131.5 337.5,-112.5 289.5,-112.5"/>
<text text-anchor="middle" x="313.5" y="-119.5" font-family="Helvetica,sans-Serif" font-size="10.00">util.hpp</text>
</a>
</g>
</g>
<!-- Node2&#45;&gt;Node7 -->
<g id="edge7" class="edge"><title>Node2&#45;&gt;Node7</title>
<path fill="none" stroke="midnightblue" d="M542.489,-171.011C497.085,-163.053 415.527,-148.113 346.5,-132 343.609,-131.325 340.588,-130.57 337.598,-129.793"/>
<polygon fill="midnightblue" stroke="midnightblue" points="541.965,-174.472 552.418,-172.74 543.167,-167.576 541.965,-174.472"/>
</g>
<!-- Node8 -->
<g id="node8" class="node"><title>Node8</title>
<g id="a_node8"><a xlink:href="applyformat_8hpp.html" target="_top" xlink:title="applyformat.hpp">
<polygon fill="white" stroke="black" points="355.5,-112.5 355.5,-131.5 441.5,-131.5 441.5,-112.5 355.5,-112.5"/>
<text text-anchor="middle" x="398.5" y="-119.5" font-family="Helvetica,sans-Serif" font-size="10.00">applyformat.hpp</text>
</a>
</g>
</g>
<!-- Node2&#45;&gt;Node8 -->
<g id="edge8" class="edge"><title>Node2&#45;&gt;Node8</title>
<path fill="none" stroke="midnightblue" d="M542.458,-167.993C506.681,-157.84 452.406,-141.456 421.633,-131.511"/>
<polygon fill="midnightblue" stroke="midnightblue" points="541.899,-171.471 552.472,-170.806 543.791,-164.732 541.899,-171.471"/>
</g>
<!-- Node9 -->
<g id="node9" class="node"><title>Node9</title>
<g id="a_node9"><a xlink:href="applyto_8hpp.html" target="_top" xlink:title="applyto.hpp">
<polygon fill="white" stroke="black" points="460,-112.5 460,-131.5 527,-131.5 527,-112.5 460,-112.5"/>
<text text-anchor="middle" x="493.5" y="-119.5" font-family="Helvetica,sans-Serif" font-size="10.00">applyto.hpp</text>
</a>
</g>
</g>
<!-- Node2&#45;&gt;Node9 -->
<g id="edge9" class="edge"><title>Node2&#45;&gt;Node9</title>
<path fill="none" stroke="midnightblue" d="M550.075,-163.21C533.459,-153.339 513.517,-140.342 502.093,-131.834"/>
<polygon fill="midnightblue" stroke="midnightblue" points="548.483,-166.333 558.889,-168.324 551.996,-160.278 548.483,-166.333"/>
</g>
<!-- Node10 -->
<g id="node10" class="node"><title>Node10</title>
<g id="a_node10"><a xlink:href="astring_8hpp.html" target="_top" xlink:title="astring.hpp">
<polygon fill="white" stroke="black" points="545,-112.5 545,-131.5 610,-131.5 610,-112.5 545,-112.5"/>
<text text-anchor="middle" x="577.5" y="-119.5" font-family="Helvetica,sans-Serif" font-size="10.00">astring.hpp</text>
</a>
</g>
</g>
<!-- Node2&#45;&gt;Node10 -->
<g id="edge10" class="edge"><title>Node2&#45;&gt;Node10</title>
<path fill="none" stroke="midnightblue" d="M571.028,-158.101C570.396,-149.136 570.843,-138.858 572.369,-131.751"/>
<polygon fill="midnightblue" stroke="midnightblue" points="567.566,-158.622 572.334,-168.083 574.507,-157.713 567.566,-158.622"/>
</g>
<!-- Node11 -->
<g id="node11" class="node"><title>Node11</title>
<g id="a_node11"><a xlink:href="cstring_8hpp.html" target="_top" xlink:title="cstring.hpp">
<polygon fill="white" stroke="black" points="628,-112.5 628,-131.5 693,-131.5 693,-112.5 628,-112.5"/>
<text text-anchor="middle" x="660.5" y="-119.5" font-family="Helvetica,sans-Serif" font-size="10.00">cstring.hpp</text>
</a>
</g>
</g>
<!-- Node2&#45;&gt;Node11 -->
<g id="edge11" class="edge"><title>Node2&#45;&gt;Node11</title>
<path fill="none" stroke="midnightblue" d="M593.95,-162.342C607.906,-152.517 627.601,-139.913 642.088,-131.655"/>
<polygon fill="midnightblue" stroke="midnightblue" points="591.752,-159.613 585.721,-168.324 595.867,-165.276 591.752,-159.613"/>
</g>
<!-- Node12 -->
<g id="node12" class="node"><title>Node12</title>
<g id="a_node12"><a xlink:href="string_8hpp.html" target="_top" xlink:title="string.hpp">
<polygon fill="white" stroke="black" points="711,-112.5 711,-131.5 770,-131.5 770,-112.5 711,-112.5"/>
<text text-anchor="middle" x="740.5" y="-119.5" font-family="Helvetica,sans-Serif" font-size="10.00">string.hpp</text>
</a>
</g>
</g>
<!-- Node2&#45;&gt;Node12 -->
<g id="edge12" class="edge"><title>Node2&#45;&gt;Node12</title>
<path fill="none" stroke="midnightblue" d="M608.009,-164.997C637.496,-154.705 681.655,-140.156 710.859,-131.163"/>
<polygon fill="midnightblue" stroke="midnightblue" points="606.505,-161.816 598.239,-168.444 608.834,-168.417 606.505,-161.816"/>
</g>
<!-- Node13 -->
<g id="node13" class="node"><title>Node13</title>
<g id="a_node13"><a xlink:href="stringliteral_8hpp.html" target="_top" xlink:title="stringliteral.hpp">
<polygon fill="white" stroke="black" points="788,-112.5 788,-131.5 871,-131.5 871,-112.5 788,-112.5"/>
<text text-anchor="middle" x="829.5" y="-119.5" font-family="Helvetica,sans-Serif" font-size="10.00">stringliteral.hpp</text>
</a>
</g>
</g>
<!-- Node2&#45;&gt;Node13 -->
<g id="edge13" class="edge"><title>Node2&#45;&gt;Node13</title>
<path fill="none" stroke="midnightblue" d="M612.659,-168.372C658.634,-158.038 738.787,-140.875 787.776,-130.883"/>
<polygon fill="midnightblue" stroke="midnightblue" points="611.824,-164.973 602.843,-170.593 613.369,-171.8 611.824,-164.973"/>
</g>
<!-- Node14 -->
<g id="node14" class="node"><title>Node14</title>
<g id="a_node14"><a xlink:href="substring_8hpp.html" target="_top" xlink:title="substring.hpp">
<polygon fill="white" stroke="black" points="1050,-112.5 1050,-131.5 1125,-131.5 1125,-112.5 1050,-112.5"/>
<text text-anchor="middle" x="1087.5" y="-119.5" font-family="Helvetica,sans-Serif" font-size="10.00">substring.hpp</text>
</a>
</g>
</g>
<!-- Node2&#45;&gt;Node14 -->
<g id="edge14" class="edge"><title>Node2&#45;&gt;Node14</title>
<path fill="none" stroke="midnightblue" d="M612.883,-174.681C690.551,-169.344 881.702,-154.871 1040.5,-132 1043.54,-131.562 1046.69,-131.062 1049.84,-130.528"/>
<polygon fill="midnightblue" stroke="midnightblue" points="612.432,-171.203 602.692,-175.373 612.906,-178.187 612.432,-171.203"/>
</g>
<!-- Node20 -->
<g id="node15" class="node"><title>Node20</title>
<g id="a_node15"><a xlink:href="tstring_8hpp.html" target="_top" xlink:title="tstring.hpp">
<polygon fill="white" stroke="black" points="969.5,-112.5 969.5,-131.5 1031.5,-131.5 1031.5,-112.5 969.5,-112.5"/>
<text text-anchor="middle" x="1000.5" y="-119.5" font-family="Helvetica,sans-Serif" font-size="10.00">tstring.hpp</text>
</a>
</g>
</g>
<!-- Node2&#45;&gt;Node20 -->
<g id="edge15" class="edge"><title>Node2&#45;&gt;Node20</title>
<path fill="none" stroke="midnightblue" d="M612.574,-173.641C679.119,-167.516 827.465,-153.181 951.5,-132 957.254,-131.017 963.425,-129.741 969.453,-128.46"/>
<polygon fill="midnightblue" stroke="midnightblue" points="612.252,-170.156 602.612,-174.553 612.89,-177.127 612.252,-170.156"/>
</g>
<!-- Node21 -->
<g id="node16" class="node"><title>Node21</title>
<g id="a_node16"><a xlink:href="thread_8hpp.html" target="_top" xlink:title="thread.hpp">
<polygon fill="white" stroke="black" points="889.5,-112.5 889.5,-131.5 951.5,-131.5 951.5,-112.5 889.5,-112.5"/>
<text text-anchor="middle" x="920.5" y="-119.5" font-family="Helvetica,sans-Serif" font-size="10.00">thread.hpp</text>
</a>
</g>
</g>
<!-- Node2&#45;&gt;Node21 -->
<g id="edge16" class="edge"><title>Node2&#45;&gt;Node21</title>
<path fill="none" stroke="midnightblue" d="M612.842,-172.529C669.363,-165.2 783.504,-149.667 879.5,-132 882.654,-131.42 885.934,-130.773 889.205,-130.1"/>
<polygon fill="midnightblue" stroke="midnightblue" points="612.123,-169.092 602.653,-173.842 613.018,-176.035 612.123,-169.092"/>
</g>
<!-- Node22 -->
<g id="node17" class="node"><title>Node22</title>
<g id="a_node17"><a xlink:href="alox_8hpp.html" target="_top" xlink:title="alox.hpp">
<polygon fill="white" stroke="red" points="1250,-56.5 1250,-75.5 1303,-75.5 1303,-56.5 1250,-56.5"/>
<text text-anchor="middle" x="1276.5" y="-63.5" font-family="Helvetica,sans-Serif" font-size="10.00">alox.hpp</text>
</a>
</g>
</g>
<!-- Node2&#45;&gt;Node22 -->
<g id="edge17" class="edge"><title>Node2&#45;&gt;Node22</title>
<path fill="none" stroke="midnightblue" d="M612.729,-175.737C718.852,-171.681 1034.26,-157.731 1133.5,-132 1183.13,-119.132 1236.99,-90.1092 1262.1,-75.5985"/>
<polygon fill="midnightblue" stroke="midnightblue" points="612.415,-172.246 602.553,-176.12 612.678,-179.241 612.415,-172.246"/>
</g>
<!-- Node3&#45;&gt;Node2 -->
<g id="edge18" class="edge"><title>Node3&#45;&gt;Node2</title>
<path fill="none" stroke="midnightblue" d="M75.0867,-129.864C79.6376,-130.653 84.1718,-131.392 88.5,-132 265.374,-156.864 479.621,-170.829 552.242,-175.353"/>
<polygon fill="midnightblue" stroke="midnightblue" points="75.632,-126.406 65.1711,-128.085 74.396,-133.296 75.632,-126.406"/>
</g>
<!-- Node4&#45;&gt;Node5 -->
<g id="edge19" class="edge"><title>Node4&#45;&gt;Node5</title>
<path fill="none" stroke="midnightblue" d="M157.5,-101.805C157.5,-92.9102 157.5,-82.7798 157.5,-75.7511"/>
<polygon fill="midnightblue" stroke="midnightblue" points="154,-102.083 157.5,-112.083 161,-102.083 154,-102.083"/>
</g>
<!-- Node6&#45;&gt;Node2 -->
<g id="edge20" class="edge"><title>Node6&#45;&gt;Node2</title>
<path fill="none" stroke="midnightblue" d="M281.492,-130.384C284.214,-130.957 286.902,-131.504 289.5,-132 386.318,-150.478 502.061,-166.2 552.391,-173.163"/>
<polygon fill="midnightblue" stroke="midnightblue" points="282.089,-126.933 271.576,-128.247 280.614,-133.776 282.089,-126.933"/>
</g>
<!-- Node8&#45;&gt;Node2 -->
<g id="edge21" class="edge"><title>Node8&#45;&gt;Node2</title>
<path fill="none" stroke="midnightblue" d="M441.874,-134.388C477.259,-144.562 525.738,-159.241 554.226,-168.444"/>
<polygon fill="midnightblue" stroke="midnightblue" points="442.387,-130.895 431.81,-131.516 440.466,-137.626 442.387,-130.895"/>
</g>
<!-- Node9&#45;&gt;Node2 -->
<g id="edge22" class="edge"><title>Node9&#45;&gt;Node2</title>
<path fill="none" stroke="midnightblue" d="M520.937,-136.797C537.654,-146.729 557.734,-159.822 569.119,-168.324"/>
<polygon fill="midnightblue" stroke="midnightblue" points="522.479,-133.646 512.073,-131.655 518.966,-139.7 522.479,-133.646"/>
</g>
<!-- Node10&#45;&gt;Node2 -->
<g id="edge23" class="edge"><title>Node10&#45;&gt;Node2</title>
<path fill="none" stroke="midnightblue" d="M583.958,-141.691C584.606,-150.635 584.176,-160.927 582.666,-168.083"/>
<polygon fill="midnightblue" stroke="midnightblue" points="587.423,-141.2 582.631,-131.751 580.485,-142.126 587.423,-141.2"/>
</g>
<!-- Node11&#45;&gt;Node2 -->
<g id="edge24" class="edge"><title>Node11&#45;&gt;Node2</title>
<path fill="none" stroke="midnightblue" d="M643.838,-137.807C629.908,-147.602 610.36,-160.107 595.95,-168.324"/>
<polygon fill="midnightblue" stroke="midnightblue" points="646.032,-140.539 652.071,-131.834 641.921,-134.873 646.032,-140.539"/>
</g>
<!-- Node12&#45;&gt;Node2 -->
<g id="edge25" class="edge"><title>Node12&#45;&gt;Node2</title>
<path fill="none" stroke="midnightblue" d="M710.312,-134.891C679.335,-145.71 631.929,-161.3 602.817,-170.161"/>
<polygon fill="midnightblue" stroke="midnightblue" points="711.483,-138.19 719.748,-131.561 709.153,-131.589 711.483,-138.19"/>
</g>
<!-- Node13&#45;&gt;Node2 -->
<g id="edge26" class="edge"><title>Node13&#45;&gt;Node2</title>
<path fill="none" stroke="midnightblue" d="M784.973,-133.723C732.04,-145.507 645.741,-163.89 602.965,-172.396"/>
<polygon fill="midnightblue" stroke="midnightblue" points="785.776,-137.13 794.77,-131.531 784.248,-130.299 785.776,-137.13"/>
</g>
<!-- Node15 -->
<g id="node18" class="node"><title>Node15</title>
<g id="a_node18"><a xlink:href="inifile_8hpp.html" target="_top" xlink:title="inifile.hpp">
<polygon fill="white" stroke="black" points="915.5,-56.5 915.5,-75.5 973.5,-75.5 973.5,-56.5 915.5,-56.5"/>
<text text-anchor="middle" x="944.5" y="-63.5" font-family="Helvetica,sans-Serif" font-size="10.00">inifile.hpp</text>
</a>
</g>
</g>
<!-- Node14&#45;&gt;Node15 -->
<g id="edge27" class="edge"><title>Node14&#45;&gt;Node15</title>
<path fill="none" stroke="midnightblue" d="M1055.47,-108.906C1028.59,-98.7536 990.859,-84.5063 967.053,-75.5164"/>
<polygon fill="midnightblue" stroke="midnightblue" points="1054.25,-112.185 1064.84,-112.444 1056.72,-105.636 1054.25,-112.185"/>
</g>
<!-- Node16 -->
<g id="node19" class="node"><title>Node16</title>
<g id="a_node19"><a xlink:href="pathmap_8hpp.html" target="_top" xlink:title="pathmap.hpp">
<polygon fill="white" stroke="black" points="992,-56.5 992,-75.5 1065,-75.5 1065,-56.5 992,-56.5"/>
<text text-anchor="middle" x="1028.5" y="-63.5" font-family="Helvetica,sans-Serif" font-size="10.00">pathmap.hpp</text>
</a>
</g>
</g>
<!-- Node14&#45;&gt;Node16 -->
<g id="edge28" class="edge"><title>Node14&#45;&gt;Node16</title>
<path fill="none" stroke="midnightblue" d="M1070.61,-105.537C1060.09,-95.9087 1046.93,-83.8694 1038.15,-75.8339"/>
<polygon fill="midnightblue" stroke="midnightblue" points="1068.28,-108.154 1078.02,-112.324 1073.01,-102.99 1068.28,-108.154"/>
</g>
<!-- Node17 -->
<g id="node20" class="node"><title>Node17</title>
<g id="a_node20"><a xlink:href="tokenizer_8hpp.html" target="_top" xlink:title="tokenizer.hpp">
<polygon fill="white" stroke="black" points="1083,-56.5 1083,-75.5 1158,-75.5 1158,-56.5 1083,-56.5"/>
<text text-anchor="middle" x="1120.5" y="-63.5" font-family="Helvetica,sans-Serif" font-size="10.00">tokenizer.hpp</text>
</a>
</g>
</g>
<!-- Node14&#45;&gt;Node17 -->
<g id="edge29" class="edge"><title>Node14&#45;&gt;Node17</title>
<path fill="none" stroke="midnightblue" d="M1098.33,-103.275C1103.97,-94.0454 1110.62,-83.1703 1115.15,-75.7511"/>
<polygon fill="midnightblue" stroke="midnightblue" points="1095.18,-101.725 1092.95,-112.083 1101.15,-105.375 1095.18,-101.725"/>
</g>
<!-- Node18 -->
<g id="node21" class="node"><title>Node18</title>
<g id="a_node21"><a xlink:href="ticks_8hpp.html" target="_top" xlink:title="ticks.hpp">
<polygon fill="white" stroke="black" points="1175.5,-56.5 1175.5,-75.5 1231.5,-75.5 1231.5,-56.5 1175.5,-56.5"/>
<text text-anchor="middle" x="1203.5" y="-63.5" font-family="Helvetica,sans-Serif" font-size="10.00">ticks.hpp</text>
</a>
</g>
</g>
<!-- Node14&#45;&gt;Node18 -->
<g id="edge30" class="edge"><title>Node14&#45;&gt;Node18</title>
<path fill="none" stroke="midnightblue" d="M1115.22,-108.096C1136.89,-98.0073 1166.4,-84.2697 1185.21,-75.5164"/>
<polygon fill="midnightblue" stroke="midnightblue" points="1113.47,-105.05 1105.88,-112.444 1116.42,-111.396 1113.47,-105.05"/>
</g>
<!-- Node20&#45;&gt;Node2 -->
<g id="edge32" class="edge"><title>Node20&#45;&gt;Node2</title>
<path fill="none" stroke="midnightblue" d="M962.175,-133.216C824.457,-156.141 663.716,-170.61 602.54,-175.319"/>
<polygon fill="midnightblue" stroke="midnightblue" points="962.77,-136.665 972.049,-131.551 961.606,-129.762 962.77,-136.665"/>
</g>
<!-- Node21&#45;&gt;Node5 -->
<g id="edge33" class="edge"><title>Node21&#45;&gt;Node5</title>
<path fill="none" stroke="midnightblue" d="M879.028,-112.198C613.478,-75.6707 305.974,-68.7206 197.635,-67.341"/>
<polygon fill="midnightblue" stroke="midnightblue" points="878.863,-115.708 889.25,-113.621 879.829,-108.775 878.863,-115.708"/>
</g>
<!-- Node19 -->
<g id="node22" class="node"><title>Node19</title>
<g id="a_node22"><a xlink:href="scopeinfo_8hpp.html" target="_top" xlink:title="scopeinfo.hpp">
<polygon fill="white" stroke="red" points="1165,-0.5 1165,-19.5 1242,-19.5 1242,-0.5 1165,-0.5"/>
<text text-anchor="middle" x="1203.5" y="-7.5" font-family="Helvetica,sans-Serif" font-size="10.00">scopeinfo.hpp</text>
</a>
</g>
</g>
<!-- Node21&#45;&gt;Node19 -->
<g id="edge34" class="edge"><title>Node21&#45;&gt;Node19</title>
<path fill="none" stroke="midnightblue" d="M909.405,-103.405C901.913,-89.0546 895.248,-69.0851 906.5,-56 939.397,-17.743 1092.25,-11.6103 1164.92,-10.8961"/>
<polygon fill="midnightblue" stroke="midnightblue" points="906.495,-105.365 914.514,-112.289 912.563,-101.876 906.495,-105.365"/>
</g>
<!-- Node22&#45;&gt;Node19 -->
<g id="edge35" class="edge"><title>Node22&#45;&gt;Node19</title>
<path fill="none" stroke="midnightblue" d="M1256.36,-50.1008C1243.22,-40.3824 1226.52,-28.0269 1215.44,-19.8339"/>
<polygon fill="midnightblue" stroke="midnightblue" points="1254.65,-53.1907 1264.77,-56.324 1258.81,-47.5631 1254.65,-53.1907"/>
</g>
<!-- Node18&#45;&gt;Node19 -->
<g id="edge31" class="edge"><title>Node18&#45;&gt;Node19</title>
<path fill="none" stroke="midnightblue" d="M1203.5,-45.8045C1203.5,-36.9102 1203.5,-26.7798 1203.5,-19.7511"/>
<polygon fill="midnightblue" stroke="midnightblue" points="1200,-46.083 1203.5,-56.083 1207,-46.083 1200,-46.083"/>
</g>
</g>
</svg>
