<?xml version="1.0" encoding="UTF-8" standalone="no"?>
<!DOCTYPE svg PUBLIC "-//W3C//DTD SVG 1.1//EN"
 "http://www.w3.org/Graphics/SVG/1.1/DTD/svg11.dtd">
<!-- Generated by graphviz version 2.38.0 (20140413.2041)
 -->
<!-- Title: report.hpp Pages: 1 -->
<svg width="2000pt" height="196pt"
 viewBox="0.00 0.00 1999.50 196.00" xmlns="http://www.w3.org/2000/svg" xmlns:xlink="http://www.w3.org/1999/xlink">
<g id="graph0" class="graph" transform="scale(1 1) rotate(0) translate(4 192)">
<title>report.hpp</title>
<polygon fill="white" stroke="none" points="-4,4 -4,-192 1995.5,-192 1995.5,4 -4,4"/>
<!-- Node1 -->
<g id="node1" class="node"><title>Node1</title>
<polygon fill="#bfbfbf" stroke="black" points="1020,-168.5 1020,-187.5 1080,-187.5 1080,-168.5 1020,-168.5"/>
<text text-anchor="middle" x="1050" y="-175.5" font-family="Helvetica,sans-Serif" font-size="10.00">report.hpp</text>
</g>
<!-- Node2 -->
<g id="node2" class="node"><title>Node2</title>
<g id="a_node2"><a xlink:href="alib_8hpp.html" target="_top" xlink:title="alib/alib.hpp">
<polygon fill="white" stroke="black" points="1016,-112.5 1016,-131.5 1084,-131.5 1084,-112.5 1016,-112.5"/>
<text text-anchor="middle" x="1050" y="-119.5" font-family="Helvetica,sans-Serif" font-size="10.00">alib/alib.hpp</text>
</a>
</g>
</g>
<!-- Node1&#45;&gt;Node2 -->
<g id="edge1" class="edge"><title>Node1&#45;&gt;Node2</title>
<path fill="none" stroke="midnightblue" d="M1044.83,-168.083C1043.32,-160.927 1042.89,-150.635 1043.54,-141.691"/>
<polygon fill="midnightblue" stroke="midnightblue" points="1047.02,-142.126 1044.87,-131.751 1040.08,-141.2 1047.02,-142.126"/>
</g>
<!-- Node2&#45;&gt;Node1 -->
<g id="edge2" class="edge"><title>Node2&#45;&gt;Node1</title>
<path fill="none" stroke="midnightblue" d="M1055.13,-131.751C1056.66,-138.858 1057.1,-149.136 1056.47,-158.101"/>
<polygon fill="midnightblue" stroke="midnightblue" points="1052.99,-157.713 1055.17,-168.083 1059.93,-158.622 1052.99,-157.713"/>
</g>
<!-- Node3 -->
<g id="node3" class="node"><title>Node3</title>
<g id="a_node3"><a xlink:href="symbols_8hpp.html" target="_top" xlink:title="alib/core/symbols.hpp">
<polygon fill="white" stroke="black" points="0,-56.5 0,-75.5 112,-75.5 112,-56.5 0,-56.5"/>
<text text-anchor="middle" x="56" y="-63.5" font-family="Helvetica,sans-Serif" font-size="10.00">alib/core/symbols.hpp</text>
</a>
</g>
</g>
<!-- Node2&#45;&gt;Node3 -->
<g id="edge3" class="edge"><title>Node2&#45;&gt;Node3</title>
<path fill="none" stroke="midnightblue" d="M1015.72,-120.471C894.811,-118.367 476.885,-109.076 122.364,-76.1491"/>
<polygon fill="midnightblue" stroke="midnightblue" points="122.441,-72.641 112.158,-75.193 121.788,-79.6105 122.441,-72.641"/>
</g>
<!-- Node4 -->
<g id="node4" class="node"><title>Node4</title>
<g id="a_node4"><a xlink:href="macros_8hpp.html" target="_top" xlink:title="alib/core/macros.hpp">
<polygon fill="white" stroke="black" points="129.5,-56.5 129.5,-75.5 236.5,-75.5 236.5,-56.5 129.5,-56.5"/>
<text text-anchor="middle" x="183" y="-63.5" font-family="Helvetica,sans-Serif" font-size="10.00">alib/core/macros.hpp</text>
</a>
</g>
</g>
<!-- Node2&#45;&gt;Node4 -->
<g id="edge4" class="edge"><title>Node2&#45;&gt;Node4</title>
<path fill="none" stroke="midnightblue" d="M1015.83,-120.139C905.919,-117.146 551.45,-105.767 246.935,-75.9952"/>
<polygon fill="midnightblue" stroke="midnightblue" points="246.874,-72.4723 236.578,-74.9736 246.186,-79.4385 246.874,-72.4723"/>
</g>
<!-- Node5 -->
<g id="node5" class="node"><title>Node5</title>
<polygon fill="white" stroke="#bfbfbf" points="255,-56.5 255,-75.5 307,-75.5 307,-56.5 255,-56.5"/>
<text text-anchor="middle" x="281" y="-63.5" font-family="Helvetica,sans-Serif" font-size="10.00">assert.h</text>
</g>
<!-- Node2&#45;&gt;Node5 -->
<g id="edge5" class="edge"><title>Node2&#45;&gt;Node5</title>
<path fill="none" stroke="midnightblue" d="M1015.73,-121.207C911.785,-121.349 591,-118.204 317.383,-75.9108"/>
<polygon fill="midnightblue" stroke="midnightblue" points="317.682,-72.415 307.261,-74.3248 316.599,-79.3307 317.682,-72.415"/>
</g>
<!-- Node6 -->
<g id="node6" class="node"><title>Node6</title>
<polygon fill="white" stroke="#bfbfbf" points="325.5,-56.5 325.5,-75.5 374.5,-75.5 374.5,-56.5 325.5,-56.5"/>
<text text-anchor="middle" x="350" y="-63.5" font-family="Helvetica,sans-Serif" font-size="10.00">cstddef</text>
</g>
<!-- Node2&#45;&gt;Node6 -->
<g id="edge6" class="edge"><title>Node2&#45;&gt;Node6</title>
<path fill="none" stroke="midnightblue" d="M1015.71,-121.081C918.156,-120.807 630.778,-116.492 384.947,-76.0209"/>
<polygon fill="midnightblue" stroke="midnightblue" points="385.189,-72.5129 374.748,-74.3171 384.035,-79.4172 385.189,-72.5129"/>
</g>
<!-- Node7 -->
<g id="node7" class="node"><title>Node7</title>
<polygon fill="white" stroke="#bfbfbf" points="392.5,-56.5 392.5,-75.5 455.5,-75.5 455.5,-56.5 392.5,-56.5"/>
<text text-anchor="middle" x="424" y="-63.5" font-family="Helvetica,sans-Serif" font-size="10.00">windows.h</text>
</g>
<!-- Node2&#45;&gt;Node7 -->
<g id="edge7" class="edge"><title>Node2&#45;&gt;Node7</title>
<path fill="none" stroke="midnightblue" d="M1015.79,-120.101C926.673,-117.393 679.988,-107.551 465.965,-76.1044"/>
<polygon fill="midnightblue" stroke="midnightblue" points="466.205,-72.6017 455.798,-74.5906 465.174,-79.5253 466.205,-72.6017"/>
</g>
<!-- Node8 -->
<g id="node8" class="node"><title>Node8</title>
<polygon fill="white" stroke="#bfbfbf" points="473.5,-56.5 473.5,-75.5 522.5,-75.5 522.5,-56.5 473.5,-56.5"/>
<text text-anchor="middle" x="498" y="-63.5" font-family="Helvetica,sans-Serif" font-size="10.00">stdint.h</text>
</g>
<!-- Node2&#45;&gt;Node8 -->
<g id="edge8" class="edge"><title>Node2&#45;&gt;Node8</title>
<path fill="none" stroke="midnightblue" d="M1015.8,-120.062C933.93,-117.384 720.211,-107.836 532.806,-75.8249"/>
<polygon fill="midnightblue" stroke="midnightblue" points="533.224,-72.3451 522.773,-74.0849 532.028,-79.2422 533.224,-72.3451"/>
</g>
<!-- Node9 -->
<g id="node9" class="node"><title>Node9</title>
<polygon fill="white" stroke="#bfbfbf" points="541,-56.5 541,-75.5 603,-75.5 603,-56.5 541,-56.5"/>
<text text-anchor="middle" x="572" y="-63.5" font-family="Helvetica,sans-Serif" font-size="10.00">type_traits</text>
</g>
<!-- Node2&#45;&gt;Node9 -->
<g id="edge9" class="edge"><title>Node2&#45;&gt;Node9</title>
<path fill="none" stroke="midnightblue" d="M1015.74,-118.873C943.291,-114.076 769.076,-100.969 613.587,-76.0857"/>
<polygon fill="midnightblue" stroke="midnightblue" points="613.805,-72.5754 603.374,-74.4296 612.685,-79.4851 613.805,-72.5754"/>
</g>
<!-- Node10 -->
<g id="node10" class="node"><title>Node10</title>
<polygon fill="white" stroke="#bfbfbf" points="621,-56.5 621,-75.5 661,-75.5 661,-56.5 621,-56.5"/>
<text text-anchor="middle" x="641" y="-63.5" font-family="Helvetica,sans-Serif" font-size="10.00">utility</text>
</g>
<!-- Node2&#45;&gt;Node10 -->
<g id="edge10" class="edge"><title>Node2&#45;&gt;Node10</title>
<path fill="none" stroke="midnightblue" d="M1015.97,-118.943C949.221,-114.475 796.697,-102.111 671,-76 670.9,-75.9793 670.8,-75.9583 670.7,-75.9373"/>
<polygon fill="midnightblue" stroke="midnightblue" points="671.76,-72.5942 661.211,-73.5817 670.073,-79.388 671.76,-72.5942"/>
</g>
<!-- Node11 -->
<g id="node11" class="node"><title>Node11</title>
<polygon fill="white" stroke="#bfbfbf" points="679.5,-56.5 679.5,-75.5 720.5,-75.5 720.5,-56.5 679.5,-56.5"/>
<text text-anchor="middle" x="700" y="-63.5" font-family="Helvetica,sans-Serif" font-size="10.00">stack</text>
</g>
<!-- Node2&#45;&gt;Node11 -->
<g id="edge11" class="edge"><title>Node2&#45;&gt;Node11</title>
<path fill="none" stroke="midnightblue" d="M1015.6,-117.892C958.379,-112.349 839.96,-99.297 730.439,-75.7714"/>
<polygon fill="midnightblue" stroke="midnightblue" points="731.065,-72.3258 720.549,-73.6127 729.573,-79.1648 731.065,-72.3258"/>
</g>
<!-- Node12 -->
<g id="node12" class="node"><title>Node12</title>
<g id="a_node12"><a xlink:href="enums_8hpp.html" target="_top" xlink:title="alib/core/enums.hpp">
<polygon fill="white" stroke="black" points="739,-56.5 739,-75.5 843,-75.5 843,-56.5 739,-56.5"/>
<text text-anchor="middle" x="791" y="-63.5" font-family="Helvetica,sans-Serif" font-size="10.00">alib/core/enums.hpp</text>
</a>
</g>
</g>
<!-- Node2&#45;&gt;Node12 -->
<g id="edge12" class="edge"><title>Node2&#45;&gt;Node12</title>
<path fill="none" stroke="midnightblue" d="M1015.8,-114.806C969.697,-105.741 887.817,-88.7396 836.564,-77.6466"/>
<polygon fill="midnightblue" stroke="midnightblue" points="837.257,-74.2155 826.742,-75.5108 835.77,-81.0557 837.257,-74.2155"/>
</g>
<!-- Node13 -->
<g id="node13" class="node"><title>Node13</title>
<g id="a_node13"><a xlink:href="cstring_8hpp.html" target="_top" xlink:title="alib/strings/cstring.hpp">
<polygon fill="white" stroke="black" points="861.5,-56.5 861.5,-75.5 976.5,-75.5 976.5,-56.5 861.5,-56.5"/>
<text text-anchor="middle" x="919" y="-63.5" font-family="Helvetica,sans-Serif" font-size="10.00">alib/strings/cstring.hpp</text>
</a>
</g>
</g>
<!-- Node2&#45;&gt;Node13 -->
<g id="edge13" class="edge"><title>Node2&#45;&gt;Node13</title>
<path fill="none" stroke="midnightblue" d="M1024.15,-112.444C1000.75,-103.596 966.768,-89.6875 943.724,-79.5865"/>
<polygon fill="midnightblue" stroke="midnightblue" points="945.139,-76.3854 934.58,-75.5164 942.293,-82.7805 945.139,-76.3854"/>
</g>
<!-- Node16 -->
<g id="node14" class="node"><title>Node16</title>
<g id="a_node14"><a xlink:href="string_8hpp.html" target="_top" xlink:title="alib/strings/string.hpp">
<polygon fill="white" stroke="black" points="995,-56.5 995,-75.5 1105,-75.5 1105,-56.5 995,-56.5"/>
<text text-anchor="middle" x="1050" y="-63.5" font-family="Helvetica,sans-Serif" font-size="10.00">alib/strings/string.hpp</text>
</a>
</g>
</g>
<!-- Node2&#45;&gt;Node16 -->
<g id="edge14" class="edge"><title>Node2&#45;&gt;Node16</title>
<path fill="none" stroke="midnightblue" d="M1044.83,-112.083C1043.32,-104.927 1042.89,-94.6353 1043.54,-85.6911"/>
<polygon fill="midnightblue" stroke="midnightblue" points="1047.02,-86.1262 1044.87,-75.7511 1040.08,-85.2002 1047.02,-86.1262"/>
</g>
<!-- Node19 -->
<g id="node15" class="node"><title>Node19</title>
<g id="a_node15"><a xlink:href="tstring_8hpp.html" target="_top" xlink:title="alib/strings/tstring.hpp">
<polygon fill="white" stroke="black" points="1429.5,-56.5 1429.5,-75.5 1542.5,-75.5 1542.5,-56.5 1429.5,-56.5"/>
<text text-anchor="middle" x="1486" y="-63.5" font-family="Helvetica,sans-Serif" font-size="10.00">alib/strings/tstring.hpp</text>
</a>
</g>
</g>
<!-- Node2&#45;&gt;Node19 -->
<g id="edge15" class="edge"><title>Node2&#45;&gt;Node19</title>
<path fill="none" stroke="midnightblue" d="M1084.1,-116.424C1148.42,-108.524 1291.36,-91.6673 1412,-76 1414.34,-75.6967 1416.72,-75.3837 1419.13,-75.0646"/>
<polygon fill="midnightblue" stroke="midnightblue" points="1419.7,-78.5188 1429.15,-73.7269 1418.78,-71.5802 1419.7,-78.5188"/>
</g>
<!-- Node20 -->
<g id="node16" class="node"><title>Node20</title>
<g id="a_node16"><a xlink:href="stringliteral_8hpp.html" target="_top" xlink:title="alib/strings/stringliteral.hpp">
<polygon fill="white" stroke="black" points="1123.5,-56.5 1123.5,-75.5 1256.5,-75.5 1256.5,-56.5 1123.5,-56.5"/>
<text text-anchor="middle" x="1190" y="-63.5" font-family="Helvetica,sans-Serif" font-size="10.00">alib/strings/stringliteral.hpp</text>
</a>
</g>
</g>
<!-- Node2&#45;&gt;Node20 -->
<g id="edge16" class="edge"><title>Node2&#45;&gt;Node20</title>
<path fill="none" stroke="midnightblue" d="M1067.09,-112.444C1088.56,-103.399 1125.52,-89.064 1153.4,-78.9158"/>
<polygon fill="midnightblue" stroke="midnightblue" points="1154.62,-82.1968 1162.84,-75.5164 1152.25,-75.6106 1154.62,-82.1968"/>
</g>
<!-- Node21 -->
<g id="node17" class="node"><title>Node21</title>
<g id="a_node17"><a xlink:href="astring_8hpp.html" target="_top" xlink:title="alib/strings/astring.hpp">
<polygon fill="white" stroke="black" points="1560.5,-56.5 1560.5,-75.5 1675.5,-75.5 1675.5,-56.5 1560.5,-56.5"/>
<text text-anchor="middle" x="1618" y="-63.5" font-family="Helvetica,sans-Serif" font-size="10.00">alib/strings/astring.hpp</text>
</a>
</g>
</g>
<!-- Node2&#45;&gt;Node21 -->
<g id="edge17" class="edge"><title>Node2&#45;&gt;Node21</title>
<path fill="none" stroke="midnightblue" d="M1084.28,-118.111C1164.69,-111.73 1370.84,-95.444 1543,-76 1545.38,-75.7317 1547.8,-75.4481 1550.25,-75.1533"/>
<polygon fill="midnightblue" stroke="midnightblue" points="1550.94,-78.594 1560.44,-73.8897 1550.08,-71.6473 1550.94,-78.594"/>
</g>
<!-- Node23 -->
<g id="node18" class="node"><title>Node23</title>
<g id="a_node18"><a xlink:href="preallocatedstring_8hpp.html" target="_top" xlink:title="alib/strings/preallocatedstring.hpp">
<polygon fill="white" stroke="black" points="1694,-56.5 1694,-75.5 1856,-75.5 1856,-56.5 1694,-56.5"/>
<text text-anchor="middle" x="1775" y="-63.5" font-family="Helvetica,sans-Serif" font-size="10.00">alib/strings/preallocatedstring.hpp</text>
</a>
</g>
</g>
<!-- Node2&#45;&gt;Node23 -->
<g id="edge18" class="edge"><title>Node2&#45;&gt;Node23</title>
<path fill="none" stroke="midnightblue" d="M1084.31,-118.649C1178.86,-112.539 1450.26,-95.2819 1676,-76 1678.53,-75.7837 1681.1,-75.5587 1683.7,-75.3271"/>
<polygon fill="midnightblue" stroke="midnightblue" points="1684.19,-78.7972 1693.83,-74.4047 1683.56,-71.826 1684.19,-78.7972"/>
</g>
<!-- Node24 -->
<g id="node19" class="node"><title>Node24</title>
<g id="a_node19"><a xlink:href="applyto_8hpp.html" target="_top" xlink:title="alib/strings/applyto.hpp">
<polygon fill="white" stroke="black" points="1874.5,-56.5 1874.5,-75.5 1991.5,-75.5 1991.5,-56.5 1874.5,-56.5"/>
<text text-anchor="middle" x="1933" y="-63.5" font-family="Helvetica,sans-Serif" font-size="10.00">alib/strings/applyto.hpp</text>
</a>
</g>
</g>
<!-- Node2&#45;&gt;Node24 -->
<g id="edge19" class="edge"><title>Node2&#45;&gt;Node24</title>
<path fill="none" stroke="midnightblue" d="M1084.34,-119.927C1195.97,-116.43 1557.59,-103.945 1856,-76 1858.69,-75.7484 1861.43,-75.4709 1864.21,-75.174"/>
<polygon fill="midnightblue" stroke="midnightblue" points="1864.81,-78.6281 1874.35,-74.0257 1864.02,-71.6725 1864.81,-78.6281"/>
</g>
<!-- Node25 -->
<g id="node20" class="node"><title>Node25</title>
<g id="a_node20"><a xlink:href="applyformat_8hpp.html" target="_top" xlink:title="alib/strings/applyformat.hpp">
<polygon fill="white" stroke="black" points="1274.5,-56.5 1274.5,-75.5 1411.5,-75.5 1411.5,-56.5 1274.5,-56.5"/>
<text text-anchor="middle" x="1343" y="-63.5" font-family="Helvetica,sans-Serif" font-size="10.00">alib/strings/applyformat.hpp</text>
</a>
</g>
</g>
<!-- Node2&#45;&gt;Node25 -->
<g id="edge20" class="edge"><title>Node2&#45;&gt;Node25</title>
<path fill="none" stroke="midnightblue" d="M1084.15,-113.829C1132.51,-104.473 1221.47,-88.0354 1281.48,-77.3343"/>
<polygon fill="midnightblue" stroke="midnightblue" points="1282.36,-80.7333 1291.59,-75.5371 1281.14,-73.8413 1282.36,-80.7333"/>
</g>
<!-- Node12&#45;&gt;Node2 -->
<g id="edge21" class="edge"><title>Node12&#45;&gt;Node2</title>
<path fill="none" stroke="midnightblue" d="M837.179,-75.5666C885.018,-85.105 959.053,-100.517 1006.05,-110.704"/>
<polygon fill="midnightblue" stroke="midnightblue" points="1005.42,-114.149 1015.94,-112.857 1006.91,-107.309 1005.42,-114.149"/>
</g>
<!-- Node13&#45;&gt;Node2 -->
<g id="edge22" class="edge"><title>Node13&#45;&gt;Node2</title>
<path fill="none" stroke="midnightblue" d="M944.74,-75.5164C968.112,-84.3486 1002.09,-98.2553 1025.17,-108.368"/>
<polygon fill="midnightblue" stroke="midnightblue" points="1023.77,-111.576 1034.33,-112.444 1026.62,-105.18 1023.77,-111.576"/>
</g>
<!-- Node14 -->
<g id="node21" class="node"><title>Node14</title>
<polygon fill="white" stroke="#bfbfbf" points="926,-0.5 926,-19.5 972,-19.5 972,-0.5 926,-0.5"/>
<text text-anchor="middle" x="949" y="-7.5" font-family="Helvetica,sans-Serif" font-size="10.00">cstring</text>
</g>
<!-- Node13&#45;&gt;Node14 -->
<g id="edge23" class="edge"><title>Node13&#45;&gt;Node14</title>
<path fill="none" stroke="midnightblue" d="M923.954,-56.083C928.104,-48.6127 934.153,-37.7244 939.267,-28.5199"/>
<polygon fill="midnightblue" stroke="midnightblue" points="942.341,-30.1924 944.138,-19.7511 936.222,-26.7929 942.341,-30.1924"/>
</g>
<!-- Node15 -->
<g id="node22" class="node"><title>Node15</title>
<polygon fill="white" stroke="#bfbfbf" points="868,-0.5 868,-19.5 908,-19.5 908,-0.5 868,-0.5"/>
<text text-anchor="middle" x="888" y="-7.5" font-family="Helvetica,sans-Serif" font-size="10.00">limits</text>
</g>
<!-- Node13&#45;&gt;Node15 -->
<g id="edge24" class="edge"><title>Node13&#45;&gt;Node15</title>
<path fill="none" stroke="midnightblue" d="M913.881,-56.083C909.592,-48.6127 903.342,-37.7244 898.058,-28.5199"/>
<polygon fill="midnightblue" stroke="midnightblue" points="901.038,-26.6811 893.024,-19.7511 894.967,-30.1662 901.038,-26.6811"/>
</g>
<!-- Node16&#45;&gt;Node2 -->
<g id="edge25" class="edge"><title>Node16&#45;&gt;Node2</title>
<path fill="none" stroke="midnightblue" d="M1055.13,-75.7511C1056.66,-82.8579 1057.1,-93.1357 1056.47,-102.101"/>
<polygon fill="midnightblue" stroke="midnightblue" points="1052.99,-101.713 1055.17,-112.083 1059.93,-102.622 1052.99,-101.713"/>
</g>
<!-- Node17 -->
<g id="node23" class="node"><title>Node17</title>
<polygon fill="white" stroke="#bfbfbf" points="1065.5,-0.5 1065.5,-19.5 1110.5,-19.5 1110.5,-0.5 1065.5,-0.5"/>
<text text-anchor="middle" x="1088" y="-7.5" font-family="Helvetica,sans-Serif" font-size="10.00">iosfwd</text>
</g>
<!-- Node16&#45;&gt;Node17 -->
<g id="edge26" class="edge"><title>Node16&#45;&gt;Node17</title>
<path fill="none" stroke="midnightblue" d="M1056.27,-56.083C1061.64,-48.4554 1069.52,-37.2645 1076.08,-27.9408"/>
<polygon fill="midnightblue" stroke="midnightblue" points="1078.95,-29.9434 1081.84,-19.7511 1073.22,-25.9149 1078.95,-29.9434"/>
</g>
<!-- Node18 -->
<g id="node24" class="node"><title>Node18</title>
<polygon fill="white" stroke="#bfbfbf" points="1167,-0.5 1167,-19.5 1213,-19.5 1213,-0.5 1167,-0.5"/>
<text text-anchor="middle" x="1190" y="-7.5" font-family="Helvetica,sans-Serif" font-size="10.00">cctype</text>
</g>
<!-- Node16&#45;&gt;Node18 -->
<g id="edge27" class="edge"><title>Node16&#45;&gt;Node18</title>
<path fill="none" stroke="midnightblue" d="M1072.18,-56.4435C1095.43,-47.4776 1132.15,-33.314 1158.42,-23.1827"/>
<polygon fill="midnightblue" stroke="midnightblue" points="1159.85,-26.3807 1167.92,-19.5164 1157.33,-19.8497 1159.85,-26.3807"/>
</g>
<!-- Node19&#45;&gt;Node2 -->
<g id="edge28" class="edge"><title>Node19&#45;&gt;Node2</title>
<path fill="none" stroke="midnightblue" d="M1433.76,-75.5081C1432.5,-75.6745 1431.24,-75.8386 1430,-76 1308.88,-91.7294 1165.29,-108.658 1094.18,-116.517"/>
<polygon fill="midnightblue" stroke="midnightblue" points="1093.78,-113.039 1084.23,-117.61 1094.55,-119.998 1093.78,-113.039"/>
</g>
<!-- Node20&#45;&gt;Node2 -->
<g id="edge29" class="edge"><title>Node20&#45;&gt;Node2</title>
<path fill="none" stroke="midnightblue" d="M1173,-75.5164C1151.58,-84.5457 1114.63,-98.8786 1086.73,-109.039"/>
<polygon fill="midnightblue" stroke="midnightblue" points="1085.49,-105.762 1077.27,-112.444 1087.87,-112.348 1085.49,-105.762"/>
</g>
<!-- Node20&#45;&gt;Node17 -->
<g id="edge30" class="edge"><title>Node20&#45;&gt;Node17</title>
<path fill="none" stroke="midnightblue" d="M1173.61,-56.324C1157.33,-47.7034 1132.13,-34.3643 1113.28,-24.3855"/>
<polygon fill="midnightblue" stroke="midnightblue" points="1114.82,-21.2402 1104.35,-19.6545 1111.55,-27.4267 1114.82,-21.2402"/>
</g>
<!-- Node20&#45;&gt;Node18 -->
<g id="edge31" class="edge"><title>Node20&#45;&gt;Node18</title>
<path fill="none" stroke="midnightblue" d="M1190,-56.083C1190,-49.0059 1190,-38.8611 1190,-29.9865"/>
<polygon fill="midnightblue" stroke="midnightblue" points="1193.5,-29.751 1190,-19.7511 1186.5,-29.7511 1193.5,-29.751"/>
</g>
<!-- Node21&#45;&gt;Node2 -->
<g id="edge32" class="edge"><title>Node21&#45;&gt;Node2</title>
<path fill="none" stroke="midnightblue" d="M1565.18,-75.5181C1563.77,-75.6833 1562.38,-75.8443 1561,-76 1388.92,-95.4356 1182.87,-111.716 1094.07,-118.103"/>
<polygon fill="midnightblue" stroke="midnightblue" points="1093.81,-114.613 1084.08,-118.815 1094.3,-121.595 1093.81,-114.613"/>
</g>
<!-- Node22 -->
<g id="node25" class="node"><title>Node22</title>
<polygon fill="white" stroke="#bfbfbf" points="1594,-0.5 1594,-19.5 1642,-19.5 1642,-0.5 1594,-0.5"/>
<text text-anchor="middle" x="1618" y="-7.5" font-family="Helvetica,sans-Serif" font-size="10.00">stdlib.h</text>
</g>
<!-- Node21&#45;&gt;Node22 -->
<g id="edge33" class="edge"><title>Node21&#45;&gt;Node22</title>
<path fill="none" stroke="midnightblue" d="M1618,-56.083C1618,-49.0059 1618,-38.8611 1618,-29.9865"/>
<polygon fill="midnightblue" stroke="midnightblue" points="1621.5,-29.751 1618,-19.7511 1614.5,-29.7511 1621.5,-29.751"/>
</g>
<!-- Node23&#45;&gt;Node2 -->
<g id="edge34" class="edge"><title>Node23&#45;&gt;Node2</title>
<path fill="none" stroke="midnightblue" d="M1699.69,-75.5055C1697.78,-75.6745 1695.88,-75.8396 1694,-76 1469.1,-95.21 1198.88,-112.41 1094.23,-118.581"/>
<polygon fill="midnightblue" stroke="midnightblue" points="1093.82,-115.099 1084.04,-119.177 1094.23,-122.087 1093.82,-115.099"/>
</g>
<!-- Node24&#45;&gt;Node2 -->
<g id="edge35" class="edge"><title>Node24&#45;&gt;Node2</title>
<path fill="none" stroke="midnightblue" d="M1879.04,-75.5055C1877.34,-75.6792 1875.66,-75.8446 1874,-76 1577.53,-103.763 1218.67,-116.267 1094.6,-119.857"/>
<polygon fill="midnightblue" stroke="midnightblue" points="1094.25,-116.366 1084.35,-120.149 1094.45,-123.363 1094.25,-116.366"/>
</g>
<!-- Node25&#45;&gt;Node2 -->
<g id="edge36" class="edge"><title>Node25&#45;&gt;Node2</title>
<path fill="none" stroke="midnightblue" d="M1301.61,-75.5664C1246.75,-86.1033 1150.58,-103.808 1094.3,-113.719"/>
<polygon fill="midnightblue" stroke="midnightblue" points="1093.52,-110.302 1084.27,-115.475 1094.72,-117.197 1093.52,-110.302"/>
</g>
<!-- Node25&#45;&gt;Node18 -->
<g id="edge37" class="edge"><title>Node25&#45;&gt;Node18</title>
<path fill="none" stroke="midnightblue" d="M1318.76,-56.4435C1292.83,-47.2922 1251.56,-32.726 1222.75,-22.5594"/>
<polygon fill="midnightblue" stroke="midnightblue" points="1223.72,-19.1907 1213.13,-19.1629 1221.39,-25.7917 1223.72,-19.1907"/>
</g>
</g>
</svg>
