<?xml version="1.0" encoding="UTF-8" standalone="no"?>
<!DOCTYPE svg PUBLIC "-//W3C//DTD SVG 1.1//EN"
 "http://www.w3.org/Graphics/SVG/1.1/DTD/svg11.dtd">
<!-- Generated by graphviz version 2.40.1 (20161225.0304)
 -->
<!-- Title: resourcedtupleloader.hpp Pages: 1 -->
<svg width="240pt" height="196pt"
 viewBox="0.00 0.00 239.50 196.00" xmlns="http://www.w3.org/2000/svg" xmlns:xlink="http://www.w3.org/1999/xlink">
<g id="graph0" class="graph" transform="scale(1 1) rotate(0) translate(4 192)">
<title>resourcedtupleloader.hpp</title>
<polygon fill="#ffffff" stroke="transparent" points="-4,4 -4,-192 235.5,-192 235.5,4 -4,4"/>
<!-- Node0 -->
<g id="node1" class="node">
<title>Node0</title>
<polygon fill="#bfbfbf" stroke="#000000" points="105.5,-168.5 105.5,-187.5 230.5,-187.5 230.5,-168.5 105.5,-168.5"/>
<text text-anchor="middle" x="168" y="-175.5" font-family="Helvetica,sans-Serif" font-size="10.00" fill="#000000">resourcedtupleloader.hpp</text>
</g>
<!-- Node1 -->
<g id="node2" class="node">
<title>Node1</title>
<g id="a_node2"><a xlink:href="tokenizer_8hpp.html" target="_top" xlink:title="alib/strings/util/tokenizer.hpp">
<polygon fill="#ffffff" stroke="#000000" points="0,-112.5 0,-131.5 140,-131.5 140,-112.5 0,-112.5"/>
<text text-anchor="middle" x="70" y="-119.5" font-family="Helvetica,sans-Serif" font-size="10.00" fill="#000000">alib/strings/util/tokenizer.hpp</text>
</a>
</g>
</g>
<!-- Node0&#45;&gt;Node1 -->
<g id="edge1" class="edge">
<title>Node0&#45;&gt;Node1</title>
<path fill="none" stroke="#191970" d="M150.9297,-168.2455C135.753,-159.5731 113.3379,-146.7645 95.9437,-136.825"/>
<polygon fill="#191970" stroke="#191970" points="97.2936,-133.5653 86.8747,-131.6427 93.8206,-139.643 97.2936,-133.5653"/>
</g>
<!-- Node2 -->
<g id="node3" class="node">
<title>Node2</title>
<g id="a_node3"><a xlink:href="substring_8hpp.html" target="_top" xlink:title="alib/strings/substring.hpp">
<polygon fill="#ffffff" stroke="#000000" points="56.5,-56.5 56.5,-75.5 181.5,-75.5 181.5,-56.5 56.5,-56.5"/>
<text text-anchor="middle" x="119" y="-63.5" font-family="Helvetica,sans-Serif" font-size="10.00" fill="#000000">alib/strings/substring.hpp</text>
</a>
</g>
</g>
<!-- Node0&#45;&gt;Node2 -->
<g id="edge2" class="edge">
<title>Node0&#45;&gt;Node2</title>
<path fill="none" stroke="#191970" d="M166.1512,-168.2831C163.4374,-155.1223 157.7312,-131.0831 149,-112 144.5615,-102.2991 138.2719,-92.2907 132.5973,-84.0968"/>
<polygon fill="#191970" stroke="#191970" points="135.2617,-81.8069 126.5831,-75.7297 129.5777,-85.8925 135.2617,-81.8069"/>
</g>
<!-- Node4 -->
<g id="node4" class="node">
<title>Node4</title>
<polygon fill="#ffffff" stroke="#bfbfbf" points="196.5,-112.5 196.5,-131.5 231.5,-131.5 231.5,-112.5 196.5,-112.5"/>
<text text-anchor="middle" x="214" y="-119.5" font-family="Helvetica,sans-Serif" font-size="10.00" fill="#000000">map</text>
</g>
<!-- Node0&#45;&gt;Node4 -->
<g id="edge3" class="edge">
<title>Node0&#45;&gt;Node4</title>
<path fill="none" stroke="#191970" d="M176.0126,-168.2455C182.4768,-160.3761 191.7385,-149.101 199.4983,-139.6542"/>
<polygon fill="#191970" stroke="#191970" points="202.4364,-141.5916 206.0792,-131.6427 197.0273,-137.1484 202.4364,-141.5916"/>
</g>
<!-- Node1&#45;&gt;Node2 -->
<g id="edge4" class="edge">
<title>Node1&#45;&gt;Node2</title>
<path fill="none" stroke="#191970" d="M78.5351,-112.2455C85.4912,-104.2958 95.4883,-92.8706 103.8051,-83.3656"/>
<polygon fill="#191970" stroke="#191970" points="106.6116,-85.4732 110.5627,-75.6427 101.3436,-80.8637 106.6116,-85.4732"/>
</g>
<!-- Node3 -->
<g id="node5" class="node">
<title>Node3</title>
<g id="a_node5"><a xlink:href="enumbitwise_8hpp.html" target="_top" xlink:title="alib/lang/enumbitwise.hpp">
<polygon fill="#ffffff" stroke="#000000" points="55,-.5 55,-19.5 183,-19.5 183,-.5 55,-.5"/>
<text text-anchor="middle" x="119" y="-7.5" font-family="Helvetica,sans-Serif" font-size="10.00" fill="#000000">alib/lang/enumbitwise.hpp</text>
</a>
</g>
</g>
<!-- Node2&#45;&gt;Node3 -->
<g id="edge5" class="edge">
<title>Node2&#45;&gt;Node3</title>
<path fill="none" stroke="#191970" d="M119,-56.2455C119,-48.9382 119,-38.6944 119,-29.7046"/>
<polygon fill="#191970" stroke="#191970" points="122.5001,-29.6426 119,-19.6427 115.5001,-29.6427 122.5001,-29.6426"/>
</g>
</g>
</svg>
