<?xml version="1.0" encoding="UTF-8" standalone="no"?>
<!DOCTYPE svg PUBLIC "-//W3C//DTD SVG 1.1//EN"
 "http://www.w3.org/Graphics/SVG/1.1/DTD/svg11.dtd">
<!-- Generated by graphviz version 2.38.0 (20140413.2041)
 -->
<!-- Title: scopestore.hpp Pages: 1 -->
<svg width="841pt" height="420pt"
 viewBox="0.00 0.00 840.50 420.00" xmlns="http://www.w3.org/2000/svg" xmlns:xlink="http://www.w3.org/1999/xlink">
<g id="graph0" class="graph" transform="scale(1 1) rotate(0) translate(4 416)">
<title>scopestore.hpp</title>
<polygon fill="white" stroke="none" points="-4,4 -4,-416 836.5,-416 836.5,4 -4,4"/>
<!-- Node1 -->
<g id="node1" class="node"><title>Node1</title>
<polygon fill="#bfbfbf" stroke="black" points="430.5,-392.5 430.5,-411.5 513.5,-411.5 513.5,-392.5 430.5,-392.5"/>
<text text-anchor="middle" x="472" y="-399.5" font-family="Helvetica,sans-Serif" font-size="10.00">scopestore.hpp</text>
</g>
<!-- Node2 -->
<g id="node2" class="node"><title>Node2</title>
<g id="a_node2"><a xlink:href="lox_8hpp.html" target="_top" xlink:title="lox.hpp">
<polygon fill="white" stroke="black" points="501,-336.5 501,-355.5 549,-355.5 549,-336.5 501,-336.5"/>
<text text-anchor="middle" x="525" y="-343.5" font-family="Helvetica,sans-Serif" font-size="10.00">lox.hpp</text>
</a>
</g>
</g>
<!-- Node1&#45;&gt;Node2 -->
<g id="edge1" class="edge"><title>Node1&#45;&gt;Node2</title>
<path fill="none" stroke="midnightblue" d="M487.981,-384.718C497.322,-375.2 508.746,-363.561 516.411,-355.751"/>
<polygon fill="midnightblue" stroke="midnightblue" points="485.259,-382.494 480.752,-392.083 490.254,-387.398 485.259,-382.494"/>
</g>
<!-- Node16 -->
<g id="node3" class="node"><title>Node16</title>
<g id="a_node3"><a xlink:href="scopedump_8hpp.html" target="_top" xlink:title="scopedump.hpp">
<polygon fill="white" stroke="black" points="0,-224.5 0,-243.5 86,-243.5 86,-224.5 0,-224.5"/>
<text text-anchor="middle" x="43" y="-231.5" font-family="Helvetica,sans-Serif" font-size="10.00">scopedump.hpp</text>
</a>
</g>
</g>
<!-- Node1&#45;&gt;Node16 -->
<g id="edge2" class="edge"><title>Node1&#45;&gt;Node16</title>
<path fill="none" stroke="midnightblue" d="M440.454,-388.793C357.687,-356.767 135.819,-270.916 65.0291,-243.524"/>
<polygon fill="midnightblue" stroke="midnightblue" points="439.249,-392.08 449.838,-392.425 441.775,-385.552 439.249,-392.08"/>
</g>
<!-- Node3 -->
<g id="node4" class="node"><title>Node3</title>
<g id="a_node4"><a xlink:href="alox_8hpp.html" target="_top" xlink:title="alox.hpp">
<polygon fill="white" stroke="black" points="445.5,-280.5 445.5,-299.5 498.5,-299.5 498.5,-280.5 445.5,-280.5"/>
<text text-anchor="middle" x="472" y="-287.5" font-family="Helvetica,sans-Serif" font-size="10.00">alox.hpp</text>
</a>
</g>
</g>
<!-- Node2&#45;&gt;Node3 -->
<g id="edge3" class="edge"><title>Node2&#45;&gt;Node3</title>
<path fill="none" stroke="midnightblue" d="M503.654,-329.537C493.174,-319.909 481.698,-307.869 475.522,-299.834"/>
<polygon fill="midnightblue" stroke="midnightblue" points="501.55,-332.347 511.37,-336.324 506.173,-327.091 501.55,-332.347"/>
</g>
<!-- Node3&#45;&gt;Node1 -->
<g id="edge4" class="edge"><title>Node3&#45;&gt;Node1</title>
<path fill="none" stroke="midnightblue" d="M472,-309.597C472,-333.666 472,-374.617 472,-392.368"/>
<polygon fill="midnightblue" stroke="midnightblue" points="475.5,-309.591 472,-299.591 468.5,-309.591 475.5,-309.591"/>
</g>
<!-- Node3&#45;&gt;Node2 -->
<g id="edge5" class="edge"><title>Node3&#45;&gt;Node2</title>
<path fill="none" stroke="midnightblue" d="M493.402,-306.515C503.831,-316.101 515.234,-328.062 521.414,-336.083"/>
<polygon fill="midnightblue" stroke="midnightblue" points="495.538,-303.732 485.72,-299.751 490.913,-308.986 495.538,-303.732"/>
</g>
<!-- Node3&#45;&gt;Node16 -->
<g id="edge18" class="edge"><title>Node3&#45;&gt;Node16</title>
<path fill="none" stroke="midnightblue" d="M435.318,-285.009C368.524,-277.642 222.625,-261.092 100,-244 95.5349,-243.378 90.8783,-242.696 86.2355,-241.995"/>
<polygon fill="midnightblue" stroke="midnightblue" points="435.021,-288.497 445.343,-286.111 435.786,-281.539 435.021,-288.497"/>
</g>
<!-- Node4 -->
<g id="node5" class="node"><title>Node4</title>
<g id="a_node5"><a xlink:href="log_8hpp.html" target="_top" xlink:title="log.hpp">
<polygon fill="white" stroke="black" points="448,-224.5 448,-243.5 496,-243.5 496,-224.5 448,-224.5"/>
<text text-anchor="middle" x="472" y="-231.5" font-family="Helvetica,sans-Serif" font-size="10.00">log.hpp</text>
</a>
</g>
</g>
<!-- Node3&#45;&gt;Node4 -->
<g id="edge6" class="edge"><title>Node3&#45;&gt;Node4</title>
<path fill="none" stroke="midnightblue" d="M465.528,-270.101C464.896,-261.136 465.343,-250.858 466.869,-243.751"/>
<polygon fill="midnightblue" stroke="midnightblue" points="462.066,-270.622 466.834,-280.083 469.007,-269.713 462.066,-270.622"/>
</g>
<!-- Node5 -->
<g id="node6" class="node"><title>Node5</title>
<g id="a_node6"><a xlink:href="alox__console__loggers_8hpp.html" target="_top" xlink:title="alox_console_loggers.hpp">
<polygon fill="white" stroke="black" points="428.5,-0.5 428.5,-19.5 557.5,-19.5 557.5,-0.5 428.5,-0.5"/>
<text text-anchor="middle" x="493" y="-7.5" font-family="Helvetica,sans-Serif" font-size="10.00">alox_console_loggers.hpp</text>
</a>
</g>
</g>
<!-- Node3&#45;&gt;Node5 -->
<g id="edge7" class="edge"><title>Node3&#45;&gt;Node5</title>
<path fill="none" stroke="midnightblue" d="M493.175,-274.422C526.781,-249.768 590.795,-196.202 613,-132 631.664,-78.0359 553.981,-36.6662 514.616,-19.5728"/>
<polygon fill="midnightblue" stroke="midnightblue" points="491.031,-271.653 484.946,-280.326 495.111,-277.34 491.031,-271.653"/>
</g>
<!-- Node6 -->
<g id="node7" class="node"><title>Node6</title>
<g id="a_node7"><a xlink:href="domain_8hpp.html" target="_top" xlink:title="domain.hpp">
<polygon fill="white" stroke="black" points="670.5,-224.5 670.5,-243.5 737.5,-243.5 737.5,-224.5 670.5,-224.5"/>
<text text-anchor="middle" x="704" y="-231.5" font-family="Helvetica,sans-Serif" font-size="10.00">domain.hpp</text>
</a>
</g>
</g>
<!-- Node3&#45;&gt;Node6 -->
<g id="edge8" class="edge"><title>Node3&#45;&gt;Node6</title>
<path fill="none" stroke="midnightblue" d="M508.403,-280.527C552.755,-270.204 627.089,-252.902 670.219,-242.863"/>
<polygon fill="midnightblue" stroke="midnightblue" points="507.56,-277.13 498.613,-282.806 509.146,-283.947 507.56,-277.13"/>
</g>
<!-- Node7 -->
<g id="node8" class="node"><title>Node7</title>
<g id="a_node8"><a xlink:href="logger_8hpp.html" target="_top" xlink:title="logger.hpp">
<polygon fill="white" stroke="black" points="590,-224.5 590,-243.5 652,-243.5 652,-224.5 590,-224.5"/>
<text text-anchor="middle" x="621" y="-231.5" font-family="Helvetica,sans-Serif" font-size="10.00">logger.hpp</text>
</a>
</g>
</g>
<!-- Node3&#45;&gt;Node7 -->
<g id="edge9" class="edge"><title>Node3&#45;&gt;Node7</title>
<path fill="none" stroke="midnightblue" d="M505.371,-276.906C533.384,-266.754 572.696,-252.506 597.501,-243.516"/>
<polygon fill="midnightblue" stroke="midnightblue" points="503.819,-273.746 495.609,-280.444 506.204,-280.327 503.819,-273.746"/>
</g>
<!-- Node8 -->
<g id="node9" class="node"><title>Node8</title>
<g id="a_node9"><a xlink:href="textlogger_8hpp.html" target="_top" xlink:title="textlogger.hpp">
<polygon fill="white" stroke="black" points="410,-168.5 410,-187.5 488,-187.5 488,-168.5 410,-168.5"/>
<text text-anchor="middle" x="449" y="-175.5" font-family="Helvetica,sans-Serif" font-size="10.00">textlogger.hpp</text>
</a>
</g>
</g>
<!-- Node3&#45;&gt;Node8 -->
<g id="edge10" class="edge"><title>Node3&#45;&gt;Node8</title>
<path fill="none" stroke="midnightblue" d="M456.286,-272.883C449.573,-264.883 442.49,-254.66 439,-244 432.606,-224.468 440.147,-200.268 445.189,-187.621"/>
<polygon fill="midnightblue" stroke="midnightblue" points="453.695,-275.237 462.98,-280.34 458.904,-270.561 453.695,-275.237"/>
</g>
<!-- Node9 -->
<g id="node10" class="node"><title>Node9</title>
<g id="a_node10"><a xlink:href="plaintextlogger_8hpp.html" target="_top" xlink:title="plaintextlogger.hpp">
<polygon fill="white" stroke="black" points="180,-112.5 180,-131.5 278,-131.5 278,-112.5 180,-112.5"/>
<text text-anchor="middle" x="229" y="-119.5" font-family="Helvetica,sans-Serif" font-size="10.00">plaintextlogger.hpp</text>
</a>
</g>
</g>
<!-- Node3&#45;&gt;Node9 -->
<g id="edge11" class="edge"><title>Node3&#45;&gt;Node9</title>
<path fill="none" stroke="midnightblue" d="M435.014,-288.417C395.658,-285.979 333.469,-276.71 292,-244 253.694,-213.785 236.243,-153.847 230.887,-131.586"/>
<polygon fill="midnightblue" stroke="midnightblue" points="435.067,-291.923 445.23,-288.927 435.417,-284.932 435.067,-291.923"/>
</g>
<!-- Node10 -->
<g id="node11" class="node"><title>Node10</title>
<g id="a_node11"><a xlink:href="consolelogger_8hpp.html" target="_top" xlink:title="consolelogger.hpp">
<polygon fill="white" stroke="black" points="369.5,-56.5 369.5,-75.5 464.5,-75.5 464.5,-56.5 369.5,-56.5"/>
<text text-anchor="middle" x="417" y="-63.5" font-family="Helvetica,sans-Serif" font-size="10.00">consolelogger.hpp</text>
</a>
</g>
</g>
<!-- Node3&#45;&gt;Node10 -->
<g id="edge12" class="edge"><title>Node3&#45;&gt;Node10</title>
<path fill="none" stroke="midnightblue" d="M448.64,-274.772C437.074,-266.833 423.576,-256.108 414,-244 380.072,-201.099 374.597,-185.452 363,-132 361.115,-123.313 359.23,-120.05 363,-112 370.661,-95.644 387.512,-83.1593 400.367,-75.5364"/>
<polygon fill="midnightblue" stroke="midnightblue" points="446.732,-277.706 457.01,-280.277 450.579,-271.858 446.732,-277.706"/>
</g>
<!-- Node11 -->
<g id="node12" class="node"><title>Node11</title>
<g id="a_node12"><a xlink:href="memorylogger_8hpp.html" target="_top" xlink:title="memorylogger.hpp">
<polygon fill="white" stroke="black" points="145.5,-56.5 145.5,-75.5 242.5,-75.5 242.5,-56.5 145.5,-56.5"/>
<text text-anchor="middle" x="194" y="-63.5" font-family="Helvetica,sans-Serif" font-size="10.00">memorylogger.hpp</text>
</a>
</g>
</g>
<!-- Node3&#45;&gt;Node11 -->
<g id="edge13" class="edge"><title>Node3&#45;&gt;Node11</title>
<path fill="none" stroke="midnightblue" d="M435.065,-287.565C392.55,-284.443 321.918,-274.634 270,-244 212.781,-210.239 194.524,-194.133 171,-132 163.455,-112.073 177.522,-88.4322 186.794,-75.8759"/>
<polygon fill="midnightblue" stroke="midnightblue" points="435.035,-291.07 445.24,-288.223 435.487,-284.085 435.035,-291.07"/>
</g>
<!-- Node12 -->
<g id="node13" class="node"><title>Node12</title>
<g id="a_node13"><a xlink:href="textfilelogger_8hpp.html" target="_top" xlink:title="textfilelogger.hpp">
<polygon fill="white" stroke="black" points="260.5,-56.5 260.5,-75.5 351.5,-75.5 351.5,-56.5 260.5,-56.5"/>
<text text-anchor="middle" x="306" y="-63.5" font-family="Helvetica,sans-Serif" font-size="10.00">textfilelogger.hpp</text>
</a>
</g>
</g>
<!-- Node3&#45;&gt;Node12 -->
<g id="edge14" class="edge"><title>Node3&#45;&gt;Node12</title>
<path fill="none" stroke="midnightblue" d="M441.749,-276.086C426.579,-268.458 408.769,-257.616 396,-244 345.771,-190.439 316.821,-103.474 308.513,-75.7703"/>
<polygon fill="midnightblue" stroke="midnightblue" points="440.254,-279.25 450.785,-280.415 443.279,-272.937 440.254,-279.25"/>
</g>
<!-- Node13 -->
<g id="node14" class="node"><title>Node13</title>
<g id="a_node14"><a xlink:href="vstudiologger_8hpp.html" target="_top" xlink:title="vstudiologger.hpp">
<polygon fill="white" stroke="black" points="34.5,-56.5 34.5,-75.5 127.5,-75.5 127.5,-56.5 34.5,-56.5"/>
<text text-anchor="middle" x="81" y="-63.5" font-family="Helvetica,sans-Serif" font-size="10.00">vstudiologger.hpp</text>
</a>
</g>
</g>
<!-- Node3&#45;&gt;Node13 -->
<g id="edge15" class="edge"><title>Node3&#45;&gt;Node13</title>
<path fill="none" stroke="midnightblue" d="M435.171,-289.083C386.379,-287.678 299.024,-279.801 235,-244 158.565,-201.259 101.895,-105.465 85.7033,-75.877"/>
<polygon fill="midnightblue" stroke="midnightblue" points="435.192,-292.584 445.264,-289.296 435.34,-285.585 435.192,-292.584"/>
</g>
<!-- Node14 -->
<g id="node15" class="node"><title>Node14</title>
<g id="a_node15"><a xlink:href="ansilogger_8hpp.html" target="_top" xlink:title="ansilogger.hpp">
<polygon fill="white" stroke="black" points="524,-112.5 524,-131.5 604,-131.5 604,-112.5 524,-112.5"/>
<text text-anchor="middle" x="564" y="-119.5" font-family="Helvetica,sans-Serif" font-size="10.00">ansilogger.hpp</text>
</a>
</g>
</g>
<!-- Node3&#45;&gt;Node14 -->
<g id="edge16" class="edge"><title>Node3&#45;&gt;Node14</title>
<path fill="none" stroke="midnightblue" d="M485.359,-272.295C491.681,-264.024 499.116,-253.745 505,-244 529.281,-203.786 551.805,-152.128 560.363,-131.787"/>
<polygon fill="midnightblue" stroke="midnightblue" points="482.457,-270.324 479.061,-280.36 487.974,-274.632 482.457,-270.324"/>
</g>
<!-- Node15 -->
<g id="node16" class="node"><title>Node15</title>
<g id="a_node16"><a xlink:href="windowsconsolelogger_8hpp.html" target="_top" xlink:title="windowsconsolelogger.hpp">
<polygon fill="white" stroke="black" points="372,-112.5 372,-131.5 506,-131.5 506,-112.5 372,-112.5"/>
<text text-anchor="middle" x="439" y="-119.5" font-family="Helvetica,sans-Serif" font-size="10.00">windowsconsolelogger.hpp</text>
</a>
</g>
</g>
<!-- Node3&#45;&gt;Node15 -->
<g id="edge17" class="edge"><title>Node3&#45;&gt;Node15</title>
<path fill="none" stroke="midnightblue" d="M455.353,-273.204C437.399,-254.794 410.153,-222.467 401,-188 398.719,-179.409 397.947,-176.348 401,-168 406.409,-153.211 419.062,-139.931 428.286,-131.695"/>
<polygon fill="midnightblue" stroke="midnightblue" points="453.063,-275.862 462.625,-280.425 457.995,-270.895 453.063,-275.862"/>
</g>
<!-- Node17 -->
<g id="node17" class="node"><title>Node17</title>
<g id="a_node17"><a xlink:href="scopeinfo_8hpp.html" target="_top" xlink:title="scopeinfo.hpp">
<polygon fill="white" stroke="black" points="755.5,-224.5 755.5,-243.5 832.5,-243.5 832.5,-224.5 755.5,-224.5"/>
<text text-anchor="middle" x="794" y="-231.5" font-family="Helvetica,sans-Serif" font-size="10.00">scopeinfo.hpp</text>
</a>
</g>
</g>
<!-- Node3&#45;&gt;Node17 -->
<g id="edge19" class="edge"><title>Node3&#45;&gt;Node17</title>
<path fill="none" stroke="midnightblue" d="M508.474,-283.353C561.189,-275.118 661.707,-259.142 747,-244 749.699,-243.521 752.484,-243.016 755.287,-242.499"/>
<polygon fill="midnightblue" stroke="midnightblue" points="507.929,-279.895 498.588,-284.894 509.007,-286.812 507.929,-279.895"/>
</g>
<!-- Node4&#45;&gt;Node3 -->
<g id="edge20" class="edge"><title>Node4&#45;&gt;Node3</title>
<path fill="none" stroke="midnightblue" d="M478.458,-253.691C479.106,-262.635 478.676,-272.927 477.166,-280.083"/>
<polygon fill="midnightblue" stroke="midnightblue" points="481.923,-253.2 477.131,-243.751 474.985,-254.126 481.923,-253.2"/>
</g>
<!-- Node6&#45;&gt;Node2 -->
<g id="edge21" class="edge"><title>Node6&#45;&gt;Node2</title>
<path fill="none" stroke="midnightblue" d="M681.312,-248.942C643.79,-272.001 569.893,-317.412 539.046,-336.368"/>
<polygon fill="midnightblue" stroke="midnightblue" points="683.332,-251.809 690.019,-243.591 679.667,-245.845 683.332,-251.809"/>
</g>
<!-- Node7&#45;&gt;Node2 -->
<g id="edge22" class="edge"><title>Node7&#45;&gt;Node2</title>
<path fill="none" stroke="midnightblue" d="M606.72,-251.362C586.048,-275.049 548.516,-318.055 532.533,-336.368"/>
<polygon fill="midnightblue" stroke="midnightblue" points="609.564,-253.427 613.502,-243.591 604.29,-248.824 609.564,-253.427"/>
</g>
<!-- Node7&#45;&gt;Node8 -->
<g id="edge23" class="edge"><title>Node7&#45;&gt;Node8</title>
<path fill="none" stroke="midnightblue" d="M584.168,-221.436C551.738,-211.255 505.263,-196.664 476.126,-187.516"/>
<polygon fill="midnightblue" stroke="midnightblue" points="583.157,-224.787 593.746,-224.444 585.254,-218.109 583.157,-224.787"/>
</g>
<!-- Node8&#45;&gt;Node9 -->
<g id="edge24" class="edge"><title>Node8&#45;&gt;Node9</title>
<path fill="none" stroke="midnightblue" d="M404.282,-166.024C362.724,-155.823 301.687,-140.841 263.697,-131.516"/>
<polygon fill="midnightblue" stroke="midnightblue" points="403.594,-169.459 414.14,-168.444 405.263,-162.661 403.594,-169.459"/>
</g>
<!-- Node8&#45;&gt;Node14 -->
<g id="edge25" class="edge"><title>Node8&#45;&gt;Node14</title>
<path fill="none" stroke="midnightblue" d="M476.481,-164.096C497.966,-154.007 527.222,-140.27 545.863,-131.516"/>
<polygon fill="midnightblue" stroke="midnightblue" points="474.786,-161.025 467.222,-168.444 477.762,-167.361 474.786,-161.025"/>
</g>
<!-- Node8&#45;&gt;Node15 -->
<g id="edge26" class="edge"><title>Node8&#45;&gt;Node15</title>
<path fill="none" stroke="midnightblue" d="M445.5,-158.101C443.84,-149.136 441.937,-138.858 440.621,-131.751"/>
<polygon fill="midnightblue" stroke="midnightblue" points="442.086,-158.888 447.349,-168.083 448.969,-157.613 442.086,-158.888"/>
</g>
<!-- Node9&#45;&gt;Node10 -->
<g id="edge27" class="edge"><title>Node9&#45;&gt;Node10</title>
<path fill="none" stroke="midnightblue" d="M268.801,-109.568C304.266,-99.381 355.366,-84.7034 387.35,-75.5164"/>
<polygon fill="midnightblue" stroke="midnightblue" points="267.434,-106.319 258.789,-112.444 269.367,-113.047 267.434,-106.319"/>
</g>
<!-- Node9&#45;&gt;Node11 -->
<g id="edge28" class="edge"><title>Node9&#45;&gt;Node11</title>
<path fill="none" stroke="midnightblue" d="M217.7,-103.566C211.678,-94.2747 204.531,-83.2484 199.672,-75.7511"/>
<polygon fill="midnightblue" stroke="midnightblue" points="214.844,-105.595 223.22,-112.083 220.719,-101.788 214.844,-105.595"/>
</g>
<!-- Node9&#45;&gt;Node12 -->
<g id="edge29" class="edge"><title>Node9&#45;&gt;Node12</title>
<path fill="none" stroke="midnightblue" d="M249.901,-106.342C263.911,-96.5169 281.883,-83.9132 293.659,-75.6545"/>
<polygon fill="midnightblue" stroke="midnightblue" points="247.549,-103.717 241.371,-112.324 251.568,-109.448 247.549,-103.717"/>
</g>
<!-- Node9&#45;&gt;Node13 -->
<g id="edge30" class="edge"><title>Node9&#45;&gt;Node13</title>
<path fill="none" stroke="midnightblue" d="M195.853,-108.906C168.028,-98.7536 128.98,-84.5063 104.341,-75.5164"/>
<polygon fill="midnightblue" stroke="midnightblue" points="194.955,-112.304 205.549,-112.444 197.354,-105.728 194.955,-112.304"/>
</g>
<!-- Node10&#45;&gt;Node5 -->
<g id="edge31" class="edge"><title>Node10&#45;&gt;Node5</title>
<path fill="none" stroke="midnightblue" d="M437.576,-50.3804C451.312,-40.6204 468.925,-28.1057 480.567,-19.8339"/>
<polygon fill="midnightblue" stroke="midnightblue" points="435.335,-47.6787 429.211,-56.324 439.39,-53.385 435.335,-47.6787"/>
</g>
<!-- Node13&#45;&gt;Node5 -->
<g id="edge32" class="edge"><title>Node13&#45;&gt;Node5</title>
<path fill="none" stroke="midnightblue" d="M137.822,-55.7752C245.162,-40.3617 358.996,-26.5512 428.411,-18.4167"/>
<polygon fill="midnightblue" stroke="midnightblue" points="137.187,-52.3305 127.79,-57.2233 138.187,-59.2587 137.187,-52.3305"/>
</g>
<!-- Node14&#45;&gt;Node5 -->
<g id="edge33" class="edge"><title>Node14&#45;&gt;Node5</title>
<path fill="none" stroke="midnightblue" d="M553,-103.957C537.613,-80.1184 510.239,-37.7088 498.545,-19.5914"/>
<polygon fill="midnightblue" stroke="midnightblue" points="550.065,-105.865 558.429,-112.368 555.946,-102.069 550.065,-105.865"/>
</g>
<!-- Node15&#45;&gt;Node5 -->
<g id="edge34" class="edge"><title>Node15&#45;&gt;Node5</title>
<path fill="none" stroke="midnightblue" d="M453.527,-104.683C460.199,-96.5224 467.771,-86.2228 473,-76 482.677,-57.0789 488.634,-32.6306 491.317,-19.782"/>
<polygon fill="midnightblue" stroke="midnightblue" points="450.845,-102.434 447.036,-112.321 456.179,-106.968 450.845,-102.434"/>
</g>
<!-- Node17&#45;&gt;Node2 -->
<g id="edge35" class="edge"><title>Node17&#45;&gt;Node2</title>
<path fill="none" stroke="midnightblue" d="M763.414,-247.507C708.251,-270.065 593.447,-317.01 546.108,-336.368"/>
<polygon fill="midnightblue" stroke="midnightblue" points="765.059,-250.616 772.99,-243.591 762.409,-244.137 765.059,-250.616"/>
</g>
</g>
</svg>
