<?xml version="1.0" encoding="UTF-8" standalone="no"?>
<!DOCTYPE svg PUBLIC "-//W3C//DTD SVG 1.1//EN"
 "http://www.w3.org/Graphics/SVG/1.1/DTD/svg11.dtd">
<!-- Generated by graphviz version 2.38.0 (20140413.2041)
 -->
<!-- Title: scopeinfo.hpp Pages: 1 -->
<svg width="838pt" height="420pt"
 viewBox="0.00 0.00 838.39 420.00" xmlns="http://www.w3.org/2000/svg" xmlns:xlink="http://www.w3.org/1999/xlink">
<g id="graph0" class="graph" transform="scale(1 1) rotate(0) translate(4 416)">
<title>scopeinfo.hpp</title>
<polygon fill="white" stroke="none" points="-4,4 -4,-416 834.39,-416 834.39,4 -4,4"/>
<!-- Node1 -->
<g id="node1" class="node"><title>Node1</title>
<polygon fill="#bfbfbf" stroke="black" points="452.39,-392.5 452.39,-411.5 529.39,-411.5 529.39,-392.5 452.39,-392.5"/>
<text text-anchor="middle" x="490.89" y="-399.5" font-family="Helvetica,sans-Serif" font-size="10.00">scopeinfo.hpp</text>
</g>
<!-- Node2 -->
<g id="node2" class="node"><title>Node2</title>
<g id="a_node2"><a xlink:href="lox_8hpp.html" target="_top" xlink:title="lox.hpp">
<polygon fill="white" stroke="black" points="493.89,-336.5 493.89,-355.5 541.89,-355.5 541.89,-336.5 493.89,-336.5"/>
<text text-anchor="middle" x="517.89" y="-343.5" font-family="Helvetica,sans-Serif" font-size="10.00">lox.hpp</text>
</a>
</g>
</g>
<!-- Node1&#45;&gt;Node2 -->
<g id="edge1" class="edge"><title>Node1&#45;&gt;Node2</title>
<path fill="none" stroke="midnightblue" d="M499.898,-382.983C504.481,-373.817 509.844,-363.092 513.514,-355.751"/>
<polygon fill="midnightblue" stroke="midnightblue" points="496.69,-381.573 495.348,-392.083 502.951,-384.704 496.69,-381.573"/>
</g>
<!-- Node3 -->
<g id="node3" class="node"><title>Node3</title>
<g id="a_node3"><a xlink:href="alox_8hpp.html" target="_top" xlink:title="alox.hpp">
<polygon fill="white" stroke="black" points="437.39,-280.5 437.39,-299.5 490.39,-299.5 490.39,-280.5 437.39,-280.5"/>
<text text-anchor="middle" x="463.89" y="-287.5" font-family="Helvetica,sans-Serif" font-size="10.00">alox.hpp</text>
</a>
</g>
</g>
<!-- Node2&#45;&gt;Node3 -->
<g id="edge2" class="edge"><title>Node2&#45;&gt;Node3</title>
<path fill="none" stroke="midnightblue" d="M496.258,-329.537C485.599,-319.909 473.9,-307.869 467.575,-299.834"/>
<polygon fill="midnightblue" stroke="midnightblue" points="494.247,-332.426 504.099,-336.324 498.828,-327.133 494.247,-332.426"/>
</g>
<!-- Node3&#45;&gt;Node1 -->
<g id="edge3" class="edge"><title>Node3&#45;&gt;Node1</title>
<path fill="none" stroke="midnightblue" d="M468.455,-309.597C474.362,-333.666 484.414,-374.617 488.771,-392.368"/>
<polygon fill="midnightblue" stroke="midnightblue" points="471.782,-308.469 465.999,-299.591 464.983,-310.137 471.782,-308.469"/>
</g>
<!-- Node3&#45;&gt;Node2 -->
<g id="edge4" class="edge"><title>Node3&#45;&gt;Node2</title>
<path fill="none" stroke="midnightblue" d="M485.579,-306.515C496.186,-316.101 507.81,-328.062 514.139,-336.083"/>
<polygon fill="midnightblue" stroke="midnightblue" points="487.622,-303.653 477.772,-299.751 483.039,-308.944 487.622,-303.653"/>
</g>
<!-- Node4 -->
<g id="node4" class="node"><title>Node4</title>
<g id="a_node4"><a xlink:href="log_8hpp.html" target="_top" xlink:title="log.hpp">
<polygon fill="white" stroke="black" points="439.89,-224.5 439.89,-243.5 487.89,-243.5 487.89,-224.5 439.89,-224.5"/>
<text text-anchor="middle" x="463.89" y="-231.5" font-family="Helvetica,sans-Serif" font-size="10.00">log.hpp</text>
</a>
</g>
</g>
<!-- Node3&#45;&gt;Node4 -->
<g id="edge5" class="edge"><title>Node3&#45;&gt;Node4</title>
<path fill="none" stroke="midnightblue" d="M457.417,-270.101C456.785,-261.136 457.233,-250.858 458.759,-243.751"/>
<polygon fill="midnightblue" stroke="midnightblue" points="453.956,-270.622 458.723,-280.083 460.896,-269.713 453.956,-270.622"/>
</g>
<!-- Node5 -->
<g id="node5" class="node"><title>Node5</title>
<g id="a_node5"><a xlink:href="alox__console__loggers_8hpp.html" target="_top" xlink:title="alox_console_loggers.hpp">
<polygon fill="white" stroke="black" points="233.39,-0.5 233.39,-19.5 362.39,-19.5 362.39,-0.5 233.39,-0.5"/>
<text text-anchor="middle" x="297.89" y="-7.5" font-family="Helvetica,sans-Serif" font-size="10.00">alox_console_loggers.hpp</text>
</a>
</g>
</g>
<!-- Node3&#45;&gt;Node5 -->
<g id="edge6" class="edge"><title>Node3&#45;&gt;Node5</title>
<path fill="none" stroke="midnightblue" d="M427.095,-288.114C317.514,-284.491 0.889795,-266.453 0.889795,-179 0.889795,-179 0.889795,-179 0.889795,-121 0.889795,-90.9022 -2.66939,-75.9239 19.8898,-56 50.7183,-28.7728 161.105,-17.8969 233.159,-13.6399"/>
<polygon fill="midnightblue" stroke="midnightblue" points="427.231,-291.62 437.334,-288.431 427.447,-284.624 427.231,-291.62"/>
</g>
<!-- Node6 -->
<g id="node6" class="node"><title>Node6</title>
<g id="a_node6"><a xlink:href="domain_8hpp.html" target="_top" xlink:title="domain.hpp">
<polygon fill="white" stroke="black" points="763.39,-224.5 763.39,-243.5 830.39,-243.5 830.39,-224.5 763.39,-224.5"/>
<text text-anchor="middle" x="796.89" y="-231.5" font-family="Helvetica,sans-Serif" font-size="10.00">domain.hpp</text>
</a>
</g>
</g>
<!-- Node3&#45;&gt;Node6 -->
<g id="edge7" class="edge"><title>Node3&#45;&gt;Node6</title>
<path fill="none" stroke="midnightblue" d="M500.759,-283.91C555.945,-276.149 663.241,-260.508 753.89,-244 756.891,-243.453 760.005,-242.858 763.121,-242.242"/>
<polygon fill="midnightblue" stroke="midnightblue" points="500.174,-280.458 490.756,-285.311 501.145,-287.39 500.174,-280.458"/>
</g>
<!-- Node7 -->
<g id="node7" class="node"><title>Node7</title>
<g id="a_node7"><a xlink:href="logger_8hpp.html" target="_top" xlink:title="logger.hpp">
<polygon fill="white" stroke="black" points="581.89,-224.5 581.89,-243.5 643.89,-243.5 643.89,-224.5 581.89,-224.5"/>
<text text-anchor="middle" x="612.89" y="-231.5" font-family="Helvetica,sans-Serif" font-size="10.00">logger.hpp</text>
</a>
</g>
</g>
<!-- Node3&#45;&gt;Node7 -->
<g id="edge8" class="edge"><title>Node3&#45;&gt;Node7</title>
<path fill="none" stroke="midnightblue" d="M497.261,-276.906C525.274,-266.754 564.585,-252.506 589.391,-243.516"/>
<polygon fill="midnightblue" stroke="midnightblue" points="495.708,-273.746 487.499,-280.444 498.093,-280.327 495.708,-273.746"/>
</g>
<!-- Node8 -->
<g id="node8" class="node"><title>Node8</title>
<g id="a_node8"><a xlink:href="textlogger_8hpp.html" target="_top" xlink:title="textlogger.hpp">
<polygon fill="white" stroke="black" points="401.89,-168.5 401.89,-187.5 479.89,-187.5 479.89,-168.5 401.89,-168.5"/>
<text text-anchor="middle" x="440.89" y="-175.5" font-family="Helvetica,sans-Serif" font-size="10.00">textlogger.hpp</text>
</a>
</g>
</g>
<!-- Node3&#45;&gt;Node8 -->
<g id="edge9" class="edge"><title>Node3&#45;&gt;Node8</title>
<path fill="none" stroke="midnightblue" d="M448.175,-272.883C441.463,-264.883 434.38,-254.66 430.89,-244 424.496,-224.468 432.037,-200.268 437.078,-187.621"/>
<polygon fill="midnightblue" stroke="midnightblue" points="445.585,-275.237 454.87,-280.34 450.794,-270.561 445.585,-275.237"/>
</g>
<!-- Node9 -->
<g id="node9" class="node"><title>Node9</title>
<g id="a_node9"><a xlink:href="plaintextlogger_8hpp.html" target="_top" xlink:title="plaintextlogger.hpp">
<polygon fill="white" stroke="black" points="171.89,-112.5 171.89,-131.5 269.89,-131.5 269.89,-112.5 171.89,-112.5"/>
<text text-anchor="middle" x="220.89" y="-119.5" font-family="Helvetica,sans-Serif" font-size="10.00">plaintextlogger.hpp</text>
</a>
</g>
</g>
<!-- Node3&#45;&gt;Node9 -->
<g id="edge10" class="edge"><title>Node3&#45;&gt;Node9</title>
<path fill="none" stroke="midnightblue" d="M426.904,-288.417C387.548,-285.979 325.358,-276.71 283.89,-244 245.584,-213.785 228.133,-153.847 222.777,-131.586"/>
<polygon fill="midnightblue" stroke="midnightblue" points="426.957,-291.923 437.119,-288.927 427.307,-284.932 426.957,-291.923"/>
</g>
<!-- Node10 -->
<g id="node10" class="node"><title>Node10</title>
<g id="a_node10"><a xlink:href="consolelogger_8hpp.html" target="_top" xlink:title="consolelogger.hpp">
<polygon fill="white" stroke="black" points="138.39,-56.5 138.39,-75.5 233.39,-75.5 233.39,-56.5 138.39,-56.5"/>
<text text-anchor="middle" x="185.89" y="-63.5" font-family="Helvetica,sans-Serif" font-size="10.00">consolelogger.hpp</text>
</a>
</g>
</g>
<!-- Node3&#45;&gt;Node10 -->
<g id="edge11" class="edge"><title>Node3&#45;&gt;Node10</title>
<path fill="none" stroke="midnightblue" d="M426.955,-287.565C384.44,-284.443 313.808,-274.634 261.89,-244 204.671,-210.239 186.414,-194.133 162.89,-132 155.345,-112.073 169.412,-88.4322 178.684,-75.8759"/>
<polygon fill="midnightblue" stroke="midnightblue" points="426.924,-291.07 437.129,-288.223 427.376,-284.085 426.924,-291.07"/>
</g>
<!-- Node11 -->
<g id="node11" class="node"><title>Node11</title>
<g id="a_node11"><a xlink:href="memorylogger_8hpp.html" target="_top" xlink:title="memorylogger.hpp">
<polygon fill="white" stroke="black" points="362.39,-56.5 362.39,-75.5 459.39,-75.5 459.39,-56.5 362.39,-56.5"/>
<text text-anchor="middle" x="410.89" y="-63.5" font-family="Helvetica,sans-Serif" font-size="10.00">memorylogger.hpp</text>
</a>
</g>
</g>
<!-- Node3&#45;&gt;Node11 -->
<g id="edge12" class="edge"><title>Node3&#45;&gt;Node11</title>
<path fill="none" stroke="midnightblue" d="M440.53,-274.772C428.964,-266.833 415.465,-256.108 405.89,-244 371.962,-201.099 366.487,-185.452 354.89,-132 353.005,-123.313 351.048,-120.016 354.89,-112 362.814,-95.4667 380.102,-83.0831 393.388,-75.5351"/>
<polygon fill="midnightblue" stroke="midnightblue" points="438.622,-277.706 448.9,-280.277 442.468,-271.858 438.622,-277.706"/>
</g>
<!-- Node12 -->
<g id="node12" class="node"><title>Node12</title>
<g id="a_node12"><a xlink:href="textfilelogger_8hpp.html" target="_top" xlink:title="textfilelogger.hpp">
<polygon fill="white" stroke="black" points="29.3898,-56.5 29.3898,-75.5 120.39,-75.5 120.39,-56.5 29.3898,-56.5"/>
<text text-anchor="middle" x="74.8898" y="-63.5" font-family="Helvetica,sans-Serif" font-size="10.00">textfilelogger.hpp</text>
</a>
</g>
</g>
<!-- Node3&#45;&gt;Node12 -->
<g id="edge13" class="edge"><title>Node3&#45;&gt;Node12</title>
<path fill="none" stroke="midnightblue" d="M427.061,-289.083C378.269,-287.678 290.914,-279.801 226.89,-244 150.881,-201.497 95.3318,-105.541 79.4885,-75.8953"/>
<polygon fill="midnightblue" stroke="midnightblue" points="427.082,-292.584 437.154,-289.296 427.23,-285.585 427.082,-292.584"/>
</g>
<!-- Node13 -->
<g id="node13" class="node"><title>Node13</title>
<g id="a_node13"><a xlink:href="vstudiologger_8hpp.html" target="_top" xlink:title="vstudiologger.hpp">
<polygon fill="white" stroke="black" points="251.39,-56.5 251.39,-75.5 344.39,-75.5 344.39,-56.5 251.39,-56.5"/>
<text text-anchor="middle" x="297.89" y="-63.5" font-family="Helvetica,sans-Serif" font-size="10.00">vstudiologger.hpp</text>
</a>
</g>
</g>
<!-- Node3&#45;&gt;Node13 -->
<g id="edge14" class="edge"><title>Node3&#45;&gt;Node13</title>
<path fill="none" stroke="midnightblue" d="M433.639,-276.086C418.469,-268.458 400.659,-257.616 387.89,-244 337.661,-190.439 308.711,-103.474 300.403,-75.7703"/>
<polygon fill="midnightblue" stroke="midnightblue" points="432.144,-279.25 442.675,-280.415 435.169,-272.937 432.144,-279.25"/>
</g>
<!-- Node14 -->
<g id="node14" class="node"><title>Node14</title>
<g id="a_node14"><a xlink:href="ansilogger_8hpp.html" target="_top" xlink:title="ansilogger.hpp">
<polygon fill="white" stroke="black" points="363.89,-112.5 363.89,-131.5 443.89,-131.5 443.89,-112.5 363.89,-112.5"/>
<text text-anchor="middle" x="403.89" y="-119.5" font-family="Helvetica,sans-Serif" font-size="10.00">ansilogger.hpp</text>
</a>
</g>
</g>
<!-- Node3&#45;&gt;Node14 -->
<g id="edge15" class="edge"><title>Node3&#45;&gt;Node14</title>
<path fill="none" stroke="midnightblue" d="M447.243,-273.204C429.288,-254.794 402.043,-222.467 392.89,-188 387.602,-168.089 395.188,-144.043 400.159,-131.52"/>
<polygon fill="midnightblue" stroke="midnightblue" points="444.953,-275.862 454.515,-280.425 449.885,-270.895 444.953,-275.862"/>
</g>
<!-- Node15 -->
<g id="node15" class="node"><title>Node15</title>
<g id="a_node15"><a xlink:href="windowsconsolelogger_8hpp.html" target="_top" xlink:title="windowsconsolelogger.hpp">
<polygon fill="white" stroke="black" points="461.89,-112.5 461.89,-131.5 595.89,-131.5 595.89,-112.5 461.89,-112.5"/>
<text text-anchor="middle" x="528.89" y="-119.5" font-family="Helvetica,sans-Serif" font-size="10.00">windowsconsolelogger.hpp</text>
</a>
</g>
</g>
<!-- Node3&#45;&gt;Node15 -->
<g id="edge16" class="edge"><title>Node3&#45;&gt;Node15</title>
<path fill="none" stroke="midnightblue" d="M478.352,-272.45C484.812,-264.336 492.044,-254.143 496.89,-244 515.809,-204.394 524.795,-151.954 527.744,-131.593"/>
<polygon fill="midnightblue" stroke="midnightblue" points="475.496,-270.41 471.795,-280.338 480.879,-274.885 475.496,-270.41"/>
</g>
<!-- Node16 -->
<g id="node16" class="node"><title>Node16</title>
<g id="a_node16"><a xlink:href="scopedump_8hpp.html" target="_top" xlink:title="scopedump.hpp">
<polygon fill="white" stroke="black" points="601.89,-168.5 601.89,-187.5 687.89,-187.5 687.89,-168.5 601.89,-168.5"/>
<text text-anchor="middle" x="644.89" y="-175.5" font-family="Helvetica,sans-Serif" font-size="10.00">scopedump.hpp</text>
</a>
</g>
</g>
<!-- Node3&#45;&gt;Node16 -->
<g id="edge17" class="edge"><title>Node3&#45;&gt;Node16</title>
<path fill="none" stroke="midnightblue" d="M486.912,-275.009C524.905,-251.919 599.623,-206.51 630.753,-187.591"/>
<polygon fill="midnightblue" stroke="midnightblue" points="484.82,-272.184 478.093,-280.368 488.456,-278.166 484.82,-272.184"/>
</g>
<!-- Node17 -->
<g id="node17" class="node"><title>Node17</title>
<g id="a_node17"><a xlink:href="scopestore_8hpp.html" target="_top" xlink:title="scopestore.hpp">
<polygon fill="white" stroke="black" points="662.39,-224.5 662.39,-243.5 745.39,-243.5 745.39,-224.5 662.39,-224.5"/>
<text text-anchor="middle" x="703.89" y="-231.5" font-family="Helvetica,sans-Serif" font-size="10.00">scopestore.hpp</text>
</a>
</g>
</g>
<!-- Node3&#45;&gt;Node17 -->
<g id="edge18" class="edge"><title>Node3&#45;&gt;Node17</title>
<path fill="none" stroke="midnightblue" d="M500.34,-280.799C544.998,-270.751 620.302,-253.807 665.726,-243.587"/>
<polygon fill="midnightblue" stroke="midnightblue" points="499.479,-277.405 490.491,-283.015 501.015,-284.234 499.479,-277.405"/>
</g>
<!-- Node4&#45;&gt;Node3 -->
<g id="edge19" class="edge"><title>Node4&#45;&gt;Node3</title>
<path fill="none" stroke="midnightblue" d="M470.347,-253.691C470.996,-262.635 470.566,-272.927 469.056,-280.083"/>
<polygon fill="midnightblue" stroke="midnightblue" points="473.813,-253.2 469.021,-243.751 466.874,-254.126 473.813,-253.2"/>
</g>
<!-- Node6&#45;&gt;Node2 -->
<g id="edge20" class="edge"><title>Node6&#45;&gt;Node2</title>
<path fill="none" stroke="midnightblue" d="M765.522,-247.367C708.448,-269.87 588.983,-316.97 539.782,-336.368"/>
<polygon fill="midnightblue" stroke="midnightblue" points="767.08,-250.515 775.099,-243.591 764.512,-244.003 767.08,-250.515"/>
</g>
<!-- Node7&#45;&gt;Node2 -->
<g id="edge21" class="edge"><title>Node7&#45;&gt;Node2</title>
<path fill="none" stroke="midnightblue" d="M598.759,-251.362C578.302,-275.049 541.161,-318.055 525.344,-336.368"/>
<polygon fill="midnightblue" stroke="midnightblue" points="601.583,-253.447 605.47,-243.591 596.285,-248.872 601.583,-253.447"/>
</g>
<!-- Node7&#45;&gt;Node8 -->
<g id="edge22" class="edge"><title>Node7&#45;&gt;Node8</title>
<path fill="none" stroke="midnightblue" d="M576.057,-221.436C543.628,-211.255 497.153,-196.664 468.016,-187.516"/>
<polygon fill="midnightblue" stroke="midnightblue" points="575.047,-224.787 585.636,-224.444 577.143,-218.109 575.047,-224.787"/>
</g>
<!-- Node8&#45;&gt;Node9 -->
<g id="edge23" class="edge"><title>Node8&#45;&gt;Node9</title>
<path fill="none" stroke="midnightblue" d="M396.172,-166.024C354.614,-155.823 293.577,-140.841 255.586,-131.516"/>
<polygon fill="midnightblue" stroke="midnightblue" points="395.484,-169.459 406.03,-168.444 397.153,-162.661 395.484,-169.459"/>
</g>
<!-- Node8&#45;&gt;Node14 -->
<g id="edge24" class="edge"><title>Node8&#45;&gt;Node14</title>
<path fill="none" stroke="midnightblue" d="M428.944,-159.566C422.578,-150.275 415.023,-139.248 409.886,-131.751"/>
<polygon fill="midnightblue" stroke="midnightblue" points="426.24,-161.812 434.78,-168.083 432.015,-157.855 426.24,-161.812"/>
</g>
<!-- Node8&#45;&gt;Node15 -->
<g id="edge25" class="edge"><title>Node8&#45;&gt;Node15</title>
<path fill="none" stroke="midnightblue" d="M463.867,-162.901C480.003,-152.999 501.071,-140.071 514.786,-131.655"/>
<polygon fill="midnightblue" stroke="midnightblue" points="461.721,-160.111 455.029,-168.324 465.382,-166.077 461.721,-160.111"/>
</g>
<!-- Node9&#45;&gt;Node10 -->
<g id="edge26" class="edge"><title>Node9&#45;&gt;Node10</title>
<path fill="none" stroke="midnightblue" d="M209.59,-103.566C203.568,-94.2747 196.421,-83.2484 191.562,-75.7511"/>
<polygon fill="midnightblue" stroke="midnightblue" points="206.734,-105.595 215.11,-112.083 212.608,-101.788 206.734,-105.595"/>
</g>
<!-- Node9&#45;&gt;Node11 -->
<g id="edge27" class="edge"><title>Node9&#45;&gt;Node11</title>
<path fill="none" stroke="midnightblue" d="M260.654,-109.699C296.513,-99.507 348.461,-84.7429 380.925,-75.5164"/>
<polygon fill="midnightblue" stroke="midnightblue" points="259.658,-106.343 250.996,-112.444 261.572,-113.076 259.658,-106.343"/>
</g>
<!-- Node9&#45;&gt;Node12 -->
<g id="edge28" class="edge"><title>Node9&#45;&gt;Node12</title>
<path fill="none" stroke="midnightblue" d="M188.191,-108.906C160.742,-98.7536 122.222,-84.5063 97.9157,-75.5164"/>
<polygon fill="midnightblue" stroke="midnightblue" points="187.162,-112.257 197.756,-112.444 189.591,-105.692 187.162,-112.257"/>
</g>
<!-- Node9&#45;&gt;Node13 -->
<g id="edge29" class="edge"><title>Node9&#45;&gt;Node13</title>
<path fill="none" stroke="midnightblue" d="M241.791,-106.342C255.801,-96.5169 273.773,-83.9132 285.549,-75.6545"/>
<polygon fill="midnightblue" stroke="midnightblue" points="239.439,-103.717 233.261,-112.324 243.458,-109.448 239.439,-103.717"/>
</g>
<!-- Node10&#45;&gt;Node5 -->
<g id="edge30" class="edge"><title>Node10&#45;&gt;Node5</title>
<path fill="none" stroke="midnightblue" d="M213.138,-51.8622C233.906,-41.8492 261.913,-28.3458 279.94,-19.6545"/>
<polygon fill="midnightblue" stroke="midnightblue" points="211.372,-48.8282 203.885,-56.324 214.412,-55.1336 211.372,-48.8282"/>
</g>
<!-- Node13&#45;&gt;Node5 -->
<g id="edge31" class="edge"><title>Node13&#45;&gt;Node5</title>
<path fill="none" stroke="midnightblue" d="M297.89,-45.8045C297.89,-36.9102 297.89,-26.7798 297.89,-19.7511"/>
<polygon fill="midnightblue" stroke="midnightblue" points="294.39,-46.083 297.89,-56.083 301.39,-46.083 294.39,-46.083"/>
</g>
<!-- Node14&#45;&gt;Node5 -->
<g id="edge32" class="edge"><title>Node14&#45;&gt;Node5</title>
<path fill="none" stroke="midnightblue" d="M432.737,-107.805C456.113,-95.2726 482.899,-75.4988 467.89,-56 454.621,-38.7623 403.45,-26.7718 360.684,-19.528"/>
<polygon fill="midnightblue" stroke="midnightblue" points="431.04,-104.741 423.714,-112.395 434.214,-110.98 431.04,-104.741"/>
</g>
<!-- Node15&#45;&gt;Node5 -->
<g id="edge33" class="edge"><title>Node15&#45;&gt;Node5</title>
<path fill="none" stroke="midnightblue" d="M521.31,-103.117C514.093,-88.2619 501.817,-67.729 484.89,-56 449.071,-31.1816 401.177,-19.9726 362.826,-14.9471"/>
<polygon fill="midnightblue" stroke="midnightblue" points="518.167,-104.662 525.493,-112.316 524.539,-101.764 518.167,-104.662"/>
</g>
<!-- Node17&#45;&gt;Node2 -->
<g id="edge34" class="edge"><title>Node17&#45;&gt;Node2</title>
<path fill="none" stroke="midnightblue" d="M680.315,-248.942C641.325,-272.001 564.538,-317.412 532.485,-336.368"/>
<polygon fill="midnightblue" stroke="midnightblue" points="682.537,-251.694 689.362,-243.591 678.973,-245.669 682.537,-251.694"/>
</g>
<!-- Node17&#45;&gt;Node16 -->
<g id="edge35" class="edge"><title>Node17&#45;&gt;Node16</title>
<path fill="none" stroke="midnightblue" d="M686.995,-217.537C676.475,-207.909 663.321,-195.869 654.542,-187.834"/>
<polygon fill="midnightblue" stroke="midnightblue" points="684.671,-220.154 694.41,-224.324 689.397,-214.99 684.671,-220.154"/>
</g>
</g>
</svg>
