<?xml version="1.0" encoding="UTF-8" standalone="no"?>
<!DOCTYPE svg PUBLIC "-//W3C//DTD SVG 1.1//EN"
 "http://www.w3.org/Graphics/SVG/1.1/DTD/svg11.dtd">
<!-- Generated by graphviz version 2.40.1 (20161225.0304)
 -->
<!-- Title: scopeinfo.hpp Pages: 1 -->
<svg width="894pt" height="420pt"
 viewBox="0.00 0.00 893.50 420.00" xmlns="http://www.w3.org/2000/svg" xmlns:xlink="http://www.w3.org/1999/xlink">
<g id="graph0" class="graph" transform="scale(1 1) rotate(0) translate(4 416)">
<title>scopeinfo.hpp</title>
<polygon fill="#ffffff" stroke="transparent" points="-4,4 -4,-416 889.5,-416 889.5,4 -4,4"/>
<!-- Node85 -->
<g id="node1" class="node">
<title>Node85</title>
<polygon fill="#bfbfbf" stroke="#000000" points="484.5,-392.5 484.5,-411.5 561.5,-411.5 561.5,-392.5 484.5,-392.5"/>
<text text-anchor="middle" x="523" y="-399.5" font-family="Helvetica,sans-Serif" font-size="10.00" fill="#000000">scopeinfo.hpp</text>
</g>
<!-- Node86 -->
<g id="node2" class="node">
<title>Node86</title>
<g id="a_node2"><a xlink:href="lox_8hpp.html" target="_top" xlink:title="lox.hpp">
<polygon fill="#ffffff" stroke="#000000" points="526,-336.5 526,-355.5 574,-355.5 574,-336.5 526,-336.5"/>
<text text-anchor="middle" x="550" y="-343.5" font-family="Helvetica,sans-Serif" font-size="10.00" fill="#000000">lox.hpp</text>
</a>
</g>
</g>
<!-- Node85&#45;&gt;Node86 -->
<g id="edge1" class="edge">
<title>Node85&#45;&gt;Node86</title>
<path fill="none" stroke="#191970" d="M532.1396,-383.0437C536.5805,-373.8331 541.7265,-363.1598 545.3509,-355.6427"/>
<polygon fill="#191970" stroke="#191970" points="528.8934,-381.7178 527.703,-392.2455 535.1988,-384.7579 528.8934,-381.7178"/>
</g>
<!-- Node87 -->
<g id="node3" class="node">
<title>Node87</title>
<g id="a_node3"><a xlink:href="alox_8hpp.html" target="_top" xlink:title="alox.hpp">
<polygon fill="#ffffff" stroke="#000000" points="469.5,-280.5 469.5,-299.5 522.5,-299.5 522.5,-280.5 469.5,-280.5"/>
<text text-anchor="middle" x="496" y="-287.5" font-family="Helvetica,sans-Serif" font-size="10.00" fill="#000000">alox.hpp</text>
</a>
</g>
</g>
<!-- Node86&#45;&gt;Node87 -->
<g id="edge2" class="edge">
<title>Node86&#45;&gt;Node87</title>
<path fill="none" stroke="#191970" d="M527.7252,-329.3607C517.4465,-319.6727 506.3256,-307.7995 500.0532,-299.6427"/>
<polygon fill="#191970" stroke="#191970" points="525.5656,-332.1268 535.3271,-336.2455 530.2646,-326.9384 525.5656,-332.1268"/>
</g>
<!-- Node87&#45;&gt;Node85 -->
<g id="edge3" class="edge">
<title>Node87&#45;&gt;Node85</title>
<path fill="none" stroke="#191970" d="M500.6694,-309.3693C506.5085,-333.5908 516.2744,-374.1013 520.698,-392.4509"/>
<polygon fill="#191970" stroke="#191970" points="504.0424,-308.4261 498.2962,-299.5249 497.2373,-310.0667 504.0424,-308.4261"/>
</g>
<!-- Node87&#45;&gt;Node86 -->
<g id="edge4" class="edge">
<title>Node87&#45;&gt;Node86</title>
<path fill="none" stroke="#191970" d="M518.1342,-306.5069C528.4052,-316.1749 539.5443,-328.0549 545.8608,-336.2455"/>
<polygon fill="#191970" stroke="#191970" points="520.3081,-303.7539 510.5434,-299.6427 515.613,-308.9459 520.3081,-303.7539"/>
</g>
<!-- Node88 -->
<g id="node4" class="node">
<title>Node88</title>
<g id="a_node4"><a xlink:href="log_8hpp.html" target="_top" xlink:title="log.hpp">
<polygon fill="#ffffff" stroke="#000000" points="382,-224.5 382,-243.5 430,-243.5 430,-224.5 382,-224.5"/>
<text text-anchor="middle" x="406" y="-231.5" font-family="Helvetica,sans-Serif" font-size="10.00" fill="#000000">log.hpp</text>
</a>
</g>
</g>
<!-- Node87&#45;&gt;Node88 -->
<g id="edge5" class="edge">
<title>Node87&#45;&gt;Node88</title>
<path fill="none" stroke="#191970" d="M465.9163,-275.0465C448.7531,-265.0824 428.4455,-252.2794 416.252,-243.6427"/>
<polygon fill="#191970" stroke="#191970" points="464.6336,-278.3435 475.0564,-280.2455 468.0947,-272.2589 464.6336,-278.3435"/>
</g>
<!-- Node89 -->
<g id="node5" class="node">
<title>Node89</title>
<g id="a_node5"><a xlink:href="alox__console__loggers_8hpp.html" target="_top" xlink:title="alox_console_loggers.hpp">
<polygon fill="#ffffff" stroke="#000000" points="391.5,-.5 391.5,-19.5 520.5,-19.5 520.5,-.5 391.5,-.5"/>
<text text-anchor="middle" x="456" y="-7.5" font-family="Helvetica,sans-Serif" font-size="10.00" fill="#000000">alox_console_loggers.hpp</text>
</a>
</g>
</g>
<!-- Node87&#45;&gt;Node89 -->
<g id="edge6" class="edge">
<title>Node87&#45;&gt;Node89</title>
<path fill="none" stroke="#191970" d="M459.344,-281.2073C426.9035,-272.596 383.1718,-258.6639 373,-244 367.9337,-236.6963 371.1986,-232.7044 373,-224 387.5236,-153.8226 412.8156,-143.4605 437,-76 444.082,-56.2454 450.4067,-32.4581 453.6681,-19.5201"/>
<polygon fill="#191970" stroke="#191970" points="458.8654,-284.6985 469.423,-283.8103 460.6159,-277.9209 458.8654,-284.6985"/>
</g>
<!-- Node90 -->
<g id="node6" class="node">
<title>Node90</title>
<g id="a_node6"><a xlink:href="domain_8hpp.html" target="_top" xlink:title="domain.hpp">
<polygon fill="#ffffff" stroke="#000000" points="717.5,-224.5 717.5,-243.5 784.5,-243.5 784.5,-224.5 717.5,-224.5"/>
<text text-anchor="middle" x="751" y="-231.5" font-family="Helvetica,sans-Serif" font-size="10.00" fill="#000000">domain.hpp</text>
</a>
</g>
</g>
<!-- Node87&#45;&gt;Node90 -->
<g id="edge7" class="edge">
<title>Node87&#45;&gt;Node90</title>
<path fill="none" stroke="#191970" d="M532.4783,-282.3659C574.9372,-273.4238 647.1396,-258.0425 709,-244 711.6314,-243.4027 714.3533,-242.7756 717.0882,-242.1389"/>
<polygon fill="#191970" stroke="#191970" points="531.6706,-278.9592 522.6049,-284.4422 533.1112,-285.8093 531.6706,-278.9592"/>
</g>
<!-- Node91 -->
<g id="node7" class="node">
<title>Node91</title>
<g id="a_node7"><a xlink:href="logger_8hpp.html" target="_top" xlink:title="logger.hpp">
<polygon fill="#ffffff" stroke="#000000" points="638.5,-224.5 638.5,-243.5 699.5,-243.5 699.5,-224.5 638.5,-224.5"/>
<text text-anchor="middle" x="669" y="-231.5" font-family="Helvetica,sans-Serif" font-size="10.00" fill="#000000">logger.hpp</text>
</a>
</g>
</g>
<!-- Node87&#45;&gt;Node91 -->
<g id="edge8" class="edge">
<title>Node87&#45;&gt;Node91</title>
<path fill="none" stroke="#191970" d="M532.4577,-278.1987C564.264,-267.903 609.8294,-253.1535 639.4177,-243.5758"/>
<polygon fill="#191970" stroke="#191970" points="531.0882,-274.9631 522.6521,-281.3727 533.244,-281.6229 531.0882,-274.9631"/>
</g>
<!-- Node92 -->
<g id="node8" class="node">
<title>Node92</title>
<g id="a_node8"><a xlink:href="textlogger_8hpp.html" target="_top" xlink:title="textlogger.hpp">
<polygon fill="#ffffff" stroke="#000000" points="521.5,-168.5 521.5,-187.5 598.5,-187.5 598.5,-168.5 521.5,-168.5"/>
<text text-anchor="middle" x="560" y="-175.5" font-family="Helvetica,sans-Serif" font-size="10.00" fill="#000000">textlogger.hpp</text>
</a>
</g>
</g>
<!-- Node87&#45;&gt;Node92 -->
<g id="edge9" class="edge">
<title>Node87&#45;&gt;Node92</title>
<path fill="none" stroke="#191970" d="M506.5301,-271.5723C520.3075,-247.4618 543.9413,-206.1028 554.5572,-187.5249"/>
<polygon fill="#191970" stroke="#191970" points="503.3792,-270.032 501.4566,-280.4509 509.4569,-273.505 503.3792,-270.032"/>
</g>
<!-- Node93 -->
<g id="node9" class="node">
<title>Node93</title>
<g id="a_node9"><a xlink:href="plaintextlogger_8hpp.html" target="_top" xlink:title="plaintextlogger.hpp">
<polygon fill="#ffffff" stroke="#000000" points="190,-112.5 190,-131.5 288,-131.5 288,-112.5 190,-112.5"/>
<text text-anchor="middle" x="239" y="-119.5" font-family="Helvetica,sans-Serif" font-size="10.00" fill="#000000">plaintextlogger.hpp</text>
</a>
</g>
</g>
<!-- Node87&#45;&gt;Node93 -->
<g id="edge10" class="edge">
<title>Node87&#45;&gt;Node93</title>
<path fill="none" stroke="#191970" d="M459.1926,-284.9991C409.9977,-277.6976 326.1874,-262.9067 302,-244 263.8746,-214.1984 246.5994,-154.9467 241.0804,-131.6902"/>
<polygon fill="#191970" stroke="#191970" points="458.7317,-288.4688 469.1309,-286.4422 459.7377,-281.5414 458.7317,-288.4688"/>
</g>
<!-- Node94 -->
<g id="node10" class="node">
<title>Node94</title>
<g id="a_node10"><a xlink:href="consolelogger_8hpp.html" target="_top" xlink:title="consolelogger.hpp">
<polygon fill="#ffffff" stroke="#000000" points="108.5,-56.5 108.5,-75.5 203.5,-75.5 203.5,-56.5 108.5,-56.5"/>
<text text-anchor="middle" x="156" y="-63.5" font-family="Helvetica,sans-Serif" font-size="10.00" fill="#000000">consolelogger.hpp</text>
</a>
</g>
</g>
<!-- Node87&#45;&gt;Node94 -->
<g id="edge11" class="edge">
<title>Node87&#45;&gt;Node94</title>
<path fill="none" stroke="#191970" d="M459.272,-287.3564C378.4113,-281.1789 190.5954,-264.7358 171,-244 125.843,-196.2151 145.1904,-105.5031 153.1751,-75.7325"/>
<polygon fill="#191970" stroke="#191970" points="459.2572,-290.8651 469.4917,-288.1258 459.7828,-283.8848 459.2572,-290.8651"/>
</g>
<!-- Node95 -->
<g id="node11" class="node">
<title>Node95</title>
<g id="a_node11"><a xlink:href="memorylogger_8hpp.html" target="_top" xlink:title="memorylogger.hpp">
<polygon fill="#ffffff" stroke="#000000" points="222,-56.5 222,-75.5 318,-75.5 318,-56.5 222,-56.5"/>
<text text-anchor="middle" x="270" y="-63.5" font-family="Helvetica,sans-Serif" font-size="10.00" fill="#000000">memorylogger.hpp</text>
</a>
</g>
</g>
<!-- Node87&#45;&gt;Node95 -->
<g id="edge12" class="edge">
<title>Node87&#45;&gt;Node95</title>
<path fill="none" stroke="#191970" d="M459.3181,-283.2748C418.7911,-275.1575 356.9945,-260.5223 340,-244 295.7606,-200.9897 322.3194,-168.2667 297,-112 291.072,-98.8265 282.3427,-84.6266 276.4274,-75.5431"/>
<polygon fill="#191970" stroke="#191970" points="458.8884,-286.757 469.3745,-285.2433 460.2332,-279.8874 458.8884,-286.757"/>
</g>
<!-- Node96 -->
<g id="node12" class="node">
<title>Node96</title>
<g id="a_node12"><a xlink:href="textfilelogger_8hpp.html" target="_top" xlink:title="textfilelogger.hpp">
<polygon fill="#ffffff" stroke="#000000" points="0,-56.5 0,-75.5 90,-75.5 90,-56.5 0,-56.5"/>
<text text-anchor="middle" x="45" y="-63.5" font-family="Helvetica,sans-Serif" font-size="10.00" fill="#000000">textfilelogger.hpp</text>
</a>
</g>
</g>
<!-- Node87&#45;&gt;Node96 -->
<g id="edge13" class="edge">
<title>Node87&#45;&gt;Node96</title>
<path fill="none" stroke="#191970" d="M459.1521,-288.9801C381.4231,-286.2075 203.7364,-276.4097 154,-244 89.3339,-201.8617 56.8182,-106.619 47.7193,-75.8123"/>
<polygon fill="#191970" stroke="#191970" points="459.3207,-292.4877 469.4329,-289.3264 459.5564,-285.4917 459.3207,-292.4877"/>
</g>
<!-- Node97 -->
<g id="node13" class="node">
<title>Node97</title>
<g id="a_node13"><a xlink:href="vstudiologger_8hpp.html" target="_top" xlink:title="vstudiologger.hpp">
<polygon fill="#ffffff" stroke="#000000" points="336,-56.5 336,-75.5 428,-75.5 428,-56.5 336,-56.5"/>
<text text-anchor="middle" x="382" y="-63.5" font-family="Helvetica,sans-Serif" font-size="10.00" fill="#000000">vstudiologger.hpp</text>
</a>
</g>
</g>
<!-- Node87&#45;&gt;Node97 -->
<g id="edge14" class="edge">
<title>Node87&#45;&gt;Node97</title>
<path fill="none" stroke="#191970" d="M486.4748,-271.2838C463.2319,-225.6135 404.2448,-109.709 386.8802,-75.5891"/>
<polygon fill="#191970" stroke="#191970" points="483.4465,-273.0503 491.1016,-280.375 489.6851,-269.8753 483.4465,-273.0503"/>
</g>
<!-- Node98 -->
<g id="node14" class="node">
<title>Node98</title>
<g id="a_node14"><a xlink:href="ansilogger_8hpp.html" target="_top" xlink:title="ansilogger.hpp">
<polygon fill="#ffffff" stroke="#000000" points="587.5,-112.5 587.5,-131.5 666.5,-131.5 666.5,-112.5 587.5,-112.5"/>
<text text-anchor="middle" x="627" y="-119.5" font-family="Helvetica,sans-Serif" font-size="10.00" fill="#000000">ansilogger.hpp</text>
</a>
</g>
</g>
<!-- Node87&#45;&gt;Node98 -->
<g id="edge15" class="edge">
<title>Node87&#45;&gt;Node98</title>
<path fill="none" stroke="#191970" d="M519.1746,-274.5178C544.3227,-256.557 583.9597,-224.6739 607,-188 618.3373,-169.9541 623.5778,-145.0949 625.7188,-131.6217"/>
<polygon fill="#191970" stroke="#191970" points="517.1273,-271.6786 510.9346,-280.2752 521.1366,-277.4167 517.1273,-271.6786"/>
</g>
<!-- Node99 -->
<g id="node15" class="node">
<title>Node99</title>
<g id="a_node15"><a xlink:href="windowsconsolelogger_8hpp.html" target="_top" xlink:title="windowsconsolelogger.hpp">
<polygon fill="#ffffff" stroke="#000000" points="438.5,-112.5 438.5,-131.5 569.5,-131.5 569.5,-112.5 438.5,-112.5"/>
<text text-anchor="middle" x="504" y="-119.5" font-family="Helvetica,sans-Serif" font-size="10.00" fill="#000000">windowsconsolelogger.hpp</text>
</a>
</g>
</g>
<!-- Node87&#45;&gt;Node99 -->
<g id="edge16" class="edge">
<title>Node87&#45;&gt;Node99</title>
<path fill="none" stroke="#191970" d="M496.94,-270.2601C498.6587,-234.1669 502.2493,-158.7656 503.532,-131.8279"/>
<polygon fill="#191970" stroke="#191970" points="493.4327,-270.331 496.453,-280.4862 500.4248,-270.6641 493.4327,-270.331"/>
</g>
<!-- Node100 -->
<g id="node16" class="node">
<title>Node100</title>
<g id="a_node16"><a xlink:href="scopedump_8hpp.html" target="_top" xlink:title="scopedump.hpp">
<polygon fill="#ffffff" stroke="#000000" points="729,-168.5 729,-187.5 815,-187.5 815,-168.5 729,-168.5"/>
<text text-anchor="middle" x="772" y="-175.5" font-family="Helvetica,sans-Serif" font-size="10.00" fill="#000000">scopedump.hpp</text>
</a>
</g>
</g>
<!-- Node87&#45;&gt;Node100 -->
<g id="edge17" class="edge">
<title>Node87&#45;&gt;Node100</title>
<path fill="none" stroke="#191970" d="M523.6502,-275.7928C556.5004,-259.0182 609.4414,-232.342 630,-224 666.1389,-209.336 708.8637,-196.0154 737.9407,-187.5267"/>
<polygon fill="#191970" stroke="#191970" points="521.8681,-272.773 514.5598,-280.4437 525.0565,-279.0047 521.8681,-272.773"/>
</g>
<!-- Node101 -->
<g id="node17" class="node">
<title>Node101</title>
<g id="a_node17"><a xlink:href="scopestore_8hpp.html" target="_top" xlink:title="scopestore.hpp">
<polygon fill="#ffffff" stroke="#000000" points="802.5,-224.5 802.5,-243.5 885.5,-243.5 885.5,-224.5 802.5,-224.5"/>
<text text-anchor="middle" x="844" y="-231.5" font-family="Helvetica,sans-Serif" font-size="10.00" fill="#000000">scopestore.hpp</text>
</a>
</g>
</g>
<!-- Node87&#45;&gt;Node101 -->
<g id="edge18" class="edge">
<title>Node87&#45;&gt;Node101</title>
<path fill="none" stroke="#191970" d="M532.9887,-284.8273C589.4076,-276.8163 700.2961,-260.5942 794,-244 796.7022,-243.5215 799.4832,-243.0122 802.2842,-242.4866"/>
<polygon fill="#191970" stroke="#191970" points="532.1893,-281.4055 522.7782,-286.2718 533.1699,-288.3365 532.1893,-281.4055"/>
</g>
<!-- Node102 -->
<g id="node18" class="node">
<title>Node102</title>
<g id="a_node18"><a xlink:href="logtools_8hpp.html" target="_top" xlink:title="logtools.hpp">
<polygon fill="#ffffff" stroke="#000000" points="180.5,-224.5 180.5,-243.5 249.5,-243.5 249.5,-224.5 180.5,-224.5"/>
<text text-anchor="middle" x="215" y="-231.5" font-family="Helvetica,sans-Serif" font-size="10.00" fill="#000000">logtools.hpp</text>
</a>
</g>
</g>
<!-- Node87&#45;&gt;Node102 -->
<g id="edge19" class="edge">
<title>Node87&#45;&gt;Node102</title>
<path fill="none" stroke="#191970" d="M459.1549,-282.7604C413.3831,-273.7516 332.9039,-257.8619 264,-244 259.3185,-243.0582 254.3869,-242.0595 249.5287,-241.0718"/>
<polygon fill="#191970" stroke="#191970" points="458.7099,-286.2398 469.1974,-284.7361 460.0612,-279.3715 458.7099,-286.2398"/>
</g>
<!-- Node88&#45;&gt;Node87 -->
<g id="edge20" class="edge">
<title>Node88&#45;&gt;Node87</title>
<path fill="none" stroke="#191970" d="M435.8622,-248.825C452.9981,-258.7645 473.3269,-271.5731 485.59,-280.2455"/>
<polygon fill="#191970" stroke="#191970" points="437.1658,-245.5402 426.7423,-243.6427 433.7075,-251.6262 437.1658,-245.5402"/>
</g>
<!-- Node90&#45;&gt;Node86 -->
<g id="edge21" class="edge">
<title>Node90&#45;&gt;Node86</title>
<path fill="none" stroke="#191970" d="M725.1563,-248.4005C683.4562,-271.6363 602.4416,-316.7788 567.1371,-336.4509"/>
<polygon fill="#191970" stroke="#191970" points="726.8744,-251.4498 733.9062,-243.5249 723.4672,-245.335 726.8744,-251.4498"/>
</g>
<!-- Node91&#45;&gt;Node86 -->
<g id="edge22" class="edge">
<title>Node91&#45;&gt;Node86</title>
<path fill="none" stroke="#191970" d="M651.462,-250.5063C626.2134,-274.2697 580.4328,-317.3574 560.1459,-336.4509"/>
<polygon fill="#191970" stroke="#191970" points="653.9966,-252.9273 658.8798,-243.5249 649.199,-247.8299 653.9966,-252.9273"/>
</g>
<!-- Node91&#45;&gt;Node92 -->
<g id="edge23" class="edge">
<title>Node91&#45;&gt;Node92</title>
<path fill="none" stroke="#191970" d="M640.9658,-219.5971C621.4254,-209.558 595.8908,-196.4393 578.7688,-187.6427"/>
<polygon fill="#191970" stroke="#191970" points="639.5194,-222.7889 650.0136,-224.2455 642.7183,-216.5625 639.5194,-222.7889"/>
</g>
<!-- Node92&#45;&gt;Node93 -->
<g id="edge24" class="edge">
<title>Node92&#45;&gt;Node93</title>
<path fill="none" stroke="#191970" d="M511.2383,-169.4933C450.8644,-158.9608 348.6205,-141.1238 288.0935,-130.5646"/>
<polygon fill="#191970" stroke="#191970" points="510.8271,-172.9743 521.2799,-171.2451 512.0302,-166.0785 510.8271,-172.9743"/>
</g>
<!-- Node92&#45;&gt;Node98 -->
<g id="edge25" class="edge">
<title>Node92&#45;&gt;Node98</title>
<path fill="none" stroke="#191970" d="M579.5676,-161.645C591.2198,-151.9058 605.6084,-139.8795 615.4632,-131.6427"/>
<polygon fill="#191970" stroke="#191970" points="577.0988,-159.1469 571.6705,-168.2455 581.5879,-164.5179 577.0988,-159.1469"/>
</g>
<!-- Node92&#45;&gt;Node99 -->
<g id="edge26" class="edge">
<title>Node92&#45;&gt;Node99</title>
<path fill="none" stroke="#191970" d="M543.0751,-161.0751C533.4402,-151.4402 521.7196,-139.7196 513.6427,-131.6427"/>
<polygon fill="#191970" stroke="#191970" points="540.6996,-163.6493 550.2455,-168.2455 545.6493,-158.6996 540.6996,-163.6493"/>
</g>
<!-- Node93&#45;&gt;Node94 -->
<g id="edge27" class="edge">
<title>Node93&#45;&gt;Node94</title>
<path fill="none" stroke="#191970" d="M216.012,-106.49C201.3678,-96.6096 182.8556,-84.1194 170.2918,-75.6427"/>
<polygon fill="#191970" stroke="#191970" points="214.2953,-109.5539 224.5425,-112.2455 218.2104,-103.7511 214.2953,-109.5539"/>
</g>
<!-- Node93&#45;&gt;Node95 -->
<g id="edge28" class="edge">
<title>Node93&#45;&gt;Node95</title>
<path fill="none" stroke="#191970" d="M249.3312,-103.3372C254.4665,-94.0605 260.4566,-83.2398 264.6621,-75.6427"/>
<polygon fill="#191970" stroke="#191970" points="246.1809,-101.8015 244.3998,-112.2455 252.3051,-105.1917 246.1809,-101.8015"/>
</g>
<!-- Node93&#45;&gt;Node96 -->
<g id="edge29" class="edge">
<title>Node93&#45;&gt;Node96</title>
<path fill="none" stroke="#191970" d="M196.002,-109.5882C160.3592,-99.2996 110.4386,-84.8895 77.9146,-75.5011"/>
<polygon fill="#191970" stroke="#191970" points="195.0718,-112.9625 205.6502,-112.3733 197.0132,-106.2371 195.0718,-112.9625"/>
</g>
<!-- Node93&#45;&gt;Node97 -->
<g id="edge30" class="edge">
<title>Node93&#45;&gt;Node97</title>
<path fill="none" stroke="#191970" d="M273.0798,-108.6541C299.1573,-98.4419 334.4815,-84.6086 357.7382,-75.5011"/>
<polygon fill="#191970" stroke="#191970" points="271.6178,-105.4677 263.5826,-112.3733 274.1703,-111.9858 271.6178,-105.4677"/>
</g>
<!-- Node94&#45;&gt;Node89 -->
<g id="edge31" class="edge">
<title>Node94&#45;&gt;Node89</title>
<path fill="none" stroke="#191970" d="M213.5404,-55.2591C268.9091,-44.9236 351.8331,-29.4445 404.9226,-19.5345"/>
<polygon fill="#191970" stroke="#191970" points="212.7238,-51.851 203.5359,-57.1266 214.0084,-58.7322 212.7238,-51.851"/>
</g>
<!-- Node97&#45;&gt;Node89 -->
<g id="edge32" class="edge">
<title>Node97&#45;&gt;Node89</title>
<path fill="none" stroke="#191970" d="M402.8657,-50.2097C415.8625,-40.3743 432.1622,-28.0394 443.2579,-19.6427"/>
<polygon fill="#191970" stroke="#191970" points="400.7518,-47.4201 394.8898,-56.2455 404.976,-53.002 400.7518,-47.4201"/>
</g>
<!-- Node98&#45;&gt;Node89 -->
<g id="edge33" class="edge">
<title>Node98&#45;&gt;Node89</title>
<path fill="none" stroke="#191970" d="M603.6116,-106.6813C567.735,-83.1832 500.1675,-38.9284 470.5425,-19.5249"/>
<polygon fill="#191970" stroke="#191970" points="602.1375,-109.8997 612.4206,-112.4509 605.9729,-104.0439 602.1375,-109.8997"/>
</g>
<!-- Node99&#45;&gt;Node89 -->
<g id="edge34" class="edge">
<title>Node99&#45;&gt;Node89</title>
<path fill="none" stroke="#191970" d="M495.9642,-103.2498C485.612,-79.0946 468.0087,-38.0202 460.0821,-19.5249"/>
<polygon fill="#191970" stroke="#191970" points="492.7513,-104.6382 499.9075,-112.4509 499.1853,-101.8807 492.7513,-104.6382"/>
</g>
<!-- Node101&#45;&gt;Node86 -->
<g id="edge35" class="edge">
<title>Node101&#45;&gt;Node86</title>
<path fill="none" stroke="#191970" d="M809.2949,-247.221C748.9149,-270.2229 626.0225,-317.039 574.0593,-336.8346"/>
<polygon fill="#191970" stroke="#191970" points="810.6759,-250.4403 818.7748,-243.6096 808.1839,-243.8989 810.6759,-250.4403"/>
</g>
<!-- Node101&#45;&gt;Node100 -->
<g id="edge36" class="edge">
<title>Node101&#45;&gt;Node100</title>
<path fill="none" stroke="#191970" d="M823.336,-217.928C810.7511,-208.1397 795.0908,-195.9595 784.3977,-187.6427"/>
<polygon fill="#191970" stroke="#191970" points="821.4162,-220.8688 831.4586,-224.2455 825.7138,-215.3434 821.4162,-220.8688"/>
</g>
</g>
</svg>
