<?xml version="1.0" encoding="UTF-8" standalone="no"?>
<!DOCTYPE svg PUBLIC "-//W3C//DTD SVG 1.1//EN"
 "http://www.w3.org/Graphics/SVG/1.1/DTD/svg11.dtd">
<!-- Generated by graphviz version 2.38.0 (20140413.2041)
 -->
<!-- Title: scopestore.hpp Pages: 1 -->
<svg width="841pt" height="420pt"
 viewBox="0.00 0.00 840.50 420.00" xmlns="http://www.w3.org/2000/svg" xmlns:xlink="http://www.w3.org/1999/xlink">
<g id="graph0" class="graph" transform="scale(1 1) rotate(0) translate(4 416)">
<title>scopestore.hpp</title>
<polygon fill="white" stroke="none" points="-4,4 -4,-416 836.5,-416 836.5,4 -4,4"/>
<!-- Node1 -->
<g id="node1" class="node"><title>Node1</title>
<polygon fill="#bfbfbf" stroke="black" points="357,-392.5 357,-411.5 440,-411.5 440,-392.5 357,-392.5"/>
<text text-anchor="middle" x="398.5" y="-399.5" font-family="Helvetica,sans-Serif" font-size="10.00">scopestore.hpp</text>
</g>
<!-- Node2 -->
<g id="node2" class="node"><title>Node2</title>
<g id="a_node2"><a xlink:href="lox_8hpp.html" target="_top" xlink:title="lox.hpp">
<polygon fill="white" stroke="black" points="321.5,-336.5 321.5,-355.5 369.5,-355.5 369.5,-336.5 321.5,-336.5"/>
<text text-anchor="middle" x="345.5" y="-343.5" font-family="Helvetica,sans-Serif" font-size="10.00">lox.hpp</text>
</a>
</g>
</g>
<!-- Node1&#45;&gt;Node2 -->
<g id="edge1" class="edge"><title>Node1&#45;&gt;Node2</title>
<path fill="none" stroke="midnightblue" d="M382.519,-384.718C373.178,-375.2 361.754,-363.561 354.089,-355.751"/>
<polygon fill="midnightblue" stroke="midnightblue" points="380.246,-387.398 389.748,-392.083 385.241,-382.494 380.246,-387.398"/>
</g>
<!-- Node16 -->
<g id="node16" class="node"><title>Node16</title>
<g id="a_node16"><a xlink:href="scopedump_8hpp.html" target="_top" xlink:title="scopedump.hpp">
<polygon fill="white" stroke="black" points="746.5,-224.5 746.5,-243.5 832.5,-243.5 832.5,-224.5 746.5,-224.5"/>
<text text-anchor="middle" x="789.5" y="-231.5" font-family="Helvetica,sans-Serif" font-size="10.00">scopedump.hpp</text>
</a>
</g>
</g>
<!-- Node1&#45;&gt;Node16 -->
<g id="edge35" class="edge"><title>Node1&#45;&gt;Node16</title>
<path fill="none" stroke="midnightblue" d="M428.166,-388.405C504.216,-356.118 704.674,-271.013 769.188,-243.624"/>
<polygon fill="midnightblue" stroke="midnightblue" points="426.536,-385.295 418.699,-392.425 429.271,-391.738 426.536,-385.295"/>
</g>
<!-- Node3 -->
<g id="node3" class="node"><title>Node3</title>
<g id="a_node3"><a xlink:href="alox_8hpp.html" target="_top" xlink:title="alox.hpp">
<polygon fill="white" stroke="black" points="372,-280.5 372,-299.5 425,-299.5 425,-280.5 372,-280.5"/>
<text text-anchor="middle" x="398.5" y="-287.5" font-family="Helvetica,sans-Serif" font-size="10.00">alox.hpp</text>
</a>
</g>
</g>
<!-- Node2&#45;&gt;Node3 -->
<g id="edge2" class="edge"><title>Node2&#45;&gt;Node3</title>
<path fill="none" stroke="midnightblue" d="M355.736,-328.144C364.111,-318.736 375.625,-307.405 384.78,-299.751"/>
<polygon fill="midnightblue" stroke="midnightblue" points="352.824,-326.17 349.086,-336.083 358.19,-330.665 352.824,-326.17"/>
</g>
<!-- Node3&#45;&gt;Node1 -->
<g id="edge24" class="edge"><title>Node3&#45;&gt;Node1</title>
<path fill="none" stroke="midnightblue" d="M398.5,-309.597C398.5,-333.666 398.5,-374.617 398.5,-392.368"/>
<polygon fill="midnightblue" stroke="midnightblue" points="402,-309.591 398.5,-299.591 395,-309.591 402,-309.591"/>
</g>
<!-- Node3&#45;&gt;Node2 -->
<g id="edge5" class="edge"><title>Node3&#45;&gt;Node2</title>
<path fill="none" stroke="midnightblue" d="M388.57,-307.511C380.144,-317.017 368.412,-328.576 359.13,-336.324"/>
<polygon fill="midnightblue" stroke="midnightblue" points="391.257,-309.754 394.978,-299.834 385.883,-305.268 391.257,-309.754"/>
</g>
<!-- Node4 -->
<g id="node4" class="node"><title>Node4</title>
<g id="a_node4"><a xlink:href="log_8hpp.html" target="_top" xlink:title="log.hpp">
<polygon fill="white" stroke="black" points="374.5,-224.5 374.5,-243.5 422.5,-243.5 422.5,-224.5 374.5,-224.5"/>
<text text-anchor="middle" x="398.5" y="-231.5" font-family="Helvetica,sans-Serif" font-size="10.00">log.hpp</text>
</a>
</g>
</g>
<!-- Node3&#45;&gt;Node4 -->
<g id="edge3" class="edge"><title>Node3&#45;&gt;Node4</title>
<path fill="none" stroke="midnightblue" d="M392.028,-270.101C391.396,-261.136 391.843,-250.858 393.369,-243.751"/>
<polygon fill="midnightblue" stroke="midnightblue" points="388.566,-270.622 393.334,-280.083 395.507,-269.713 388.566,-270.622"/>
</g>
<!-- Node5 -->
<g id="node5" class="node"><title>Node5</title>
<g id="a_node5"><a xlink:href="alox__console__loggers_8hpp.html" target="_top" xlink:title="alox_console_loggers.hpp">
<polygon fill="white" stroke="black" points="275,-0.5 275,-19.5 404,-19.5 404,-0.5 275,-0.5"/>
<text text-anchor="middle" x="339.5" y="-7.5" font-family="Helvetica,sans-Serif" font-size="10.00">alox_console_loggers.hpp</text>
</a>
</g>
</g>
<!-- Node3&#45;&gt;Node5 -->
<g id="edge6" class="edge"><title>Node3&#45;&gt;Node5</title>
<path fill="none" stroke="midnightblue" d="M380.164,-273.8C360.077,-255.785 329.164,-223.677 317.5,-188 297.196,-125.897 325.307,-45.9245 335.818,-19.7279"/>
<polygon fill="midnightblue" stroke="midnightblue" points="377.928,-276.495 387.771,-280.416 382.522,-271.213 377.928,-276.495"/>
</g>
<!-- Node6 -->
<g id="node6" class="node"><title>Node6</title>
<g id="a_node6"><a xlink:href="domain_8hpp.html" target="_top" xlink:title="domain.hpp">
<polygon fill="white" stroke="black" points="0,-224.5 0,-243.5 67,-243.5 67,-224.5 0,-224.5"/>
<text text-anchor="middle" x="33.5" y="-231.5" font-family="Helvetica,sans-Serif" font-size="10.00">domain.hpp</text>
</a>
</g>
</g>
<!-- Node3&#45;&gt;Node6 -->
<g id="edge7" class="edge"><title>Node3&#45;&gt;Node6</title>
<path fill="none" stroke="midnightblue" d="M361.449,-284.727C301.261,-277.585 178.591,-262.202 75.5,-244 72.8563,-243.533 70.1256,-243.02 67.3846,-242.482"/>
<polygon fill="midnightblue" stroke="midnightblue" points="361.256,-288.228 371.597,-285.923 362.076,-281.276 361.256,-288.228"/>
</g>
<!-- Node7 -->
<g id="node7" class="node"><title>Node7</title>
<g id="a_node7"><a xlink:href="logger_8hpp.html" target="_top" xlink:title="logger.hpp">
<polygon fill="white" stroke="black" points="218.5,-224.5 218.5,-243.5 280.5,-243.5 280.5,-224.5 218.5,-224.5"/>
<text text-anchor="middle" x="249.5" y="-231.5" font-family="Helvetica,sans-Serif" font-size="10.00">logger.hpp</text>
</a>
</g>
</g>
<!-- Node3&#45;&gt;Node7 -->
<g id="edge9" class="edge"><title>Node3&#45;&gt;Node7</title>
<path fill="none" stroke="midnightblue" d="M365.129,-276.906C337.116,-266.754 297.804,-252.506 272.999,-243.516"/>
<polygon fill="midnightblue" stroke="midnightblue" points="364.296,-280.327 374.891,-280.444 366.681,-273.746 364.296,-280.327"/>
</g>
<!-- Node8 -->
<g id="node8" class="node"><title>Node8</title>
<g id="a_node8"><a xlink:href="textlogger_8hpp.html" target="_top" xlink:title="textlogger.hpp">
<polygon fill="white" stroke="black" points="326.5,-168.5 326.5,-187.5 404.5,-187.5 404.5,-168.5 326.5,-168.5"/>
<text text-anchor="middle" x="365.5" y="-175.5" font-family="Helvetica,sans-Serif" font-size="10.00">textlogger.hpp</text>
</a>
</g>
</g>
<!-- Node3&#45;&gt;Node8 -->
<g id="edge28" class="edge"><title>Node3&#45;&gt;Node8</title>
<path fill="none" stroke="midnightblue" d="M382.786,-272.883C376.073,-264.883 368.99,-254.66 365.5,-244 359.18,-224.696 361.748,-200.403 363.829,-187.681"/>
<polygon fill="midnightblue" stroke="midnightblue" points="380.195,-275.237 389.48,-280.34 385.404,-270.561 380.195,-275.237"/>
</g>
<!-- Node9 -->
<g id="node9" class="node"><title>Node9</title>
<g id="a_node9"><a xlink:href="plaintextlogger_8hpp.html" target="_top" xlink:title="plaintextlogger.hpp">
<polygon fill="white" stroke="black" points="554.5,-112.5 554.5,-131.5 652.5,-131.5 652.5,-112.5 554.5,-112.5"/>
<text text-anchor="middle" x="603.5" y="-119.5" font-family="Helvetica,sans-Serif" font-size="10.00">plaintextlogger.hpp</text>
</a>
</g>
</g>
<!-- Node3&#45;&gt;Node9 -->
<g id="edge27" class="edge"><title>Node3&#45;&gt;Node9</title>
<path fill="none" stroke="midnightblue" d="M435.242,-285.215C466.346,-280.321 510.527,-269.186 540.5,-244 577.671,-212.766 595.709,-153.964 601.421,-131.775"/>
<polygon fill="midnightblue" stroke="midnightblue" points="434.638,-281.766 425.235,-286.647 435.63,-288.695 434.638,-281.766"/>
</g>
<!-- Node10 -->
<g id="node10" class="node"><title>Node10</title>
<g id="a_node10"><a xlink:href="consolelogger_8hpp.html" target="_top" xlink:title="consolelogger.hpp">
<polygon fill="white" stroke="black" points="479,-56.5 479,-75.5 574,-75.5 574,-56.5 479,-56.5"/>
<text text-anchor="middle" x="526.5" y="-63.5" font-family="Helvetica,sans-Serif" font-size="10.00">consolelogger.hpp</text>
</a>
</g>
</g>
<!-- Node3&#45;&gt;Node10 -->
<g id="edge30" class="edge"><title>Node3&#45;&gt;Node10</title>
<path fill="none" stroke="midnightblue" d="M427.096,-275.68C440.688,-268.085 456.18,-257.393 466.5,-244 508.683,-189.255 522.207,-103.076 525.561,-75.6701"/>
<polygon fill="midnightblue" stroke="midnightblue" points="425.288,-272.676 418.077,-280.438 428.555,-278.867 425.288,-272.676"/>
</g>
<!-- Node11 -->
<g id="node11" class="node"><title>Node11</title>
<g id="a_node11"><a xlink:href="memorylogger_8hpp.html" target="_top" xlink:title="memorylogger.hpp">
<polygon fill="white" stroke="black" points="592,-56.5 592,-75.5 689,-75.5 689,-56.5 592,-56.5"/>
<text text-anchor="middle" x="640.5" y="-63.5" font-family="Helvetica,sans-Serif" font-size="10.00">memorylogger.hpp</text>
</a>
</g>
</g>
<!-- Node3&#45;&gt;Node11 -->
<g id="edge31" class="edge"><title>Node3&#45;&gt;Node11</title>
<path fill="none" stroke="midnightblue" d="M435.501,-285.269C470.894,-280.311 524.629,-269.046 564.5,-244 620.262,-208.971 638.495,-193.702 661.5,-132 668.874,-112.221 655.841,-88.5223 647.214,-75.9171"/>
<polygon fill="midnightblue" stroke="midnightblue" points="434.608,-281.855 425.142,-286.613 435.51,-288.797 434.608,-281.855"/>
</g>
<!-- Node12 -->
<g id="node12" class="node"><title>Node12</title>
<g id="a_node12"><a xlink:href="textfilelogger_8hpp.html" target="_top" xlink:title="textfilelogger.hpp">
<polygon fill="white" stroke="black" points="707,-56.5 707,-75.5 798,-75.5 798,-56.5 707,-56.5"/>
<text text-anchor="middle" x="752.5" y="-63.5" font-family="Helvetica,sans-Serif" font-size="10.00">textfilelogger.hpp</text>
</a>
</g>
</g>
<!-- Node3&#45;&gt;Node12 -->
<g id="edge32" class="edge"><title>Node3&#45;&gt;Node12</title>
<path fill="none" stroke="midnightblue" d="M435.241,-286.157C475.961,-281.763 542.597,-270.808 593.5,-244 672.444,-202.424 731.364,-104.999 747.85,-75.5683"/>
<polygon fill="midnightblue" stroke="midnightblue" points="434.825,-282.682 425.224,-287.162 435.523,-289.647 434.825,-282.682"/>
</g>
<!-- Node13 -->
<g id="node13" class="node"><title>Node13</title>
<g id="a_node13"><a xlink:href="vstudiologger_8hpp.html" target="_top" xlink:title="vstudiologger.hpp">
<polygon fill="white" stroke="black" points="368,-56.5 368,-75.5 461,-75.5 461,-56.5 368,-56.5"/>
<text text-anchor="middle" x="414.5" y="-63.5" font-family="Helvetica,sans-Serif" font-size="10.00">vstudiologger.hpp</text>
</a>
</g>
</g>
<!-- Node3&#45;&gt;Node13 -->
<g id="edge33" class="edge"><title>Node3&#45;&gt;Node13</title>
<path fill="none" stroke="midnightblue" d="M420.165,-274.145C429.985,-266.3 440.86,-255.844 447.5,-244 472.306,-199.75 464.588,-182.491 469.5,-132 470.361,-123.153 473.306,-120.033 469.5,-112 461.734,-95.6111 444.751,-83.2061 431.698,-75.6136"/>
<polygon fill="midnightblue" stroke="midnightblue" points="417.824,-271.526 411.94,-280.336 422.034,-277.119 417.824,-271.526"/>
</g>
<!-- Node14 -->
<g id="node14" class="node"><title>Node14</title>
<g id="a_node14"><a xlink:href="ansilogger_8hpp.html" target="_top" xlink:title="ansilogger.hpp">
<polygon fill="white" stroke="black" points="190.5,-112.5 190.5,-131.5 270.5,-131.5 270.5,-112.5 190.5,-112.5"/>
<text text-anchor="middle" x="230.5" y="-119.5" font-family="Helvetica,sans-Serif" font-size="10.00">ansilogger.hpp</text>
</a>
</g>
</g>
<!-- Node3&#45;&gt;Node14 -->
<g id="edge29" class="edge"><title>Node3&#45;&gt;Node14</title>
<path fill="none" stroke="midnightblue" d="M362.001,-285.603C312.512,-280.156 228.14,-267.599 209.5,-244 182.541,-209.868 211.883,-153.298 224.916,-131.724"/>
<polygon fill="midnightblue" stroke="midnightblue" points="361.683,-289.089 371.995,-286.659 362.418,-282.127 361.683,-289.089"/>
</g>
<!-- Node15 -->
<g id="node15" class="node"><title>Node15</title>
<g id="a_node15"><a xlink:href="windowsconsolelogger_8hpp.html" target="_top" xlink:title="windowsconsolelogger.hpp">
<polygon fill="white" stroke="black" points="326.5,-112.5 326.5,-131.5 460.5,-131.5 460.5,-112.5 326.5,-112.5"/>
<text text-anchor="middle" x="393.5" y="-119.5" font-family="Helvetica,sans-Serif" font-size="10.00">windowsconsolelogger.hpp</text>
</a>
</g>
</g>
<!-- Node3&#45;&gt;Node15 -->
<g id="edge34" class="edge"><title>Node3&#45;&gt;Node15</title>
<path fill="none" stroke="midnightblue" d="M414.214,-272.883C420.927,-264.883 428.01,-254.66 431.5,-244 445.269,-201.939 413.991,-151.334 399.915,-131.531"/>
<polygon fill="midnightblue" stroke="midnightblue" points="411.596,-270.561 407.52,-280.34 416.805,-275.237 411.596,-270.561"/>
</g>
<!-- Node3&#45;&gt;Node16 -->
<g id="edge23" class="edge"><title>Node3&#45;&gt;Node16</title>
<path fill="none" stroke="midnightblue" d="M435.382,-284.309C496.984,-276.411 624.686,-259.772 732.5,-244 736.961,-243.347 741.615,-242.646 746.256,-241.934"/>
<polygon fill="midnightblue" stroke="midnightblue" points="434.846,-280.849 425.371,-285.59 435.734,-287.792 434.846,-280.849"/>
</g>
<!-- Node17 -->
<g id="node17" class="node"><title>Node17</title>
<g id="a_node17"><a xlink:href="scopeinfo_8hpp.html" target="_top" xlink:title="scopeinfo.hpp">
<polygon fill="white" stroke="black" points="85,-224.5 85,-243.5 162,-243.5 162,-224.5 85,-224.5"/>
<text text-anchor="middle" x="123.5" y="-231.5" font-family="Helvetica,sans-Serif" font-size="10.00">scopeinfo.hpp</text>
</a>
</g>
</g>
<!-- Node3&#45;&gt;Node17 -->
<g id="edge25" class="edge"><title>Node3&#45;&gt;Node17</title>
<path fill="none" stroke="midnightblue" d="M361.787,-281.791C309.882,-271.599 215.47,-253.06 162.4,-242.639"/>
<polygon fill="midnightblue" stroke="midnightblue" points="361.395,-285.281 371.882,-283.773 362.744,-278.412 361.395,-285.281"/>
</g>
<!-- Node4&#45;&gt;Node3 -->
<g id="edge4" class="edge"><title>Node4&#45;&gt;Node3</title>
<path fill="none" stroke="midnightblue" d="M404.958,-253.691C405.606,-262.635 405.176,-272.927 403.666,-280.083"/>
<polygon fill="midnightblue" stroke="midnightblue" points="408.423,-253.2 403.631,-243.751 401.485,-254.126 408.423,-253.2"/>
</g>
<!-- Node6&#45;&gt;Node2 -->
<g id="edge8" class="edge"><title>Node6&#45;&gt;Node2</title>
<path fill="none" stroke="midnightblue" d="M65.5731,-246.998C101.143,-260.238 160.275,-282.049 211.5,-300 249.714,-313.391 294.334,-328.214 321.227,-337.06"/>
<polygon fill="midnightblue" stroke="midnightblue" points="66.7842,-243.715 56.1915,-243.502 64.3395,-250.274 66.7842,-243.715"/>
</g>
<!-- Node7&#45;&gt;Node2 -->
<g id="edge10" class="edge"><title>Node7&#45;&gt;Node2</title>
<path fill="none" stroke="midnightblue" d="M263.78,-251.362C284.452,-275.049 321.984,-318.055 337.967,-336.368"/>
<polygon fill="midnightblue" stroke="midnightblue" points="266.21,-248.824 256.998,-243.591 260.936,-253.427 266.21,-248.824"/>
</g>
<!-- Node7&#45;&gt;Node8 -->
<g id="edge11" class="edge"><title>Node7&#45;&gt;Node8</title>
<path fill="none" stroke="midnightblue" d="M277.22,-220.096C298.892,-210.007 328.402,-196.27 347.205,-187.516"/>
<polygon fill="midnightblue" stroke="midnightblue" points="275.469,-217.05 267.881,-224.444 278.423,-223.396 275.469,-217.05"/>
</g>
<!-- Node8&#45;&gt;Node9 -->
<g id="edge12" class="edge"><title>Node8&#45;&gt;Node9</title>
<path fill="none" stroke="midnightblue" d="M413.024,-166.217C457.996,-156.013 524.605,-140.901 565.965,-131.516"/>
<polygon fill="midnightblue" stroke="midnightblue" points="412.189,-162.818 403.212,-168.444 413.738,-169.644 412.189,-162.818"/>
</g>
<!-- Node8&#45;&gt;Node14 -->
<g id="edge19" class="edge"><title>Node8&#45;&gt;Node14</title>
<path fill="none" stroke="midnightblue" d="M334.594,-164.638C309.26,-154.504 274.069,-140.427 251.791,-131.516"/>
<polygon fill="midnightblue" stroke="midnightblue" points="333.524,-167.979 344.109,-168.444 336.124,-161.48 333.524,-167.979"/>
</g>
<!-- Node8&#45;&gt;Node15 -->
<g id="edge21" class="edge"><title>Node8&#45;&gt;Node15</title>
<path fill="none" stroke="midnightblue" d="M374.842,-158.983C379.595,-149.817 385.156,-139.092 388.962,-131.751"/>
<polygon fill="midnightblue" stroke="midnightblue" points="371.62,-157.594 370.124,-168.083 377.834,-160.817 371.62,-157.594"/>
</g>
<!-- Node9&#45;&gt;Node10 -->
<g id="edge13" class="edge"><title>Node9&#45;&gt;Node10</title>
<path fill="none" stroke="midnightblue" d="M582.599,-106.342C568.589,-96.5169 550.617,-83.9132 538.841,-75.6545"/>
<polygon fill="midnightblue" stroke="midnightblue" points="580.932,-109.448 591.129,-112.324 584.951,-103.717 580.932,-109.448"/>
</g>
<!-- Node9&#45;&gt;Node11 -->
<g id="edge15" class="edge"><title>Node9&#45;&gt;Node11</title>
<path fill="none" stroke="midnightblue" d="M615.446,-103.566C621.812,-94.2747 629.367,-83.2484 634.504,-75.7511"/>
<polygon fill="midnightblue" stroke="midnightblue" points="612.375,-101.855 609.61,-112.083 618.149,-105.812 612.375,-101.855"/>
</g>
<!-- Node9&#45;&gt;Node12 -->
<g id="edge16" class="edge"><title>Node9&#45;&gt;Node12</title>
<path fill="none" stroke="midnightblue" d="M636.871,-108.906C664.884,-98.7536 704.196,-84.5063 729.001,-75.5164"/>
<polygon fill="midnightblue" stroke="midnightblue" points="635.319,-105.746 627.109,-112.444 637.704,-112.327 635.319,-105.746"/>
</g>
<!-- Node9&#45;&gt;Node13 -->
<g id="edge17" class="edge"><title>Node9&#45;&gt;Node13</title>
<path fill="none" stroke="midnightblue" d="M563.487,-109.568C527.833,-99.381 476.462,-84.7034 444.308,-75.5164"/>
<polygon fill="midnightblue" stroke="midnightblue" points="562.976,-113.062 573.552,-112.444 564.899,-106.331 562.976,-113.062"/>
</g>
<!-- Node10&#45;&gt;Node5 -->
<g id="edge14" class="edge"><title>Node10&#45;&gt;Node5</title>
<path fill="none" stroke="midnightblue" d="M486.91,-53.5677C451.634,-43.381 400.806,-28.7034 368.992,-19.5164"/>
<polygon fill="midnightblue" stroke="midnightblue" points="486.291,-57.0317 496.869,-56.4435 488.233,-50.3065 486.291,-57.0317"/>
</g>
<!-- Node13&#45;&gt;Node5 -->
<g id="edge18" class="edge"><title>Node13&#45;&gt;Node5</title>
<path fill="none" stroke="midnightblue" d="M394.195,-50.3804C380.639,-40.6204 363.258,-28.1057 351.769,-19.8339"/>
<polygon fill="midnightblue" stroke="midnightblue" points="392.29,-53.3213 402.45,-56.324 396.38,-47.6405 392.29,-53.3213"/>
</g>
<!-- Node14&#45;&gt;Node5 -->
<g id="edge20" class="edge"><title>Node14&#45;&gt;Node5</title>
<path fill="none" stroke="midnightblue" d="M243.068,-104.127C253.521,-90.5408 269.125,-71.2602 284.5,-56 298.335,-42.2681 316.043,-28.3451 327.573,-19.6976"/>
<polygon fill="midnightblue" stroke="midnightblue" points="240.25,-102.051 236.996,-112.134 245.828,-106.281 240.25,-102.051"/>
</g>
<!-- Node15&#45;&gt;Node5 -->
<g id="edge22" class="edge"><title>Node15&#45;&gt;Node5</title>
<path fill="none" stroke="midnightblue" d="M378.46,-104.781C371.571,-96.6422 363.784,-86.3334 358.5,-76 348.865,-57.1583 343.386,-32.6777 340.982,-19.803"/>
<polygon fill="midnightblue" stroke="midnightblue" points="375.929,-107.203 385.17,-112.386 381.179,-102.572 375.929,-107.203"/>
</g>
<!-- Node17&#45;&gt;Node2 -->
<g id="edge26" class="edge"><title>Node17&#45;&gt;Node2</title>
<path fill="none" stroke="midnightblue" d="M149.886,-248.074C195.835,-270.842 289.336,-317.171 328.08,-336.368"/>
<polygon fill="midnightblue" stroke="midnightblue" points="151.353,-244.895 140.839,-243.591 148.245,-251.167 151.353,-244.895"/>
</g>
</g>
</svg>
