<?xml version="1.0" encoding="UTF-8" standalone="no"?>
<!DOCTYPE svg PUBLIC "-//W3C//DTD SVG 1.1//EN"
 "http://www.w3.org/Graphics/SVG/1.1/DTD/svg11.dtd">
<!-- Generated by graphviz version 2.38.0 (20140413.2041)
 -->
<!-- Title: scopeinfo.hpp Pages: 1 -->
<svg width="2119pt" height="476pt"
 viewBox="0.00 0.00 2118.50 476.00" xmlns="http://www.w3.org/2000/svg" xmlns:xlink="http://www.w3.org/1999/xlink">
<g id="graph0" class="graph" transform="scale(1 1) rotate(0) translate(4 472)">
<title>scopeinfo.hpp</title>
<polygon fill="white" stroke="none" points="-4,4 -4,-472 2114.5,-472 2114.5,4 -4,4"/>
<!-- Node1 -->
<g id="node1" class="node"><title>Node1</title>
<polygon fill="#bfbfbf" stroke="black" points="972.5,-448.5 972.5,-467.5 1049.5,-467.5 1049.5,-448.5 972.5,-448.5"/>
<text text-anchor="middle" x="1011" y="-455.5" font-family="Helvetica,sans-Serif" font-size="10.00">scopeinfo.hpp</text>
</g>
<!-- Node2 -->
<g id="node2" class="node"><title>Node2</title>
<g id="a_node2"><a xlink:href="alox_8hpp.html" target="_top" xlink:title="alox/alox.hpp">
<polygon fill="white" stroke="black" points="1424,-392.5 1424,-411.5 1498,-411.5 1498,-392.5 1424,-392.5"/>
<text text-anchor="middle" x="1461" y="-399.5" font-family="Helvetica,sans-Serif" font-size="10.00">alox/alox.hpp</text>
</a>
</g>
</g>
<!-- Node1&#45;&gt;Node2 -->
<g id="edge1" class="edge"><title>Node1&#45;&gt;Node2</title>
<path fill="none" stroke="midnightblue" d="M1049.76,-452.349C1132.09,-442.469 1324.21,-419.415 1413.64,-408.684"/>
<polygon fill="midnightblue" stroke="midnightblue" points="1414.25,-412.135 1423.76,-407.468 1413.42,-405.185 1414.25,-412.135"/>
</g>
<!-- Node28 -->
<g id="node3" class="node"><title>Node28</title>
<g id="a_node3"><a xlink:href="thread_8hpp.html" target="_top" xlink:title="thread.hpp">
<polygon fill="white" stroke="red" points="865,-168.5 865,-187.5 927,-187.5 927,-168.5 865,-168.5"/>
<text text-anchor="middle" x="896" y="-175.5" font-family="Helvetica,sans-Serif" font-size="10.00">thread.hpp</text>
</a>
</g>
</g>
<!-- Node1&#45;&gt;Node28 -->
<g id="edge2" class="edge"><title>Node1&#45;&gt;Node28</title>
<path fill="none" stroke="midnightblue" d="M972.052,-453.227C913.354,-445.156 809,-420.475 809,-347 809,-347 809,-347 809,-289 809,-247.4 847.752,-212.331 873.53,-193.605"/>
<polygon fill="midnightblue" stroke="midnightblue" points="875.824,-196.272 882.022,-187.679 871.818,-190.531 875.824,-196.272"/>
</g>
<!-- Node29 -->
<g id="node4" class="node"><title>Node29</title>
<polygon fill="white" stroke="#bfbfbf" points="819.5,-112.5 819.5,-131.5 854.5,-131.5 854.5,-112.5 819.5,-112.5"/>
<text text-anchor="middle" x="837" y="-119.5" font-family="Helvetica,sans-Serif" font-size="10.00">map</text>
</g>
<!-- Node1&#45;&gt;Node29 -->
<g id="edge3" class="edge"><title>Node1&#45;&gt;Node29</title>
<path fill="none" stroke="midnightblue" d="M972.44,-456.258C904.597,-452.688 771,-434.544 771,-347 771,-347 771,-347 771,-233 771,-194.857 800.54,-158.517 820.094,-138.64"/>
<polygon fill="midnightblue" stroke="midnightblue" points="822.561,-141.123 827.261,-131.628 817.666,-136.119 822.561,-141.123"/>
</g>
<!-- Node41 -->
<g id="node5" class="node"><title>Node41</title>
<g id="a_node5"><a xlink:href="ticks_8hpp.html" target="_top" xlink:title="alib/time/ticks.hpp">
<polygon fill="white" stroke="black" points="859,-392.5 859,-411.5 955,-411.5 955,-392.5 859,-392.5"/>
<text text-anchor="middle" x="907" y="-399.5" font-family="Helvetica,sans-Serif" font-size="10.00">alib/time/ticks.hpp</text>
</a>
</g>
</g>
<!-- Node1&#45;&gt;Node41 -->
<g id="edge4" class="edge"><title>Node1&#45;&gt;Node41</title>
<path fill="none" stroke="midnightblue" d="M994.291,-448.324C977.688,-439.703 951.998,-426.364 932.78,-416.386"/>
<polygon fill="midnightblue" stroke="midnightblue" points="934.156,-413.156 923.668,-411.655 930.93,-419.369 934.156,-413.156"/>
</g>
<!-- Node43 -->
<g id="node6" class="node"><title>Node43</title>
<g id="a_node6"><a xlink:href="directory_8hpp.html" target="_top" xlink:title="alib/system/directory.hpp">
<polygon fill="white" stroke="black" points="1516,-392.5 1516,-411.5 1642,-411.5 1642,-392.5 1516,-392.5"/>
<text text-anchor="middle" x="1579" y="-399.5" font-family="Helvetica,sans-Serif" font-size="10.00">alib/system/directory.hpp</text>
</a>
</g>
</g>
<!-- Node1&#45;&gt;Node43 -->
<g id="edge5" class="edge"><title>Node1&#45;&gt;Node43</title>
<path fill="none" stroke="midnightblue" d="M1049.63,-453.943C1131.61,-447.361 1329.27,-430.977 1505.81,-412.097"/>
<polygon fill="midnightblue" stroke="midnightblue" points="1506.23,-415.572 1515.8,-411.023 1505.48,-408.612 1506.23,-415.572"/>
</g>
<!-- Node3 -->
<g id="node7" class="node"><title>Node3</title>
<g id="a_node7"><a xlink:href="alib_8hpp.html" target="_top" xlink:title="alib/alib.hpp">
<polygon fill="white" stroke="black" points="1004,-56.5 1004,-75.5 1072,-75.5 1072,-56.5 1004,-56.5"/>
<text text-anchor="middle" x="1038" y="-63.5" font-family="Helvetica,sans-Serif" font-size="10.00">alib/alib.hpp</text>
</a>
</g>
</g>
<!-- Node2&#45;&gt;Node3 -->
<g id="edge6" class="edge"><title>Node2&#45;&gt;Node3</title>
<path fill="none" stroke="midnightblue" d="M1498.09,-393.323C1501.1,-392.829 1504.1,-392.379 1507,-392 1567.18,-384.158 2004.67,-393.98 2052,-356 2075.48,-337.164 2071,-321.098 2071,-291 2071,-291 2071,-291 2071,-177 2071,-75.9498 1279.3,-67.523 1082.08,-66.9914"/>
<polygon fill="midnightblue" stroke="midnightblue" points="1082.08,-63.4915 1072.08,-66.97 1082.07,-70.4915 1082.08,-63.4915"/>
</g>
<!-- Node23 -->
<g id="node8" class="node"><title>Node23</title>
<g id="a_node8"><a xlink:href="alox__symbols_8hpp.html" target="_top" xlink:title="internals/alox_symbols.hpp">
<polygon fill="white" stroke="black" points="1579.5,-336.5 1579.5,-355.5 1714.5,-355.5 1714.5,-336.5 1579.5,-336.5"/>
<text text-anchor="middle" x="1647" y="-343.5" font-family="Helvetica,sans-Serif" font-size="10.00">internals/alox_symbols.hpp</text>
</a>
</g>
</g>
<!-- Node2&#45;&gt;Node23 -->
<g id="edge7" class="edge"><title>Node2&#45;&gt;Node23</title>
<path fill="none" stroke="midnightblue" d="M1490.47,-392.444C1522.17,-383.241 1572.73,-368.562 1607.77,-358.388"/>
<polygon fill="midnightblue" stroke="midnightblue" points="1609.04,-361.666 1617.67,-355.516 1607.09,-354.943 1609.04,-361.666"/>
</g>
<!-- Node24 -->
<g id="node9" class="node"><title>Node24</title>
<g id="a_node9"><a xlink:href="alox__macros_8hpp.html" target="_top" xlink:title="internals/alox_macros.hpp">
<polygon fill="white" stroke="black" points="1771.5,-336.5 1771.5,-355.5 1902.5,-355.5 1902.5,-336.5 1771.5,-336.5"/>
<text text-anchor="middle" x="1837" y="-343.5" font-family="Helvetica,sans-Serif" font-size="10.00">internals/alox_macros.hpp</text>
</a>
</g>
</g>
<!-- Node2&#45;&gt;Node24 -->
<g id="edge8" class="edge"><title>Node2&#45;&gt;Node24</title>
<path fill="none" stroke="midnightblue" d="M1498.12,-393.546C1501.12,-393.002 1504.11,-392.479 1507,-392 1593.95,-377.578 1694.35,-364.377 1761.35,-356.056"/>
<polygon fill="midnightblue" stroke="midnightblue" points="1761.91,-359.514 1771.4,-354.813 1761.05,-352.567 1761.91,-359.514"/>
</g>
<!-- Node25 -->
<g id="node10" class="node"><title>Node25</title>
<polygon fill="white" stroke="#bfbfbf" points="1473,-168.5 1473,-187.5 1517,-187.5 1517,-168.5 1473,-168.5"/>
<text text-anchor="middle" x="1495" y="-175.5" font-family="Helvetica,sans-Serif" font-size="10.00">vector</text>
</g>
<!-- Node2&#45;&gt;Node25 -->
<g id="edge9" class="edge"><title>Node2&#45;&gt;Node25</title>
<path fill="none" stroke="midnightblue" d="M1498.14,-393.638C1501.14,-393.073 1504.12,-392.521 1507,-392 1555.1,-383.306 1692.39,-393.286 1724,-356 1764.08,-308.721 1728.5,-261.301 1679,-224 1634.01,-190.099 1566.85,-181.419 1527.33,-179.385"/>
<polygon fill="midnightblue" stroke="midnightblue" points="1527.32,-175.882 1517.19,-178.979 1527.04,-182.877 1527.32,-175.882"/>
</g>
<!-- Node26 -->
<g id="node11" class="node"><title>Node26</title>
<g id="a_node11"><a xlink:href="configuration_8hpp.html" target="_top" xlink:title="alib/config/configuration.hpp">
<polygon fill="white" stroke="black" points="1094,-280.5 1094,-299.5 1232,-299.5 1232,-280.5 1094,-280.5"/>
<text text-anchor="middle" x="1163" y="-287.5" font-family="Helvetica,sans-Serif" font-size="10.00">alib/config/configuration.hpp</text>
</a>
</g>
</g>
<!-- Node2&#45;&gt;Node26 -->
<g id="edge10" class="edge"><title>Node2&#45;&gt;Node26</title>
<path fill="none" stroke="midnightblue" d="M1423.86,-397.832C1380.7,-393.083 1308.1,-381.75 1251,-356 1223.58,-343.633 1196.4,-321.687 1179.66,-306.749"/>
<polygon fill="midnightblue" stroke="midnightblue" points="1181.66,-303.831 1171.92,-299.664 1176.93,-308.996 1181.66,-303.831"/>
</g>
<!-- Node34 -->
<g id="node12" class="node"><title>Node34</title>
<g id="a_node12"><a xlink:href="tokenizer_8hpp.html" target="_top" xlink:title="alib/strings/tokenizer.hpp">
<polygon fill="white" stroke="red" points="1513.5,-224.5 1513.5,-243.5 1638.5,-243.5 1638.5,-224.5 1513.5,-224.5"/>
<text text-anchor="middle" x="1576" y="-231.5" font-family="Helvetica,sans-Serif" font-size="10.00">alib/strings/tokenizer.hpp</text>
</a>
</g>
</g>
<!-- Node2&#45;&gt;Node34 -->
<g id="edge11" class="edge"><title>Node2&#45;&gt;Node34</title>
<path fill="none" stroke="midnightblue" d="M1451.98,-392.34C1443.93,-383.932 1432.7,-370.363 1428,-356 1416.54,-321.003 1432.97,-303.882 1461,-280 1479.68,-264.084 1504.65,-253.405 1526.55,-246.461"/>
<polygon fill="midnightblue" stroke="midnightblue" points="1527.78,-249.745 1536.36,-243.528 1525.77,-243.039 1527.78,-249.745"/>
</g>
<!-- Node35 -->
<g id="node13" class="node"><title>Node35</title>
<g id="a_node13"><a xlink:href="aloxtypesandenums_8hpp.html" target="_top" xlink:title="aloxtypesandenums.hpp">
<polygon fill="white" stroke="black" points="1921,-336.5 1921,-355.5 2043,-355.5 2043,-336.5 1921,-336.5"/>
<text text-anchor="middle" x="1982" y="-343.5" font-family="Helvetica,sans-Serif" font-size="10.00">aloxtypesandenums.hpp</text>
</a>
</g>
</g>
<!-- Node2&#45;&gt;Node35 -->
<g id="edge12" class="edge"><title>Node2&#45;&gt;Node35</title>
<path fill="none" stroke="midnightblue" d="M1498.1,-393.396C1501.11,-392.885 1504.1,-392.412 1507,-392 1682.69,-367.075 1730.63,-375.215 1910.85,-356.079"/>
<polygon fill="midnightblue" stroke="midnightblue" points="1911.36,-359.544 1920.93,-354.995 1910.62,-352.584 1911.36,-359.544"/>
</g>
<!-- Node36 -->
<g id="node14" class="node"><title>Node36</title>
<g id="a_node14"><a xlink:href="log_8hpp.html" target="_top" xlink:title="log.hpp">
<polygon fill="white" stroke="black" points="1437,-336.5 1437,-355.5 1485,-355.5 1485,-336.5 1437,-336.5"/>
<text text-anchor="middle" x="1461" y="-343.5" font-family="Helvetica,sans-Serif" font-size="10.00">log.hpp</text>
</a>
</g>
</g>
<!-- Node2&#45;&gt;Node36 -->
<g id="edge13" class="edge"><title>Node2&#45;&gt;Node36</title>
<path fill="none" stroke="midnightblue" d="M1455.83,-392.083C1454.32,-384.927 1453.89,-374.635 1454.54,-365.691"/>
<polygon fill="midnightblue" stroke="midnightblue" points="1458.02,-366.126 1455.87,-355.751 1451.08,-365.2 1458.02,-366.126"/>
</g>
<!-- Node37 -->
<g id="node15" class="node"><title>Node37</title>
<g id="a_node15"><a xlink:href="lox_8hpp.html" target="_top" xlink:title="lox.hpp">
<polygon fill="white" stroke="black" points="1260,-336.5 1260,-355.5 1308,-355.5 1308,-336.5 1260,-336.5"/>
<text text-anchor="middle" x="1284" y="-343.5" font-family="Helvetica,sans-Serif" font-size="10.00">lox.hpp</text>
</a>
</g>
</g>
<!-- Node2&#45;&gt;Node37 -->
<g id="edge14" class="edge"><title>Node2&#45;&gt;Node37</title>
<path fill="none" stroke="midnightblue" d="M1427.87,-392.444C1395.96,-383.32 1348.22,-368.813 1316.52,-358.651"/>
<polygon fill="midnightblue" stroke="midnightblue" points="1317.43,-355.265 1306.83,-355.516 1315.27,-361.925 1317.43,-355.265"/>
</g>
<!-- Node28&#45;&gt;Node29 -->
<g id="edge55" class="edge"><title>Node28&#45;&gt;Node29</title>
<path fill="none" stroke="midnightblue" d="M886.521,-168.324C877.799,-160.341 864.657,-148.313 854.102,-138.653"/>
<polygon fill="midnightblue" stroke="midnightblue" points="856.392,-136.004 846.652,-131.834 851.666,-141.167 856.392,-136.004"/>
</g>
<!-- Node28&#45;&gt;Node3 -->
<g id="edge54" class="edge"><title>Node28&#45;&gt;Node3</title>
<path fill="none" stroke="midnightblue" d="M906.974,-168.333C922.827,-155.831 953.078,-132.034 979,-112 992.158,-101.83 1007.05,-90.4741 1018.58,-81.7141"/>
<polygon fill="midnightblue" stroke="midnightblue" points="1020.81,-84.4174 1026.66,-75.584 1016.57,-78.8413 1020.81,-84.4174"/>
</g>
<!-- Node30 -->
<g id="node36" class="node"><title>Node30</title>
<g id="a_node36"><a xlink:href="substring_8hpp.html" target="_top" xlink:title="alib/strings/substring.hpp">
<polygon fill="white" stroke="black" points="1021.5,-112.5 1021.5,-131.5 1146.5,-131.5 1146.5,-112.5 1021.5,-112.5"/>
<text text-anchor="middle" x="1084" y="-119.5" font-family="Helvetica,sans-Serif" font-size="10.00">alib/strings/substring.hpp</text>
</a>
</g>
</g>
<!-- Node41&#45;&gt;Node30 -->
<g id="edge76" class="edge"><title>Node41&#45;&gt;Node30</title>
<path fill="none" stroke="midnightblue" d="M903.975,-392.478C894.965,-365.51 870.922,-280.49 904,-224 920.693,-195.492 1006.72,-155.655 1053.54,-135.597"/>
<polygon fill="midnightblue" stroke="midnightblue" points="1055.06,-138.755 1062.9,-131.628 1052.33,-132.311 1055.06,-138.755"/>
</g>
<!-- Node42 -->
<g id="node43" class="node"><title>Node42</title>
<polygon fill="white" stroke="#bfbfbf" points="837.5,-336.5 837.5,-355.5 878.5,-355.5 878.5,-336.5 837.5,-336.5"/>
<text text-anchor="middle" x="858" y="-343.5" font-family="Helvetica,sans-Serif" font-size="10.00">ctime</text>
</g>
<!-- Node41&#45;&gt;Node42 -->
<g id="edge77" class="edge"><title>Node41&#45;&gt;Node42</title>
<path fill="none" stroke="midnightblue" d="M898.909,-392.083C891.845,-384.298 881.412,-372.801 872.851,-363.367"/>
<polygon fill="midnightblue" stroke="midnightblue" points="875.253,-360.805 865.941,-355.751 870.069,-365.509 875.253,-360.805"/>
</g>
<!-- Node4 -->
<g id="node16" class="node"><title>Node4</title>
<g id="a_node16"><a xlink:href="symbols_8hpp.html" target="_top" xlink:title="alib/core/symbols.hpp">
<polygon fill="white" stroke="black" points="0,-0.5 0,-19.5 112,-19.5 112,-0.5 0,-0.5"/>
<text text-anchor="middle" x="56" y="-7.5" font-family="Helvetica,sans-Serif" font-size="10.00">alib/core/symbols.hpp</text>
</a>
</g>
</g>
<!-- Node3&#45;&gt;Node4 -->
<g id="edge15" class="edge"><title>Node3&#45;&gt;Node4</title>
<path fill="none" stroke="midnightblue" d="M1003.78,-64.4131C884.03,-62.1289 472.523,-52.3422 122.414,-20.0486"/>
<polygon fill="midnightblue" stroke="midnightblue" points="122.616,-16.5524 112.335,-19.1111 121.968,-23.5223 122.616,-16.5524"/>
</g>
<!-- Node5 -->
<g id="node17" class="node"><title>Node5</title>
<g id="a_node17"><a xlink:href="macros_8hpp.html" target="_top" xlink:title="alib/core/macros.hpp">
<polygon fill="white" stroke="black" points="130.5,-0.5 130.5,-19.5 237.5,-19.5 237.5,-0.5 130.5,-0.5"/>
<text text-anchor="middle" x="184" y="-7.5" font-family="Helvetica,sans-Serif" font-size="10.00">alib/core/macros.hpp</text>
</a>
</g>
</g>
<!-- Node3&#45;&gt;Node5 -->
<g id="edge16" class="edge"><title>Node3&#45;&gt;Node5</title>
<path fill="none" stroke="midnightblue" d="M1004,-64.0997C895.423,-61.0066 547.16,-49.3963 247.761,-19.9795"/>
<polygon fill="midnightblue" stroke="midnightblue" points="247.875,-16.4738 237.579,-18.9703 247.185,-23.4396 247.875,-16.4738"/>
</g>
<!-- Node6 -->
<g id="node18" class="node"><title>Node6</title>
<polygon fill="white" stroke="#bfbfbf" points="256,-0.5 256,-19.5 308,-19.5 308,-0.5 256,-0.5"/>
<text text-anchor="middle" x="282" y="-7.5" font-family="Helvetica,sans-Serif" font-size="10.00">assert.h</text>
</g>
<!-- Node3&#45;&gt;Node6 -->
<g id="edge17" class="edge"><title>Node3&#45;&gt;Node6</title>
<path fill="none" stroke="midnightblue" d="M1003.97,-65.1534C901.476,-65.1353 586.804,-61.5662 318.198,-19.8845"/>
<polygon fill="midnightblue" stroke="midnightblue" points="318.684,-16.4179 308.261,-18.3216 317.596,-23.3329 318.684,-16.4179"/>
</g>
<!-- Node7 -->
<g id="node19" class="node"><title>Node7</title>
<polygon fill="white" stroke="#bfbfbf" points="326.5,-0.5 326.5,-19.5 375.5,-19.5 375.5,-0.5 326.5,-0.5"/>
<text text-anchor="middle" x="351" y="-7.5" font-family="Helvetica,sans-Serif" font-size="10.00">cstddef</text>
</g>
<!-- Node3&#45;&gt;Node7 -->
<g id="edge18" class="edge"><title>Node3&#45;&gt;Node7</title>
<path fill="none" stroke="midnightblue" d="M1003.68,-65.016C907.357,-64.5588 626.361,-59.7835 385.732,-19.9885"/>
<polygon fill="midnightblue" stroke="midnightblue" points="386.19,-16.5167 375.749,-18.3134 385.032,-23.4202 386.19,-16.5167"/>
</g>
<!-- Node8 -->
<g id="node20" class="node"><title>Node8</title>
<polygon fill="white" stroke="#bfbfbf" points="393.5,-0.5 393.5,-19.5 456.5,-19.5 456.5,-0.5 393.5,-0.5"/>
<text text-anchor="middle" x="425" y="-7.5" font-family="Helvetica,sans-Serif" font-size="10.00">windows.h</text>
</g>
<!-- Node3&#45;&gt;Node8 -->
<g id="edge19" class="edge"><title>Node3&#45;&gt;Node8</title>
<path fill="none" stroke="midnightblue" d="M1003.9,-64.0219C916.218,-61.1457 675.683,-50.974 466.725,-20.0727"/>
<polygon fill="midnightblue" stroke="midnightblue" points="467.207,-16.606 456.799,-18.5855 466.17,-23.5288 467.207,-16.606"/>
</g>
<!-- Node9 -->
<g id="node21" class="node"><title>Node9</title>
<polygon fill="white" stroke="#bfbfbf" points="474.5,-0.5 474.5,-19.5 523.5,-19.5 523.5,-0.5 474.5,-0.5"/>
<text text-anchor="middle" x="499" y="-7.5" font-family="Helvetica,sans-Serif" font-size="10.00">stdint.h</text>
</g>
<!-- Node3&#45;&gt;Node9 -->
<g id="edge20" class="edge"><title>Node3&#45;&gt;Node9</title>
<path fill="none" stroke="midnightblue" d="M1003.75,-63.9536C923.311,-61.0692 716.011,-51.1559 533.805,-19.8294"/>
<polygon fill="midnightblue" stroke="midnightblue" points="534.227,-16.3502 523.774,-18.0784 533.023,-23.246 534.227,-16.3502"/>
</g>
<!-- Node10 -->
<g id="node22" class="node"><title>Node10</title>
<polygon fill="white" stroke="#bfbfbf" points="542,-0.5 542,-19.5 604,-19.5 604,-0.5 542,-0.5"/>
<text text-anchor="middle" x="573" y="-7.5" font-family="Helvetica,sans-Serif" font-size="10.00">type_traits</text>
</g>
<!-- Node3&#45;&gt;Node10 -->
<g id="edge21" class="edge"><title>Node3&#45;&gt;Node10</title>
<path fill="none" stroke="midnightblue" d="M1003.94,-62.7395C933.149,-57.7528 764.842,-44.3987 614.267,-20.0406"/>
<polygon fill="midnightblue" stroke="midnightblue" points="614.81,-16.583 604.376,-18.4203 613.678,-23.4909 614.81,-16.583"/>
</g>
<!-- Node11 -->
<g id="node23" class="node"><title>Node11</title>
<polygon fill="white" stroke="#bfbfbf" points="622,-0.5 622,-19.5 662,-19.5 662,-0.5 622,-0.5"/>
<text text-anchor="middle" x="642" y="-7.5" font-family="Helvetica,sans-Serif" font-size="10.00">utility</text>
</g>
<!-- Node3&#45;&gt;Node11 -->
<g id="edge22" class="edge"><title>Node3&#45;&gt;Node11</title>
<path fill="none" stroke="midnightblue" d="M1003.76,-62.8547C940.109,-58.4267 799.212,-46.5597 672.067,-19.8775"/>
<polygon fill="midnightblue" stroke="midnightblue" points="672.669,-16.4274 662.159,-17.7619 671.208,-23.2731 672.669,-16.4274"/>
</g>
<!-- Node12 -->
<g id="node24" class="node"><title>Node12</title>
<polygon fill="white" stroke="#bfbfbf" points="680.5,-0.5 680.5,-19.5 721.5,-19.5 721.5,-0.5 680.5,-0.5"/>
<text text-anchor="middle" x="701" y="-7.5" font-family="Helvetica,sans-Serif" font-size="10.00">stack</text>
</g>
<!-- Node3&#45;&gt;Node12 -->
<g id="edge23" class="edge"><title>Node3&#45;&gt;Node12</title>
<path fill="none" stroke="midnightblue" d="M1003.63,-61.6179C948.282,-55.8138 835.886,-42.554 731.321,-19.7593"/>
<polygon fill="midnightblue" stroke="midnightblue" points="732.073,-16.3411 721.553,-17.5965 730.56,-23.1756 732.073,-16.3411"/>
</g>
<!-- Node13 -->
<g id="node25" class="node"><title>Node13</title>
<g id="a_node25"><a xlink:href="enums_8hpp.html" target="_top" xlink:title="alib/core/enums.hpp">
<polygon fill="white" stroke="black" points="740,-0.5 740,-19.5 844,-19.5 844,-0.5 740,-0.5"/>
<text text-anchor="middle" x="792" y="-7.5" font-family="Helvetica,sans-Serif" font-size="10.00">alib/core/enums.hpp</text>
</a>
</g>
</g>
<!-- Node3&#45;&gt;Node13 -->
<g id="edge24" class="edge"><title>Node3&#45;&gt;Node13</title>
<path fill="none" stroke="midnightblue" d="M1003.74,-58.4863C959.818,-49.3989 883.886,-32.8003 835.821,-21.8337"/>
<polygon fill="midnightblue" stroke="midnightblue" points="836.538,-18.4074 826.009,-19.5837 834.974,-25.2303 836.538,-18.4074"/>
</g>
<!-- Node14 -->
<g id="node26" class="node"><title>Node14</title>
<g id="a_node26"><a xlink:href="report_8hpp.html" target="_top" xlink:title="alib/core/report.hpp">
<polygon fill="white" stroke="black" points="862,-0.5 862,-19.5 962,-19.5 962,-0.5 862,-0.5"/>
<text text-anchor="middle" x="912" y="-7.5" font-family="Helvetica,sans-Serif" font-size="10.00">alib/core/report.hpp</text>
</a>
</g>
</g>
<!-- Node3&#45;&gt;Node14 -->
<g id="edge25" class="edge"><title>Node3&#45;&gt;Node14</title>
<path fill="none" stroke="midnightblue" d="M1012.95,-56.4435C990.563,-47.6751 958.251,-33.9355 936.153,-23.8579"/>
<polygon fill="midnightblue" stroke="midnightblue" points="937.336,-20.5484 926.792,-19.5164 934.391,-26.8988 937.336,-20.5484"/>
</g>
<!-- Node15 -->
<g id="node27" class="node"><title>Node15</title>
<g id="a_node27"><a xlink:href="cstring_8hpp.html" target="_top" xlink:title="alib/strings/cstring.hpp">
<polygon fill="white" stroke="red" points="980.5,-0.5 980.5,-19.5 1095.5,-19.5 1095.5,-0.5 980.5,-0.5"/>
<text text-anchor="middle" x="1038" y="-7.5" font-family="Helvetica,sans-Serif" font-size="10.00">alib/strings/cstring.hpp</text>
</a>
</g>
</g>
<!-- Node3&#45;&gt;Node15 -->
<g id="edge26" class="edge"><title>Node3&#45;&gt;Node15</title>
<path fill="none" stroke="midnightblue" d="M1032.83,-56.083C1031.32,-48.9272 1030.89,-38.6353 1031.54,-29.6911"/>
<polygon fill="midnightblue" stroke="midnightblue" points="1035.02,-30.1262 1032.87,-19.7511 1028.08,-29.2002 1035.02,-30.1262"/>
</g>
<!-- Node16 -->
<g id="node28" class="node"><title>Node16</title>
<g id="a_node28"><a xlink:href="string_8hpp.html" target="_top" xlink:title="alib/strings/string.hpp">
<polygon fill="white" stroke="red" points="1114,-0.5 1114,-19.5 1224,-19.5 1224,-0.5 1114,-0.5"/>
<text text-anchor="middle" x="1169" y="-7.5" font-family="Helvetica,sans-Serif" font-size="10.00">alib/strings/string.hpp</text>
</a>
</g>
</g>
<!-- Node3&#45;&gt;Node16 -->
<g id="edge27" class="edge"><title>Node3&#45;&gt;Node16</title>
<path fill="none" stroke="midnightblue" d="M1053.67,-56.4435C1073.45,-47.4776 1107.59,-33.314 1133.7,-23.1827"/>
<polygon fill="midnightblue" stroke="midnightblue" points="1135.18,-26.3639 1143.26,-19.5164 1132.67,-19.8277 1135.18,-26.3639"/>
</g>
<!-- Node17 -->
<g id="node29" class="node"><title>Node17</title>
<g id="a_node29"><a xlink:href="tstring_8hpp.html" target="_top" xlink:title="alib/strings/tstring.hpp">
<polygon fill="white" stroke="black" points="1242.5,-0.5 1242.5,-19.5 1355.5,-19.5 1355.5,-0.5 1242.5,-0.5"/>
<text text-anchor="middle" x="1299" y="-7.5" font-family="Helvetica,sans-Serif" font-size="10.00">alib/strings/tstring.hpp</text>
</a>
</g>
</g>
<!-- Node3&#45;&gt;Node17 -->
<g id="edge28" class="edge"><title>Node3&#45;&gt;Node17</title>
<path fill="none" stroke="midnightblue" d="M1072.09,-56.9157C1115.38,-47.5097 1190.42,-31.9489 1242.34,-21.5864"/>
<polygon fill="midnightblue" stroke="midnightblue" points="1243.28,-24.9692 1252.4,-19.5865 1241.91,-18.1036 1243.28,-24.9692"/>
</g>
<!-- Node18 -->
<g id="node30" class="node"><title>Node18</title>
<g id="a_node30"><a xlink:href="stringliteral_8hpp.html" target="_top" xlink:title="alib/strings/stringliteral.hpp">
<polygon fill="white" stroke="red" points="1373.5,-0.5 1373.5,-19.5 1506.5,-19.5 1506.5,-0.5 1373.5,-0.5"/>
<text text-anchor="middle" x="1440" y="-7.5" font-family="Helvetica,sans-Serif" font-size="10.00">alib/strings/stringliteral.hpp</text>
</a>
</g>
</g>
<!-- Node3&#45;&gt;Node18 -->
<g id="edge29" class="edge"><title>Node3&#45;&gt;Node18</title>
<path fill="none" stroke="midnightblue" d="M1072.02,-59.8711C1136.03,-50.8684 1275.43,-32.091 1363.14,-20.6117"/>
<polygon fill="midnightblue" stroke="midnightblue" points="1363.84,-24.0494 1373.31,-19.2835 1362.94,-17.1084 1363.84,-24.0494"/>
</g>
<!-- Node19 -->
<g id="node31" class="node"><title>Node19</title>
<g id="a_node31"><a xlink:href="astring_8hpp.html" target="_top" xlink:title="alib/strings/astring.hpp">
<polygon fill="white" stroke="red" points="1524.5,-0.5 1524.5,-19.5 1639.5,-19.5 1639.5,-0.5 1524.5,-0.5"/>
<text text-anchor="middle" x="1582" y="-7.5" font-family="Helvetica,sans-Serif" font-size="10.00">alib/strings/astring.hpp</text>
</a>
</g>
</g>
<!-- Node3&#45;&gt;Node19 -->
<g id="edge30" class="edge"><title>Node3&#45;&gt;Node19</title>
<path fill="none" stroke="midnightblue" d="M1072.08,-61.8451C1149.48,-55.1402 1343.61,-38.5596 1506,-20 1508.69,-19.692 1511.45,-19.3663 1514.24,-19.0286"/>
<polygon fill="midnightblue" stroke="midnightblue" points="1514.94,-22.4686 1524.43,-17.7632 1514.07,-15.5219 1514.94,-22.4686"/>
</g>
<!-- Node20 -->
<g id="node32" class="node"><title>Node20</title>
<g id="a_node32"><a xlink:href="preallocatedstring_8hpp.html" target="_top" xlink:title="alib/strings/preallocatedstring.hpp">
<polygon fill="white" stroke="black" points="1658,-0.5 1658,-19.5 1820,-19.5 1820,-0.5 1658,-0.5"/>
<text text-anchor="middle" x="1739" y="-7.5" font-family="Helvetica,sans-Serif" font-size="10.00">alib/strings/preallocatedstring.hpp</text>
</a>
</g>
</g>
<!-- Node3&#45;&gt;Node20 -->
<g id="edge31" class="edge"><title>Node3&#45;&gt;Node20</title>
<path fill="none" stroke="midnightblue" d="M1072.12,-62.4903C1163.96,-56.1441 1423.17,-38.6306 1639,-20 1641.72,-19.7649 1644.49,-19.5207 1647.29,-19.2697"/>
<polygon fill="midnightblue" stroke="midnightblue" points="1647.88,-22.7301 1657.52,-18.3353 1647.25,-15.7591 1647.88,-22.7301"/>
</g>
<!-- Node21 -->
<g id="node33" class="node"><title>Node21</title>
<g id="a_node33"><a xlink:href="applyto_8hpp.html" target="_top" xlink:title="alib/strings/applyto.hpp">
<polygon fill="white" stroke="black" points="1838.5,-0.5 1838.5,-19.5 1955.5,-19.5 1955.5,-0.5 1838.5,-0.5"/>
<text text-anchor="middle" x="1897" y="-7.5" font-family="Helvetica,sans-Serif" font-size="10.00">alib/strings/applyto.hpp</text>
</a>
</g>
</g>
<!-- Node3&#45;&gt;Node21 -->
<g id="edge32" class="edge"><title>Node3&#45;&gt;Node21</title>
<path fill="none" stroke="midnightblue" d="M1072.37,-63.8351C1181.89,-60.1378 1531.4,-47.2691 1820,-20 1822.69,-19.7462 1825.43,-19.4668 1828.2,-19.1684"/>
<polygon fill="midnightblue" stroke="midnightblue" points="1828.81,-22.6223 1838.35,-18.0161 1828.02,-15.667 1828.81,-22.6223"/>
</g>
<!-- Node22 -->
<g id="node34" class="node"><title>Node22</title>
<g id="a_node34"><a xlink:href="applyformat_8hpp.html" target="_top" xlink:title="alib/strings/applyformat.hpp">
<polygon fill="white" stroke="red" points="1973.5,-0.5 1973.5,-19.5 2110.5,-19.5 2110.5,-0.5 1973.5,-0.5"/>
<text text-anchor="middle" x="2042" y="-7.5" font-family="Helvetica,sans-Serif" font-size="10.00">alib/strings/applyformat.hpp</text>
</a>
</g>
</g>
<!-- Node3&#45;&gt;Node22 -->
<g id="edge33" class="edge"><title>Node3&#45;&gt;Node22</title>
<path fill="none" stroke="midnightblue" d="M1072.32,-64.0792C1193.51,-60.8191 1611.56,-48.4571 1956,-20 1958.38,-19.8036 1960.79,-19.5914 1963.24,-19.3663"/>
<polygon fill="midnightblue" stroke="midnightblue" points="1963.77,-22.8305 1973.39,-18.377 1963.1,-15.8635 1963.77,-22.8305"/>
</g>
<!-- Node26&#45;&gt;Node25 -->
<g id="edge44" class="edge"><title>Node26&#45;&gt;Node25</title>
<path fill="none" stroke="midnightblue" d="M1232.23,-282.174C1315.57,-273.421 1446.68,-257.73 1465,-244 1479.74,-232.952 1487.47,-212.908 1491.36,-197.989"/>
<polygon fill="midnightblue" stroke="midnightblue" points="1494.87,-198.336 1493.65,-187.812 1488.04,-196.803 1494.87,-198.336"/>
</g>
<!-- Node26&#45;&gt;Node34 -->
<g id="edge50" class="edge"><title>Node26&#45;&gt;Node34</title>
<path fill="none" stroke="midnightblue" d="M1228.44,-280.444C1303.21,-270.667 1425.25,-254.711 1503.03,-244.541"/>
<polygon fill="midnightblue" stroke="midnightblue" points="1503.77,-247.974 1513.23,-243.207 1502.86,-241.033 1503.77,-247.974"/>
</g>
<!-- Node27 -->
<g id="node35" class="node"><title>Node27</title>
<g id="a_node35"><a xlink:href="threadlock_8hpp.html" target="_top" xlink:title="alib/threads/threadlock.hpp">
<polygon fill="white" stroke="red" points="913,-224.5 913,-243.5 1047,-243.5 1047,-224.5 913,-224.5"/>
<text text-anchor="middle" x="980" y="-231.5" font-family="Helvetica,sans-Serif" font-size="10.00">alib/threads/threadlock.hpp</text>
</a>
</g>
</g>
<!-- Node26&#45;&gt;Node27 -->
<g id="edge45" class="edge"><title>Node26&#45;&gt;Node27</title>
<path fill="none" stroke="midnightblue" d="M1134,-280.444C1102.82,-271.241 1053.07,-256.562 1018.59,-246.388"/>
<polygon fill="midnightblue" stroke="midnightblue" points="1019.44,-242.99 1008.86,-243.516 1017.46,-249.704 1019.44,-242.99"/>
</g>
<!-- Node26&#45;&gt;Node30 -->
<g id="edge46" class="edge"><title>Node26&#45;&gt;Node30</title>
<path fill="none" stroke="midnightblue" d="M1154.79,-280.419C1139.66,-264.014 1107.7,-226.404 1094,-188 1088.66,-173.028 1086.17,-155.117 1085.01,-141.892"/>
<polygon fill="midnightblue" stroke="midnightblue" points="1088.49,-141.398 1084.3,-131.667 1081.5,-141.887 1088.49,-141.398"/>
</g>
<!-- Node31 -->
<g id="node37" class="node"><title>Node31</title>
<g id="a_node37"><a xlink:href="numberformat_8hpp.html" target="_top" xlink:title="alib/strings/numberformat.hpp">
<polygon fill="white" stroke="black" points="1141,-224.5 1141,-243.5 1287,-243.5 1287,-224.5 1141,-224.5"/>
<text text-anchor="middle" x="1214" y="-231.5" font-family="Helvetica,sans-Serif" font-size="10.00">alib/strings/numberformat.hpp</text>
</a>
</g>
</g>
<!-- Node26&#45;&gt;Node31 -->
<g id="edge47" class="edge"><title>Node26&#45;&gt;Node31</title>
<path fill="none" stroke="midnightblue" d="M1171.42,-280.083C1178.85,-272.22 1189.85,-260.569 1198.81,-251.081"/>
<polygon fill="midnightblue" stroke="midnightblue" points="1201.41,-253.424 1205.74,-243.751 1196.32,-248.618 1201.41,-253.424"/>
</g>
<!-- Node32 -->
<g id="node38" class="node"><title>Node32</title>
<g id="a_node38"><a xlink:href="plugins_8hpp.html" target="_top" xlink:title="alib/config/plugins.hpp">
<polygon fill="white" stroke="red" points="1103.5,-168.5 1103.5,-187.5 1216.5,-187.5 1216.5,-168.5 1103.5,-168.5"/>
<text text-anchor="middle" x="1160" y="-175.5" font-family="Helvetica,sans-Serif" font-size="10.00">alib/config/plugins.hpp</text>
</a>
</g>
</g>
<!-- Node26&#45;&gt;Node32 -->
<g id="edge48" class="edge"><title>Node26&#45;&gt;Node32</title>
<path fill="none" stroke="midnightblue" d="M1154.52,-280.234C1146.95,-271.75 1136.4,-258.131 1132,-244 1126.72,-227.032 1136.34,-208.49 1145.71,-195.569"/>
<polygon fill="midnightblue" stroke="midnightblue" points="1148.54,-197.633 1151.98,-187.609 1143.04,-193.305 1148.54,-197.633"/>
</g>
<!-- Node33 -->
<g id="node39" class="node"><title>Node33</title>
<g id="a_node39"><a xlink:href="inmemoryplugin_8hpp.html" target="_top" xlink:title="alib/config/inmemoryplugin.hpp">
<polygon fill="white" stroke="black" points="1305.5,-224.5 1305.5,-243.5 1456.5,-243.5 1456.5,-224.5 1305.5,-224.5"/>
<text text-anchor="middle" x="1381" y="-231.5" font-family="Helvetica,sans-Serif" font-size="10.00">alib/config/inmemoryplugin.hpp</text>
</a>
</g>
</g>
<!-- Node26&#45;&gt;Node33 -->
<g id="edge49" class="edge"><title>Node26&#45;&gt;Node33</title>
<path fill="none" stroke="midnightblue" d="M1197.54,-280.444C1235.25,-271.102 1295.74,-256.119 1336.86,-245.933"/>
<polygon fill="midnightblue" stroke="midnightblue" points="1337.75,-249.318 1346.62,-243.516 1336.07,-242.524 1337.75,-249.318"/>
</g>
<!-- Node34&#45;&gt;Node30 -->
<g id="edge60" class="edge"><title>Node34&#45;&gt;Node30</title>
<path fill="none" stroke="midnightblue" d="M1572.24,-224.435C1565.39,-209.975 1549.38,-181.026 1526,-168 1464.48,-133.725 1265.83,-125.451 1156.98,-123.524"/>
<polygon fill="midnightblue" stroke="midnightblue" points="1156.79,-120.02 1146.74,-123.357 1156.68,-127.02 1156.79,-120.02"/>
</g>
<!-- Node36&#45;&gt;Node2 -->
<g id="edge61" class="edge"><title>Node36&#45;&gt;Node2</title>
<path fill="none" stroke="midnightblue" d="M1466.13,-355.751C1467.66,-362.858 1468.1,-373.136 1467.47,-382.101"/>
<polygon fill="midnightblue" stroke="midnightblue" points="1463.99,-381.713 1466.17,-392.083 1470.93,-382.622 1463.99,-381.713"/>
</g>
<!-- Node37&#45;&gt;Node1 -->
<g id="edge62" class="edge"><title>Node37&#45;&gt;Node1</title>
<path fill="none" stroke="midnightblue" d="M1262.68,-355.591C1214.63,-374.951 1097.74,-422.05 1041.81,-444.586"/>
<polygon fill="midnightblue" stroke="midnightblue" points="1040.39,-441.385 1032.42,-448.368 1043.01,-447.877 1040.39,-441.385"/>
</g>
<!-- Node37&#45;&gt;Node2 -->
<g id="edge63" class="edge"><title>Node37&#45;&gt;Node2</title>
<path fill="none" stroke="midnightblue" d="M1308.13,-353.008C1339.36,-361.745 1393.48,-378.131 1428.33,-389.301"/>
<polygon fill="midnightblue" stroke="midnightblue" points="1427.45,-392.695 1438.04,-392.444 1429.61,-386.035 1427.45,-392.695"/>
</g>
<!-- Node37&#45;&gt;Node29 -->
<g id="edge66" class="edge"><title>Node37&#45;&gt;Node29</title>
<path fill="none" stroke="midnightblue" d="M1259.7,-344.368C1195.5,-341.561 1018.41,-326.343 904,-244 877.394,-224.851 871.615,-216.822 856,-188 848.124,-173.463 843.168,-155.283 840.3,-141.849"/>
<polygon fill="midnightblue" stroke="midnightblue" points="843.704,-141.016 838.364,-131.865 836.832,-142.348 843.704,-141.016"/>
</g>
<!-- Node37&#45;&gt;Node26 -->
<g id="edge64" class="edge"><title>Node37&#45;&gt;Node26</title>
<path fill="none" stroke="midnightblue" d="M1264.83,-336.444C1245.09,-327.636 1214.11,-313.812 1191.51,-303.722"/>
<polygon fill="midnightblue" stroke="midnightblue" points="1192.64,-300.396 1182.08,-299.516 1189.79,-306.788 1192.64,-300.396"/>
</g>
<!-- Node37&#45;&gt;Node34 -->
<g id="edge67" class="edge"><title>Node37&#45;&gt;Node34</title>
<path fill="none" stroke="midnightblue" d="M1279.81,-336.214C1273.95,-322.461 1265.42,-295.79 1279,-280 1286.31,-271.501 1417.78,-254.119 1503.33,-243.62"/>
<polygon fill="midnightblue" stroke="midnightblue" points="1503.76,-247.093 1513.26,-242.406 1502.91,-240.145 1503.76,-247.093"/>
</g>
<!-- Node37&#45;&gt;Node27 -->
<g id="edge65" class="edge"><title>Node37&#45;&gt;Node27</title>
<path fill="none" stroke="midnightblue" d="M1259.95,-342.18C1221.73,-337.129 1145.32,-324.679 1085,-300 1052.85,-286.847 1019.34,-264.306 999.063,-249.529"/>
<polygon fill="midnightblue" stroke="midnightblue" points="1001.1,-246.681 990.98,-243.535 996.927,-252.303 1001.1,-246.681"/>
</g>
<!-- Node38 -->
<g id="node40" class="node"><title>Node38</title>
<g id="a_node40"><a xlink:href="logger_8hpp.html" target="_top" xlink:title="alox/core/logger.hpp">
<polygon fill="white" stroke="black" points="1598,-280.5 1598,-299.5 1702,-299.5 1702,-280.5 1598,-280.5"/>
<text text-anchor="middle" x="1650" y="-287.5" font-family="Helvetica,sans-Serif" font-size="10.00">alox/core/logger.hpp</text>
</a>
</g>
</g>
<!-- Node37&#45;&gt;Node38 -->
<g id="edge68" class="edge"><title>Node37&#45;&gt;Node38</title>
<path fill="none" stroke="midnightblue" d="M1308.01,-341.457C1364.2,-333.168 1505.66,-312.297 1587.97,-300.152"/>
<polygon fill="midnightblue" stroke="midnightblue" points="1588.57,-303.602 1597.95,-298.68 1587.55,-296.677 1588.57,-303.602"/>
</g>
<!-- Node39 -->
<g id="node41" class="node"><title>Node39</title>
<g id="a_node41"><a xlink:href="domain_8hpp.html" target="_top" xlink:title="alox/core/domain.hpp">
<polygon fill="white" stroke="black" points="1470,-280.5 1470,-299.5 1580,-299.5 1580,-280.5 1470,-280.5"/>
<text text-anchor="middle" x="1525" y="-287.5" font-family="Helvetica,sans-Serif" font-size="10.00">alox/core/domain.hpp</text>
</a>
</g>
</g>
<!-- Node37&#45;&gt;Node39 -->
<g id="edge69" class="edge"><title>Node37&#45;&gt;Node39</title>
<path fill="none" stroke="midnightblue" d="M1308.43,-339.525C1347.81,-330.702 1426.03,-313.176 1476.9,-301.779"/>
<polygon fill="midnightblue" stroke="midnightblue" points="1477.69,-305.187 1486.68,-299.585 1476.16,-298.356 1477.69,-305.187"/>
</g>
<!-- Node40 -->
<g id="node42" class="node"><title>Node40</title>
<g id="a_node42"><a xlink:href="scopestore_8hpp.html" target="_top" xlink:title="alox/core/scopestore.hpp">
<polygon fill="white" stroke="black" points="1288,-280.5 1288,-299.5 1414,-299.5 1414,-280.5 1288,-280.5"/>
<text text-anchor="middle" x="1351" y="-287.5" font-family="Helvetica,sans-Serif" font-size="10.00">alox/core/scopestore.hpp</text>
</a>
</g>
</g>
<!-- Node37&#45;&gt;Node40 -->
<g id="edge70" class="edge"><title>Node37&#45;&gt;Node40</title>
<path fill="none" stroke="midnightblue" d="M1294.76,-336.324C1304.77,-328.263 1319.89,-316.077 1331.93,-306.369"/>
<polygon fill="midnightblue" stroke="midnightblue" points="1334.45,-308.834 1340.04,-299.834 1330.06,-303.384 1334.45,-308.834"/>
</g>
<!-- Node13&#45;&gt;Node3 -->
<g id="edge34" class="edge"><title>Node13&#45;&gt;Node3</title>
<path fill="none" stroke="midnightblue" d="M835.877,-19.5164C880.6,-28.8809 949.4,-43.95 994.12,-54.1529"/>
<polygon fill="midnightblue" stroke="midnightblue" points="993.58,-57.6198 1004.11,-56.4435 995.145,-50.7969 993.58,-57.6198"/>
</g>
<!-- Node14&#45;&gt;Node3 -->
<g id="edge35" class="edge"><title>Node14&#45;&gt;Node3</title>
<path fill="none" stroke="midnightblue" d="M936.952,-19.5164C959.405,-28.3091 991.908,-42.1312 1014.04,-52.2321"/>
<polygon fill="midnightblue" stroke="midnightblue" points="1012.58,-55.4109 1023.12,-56.4435 1015.52,-49.0607 1012.58,-55.4109"/>
</g>
<!-- Node15&#45;&gt;Node3 -->
<g id="edge36" class="edge"><title>Node15&#45;&gt;Node3</title>
<path fill="none" stroke="midnightblue" d="M1043.13,-19.7511C1044.66,-26.8579 1045.1,-37.1357 1044.47,-46.1005"/>
<polygon fill="midnightblue" stroke="midnightblue" points="1040.99,-45.7134 1043.17,-56.083 1047.93,-46.6216 1040.99,-45.7134"/>
</g>
<!-- Node16&#45;&gt;Node3 -->
<g id="edge37" class="edge"><title>Node16&#45;&gt;Node3</title>
<path fill="none" stroke="midnightblue" d="M1153.42,-19.5164C1133.68,-28.4669 1099.55,-42.6287 1073.42,-52.772"/>
<polygon fill="midnightblue" stroke="midnightblue" points="1071.93,-49.5952 1063.85,-56.4435 1074.44,-56.1312 1071.93,-49.5952"/>
</g>
<!-- Node17&#45;&gt;Node3 -->
<g id="edge38" class="edge"><title>Node17&#45;&gt;Node3</title>
<path fill="none" stroke="midnightblue" d="M1262.86,-19.5298C1215.6,-29.7732 1133.14,-46.8283 1082.22,-56.884"/>
<polygon fill="midnightblue" stroke="midnightblue" points="1081.3,-53.4966 1072.16,-58.8581 1082.65,-60.3654 1081.3,-53.4966"/>
</g>
<!-- Node18&#45;&gt;Node3 -->
<g id="edge39" class="edge"><title>Node18&#45;&gt;Node3</title>
<path fill="none" stroke="midnightblue" d="M1381.55,-19.5342C1300.41,-30.7656 1155.6,-50.1807 1082.57,-59.5843"/>
<polygon fill="midnightblue" stroke="midnightblue" points="1081.81,-56.1535 1072.34,-60.8969 1082.7,-63.0966 1081.81,-56.1535"/>
</g>
<!-- Node19&#45;&gt;Node3 -->
<g id="edge40" class="edge"><title>Node19&#45;&gt;Node3</title>
<path fill="none" stroke="midnightblue" d="M1528.24,-19.5067C1526.81,-19.6754 1525.4,-19.8401 1524,-20 1361.76,-38.5418 1167.85,-55.1085 1082.18,-61.8258"/>
<polygon fill="midnightblue" stroke="midnightblue" points="1081.74,-58.3497 1072.04,-62.6143 1082.28,-65.3287 1081.74,-58.3497"/>
</g>
<!-- Node20&#45;&gt;Node3 -->
<g id="edge41" class="edge"><title>Node20&#45;&gt;Node3</title>
<path fill="none" stroke="midnightblue" d="M1662.27,-19.5389C1660.5,-19.6959 1658.74,-19.8498 1657,-20 1442.16,-38.5451 1184.34,-55.9833 1082.41,-62.4022"/>
<polygon fill="midnightblue" stroke="midnightblue" points="1081.95,-58.9244 1072.18,-63.0418 1082.38,-65.9107 1081.95,-58.9244"/>
</g>
<!-- Node21&#45;&gt;Node3 -->
<g id="edge42" class="edge"><title>Node21&#45;&gt;Node3</title>
<path fill="none" stroke="midnightblue" d="M1843.04,-19.5018C1841.34,-19.6766 1839.66,-19.8432 1838,-20 1550.92,-47.1254 1203.57,-60.0018 1082.24,-63.7759"/>
<polygon fill="midnightblue" stroke="midnightblue" points="1082.1,-60.2784 1072.21,-64.0828 1082.32,-67.2751 1082.1,-60.2784"/>
</g>
<!-- Node22&#45;&gt;Node3 -->
<g id="edge43" class="edge"><title>Node22&#45;&gt;Node3</title>
<path fill="none" stroke="midnightblue" d="M1979.7,-19.5063C1977.78,-19.6798 1975.88,-19.8449 1974,-20 1631.99,-48.2558 1217.43,-60.6433 1082.58,-64.0086"/>
<polygon fill="midnightblue" stroke="midnightblue" points="1082.15,-60.5178 1072.24,-64.2623 1082.33,-67.5157 1082.15,-60.5178"/>
</g>
<!-- Node27&#45;&gt;Node28 -->
<g id="edge53" class="edge"><title>Node27&#45;&gt;Node28</title>
<path fill="none" stroke="midnightblue" d="M966.504,-224.324C953.4,-215.9 933.288,-202.971 917.893,-193.074"/>
<polygon fill="midnightblue" stroke="midnightblue" points="919.767,-190.118 909.463,-187.655 915.982,-196.006 919.767,-190.118"/>
</g>
<!-- Node27&#45;&gt;Node3 -->
<g id="edge51" class="edge"><title>Node27&#45;&gt;Node3</title>
<path fill="none" stroke="midnightblue" d="M981.49,-224.235C985.117,-203.942 995.345,-152.375 1012,-112 1015.96,-102.408 1021.61,-92.3527 1026.63,-84.1863"/>
<polygon fill="midnightblue" stroke="midnightblue" points="1029.67,-85.9219 1032.1,-75.6081 1023.77,-82.1589 1029.67,-85.9219"/>
</g>
<!-- Node27&#45;&gt;Node25 -->
<g id="edge52" class="edge"><title>Node27&#45;&gt;Node25</title>
<path fill="none" stroke="midnightblue" d="M1047.06,-225.968C1159.15,-214.215 1380.38,-191.019 1462.93,-182.362"/>
<polygon fill="midnightblue" stroke="midnightblue" points="1463.39,-185.834 1472.97,-181.31 1462.66,-178.872 1463.39,-185.834"/>
</g>
<!-- Node30&#45;&gt;Node3 -->
<g id="edge56" class="edge"><title>Node30&#45;&gt;Node3</title>
<path fill="none" stroke="midnightblue" d="M1076.4,-112.083C1069.77,-104.298 1059.98,-92.8015 1051.94,-83.3665"/>
<polygon fill="midnightblue" stroke="midnightblue" points="1054.6,-81.0939 1045.45,-75.7511 1049.27,-85.6332 1054.6,-81.0939"/>
</g>
<!-- Node32&#45;&gt;Node30 -->
<g id="edge57" class="edge"><title>Node32&#45;&gt;Node30</title>
<path fill="none" stroke="midnightblue" d="M1147.79,-168.324C1136.22,-160.107 1118.62,-147.602 1104.84,-137.807"/>
<polygon fill="midnightblue" stroke="midnightblue" points="1106.61,-134.773 1096.43,-131.834 1102.56,-140.479 1106.61,-134.773"/>
</g>
<!-- Node33&#45;&gt;Node25 -->
<g id="edge58" class="edge"><title>Node33&#45;&gt;Node25</title>
<path fill="none" stroke="midnightblue" d="M1399.06,-224.444C1417.57,-215.675 1446.58,-201.935 1467.86,-191.858"/>
<polygon fill="midnightblue" stroke="midnightblue" points="1469.48,-194.96 1477.02,-187.516 1466.49,-188.634 1469.48,-194.96"/>
</g>
<!-- Node33&#45;&gt;Node32 -->
<g id="edge59" class="edge"><title>Node33&#45;&gt;Node32</title>
<path fill="none" stroke="midnightblue" d="M1345.98,-224.444C1307.75,-215.102 1246.43,-200.119 1204.74,-189.933"/>
<polygon fill="midnightblue" stroke="midnightblue" points="1205.4,-186.49 1194.85,-187.516 1203.74,-193.29 1205.4,-186.49"/>
</g>
<!-- Node38&#45;&gt;Node2 -->
<g id="edge71" class="edge"><title>Node38&#45;&gt;Node2</title>
<path fill="none" stroke="midnightblue" d="M1634.6,-299.512C1618.44,-308.477 1592.34,-323.06 1570,-336 1539.97,-353.395 1505.64,-373.989 1483.66,-387.262"/>
<polygon fill="midnightblue" stroke="midnightblue" points="1481.79,-384.302 1475.04,-392.471 1485.41,-390.291 1481.79,-384.302"/>
</g>
<!-- Node38&#45;&gt;Node25 -->
<g id="edge72" class="edge"><title>Node38&#45;&gt;Node25</title>
<path fill="none" stroke="midnightblue" d="M1655.57,-280.454C1663.54,-267.028 1675.89,-240.799 1663,-224 1646.58,-202.6 1571.24,-189.151 1527.23,-182.979"/>
<polygon fill="midnightblue" stroke="midnightblue" points="1527.67,-179.507 1517.29,-181.635 1526.73,-186.444 1527.67,-179.507"/>
</g>
<!-- Node39&#45;&gt;Node2 -->
<g id="edge73" class="edge"><title>Node39&#45;&gt;Node2</title>
<path fill="none" stroke="midnightblue" d="M1521.48,-299.678C1516.18,-312.397 1505.55,-336.685 1494,-356 1488.16,-365.77 1480.73,-376.052 1474.4,-384.317"/>
<polygon fill="midnightblue" stroke="midnightblue" points="1471.5,-382.343 1468.09,-392.374 1477.01,-386.66 1471.5,-382.343"/>
</g>
<!-- Node39&#45;&gt;Node25 -->
<g id="edge74" class="edge"><title>Node39&#45;&gt;Node25</title>
<path fill="none" stroke="midnightblue" d="M1577.79,-280.459C1620.16,-271.232 1669.19,-253.708 1647,-224 1619.54,-187.231 1563.36,-179.27 1527.53,-178.188"/>
<polygon fill="midnightblue" stroke="midnightblue" points="1527.16,-174.683 1517.12,-178.048 1527.07,-181.682 1527.16,-174.683"/>
</g>
<!-- Node40&#45;&gt;Node2 -->
<g id="edge75" class="edge"><title>Node40&#45;&gt;Node2</title>
<path fill="none" stroke="midnightblue" d="M1355.52,-299.75C1362.64,-312.991 1377.49,-338.433 1395,-356 1407.13,-368.173 1422.98,-379.105 1436.11,-387.145"/>
<polygon fill="midnightblue" stroke="midnightblue" points="1434.71,-390.382 1445.1,-392.466 1438.28,-384.359 1434.71,-390.382"/>
</g>
</g>
</svg>
