<?xml version="1.0" encoding="UTF-8" standalone="no"?>
<!DOCTYPE svg PUBLIC "-//W3C//DTD SVG 1.1//EN"
 "http://www.w3.org/Graphics/SVG/1.1/DTD/svg11.dtd">
<!-- Generated by graphviz version 2.40.1 (20161225.0304)
 -->
<!-- Title: scopeinfo.hpp Pages: 1 -->
<svg width="4397pt" height="420pt"
 viewBox="0.00 0.00 4397.28 420.00" xmlns="http://www.w3.org/2000/svg" xmlns:xlink="http://www.w3.org/1999/xlink">
<g id="graph0" class="graph" transform="scale(1 1) rotate(0) translate(4 416)">
<title>scopeinfo.hpp</title>
<polygon fill="#ffffff" stroke="transparent" points="-4,4 -4,-416 4393.2808,-416 4393.2808,4 -4,4"/>
<!-- Node0 -->
<g id="node1" class="node">
<title>Node0</title>
<polygon fill="#bfbfbf" stroke="#000000" points="820.5,-392.5 820.5,-411.5 897.5,-411.5 897.5,-392.5 820.5,-392.5"/>
<text text-anchor="middle" x="859" y="-399.5" font-family="Helvetica,sans-Serif" font-size="10.00" fill="#000000">scopeinfo.hpp</text>
</g>
<!-- Node1 -->
<g id="node2" class="node">
<title>Node1</title>
<g id="a_node2"><a xlink:href="alox_8hpp.html" target="_top" xlink:title="alox/alox.hpp">
<polygon fill="#ffffff" stroke="#000000" points="668,-336.5 668,-355.5 742,-355.5 742,-336.5 668,-336.5"/>
<text text-anchor="middle" x="705" y="-343.5" font-family="Helvetica,sans-Serif" font-size="10.00" fill="#000000">alox/alox.hpp</text>
</a>
</g>
</g>
<!-- Node0&#45;&gt;Node1 -->
<g id="edge1" class="edge">
<title>Node0&#45;&gt;Node1</title>
<path fill="none" stroke="#191970" d="M832.5265,-392.3733C807.1403,-383.1419 768.6355,-369.1402 740.578,-358.9375"/>
<polygon fill="#191970" stroke="#191970" points="741.7222,-355.6293 731.1281,-355.5011 739.3299,-362.2079 741.7222,-355.6293"/>
</g>
<!-- Node26 -->
<g id="node3" class="node">
<title>Node26</title>
<polygon fill="#ffffff" stroke="#bfbfbf" points="1046.5,-168.5 1046.5,-187.5 1081.5,-187.5 1081.5,-168.5 1046.5,-168.5"/>
<text text-anchor="middle" x="1064" y="-175.5" font-family="Helvetica,sans-Serif" font-size="10.00" fill="#000000">map</text>
</g>
<!-- Node0&#45;&gt;Node26 -->
<g id="edge2" class="edge">
<title>Node0&#45;&gt;Node26</title>
<path fill="none" stroke="#191970" d="M868.2177,-392.4405C884.7189,-375.0206 919.8362,-336.528 944,-300 964.9465,-268.3357 956.7289,-251.4083 983,-224 998.0609,-208.2872 1019.6734,-196.3818 1036.7862,-188.6233"/>
<polygon fill="#191970" stroke="#191970" points="1038.4628,-191.7119 1046.2584,-184.537 1035.6899,-185.2845 1038.4628,-191.7119"/>
</g>
<!-- Node80 -->
<g id="node4" class="node">
<title>Node80</title>
<g id="a_node4"><a xlink:href="ticks_8hpp.html" target="_top" xlink:title="alib/time/ticks.hpp">
<polygon fill="#ffffff" stroke="#000000" points="276,-336.5 276,-355.5 372,-355.5 372,-336.5 276,-336.5"/>
<text text-anchor="middle" x="324" y="-343.5" font-family="Helvetica,sans-Serif" font-size="10.00" fill="#000000">alib/time/ticks.hpp</text>
</a>
</g>
</g>
<!-- Node0&#45;&gt;Node80 -->
<g id="edge3" class="edge">
<title>Node0&#45;&gt;Node80</title>
<path fill="none" stroke="#191970" d="M820.0932,-397.9275C727.2665,-388.2111 492.3868,-363.6255 382.4425,-352.1173"/>
<polygon fill="#191970" stroke="#191970" points="382.5118,-348.6056 372.2017,-351.0454 381.783,-355.5675 382.5118,-348.6056"/>
</g>
<!-- Node83 -->
<g id="node5" class="node">
<title>Node83</title>
<polygon fill="#ffffff" stroke="#bfbfbf" points="991,-336.5 991,-355.5 1053,-355.5 1053,-336.5 991,-336.5"/>
<text text-anchor="middle" x="1022" y="-343.5" font-family="Helvetica,sans-Serif" font-size="10.00" fill="#000000">thread.hpp</text>
</g>
<!-- Node0&#45;&gt;Node83 -->
<g id="edge4" class="edge">
<title>Node0&#45;&gt;Node83</title>
<path fill="none" stroke="#191970" d="M887.0207,-392.3733C914.0078,-383.1016 955.0017,-369.0178 984.7311,-358.804"/>
<polygon fill="#191970" stroke="#191970" points="986.0248,-362.0605 994.3449,-355.5011 983.7503,-355.4403 986.0248,-362.0605"/>
</g>
<!-- Node84 -->
<g id="node6" class="node">
<title>Node84</title>
<g id="a_node6"><a xlink:href="directory_8hpp.html" target="_top" xlink:title="alib/system/directory.hpp">
<polygon fill="#ffffff" stroke="#000000" points="1071.5,-336.5 1071.5,-355.5 1196.5,-355.5 1196.5,-336.5 1071.5,-336.5"/>
<text text-anchor="middle" x="1134" y="-343.5" font-family="Helvetica,sans-Serif" font-size="10.00" fill="#000000">alib/system/directory.hpp</text>
</a>
</g>
</g>
<!-- Node0&#45;&gt;Node84 -->
<g id="edge5" class="edge">
<title>Node0&#45;&gt;Node84</title>
<path fill="none" stroke="#191970" d="M897.5271,-394.1545C944.1875,-384.6527 1023.1956,-368.5638 1076.9304,-357.6214"/>
<polygon fill="#191970" stroke="#191970" points="1077.889,-360.9981 1086.9895,-355.573 1076.4922,-354.1389 1077.889,-360.9981"/>
</g>
<!-- Node2 -->
<g id="node7" class="node">
<title>Node2</title>
<g id="a_node7"><a xlink:href="alib_8hpp.html" target="_top" xlink:title="alib/alib.hpp">
<polygon fill="#ffffff" stroke="#000000" points="2725,-280.5 2725,-299.5 2793,-299.5 2793,-280.5 2725,-280.5"/>
<text text-anchor="middle" x="2759" y="-287.5" font-family="Helvetica,sans-Serif" font-size="10.00" fill="#000000">alib/alib.hpp</text>
</a>
</g>
</g>
<!-- Node1&#45;&gt;Node2 -->
<g id="edge6" class="edge">
<title>Node1&#45;&gt;Node2</title>
<path fill="none" stroke="#191970" d="M742.1833,-344.5371C795.3453,-342.4729 896.1442,-338.6609 982,-336 1672.5524,-314.5978 2514.2722,-295.4499 2714.6829,-290.9806"/>
<polygon fill="#191970" stroke="#191970" points="2714.9005,-294.4767 2724.8201,-290.7548 2714.7446,-287.4784 2714.9005,-294.4767"/>
</g>
<!-- Node54 -->
<g id="node8" class="node">
<title>Node54</title>
<g id="a_node8"><a xlink:href="alox__symbols_8hpp.html" target="_top" xlink:title="internals/alox_symbols.hpp">
<polygon fill="#ffffff" stroke="#000000" points="799.5,-280.5 799.5,-299.5 934.5,-299.5 934.5,-280.5 799.5,-280.5"/>
<text text-anchor="middle" x="867" y="-287.5" font-family="Helvetica,sans-Serif" font-size="10.00" fill="#000000">internals/alox_symbols.hpp</text>
</a>
</g>
</g>
<!-- Node1&#45;&gt;Node54 -->
<g id="edge7" class="edge">
<title>Node1&#45;&gt;Node54</title>
<path fill="none" stroke="#191970" d="M732.8488,-336.3733C759.6703,-327.1016 800.4127,-313.0178 829.9598,-302.804"/>
<polygon fill="#191970" stroke="#191970" points="831.2069,-306.0762 839.5146,-299.5011 828.9198,-299.4603 831.2069,-306.0762"/>
</g>
<!-- Node55 -->
<g id="node9" class="node">
<title>Node55</title>
<g id="a_node9"><a xlink:href="alox__macros_8hpp.html" target="_top" xlink:title="internals/alox_macros.hpp">
<polygon fill="#ffffff" stroke="#000000" points="443.5,-280.5 443.5,-299.5 574.5,-299.5 574.5,-280.5 443.5,-280.5"/>
<text text-anchor="middle" x="509" y="-287.5" font-family="Helvetica,sans-Serif" font-size="10.00" fill="#000000">internals/alox_macros.hpp</text>
</a>
</g>
</g>
<!-- Node1&#45;&gt;Node55 -->
<g id="edge8" class="edge">
<title>Node1&#45;&gt;Node55</title>
<path fill="none" stroke="#191970" d="M671.3064,-336.3733C638.2913,-326.9404 587.8427,-312.5265 551.9614,-302.2747"/>
<polygon fill="#191970" stroke="#191970" points="552.8307,-298.8831 542.2539,-299.5011 550.9076,-305.6137 552.8307,-298.8831"/>
</g>
<!-- Node56 -->
<g id="node10" class="node">
<title>Node56</title>
<g id="a_node10"><a xlink:href="configuration_8hpp.html" target="_top" xlink:title="alib/config/configuration.hpp">
<polygon fill="#ffffff" stroke="#000000" points="524,-224.5 524,-243.5 662,-243.5 662,-224.5 524,-224.5"/>
<text text-anchor="middle" x="593" y="-231.5" font-family="Helvetica,sans-Serif" font-size="10.00" fill="#000000">alib/config/configuration.hpp</text>
</a>
</g>
</g>
<!-- Node1&#45;&gt;Node56 -->
<g id="edge9" class="edge">
<title>Node1&#45;&gt;Node56</title>
<path fill="none" stroke="#191970" d="M667.778,-342.3137C597.2606,-334.9533 449.875,-317.6236 435,-300 407.2144,-267.0802 461.5118,-250.2816 513.8679,-241.9014"/>
<polygon fill="#191970" stroke="#191970" points="514.5768,-245.3342 523.9441,-240.3839 513.5344,-238.4122 514.5768,-245.3342"/>
</g>
<!-- Node71 -->
<g id="node11" class="node">
<title>Node71</title>
<g id="a_node11"><a xlink:href="aloxtypesandenums_8hpp.html" target="_top" xlink:title="aloxtypesandenums.hpp">
<polygon fill="#ffffff" stroke="#000000" points="593,-280.5 593,-299.5 715,-299.5 715,-280.5 593,-280.5"/>
<text text-anchor="middle" x="654" y="-287.5" font-family="Helvetica,sans-Serif" font-size="10.00" fill="#000000">aloxtypesandenums.hpp</text>
</a>
</g>
</g>
<!-- Node1&#45;&gt;Node71 -->
<g id="edge10" class="edge">
<title>Node1&#45;&gt;Node71</title>
<path fill="none" stroke="#191970" d="M696.1165,-336.2455C688.8034,-328.2155 678.2609,-316.6394 669.5533,-307.0781"/>
<polygon fill="#191970" stroke="#191970" points="672.1028,-304.6795 662.7817,-299.6427 666.9273,-309.3928 672.1028,-304.6795"/>
</g>
<!-- Node72 -->
<g id="node12" class="node">
<title>Node72</title>
<g id="a_node12"><a xlink:href="log_8hpp.html" target="_top" xlink:title="log.hpp">
<polygon fill="#ffffff" stroke="#000000" points="733,-280.5 733,-299.5 781,-299.5 781,-280.5 733,-280.5"/>
<text text-anchor="middle" x="757" y="-287.5" font-family="Helvetica,sans-Serif" font-size="10.00" fill="#000000">log.hpp</text>
</a>
</g>
</g>
<!-- Node1&#45;&gt;Node72 -->
<g id="edge11" class="edge">
<title>Node1&#45;&gt;Node72</title>
<path fill="none" stroke="#191970" d="M708.7909,-336.2455C714.8148,-328.0549 725.5296,-316.1749 735.4553,-306.5069"/>
<polygon fill="#191970" stroke="#191970" points="737.8842,-309.0276 742.801,-299.6427 733.1048,-303.913 737.8842,-309.0276"/>
</g>
<!-- Node73 -->
<g id="node13" class="node">
<title>Node73</title>
<g id="a_node13"><a xlink:href="lox_8hpp.html" target="_top" xlink:title="lox.hpp">
<polygon fill="#ffffff" stroke="#ff0000" points="339,-280.5 339,-299.5 387,-299.5 387,-280.5 339,-280.5"/>
<text text-anchor="middle" x="363" y="-287.5" font-family="Helvetica,sans-Serif" font-size="10.00" fill="#000000">lox.hpp</text>
</a>
</g>
</g>
<!-- Node1&#45;&gt;Node73 -->
<g id="edge12" class="edge">
<title>Node1&#45;&gt;Node73</title>
<path fill="none" stroke="#191970" d="M667.8853,-342.3387C610.69,-335.8914 498.0973,-321.3378 397.1599,-300.9886"/>
<polygon fill="#191970" stroke="#191970" points="397.6159,-297.5095 387.1176,-298.9366 396.2144,-304.3678 397.6159,-297.5095"/>
</g>
<!-- Node81 -->
<g id="node50" class="node">
<title>Node81</title>
<g id="a_node50"><a xlink:href="timelib_8hpp.html" target="_top" xlink:title="alib/time/timelib.hpp">
<polygon fill="#ffffff" stroke="#ff0000" points="0,-112.5 0,-131.5 104,-131.5 104,-112.5 0,-112.5"/>
<text text-anchor="middle" x="52" y="-119.5" font-family="Helvetica,sans-Serif" font-size="10.00" fill="#000000">alib/time/timelib.hpp</text>
</a>
</g>
</g>
<!-- Node80&#45;&gt;Node81 -->
<g id="edge66" class="edge">
<title>Node80&#45;&gt;Node81</title>
<path fill="none" stroke="#191970" d="M312.3125,-336.375C270.027,-301.5517 124.7079,-181.8771 71.6191,-138.1569"/>
<polygon fill="#191970" stroke="#191970" points="73.5883,-135.2445 63.644,-131.5891 69.1383,-140.648 73.5883,-135.2445"/>
</g>
<!-- Node3 -->
<g id="node14" class="node">
<title>Node3</title>
<polygon fill="#ffffff" stroke="#bfbfbf" points="3773,-224.5 3773,-243.5 3825,-243.5 3825,-224.5 3773,-224.5"/>
<text text-anchor="middle" x="3799" y="-231.5" font-family="Helvetica,sans-Serif" font-size="10.00" fill="#000000">assert.h</text>
</g>
<!-- Node2&#45;&gt;Node3 -->
<g id="edge13" class="edge">
<title>Node2&#45;&gt;Node3</title>
<path fill="none" stroke="#191970" d="M2793.1339,-289.5026C2943.8143,-287.1463 3550.9325,-275.9259 3762.6934,-243.7962"/>
<polygon fill="#191970" stroke="#191970" points="3763.4456,-247.2208 3772.7757,-242.2008 3762.3515,-240.3068 3763.4456,-247.2208"/>
</g>
<!-- Node4 -->
<g id="node15" class="node">
<title>Node4</title>
<polygon fill="#ffffff" stroke="#bfbfbf" points="3843,-224.5 3843,-243.5 3889,-243.5 3889,-224.5 3843,-224.5"/>
<text text-anchor="middle" x="3866" y="-231.5" font-family="Helvetica,sans-Serif" font-size="10.00" fill="#000000">cstdint</text>
</g>
<!-- Node2&#45;&gt;Node4 -->
<g id="edge14" class="edge">
<title>Node2&#45;&gt;Node4</title>
<path fill="none" stroke="#191970" d="M2793.0992,-289.732C2950.2855,-288.3171 3606.5713,-280.404 3832.6391,-243.7432"/>
<polygon fill="#191970" stroke="#191970" points="3833.4781,-247.1511 3842.7544,-242.0324 3832.3107,-240.2491 3833.4781,-247.1511"/>
</g>
<!-- Node5 -->
<g id="node16" class="node">
<title>Node5</title>
<g id="a_node16"><a xlink:href="prepro_8hpp.html" target="_top" xlink:title="alib/lang/prepro.hpp">
<polygon fill="#ffffff" stroke="#000000" points="3907.5,-224.5 3907.5,-243.5 4008.5,-243.5 4008.5,-224.5 3907.5,-224.5"/>
<text text-anchor="middle" x="3958" y="-231.5" font-family="Helvetica,sans-Serif" font-size="10.00" fill="#000000">alib/lang/prepro.hpp</text>
</a>
</g>
</g>
<!-- Node2&#45;&gt;Node5 -->
<g id="edge15" class="edge">
<title>Node2&#45;&gt;Node5</title>
<path fill="none" stroke="#191970" d="M2793.0946,-289.198C2955.8366,-285.2831 3655.3423,-267.4542 3897.1862,-243.9207"/>
<polygon fill="#191970" stroke="#191970" points="3897.7209,-247.3847 3907.3212,-242.9031 3897.0215,-240.4197 3897.7209,-247.3847"/>
</g>
<!-- Node6 -->
<g id="node17" class="node">
<title>Node6</title>
<g id="a_node17"><a xlink:href="distribution_8hpp_source.html" target="_top" xlink:title="alib/distribution.hpp">
<polygon fill="#ffffff" stroke="#000000" points="4026.5,-224.5 4026.5,-243.5 4127.5,-243.5 4127.5,-224.5 4026.5,-224.5"/>
<text text-anchor="middle" x="4077" y="-231.5" font-family="Helvetica,sans-Serif" font-size="10.00" fill="#000000">alib/distribution.hpp</text>
</a>
</g>
</g>
<!-- Node2&#45;&gt;Node6 -->
<g id="edge16" class="edge">
<title>Node2&#45;&gt;Node6</title>
<path fill="none" stroke="#191970" d="M2793.1352,-289.3604C2966.3855,-286.0229 3750.2424,-269.8041 4016.2085,-244.0426"/>
<polygon fill="#191970" stroke="#191970" points="4016.6063,-247.5204 4026.2091,-243.0441 4015.9108,-240.555 4016.6063,-247.5204"/>
</g>
<!-- Node7 -->
<g id="node18" class="node">
<title>Node7</title>
<g id="a_node18"><a xlink:href="assert_8hpp.html" target="_top" xlink:title="alib/debug/assert.hpp">
<polygon fill="#ffffff" stroke="#000000" points="4146,-224.5 4146,-243.5 4256,-243.5 4256,-224.5 4146,-224.5"/>
<text text-anchor="middle" x="4201" y="-231.5" font-family="Helvetica,sans-Serif" font-size="10.00" fill="#000000">alib/debug/assert.hpp</text>
</a>
</g>
</g>
<!-- Node2&#45;&gt;Node7 -->
<g id="edge17" class="edge">
<title>Node2&#45;&gt;Node7</title>
<path fill="none" stroke="#191970" d="M2793.2517,-289.4225C2976.5496,-286.2472 3843.772,-270.1312 4135.7536,-243.9801"/>
<polygon fill="#191970" stroke="#191970" points="4136.2589,-247.4485 4145.8955,-243.0456 4135.6165,-240.478 4136.2589,-247.4485"/>
</g>
<!-- Node8 -->
<g id="node19" class="node">
<title>Node8</title>
<g id="a_node19"><a xlink:href="rtti_8hpp.html" target="_top" xlink:title="alib/lang/rtti.hpp">
<polygon fill="#ffffff" stroke="#ff0000" points="4274,-224.5 4274,-243.5 4360,-243.5 4360,-224.5 4274,-224.5"/>
<text text-anchor="middle" x="4317" y="-231.5" font-family="Helvetica,sans-Serif" font-size="10.00" fill="#000000">alib/lang/rtti.hpp</text>
</a>
</g>
</g>
<!-- Node2&#45;&gt;Node8 -->
<g id="edge18" class="edge">
<title>Node2&#45;&gt;Node8</title>
<path fill="none" stroke="#191970" d="M2793.1953,-289.6972C2986.54,-287.8743 3945.1015,-277.3314 4263.7965,-243.9232"/>
<polygon fill="#191970" stroke="#191970" points="4264.3839,-247.3802 4273.9503,-242.8268 4263.6324,-240.4207 4264.3839,-247.3802"/>
</g>
<!-- Node12 -->
<g id="node20" class="node">
<title>Node12</title>
<g id="a_node20"><a xlink:href="singleton_8hpp.html" target="_top" xlink:title="alib/lang/singleton.hpp">
<polygon fill="#ffffff" stroke="#ff0000" points="1126.5,-224.5 1126.5,-243.5 1239.5,-243.5 1239.5,-224.5 1126.5,-224.5"/>
<text text-anchor="middle" x="1183" y="-231.5" font-family="Helvetica,sans-Serif" font-size="10.00" fill="#000000">alib/lang/singleton.hpp</text>
</a>
</g>
</g>
<!-- Node2&#45;&gt;Node12 -->
<g id="edge19" class="edge">
<title>Node2&#45;&gt;Node12</title>
<path fill="none" stroke="#191970" d="M2724.7324,-289.5156C2530.9762,-286.693 1570.3369,-271.5628 1250.0351,-243.9564"/>
<polygon fill="#191970" stroke="#191970" points="1250.0989,-240.4485 1239.8291,-243.0527 1249.4814,-247.4212 1250.0989,-240.4485"/>
</g>
<!-- Node14 -->
<g id="node21" class="node">
<title>Node14</title>
<g id="a_node21"><a xlink:href="types_8hpp.html" target="_top" xlink:title="alib/lang/types.hpp">
<polygon fill="#ffffff" stroke="#000000" points="1258,-224.5 1258,-243.5 1356,-243.5 1356,-224.5 1258,-224.5"/>
<text text-anchor="middle" x="1307" y="-231.5" font-family="Helvetica,sans-Serif" font-size="10.00" fill="#000000">alib/lang/types.hpp</text>
</a>
</g>
</g>
<!-- Node2&#45;&gt;Node14 -->
<g id="edge20" class="edge">
<title>Node2&#45;&gt;Node14</title>
<path fill="none" stroke="#191970" d="M2724.9561,-289.5137C2540.8236,-286.7878 1661.7646,-272.5325 1366.5506,-243.9961"/>
<polygon fill="#191970" stroke="#191970" points="1366.5949,-240.4833 1356.2973,-242.975 1365.9012,-247.4489 1366.5949,-240.4833"/>
</g>
<!-- Node15 -->
<g id="node22" class="node">
<title>Node15</title>
<g id="a_node22"><a xlink:href="enums_8hpp.html" target="_top" xlink:title="alib/lang/enums.hpp">
<polygon fill="#ffffff" stroke="#000000" points="1374,-224.5 1374,-243.5 1478,-243.5 1478,-224.5 1374,-224.5"/>
<text text-anchor="middle" x="1426" y="-231.5" font-family="Helvetica,sans-Serif" font-size="10.00" fill="#000000">alib/lang/enums.hpp</text>
</a>
</g>
</g>
<!-- Node2&#45;&gt;Node15 -->
<g id="edge21" class="edge">
<title>Node2&#45;&gt;Node15</title>
<path fill="none" stroke="#191970" d="M2724.8346,-289.3365C2548.3011,-285.8211 1738.0959,-268.5994 1488,-244 1487.8983,-243.99 1487.7965,-243.9799 1487.6946,-243.9698"/>
<polygon fill="#191970" stroke="#191970" points="1488.3657,-240.5236 1478.0344,-242.8716 1487.575,-247.4788 1488.3657,-240.5236"/>
</g>
<!-- Node16 -->
<g id="node23" class="node">
<title>Node16</title>
<g id="a_node23"><a xlink:href="cstring_8hpp.html" target="_top" xlink:title="alib/strings/cstring.hpp">
<polygon fill="#ffffff" stroke="#ff0000" points="1496.5,-224.5 1496.5,-243.5 1611.5,-243.5 1611.5,-224.5 1496.5,-224.5"/>
<text text-anchor="middle" x="1554" y="-231.5" font-family="Helvetica,sans-Serif" font-size="10.00" fill="#000000">alib/strings/cstring.hpp</text>
</a>
</g>
</g>
<!-- Node2&#45;&gt;Node16 -->
<g id="edge22" class="edge">
<title>Node2&#45;&gt;Node16</title>
<path fill="none" stroke="#191970" d="M2724.9431,-289.1195C2562.3795,-284.8418 1863.6272,-265.5904 1621.8288,-243.9484"/>
<polygon fill="#191970" stroke="#191970" points="1621.9743,-240.4471 1611.6953,-243.0144 1621.3318,-247.4176 1621.9743,-240.4471"/>
</g>
<!-- Node19 -->
<g id="node24" class="node">
<title>Node19</title>
<g id="a_node24"><a xlink:href="string_8hpp.html" target="_top" xlink:title="alib/strings/string.hpp">
<polygon fill="#ffffff" stroke="#000000" points="1630,-224.5 1630,-243.5 1740,-243.5 1740,-224.5 1630,-224.5"/>
<text text-anchor="middle" x="1685" y="-231.5" font-family="Helvetica,sans-Serif" font-size="10.00" fill="#000000">alib/strings/string.hpp</text>
</a>
</g>
</g>
<!-- Node2&#45;&gt;Node19 -->
<g id="edge23" class="edge">
<title>Node2&#45;&gt;Node19</title>
<path fill="none" stroke="#191970" d="M2724.9343,-289.7684C2597.8414,-288.6267 2139.2021,-282.0239 1750.3066,-243.9072"/>
<polygon fill="#191970" stroke="#191970" points="1750.5631,-240.4155 1740.2672,-242.9146 1749.8743,-247.3816 1750.5631,-240.4155"/>
</g>
<!-- Node20 -->
<g id="node25" class="node">
<title>Node20</title>
<g id="a_node25"><a xlink:href="tstring_8hpp.html" target="_top" xlink:title="alib/strings/tstring.hpp">
<polygon fill="#ffffff" stroke="#000000" points="1758.5,-224.5 1758.5,-243.5 1871.5,-243.5 1871.5,-224.5 1758.5,-224.5"/>
<text text-anchor="middle" x="1815" y="-231.5" font-family="Helvetica,sans-Serif" font-size="10.00" fill="#000000">alib/strings/tstring.hpp</text>
</a>
</g>
</g>
<!-- Node2&#45;&gt;Node20 -->
<g id="edge24" class="edge">
<title>Node2&#45;&gt;Node20</title>
<path fill="none" stroke="#191970" d="M2724.6001,-289.4095C2607.9229,-287.1511 2216.3923,-277.4845 1882.2046,-244.0209"/>
<polygon fill="#191970" stroke="#191970" points="1882.138,-240.4965 1871.8368,-242.9732 1881.4342,-247.461 1882.138,-240.4965"/>
</g>
<!-- Node21 -->
<g id="node26" class="node">
<title>Node21</title>
<g id="a_node26"><a xlink:href="stringliteral_8hpp.html" target="_top" xlink:title="alib/strings/stringliteral.hpp">
<polygon fill="#ffffff" stroke="#000000" points="1889.5,-224.5 1889.5,-243.5 2022.5,-243.5 2022.5,-224.5 1889.5,-224.5"/>
<text text-anchor="middle" x="1956" y="-231.5" font-family="Helvetica,sans-Serif" font-size="10.00" fill="#000000">alib/strings/stringliteral.hpp</text>
</a>
</g>
</g>
<!-- Node2&#45;&gt;Node21 -->
<g id="edge25" class="edge">
<title>Node2&#45;&gt;Node21</title>
<path fill="none" stroke="#191970" d="M2724.8681,-288.6618C2622.0454,-284.4565 2306.0638,-270.2595 2032.8093,-244.0141"/>
<polygon fill="#191970" stroke="#191970" points="2032.9895,-240.5153 2022.6988,-243.0356 2032.3151,-247.4827 2032.9895,-240.5153"/>
</g>
<!-- Node22 -->
<g id="node27" class="node">
<title>Node22</title>
<g id="a_node27"><a xlink:href="astring_8hpp.html" target="_top" xlink:title="alib/strings/astring.hpp">
<polygon fill="#ffffff" stroke="#ff0000" points="2040.5,-224.5 2040.5,-243.5 2155.5,-243.5 2155.5,-224.5 2040.5,-224.5"/>
<text text-anchor="middle" x="2098" y="-231.5" font-family="Helvetica,sans-Serif" font-size="10.00" fill="#000000">alib/strings/astring.hpp</text>
</a>
</g>
</g>
<!-- Node2&#45;&gt;Node22 -->
<g id="edge26" class="edge">
<title>Node2&#45;&gt;Node22</title>
<path fill="none" stroke="#191970" d="M2724.7683,-288.2004C2634.9532,-283.2973 2384.9575,-268.4834 2165.7921,-244.0137"/>
<polygon fill="#191970" stroke="#191970" points="2166.0382,-240.5194 2155.7094,-242.8786 2165.255,-247.4754 2166.0382,-240.5194"/>
</g>
<!-- Node24 -->
<g id="node28" class="node">
<title>Node24</title>
<g id="a_node28"><a xlink:href="preallocatedstring_8hpp.html" target="_top" xlink:title="alib/strings/preallocatedstring.hpp">
<polygon fill="#ffffff" stroke="#000000" points="2174,-224.5 2174,-243.5 2336,-243.5 2336,-224.5 2174,-224.5"/>
<text text-anchor="middle" x="2255" y="-231.5" font-family="Helvetica,sans-Serif" font-size="10.00" fill="#000000">alib/strings/preallocatedstring.hpp</text>
</a>
</g>
</g>
<!-- Node2&#45;&gt;Node24 -->
<g id="edge27" class="edge">
<title>Node2&#45;&gt;Node24</title>
<path fill="none" stroke="#191970" d="M2724.7543,-286.1949C2647.9758,-277.664 2459.9316,-256.7702 2346.4123,-244.1569"/>
<polygon fill="#191970" stroke="#191970" points="2346.668,-240.6639 2336.3427,-243.0381 2345.895,-247.6211 2346.668,-240.6639"/>
</g>
<!-- Node25 -->
<g id="node29" class="node">
<title>Node25</title>
<g id="a_node29"><a xlink:href="resources_8hpp.html" target="_top" xlink:title="alib/lang/resources.hpp">
<polygon fill="#ffffff" stroke="#ff0000" points="991.5,-224.5 991.5,-243.5 1108.5,-243.5 1108.5,-224.5 991.5,-224.5"/>
<text text-anchor="middle" x="1050" y="-231.5" font-family="Helvetica,sans-Serif" font-size="10.00" fill="#000000">alib/lang/resources.hpp</text>
</a>
</g>
</g>
<!-- Node2&#45;&gt;Node25 -->
<g id="edge28" class="edge">
<title>Node2&#45;&gt;Node25</title>
<path fill="none" stroke="#191970" d="M2724.8237,-289.5922C2521.3597,-287.0824 1466.9948,-272.9051 1118.6523,-243.9204"/>
<polygon fill="#191970" stroke="#191970" points="1118.8153,-240.4217 1108.5538,-243.0586 1118.22,-247.3964 1118.8153,-240.4217"/>
</g>
<!-- Node28 -->
<g id="node30" class="node">
<title>Node28</title>
<g id="a_node30"><a xlink:href="library_8hpp.html" target="_top" xlink:title="alib/lang/library.hpp">
<polygon fill="#ffffff" stroke="#000000" points="2512,-224.5 2512,-243.5 2612,-243.5 2612,-224.5 2512,-224.5"/>
<text text-anchor="middle" x="2562" y="-231.5" font-family="Helvetica,sans-Serif" font-size="10.00" fill="#000000">alib/lang/library.hpp</text>
</a>
</g>
</g>
<!-- Node2&#45;&gt;Node28 -->
<g id="edge29" class="edge">
<title>Node2&#45;&gt;Node28</title>
<path fill="none" stroke="#191970" d="M2725.1345,-280.3733C2691.951,-270.9404 2641.245,-256.5265 2605.1806,-246.2747"/>
<polygon fill="#191970" stroke="#191970" points="2605.9995,-242.8689 2595.4236,-243.5011 2604.0855,-249.6021 2605.9995,-242.8689"/>
</g>
<!-- Node29 -->
<g id="node31" class="node">
<title>Node29</title>
<g id="a_node31"><a xlink:href="stringlib_8hpp.html" target="_top" xlink:title="alib/strings/stringlib.hpp">
<polygon fill="#ffffff" stroke="#000000" points="2630.5,-224.5 2630.5,-243.5 2749.5,-243.5 2749.5,-224.5 2630.5,-224.5"/>
<text text-anchor="middle" x="2690" y="-231.5" font-family="Helvetica,sans-Serif" font-size="10.00" fill="#000000">alib/strings/stringlib.hpp</text>
</a>
</g>
</g>
<!-- Node2&#45;&gt;Node29 -->
<g id="edge30" class="edge">
<title>Node2&#45;&gt;Node29</title>
<path fill="none" stroke="#191970" d="M2746.9811,-280.2455C2736.7902,-271.9746 2721.9638,-259.9416 2709.9893,-250.2232"/>
<polygon fill="#191970" stroke="#191970" points="2711.8514,-247.2268 2701.8812,-243.6427 2707.4402,-252.662 2711.8514,-247.2268"/>
</g>
<!-- Node30 -->
<g id="node32" class="node">
<title>Node30</title>
<g id="a_node32"><a xlink:href="boxinglib_8hpp.html" target="_top" xlink:title="alib/boxing/boxinglib.hpp">
<polygon fill="#ffffff" stroke="#ff0000" points="2767.5,-224.5 2767.5,-243.5 2890.5,-243.5 2890.5,-224.5 2767.5,-224.5"/>
<text text-anchor="middle" x="2829" y="-231.5" font-family="Helvetica,sans-Serif" font-size="10.00" fill="#000000">alib/boxing/boxinglib.hpp</text>
</a>
</g>
</g>
<!-- Node2&#45;&gt;Node30 -->
<g id="edge31" class="edge">
<title>Node2&#45;&gt;Node30</title>
<path fill="none" stroke="#191970" d="M2771.1931,-280.2455C2781.6321,-271.8943 2796.8655,-259.7076 2809.074,-249.9408"/>
<polygon fill="#191970" stroke="#191970" points="2811.3244,-252.6227 2816.9467,-243.6427 2806.9515,-247.1566 2811.3244,-252.6227"/>
</g>
<!-- Node39 -->
<g id="node33" class="node">
<title>Node39</title>
<g id="a_node33"><a xlink:href="langlib_8hpp.html" target="_top" xlink:title="alib/lang/langlib.hpp">
<polygon fill="#ffffff" stroke="#000000" points="2909,-224.5 2909,-243.5 3011,-243.5 3011,-224.5 2909,-224.5"/>
<text text-anchor="middle" x="2960" y="-231.5" font-family="Helvetica,sans-Serif" font-size="10.00" fill="#000000">alib/lang/langlib.hpp</text>
</a>
</g>
</g>
<!-- Node2&#45;&gt;Node39 -->
<g id="edge32" class="edge">
<title>Node2&#45;&gt;Node39</title>
<path fill="none" stroke="#191970" d="M2793.0969,-280.5004C2826.882,-271.0876 2878.7887,-256.626 2915.7383,-246.3316"/>
<polygon fill="#191970" stroke="#191970" points="2917.0421,-249.6018 2925.7358,-243.5462 2915.1633,-242.8586 2917.0421,-249.6018"/>
</g>
<!-- Node40 -->
<g id="node34" class="node">
<title>Node40</title>
<g id="a_node34"><a xlink:href="stringboxing_8hpp.html" target="_top" xlink:title="alib/strings/boxing/stringboxing.hpp">
<polygon fill="#ffffff" stroke="#000000" points="3029,-224.5 3029,-243.5 3199,-243.5 3199,-224.5 3029,-224.5"/>
<text text-anchor="middle" x="3114" y="-231.5" font-family="Helvetica,sans-Serif" font-size="10.00" fill="#000000">alib/strings/boxing/stringboxing.hpp</text>
</a>
</g>
</g>
<!-- Node2&#45;&gt;Node40 -->
<g id="edge33" class="edge">
<title>Node2&#45;&gt;Node40</title>
<path fill="none" stroke="#191970" d="M2793.0389,-284.6305C2850.5044,-275.5655 2967.8898,-257.0484 3043.6529,-245.097"/>
<polygon fill="#191970" stroke="#191970" points="3044.2644,-248.5439 3053.5969,-243.5284 3043.1736,-241.6294 3044.2644,-248.5439"/>
</g>
<!-- Node41 -->
<g id="node35" class="node">
<title>Node41</title>
<g id="a_node35"><a xlink:href="report_8hpp.html" target="_top" xlink:title="alib/lang/report.hpp">
<polygon fill="#ffffff" stroke="#ff0000" points="3217.5,-224.5 3217.5,-243.5 3316.5,-243.5 3316.5,-224.5 3217.5,-224.5"/>
<text text-anchor="middle" x="3267" y="-231.5" font-family="Helvetica,sans-Serif" font-size="10.00" fill="#000000">alib/lang/report.hpp</text>
</a>
</g>
</g>
<!-- Node2&#45;&gt;Node41 -->
<g id="edge34" class="edge">
<title>Node2&#45;&gt;Node41</title>
<path fill="none" stroke="#191970" d="M2793.1685,-287.2721C2866.8022,-281.2276 3046.1223,-265.618 3207.3591,-244.0049"/>
<polygon fill="#191970" stroke="#191970" points="3208.0206,-247.4474 3217.4617,-242.6395 3207.083,-240.5104 3208.0206,-247.4474"/>
</g>
<!-- Node43 -->
<g id="node36" class="node">
<title>Node43</title>
<g id="a_node36"><a xlink:href="enumbitwise_8hpp.html" target="_top" xlink:title="alib/lang/enumbitwise.hpp">
<polygon fill="#ffffff" stroke="#000000" points="789,-.5 789,-19.5 917,-19.5 917,-.5 789,-.5"/>
<text text-anchor="middle" x="853" y="-7.5" font-family="Helvetica,sans-Serif" font-size="10.00" fill="#000000">alib/lang/enumbitwise.hpp</text>
</a>
</g>
</g>
<!-- Node2&#45;&gt;Node43 -->
<g id="edge35" class="edge">
<title>Node2&#45;&gt;Node43</title>
<path fill="none" stroke="#191970" d="M2793.0078,-289.5806C3022.496,-286.6837 4336.7328,-269.0184 4369,-244 4393.123,-225.2962 4388,-208.5246 4388,-178 4388,-178 4388,-178 4388,-122 4388,-32.2413 1437.244,-13.0064 927.5501,-10.3534"/>
<polygon fill="#191970" stroke="#191970" points="927.3921,-6.8526 917.3742,-10.301 927.356,-13.8525 927.3921,-6.8526"/>
</g>
<!-- Node44 -->
<g id="node37" class="node">
<title>Node44</title>
<g id="a_node37"><a xlink:href="enummetadata_8hpp.html" target="_top" xlink:title="alib/lang/enummetadata.hpp">
<polygon fill="#ffffff" stroke="#000000" points="2354.5,-224.5 2354.5,-243.5 2493.5,-243.5 2493.5,-224.5 2354.5,-224.5"/>
<text text-anchor="middle" x="2424" y="-231.5" font-family="Helvetica,sans-Serif" font-size="10.00" fill="#000000">alib/lang/enummetadata.hpp</text>
</a>
</g>
</g>
<!-- Node2&#45;&gt;Node44 -->
<g id="edge36" class="edge">
<title>Node2&#45;&gt;Node44</title>
<path fill="none" stroke="#191970" d="M2724.7234,-284.2702C2669.9681,-275.1171 2561.7615,-257.0288 2491.1813,-245.2303"/>
<polygon fill="#191970" stroke="#191970" points="2491.4919,-241.7337 2481.0517,-243.537 2490.3377,-248.6379 2491.4919,-241.7337"/>
</g>
<!-- Node45 -->
<g id="node38" class="node">
<title>Node45</title>
<g id="a_node38"><a xlink:href="configlib_8hpp.html" target="_top" xlink:title="alib/config/configlib.hpp">
<polygon fill="#ffffff" stroke="#ff0000" points="3334.5,-224.5 3334.5,-243.5 3453.5,-243.5 3453.5,-224.5 3334.5,-224.5"/>
<text text-anchor="middle" x="3394" y="-231.5" font-family="Helvetica,sans-Serif" font-size="10.00" fill="#000000">alib/config/configlib.hpp</text>
</a>
</g>
</g>
<!-- Node2&#45;&gt;Node45 -->
<g id="edge37" class="edge">
<title>Node2&#45;&gt;Node45</title>
<path fill="none" stroke="#191970" d="M2793.269,-287.9997C2880.246,-282.7564 3116.8085,-267.458 3324.1614,-244.1515"/>
<polygon fill="#191970" stroke="#191970" points="3324.7823,-247.6037 3334.3246,-243 3323.9941,-240.6482 3324.7823,-247.6037"/>
</g>
<!-- Node51 -->
<g id="node39" class="node">
<title>Node51</title>
<g id="a_node39"><a xlink:href="systemlib_8hpp.html" target="_top" xlink:title="alib/system/systemlib.hpp">
<polygon fill="#ffffff" stroke="#ff0000" points="3471.5,-224.5 3471.5,-243.5 3602.5,-243.5 3602.5,-224.5 3471.5,-224.5"/>
<text text-anchor="middle" x="3537" y="-231.5" font-family="Helvetica,sans-Serif" font-size="10.00" fill="#000000">alib/system/systemlib.hpp</text>
</a>
</g>
</g>
<!-- Node2&#45;&gt;Node51 -->
<g id="edge38" class="edge">
<title>Node2&#45;&gt;Node51</title>
<path fill="none" stroke="#191970" d="M2793.1358,-288.6068C2893.7855,-284.3212 3198.2868,-270.0828 3461.1416,-244.1305"/>
<polygon fill="#191970" stroke="#191970" points="3461.656,-247.5967 3471.2603,-243.1236 3460.9628,-240.6311 3461.656,-247.5967"/>
</g>
<!-- Node53 -->
<g id="node40" class="node">
<title>Node53</title>
<g id="a_node40"><a xlink:href="applicables_8hpp.html" target="_top" xlink:title="alib/strings/applicables.hpp">
<polygon fill="#ffffff" stroke="#000000" points="3621,-224.5 3621,-243.5 3755,-243.5 3755,-224.5 3621,-224.5"/>
<text text-anchor="middle" x="3688" y="-231.5" font-family="Helvetica,sans-Serif" font-size="10.00" fill="#000000">alib/strings/applicables.hpp</text>
</a>
</g>
</g>
<!-- Node2&#45;&gt;Node53 -->
<g id="edge39" class="edge">
<title>Node2&#45;&gt;Node53</title>
<path fill="none" stroke="#191970" d="M2793.1987,-289.1009C2907.4647,-285.8975 3286.6174,-273.6595 3610.8359,-244.0405"/>
<polygon fill="#191970" stroke="#191970" points="3611.2578,-247.5166 3620.8947,-243.1144 3610.6159,-240.5461 3611.2578,-247.5166"/>
</g>
<!-- Node56&#45;&gt;Node43 -->
<g id="edge42" class="edge">
<title>Node56&#45;&gt;Node43</title>
<path fill="none" stroke="#191970" d="M662.2228,-226.438C766.7077,-214.8624 953.1419,-193.5088 958,-188 981.4586,-161.3995 1032.331,-191.0151 933,-56 922.4644,-41.6795 906.0307,-31.1308 890.7919,-23.7747"/>
<polygon fill="#191970" stroke="#191970" points="892.0769,-20.5149 881.5214,-19.6019 889.2036,-26.8981 892.0769,-20.5149"/>
</g>
<!-- Node57 -->
<g id="node41" class="node">
<title>Node57</title>
<g id="a_node41"><a xlink:href="threadlock_8hpp.html" target="_top" xlink:title="alib/threads/threadlock.hpp">
<polygon fill="#ffffff" stroke="#ff0000" points="351,-112.5 351,-131.5 485,-131.5 485,-112.5 351,-112.5"/>
<text text-anchor="middle" x="418" y="-119.5" font-family="Helvetica,sans-Serif" font-size="10.00" fill="#000000">alib/threads/threadlock.hpp</text>
</a>
</g>
</g>
<!-- Node56&#45;&gt;Node57 -->
<g id="edge43" class="edge">
<title>Node56&#45;&gt;Node57</title>
<path fill="none" stroke="#191970" d="M541.7937,-224.4302C502.2408,-216.0573 451.8267,-202.9226 437,-188 424.9454,-175.8674 420.4344,-156.6107 418.798,-142.0221"/>
<polygon fill="#191970" stroke="#191970" points="422.2818,-141.6754 418.0297,-131.9713 415.3022,-142.209 422.2818,-141.6754"/>
</g>
<!-- Node64 -->
<g id="node42" class="node">
<title>Node64</title>
<g id="a_node42"><a xlink:href="substring_8hpp.html" target="_top" xlink:title="alib/strings/substring.hpp">
<polygon fill="#ffffff" stroke="#000000" points="381.5,-56.5 381.5,-75.5 506.5,-75.5 506.5,-56.5 381.5,-56.5"/>
<text text-anchor="middle" x="444" y="-63.5" font-family="Helvetica,sans-Serif" font-size="10.00" fill="#000000">alib/strings/substring.hpp</text>
</a>
</g>
</g>
<!-- Node56&#45;&gt;Node64 -->
<g id="edge44" class="edge">
<title>Node56&#45;&gt;Node64</title>
<path fill="none" stroke="#191970" d="M523.7767,-229.5395C428.7936,-222.7031 267.7278,-208.2641 250,-188 244.1472,-181.3099 245.6451,-175.749 250,-168 278.1086,-117.984 340.4021,-91.5016 386.8627,-78.1814"/>
<polygon fill="#191970" stroke="#191970" points="387.7994,-81.5538 396.5186,-75.5351 385.9491,-74.8028 387.7994,-81.5538"/>
</g>
<!-- Node65 -->
<g id="node43" class="node">
<title>Node65</title>
<g id="a_node43"><a xlink:href="numberformat_8hpp.html" target="_top" xlink:title="alib/strings/numberformat.hpp">
<polygon fill="#ffffff" stroke="#000000" points="768,-168.5 768,-187.5 914,-187.5 914,-168.5 768,-168.5"/>
<text text-anchor="middle" x="841" y="-175.5" font-family="Helvetica,sans-Serif" font-size="10.00" fill="#000000">alib/strings/numberformat.hpp</text>
</a>
</g>
</g>
<!-- Node56&#45;&gt;Node65 -->
<g id="edge45" class="edge">
<title>Node56&#45;&gt;Node65</title>
<path fill="none" stroke="#191970" d="M635.3509,-224.4369C677.7942,-214.8529 743.2119,-200.0812 788.8313,-189.78"/>
<polygon fill="#191970" stroke="#191970" points="789.8403,-193.1404 798.8237,-187.5237 788.2984,-186.3123 789.8403,-193.1404"/>
</g>
<!-- Node66 -->
<g id="node44" class="node">
<title>Node66</title>
<g id="a_node44"><a xlink:href="variable_8hpp.html" target="_top" xlink:title="alib/config/variable.hpp">
<polygon fill="#ffffff" stroke="#ff0000" points="808,-56.5 808,-75.5 924,-75.5 924,-56.5 808,-56.5"/>
<text text-anchor="middle" x="866" y="-63.5" font-family="Helvetica,sans-Serif" font-size="10.00" fill="#000000">alib/config/variable.hpp</text>
</a>
</g>
</g>
<!-- Node56&#45;&gt;Node66 -->
<g id="edge46" class="edge">
<title>Node56&#45;&gt;Node66</title>
<path fill="none" stroke="#191970" d="M662.0787,-225.9945C761.9814,-214.2557 935.4445,-193.1992 940,-188 969.8444,-153.9381 919.3277,-106.3097 888.0041,-81.8608"/>
<polygon fill="#191970" stroke="#191970" points="889.844,-78.8634 879.761,-75.6101 885.6144,-84.4412 889.844,-78.8634"/>
</g>
<!-- Node67 -->
<g id="node45" class="node">
<title>Node67</title>
<g id="a_node45"><a xlink:href="plugins_8hpp.html" target="_top" xlink:title="alib/config/plugins.hpp">
<polygon fill="#ffffff" stroke="#000000" points="744.5,-112.5 744.5,-131.5 857.5,-131.5 857.5,-112.5 744.5,-112.5"/>
<text text-anchor="middle" x="801" y="-119.5" font-family="Helvetica,sans-Serif" font-size="10.00" fill="#000000">alib/config/plugins.hpp</text>
</a>
</g>
</g>
<!-- Node56&#45;&gt;Node67 -->
<g id="edge47" class="edge">
<title>Node56&#45;&gt;Node67</title>
<path fill="none" stroke="#191970" d="M662.3049,-229.1388C754.0189,-221.9894 906.1487,-207.3632 923,-188 945.6374,-161.9882 904.7801,-144.4262 864.3769,-133.9997"/>
<polygon fill="#191970" stroke="#191970" points="864.9733,-130.5424 854.4279,-131.5653 863.3095,-137.3418 864.9733,-130.5424"/>
</g>
<!-- Node68 -->
<g id="node46" class="node">
<title>Node68</title>
<g id="a_node46"><a xlink:href="plugincontainer_8hpp.html" target="_top" xlink:title="alib/util/plugincontainer.hpp">
<polygon fill="#ffffff" stroke="#ff0000" points="446,-168.5 446,-187.5 580,-187.5 580,-168.5 446,-168.5"/>
<text text-anchor="middle" x="513" y="-175.5" font-family="Helvetica,sans-Serif" font-size="10.00" fill="#000000">alib/util/plugincontainer.hpp</text>
</a>
</g>
</g>
<!-- Node56&#45;&gt;Node68 -->
<g id="edge48" class="edge">
<title>Node56&#45;&gt;Node68</title>
<path fill="none" stroke="#191970" d="M579.0651,-224.2455C566.9053,-215.7337 549.0536,-203.2375 534.9715,-193.3801"/>
<polygon fill="#191970" stroke="#191970" points="536.9747,-190.51 526.7752,-187.6427 532.9605,-196.2447 536.9747,-190.51"/>
</g>
<!-- Node70 -->
<g id="node47" class="node">
<title>Node70</title>
<g id="a_node47"><a xlink:href="inmemoryplugin_8hpp.html" target="_top" xlink:title="alib/config/inmemoryplugin.hpp">
<polygon fill="#ffffff" stroke="#ff0000" points="598.5,-168.5 598.5,-187.5 749.5,-187.5 749.5,-168.5 598.5,-168.5"/>
<text text-anchor="middle" x="674" y="-175.5" font-family="Helvetica,sans-Serif" font-size="10.00" fill="#000000">alib/config/inmemoryplugin.hpp</text>
</a>
</g>
</g>
<!-- Node56&#45;&gt;Node70 -->
<g id="edge49" class="edge">
<title>Node56&#45;&gt;Node70</title>
<path fill="none" stroke="#191970" d="M607.1091,-224.2455C619.4209,-215.7337 637.4958,-203.2375 651.7538,-193.3801"/>
<polygon fill="#191970" stroke="#191970" points="653.8174,-196.2085 660.0526,-187.6427 649.8366,-190.4506 653.8174,-196.2085"/>
</g>
<!-- Node72&#45;&gt;Node1 -->
<g id="edge57" class="edge">
<title>Node72&#45;&gt;Node1</title>
<path fill="none" stroke="#191970" d="M753.2912,-299.6427C747.3101,-307.7995 736.6133,-319.6727 726.6805,-329.3607"/>
<polygon fill="#191970" stroke="#191970" points="724.2339,-326.8568 719.3246,-336.2455 729.0173,-331.9675 724.2339,-326.8568"/>
</g>
<!-- Node73&#45;&gt;Node0 -->
<g id="edge58" class="edge">
<title>Node73&#45;&gt;Node0</title>
<path fill="none" stroke="#191970" d="M387.1921,-295.4627C464.4778,-312.9143 706.4362,-367.5501 810.5602,-391.062"/>
<polygon fill="#191970" stroke="#191970" points="809.9671,-394.5161 820.4924,-393.3047 811.509,-387.688 809.9671,-394.5161"/>
</g>
<!-- Node73&#45;&gt;Node1 -->
<g id="edge59" class="edge">
<title>Node73&#45;&gt;Node1</title>
<path fill="none" stroke="#191970" d="M387.0967,-294.5661C394.6018,-296.4218 402.6512,-298.4816 410,-300 496.7919,-317.9327 598.8757,-331.9535 657.4536,-339.5936"/>
<polygon fill="#191970" stroke="#191970" points="657.1543,-343.084 667.5216,-340.9002 658.0553,-336.1422 657.1543,-343.084"/>
</g>
<!-- Node73&#45;&gt;Node26 -->
<g id="edge60" class="edge">
<title>Node73&#45;&gt;Node26</title>
<path fill="none" stroke="#191970" d="M387.2224,-286.5334C499.6236,-270.4164 967.6291,-202.9628 1032,-188 1033.4528,-187.6623 1034.9353,-187.292 1036.4272,-186.8991"/>
<polygon fill="#191970" stroke="#191970" points="1037.552,-190.2174 1046.1893,-184.0816 1035.6109,-183.4918 1037.552,-190.2174"/>
</g>
<!-- Node73&#45;&gt;Node56 -->
<g id="edge61" class="edge">
<title>Node73&#45;&gt;Node56</title>
<path fill="none" stroke="#191970" d="M387.102,-283.5713C391.7111,-282.3664 396.5011,-281.1307 401,-280 448.7572,-267.9968 503.3789,-254.9791 542.1208,-245.8655"/>
<polygon fill="#191970" stroke="#191970" points="543.1754,-249.2132 552.1102,-243.5194 541.5748,-242.3986 543.1754,-249.2132"/>
</g>
<!-- Node74 -->
<g id="node48" class="node">
<title>Node74</title>
<g id="a_node48"><a xlink:href="smartlock_8hpp.html" target="_top" xlink:title="alib/threads/smartlock.hpp">
<polygon fill="#ffffff" stroke="#ff0000" points="258.5,-168.5 258.5,-187.5 389.5,-187.5 389.5,-168.5 258.5,-168.5"/>
<text text-anchor="middle" x="324" y="-175.5" font-family="Helvetica,sans-Serif" font-size="10.00" fill="#000000">alib/threads/smartlock.hpp</text>
</a>
</g>
</g>
<!-- Node73&#45;&gt;Node74 -->
<g id="edge62" class="edge">
<title>Node73&#45;&gt;Node74</title>
<path fill="none" stroke="#191970" d="M359.6749,-280.4509C353.2565,-262.0186 339.0517,-221.2254 330.631,-197.043"/>
<polygon fill="#191970" stroke="#191970" points="333.9106,-195.8177 327.3167,-187.5249 327.2999,-198.1197 333.9106,-195.8177"/>
</g>
<!-- Node75 -->
<g id="node49" class="node">
<title>Node75</title>
<g id="a_node49"><a xlink:href="tokenizer_8hpp.html" target="_top" xlink:title="alib/strings/util/tokenizer.hpp">
<polygon fill="#ffffff" stroke="#000000" points="122,-112.5 122,-131.5 262,-131.5 262,-112.5 122,-112.5"/>
<text text-anchor="middle" x="192" y="-119.5" font-family="Helvetica,sans-Serif" font-size="10.00" fill="#000000">alib/strings/util/tokenizer.hpp</text>
</a>
</g>
</g>
<!-- Node73&#45;&gt;Node75 -->
<g id="edge63" class="edge">
<title>Node73&#45;&gt;Node75</title>
<path fill="none" stroke="#191970" d="M349.8203,-280.4362C326.6652,-263.3097 277.7502,-225.6619 242,-188 227.8477,-173.0909 213.9048,-154.2443 204.3533,-140.5111"/>
<polygon fill="#191970" stroke="#191970" points="207.0239,-138.2155 198.4937,-131.9317 201.2435,-142.1635 207.0239,-138.2155"/>
</g>
<!-- Node25&#45;&gt;Node26 -->
<g id="edge40" class="edge">
<title>Node25&#45;&gt;Node26</title>
<path fill="none" stroke="#191970" d="M1052.4386,-224.2455C1054.2855,-216.8579 1056.8828,-206.4689 1059.1478,-197.4087"/>
<polygon fill="#191970" stroke="#191970" points="1062.5594,-198.193 1061.5893,-187.6427 1055.7684,-196.4952 1062.5594,-198.193"/>
</g>
<!-- Node44&#45;&gt;Node26 -->
<g id="edge41" class="edge">
<title>Node44&#45;&gt;Node26</title>
<path fill="none" stroke="#191970" d="M2354.2486,-224.825C2351.1254,-224.5232 2348.0315,-224.2458 2345,-224 2089.4126,-203.2769 1255.8881,-182.5865 1092.0852,-178.6637"/>
<polygon fill="#191970" stroke="#191970" points="1091.9506,-175.1595 1081.8699,-178.42 1091.7836,-182.1576 1091.9506,-175.1595"/>
</g>
<!-- Node64&#45;&gt;Node43 -->
<g id="edge50" class="edge">
<title>Node64&#45;&gt;Node43</title>
<path fill="none" stroke="#191970" d="M506.5635,-57.4338C579.6992,-47.4202 700.627,-30.8628 778.5319,-20.1961"/>
<polygon fill="#191970" stroke="#191970" points="779.3241,-23.6204 788.7569,-18.7961 778.3745,-16.6851 779.3241,-23.6204"/>
</g>
<!-- Node67&#45;&gt;Node64 -->
<g id="edge51" class="edge">
<title>Node67&#45;&gt;Node64</title>
<path fill="none" stroke="#191970" d="M744.4323,-113.1266C682.2515,-103.3728 582.2568,-87.6873 514.8895,-77.1199"/>
<polygon fill="#191970" stroke="#191970" points="515.2038,-73.6265 504.7822,-75.5345 514.1189,-80.5419 515.2038,-73.6265"/>
</g>
<!-- Node67&#45;&gt;Node66 -->
<g id="edge52" class="edge">
<title>Node67&#45;&gt;Node66</title>
<path fill="none" stroke="#191970" d="M812.3221,-112.2455C821.9223,-103.9746 835.8892,-91.9416 847.1695,-82.2232"/>
<polygon fill="#191970" stroke="#191970" points="849.516,-84.8214 854.8076,-75.6427 844.947,-79.5182 849.516,-84.8214"/>
</g>
<!-- Node68&#45;&gt;Node43 -->
<g id="edge53" class="edge">
<title>Node68&#45;&gt;Node43</title>
<path fill="none" stroke="#191970" d="M532.254,-168.4862C589.1587,-140.3686 756.7911,-57.5385 824.3233,-24.1696"/>
<polygon fill="#191970" stroke="#191970" points="826.1209,-27.1855 833.5357,-19.6177 823.0199,-20.9098 826.1209,-27.1855"/>
</g>
<!-- Node68&#45;&gt;Node57 -->
<g id="edge54" class="edge">
<title>Node68&#45;&gt;Node57</title>
<path fill="none" stroke="#191970" d="M496.4523,-168.2455C481.7401,-159.5731 460.0112,-146.7645 443.1495,-136.825"/>
<polygon fill="#191970" stroke="#191970" points="444.7502,-133.7057 434.3581,-131.6427 441.1954,-139.736 444.7502,-133.7057"/>
</g>
<!-- Node68&#45;&gt;Node64 -->
<g id="edge55" class="edge">
<title>Node68&#45;&gt;Node64</title>
<path fill="none" stroke="#191970" d="M511.8914,-168.3804C509.9863,-154.9095 505.1599,-130.0533 494,-112 486.9005,-100.5152 476.1531,-90.104 466.4396,-82.1025"/>
<polygon fill="#191970" stroke="#191970" points="468.32,-79.1298 458.2872,-75.7248 464.0068,-84.6432 468.32,-79.1298"/>
</g>
<!-- Node70&#45;&gt;Node67 -->
<g id="edge56" class="edge">
<title>Node70&#45;&gt;Node67</title>
<path fill="none" stroke="#191970" d="M695.8321,-168.3733C716.3103,-159.3435 747.1399,-145.7494 770.1319,-135.6111"/>
<polygon fill="#191970" stroke="#191970" points="771.715,-138.7383 779.4528,-131.5011 768.8907,-132.3333 771.715,-138.7383"/>
</g>
<!-- Node74&#45;&gt;Node57 -->
<g id="edge64" class="edge">
<title>Node74&#45;&gt;Node57</title>
<path fill="none" stroke="#191970" d="M340.3736,-168.2455C354.9308,-159.5731 376.431,-146.7645 393.1152,-136.825"/>
<polygon fill="#191970" stroke="#191970" points="395.0144,-139.7676 401.8141,-131.6427 391.4317,-133.7539 395.0144,-139.7676"/>
</g>
<!-- Node75&#45;&gt;Node64 -->
<g id="edge65" class="edge">
<title>Node75&#45;&gt;Node64</title>
<path fill="none" stroke="#191970" d="M235.034,-112.4369C278.2525,-102.8328 344.9141,-88.0191 391.2818,-77.7152"/>
<polygon fill="#191970" stroke="#191970" points="392.1409,-81.1097 401.1435,-75.5237 390.6223,-74.2764 392.1409,-81.1097"/>
</g>
<!-- Node81&#45;&gt;Node64 -->
<g id="edge67" class="edge">
<title>Node81&#45;&gt;Node64</title>
<path fill="none" stroke="#191970" d="M104.2302,-113.3517C107.196,-112.8874 110.1351,-112.4338 113,-112 201.8007,-98.5529 304.24,-84.5482 371.3523,-75.5775"/>
<polygon fill="#191970" stroke="#191970" points="371.9528,-79.0284 381.402,-74.2365 371.0269,-72.0899 371.9528,-79.0284"/>
</g>
</g>
</svg>
