<?xml version="1.0" encoding="UTF-8" standalone="no"?>
<!DOCTYPE svg PUBLIC "-//W3C//DTD SVG 1.1//EN"
 "http://www.w3.org/Graphics/SVG/1.1/DTD/svg11.dtd">
<!-- Generated by graphviz version 2.40.1 (20161225.0304)
 -->
<!-- Title: scopeinfo.hpp Pages: 1 -->
<svg width="836pt" height="420pt"
 viewBox="0.00 0.00 836.45 420.00" xmlns="http://www.w3.org/2000/svg" xmlns:xlink="http://www.w3.org/1999/xlink">
<g id="graph0" class="graph" transform="scale(1 1) rotate(0) translate(4 416)">
<title>scopeinfo.hpp</title>
<polygon fill="#ffffff" stroke="transparent" points="-4,4 -4,-416 832.4491,-416 832.4491,4 -4,4"/>
<!-- Node66 -->
<g id="node1" class="node">
<title>Node66</title>
<polygon fill="#bfbfbf" stroke="#000000" points="451.4491,-392.5 451.4491,-411.5 528.4491,-411.5 528.4491,-392.5 451.4491,-392.5"/>
<text text-anchor="middle" x="489.9491" y="-399.5" font-family="Helvetica,sans-Serif" font-size="10.00" fill="#000000">scopeinfo.hpp</text>
</g>
<!-- Node67 -->
<g id="node2" class="node">
<title>Node67</title>
<g id="a_node2"><a xlink:href="lox_8hpp.html" target="_top" xlink:title="lox.hpp">
<polygon fill="#ffffff" stroke="#000000" points="492.9491,-336.5 492.9491,-355.5 540.9491,-355.5 540.9491,-336.5 492.9491,-336.5"/>
<text text-anchor="middle" x="516.9491" y="-343.5" font-family="Helvetica,sans-Serif" font-size="10.00" fill="#000000">lox.hpp</text>
</a>
</g>
</g>
<!-- Node66&#45;&gt;Node67 -->
<g id="edge1" class="edge">
<title>Node66&#45;&gt;Node67</title>
<path fill="none" stroke="#191970" d="M499.0887,-383.0437C503.5296,-373.8331 508.6756,-363.1598 512.2999,-355.6427"/>
<polygon fill="#191970" stroke="#191970" points="495.8425,-381.7178 494.6521,-392.2455 502.1479,-384.7579 495.8425,-381.7178"/>
</g>
<!-- Node68 -->
<g id="node3" class="node">
<title>Node68</title>
<g id="a_node3"><a xlink:href="alox_8hpp.html" target="_top" xlink:title="alox.hpp">
<polygon fill="#ffffff" stroke="#000000" points="436.4491,-280.5 436.4491,-299.5 489.4491,-299.5 489.4491,-280.5 436.4491,-280.5"/>
<text text-anchor="middle" x="462.9491" y="-287.5" font-family="Helvetica,sans-Serif" font-size="10.00" fill="#000000">alox.hpp</text>
</a>
</g>
</g>
<!-- Node67&#45;&gt;Node68 -->
<g id="edge2" class="edge">
<title>Node67&#45;&gt;Node68</title>
<path fill="none" stroke="#191970" d="M494.6743,-329.3607C484.3956,-319.6727 473.2747,-307.7995 467.0023,-299.6427"/>
<polygon fill="#191970" stroke="#191970" points="492.5147,-332.1268 502.2762,-336.2455 497.2137,-326.9384 492.5147,-332.1268"/>
</g>
<!-- Node68&#45;&gt;Node66 -->
<g id="edge3" class="edge">
<title>Node68&#45;&gt;Node66</title>
<path fill="none" stroke="#191970" d="M467.6185,-309.3693C473.4576,-333.5908 483.2235,-374.1013 487.6471,-392.4509"/>
<polygon fill="#191970" stroke="#191970" points="470.9915,-308.4261 465.2453,-299.5249 464.1864,-310.0667 470.9915,-308.4261"/>
</g>
<!-- Node68&#45;&gt;Node67 -->
<g id="edge4" class="edge">
<title>Node68&#45;&gt;Node67</title>
<path fill="none" stroke="#191970" d="M485.0833,-306.5069C495.3543,-316.1749 506.4934,-328.0549 512.8099,-336.2455"/>
<polygon fill="#191970" stroke="#191970" points="487.2572,-303.7539 477.4925,-299.6427 482.5621,-308.9459 487.2572,-303.7539"/>
</g>
<!-- Node69 -->
<g id="node4" class="node">
<title>Node69</title>
<g id="a_node4"><a xlink:href="log_8hpp.html" target="_top" xlink:title="log.hpp">
<polygon fill="#ffffff" stroke="#000000" points="438.9491,-224.5 438.9491,-243.5 486.9491,-243.5 486.9491,-224.5 438.9491,-224.5"/>
<text text-anchor="middle" x="462.9491" y="-231.5" font-family="Helvetica,sans-Serif" font-size="10.00" fill="#000000">log.hpp</text>
</a>
</g>
</g>
<!-- Node68&#45;&gt;Node69 -->
<g id="edge5" class="edge">
<title>Node68&#45;&gt;Node69</title>
<path fill="none" stroke="#191970" d="M456.4604,-270.1575C455.8681,-261.155 456.2826,-250.9199 457.704,-243.6427"/>
<polygon fill="#191970" stroke="#191970" points="453.0052,-270.739 457.6823,-280.2455 459.9544,-269.8972 453.0052,-270.739"/>
</g>
<!-- Node70 -->
<g id="node5" class="node">
<title>Node70</title>
<g id="a_node5"><a xlink:href="alox__console__loggers_8hpp.html" target="_top" xlink:title="alox_console_loggers.hpp">
<polygon fill="#ffffff" stroke="#000000" points="232.4491,-.5 232.4491,-19.5 361.4491,-19.5 361.4491,-.5 232.4491,-.5"/>
<text text-anchor="middle" x="296.9491" y="-7.5" font-family="Helvetica,sans-Serif" font-size="10.00" fill="#000000">alox_console_loggers.hpp</text>
</a>
</g>
</g>
<!-- Node68&#45;&gt;Node70 -->
<g id="edge6" class="edge">
<title>Node68&#45;&gt;Node70</title>
<path fill="none" stroke="#191970" d="M425.8581,-288.933C316.168,-284.7815 .9491,-265.26 .9491,-178 .9491,-178 .9491,-178 .9491,-122 .9491,-91.4754 -2.8473,-76.2997 19.9491,-56 50.5762,-28.7272 160.5946,-17.4337 232.419,-12.8958"/>
<polygon fill="#191970" stroke="#191970" points="425.9947,-292.44 436.1131,-289.2985 426.2441,-285.4445 425.9947,-292.44"/>
</g>
<!-- Node71 -->
<g id="node6" class="node">
<title>Node71</title>
<g id="a_node6"><a xlink:href="domain_8hpp.html" target="_top" xlink:title="domain.hpp">
<polygon fill="#ffffff" stroke="#000000" points="761.4491,-224.5 761.4491,-243.5 828.4491,-243.5 828.4491,-224.5 761.4491,-224.5"/>
<text text-anchor="middle" x="794.9491" y="-231.5" font-family="Helvetica,sans-Serif" font-size="10.00" fill="#000000">domain.hpp</text>
</a>
</g>
</g>
<!-- Node68&#45;&gt;Node71 -->
<g id="edge7" class="edge">
<title>Node68&#45;&gt;Node71</title>
<path fill="none" stroke="#191970" d="M499.4445,-285.1241C554.5735,-277.5527 662.2822,-261.9572 752.9491,-244 755.5961,-243.4758 758.3291,-242.9012 761.0717,-242.3008"/>
<polygon fill="#191970" stroke="#191970" points="498.8943,-281.6666 489.4592,-286.4864 499.8406,-288.6023 498.8943,-281.6666"/>
</g>
<!-- Node72 -->
<g id="node7" class="node">
<title>Node72</title>
<g id="a_node7"><a xlink:href="logger_8hpp.html" target="_top" xlink:title="logger.hpp">
<polygon fill="#ffffff" stroke="#000000" points="581.4491,-224.5 581.4491,-243.5 642.4491,-243.5 642.4491,-224.5 581.4491,-224.5"/>
<text text-anchor="middle" x="611.9491" y="-231.5" font-family="Helvetica,sans-Serif" font-size="10.00" fill="#000000">logger.hpp</text>
</a>
</g>
</g>
<!-- Node68&#45;&gt;Node72 -->
<g id="edge8" class="edge">
<title>Node68&#45;&gt;Node72</title>
<path fill="none" stroke="#191970" d="M498.1003,-276.7888C525.3059,-266.5639 562.33,-252.6488 586.6693,-243.5011"/>
<polygon fill="#191970" stroke="#191970" points="496.6925,-273.5788 488.5631,-280.3733 499.1552,-280.1313 496.6925,-273.5788"/>
</g>
<!-- Node73 -->
<g id="node8" class="node">
<title>Node73</title>
<g id="a_node8"><a xlink:href="textlogger_8hpp.html" target="_top" xlink:title="textlogger.hpp">
<polygon fill="#ffffff" stroke="#000000" points="401.4491,-168.5 401.4491,-187.5 478.4491,-187.5 478.4491,-168.5 401.4491,-168.5"/>
<text text-anchor="middle" x="439.9491" y="-175.5" font-family="Helvetica,sans-Serif" font-size="10.00" fill="#000000">textlogger.hpp</text>
</a>
</g>
</g>
<!-- Node68&#45;&gt;Node73 -->
<g id="edge9" class="edge">
<title>Node68&#45;&gt;Node73</title>
<path fill="none" stroke="#191970" d="M446.7122,-272.8324C440.1549,-264.7408 433.3437,-254.5555 429.9491,-244 423.7045,-224.5826 430.7728,-200.6688 435.8003,-187.6189"/>
<polygon fill="#191970" stroke="#191970" points="444.106,-275.1693 453.2999,-280.4346 449.3961,-270.5851 444.106,-275.1693"/>
</g>
<!-- Node74 -->
<g id="node9" class="node">
<title>Node74</title>
<g id="a_node9"><a xlink:href="plaintextlogger_8hpp.html" target="_top" xlink:title="plaintextlogger.hpp">
<polygon fill="#ffffff" stroke="#000000" points="170.9491,-112.5 170.9491,-131.5 268.9491,-131.5 268.9491,-112.5 170.9491,-112.5"/>
<text text-anchor="middle" x="219.9491" y="-119.5" font-family="Helvetica,sans-Serif" font-size="10.00" fill="#000000">plaintextlogger.hpp</text>
</a>
</g>
</g>
<!-- Node68&#45;&gt;Node74 -->
<g id="edge10" class="edge">
<title>Node68&#45;&gt;Node74</title>
<path fill="none" stroke="#191970" d="M426.385,-284.2854C380.4449,-276.499 304.9463,-261.5049 282.9491,-244 245.0843,-213.8681 227.6563,-154.81 222.063,-131.6477"/>
<polygon fill="#191970" stroke="#191970" points="425.8269,-287.7406 436.2653,-285.9263 426.9739,-280.8351 425.8269,-287.7406"/>
</g>
<!-- Node75 -->
<g id="node10" class="node">
<title>Node75</title>
<g id="a_node10"><a xlink:href="consolelogger_8hpp.html" target="_top" xlink:title="consolelogger.hpp">
<polygon fill="#ffffff" stroke="#000000" points="137.4491,-56.5 137.4491,-75.5 232.4491,-75.5 232.4491,-56.5 137.4491,-56.5"/>
<text text-anchor="middle" x="184.9491" y="-63.5" font-family="Helvetica,sans-Serif" font-size="10.00" fill="#000000">consolelogger.hpp</text>
</a>
</g>
</g>
<!-- Node68&#45;&gt;Node75 -->
<g id="edge11" class="edge">
<title>Node68&#45;&gt;Node75</title>
<path fill="none" stroke="#191970" d="M426.0547,-284.383C375.6938,-276.2478 288.5291,-260.361 260.9491,-244 203.8099,-210.104 185.4731,-194.1325 161.9491,-132 154.4732,-112.2544 167.7853,-88.8601 177.0804,-75.8991"/>
<polygon fill="#191970" stroke="#191970" points="425.782,-287.8836 436.2078,-285.9987 426.8822,-280.9705 425.782,-287.8836"/>
</g>
<!-- Node76 -->
<g id="node11" class="node">
<title>Node76</title>
<g id="a_node11"><a xlink:href="memorylogger_8hpp.html" target="_top" xlink:title="memorylogger.hpp">
<polygon fill="#ffffff" stroke="#000000" points="360.9491,-56.5 360.9491,-75.5 456.9491,-75.5 456.9491,-56.5 360.9491,-56.5"/>
<text text-anchor="middle" x="408.9491" y="-63.5" font-family="Helvetica,sans-Serif" font-size="10.00" fill="#000000">memorylogger.hpp</text>
</a>
</g>
</g>
<!-- Node68&#45;&gt;Node76 -->
<g id="edge12" class="edge">
<title>Node68&#45;&gt;Node76</title>
<path fill="none" stroke="#191970" d="M438.6848,-274.7107C427.3315,-266.6403 414.2875,-255.9388 404.9491,-244 371.2509,-200.9182 365.5461,-185.452 353.9491,-132 352.0644,-123.3132 350.186,-120.053 353.9491,-112 361.485,-95.8731 377.7633,-83.4098 390.6658,-75.5491"/>
<polygon fill="#191970" stroke="#191970" points="436.7141,-277.6032 446.9478,-280.3462 440.6583,-271.8201 436.7141,-277.6032"/>
</g>
<!-- Node77 -->
<g id="node12" class="node">
<title>Node77</title>
<g id="a_node12"><a xlink:href="textfilelogger_8hpp.html" target="_top" xlink:title="textfilelogger.hpp">
<polygon fill="#ffffff" stroke="#000000" points="28.9491,-56.5 28.9491,-75.5 118.9491,-75.5 118.9491,-56.5 28.9491,-56.5"/>
<text text-anchor="middle" x="73.9491" y="-63.5" font-family="Helvetica,sans-Serif" font-size="10.00" fill="#000000">textfilelogger.hpp</text>
</a>
</g>
</g>
<!-- Node68&#45;&gt;Node77 -->
<g id="edge13" class="edge">
<title>Node68&#45;&gt;Node77</title>
<path fill="none" stroke="#191970" d="M426.1582,-285.7285C368.4507,-278.5544 259.747,-262.9896 225.9491,-244 150.4878,-201.6015 95.3729,-106.5316 78.9867,-75.7903"/>
<polygon fill="#191970" stroke="#191970" points="425.9596,-289.2302 436.3104,-286.9693 426.8089,-282.2819 425.9596,-289.2302"/>
</g>
<!-- Node78 -->
<g id="node13" class="node">
<title>Node78</title>
<g id="a_node13"><a xlink:href="vstudiologger_8hpp.html" target="_top" xlink:title="vstudiologger.hpp">
<polygon fill="#ffffff" stroke="#000000" points="250.9491,-56.5 250.9491,-75.5 342.9491,-75.5 342.9491,-56.5 250.9491,-56.5"/>
<text text-anchor="middle" x="296.9491" y="-63.5" font-family="Helvetica,sans-Serif" font-size="10.00" fill="#000000">vstudiologger.hpp</text>
</a>
</g>
</g>
<!-- Node68&#45;&gt;Node78 -->
<g id="edge14" class="edge">
<title>Node68&#45;&gt;Node78</title>
<path fill="none" stroke="#191970" d="M431.0256,-275.8098C416.2308,-268.038 399.2458,-257.2707 386.9491,-244 337.2879,-190.4055 308.3498,-104.2363 299.7107,-75.5984"/>
<polygon fill="#191970" stroke="#191970" points="429.8512,-279.1358 440.3603,-280.4806 432.9835,-272.8757 429.8512,-279.1358"/>
</g>
<!-- Node79 -->
<g id="node14" class="node">
<title>Node79</title>
<g id="a_node14"><a xlink:href="ansilogger_8hpp.html" target="_top" xlink:title="ansilogger.hpp">
<polygon fill="#ffffff" stroke="#000000" points="363.4491,-112.5 363.4491,-131.5 442.4491,-131.5 442.4491,-112.5 363.4491,-112.5"/>
<text text-anchor="middle" x="402.9491" y="-119.5" font-family="Helvetica,sans-Serif" font-size="10.00" fill="#000000">ansilogger.hpp</text>
</a>
</g>
</g>
<!-- Node68&#45;&gt;Node79 -->
<g id="edge15" class="edge">
<title>Node68&#45;&gt;Node79</title>
<path fill="none" stroke="#191970" d="M445.4265,-273.07C427.4938,-254.2941 401.0104,-222.1211 391.9491,-188 386.7016,-168.2401 393.8686,-144.4547 398.8605,-131.5186"/>
<polygon fill="#191970" stroke="#191970" points="443.0014,-275.5956 452.5127,-280.2632 447.9881,-270.683 443.0014,-275.5956"/>
</g>
<!-- Node80 -->
<g id="node15" class="node">
<title>Node80</title>
<g id="a_node15"><a xlink:href="windowsconsolelogger_8hpp.html" target="_top" xlink:title="windowsconsolelogger.hpp">
<polygon fill="#ffffff" stroke="#000000" points="460.4491,-112.5 460.4491,-131.5 591.4491,-131.5 591.4491,-112.5 460.4491,-112.5"/>
<text text-anchor="middle" x="525.9491" y="-119.5" font-family="Helvetica,sans-Serif" font-size="10.00" fill="#000000">windowsconsolelogger.hpp</text>
</a>
</g>
</g>
<!-- Node68&#45;&gt;Node80 -->
<g id="edge16" class="edge">
<title>Node68&#45;&gt;Node80</title>
<path fill="none" stroke="#191970" d="M477.9703,-272.4385C484.3161,-264.2489 491.2981,-254.0957 495.9491,-244 514.1108,-204.5774 522.1646,-152.7245 524.8507,-131.5882"/>
<polygon fill="#191970" stroke="#191970" points="475.0486,-270.4849 471.4746,-280.4587 480.4883,-274.8906 475.0486,-270.4849"/>
</g>
<!-- Node81 -->
<g id="node16" class="node">
<title>Node81</title>
<g id="a_node16"><a xlink:href="scopedump_8hpp.html" target="_top" xlink:title="scopedump.hpp">
<polygon fill="#ffffff" stroke="#000000" points="600.9491,-168.5 600.9491,-187.5 686.9491,-187.5 686.9491,-168.5 600.9491,-168.5"/>
<text text-anchor="middle" x="643.9491" y="-175.5" font-family="Helvetica,sans-Serif" font-size="10.00" fill="#000000">scopedump.hpp</text>
</a>
</g>
</g>
<!-- Node68&#45;&gt;Node81 -->
<g id="edge17" class="edge">
<title>Node68&#45;&gt;Node81</title>
<path fill="none" stroke="#191970" d="M487.2223,-274.9801C525.0704,-251.5603 597.0652,-207.011 628.5562,-187.5249"/>
<polygon fill="#191970" stroke="#191970" points="485.043,-272.2127 478.3811,-280.4509 488.7264,-278.1653 485.043,-272.2127"/>
</g>
<!-- Node82 -->
<g id="node17" class="node">
<title>Node82</title>
<g id="a_node17"><a xlink:href="scopestore_8hpp.html" target="_top" xlink:title="scopestore.hpp">
<polygon fill="#ffffff" stroke="#000000" points="660.4491,-224.5 660.4491,-243.5 743.4491,-243.5 743.4491,-224.5 660.4491,-224.5"/>
<text text-anchor="middle" x="701.9491" y="-231.5" font-family="Helvetica,sans-Serif" font-size="10.00" fill="#000000">scopestore.hpp</text>
</a>
</g>
</g>
<!-- Node68&#45;&gt;Node82 -->
<g id="edge18" class="edge">
<title>Node68&#45;&gt;Node82</title>
<path fill="none" stroke="#191970" d="M499.8099,-281.3632C543.4395,-271.1403 615.8685,-254.1695 661.1499,-243.5596"/>
<polygon fill="#191970" stroke="#191970" points="498.8387,-277.9959 489.9008,-283.6849 500.4356,-284.8113 498.8387,-277.9959"/>
</g>
<!-- Node69&#45;&gt;Node68 -->
<g id="edge19" class="edge">
<title>Node69&#45;&gt;Node68</title>
<path fill="none" stroke="#191970" d="M469.4286,-253.7046C470.0312,-262.6944 469.627,-272.9382 468.2159,-280.2455"/>
<polygon fill="#191970" stroke="#191970" points="472.8859,-253.1421 468.1942,-243.6427 465.938,-253.9945 472.8859,-253.1421"/>
</g>
<!-- Node71&#45;&gt;Node67 -->
<g id="edge20" class="edge">
<title>Node71&#45;&gt;Node67</title>
<path fill="none" stroke="#191970" d="M761.7139,-247.3897C704.8396,-270.3031 590.1984,-316.4895 540.6512,-336.4509"/>
<polygon fill="#191970" stroke="#191970" points="763.3394,-250.5083 771.307,-243.5249 760.7235,-244.0154 763.3394,-250.5083"/>
</g>
<!-- Node72&#45;&gt;Node67 -->
<g id="edge21" class="edge">
<title>Node72&#45;&gt;Node67</title>
<path fill="none" stroke="#191970" d="M597.1546,-251.4419C576.8459,-275.3849 541.0338,-317.6054 525.0487,-336.4509"/>
<polygon fill="#191970" stroke="#191970" points="600.0705,-253.415 603.87,-243.5249 594.7322,-248.887 600.0705,-253.415"/>
</g>
<!-- Node72&#45;&gt;Node73 -->
<g id="edge22" class="edge">
<title>Node72&#45;&gt;Node73</title>
<path fill="none" stroke="#191970" d="M572.6056,-221.1905C541.094,-210.9309 497.5972,-196.7691 469.1311,-187.5011"/>
<polygon fill="#191970" stroke="#191970" points="571.7889,-224.6054 582.3812,-224.3733 573.9561,-217.9493 571.7889,-224.6054"/>
</g>
<!-- Node73&#45;&gt;Node74 -->
<g id="edge23" class="edge">
<title>Node73&#45;&gt;Node74</title>
<path fill="none" stroke="#191970" d="M392.2213,-165.8511C351.7379,-155.5462 294.4731,-140.9697 257.2749,-131.5011"/>
<polygon fill="#191970" stroke="#191970" points="391.5754,-169.2982 402.1297,-168.3733 393.3022,-162.5145 391.5754,-169.2982"/>
</g>
<!-- Node73&#45;&gt;Node79 -->
<g id="edge24" class="edge">
<title>Node73&#45;&gt;Node79</title>
<path fill="none" stroke="#191970" d="M427.8115,-159.6296C421.6398,-150.2887 414.3925,-139.3197 409.3201,-131.6427"/>
<polygon fill="#191970" stroke="#191970" points="425.0714,-161.8316 433.5042,-168.2455 430.9118,-157.9728 425.0714,-161.8316"/>
</g>
<!-- Node73&#45;&gt;Node80 -->
<g id="edge25" class="edge">
<title>Node73&#45;&gt;Node80</title>
<path fill="none" stroke="#191970" d="M463.3396,-162.769C478.579,-152.8456 498,-140.1994 511.1407,-131.6427"/>
<polygon fill="#191970" stroke="#191970" points="461.3993,-159.8558 454.9292,-168.2455 465.219,-165.7218 461.3993,-159.8558"/>
</g>
<!-- Node74&#45;&gt;Node75 -->
<g id="edge26" class="edge">
<title>Node74&#45;&gt;Node75</title>
<path fill="none" stroke="#191970" d="M208.4676,-103.6296C202.6295,-94.2887 195.7739,-83.3197 190.9758,-75.6427"/>
<polygon fill="#191970" stroke="#191970" points="205.5845,-105.6206 213.8526,-112.2455 211.5205,-101.9105 205.5845,-105.6206"/>
</g>
<!-- Node74&#45;&gt;Node76 -->
<g id="edge27" class="edge">
<title>Node74&#45;&gt;Node76</title>
<path fill="none" stroke="#191970" d="M262.2848,-109.4561C296.9785,-99.1765 345.3324,-84.8494 376.8828,-75.5011"/>
<polygon fill="#191970" stroke="#191970" points="261.033,-106.1765 252.4394,-112.3733 263.0217,-112.8881 261.033,-106.1765"/>
</g>
<!-- Node74&#45;&gt;Node77 -->
<g id="edge28" class="edge">
<title>Node74&#45;&gt;Node77</title>
<path fill="none" stroke="#191970" d="M185.5056,-108.7888C158.8478,-98.5639 122.5691,-84.6488 98.7199,-75.5011"/>
<polygon fill="#191970" stroke="#191970" points="184.2606,-112.0598 194.8508,-112.3733 186.7675,-105.5241 184.2606,-112.0598"/>
</g>
<!-- Node74&#45;&gt;Node78 -->
<g id="edge29" class="edge">
<title>Node74&#45;&gt;Node78</title>
<path fill="none" stroke="#191970" d="M241.6607,-106.2097C255.1844,-96.3743 272.1449,-84.0394 283.6904,-75.6427"/>
<polygon fill="#191970" stroke="#191970" points="239.3902,-103.5332 233.3615,-112.2455 243.5075,-109.1944 239.3902,-103.5332"/>
</g>
<!-- Node75&#45;&gt;Node70 -->
<g id="edge30" class="edge">
<title>Node75&#45;&gt;Node70</title>
<path fill="none" stroke="#191970" d="M213.2754,-51.8368C233.5212,-41.7139 260.2133,-28.3679 277.9469,-19.5011"/>
<polygon fill="#191970" stroke="#191970" points="211.5816,-48.7706 204.2026,-56.3733 214.7121,-55.0316 211.5816,-48.7706"/>
</g>
<!-- Node78&#45;&gt;Node70 -->
<g id="edge31" class="edge">
<title>Node78&#45;&gt;Node70</title>
<path fill="none" stroke="#191970" d="M296.9491,-46.1575C296.9491,-37.155 296.9491,-26.9199 296.9491,-19.6427"/>
<polygon fill="#191970" stroke="#191970" points="293.4492,-46.2455 296.9491,-56.2455 300.4492,-46.2456 293.4492,-46.2455"/>
</g>
<!-- Node79&#45;&gt;Node70 -->
<g id="edge32" class="edge">
<title>Node79&#45;&gt;Node70</title>
<path fill="none" stroke="#191970" d="M433.002,-107.605C455.6689,-94.771 480.5538,-75.1113 465.9491,-56 453.0248,-39.0876 403.6932,-26.9158 361.6401,-19.3576"/>
<polygon fill="#191970" stroke="#191970" points="431.3438,-104.5226 424.1901,-112.3377 434.656,-110.6895 431.3438,-104.5226"/>
</g>
<!-- Node80&#45;&gt;Node70 -->
<g id="edge33" class="edge">
<title>Node80&#45;&gt;Node70</title>
<path fill="none" stroke="#191970" d="M518.238,-102.8942C511.2208,-87.9184 499.4327,-67.7156 482.9491,-56 462.4782,-41.4504 401.4442,-28.0606 354.8211,-19.5245"/>
<polygon fill="#191970" stroke="#191970" points="515.1194,-104.4985 522.3329,-112.2584 521.533,-101.6938 515.1194,-104.4985"/>
</g>
<!-- Node82&#45;&gt;Node67 -->
<g id="edge34" class="edge">
<title>Node82&#45;&gt;Node67</title>
<path fill="none" stroke="#191970" d="M677.1874,-248.9909C638.5317,-272.3932 564.9432,-316.9441 532.7221,-336.4509"/>
<polygon fill="#191970" stroke="#191970" points="679.4742,-251.6979 686.216,-243.5249 675.8489,-245.7098 679.4742,-251.6979"/>
</g>
<!-- Node82&#45;&gt;Node81 -->
<g id="edge35" class="edge">
<title>Node82&#45;&gt;Node81</title>
<path fill="none" stroke="#191970" d="M684.4198,-217.0751C674.4408,-207.4402 662.3015,-195.7196 653.9362,-187.6427"/>
<polygon fill="#191970" stroke="#191970" points="682.2211,-219.8175 691.8463,-224.2455 687.0833,-214.7817 682.2211,-219.8175"/>
</g>
</g>
</svg>
