<?xml version="1.0" encoding="UTF-8" standalone="no"?>
<!DOCTYPE svg PUBLIC "-//W3C//DTD SVG 1.1//EN"
 "http://www.w3.org/Graphics/SVG/1.1/DTD/svg11.dtd">
<!-- Generated by graphviz version 2.40.1 (20161225.0304)
 -->
<!-- Title: simpletext.hpp Pages: 1 -->
<svg width="329pt" height="252pt"
 viewBox="0.00 0.00 329.00 252.00" xmlns="http://www.w3.org/2000/svg" xmlns:xlink="http://www.w3.org/1999/xlink">
<g id="graph0" class="graph" transform="scale(1 1) rotate(0) translate(4 248)">
<title>simpletext.hpp</title>
<polygon fill="#ffffff" stroke="transparent" points="-4,4 -4,-248 325,-248 325,4 -4,4"/>
<!-- Node0 -->
<g id="node1" class="node">
<title>Node0</title>
<polygon fill="#bfbfbf" stroke="#000000" points="125.5,-224.5 125.5,-243.5 205.5,-243.5 205.5,-224.5 125.5,-224.5"/>
<text text-anchor="middle" x="165.5" y="-231.5" font-family="Helvetica,sans-Serif" font-size="10.00" fill="#000000">simpletext.hpp</text>
</g>
<!-- Node1 -->
<g id="node2" class="node">
<title>Node1</title>
<g id="a_node2"><a xlink:href="formatterpythonstyle_8hpp.html" target="_top" xlink:title="alib/strings/format/formatterpythonstyle.hpp">
<polygon fill="#ffffff" stroke="#000000" points="62.5,-168.5 62.5,-187.5 268.5,-187.5 268.5,-168.5 62.5,-168.5"/>
<text text-anchor="middle" x="165.5" y="-175.5" font-family="Helvetica,sans-Serif" font-size="10.00" fill="#000000">alib/strings/format/formatterpythonstyle.hpp</text>
</a>
</g>
</g>
<!-- Node0&#45;&gt;Node1 -->
<g id="edge1" class="edge">
<title>Node0&#45;&gt;Node1</title>
<path fill="none" stroke="#191970" d="M165.5,-224.2455C165.5,-216.9382 165.5,-206.6944 165.5,-197.7046"/>
<polygon fill="#191970" stroke="#191970" points="169.0001,-197.6426 165.5,-187.6427 162.0001,-197.6427 169.0001,-197.6426"/>
</g>
<!-- Node2 -->
<g id="node3" class="node">
<title>Node2</title>
<g id="a_node3"><a xlink:href="formatterstdimpl_8hpp.html" target="_top" xlink:title="alib/strings/format/formatterstdimpl.hpp">
<polygon fill="#ffffff" stroke="#000000" points="0,-112.5 0,-131.5 187,-131.5 187,-112.5 0,-112.5"/>
<text text-anchor="middle" x="93.5" y="-119.5" font-family="Helvetica,sans-Serif" font-size="10.00" fill="#000000">alib/strings/format/formatterstdimpl.hpp</text>
</a>
</g>
</g>
<!-- Node1&#45;&gt;Node2 -->
<g id="edge2" class="edge">
<title>Node1&#45;&gt;Node2</title>
<path fill="none" stroke="#191970" d="M152.9586,-168.2455C142.2213,-159.8943 126.5527,-147.7076 113.9953,-137.9408"/>
<polygon fill="#191970" stroke="#191970" points="115.9401,-135.0194 105.8977,-131.6427 111.6425,-140.5449 115.9401,-135.0194"/>
</g>
<!-- Node51 -->
<g id="node4" class="node">
<title>Node51</title>
<g id="a_node4"><a xlink:href="autosizes_8hpp.html" target="_top" xlink:title="alib/strings/util/autosizes.hpp">
<polygon fill="#ffffff" stroke="#000000" points="178,-56.5 178,-75.5 321,-75.5 321,-56.5 178,-56.5"/>
<text text-anchor="middle" x="249.5" y="-63.5" font-family="Helvetica,sans-Serif" font-size="10.00" fill="#000000">alib/strings/util/autosizes.hpp</text>
</a>
</g>
</g>
<!-- Node1&#45;&gt;Node51 -->
<g id="edge3" class="edge">
<title>Node1&#45;&gt;Node51</title>
<path fill="none" stroke="#191970" d="M172.6618,-168.4509C186.734,-149.688 218.1839,-107.7548 236.1815,-83.758"/>
<polygon fill="#191970" stroke="#191970" points="239.1563,-85.6249 242.3563,-75.5249 233.5563,-81.4249 239.1563,-85.6249"/>
</g>
<!-- Node3 -->
<g id="node5" class="node">
<title>Node3</title>
<g id="a_node5"><a xlink:href="formatter_8hpp.html" target="_top" xlink:title="alib/strings/format/formatter.hpp">
<polygon fill="#ffffff" stroke="#ff0000" points="5,-56.5 5,-75.5 160,-75.5 160,-56.5 5,-56.5"/>
<text text-anchor="middle" x="82.5" y="-63.5" font-family="Helvetica,sans-Serif" font-size="10.00" fill="#000000">alib/strings/format/formatter.hpp</text>
</a>
</g>
</g>
<!-- Node2&#45;&gt;Node3 -->
<g id="edge4" class="edge">
<title>Node2&#45;&gt;Node3</title>
<path fill="none" stroke="#191970" d="M91.5839,-112.2455C90.1486,-104.9382 88.1364,-94.6944 86.3705,-85.7046"/>
<polygon fill="#191970" stroke="#191970" points="89.756,-84.7805 84.3941,-75.6427 82.8873,-86.1298 89.756,-84.7805"/>
</g>
<!-- Node4 -->
<g id="node6" class="node">
<title>Node4</title>
<polygon fill="#ffffff" stroke="#bfbfbf" points="143.5,-.5 143.5,-19.5 187.5,-19.5 187.5,-.5 143.5,-.5"/>
<text text-anchor="middle" x="165.5" y="-7.5" font-family="Helvetica,sans-Serif" font-size="10.00" fill="#000000">vector</text>
</g>
<!-- Node51&#45;&gt;Node4 -->
<g id="edge6" class="edge">
<title>Node51&#45;&gt;Node4</title>
<path fill="none" stroke="#191970" d="M234.8683,-56.2455C222.1006,-47.7337 203.3562,-35.2375 188.5701,-25.3801"/>
<polygon fill="#191970" stroke="#191970" points="190.226,-22.2775 179.964,-19.6427 186.3431,-28.1019 190.226,-22.2775"/>
</g>
<!-- Node3&#45;&gt;Node4 -->
<g id="edge5" class="edge">
<title>Node3&#45;&gt;Node4</title>
<path fill="none" stroke="#191970" d="M96.9575,-56.2455C109.5732,-47.7337 128.0944,-35.2375 142.7045,-25.3801"/>
<polygon fill="#191970" stroke="#191970" points="144.8761,-28.1371 151.2082,-19.6427 140.9609,-22.3343 144.8761,-28.1371"/>
</g>
</g>
</svg>
