<?xml version="1.0" encoding="UTF-8" standalone="no"?>
<!DOCTYPE svg PUBLIC "-//W3C//DTD SVG 1.1//EN"
 "http://www.w3.org/Graphics/SVG/1.1/DTD/svg11.dtd">
<!-- Generated by graphviz version 2.40.1 (20161225.0304)
 -->
<!-- Title: smartlock.hpp Pages: 1 -->
<svg width="864pt" height="420pt"
 viewBox="0.00 0.00 864.00 420.00" xmlns="http://www.w3.org/2000/svg" xmlns:xlink="http://www.w3.org/1999/xlink">
<g id="graph0" class="graph" transform="scale(1 1) rotate(0) translate(4 416)">
<title>smartlock.hpp</title>
<polygon fill="#ffffff" stroke="transparent" points="-4,4 -4,-416 860,-416 860,4 -4,4"/>
<!-- Node46 -->
<g id="node1" class="node">
<title>Node46</title>
<polygon fill="#bfbfbf" stroke="#000000" points="328.5,-392.5 328.5,-411.5 406.5,-411.5 406.5,-392.5 328.5,-392.5"/>
<text text-anchor="middle" x="367.5" y="-399.5" font-family="Helvetica,sans-Serif" font-size="10.00" fill="#000000">smartlock.hpp</text>
</g>
<!-- Node47 -->
<g id="node2" class="node">
<title>Node47</title>
<g id="a_node2"><a xlink:href="lox_8hpp.html" target="_top" xlink:title="lox.hpp">
<polygon fill="#ffffff" stroke="#000000" points="343.5,-336.5 343.5,-355.5 391.5,-355.5 391.5,-336.5 343.5,-336.5"/>
<text text-anchor="middle" x="367.5" y="-343.5" font-family="Helvetica,sans-Serif" font-size="10.00" fill="#000000">lox.hpp</text>
</a>
</g>
</g>
<!-- Node46&#45;&gt;Node47 -->
<g id="edge1" class="edge">
<title>Node46&#45;&gt;Node47</title>
<path fill="none" stroke="#191970" d="M367.5,-382.1575C367.5,-373.155 367.5,-362.9199 367.5,-355.6427"/>
<polygon fill="#191970" stroke="#191970" points="364.0001,-382.2455 367.5,-392.2455 371.0001,-382.2456 364.0001,-382.2455"/>
</g>
<!-- Node48 -->
<g id="node3" class="node">
<title>Node48</title>
<g id="a_node3"><a xlink:href="alox_8hpp.html" target="_top" xlink:title="alox.hpp">
<polygon fill="#ffffff" stroke="#000000" points="341,-280.5 341,-299.5 394,-299.5 394,-280.5 341,-280.5"/>
<text text-anchor="middle" x="367.5" y="-287.5" font-family="Helvetica,sans-Serif" font-size="10.00" fill="#000000">alox.hpp</text>
</a>
</g>
</g>
<!-- Node47&#45;&gt;Node48 -->
<g id="edge2" class="edge">
<title>Node47&#45;&gt;Node48</title>
<path fill="none" stroke="#191970" d="M361.0113,-326.1575C360.419,-317.155 360.8335,-306.9199 362.2549,-299.6427"/>
<polygon fill="#191970" stroke="#191970" points="357.5561,-326.739 362.2332,-336.2455 364.5053,-325.8972 357.5561,-326.739"/>
</g>
<!-- Node48&#45;&gt;Node47 -->
<g id="edge3" class="edge">
<title>Node48&#45;&gt;Node47</title>
<path fill="none" stroke="#191970" d="M373.9795,-309.7046C374.5821,-318.6944 374.1779,-328.9382 372.7668,-336.2455"/>
<polygon fill="#191970" stroke="#191970" points="377.4368,-309.1421 372.7451,-299.6427 370.4889,-309.9945 377.4368,-309.1421"/>
</g>
<!-- Node49 -->
<g id="node4" class="node">
<title>Node49</title>
<g id="a_node4"><a xlink:href="log_8hpp.html" target="_top" xlink:title="log.hpp">
<polygon fill="#ffffff" stroke="#000000" points="317.5,-224.5 317.5,-243.5 365.5,-243.5 365.5,-224.5 317.5,-224.5"/>
<text text-anchor="middle" x="341.5" y="-231.5" font-family="Helvetica,sans-Serif" font-size="10.00" fill="#000000">log.hpp</text>
</a>
</g>
</g>
<!-- Node48&#45;&gt;Node49 -->
<g id="edge4" class="edge">
<title>Node48&#45;&gt;Node49</title>
<path fill="none" stroke="#191970" d="M352.589,-271.6296C347.5106,-262.2887 342.7967,-251.3197 340.7318,-243.6427"/>
<polygon fill="#191970" stroke="#191970" points="349.5896,-273.4336 357.7043,-280.2455 355.6087,-269.86 349.5896,-273.4336"/>
</g>
<!-- Node50 -->
<g id="node5" class="node">
<title>Node50</title>
<g id="a_node5"><a xlink:href="alox__console__loggers_8hpp.html" target="_top" xlink:title="alox_console_loggers.hpp">
<polygon fill="#ffffff" stroke="#000000" points="137,-.5 137,-19.5 266,-19.5 266,-.5 137,-.5"/>
<text text-anchor="middle" x="201.5" y="-7.5" font-family="Helvetica,sans-Serif" font-size="10.00" fill="#000000">alox_console_loggers.hpp</text>
</a>
</g>
</g>
<!-- Node48&#45;&gt;Node50 -->
<g id="edge5" class="edge">
<title>Node48&#45;&gt;Node50</title>
<path fill="none" stroke="#191970" d="M330.5509,-286.0059C274.2568,-279.3524 170.2939,-264.6601 139.5,-244 110.2242,-224.3584 95.5,-213.2543 95.5,-178 95.5,-178 95.5,-178 95.5,-122 95.5,-72.4715 150.8566,-36.0372 181.5622,-19.6372"/>
<polygon fill="#191970" stroke="#191970" points="330.4731,-289.5202 340.8089,-287.1916 331.2769,-282.5665 330.4731,-289.5202"/>
</g>
<!-- Node51 -->
<g id="node6" class="node">
<title>Node51</title>
<g id="a_node6"><a xlink:href="domain_8hpp.html" target="_top" xlink:title="domain.hpp">
<polygon fill="#ffffff" stroke="#000000" points="0,-224.5 0,-243.5 67,-243.5 67,-224.5 0,-224.5"/>
<text text-anchor="middle" x="33.5" y="-231.5" font-family="Helvetica,sans-Serif" font-size="10.00" fill="#000000">domain.hpp</text>
</a>
</g>
</g>
<!-- Node48&#45;&gt;Node51 -->
<g id="edge6" class="edge">
<title>Node48&#45;&gt;Node51</title>
<path fill="none" stroke="#191970" d="M330.3844,-284.5869C275.7505,-276.493 170.5214,-260.4232 81.5,-244 76.8122,-243.1352 71.8785,-242.1702 67.0307,-241.1903"/>
<polygon fill="#191970" stroke="#191970" points="330.2129,-288.0995 340.6168,-286.0971 331.235,-281.1745 330.2129,-288.0995"/>
</g>
<!-- Node52 -->
<g id="node7" class="node">
<title>Node52</title>
<g id="a_node7"><a xlink:href="logger_8hpp.html" target="_top" xlink:title="logger.hpp">
<polygon fill="#ffffff" stroke="#000000" points="162,-224.5 162,-243.5 223,-243.5 223,-224.5 162,-224.5"/>
<text text-anchor="middle" x="192.5" y="-231.5" font-family="Helvetica,sans-Serif" font-size="10.00" fill="#000000">logger.hpp</text>
</a>
</g>
</g>
<!-- Node48&#45;&gt;Node52 -->
<g id="edge7" class="edge">
<title>Node48&#45;&gt;Node52</title>
<path fill="none" stroke="#191970" d="M330.9888,-278.3164C298.7417,-267.9974 252.3037,-253.1372 222.2638,-243.5244"/>
<polygon fill="#191970" stroke="#191970" points="330.3303,-281.7805 340.9213,-281.4948 332.4638,-275.1135 330.3303,-281.7805"/>
</g>
<!-- Node53 -->
<g id="node8" class="node">
<title>Node53</title>
<g id="a_node8"><a xlink:href="textlogger_8hpp.html" target="_top" xlink:title="textlogger.hpp">
<polygon fill="#ffffff" stroke="#000000" points="260,-168.5 260,-187.5 337,-187.5 337,-168.5 260,-168.5"/>
<text text-anchor="middle" x="298.5" y="-175.5" font-family="Helvetica,sans-Serif" font-size="10.00" fill="#000000">textlogger.hpp</text>
</a>
</g>
</g>
<!-- Node48&#45;&gt;Node53 -->
<g id="edge8" class="edge">
<title>Node48&#45;&gt;Node53</title>
<path fill="none" stroke="#191970" d="M340.0682,-275.0278C328.4862,-267.2903 315.9755,-256.774 308.5,-244 298.0809,-226.196 297.3162,-201.2424 297.8176,-187.6891"/>
<polygon fill="#191970" stroke="#191970" points="338.3114,-278.0572 348.6452,-280.3944 342.0244,-272.1231 338.3114,-278.0572"/>
</g>
<!-- Node54 -->
<g id="node9" class="node">
<title>Node54</title>
<g id="a_node9"><a xlink:href="plaintextlogger_8hpp.html" target="_top" xlink:title="plaintextlogger.hpp">
<polygon fill="#ffffff" stroke="#000000" points="447.5,-112.5 447.5,-131.5 545.5,-131.5 545.5,-112.5 447.5,-112.5"/>
<text text-anchor="middle" x="496.5" y="-119.5" font-family="Helvetica,sans-Serif" font-size="10.00" fill="#000000">plaintextlogger.hpp</text>
</a>
</g>
</g>
<!-- Node48&#45;&gt;Node54 -->
<g id="edge9" class="edge">
<title>Node48&#45;&gt;Node54</title>
<path fill="none" stroke="#191970" d="M401.2414,-276.0967C416.3968,-268.4689 433.5234,-257.7395 445.5,-244 475.8202,-209.2169 489.9682,-153.8447 494.6479,-131.6575"/>
<polygon fill="#191970" stroke="#191970" points="399.6433,-272.9811 392.1234,-280.4445 402.6562,-279.2996 399.6433,-272.9811"/>
</g>
<!-- Node55 -->
<g id="node10" class="node">
<title>Node55</title>
<g id="a_node10"><a xlink:href="consolelogger_8hpp.html" target="_top" xlink:title="consolelogger.hpp">
<polygon fill="#ffffff" stroke="#000000" points="340,-56.5 340,-75.5 435,-75.5 435,-56.5 340,-56.5"/>
<text text-anchor="middle" x="387.5" y="-63.5" font-family="Helvetica,sans-Serif" font-size="10.00" fill="#000000">consolelogger.hpp</text>
</a>
</g>
</g>
<!-- Node48&#45;&gt;Node55 -->
<g id="edge10" class="edge">
<title>Node48&#45;&gt;Node55</title>
<path fill="none" stroke="#191970" d="M378.352,-271.2295C382.5429,-263.1129 386.9375,-253.3472 389.5,-244 405.0557,-187.2589 406.9864,-170.3565 399.5,-112 397.8617,-99.2294 393.764,-84.9414 390.8127,-75.7276"/>
<polygon fill="#191970" stroke="#191970" points="375.19,-269.7175 373.4779,-280.1731 381.3365,-273.0673 375.19,-269.7175"/>
</g>
<!-- Node56 -->
<g id="node11" class="node">
<title>Node56</title>
<g id="a_node11"><a xlink:href="memorylogger_8hpp.html" target="_top" xlink:title="memorylogger.hpp">
<polygon fill="#ffffff" stroke="#000000" points="453.5,-56.5 453.5,-75.5 549.5,-75.5 549.5,-56.5 453.5,-56.5"/>
<text text-anchor="middle" x="501.5" y="-63.5" font-family="Helvetica,sans-Serif" font-size="10.00" fill="#000000">memorylogger.hpp</text>
</a>
</g>
</g>
<!-- Node48&#45;&gt;Node56 -->
<g id="edge11" class="edge">
<title>Node48&#45;&gt;Node56</title>
<path fill="none" stroke="#191970" d="M403.7948,-277.8862C423.6006,-270.1578 447.8175,-258.7982 466.5,-244 516.1238,-204.6937 533.8078,-191.8276 554.5,-132 557.4055,-123.5994 558.1893,-120.0871 554.5,-112 547.2182,-96.0379 531.3589,-83.4785 518.8758,-75.5442"/>
<polygon fill="#191970" stroke="#191970" points="402.316,-274.7027 394.182,-281.4915 404.7742,-281.2569 402.316,-274.7027"/>
</g>
<!-- Node57 -->
<g id="node12" class="node">
<title>Node57</title>
<g id="a_node12"><a xlink:href="textfilelogger_8hpp.html" target="_top" xlink:title="textfilelogger.hpp">
<polygon fill="#ffffff" stroke="#000000" points="567.5,-56.5 567.5,-75.5 657.5,-75.5 657.5,-56.5 567.5,-56.5"/>
<text text-anchor="middle" x="612.5" y="-63.5" font-family="Helvetica,sans-Serif" font-size="10.00" fill="#000000">textfilelogger.hpp</text>
</a>
</g>
</g>
<!-- Node48&#45;&gt;Node57 -->
<g id="edge12" class="edge">
<title>Node48&#45;&gt;Node57</title>
<path fill="none" stroke="#191970" d="M404.0844,-281.2948C430.3503,-273.9721 465.8468,-261.8118 493.5,-244 560.0645,-201.1249 598.2424,-106.3715 609.1897,-75.75"/>
<polygon fill="#191970" stroke="#191970" points="402.9052,-277.9873 394.1524,-283.9571 404.7176,-284.7486 402.9052,-277.9873"/>
</g>
<!-- Node58 -->
<g id="node13" class="node">
<title>Node58</title>
<g id="a_node13"><a xlink:href="vstudiologger_8hpp.html" target="_top" xlink:title="vstudiologger.hpp">
<polygon fill="#ffffff" stroke="#000000" points="229.5,-56.5 229.5,-75.5 321.5,-75.5 321.5,-56.5 229.5,-56.5"/>
<text text-anchor="middle" x="275.5" y="-63.5" font-family="Helvetica,sans-Serif" font-size="10.00" fill="#000000">vstudiologger.hpp</text>
</a>
</g>
</g>
<!-- Node48&#45;&gt;Node58 -->
<g id="edge13" class="edge">
<title>Node48&#45;&gt;Node58</title>
<path fill="none" stroke="#191970" d="M338.0307,-275.5633C308.543,-259.1274 265.4722,-229.1287 250.5,-188 238.9456,-156.2599 242.1789,-144.7368 250.5,-112 253.9483,-98.4338 262.2948,-84.5431 268.3985,-75.6276"/>
<polygon fill="#191970" stroke="#191970" points="336.6085,-278.7723 347.0744,-280.4199 339.9203,-272.6052 336.6085,-278.7723"/>
</g>
<!-- Node59 -->
<g id="node14" class="node">
<title>Node59</title>
<g id="a_node14"><a xlink:href="ansilogger_8hpp.html" target="_top" xlink:title="ansilogger.hpp">
<polygon fill="#ffffff" stroke="#000000" points="124,-112.5 124,-131.5 203,-131.5 203,-112.5 124,-112.5"/>
<text text-anchor="middle" x="163.5" y="-119.5" font-family="Helvetica,sans-Serif" font-size="10.00" fill="#000000">ansilogger.hpp</text>
</a>
</g>
</g>
<!-- Node48&#45;&gt;Node59 -->
<g id="edge14" class="edge">
<title>Node48&#45;&gt;Node59</title>
<path fill="none" stroke="#191970" d="M330.5561,-287.5512C275.1028,-283.0195 174.4851,-271.1864 152.5,-244 125.4878,-210.5971 147.953,-153.9486 158.6325,-131.5362"/>
<polygon fill="#191970" stroke="#191970" points="330.4406,-291.0527 340.6819,-288.3385 330.9834,-284.0737 330.4406,-291.0527"/>
</g>
<!-- Node60 -->
<g id="node15" class="node">
<title>Node60</title>
<g id="a_node15"><a xlink:href="windowsconsolelogger_8hpp.html" target="_top" xlink:title="windowsconsolelogger.hpp">
<polygon fill="#ffffff" stroke="#000000" points="260,-112.5 260,-131.5 391,-131.5 391,-112.5 260,-112.5"/>
<text text-anchor="middle" x="325.5" y="-119.5" font-family="Helvetica,sans-Serif" font-size="10.00" fill="#000000">windowsconsolelogger.hpp</text>
</a>
</g>
</g>
<!-- Node48&#45;&gt;Node60 -->
<g id="edge15" class="edge">
<title>Node48&#45;&gt;Node60</title>
<path fill="none" stroke="#191970" d="M372.8725,-270.5971C375.7376,-257.3416 378.0181,-239.448 374.5,-224 366.2115,-187.6051 343.235,-149.0479 331.9386,-131.586"/>
<polygon fill="#191970" stroke="#191970" points="369.4302,-269.9391 370.4428,-280.4854 376.228,-271.6094 369.4302,-269.9391"/>
</g>
<!-- Node61 -->
<g id="node16" class="node">
<title>Node61</title>
<g id="a_node16"><a xlink:href="scopedump_8hpp.html" target="_top" xlink:title="scopedump.hpp">
<polygon fill="#ffffff" stroke="#000000" points="657.5,-168.5 657.5,-187.5 743.5,-187.5 743.5,-168.5 657.5,-168.5"/>
<text text-anchor="middle" x="700.5" y="-175.5" font-family="Helvetica,sans-Serif" font-size="10.00" fill="#000000">scopedump.hpp</text>
</a>
</g>
</g>
<!-- Node48&#45;&gt;Node61 -->
<g id="edge16" class="edge">
<title>Node48&#45;&gt;Node61</title>
<path fill="none" stroke="#191970" d="M404.1698,-285.9308C465.7398,-278.6914 586.9478,-262.5776 625.5,-244 653.9376,-230.2964 679.8479,-202.7191 692.4511,-187.921"/>
<polygon fill="#191970" stroke="#191970" points="403.6408,-282.4686 394.1104,-287.0969 404.4469,-289.422 403.6408,-282.4686"/>
</g>
<!-- Node62 -->
<g id="node17" class="node">
<title>Node62</title>
<g id="a_node17"><a xlink:href="scopestore_8hpp.html" target="_top" xlink:title="scopestore.hpp">
<polygon fill="#ffffff" stroke="#000000" points="678,-224.5 678,-243.5 761,-243.5 761,-224.5 678,-224.5"/>
<text text-anchor="middle" x="719.5" y="-231.5" font-family="Helvetica,sans-Serif" font-size="10.00" fill="#000000">scopestore.hpp</text>
</a>
</g>
</g>
<!-- Node48&#45;&gt;Node62 -->
<g id="edge17" class="edge">
<title>Node48&#45;&gt;Node62</title>
<path fill="none" stroke="#191970" d="M404.197,-284.5689C460.1808,-276.222 570.2526,-259.5692 663.5,-244 668.1758,-243.2193 673.0669,-242.3798 677.9282,-241.531"/>
<polygon fill="#191970" stroke="#191970" points="403.4414,-281.1427 394.0656,-286.0767 404.472,-288.0665 403.4414,-281.1427"/>
</g>
<!-- Node63 -->
<g id="node18" class="node">
<title>Node63</title>
<g id="a_node18"><a xlink:href="scopeinfo_8hpp.html" target="_top" xlink:title="scopeinfo.hpp">
<polygon fill="#ffffff" stroke="#000000" points="779,-224.5 779,-243.5 856,-243.5 856,-224.5 779,-224.5"/>
<text text-anchor="middle" x="817.5" y="-231.5" font-family="Helvetica,sans-Serif" font-size="10.00" fill="#000000">scopeinfo.hpp</text>
</a>
</g>
</g>
<!-- Node48&#45;&gt;Node63 -->
<g id="edge18" class="edge">
<title>Node48&#45;&gt;Node63</title>
<path fill="none" stroke="#191970" d="M404.2389,-286.996C475.2774,-280.9249 636.3009,-265.8837 770.5,-244 773.2171,-243.5569 776.0147,-243.0619 778.8268,-242.5357"/>
<polygon fill="#191970" stroke="#191970" points="403.6953,-283.5294 394.0259,-287.8598 404.2853,-290.5045 403.6953,-283.5294"/>
</g>
<!-- Node49&#45;&gt;Node48 -->
<g id="edge19" class="edge">
<title>Node49&#45;&gt;Node48</title>
<path fill="none" stroke="#191970" d="M356.4959,-252.5267C361.5173,-261.7881 366.1692,-272.617 368.238,-280.2455"/>
<polygon fill="#191970" stroke="#191970" points="359.3364,-250.4551 351.2221,-243.6427 353.3171,-254.0283 359.3364,-250.4551"/>
</g>
<!-- Node51&#45;&gt;Node47 -->
<g id="edge20" class="edge">
<title>Node51&#45;&gt;Node47</title>
<path fill="none" stroke="#191970" d="M71.6223,-246.7835C141.037,-270.0603 286.1684,-318.7271 343.4795,-337.9452"/>
<polygon fill="#191970" stroke="#191970" points="72.5435,-243.401 61.9496,-243.54 70.318,-250.0378 72.5435,-243.401"/>
</g>
<!-- Node52&#45;&gt;Node47 -->
<g id="edge21" class="edge">
<title>Node52&#45;&gt;Node47</title>
<path fill="none" stroke="#191970" d="M215.9232,-248.9909C252.4894,-272.3932 322.1002,-316.9441 352.5796,-336.4509"/>
<polygon fill="#191970" stroke="#191970" points="217.6921,-245.9675 207.3826,-243.5249 213.9187,-251.8634 217.6921,-245.9675"/>
</g>
<!-- Node52&#45;&gt;Node53 -->
<g id="edge22" class="edge">
<title>Node52&#45;&gt;Node53</title>
<path fill="none" stroke="#191970" d="M220.0222,-219.46C238.9908,-209.4388 263.6727,-196.3993 280.2478,-187.6427"/>
<polygon fill="#191970" stroke="#191970" points="218.1708,-216.4796 210.9638,-224.2455 221.4407,-222.669 218.1708,-216.4796"/>
</g>
<!-- Node53&#45;&gt;Node54 -->
<g id="edge23" class="edge">
<title>Node53&#45;&gt;Node54</title>
<path fill="none" stroke="#191970" d="M342.3845,-165.5882C378.7623,-155.2996 429.7121,-140.8895 462.9067,-131.5011"/>
<polygon fill="#191970" stroke="#191970" points="341.2074,-162.2838 332.5374,-168.3733 343.1125,-169.0195 341.2074,-162.2838"/>
</g>
<!-- Node53&#45;&gt;Node59 -->
<g id="edge24" class="edge">
<title>Node53&#45;&gt;Node59</title>
<path fill="none" stroke="#191970" d="M266.0009,-164.5189C241.4146,-154.3201 208.2634,-140.5685 186.4045,-131.5011"/>
<polygon fill="#191970" stroke="#191970" points="264.7148,-167.7745 275.2927,-168.3733 267.3969,-161.3087 264.7148,-167.7745"/>
</g>
<!-- Node53&#45;&gt;Node60 -->
<g id="edge25" class="edge">
<title>Node53&#45;&gt;Node60</title>
<path fill="none" stroke="#191970" d="M307.6396,-159.0437C312.0805,-149.8331 317.2265,-139.1598 320.8509,-131.6427"/>
<polygon fill="#191970" stroke="#191970" points="304.3934,-157.7178 303.203,-168.2455 310.6988,-160.7579 304.3934,-157.7178"/>
</g>
<!-- Node54&#45;&gt;Node55 -->
<g id="edge26" class="edge">
<title>Node54&#45;&gt;Node55</title>
<path fill="none" stroke="#191970" d="M468.4658,-107.5971C448.9254,-97.558 423.3908,-84.4393 406.2688,-75.6427"/>
<polygon fill="#191970" stroke="#191970" points="467.0194,-110.7889 477.5136,-112.2455 470.2183,-104.5625 467.0194,-110.7889"/>
</g>
<!-- Node54&#45;&gt;Node56 -->
<g id="edge27" class="edge">
<title>Node54&#45;&gt;Node56</title>
<path fill="none" stroke="#191970" d="M498.2717,-102.1575C499.0754,-93.155 499.9893,-82.9199 500.639,-75.6427"/>
<polygon fill="#191970" stroke="#191970" points="494.7742,-101.9739 497.3709,-112.2455 501.7465,-102.5965 494.7742,-101.9739"/>
</g>
<!-- Node54&#45;&gt;Node57 -->
<g id="edge28" class="edge">
<title>Node54&#45;&gt;Node57</title>
<path fill="none" stroke="#191970" d="M525.5537,-107.9741C546.5565,-97.8348 574.3691,-84.408 592.8191,-75.5011"/>
<polygon fill="#191970" stroke="#191970" points="523.925,-104.8738 516.4411,-112.3733 526.9683,-111.1776 523.925,-104.8738"/>
</g>
<!-- Node54&#45;&gt;Node58 -->
<g id="edge29" class="edge">
<title>Node54&#45;&gt;Node58</title>
<path fill="none" stroke="#191970" d="M448.8137,-109.9166C408.164,-99.6162 350.5333,-85.013 313.0845,-75.5237"/>
<polygon fill="#191970" stroke="#191970" points="448.2065,-113.3733 458.7599,-112.4369 449.9259,-106.5877 448.2065,-113.3733"/>
</g>
<!-- Node55&#45;&gt;Node50 -->
<g id="edge30" class="edge">
<title>Node55&#45;&gt;Node50</title>
<path fill="none" stroke="#191970" d="M345.8363,-53.4561C311.6933,-43.1765 264.1069,-28.8494 233.0573,-19.5011"/>
<polygon fill="#191970" stroke="#191970" points="344.941,-56.8417 355.5255,-56.3733 346.9591,-50.1389 344.941,-56.8417"/>
</g>
<!-- Node58&#45;&gt;Node50 -->
<g id="edge31" class="edge">
<title>Node58&#45;&gt;Node50</title>
<path fill="none" stroke="#191970" d="M254.6343,-50.2097C241.6375,-40.3743 225.3378,-28.0394 214.2421,-19.6427"/>
<polygon fill="#191970" stroke="#191970" points="252.524,-53.002 262.6102,-56.2455 256.7482,-47.4201 252.524,-53.002"/>
</g>
<!-- Node59&#45;&gt;Node50 -->
<g id="edge32" class="edge">
<title>Node59&#45;&gt;Node50</title>
<path fill="none" stroke="#191970" d="M169.9718,-102.9253C178.1815,-78.7284 192.0212,-37.9376 198.2683,-19.5249"/>
<polygon fill="#191970" stroke="#191970" points="166.6385,-101.8566 166.7399,-112.4509 173.2673,-104.1057 166.6385,-101.8566"/>
</g>
<!-- Node60&#45;&gt;Node50 -->
<g id="edge33" class="edge">
<title>Node60&#45;&gt;Node50</title>
<path fill="none" stroke="#191970" d="M273.2577,-109.2372C254.3235,-102.2453 234.2379,-91.6922 220.5,-76 206.3625,-59.8514 202.7126,-33.7824 201.7914,-19.7272"/>
<polygon fill="#191970" stroke="#191970" points="272.1252,-112.5488 282.7198,-112.4837 274.397,-105.9277 272.1252,-112.5488"/>
</g>
<!-- Node62&#45;&gt;Node47 -->
<g id="edge34" class="edge">
<title>Node62&#45;&gt;Node47</title>
<path fill="none" stroke="#191970" d="M679.7043,-246.6623C606.245,-270.0357 451.4046,-319.3031 391.6944,-338.3018"/>
<polygon fill="#191970" stroke="#191970" points="681.0432,-249.9092 689.5112,-243.5419 678.9207,-243.2387 681.0432,-249.9092"/>
</g>
<!-- Node62&#45;&gt;Node61 -->
<g id="edge35" class="edge">
<title>Node62&#45;&gt;Node61</title>
<path fill="none" stroke="#191970" d="M712.9685,-214.7493C709.8664,-205.6064 706.2949,-195.0798 703.7716,-187.6427"/>
<polygon fill="#191970" stroke="#191970" points="709.663,-215.9003 716.1905,-224.2455 716.2918,-213.6512 709.663,-215.9003"/>
</g>
<!-- Node63&#45;&gt;Node47 -->
<g id="edge36" class="edge">
<title>Node63&#45;&gt;Node47</title>
<path fill="none" stroke="#191970" d="M770.5696,-246.0793C718.5329,-259.4341 632.0826,-281.5059 557.5,-300 497.876,-314.7848 427.5844,-331.6581 391.5154,-340.2757"/>
<polygon fill="#191970" stroke="#191970" points="771.6891,-249.4055 780.5043,-243.5282 769.948,-242.6254 771.6891,-249.4055"/>
</g>
</g>
</svg>
