<?xml version="1.0" encoding="UTF-8" standalone="no"?>
<!DOCTYPE svg PUBLIC "-//W3C//DTD SVG 1.1//EN"
 "http://www.w3.org/Graphics/SVG/1.1/DTD/svg11.dtd">
<!-- Generated by graphviz version 2.40.1 (20161225.0304)
 -->
<!-- Title: stringtree.hpp Pages: 1 -->
<svg width="309pt" height="84pt"
 viewBox="0.00 0.00 309.00 84.00" xmlns="http://www.w3.org/2000/svg" xmlns:xlink="http://www.w3.org/1999/xlink">
<g id="graph0" class="graph" transform="scale(1 1) rotate(0) translate(4 80)">
<title>stringtree.hpp</title>
<polygon fill="#ffffff" stroke="transparent" points="-4,4 -4,-80 305,-80 305,4 -4,4"/>
<!-- Node0 -->
<g id="node1" class="node">
<title>Node0</title>
<polygon fill="#bfbfbf" stroke="#000000" points="133.5,-56.5 133.5,-75.5 209.5,-75.5 209.5,-56.5 133.5,-56.5"/>
<text text-anchor="middle" x="171.5" y="-63.5" font-family="Helvetica,sans-Serif" font-size="10.00" fill="#000000">stringtree.hpp</text>
</g>
<!-- Node1 -->
<g id="node2" class="node">
<title>Node1</title>
<g id="a_node2"><a xlink:href="substring_8hpp.html" target="_top" xlink:title="alib/strings/substring.hpp">
<polygon fill="#ffffff" stroke="#000000" points="0,-.5 0,-19.5 125,-19.5 125,-.5 0,-.5"/>
<text text-anchor="middle" x="62.5" y="-7.5" font-family="Helvetica,sans-Serif" font-size="10.00" fill="#000000">alib/strings/substring.hpp</text>
</a>
</g>
</g>
<!-- Node0&#45;&gt;Node1 -->
<g id="edge1" class="edge">
<title>Node0&#45;&gt;Node1</title>
<path fill="none" stroke="#191970" d="M152.5136,-56.2455C135.3208,-47.4125 109.7762,-34.2887 90.2868,-24.2758"/>
<polygon fill="#191970" stroke="#191970" points="91.763,-21.0993 81.2688,-19.6427 88.5641,-27.3257 91.763,-21.0993"/>
</g>
<!-- Node2 -->
<g id="node3" class="node">
<title>Node2</title>
<polygon fill="#ffffff" stroke="#bfbfbf" points="143.5,-.5 143.5,-19.5 199.5,-19.5 199.5,-.5 143.5,-.5"/>
<text text-anchor="middle" x="171.5" y="-7.5" font-family="Helvetica,sans-Serif" font-size="10.00" fill="#000000">algorithm</text>
</g>
<!-- Node0&#45;&gt;Node2 -->
<g id="edge2" class="edge">
<title>Node0&#45;&gt;Node2</title>
<path fill="none" stroke="#191970" d="M171.5,-56.2455C171.5,-48.9382 171.5,-38.6944 171.5,-29.7046"/>
<polygon fill="#191970" stroke="#191970" points="175.0001,-29.6426 171.5,-19.6427 168.0001,-29.6427 175.0001,-29.6426"/>
</g>
<!-- Node3 -->
<g id="node4" class="node">
<title>Node3</title>
<polygon fill="#ffffff" stroke="#bfbfbf" points="218,-.5 218,-19.5 301,-19.5 301,-.5 218,-.5"/>
<text text-anchor="middle" x="259.5" y="-7.5" font-family="Helvetica,sans-Serif" font-size="10.00" fill="#000000">unordered_map</text>
</g>
<!-- Node0&#45;&gt;Node3 -->
<g id="edge3" class="edge">
<title>Node0&#45;&gt;Node3</title>
<path fill="none" stroke="#191970" d="M186.8284,-56.2455C200.3303,-47.6534 220.2122,-35.0014 235.7686,-25.1018"/>
<polygon fill="#191970" stroke="#191970" points="237.7897,-27.9643 244.3472,-19.6427 234.0315,-22.0587 237.7897,-27.9643"/>
</g>
</g>
</svg>
