<?xml version="1.0" encoding="UTF-8" standalone="no"?>
<!DOCTYPE svg PUBLIC "-//W3C//DTD SVG 1.1//EN"
 "http://www.w3.org/Graphics/SVG/1.1/DTD/svg11.dtd">
<!-- Generated by graphviz version 2.40.1 (20161225.0304)
 -->
<!-- Title: stringtree.hpp Pages: 1 -->
<svg width="311pt" height="140pt"
 viewBox="0.00 0.00 310.50 140.00" xmlns="http://www.w3.org/2000/svg" xmlns:xlink="http://www.w3.org/1999/xlink">
<g id="graph0" class="graph" transform="scale(1 1) rotate(0) translate(4 136)">
<title>stringtree.hpp</title>
<polygon fill="#ffffff" stroke="transparent" points="-4,4 -4,-136 306.5,-136 306.5,4 -4,4"/>
<!-- Node0 -->
<g id="node1" class="node">
<title>Node0</title>
<polygon fill="#bfbfbf" stroke="#000000" points="135,-112.5 135,-131.5 211,-131.5 211,-112.5 135,-112.5"/>
<text text-anchor="middle" x="173" y="-119.5" font-family="Helvetica,sans-Serif" font-size="10.00" fill="#000000">stringtree.hpp</text>
</g>
<!-- Node1 -->
<g id="node2" class="node">
<title>Node1</title>
<g id="a_node2"><a xlink:href="substring_8hpp.html" target="_top" xlink:title="alib/strings/substring.hpp">
<polygon fill="#ffffff" stroke="#000000" points="1.5,-56.5 1.5,-75.5 126.5,-75.5 126.5,-56.5 1.5,-56.5"/>
<text text-anchor="middle" x="64" y="-63.5" font-family="Helvetica,sans-Serif" font-size="10.00" fill="#000000">alib/strings/substring.hpp</text>
</a>
</g>
</g>
<!-- Node0&#45;&gt;Node1 -->
<g id="edge1" class="edge">
<title>Node0&#45;&gt;Node1</title>
<path fill="none" stroke="#191970" d="M154.0136,-112.2455C136.8208,-103.4125 111.2762,-90.2887 91.7868,-80.2758"/>
<polygon fill="#191970" stroke="#191970" points="93.263,-77.0993 82.7688,-75.6427 90.0641,-83.3257 93.263,-77.0993"/>
</g>
<!-- Node3 -->
<g id="node3" class="node">
<title>Node3</title>
<polygon fill="#ffffff" stroke="#bfbfbf" points="145,-56.5 145,-75.5 201,-75.5 201,-56.5 145,-56.5"/>
<text text-anchor="middle" x="173" y="-63.5" font-family="Helvetica,sans-Serif" font-size="10.00" fill="#000000">algorithm</text>
</g>
<!-- Node0&#45;&gt;Node3 -->
<g id="edge2" class="edge">
<title>Node0&#45;&gt;Node3</title>
<path fill="none" stroke="#191970" d="M173,-112.2455C173,-104.9382 173,-94.6944 173,-85.7046"/>
<polygon fill="#191970" stroke="#191970" points="176.5001,-85.6426 173,-75.6427 169.5001,-85.6427 176.5001,-85.6426"/>
</g>
<!-- Node4 -->
<g id="node4" class="node">
<title>Node4</title>
<polygon fill="#ffffff" stroke="#bfbfbf" points="219.5,-56.5 219.5,-75.5 302.5,-75.5 302.5,-56.5 219.5,-56.5"/>
<text text-anchor="middle" x="261" y="-63.5" font-family="Helvetica,sans-Serif" font-size="10.00" fill="#000000">unordered_map</text>
</g>
<!-- Node0&#45;&gt;Node4 -->
<g id="edge3" class="edge">
<title>Node0&#45;&gt;Node4</title>
<path fill="none" stroke="#191970" d="M188.3284,-112.2455C201.8303,-103.6534 221.7122,-91.0014 237.2686,-81.1018"/>
<polygon fill="#191970" stroke="#191970" points="239.2897,-83.9643 245.8472,-75.6427 235.5315,-78.0587 239.2897,-83.9643"/>
</g>
<!-- Node2 -->
<g id="node5" class="node">
<title>Node2</title>
<g id="a_node5"><a xlink:href="enumbitwise_8hpp.html" target="_top" xlink:title="alib/lang/enumbitwise.hpp">
<polygon fill="#ffffff" stroke="#000000" points="0,-.5 0,-19.5 128,-19.5 128,-.5 0,-.5"/>
<text text-anchor="middle" x="64" y="-7.5" font-family="Helvetica,sans-Serif" font-size="10.00" fill="#000000">alib/lang/enumbitwise.hpp</text>
</a>
</g>
</g>
<!-- Node1&#45;&gt;Node2 -->
<g id="edge4" class="edge">
<title>Node1&#45;&gt;Node2</title>
<path fill="none" stroke="#191970" d="M64,-56.2455C64,-48.9382 64,-38.6944 64,-29.7046"/>
<polygon fill="#191970" stroke="#191970" points="67.5001,-29.6426 64,-19.6427 60.5001,-29.6427 67.5001,-29.6426"/>
</g>
</g>
</svg>
