<?xml version="1.0" encoding="UTF-8" standalone="no"?>
<!DOCTYPE svg PUBLIC "-//W3C//DTD SVG 1.1//EN"
 "http://www.w3.org/Graphics/SVG/1.1/DTD/svg11.dtd">
<!-- Generated by graphviz version 2.40.1 (20161225.0304)
 -->
<!-- Title: StringTree&lt;T, TKeyAllocator, TSeparator&gt;::Walker::RecursionData Pages: 1 -->
<svg width="1191pt" height="168pt"
 viewBox="0.00 0.00 1191.00 168.00" xmlns="http://www.w3.org/2000/svg" xmlns:xlink="http://www.w3.org/1999/xlink">
<g id="graph0" class="graph" transform="scale(1 1) rotate(0) translate(4 164)">
<title>StringTree&lt;T, TKeyAllocator, TSeparator&gt;::Walker::RecursionData</title>
<polygon fill="#ffffff" stroke="transparent" points="-4,4 -4,-164 1187,-164 1187,4 -4,4"/>
<!-- Node1 -->
<g id="node1" class="node">
<title>Node1</title>
<polygon fill="#bfbfbf" stroke="#000000" points="878,-102.5 878,-121.5 1183,-121.5 1183,-102.5 878,-102.5"/>
<text text-anchor="middle" x="1030.5" y="-109.5" font-family="Helvetica,sans-Serif" font-size="10.00" fill="#000000">StringTree&lt;T, TKeyAllocator, TSeparator&gt;::Walker::RecursionData</text>
</g>
<!-- Node4 -->
<g id="node2" class="node">
<title>Node4</title>
<polygon fill="#ffffff" stroke="#bfbfbf" points="103,-64.5 103,-83.5 495,-83.5 495,-64.5 103,-64.5"/>
<text text-anchor="middle" x="299" y="-71.5" font-family="Helvetica,sans-Serif" font-size="10.00" fill="#000000">unordered_map&lt;aworx::String, Node *, lib::strings::std_Hash, lib::strings::std_Equals&gt;</text>
</g>
<!-- Node3 -->
<g id="node5" class="node">
<title>Node3</title>
<g id="a_node5"><a xlink:href="structaworx_1_1lib_1_1containers_1_1StringTree_1_1Node.html" target="_top" xlink:title="Node">
<polygon fill="#ffffff" stroke="#000000" points="659,-35.5 659,-54.5 698,-54.5 698,-35.5 659,-35.5"/>
<text text-anchor="middle" x="678.5" y="-42.5" font-family="Helvetica,sans-Serif" font-size="10.00" fill="#000000">Node</text>
</a>
</g>
</g>
<!-- Node4&#45;&gt;Node3 -->
<g id="edge6" class="edge">
<title>Node4&#45;&gt;Node3</title>
<path fill="none" stroke="#9a32cd" stroke-dasharray="5,2" d="M458.9074,-63.7906C493.2601,-61.4034 529.3486,-58.7492 563,-56 596.7276,-53.2446 635.9294,-49.3684 658.8953,-47.029"/>
<polygon fill="#9a32cd" stroke="#9a32cd" points="458.524,-60.3086 448.7891,-64.4895 459.0065,-67.292 458.524,-60.3086"/>
<text text-anchor="middle" x="538" y="-62" font-family="Helvetica,sans-Serif" font-size="10.00" fill="#000000"> children</text>
</g>
<!-- Node6 -->
<g id="node3" class="node">
<title>Node6</title>
<polygon fill="#ffffff" stroke="#bfbfbf" points="581,-140.5 581,-159.5 776,-159.5 776,-140.5 581,-140.5"/>
<text text-anchor="middle" x="678.5" y="-147.5" font-family="Helvetica,sans-Serif" font-size="10.00" fill="#000000">vector&lt;pair&lt;String, StringTree::Node *&gt;&gt;</text>
</g>
<!-- Node6&#45;&gt;Node1 -->
<g id="edge8" class="edge">
<title>Node6&#45;&gt;Node1</title>
<path fill="none" stroke="#9a32cd" stroke-dasharray="5,2" d="M777.0956,-139.3562C829.0066,-133.7521 892.1366,-126.937 942.3989,-121.5109"/>
<polygon fill="#9a32cd" stroke="#9a32cd" points="776.4367,-135.9069 766.8701,-140.46 777.188,-142.8664 776.4367,-135.9069"/>
<text text-anchor="middle" x="827" y="-150" font-family="Helvetica,sans-Serif" font-size="10.00" fill="#000000"> sortedChildren</text>
<text text-anchor="middle" x="827" y="-139" font-family="Helvetica,sans-Serif" font-size="10.00" fill="#000000">actChild</text>
</g>
<!-- Node2 -->
<g id="node4" class="node">
<title>Node2</title>
<g id="a_node4"><a xlink:href="classaworx_1_1lib_1_1strings_1_1String.html" target="_top" xlink:title="String">
<polygon fill="#ffffff" stroke="#000000" points="0,-83.5 0,-102.5 42,-102.5 42,-83.5 0,-83.5"/>
<text text-anchor="middle" x="21" y="-90.5" font-family="Helvetica,sans-Serif" font-size="10.00" fill="#000000">String</text>
</a>
</g>
</g>
<!-- Node2&#45;&gt;Node1 -->
<g id="edge1" class="edge">
<title>Node2&#45;&gt;Node1</title>
<path fill="none" stroke="#9a32cd" stroke-dasharray="5,2" d="M52.1277,-97.3102C54.7868,-97.5813 57.4381,-97.8179 60,-98 348.4724,-118.5065 686.3461,-117.8097 877.7291,-115.1229"/>
<polygon fill="#9a32cd" stroke="#9a32cd" points="52.3432,-93.8118 42.0064,-96.1356 51.5362,-100.7651 52.3432,-93.8118"/>
<text text-anchor="middle" x="538" y="-118" font-family="Helvetica,sans-Serif" font-size="10.00" fill="#000000"> nodeName</text>
</g>
<!-- Node2&#45;&gt;Node4 -->
<g id="edge2" class="edge">
<title>Node2&#45;&gt;Node4</title>
<path fill="none" stroke="#9a32cd" stroke-dasharray="5,2" d="M52.1238,-87.932C54.7837,-87.5839 57.4363,-87.2663 60,-87 73.9496,-85.5511 88.375,-84.2583 102.9084,-83.1056"/>
<polygon fill="#9a32cd" stroke="#9a32cd" points="51.4038,-84.4993 42.0009,-89.3816 52.3961,-91.4286 51.4038,-84.4993"/>
<text text-anchor="middle" x="72.5" y="-90" font-family="Helvetica,sans-Serif" font-size="10.00" fill="#000000"> keys</text>
</g>
<!-- Node3&#45;&gt;Node1 -->
<g id="edge3" class="edge">
<title>Node3&#45;&gt;Node1</title>
<path fill="none" stroke="#9a32cd" stroke-dasharray="5,2" d="M708.1768,-50.6487C768.4796,-62.1268 905.912,-88.2858 980.3547,-102.4553"/>
<polygon fill="#9a32cd" stroke="#9a32cd" points="708.6574,-47.1774 698.1793,-48.7458 707.3485,-54.054 708.6574,-47.1774"/>
<text text-anchor="middle" x="827" y="-81" font-family="Helvetica,sans-Serif" font-size="10.00" fill="#000000"> node</text>
</g>
<!-- Node3&#45;&gt;Node4 -->
<g id="edge5" class="edge">
<title>Node3&#45;&gt;Node4</title>
<path fill="none" stroke="#9a32cd" stroke-dasharray="5,2" d="M648.4787,-43.788C615.2892,-42.7303 560.2622,-41.8122 513,-45 458.7593,-48.6585 397.3085,-57.4762 354.2166,-64.4351"/>
<polygon fill="#9a32cd" stroke="#9a32cd" points="648.7395,-47.299 658.8544,-44.1463 648.9812,-40.3031 648.7395,-47.299"/>
<text text-anchor="middle" x="538" y="-48" font-family="Helvetica,sans-Serif" font-size="10.00" fill="#000000"> elements</text>
</g>
<!-- Node3&#45;&gt;Node3 -->
<g id="edge4" class="edge">
<title>Node3&#45;&gt;Node3</title>
<path fill="none" stroke="#9a32cd" stroke-dasharray="5,2" d="M652.4102,-61.1131C650.9362,-67.5757 659.6328,-73 678.5,-73 704.75,-73 711.3125,-62.5 698.1875,-53.3125"/>
<polygon fill="#9a32cd" stroke="#9a32cd" points="655.1737,-63.2629 658.8125,-53.3125 649.7628,-58.8219 655.1737,-63.2629"/>
<text text-anchor="middle" x="678.5" y="-76" font-family="Helvetica,sans-Serif" font-size="10.00" fill="#000000"> parent</text>
</g>
<!-- Node5 -->
<g id="node6" class="node">
<title>Node5</title>
<polygon fill="#ffffff" stroke="#bfbfbf" points="284.5,-.5 284.5,-19.5 313.5,-19.5 313.5,-.5 284.5,-.5"/>
<text text-anchor="middle" x="299" y="-7.5" font-family="Helvetica,sans-Serif" font-size="10.00" fill="#000000">T</text>
</g>
<!-- Node5&#45;&gt;Node3 -->
<g id="edge7" class="edge">
<title>Node5&#45;&gt;Node3</title>
<path fill="none" stroke="#9a32cd" stroke-dasharray="5,2" d="M323.7252,-11.2353C370.5194,-13.6938 475.2105,-19.7704 563,-29 596.8228,-32.5559 635.9949,-38.3353 658.929,-41.8885"/>
<polygon fill="#9a32cd" stroke="#9a32cd" points="323.7928,-7.7342 313.6257,-10.714 323.432,-14.7249 323.7928,-7.7342"/>
<text text-anchor="middle" x="538" y="-32" font-family="Helvetica,sans-Serif" font-size="10.00" fill="#000000"> value</text>
</g>
</g>
</svg>
