<?xml version="1.0" encoding="UTF-8" standalone="no"?>
<!DOCTYPE svg PUBLIC "-//W3C//DTD SVG 1.1//EN"
 "http://www.w3.org/Graphics/SVG/1.1/DTD/svg11.dtd">
<!-- Generated by graphviz version 2.40.1 (20161225.0304)
 -->
<!-- Title: Format::Field Pages: 1 -->
<svg width="122pt" height="162pt"
 viewBox="0.00 0.00 122.00 162.00" xmlns="http://www.w3.org/2000/svg" xmlns:xlink="http://www.w3.org/1999/xlink">
<g id="graph0" class="graph" transform="scale(1 1) rotate(0) translate(4 158)">
<title>Format::Field</title>
<polygon fill="#ffffff" stroke="transparent" points="-4,4 -4,-158 118,-158 118,4 -4,4"/>
<!-- Node1 -->
<g id="node1" class="node">
<title>Node1</title>
<polygon fill="#bfbfbf" stroke="#000000" points="23,-.5 23,-19.5 97,-19.5 97,-.5 23,-.5"/>
<text text-anchor="middle" x="60" y="-7.5" font-family="Helvetica,sans-Serif" font-size="10.00" fill="#000000">Format::Field</text>
</g>
<!-- Node2 -->
<g id="node2" class="node">
<title>Node2</title>
<g id="a_node2"><a xlink:href="classaworx_1_1lib_1_1boxing_1_1Box.html" target="_top" xlink:title="Box">
<polygon fill="#ffffff" stroke="#000000" points="43,-67.5 43,-86.5 77,-86.5 77,-67.5 43,-67.5"/>
<text text-anchor="middle" x="60" y="-74.5" font-family="Helvetica,sans-Serif" font-size="10.00" fill="#000000">Box</text>
</a>
</g>
</g>
<!-- Node2&#45;&gt;Node1 -->
<g id="edge1" class="edge">
<title>Node2&#45;&gt;Node1</title>
<path fill="none" stroke="#9a32cd" stroke-dasharray="5,2" d="M60,-57.1079C60,-44.714 60,-29.3263 60,-19.5817"/>
<polygon fill="#9a32cd" stroke="#9a32cd" points="56.5001,-57.4005 60,-67.4005 63.5001,-57.4006 56.5001,-57.4005"/>
<text text-anchor="middle" x="85.5" y="-41" font-family="Helvetica,sans-Serif" font-size="10.00" fill="#000000"> theContent</text>
</g>
<!-- Node3 -->
<g id="node3" class="node">
<title>Node3</title>
<g id="a_node3"><a xlink:href="structaworx_1_1lib_1_1boxing_1_1BoxData.html" target="_top" xlink:title="BoxData">
<polygon fill="#ffffff" stroke="#000000" points="0,-134.5 0,-153.5 54,-153.5 54,-134.5 0,-134.5"/>
<text text-anchor="middle" x="27" y="-141.5" font-family="Helvetica,sans-Serif" font-size="10.00" fill="#000000">BoxData</text>
</a>
</g>
</g>
<!-- Node3&#45;&gt;Node2 -->
<g id="edge2" class="edge">
<title>Node3&#45;&gt;Node2</title>
<path fill="none" stroke="#9a32cd" stroke-dasharray="5,2" d="M36.2413,-125.2374C42.4354,-112.6614 50.3341,-96.6246 55.2807,-86.5817"/>
<polygon fill="#9a32cd" stroke="#9a32cd" points="33.0068,-123.8831 31.7281,-134.4005 39.2865,-126.9761 33.0068,-123.8831"/>
<text text-anchor="middle" x="57" y="-108" font-family="Helvetica,sans-Serif" font-size="10.00" fill="#000000"> data</text>
</g>
<!-- Node4 -->
<g id="node4" class="node">
<title>Node4</title>
<g id="a_node4"><a xlink:href="classaworx_1_1lib_1_1boxing_1_1Boxer.html" target="_top" xlink:title="Boxer">
<polygon fill="#ffffff" stroke="#000000" points="72,-134.5 72,-153.5 114,-153.5 114,-134.5 72,-134.5"/>
<text text-anchor="middle" x="93" y="-141.5" font-family="Helvetica,sans-Serif" font-size="10.00" fill="#000000">Boxer</text>
</a>
</g>
</g>
<!-- Node4&#45;&gt;Node2 -->
<g id="edge3" class="edge">
<title>Node4&#45;&gt;Node2</title>
<path fill="none" stroke="#9a32cd" stroke-dasharray="5,2" d="M83.7587,-125.2374C77.5646,-112.6614 69.6659,-96.6246 64.7193,-86.5817"/>
<polygon fill="#9a32cd" stroke="#9a32cd" points="80.7135,-126.9761 88.2719,-134.4005 86.9932,-123.8831 80.7135,-126.9761"/>
<text text-anchor="middle" x="92" y="-108" font-family="Helvetica,sans-Serif" font-size="10.00" fill="#000000"> boxer</text>
</g>
</g>
</svg>
