<?xml version="1.0" encoding="UTF-8" standalone="no"?>
<!DOCTYPE svg PUBLIC "-//W3C//DTD SVG 1.1//EN"
 "http://www.w3.org/Graphics/SVG/1.1/DTD/svg11.dtd">
<!-- Generated by graphviz version 2.40.1 (20161225.0304)
 -->
<!-- Title: StringTree&lt;T, TKeyAllocator, TSeparator&gt;::Node Pages: 1 -->
<svg width="285pt" height="95pt"
 viewBox="0.00 0.00 285.00 95.00" xmlns="http://www.w3.org/2000/svg" xmlns:xlink="http://www.w3.org/1999/xlink">
<g id="graph0" class="graph" transform="scale(1 1) rotate(0) translate(4 91)">
<title>StringTree&lt;T, TKeyAllocator, TSeparator&gt;::Node</title>
<polygon fill="#ffffff" stroke="transparent" points="-4,4 -4,-91 281,-91 281,4 -4,4"/>
<!-- Node1 -->
<g id="node1" class="node">
<title>Node1</title>
<polygon fill="#bfbfbf" stroke="#000000" points="0,-.5 0,-19.5 228,-19.5 228,-.5 0,-.5"/>
<text text-anchor="middle" x="114" y="-7.5" font-family="Helvetica,sans-Serif" font-size="10.00" fill="#000000">StringTree&lt;T, TKeyAllocator, TSeparator&gt;::Node</text>
</g>
<!-- Node1&#45;&gt;Node1 -->
<g id="edge1" class="edge">
<title>Node1&#45;&gt;Node1</title>
<path fill="none" stroke="#9a32cd" stroke-dasharray="5,2" d="M238.2018,-13.5451C243.1432,-12.6231 246,-11.4414 246,-10 246,-7.75 239.0391,-6.1328 228.0538,-5.1484"/>
<polygon fill="#9a32cd" stroke="#9a32cd" points="237.525,-10.1032 228.0538,-14.8516 238.4189,-17.0459 237.525,-10.1032"/>
<text text-anchor="middle" x="261.5" y="-7.5" font-family="Helvetica,sans-Serif" font-size="10.00" fill="#000000"> parent</text>
</g>
<!-- Node2 -->
<g id="node2" class="node">
<title>Node2</title>
<polygon fill="#ffffff" stroke="#bfbfbf" points="99.5,-67.5 99.5,-86.5 128.5,-86.5 128.5,-67.5 99.5,-67.5"/>
<text text-anchor="middle" x="114" y="-74.5" font-family="Helvetica,sans-Serif" font-size="10.00" fill="#000000">T</text>
</g>
<!-- Node2&#45;&gt;Node1 -->
<g id="edge2" class="edge">
<title>Node2&#45;&gt;Node1</title>
<path fill="none" stroke="#9a32cd" stroke-dasharray="5,2" d="M114,-57.1079C114,-44.714 114,-29.3263 114,-19.5817"/>
<polygon fill="#9a32cd" stroke="#9a32cd" points="110.5001,-57.4005 114,-67.4005 117.5001,-57.4006 110.5001,-57.4005"/>
<text text-anchor="middle" x="127.5" y="-41" font-family="Helvetica,sans-Serif" font-size="10.00" fill="#000000"> value</text>
</g>
</g>
</svg>
