<?xml version="1.0" encoding="UTF-8" standalone="no"?>
<!DOCTYPE svg PUBLIC "-//W3C//DTD SVG 1.1//EN"
 "http://www.w3.org/Graphics/SVG/1.1/DTD/svg11.dtd">
<!-- Generated by graphviz version 2.40.1 (20161225.0304)
 -->
<!-- Title: StringTree&lt;T, TKeyAllocator, TSeparator&gt;::Walker::RecursionData Pages: 1 -->
<svg width="702pt" height="133pt"
 viewBox="0.00 0.00 702.00 133.00" xmlns="http://www.w3.org/2000/svg" xmlns:xlink="http://www.w3.org/1999/xlink">
<g id="graph0" class="graph" transform="scale(1 1) rotate(0) translate(4 129)">
<title>StringTree&lt;T, TKeyAllocator, TSeparator&gt;::Walker::RecursionData</title>
<polygon fill="#ffffff" stroke="transparent" points="-4,4 -4,-129 698,-129 698,4 -4,4"/>
<!-- Node1 -->
<g id="node1" class="node">
<title>Node1</title>
<polygon fill="#bfbfbf" stroke="#000000" points="389,-67.5 389,-86.5 694,-86.5 694,-67.5 389,-67.5"/>
<text text-anchor="middle" x="541.5" y="-74.5" font-family="Helvetica,sans-Serif" font-size="10.00" fill="#000000">StringTree&lt;T, TKeyAllocator, TSeparator&gt;::Walker::RecursionData</text>
</g>
<!-- Node5 -->
<g id="node2" class="node">
<title>Node5</title>
<polygon fill="#ffffff" stroke="#bfbfbf" points="92,-105.5 92,-124.5 287,-124.5 287,-105.5 92,-105.5"/>
<text text-anchor="middle" x="189.5" y="-112.5" font-family="Helvetica,sans-Serif" font-size="10.00" fill="#000000">vector&lt;pair&lt;String, StringTree::Node *&gt;&gt;</text>
</g>
<!-- Node5&#45;&gt;Node1 -->
<g id="edge5" class="edge">
<title>Node5&#45;&gt;Node1</title>
<path fill="none" stroke="#9a32cd" stroke-dasharray="5,2" d="M288.0956,-104.3562C340.0066,-98.7521 403.1366,-91.937 453.3989,-86.5109"/>
<polygon fill="#9a32cd" stroke="#9a32cd" points="287.4367,-100.9069 277.8701,-105.46 288.188,-107.8664 287.4367,-100.9069"/>
<text text-anchor="middle" x="338" y="-115" font-family="Helvetica,sans-Serif" font-size="10.00" fill="#000000"> sortedChildren</text>
<text text-anchor="middle" x="338" y="-104" font-family="Helvetica,sans-Serif" font-size="10.00" fill="#000000">actChild</text>
</g>
<!-- Node2 -->
<g id="node3" class="node">
<title>Node2</title>
<g id="a_node3"><a xlink:href="classaworx_1_1lib_1_1strings_1_1String.html" target="_top" xlink:title="String">
<polygon fill="#ffffff" stroke="#000000" points="168.5,-67.5 168.5,-86.5 210.5,-86.5 210.5,-67.5 168.5,-67.5"/>
<text text-anchor="middle" x="189.5" y="-74.5" font-family="Helvetica,sans-Serif" font-size="10.00" fill="#000000">String</text>
</a>
</g>
</g>
<!-- Node2&#45;&gt;Node1 -->
<g id="edge1" class="edge">
<title>Node2&#45;&gt;Node1</title>
<path fill="none" stroke="#9a32cd" stroke-dasharray="5,2" d="M221.1404,-77C259.2365,-77 325.9433,-77 388.6579,-77"/>
<polygon fill="#9a32cd" stroke="#9a32cd" points="220.7265,-73.5001 210.7265,-77 220.7264,-80.5001 220.7265,-73.5001"/>
<text text-anchor="middle" x="338" y="-80" font-family="Helvetica,sans-Serif" font-size="10.00" fill="#000000"> nodeName</text>
</g>
<!-- Node3 -->
<g id="node4" class="node">
<title>Node3</title>
<g id="a_node4"><a xlink:href="structaworx_1_1lib_1_1util_1_1StringTree_1_1Node.html" target="_top" xlink:title="Node">
<polygon fill="#ffffff" stroke="#000000" points="170,-.5 170,-19.5 209,-19.5 209,-.5 170,-.5"/>
<text text-anchor="middle" x="189.5" y="-7.5" font-family="Helvetica,sans-Serif" font-size="10.00" fill="#000000">Node</text>
</a>
</g>
</g>
<!-- Node3&#45;&gt;Node1 -->
<g id="edge2" class="edge">
<title>Node3&#45;&gt;Node1</title>
<path fill="none" stroke="#9a32cd" stroke-dasharray="5,2" d="M219.1768,-15.6487C279.4796,-27.1268 416.912,-53.2858 491.3547,-67.4553"/>
<polygon fill="#9a32cd" stroke="#9a32cd" points="219.6574,-12.1774 209.1793,-13.7458 218.3485,-19.054 219.6574,-12.1774"/>
<text text-anchor="middle" x="338" y="-46" font-family="Helvetica,sans-Serif" font-size="10.00" fill="#000000"> node</text>
</g>
<!-- Node3&#45;&gt;Node3 -->
<g id="edge3" class="edge">
<title>Node3&#45;&gt;Node3</title>
<path fill="none" stroke="#9a32cd" stroke-dasharray="5,2" d="M165.6906,-29.0292C166.9893,-34.128 174.9258,-38 189.5,-38 212.25,-38 218.8262,-28.5653 209.2285,-19.7571"/>
<polygon fill="#9a32cd" stroke="#9a32cd" points="168.9465,-30.3197 169.7715,-19.7571 162.5396,-27.4998 168.9465,-30.3197"/>
<text text-anchor="middle" x="189.5" y="-41" font-family="Helvetica,sans-Serif" font-size="10.00" fill="#000000"> parent</text>
</g>
<!-- Node4 -->
<g id="node5" class="node">
<title>Node4</title>
<polygon fill="#ffffff" stroke="#bfbfbf" points="0,-.5 0,-19.5 29,-19.5 29,-.5 0,-.5"/>
<text text-anchor="middle" x="14.5" y="-7.5" font-family="Helvetica,sans-Serif" font-size="10.00" fill="#000000">T</text>
</g>
<!-- Node4&#45;&gt;Node3 -->
<g id="edge4" class="edge">
<title>Node4&#45;&gt;Node3</title>
<path fill="none" stroke="#9a32cd" stroke-dasharray="5,2" d="M39.4521,-10C74.5541,-10 137.7954,-10 169.8012,-10"/>
<polygon fill="#9a32cd" stroke="#9a32cd" points="39.1194,-6.5001 29.1194,-10 39.1194,-13.5001 39.1194,-6.5001"/>
<text text-anchor="middle" x="60.5" y="-13" font-family="Helvetica,sans-Serif" font-size="10.00" fill="#000000"> value</text>
</g>
</g>
</svg>
