<?xml version="1.0" encoding="UTF-8" standalone="no"?>
<!DOCTYPE svg PUBLIC "-//W3C//DTD SVG 1.1//EN"
 "http://www.w3.org/Graphics/SVG/1.1/DTD/svg11.dtd">
<!-- Generated by graphviz version 2.40.1 (20161225.0304)
 -->
<!-- Title: Exception::Entry Pages: 1 -->
<svg width="1272pt" height="479pt"
 viewBox="0.00 0.00 1272.00 479.00" xmlns="http://www.w3.org/2000/svg" xmlns:xlink="http://www.w3.org/1999/xlink">
<g id="graph0" class="graph" transform="scale(1 1) rotate(0) translate(4 475)">
<title>Exception::Entry</title>
<polygon fill="#ffffff" stroke="transparent" points="-4,4 -4,-475 1268,-475 1268,4 -4,4"/>
<!-- Node1 -->
<g id="node1" class="node">
<title>Node1</title>
<polygon fill="#bfbfbf" stroke="#000000" points="1173.5,-101.5 1173.5,-120.5 1262.5,-120.5 1262.5,-101.5 1173.5,-101.5"/>
<text text-anchor="middle" x="1218" y="-108.5" font-family="Helvetica,sans-Serif" font-size="10.00" fill="#000000">Exception::Entry</text>
</g>
<!-- Node26 -->
<g id="node2" class="node">
<title>Node26</title>
<polygon fill="#ffffff" stroke="#bfbfbf" points="169,-429.5 169,-448.5 336,-448.5 336,-429.5 169,-429.5"/>
<text text-anchor="middle" x="252.5" y="-436.5" font-family="Helvetica,sans-Serif" font-size="10.00" fill="#000000">map&lt;String, map&lt;String, String&gt;&gt;</text>
</g>
<!-- Node5 -->
<g id="node10" class="node">
<title>Node5</title>
<g id="a_node10"><a xlink:href="classaworx_1_1lib_1_1lang_1_1Resources.html" target="_top" xlink:title="Resources">
<polygon fill="#ffffff" stroke="#000000" points="755.5,-299.5 755.5,-318.5 818.5,-318.5 818.5,-299.5 755.5,-299.5"/>
<text text-anchor="middle" x="787" y="-306.5" font-family="Helvetica,sans-Serif" font-size="10.00" fill="#000000">Resources</text>
</a>
</g>
</g>
<!-- Node26&#45;&gt;Node5 -->
<g id="edge15" class="edge">
<title>Node26&#45;&gt;Node5</title>
<path fill="none" stroke="#9a32cd" stroke-dasharray="5,2" d="M346.2148,-448.4131C422.0313,-452.8075 530.5162,-451.7089 620,-422 687.4436,-399.6085 752.9354,-341.6742 777.1623,-318.6455"/>
<polygon fill="#9a32cd" stroke="#9a32cd" points="346.4032,-444.9181 336.205,-447.7901 345.9682,-451.9046 346.4032,-444.9181"/>
<text text-anchor="middle" x="482" y="-463" font-family="Helvetica,sans-Serif" font-size="10.00" fill="#000000"> defaults</text>
<text text-anchor="middle" x="482" y="-452" font-family="Helvetica,sans-Serif" font-size="10.00" fill="#000000">cachedVariables</text>
</g>
<!-- Node27 -->
<g id="node3" class="node">
<title>Node27</title>
<polygon fill="#ffffff" stroke="#bfbfbf" points="1172,-204.5 1172,-223.5 1264,-223.5 1264,-204.5 1172,-204.5"/>
<text text-anchor="middle" x="1218" y="-211.5" font-family="Helvetica,sans-Serif" font-size="10.00" fill="#000000">vector&lt;Library *&gt;</text>
</g>
<!-- Node4 -->
<g id="node7" class="node">
<title>Node4</title>
<g id="a_node7"><a xlink:href="classaworx_1_1lib_1_1lang_1_1Library.html" target="_top" xlink:title="Library">
<polygon fill="#ffffff" stroke="#000000" points="1026,-190.5 1026,-209.5 1072,-209.5 1072,-190.5 1026,-190.5"/>
<text text-anchor="middle" x="1049" y="-197.5" font-family="Helvetica,sans-Serif" font-size="10.00" fill="#000000">Library</text>
</a>
</g>
</g>
<!-- Node27&#45;&gt;Node4 -->
<g id="edge16" class="edge">
<title>Node27&#45;&gt;Node4</title>
<path fill="none" stroke="#9a32cd" stroke-dasharray="5,2" d="M1180.5247,-201.6125C1171.9059,-199.2824 1162.7112,-197.2017 1154,-196 1125.8224,-192.1129 1118.4108,-194.6174 1090,-196 1084.2853,-196.2781 1078.1384,-196.773 1072.3874,-197.3221"/>
<polygon fill="#9a32cd" stroke="#9a32cd" points="1179.7367,-205.0276 1190.3144,-204.4246 1181.6694,-198.2997 1179.7367,-205.0276"/>
<text text-anchor="middle" x="1122" y="-199" font-family="Helvetica,sans-Serif" font-size="10.00" fill="#000000"> dependencies</text>
</g>
<!-- Node28 -->
<g id="node4" class="node">
<title>Node28</title>
<polygon fill="#ffffff" stroke="#bfbfbf" points="699,-152.5 699,-171.5 875,-171.5 875,-152.5 699,-152.5"/>
<text text-anchor="middle" x="787" y="-159.5" font-family="Helvetica,sans-Serif" font-size="10.00" fill="#000000">vector&lt;pair&lt;const char *, uint64_t&gt;&gt;</text>
</g>
<!-- Node28&#45;&gt;Node4 -->
<g id="edge17" class="edge">
<title>Node28&#45;&gt;Node4</title>
<path fill="none" stroke="#9a32cd" stroke-dasharray="5,2" d="M885.3795,-157.6259C924.3301,-158.4975 969.0239,-162.8082 1008,-175 1018.5029,-178.2853 1029.0754,-184.8294 1036.8532,-190.3981"/>
<polygon fill="#9a32cd" stroke="#9a32cd" points="885.1346,-154.122 875.0832,-157.4715 885.0296,-161.1212 885.1346,-154.122"/>
<text text-anchor="middle" x="950.5" y="-178" font-family="Helvetica,sans-Serif" font-size="10.00" fill="#000000"> CompilationFlagMeanings</text>
</g>
<!-- Node30 -->
<g id="node5" class="node">
<title>Node30</title>
<g id="a_node5"><a xlink:title="STL class. ">
<polygon fill="#ffffff" stroke="#bfbfbf" points="750.5,-76.5 750.5,-95.5 823.5,-95.5 823.5,-76.5 750.5,-76.5"/>
<text text-anchor="middle" x="787" y="-83.5" font-family="Helvetica,sans-Serif" font-size="10.00" fill="#000000">vector&lt;Box&gt;</text>
</a>
</g>
</g>
<!-- Node29 -->
<g id="node14" class="node">
<title>Node29</title>
<g id="a_node14"><a xlink:href="classaworx_1_1lib_1_1boxing_1_1Boxes.html" target="_top" xlink:title="Boxes">
<polygon fill="#ffffff" stroke="#000000" points="1027,-76.5 1027,-95.5 1071,-95.5 1071,-76.5 1027,-76.5"/>
<text text-anchor="middle" x="1049" y="-83.5" font-family="Helvetica,sans-Serif" font-size="10.00" fill="#000000">Boxes</text>
</a>
</g>
</g>
<!-- Node30&#45;&gt;Node29 -->
<g id="edge19" class="edge">
<title>Node30&#45;&gt;Node29</title>
<path fill="none" stroke="#191970" d="M833.8784,-86C890.7535,-86 984.2911,-86 1026.7715,-86"/>
<polygon fill="#191970" stroke="#191970" points="833.7059,-82.5001 823.7058,-86 833.7058,-89.5001 833.7059,-82.5001"/>
</g>
<!-- Node2 -->
<g id="node6" class="node">
<title>Node2</title>
<g id="a_node6"><a xlink:href="classaworx_1_1lib_1_1strings_1_1TString.html" target="_top" xlink:title="TString">
<polygon fill="#ffffff" stroke="#000000" points="103,-358.5 103,-377.5 151,-377.5 151,-358.5 103,-358.5"/>
<text text-anchor="middle" x="127" y="-365.5" font-family="Helvetica,sans-Serif" font-size="10.00" fill="#000000">TString</text>
</a>
</g>
</g>
<!-- Node2&#45;&gt;Node1 -->
<g id="edge1" class="edge">
<title>Node2&#45;&gt;Node1</title>
<path fill="none" stroke="#9a32cd" stroke-dasharray="5,2" d="M135.8744,-349.0868C164.2139,-291.7865 258.5091,-124 391,-124 391,-124 391,-124 1049,-124 1091.2277,-124 1139.2161,-119.9152 1173.2385,-116.3251"/>
<polygon fill="#9a32cd" stroke="#9a32cd" points="132.5567,-347.9083 131.356,-358.4349 138.8591,-350.9546 132.5567,-347.9083"/>
<text text-anchor="middle" x="659.5" y="-138" font-family="Helvetica,sans-Serif" font-size="10.00" fill="#000000"> Func</text>
<text text-anchor="middle" x="659.5" y="-127" font-family="Helvetica,sans-Serif" font-size="10.00" fill="#000000">File</text>
</g>
<!-- Node2&#45;&gt;Node4 -->
<g id="edge2" class="edge">
<title>Node2&#45;&gt;Node4</title>
<path fill="none" stroke="#9a32cd" stroke-dasharray="5,2" d="M148.1572,-383.2282C154.5614,-387.093 161.8103,-390.7764 169,-393 263.4487,-422.2107 292.1373,-407 391,-407 391,-407 391,-407 787,-407 900.5075,-407 929.6155,-361.0964 1008,-279 1027.9546,-258.1005 1040.6337,-225.5807 1046.0189,-209.5687"/>
<polygon fill="#9a32cd" stroke="#9a32cd" points="149.7747,-380.105 139.484,-377.5848 145.957,-385.9723 149.7747,-380.105"/>
<text text-anchor="middle" x="578" y="-410" font-family="Helvetica,sans-Serif" font-size="10.00" fill="#000000"> ResourceCategory</text>
</g>
<!-- Node14 -->
<g id="node8" class="node">
<title>Node14</title>
<g id="a_node8"><a xlink:href="classaworx_1_1lib_1_1config_1_1Configuration.html" target="_top" xlink:title="Configuration">
<polygon fill="#ffffff" stroke="#ff0000" points="354,-292.5 354,-311.5 428,-311.5 428,-292.5 354,-292.5"/>
<text text-anchor="middle" x="391" y="-299.5" font-family="Helvetica,sans-Serif" font-size="10.00" fill="#000000">Configuration</text>
</a>
</g>
</g>
<!-- Node2&#45;&gt;Node14 -->
<g id="edge3" class="edge">
<title>Node2&#45;&gt;Node14</title>
<path fill="none" stroke="#9a32cd" stroke-dasharray="5,2" d="M161.2891,-359.4277C210.9215,-347.0196 302.4343,-324.1414 353.7003,-311.3249"/>
<polygon fill="#9a32cd" stroke="#9a32cd" points="160.2158,-356.0882 151.3633,-361.9092 161.9136,-362.8792 160.2158,-356.0882"/>
<text text-anchor="middle" x="252.5" y="-381" font-family="Helvetica,sans-Serif" font-size="10.00" fill="#000000"> SubstitutionVariableStart</text>
<text text-anchor="middle" x="252.5" y="-370" font-family="Helvetica,sans-Serif" font-size="10.00" fill="#000000">SubstitutionVariableEnd</text>
<text text-anchor="middle" x="252.5" y="-359" font-family="Helvetica,sans-Serif" font-size="10.00" fill="#000000">SubstitutionVariableDelimiters</text>
</g>
<!-- Node4&#45;&gt;Node1 -->
<g id="edge6" class="edge">
<title>Node4&#45;&gt;Node1</title>
<path fill="none" stroke="#9a32cd" stroke-dasharray="5,2" d="M1075.7544,-185.593C1080.4955,-183.0545 1085.3896,-180.4435 1090,-178 1128.7839,-157.4448 1174.3574,-133.6833 1199.3141,-120.7045"/>
<polygon fill="#9a32cd" stroke="#9a32cd" points="1074.0976,-182.5099 1066.9406,-190.322 1077.4071,-188.6782 1074.0976,-182.5099"/>
<text text-anchor="middle" x="1122" y="-181" font-family="Helvetica,sans-Serif" font-size="10.00" fill="#000000"> EnumLibrary</text>
</g>
<!-- Node4&#45;&gt;Node27 -->
<g id="edge7" class="edge">
<title>Node4&#45;&gt;Node27</title>
<path fill="none" stroke="#9a32cd" stroke-dasharray="5,2" d="M1082.2542,-207.8158C1084.8656,-208.2715 1087.4701,-208.6755 1090,-209 1117.0216,-212.4658 1147.4918,-213.7596 1171.9228,-214.1665"/>
<polygon fill="#9a32cd" stroke="#9a32cd" points="1082.7779,-204.3519 1072.2911,-205.8609 1081.43,-211.221 1082.7779,-204.3519"/>
<text text-anchor="middle" x="1122" y="-216" font-family="Helvetica,sans-Serif" font-size="10.00" fill="#000000"> elements</text>
</g>
<!-- Node14&#45;&gt;Node4 -->
<g id="edge11" class="edge">
<title>Node14&#45;&gt;Node4</title>
<path fill="none" stroke="#9a32cd" stroke-dasharray="5,2" d="M411.0272,-286.2801C437.7573,-266.3451 487.3907,-232.8965 536,-219 718.5211,-166.8206 952.4533,-188.3177 1025.8903,-197.0116"/>
<polygon fill="#9a32cd" stroke="#9a32cd" points="408.7194,-283.6378 402.8748,-292.4748 412.9546,-289.2113 408.7194,-283.6378"/>
<text text-anchor="middle" x="659.5" y="-200" font-family="Helvetica,sans-Serif" font-size="10.00" fill="#000000"> Config</text>
</g>
<!-- Node14&#45;&gt;Node5 -->
<g id="edge12" class="edge">
<title>Node14&#45;&gt;Node5</title>
<path fill="none" stroke="#9a32cd" stroke-dasharray="5,2" d="M438.3008,-307.4839C440.9031,-307.6845 443.4825,-307.8594 446,-308 559.7858,-314.3555 695.2613,-311.7184 755.4688,-310.019"/>
<polygon fill="#9a32cd" stroke="#9a32cd" points="438.5012,-303.9881 428.2335,-306.6005 437.8892,-310.9613 438.5012,-303.9881"/>
<text text-anchor="middle" x="578" y="-315" font-family="Helvetica,sans-Serif" font-size="10.00" fill="#000000"> Config</text>
</g>
<!-- Node9 -->
<g id="node12" class="node">
<title>Node9</title>
<g id="a_node12"><a xlink:href="classaworx_1_1lib_1_1config_1_1Variable.html" target="_top" xlink:title="Variable">
<polygon fill="#ffffff" stroke="#ff0000" points="552.5,-266.5 552.5,-285.5 603.5,-285.5 603.5,-266.5 552.5,-266.5"/>
<text text-anchor="middle" x="578" y="-273.5" font-family="Helvetica,sans-Serif" font-size="10.00" fill="#000000">Variable</text>
</a>
</g>
</g>
<!-- Node14&#45;&gt;Node9 -->
<g id="edge13" class="edge">
<title>Node14&#45;&gt;Node9</title>
<path fill="none" stroke="#9a32cd" stroke-dasharray="5,2" d="M438.7188,-295.3653C474.8869,-290.3366 523.1894,-283.6207 552.3699,-279.5635"/>
<polygon fill="#9a32cd" stroke="#9a32cd" points="437.8155,-291.9571 428.3928,-296.801 438.7795,-298.8904 437.8155,-291.9571"/>
<text text-anchor="middle" x="482" y="-297" font-family="Helvetica,sans-Serif" font-size="10.00" fill="#000000"> Config</text>
</g>
<!-- Node3 -->
<g id="node9" class="node">
<title>Node3</title>
<g id="a_node9"><a xlink:href="classaworx_1_1lib_1_1strings_1_1String.html" target="_top" xlink:title="String">
<polygon fill="#ffffff" stroke="#000000" points="0,-390.5 0,-409.5 42,-409.5 42,-390.5 0,-390.5"/>
<text text-anchor="middle" x="21" y="-397.5" font-family="Helvetica,sans-Serif" font-size="10.00" fill="#000000">String</text>
</a>
</g>
</g>
<!-- Node3&#45;&gt;Node26 -->
<g id="edge5" class="edge">
<title>Node3&#45;&gt;Node26</title>
<path fill="none" stroke="#9a32cd" stroke-dasharray="5,2" d="M52.4893,-405.3049C89.2578,-411.4992 150.783,-421.8641 195.9058,-429.4658"/>
<polygon fill="#9a32cd" stroke="#9a32cd" points="52.8065,-401.8091 42.364,-403.5991 51.6436,-408.7118 52.8065,-401.8091"/>
<text text-anchor="middle" x="72.5" y="-413" font-family="Helvetica,sans-Serif" font-size="10.00" fill="#000000"> keys</text>
</g>
<!-- Node3&#45;&gt;Node2 -->
<g id="edge4" class="edge">
<title>Node3&#45;&gt;Node2</title>
<path fill="none" stroke="#191970" d="M51.8114,-390.6984C68.0743,-385.7889 87.7384,-379.8525 102.8776,-375.2822"/>
<polygon fill="#191970" stroke="#191970" points="50.7577,-387.3605 42.1959,-393.6012 52.7807,-394.0618 50.7577,-387.3605"/>
</g>
<!-- Node5&#45;&gt;Node4 -->
<g id="edge8" class="edge">
<title>Node5&#45;&gt;Node4</title>
<path fill="none" stroke="#9a32cd" stroke-dasharray="5,2" d="M819.648,-295.4174C873.3539,-273.0742 979.0393,-229.1058 1025.8014,-209.6513"/>
<polygon fill="#9a32cd" stroke="#9a32cd" points="818.1392,-292.2543 810.2508,-299.327 820.828,-298.7173 818.1392,-292.2543"/>
<text text-anchor="middle" x="950.5" y="-267" font-family="Helvetica,sans-Serif" font-size="10.00" fill="#000000"> Res</text>
</g>
<!-- Node6 -->
<g id="node11" class="node">
<title>Node6</title>
<g id="a_node11"><a xlink:href="classaworx_1_1lib_1_1util_1_1MemoryBlocks.html" target="_top" xlink:title="MemoryBlocks">
<polygon fill="#ffffff" stroke="#ff0000" points="537,-228.5 537,-247.5 619,-247.5 619,-228.5 537,-228.5"/>
<text text-anchor="middle" x="578" y="-235.5" font-family="Helvetica,sans-Serif" font-size="10.00" fill="#000000">MemoryBlocks</text>
</a>
</g>
</g>
<!-- Node6&#45;&gt;Node5 -->
<g id="edge9" class="edge">
<title>Node6&#45;&gt;Node5</title>
<path fill="none" stroke="#9a32cd" stroke-dasharray="5,2" d="M619.8839,-250.4795C638.6482,-256.2073 661.0076,-263.2215 681,-270 709.0414,-279.5075 740.8818,-291.3678 762.2835,-299.4976"/>
<polygon fill="#9a32cd" stroke="#9a32cd" points="620.7353,-247.0803 610.1498,-247.5248 618.702,-253.7786 620.7353,-247.0803"/>
<text text-anchor="middle" x="659.5" y="-273" font-family="Helvetica,sans-Serif" font-size="10.00" fill="#000000"> cache</text>
</g>
<!-- Node9&#45;&gt;Node5 -->
<g id="edge10" class="edge">
<title>Node9&#45;&gt;Node5</title>
<path fill="none" stroke="#9a32cd" stroke-dasharray="5,2" d="M613.6883,-281.635C653.4916,-287.9197 717.2729,-297.9905 755.3567,-304.0037"/>
<polygon fill="#9a32cd" stroke="#9a32cd" points="614.051,-278.149 603.6275,-280.0464 612.9592,-285.0633 614.051,-278.149"/>
<text text-anchor="middle" x="659.5" y="-294" font-family="Helvetica,sans-Serif" font-size="10.00" fill="#000000"> variable</text>
</g>
<!-- Node16 -->
<g id="node13" class="node">
<title>Node16</title>
<g id="a_node13"><a xlink:href="classaworx_1_1lib_1_1threads_1_1ThreadLock.html" target="_top" xlink:title="ThreadLock">
<polygon fill="#ffffff" stroke="#ff0000" points="544,-351.5 544,-370.5 612,-370.5 612,-351.5 544,-351.5"/>
<text text-anchor="middle" x="578" y="-358.5" font-family="Helvetica,sans-Serif" font-size="10.00" fill="#000000">ThreadLock</text>
</a>
</g>
</g>
<!-- Node16&#45;&gt;Node5 -->
<g id="edge14" class="edge">
<title>Node16&#45;&gt;Node5</title>
<path fill="none" stroke="#9a32cd" stroke-dasharray="5,2" d="M622.1346,-350.4036C640.3691,-345.9955 661.7143,-340.7965 681,-336 706.0634,-329.7665 734.4129,-322.536 755.4836,-317.127"/>
<polygon fill="#9a32cd" stroke="#9a32cd" points="621.2567,-347.0149 612.3571,-352.7636 622.8992,-353.8194 621.2567,-347.0149"/>
<text text-anchor="middle" x="659.5" y="-349" font-family="Helvetica,sans-Serif" font-size="10.00" fill="#000000"> lock</text>
</g>
<!-- Node29&#45;&gt;Node1 -->
<g id="edge18" class="edge">
<title>Node29&#45;&gt;Node1</title>
<path fill="none" stroke="#9a32cd" stroke-dasharray="5,2" d="M1081.3824,-89.4827C1102.1758,-91.8489 1129.734,-95.2266 1154,-99 1160.2555,-99.9727 1166.8367,-101.0941 1173.3018,-102.2526"/>
<polygon fill="#9a32cd" stroke="#9a32cd" points="1081.5059,-85.9747 1071.1787,-88.3408 1080.7274,-92.9313 1081.5059,-85.9747"/>
<text text-anchor="middle" x="1122" y="-102" font-family="Helvetica,sans-Serif" font-size="10.00" fill="#000000"> Args</text>
</g>
<!-- Node31 -->
<g id="node15" class="node">
<title>Node31</title>
<polygon fill="#ffffff" stroke="#bfbfbf" points="563.5,-76.5 563.5,-95.5 592.5,-95.5 592.5,-76.5 563.5,-76.5"/>
<text text-anchor="middle" x="578" y="-83.5" font-family="Helvetica,sans-Serif" font-size="10.00" fill="#000000">T</text>
</g>
<!-- Node31&#45;&gt;Node30 -->
<g id="edge20" class="edge">
<title>Node31&#45;&gt;Node30</title>
<path fill="none" stroke="#9a32cd" stroke-dasharray="5,2" d="M602.9674,-86C639.5632,-86 708.0014,-86 750.3193,-86"/>
<polygon fill="#9a32cd" stroke="#9a32cd" points="602.6965,-82.5001 592.6965,-86 602.6964,-89.5001 602.6965,-82.5001"/>
<text text-anchor="middle" x="659.5" y="-89" font-family="Helvetica,sans-Serif" font-size="10.00" fill="#000000"> elements</text>
</g>
<!-- Node32 -->
<g id="node16" class="node">
<title>Node32</title>
<g id="a_node16"><a xlink:href="structaworx_1_1lib_1_1lang_1_1Enum.html" target="_top" xlink:title="Enum">
<polygon fill="#ffffff" stroke="#000000" points="1028,-38.5 1028,-57.5 1070,-57.5 1070,-38.5 1028,-38.5"/>
<text text-anchor="middle" x="1049" y="-45.5" font-family="Helvetica,sans-Serif" font-size="10.00" fill="#000000">Enum</text>
</a>
</g>
</g>
<!-- Node32&#45;&gt;Node1 -->
<g id="edge21" class="edge">
<title>Node32&#45;&gt;Node1</title>
<path fill="none" stroke="#9a32cd" stroke-dasharray="5,2" d="M1080.1838,-54.2511C1101.411,-59.0028 1129.9145,-66.3654 1154,-76 1171.5198,-83.0082 1190.3261,-93.715 1202.9864,-101.441"/>
<polygon fill="#9a32cd" stroke="#9a32cd" points="1080.9135,-50.8281 1070.3989,-52.1297 1079.4302,-57.6691 1080.9135,-50.8281"/>
<text text-anchor="middle" x="1122" y="-79" font-family="Helvetica,sans-Serif" font-size="10.00" fill="#000000"> Code</text>
</g>
<!-- Node33 -->
<g id="node17" class="node">
<title>Node33</title>
<g id="a_node17"><a xlink:href="classaworx_1_1lib_1_1boxing_1_1Box.html" target="_top" xlink:title="Box">
<polygon fill="#ffffff" stroke="#000000" points="770,-38.5 770,-57.5 804,-57.5 804,-38.5 770,-38.5"/>
<text text-anchor="middle" x="787" y="-45.5" font-family="Helvetica,sans-Serif" font-size="10.00" fill="#000000">Box</text>
</a>
</g>
</g>
<!-- Node33&#45;&gt;Node32 -->
<g id="edge22" class="edge">
<title>Node33&#45;&gt;Node32</title>
<path fill="none" stroke="#9a32cd" stroke-dasharray="5,2" d="M814.4193,-48C866.9223,-48 980.6212,-48 1027.809,-48"/>
<polygon fill="#9a32cd" stroke="#9a32cd" points="814.1906,-44.5001 804.1906,-48 814.1905,-51.5001 814.1906,-44.5001"/>
<text text-anchor="middle" x="950.5" y="-51" font-family="Helvetica,sans-Serif" font-size="10.00" fill="#000000"> box</text>
</g>
<!-- Node34 -->
<g id="node18" class="node">
<title>Node34</title>
<g id="a_node18"><a xlink:href="structaworx_1_1lib_1_1boxing_1_1BoxData.html" target="_top" xlink:title="BoxData">
<polygon fill="#ffffff" stroke="#000000" points="551,-38.5 551,-57.5 605,-57.5 605,-38.5 551,-38.5"/>
<text text-anchor="middle" x="578" y="-45.5" font-family="Helvetica,sans-Serif" font-size="10.00" fill="#000000">BoxData</text>
</a>
</g>
</g>
<!-- Node34&#45;&gt;Node33 -->
<g id="edge23" class="edge">
<title>Node34&#45;&gt;Node33</title>
<path fill="none" stroke="#9a32cd" stroke-dasharray="5,2" d="M615.4295,-48C661.1305,-48 736.4693,-48 769.9963,-48"/>
<polygon fill="#9a32cd" stroke="#9a32cd" points="615.3231,-44.5001 605.3231,-48 615.3231,-51.5001 615.3231,-44.5001"/>
<text text-anchor="middle" x="659.5" y="-51" font-family="Helvetica,sans-Serif" font-size="10.00" fill="#000000"> data</text>
</g>
<!-- Node35 -->
<g id="node19" class="node">
<title>Node35</title>
<g id="a_node19"><a xlink:href="classaworx_1_1lib_1_1boxing_1_1Boxer.html" target="_top" xlink:title="Boxer">
<polygon fill="#ffffff" stroke="#000000" points="557,-.5 557,-19.5 599,-19.5 599,-.5 557,-.5"/>
<text text-anchor="middle" x="578" y="-7.5" font-family="Helvetica,sans-Serif" font-size="10.00" fill="#000000">Boxer</text>
</a>
</g>
</g>
<!-- Node35&#45;&gt;Node33 -->
<g id="edge24" class="edge">
<title>Node35&#45;&gt;Node33</title>
<path fill="none" stroke="#9a32cd" stroke-dasharray="5,2" d="M609.2131,-15.6751C653.9567,-23.8103 734.7977,-38.5087 769.9299,-44.8963"/>
<polygon fill="#9a32cd" stroke="#9a32cd" points="609.655,-12.1982 599.1902,-13.8528 608.4028,-19.0852 609.655,-12.1982"/>
<text text-anchor="middle" x="659.5" y="-31" font-family="Helvetica,sans-Serif" font-size="10.00" fill="#000000"> boxer</text>
</g>
</g>
</svg>
