<?xml version="1.0" encoding="UTF-8" standalone="no"?>
<!DOCTYPE svg PUBLIC "-//W3C//DTD SVG 1.1//EN"
 "http://www.w3.org/Graphics/SVG/1.1/DTD/svg11.dtd">
<!-- Generated by graphviz version 2.40.1 (20161225.0304)
 -->
<!-- Title: StringTree&lt;T, TKeyAllocator, TSeparator&gt;::StdIterator::RecursionDataIt Pages: 1 -->
<svg width="335pt" height="162pt"
 viewBox="0.00 0.00 335.00 162.00" xmlns="http://www.w3.org/2000/svg" xmlns:xlink="http://www.w3.org/1999/xlink">
<g id="graph0" class="graph" transform="scale(1 1) rotate(0) translate(4 158)">
<title>StringTree&lt;T, TKeyAllocator, TSeparator&gt;::StdIterator::RecursionDataIt</title>
<polygon fill="#ffffff" stroke="transparent" points="-4,4 -4,-158 331,-158 331,4 -4,4"/>
<!-- Node1 -->
<g id="node1" class="node">
<title>Node1</title>
<polygon fill="#bfbfbf" stroke="#000000" points="0,-.5 0,-19.5 327,-19.5 327,-.5 0,-.5"/>
<text text-anchor="middle" x="163.5" y="-7.5" font-family="Helvetica,sans-Serif" font-size="10.00" fill="#000000">StringTree&lt;T, TKeyAllocator, TSeparator&gt;::StdIterator::RecursionDataIt</text>
</g>
<!-- Node2 -->
<g id="node2" class="node">
<title>Node2</title>
<g id="a_node2"><a xlink:title="STL iterator class. ">
<polygon fill="#ffffff" stroke="#bfbfbf" points="48.5,-67.5 48.5,-86.5 124.5,-86.5 124.5,-67.5 48.5,-67.5"/>
<text text-anchor="middle" x="86.5" y="-74.5" font-family="Helvetica,sans-Serif" font-size="10.00" fill="#000000">const_iterator</text>
</a>
</g>
</g>
<!-- Node2&#45;&gt;Node1 -->
<g id="edge1" class="edge">
<title>Node2&#45;&gt;Node1</title>
<path fill="none" stroke="#9a32cd" stroke-dasharray="5,2" d="M100.294,-59.1273C106.1323,-52.1342 113.2541,-44.2976 120.5,-38 128.4342,-31.1043 138.1899,-24.6166 146.4023,-19.6258"/>
<polygon fill="#9a32cd" stroke="#9a32cd" points="97.2157,-57.3698 93.6724,-67.3546 102.6689,-61.7588 97.2157,-57.3698"/>
<text text-anchor="middle" x="140" y="-41" font-family="Helvetica,sans-Serif" font-size="10.00" fill="#000000"> actChild</text>
</g>
<!-- Node3 -->
<g id="node3" class="node">
<title>Node3</title>
<g id="a_node3"><a xlink:href="classaworx_1_1lib_1_1strings_1_1String.html" target="_top" xlink:title="String">
<polygon fill="#ffffff" stroke="#000000" points="142.5,-67.5 142.5,-86.5 184.5,-86.5 184.5,-67.5 142.5,-67.5"/>
<text text-anchor="middle" x="163.5" y="-74.5" font-family="Helvetica,sans-Serif" font-size="10.00" fill="#000000">String</text>
</a>
</g>
</g>
<!-- Node3&#45;&gt;Node1 -->
<g id="edge2" class="edge">
<title>Node3&#45;&gt;Node1</title>
<path fill="none" stroke="#9a32cd" stroke-dasharray="5,2" d="M163.5,-57.1079C163.5,-44.714 163.5,-29.3263 163.5,-19.5817"/>
<polygon fill="#9a32cd" stroke="#9a32cd" points="160.0001,-57.4005 163.5,-67.4005 167.0001,-57.4006 160.0001,-57.4005"/>
<text text-anchor="middle" x="188.5" y="-41" font-family="Helvetica,sans-Serif" font-size="10.00" fill="#000000"> nodeName</text>
</g>
<!-- Node4 -->
<g id="node4" class="node">
<title>Node4</title>
<g id="a_node4"><a xlink:href="structaworx_1_1lib_1_1util_1_1StringTree_1_1Node.html" target="_top" xlink:title="Node">
<polygon fill="#ffffff" stroke="#000000" points="217,-67.5 217,-86.5 256,-86.5 256,-67.5 217,-67.5"/>
<text text-anchor="middle" x="236.5" y="-74.5" font-family="Helvetica,sans-Serif" font-size="10.00" fill="#000000">Node</text>
</a>
</g>
</g>
<!-- Node4&#45;&gt;Node1 -->
<g id="edge3" class="edge">
<title>Node4&#45;&gt;Node1</title>
<path fill="none" stroke="#9a32cd" stroke-dasharray="5,2" d="M228.4687,-57.9853C224.9104,-51.1094 220.2203,-43.6548 214.5,-38 206.742,-30.3308 196.4529,-24.1491 187.1491,-19.5647"/>
<polygon fill="#9a32cd" stroke="#9a32cd" points="225.4511,-59.7947 232.8603,-67.3681 231.791,-56.8273 225.4511,-59.7947"/>
<text text-anchor="middle" x="236" y="-41" font-family="Helvetica,sans-Serif" font-size="10.00" fill="#000000"> node</text>
</g>
<!-- Node4&#45;&gt;Node4 -->
<g id="edge4" class="edge">
<title>Node4&#45;&gt;Node4</title>
<path fill="none" stroke="#9a32cd" stroke-dasharray="5,2" d="M266.3313,-82.4764C270.8972,-81.6438 274,-79.8184 274,-77 274,-72.375 265.6443,-70.4238 256.1788,-71.1465"/>
<polygon fill="#9a32cd" stroke="#9a32cd" points="266.042,-78.9846 256.1788,-82.8535 266.3019,-85.9798 266.042,-78.9846"/>
<text text-anchor="middle" x="289.5" y="-74.5" font-family="Helvetica,sans-Serif" font-size="10.00" fill="#000000"> parent</text>
</g>
<!-- Node5 -->
<g id="node5" class="node">
<title>Node5</title>
<polygon fill="#ffffff" stroke="#bfbfbf" points="222,-134.5 222,-153.5 251,-153.5 251,-134.5 222,-134.5"/>
<text text-anchor="middle" x="236.5" y="-141.5" font-family="Helvetica,sans-Serif" font-size="10.00" fill="#000000">T</text>
</g>
<!-- Node5&#45;&gt;Node4 -->
<g id="edge5" class="edge">
<title>Node5&#45;&gt;Node4</title>
<path fill="none" stroke="#9a32cd" stroke-dasharray="5,2" d="M236.5,-124.1079C236.5,-111.714 236.5,-96.3263 236.5,-86.5817"/>
<polygon fill="#9a32cd" stroke="#9a32cd" points="233.0001,-124.4005 236.5,-134.4005 240.0001,-124.4006 233.0001,-124.4005"/>
<text text-anchor="middle" x="250" y="-108" font-family="Helvetica,sans-Serif" font-size="10.00" fill="#000000"> value</text>
</g>
</g>
</svg>
