<?xml version="1.0" encoding="UTF-8" standalone="no"?>
<!DOCTYPE svg PUBLIC "-//W3C//DTD SVG 1.1//EN"
 "http://www.w3.org/Graphics/SVG/1.1/DTD/svg11.dtd">
<!-- Generated by graphviz version 2.40.1 (20161225.0304)
 -->
<!-- Title: StringTree&lt;T, TKeyAllocator, TSeparator&gt;::StdIterator::RecursionDataIt Pages: 1 -->
<svg width="1016pt" height="115pt"
 viewBox="0.00 0.00 1016.00 115.00" xmlns="http://www.w3.org/2000/svg" xmlns:xlink="http://www.w3.org/1999/xlink">
<g id="graph0" class="graph" transform="scale(1 1) rotate(0) translate(4 111)">
<title>StringTree&lt;T, TKeyAllocator, TSeparator&gt;::StdIterator::RecursionDataIt</title>
<polygon fill="#ffffff" stroke="transparent" points="-4,4 -4,-111 1012,-111 1012,4 -4,4"/>
<!-- Node1 -->
<g id="node1" class="node">
<title>Node1</title>
<polygon fill="#bfbfbf" stroke="#000000" points="681,-69.5 681,-88.5 1008,-88.5 1008,-69.5 681,-69.5"/>
<text text-anchor="middle" x="844.5" y="-76.5" font-family="Helvetica,sans-Serif" font-size="10.00" fill="#000000">StringTree&lt;T, TKeyAllocator, TSeparator&gt;::StdIterator::RecursionDataIt</text>
</g>
<!-- Node4 -->
<g id="node2" class="node">
<title>Node4</title>
<polygon fill="#ffffff" stroke="#bfbfbf" points="103,-64.5 103,-83.5 495,-83.5 495,-64.5 103,-64.5"/>
<text text-anchor="middle" x="299" y="-71.5" font-family="Helvetica,sans-Serif" font-size="10.00" fill="#000000">unordered_map&lt;aworx::String, Node *, lib::strings::std_Hash, lib::strings::std_Equals&gt;</text>
</g>
<!-- Node3 -->
<g id="node4" class="node">
<title>Node3</title>
<g id="a_node4"><a xlink:href="structaworx_1_1lib_1_1containers_1_1StringTree_1_1Node.html" target="_top" xlink:title="Node">
<polygon fill="#ffffff" stroke="#000000" points="581,-35.5 581,-54.5 620,-54.5 620,-35.5 581,-35.5"/>
<text text-anchor="middle" x="600.5" y="-42.5" font-family="Helvetica,sans-Serif" font-size="10.00" fill="#000000">Node</text>
</a>
</g>
</g>
<!-- Node4&#45;&gt;Node3 -->
<g id="edge6" class="edge">
<title>Node4&#45;&gt;Node3</title>
<path fill="none" stroke="#9a32cd" stroke-dasharray="5,2" d="M505.4939,-64.2575C525.0006,-62.0347 544.4182,-59.3181 563,-56 568.8776,-54.9505 575.1455,-53.3227 580.8408,-51.6382"/>
<polygon fill="#9a32cd" stroke="#9a32cd" points="504.8484,-60.8072 495.2891,-65.3755 505.6108,-67.7656 504.8484,-60.8072"/>
<text text-anchor="middle" x="538" y="-65" font-family="Helvetica,sans-Serif" font-size="10.00" fill="#000000"> children</text>
</g>
<!-- Node2 -->
<g id="node3" class="node">
<title>Node2</title>
<g id="a_node3"><a xlink:href="classaworx_1_1lib_1_1strings_1_1String.html" target="_top" xlink:title="String">
<polygon fill="#ffffff" stroke="#000000" points="0,-83.5 0,-102.5 42,-102.5 42,-83.5 0,-83.5"/>
<text text-anchor="middle" x="21" y="-90.5" font-family="Helvetica,sans-Serif" font-size="10.00" fill="#000000">String</text>
</a>
</g>
</g>
<!-- Node2&#45;&gt;Node1 -->
<g id="edge1" class="edge">
<title>Node2&#45;&gt;Node1</title>
<path fill="none" stroke="#9a32cd" stroke-dasharray="5,2" d="M52.125,-97.3505C54.7847,-97.6128 57.4368,-97.8364 60,-98 71.0885,-98.7079 73.889,-98.0519 85,-98 322.7856,-96.8889 382.3643,-101.514 620,-93 649.3673,-91.9478 680.8676,-90.3046 710.7093,-88.5086"/>
<polygon fill="#9a32cd" stroke="#9a32cd" points="52.3359,-93.8519 42.0026,-96.1915 51.5395,-100.8064 52.3359,-93.8519"/>
<text text-anchor="middle" x="538" y="-99" font-family="Helvetica,sans-Serif" font-size="10.00" fill="#000000"> nodeName</text>
</g>
<!-- Node2&#45;&gt;Node4 -->
<g id="edge2" class="edge">
<title>Node2&#45;&gt;Node4</title>
<path fill="none" stroke="#9a32cd" stroke-dasharray="5,2" d="M52.1238,-87.932C54.7837,-87.5839 57.4363,-87.2663 60,-87 73.9496,-85.5511 88.375,-84.2583 102.9084,-83.1056"/>
<polygon fill="#9a32cd" stroke="#9a32cd" points="51.4038,-84.4993 42.0009,-89.3816 52.3961,-91.4286 51.4038,-84.4993"/>
<text text-anchor="middle" x="72.5" y="-90" font-family="Helvetica,sans-Serif" font-size="10.00" fill="#000000"> keys</text>
</g>
<!-- Node3&#45;&gt;Node1 -->
<g id="edge3" class="edge">
<title>Node3&#45;&gt;Node1</title>
<path fill="none" stroke="#9a32cd" stroke-dasharray="5,2" d="M630.3832,-49.164C666.4653,-54.1919 728.276,-62.8048 776.2384,-69.4881"/>
<polygon fill="#9a32cd" stroke="#9a32cd" points="630.4425,-45.6386 620.0551,-47.7249 629.4763,-52.5716 630.4425,-45.6386"/>
<text text-anchor="middle" x="650.5" y="-56" font-family="Helvetica,sans-Serif" font-size="10.00" fill="#000000"> node</text>
</g>
<!-- Node3&#45;&gt;Node4 -->
<g id="edge5" class="edge">
<title>Node3&#45;&gt;Node4</title>
<path fill="none" stroke="#9a32cd" stroke-dasharray="5,2" d="M570.3004,-43.9999C553.4245,-43.692 532.0226,-43.7169 513,-45 458.7593,-48.6585 397.3085,-57.4762 354.2166,-64.4351"/>
<polygon fill="#9a32cd" stroke="#9a32cd" points="570.5876,-47.5074 580.6662,-44.2404 570.7501,-40.5093 570.5876,-47.5074"/>
<text text-anchor="middle" x="538" y="-48" font-family="Helvetica,sans-Serif" font-size="10.00" fill="#000000"> elements</text>
</g>
<!-- Node3&#45;&gt;Node3 -->
<g id="edge4" class="edge">
<title>Node3&#45;&gt;Node3</title>
<path fill="none" stroke="#9a32cd" stroke-dasharray="5,2" d="M591.2922,-64.7663C592.0154,-69.4965 595.0847,-73 600.5,-73 609.3867,-73 611.9555,-63.5653 608.2065,-54.7571"/>
<polygon fill="#9a32cd" stroke="#9a32cd" points="594.7714,-65.1656 592.7935,-54.7571 587.8488,-64.1272 594.7714,-65.1656"/>
<text text-anchor="middle" x="600.5" y="-76" font-family="Helvetica,sans-Serif" font-size="10.00" fill="#000000"> parent</text>
</g>
<!-- Node5 -->
<g id="node5" class="node">
<title>Node5</title>
<polygon fill="#ffffff" stroke="#bfbfbf" points="284.5,-.5 284.5,-19.5 313.5,-19.5 313.5,-.5 284.5,-.5"/>
<text text-anchor="middle" x="299" y="-7.5" font-family="Helvetica,sans-Serif" font-size="10.00" fill="#000000">T</text>
</g>
<!-- Node5&#45;&gt;Node3 -->
<g id="edge7" class="edge">
<title>Node5&#45;&gt;Node3</title>
<path fill="none" stroke="#9a32cd" stroke-dasharray="5,2" d="M323.7564,-9.0858C371.0061,-7.9293 476.9991,-8.1761 563,-29 569.1915,-30.4992 575.6645,-32.9218 581.4557,-35.4333"/>
<polygon fill="#9a32cd" stroke="#9a32cd" points="323.4601,-5.5928 313.5657,-9.3811 323.6629,-12.5899 323.4601,-5.5928"/>
<text text-anchor="middle" x="538" y="-32" font-family="Helvetica,sans-Serif" font-size="10.00" fill="#000000"> value</text>
</g>
</g>
</svg>
