<?xml version="1.0" encoding="UTF-8" standalone="no"?>
<!DOCTYPE svg PUBLIC "-//W3C//DTD SVG 1.1//EN"
 "http://www.w3.org/Graphics/SVG/1.1/DTD/svg11.dtd">
<!-- Generated by graphviz version 2.40.1 (20161225.0304)
 -->
<!-- Title: ScopeInfo::Scope Pages: 1 -->
<svg width="214pt" height="254pt"
 viewBox="0.00 0.00 214.13 254.00" xmlns="http://www.w3.org/2000/svg" xmlns:xlink="http://www.w3.org/1999/xlink">
<g id="graph0" class="graph" transform="scale(1 1) rotate(0) translate(4 250)">
<title>ScopeInfo::Scope</title>
<polygon fill="#ffffff" stroke="transparent" points="-4,4 -4,-250 210.1314,-250 210.1314,4 -4,4"/>
<!-- Node1 -->
<g id="node1" class="node">
<title>Node1</title>
<polygon fill="#bfbfbf" stroke="#000000" points="49.6314,-.5 49.6314,-19.5 144.6314,-19.5 144.6314,-.5 49.6314,-.5"/>
<text text-anchor="middle" x="97.1314" y="-7.5" font-family="Helvetica,sans-Serif" font-size="10.00" fill="#000000">ScopeInfo::Scope</text>
</g>
<!-- Node2 -->
<g id="node2" class="node">
<title>Node2</title>
<g id="a_node2"><a xlink:href="classaworx_1_1lib_1_1strings_1_1TString.html" target="_top" xlink:title="TString">
<polygon fill="#ffffff" stroke="#000000" points="14.1314,-152 14.1314,-171 62.1314,-171 62.1314,-152 14.1314,-152"/>
<text text-anchor="middle" x="38.1314" y="-159" font-family="Helvetica,sans-Serif" font-size="10.00" fill="#000000">TString</text>
</a>
</g>
</g>
<!-- Node2&#45;&gt;Node1 -->
<g id="edge1" class="edge">
<title>Node2&#45;&gt;Node1</title>
<path fill="none" stroke="#9a32cd" stroke-dasharray="5,2" d="M23.464,-143.888C9.06,-124.3131 -8.8711,-92.1478 5.1314,-67 18.294,-43.3608 45.758,-28.2806 67.2697,-19.61"/>
<polygon fill="#9a32cd" stroke="#9a32cd" points="20.8083,-146.1747 29.7065,-151.9255 26.3367,-141.8809 20.8083,-146.1747"/>
<text text-anchor="middle" x="31.1314" y="-74.5" font-family="Helvetica,sans-Serif" font-size="10.00" fill="#000000"> origMethod</text>
</g>
<!-- Node4 -->
<g id="node3" class="node">
<title>Node4</title>
<g id="a_node3"><a xlink:href="structaworx_1_1lox_1_1core_1_1ScopeInfo_1_1SourceFile.html" target="_top" xlink:title="SourceFile">
<polygon fill="#ffffff" stroke="#000000" points="66.6314,-67.5 66.6314,-86.5 129.6314,-86.5 129.6314,-67.5 66.6314,-67.5"/>
<text text-anchor="middle" x="98.1314" y="-74.5" font-family="Helvetica,sans-Serif" font-size="10.00" fill="#000000">SourceFile</text>
</a>
</g>
</g>
<!-- Node2&#45;&gt;Node4 -->
<g id="edge2" class="edge">
<title>Node2&#45;&gt;Node4</title>
<path fill="none" stroke="#9a32cd" stroke-dasharray="5,2" d="M37.9951,-141.6774C38.8296,-130.0394 41.5423,-115.5863 49.1314,-105 54.8971,-96.9573 63.7404,-90.9025 72.3354,-86.5188"/>
<polygon fill="#9a32cd" stroke="#9a32cd" points="34.4943,-141.6479 37.6725,-151.7548 41.4908,-141.8719 34.4943,-141.6479"/>
<text text-anchor="middle" x="66.6314" y="-108" font-family="Helvetica,sans-Serif" font-size="10.00" fill="#000000"> origFile</text>
</g>
<!-- Node4&#45;&gt;Node1 -->
<g id="edge5" class="edge">
<title>Node4&#45;&gt;Node1</title>
<path fill="none" stroke="#9a32cd" stroke-dasharray="5,2" d="M97.8345,-57.1079C97.6496,-44.714 97.4199,-29.3263 97.2745,-19.5817"/>
<polygon fill="#9a32cd" stroke="#9a32cd" points="94.3392,-57.4539 97.9882,-67.4005 101.3384,-57.3494 94.3392,-57.4539"/>
<text text-anchor="middle" x="121.6314" y="-41" font-family="Helvetica,sans-Serif" font-size="10.00" fill="#000000"> sourceFile</text>
</g>
<!-- Node3 -->
<g id="node4" class="node">
<title>Node3</title>
<g id="a_node4"><a xlink:href="classaworx_1_1lib_1_1strings_1_1String.html" target="_top" xlink:title="String">
<polygon fill="#ffffff" stroke="#000000" points="47.1314,-226.5 47.1314,-245.5 89.1314,-245.5 89.1314,-226.5 47.1314,-226.5"/>
<text text-anchor="middle" x="68.1314" y="-233.5" font-family="Helvetica,sans-Serif" font-size="10.00" fill="#000000">String</text>
</a>
</g>
</g>
<!-- Node3&#45;&gt;Node2 -->
<g id="edge3" class="edge">
<title>Node3&#45;&gt;Node2</title>
<path fill="none" stroke="#191970" d="M60.3287,-216.6231C54.4235,-201.9587 46.568,-182.4507 41.9595,-171.0064"/>
<polygon fill="#191970" stroke="#191970" points="57.2274,-218.2917 64.2095,-226.2604 63.7207,-215.6769 57.2274,-218.2917"/>
</g>
<!-- Node3&#45;&gt;Node4 -->
<g id="edge4" class="edge">
<title>Node3&#45;&gt;Node4</title>
<path fill="none" stroke="#9a32cd" stroke-dasharray="5,2" d="M71.8662,-216.2056C78.3692,-181.7399 91.5355,-111.9586 96.3318,-86.5382"/>
<polygon fill="#9a32cd" stroke="#9a32cd" points="68.4229,-215.5783 70.0081,-226.0538 75.3016,-216.8762 68.4229,-215.5783"/>
<text text-anchor="middle" x="128.1314" y="-181" font-family="Helvetica,sans-Serif" font-size="10.00" fill="#000000"> fullPath</text>
<text text-anchor="middle" x="128.1314" y="-170" font-family="Helvetica,sans-Serif" font-size="10.00" fill="#000000">nameWOExt</text>
<text text-anchor="middle" x="128.1314" y="-159" font-family="Helvetica,sans-Serif" font-size="10.00" fill="#000000">trimmedPathPrefix</text>
<text text-anchor="middle" x="128.1314" y="-148" font-family="Helvetica,sans-Serif" font-size="10.00" fill="#000000">name</text>
<text text-anchor="middle" x="128.1314" y="-137" font-family="Helvetica,sans-Serif" font-size="10.00" fill="#000000">trimmedPath</text>
</g>
<!-- Node5 -->
<g id="node5" class="node">
<title>Node5</title>
<g id="a_node5"><a xlink:href="classaworx_1_1lib_1_1time_1_1Ticks.html" target="_top" xlink:title="Ticks">
<polygon fill="#ffffff" stroke="#000000" points="148.6314,-67.5 148.6314,-86.5 189.6314,-86.5 189.6314,-67.5 148.6314,-67.5"/>
<text text-anchor="middle" x="169.1314" y="-74.5" font-family="Helvetica,sans-Serif" font-size="10.00" fill="#000000">Ticks</text>
</a>
</g>
</g>
<!-- Node5&#45;&gt;Node1 -->
<g id="edge6" class="edge">
<title>Node5&#45;&gt;Node1</title>
<path fill="none" stroke="#9a32cd" stroke-dasharray="5,2" d="M161.0748,-58.0108C157.5135,-51.138 152.8279,-43.6787 147.1314,-38 139.4513,-30.3438 129.2469,-24.1312 120.06,-19.5209"/>
<polygon fill="#9a32cd" stroke="#9a32cd" points="158.0574,-59.8198 165.4748,-67.385 164.3941,-56.8455 158.0574,-59.8198"/>
<text text-anchor="middle" x="180.6314" y="-41" font-family="Helvetica,sans-Serif" font-size="10.00" fill="#000000"> timeStamp</text>
</g>
</g>
</svg>
