<?xml version="1.0" encoding="UTF-8" standalone="no"?>
<!DOCTYPE svg PUBLIC "-//W3C//DTD SVG 1.1//EN"
 "http://www.w3.org/Graphics/SVG/1.1/DTD/svg11.dtd">
<!-- Generated by graphviz version 2.38.0 (20140413.2041)
 -->
<!-- Title: VariableDefinition Pages: 1 -->
<svg width="209pt" height="301pt"
 viewBox="0.00 0.00 209.00 301.00" xmlns="http://www.w3.org/2000/svg" xmlns:xlink="http://www.w3.org/1999/xlink">
<g id="graph0" class="graph" transform="scale(1 1) rotate(0) translate(4 297)">
<title>VariableDefinition</title>
<polygon fill="white" stroke="none" points="-4,4 -4,-297 205,-297 205,4 -4,4"/>
<!-- Node1 -->
<g id="node1" class="node"><title>Node1</title>
<polygon fill="#bfbfbf" stroke="black" points="-7.10543e-15,-0.5 -7.10543e-15,-19.5 93,-19.5 93,-0.5 -7.10543e-15,-0.5"/>
<text text-anchor="middle" x="46.5" y="-7.5" font-family="Helvetica,sans-Serif" font-size="10.00">VariableDefinition</text>
</g>
<!-- Node3 -->
<g id="node2" class="node"><title>Node3</title>
<g id="a_node2"><a xlink:href="classaworx_1_1lib_1_1strings_1_1PreallocatedString.html" target="_top" xlink:title="PreallocatedString\&lt;TCapacity\&gt;">
<polygon fill="white" stroke="black" points="48,-67.5 48,-86.5 201,-86.5 201,-67.5 48,-67.5"/>
<text text-anchor="middle" x="124.5" y="-74.5" font-family="Helvetica,sans-Serif" font-size="10.00">PreallocatedString&lt;TCapacity&gt;</text>
</a>
</g>
</g>
<!-- Node3&#45;&gt;Node1 -->
<g id="edge3" class="edge"><title>Node3&#45;&gt;Node1</title>
<path fill="none" stroke="#9a32cd" stroke-dasharray="5,2" d="M106.156,-60.7134C90.7884,-47.907 69.4061,-30.0884 56.8528,-19.6273"/>
<polygon fill="#9a32cd" stroke="#9a32cd" points="104.058,-63.5207 113.981,-67.2338 108.539,-58.1431 104.058,-63.5207"/>
<text text-anchor="middle" x="136.5" y="-41" font-family="Helvetica,sans-Serif" font-size="10.00"> FormatAttrAlignment</text>
</g>
<!-- Node2 -->
<g id="node3" class="node"><title>Node2</title>
<g id="a_node3"><a xlink:href="classaworx_1_1lib_1_1strings_1_1String.html" target="_top" xlink:title="String">
<polygon fill="white" stroke="black" points="14.5,-273.5 14.5,-292.5 56.5,-292.5 56.5,-273.5 14.5,-273.5"/>
<text text-anchor="middle" x="35.5" y="-280.5" font-family="Helvetica,sans-Serif" font-size="10.00">String</text>
</a>
</g>
</g>
<!-- Node2&#45;&gt;Node1 -->
<g id="edge1" class="edge"><title>Node2&#45;&gt;Node1</title>
<path fill="none" stroke="#9a32cd" stroke-dasharray="5,2" d="M23.9073,-264.267C18.1884,-253.85 12.5,-240.177 12.5,-227 12.5,-227 12.5,-227 12.5,-76 12.5,-53.5859 28.5703,-31.2685 38.6143,-19.509"/>
<polygon fill="#9a32cd" stroke="#9a32cd" points="21.076,-266.352 29.2151,-273.135 27.0823,-262.757 21.076,-266.352"/>
<text text-anchor="middle" x="51" y="-171" font-family="Helvetica,sans-Serif" font-size="10.00"> Category</text>
<text text-anchor="middle" x="51" y="-160" font-family="Helvetica,sans-Serif" font-size="10.00">CategoryFallback</text>
<text text-anchor="middle" x="51" y="-149" font-family="Helvetica,sans-Serif" font-size="10.00">DefaultValue</text>
<text text-anchor="middle" x="51" y="-138" font-family="Helvetica,sans-Serif" font-size="10.00">Name</text>
<text text-anchor="middle" x="51" y="-127" font-family="Helvetica,sans-Serif" font-size="10.00">Comments</text>
</g>
<!-- Node5 -->
<g id="node4" class="node"><title>Node5</title>
<g id="a_node4"><a xlink:href="classaworx_1_1lib_1_1strings_1_1TString.html" target="_top" xlink:title="TString">
<polygon fill="white" stroke="black" points="57.5,-216.5 57.5,-235.5 105.5,-235.5 105.5,-216.5 57.5,-216.5"/>
<text text-anchor="middle" x="81.5" y="-223.5" font-family="Helvetica,sans-Serif" font-size="10.00">TString</text>
</a>
</g>
</g>
<!-- Node2&#45;&gt;Node5 -->
<g id="edge2" class="edge"><title>Node2&#45;&gt;Node5</title>
<path fill="none" stroke="midnightblue" d="M49.2733,-265.532C57.4663,-255.736 67.5318,-243.701 74.2112,-235.715"/>
<polygon fill="midnightblue" stroke="midnightblue" points="46.4183,-263.49 42.6875,-273.406 51.7879,-267.981 46.4183,-263.49"/>
</g>
<!-- Node4 -->
<g id="node5" class="node"><title>Node4</title>
<g id="a_node5"><a xlink:href="classaworx_1_1lib_1_1strings_1_1AString.html" target="_top" xlink:title="AString">
<polygon fill="white" stroke="black" points="108,-142 108,-161 157,-161 157,-142 108,-142"/>
<text text-anchor="middle" x="132.5" y="-149" font-family="Helvetica,sans-Serif" font-size="10.00">AString</text>
</a>
</g>
</g>
<!-- Node5&#45;&gt;Node4 -->
<g id="edge5" class="edge"><title>Node5&#45;&gt;Node4</title>
<path fill="none" stroke="midnightblue" d="M93.3544,-208.148C103.714,-193.421 118.333,-172.639 126.457,-161.09"/>
<polygon fill="midnightblue" stroke="midnightblue" points="90.4415,-206.206 87.5506,-216.399 96.1669,-210.233 90.4415,-206.206"/>
</g>
<!-- Node4&#45;&gt;Node3 -->
<g id="edge4" class="edge"><title>Node4&#45;&gt;Node3</title>
<path fill="none" stroke="midnightblue" d="M130.454,-131.956C128.844,-117.366 126.674,-97.7035 125.448,-86.5902"/>
<polygon fill="midnightblue" stroke="midnightblue" points="126.975,-132.343 131.551,-141.899 133.933,-131.575 126.975,-132.343"/>
</g>
</g>
</svg>
