<?xml version="1.0" encoding="UTF-8" standalone="no"?>
<!DOCTYPE svg PUBLIC "-//W3C//DTD SVG 1.1//EN"
 "http://www.w3.org/Graphics/SVG/1.1/DTD/svg11.dtd">
<!-- Generated by graphviz version 2.38.0 (20140413.2041)
 -->
<!-- Title: Owner Pages: 1 -->
<svg width="151pt" height="230pt"
 viewBox="0.00 0.00 150.50 230.00" xmlns="http://www.w3.org/2000/svg" xmlns:xlink="http://www.w3.org/1999/xlink">
<g id="graph0" class="graph" transform="scale(1 1) rotate(0) translate(4 226)">
<title>Owner</title>
<polygon fill="white" stroke="none" points="-4,4 -4,-226 146.5,-226 146.5,4 -4,4"/>
<!-- Node1 -->
<g id="node1" class="node"><title>Node1</title>
<polygon fill="#bfbfbf" stroke="black" points="5,-0.5 5,-19.5 50,-19.5 50,-0.5 5,-0.5"/>
<text text-anchor="middle" x="27.5" y="-7.5" font-family="Helvetica,sans-Serif" font-size="10.00">Owner</text>
</g>
<!-- Node2 -->
<g id="node2" class="node"><title>Node2</title>
<g id="a_node2"><a xlink:href="classaworx_1_1lib_1_1Ownable.html" target="_top" xlink:title="Ownable">
<polygon fill="white" stroke="black" points="0,-67.5 0,-86.5 55,-86.5 55,-67.5 0,-67.5"/>
<text text-anchor="middle" x="27.5" y="-74.5" font-family="Helvetica,sans-Serif" font-size="10.00">Ownable</text>
</a>
</g>
</g>
<!-- Node2&#45;&gt;Node1 -->
<g id="edge1" class="edge"><title>Node2&#45;&gt;Node1</title>
<path fill="none" stroke="#9a32cd" stroke-dasharray="5,2" d="M27.5,-57.037C27.5,-44.6703 27.5,-29.1198 27.5,-19.6273"/>
<polygon fill="#9a32cd" stroke="#9a32cd" points="24.0001,-57.2338 27.5,-67.2338 31.0001,-57.2338 24.0001,-57.2338"/>
<text text-anchor="middle" x="47.5" y="-41" font-family="Helvetica,sans-Serif" font-size="10.00"> ownable</text>
</g>
<!-- Node3 -->
<g id="node3" class="node"><title>Node3</title>
<g id="a_node3"><a xlink:href="classaworx_1_1lib_1_1strings_1_1TString.html" target="_top" xlink:title="TString">
<polygon fill="white" stroke="black" points="3.5,-145.5 3.5,-164.5 51.5,-164.5 51.5,-145.5 3.5,-145.5"/>
<text text-anchor="middle" x="27.5" y="-152.5" font-family="Helvetica,sans-Serif" font-size="10.00">TString</text>
</a>
</g>
</g>
<!-- Node3&#45;&gt;Node2 -->
<g id="edge2" class="edge"><title>Node3&#45;&gt;Node2</title>
<path fill="none" stroke="#9a32cd" stroke-dasharray="5,2" d="M27.5,-135.224C27.5,-119.697 27.5,-98.3582 27.5,-86.6165"/>
<polygon fill="#9a32cd" stroke="#9a32cd" points="24.0001,-135.282 27.5,-145.282 31.0001,-135.282 24.0001,-135.282"/>
<text text-anchor="middle" x="85" y="-119" font-family="Helvetica,sans-Serif" font-size="10.00"> acquirementMethodName</text>
<text text-anchor="middle" x="85" y="-108" font-family="Helvetica,sans-Serif" font-size="10.00">acquirementSourcefile</text>
</g>
<!-- Node4 -->
<g id="node4" class="node"><title>Node4</title>
<g id="a_node4"><a xlink:href="classaworx_1_1lib_1_1strings_1_1String.html" target="_top" xlink:title="String">
<polygon fill="white" stroke="black" points="6.5,-202.5 6.5,-221.5 48.5,-221.5 48.5,-202.5 6.5,-202.5"/>
<text text-anchor="middle" x="27.5" y="-209.5" font-family="Helvetica,sans-Serif" font-size="10.00">String</text>
</a>
</g>
</g>
<!-- Node4&#45;&gt;Node3 -->
<g id="edge3" class="edge"><title>Node4&#45;&gt;Node3</title>
<path fill="none" stroke="midnightblue" d="M27.5,-192.117C27.5,-182.817 27.5,-172.056 27.5,-164.715"/>
<polygon fill="midnightblue" stroke="midnightblue" points="24.0001,-192.406 27.5,-202.406 31.0001,-192.406 24.0001,-192.406"/>
</g>
</g>
</svg>
