<?xml version="1.0" encoding="UTF-8" standalone="no"?>
<!DOCTYPE svg PUBLIC "-//W3C//DTD SVG 1.1//EN"
 "http://www.w3.org/Graphics/SVG/1.1/DTD/svg11.dtd">
<!-- Generated by graphviz version 2.40.1 (20161225.0304)
 -->
<!-- Title: PropertyFormatterMapApplicable&lt;TFormattable, TOptionEnum&gt; Pages: 1 -->
<svg width="1767pt" height="201pt"
 viewBox="0.00 0.00 1767.00 201.00" xmlns="http://www.w3.org/2000/svg" xmlns:xlink="http://www.w3.org/1999/xlink">
<g id="graph0" class="graph" transform="scale(1 1) rotate(0) translate(4 197)">
<title>PropertyFormatterMapApplicable&lt;TFormattable, TOptionEnum&gt;</title>
<polygon fill="#ffffff" stroke="transparent" points="-4,4 -4,-197 1763,-197 1763,4 -4,4"/>
<!-- Node1 -->
<g id="node1" class="node">
<title>Node1</title>
<polygon fill="#bfbfbf" stroke="#000000" points="1464,-67.5 1464,-86.5 1759,-86.5 1759,-67.5 1464,-67.5"/>
<text text-anchor="middle" x="1611.5" y="-74.5" font-family="Helvetica,sans-Serif" font-size="10.00" fill="#000000">PropertyFormatterMapApplicable&lt;TFormattable, TOptionEnum&gt;</text>
</g>
<!-- Node2 -->
<g id="node2" class="node">
<title>Node2</title>
<g id="a_node2"><a xlink:href="classaworx_1_1lib_1_1strings_1_1format_1_1PropertyFormatters.html" target="_top" xlink:title="PropertyFormatters\&lt;TFormattable, TOptionEnum\&gt;">
<polygon fill="#ffffff" stroke="#000000" points="1128,-67.5 1128,-86.5 1364,-86.5 1364,-67.5 1128,-67.5"/>
<text text-anchor="middle" x="1246" y="-74.5" font-family="Helvetica,sans-Serif" font-size="10.00" fill="#000000">PropertyFormatters&lt;TFormattable, TOptionEnum&gt;</text>
</a>
</g>
</g>
<!-- Node2&#45;&gt;Node1 -->
<g id="edge1" class="edge">
<title>Node2&#45;&gt;Node1</title>
<path fill="none" stroke="#9a32cd" stroke-dasharray="5,2" d="M1374.3209,-77C1403.2921,-77 1434.2716,-77 1463.9622,-77"/>
<polygon fill="#9a32cd" stroke="#9a32cd" points="1374.1627,-73.5001 1364.1626,-77 1374.1626,-80.5001 1374.1627,-73.5001"/>
<text text-anchor="middle" x="1414" y="-80" font-family="Helvetica,sans-Serif" font-size="10.00" fill="#000000"> FormatterMap</text>
</g>
<!-- Node17 -->
<g id="node3" class="node">
<title>Node17</title>
<polygon fill="#ffffff" stroke="#bfbfbf" points="200,-.5 200,-19.5 379,-19.5 379,-.5 200,-.5"/>
<text text-anchor="middle" x="289.5" y="-7.5" font-family="Helvetica,sans-Serif" font-size="10.00" fill="#000000">vector&lt;const TCallbackTableEntry *&gt;</text>
</g>
<!-- Node16 -->
<g id="node5" class="node">
<title>Node16</title>
<g id="a_node5"><a xlink:href="classaworx_1_1lib_1_1strings_1_1format_1_1PropertyFormatter.html" target="_top" xlink:title="PropertyFormatter\&lt;TFormattable\&gt;">
<polygon fill="#ffffff" stroke="#000000" points="474,-55.5 474,-74.5 639,-74.5 639,-55.5 474,-55.5"/>
<text text-anchor="middle" x="556.5" y="-62.5" font-family="Helvetica,sans-Serif" font-size="10.00" fill="#000000">PropertyFormatter&lt;TFormattable&gt;</text>
</a>
</g>
</g>
<!-- Node17&#45;&gt;Node16 -->
<g id="edge12" class="edge">
<title>Node17&#45;&gt;Node16</title>
<path fill="none" stroke="#9a32cd" stroke-dasharray="5,2" d="M389.1708,-19.2579C411.3201,-22.2329 434.577,-26.0778 456,-31 482.7479,-37.1457 512.405,-47.6552 532.5237,-55.367"/>
<polygon fill="#9a32cd" stroke="#9a32cd" points="389.4493,-15.7648 379.0826,-17.9514 388.5502,-22.7068 389.4493,-15.7648"/>
<text text-anchor="middle" x="426.5" y="-34" font-family="Helvetica,sans-Serif" font-size="10.00" fill="#000000"> callBacks</text>
</g>
<!-- Node18 -->
<g id="node4" class="node">
<title>Node18</title>
<polygon fill="#ffffff" stroke="#bfbfbf" points="742,-67.5 742,-86.5 1044,-86.5 1044,-67.5 742,-67.5"/>
<text text-anchor="middle" x="893" y="-74.5" font-family="Helvetica,sans-Serif" font-size="10.00" fill="#000000">map&lt;TOptionEnum, format::PropertyFormatter&lt;TFormattable&gt; *&gt;</text>
</g>
<!-- Node18&#45;&gt;Node2 -->
<g id="edge13" class="edge">
<title>Node18&#45;&gt;Node2</title>
<path fill="none" stroke="#9a32cd" stroke-dasharray="5,2" d="M1054.4359,-77C1079.1708,-77 1104.3032,-77 1127.8709,-77"/>
<polygon fill="#9a32cd" stroke="#9a32cd" points="1054.24,-73.5001 1044.24,-77 1054.2399,-80.5001 1054.24,-73.5001"/>
<text text-anchor="middle" x="1086" y="-80" font-family="Helvetica,sans-Serif" font-size="10.00" fill="#000000"> formatters</text>
</g>
<!-- Node16&#45;&gt;Node2 -->
<g id="edge10" class="edge">
<title>Node16&#45;&gt;Node2</title>
<path fill="none" stroke="#9a32cd" stroke-dasharray="5,2" d="M647.2471,-54.4251C677.3552,-51.3893 711.0767,-48.4968 742,-47 876.0653,-40.5107 910.1423,-37.1143 1044,-47 1096.1528,-50.8516 1155.2664,-60.2241 1196.0062,-67.4768"/>
<polygon fill="#9a32cd" stroke="#9a32cd" points="646.7746,-50.9551 637.1844,-55.4583 647.4896,-57.9185 646.7746,-50.9551"/>
<text text-anchor="middle" x="893" y="-50" font-family="Helvetica,sans-Serif" font-size="10.00" fill="#000000"> callbacks</text>
</g>
<!-- Node16&#45;&gt;Node18 -->
<g id="edge11" class="edge">
<title>Node16&#45;&gt;Node18</title>
<path fill="none" stroke="#9a32cd" stroke-dasharray="5,2" d="M649.6141,-68.3206C678.2207,-69.3407 710.4742,-70.4909 741.9193,-71.6123"/>
<polygon fill="#9a32cd" stroke="#9a32cd" points="649.3666,-64.8096 639.2481,-67.9509 649.117,-71.8052 649.3666,-64.8096"/>
<text text-anchor="middle" x="690.5" y="-73" font-family="Helvetica,sans-Serif" font-size="10.00" fill="#000000"> elements</text>
</g>
<!-- Node3 -->
<g id="node6" class="node">
<title>Node3</title>
<g id="a_node6"><a xlink:href="classaworx_1_1lib_1_1strings_1_1format_1_1Formatter.html" target="_top" xlink:title="[DOX_ALIB_ENUM_META_DATA_SPECIFCATION_using_enum] ">
<polygon fill="#ffffff" stroke="#000000" points="260,-96.5 260,-115.5 319,-115.5 319,-96.5 260,-96.5"/>
<text text-anchor="middle" x="289.5" y="-103.5" font-family="Helvetica,sans-Serif" font-size="10.00" fill="#000000">Formatter</text>
</a>
</g>
</g>
<!-- Node3&#45;&gt;Node2 -->
<g id="edge2" class="edge">
<title>Node3&#45;&gt;Node2</title>
<path fill="none" stroke="#9a32cd" stroke-dasharray="5,2" d="M329.5584,-106.1354C442.1501,-106.372 771.0179,-106.0756 1044,-96 1073.3672,-94.9161 1080.7194,-94.5005 1110,-92 1128.1061,-90.4538 1147.5356,-88.4922 1165.8806,-86.5016"/>
<polygon fill="#9a32cd" stroke="#9a32cd" points="329.355,-102.635 319.3467,-106.1111 329.3383,-109.635 329.355,-102.635"/>
<text text-anchor="middle" x="690.5" y="-107" font-family="Helvetica,sans-Serif" font-size="10.00" fill="#000000"> baseFormatter</text>
</g>
<!-- Node3&#45;&gt;Node16 -->
<g id="edge4" class="edge">
<title>Node3&#45;&gt;Node16</title>
<path fill="none" stroke="#9a32cd" stroke-dasharray="5,2" d="M329.0373,-99.9287C372.658,-93.2304 443.4276,-82.3632 494.4529,-74.5278"/>
<polygon fill="#9a32cd" stroke="#9a32cd" points="328.4467,-96.4783 319.0938,-101.4556 329.5092,-103.3972 328.4467,-96.4783"/>
<text text-anchor="middle" x="426.5" y="-92" font-family="Helvetica,sans-Serif" font-size="10.00" fill="#000000"> theFormatter</text>
</g>
<!-- Node3&#45;&gt;Node3 -->
<g id="edge3" class="edge">
<title>Node3&#45;&gt;Node3</title>
<path fill="none" stroke="#9a32cd" stroke-dasharray="5,2" d="M264.2025,-125.0292C265.5824,-130.128 274.0149,-134 289.5,-134 313.6719,-134 320.6591,-124.5653 310.4615,-115.7571"/>
<polygon fill="#9a32cd" stroke="#9a32cd" points="267.4728,-126.2982 268.5385,-115.7571 261.1319,-123.3329 267.4728,-126.2982"/>
<text text-anchor="middle" x="289.5" y="-148" font-family="Helvetica,sans-Serif" font-size="10.00" fill="#000000"> Next</text>
<text text-anchor="middle" x="289.5" y="-137" font-family="Helvetica,sans-Serif" font-size="10.00" fill="#000000">defaultFormatter</text>
</g>
<!-- Node4 -->
<g id="node7" class="node">
<title>Node4</title>
<g id="a_node7"><a xlink:href="classaworx_1_1lib_1_1strings_1_1AString.html" target="_top" xlink:title="AString">
<polygon fill="#ffffff" stroke="#ff0000" points="9.5,-61.5 9.5,-80.5 58.5,-80.5 58.5,-61.5 9.5,-61.5"/>
<text text-anchor="middle" x="34" y="-68.5" font-family="Helvetica,sans-Serif" font-size="10.00" fill="#000000">AString</text>
</a>
</g>
</g>
<!-- Node4&#45;&gt;Node16 -->
<g id="edge6" class="edge">
<title>Node4&#45;&gt;Node16</title>
<path fill="none" stroke="#9a32cd" stroke-dasharray="5,2" d="M68.9606,-69.3692C102.5474,-67.8894 154.7291,-65.8179 200,-65 293.7516,-63.3062 401.3941,-63.6172 473.6523,-64.1533"/>
<polygon fill="#9a32cd" stroke="#9a32cd" points="68.575,-65.8829 58.7415,-69.8266 68.888,-72.8759 68.575,-65.8829"/>
<text text-anchor="middle" x="289.5" y="-79" font-family="Helvetica,sans-Serif" font-size="10.00" fill="#000000"> propertyFormatString</text>
<text text-anchor="middle" x="289.5" y="-68" font-family="Helvetica,sans-Serif" font-size="10.00" fill="#000000">formatString</text>
</g>
<!-- Node4&#45;&gt;Node3 -->
<g id="edge5" class="edge">
<title>Node4&#45;&gt;Node3</title>
<path fill="none" stroke="#9a32cd" stroke-dasharray="5,2" d="M69.0943,-75.8074C119.7029,-82.7401 212.2945,-95.4239 259.7428,-101.9237"/>
<polygon fill="#9a32cd" stroke="#9a32cd" points="69.3461,-72.3093 58.9636,-74.4197 68.396,-79.2446 69.3461,-72.3093"/>
<text text-anchor="middle" x="134" y="-93" font-family="Helvetica,sans-Serif" font-size="10.00" fill="#000000"> mbsFormatString</text>
</g>
<!-- Node7 -->
<g id="node8" class="node">
<title>Node7</title>
<g id="a_node8"><a xlink:href="classaworx_1_1lib_1_1threads_1_1ThreadLock.html" target="_top" xlink:title="ThreadLock">
<polygon fill="#ffffff" stroke="#ff0000" points="0,-113.5 0,-132.5 68,-132.5 68,-113.5 0,-113.5"/>
<text text-anchor="middle" x="34" y="-120.5" font-family="Helvetica,sans-Serif" font-size="10.00" fill="#000000">ThreadLock</text>
</a>
</g>
</g>
<!-- Node7&#45;&gt;Node3 -->
<g id="edge7" class="edge">
<title>Node7&#45;&gt;Node3</title>
<path fill="none" stroke="#9a32cd" stroke-dasharray="5,2" d="M78.4606,-120.0418C130.5081,-116.5787 215.252,-110.9402 259.8705,-107.9714"/>
<polygon fill="#9a32cd" stroke="#9a32cd" points="77.9383,-116.5687 68.1928,-120.7249 78.4031,-123.5532 77.9383,-116.5687"/>
<text text-anchor="middle" x="134" y="-122" font-family="Helvetica,sans-Serif" font-size="10.00" fill="#000000"> defaultFormatterLock</text>
</g>
<!-- Node13 -->
<g id="node9" class="node">
<title>Node13</title>
<g id="a_node9"><a xlink:href="classaworx_1_1lib_1_1boxing_1_1Boxes.html" target="_top" xlink:title="Boxes">
<polygon fill="#ffffff" stroke="#ff0000" points="12,-153.5 12,-172.5 56,-172.5 56,-153.5 12,-153.5"/>
<text text-anchor="middle" x="34" y="-160.5" font-family="Helvetica,sans-Serif" font-size="10.00" fill="#000000">Boxes</text>
</a>
</g>
</g>
<!-- Node13&#45;&gt;Node16 -->
<g id="edge9" class="edge">
<title>Node13&#45;&gt;Node16</title>
<path fill="none" stroke="#9a32cd" stroke-dasharray="5,2" d="M66.2738,-168.8114C128.2125,-178.7447 267.4989,-195.1568 379,-165 447.2864,-146.5311 517.2127,-95.8847 544.5378,-74.6107"/>
<polygon fill="#9a32cd" stroke="#9a32cd" points="66.7586,-165.3441 56.3211,-167.1628 65.6146,-172.25 66.7586,-165.3441"/>
<text text-anchor="middle" x="289.5" y="-185" font-family="Helvetica,sans-Serif" font-size="10.00" fill="#000000"> results</text>
</g>
<!-- Node13&#45;&gt;Node3 -->
<g id="edge8" class="edge">
<title>Node13&#45;&gt;Node3</title>
<path fill="none" stroke="#9a32cd" stroke-dasharray="5,2" d="M66.0796,-157.3009C96.1381,-151.8222 142.266,-143.0586 182,-134 208.5128,-127.9556 238.4313,-120.0754 259.961,-114.2153"/>
<polygon fill="#9a32cd" stroke="#9a32cd" points="65.3715,-153.8721 56.1545,-159.0969 66.618,-160.7602 65.3715,-153.8721"/>
<text text-anchor="middle" x="134" y="-156" font-family="Helvetica,sans-Serif" font-size="10.00" fill="#000000"> boxes</text>
</g>
</g>
</svg>
