<?xml version="1.0" encoding="UTF-8" standalone="no"?>
<!DOCTYPE svg PUBLIC "-//W3C//DTD SVG 1.1//EN"
 "http://www.w3.org/Graphics/SVG/1.1/DTD/svg11.dtd">
<!-- Generated by graphviz version 2.40.1 (20161225.0304)
 -->
<!-- Title: substring.hpp Pages: 1 -->
<svg width="1412pt" height="532pt"
 viewBox="0.00 0.00 1411.92 532.00" xmlns="http://www.w3.org/2000/svg" xmlns:xlink="http://www.w3.org/1999/xlink">
<g id="graph0" class="graph" transform="scale(1 1) rotate(0) translate(4 528)">
<title>substring.hpp</title>
<polygon fill="#ffffff" stroke="transparent" points="-4,4 -4,-528 1407.9189,-528 1407.9189,4 -4,4"/>
<!-- Node1 -->
<g id="node1" class="node">
<title>Node1</title>
<polygon fill="#bfbfbf" stroke="#000000" points="544.9189,-504.5 544.9189,-523.5 619.9189,-523.5 619.9189,-504.5 544.9189,-504.5"/>
<text text-anchor="middle" x="582.4189" y="-511.5" font-family="Helvetica,sans-Serif" font-size="10.00" fill="#000000">substring.hpp</text>
</g>
<!-- Node2 -->
<g id="node2" class="node">
<title>Node2</title>
<g id="a_node2"><a xlink:href="configuration_8hpp.html" target="_top" xlink:title="configuration.hpp">
<polygon fill="#ffffff" stroke="#000000" points="414.9189,-336.5 414.9189,-355.5 505.9189,-355.5 505.9189,-336.5 414.9189,-336.5"/>
<text text-anchor="middle" x="460.4189" y="-343.5" font-family="Helvetica,sans-Serif" font-size="10.00" fill="#000000">configuration.hpp</text>
</a>
</g>
</g>
<!-- Node1&#45;&gt;Node2 -->
<g id="edge1" class="edge">
<title>Node1&#45;&gt;Node2</title>
<path fill="none" stroke="#191970" d="M570.3536,-495.8626C554.2102,-471.7885 524.4728,-428.113 497.4189,-392 487.8329,-379.2041 476.1903,-364.9216 468.5573,-355.716"/>
<polygon fill="#191970" stroke="#191970" points="567.5593,-497.9804 576.0257,-504.3499 573.3793,-494.0909 567.5593,-497.9804"/>
</g>
<!-- Node20 -->
<g id="node3" class="node">
<title>Node20</title>
<g id="a_node3"><a xlink:href="plugins_8hpp.html" target="_top" xlink:title="plugins.hpp">
<polygon fill="#ffffff" stroke="#000000" points="456.4189,-448.5 456.4189,-467.5 522.4189,-467.5 522.4189,-448.5 456.4189,-448.5"/>
<text text-anchor="middle" x="489.4189" y="-455.5" font-family="Helvetica,sans-Serif" font-size="10.00" fill="#000000">plugins.hpp</text>
</a>
</g>
</g>
<!-- Node1&#45;&gt;Node20 -->
<g id="edge2" class="edge">
<title>Node1&#45;&gt;Node20</title>
<path fill="none" stroke="#191970" d="M557.5854,-499.0465C541.0378,-489.0824 519.7757,-476.2794 505.4326,-467.6427"/>
<polygon fill="#191970" stroke="#191970" points="555.8472,-502.0854 566.2195,-504.2455 559.4582,-496.0886 555.8472,-502.0854"/>
</g>
<!-- Node23 -->
<g id="node4" class="node">
<title>Node23</title>
<g id="a_node4"><a xlink:href="pathmap_8hpp.html" target="_top" xlink:title="pathmap.hpp">
<polygon fill="#ffffff" stroke="#000000" points="708.9189,-448.5 708.9189,-467.5 781.9189,-467.5 781.9189,-448.5 708.9189,-448.5"/>
<text text-anchor="middle" x="745.4189" y="-455.5" font-family="Helvetica,sans-Serif" font-size="10.00" fill="#000000">pathmap.hpp</text>
</a>
</g>
</g>
<!-- Node1&#45;&gt;Node23 -->
<g id="edge3" class="edge">
<title>Node1&#45;&gt;Node23</title>
<path fill="none" stroke="#191970" d="M620.0922,-501.057C649.9231,-490.8084 690.9041,-476.729 717.7638,-467.5011"/>
<polygon fill="#191970" stroke="#191970" points="618.7598,-497.8139 610.4396,-504.3733 621.0342,-504.4341 618.7598,-497.8139"/>
</g>
<!-- Node24 -->
<g id="node5" class="node">
<title>Node24</title>
<g id="a_node5"><a xlink:href="formatter_8hpp.html" target="_top" xlink:title="formatter.hpp">
<polygon fill="#ffffff" stroke="#000000" points="578.4189,-448.5 578.4189,-467.5 652.4189,-467.5 652.4189,-448.5 578.4189,-448.5"/>
<text text-anchor="middle" x="615.4189" y="-455.5" font-family="Helvetica,sans-Serif" font-size="10.00" fill="#000000">formatter.hpp</text>
</a>
</g>
</g>
<!-- Node1&#45;&gt;Node24 -->
<g id="edge4" class="edge">
<title>Node1&#45;&gt;Node24</title>
<path fill="none" stroke="#191970" d="M593.2443,-495.6296C598.7488,-486.2887 605.2126,-475.3197 609.7366,-467.6427"/>
<polygon fill="#191970" stroke="#191970" points="590.2286,-493.8532 588.167,-504.2455 596.2594,-497.4071 590.2286,-493.8532"/>
</g>
<!-- Node28 -->
<g id="node6" class="node">
<title>Node28</title>
<g id="a_node6"><a xlink:href="tokenizer_8hpp.html" target="_top" xlink:title="tokenizer.hpp">
<polygon fill="#ffffff" stroke="#000000" points="276.4189,-392.5 276.4189,-411.5 350.4189,-411.5 350.4189,-392.5 276.4189,-392.5"/>
<text text-anchor="middle" x="313.4189" y="-399.5" font-family="Helvetica,sans-Serif" font-size="10.00" fill="#000000">tokenizer.hpp</text>
</a>
</g>
</g>
<!-- Node1&#45;&gt;Node28 -->
<g id="edge5" class="edge">
<title>Node1&#45;&gt;Node28</title>
<path fill="none" stroke="#191970" d="M540.7476,-501.3387C513.7993,-492.7757 478.1457,-480.7394 447.4189,-468 404.7784,-450.3211 356.6512,-425.3186 331.2823,-411.7239"/>
<polygon fill="#191970" stroke="#191970" points="540.0317,-504.7825 550.6212,-504.4447 542.1324,-498.1051 540.0317,-504.7825"/>
</g>
<!-- Node29 -->
<g id="node7" class="node">
<title>Node29</title>
<g id="a_node7"><a xlink:href="ticks_8hpp.html" target="_top" xlink:title="ticks.hpp">
<polygon fill="#ffffff" stroke="#000000" points="1106.4189,-280.5 1106.4189,-299.5 1162.4189,-299.5 1162.4189,-280.5 1106.4189,-280.5"/>
<text text-anchor="middle" x="1134.4189" y="-287.5" font-family="Helvetica,sans-Serif" font-size="10.00" fill="#000000">ticks.hpp</text>
</a>
</g>
</g>
<!-- Node1&#45;&gt;Node29 -->
<g id="edge6" class="edge">
<title>Node1&#45;&gt;Node29</title>
<path fill="none" stroke="#191970" d="M607.4643,-499.3659C636.3907,-482.576 682.3179,-456.2918 700.4189,-448 849.1354,-379.8753 1036.4292,-319.9928 1106.3813,-298.4763"/>
<polygon fill="#191970" stroke="#191970" points="605.6107,-496.395 598.7268,-504.4487 609.1306,-502.4457 605.6107,-496.395"/>
</g>
<!-- Node3 -->
<g id="node8" class="node">
<title>Node3</title>
<g id="a_node8"><a xlink:href="alox_8hpp.html" target="_top" xlink:title="alox.hpp">
<polygon fill="#ffffff" stroke="#000000" points="433.9189,-280.5 433.9189,-299.5 486.9189,-299.5 486.9189,-280.5 433.9189,-280.5"/>
<text text-anchor="middle" x="460.4189" y="-287.5" font-family="Helvetica,sans-Serif" font-size="10.00" fill="#000000">alox.hpp</text>
</a>
</g>
</g>
<!-- Node2&#45;&gt;Node3 -->
<g id="edge7" class="edge">
<title>Node2&#45;&gt;Node3</title>
<path fill="none" stroke="#191970" d="M460.4189,-326.1575C460.4189,-317.155 460.4189,-306.9199 460.4189,-299.6427"/>
<polygon fill="#191970" stroke="#191970" points="456.919,-326.2455 460.4189,-336.2455 463.919,-326.2456 456.919,-326.2455"/>
</g>
<!-- Node5 -->
<g id="node9" class="node">
<title>Node5</title>
<g id="a_node9"><a xlink:href="lox_8hpp.html" target="_top" xlink:title="lox.hpp">
<polygon fill="#ffffff" stroke="#000000" points="106.4189,-168.5 106.4189,-187.5 154.4189,-187.5 154.4189,-168.5 106.4189,-168.5"/>
<text text-anchor="middle" x="130.4189" y="-175.5" font-family="Helvetica,sans-Serif" font-size="10.00" fill="#000000">lox.hpp</text>
</a>
</g>
</g>
<!-- Node2&#45;&gt;Node5 -->
<g id="edge8" class="edge">
<title>Node2&#45;&gt;Node5</title>
<path fill="none" stroke="#191970" d="M404.7212,-335.1162C288.244,-312.0973 28.6293,-259.3336 16.4189,-244 -10.6488,-210.009 65.2581,-190.1178 106.1968,-182.1207"/>
<polygon fill="#191970" stroke="#191970" points="404.3772,-338.6157 414.8655,-337.1173 405.732,-331.7481 404.3772,-338.6157"/>
</g>
<!-- Node20&#45;&gt;Node2 -->
<g id="edge44" class="edge">
<title>Node20&#45;&gt;Node2</title>
<path fill="none" stroke="#191970" d="M488.6002,-438.0864C487.6686,-424.825 485.677,-407.1238 481.4189,-392 477.7073,-378.8174 470.7211,-364.6195 465.8295,-355.539"/>
<polygon fill="#191970" stroke="#191970" points="485.1251,-438.6314 489.1763,-448.4211 492.1142,-438.2418 485.1251,-438.6314"/>
</g>
<!-- Node21 -->
<g id="node25" class="node">
<title>Node21</title>
<g id="a_node25"><a xlink:href="inmemoryplugin_8hpp.html" target="_top" xlink:title="inmemoryplugin.hpp">
<polygon fill="#ffffff" stroke="#000000" points="368.4189,-392.5 368.4189,-411.5 472.4189,-411.5 472.4189,-392.5 368.4189,-392.5"/>
<text text-anchor="middle" x="420.4189" y="-399.5" font-family="Helvetica,sans-Serif" font-size="10.00" fill="#000000">inmemoryplugin.hpp</text>
</a>
</g>
</g>
<!-- Node20&#45;&gt;Node21 -->
<g id="edge45" class="edge">
<title>Node20&#45;&gt;Node21</title>
<path fill="none" stroke="#191970" d="M469.6159,-441.928C457.5553,-432.1397 442.5475,-419.9595 432.3,-411.6427"/>
<polygon fill="#191970" stroke="#191970" points="467.4298,-444.6614 477.4,-448.2455 471.841,-439.2262 467.4298,-444.6614"/>
</g>
<!-- Node25 -->
<g id="node27" class="node">
<title>Node25</title>
<g id="a_node27"><a xlink:href="formatterstdimpl_8hpp.html" target="_top" xlink:title="formatterstdimpl.hpp">
<polygon fill="#ffffff" stroke="#000000" points="818.4189,-280.5 818.4189,-299.5 924.4189,-299.5 924.4189,-280.5 818.4189,-280.5"/>
<text text-anchor="middle" x="871.4189" y="-287.5" font-family="Helvetica,sans-Serif" font-size="10.00" fill="#000000">formatterstdimpl.hpp</text>
</a>
</g>
</g>
<!-- Node24&#45;&gt;Node25 -->
<g id="edge48" class="edge">
<title>Node24&#45;&gt;Node25</title>
<path fill="none" stroke="#191970" d="M617.9842,-438.4281C622.6235,-411.2104 635.0334,-362.3171 666.4189,-336 689.0582,-317.0166 765.1372,-303.6383 817.9554,-296.3731"/>
<polygon fill="#191970" stroke="#191970" points="614.522,-437.9156 616.4799,-448.328 621.4426,-438.9673 614.522,-437.9156"/>
</g>
<!-- Node28&#45;&gt;Node2 -->
<g id="edge53" class="edge">
<title>Node28&#45;&gt;Node2</title>
<path fill="none" stroke="#191970" d="M348.0983,-388.7888C374.9387,-378.5639 411.4659,-364.6488 435.4784,-355.5011"/>
<polygon fill="#191970" stroke="#191970" points="346.788,-385.5425 338.6891,-392.3733 349.28,-392.0839 346.788,-385.5425"/>
</g>
<!-- Node28&#45;&gt;Node5 -->
<g id="edge54" class="edge">
<title>Node28&#45;&gt;Node5</title>
<path fill="none" stroke="#191970" d="M266.2947,-393.4573C195.5591,-377.8189 64.1872,-337.2009 7.4189,-244 -16.7226,-204.3651 64.0814,-187.0958 106.3316,-180.9098"/>
<polygon fill="#191970" stroke="#191970" points="265.7648,-396.9229 276.275,-395.5866 267.2254,-390.077 265.7648,-396.9229"/>
</g>
<!-- Node19 -->
<g id="node24" class="node">
<title>Node19</title>
<g id="a_node24"><a xlink:href="scopeinfo_8hpp.html" target="_top" xlink:title="scopeinfo.hpp">
<polygon fill="#ffffff" stroke="#000000" points="604.9189,-224.5 604.9189,-243.5 681.9189,-243.5 681.9189,-224.5 604.9189,-224.5"/>
<text text-anchor="middle" x="643.4189" y="-231.5" font-family="Helvetica,sans-Serif" font-size="10.00" fill="#000000">scopeinfo.hpp</text>
</a>
</g>
</g>
<!-- Node29&#45;&gt;Node19 -->
<g id="edge55" class="edge">
<title>Node29&#45;&gt;Node19</title>
<path fill="none" stroke="#191970" d="M1096.046,-285.6235C1004.429,-275.1743 773.7413,-248.8637 681.9572,-238.3954"/>
<polygon fill="#191970" stroke="#191970" points="1095.9248,-289.1322 1106.2571,-286.7881 1096.7181,-282.1773 1095.9248,-289.1322"/>
</g>
<!-- Node30 -->
<g id="node30" class="node">
<title>Node30</title>
<g id="a_node30"><a xlink:href="calendartime_8hpp.html" target="_top" xlink:title="calendartime.hpp">
<polygon fill="#ffffff" stroke="#000000" points="1088.9189,-224.5 1088.9189,-243.5 1179.9189,-243.5 1179.9189,-224.5 1088.9189,-224.5"/>
<text text-anchor="middle" x="1134.4189" y="-231.5" font-family="Helvetica,sans-Serif" font-size="10.00" fill="#000000">calendartime.hpp</text>
</a>
</g>
</g>
<!-- Node29&#45;&gt;Node30 -->
<g id="edge56" class="edge">
<title>Node29&#45;&gt;Node30</title>
<path fill="none" stroke="#191970" d="M1134.4189,-270.1575C1134.4189,-261.155 1134.4189,-250.9199 1134.4189,-243.6427"/>
<polygon fill="#191970" stroke="#191970" points="1130.919,-270.2455 1134.4189,-280.2455 1137.919,-270.2456 1130.919,-270.2455"/>
</g>
<!-- Node31 -->
<g id="node31" class="node">
<title>Node31</title>
<g id="a_node31"><a xlink:href="tickspan_8hpp.html" target="_top" xlink:title="tickspan.hpp">
<polygon fill="#ffffff" stroke="#000000" points="1236.4189,-224.5 1236.4189,-243.5 1308.4189,-243.5 1308.4189,-224.5 1236.4189,-224.5"/>
<text text-anchor="middle" x="1272.4189" y="-231.5" font-family="Helvetica,sans-Serif" font-size="10.00" fill="#000000">tickspan.hpp</text>
</a>
</g>
</g>
<!-- Node29&#45;&gt;Node31 -->
<g id="edge57" class="edge">
<title>Node29&#45;&gt;Node31</title>
<path fill="none" stroke="#191970" d="M1167.6402,-276.5189C1192.7729,-266.3201 1226.6607,-252.5685 1249.0054,-243.5011"/>
<polygon fill="#191970" stroke="#191970" points="1166.092,-273.3699 1158.1419,-280.3733 1168.7241,-279.8562 1166.092,-273.3699"/>
</g>
<!-- Node32 -->
<g id="node32" class="node">
<title>Node32</title>
<g id="a_node32"><a xlink:href="tickwatch_8hpp.html" target="_top" xlink:title="tickwatch.hpp">
<polygon fill="#ffffff" stroke="#000000" points="1326.9189,-224.5 1326.9189,-243.5 1403.9189,-243.5 1403.9189,-224.5 1326.9189,-224.5"/>
<text text-anchor="middle" x="1365.4189" y="-231.5" font-family="Helvetica,sans-Serif" font-size="10.00" fill="#000000">tickwatch.hpp</text>
</a>
</g>
</g>
<!-- Node29&#45;&gt;Node32 -->
<g id="edge58" class="edge">
<title>Node29&#45;&gt;Node32</title>
<path fill="none" stroke="#191970" d="M1172.476,-280.774C1215.1486,-270.4292 1283.9727,-253.7445 1326.8522,-243.3495"/>
<polygon fill="#191970" stroke="#191970" points="1171.6379,-277.3757 1162.744,-283.1333 1173.2871,-284.1787 1171.6379,-277.3757"/>
</g>
<!-- Node3&#45;&gt;Node5 -->
<g id="edge10" class="edge">
<title>Node3&#45;&gt;Node5</title>
<path fill="none" stroke="#191970" d="M423.2943,-288.9768C350.0276,-286.1835 191.0379,-276.3248 149.4189,-244 131.528,-230.1044 124.9236,-202.6081 125.8343,-187.8729"/>
<polygon fill="#191970" stroke="#191970" points="423.3395,-292.4805 433.458,-289.3395 423.5892,-285.485 423.3395,-292.4805"/>
</g>
<!-- Node4 -->
<g id="node10" class="node">
<title>Node4</title>
<g id="a_node10"><a xlink:href="log_8hpp.html" target="_top" xlink:title="log.hpp">
<polygon fill="#ffffff" stroke="#000000" points="462.4189,-224.5 462.4189,-243.5 510.4189,-243.5 510.4189,-224.5 462.4189,-224.5"/>
<text text-anchor="middle" x="486.4189" y="-231.5" font-family="Helvetica,sans-Serif" font-size="10.00" fill="#000000">log.hpp</text>
</a>
</g>
</g>
<!-- Node3&#45;&gt;Node4 -->
<g id="edge9" class="edge">
<title>Node3&#45;&gt;Node4</title>
<path fill="none" stroke="#191970" d="M462.9086,-270.7493C466.5029,-261.6064 471.7913,-251.0798 476.6968,-243.6427"/>
<polygon fill="#191970" stroke="#191970" points="459.5852,-269.6511 459.6809,-280.2455 466.2129,-271.9038 459.5852,-269.6511"/>
</g>
<!-- Node6 -->
<g id="node11" class="node">
<title>Node6</title>
<g id="a_node11"><a xlink:href="alox__console__loggers_8hpp.html" target="_top" xlink:title="alox_console_loggers.hpp">
<polygon fill="#ffffff" stroke="#000000" points="645.9189,-.5 645.9189,-19.5 774.9189,-19.5 774.9189,-.5 645.9189,-.5"/>
<text text-anchor="middle" x="710.4189" y="-7.5" font-family="Helvetica,sans-Serif" font-size="10.00" fill="#000000">alox_console_loggers.hpp</text>
</a>
</g>
</g>
<!-- Node3&#45;&gt;Node6 -->
<g id="edge11" class="edge">
<title>Node3&#45;&gt;Node6</title>
<path fill="none" stroke="#191970" d="M497.4562,-287.2548C555.3556,-282.2226 663.5788,-269.6013 691.4189,-244 713.8876,-223.3382 710.4189,-208.5246 710.4189,-178 710.4189,-178 710.4189,-178 710.4189,-122 710.4189,-84.0833 710.4189,-38.9462 710.4189,-19.5884"/>
<polygon fill="#191970" stroke="#191970" points="496.9349,-283.7861 487.2615,-288.1075 497.5185,-290.7617 496.9349,-283.7861"/>
</g>
<!-- Node7 -->
<g id="node12" class="node">
<title>Node7</title>
<g id="a_node12"><a xlink:href="domain_8hpp.html" target="_top" xlink:title="domain.hpp">
<polygon fill="#ffffff" stroke="#000000" points="25.9189,-224.5 25.9189,-243.5 92.9189,-243.5 92.9189,-224.5 25.9189,-224.5"/>
<text text-anchor="middle" x="59.4189" y="-231.5" font-family="Helvetica,sans-Serif" font-size="10.00" fill="#000000">domain.hpp</text>
</a>
</g>
</g>
<!-- Node3&#45;&gt;Node7 -->
<g id="edge12" class="edge">
<title>Node3&#45;&gt;Node7</title>
<path fill="none" stroke="#191970" d="M423.6999,-286.1436C359.3917,-279.1828 222.2907,-263.4216 107.4189,-244 102.7187,-243.2053 97.778,-242.2798 92.9269,-241.3187"/>
<polygon fill="#191970" stroke="#191970" points="423.4301,-289.6347 433.7469,-287.2234 424.1782,-282.6747 423.4301,-289.6347"/>
</g>
<!-- Node8 -->
<g id="node13" class="node">
<title>Node8</title>
<g id="a_node13"><a xlink:href="logger_8hpp.html" target="_top" xlink:title="logger.hpp">
<polygon fill="#ffffff" stroke="#000000" points="268.9189,-224.5 268.9189,-243.5 329.9189,-243.5 329.9189,-224.5 268.9189,-224.5"/>
<text text-anchor="middle" x="299.4189" y="-231.5" font-family="Helvetica,sans-Serif" font-size="10.00" fill="#000000">logger.hpp</text>
</a>
</g>
</g>
<!-- Node3&#45;&gt;Node8 -->
<g id="edge13" class="edge">
<title>Node3&#45;&gt;Node8</title>
<path fill="none" stroke="#191970" d="M424.3073,-277.4394C394.8002,-267.1761 353.7171,-252.8863 326.8529,-243.5423"/>
<polygon fill="#191970" stroke="#191970" points="423.2382,-280.7732 433.833,-280.7527 425.5379,-274.1617 423.2382,-280.7732"/>
</g>
<!-- Node9 -->
<g id="node14" class="node">
<title>Node9</title>
<g id="a_node14"><a xlink:href="textlogger_8hpp.html" target="_top" xlink:title="textlogger.hpp">
<polygon fill="#ffffff" stroke="#000000" points="804.9189,-168.5 804.9189,-187.5 881.9189,-187.5 881.9189,-168.5 804.9189,-168.5"/>
<text text-anchor="middle" x="843.4189" y="-175.5" font-family="Helvetica,sans-Serif" font-size="10.00" fill="#000000">textlogger.hpp</text>
</a>
</g>
</g>
<!-- Node3&#45;&gt;Node9 -->
<g id="edge14" class="edge">
<title>Node3&#45;&gt;Node9</title>
<path fill="none" stroke="#191970" d="M497.1753,-286.8394C566.8786,-280.4486 715.4978,-264.8093 762.4189,-244 792.9299,-230.4685 821.426,-202.2928 835.0417,-187.5144"/>
<polygon fill="#191970" stroke="#191970" points="496.7339,-283.3649 487.0891,-287.7499 497.3633,-290.3366 496.7339,-283.3649"/>
</g>
<!-- Node10 -->
<g id="node15" class="node">
<title>Node10</title>
<g id="a_node15"><a xlink:href="plaintextlogger_8hpp.html" target="_top" xlink:title="plaintextlogger.hpp">
<polygon fill="#ffffff" stroke="#000000" points="412.4189,-112.5 412.4189,-131.5 510.4189,-131.5 510.4189,-112.5 412.4189,-112.5"/>
<text text-anchor="middle" x="461.4189" y="-119.5" font-family="Helvetica,sans-Serif" font-size="10.00" fill="#000000">plaintextlogger.hpp</text>
</a>
</g>
</g>
<!-- Node3&#45;&gt;Node10 -->
<g id="edge15" class="edge">
<title>Node3&#45;&gt;Node10</title>
<path fill="none" stroke="#191970" d="M456.7372,-270.2065C455.407,-262.1132 454.0724,-252.639 453.4189,-244 450.2645,-202.3038 456.7023,-152.5349 459.8373,-131.8093"/>
<polygon fill="#191970" stroke="#191970" points="453.3111,-270.9326 458.4842,-280.1787 460.2061,-269.7247 453.3111,-270.9326"/>
</g>
<!-- Node11 -->
<g id="node16" class="node">
<title>Node11</title>
<g id="a_node16"><a xlink:href="consolelogger_8hpp.html" target="_top" xlink:title="consolelogger.hpp">
<polygon fill="#ffffff" stroke="#000000" points="238.9189,-56.5 238.9189,-75.5 333.9189,-75.5 333.9189,-56.5 238.9189,-56.5"/>
<text text-anchor="middle" x="286.4189" y="-63.5" font-family="Helvetica,sans-Serif" font-size="10.00" fill="#000000">consolelogger.hpp</text>
</a>
</g>
</g>
<!-- Node3&#45;&gt;Node11 -->
<g id="edge16" class="edge">
<title>Node3&#45;&gt;Node11</title>
<path fill="none" stroke="#191970" d="M423.5528,-288.952C321.9332,-285.6858 43.517,-274.0507 16.4189,-244 -59.1555,-160.1913 150.3925,-98.2567 243.921,-75.5126"/>
<polygon fill="#191970" stroke="#191970" points="423.5538,-292.4536 433.6583,-289.2677 423.7725,-285.457 423.5538,-292.4536"/>
</g>
<!-- Node12 -->
<g id="node17" class="node">
<title>Node12</title>
<g id="a_node17"><a xlink:href="memorylogger_8hpp.html" target="_top" xlink:title="memorylogger.hpp">
<polygon fill="#ffffff" stroke="#000000" points="352.4189,-56.5 352.4189,-75.5 448.4189,-75.5 448.4189,-56.5 352.4189,-56.5"/>
<text text-anchor="middle" x="400.4189" y="-63.5" font-family="Helvetica,sans-Serif" font-size="10.00" fill="#000000">memorylogger.hpp</text>
</a>
</g>
</g>
<!-- Node3&#45;&gt;Node12 -->
<g id="edge17" class="edge">
<title>Node3&#45;&gt;Node12</title>
<path fill="none" stroke="#191970" d="M451.4042,-270.9257C438.1147,-241.7559 413.7279,-183.9692 403.4189,-132 399.4909,-112.1983 399.5459,-88.4287 399.9639,-75.5064"/>
<polygon fill="#191970" stroke="#191970" points="448.3735,-272.7104 455.7516,-280.3139 454.7256,-269.7689 448.3735,-272.7104"/>
</g>
<!-- Node13 -->
<g id="node18" class="node">
<title>Node13</title>
<g id="a_node18"><a xlink:href="textfilelogger_8hpp.html" target="_top" xlink:title="textfilelogger.hpp">
<polygon fill="#ffffff" stroke="#000000" points="466.4189,-56.5 466.4189,-75.5 556.4189,-75.5 556.4189,-56.5 466.4189,-56.5"/>
<text text-anchor="middle" x="511.4189" y="-63.5" font-family="Helvetica,sans-Serif" font-size="10.00" fill="#000000">textfilelogger.hpp</text>
</a>
</g>
</g>
<!-- Node3&#45;&gt;Node13 -->
<g id="edge18" class="edge">
<title>Node3&#45;&gt;Node13</title>
<path fill="none" stroke="#191970" d="M489.2504,-275.1908C500.8667,-267.5771 513.0148,-257.1135 519.4189,-244 547.9255,-185.6275 524.2802,-103.2439 514.8622,-75.5221"/>
<polygon fill="#191970" stroke="#191970" points="487.309,-272.2748 480.575,-280.4543 490.94,-278.2595 487.309,-272.2748"/>
</g>
<!-- Node14 -->
<g id="node19" class="node">
<title>Node14</title>
<g id="a_node19"><a xlink:href="vstudiologger_8hpp.html" target="_top" xlink:title="vstudiologger.hpp">
<polygon fill="#ffffff" stroke="#000000" points="574.4189,-56.5 574.4189,-75.5 666.4189,-75.5 666.4189,-56.5 574.4189,-56.5"/>
<text text-anchor="middle" x="620.4189" y="-63.5" font-family="Helvetica,sans-Serif" font-size="10.00" fill="#000000">vstudiologger.hpp</text>
</a>
</g>
</g>
<!-- Node3&#45;&gt;Node14 -->
<g id="edge19" class="edge">
<title>Node3&#45;&gt;Node14</title>
<path fill="none" stroke="#191970" d="M492.8138,-275.7932C507.5711,-268.067 524.3885,-257.3428 536.4189,-244 584.7002,-190.4516 610.4571,-104.2525 618.0203,-75.6027"/>
<polygon fill="#191970" stroke="#191970" points="490.8786,-272.8467 483.4847,-280.4349 493.9968,-279.1138 490.8786,-272.8467"/>
</g>
<!-- Node15 -->
<g id="node20" class="node">
<title>Node15</title>
<g id="a_node20"><a xlink:href="ansilogger_8hpp.html" target="_top" xlink:title="ansilogger.hpp">
<polygon fill="#ffffff" stroke="#000000" points="887.9189,-112.5 887.9189,-131.5 966.9189,-131.5 966.9189,-112.5 887.9189,-112.5"/>
<text text-anchor="middle" x="927.4189" y="-119.5" font-family="Helvetica,sans-Serif" font-size="10.00" fill="#000000">ansilogger.hpp</text>
</a>
</g>
</g>
<!-- Node3&#45;&gt;Node15 -->
<g id="edge20" class="edge">
<title>Node3&#45;&gt;Node15</title>
<path fill="none" stroke="#191970" d="M497.2411,-289.0607C642.032,-285.1915 1165.496,-269.4799 1189.4189,-244 1258.7084,-170.2005 1056.0629,-136.95 967.0644,-126.1717"/>
<polygon fill="#191970" stroke="#191970" points="497.0001,-285.5658 487.0961,-289.3289 497.1851,-292.5633 497.0001,-285.5658"/>
</g>
<!-- Node16 -->
<g id="node21" class="node">
<title>Node16</title>
<g id="a_node21"><a xlink:href="windowsconsolelogger_8hpp.html" target="_top" xlink:title="windowsconsolelogger.hpp">
<polygon fill="#ffffff" stroke="#000000" points="738.9189,-112.5 738.9189,-131.5 869.9189,-131.5 869.9189,-112.5 738.9189,-112.5"/>
<text text-anchor="middle" x="804.4189" y="-119.5" font-family="Helvetica,sans-Serif" font-size="10.00" fill="#000000">windowsconsolelogger.hpp</text>
</a>
</g>
</g>
<!-- Node3&#45;&gt;Node16 -->
<g id="edge21" class="edge">
<title>Node3&#45;&gt;Node16</title>
<path fill="none" stroke="#191970" d="M497.1965,-287.1978C560.6856,-281.7773 687.5907,-268.2053 724.4189,-244 767.5973,-215.621 792.7609,-154.9999 801.2021,-131.5434"/>
<polygon fill="#191970" stroke="#191970" points="496.8851,-283.7115 487.2093,-288.0277 497.4648,-290.6875 496.8851,-283.7115"/>
</g>
<!-- Node17 -->
<g id="node22" class="node">
<title>Node17</title>
<g id="a_node22"><a xlink:href="scopedump_8hpp.html" target="_top" xlink:title="scopedump.hpp">
<polygon fill="#ffffff" stroke="#000000" points="221.4189,-168.5 221.4189,-187.5 307.4189,-187.5 307.4189,-168.5 221.4189,-168.5"/>
<text text-anchor="middle" x="264.4189" y="-175.5" font-family="Helvetica,sans-Serif" font-size="10.00" fill="#000000">scopedump.hpp</text>
</a>
</g>
</g>
<!-- Node3&#45;&gt;Node17 -->
<g id="edge22" class="edge">
<title>Node3&#45;&gt;Node17</title>
<path fill="none" stroke="#191970" d="M434.9111,-275.4241C394.1422,-252.1276 315.4049,-207.1349 281.0874,-187.5249"/>
<polygon fill="#191970" stroke="#191970" points="433.2891,-278.5284 443.708,-280.4509 436.7621,-272.4506 433.2891,-278.5284"/>
</g>
<!-- Node18 -->
<g id="node23" class="node">
<title>Node18</title>
<g id="a_node23"><a xlink:href="scopestore_8hpp.html" target="_top" xlink:title="scopestore.hpp">
<polygon fill="#ffffff" stroke="#000000" points="167.9189,-224.5 167.9189,-243.5 250.9189,-243.5 250.9189,-224.5 167.9189,-224.5"/>
<text text-anchor="middle" x="209.4189" y="-231.5" font-family="Helvetica,sans-Serif" font-size="10.00" fill="#000000">scopestore.hpp</text>
</a>
</g>
</g>
<!-- Node3&#45;&gt;Node18 -->
<g id="edge23" class="edge">
<title>Node3&#45;&gt;Node18</title>
<path fill="none" stroke="#191970" d="M423.7136,-281.8108C377.7428,-271.5543 299.1816,-254.0267 251.0248,-243.2826"/>
<polygon fill="#191970" stroke="#191970" points="423.0353,-285.2454 433.5575,-284.007 424.5596,-278.4134 423.0353,-285.2454"/>
</g>
<!-- Node3&#45;&gt;Node19 -->
<g id="edge24" class="edge">
<title>Node3&#45;&gt;Node19</title>
<path fill="none" stroke="#191970" d="M496.951,-278.8208C530.6804,-268.4992 580.244,-253.3322 612.1769,-243.5604"/>
<polygon fill="#191970" stroke="#191970" points="495.5668,-275.5841 487.0286,-281.8571 497.6151,-282.2777 495.5668,-275.5841"/>
</g>
<!-- Node5&#45;&gt;Node3 -->
<g id="edge26" class="edge">
<title>Node5&#45;&gt;Node3</title>
<path fill="none" stroke="#191970" d="M140.6703,-197.3336C145.7971,-212.4411 152.8826,-232.7099 167.4189,-244 209.1999,-276.4507 369.267,-286.2599 433.627,-289.0091"/>
<polygon fill="#191970" stroke="#191970" points="143.9677,-196.1598 137.3664,-187.8729 137.3591,-198.4677 143.9677,-196.1598"/>
</g>
<!-- Node4&#45;&gt;Node3 -->
<g id="edge25" class="edge">
<title>Node4&#45;&gt;Node3</title>
<path fill="none" stroke="#191970" d="M483.867,-253.4087C480.292,-262.4689 475.0711,-272.8579 470.2146,-280.2455"/>
<polygon fill="#191970" stroke="#191970" points="487.282,-254.2371 487.1871,-243.6427 480.6545,-251.9839 487.282,-254.2371"/>
</g>
<!-- Node7&#45;&gt;Node5 -->
<g id="edge27" class="edge">
<title>Node7&#45;&gt;Node5</title>
<path fill="none" stroke="#191970" d="M79.7958,-217.928C92.206,-208.1397 107.6488,-195.9595 118.1933,-187.6427"/>
<polygon fill="#191970" stroke="#191970" points="77.4703,-215.3046 71.7861,-224.2455 81.8053,-220.8007 77.4703,-215.3046"/>
</g>
<!-- Node8&#45;&gt;Node5 -->
<g id="edge28" class="edge">
<title>Node8&#45;&gt;Node5</title>
<path fill="none" stroke="#191970" d="M260.6665,-221.159C227.9431,-210.3157 182.1164,-195.1305 154.4509,-185.9633"/>
<polygon fill="#191970" stroke="#191970" points="259.7734,-224.5501 270.3667,-224.3733 261.9752,-217.9054 259.7734,-224.5501"/>
</g>
<!-- Node8&#45;&gt;Node9 -->
<g id="edge29" class="edge">
<title>Node8&#45;&gt;Node9</title>
<path fill="none" stroke="#191970" d="M340.4141,-229.7799C442.2345,-219.2984 705.5694,-192.1904 804.8117,-181.9743"/>
<polygon fill="#191970" stroke="#191970" points="339.8143,-226.3231 330.2253,-230.8287 340.5312,-233.2863 339.8143,-226.3231"/>
</g>
<!-- Node9&#45;&gt;Node10 -->
<g id="edge30" class="edge">
<title>Node9&#45;&gt;Node10</title>
<path fill="none" stroke="#191970" d="M794.3655,-170.8089C721.1554,-160.0766 584.0846,-139.9824 510.7267,-129.2284"/>
<polygon fill="#191970" stroke="#191970" points="794.2865,-174.3347 804.6885,-172.3222 795.3019,-167.4087 794.2865,-174.3347"/>
</g>
<!-- Node9&#45;&gt;Node15 -->
<g id="edge31" class="edge">
<title>Node9&#45;&gt;Node15</title>
<path fill="none" stroke="#191970" d="M866.6838,-162.49C881.5044,-152.6096 900.2398,-140.1194 912.9549,-131.6427"/>
<polygon fill="#191970" stroke="#191970" points="864.4296,-159.7863 858.0506,-168.2455 868.3125,-165.6107 864.4296,-159.7863"/>
</g>
<!-- Node9&#45;&gt;Node16 -->
<g id="edge32" class="edge">
<title>Node9&#45;&gt;Node16</title>
<path fill="none" stroke="#191970" d="M830.8281,-159.9209C824.2793,-150.5176 816.5365,-139.3997 811.1343,-131.6427"/>
<polygon fill="#191970" stroke="#191970" points="828.0385,-162.0397 836.6256,-168.2455 833.7827,-158.0392 828.0385,-162.0397"/>
</g>
<!-- Node10&#45;&gt;Node11 -->
<g id="edge33" class="edge">
<title>Node10&#45;&gt;Node11</title>
<path fill="none" stroke="#191970" d="M421.8048,-109.3235C389.7114,-99.0536 345.1978,-84.8093 316.1099,-75.5011"/>
<polygon fill="#191970" stroke="#191970" points="420.7443,-112.6589 431.3353,-112.3733 422.8778,-105.9919 420.7443,-112.6589"/>
</g>
<!-- Node10&#45;&gt;Node12 -->
<g id="edge34" class="edge">
<title>Node10&#45;&gt;Node12</title>
<path fill="none" stroke="#191970" d="M443.2939,-105.3607C432.7409,-95.6727 419.8077,-83.7995 410.9225,-75.6427"/>
<polygon fill="#191970" stroke="#191970" points="441.06,-108.0611 450.7935,-112.2455 445.7939,-102.9045 441.06,-108.0611"/>
</g>
<!-- Node10&#45;&gt;Node13 -->
<g id="edge35" class="edge">
<title>Node10&#45;&gt;Node13</title>
<path fill="none" stroke="#191970" d="M477.0435,-104.5004C485.5461,-94.9775 495.7406,-83.5596 502.8093,-75.6427"/>
<polygon fill="#191970" stroke="#191970" points="474.1776,-102.4551 470.1282,-112.2455 479.3992,-107.1172 474.1776,-102.4551"/>
</g>
<!-- Node10&#45;&gt;Node14 -->
<g id="edge36" class="edge">
<title>Node10&#45;&gt;Node14</title>
<path fill="none" stroke="#191970" d="M498.5479,-108.9231C527.6139,-98.686 567.3558,-84.6889 593.4425,-75.5011"/>
<polygon fill="#191970" stroke="#191970" points="497.0213,-105.75 488.752,-112.3733 499.3468,-112.3524 497.0213,-105.75"/>
</g>
<!-- Node11&#45;&gt;Node6 -->
<g id="edge37" class="edge">
<title>Node11&#45;&gt;Node6</title>
<path fill="none" stroke="#191970" d="M344.1044,-55.9598C456.1665,-39.2797 574.3708,-25.2306 645.6499,-17.1467"/>
<polygon fill="#191970" stroke="#191970" points="343.3472,-52.5341 333.9762,-57.4772 344.3844,-59.4568 343.3472,-52.5341"/>
</g>
<!-- Node14&#45;&gt;Node6 -->
<g id="edge38" class="edge">
<title>Node14&#45;&gt;Node6</title>
<path fill="none" stroke="#191970" d="M644.8973,-50.769C660.8455,-40.8456 681.1699,-28.1994 694.9217,-19.6427"/>
<polygon fill="#191970" stroke="#191970" points="642.7372,-47.9908 636.0957,-56.2455 646.4353,-53.9342 642.7372,-47.9908"/>
</g>
<!-- Node15&#45;&gt;Node6 -->
<g id="edge39" class="edge">
<title>Node15&#45;&gt;Node6</title>
<path fill="none" stroke="#191970" d="M900.0282,-107.8629C855.1442,-84.6969 767.1076,-39.2587 728.8733,-19.5249"/>
<polygon fill="#191970" stroke="#191970" points="898.4261,-110.9746 908.9176,-112.4509 901.6366,-104.7543 898.4261,-110.9746"/>
</g>
<!-- Node16&#45;&gt;Node6 -->
<g id="edge40" class="edge">
<title>Node16&#45;&gt;Node6</title>
<path fill="none" stroke="#191970" d="M789.7544,-104.5274C769.6462,-80.5688 734.213,-38.3505 718.413,-19.5249"/>
<polygon fill="#191970" stroke="#191970" points="787.2948,-107.0412 796.4045,-112.4509 792.6567,-102.5411 787.2948,-107.0412"/>
</g>
<!-- Node18&#45;&gt;Node5 -->
<g id="edge41" class="edge">
<title>Node18&#45;&gt;Node5</title>
<path fill="none" stroke="#191970" d="M187.1433,-218.2097C173.2684,-208.3743 155.8674,-196.0394 144.0219,-187.6427"/>
<polygon fill="#191970" stroke="#191970" points="185.4758,-221.3178 195.6581,-224.2455 189.524,-215.6071 185.4758,-221.3178"/>
</g>
<!-- Node18&#45;&gt;Node17 -->
<g id="edge42" class="edge">
<title>Node18&#45;&gt;Node17</title>
<path fill="none" stroke="#191970" d="M226.0415,-217.0751C235.5044,-207.4402 247.0157,-195.7196 254.9484,-187.6427"/>
<polygon fill="#191970" stroke="#191970" points="223.5092,-214.6585 218.9991,-224.2455 228.5033,-219.5635 223.5092,-214.6585"/>
</g>
<!-- Node19&#45;&gt;Node5 -->
<g id="edge43" class="edge">
<title>Node19&#45;&gt;Node5</title>
<path fill="none" stroke="#191970" d="M594.5088,-229.0216C514.5499,-220.8285 350.8715,-203.8298 212.4189,-188 192.8981,-185.7681 170.7865,-183.0611 154.4476,-181.0267"/>
<polygon fill="#191970" stroke="#191970" points="594.4582,-232.5346 604.7626,-230.071 595.171,-225.571 594.4582,-232.5346"/>
</g>
<!-- Node21&#45;&gt;Node2 -->
<g id="edge46" class="edge">
<title>Node21&#45;&gt;Node2</title>
<path fill="none" stroke="#191970" d="M433.3325,-383.9209C440.0492,-374.5176 447.9905,-363.3997 453.5313,-355.6427"/>
<polygon fill="#191970" stroke="#191970" points="430.3507,-382.0738 427.3863,-392.2455 436.0468,-386.1425 430.3507,-382.0738"/>
</g>
<!-- Node22 -->
<g id="node26" class="node">
<title>Node22</title>
<g id="a_node26"><a xlink:href="inifile_8hpp.html" target="_top" xlink:title="inifile.hpp">
<polygon fill="#ffffff" stroke="#000000" points="338.4189,-336.5 338.4189,-355.5 396.4189,-355.5 396.4189,-336.5 338.4189,-336.5"/>
<text text-anchor="middle" x="367.4189" y="-343.5" font-family="Helvetica,sans-Serif" font-size="10.00" fill="#000000">inifile.hpp</text>
</a>
</g>
</g>
<!-- Node21&#45;&gt;Node22 -->
<g id="edge47" class="edge">
<title>Node21&#45;&gt;Node22</title>
<path fill="none" stroke="#191970" d="M404.1293,-384.7884C395.0626,-375.2085 384.1135,-363.6396 376.545,-355.6427"/>
<polygon fill="#191970" stroke="#191970" points="401.7711,-387.3884 411.187,-392.2455 406.8551,-382.5767 401.7711,-387.3884"/>
</g>
<!-- Node26 -->
<g id="node28" class="node">
<title>Node26</title>
<g id="a_node28"><a xlink:href="formatterjavastyle_8hpp.html" target="_top" xlink:title="formatterjavastyle.hpp">
<polygon fill="#ffffff" stroke="#000000" points="814.9189,-224.5 814.9189,-243.5 927.9189,-243.5 927.9189,-224.5 814.9189,-224.5"/>
<text text-anchor="middle" x="871.4189" y="-231.5" font-family="Helvetica,sans-Serif" font-size="10.00" fill="#000000">formatterjavastyle.hpp</text>
</a>
</g>
</g>
<!-- Node25&#45;&gt;Node26 -->
<g id="edge49" class="edge">
<title>Node25&#45;&gt;Node26</title>
<path fill="none" stroke="#191970" d="M871.4189,-270.1575C871.4189,-261.155 871.4189,-250.9199 871.4189,-243.6427"/>
<polygon fill="#191970" stroke="#191970" points="867.919,-270.2455 871.4189,-280.2455 874.919,-270.2456 867.919,-270.2455"/>
</g>
<!-- Node27 -->
<g id="node29" class="node">
<title>Node27</title>
<g id="a_node29"><a xlink:href="formatterpythonstyle_8hpp.html" target="_top" xlink:title="formatterpythonstyle.hpp">
<polygon fill="#ffffff" stroke="#000000" points="945.9189,-224.5 945.9189,-243.5 1070.9189,-243.5 1070.9189,-224.5 945.9189,-224.5"/>
<text text-anchor="middle" x="1008.4189" y="-231.5" font-family="Helvetica,sans-Serif" font-size="10.00" fill="#000000">formatterpythonstyle.hpp</text>
</a>
</g>
</g>
<!-- Node25&#45;&gt;Node27 -->
<g id="edge50" class="edge">
<title>Node25&#45;&gt;Node27</title>
<path fill="none" stroke="#191970" d="M904.3995,-276.5189C929.35,-266.3201 962.9923,-252.5685 985.1751,-243.5011"/>
<polygon fill="#191970" stroke="#191970" points="902.9023,-273.3497 894.97,-280.3733 905.5509,-279.8293 902.9023,-273.3497"/>
</g>
<!-- Node26&#45;&gt;Node9 -->
<g id="edge51" class="edge">
<title>Node26&#45;&gt;Node9</title>
<path fill="none" stroke="#191970" d="M861.9407,-215.0437C857.3354,-205.8331 851.9988,-195.1598 848.2402,-187.6427"/>
<polygon fill="#191970" stroke="#191970" points="858.939,-216.8665 866.5416,-224.2455 865.2,-213.736 858.939,-216.8665"/>
</g>
<!-- Node27&#45;&gt;Node9 -->
<g id="edge52" class="edge">
<title>Node27&#45;&gt;Node9</title>
<path fill="none" stroke="#191970" d="M970.2833,-221.057C940.0864,-210.8084 898.6026,-196.729 871.4133,-187.5011"/>
<polygon fill="#191970" stroke="#191970" points="969.46,-224.4736 980.0544,-224.3733 971.7098,-217.845 969.46,-224.4736"/>
</g>
<!-- Node30&#45;&gt;Node9 -->
<g id="edge59" class="edge">
<title>Node30&#45;&gt;Node9</title>
<path fill="none" stroke="#191970" d="M1078.5844,-223.2552C1020.879,-212.1504 932.3339,-195.1108 881.9699,-185.4188"/>
<polygon fill="#191970" stroke="#191970" points="1078.1488,-226.7355 1088.63,-225.1884 1079.4716,-219.8617 1078.1488,-226.7355"/>
</g>
</g>
</svg>
