<?xml version="1.0" encoding="UTF-8" standalone="no"?>
<!DOCTYPE svg PUBLIC "-//W3C//DTD SVG 1.1//EN"
 "http://www.w3.org/Graphics/SVG/1.1/DTD/svg11.dtd">
<!-- Generated by graphviz version 2.40.1 (20161225.0304)
 -->
<!-- Title: substring.hpp Pages: 1 -->
<svg width="1501pt" height="532pt"
 viewBox="0.00 0.00 1500.50 532.00" xmlns="http://www.w3.org/2000/svg" xmlns:xlink="http://www.w3.org/1999/xlink">
<g id="graph0" class="graph" transform="scale(1 1) rotate(0) translate(4 528)">
<title>substring.hpp</title>
<polygon fill="#ffffff" stroke="transparent" points="-4,4 -4,-528 1496.5,-528 1496.5,4 -4,4"/>
<!-- Node1 -->
<g id="node1" class="node">
<title>Node1</title>
<polygon fill="#bfbfbf" stroke="#000000" points="1028,-504.5 1028,-523.5 1103,-523.5 1103,-504.5 1028,-504.5"/>
<text text-anchor="middle" x="1065.5" y="-511.5" font-family="Helvetica,sans-Serif" font-size="10.00" fill="#000000">substring.hpp</text>
</g>
<!-- Node2 -->
<g id="node2" class="node">
<title>Node2</title>
<g id="a_node2"><a xlink:href="configuration_8hpp.html" target="_top" xlink:title="configuration.hpp">
<polygon fill="#ffffff" stroke="#000000" points="956,-336.5 956,-355.5 1047,-355.5 1047,-336.5 956,-336.5"/>
<text text-anchor="middle" x="1001.5" y="-343.5" font-family="Helvetica,sans-Serif" font-size="10.00" fill="#000000">configuration.hpp</text>
</a>
</g>
</g>
<!-- Node1&#45;&gt;Node2 -->
<g id="edge1" class="edge">
<title>Node1&#45;&gt;Node2</title>
<path fill="none" stroke="#191970" d="M1058.1578,-494.7267C1044.4793,-458.8207 1015.5504,-382.8822 1005.244,-355.8279"/>
<polygon fill="#191970" stroke="#191970" points="1055.045,-496.3874 1061.8757,-504.4862 1061.5864,-493.8953 1055.045,-496.3874"/>
</g>
<!-- Node20 -->
<g id="node3" class="node">
<title>Node20</title>
<g id="a_node3"><a xlink:href="plugins_8hpp.html" target="_top" xlink:title="plugins.hpp">
<polygon fill="#ffffff" stroke="#000000" points="938.5,-448.5 938.5,-467.5 1004.5,-467.5 1004.5,-448.5 938.5,-448.5"/>
<text text-anchor="middle" x="971.5" y="-455.5" font-family="Helvetica,sans-Serif" font-size="10.00" fill="#000000">plugins.hpp</text>
</a>
</g>
</g>
<!-- Node1&#45;&gt;Node20 -->
<g id="edge2" class="edge">
<title>Node1&#45;&gt;Node20</title>
<path fill="none" stroke="#191970" d="M1040.3995,-499.0465C1023.674,-489.0824 1002.1832,-476.2794 987.6859,-467.6427"/>
<polygon fill="#191970" stroke="#191970" points="1038.7441,-502.1343 1049.1264,-504.2455 1042.3268,-496.1206 1038.7441,-502.1343"/>
</g>
<!-- Node23 -->
<g id="node4" class="node">
<title>Node23</title>
<g id="a_node4"><a xlink:href="stringtree_8hpp.html" target="_top" xlink:title="stringtree.hpp">
<polygon fill="#ffffff" stroke="#000000" points="1060.5,-392.5 1060.5,-411.5 1136.5,-411.5 1136.5,-392.5 1060.5,-392.5"/>
<text text-anchor="middle" x="1098.5" y="-399.5" font-family="Helvetica,sans-Serif" font-size="10.00" fill="#000000">stringtree.hpp</text>
</a>
</g>
</g>
<!-- Node1&#45;&gt;Node23 -->
<g id="edge3" class="edge">
<title>Node1&#45;&gt;Node23</title>
<path fill="none" stroke="#191970" d="M1071.2164,-494.5987C1078.3573,-470.363 1090.2927,-429.8551 1095.6936,-411.5249"/>
<polygon fill="#191970" stroke="#191970" points="1067.7826,-493.8694 1068.3136,-504.4509 1074.4972,-495.8479 1067.7826,-493.8694"/>
</g>
<!-- Node24 -->
<g id="node5" class="node">
<title>Node24</title>
<g id="a_node5"><a xlink:href="formatter_8hpp.html" target="_top" xlink:title="formatter.hpp">
<polygon fill="#ffffff" stroke="#000000" points="822.5,-448.5 822.5,-467.5 896.5,-467.5 896.5,-448.5 822.5,-448.5"/>
<text text-anchor="middle" x="859.5" y="-455.5" font-family="Helvetica,sans-Serif" font-size="10.00" fill="#000000">formatter.hpp</text>
</a>
</g>
</g>
<!-- Node1&#45;&gt;Node24 -->
<g id="edge4" class="edge">
<title>Node1&#45;&gt;Node24</title>
<path fill="none" stroke="#191970" d="M1020.3268,-501.7199C982.4482,-491.4228 929.134,-476.9296 894.4506,-467.5011"/>
<polygon fill="#191970" stroke="#191970" points="1019.5194,-505.1274 1030.0873,-504.3733 1021.3557,-498.3725 1019.5194,-505.1274"/>
</g>
<!-- Node29 -->
<g id="node6" class="node">
<title>Node29</title>
<g id="a_node6"><a xlink:href="tokenizer_8hpp.html" target="_top" xlink:title="tokenizer.hpp">
<polygon fill="#ffffff" stroke="#000000" points="1156.5,-392.5 1156.5,-411.5 1230.5,-411.5 1230.5,-392.5 1156.5,-392.5"/>
<text text-anchor="middle" x="1193.5" y="-399.5" font-family="Helvetica,sans-Serif" font-size="10.00" fill="#000000">tokenizer.hpp</text>
</a>
</g>
</g>
<!-- Node1&#45;&gt;Node29 -->
<g id="edge5" class="edge">
<title>Node1&#45;&gt;Node29</title>
<path fill="none" stroke="#191970" d="M1084.0471,-497.7713C1111.1488,-474.0573 1160.722,-430.6807 1182.6144,-411.5249"/>
<polygon fill="#191970" stroke="#191970" points="1081.6342,-495.2318 1076.4132,-504.4509 1086.2438,-500.4999 1081.6342,-495.2318"/>
</g>
<!-- Node30 -->
<g id="node7" class="node">
<title>Node30</title>
<g id="a_node7"><a xlink:href="ticks_8hpp.html" target="_top" xlink:title="ticks.hpp">
<polygon fill="#ffffff" stroke="#000000" points="1240.5,-280.5 1240.5,-299.5 1296.5,-299.5 1296.5,-280.5 1240.5,-280.5"/>
<text text-anchor="middle" x="1268.5" y="-287.5" font-family="Helvetica,sans-Serif" font-size="10.00" fill="#000000">ticks.hpp</text>
</a>
</g>
</g>
<!-- Node1&#45;&gt;Node30 -->
<g id="edge6" class="edge">
<title>Node1&#45;&gt;Node30</title>
<path fill="none" stroke="#191970" d="M1105.9379,-500.9378C1145.9827,-485.8892 1206.0223,-457.249 1239.5,-412 1265.5265,-376.8221 1268.5609,-321.6751 1268.6634,-299.6029"/>
<polygon fill="#191970" stroke="#191970" points="1104.6666,-497.6758 1096.4665,-504.3847 1107.0605,-504.2538 1104.6666,-497.6758"/>
</g>
<!-- Node3 -->
<g id="node8" class="node">
<title>Node3</title>
<g id="a_node8"><a xlink:href="alox_8hpp.html" target="_top" xlink:title="alox.hpp">
<polygon fill="#ffffff" stroke="#000000" points="632,-280.5 632,-299.5 685,-299.5 685,-280.5 632,-280.5"/>
<text text-anchor="middle" x="658.5" y="-287.5" font-family="Helvetica,sans-Serif" font-size="10.00" fill="#000000">alox.hpp</text>
</a>
</g>
</g>
<!-- Node2&#45;&gt;Node3 -->
<g id="edge7" class="edge">
<title>Node2&#45;&gt;Node3</title>
<path fill="none" stroke="#191970" d="M945.9826,-335.9406C843.3308,-318.4952 734.4015,-301.6078 685.1343,-294.0585"/>
<polygon fill="#191970" stroke="#191970" points="945.4488,-339.4 955.8948,-337.6303 946.6252,-332.4996 945.4488,-339.4"/>
</g>
<!-- Node5 -->
<g id="node9" class="node">
<title>Node5</title>
<g id="a_node9"><a xlink:href="lox_8hpp.html" target="_top" xlink:title="lox.hpp">
<polygon fill="#ffffff" stroke="#000000" points="918.5,-168.5 918.5,-187.5 966.5,-187.5 966.5,-168.5 918.5,-168.5"/>
<text text-anchor="middle" x="942.5" y="-175.5" font-family="Helvetica,sans-Serif" font-size="10.00" fill="#000000">lox.hpp</text>
</a>
</g>
</g>
<!-- Node2&#45;&gt;Node5 -->
<g id="edge8" class="edge">
<title>Node2&#45;&gt;Node5</title>
<path fill="none" stroke="#191970" d="M1014.7253,-327.9002C1031.2344,-302.8884 1054.9574,-257.1008 1034.5,-224 1019.7605,-200.1509 988.4974,-188.253 966.5217,-182.6174"/>
<polygon fill="#191970" stroke="#191970" points="1011.659,-326.1812 1008.8584,-336.3992 1017.4198,-330.1579 1011.659,-326.1812"/>
</g>
<!-- Node20&#45;&gt;Node2 -->
<g id="edge44" class="edge">
<title>Node20&#45;&gt;Node2</title>
<path fill="none" stroke="#191970" d="M976.6968,-438.5987C983.1885,-414.363 994.0388,-373.8551 998.9487,-355.5249"/>
<polygon fill="#191970" stroke="#191970" points="973.2644,-437.8859 974.0578,-448.4509 980.026,-439.6971 973.2644,-437.8859"/>
</g>
<!-- Node21 -->
<g id="node25" class="node">
<title>Node21</title>
<g id="a_node25"><a xlink:href="inmemoryplugin_8hpp.html" target="_top" xlink:title="inmemoryplugin.hpp">
<polygon fill="#ffffff" stroke="#000000" points="862.5,-392.5 862.5,-411.5 966.5,-411.5 966.5,-392.5 862.5,-392.5"/>
<text text-anchor="middle" x="914.5" y="-399.5" font-family="Helvetica,sans-Serif" font-size="10.00" fill="#000000">inmemoryplugin.hpp</text>
</a>
</g>
</g>
<!-- Node20&#45;&gt;Node21 -->
<g id="edge45" class="edge">
<title>Node20&#45;&gt;Node21</title>
<path fill="none" stroke="#191970" d="M954.2729,-441.0751C944.4659,-431.4402 932.536,-419.7196 924.3149,-411.6427"/>
<polygon fill="#191970" stroke="#191970" points="951.9851,-443.734 961.5714,-448.2455 956.8909,-438.7406 951.9851,-443.734"/>
</g>
<!-- Node18 -->
<g id="node23" class="node">
<title>Node18</title>
<g id="a_node23"><a xlink:href="scopestore_8hpp.html" target="_top" xlink:title="scopestore.hpp">
<polygon fill="#ffffff" stroke="#000000" points="857,-224.5 857,-243.5 940,-243.5 940,-224.5 857,-224.5"/>
<text text-anchor="middle" x="898.5" y="-231.5" font-family="Helvetica,sans-Serif" font-size="10.00" fill="#000000">scopestore.hpp</text>
</a>
</g>
</g>
<!-- Node23&#45;&gt;Node18 -->
<g id="edge48" class="edge">
<title>Node23&#45;&gt;Node18</title>
<path fill="none" stroke="#191970" d="M1089.2124,-382.8969C1081.7271,-368.8194 1070.2108,-349.8006 1056.5,-336 1014.1587,-293.3815 951.06,-259.3337 918.9162,-243.5531"/>
<polygon fill="#191970" stroke="#191970" points="1086.2608,-384.8129 1093.9242,-392.1289 1092.4957,-381.6308 1086.2608,-384.8129"/>
</g>
<!-- Node25 -->
<g id="node27" class="node">
<title>Node25</title>
<g id="a_node27"><a xlink:href="formatterstdimpl_8hpp.html" target="_top" xlink:title="formatterstdimpl.hpp">
<polygon fill="#ffffff" stroke="#000000" points="140.5,-280.5 140.5,-299.5 246.5,-299.5 246.5,-280.5 140.5,-280.5"/>
<text text-anchor="middle" x="193.5" y="-287.5" font-family="Helvetica,sans-Serif" font-size="10.00" fill="#000000">formatterstdimpl.hpp</text>
</a>
</g>
</g>
<!-- Node24&#45;&gt;Node25 -->
<g id="edge49" class="edge">
<title>Node24&#45;&gt;Node25</title>
<path fill="none" stroke="#191970" d="M812.5529,-446.1575C687.0418,-414.497 345.5293,-328.3497 231.2949,-299.5339"/>
<polygon fill="#191970" stroke="#191970" points="811.7135,-449.5553 822.2659,-448.6076 813.4257,-442.7679 811.7135,-449.5553"/>
</g>
<!-- Node29&#45;&gt;Node5 -->
<g id="edge54" class="edge">
<title>Node29&#45;&gt;Node5</title>
<path fill="none" stroke="#191970" d="M1199.1261,-382.6262C1208.3042,-346.5416 1221.7939,-268.6596 1182.5,-224 1154.2652,-191.9097 1021.7883,-181.8377 966.6618,-179.0036"/>
<polygon fill="#191970" stroke="#191970" points="1195.715,-381.8327 1196.4794,-392.3999 1202.4717,-383.6625 1195.715,-381.8327"/>
</g>
<!-- Node19 -->
<g id="node24" class="node">
<title>Node19</title>
<g id="a_node24"><a xlink:href="scopeinfo_8hpp.html" target="_top" xlink:title="scopeinfo.hpp">
<polygon fill="#ffffff" stroke="#000000" points="1230,-224.5 1230,-243.5 1307,-243.5 1307,-224.5 1230,-224.5"/>
<text text-anchor="middle" x="1268.5" y="-231.5" font-family="Helvetica,sans-Serif" font-size="10.00" fill="#000000">scopeinfo.hpp</text>
</a>
</g>
</g>
<!-- Node30&#45;&gt;Node19 -->
<g id="edge55" class="edge">
<title>Node30&#45;&gt;Node19</title>
<path fill="none" stroke="#191970" d="M1268.5,-270.1575C1268.5,-261.155 1268.5,-250.9199 1268.5,-243.6427"/>
<polygon fill="#191970" stroke="#191970" points="1265.0001,-270.2455 1268.5,-280.2455 1272.0001,-270.2456 1265.0001,-270.2455"/>
</g>
<!-- Node31 -->
<g id="node30" class="node">
<title>Node31</title>
<g id="a_node30"><a xlink:href="calendartime_8hpp.html" target="_top" xlink:title="calendartime.hpp">
<polygon fill="#ffffff" stroke="#000000" points="1082,-224.5 1082,-243.5 1173,-243.5 1173,-224.5 1082,-224.5"/>
<text text-anchor="middle" x="1127.5" y="-231.5" font-family="Helvetica,sans-Serif" font-size="10.00" fill="#000000">calendartime.hpp</text>
</a>
</g>
</g>
<!-- Node30&#45;&gt;Node31 -->
<g id="edge56" class="edge">
<title>Node30&#45;&gt;Node31</title>
<path fill="none" stroke="#191970" d="M1234.8968,-276.6541C1209.1841,-266.4419 1174.3539,-252.6086 1151.4225,-243.5011"/>
<polygon fill="#191970" stroke="#191970" points="1233.6755,-279.9349 1244.2612,-280.3733 1236.2593,-273.4292 1233.6755,-279.9349"/>
</g>
<!-- Node32 -->
<g id="node31" class="node">
<title>Node32</title>
<g id="a_node31"><a xlink:href="tickspan_8hpp.html" target="_top" xlink:title="tickspan.hpp">
<polygon fill="#ffffff" stroke="#000000" points="1420.5,-224.5 1420.5,-243.5 1492.5,-243.5 1492.5,-224.5 1420.5,-224.5"/>
<text text-anchor="middle" x="1456.5" y="-231.5" font-family="Helvetica,sans-Serif" font-size="10.00" fill="#000000">tickspan.hpp</text>
</a>
</g>
</g>
<!-- Node30&#45;&gt;Node32 -->
<g id="edge57" class="edge">
<title>Node30&#45;&gt;Node32</title>
<path fill="none" stroke="#191970" d="M1306.4006,-278.7105C1341.0335,-268.3943 1391.6873,-253.3059 1424.3769,-243.5686"/>
<polygon fill="#191970" stroke="#191970" points="1305.2302,-275.407 1296.6455,-281.6162 1307.2286,-282.1157 1305.2302,-275.407"/>
</g>
<!-- Node33 -->
<g id="node32" class="node">
<title>Node33</title>
<g id="a_node32"><a xlink:href="tickwatch_8hpp.html" target="_top" xlink:title="tickwatch.hpp">
<polygon fill="#ffffff" stroke="#000000" points="1325,-224.5 1325,-243.5 1402,-243.5 1402,-224.5 1325,-224.5"/>
<text text-anchor="middle" x="1363.5" y="-231.5" font-family="Helvetica,sans-Serif" font-size="10.00" fill="#000000">tickwatch.hpp</text>
</a>
</g>
</g>
<!-- Node30&#45;&gt;Node33 -->
<g id="edge58" class="edge">
<title>Node30&#45;&gt;Node33</title>
<path fill="none" stroke="#191970" d="M1293.8676,-275.0465C1310.771,-265.0824 1332.4904,-252.2794 1347.1419,-243.6427"/>
<polygon fill="#191970" stroke="#191970" points="1291.8851,-272.1522 1285.0477,-280.2455 1295.4398,-278.1825 1291.8851,-272.1522"/>
</g>
<!-- Node3&#45;&gt;Node5 -->
<g id="edge10" class="edge">
<title>Node3&#45;&gt;Node5</title>
<path fill="none" stroke="#191970" d="M686.549,-276.6663C709.3147,-267.5889 741.8893,-255.2293 770.5,-244 823.0766,-223.3645 884.7874,-198.0864 918.37,-185.6523"/>
<polygon fill="#191970" stroke="#191970" points="685.0953,-273.4786 677.1313,-280.4663 687.7146,-279.9701 685.0953,-273.4786"/>
</g>
<!-- Node4 -->
<g id="node10" class="node">
<title>Node4</title>
<g id="a_node10"><a xlink:href="log_8hpp.html" target="_top" xlink:title="log.hpp">
<polygon fill="#ffffff" stroke="#000000" points="464.5,-224.5 464.5,-243.5 512.5,-243.5 512.5,-224.5 464.5,-224.5"/>
<text text-anchor="middle" x="488.5" y="-231.5" font-family="Helvetica,sans-Serif" font-size="10.00" fill="#000000">log.hpp</text>
</a>
</g>
</g>
<!-- Node3&#45;&gt;Node4 -->
<g id="edge9" class="edge">
<title>Node3&#45;&gt;Node4</title>
<path fill="none" stroke="#191970" d="M622.1051,-279.7753C588.8245,-269.4392 540.7659,-253.5933 512.1725,-243.5177"/>
<polygon fill="#191970" stroke="#191970" points="621.3341,-283.1999 631.9212,-282.7936 623.3916,-276.509 621.3341,-283.1999"/>
</g>
<!-- Node6 -->
<g id="node11" class="node">
<title>Node6</title>
<g id="a_node11"><a xlink:href="alox__console__loggers_8hpp.html" target="_top" xlink:title="alox_console_loggers.hpp">
<polygon fill="#ffffff" stroke="#000000" points="296,-.5 296,-19.5 425,-19.5 425,-.5 296,-.5"/>
<text text-anchor="middle" x="360.5" y="-7.5" font-family="Helvetica,sans-Serif" font-size="10.00" fill="#000000">alox_console_loggers.hpp</text>
</a>
</g>
</g>
<!-- Node3&#45;&gt;Node6 -->
<g id="edge11" class="edge">
<title>Node3&#45;&gt;Node6</title>
<path fill="none" stroke="#191970" d="M621.5398,-286.6195C556.9923,-280.2469 426.7534,-265.1695 386.5,-244 350.3362,-224.9813 322.5,-218.8599 322.5,-178 322.5,-178 322.5,-178 322.5,-122 322.5,-82.1657 344.3226,-38.3859 354.893,-19.5166"/>
<polygon fill="#191970" stroke="#191970" points="621.3912,-290.1214 631.6823,-287.6025 622.0665,-283.1541 621.3912,-290.1214"/>
</g>
<!-- Node7 -->
<g id="node12" class="node">
<title>Node7</title>
<g id="a_node12"><a xlink:href="domain_8hpp.html" target="_top" xlink:title="domain.hpp">
<polygon fill="#ffffff" stroke="#000000" points="958,-224.5 958,-243.5 1025,-243.5 1025,-224.5 958,-224.5"/>
<text text-anchor="middle" x="991.5" y="-231.5" font-family="Helvetica,sans-Serif" font-size="10.00" fill="#000000">domain.hpp</text>
</a>
</g>
</g>
<!-- Node3&#45;&gt;Node7 -->
<g id="edge12" class="edge">
<title>Node3&#45;&gt;Node7</title>
<path fill="none" stroke="#191970" d="M695.1219,-285.1333C750.4421,-277.5739 858.5233,-261.9934 949.5,-244 952.1471,-243.4765 954.8803,-242.9024 957.623,-242.3024"/>
<polygon fill="#191970" stroke="#191970" points="694.5404,-281.6801 685.1021,-286.4934 695.4821,-288.6164 694.5404,-281.6801"/>
</g>
<!-- Node8 -->
<g id="node13" class="node">
<title>Node8</title>
<g id="a_node13"><a xlink:href="logger_8hpp.html" target="_top" xlink:title="logger.hpp">
<polygon fill="#ffffff" stroke="#000000" points="531,-224.5 531,-243.5 592,-243.5 592,-224.5 531,-224.5"/>
<text text-anchor="middle" x="561.5" y="-231.5" font-family="Helvetica,sans-Serif" font-size="10.00" fill="#000000">logger.hpp</text>
</a>
</g>
</g>
<!-- Node3&#45;&gt;Node8 -->
<g id="edge13" class="edge">
<title>Node3&#45;&gt;Node8</title>
<path fill="none" stroke="#191970" d="M632.5984,-275.0465C615.3391,-265.0824 593.1624,-252.2794 578.2025,-243.6427"/>
<polygon fill="#191970" stroke="#191970" points="631.1936,-278.2768 641.6039,-280.2455 634.6935,-272.2146 631.1936,-278.2768"/>
</g>
<!-- Node9 -->
<g id="node14" class="node">
<title>Node9</title>
<g id="a_node14"><a xlink:href="textlogger_8hpp.html" target="_top" xlink:title="textlogger.hpp">
<polygon fill="#ffffff" stroke="#000000" points="389,-168.5 389,-187.5 466,-187.5 466,-168.5 389,-168.5"/>
<text text-anchor="middle" x="427.5" y="-175.5" font-family="Helvetica,sans-Serif" font-size="10.00" fill="#000000">textlogger.hpp</text>
</a>
</g>
</g>
<!-- Node3&#45;&gt;Node9 -->
<g id="edge14" class="edge">
<title>Node3&#45;&gt;Node9</title>
<path fill="none" stroke="#191970" d="M621.5102,-288.3288C561.5417,-284.7585 447.2898,-274.0883 422.5,-244 409.3474,-228.0362 417.1626,-201.8921 422.962,-187.776"/>
<polygon fill="#191970" stroke="#191970" points="621.514,-291.8344 631.6938,-288.8978 621.9046,-284.8453 621.514,-291.8344"/>
</g>
<!-- Node10 -->
<g id="node15" class="node">
<title>Node10</title>
<g id="a_node15"><a xlink:href="plaintextlogger_8hpp.html" target="_top" xlink:title="plaintextlogger.hpp">
<polygon fill="#ffffff" stroke="#000000" points="570.5,-112.5 570.5,-131.5 668.5,-131.5 668.5,-112.5 570.5,-112.5"/>
<text text-anchor="middle" x="619.5" y="-119.5" font-family="Helvetica,sans-Serif" font-size="10.00" fill="#000000">plaintextlogger.hpp</text>
</a>
</g>
</g>
<!-- Node3&#45;&gt;Node10 -->
<g id="edge15" class="edge">
<title>Node3&#45;&gt;Node10</title>
<path fill="none" stroke="#191970" d="M654.0258,-270.7267C645.6905,-234.8207 628.0619,-158.8822 621.7815,-131.8279"/>
<polygon fill="#191970" stroke="#191970" points="650.6207,-271.5367 656.2914,-280.4862 657.4394,-269.9538 650.6207,-271.5367"/>
</g>
<!-- Node11 -->
<g id="node16" class="node">
<title>Node11</title>
<g id="a_node16"><a xlink:href="consolelogger_8hpp.html" target="_top" xlink:title="consolelogger.hpp">
<polygon fill="#ffffff" stroke="#000000" points="499,-56.5 499,-75.5 594,-75.5 594,-56.5 499,-56.5"/>
<text text-anchor="middle" x="546.5" y="-63.5" font-family="Helvetica,sans-Serif" font-size="10.00" fill="#000000">consolelogger.hpp</text>
</a>
</g>
</g>
<!-- Node3&#45;&gt;Node11 -->
<g id="edge16" class="edge">
<title>Node3&#45;&gt;Node11</title>
<path fill="none" stroke="#191970" d="M644.8199,-272.1717C623.8236,-243.9566 583.754,-186.5984 561.5,-132 553.6941,-112.8488 549.5315,-88.8352 547.6921,-75.6969"/>
<polygon fill="#191970" stroke="#191970" points="642.1069,-274.3873 650.9199,-280.2679 647.6977,-270.175 642.1069,-274.3873"/>
</g>
<!-- Node12 -->
<g id="node17" class="node">
<title>Node12</title>
<g id="a_node17"><a xlink:href="memorylogger_8hpp.html" target="_top" xlink:title="memorylogger.hpp">
<polygon fill="#ffffff" stroke="#000000" points="612.5,-56.5 612.5,-75.5 708.5,-75.5 708.5,-56.5 612.5,-56.5"/>
<text text-anchor="middle" x="660.5" y="-63.5" font-family="Helvetica,sans-Serif" font-size="10.00" fill="#000000">memorylogger.hpp</text>
</a>
</g>
</g>
<!-- Node3&#45;&gt;Node12 -->
<g id="edge17" class="edge">
<title>Node3&#45;&gt;Node12</title>
<path fill="none" stroke="#191970" d="M664.1446,-270.5794C672.8979,-237.7253 687.7261,-169.1703 677.5,-112 675.1614,-98.9256 669.3602,-84.7041 665.1849,-75.5885"/>
<polygon fill="#191970" stroke="#191970" points="660.7528,-269.7129 661.4539,-280.2845 667.4984,-271.5831 660.7528,-269.7129"/>
</g>
<!-- Node13 -->
<g id="node18" class="node">
<title>Node13</title>
<g id="a_node18"><a xlink:href="textfilelogger_8hpp.html" target="_top" xlink:title="textfilelogger.hpp">
<polygon fill="#ffffff" stroke="#000000" points="726.5,-56.5 726.5,-75.5 816.5,-75.5 816.5,-56.5 726.5,-56.5"/>
<text text-anchor="middle" x="771.5" y="-63.5" font-family="Helvetica,sans-Serif" font-size="10.00" fill="#000000">textfilelogger.hpp</text>
</a>
</g>
</g>
<!-- Node3&#45;&gt;Node13 -->
<g id="edge18" class="edge">
<title>Node3&#45;&gt;Node13</title>
<path fill="none" stroke="#191970" d="M670.1946,-271.7484C675.3891,-263.4033 681.4555,-253.319 686.5,-244 720.4087,-181.3583 755.3291,-103.0016 767.2321,-75.82"/>
<polygon fill="#191970" stroke="#191970" points="667.1766,-269.9727 664.8013,-280.2979 673.097,-273.7076 667.1766,-269.9727"/>
</g>
<!-- Node14 -->
<g id="node19" class="node">
<title>Node14</title>
<g id="a_node19"><a xlink:href="vstudiologger_8hpp.html" target="_top" xlink:title="vstudiologger.hpp">
<polygon fill="#ffffff" stroke="#000000" points="388.5,-56.5 388.5,-75.5 480.5,-75.5 480.5,-56.5 388.5,-56.5"/>
<text text-anchor="middle" x="434.5" y="-63.5" font-family="Helvetica,sans-Serif" font-size="10.00" fill="#000000">vstudiologger.hpp</text>
</a>
</g>
</g>
<!-- Node3&#45;&gt;Node14 -->
<g id="edge19" class="edge">
<title>Node3&#45;&gt;Node14</title>
<path fill="none" stroke="#191970" d="M621.6391,-287.0431C568.8732,-281.9588 475.9033,-269.5439 455.5,-244 449.9524,-237.0547 453.3628,-232.6281 455.5,-224 459.8498,-206.439 470.1502,-205.561 474.5,-188 476.6372,-179.3719 476.1514,-176.7341 474.5,-168 467.7859,-132.4886 449.0043,-93.5035 439.7664,-75.7622"/>
<polygon fill="#191970" stroke="#191970" points="621.3436,-290.5306 631.6228,-287.964 621.9866,-283.5602 621.3436,-290.5306"/>
</g>
<!-- Node15 -->
<g id="node20" class="node">
<title>Node15</title>
<g id="a_node20"><a xlink:href="ansilogger_8hpp.html" target="_top" xlink:title="ansilogger.hpp">
<polygon fill="#ffffff" stroke="#000000" points="351,-112.5 351,-131.5 430,-131.5 430,-112.5 351,-112.5"/>
<text text-anchor="middle" x="390.5" y="-119.5" font-family="Helvetica,sans-Serif" font-size="10.00" fill="#000000">ansilogger.hpp</text>
</a>
</g>
</g>
<!-- Node3&#45;&gt;Node15 -->
<g id="edge20" class="edge">
<title>Node3&#45;&gt;Node15</title>
<path fill="none" stroke="#191970" d="M621.3781,-286.9059C560.948,-281.2498 444.705,-267.5996 411.5,-244 381.6266,-222.7682 375.2086,-204.3977 379.5,-168 380.9999,-155.2785 384.7565,-140.9798 387.4625,-131.7501"/>
<polygon fill="#191970" stroke="#191970" points="621.3533,-290.418 631.6294,-287.8386 621.9877,-283.4468 621.3533,-290.418"/>
</g>
<!-- Node16 -->
<g id="node21" class="node">
<title>Node16</title>
<g id="a_node21"><a xlink:href="windowsconsolelogger_8hpp.html" target="_top" xlink:title="windowsconsolelogger.hpp">
<polygon fill="#ffffff" stroke="#000000" points="163,-112.5 163,-131.5 294,-131.5 294,-112.5 163,-112.5"/>
<text text-anchor="middle" x="228.5" y="-119.5" font-family="Helvetica,sans-Serif" font-size="10.00" fill="#000000">windowsconsolelogger.hpp</text>
</a>
</g>
</g>
<!-- Node3&#45;&gt;Node16 -->
<g id="edge21" class="edge">
<title>Node3&#45;&gt;Node16</title>
<path fill="none" stroke="#191970" d="M621.4442,-288.9814C542.3604,-286.199 360.0589,-276.3636 308.5,-244 264.7375,-216.5303 239.9207,-155.3692 231.6445,-131.656"/>
<polygon fill="#191970" stroke="#191970" points="621.783,-292.4945 631.8938,-289.3288 622.0157,-285.4983 621.783,-292.4945"/>
</g>
<!-- Node17 -->
<g id="node22" class="node">
<title>Node17</title>
<g id="a_node22"><a xlink:href="scopedump_8hpp.html" target="_top" xlink:title="scopedump.hpp">
<polygon fill="#ffffff" stroke="#000000" points="810.5,-168.5 810.5,-187.5 896.5,-187.5 896.5,-168.5 810.5,-168.5"/>
<text text-anchor="middle" x="853.5" y="-175.5" font-family="Helvetica,sans-Serif" font-size="10.00" fill="#000000">scopedump.hpp</text>
</a>
</g>
</g>
<!-- Node3&#45;&gt;Node17 -->
<g id="edge22" class="edge">
<title>Node3&#45;&gt;Node17</title>
<path fill="none" stroke="#191970" d="M687.7131,-275.8887C705.4935,-267.0985 728.5484,-255.3397 748.5,-244 781.6328,-225.1686 819.1436,-200.8267 839.1396,-187.5965"/>
<polygon fill="#191970" stroke="#191970" points="685.8653,-272.8967 678.4309,-280.4453 688.95,-279.1805 685.8653,-272.8967"/>
</g>
<!-- Node3&#45;&gt;Node18 -->
<g id="edge23" class="edge">
<title>Node3&#45;&gt;Node18</title>
<path fill="none" stroke="#191970" d="M695.0483,-281.4721C738.8893,-271.2425 812.1655,-254.1447 857.7809,-243.5011"/>
<polygon fill="#191970" stroke="#191970" points="694.0443,-278.1122 685.1012,-283.7931 695.6349,-284.9291 694.0443,-278.1122"/>
</g>
<!-- Node3&#45;&gt;Node19 -->
<g id="edge24" class="edge">
<title>Node3&#45;&gt;Node19</title>
<path fill="none" stroke="#191970" d="M695.238,-287.1334C780.7609,-280.3818 999.7887,-262.6388 1182.5,-244 1198.0517,-242.4135 1215.161,-240.4657 1229.9957,-238.7119"/>
<polygon fill="#191970" stroke="#191970" points="694.9403,-283.6459 685.2459,-287.9201 695.4898,-290.6243 694.9403,-283.6459"/>
</g>
<!-- Node5&#45;&gt;Node3 -->
<g id="edge26" class="edge">
<title>Node5&#45;&gt;Node3</title>
<path fill="none" stroke="#191970" d="M916.2262,-191.6551C885.4996,-205.1498 833.6342,-226.2855 788.5,-244 753.145,-257.8763 711.7371,-273.4786 685.0866,-282.4807"/>
<polygon fill="#191970" stroke="#191970" points="917.7148,-194.8236 925.4242,-187.5562 914.8655,-188.4297 917.7148,-194.8236"/>
</g>
<!-- Node4&#45;&gt;Node3 -->
<g id="edge25" class="edge">
<title>Node4&#45;&gt;Node3</title>
<path fill="none" stroke="#191970" d="M522.3244,-243.4283C555.5411,-253.695 605.1397,-270.0291 634.518,-280.3733"/>
<polygon fill="#191970" stroke="#191970" points="523.1685,-240.0265 512.5822,-240.4502 521.1221,-246.7207 523.1685,-240.0265"/>
</g>
<!-- Node7&#45;&gt;Node5 -->
<g id="edge27" class="edge">
<title>Node7&#45;&gt;Node5</title>
<path fill="none" stroke="#191970" d="M976.1878,-216.5004C967.8553,-206.9775 957.8647,-195.5596 950.9373,-187.6427"/>
<polygon fill="#191970" stroke="#191970" points="973.7457,-219.0245 982.9649,-224.2455 979.0138,-214.415 973.7457,-219.0245"/>
</g>
<!-- Node8&#45;&gt;Node5 -->
<g id="edge28" class="edge">
<title>Node8&#45;&gt;Node5</title>
<path fill="none" stroke="#191970" d="M602.2769,-230.294C666.9763,-224.0228 796.945,-209.8298 905.5,-188 909.675,-187.1604 914.0751,-186.1156 918.3266,-185.0207"/>
<polygon fill="#191970" stroke="#191970" points="601.7146,-226.8317 592.0932,-231.2677 602.3809,-233.7999 601.7146,-226.8317"/>
</g>
<!-- Node8&#45;&gt;Node9 -->
<g id="edge29" class="edge">
<title>Node8&#45;&gt;Node9</title>
<path fill="none" stroke="#191970" d="M528.9172,-220.3833C504.5464,-210.1985 471.8358,-196.5284 450.2348,-187.5011"/>
<polygon fill="#191970" stroke="#191970" points="527.8883,-223.7466 538.4646,-224.3733 530.5875,-217.2879 527.8883,-223.7466"/>
</g>
<!-- Node9&#45;&gt;Node10 -->
<g id="edge30" class="edge">
<title>Node9&#45;&gt;Node10</title>
<path fill="none" stroke="#191970" d="M470.5077,-165.4561C505.7521,-155.1765 554.8736,-140.8494 586.9247,-131.5011"/>
<polygon fill="#191970" stroke="#191970" points="469.126,-162.2132 460.506,-168.3733 471.086,-168.9332 469.126,-162.2132"/>
</g>
<!-- Node9&#45;&gt;Node15 -->
<g id="edge31" class="edge">
<title>Node9&#45;&gt;Node15</title>
<path fill="none" stroke="#191970" d="M415.3624,-159.6296C409.1907,-150.2887 401.9434,-139.3197 396.8711,-131.6427"/>
<polygon fill="#191970" stroke="#191970" points="412.6223,-161.8316 421.0551,-168.2455 418.4627,-157.9728 412.6223,-161.8316"/>
</g>
<!-- Node9&#45;&gt;Node16 -->
<g id="edge32" class="edge">
<title>Node9&#45;&gt;Node16</title>
<path fill="none" stroke="#191970" d="M383.3938,-165.5882C346.8323,-155.2996 295.6252,-140.8895 262.2629,-131.5011"/>
<polygon fill="#191970" stroke="#191970" points="382.7164,-169.0335 393.2907,-168.3733 384.6127,-162.2952 382.7164,-169.0335"/>
</g>
<!-- Node10&#45;&gt;Node11 -->
<g id="edge33" class="edge">
<title>Node10&#45;&gt;Node11</title>
<path fill="none" stroke="#191970" d="M598.549,-105.928C585.7893,-96.1397 569.9115,-83.9595 559.0699,-75.6427"/>
<polygon fill="#191970" stroke="#191970" points="596.7197,-108.9359 606.7844,-112.2455 600.9804,-103.3819 596.7197,-108.9359"/>
</g>
<!-- Node10&#45;&gt;Node12 -->
<g id="edge34" class="edge">
<title>Node10&#45;&gt;Node12</title>
<path fill="none" stroke="#191970" d="M632.7364,-103.9209C639.6211,-94.5176 647.7609,-83.3997 653.4402,-75.6427"/>
<polygon fill="#191970" stroke="#191970" points="629.7251,-102.1093 626.6417,-112.2455 635.3731,-106.2445 629.7251,-102.1093"/>
</g>
<!-- Node10&#45;&gt;Node13 -->
<g id="edge35" class="edge">
<title>Node10&#45;&gt;Node13</title>
<path fill="none" stroke="#191970" d="M655.359,-108.7888C683.1123,-98.5639 720.8819,-84.6488 745.7112,-75.5011"/>
<polygon fill="#191970" stroke="#191970" points="653.8032,-105.6319 645.6297,-112.3733 656.2232,-112.2003 653.8032,-105.6319"/>
</g>
<!-- Node10&#45;&gt;Node14 -->
<g id="edge36" class="edge">
<title>Node10&#45;&gt;Node14</title>
<path fill="none" stroke="#191970" d="M578.0603,-109.4561C544.1009,-99.1765 496.7703,-84.8494 465.8876,-75.5011"/>
<polygon fill="#191970" stroke="#191970" points="577.1122,-112.8259 587.6974,-112.3733 579.1403,-106.1261 577.1122,-112.8259"/>
</g>
<!-- Node11&#45;&gt;Node6 -->
<g id="edge37" class="edge">
<title>Node11&#45;&gt;Node6</title>
<path fill="none" stroke="#191970" d="M504.8363,-53.4561C470.6933,-43.1765 423.1069,-28.8494 392.0573,-19.5011"/>
<polygon fill="#191970" stroke="#191970" points="503.941,-56.8417 514.5255,-56.3733 505.9591,-50.1389 503.941,-56.8417"/>
</g>
<!-- Node14&#45;&gt;Node6 -->
<g id="edge38" class="edge">
<title>Node14&#45;&gt;Node6</title>
<path fill="none" stroke="#191970" d="M413.6343,-50.2097C400.6375,-40.3743 384.3378,-28.0394 373.2421,-19.6427"/>
<polygon fill="#191970" stroke="#191970" points="411.524,-53.002 421.6102,-56.2455 415.7482,-47.4201 411.524,-53.002"/>
</g>
<!-- Node15&#45;&gt;Node6 -->
<g id="edge39" class="edge">
<title>Node15&#45;&gt;Node6</title>
<path fill="none" stroke="#191970" d="M385.3032,-102.5987C378.8115,-78.363 367.9612,-37.8551 363.0513,-19.5249"/>
<polygon fill="#191970" stroke="#191970" points="381.974,-103.6971 387.9422,-112.4509 388.7356,-101.8859 381.974,-103.6971"/>
</g>
<!-- Node16&#45;&gt;Node6 -->
<g id="edge40" class="edge">
<title>Node16&#45;&gt;Node6</title>
<path fill="none" stroke="#191970" d="M247.6267,-105.7713C275.5753,-82.0573 326.6977,-38.6807 349.2742,-19.5249"/>
<polygon fill="#191970" stroke="#191970" points="245.1149,-103.3123 239.7542,-112.4509 249.6438,-108.6499 245.1149,-103.3123"/>
</g>
<!-- Node18&#45;&gt;Node5 -->
<g id="edge41" class="edge">
<title>Node18&#45;&gt;Node5</title>
<path fill="none" stroke="#191970" d="M912.4769,-216.2112C919.9129,-206.7472 928.766,-195.4797 934.9236,-187.6427"/>
<polygon fill="#191970" stroke="#191970" points="909.5903,-214.22 906.1642,-224.2455 915.0946,-218.5447 909.5903,-214.22"/>
</g>
<!-- Node18&#45;&gt;Node17 -->
<g id="edge42" class="edge">
<title>Node18&#45;&gt;Node17</title>
<path fill="none" stroke="#191970" d="M884.2054,-216.2112C876.6004,-206.7472 867.5462,-195.4797 861.2486,-187.6427"/>
<polygon fill="#191970" stroke="#191970" points="881.6694,-218.6428 890.6616,-224.2455 887.1259,-214.2581 881.6694,-218.6428"/>
</g>
<!-- Node19&#45;&gt;Node5 -->
<g id="edge43" class="edge">
<title>Node19&#45;&gt;Node5</title>
<path fill="none" stroke="#191970" d="M1219.8778,-224.7875C1218.4022,-224.5202 1216.9403,-224.2572 1215.5,-224 1123.708,-207.6086 1014.2599,-189.6435 966.63,-181.9032"/>
<polygon fill="#191970" stroke="#191970" points="1219.2615,-228.2328 1229.7288,-226.5942 1220.5243,-221.3476 1219.2615,-228.2328"/>
</g>
<!-- Node21&#45;&gt;Node2 -->
<g id="edge46" class="edge">
<title>Node21&#45;&gt;Node2</title>
<path fill="none" stroke="#191970" d="M938.1625,-386.769C953.5791,-376.8456 973.226,-364.1994 986.5194,-355.6427"/>
<polygon fill="#191970" stroke="#191970" points="936.1685,-383.89 929.6542,-392.2455 939.9573,-389.7761 936.1685,-383.89"/>
</g>
<!-- Node22 -->
<g id="node26" class="node">
<title>Node22</title>
<g id="a_node26"><a xlink:href="inifile_8hpp.html" target="_top" xlink:title="inifile.hpp">
<polygon fill="#ffffff" stroke="#000000" points="879.5,-336.5 879.5,-355.5 937.5,-355.5 937.5,-336.5 879.5,-336.5"/>
<text text-anchor="middle" x="908.5" y="-343.5" font-family="Helvetica,sans-Serif" font-size="10.00" fill="#000000">inifile.hpp</text>
</a>
</g>
</g>
<!-- Node21&#45;&gt;Node22 -->
<g id="edge47" class="edge">
<title>Node21&#45;&gt;Node22</title>
<path fill="none" stroke="#191970" d="M912.374,-382.1575C911.4095,-373.155 910.3128,-362.9199 909.5331,-355.6427"/>
<polygon fill="#191970" stroke="#191970" points="908.9094,-382.6753 913.4549,-392.2455 915.8695,-381.9296 908.9094,-382.6753"/>
</g>
<!-- Node26 -->
<g id="node28" class="node">
<title>Node26</title>
<g id="a_node28"><a xlink:href="formatterjavastyle_8hpp.html" target="_top" xlink:title="formatterjavastyle.hpp">
<polygon fill="#ffffff" stroke="#000000" points="0,-224.5 0,-243.5 113,-243.5 113,-224.5 0,-224.5"/>
<text text-anchor="middle" x="56.5" y="-231.5" font-family="Helvetica,sans-Serif" font-size="10.00" fill="#000000">formatterjavastyle.hpp</text>
</a>
</g>
</g>
<!-- Node25&#45;&gt;Node26 -->
<g id="edge50" class="edge">
<title>Node25&#45;&gt;Node26</title>
<path fill="none" stroke="#191970" d="M160.5194,-276.5189C135.5689,-266.3201 101.9266,-252.5685 79.7438,-243.5011"/>
<polygon fill="#191970" stroke="#191970" points="159.368,-279.8293 169.9489,-280.3733 162.0166,-273.3497 159.368,-279.8293"/>
</g>
<!-- Node27 -->
<g id="node29" class="node">
<title>Node27</title>
<g id="a_node29"><a xlink:href="formatterpythonstyle_8hpp.html" target="_top" xlink:title="formatterpythonstyle.hpp">
<polygon fill="#ffffff" stroke="#ff0000" points="131,-224.5 131,-243.5 256,-243.5 256,-224.5 131,-224.5"/>
<text text-anchor="middle" x="193.5" y="-231.5" font-family="Helvetica,sans-Serif" font-size="10.00" fill="#000000">formatterpythonstyle.hpp</text>
</a>
</g>
</g>
<!-- Node25&#45;&gt;Node27 -->
<g id="edge51" class="edge">
<title>Node25&#45;&gt;Node27</title>
<path fill="none" stroke="#191970" d="M193.5,-270.1575C193.5,-261.155 193.5,-250.9199 193.5,-243.6427"/>
<polygon fill="#191970" stroke="#191970" points="190.0001,-270.2455 193.5,-280.2455 197.0001,-270.2456 190.0001,-270.2455"/>
</g>
<!-- Node26&#45;&gt;Node9 -->
<g id="edge52" class="edge">
<title>Node26&#45;&gt;Node9</title>
<path fill="none" stroke="#191970" d="M123.3382,-223.7238C224.8677,-208.2964 332.6651,-192.1589 388.8496,-183.7666"/>
<polygon fill="#191970" stroke="#191970" points="122.5788,-220.299 113.2185,-225.2623 123.631,-227.2194 122.5788,-220.299"/>
</g>
<!-- Node27&#45;&gt;Node9 -->
<g id="edge53" class="edge">
<title>Node27&#45;&gt;Node9</title>
<path fill="none" stroke="#191970" d="M243.2644,-222.0906C286.7652,-211.6801 349.0369,-196.7775 388.8714,-187.2444"/>
<polygon fill="#191970" stroke="#191970" points="242.3709,-218.7055 233.4602,-224.4369 244.0002,-225.5133 242.3709,-218.7055"/>
</g>
<!-- Node31&#45;&gt;Node9 -->
<g id="edge59" class="edge">
<title>Node31&#45;&gt;Node9</title>
<path fill="none" stroke="#191970" d="M1071.5729,-227.6978C1059.3617,-226.4024 1046.502,-225.0998 1034.5,-224 820.067,-204.3511 562.461,-186.8404 466.2382,-180.5109"/>
<polygon fill="#191970" stroke="#191970" points="1071.3282,-231.1915 1081.6448,-228.7796 1072.0758,-224.2316 1071.3282,-231.1915"/>
</g>
</g>
</svg>
