<?xml version="1.0" encoding="UTF-8" standalone="no"?>
<!DOCTYPE svg PUBLIC "-//W3C//DTD SVG 1.1//EN"
 "http://www.w3.org/Graphics/SVG/1.1/DTD/svg11.dtd">
<!-- Generated by graphviz version 2.38.0 (20140413.2041)
 -->
<!-- Title: textlogger.hpp Pages: 1 -->
<svg width="2119pt" height="476pt"
 viewBox="0.00 0.00 2118.50 476.00" xmlns="http://www.w3.org/2000/svg" xmlns:xlink="http://www.w3.org/1999/xlink">
<g id="graph0" class="graph" transform="scale(1 1) rotate(0) translate(4 472)">
<title>textlogger.hpp</title>
<polygon fill="white" stroke="none" points="-4,4 -4,-472 2114.5,-472 2114.5,4 -4,4"/>
<!-- Node1 -->
<g id="node1" class="node"><title>Node1</title>
<polygon fill="#bfbfbf" stroke="black" points="558,-448.5 558,-467.5 636,-467.5 636,-448.5 558,-448.5"/>
<text text-anchor="middle" x="597" y="-455.5" font-family="Helvetica,sans-Serif" font-size="10.00">textlogger.hpp</text>
</g>
<!-- Node2 -->
<g id="node2" class="node"><title>Node2</title>
<g id="a_node2"><a xlink:href="alox_8hpp.html" target="_top" xlink:title="alox/alox.hpp">
<polygon fill="white" stroke="black" points="777,-392.5 777,-411.5 851,-411.5 851,-392.5 777,-392.5"/>
<text text-anchor="middle" x="814" y="-399.5" font-family="Helvetica,sans-Serif" font-size="10.00">alox/alox.hpp</text>
</a>
</g>
</g>
<!-- Node1&#45;&gt;Node2 -->
<g id="edge1" class="edge"><title>Node1&#45;&gt;Node2</title>
<path fill="none" stroke="midnightblue" d="M631.384,-448.444C668.922,-439.102 729.131,-424.119 770.067,-413.933"/>
<polygon fill="midnightblue" stroke="midnightblue" points="770.918,-417.328 779.777,-411.516 769.227,-410.535 770.918,-417.328"/>
</g>
<!-- Node38 -->
<g id="node3" class="node"><title>Node38</title>
<g id="a_node3"><a xlink:href="logger_8hpp.html" target="_top" xlink:title="alox/core/logger.hpp">
<polygon fill="white" stroke="black" points="447,-280.5 447,-299.5 551,-299.5 551,-280.5 447,-280.5"/>
<text text-anchor="middle" x="499" y="-287.5" font-family="Helvetica,sans-Serif" font-size="10.00">alox/core/logger.hpp</text>
</a>
</g>
</g>
<!-- Node1&#45;&gt;Node38 -->
<g id="edge2" class="edge"><title>Node1&#45;&gt;Node38</title>
<path fill="none" stroke="midnightblue" d="M591.731,-448.075C576.105,-421.606 529.822,-343.209 509.16,-308.21"/>
<polygon fill="midnightblue" stroke="midnightblue" points="512.156,-306.4 504.058,-299.568 506.128,-309.959 512.156,-306.4"/>
</g>
<!-- Node3 -->
<g id="node4" class="node"><title>Node3</title>
<g id="a_node4"><a xlink:href="alib_8hpp.html" target="_top" xlink:title="alib/alib.hpp">
<polygon fill="white" stroke="black" points="1004,-56.5 1004,-75.5 1072,-75.5 1072,-56.5 1004,-56.5"/>
<text text-anchor="middle" x="1038" y="-63.5" font-family="Helvetica,sans-Serif" font-size="10.00">alib/alib.hpp</text>
</a>
</g>
</g>
<!-- Node2&#45;&gt;Node3 -->
<g id="edge3" class="edge"><title>Node2&#45;&gt;Node3</title>
<path fill="none" stroke="midnightblue" d="M851.07,-399.549C959.712,-395.033 1272.15,-380.071 1311,-356 1339.83,-338.134 1351,-324.921 1351,-291 1351,-291 1351,-291 1351,-177 1351,-120.683 1168.37,-86.219 1082.11,-73.0831"/>
<polygon fill="midnightblue" stroke="midnightblue" points="1082.5,-69.602 1072.09,-71.5869 1081.47,-76.5252 1082.5,-69.602"/>
</g>
<!-- Node23 -->
<g id="node5" class="node"><title>Node23</title>
<g id="a_node5"><a xlink:href="alox__symbols_8hpp.html" target="_top" xlink:title="internals/alox_symbols.hpp">
<polygon fill="white" stroke="black" points="794.5,-336.5 794.5,-355.5 929.5,-355.5 929.5,-336.5 794.5,-336.5"/>
<text text-anchor="middle" x="862" y="-343.5" font-family="Helvetica,sans-Serif" font-size="10.00">internals/alox_symbols.hpp</text>
</a>
</g>
</g>
<!-- Node2&#45;&gt;Node23 -->
<g id="edge4" class="edge"><title>Node2&#45;&gt;Node23</title>
<path fill="none" stroke="midnightblue" d="M821.926,-392.083C828.846,-384.298 839.065,-372.801 847.452,-363.367"/>
<polygon fill="midnightblue" stroke="midnightblue" points="850.194,-365.55 854.221,-355.751 844.962,-360.9 850.194,-365.55"/>
</g>
<!-- Node24 -->
<g id="node6" class="node"><title>Node24</title>
<g id="a_node6"><a xlink:href="alox__macros_8hpp.html" target="_top" xlink:title="internals/alox_macros.hpp">
<polygon fill="white" stroke="black" points="947.5,-336.5 947.5,-355.5 1078.5,-355.5 1078.5,-336.5 947.5,-336.5"/>
<text text-anchor="middle" x="1013" y="-343.5" font-family="Helvetica,sans-Serif" font-size="10.00">internals/alox_macros.hpp</text>
</a>
</g>
</g>
<!-- Node2&#45;&gt;Node24 -->
<g id="edge5" class="edge"><title>Node2&#45;&gt;Node24</title>
<path fill="none" stroke="midnightblue" d="M845.532,-392.444C879.592,-383.201 934.006,-368.436 971.515,-358.257"/>
<polygon fill="midnightblue" stroke="midnightblue" points="972.881,-361.513 981.615,-355.516 971.048,-354.758 972.881,-361.513"/>
</g>
<!-- Node25 -->
<g id="node7" class="node"><title>Node25</title>
<polygon fill="white" stroke="#bfbfbf" points="492,-168.5 492,-187.5 536,-187.5 536,-168.5 492,-168.5"/>
<text text-anchor="middle" x="514" y="-175.5" font-family="Helvetica,sans-Serif" font-size="10.00">vector</text>
</g>
<!-- Node2&#45;&gt;Node25 -->
<g id="edge6" class="edge"><title>Node2&#45;&gt;Node25</title>
<path fill="none" stroke="midnightblue" d="M776.766,-396.939C689.748,-386.575 477.434,-355.933 438,-300 411.85,-262.909 461.886,-217.038 492.574,-193.877"/>
<polygon fill="midnightblue" stroke="midnightblue" points="494.999,-196.44 501.005,-187.712 490.867,-190.79 494.999,-196.44"/>
</g>
<!-- Node26 -->
<g id="node8" class="node"><title>Node26</title>
<g id="a_node8"><a xlink:href="configuration_8hpp.html" target="_top" xlink:title="alib/config/configuration.hpp">
<polygon fill="white" stroke="black" points="697,-280.5 697,-299.5 835,-299.5 835,-280.5 697,-280.5"/>
<text text-anchor="middle" x="766" y="-287.5" font-family="Helvetica,sans-Serif" font-size="10.00">alib/config/configuration.hpp</text>
</a>
</g>
</g>
<!-- Node2&#45;&gt;Node26 -->
<g id="edge7" class="edge"><title>Node2&#45;&gt;Node26</title>
<path fill="none" stroke="midnightblue" d="M776.985,-399.693C745.717,-396.393 702.668,-386.206 681,-356 664.487,-332.981 697.809,-314.321 727.453,-302.996"/>
<polygon fill="midnightblue" stroke="midnightblue" points="728.671,-306.277 736.881,-299.58 726.287,-299.696 728.671,-306.277"/>
</g>
<!-- Node32 -->
<g id="node9" class="node"><title>Node32</title>
<g id="a_node9"><a xlink:href="tokenizer_8hpp.html" target="_top" xlink:title="alib/strings/tokenizer.hpp">
<polygon fill="white" stroke="red" points="1123.5,-224.5 1123.5,-243.5 1248.5,-243.5 1248.5,-224.5 1123.5,-224.5"/>
<text text-anchor="middle" x="1186" y="-231.5" font-family="Helvetica,sans-Serif" font-size="10.00">alib/strings/tokenizer.hpp</text>
</a>
</g>
</g>
<!-- Node2&#45;&gt;Node32 -->
<g id="edge8" class="edge"><title>Node2&#45;&gt;Node32</title>
<path fill="none" stroke="midnightblue" d="M851.031,-400.459C961.026,-398.473 1280.1,-389.821 1311,-356 1329.6,-335.641 1306.07,-300.135 1286,-280 1270.59,-264.545 1248.93,-253.908 1229.71,-246.873"/>
<polygon fill="midnightblue" stroke="midnightblue" points="1230.81,-243.551 1220.21,-243.61 1228.53,-250.171 1230.81,-243.551"/>
</g>
<!-- Node33 -->
<g id="node10" class="node"><title>Node33</title>
<g id="a_node10"><a xlink:href="aloxtypesandenums_8hpp.html" target="_top" xlink:title="aloxtypesandenums.hpp">
<polygon fill="white" stroke="black" points="1097,-336.5 1097,-355.5 1219,-355.5 1219,-336.5 1097,-336.5"/>
<text text-anchor="middle" x="1158" y="-343.5" font-family="Helvetica,sans-Serif" font-size="10.00">aloxtypesandenums.hpp</text>
</a>
</g>
</g>
<!-- Node2&#45;&gt;Node33 -->
<g id="edge9" class="edge"><title>Node2&#45;&gt;Node33</title>
<path fill="none" stroke="midnightblue" d="M851.141,-395.17C909.18,-386.059 1022.12,-368.33 1093.61,-357.108"/>
<polygon fill="midnightblue" stroke="midnightblue" points="1094.51,-360.51 1103.84,-355.501 1093.42,-353.595 1094.51,-360.51"/>
</g>
<!-- Node34 -->
<g id="node11" class="node"><title>Node34</title>
<g id="a_node11"><a xlink:href="log_8hpp.html" target="_top" xlink:title="log.hpp">
<polygon fill="white" stroke="black" points="1237,-336.5 1237,-355.5 1285,-355.5 1285,-336.5 1237,-336.5"/>
<text text-anchor="middle" x="1261" y="-343.5" font-family="Helvetica,sans-Serif" font-size="10.00">log.hpp</text>
</a>
</g>
</g>
<!-- Node2&#45;&gt;Node34 -->
<g id="edge10" class="edge"><title>Node2&#45;&gt;Node34</title>
<path fill="none" stroke="midnightblue" d="M851.263,-398.594C923.071,-393.843 1084.74,-381.439 1219,-356 1221.59,-355.509 1224.28,-354.918 1226.99,-354.275"/>
<polygon fill="midnightblue" stroke="midnightblue" points="1227.99,-357.633 1236.84,-351.815 1226.29,-350.842 1227.99,-357.633"/>
</g>
<!-- Node35 -->
<g id="node12" class="node"><title>Node35</title>
<g id="a_node12"><a xlink:href="lox_8hpp.html" target="_top" xlink:title="lox.hpp">
<polygon fill="white" stroke="black" points="690,-336.5 690,-355.5 738,-355.5 738,-336.5 690,-336.5"/>
<text text-anchor="middle" x="714" y="-343.5" font-family="Helvetica,sans-Serif" font-size="10.00">lox.hpp</text>
</a>
</g>
</g>
<!-- Node2&#45;&gt;Node35 -->
<g id="edge11" class="edge"><title>Node2&#45;&gt;Node35</title>
<path fill="none" stroke="midnightblue" d="M792.818,-392.324C775.232,-383.822 750.7,-370.729 733.576,-360.797"/>
<polygon fill="midnightblue" stroke="midnightblue" points="735.302,-357.752 724.917,-355.655 731.728,-363.77 735.302,-357.752"/>
</g>
<!-- Node38&#45;&gt;Node2 -->
<g id="edge67" class="edge"><title>Node38&#45;&gt;Node2</title>
<path fill="none" stroke="midnightblue" d="M516.68,-299.646C544.401,-312.974 599.993,-338.798 649,-356 688.1,-369.725 733.607,-381.859 766.915,-390.058"/>
<polygon fill="midnightblue" stroke="midnightblue" points="766.295,-393.51 776.839,-392.474 767.951,-386.708 766.295,-393.51"/>
</g>
<!-- Node38&#45;&gt;Node25 -->
<g id="edge68" class="edge"><title>Node38&#45;&gt;Node25</title>
<path fill="none" stroke="midnightblue" d="M493.199,-280.091C485.751,-267.496 474.515,-243.808 481,-224 484.49,-213.34 491.573,-203.117 498.286,-195.117"/>
<polygon fill="midnightblue" stroke="midnightblue" points="500.904,-197.439 504.98,-187.66 495.695,-192.763 500.904,-197.439"/>
</g>
<!-- Node4 -->
<g id="node13" class="node"><title>Node4</title>
<g id="a_node13"><a xlink:href="symbols_8hpp.html" target="_top" xlink:title="alib/core/symbols.hpp">
<polygon fill="white" stroke="black" points="0,-0.5 0,-19.5 112,-19.5 112,-0.5 0,-0.5"/>
<text text-anchor="middle" x="56" y="-7.5" font-family="Helvetica,sans-Serif" font-size="10.00">alib/core/symbols.hpp</text>
</a>
</g>
</g>
<!-- Node3&#45;&gt;Node4 -->
<g id="edge12" class="edge"><title>Node3&#45;&gt;Node4</title>
<path fill="none" stroke="midnightblue" d="M1003.78,-64.4131C884.03,-62.1289 472.523,-52.3422 122.414,-20.0486"/>
<polygon fill="midnightblue" stroke="midnightblue" points="122.616,-16.5524 112.335,-19.1111 121.968,-23.5223 122.616,-16.5524"/>
</g>
<!-- Node5 -->
<g id="node14" class="node"><title>Node5</title>
<g id="a_node14"><a xlink:href="macros_8hpp.html" target="_top" xlink:title="alib/core/macros.hpp">
<polygon fill="white" stroke="black" points="130.5,-0.5 130.5,-19.5 237.5,-19.5 237.5,-0.5 130.5,-0.5"/>
<text text-anchor="middle" x="184" y="-7.5" font-family="Helvetica,sans-Serif" font-size="10.00">alib/core/macros.hpp</text>
</a>
</g>
</g>
<!-- Node3&#45;&gt;Node5 -->
<g id="edge13" class="edge"><title>Node3&#45;&gt;Node5</title>
<path fill="none" stroke="midnightblue" d="M1004,-64.0997C895.423,-61.0066 547.16,-49.3963 247.761,-19.9795"/>
<polygon fill="midnightblue" stroke="midnightblue" points="247.875,-16.4738 237.579,-18.9703 247.185,-23.4396 247.875,-16.4738"/>
</g>
<!-- Node6 -->
<g id="node15" class="node"><title>Node6</title>
<polygon fill="white" stroke="#bfbfbf" points="256,-0.5 256,-19.5 308,-19.5 308,-0.5 256,-0.5"/>
<text text-anchor="middle" x="282" y="-7.5" font-family="Helvetica,sans-Serif" font-size="10.00">assert.h</text>
</g>
<!-- Node3&#45;&gt;Node6 -->
<g id="edge14" class="edge"><title>Node3&#45;&gt;Node6</title>
<path fill="none" stroke="midnightblue" d="M1003.97,-65.1534C901.476,-65.1353 586.804,-61.5662 318.198,-19.8845"/>
<polygon fill="midnightblue" stroke="midnightblue" points="318.684,-16.4179 308.261,-18.3216 317.596,-23.3329 318.684,-16.4179"/>
</g>
<!-- Node7 -->
<g id="node16" class="node"><title>Node7</title>
<polygon fill="white" stroke="#bfbfbf" points="326.5,-0.5 326.5,-19.5 375.5,-19.5 375.5,-0.5 326.5,-0.5"/>
<text text-anchor="middle" x="351" y="-7.5" font-family="Helvetica,sans-Serif" font-size="10.00">cstddef</text>
</g>
<!-- Node3&#45;&gt;Node7 -->
<g id="edge15" class="edge"><title>Node3&#45;&gt;Node7</title>
<path fill="none" stroke="midnightblue" d="M1003.68,-65.016C907.357,-64.5588 626.361,-59.7835 385.732,-19.9885"/>
<polygon fill="midnightblue" stroke="midnightblue" points="386.19,-16.5167 375.749,-18.3134 385.032,-23.4202 386.19,-16.5167"/>
</g>
<!-- Node8 -->
<g id="node17" class="node"><title>Node8</title>
<polygon fill="white" stroke="#bfbfbf" points="393.5,-0.5 393.5,-19.5 456.5,-19.5 456.5,-0.5 393.5,-0.5"/>
<text text-anchor="middle" x="425" y="-7.5" font-family="Helvetica,sans-Serif" font-size="10.00">windows.h</text>
</g>
<!-- Node3&#45;&gt;Node8 -->
<g id="edge16" class="edge"><title>Node3&#45;&gt;Node8</title>
<path fill="none" stroke="midnightblue" d="M1003.9,-64.0219C916.218,-61.1457 675.683,-50.974 466.725,-20.0727"/>
<polygon fill="midnightblue" stroke="midnightblue" points="467.207,-16.606 456.799,-18.5855 466.17,-23.5288 467.207,-16.606"/>
</g>
<!-- Node9 -->
<g id="node18" class="node"><title>Node9</title>
<polygon fill="white" stroke="#bfbfbf" points="474.5,-0.5 474.5,-19.5 523.5,-19.5 523.5,-0.5 474.5,-0.5"/>
<text text-anchor="middle" x="499" y="-7.5" font-family="Helvetica,sans-Serif" font-size="10.00">stdint.h</text>
</g>
<!-- Node3&#45;&gt;Node9 -->
<g id="edge17" class="edge"><title>Node3&#45;&gt;Node9</title>
<path fill="none" stroke="midnightblue" d="M1003.75,-63.9536C923.311,-61.0692 716.011,-51.1559 533.805,-19.8294"/>
<polygon fill="midnightblue" stroke="midnightblue" points="534.227,-16.3502 523.774,-18.0784 533.023,-23.246 534.227,-16.3502"/>
</g>
<!-- Node10 -->
<g id="node19" class="node"><title>Node10</title>
<polygon fill="white" stroke="#bfbfbf" points="542,-0.5 542,-19.5 604,-19.5 604,-0.5 542,-0.5"/>
<text text-anchor="middle" x="573" y="-7.5" font-family="Helvetica,sans-Serif" font-size="10.00">type_traits</text>
</g>
<!-- Node3&#45;&gt;Node10 -->
<g id="edge18" class="edge"><title>Node3&#45;&gt;Node10</title>
<path fill="none" stroke="midnightblue" d="M1003.94,-62.7395C933.149,-57.7528 764.842,-44.3987 614.267,-20.0406"/>
<polygon fill="midnightblue" stroke="midnightblue" points="614.81,-16.583 604.376,-18.4203 613.678,-23.4909 614.81,-16.583"/>
</g>
<!-- Node11 -->
<g id="node20" class="node"><title>Node11</title>
<polygon fill="white" stroke="#bfbfbf" points="622,-0.5 622,-19.5 662,-19.5 662,-0.5 622,-0.5"/>
<text text-anchor="middle" x="642" y="-7.5" font-family="Helvetica,sans-Serif" font-size="10.00">utility</text>
</g>
<!-- Node3&#45;&gt;Node11 -->
<g id="edge19" class="edge"><title>Node3&#45;&gt;Node11</title>
<path fill="none" stroke="midnightblue" d="M1003.76,-62.8547C940.109,-58.4267 799.212,-46.5597 672.067,-19.8775"/>
<polygon fill="midnightblue" stroke="midnightblue" points="672.669,-16.4274 662.159,-17.7619 671.208,-23.2731 672.669,-16.4274"/>
</g>
<!-- Node12 -->
<g id="node21" class="node"><title>Node12</title>
<polygon fill="white" stroke="#bfbfbf" points="680.5,-0.5 680.5,-19.5 721.5,-19.5 721.5,-0.5 680.5,-0.5"/>
<text text-anchor="middle" x="701" y="-7.5" font-family="Helvetica,sans-Serif" font-size="10.00">stack</text>
</g>
<!-- Node3&#45;&gt;Node12 -->
<g id="edge20" class="edge"><title>Node3&#45;&gt;Node12</title>
<path fill="none" stroke="midnightblue" d="M1003.63,-61.6179C948.282,-55.8138 835.886,-42.554 731.321,-19.7593"/>
<polygon fill="midnightblue" stroke="midnightblue" points="732.073,-16.3411 721.553,-17.5965 730.56,-23.1756 732.073,-16.3411"/>
</g>
<!-- Node13 -->
<g id="node22" class="node"><title>Node13</title>
<g id="a_node22"><a xlink:href="enums_8hpp.html" target="_top" xlink:title="alib/core/enums.hpp">
<polygon fill="white" stroke="black" points="740,-0.5 740,-19.5 844,-19.5 844,-0.5 740,-0.5"/>
<text text-anchor="middle" x="792" y="-7.5" font-family="Helvetica,sans-Serif" font-size="10.00">alib/core/enums.hpp</text>
</a>
</g>
</g>
<!-- Node3&#45;&gt;Node13 -->
<g id="edge21" class="edge"><title>Node3&#45;&gt;Node13</title>
<path fill="none" stroke="midnightblue" d="M1003.74,-58.4863C959.818,-49.3989 883.886,-32.8003 835.821,-21.8337"/>
<polygon fill="midnightblue" stroke="midnightblue" points="836.538,-18.4074 826.009,-19.5837 834.974,-25.2303 836.538,-18.4074"/>
</g>
<!-- Node14 -->
<g id="node23" class="node"><title>Node14</title>
<g id="a_node23"><a xlink:href="report_8hpp.html" target="_top" xlink:title="alib/core/report.hpp">
<polygon fill="white" stroke="black" points="862,-0.5 862,-19.5 962,-19.5 962,-0.5 862,-0.5"/>
<text text-anchor="middle" x="912" y="-7.5" font-family="Helvetica,sans-Serif" font-size="10.00">alib/core/report.hpp</text>
</a>
</g>
</g>
<!-- Node3&#45;&gt;Node14 -->
<g id="edge22" class="edge"><title>Node3&#45;&gt;Node14</title>
<path fill="none" stroke="midnightblue" d="M1012.95,-56.4435C990.563,-47.6751 958.251,-33.9355 936.153,-23.8579"/>
<polygon fill="midnightblue" stroke="midnightblue" points="937.336,-20.5484 926.792,-19.5164 934.391,-26.8988 937.336,-20.5484"/>
</g>
<!-- Node15 -->
<g id="node24" class="node"><title>Node15</title>
<g id="a_node24"><a xlink:href="cstring_8hpp.html" target="_top" xlink:title="alib/strings/cstring.hpp">
<polygon fill="white" stroke="red" points="980.5,-0.5 980.5,-19.5 1095.5,-19.5 1095.5,-0.5 980.5,-0.5"/>
<text text-anchor="middle" x="1038" y="-7.5" font-family="Helvetica,sans-Serif" font-size="10.00">alib/strings/cstring.hpp</text>
</a>
</g>
</g>
<!-- Node3&#45;&gt;Node15 -->
<g id="edge23" class="edge"><title>Node3&#45;&gt;Node15</title>
<path fill="none" stroke="midnightblue" d="M1032.83,-56.083C1031.32,-48.9272 1030.89,-38.6353 1031.54,-29.6911"/>
<polygon fill="midnightblue" stroke="midnightblue" points="1035.02,-30.1262 1032.87,-19.7511 1028.08,-29.2002 1035.02,-30.1262"/>
</g>
<!-- Node16 -->
<g id="node25" class="node"><title>Node16</title>
<g id="a_node25"><a xlink:href="string_8hpp.html" target="_top" xlink:title="alib/strings/string.hpp">
<polygon fill="white" stroke="red" points="1114,-0.5 1114,-19.5 1224,-19.5 1224,-0.5 1114,-0.5"/>
<text text-anchor="middle" x="1169" y="-7.5" font-family="Helvetica,sans-Serif" font-size="10.00">alib/strings/string.hpp</text>
</a>
</g>
</g>
<!-- Node3&#45;&gt;Node16 -->
<g id="edge24" class="edge"><title>Node3&#45;&gt;Node16</title>
<path fill="none" stroke="midnightblue" d="M1053.67,-56.4435C1073.45,-47.4776 1107.59,-33.314 1133.7,-23.1827"/>
<polygon fill="midnightblue" stroke="midnightblue" points="1135.18,-26.3639 1143.26,-19.5164 1132.67,-19.8277 1135.18,-26.3639"/>
</g>
<!-- Node17 -->
<g id="node26" class="node"><title>Node17</title>
<g id="a_node26"><a xlink:href="tstring_8hpp.html" target="_top" xlink:title="alib/strings/tstring.hpp">
<polygon fill="white" stroke="black" points="1242.5,-0.5 1242.5,-19.5 1355.5,-19.5 1355.5,-0.5 1242.5,-0.5"/>
<text text-anchor="middle" x="1299" y="-7.5" font-family="Helvetica,sans-Serif" font-size="10.00">alib/strings/tstring.hpp</text>
</a>
</g>
</g>
<!-- Node3&#45;&gt;Node17 -->
<g id="edge25" class="edge"><title>Node3&#45;&gt;Node17</title>
<path fill="none" stroke="midnightblue" d="M1072.09,-56.9157C1115.38,-47.5097 1190.42,-31.9489 1242.34,-21.5864"/>
<polygon fill="midnightblue" stroke="midnightblue" points="1243.28,-24.9692 1252.4,-19.5865 1241.91,-18.1036 1243.28,-24.9692"/>
</g>
<!-- Node18 -->
<g id="node27" class="node"><title>Node18</title>
<g id="a_node27"><a xlink:href="stringliteral_8hpp.html" target="_top" xlink:title="alib/strings/stringliteral.hpp">
<polygon fill="white" stroke="red" points="1373.5,-0.5 1373.5,-19.5 1506.5,-19.5 1506.5,-0.5 1373.5,-0.5"/>
<text text-anchor="middle" x="1440" y="-7.5" font-family="Helvetica,sans-Serif" font-size="10.00">alib/strings/stringliteral.hpp</text>
</a>
</g>
</g>
<!-- Node3&#45;&gt;Node18 -->
<g id="edge26" class="edge"><title>Node3&#45;&gt;Node18</title>
<path fill="none" stroke="midnightblue" d="M1072.02,-59.8711C1136.03,-50.8684 1275.43,-32.091 1363.14,-20.6117"/>
<polygon fill="midnightblue" stroke="midnightblue" points="1363.84,-24.0494 1373.31,-19.2835 1362.94,-17.1084 1363.84,-24.0494"/>
</g>
<!-- Node19 -->
<g id="node28" class="node"><title>Node19</title>
<g id="a_node28"><a xlink:href="astring_8hpp.html" target="_top" xlink:title="alib/strings/astring.hpp">
<polygon fill="white" stroke="red" points="1524.5,-0.5 1524.5,-19.5 1639.5,-19.5 1639.5,-0.5 1524.5,-0.5"/>
<text text-anchor="middle" x="1582" y="-7.5" font-family="Helvetica,sans-Serif" font-size="10.00">alib/strings/astring.hpp</text>
</a>
</g>
</g>
<!-- Node3&#45;&gt;Node19 -->
<g id="edge27" class="edge"><title>Node3&#45;&gt;Node19</title>
<path fill="none" stroke="midnightblue" d="M1072.16,-61.8751C1149.74,-55.2264 1344.29,-38.7449 1507,-20 1509.37,-19.7264 1511.8,-19.4383 1514.25,-19.1399"/>
<polygon fill="midnightblue" stroke="midnightblue" points="1514.95,-22.5798 1524.43,-17.865 1514.08,-15.634 1514.95,-22.5798"/>
</g>
<!-- Node20 -->
<g id="node29" class="node"><title>Node20</title>
<g id="a_node29"><a xlink:href="preallocatedstring_8hpp.html" target="_top" xlink:title="alib/strings/preallocatedstring.hpp">
<polygon fill="white" stroke="black" points="1658,-0.5 1658,-19.5 1820,-19.5 1820,-0.5 1658,-0.5"/>
<text text-anchor="middle" x="1739" y="-7.5" font-family="Helvetica,sans-Serif" font-size="10.00">alib/strings/preallocatedstring.hpp</text>
</a>
</g>
</g>
<!-- Node3&#45;&gt;Node20 -->
<g id="edge28" class="edge"><title>Node3&#45;&gt;Node20</title>
<path fill="none" stroke="midnightblue" d="M1072.18,-62.507C1164.19,-56.199 1423.83,-38.7656 1640,-20 1642.53,-19.7802 1645.1,-19.5521 1647.7,-19.3179"/>
<polygon fill="midnightblue" stroke="midnightblue" points="1648.19,-22.7876 1657.83,-18.3871 1647.55,-15.8169 1648.19,-22.7876"/>
</g>
<!-- Node21 -->
<g id="node30" class="node"><title>Node21</title>
<g id="a_node30"><a xlink:href="applyto_8hpp.html" target="_top" xlink:title="alib/strings/applyto.hpp">
<polygon fill="white" stroke="black" points="1838.5,-0.5 1838.5,-19.5 1955.5,-19.5 1955.5,-0.5 1838.5,-0.5"/>
<text text-anchor="middle" x="1897" y="-7.5" font-family="Helvetica,sans-Serif" font-size="10.00">alib/strings/applyto.hpp</text>
</a>
</g>
</g>
<!-- Node3&#45;&gt;Node21 -->
<g id="edge29" class="edge"><title>Node3&#45;&gt;Node21</title>
<path fill="none" stroke="midnightblue" d="M1072.37,-63.8351C1181.89,-60.1378 1531.4,-47.2691 1820,-20 1822.69,-19.7462 1825.43,-19.4668 1828.2,-19.1684"/>
<polygon fill="midnightblue" stroke="midnightblue" points="1828.81,-22.6223 1838.35,-18.0161 1828.02,-15.667 1828.81,-22.6223"/>
</g>
<!-- Node22 -->
<g id="node31" class="node"><title>Node22</title>
<g id="a_node31"><a xlink:href="applyformat_8hpp.html" target="_top" xlink:title="alib/strings/applyformat.hpp">
<polygon fill="white" stroke="red" points="1973.5,-0.5 1973.5,-19.5 2110.5,-19.5 2110.5,-0.5 1973.5,-0.5"/>
<text text-anchor="middle" x="2042" y="-7.5" font-family="Helvetica,sans-Serif" font-size="10.00">alib/strings/applyformat.hpp</text>
</a>
</g>
</g>
<!-- Node3&#45;&gt;Node22 -->
<g id="edge30" class="edge"><title>Node3&#45;&gt;Node22</title>
<path fill="none" stroke="midnightblue" d="M1072.32,-64.0792C1193.51,-60.8191 1611.56,-48.4571 1956,-20 1958.38,-19.8036 1960.79,-19.5914 1963.24,-19.3663"/>
<polygon fill="midnightblue" stroke="midnightblue" points="1963.77,-22.8305 1973.39,-18.377 1963.1,-15.8635 1963.77,-22.8305"/>
</g>
<!-- Node26&#45;&gt;Node25 -->
<g id="edge41" class="edge"><title>Node26&#45;&gt;Node25</title>
<path fill="none" stroke="midnightblue" d="M696.852,-280.617C643.445,-273.027 574.907,-260.51 552,-244 536.128,-232.561 525.826,-212.279 520.007,-197.405"/>
<polygon fill="midnightblue" stroke="midnightblue" points="523.21,-195.969 516.546,-187.733 516.62,-198.328 523.21,-195.969"/>
</g>
<!-- Node26&#45;&gt;Node32 -->
<g id="edge47" class="edge"><title>Node26&#45;&gt;Node32</title>
<path fill="none" stroke="midnightblue" d="M832.55,-280.444C908.922,-270.624 1033.78,-254.571 1112.83,-244.408"/>
<polygon fill="midnightblue" stroke="midnightblue" points="1113.72,-247.822 1123.19,-243.075 1112.83,-240.879 1113.72,-247.822"/>
</g>
<!-- Node27 -->
<g id="node32" class="node"><title>Node27</title>
<g id="a_node32"><a xlink:href="threadlock_8hpp.html" target="_top" xlink:title="alib/threads/threadlock.hpp">
<polygon fill="white" stroke="red" points="971,-224.5 971,-243.5 1105,-243.5 1105,-224.5 971,-224.5"/>
<text text-anchor="middle" x="1038" y="-231.5" font-family="Helvetica,sans-Serif" font-size="10.00">alib/threads/threadlock.hpp</text>
</a>
</g>
</g>
<!-- Node26&#45;&gt;Node27 -->
<g id="edge42" class="edge"><title>Node26&#45;&gt;Node27</title>
<path fill="none" stroke="midnightblue" d="M809.099,-280.444C856.847,-270.964 933.861,-255.675 985.194,-245.483"/>
<polygon fill="midnightblue" stroke="midnightblue" points="985.975,-248.897 995.102,-243.516 984.612,-242.031 985.975,-248.897"/>
</g>
<!-- Node28 -->
<g id="node33" class="node"><title>Node28</title>
<g id="a_node33"><a xlink:href="substring_8hpp.html" target="_top" xlink:title="alib/strings/substring.hpp">
<polygon fill="white" stroke="black" points="800.5,-112.5 800.5,-131.5 925.5,-131.5 925.5,-112.5 800.5,-112.5"/>
<text text-anchor="middle" x="863" y="-119.5" font-family="Helvetica,sans-Serif" font-size="10.00">alib/strings/substring.hpp</text>
</a>
</g>
</g>
<!-- Node26&#45;&gt;Node28 -->
<g id="edge43" class="edge"><title>Node26&#45;&gt;Node28</title>
<path fill="none" stroke="midnightblue" d="M769.84,-280.426C775.563,-267.837 786.855,-243.708 798,-224 815.19,-193.601 837.707,-159.75 851.225,-139.974"/>
<polygon fill="midnightblue" stroke="midnightblue" points="854.128,-141.929 856.913,-131.707 848.361,-137.961 854.128,-141.929"/>
</g>
<!-- Node29 -->
<g id="node34" class="node"><title>Node29</title>
<g id="a_node34"><a xlink:href="numberformat_8hpp.html" target="_top" xlink:title="alib/strings/numberformat.hpp">
<polygon fill="white" stroke="black" points="807,-224.5 807,-243.5 953,-243.5 953,-224.5 807,-224.5"/>
<text text-anchor="middle" x="880" y="-231.5" font-family="Helvetica,sans-Serif" font-size="10.00">alib/strings/numberformat.hpp</text>
</a>
</g>
</g>
<!-- Node26&#45;&gt;Node29 -->
<g id="edge44" class="edge"><title>Node26&#45;&gt;Node29</title>
<path fill="none" stroke="midnightblue" d="M784.064,-280.444C802.575,-271.675 831.581,-257.935 852.855,-247.858"/>
<polygon fill="midnightblue" stroke="midnightblue" points="854.482,-250.96 862.021,-243.516 851.485,-244.634 854.482,-250.96"/>
</g>
<!-- Node30 -->
<g id="node35" class="node"><title>Node30</title>
<g id="a_node35"><a xlink:href="plugins_8hpp.html" target="_top" xlink:title="alib/config/plugins.hpp">
<polygon fill="white" stroke="red" points="637.5,-168.5 637.5,-187.5 750.5,-187.5 750.5,-168.5 637.5,-168.5"/>
<text text-anchor="middle" x="694" y="-175.5" font-family="Helvetica,sans-Serif" font-size="10.00">alib/config/plugins.hpp</text>
</a>
</g>
</g>
<!-- Node26&#45;&gt;Node30 -->
<g id="edge45" class="edge"><title>Node26&#45;&gt;Node30</title>
<path fill="none" stroke="midnightblue" d="M760.35,-280.368C748.468,-262.215 720.706,-219.802 705.121,-195.99"/>
<polygon fill="midnightblue" stroke="midnightblue" points="708.029,-194.042 699.623,-187.591 702.172,-197.875 708.029,-194.042"/>
</g>
<!-- Node31 -->
<g id="node36" class="node"><title>Node31</title>
<g id="a_node36"><a xlink:href="inmemoryplugin_8hpp.html" target="_top" xlink:title="alib/config/inmemoryplugin.hpp">
<polygon fill="white" stroke="black" points="561.5,-224.5 561.5,-243.5 712.5,-243.5 712.5,-224.5 561.5,-224.5"/>
<text text-anchor="middle" x="637" y="-231.5" font-family="Helvetica,sans-Serif" font-size="10.00">alib/config/inmemoryplugin.hpp</text>
</a>
</g>
</g>
<!-- Node26&#45;&gt;Node31 -->
<g id="edge46" class="edge"><title>Node26&#45;&gt;Node31</title>
<path fill="none" stroke="midnightblue" d="M745.56,-280.444C724.33,-271.557 690.901,-257.563 666.745,-247.451"/>
<polygon fill="midnightblue" stroke="midnightblue" points="667.921,-244.149 657.345,-243.516 665.218,-250.606 667.921,-244.149"/>
</g>
<!-- Node32&#45;&gt;Node28 -->
<g id="edge54" class="edge"><title>Node32&#45;&gt;Node28</title>
<path fill="none" stroke="midnightblue" d="M1160.92,-224.46C1103.68,-204.966 963.303,-157.159 897.764,-134.839"/>
<polygon fill="midnightblue" stroke="midnightblue" points="898.878,-131.521 888.283,-131.61 896.621,-138.147 898.878,-131.521"/>
</g>
<!-- Node34&#45;&gt;Node2 -->
<g id="edge55" class="edge"><title>Node34&#45;&gt;Node2</title>
<path fill="none" stroke="midnightblue" d="M1239.47,-355.507C1238.64,-355.68 1237.82,-355.845 1237,-356 1102.23,-381.537 939.82,-393.939 861.106,-398.649"/>
<polygon fill="midnightblue" stroke="midnightblue" points="860.799,-395.16 851.02,-399.237 861.206,-402.149 860.799,-395.16"/>
</g>
<!-- Node35&#45;&gt;Node2 -->
<g id="edge56" class="edge"><title>Node35&#45;&gt;Node2</title>
<path fill="none" stroke="midnightblue" d="M735.137,-355.655C752.711,-364.149 777.244,-377.241 794.38,-387.177"/>
<polygon fill="midnightblue" stroke="midnightblue" points="792.663,-390.228 803.048,-392.324 796.236,-384.209 792.663,-390.228"/>
</g>
<!-- Node35&#45;&gt;Node38 -->
<g id="edge62" class="edge"><title>Node35&#45;&gt;Node38</title>
<path fill="none" stroke="midnightblue" d="M689.755,-338.91C654.197,-329.98 587.327,-313.185 542.968,-302.043"/>
<polygon fill="midnightblue" stroke="midnightblue" points="543.588,-298.59 533.037,-299.549 541.883,-305.379 543.588,-298.59"/>
</g>
<!-- Node35&#45;&gt;Node26 -->
<g id="edge57" class="edge"><title>Node35&#45;&gt;Node26</title>
<path fill="none" stroke="midnightblue" d="M722.587,-336.083C730.159,-328.22 741.378,-316.569 750.514,-307.081"/>
<polygon fill="midnightblue" stroke="midnightblue" points="753.158,-309.382 757.573,-299.751 748.115,-304.527 753.158,-309.382"/>
</g>
<!-- Node35&#45;&gt;Node32 -->
<g id="edge59" class="edge"><title>Node35&#45;&gt;Node32</title>
<path fill="none" stroke="midnightblue" d="M738.272,-339.655C770.93,-332.185 830.622,-317.549 880,-300 900.623,-292.671 904.056,-286.352 925,-280 959.823,-269.438 1051.36,-254.734 1116.17,-245.048"/>
<polygon fill="midnightblue" stroke="midnightblue" points="1116.95,-248.47 1126.33,-243.538 1115.92,-241.546 1116.95,-248.47"/>
</g>
<!-- Node35&#45;&gt;Node27 -->
<g id="edge58" class="edge"><title>Node35&#45;&gt;Node27</title>
<path fill="none" stroke="midnightblue" d="M738.232,-337.432C764.549,-329.023 807.688,-314.685 844,-300 863.54,-292.098 867.293,-287.474 887,-280 922.503,-266.535 963.9,-254.442 994.361,-246.192"/>
<polygon fill="midnightblue" stroke="midnightblue" points="995.493,-249.512 1004.25,-243.545 993.682,-242.75 995.493,-249.512"/>
</g>
<!-- Node36 -->
<g id="node37" class="node"><title>Node36</title>
<g id="a_node37"><a xlink:href="scopeinfo_8hpp.html" target="_top" xlink:title="alox/core/scopeinfo.hpp">
<polygon fill="white" stroke="red" points="967,-280.5 967,-299.5 1087,-299.5 1087,-280.5 967,-280.5"/>
<text text-anchor="middle" x="1027" y="-287.5" font-family="Helvetica,sans-Serif" font-size="10.00">alox/core/scopeinfo.hpp</text>
</a>
</g>
</g>
<!-- Node35&#45;&gt;Node36 -->
<g id="edge60" class="edge"><title>Node35&#45;&gt;Node36</title>
<path fill="none" stroke="midnightblue" d="M738.067,-339.03C742.679,-337.963 747.479,-336.904 752,-336 821.557,-322.09 901.648,-309.352 957.389,-301.007"/>
<polygon fill="midnightblue" stroke="midnightblue" points="958.13,-304.435 967.505,-299.5 957.099,-297.511 958.13,-304.435"/>
</g>
<!-- Node37 -->
<g id="node38" class="node"><title>Node37</title>
<polygon fill="white" stroke="#bfbfbf" points="1266.5,-224.5 1266.5,-243.5 1301.5,-243.5 1301.5,-224.5 1266.5,-224.5"/>
<text text-anchor="middle" x="1284" y="-231.5" font-family="Helvetica,sans-Serif" font-size="10.00">map</text>
</g>
<!-- Node35&#45;&gt;Node37 -->
<g id="edge61" class="edge"><title>Node35&#45;&gt;Node37</title>
<path fill="none" stroke="midnightblue" d="M738.26,-341.52C776.857,-335.566 854.293,-321.9 917,-300 936.141,-293.315 938.554,-285.736 958,-280 1083.25,-243.056 1124.39,-271.831 1256.35,-243.65"/>
<polygon fill="midnightblue" stroke="midnightblue" points="1257.41,-246.998 1266.43,-241.425 1255.91,-240.163 1257.41,-246.998"/>
</g>
<!-- Node39 -->
<g id="node39" class="node"><title>Node39</title>
<g id="a_node39"><a xlink:href="domain_8hpp.html" target="_top" xlink:title="alox/core/domain.hpp">
<polygon fill="white" stroke="black" points="569,-280.5 569,-299.5 679,-299.5 679,-280.5 569,-280.5"/>
<text text-anchor="middle" x="624" y="-287.5" font-family="Helvetica,sans-Serif" font-size="10.00">alox/core/domain.hpp</text>
</a>
</g>
</g>
<!-- Node35&#45;&gt;Node39 -->
<g id="edge63" class="edge"><title>Node35&#45;&gt;Node39</title>
<path fill="none" stroke="midnightblue" d="M699.54,-336.324C685.5,-327.9 663.952,-314.971 647.457,-305.074"/>
<polygon fill="midnightblue" stroke="midnightblue" points="648.8,-301.798 638.424,-299.655 645.198,-307.801 648.8,-301.798"/>
</g>
<!-- Node40 -->
<g id="node40" class="node"><title>Node40</title>
<g id="a_node40"><a xlink:href="scopestore_8hpp.html" target="_top" xlink:title="alox/core/scopestore.hpp">
<polygon fill="white" stroke="black" points="1151,-280.5 1151,-299.5 1277,-299.5 1277,-280.5 1151,-280.5"/>
<text text-anchor="middle" x="1214" y="-287.5" font-family="Helvetica,sans-Serif" font-size="10.00">alox/core/scopestore.hpp</text>
</a>
</g>
</g>
<!-- Node35&#45;&gt;Node40 -->
<g id="edge64" class="edge"><title>Node35&#45;&gt;Node40</title>
<path fill="none" stroke="midnightblue" d="M738.301,-341.788C752.006,-340.009 769.448,-337.801 785,-336 909.741,-321.553 1055.13,-306.725 1140.59,-298.214"/>
<polygon fill="midnightblue" stroke="midnightblue" points="1141.11,-301.68 1150.71,-297.207 1140.42,-294.714 1141.11,-301.68"/>
</g>
<!-- Node13&#45;&gt;Node3 -->
<g id="edge31" class="edge"><title>Node13&#45;&gt;Node3</title>
<path fill="none" stroke="midnightblue" d="M835.877,-19.5164C880.6,-28.8809 949.4,-43.95 994.12,-54.1529"/>
<polygon fill="midnightblue" stroke="midnightblue" points="993.58,-57.6198 1004.11,-56.4435 995.145,-50.7969 993.58,-57.6198"/>
</g>
<!-- Node14&#45;&gt;Node3 -->
<g id="edge32" class="edge"><title>Node14&#45;&gt;Node3</title>
<path fill="none" stroke="midnightblue" d="M936.952,-19.5164C959.405,-28.3091 991.908,-42.1312 1014.04,-52.2321"/>
<polygon fill="midnightblue" stroke="midnightblue" points="1012.58,-55.4109 1023.12,-56.4435 1015.52,-49.0607 1012.58,-55.4109"/>
</g>
<!-- Node15&#45;&gt;Node3 -->
<g id="edge33" class="edge"><title>Node15&#45;&gt;Node3</title>
<path fill="none" stroke="midnightblue" d="M1043.13,-19.7511C1044.66,-26.8579 1045.1,-37.1357 1044.47,-46.1005"/>
<polygon fill="midnightblue" stroke="midnightblue" points="1040.99,-45.7134 1043.17,-56.083 1047.93,-46.6216 1040.99,-45.7134"/>
</g>
<!-- Node16&#45;&gt;Node3 -->
<g id="edge34" class="edge"><title>Node16&#45;&gt;Node3</title>
<path fill="none" stroke="midnightblue" d="M1153.42,-19.5164C1133.68,-28.4669 1099.55,-42.6287 1073.42,-52.772"/>
<polygon fill="midnightblue" stroke="midnightblue" points="1071.93,-49.5952 1063.85,-56.4435 1074.44,-56.1312 1071.93,-49.5952"/>
</g>
<!-- Node17&#45;&gt;Node3 -->
<g id="edge35" class="edge"><title>Node17&#45;&gt;Node3</title>
<path fill="none" stroke="midnightblue" d="M1262.86,-19.5298C1215.6,-29.7732 1133.14,-46.8283 1082.22,-56.884"/>
<polygon fill="midnightblue" stroke="midnightblue" points="1081.3,-53.4966 1072.16,-58.8581 1082.65,-60.3654 1081.3,-53.4966"/>
</g>
<!-- Node18&#45;&gt;Node3 -->
<g id="edge36" class="edge"><title>Node18&#45;&gt;Node3</title>
<path fill="none" stroke="midnightblue" d="M1381.55,-19.5342C1300.41,-30.7656 1155.6,-50.1807 1082.57,-59.5843"/>
<polygon fill="midnightblue" stroke="midnightblue" points="1081.81,-56.1535 1072.34,-60.8969 1082.7,-63.0966 1081.81,-56.1535"/>
</g>
<!-- Node19&#45;&gt;Node3 -->
<g id="edge37" class="edge"><title>Node19&#45;&gt;Node3</title>
<path fill="none" stroke="midnightblue" d="M1529.18,-19.5097C1527.77,-19.6775 1526.38,-19.8412 1525,-20 1362.44,-38.7269 1168.11,-55.1948 1082.27,-61.856"/>
<polygon fill="midnightblue" stroke="midnightblue" points="1081.81,-58.3811 1072.1,-62.6377 1082.34,-65.3605 1081.81,-58.3811"/>
</g>
<!-- Node20&#45;&gt;Node3 -->
<g id="edge38" class="edge"><title>Node20&#45;&gt;Node3</title>
<path fill="none" stroke="midnightblue" d="M1663.21,-19.5411C1661.46,-19.6974 1659.72,-19.8506 1658,-20 1442.82,-38.6795 1184.57,-56.0389 1082.48,-62.4194"/>
<polygon fill="midnightblue" stroke="midnightblue" points="1082,-58.9424 1072.23,-63.0552 1082.43,-65.9289 1082,-58.9424"/>
</g>
<!-- Node21&#45;&gt;Node3 -->
<g id="edge39" class="edge"><title>Node21&#45;&gt;Node3</title>
<path fill="none" stroke="midnightblue" d="M1843.04,-19.5018C1841.34,-19.6766 1839.66,-19.8432 1838,-20 1550.92,-47.1254 1203.57,-60.0018 1082.24,-63.7759"/>
<polygon fill="midnightblue" stroke="midnightblue" points="1082.1,-60.2784 1072.21,-64.0828 1082.32,-67.2751 1082.1,-60.2784"/>
</g>
<!-- Node22&#45;&gt;Node3 -->
<g id="edge40" class="edge"><title>Node22&#45;&gt;Node3</title>
<path fill="none" stroke="midnightblue" d="M1979.7,-19.5063C1977.78,-19.6798 1975.88,-19.8449 1974,-20 1631.99,-48.2558 1217.43,-60.6433 1082.58,-64.0086"/>
<polygon fill="midnightblue" stroke="midnightblue" points="1082.15,-60.5178 1072.24,-64.2623 1082.33,-67.5157 1082.15,-60.5178"/>
</g>
<!-- Node27&#45;&gt;Node3 -->
<g id="edge48" class="edge"><title>Node27&#45;&gt;Node3</title>
<path fill="none" stroke="midnightblue" d="M1038,-224.075C1038,-197.945 1038,-121.211 1038,-85.577"/>
<polygon fill="midnightblue" stroke="midnightblue" points="1041.5,-85.5681 1038,-75.5681 1034.5,-85.5681 1041.5,-85.5681"/>
</g>
<!-- Node27&#45;&gt;Node25 -->
<g id="edge49" class="edge"><title>Node27&#45;&gt;Node25</title>
<path fill="none" stroke="midnightblue" d="M970.871,-224.985C967.873,-224.648 964.906,-224.318 962,-224 806.468,-206.981 620.28,-189.066 546.451,-182.06"/>
<polygon fill="midnightblue" stroke="midnightblue" points="546.676,-178.566 536.39,-181.107 546.015,-185.535 546.676,-178.566"/>
</g>
<!-- Node28&#45;&gt;Node3 -->
<g id="edge50" class="edge"><title>Node28&#45;&gt;Node3</title>
<path fill="none" stroke="midnightblue" d="M890.729,-112.444C920.426,-103.28 967.716,-88.6876 1000.67,-78.5192"/>
<polygon fill="midnightblue" stroke="midnightblue" points="1001.88,-81.8094 1010.4,-75.5164 999.813,-75.1206 1001.88,-81.8094"/>
</g>
<!-- Node30&#45;&gt;Node28 -->
<g id="edge51" class="edge"><title>Node30&#45;&gt;Node28</title>
<path fill="none" stroke="midnightblue" d="M720.779,-168.444C749.333,-159.32 794.733,-144.813 826.537,-134.651"/>
<polygon fill="midnightblue" stroke="midnightblue" points="827.886,-137.894 836.347,-131.516 825.756,-131.226 827.886,-137.894"/>
</g>
<!-- Node31&#45;&gt;Node25 -->
<g id="edge52" class="edge"><title>Node31&#45;&gt;Node25</title>
<path fill="none" stroke="midnightblue" d="M617.51,-224.444C597.358,-215.596 565.677,-201.687 542.669,-191.586"/>
<polygon fill="midnightblue" stroke="midnightblue" points="543.962,-188.332 533.399,-187.516 541.148,-194.741 543.962,-188.332"/>
</g>
<!-- Node31&#45;&gt;Node30 -->
<g id="edge53" class="edge"><title>Node31&#45;&gt;Node30</title>
<path fill="none" stroke="midnightblue" d="M646.158,-224.324C654.501,-216.42 667.032,-204.548 677.177,-194.938"/>
<polygon fill="midnightblue" stroke="midnightblue" points="679.823,-197.252 684.675,-187.834 675.009,-192.171 679.823,-197.252"/>
</g>
<!-- Node36&#45;&gt;Node2 -->
<g id="edge65" class="edge"><title>Node36&#45;&gt;Node2</title>
<path fill="none" stroke="midnightblue" d="M971.444,-299.505C901.868,-310.422 790.975,-328.811 785,-336 772.983,-350.458 785.492,-370.688 797.62,-384.724"/>
<polygon fill="midnightblue" stroke="midnightblue" points="795.164,-387.224 804.528,-392.182 800.3,-382.467 795.164,-387.224"/>
</g>
<!-- Node36&#45;&gt;Node37 -->
<g id="edge66" class="edge"><title>Node36&#45;&gt;Node37</title>
<path fill="none" stroke="midnightblue" d="M1080.89,-280.473C1125.58,-272.945 1190.91,-260.893 1256.68,-243.794"/>
<polygon fill="midnightblue" stroke="midnightblue" points="1257.6,-247.17 1266.38,-241.235 1255.82,-240.401 1257.6,-247.17"/>
</g>
<!-- Node39&#45;&gt;Node2 -->
<g id="edge69" class="edge"><title>Node39&#45;&gt;Node2</title>
<path fill="none" stroke="midnightblue" d="M628.178,-299.511C635.408,-313.371 651.559,-340.794 673,-356 700.842,-375.746 737.755,-387.116 766.828,-393.486"/>
<polygon fill="midnightblue" stroke="midnightblue" points="766.256,-396.942 776.757,-395.536 767.671,-390.086 766.256,-396.942"/>
</g>
<!-- Node39&#45;&gt;Node25 -->
<g id="edge70" class="edge"><title>Node39&#45;&gt;Node25</title>
<path fill="none" stroke="midnightblue" d="M577.236,-280.457C555.996,-274.076 532.623,-263.029 519,-244 509.434,-230.639 509.111,-211.526 510.623,-197.483"/>
<polygon fill="midnightblue" stroke="midnightblue" points="514.096,-197.917 512.087,-187.514 507.171,-196.899 514.096,-197.917"/>
</g>
<!-- Node40&#45;&gt;Node2 -->
<g id="edge71" class="edge"><title>Node40&#45;&gt;Node2</title>
<path fill="none" stroke="midnightblue" d="M1239.55,-299.549C1270.22,-311.098 1315.03,-332.911 1294,-356 1265.24,-387.581 977.16,-397.409 861.594,-400.096"/>
<polygon fill="midnightblue" stroke="midnightblue" points="861.207,-396.604 851.288,-400.327 861.364,-403.602 861.207,-396.604"/>
</g>
</g>
</svg>
