<?xml version="1.0" encoding="UTF-8" standalone="no"?>
<!DOCTYPE svg PUBLIC "-//W3C//DTD SVG 1.1//EN"
 "http://www.w3.org/Graphics/SVG/1.1/DTD/svg11.dtd">
<!-- Generated by graphviz version 2.38.0 (20140413.2041)
 -->
<!-- Title: textlogger.hpp Pages: 1 -->
<svg width="2118pt" height="364pt"
 viewBox="0.00 0.00 2117.50 364.00" xmlns="http://www.w3.org/2000/svg" xmlns:xlink="http://www.w3.org/1999/xlink">
<g id="graph0" class="graph" transform="scale(1 1) rotate(0) translate(4 360)">
<title>textlogger.hpp</title>
<polygon fill="white" stroke="none" points="-4,4 -4,-360 2113.5,-360 2113.5,4 -4,4"/>
<!-- Node1 -->
<g id="node1" class="node"><title>Node1</title>
<polygon fill="#bfbfbf" stroke="black" points="1224,-336.5 1224,-355.5 1302,-355.5 1302,-336.5 1224,-336.5"/>
<text text-anchor="middle" x="1263" y="-343.5" font-family="Helvetica,sans-Serif" font-size="10.00">textlogger.hpp</text>
</g>
<!-- Node2 -->
<g id="node2" class="node"><title>Node2</title>
<g id="a_node2"><a xlink:href="alox_8hpp.html" target="_top" xlink:title="alox/alox.hpp">
<polygon fill="white" stroke="black" points="1186,-224.5 1186,-243.5 1260,-243.5 1260,-224.5 1186,-224.5"/>
<text text-anchor="middle" x="1223" y="-231.5" font-family="Helvetica,sans-Serif" font-size="10.00">alox/alox.hpp</text>
</a>
</g>
</g>
<!-- Node1&#45;&gt;Node2 -->
<g id="edge1" class="edge"><title>Node1&#45;&gt;Node2</title>
<path fill="none" stroke="midnightblue" d="M1258.41,-336.207C1253.85,-327.259 1246.87,-312.907 1242,-300 1236.17,-284.53 1231.01,-266.442 1227.55,-253.28"/>
<polygon fill="midnightblue" stroke="midnightblue" points="1230.93,-252.369 1225.06,-243.549 1224.14,-254.105 1230.93,-252.369"/>
</g>
<!-- Node32 -->
<g id="node32" class="node"><title>Node32</title>
<g id="a_node32"><a xlink:href="logger_8hpp.html" target="_top" xlink:title="alox/core/logger.hpp">
<polygon fill="white" stroke="black" points="1251,-280.5 1251,-299.5 1355,-299.5 1355,-280.5 1251,-280.5"/>
<text text-anchor="middle" x="1303" y="-287.5" font-family="Helvetica,sans-Serif" font-size="10.00">alox/core/logger.hpp</text>
</a>
</g>
</g>
<!-- Node1&#45;&gt;Node32 -->
<g id="edge47" class="edge"><title>Node1&#45;&gt;Node32</title>
<path fill="none" stroke="midnightblue" d="M1269.61,-336.083C1275.26,-328.455 1283.54,-317.264 1290.45,-307.941"/>
<polygon fill="midnightblue" stroke="midnightblue" points="1293.38,-309.87 1296.52,-299.751 1287.75,-305.703 1293.38,-309.87"/>
</g>
<!-- Node3 -->
<g id="node3" class="node"><title>Node3</title>
<g id="a_node3"><a xlink:href="alib_8hpp.html" target="_top" xlink:title="alib/alib.hpp">
<polygon fill="white" stroke="black" points="1003,-56.5 1003,-75.5 1071,-75.5 1071,-56.5 1003,-56.5"/>
<text text-anchor="middle" x="1037" y="-63.5" font-family="Helvetica,sans-Serif" font-size="10.00">alib/alib.hpp</text>
</a>
</g>
</g>
<!-- Node2&#45;&gt;Node3 -->
<g id="edge2" class="edge"><title>Node2&#45;&gt;Node3</title>
<path fill="none" stroke="midnightblue" d="M1185.8,-233.826C1106.98,-234.694 927.223,-231.718 889,-188 848.506,-141.684 944.255,-98.9998 1000.17,-78.9724"/>
<polygon fill="midnightblue" stroke="midnightblue" points="1001.49,-82.2191 1009.78,-75.6142 999.18,-75.6115 1001.49,-82.2191"/>
</g>
<!-- Node23 -->
<g id="node23" class="node"><title>Node23</title>
<g id="a_node23"><a xlink:href="alox__symbols_8hpp.html" target="_top" xlink:title="internals/alox_symbols.hpp">
<polygon fill="white" stroke="black" points="909.5,-168.5 909.5,-187.5 1044.5,-187.5 1044.5,-168.5 909.5,-168.5"/>
<text text-anchor="middle" x="977" y="-175.5" font-family="Helvetica,sans-Serif" font-size="10.00">internals/alox_symbols.hpp</text>
</a>
</g>
</g>
<!-- Node2&#45;&gt;Node23 -->
<g id="edge32" class="edge"><title>Node2&#45;&gt;Node23</title>
<path fill="none" stroke="midnightblue" d="M1185.9,-224.857C1143.26,-215.497 1073.11,-200.097 1026,-189.757"/>
<polygon fill="midnightblue" stroke="midnightblue" points="1026.54,-186.292 1016.03,-187.567 1025.04,-193.129 1026.54,-186.292"/>
</g>
<!-- Node24 -->
<g id="node24" class="node"><title>Node24</title>
<g id="a_node24"><a xlink:href="alox__macros_8hpp.html" target="_top" xlink:title="internals/alox_macros.hpp">
<polygon fill="white" stroke="black" points="1062.5,-168.5 1062.5,-187.5 1193.5,-187.5 1193.5,-168.5 1062.5,-168.5"/>
<text text-anchor="middle" x="1128" y="-175.5" font-family="Helvetica,sans-Serif" font-size="10.00">internals/alox_macros.hpp</text>
</a>
</g>
</g>
<!-- Node2&#45;&gt;Node24 -->
<g id="edge33" class="edge"><title>Node2&#45;&gt;Node24</title>
<path fill="none" stroke="midnightblue" d="M1207.74,-224.324C1192.78,-215.822 1169.75,-202.729 1152.27,-192.797"/>
<polygon fill="midnightblue" stroke="midnightblue" points="1153.65,-189.553 1143.23,-187.655 1150.19,-195.639 1153.65,-189.553"/>
</g>
<!-- Node25 -->
<g id="node25" class="node"><title>Node25</title>
<g id="a_node25"><a xlink:href="log_8hpp.html" target="_top" xlink:title="log.hpp">
<polygon fill="white" stroke="black" points="1212,-168.5 1212,-187.5 1260,-187.5 1260,-168.5 1212,-168.5"/>
<text text-anchor="middle" x="1236" y="-175.5" font-family="Helvetica,sans-Serif" font-size="10.00">log.hpp</text>
</a>
</g>
</g>
<!-- Node2&#45;&gt;Node25 -->
<g id="edge34" class="edge"><title>Node2&#45;&gt;Node25</title>
<path fill="none" stroke="midnightblue" d="M1219.98,-224.083C1220.2,-216.849 1222.29,-206.409 1225.14,-197.397"/>
<polygon fill="midnightblue" stroke="midnightblue" points="1228.52,-198.343 1228.76,-187.751 1221.97,-195.879 1228.52,-198.343"/>
</g>
<!-- Node26 -->
<g id="node26" class="node"><title>Node26</title>
<g id="a_node26"><a xlink:href="lox_8hpp.html" target="_top" xlink:title="lox.hpp">
<polygon fill="white" stroke="black" points="1316,-168.5 1316,-187.5 1364,-187.5 1364,-168.5 1316,-168.5"/>
<text text-anchor="middle" x="1340" y="-175.5" font-family="Helvetica,sans-Serif" font-size="10.00">lox.hpp</text>
</a>
</g>
</g>
<!-- Node2&#45;&gt;Node26 -->
<g id="edge36" class="edge"><title>Node2&#45;&gt;Node26</title>
<path fill="none" stroke="midnightblue" d="M1241.54,-224.444C1260.62,-215.636 1290.57,-201.812 1312.44,-191.722"/>
<polygon fill="midnightblue" stroke="midnightblue" points="1313.93,-194.885 1321.55,-187.516 1311,-188.529 1313.93,-194.885"/>
</g>
<!-- Node4 -->
<g id="node4" class="node"><title>Node4</title>
<g id="a_node4"><a xlink:href="symbols_8hpp.html" target="_top" xlink:title="alib/core/symbols.hpp">
<polygon fill="white" stroke="black" points="0,-0.5 0,-19.5 112,-19.5 112,-0.5 0,-0.5"/>
<text text-anchor="middle" x="56" y="-7.5" font-family="Helvetica,sans-Serif" font-size="10.00">alib/core/symbols.hpp</text>
</a>
</g>
</g>
<!-- Node3&#45;&gt;Node4 -->
<g id="edge3" class="edge"><title>Node3&#45;&gt;Node4</title>
<path fill="none" stroke="midnightblue" d="M1002.78,-64.4391C883.02,-62.2406 471.489,-52.7019 122.213,-20.1363"/>
<polygon fill="midnightblue" stroke="midnightblue" points="122.442,-16.6425 112.158,-19.1908 121.786,-23.6117 122.442,-16.6425"/>
</g>
<!-- Node5 -->
<g id="node5" class="node"><title>Node5</title>
<g id="a_node5"><a xlink:href="macros_8hpp.html" target="_top" xlink:title="alib/core/macros.hpp">
<polygon fill="white" stroke="black" points="129.5,-0.5 129.5,-19.5 236.5,-19.5 236.5,-0.5 129.5,-0.5"/>
<text text-anchor="middle" x="183" y="-7.5" font-family="Helvetica,sans-Serif" font-size="10.00">alib/core/macros.hpp</text>
</a>
</g>
</g>
<!-- Node3&#45;&gt;Node5 -->
<g id="edge4" class="edge"><title>Node3&#45;&gt;Node5</title>
<path fill="none" stroke="midnightblue" d="M1003,-64.0997C894.423,-61.0066 546.16,-49.3963 246.761,-19.9795"/>
<polygon fill="midnightblue" stroke="midnightblue" points="246.875,-16.4738 236.579,-18.9703 246.185,-23.4396 246.875,-16.4738"/>
</g>
<!-- Node6 -->
<g id="node6" class="node"><title>Node6</title>
<polygon fill="white" stroke="#bfbfbf" points="255,-0.5 255,-19.5 307,-19.5 307,-0.5 255,-0.5"/>
<text text-anchor="middle" x="281" y="-7.5" font-family="Helvetica,sans-Serif" font-size="10.00">assert.h</text>
</g>
<!-- Node3&#45;&gt;Node6 -->
<g id="edge5" class="edge"><title>Node3&#45;&gt;Node6</title>
<path fill="none" stroke="midnightblue" d="M1002.97,-65.1534C900.476,-65.1353 585.804,-61.5662 317.198,-19.8845"/>
<polygon fill="midnightblue" stroke="midnightblue" points="317.684,-16.4179 307.261,-18.3216 316.596,-23.3329 317.684,-16.4179"/>
</g>
<!-- Node7 -->
<g id="node7" class="node"><title>Node7</title>
<polygon fill="white" stroke="#bfbfbf" points="325.5,-0.5 325.5,-19.5 374.5,-19.5 374.5,-0.5 325.5,-0.5"/>
<text text-anchor="middle" x="350" y="-7.5" font-family="Helvetica,sans-Serif" font-size="10.00">cstddef</text>
</g>
<!-- Node3&#45;&gt;Node7 -->
<g id="edge6" class="edge"><title>Node3&#45;&gt;Node7</title>
<path fill="none" stroke="midnightblue" d="M1002.68,-65.016C906.357,-64.5588 625.361,-59.7835 384.732,-19.9885"/>
<polygon fill="midnightblue" stroke="midnightblue" points="385.19,-16.5167 374.749,-18.3134 384.032,-23.4202 385.19,-16.5167"/>
</g>
<!-- Node8 -->
<g id="node8" class="node"><title>Node8</title>
<polygon fill="white" stroke="#bfbfbf" points="392.5,-0.5 392.5,-19.5 455.5,-19.5 455.5,-0.5 392.5,-0.5"/>
<text text-anchor="middle" x="424" y="-7.5" font-family="Helvetica,sans-Serif" font-size="10.00">windows.h</text>
</g>
<!-- Node3&#45;&gt;Node8 -->
<g id="edge7" class="edge"><title>Node3&#45;&gt;Node8</title>
<path fill="none" stroke="midnightblue" d="M1002.9,-64.0219C915.218,-61.1457 674.683,-50.974 465.725,-20.0727"/>
<polygon fill="midnightblue" stroke="midnightblue" points="466.207,-16.606 455.799,-18.5855 465.17,-23.5288 466.207,-16.606"/>
</g>
<!-- Node9 -->
<g id="node9" class="node"><title>Node9</title>
<polygon fill="white" stroke="#bfbfbf" points="473.5,-0.5 473.5,-19.5 522.5,-19.5 522.5,-0.5 473.5,-0.5"/>
<text text-anchor="middle" x="498" y="-7.5" font-family="Helvetica,sans-Serif" font-size="10.00">stdint.h</text>
</g>
<!-- Node3&#45;&gt;Node9 -->
<g id="edge8" class="edge"><title>Node3&#45;&gt;Node9</title>
<path fill="none" stroke="midnightblue" d="M1002.75,-63.9536C922.311,-61.0692 715.011,-51.1559 532.805,-19.8294"/>
<polygon fill="midnightblue" stroke="midnightblue" points="533.227,-16.3502 522.774,-18.0784 532.023,-23.246 533.227,-16.3502"/>
</g>
<!-- Node10 -->
<g id="node10" class="node"><title>Node10</title>
<polygon fill="white" stroke="#bfbfbf" points="541,-0.5 541,-19.5 603,-19.5 603,-0.5 541,-0.5"/>
<text text-anchor="middle" x="572" y="-7.5" font-family="Helvetica,sans-Serif" font-size="10.00">type_traits</text>
</g>
<!-- Node3&#45;&gt;Node10 -->
<g id="edge9" class="edge"><title>Node3&#45;&gt;Node10</title>
<path fill="none" stroke="midnightblue" d="M1002.94,-62.7395C932.149,-57.7528 763.842,-44.3987 613.267,-20.0406"/>
<polygon fill="midnightblue" stroke="midnightblue" points="613.81,-16.583 603.376,-18.4203 612.678,-23.4909 613.81,-16.583"/>
</g>
<!-- Node11 -->
<g id="node11" class="node"><title>Node11</title>
<polygon fill="white" stroke="#bfbfbf" points="621,-0.5 621,-19.5 661,-19.5 661,-0.5 621,-0.5"/>
<text text-anchor="middle" x="641" y="-7.5" font-family="Helvetica,sans-Serif" font-size="10.00">utility</text>
</g>
<!-- Node3&#45;&gt;Node11 -->
<g id="edge10" class="edge"><title>Node3&#45;&gt;Node11</title>
<path fill="none" stroke="midnightblue" d="M1002.76,-62.8547C939.109,-58.4267 798.212,-46.5597 671.067,-19.8775"/>
<polygon fill="midnightblue" stroke="midnightblue" points="671.669,-16.4274 661.159,-17.7619 670.208,-23.2731 671.669,-16.4274"/>
</g>
<!-- Node12 -->
<g id="node12" class="node"><title>Node12</title>
<polygon fill="white" stroke="#bfbfbf" points="679.5,-0.5 679.5,-19.5 720.5,-19.5 720.5,-0.5 679.5,-0.5"/>
<text text-anchor="middle" x="700" y="-7.5" font-family="Helvetica,sans-Serif" font-size="10.00">stack</text>
</g>
<!-- Node3&#45;&gt;Node12 -->
<g id="edge11" class="edge"><title>Node3&#45;&gt;Node12</title>
<path fill="none" stroke="midnightblue" d="M1002.63,-61.6179C947.282,-55.8138 834.886,-42.554 730.321,-19.7593"/>
<polygon fill="midnightblue" stroke="midnightblue" points="731.073,-16.3411 720.553,-17.5965 729.56,-23.1756 731.073,-16.3411"/>
</g>
<!-- Node13 -->
<g id="node13" class="node"><title>Node13</title>
<g id="a_node13"><a xlink:href="enums_8hpp.html" target="_top" xlink:title="alib/core/enums.hpp">
<polygon fill="white" stroke="black" points="739,-0.5 739,-19.5 843,-19.5 843,-0.5 739,-0.5"/>
<text text-anchor="middle" x="791" y="-7.5" font-family="Helvetica,sans-Serif" font-size="10.00">alib/core/enums.hpp</text>
</a>
</g>
</g>
<!-- Node3&#45;&gt;Node13 -->
<g id="edge12" class="edge"><title>Node3&#45;&gt;Node13</title>
<path fill="none" stroke="midnightblue" d="M1002.74,-58.4863C958.818,-49.3989 882.886,-32.8003 834.821,-21.8337"/>
<polygon fill="midnightblue" stroke="midnightblue" points="835.538,-18.4074 825.009,-19.5837 833.974,-25.2303 835.538,-18.4074"/>
</g>
<!-- Node14 -->
<g id="node14" class="node"><title>Node14</title>
<g id="a_node14"><a xlink:href="report_8hpp.html" target="_top" xlink:title="alib/core/report.hpp">
<polygon fill="white" stroke="black" points="861,-0.5 861,-19.5 961,-19.5 961,-0.5 861,-0.5"/>
<text text-anchor="middle" x="911" y="-7.5" font-family="Helvetica,sans-Serif" font-size="10.00">alib/core/report.hpp</text>
</a>
</g>
</g>
<!-- Node3&#45;&gt;Node14 -->
<g id="edge14" class="edge"><title>Node3&#45;&gt;Node14</title>
<path fill="none" stroke="midnightblue" d="M1011.95,-56.4435C989.563,-47.6751 957.251,-33.9355 935.153,-23.8579"/>
<polygon fill="midnightblue" stroke="midnightblue" points="936.336,-20.5484 925.792,-19.5164 933.391,-26.8988 936.336,-20.5484"/>
</g>
<!-- Node15 -->
<g id="node15" class="node"><title>Node15</title>
<g id="a_node15"><a xlink:href="cstring_8hpp.html" target="_top" xlink:title="alib/strings/cstring.hpp">
<polygon fill="white" stroke="red" points="979.5,-0.5 979.5,-19.5 1094.5,-19.5 1094.5,-0.5 979.5,-0.5"/>
<text text-anchor="middle" x="1037" y="-7.5" font-family="Helvetica,sans-Serif" font-size="10.00">alib/strings/cstring.hpp</text>
</a>
</g>
</g>
<!-- Node3&#45;&gt;Node15 -->
<g id="edge16" class="edge"><title>Node3&#45;&gt;Node15</title>
<path fill="none" stroke="midnightblue" d="M1031.83,-56.083C1030.32,-48.9272 1029.89,-38.6353 1030.54,-29.6911"/>
<polygon fill="midnightblue" stroke="midnightblue" points="1034.02,-30.1262 1031.87,-19.7511 1027.08,-29.2002 1034.02,-30.1262"/>
</g>
<!-- Node16 -->
<g id="node16" class="node"><title>Node16</title>
<g id="a_node16"><a xlink:href="string_8hpp.html" target="_top" xlink:title="alib/strings/string.hpp">
<polygon fill="white" stroke="red" points="1113,-0.5 1113,-19.5 1223,-19.5 1223,-0.5 1113,-0.5"/>
<text text-anchor="middle" x="1168" y="-7.5" font-family="Helvetica,sans-Serif" font-size="10.00">alib/strings/string.hpp</text>
</a>
</g>
</g>
<!-- Node3&#45;&gt;Node16 -->
<g id="edge18" class="edge"><title>Node3&#45;&gt;Node16</title>
<path fill="none" stroke="midnightblue" d="M1052.67,-56.4435C1072.45,-47.4776 1106.59,-33.314 1132.7,-23.1827"/>
<polygon fill="midnightblue" stroke="midnightblue" points="1134.18,-26.3639 1142.26,-19.5164 1131.67,-19.8277 1134.18,-26.3639"/>
</g>
<!-- Node17 -->
<g id="node17" class="node"><title>Node17</title>
<g id="a_node17"><a xlink:href="tstring_8hpp.html" target="_top" xlink:title="alib/strings/tstring.hpp">
<polygon fill="white" stroke="black" points="1241.5,-0.5 1241.5,-19.5 1354.5,-19.5 1354.5,-0.5 1241.5,-0.5"/>
<text text-anchor="middle" x="1298" y="-7.5" font-family="Helvetica,sans-Serif" font-size="10.00">alib/strings/tstring.hpp</text>
</a>
</g>
</g>
<!-- Node3&#45;&gt;Node17 -->
<g id="edge20" class="edge"><title>Node3&#45;&gt;Node17</title>
<path fill="none" stroke="midnightblue" d="M1071.09,-56.9157C1114.38,-47.5097 1189.42,-31.9489 1241.34,-21.5864"/>
<polygon fill="midnightblue" stroke="midnightblue" points="1242.28,-24.9692 1251.4,-19.5865 1240.91,-18.1036 1242.28,-24.9692"/>
</g>
<!-- Node18 -->
<g id="node18" class="node"><title>Node18</title>
<g id="a_node18"><a xlink:href="stringliteral_8hpp.html" target="_top" xlink:title="alib/strings/stringliteral.hpp">
<polygon fill="white" stroke="red" points="1372.5,-0.5 1372.5,-19.5 1505.5,-19.5 1505.5,-0.5 1372.5,-0.5"/>
<text text-anchor="middle" x="1439" y="-7.5" font-family="Helvetica,sans-Serif" font-size="10.00">alib/strings/stringliteral.hpp</text>
</a>
</g>
</g>
<!-- Node3&#45;&gt;Node18 -->
<g id="edge22" class="edge"><title>Node3&#45;&gt;Node18</title>
<path fill="none" stroke="midnightblue" d="M1071.02,-59.8711C1135.03,-50.8684 1274.43,-32.091 1362.14,-20.6117"/>
<polygon fill="midnightblue" stroke="midnightblue" points="1362.84,-24.0494 1372.31,-19.2835 1361.94,-17.1084 1362.84,-24.0494"/>
</g>
<!-- Node19 -->
<g id="node19" class="node"><title>Node19</title>
<g id="a_node19"><a xlink:href="astring_8hpp.html" target="_top" xlink:title="alib/strings/astring.hpp">
<polygon fill="white" stroke="red" points="1523.5,-0.5 1523.5,-19.5 1638.5,-19.5 1638.5,-0.5 1523.5,-0.5"/>
<text text-anchor="middle" x="1581" y="-7.5" font-family="Helvetica,sans-Serif" font-size="10.00">alib/strings/astring.hpp</text>
</a>
</g>
</g>
<!-- Node3&#45;&gt;Node19 -->
<g id="edge24" class="edge"><title>Node3&#45;&gt;Node19</title>
<path fill="none" stroke="midnightblue" d="M1071.16,-61.8751C1148.74,-55.2264 1343.29,-38.7449 1506,-20 1508.37,-19.7264 1510.8,-19.4383 1513.25,-19.1399"/>
<polygon fill="midnightblue" stroke="midnightblue" points="1513.95,-22.5798 1523.43,-17.865 1513.08,-15.634 1513.95,-22.5798"/>
</g>
<!-- Node20 -->
<g id="node20" class="node"><title>Node20</title>
<g id="a_node20"><a xlink:href="preallocatedstring_8hpp.html" target="_top" xlink:title="alib/strings/preallocatedstring.hpp">
<polygon fill="white" stroke="black" points="1657,-0.5 1657,-19.5 1819,-19.5 1819,-0.5 1657,-0.5"/>
<text text-anchor="middle" x="1738" y="-7.5" font-family="Helvetica,sans-Serif" font-size="10.00">alib/strings/preallocatedstring.hpp</text>
</a>
</g>
</g>
<!-- Node3&#45;&gt;Node20 -->
<g id="edge26" class="edge"><title>Node3&#45;&gt;Node20</title>
<path fill="none" stroke="midnightblue" d="M1071.05,-61.7597C1092.57,-60.0323 1120.8,-57.8812 1146,-56 1365.08,-39.6461 1420.12,-38.9319 1639,-20 1641.53,-19.781 1644.1,-19.5536 1646.7,-19.3199"/>
<polygon fill="midnightblue" stroke="midnightblue" points="1647.19,-22.7897 1656.83,-18.3911 1646.55,-15.819 1647.19,-22.7897"/>
</g>
<!-- Node21 -->
<g id="node21" class="node"><title>Node21</title>
<g id="a_node21"><a xlink:href="applyto_8hpp.html" target="_top" xlink:title="alib/strings/applyto.hpp">
<polygon fill="white" stroke="black" points="1837.5,-0.5 1837.5,-19.5 1954.5,-19.5 1954.5,-0.5 1837.5,-0.5"/>
<text text-anchor="middle" x="1896" y="-7.5" font-family="Helvetica,sans-Serif" font-size="10.00">alib/strings/applyto.hpp</text>
</a>
</g>
</g>
<!-- Node3&#45;&gt;Node21 -->
<g id="edge28" class="edge"><title>Node3&#45;&gt;Node21</title>
<path fill="none" stroke="midnightblue" d="M1071.03,-61.5612C1092.56,-59.7775 1120.78,-57.636 1146,-56 1444.91,-36.6087 1520.74,-47.6722 1819,-20 1821.69,-19.7507 1824.43,-19.4751 1827.21,-19.1797"/>
<polygon fill="midnightblue" stroke="midnightblue" points="1827.81,-22.6341 1837.35,-18.0356 1827.02,-15.6782 1827.81,-22.6341"/>
</g>
<!-- Node22 -->
<g id="node22" class="node"><title>Node22</title>
<g id="a_node22"><a xlink:href="applyformat_8hpp.html" target="_top" xlink:title="alib/strings/applyformat.hpp">
<polygon fill="white" stroke="red" points="1972.5,-0.5 1972.5,-19.5 2109.5,-19.5 2109.5,-0.5 1972.5,-0.5"/>
<text text-anchor="middle" x="2041" y="-7.5" font-family="Helvetica,sans-Serif" font-size="10.00">alib/strings/applyformat.hpp</text>
</a>
</g>
</g>
<!-- Node3&#45;&gt;Node22 -->
<g id="edge30" class="edge"><title>Node3&#45;&gt;Node22</title>
<path fill="none" stroke="midnightblue" d="M1071.03,-61.4696C1092.55,-59.66 1120.77,-57.5228 1146,-56 1505.26,-34.3116 1596.25,-48.9102 1955,-20 1957.38,-19.8084 1959.79,-19.6003 1962.24,-19.3787"/>
<polygon fill="midnightblue" stroke="midnightblue" points="1962.77,-22.8436 1972.39,-18.4008 1962.1,-15.8758 1962.77,-22.8436"/>
</g>
<!-- Node13&#45;&gt;Node3 -->
<g id="edge13" class="edge"><title>Node13&#45;&gt;Node3</title>
<path fill="none" stroke="midnightblue" d="M834.877,-19.5164C879.6,-28.8809 948.4,-43.95 993.12,-54.1529"/>
<polygon fill="midnightblue" stroke="midnightblue" points="992.58,-57.6198 1003.11,-56.4435 994.145,-50.7969 992.58,-57.6198"/>
</g>
<!-- Node14&#45;&gt;Node3 -->
<g id="edge15" class="edge"><title>Node14&#45;&gt;Node3</title>
<path fill="none" stroke="midnightblue" d="M935.952,-19.5164C958.405,-28.3091 990.908,-42.1312 1013.04,-52.2321"/>
<polygon fill="midnightblue" stroke="midnightblue" points="1011.58,-55.4109 1022.12,-56.4435 1014.52,-49.0607 1011.58,-55.4109"/>
</g>
<!-- Node15&#45;&gt;Node3 -->
<g id="edge17" class="edge"><title>Node15&#45;&gt;Node3</title>
<path fill="none" stroke="midnightblue" d="M1042.13,-19.7511C1043.66,-26.8579 1044.1,-37.1357 1043.47,-46.1005"/>
<polygon fill="midnightblue" stroke="midnightblue" points="1039.99,-45.7134 1042.17,-56.083 1046.93,-46.6216 1039.99,-45.7134"/>
</g>
<!-- Node16&#45;&gt;Node3 -->
<g id="edge19" class="edge"><title>Node16&#45;&gt;Node3</title>
<path fill="none" stroke="midnightblue" d="M1152.42,-19.5164C1132.68,-28.4669 1098.55,-42.6287 1072.42,-52.772"/>
<polygon fill="midnightblue" stroke="midnightblue" points="1070.93,-49.5952 1062.85,-56.4435 1073.44,-56.1312 1070.93,-49.5952"/>
</g>
<!-- Node17&#45;&gt;Node3 -->
<g id="edge21" class="edge"><title>Node17&#45;&gt;Node3</title>
<path fill="none" stroke="midnightblue" d="M1261.86,-19.5298C1214.6,-29.7732 1132.14,-46.8283 1081.22,-56.884"/>
<polygon fill="midnightblue" stroke="midnightblue" points="1080.3,-53.4966 1071.16,-58.8581 1081.65,-60.3654 1080.3,-53.4966"/>
</g>
<!-- Node18&#45;&gt;Node3 -->
<g id="edge23" class="edge"><title>Node18&#45;&gt;Node3</title>
<path fill="none" stroke="midnightblue" d="M1380.55,-19.5342C1299.41,-30.7656 1154.6,-50.1807 1081.57,-59.5843"/>
<polygon fill="midnightblue" stroke="midnightblue" points="1080.81,-56.1535 1071.34,-60.8969 1081.7,-63.0966 1080.81,-56.1535"/>
</g>
<!-- Node19&#45;&gt;Node3 -->
<g id="edge25" class="edge"><title>Node19&#45;&gt;Node3</title>
<path fill="none" stroke="midnightblue" d="M1528.18,-19.5097C1526.77,-19.6775 1525.38,-19.8412 1524,-20 1361.44,-38.7269 1167.11,-55.1948 1081.27,-61.856"/>
<polygon fill="midnightblue" stroke="midnightblue" points="1080.81,-58.3811 1071.1,-62.6377 1081.34,-65.3605 1080.81,-58.3811"/>
</g>
<!-- Node20&#45;&gt;Node3 -->
<g id="edge27" class="edge"><title>Node20&#45;&gt;Node3</title>
<path fill="none" stroke="midnightblue" d="M1662.21,-19.5426C1660.46,-19.6985 1658.72,-19.8512 1657,-20 1438.12,-38.9319 1383.08,-39.6461 1164,-56 1136.66,-58.0408 1105.76,-60.3993 1081.17,-62.1899"/>
<polygon fill="midnightblue" stroke="midnightblue" points="1080.77,-58.7098 1071.04,-62.9199 1081.27,-65.6916 1080.77,-58.7098"/>
</g>
<!-- Node21&#45;&gt;Node3 -->
<g id="edge29" class="edge"><title>Node21&#45;&gt;Node3</title>
<path fill="none" stroke="midnightblue" d="M1842.04,-19.5093C1840.34,-19.6819 1838.66,-19.846 1837,-20 1538.74,-47.6722 1462.91,-36.6087 1164,-56 1136.64,-57.7748 1105.74,-60.1446 1081.16,-62.007"/>
<polygon fill="midnightblue" stroke="midnightblue" points="1080.74,-58.5282 1071.03,-62.7708 1081.27,-65.5084 1080.74,-58.5282"/>
</g>
<!-- Node22&#45;&gt;Node3 -->
<g id="edge31" class="edge"><title>Node22&#45;&gt;Node3</title>
<path fill="none" stroke="midnightblue" d="M1978.7,-19.5164C1976.78,-19.6869 1974.88,-19.8486 1973,-20 1614.25,-48.9102 1523.26,-34.3116 1164,-56 1136.63,-57.6521 1105.74,-60.0271 1081.15,-61.9226"/>
<polygon fill="midnightblue" stroke="midnightblue" points="1080.73,-58.4445 1071.03,-62.7021 1081.27,-65.4238 1080.73,-58.4445"/>
</g>
<!-- Node25&#45;&gt;Node2 -->
<g id="edge35" class="edge"><title>Node25&#45;&gt;Node2</title>
<path fill="none" stroke="midnightblue" d="M1239.02,-187.751C1238.84,-195.014 1236.72,-205.589 1233.84,-214.69"/>
<polygon fill="midnightblue" stroke="midnightblue" points="1230.55,-213.491 1230.31,-224.083 1237.1,-215.95 1230.55,-213.491"/>
</g>
<!-- Node27 -->
<g id="node27" class="node"><title>Node27</title>
<g id="a_node27"><a xlink:href="threadlock_8hpp.html" target="_top" xlink:title="alib/threads/threadlock.hpp">
<polygon fill="white" stroke="red" points="1140,-112.5 1140,-131.5 1274,-131.5 1274,-112.5 1140,-112.5"/>
<text text-anchor="middle" x="1207" y="-119.5" font-family="Helvetica,sans-Serif" font-size="10.00">alib/threads/threadlock.hpp</text>
</a>
</g>
</g>
<!-- Node26&#45;&gt;Node27 -->
<g id="edge37" class="edge"><title>Node26&#45;&gt;Node27</title>
<path fill="none" stroke="midnightblue" d="M1318.93,-168.444C1296.94,-159.517 1262.27,-145.439 1237.34,-135.317"/>
<polygon fill="midnightblue" stroke="midnightblue" points="1238.56,-132.035 1227.98,-131.516 1235.92,-138.521 1238.56,-132.035"/>
</g>
<!-- Node28 -->
<g id="node28" class="node"><title>Node28</title>
<g id="a_node28"><a xlink:href="callerinfo_8hpp.html" target="_top" xlink:title="alox/core/callerinfo.hpp">
<polygon fill="white" stroke="red" points="1004.5,-112.5 1004.5,-131.5 1121.5,-131.5 1121.5,-112.5 1004.5,-112.5"/>
<text text-anchor="middle" x="1063" y="-119.5" font-family="Helvetica,sans-Serif" font-size="10.00">alox/core/callerinfo.hpp</text>
</a>
</g>
</g>
<!-- Node26&#45;&gt;Node28 -->
<g id="edge39" class="edge"><title>Node26&#45;&gt;Node28</title>
<path fill="none" stroke="midnightblue" d="M1315.92,-171.118C1311.3,-170.042 1306.51,-168.958 1302,-168 1240.89,-155.017 1170.57,-142.008 1122.11,-133.341"/>
<polygon fill="midnightblue" stroke="midnightblue" points="1122.57,-129.868 1112.11,-131.559 1121.34,-136.759 1122.57,-129.868"/>
</g>
<!-- Node29 -->
<g id="node29" class="node"><title>Node29</title>
<polygon fill="white" stroke="#bfbfbf" points="1164.5,-56.5 1164.5,-75.5 1199.5,-75.5 1199.5,-56.5 1164.5,-56.5"/>
<text text-anchor="middle" x="1182" y="-63.5" font-family="Helvetica,sans-Serif" font-size="10.00">map</text>
</g>
<!-- Node26&#45;&gt;Node29 -->
<g id="edge46" class="edge"><title>Node26&#45;&gt;Node29</title>
<path fill="none" stroke="midnightblue" d="M1334.29,-168.355C1324.95,-154.794 1305.23,-128.382 1283,-112 1260.42,-95.3643 1230.72,-83.0605 1209.38,-75.5622"/>
<polygon fill="midnightblue" stroke="midnightblue" points="1210.24,-72.1573 1199.64,-72.2694 1207.99,-78.7884 1210.24,-72.1573"/>
</g>
<!-- Node30 -->
<g id="node30" class="node"><title>Node30</title>
<g id="a_node30"><a xlink:href="domain_8hpp.html" target="_top" xlink:title="alox/core/domain.hpp">
<polygon fill="white" stroke="black" points="1368,-112.5 1368,-131.5 1478,-131.5 1478,-112.5 1368,-112.5"/>
<text text-anchor="middle" x="1423" y="-119.5" font-family="Helvetica,sans-Serif" font-size="10.00">alox/core/domain.hpp</text>
</a>
</g>
</g>
<!-- Node26&#45;&gt;Node30 -->
<g id="edge42" class="edge"><title>Node26&#45;&gt;Node30</title>
<path fill="none" stroke="midnightblue" d="M1353.34,-168.324C1366.16,-159.979 1385.78,-147.212 1400.94,-137.352"/>
<polygon fill="midnightblue" stroke="midnightblue" points="1403.22,-140.042 1409.7,-131.655 1399.41,-134.174 1403.22,-140.042"/>
</g>
<!-- Node31 -->
<g id="node31" class="node"><title>Node31</title>
<polygon fill="white" stroke="#bfbfbf" points="1401,-56.5 1401,-75.5 1445,-75.5 1445,-56.5 1401,-56.5"/>
<text text-anchor="middle" x="1423" y="-63.5" font-family="Helvetica,sans-Serif" font-size="10.00">vector</text>
</g>
<!-- Node26&#45;&gt;Node31 -->
<g id="edge45" class="edge"><title>Node26&#45;&gt;Node31</title>
<path fill="none" stroke="midnightblue" d="M1340.72,-168.208C1342.2,-154.913 1346.55,-129.4 1359,-112 1368.41,-98.8456 1382.92,-88.1914 1395.74,-80.5581"/>
<polygon fill="midnightblue" stroke="midnightblue" points="1397.68,-83.4864 1404.69,-75.5411 1394.25,-77.3815 1397.68,-83.4864"/>
</g>
<!-- Node27&#45;&gt;Node3 -->
<g id="edge38" class="edge"><title>Node27&#45;&gt;Node3</title>
<path fill="none" stroke="midnightblue" d="M1180.06,-112.444C1151.34,-103.32 1105.67,-88.8133 1073.68,-78.6509"/>
<polygon fill="midnightblue" stroke="midnightblue" points="1074.4,-75.2081 1063.81,-75.5164 1072.28,-81.8797 1074.4,-75.2081"/>
</g>
<!-- Node28&#45;&gt;Node2 -->
<g id="edge40" class="edge"><title>Node28&#45;&gt;Node2</title>
<path fill="none" stroke="midnightblue" d="M1004.42,-127.308C945.192,-133.847 866.798,-149.852 900,-188 935.129,-228.362 1094.46,-233.654 1175.44,-233.66"/>
<polygon fill="midnightblue" stroke="midnightblue" points="1175.87,-237.159 1185.86,-233.631 1175.85,-230.159 1175.87,-237.159"/>
</g>
<!-- Node28&#45;&gt;Node29 -->
<g id="edge41" class="edge"><title>Node28&#45;&gt;Node29</title>
<path fill="none" stroke="midnightblue" d="M1081.86,-112.444C1101.61,-103.48 1132.81,-89.3221 1155.13,-79.1914"/>
<polygon fill="midnightblue" stroke="midnightblue" points="1156.74,-82.3078 1164.4,-74.9883 1153.84,-75.9334 1156.74,-82.3078"/>
</g>
<!-- Node30&#45;&gt;Node2 -->
<g id="edge43" class="edge"><title>Node30&#45;&gt;Node2</title>
<path fill="none" stroke="midnightblue" d="M1418.72,-131.552C1411.32,-145.471 1394.81,-172.976 1373,-188 1342.42,-209.065 1301.79,-220.461 1270.52,-226.51"/>
<polygon fill="midnightblue" stroke="midnightblue" points="1269.52,-223.134 1260.3,-228.363 1270.77,-230.022 1269.52,-223.134"/>
</g>
<!-- Node30&#45;&gt;Node31 -->
<g id="edge44" class="edge"><title>Node30&#45;&gt;Node31</title>
<path fill="none" stroke="midnightblue" d="M1423,-112.083C1423,-105.006 1423,-94.8611 1423,-85.9865"/>
<polygon fill="midnightblue" stroke="midnightblue" points="1426.5,-85.751 1423,-75.7511 1419.5,-85.7511 1426.5,-85.751"/>
</g>
<!-- Node32&#45;&gt;Node2 -->
<g id="edge48" class="edge"><title>Node32&#45;&gt;Node2</title>
<path fill="none" stroke="midnightblue" d="M1290.15,-280.324C1277.78,-271.979 1258.87,-259.212 1244.26,-249.352"/>
<polygon fill="midnightblue" stroke="midnightblue" points="1246.07,-246.348 1235.82,-243.655 1242.15,-252.15 1246.07,-246.348"/>
</g>
<!-- Node32&#45;&gt;Node28 -->
<g id="edge49" class="edge"><title>Node32&#45;&gt;Node28</title>
<path fill="none" stroke="midnightblue" d="M1303.36,-280.485C1303.79,-258.395 1301.71,-198.836 1269,-168 1258.43,-158.035 1181.78,-143.129 1125.05,-133.239"/>
<polygon fill="midnightblue" stroke="midnightblue" points="1125.52,-129.768 1115.07,-131.514 1124.33,-136.665 1125.52,-129.768"/>
</g>
<!-- Node32&#45;&gt;Node30 -->
<g id="edge50" class="edge"><title>Node32&#45;&gt;Node30</title>
<path fill="none" stroke="midnightblue" d="M1313.53,-280.302C1332.7,-263.992 1373.54,-226.932 1398,-188 1407.14,-173.46 1413.83,-155.046 1417.98,-141.532"/>
<polygon fill="midnightblue" stroke="midnightblue" points="1421.35,-142.491 1420.76,-131.913 1414.62,-140.547 1421.35,-142.491"/>
</g>
<!-- Node32&#45;&gt;Node31 -->
<g id="edge51" class="edge"><title>Node32&#45;&gt;Node31</title>
<path fill="none" stroke="midnightblue" d="M1321.9,-280.473C1362.2,-261.052 1455.45,-209.153 1487,-132 1490.36,-123.772 1491.1,-119.889 1487,-112 1479.85,-98.2262 1466.33,-87.783 1453.55,-80.4413"/>
<polygon fill="midnightblue" stroke="midnightblue" points="1454.96,-77.2252 1444.48,-75.6403 1451.68,-83.412 1454.96,-77.2252"/>
</g>
</g>
</svg>
