<?xml version="1.0" encoding="UTF-8" standalone="no"?>
<!DOCTYPE svg PUBLIC "-//W3C//DTD SVG 1.1//EN"
 "http://www.w3.org/Graphics/SVG/1.1/DTD/svg11.dtd">
<!-- Generated by graphviz version 2.40.1 (20161225.0304)
 -->
<!-- Title: thread.hpp Pages: 1 -->
<svg width="280pt" height="308pt"
 viewBox="0.00 0.00 279.50 308.00" xmlns="http://www.w3.org/2000/svg" xmlns:xlink="http://www.w3.org/1999/xlink">
<g id="graph0" class="graph" transform="scale(1 1) rotate(0) translate(4 304)">
<title>thread.hpp</title>
<polygon fill="#ffffff" stroke="transparent" points="-4,4 -4,-304 275.5,-304 275.5,4 -4,4"/>
<!-- Node5 -->
<g id="node1" class="node">
<title>Node5</title>
<polygon fill="#bfbfbf" stroke="#000000" points="116,-280.5 116,-299.5 178,-299.5 178,-280.5 116,-280.5"/>
<text text-anchor="middle" x="147" y="-287.5" font-family="Helvetica,sans-Serif" font-size="10.00" fill="#000000">thread.hpp</text>
</g>
<!-- Node6 -->
<g id="node2" class="node">
<title>Node6</title>
<g id="a_node2"><a xlink:href="threadlock_8hpp.html" target="_top" xlink:title="threadlock.hpp">
<polygon fill="#ffffff" stroke="#000000" points="70,-224.5 70,-243.5 150,-243.5 150,-224.5 70,-224.5"/>
<text text-anchor="middle" x="110" y="-231.5" font-family="Helvetica,sans-Serif" font-size="10.00" fill="#000000">threadlock.hpp</text>
</a>
</g>
</g>
<!-- Node5&#45;&gt;Node6 -->
<g id="edge1" class="edge">
<title>Node5&#45;&gt;Node6</title>
<path fill="none" stroke="#191970" d="M134.8624,-271.6296C128.6907,-262.2887 121.4434,-251.3197 116.3711,-243.6427"/>
<polygon fill="#191970" stroke="#191970" points="132.1223,-273.8316 140.5551,-280.2455 137.9627,-269.9728 132.1223,-273.8316"/>
</g>
<!-- Node24 -->
<g id="node3" class="node">
<title>Node24</title>
<g id="a_node3"><a xlink:href="scopeinfo_8hpp.html" target="_top" xlink:title="scopeinfo.hpp">
<polygon fill="#ffffff" stroke="#000000" points="136.5,-56.5 136.5,-75.5 213.5,-75.5 213.5,-56.5 136.5,-56.5"/>
<text text-anchor="middle" x="175" y="-63.5" font-family="Helvetica,sans-Serif" font-size="10.00" fill="#000000">scopeinfo.hpp</text>
</a>
</g>
</g>
<!-- Node5&#45;&gt;Node24 -->
<g id="edge2" class="edge">
<title>Node5&#45;&gt;Node24</title>
<path fill="none" stroke="#191970" d="M152.8324,-270.5639C155.0754,-262.4236 157.4641,-252.8196 159,-244 170.0721,-180.4199 173.7145,-102.6497 174.6912,-75.721"/>
<polygon fill="#191970" stroke="#191970" points="149.4519,-269.6551 150.0515,-280.2329 156.1792,-271.59 149.4519,-269.6551"/>
</g>
<!-- Node7 -->
<g id="node4" class="node">
<title>Node7</title>
<g id="a_node4"><a xlink:href="configuration_8hpp.html" target="_top" xlink:title="configuration.hpp">
<polygon fill="#ffffff" stroke="#000000" points="64.5,-168.5 64.5,-187.5 155.5,-187.5 155.5,-168.5 64.5,-168.5"/>
<text text-anchor="middle" x="110" y="-175.5" font-family="Helvetica,sans-Serif" font-size="10.00" fill="#000000">configuration.hpp</text>
</a>
</g>
</g>
<!-- Node6&#45;&gt;Node7 -->
<g id="edge3" class="edge">
<title>Node6&#45;&gt;Node7</title>
<path fill="none" stroke="#191970" d="M110,-214.1575C110,-205.155 110,-194.9199 110,-187.6427"/>
<polygon fill="#191970" stroke="#191970" points="106.5001,-214.2455 110,-224.2455 113.5001,-214.2456 106.5001,-214.2455"/>
</g>
<!-- Node25 -->
<g id="node5" class="node">
<title>Node25</title>
<g id="a_node5"><a xlink:href="smartlock_8hpp.html" target="_top" xlink:title="smartlock.hpp">
<polygon fill="#ffffff" stroke="#000000" points="0,-112.5 0,-131.5 78,-131.5 78,-112.5 0,-112.5"/>
<text text-anchor="middle" x="39" y="-119.5" font-family="Helvetica,sans-Serif" font-size="10.00" fill="#000000">smartlock.hpp</text>
</a>
</g>
</g>
<!-- Node6&#45;&gt;Node25 -->
<g id="edge4" class="edge">
<title>Node6&#45;&gt;Node25</title>
<path fill="none" stroke="#191970" d="M85.2588,-218.6152C74.4644,-210.7133 62.5695,-200.1801 55,-188 43.9225,-170.1751 40.5143,-145.2297 39.4658,-131.6833"/>
<polygon fill="#191970" stroke="#191970" points="83.361,-221.5583 93.5761,-224.3696 87.3437,-215.8017 83.361,-221.5583"/>
</g>
<!-- Node10 -->
<g id="node7" class="node">
<title>Node10</title>
<g id="a_node7"><a xlink:href="lox_8hpp.html" target="_top" xlink:title="lox.hpp">
<polygon fill="#ffffff" stroke="#000000" points="151,-.5 151,-19.5 199,-19.5 199,-.5 151,-.5"/>
<text text-anchor="middle" x="175" y="-7.5" font-family="Helvetica,sans-Serif" font-size="10.00" fill="#000000">lox.hpp</text>
</a>
</g>
</g>
<!-- Node24&#45;&gt;Node10 -->
<g id="edge10" class="edge">
<title>Node24&#45;&gt;Node10</title>
<path fill="none" stroke="#191970" d="M175,-46.1575C175,-37.155 175,-26.9199 175,-19.6427"/>
<polygon fill="#191970" stroke="#191970" points="171.5001,-46.2455 175,-56.2455 178.5001,-46.2456 171.5001,-46.2455"/>
</g>
<!-- Node8 -->
<g id="node6" class="node">
<title>Node8</title>
<g id="a_node6"><a xlink:href="alox_8hpp.html" target="_top" xlink:title="alox.hpp">
<polygon fill="#ffffff" stroke="#ff0000" points="218.5,-112.5 218.5,-131.5 271.5,-131.5 271.5,-112.5 218.5,-112.5"/>
<text text-anchor="middle" x="245" y="-119.5" font-family="Helvetica,sans-Serif" font-size="10.00" fill="#000000">alox.hpp</text>
</a>
</g>
</g>
<!-- Node7&#45;&gt;Node8 -->
<g id="edge5" class="edge">
<title>Node7&#45;&gt;Node8</title>
<path fill="none" stroke="#191970" d="M142.4991,-164.5189C167.0854,-154.3201 200.2366,-140.5685 222.0955,-131.5011"/>
<polygon fill="#191970" stroke="#191970" points="141.1031,-161.3087 133.2073,-168.3733 143.7852,-167.7745 141.1031,-161.3087"/>
</g>
<!-- Node7&#45;&gt;Node10 -->
<g id="edge6" class="edge">
<title>Node7&#45;&gt;Node10</title>
<path fill="none" stroke="#191970" d="M108.8876,-158.0432C108.3262,-132.8565 110.2022,-88.86 127,-56 134.7754,-40.7897 149.6035,-27.7918 160.7308,-19.5319"/>
<polygon fill="#191970" stroke="#191970" points="105.3956,-158.3241 109.2721,-168.1843 112.3906,-158.0588 105.3956,-158.3241"/>
</g>
<!-- Node25&#45;&gt;Node10 -->
<g id="edge11" class="edge">
<title>Node25&#45;&gt;Node10</title>
<path fill="none" stroke="#191970" d="M51.4798,-103.6556C61.7493,-89.4736 77.2904,-69.9681 94,-56 112.2394,-40.7531 136.2399,-27.8488 153.3712,-19.6242"/>
<polygon fill="#191970" stroke="#191970" points="48.4323,-101.9042 45.5332,-112.0948 54.1544,-105.9363 48.4323,-101.9042"/>
</g>
<!-- Node8&#45;&gt;Node24 -->
<g id="edge8" class="edge">
<title>Node8&#45;&gt;Node24</title>
<path fill="none" stroke="#191970" d="M224.91,-105.928C212.6747,-96.1397 197.4493,-83.9595 187.0533,-75.6427"/>
<polygon fill="#191970" stroke="#191970" points="222.8118,-108.7316 232.8069,-112.2455 227.1847,-103.2655 222.8118,-108.7316"/>
</g>
<!-- Node8&#45;&gt;Node10 -->
<g id="edge7" class="edge">
<title>Node8&#45;&gt;Node10</title>
<path fill="none" stroke="#191970" d="M233.7737,-102.9688C228.9246,-89.1732 223.1614,-70.4768 214,-56 204.7417,-41.3701 189.8535,-28.0917 180.922,-19.6039"/>
<polygon fill="#191970" stroke="#191970" points="230.5338,-104.2965 237.3447,-112.412 237.0813,-101.8205 230.5338,-104.2965"/>
</g>
<!-- Node10&#45;&gt;Node8 -->
<g id="edge9" class="edge">
<title>Node10&#45;&gt;Node8</title>
<path fill="none" stroke="#191970" d="M203.4814,-25.5823C213.884,-33.7537 224.6946,-44.4561 232,-56 243.4966,-74.167 249.6419,-98.9788 249.2939,-112.412"/>
<polygon fill="#191970" stroke="#191970" points="205.4399,-22.6786 195.301,-19.6039 201.3096,-28.3302 205.4399,-22.6786"/>
</g>
</g>
</svg>
