<?xml version="1.0" encoding="UTF-8" standalone="no"?>
<!DOCTYPE svg PUBLIC "-//W3C//DTD SVG 1.1//EN"
 "http://www.w3.org/Graphics/SVG/1.1/DTD/svg11.dtd">
<!-- Generated by graphviz version 2.40.1 (20161225.0304)
 -->
<!-- Title: threadlocknr.hpp Pages: 1 -->
<svg width="320pt" height="252pt"
 viewBox="0.00 0.00 319.50 252.00" xmlns="http://www.w3.org/2000/svg" xmlns:xlink="http://www.w3.org/1999/xlink">
<g id="graph0" class="graph" transform="scale(1 1) rotate(0) translate(4 248)">
<title>threadlocknr.hpp</title>
<polygon fill="#ffffff" stroke="transparent" points="-4,4 -4,-248 315.5,-248 315.5,4 -4,4"/>
<!-- Node38 -->
<g id="node1" class="node">
<title>Node38</title>
<polygon fill="#bfbfbf" stroke="#000000" points="128.5,-224.5 128.5,-243.5 216.5,-243.5 216.5,-224.5 128.5,-224.5"/>
<text text-anchor="middle" x="172.5" y="-231.5" font-family="Helvetica,sans-Serif" font-size="10.00" fill="#000000">threadlocknr.hpp</text>
</g>
<!-- Node39 -->
<g id="node2" class="node">
<title>Node39</title>
<g id="a_node2"><a xlink:href="threadlock_8hpp.html" target="_top" xlink:title="threadlock.hpp">
<polygon fill="#ffffff" stroke="#000000" points="132.5,-168.5 132.5,-187.5 212.5,-187.5 212.5,-168.5 132.5,-168.5"/>
<text text-anchor="middle" x="172.5" y="-175.5" font-family="Helvetica,sans-Serif" font-size="10.00" fill="#000000">threadlock.hpp</text>
</a>
</g>
</g>
<!-- Node38&#45;&gt;Node39 -->
<g id="edge1" class="edge">
<title>Node38&#45;&gt;Node39</title>
<path fill="none" stroke="#191970" d="M172.5,-214.1575C172.5,-205.155 172.5,-194.9199 172.5,-187.6427"/>
<polygon fill="#191970" stroke="#191970" points="169.0001,-214.2455 172.5,-224.2455 176.0001,-214.2456 169.0001,-214.2455"/>
</g>
<!-- Node40 -->
<g id="node3" class="node">
<title>Node40</title>
<g id="a_node3"><a xlink:href="configuration_8hpp.html" target="_top" xlink:title="configuration.hpp">
<polygon fill="#ffffff" stroke="#000000" points="26,-112.5 26,-131.5 117,-131.5 117,-112.5 26,-112.5"/>
<text text-anchor="middle" x="71.5" y="-119.5" font-family="Helvetica,sans-Serif" font-size="10.00" fill="#000000">configuration.hpp</text>
</a>
</g>
</g>
<!-- Node39&#45;&gt;Node40 -->
<g id="edge2" class="edge">
<title>Node39&#45;&gt;Node40</title>
<path fill="none" stroke="#191970" d="M146.0281,-163.3225C127.9875,-153.3198 104.6123,-140.3593 88.8913,-131.6427"/>
<polygon fill="#191970" stroke="#191970" points="144.4643,-166.4574 154.9071,-168.2455 147.8587,-160.3354 144.4643,-166.4574"/>
</g>
<!-- Node58 -->
<g id="node4" class="node">
<title>Node58</title>
<g id="a_node4"><a xlink:href="formatter_8hpp.html" target="_top" xlink:title="formatter.hpp">
<polygon fill="#ffffff" stroke="#000000" points="135.5,-112.5 135.5,-131.5 209.5,-131.5 209.5,-112.5 135.5,-112.5"/>
<text text-anchor="middle" x="172.5" y="-119.5" font-family="Helvetica,sans-Serif" font-size="10.00" fill="#000000">formatter.hpp</text>
</a>
</g>
</g>
<!-- Node39&#45;&gt;Node58 -->
<g id="edge3" class="edge">
<title>Node39&#45;&gt;Node58</title>
<path fill="none" stroke="#191970" d="M172.5,-158.1575C172.5,-149.155 172.5,-138.9199 172.5,-131.6427"/>
<polygon fill="#191970" stroke="#191970" points="169.0001,-158.2455 172.5,-168.2455 176.0001,-158.2456 169.0001,-158.2455"/>
</g>
<!-- Node63 -->
<g id="node5" class="node">
<title>Node63</title>
<g id="a_node5"><a xlink:href="smartlock_8hpp.html" target="_top" xlink:title="smartlock.hpp">
<polygon fill="#ffffff" stroke="#000000" points="233.5,-56.5 233.5,-75.5 311.5,-75.5 311.5,-56.5 233.5,-56.5"/>
<text text-anchor="middle" x="272.5" y="-63.5" font-family="Helvetica,sans-Serif" font-size="10.00" fill="#000000">smartlock.hpp</text>
</a>
</g>
</g>
<!-- Node39&#45;&gt;Node63 -->
<g id="edge4" class="edge">
<title>Node39&#45;&gt;Node63</title>
<path fill="none" stroke="#191970" d="M190.0772,-161.234C198.8302,-152.6837 209.4486,-142.0017 218.5,-132 235.9841,-112.6803 254.951,-88.7299 265.0979,-75.6475"/>
<polygon fill="#191970" stroke="#191970" points="187.4163,-158.9384 182.6617,-168.4065 192.2829,-163.9699 187.4163,-158.9384"/>
</g>
<!-- Node41 -->
<g id="node6" class="node">
<title>Node41</title>
<g id="a_node6"><a xlink:href="alox_8hpp.html" target="_top" xlink:title="alox.hpp">
<polygon fill="#ffffff" stroke="#ff0000" points="0,-56.5 0,-75.5 53,-75.5 53,-56.5 0,-56.5"/>
<text text-anchor="middle" x="26.5" y="-63.5" font-family="Helvetica,sans-Serif" font-size="10.00" fill="#000000">alox.hpp</text>
</a>
</g>
</g>
<!-- Node40&#45;&gt;Node41 -->
<g id="edge5" class="edge">
<title>Node40&#45;&gt;Node41</title>
<path fill="none" stroke="#191970" d="M57.2054,-104.2112C49.6004,-94.7472 40.5462,-83.4797 34.2486,-75.6427"/>
<polygon fill="#191970" stroke="#191970" points="54.6694,-106.6428 63.6616,-112.2455 60.1259,-102.2581 54.6694,-106.6428"/>
</g>
<!-- Node43 -->
<g id="node7" class="node">
<title>Node43</title>
<g id="a_node7"><a xlink:href="lox_8hpp.html" target="_top" xlink:title="lox.hpp">
<polygon fill="#ffffff" stroke="#000000" points="29.5,-.5 29.5,-19.5 77.5,-19.5 77.5,-.5 29.5,-.5"/>
<text text-anchor="middle" x="53.5" y="-7.5" font-family="Helvetica,sans-Serif" font-size="10.00" fill="#000000">lox.hpp</text>
</a>
</g>
</g>
<!-- Node40&#45;&gt;Node43 -->
<g id="edge6" class="edge">
<title>Node40&#45;&gt;Node43</title>
<path fill="none" stroke="#191970" d="M68.5754,-101.931C66.6394,-88.8424 64.0045,-71.394 61.5,-56 59.4433,-43.3588 56.878,-28.7992 55.2153,-19.5046"/>
<polygon fill="#191970" stroke="#191970" points="65.1601,-102.7642 70.076,-112.1495 72.0858,-101.7471 65.1601,-102.7642"/>
</g>
<!-- Node59 -->
<g id="node8" class="node">
<title>Node59</title>
<g id="a_node8"><a xlink:href="formatterstdimpl_8hpp.html" target="_top" xlink:title="formatterstdimpl.hpp">
<polygon fill="#ffffff" stroke="#ff0000" points="109.5,-56.5 109.5,-75.5 215.5,-75.5 215.5,-56.5 109.5,-56.5"/>
<text text-anchor="middle" x="162.5" y="-63.5" font-family="Helvetica,sans-Serif" font-size="10.00" fill="#000000">formatterstdimpl.hpp</text>
</a>
</g>
</g>
<!-- Node58&#45;&gt;Node59 -->
<g id="edge9" class="edge">
<title>Node58&#45;&gt;Node59</title>
<path fill="none" stroke="#191970" d="M168.9567,-102.1575C167.3491,-93.155 165.5214,-82.9199 164.2219,-75.6427"/>
<polygon fill="#191970" stroke="#191970" points="165.5546,-103.0166 170.7581,-112.2455 172.4456,-101.786 165.5546,-103.0166"/>
</g>
<!-- Node63&#45;&gt;Node43 -->
<g id="edge10" class="edge">
<title>Node63&#45;&gt;Node43</title>
<path fill="none" stroke="#191970" d="M224.9519,-53.8416C179.6196,-42.2497 113.174,-25.2591 77.7868,-16.2103"/>
<polygon fill="#191970" stroke="#191970" points="224.2972,-57.2867 234.8526,-56.3733 226.0314,-50.5049 224.2972,-57.2867"/>
</g>
<!-- Node41&#45;&gt;Node43 -->
<g id="edge7" class="edge">
<title>Node41&#45;&gt;Node43</title>
<path fill="none" stroke="#191970" d="M29.3335,-46.7493C33.0911,-37.6064 38.5674,-27.0798 43.6057,-19.6427"/>
<polygon fill="#191970" stroke="#191970" points="26.0092,-45.651 25.9362,-56.2455 32.6001,-48.0089 26.0092,-45.651"/>
</g>
<!-- Node43&#45;&gt;Node41 -->
<g id="edge8" class="edge">
<title>Node43&#45;&gt;Node41</title>
<path fill="none" stroke="#191970" d="M50.7228,-29.1137C46.9824,-38.2427 41.5125,-48.7776 36.4699,-56.2455"/>
<polygon fill="#191970" stroke="#191970" points="54.0379,-30.2374 54.096,-19.6427 47.4436,-27.8887 54.0379,-30.2374"/>
</g>
</g>
</svg>
