<?xml version="1.0" encoding="UTF-8" standalone="no"?>
<!DOCTYPE svg PUBLIC "-//W3C//DTD SVG 1.1//EN"
 "http://www.w3.org/Graphics/SVG/1.1/DTD/svg11.dtd">
<!-- Generated by graphviz version 2.38.0 (20140413.2041)
 -->
<!-- Title: thread.hpp Pages: 1 -->
<svg width="1947pt" height="252pt"
 viewBox="0.00 0.00 1946.50 252.00" xmlns="http://www.w3.org/2000/svg" xmlns:xlink="http://www.w3.org/1999/xlink">
<g id="graph0" class="graph" transform="scale(1 1) rotate(0) translate(4 248)">
<title>thread.hpp</title>
<polygon fill="white" stroke="none" points="-4,4 -4,-248 1942.5,-248 1942.5,4 -4,4"/>
<!-- Node1 -->
<g id="node1" class="node"><title>Node1</title>
<polygon fill="#bfbfbf" stroke="black" points="1680.5,-224.5 1680.5,-243.5 1742.5,-243.5 1742.5,-224.5 1680.5,-224.5"/>
<text text-anchor="middle" x="1711.5" y="-231.5" font-family="Helvetica,sans-Serif" font-size="10.00">thread.hpp</text>
</g>
<!-- Node2 -->
<g id="node2" class="node"><title>Node2</title>
<g id="a_node2"><a xlink:href="alib_8hpp.html" target="_top" xlink:title="alib/alib.hpp">
<polygon fill="white" stroke="black" points="759.5,-168.5 759.5,-187.5 827.5,-187.5 827.5,-168.5 759.5,-168.5"/>
<text text-anchor="middle" x="793.5" y="-175.5" font-family="Helvetica,sans-Serif" font-size="10.00">alib/alib.hpp</text>
</a>
</g>
</g>
<!-- Node1&#45;&gt;Node2 -->
<g id="edge1" class="edge"><title>Node1&#45;&gt;Node2</title>
<path fill="none" stroke="midnightblue" d="M1680.43,-231.172C1544.05,-223.15 998.132,-191.037 837.916,-181.613"/>
<polygon fill="midnightblue" stroke="midnightblue" points="838.117,-178.119 827.929,-181.025 837.706,-185.107 838.117,-178.119"/>
</g>
<!-- Node24 -->
<g id="node24" class="node"><title>Node24</title>
<g id="a_node24"><a xlink:href="asprealloc_8hpp.html" target="_top" xlink:title="alib/strings/asprealloc.hpp">
<polygon fill="white" stroke="black" points="1533.5,-56.5 1533.5,-75.5 1663.5,-75.5 1663.5,-56.5 1533.5,-56.5"/>
<text text-anchor="middle" x="1598.5" y="-63.5" font-family="Helvetica,sans-Serif" font-size="10.00">alib/strings/asprealloc.hpp</text>
</a>
</g>
</g>
<!-- Node1&#45;&gt;Node24 -->
<g id="edge41" class="edge"><title>Node1&#45;&gt;Node24</title>
<path fill="none" stroke="midnightblue" d="M1697.85,-224.376C1685.76,-216.189 1668.24,-202.939 1656.5,-188 1631.05,-155.61 1613.08,-110.233 1604.41,-85.2655"/>
<polygon fill="midnightblue" stroke="midnightblue" points="1607.67,-83.9956 1601.17,-75.6302 1601.04,-86.2242 1607.67,-83.9956"/>
</g>
<!-- Node27 -->
<g id="node27" class="node"><title>Node27</title>
<polygon fill="white" stroke="#bfbfbf" points="1665,-168.5 1665,-187.5 1700,-187.5 1700,-168.5 1665,-168.5"/>
<text text-anchor="middle" x="1682.5" y="-175.5" font-family="Helvetica,sans-Serif" font-size="10.00">map</text>
</g>
<!-- Node1&#45;&gt;Node27 -->
<g id="edge42" class="edge"><title>Node1&#45;&gt;Node27</title>
<path fill="none" stroke="midnightblue" d="M1706.71,-224.083C1702.74,-216.691 1696.97,-205.953 1692.07,-196.811"/>
<polygon fill="midnightblue" stroke="midnightblue" points="1695.01,-194.905 1687.2,-187.751 1688.85,-198.217 1695.01,-194.905"/>
</g>
<!-- Node28 -->
<g id="node28" class="node"><title>Node28</title>
<polygon fill="white" stroke="#bfbfbf" points="1718.5,-168.5 1718.5,-187.5 1762.5,-187.5 1762.5,-168.5 1718.5,-168.5"/>
<text text-anchor="middle" x="1740.5" y="-175.5" font-family="Helvetica,sans-Serif" font-size="10.00">mutex</text>
</g>
<!-- Node1&#45;&gt;Node28 -->
<g id="edge43" class="edge"><title>Node1&#45;&gt;Node28</title>
<path fill="none" stroke="midnightblue" d="M1716.29,-224.083C1720.26,-216.691 1726.03,-205.953 1730.93,-196.811"/>
<polygon fill="midnightblue" stroke="midnightblue" points="1734.15,-198.217 1735.8,-187.751 1727.99,-194.905 1734.15,-198.217"/>
</g>
<!-- Node29 -->
<g id="node29" class="node"><title>Node29</title>
<polygon fill="white" stroke="#bfbfbf" points="1781,-168.5 1781,-187.5 1876,-187.5 1876,-168.5 1781,-168.5"/>
<text text-anchor="middle" x="1828.5" y="-175.5" font-family="Helvetica,sans-Serif" font-size="10.00">condition_variable</text>
</g>
<!-- Node1&#45;&gt;Node29 -->
<g id="edge44" class="edge"><title>Node1&#45;&gt;Node29</title>
<path fill="none" stroke="midnightblue" d="M1730.04,-224.444C1749.12,-215.636 1779.07,-201.812 1800.94,-191.722"/>
<polygon fill="midnightblue" stroke="midnightblue" points="1802.43,-194.885 1810.05,-187.516 1799.5,-188.529 1802.43,-194.885"/>
</g>
<!-- Node30 -->
<g id="node30" class="node"><title>Node30</title>
<polygon fill="white" stroke="#bfbfbf" points="1894.5,-168.5 1894.5,-187.5 1938.5,-187.5 1938.5,-168.5 1894.5,-168.5"/>
<text text-anchor="middle" x="1916.5" y="-175.5" font-family="Helvetica,sans-Serif" font-size="10.00">thread</text>
</g>
<!-- Node1&#45;&gt;Node30 -->
<g id="edge45" class="edge"><title>Node1&#45;&gt;Node30</title>
<path fill="none" stroke="midnightblue" d="M1742.69,-225.228C1775.59,-216.965 1829.19,-203.323 1884.24,-188.29"/>
<polygon fill="midnightblue" stroke="midnightblue" points="1885.45,-191.587 1894.17,-185.568 1883.6,-184.837 1885.45,-191.587"/>
</g>
<!-- Node3 -->
<g id="node3" class="node"><title>Node3</title>
<g id="a_node3"><a xlink:href="symbols_8hpp.html" target="_top" xlink:title="alib/core/symbols.hpp">
<polygon fill="white" stroke="black" points="1127.5,-112.5 1127.5,-131.5 1239.5,-131.5 1239.5,-112.5 1127.5,-112.5"/>
<text text-anchor="middle" x="1183.5" y="-119.5" font-family="Helvetica,sans-Serif" font-size="10.00">alib/core/symbols.hpp</text>
</a>
</g>
</g>
<!-- Node2&#45;&gt;Node3 -->
<g id="edge2" class="edge"><title>Node2&#45;&gt;Node3</title>
<path fill="none" stroke="midnightblue" d="M827.768,-172.255C892.515,-163.29 1033.82,-143.725 1117.54,-132.133"/>
<polygon fill="midnightblue" stroke="midnightblue" points="1118.03,-135.598 1127.46,-130.76 1117.07,-128.664 1118.03,-135.598"/>
</g>
<!-- Node4 -->
<g id="node4" class="node"><title>Node4</title>
<g id="a_node4"><a xlink:href="macros_8hpp.html" target="_top" xlink:title="alib/core/macros.hpp">
<polygon fill="white" stroke="black" points="1393,-112.5 1393,-131.5 1500,-131.5 1500,-112.5 1393,-112.5"/>
<text text-anchor="middle" x="1446.5" y="-119.5" font-family="Helvetica,sans-Serif" font-size="10.00">alib/core/macros.hpp</text>
</a>
</g>
</g>
<!-- Node2&#45;&gt;Node4 -->
<g id="edge3" class="edge"><title>Node2&#45;&gt;Node4</title>
<path fill="none" stroke="midnightblue" d="M827.554,-175.221C916.904,-170.382 1165.61,-155.793 1382.77,-132.127"/>
<polygon fill="midnightblue" stroke="midnightblue" points="1383.2,-135.601 1392.76,-131.03 1382.44,-128.643 1383.2,-135.601"/>
</g>
<!-- Node5 -->
<g id="node5" class="node"><title>Node5</title>
<polygon fill="white" stroke="#bfbfbf" points="1518.5,-112.5 1518.5,-131.5 1570.5,-131.5 1570.5,-112.5 1518.5,-112.5"/>
<text text-anchor="middle" x="1544.5" y="-119.5" font-family="Helvetica,sans-Serif" font-size="10.00">assert.h</text>
</g>
<!-- Node2&#45;&gt;Node5 -->
<g id="edge4" class="edge"><title>Node2&#45;&gt;Node5</title>
<path fill="none" stroke="midnightblue" d="M827.665,-177.132C929.776,-177.047 1241.58,-173.296 1507.98,-131.935"/>
<polygon fill="midnightblue" stroke="midnightblue" points="1508.9,-135.333 1518.24,-130.32 1507.82,-128.418 1508.9,-135.333"/>
</g>
<!-- Node6 -->
<g id="node6" class="node"><title>Node6</title>
<polygon fill="white" stroke="#bfbfbf" points="0,-112.5 0,-131.5 49,-131.5 49,-112.5 0,-112.5"/>
<text text-anchor="middle" x="24.5" y="-119.5" font-family="Helvetica,sans-Serif" font-size="10.00">cstddef</text>
</g>
<!-- Node2&#45;&gt;Node6 -->
<g id="edge5" class="edge"><title>Node2&#45;&gt;Node6</title>
<path fill="none" stroke="midnightblue" d="M759.478,-177.388C655.572,-178.052 333.268,-176.263 59.377,-131.995"/>
<polygon fill="midnightblue" stroke="midnightblue" points="59.6801,-128.498 49.2456,-130.334 58.5477,-135.406 59.6801,-128.498"/>
</g>
<!-- Node7 -->
<g id="node7" class="node"><title>Node7</title>
<polygon fill="white" stroke="#bfbfbf" points="67,-112.5 67,-131.5 130,-131.5 130,-112.5 67,-112.5"/>
<text text-anchor="middle" x="98.5" y="-119.5" font-family="Helvetica,sans-Serif" font-size="10.00">windows.h</text>
</g>
<!-- Node2&#45;&gt;Node7 -->
<g id="edge6" class="edge"><title>Node2&#45;&gt;Node7</title>
<path fill="none" stroke="midnightblue" d="M759.21,-176.486C662.96,-174.654 382.05,-166.635 140.324,-132.067"/>
<polygon fill="midnightblue" stroke="midnightblue" points="140.693,-128.584 130.295,-130.614 139.69,-135.512 140.693,-128.584"/>
</g>
<!-- Node8 -->
<g id="node8" class="node"><title>Node8</title>
<polygon fill="white" stroke="#bfbfbf" points="148,-112.5 148,-131.5 197,-131.5 197,-112.5 148,-112.5"/>
<text text-anchor="middle" x="172.5" y="-119.5" font-family="Helvetica,sans-Serif" font-size="10.00">stdint.h</text>
</g>
<!-- Node2&#45;&gt;Node8 -->
<g id="edge7" class="edge"><title>Node2&#45;&gt;Node8</title>
<path fill="none" stroke="midnightblue" d="M759.489,-176.553C670.291,-174.924 422.264,-167.448 207.162,-131.779"/>
<polygon fill="midnightblue" stroke="midnightblue" points="207.71,-128.322 197.268,-130.115 206.549,-135.225 207.71,-128.322"/>
</g>
<!-- Node9 -->
<g id="node9" class="node"><title>Node9</title>
<polygon fill="white" stroke="#bfbfbf" points="215.5,-112.5 215.5,-131.5 277.5,-131.5 277.5,-112.5 215.5,-112.5"/>
<text text-anchor="middle" x="246.5" y="-119.5" font-family="Helvetica,sans-Serif" font-size="10.00">type_traits</text>
</g>
<!-- Node2&#45;&gt;Node9 -->
<g id="edge8" class="edge"><title>Node2&#45;&gt;Node9</title>
<path fill="none" stroke="midnightblue" d="M759.491,-175.543C679.109,-171.767 471.001,-160.045 287.945,-132.034"/>
<polygon fill="midnightblue" stroke="midnightblue" points="288.286,-128.545 277.867,-130.471 287.213,-135.462 288.286,-128.545"/>
</g>
<!-- Node10 -->
<g id="node10" class="node"><title>Node10</title>
<polygon fill="white" stroke="#bfbfbf" points="295.5,-112.5 295.5,-131.5 335.5,-131.5 335.5,-112.5 295.5,-112.5"/>
<text text-anchor="middle" x="315.5" y="-119.5" font-family="Helvetica,sans-Serif" font-size="10.00">utility</text>
</g>
<!-- Node2&#45;&gt;Node10 -->
<g id="edge9" class="edge"><title>Node2&#45;&gt;Node10</title>
<path fill="none" stroke="midnightblue" d="M759.356,-175.916C685.398,-173.071 504.886,-163.441 345.621,-131.835"/>
<polygon fill="midnightblue" stroke="midnightblue" points="346.142,-128.369 335.647,-129.82 344.756,-135.231 346.142,-128.369"/>
</g>
<!-- Node11 -->
<g id="node11" class="node"><title>Node11</title>
<g id="a_node11"><a xlink:href="enums_8hpp.html" target="_top" xlink:title="alib/core/enums.hpp">
<polygon fill="white" stroke="black" points="353.5,-112.5 353.5,-131.5 457.5,-131.5 457.5,-112.5 353.5,-112.5"/>
<text text-anchor="middle" x="405.5" y="-119.5" font-family="Helvetica,sans-Serif" font-size="10.00">alib/core/enums.hpp</text>
</a>
</g>
</g>
<!-- Node2&#45;&gt;Node11 -->
<g id="edge10" class="edge"><title>Node2&#45;&gt;Node11</title>
<path fill="none" stroke="midnightblue" d="M759.061,-173.062C699.716,-165.578 574.872,-148.68 464.266,-132.961"/>
<polygon fill="midnightblue" stroke="midnightblue" points="464.686,-129.486 454.293,-131.541 463.7,-136.416 464.686,-129.486"/>
</g>
<!-- Node12 -->
<g id="node12" class="node"><title>Node12</title>
<g id="a_node12"><a xlink:href="report_8hpp.html" target="_top" xlink:title="alib/core/report.hpp">
<polygon fill="white" stroke="black" points="475.5,-112.5 475.5,-131.5 575.5,-131.5 575.5,-112.5 475.5,-112.5"/>
<text text-anchor="middle" x="525.5" y="-119.5" font-family="Helvetica,sans-Serif" font-size="10.00">alib/core/report.hpp</text>
</a>
</g>
</g>
<!-- Node2&#45;&gt;Node12 -->
<g id="edge12" class="edge"><title>Node2&#45;&gt;Node12</title>
<path fill="none" stroke="midnightblue" d="M759.363,-171.015C712.002,-162.011 626.471,-144.849 572.951,-133.67"/>
<polygon fill="midnightblue" stroke="midnightblue" points="573.526,-130.215 563.02,-131.587 572.089,-137.065 573.526,-130.215"/>
</g>
<!-- Node13 -->
<g id="node13" class="node"><title>Node13</title>
<g id="a_node13"><a xlink:href="cstring_8hpp.html" target="_top" xlink:title="alib/strings/cstring.hpp">
<polygon fill="white" stroke="black" points="594,-112.5 594,-131.5 709,-131.5 709,-112.5 594,-112.5"/>
<text text-anchor="middle" x="651.5" y="-119.5" font-family="Helvetica,sans-Serif" font-size="10.00">alib/strings/cstring.hpp</text>
</a>
</g>
</g>
<!-- Node2&#45;&gt;Node13 -->
<g id="edge14" class="edge"><title>Node2&#45;&gt;Node13</title>
<path fill="none" stroke="midnightblue" d="M765.911,-168.444C740.48,-159.517 703.232,-145.439 678.118,-135.317"/>
<polygon fill="midnightblue" stroke="midnightblue" points="679.396,-132.058 668.815,-131.516 676.749,-138.538 679.396,-132.058"/>
</g>
<!-- Node16 -->
<g id="node16" class="node"><title>Node16</title>
<g id="a_node16"><a xlink:href="as_8hpp.html" target="_top" xlink:title="alib/strings/as.hpp">
<polygon fill="white" stroke="black" points="565.5,-56.5 565.5,-75.5 661.5,-75.5 661.5,-56.5 565.5,-56.5"/>
<text text-anchor="middle" x="613.5" y="-63.5" font-family="Helvetica,sans-Serif" font-size="10.00">alib/strings/as.hpp</text>
</a>
</g>
</g>
<!-- Node2&#45;&gt;Node16 -->
<g id="edge18" class="edge"><title>Node2&#45;&gt;Node16</title>
<path fill="none" stroke="midnightblue" d="M779.757,-168.46C763.359,-155.044 736.37,-128.827 709.5,-112 687.931,-98.4926 661.603,-87.22 641.84,-79.3356"/>
<polygon fill="midnightblue" stroke="midnightblue" points="643.027,-76.0415 632.44,-75.6351 640.463,-82.555 643.027,-76.0415"/>
</g>
<!-- Node19 -->
<g id="node19" class="node"><title>Node19</title>
<g id="a_node19"><a xlink:href="ns__aworx_8hpp.html" target="_top" xlink:title="alib/core/ns_aworx.hpp">
<polygon fill="white" stroke="black" points="1258,-112.5 1258,-131.5 1375,-131.5 1375,-112.5 1258,-112.5"/>
<text text-anchor="middle" x="1316.5" y="-119.5" font-family="Helvetica,sans-Serif" font-size="10.00">alib/core/ns_aworx.hpp</text>
</a>
</g>
</g>
<!-- Node2&#45;&gt;Node19 -->
<g id="edge22" class="edge"><title>Node2&#45;&gt;Node19</title>
<path fill="none" stroke="midnightblue" d="M827.765,-173.553C902.694,-166.537 1085.93,-149.752 1239.5,-132 1242.18,-131.69 1244.92,-131.365 1247.69,-131.029"/>
<polygon fill="midnightblue" stroke="midnightblue" points="1248.33,-134.476 1257.83,-129.776 1247.47,-127.529 1248.33,-134.476"/>
</g>
<!-- Node20 -->
<g id="node20" class="node"><title>Node20</title>
<g id="a_node20"><a xlink:href="namespace_8hpp.html" target="_top" xlink:title="alib/strings/namespace.hpp">
<polygon fill="white" stroke="black" points="897.5,-112.5 897.5,-131.5 1033.5,-131.5 1033.5,-112.5 897.5,-112.5"/>
<text text-anchor="middle" x="965.5" y="-119.5" font-family="Helvetica,sans-Serif" font-size="10.00">alib/strings/namespace.hpp</text>
</a>
</g>
</g>
<!-- Node2&#45;&gt;Node20 -->
<g id="edge24" class="edge"><title>Node2&#45;&gt;Node20</title>
<path fill="none" stroke="midnightblue" d="M815.665,-168.444C842.96,-159.241 889.536,-144.562 923.602,-134.388"/>
<polygon fill="midnightblue" stroke="midnightblue" points="924.7,-137.713 933.294,-131.516 922.711,-131.001 924.7,-137.713"/>
</g>
<!-- Node11&#45;&gt;Node2 -->
<g id="edge11" class="edge"><title>Node11&#45;&gt;Node2</title>
<path fill="none" stroke="midnightblue" d="M457.729,-129.444C463.755,-130.312 469.777,-131.184 475.5,-132 573.374,-145.954 687.839,-161.538 749.329,-170.217"/>
<polygon fill="midnightblue" stroke="midnightblue" points="749.064,-173.714 759.456,-171.652 750.046,-166.783 749.064,-173.714"/>
</g>
<!-- Node12&#45;&gt;Node2 -->
<g id="edge13" class="edge"><title>Node12&#45;&gt;Node2</title>
<path fill="none" stroke="midnightblue" d="M573.153,-131.576C623.169,-141.228 700.973,-156.886 749.556,-167.063"/>
<polygon fill="midnightblue" stroke="midnightblue" points="748.952,-170.513 759.459,-169.148 750.394,-163.663 748.952,-170.513"/>
</g>
<!-- Node13&#45;&gt;Node2 -->
<g id="edge15" class="edge"><title>Node13&#45;&gt;Node2</title>
<path fill="none" stroke="midnightblue" d="M678.975,-131.516C704.371,-140.427 741.619,-154.504 766.769,-164.638"/>
<polygon fill="midnightblue" stroke="midnightblue" points="765.507,-167.903 776.088,-168.444 768.154,-161.423 765.507,-167.903"/>
</g>
<!-- Node14 -->
<g id="node14" class="node"><title>Node14</title>
<polygon fill="white" stroke="#bfbfbf" points="501.5,-56.5 501.5,-75.5 547.5,-75.5 547.5,-56.5 501.5,-56.5"/>
<text text-anchor="middle" x="524.5" y="-63.5" font-family="Helvetica,sans-Serif" font-size="10.00">cstring</text>
</g>
<!-- Node13&#45;&gt;Node14 -->
<g id="edge16" class="edge"><title>Node13&#45;&gt;Node14</title>
<path fill="none" stroke="midnightblue" d="M631.376,-112.444C610.476,-103.557 577.565,-89.5632 553.784,-79.4514"/>
<polygon fill="midnightblue" stroke="midnightblue" points="555.102,-76.2085 544.529,-75.5164 552.362,-82.6504 555.102,-76.2085"/>
</g>
<!-- Node15 -->
<g id="node15" class="node"><title>Node15</title>
<polygon fill="white" stroke="#bfbfbf" points="443.5,-56.5 443.5,-75.5 483.5,-75.5 483.5,-56.5 443.5,-56.5"/>
<text text-anchor="middle" x="463.5" y="-63.5" font-family="Helvetica,sans-Serif" font-size="10.00">limits</text>
</g>
<!-- Node13&#45;&gt;Node15 -->
<g id="edge17" class="edge"><title>Node13&#45;&gt;Node15</title>
<path fill="none" stroke="midnightblue" d="M620.357,-112.435C590.197,-104.085 542.943,-90.8602 493.371,-76.2088"/>
<polygon fill="midnightblue" stroke="midnightblue" points="494.344,-72.8468 483.762,-73.3592 492.354,-79.5579 494.344,-72.8468"/>
</g>
<!-- Node16&#45;&gt;Node2 -->
<g id="edge19" class="edge"><title>Node16&#45;&gt;Node2</title>
<path fill="none" stroke="midnightblue" d="M646.819,-75.6351C670.571,-83.4748 702.287,-96.2105 727.5,-112 749.752,-125.935 772.085,-146.31 784.622,-160.521"/>
<polygon fill="midnightblue" stroke="midnightblue" points="782.051,-162.907 791.074,-168.46 787.484,-158.492 782.051,-162.907"/>
</g>
<!-- Node17 -->
<g id="node17" class="node"><title>Node17</title>
<polygon fill="white" stroke="#bfbfbf" points="622,-0.5 622,-19.5 667,-19.5 667,-0.5 622,-0.5"/>
<text text-anchor="middle" x="644.5" y="-7.5" font-family="Helvetica,sans-Serif" font-size="10.00">iosfwd</text>
</g>
<!-- Node16&#45;&gt;Node17 -->
<g id="edge20" class="edge"><title>Node16&#45;&gt;Node17</title>
<path fill="none" stroke="midnightblue" d="M618.619,-56.083C622.908,-48.6127 629.158,-37.7244 634.442,-28.5199"/>
<polygon fill="midnightblue" stroke="midnightblue" points="637.533,-30.1662 639.476,-19.7511 631.462,-26.6811 637.533,-30.1662"/>
</g>
<!-- Node18 -->
<g id="node18" class="node"><title>Node18</title>
<polygon fill="white" stroke="#bfbfbf" points="716.5,-0.5 716.5,-19.5 762.5,-19.5 762.5,-0.5 716.5,-0.5"/>
<text text-anchor="middle" x="739.5" y="-7.5" font-family="Helvetica,sans-Serif" font-size="10.00">cctype</text>
</g>
<!-- Node16&#45;&gt;Node18 -->
<g id="edge21" class="edge"><title>Node16&#45;&gt;Node18</title>
<path fill="none" stroke="midnightblue" d="M633.465,-56.4435C654.109,-47.5961 686.563,-33.6875 710.132,-23.5865"/>
<polygon fill="midnightblue" stroke="midnightblue" points="711.816,-26.6727 719.628,-19.5164 709.058,-20.2387 711.816,-26.6727"/>
</g>
<!-- Node19&#45;&gt;Node2 -->
<g id="edge23" class="edge"><title>Node19&#45;&gt;Node2</title>
<path fill="none" stroke="midnightblue" d="M1261.44,-131.538C1260.12,-131.695 1258.8,-131.85 1257.5,-132 1103.8,-149.766 920.386,-166.565 837.632,-173.571"/>
<polygon fill="midnightblue" stroke="midnightblue" points="837.248,-170.091 827.576,-174.415 837.834,-177.066 837.248,-170.091"/>
</g>
<!-- Node20&#45;&gt;Node2 -->
<g id="edge25" class="edge"><title>Node20&#45;&gt;Node2</title>
<path fill="none" stroke="midnightblue" d="M943.454,-131.516C916.215,-140.703 869.649,-155.381 835.547,-165.568"/>
<polygon fill="midnightblue" stroke="midnightblue" points="834.436,-162.246 825.843,-168.444 836.425,-168.958 834.436,-162.246"/>
</g>
<!-- Node21 -->
<g id="node21" class="node"><title>Node21</title>
<g id="a_node21"><a xlink:href="asterminatable_8hpp.html" target="_top" xlink:title="alib/strings/asterminatable.hpp">
<polygon fill="white" stroke="black" points="972,-56.5 972,-75.5 1121,-75.5 1121,-56.5 972,-56.5"/>
<text text-anchor="middle" x="1046.5" y="-63.5" font-family="Helvetica,sans-Serif" font-size="10.00">alib/strings/asterminatable.hpp</text>
</a>
</g>
</g>
<!-- Node20&#45;&gt;Node21 -->
<g id="edge26" class="edge"><title>Node20&#45;&gt;Node21</title>
<path fill="none" stroke="midnightblue" d="M978.514,-112.324C991.032,-103.979 1010.18,-91.2122 1024.97,-81.3524"/>
<polygon fill="midnightblue" stroke="midnightblue" points="1027.14,-84.1137 1033.52,-75.6545 1023.26,-78.2894 1027.14,-84.1137"/>
</g>
<!-- Node22 -->
<g id="node22" class="node"><title>Node22</title>
<g id="a_node22"><a xlink:href="asliteral_8hpp.html" target="_top" xlink:title="alib/strings/asliteral.hpp">
<polygon fill="white" stroke="black" points="680,-56.5 680,-75.5 799,-75.5 799,-56.5 680,-56.5"/>
<text text-anchor="middle" x="739.5" y="-63.5" font-family="Helvetica,sans-Serif" font-size="10.00">alib/strings/asliteral.hpp</text>
</a>
</g>
</g>
<!-- Node20&#45;&gt;Node22 -->
<g id="edge28" class="edge"><title>Node20&#45;&gt;Node22</title>
<path fill="none" stroke="midnightblue" d="M929.69,-112.444C890.512,-103.083 827.623,-88.0561 784.985,-77.868"/>
<polygon fill="midnightblue" stroke="midnightblue" points="785.682,-74.4363 775.143,-75.5164 784.056,-81.2446 785.682,-74.4363"/>
</g>
<!-- Node23 -->
<g id="node23" class="node"><title>Node23</title>
<g id="a_node23"><a xlink:href="asalloc_8hpp.html" target="_top" xlink:title="alib/strings/asalloc.hpp">
<polygon fill="white" stroke="red" points="1138.5,-56.5 1138.5,-75.5 1254.5,-75.5 1254.5,-56.5 1138.5,-56.5"/>
<text text-anchor="middle" x="1196.5" y="-63.5" font-family="Helvetica,sans-Serif" font-size="10.00">alib/strings/asalloc.hpp</text>
</a>
</g>
</g>
<!-- Node20&#45;&gt;Node23 -->
<g id="edge32" class="edge"><title>Node20&#45;&gt;Node23</title>
<path fill="none" stroke="midnightblue" d="M1002.1,-112.444C1042.23,-103.063 1106.7,-87.9926 1150.28,-77.8036"/>
<polygon fill="midnightblue" stroke="midnightblue" points="1151.13,-81.2009 1160.07,-75.5164 1149.53,-74.3847 1151.13,-81.2009"/>
</g>
<!-- Node20&#45;&gt;Node24 -->
<g id="edge34" class="edge"><title>Node20&#45;&gt;Node24</title>
<path fill="none" stroke="midnightblue" d="M1033.54,-115.195C1152.81,-105.021 1398.71,-84.0434 1523.03,-73.4386"/>
<polygon fill="midnightblue" stroke="midnightblue" points="1523.55,-76.9067 1533.22,-72.5693 1522.95,-69.932 1523.55,-76.9067"/>
</g>
<!-- Node25 -->
<g id="node25" class="node"><title>Node25</title>
<g id="a_node25"><a xlink:href="applyto_8hpp.html" target="_top" xlink:title="alib/strings/applyto.hpp">
<polygon fill="white" stroke="black" points="1273,-56.5 1273,-75.5 1390,-75.5 1390,-56.5 1273,-56.5"/>
<text text-anchor="middle" x="1331.5" y="-63.5" font-family="Helvetica,sans-Serif" font-size="10.00">alib/strings/applyto.hpp</text>
</a>
</g>
</g>
<!-- Node20&#45;&gt;Node25 -->
<g id="edge36" class="edge"><title>Node20&#45;&gt;Node25</title>
<path fill="none" stroke="midnightblue" d="M1023.49,-112.444C1088.81,-102.806 1194.84,-87.1635 1263.87,-76.9782"/>
<polygon fill="midnightblue" stroke="midnightblue" points="1264.4,-80.4386 1273.78,-75.5164 1263.37,-73.5136 1264.4,-80.4386"/>
</g>
<!-- Node26 -->
<g id="node26" class="node"><title>Node26</title>
<g id="a_node26"><a xlink:href="applyformat_8hpp.html" target="_top" xlink:title="alib/strings/applyformat.hpp">
<polygon fill="white" stroke="black" points="817,-56.5 817,-75.5 954,-75.5 954,-56.5 817,-56.5"/>
<text text-anchor="middle" x="885.5" y="-63.5" font-family="Helvetica,sans-Serif" font-size="10.00">alib/strings/applyformat.hpp</text>
</a>
</g>
</g>
<!-- Node20&#45;&gt;Node26 -->
<g id="edge38" class="edge"><title>Node20&#45;&gt;Node26</title>
<path fill="none" stroke="midnightblue" d="M952.647,-112.324C940.284,-103.979 921.37,-91.2122 906.763,-81.3524"/>
<polygon fill="midnightblue" stroke="midnightblue" points="908.568,-78.3483 898.321,-75.6545 904.652,-84.1503 908.568,-78.3483"/>
</g>
<!-- Node21&#45;&gt;Node2 -->
<g id="edge27" class="edge"><title>Node21&#45;&gt;Node2</title>
<path fill="none" stroke="midnightblue" d="M1002.56,-75.5115C970.081,-82.747 925.293,-94.7343 888.5,-112 873.1,-119.227 836.167,-145.589 813.152,-162.439"/>
<polygon fill="midnightblue" stroke="midnightblue" points="811.069,-159.627 805.087,-168.372 815.217,-165.266 811.069,-159.627"/>
</g>
<!-- Node22&#45;&gt;Node2 -->
<g id="edge29" class="edge"><title>Node22&#45;&gt;Node2</title>
<path fill="none" stroke="midnightblue" d="M746.117,-75.5901C752.67,-84.3806 762.685,-98.6117 769.5,-112 777.174,-127.076 783.659,-145.202 787.946,-158.479"/>
<polygon fill="midnightblue" stroke="midnightblue" points="784.694,-159.809 791.007,-168.317 791.378,-157.729 784.694,-159.809"/>
</g>
<!-- Node22&#45;&gt;Node17 -->
<g id="edge30" class="edge"><title>Node22&#45;&gt;Node17</title>
<path fill="none" stroke="midnightblue" d="M724.237,-56.324C709.279,-47.8215 686.245,-34.7288 668.773,-24.7975"/>
<polygon fill="midnightblue" stroke="midnightblue" points="670.149,-21.5534 659.726,-19.6545 666.69,-27.639 670.149,-21.5534"/>
</g>
<!-- Node22&#45;&gt;Node18 -->
<g id="edge31" class="edge"><title>Node22&#45;&gt;Node18</title>
<path fill="none" stroke="midnightblue" d="M739.5,-56.083C739.5,-49.0059 739.5,-38.8611 739.5,-29.9865"/>
<polygon fill="midnightblue" stroke="midnightblue" points="743,-29.751 739.5,-19.7511 736,-29.7511 743,-29.751"/>
</g>
<!-- Node23&#45;&gt;Node2 -->
<g id="edge33" class="edge"><title>Node23&#45;&gt;Node2</title>
<path fill="none" stroke="midnightblue" d="M1174.25,-75.6401C1151.74,-84.4695 1116.01,-98.7302 1085.5,-112 1066.17,-120.406 1062.59,-125.629 1042.5,-132 972.718,-154.128 888.272,-166.516 837.825,-172.468"/>
<polygon fill="midnightblue" stroke="midnightblue" points="837.129,-169.025 827.593,-173.641 837.927,-175.979 837.129,-169.025"/>
</g>
<!-- Node24&#45;&gt;Node2 -->
<g id="edge35" class="edge"><title>Node24&#45;&gt;Node2</title>
<path fill="none" stroke="midnightblue" d="M1598.85,-75.8691C1598.89,-90.2437 1596.62,-118.389 1579.5,-132 1521.39,-178.205 995.811,-178.395 838.063,-177.395"/>
<polygon fill="midnightblue" stroke="midnightblue" points="837.806,-173.893 827.782,-177.324 837.758,-180.893 837.806,-173.893"/>
</g>
<!-- Node25&#45;&gt;Node2 -->
<g id="edge37" class="edge"><title>Node25&#45;&gt;Node2</title>
<path fill="none" stroke="midnightblue" d="M1272.6,-75.4461C1229.24,-82.6191 1169.26,-94.5567 1118.5,-112 1099.33,-118.59 1096.84,-125.902 1077.5,-132 995.256,-157.937 894.688,-169.36 837.976,-174.047"/>
<polygon fill="midnightblue" stroke="midnightblue" points="837.603,-170.566 827.912,-174.846 838.157,-177.544 837.603,-170.566"/>
</g>
<!-- Node26&#45;&gt;Node2 -->
<g id="edge39" class="edge"><title>Node26&#45;&gt;Node2</title>
<path fill="none" stroke="midnightblue" d="M878.314,-75.5914C863.028,-93.8691 827.063,-136.871 807.228,-160.586"/>
<polygon fill="midnightblue" stroke="midnightblue" points="804.45,-158.452 800.719,-168.368 809.819,-162.943 804.45,-158.452"/>
</g>
<!-- Node26&#45;&gt;Node18 -->
<g id="edge40" class="edge"><title>Node26&#45;&gt;Node18</title>
<path fill="none" stroke="midnightblue" d="M862.366,-56.4435C838.018,-47.4381 799.493,-33.1891 772.077,-23.049"/>
<polygon fill="midnightblue" stroke="midnightblue" points="773.119,-19.7028 762.526,-19.5164 770.691,-26.2681 773.119,-19.7028"/>
</g>
</g>
</svg>
