<?xml version="1.0" encoding="UTF-8" standalone="no"?>
<!DOCTYPE svg PUBLIC "-//W3C//DTD SVG 1.1//EN"
 "http://www.w3.org/Graphics/SVG/1.1/DTD/svg11.dtd">
<!-- Generated by graphviz version 2.38.0 (20140413.2041)
 -->
<!-- Title: thread.hpp Pages: 1 -->
<svg width="148pt" height="308pt"
 viewBox="0.00 0.00 148.00 308.00" xmlns="http://www.w3.org/2000/svg" xmlns:xlink="http://www.w3.org/1999/xlink">
<g id="graph0" class="graph" transform="scale(1 1) rotate(0) translate(4 304)">
<title>thread.hpp</title>
<polygon fill="white" stroke="none" points="-4,4 -4,-304 144,-304 144,4 -4,4"/>
<!-- Node1 -->
<g id="node1" class="node"><title>Node1</title>
<polygon fill="#bfbfbf" stroke="black" points="72,-280.5 72,-299.5 134,-299.5 134,-280.5 72,-280.5"/>
<text text-anchor="middle" x="103" y="-287.5" font-family="Helvetica,sans-Serif" font-size="10.00">thread.hpp</text>
</g>
<!-- Node2 -->
<g id="node2" class="node"><title>Node2</title>
<g id="a_node2"><a xlink:href="threadlock_8hpp.html" target="_top" xlink:title="threadlock.hpp">
<polygon fill="white" stroke="black" points="26,-224.5 26,-243.5 106,-243.5 106,-224.5 26,-224.5"/>
<text text-anchor="middle" x="66" y="-231.5" font-family="Helvetica,sans-Serif" font-size="10.00">threadlock.hpp</text>
</a>
</g>
</g>
<!-- Node1&#45;&gt;Node2 -->
<g id="edge1" class="edge"><title>Node1&#45;&gt;Node2</title>
<path fill="none" stroke="midnightblue" d="M91.0542,-271.566C84.6883,-262.275 77.1332,-251.248 71.9961,-243.751"/>
<polygon fill="midnightblue" stroke="midnightblue" points="88.3506,-273.812 96.8902,-280.083 94.1251,-269.855 88.3506,-273.812"/>
</g>
<!-- Node6 -->
<g id="node3" class="node"><title>Node6</title>
<g id="a_node3"><a xlink:href="scopeinfo_8hpp.html" target="_top" xlink:title="scopeinfo.hpp">
<polygon fill="white" stroke="black" points="37.5,-0.5 37.5,-19.5 114.5,-19.5 114.5,-0.5 37.5,-0.5"/>
<text text-anchor="middle" x="76" y="-7.5" font-family="Helvetica,sans-Serif" font-size="10.00">scopeinfo.hpp</text>
</a>
</g>
</g>
<!-- Node1&#45;&gt;Node6 -->
<g id="edge2" class="edge"><title>Node1&#45;&gt;Node6</title>
<path fill="none" stroke="midnightblue" d="M112.858,-271.432C123.818,-250.213 140,-213.111 140,-179 140,-179 140,-179 140,-121 140,-78.1369 103.246,-37.0674 85.4434,-19.6885"/>
<polygon fill="midnightblue" stroke="midnightblue" points="109.641,-270.024 107.99,-280.49 115.807,-273.338 109.641,-270.024"/>
</g>
<!-- Node3 -->
<g id="node4" class="node"><title>Node3</title>
<g id="a_node4"><a xlink:href="configuration_8hpp.html" target="_top" xlink:title="configuration.hpp">
<polygon fill="white" stroke="black" points="20.5,-168.5 20.5,-187.5 111.5,-187.5 111.5,-168.5 20.5,-168.5"/>
<text text-anchor="middle" x="66" y="-175.5" font-family="Helvetica,sans-Serif" font-size="10.00">configuration.hpp</text>
</a>
</g>
</g>
<!-- Node2&#45;&gt;Node3 -->
<g id="edge3" class="edge"><title>Node2&#45;&gt;Node3</title>
<path fill="none" stroke="midnightblue" d="M66,-213.805C66,-204.91 66,-194.78 66,-187.751"/>
<polygon fill="midnightblue" stroke="midnightblue" points="62.5001,-214.083 66,-224.083 69.5001,-214.083 62.5001,-214.083"/>
</g>
<!-- Node5 -->
<g id="node5" class="node"><title>Node5</title>
<g id="a_node5"><a xlink:href="lox_8hpp.html" target="_top" xlink:title="lox.hpp">
<polygon fill="white" stroke="black" points="0,-112.5 0,-131.5 48,-131.5 48,-112.5 0,-112.5"/>
<text text-anchor="middle" x="24" y="-119.5" font-family="Helvetica,sans-Serif" font-size="10.00">lox.hpp</text>
</a>
</g>
</g>
<!-- Node2&#45;&gt;Node5 -->
<g id="edge4" class="edge"><title>Node2&#45;&gt;Node5</title>
<path fill="none" stroke="midnightblue" d="M40.1405,-218.947C28.9942,-211.383 17.1281,-200.932 11,-188 2.12931,-169.281 12.16,-144.75 18.8976,-131.835"/>
<polygon fill="midnightblue" stroke="midnightblue" points="38.472,-222.032 48.802,-224.386 42.1947,-216.104 38.472,-222.032"/>
</g>
<!-- Node6&#45;&gt;Node5 -->
<g id="edge10" class="edge"><title>Node6&#45;&gt;Node5</title>
<path fill="none" stroke="midnightblue" d="M60.312,-27.0523C53.1769,-35.1524 45.188,-45.4771 40,-56 30.7497,-74.7625 26.5975,-99.2752 24.9474,-112.176"/>
<polygon fill="midnightblue" stroke="midnightblue" points="63.0721,-29.2225 67.2854,-19.5014 57.9295,-24.4733 63.0721,-29.2225"/>
</g>
<!-- Node3&#45;&gt;Node5 -->
<g id="edge6" class="edge"><title>Node3&#45;&gt;Node5</title>
<path fill="none" stroke="midnightblue" d="M52.8898,-160.144C45.5722,-150.736 36.7591,-139.405 30.8064,-131.751"/>
<polygon fill="midnightblue" stroke="midnightblue" points="50.1624,-162.338 59.0646,-168.083 55.6878,-158.041 50.1624,-162.338"/>
</g>
<!-- Node4 -->
<g id="node6" class="node"><title>Node4</title>
<g id="a_node6"><a xlink:href="alox_8hpp.html" target="_top" xlink:title="alox.hpp">
<polygon fill="white" stroke="red" points="49.5,-56.5 49.5,-75.5 102.5,-75.5 102.5,-56.5 49.5,-56.5"/>
<text text-anchor="middle" x="76" y="-63.5" font-family="Helvetica,sans-Serif" font-size="10.00">alox.hpp</text>
</a>
</g>
</g>
<!-- Node3&#45;&gt;Node4 -->
<g id="edge5" class="edge"><title>Node3&#45;&gt;Node4</title>
<path fill="none" stroke="midnightblue" d="M67.6956,-158.348C69.886,-134.254 73.6084,-93.3079 75.219,-75.5914"/>
<polygon fill="midnightblue" stroke="midnightblue" points="64.2045,-158.093 66.7847,-168.368 71.1758,-158.726 64.2045,-158.093"/>
</g>
<!-- Node5&#45;&gt;Node4 -->
<g id="edge9" class="edge"><title>Node5&#45;&gt;Node4</title>
<path fill="none" stroke="midnightblue" d="M33.9243,-104.144C42.1247,-94.7357 53.4283,-83.4046 62.442,-75.7511"/>
<polygon fill="midnightblue" stroke="midnightblue" points="31.0502,-102.129 27.4204,-112.083 36.4652,-106.565 31.0502,-102.129"/>
</g>
<!-- Node4&#45;&gt;Node6 -->
<g id="edge8" class="edge"><title>Node4&#45;&gt;Node6</title>
<path fill="none" stroke="midnightblue" d="M76,-45.8045C76,-36.9102 76,-26.7798 76,-19.7511"/>
<polygon fill="midnightblue" stroke="midnightblue" points="72.5001,-46.083 76,-56.083 79.5001,-46.083 72.5001,-46.083"/>
</g>
<!-- Node4&#45;&gt;Node5 -->
<g id="edge7" class="edge"><title>Node4&#45;&gt;Node5</title>
<path fill="none" stroke="midnightblue" d="M66.1246,-83.7999C57.8934,-93.25 46.5156,-104.654 37.4695,-112.324"/>
<polygon fill="midnightblue" stroke="midnightblue" points="69.0186,-85.7899 72.642,-75.8339 63.6008,-81.3573 69.0186,-85.7899"/>
</g>
</g>
</svg>
