<?xml version="1.0" encoding="UTF-8" standalone="no"?>
<!DOCTYPE svg PUBLIC "-//W3C//DTD SVG 1.1//EN"
 "http://www.w3.org/Graphics/SVG/1.1/DTD/svg11.dtd">
<!-- Generated by graphviz version 2.38.0 (20140413.2041)
 -->
<!-- Title: thread.hpp Pages: 1 -->
<svg width="228pt" height="252pt"
 viewBox="0.00 0.00 228.00 252.00" xmlns="http://www.w3.org/2000/svg" xmlns:xlink="http://www.w3.org/1999/xlink">
<g id="graph0" class="graph" transform="scale(1 1) rotate(0) translate(4 248)">
<title>thread.hpp</title>
<polygon fill="white" stroke="none" points="-4,4 -4,-248 224,-248 224,4 -4,4"/>
<!-- Node1 -->
<g id="node1" class="node"><title>Node1</title>
<polygon fill="#bfbfbf" stroke="black" points="145.5,-224.5 145.5,-243.5 207.5,-243.5 207.5,-224.5 145.5,-224.5"/>
<text text-anchor="middle" x="176.5" y="-231.5" font-family="Helvetica,sans-Serif" font-size="10.00">thread.hpp</text>
</g>
<!-- Node2 -->
<g id="node2" class="node"><title>Node2</title>
<g id="a_node2"><a xlink:href="threadlock_8hpp.html" target="_top" xlink:title="threadlock.hpp">
<polygon fill="white" stroke="black" points="93.5,-168.5 93.5,-187.5 173.5,-187.5 173.5,-168.5 93.5,-168.5"/>
<text text-anchor="middle" x="133.5" y="-175.5" font-family="Helvetica,sans-Serif" font-size="10.00">threadlock.hpp</text>
</a>
</g>
</g>
<!-- Node1&#45;&gt;Node2 -->
<g id="edge1" class="edge"><title>Node1&#45;&gt;Node2</title>
<path fill="none" stroke="midnightblue" d="M163.078,-216.144C155.586,-206.736 146.563,-195.405 140.468,-187.751"/>
<polygon fill="midnightblue" stroke="midnightblue" points="160.432,-218.44 169.399,-224.083 165.908,-214.08 160.432,-218.44"/>
</g>
<!-- Node7 -->
<g id="node7" class="node"><title>Node7</title>
<g id="a_node7"><a xlink:href="scopeinfo_8hpp.html" target="_top" xlink:title="scopeinfo.hpp">
<polygon fill="white" stroke="black" points="143,-0.5 143,-19.5 220,-19.5 220,-0.5 143,-0.5"/>
<text text-anchor="middle" x="181.5" y="-7.5" font-family="Helvetica,sans-Serif" font-size="10.00">scopeinfo.hpp</text>
</a>
</g>
</g>
<!-- Node1&#45;&gt;Node7 -->
<g id="edge9" class="edge"><title>Node1&#45;&gt;Node7</title>
<path fill="none" stroke="midnightblue" d="M179.565,-214.25C180.735,-206.195 181.925,-196.659 182.5,-188 186.774,-123.609 183.363,-45.7541 181.999,-19.8539"/>
<polygon fill="midnightblue" stroke="midnightblue" points="176.064,-213.989 177.991,-224.407 182.981,-215.061 176.064,-213.989"/>
</g>
<!-- Node3 -->
<g id="node3" class="node"><title>Node3</title>
<g id="a_node3"><a xlink:href="configuration_8hpp.html" target="_top" xlink:title="configuration.hpp">
<polygon fill="white" stroke="black" points="0,-112.5 0,-131.5 91,-131.5 91,-112.5 0,-112.5"/>
<text text-anchor="middle" x="45.5" y="-119.5" font-family="Helvetica,sans-Serif" font-size="10.00">configuration.hpp</text>
</a>
</g>
</g>
<!-- Node2&#45;&gt;Node3 -->
<g id="edge2" class="edge"><title>Node2&#45;&gt;Node3</title>
<path fill="none" stroke="midnightblue" d="M110.523,-162.901C94.3866,-152.999 73.3187,-140.071 59.6036,-131.655"/>
<polygon fill="midnightblue" stroke="midnightblue" points="109.007,-166.077 119.361,-168.324 112.669,-160.111 109.007,-166.077"/>
</g>
<!-- Node5 -->
<g id="node5" class="node"><title>Node5</title>
<g id="a_node5"><a xlink:href="lox_8hpp.html" target="_top" xlink:title="lox.hpp">
<polygon fill="white" stroke="black" points="109.5,-112.5 109.5,-131.5 157.5,-131.5 157.5,-112.5 109.5,-112.5"/>
<text text-anchor="middle" x="133.5" y="-119.5" font-family="Helvetica,sans-Serif" font-size="10.00">lox.hpp</text>
</a>
</g>
</g>
<!-- Node2&#45;&gt;Node5 -->
<g id="edge4" class="edge"><title>Node2&#45;&gt;Node5</title>
<path fill="none" stroke="midnightblue" d="M133.5,-157.805C133.5,-148.91 133.5,-138.78 133.5,-131.751"/>
<polygon fill="midnightblue" stroke="midnightblue" points="130,-158.083 133.5,-168.083 137,-158.083 130,-158.083"/>
</g>
<!-- Node4 -->
<g id="node4" class="node"><title>Node4</title>
<g id="a_node4"><a xlink:href="inifile_8hpp.html" target="_top" xlink:title="inifile.hpp">
<polygon fill="white" stroke="black" points="16.5,-56.5 16.5,-75.5 74.5,-75.5 74.5,-56.5 16.5,-56.5"/>
<text text-anchor="middle" x="45.5" y="-63.5" font-family="Helvetica,sans-Serif" font-size="10.00">inifile.hpp</text>
</a>
</g>
</g>
<!-- Node3&#45;&gt;Node4 -->
<g id="edge3" class="edge"><title>Node3&#45;&gt;Node4</title>
<path fill="none" stroke="midnightblue" d="M45.5,-101.805C45.5,-92.9102 45.5,-82.7798 45.5,-75.7511"/>
<polygon fill="midnightblue" stroke="midnightblue" points="42.0001,-102.083 45.5,-112.083 49.0001,-102.083 42.0001,-102.083"/>
</g>
<!-- Node6 -->
<g id="node6" class="node"><title>Node6</title>
<g id="a_node6"><a xlink:href="alox_8hpp.html" target="_top" xlink:title="alox.hpp">
<polygon fill="white" stroke="red" points="100,-56.5 100,-75.5 153,-75.5 153,-56.5 100,-56.5"/>
<text text-anchor="middle" x="126.5" y="-63.5" font-family="Helvetica,sans-Serif" font-size="10.00">alox.hpp</text>
</a>
</g>
</g>
<!-- Node5&#45;&gt;Node6 -->
<g id="edge5" class="edge"><title>Node5&#45;&gt;Node6</title>
<path fill="none" stroke="midnightblue" d="M124.637,-102.396C122.803,-93.362 121.892,-82.936 122.503,-75.7511"/>
<polygon fill="midnightblue" stroke="midnightblue" points="121.255,-103.298 127.178,-112.083 128.026,-101.522 121.255,-103.298"/>
</g>
<!-- Node6&#45;&gt;Node5 -->
<g id="edge6" class="edge"><title>Node6&#45;&gt;Node5</title>
<path fill="none" stroke="midnightblue" d="M135.38,-85.6911C137.189,-94.6353 138.092,-104.927 137.51,-112.083"/>
<polygon fill="midnightblue" stroke="midnightblue" points="138.695,-84.5315 132.765,-75.7511 131.925,-86.3125 138.695,-84.5315"/>
</g>
<!-- Node6&#45;&gt;Node7 -->
<g id="edge7" class="edge"><title>Node6&#45;&gt;Node7</title>
<path fill="none" stroke="midnightblue" d="M142.794,-49.0024C152.541,-39.4329 164.553,-27.6389 172.587,-19.7511"/>
<polygon fill="midnightblue" stroke="midnightblue" points="140.266,-46.5796 135.582,-56.083 145.17,-51.5746 140.266,-46.5796"/>
</g>
<!-- Node7&#45;&gt;Node5 -->
<g id="edge8" class="edge"><title>Node7&#45;&gt;Node5</title>
<path fill="none" stroke="midnightblue" d="M177.17,-29.5007C173.74,-42.7678 168.384,-60.8912 161.5,-76 155.396,-89.397 145.984,-103.626 139.784,-112.414"/>
<polygon fill="midnightblue" stroke="midnightblue" points="180.598,-30.2181 179.588,-19.6714 173.8,-28.5454 180.598,-30.2181"/>
</g>
</g>
</svg>
