<?xml version="1.0" encoding="UTF-8" standalone="no"?>
<!DOCTYPE svg PUBLIC "-//W3C//DTD SVG 1.1//EN"
 "http://www.w3.org/Graphics/SVG/1.1/DTD/svg11.dtd">
<!-- Generated by graphviz version 2.38.0 (20140413.2041)
 -->
<!-- Title: threadlock.hpp Pages: 1 -->
<svg width="2119pt" height="252pt"
 viewBox="0.00 0.00 2118.50 252.00" xmlns="http://www.w3.org/2000/svg" xmlns:xlink="http://www.w3.org/1999/xlink">
<g id="graph0" class="graph" transform="scale(1 1) rotate(0) translate(4 248)">
<title>threadlock.hpp</title>
<polygon fill="white" stroke="none" points="-4,4 -4,-248 2114.5,-248 2114.5,4 -4,4"/>
<!-- Node1 -->
<g id="node1" class="node"><title>Node1</title>
<polygon fill="#bfbfbf" stroke="black" points="1077,-224.5 1077,-243.5 1157,-243.5 1157,-224.5 1077,-224.5"/>
<text text-anchor="middle" x="1117" y="-231.5" font-family="Helvetica,sans-Serif" font-size="10.00">threadlock.hpp</text>
</g>
<!-- Node2 -->
<g id="node2" class="node"><title>Node2</title>
<g id="a_node2"><a xlink:href="alib_8hpp.html" target="_top" xlink:title="alib/alib.hpp">
<polygon fill="white" stroke="black" points="1004,-112.5 1004,-131.5 1072,-131.5 1072,-112.5 1004,-112.5"/>
<text text-anchor="middle" x="1038" y="-119.5" font-family="Helvetica,sans-Serif" font-size="10.00">alib/alib.hpp</text>
</a>
</g>
</g>
<!-- Node1&#45;&gt;Node2 -->
<g id="edge1" class="edge"><title>Node1&#45;&gt;Node2</title>
<path fill="none" stroke="midnightblue" d="M1076.75,-229.019C1050.15,-224.06 1017.13,-212.936 1000,-188 988.761,-171.635 1004.23,-151.81 1018.68,-138.39"/>
<polygon fill="midnightblue" stroke="midnightblue" points="1021.17,-140.86 1026.42,-131.657 1016.58,-135.578 1021.17,-140.86"/>
</g>
<!-- Node27 -->
<g id="node3" class="node"><title>Node27</title>
<polygon fill="white" stroke="#bfbfbf" points="1219,-168.5 1219,-187.5 1263,-187.5 1263,-168.5 1219,-168.5"/>
<text text-anchor="middle" x="1241" y="-175.5" font-family="Helvetica,sans-Serif" font-size="10.00">vector</text>
</g>
<!-- Node1&#45;&gt;Node27 -->
<g id="edge2" class="edge"><title>Node1&#45;&gt;Node27</title>
<path fill="none" stroke="midnightblue" d="M1136.65,-224.444C1156.96,-215.596 1188.9,-201.687 1212.1,-191.586"/>
<polygon fill="midnightblue" stroke="midnightblue" points="1213.67,-194.718 1221.44,-187.516 1210.88,-188.3 1213.67,-194.718"/>
</g>
<!-- Node28 -->
<g id="node4" class="node"><title>Node28</title>
<g id="a_node4"><a xlink:href="ownable_8hpp.html" target="_top" xlink:title="alib/core/ownable.hpp">
<polygon fill="white" stroke="black" points="1009.5,-168.5 1009.5,-187.5 1120.5,-187.5 1120.5,-168.5 1009.5,-168.5"/>
<text text-anchor="middle" x="1065" y="-175.5" font-family="Helvetica,sans-Serif" font-size="10.00">alib/core/ownable.hpp</text>
</a>
</g>
</g>
<!-- Node1&#45;&gt;Node28 -->
<g id="edge3" class="edge"><title>Node1&#45;&gt;Node28</title>
<path fill="none" stroke="midnightblue" d="M1108.41,-224.083C1100.84,-216.22 1089.62,-204.569 1080.49,-195.081"/>
<polygon fill="midnightblue" stroke="midnightblue" points="1082.88,-192.527 1073.43,-187.751 1077.84,-197.382 1082.88,-192.527"/>
</g>
<!-- Node29 -->
<g id="node5" class="node"><title>Node29</title>
<g id="a_node5"><a xlink:href="thread_8hpp.html" target="_top" xlink:title="thread.hpp">
<polygon fill="white" stroke="black" points="1139,-168.5 1139,-187.5 1201,-187.5 1201,-168.5 1139,-168.5"/>
<text text-anchor="middle" x="1170" y="-175.5" font-family="Helvetica,sans-Serif" font-size="10.00">thread.hpp</text>
</a>
</g>
</g>
<!-- Node1&#45;&gt;Node29 -->
<g id="edge4" class="edge"><title>Node1&#45;&gt;Node29</title>
<path fill="none" stroke="midnightblue" d="M1125.75,-224.083C1133.47,-216.22 1144.9,-204.569 1154.22,-195.081"/>
<polygon fill="midnightblue" stroke="midnightblue" points="1156.9,-197.34 1161.41,-187.751 1151.91,-192.436 1156.9,-197.34"/>
</g>
<!-- Node3 -->
<g id="node6" class="node"><title>Node3</title>
<g id="a_node6"><a xlink:href="symbols_8hpp.html" target="_top" xlink:title="alib/core/symbols.hpp">
<polygon fill="white" stroke="black" points="0,-56.5 0,-75.5 112,-75.5 112,-56.5 0,-56.5"/>
<text text-anchor="middle" x="56" y="-63.5" font-family="Helvetica,sans-Serif" font-size="10.00">alib/core/symbols.hpp</text>
</a>
</g>
</g>
<!-- Node2&#45;&gt;Node3 -->
<g id="edge5" class="edge"><title>Node2&#45;&gt;Node3</title>
<path fill="none" stroke="midnightblue" d="M1003.78,-120.413C884.03,-118.129 472.523,-108.342 122.414,-76.0486"/>
<polygon fill="midnightblue" stroke="midnightblue" points="122.616,-72.5524 112.335,-75.1111 121.968,-79.5223 122.616,-72.5524"/>
</g>
<!-- Node4 -->
<g id="node7" class="node"><title>Node4</title>
<g id="a_node7"><a xlink:href="macros_8hpp.html" target="_top" xlink:title="alib/core/macros.hpp">
<polygon fill="white" stroke="black" points="130.5,-56.5 130.5,-75.5 237.5,-75.5 237.5,-56.5 130.5,-56.5"/>
<text text-anchor="middle" x="184" y="-63.5" font-family="Helvetica,sans-Serif" font-size="10.00">alib/core/macros.hpp</text>
</a>
</g>
</g>
<!-- Node2&#45;&gt;Node4 -->
<g id="edge6" class="edge"><title>Node2&#45;&gt;Node4</title>
<path fill="none" stroke="midnightblue" d="M1004,-120.1C895.423,-117.007 547.16,-105.396 247.761,-75.9795"/>
<polygon fill="midnightblue" stroke="midnightblue" points="247.875,-72.4738 237.579,-74.9703 247.185,-79.4396 247.875,-72.4738"/>
</g>
<!-- Node5 -->
<g id="node8" class="node"><title>Node5</title>
<polygon fill="white" stroke="#bfbfbf" points="256,-56.5 256,-75.5 308,-75.5 308,-56.5 256,-56.5"/>
<text text-anchor="middle" x="282" y="-63.5" font-family="Helvetica,sans-Serif" font-size="10.00">assert.h</text>
</g>
<!-- Node2&#45;&gt;Node5 -->
<g id="edge7" class="edge"><title>Node2&#45;&gt;Node5</title>
<path fill="none" stroke="midnightblue" d="M1003.97,-121.153C901.476,-121.135 586.804,-117.566 318.198,-75.8845"/>
<polygon fill="midnightblue" stroke="midnightblue" points="318.684,-72.4179 308.261,-74.3216 317.596,-79.3329 318.684,-72.4179"/>
</g>
<!-- Node6 -->
<g id="node9" class="node"><title>Node6</title>
<polygon fill="white" stroke="#bfbfbf" points="326.5,-56.5 326.5,-75.5 375.5,-75.5 375.5,-56.5 326.5,-56.5"/>
<text text-anchor="middle" x="351" y="-63.5" font-family="Helvetica,sans-Serif" font-size="10.00">cstddef</text>
</g>
<!-- Node2&#45;&gt;Node6 -->
<g id="edge8" class="edge"><title>Node2&#45;&gt;Node6</title>
<path fill="none" stroke="midnightblue" d="M1003.68,-121.016C907.357,-120.559 626.361,-115.784 385.732,-75.9885"/>
<polygon fill="midnightblue" stroke="midnightblue" points="386.19,-72.5167 375.749,-74.3134 385.032,-79.4202 386.19,-72.5167"/>
</g>
<!-- Node7 -->
<g id="node10" class="node"><title>Node7</title>
<polygon fill="white" stroke="#bfbfbf" points="393.5,-56.5 393.5,-75.5 456.5,-75.5 456.5,-56.5 393.5,-56.5"/>
<text text-anchor="middle" x="425" y="-63.5" font-family="Helvetica,sans-Serif" font-size="10.00">windows.h</text>
</g>
<!-- Node2&#45;&gt;Node7 -->
<g id="edge9" class="edge"><title>Node2&#45;&gt;Node7</title>
<path fill="none" stroke="midnightblue" d="M1003.9,-120.022C916.218,-117.146 675.683,-106.974 466.725,-76.0727"/>
<polygon fill="midnightblue" stroke="midnightblue" points="467.207,-72.606 456.799,-74.5855 466.17,-79.5288 467.207,-72.606"/>
</g>
<!-- Node8 -->
<g id="node11" class="node"><title>Node8</title>
<polygon fill="white" stroke="#bfbfbf" points="474.5,-56.5 474.5,-75.5 523.5,-75.5 523.5,-56.5 474.5,-56.5"/>
<text text-anchor="middle" x="499" y="-63.5" font-family="Helvetica,sans-Serif" font-size="10.00">stdint.h</text>
</g>
<!-- Node2&#45;&gt;Node8 -->
<g id="edge10" class="edge"><title>Node2&#45;&gt;Node8</title>
<path fill="none" stroke="midnightblue" d="M1003.75,-119.954C923.311,-117.069 716.011,-107.156 533.805,-75.8294"/>
<polygon fill="midnightblue" stroke="midnightblue" points="534.227,-72.3502 523.774,-74.0784 533.023,-79.246 534.227,-72.3502"/>
</g>
<!-- Node9 -->
<g id="node12" class="node"><title>Node9</title>
<polygon fill="white" stroke="#bfbfbf" points="542,-56.5 542,-75.5 604,-75.5 604,-56.5 542,-56.5"/>
<text text-anchor="middle" x="573" y="-63.5" font-family="Helvetica,sans-Serif" font-size="10.00">type_traits</text>
</g>
<!-- Node2&#45;&gt;Node9 -->
<g id="edge11" class="edge"><title>Node2&#45;&gt;Node9</title>
<path fill="none" stroke="midnightblue" d="M1003.94,-118.739C933.149,-113.753 764.842,-100.399 614.267,-76.0406"/>
<polygon fill="midnightblue" stroke="midnightblue" points="614.81,-72.583 604.376,-74.4203 613.678,-79.4909 614.81,-72.583"/>
</g>
<!-- Node10 -->
<g id="node13" class="node"><title>Node10</title>
<polygon fill="white" stroke="#bfbfbf" points="622,-56.5 622,-75.5 662,-75.5 662,-56.5 622,-56.5"/>
<text text-anchor="middle" x="642" y="-63.5" font-family="Helvetica,sans-Serif" font-size="10.00">utility</text>
</g>
<!-- Node2&#45;&gt;Node10 -->
<g id="edge12" class="edge"><title>Node2&#45;&gt;Node10</title>
<path fill="none" stroke="midnightblue" d="M1003.76,-118.855C940.109,-114.427 799.212,-102.56 672.067,-75.8775"/>
<polygon fill="midnightblue" stroke="midnightblue" points="672.669,-72.4274 662.159,-73.7619 671.208,-79.2731 672.669,-72.4274"/>
</g>
<!-- Node11 -->
<g id="node14" class="node"><title>Node11</title>
<polygon fill="white" stroke="#bfbfbf" points="680.5,-56.5 680.5,-75.5 721.5,-75.5 721.5,-56.5 680.5,-56.5"/>
<text text-anchor="middle" x="701" y="-63.5" font-family="Helvetica,sans-Serif" font-size="10.00">stack</text>
</g>
<!-- Node2&#45;&gt;Node11 -->
<g id="edge13" class="edge"><title>Node2&#45;&gt;Node11</title>
<path fill="none" stroke="midnightblue" d="M1003.63,-117.618C948.282,-111.814 835.886,-98.554 731.321,-75.7593"/>
<polygon fill="midnightblue" stroke="midnightblue" points="732.073,-72.3411 721.553,-73.5965 730.56,-79.1756 732.073,-72.3411"/>
</g>
<!-- Node12 -->
<g id="node15" class="node"><title>Node12</title>
<g id="a_node15"><a xlink:href="enums_8hpp.html" target="_top" xlink:title="alib/core/enums.hpp">
<polygon fill="white" stroke="black" points="740,-56.5 740,-75.5 844,-75.5 844,-56.5 740,-56.5"/>
<text text-anchor="middle" x="792" y="-63.5" font-family="Helvetica,sans-Serif" font-size="10.00">alib/core/enums.hpp</text>
</a>
</g>
</g>
<!-- Node2&#45;&gt;Node12 -->
<g id="edge14" class="edge"><title>Node2&#45;&gt;Node12</title>
<path fill="none" stroke="midnightblue" d="M1003.74,-114.486C959.818,-105.399 883.886,-88.8003 835.821,-77.8337"/>
<polygon fill="midnightblue" stroke="midnightblue" points="836.538,-74.4074 826.009,-75.5837 834.974,-81.2303 836.538,-74.4074"/>
</g>
<!-- Node13 -->
<g id="node16" class="node"><title>Node13</title>
<g id="a_node16"><a xlink:href="report_8hpp.html" target="_top" xlink:title="alib/core/report.hpp">
<polygon fill="white" stroke="black" points="862,-56.5 862,-75.5 962,-75.5 962,-56.5 862,-56.5"/>
<text text-anchor="middle" x="912" y="-63.5" font-family="Helvetica,sans-Serif" font-size="10.00">alib/core/report.hpp</text>
</a>
</g>
</g>
<!-- Node2&#45;&gt;Node13 -->
<g id="edge15" class="edge"><title>Node2&#45;&gt;Node13</title>
<path fill="none" stroke="midnightblue" d="M1012.95,-112.444C990.563,-103.675 958.251,-89.9355 936.153,-79.8579"/>
<polygon fill="midnightblue" stroke="midnightblue" points="937.336,-76.5484 926.792,-75.5164 934.391,-82.8988 937.336,-76.5484"/>
</g>
<!-- Node14 -->
<g id="node17" class="node"><title>Node14</title>
<g id="a_node17"><a xlink:href="cstring_8hpp.html" target="_top" xlink:title="alib/strings/cstring.hpp">
<polygon fill="white" stroke="black" points="980.5,-56.5 980.5,-75.5 1095.5,-75.5 1095.5,-56.5 980.5,-56.5"/>
<text text-anchor="middle" x="1038" y="-63.5" font-family="Helvetica,sans-Serif" font-size="10.00">alib/strings/cstring.hpp</text>
</a>
</g>
</g>
<!-- Node2&#45;&gt;Node14 -->
<g id="edge16" class="edge"><title>Node2&#45;&gt;Node14</title>
<path fill="none" stroke="midnightblue" d="M1032.83,-112.083C1031.32,-104.927 1030.89,-94.6353 1031.54,-85.6911"/>
<polygon fill="midnightblue" stroke="midnightblue" points="1035.02,-86.1262 1032.87,-75.7511 1028.08,-85.2002 1035.02,-86.1262"/>
</g>
<!-- Node17 -->
<g id="node18" class="node"><title>Node17</title>
<g id="a_node18"><a xlink:href="string_8hpp.html" target="_top" xlink:title="alib/strings/string.hpp">
<polygon fill="white" stroke="black" points="1265,-56.5 1265,-75.5 1375,-75.5 1375,-56.5 1265,-56.5"/>
<text text-anchor="middle" x="1320" y="-63.5" font-family="Helvetica,sans-Serif" font-size="10.00">alib/strings/string.hpp</text>
</a>
</g>
</g>
<!-- Node2&#45;&gt;Node17 -->
<g id="edge17" class="edge"><title>Node2&#45;&gt;Node17</title>
<path fill="none" stroke="midnightblue" d="M1069.74,-112.452C1070.5,-112.3 1071.25,-112.149 1072,-112 1134.38,-99.6014 1206.09,-86.2146 1256.39,-77.2947"/>
<polygon fill="midnightblue" stroke="midnightblue" points="1257.23,-80.7003 1266.47,-75.5165 1256.02,-73.8067 1257.23,-80.7003"/>
</g>
<!-- Node20 -->
<g id="node19" class="node"><title>Node20</title>
<g id="a_node19"><a xlink:href="tstring_8hpp.html" target="_top" xlink:title="alib/strings/tstring.hpp">
<polygon fill="white" stroke="black" points="1548.5,-56.5 1548.5,-75.5 1661.5,-75.5 1661.5,-56.5 1548.5,-56.5"/>
<text text-anchor="middle" x="1605" y="-63.5" font-family="Helvetica,sans-Serif" font-size="10.00">alib/strings/tstring.hpp</text>
</a>
</g>
</g>
<!-- Node2&#45;&gt;Node20 -->
<g id="edge18" class="edge"><title>Node2&#45;&gt;Node20</title>
<path fill="none" stroke="midnightblue" d="M1068.8,-112.484C1069.87,-112.313 1070.94,-112.152 1072,-112 1274.12,-83.026 1326.98,-97.8028 1530,-76 1532.66,-75.7146 1535.37,-75.4074 1538.12,-75.0847"/>
<polygon fill="midnightblue" stroke="midnightblue" points="1538.66,-78.5444 1548.17,-73.8592 1537.82,-71.5959 1538.66,-78.5444"/>
</g>
<!-- Node21 -->
<g id="node20" class="node"><title>Node21</title>
<g id="a_node20"><a xlink:href="stringliteral_8hpp.html" target="_top" xlink:title="alib/strings/stringliteral.hpp">
<polygon fill="white" stroke="black" points="1113.5,-56.5 1113.5,-75.5 1246.5,-75.5 1246.5,-56.5 1113.5,-56.5"/>
<text text-anchor="middle" x="1180" y="-63.5" font-family="Helvetica,sans-Serif" font-size="10.00">alib/strings/stringliteral.hpp</text>
</a>
</g>
</g>
<!-- Node2&#45;&gt;Node21 -->
<g id="edge19" class="edge"><title>Node2&#45;&gt;Node21</title>
<path fill="none" stroke="midnightblue" d="M1055.41,-112.444C1077.21,-103.399 1114.7,-89.064 1142.96,-78.9158"/>
<polygon fill="midnightblue" stroke="midnightblue" points="1144.27,-82.1622 1152.52,-75.5164 1141.93,-75.5661 1144.27,-82.1622"/>
</g>
<!-- Node22 -->
<g id="node21" class="node"><title>Node22</title>
<g id="a_node21"><a xlink:href="astring_8hpp.html" target="_top" xlink:title="alib/strings/astring.hpp">
<polygon fill="white" stroke="black" points="1679.5,-56.5 1679.5,-75.5 1794.5,-75.5 1794.5,-56.5 1679.5,-56.5"/>
<text text-anchor="middle" x="1737" y="-63.5" font-family="Helvetica,sans-Serif" font-size="10.00">alib/strings/astring.hpp</text>
</a>
</g>
</g>
<!-- Node2&#45;&gt;Node22 -->
<g id="edge20" class="edge"><title>Node2&#45;&gt;Node22</title>
<path fill="none" stroke="midnightblue" d="M1068.79,-112.459C1069.87,-112.296 1070.94,-112.142 1072,-112 1331.93,-77.0435 1399.97,-101.475 1661,-76 1663.7,-75.7366 1666.46,-75.4473 1669.25,-75.1391"/>
<polygon fill="midnightblue" stroke="midnightblue" points="1669.92,-78.5846 1679.45,-73.9523 1669.11,-71.6315 1669.92,-78.5846"/>
</g>
<!-- Node24 -->
<g id="node22" class="node"><title>Node24</title>
<g id="a_node22"><a xlink:href="preallocatedstring_8hpp.html" target="_top" xlink:title="alib/strings/preallocatedstring.hpp">
<polygon fill="white" stroke="black" points="1813,-56.5 1813,-75.5 1975,-75.5 1975,-56.5 1813,-56.5"/>
<text text-anchor="middle" x="1894" y="-63.5" font-family="Helvetica,sans-Serif" font-size="10.00">alib/strings/preallocatedstring.hpp</text>
</a>
</g>
</g>
<!-- Node2&#45;&gt;Node24 -->
<g id="edge21" class="edge"><title>Node2&#45;&gt;Node24</title>
<path fill="none" stroke="midnightblue" d="M1068.79,-112.443C1069.87,-112.285 1070.94,-112.136 1072,-112 1390.66,-70.9644 1473.6,-99.8178 1794,-76 1796.73,-75.7974 1799.5,-75.5812 1802.3,-75.3544"/>
<polygon fill="midnightblue" stroke="midnightblue" points="1802.87,-78.8189 1812.54,-74.491 1802.28,-71.8437 1802.87,-78.8189"/>
</g>
<!-- Node25 -->
<g id="node23" class="node"><title>Node25</title>
<g id="a_node23"><a xlink:href="applyto_8hpp.html" target="_top" xlink:title="alib/strings/applyto.hpp">
<polygon fill="white" stroke="black" points="1993.5,-56.5 1993.5,-75.5 2110.5,-75.5 2110.5,-56.5 1993.5,-56.5"/>
<text text-anchor="middle" x="2052" y="-63.5" font-family="Helvetica,sans-Serif" font-size="10.00">alib/strings/applyto.hpp</text>
</a>
</g>
</g>
<!-- Node2&#45;&gt;Node25 -->
<g id="edge22" class="edge"><title>Node2&#45;&gt;Node25</title>
<path fill="none" stroke="midnightblue" d="M1068.33,-112.496C1069.56,-112.316 1070.79,-112.15 1072,-112 1470.61,-62.6874 1574.82,-110.386 1975,-76 1977.69,-75.769 1980.43,-75.5084 1983.21,-75.2253"/>
<polygon fill="midnightblue" stroke="midnightblue" points="1983.8,-78.6816 1993.36,-74.1139 1983.04,-71.7232 1983.8,-78.6816"/>
</g>
<!-- Node26 -->
<g id="node24" class="node"><title>Node26</title>
<g id="a_node24"><a xlink:href="applyformat_8hpp.html" target="_top" xlink:title="alib/strings/applyformat.hpp">
<polygon fill="white" stroke="black" points="1393.5,-56.5 1393.5,-75.5 1530.5,-75.5 1530.5,-56.5 1393.5,-56.5"/>
<text text-anchor="middle" x="1462" y="-63.5" font-family="Helvetica,sans-Serif" font-size="10.00">alib/strings/applyformat.hpp</text>
</a>
</g>
</g>
<!-- Node2&#45;&gt;Node26 -->
<g id="edge23" class="edge"><title>Node2&#45;&gt;Node26</title>
<path fill="none" stroke="midnightblue" d="M1069.26,-112.46C1070.18,-112.301 1071.1,-112.148 1072,-112 1086.98,-109.553 1273.85,-87.7694 1383.44,-75.4312"/>
<polygon fill="midnightblue" stroke="midnightblue" points="1383.92,-78.899 1393.47,-74.3042 1383.14,-71.9428 1383.92,-78.899"/>
</g>
<!-- Node28&#45;&gt;Node2 -->
<g id="edge42" class="edge"><title>Node28&#45;&gt;Node2</title>
<path fill="none" stroke="midnightblue" d="M1060.54,-168.083C1056.85,-160.691 1051.48,-149.953 1046.91,-140.811"/>
<polygon fill="midnightblue" stroke="midnightblue" points="1049.98,-139.13 1042.38,-131.751 1043.72,-142.261 1049.98,-139.13"/>
</g>
<!-- Node29&#45;&gt;Node2 -->
<g id="edge43" class="edge"><title>Node29&#45;&gt;Node2</title>
<path fill="none" stroke="midnightblue" d="M1149.08,-168.444C1127.26,-159.517 1092.85,-145.439 1068.11,-135.317"/>
<polygon fill="midnightblue" stroke="midnightblue" points="1069.4,-132.063 1058.82,-131.516 1066.75,-138.542 1069.4,-132.063"/>
</g>
<!-- Node30 -->
<g id="node30" class="node"><title>Node30</title>
<polygon fill="white" stroke="#bfbfbf" points="1152.5,-112.5 1152.5,-131.5 1187.5,-131.5 1187.5,-112.5 1152.5,-112.5"/>
<text text-anchor="middle" x="1170" y="-119.5" font-family="Helvetica,sans-Serif" font-size="10.00">map</text>
</g>
<!-- Node29&#45;&gt;Node30 -->
<g id="edge44" class="edge"><title>Node29&#45;&gt;Node30</title>
<path fill="none" stroke="midnightblue" d="M1170,-168.083C1170,-161.006 1170,-150.861 1170,-141.986"/>
<polygon fill="midnightblue" stroke="midnightblue" points="1173.5,-141.751 1170,-131.751 1166.5,-141.751 1173.5,-141.751"/>
</g>
<!-- Node31 -->
<g id="node31" class="node"><title>Node31</title>
<polygon fill="white" stroke="#bfbfbf" points="1206,-112.5 1206,-131.5 1250,-131.5 1250,-112.5 1206,-112.5"/>
<text text-anchor="middle" x="1228" y="-119.5" font-family="Helvetica,sans-Serif" font-size="10.00">mutex</text>
</g>
<!-- Node29&#45;&gt;Node31 -->
<g id="edge45" class="edge"><title>Node29&#45;&gt;Node31</title>
<path fill="none" stroke="midnightblue" d="M1179.32,-168.324C1187.89,-160.341 1200.81,-148.313 1211.19,-138.653"/>
<polygon fill="midnightblue" stroke="midnightblue" points="1213.58,-141.21 1218.51,-131.834 1208.81,-136.086 1213.58,-141.21"/>
</g>
<!-- Node32 -->
<g id="node32" class="node"><title>Node32</title>
<polygon fill="white" stroke="#bfbfbf" points="1268.5,-112.5 1268.5,-131.5 1363.5,-131.5 1363.5,-112.5 1268.5,-112.5"/>
<text text-anchor="middle" x="1316" y="-119.5" font-family="Helvetica,sans-Serif" font-size="10.00">condition_variable</text>
</g>
<!-- Node29&#45;&gt;Node32 -->
<g id="edge46" class="edge"><title>Node29&#45;&gt;Node32</title>
<path fill="none" stroke="midnightblue" d="M1193.13,-168.444C1217.48,-159.438 1256.01,-145.189 1283.42,-135.049"/>
<polygon fill="midnightblue" stroke="midnightblue" points="1284.81,-138.268 1292.97,-131.516 1282.38,-131.703 1284.81,-138.268"/>
</g>
<!-- Node33 -->
<g id="node33" class="node"><title>Node33</title>
<polygon fill="white" stroke="#bfbfbf" points="1090,-112.5 1090,-131.5 1134,-131.5 1134,-112.5 1090,-112.5"/>
<text text-anchor="middle" x="1112" y="-119.5" font-family="Helvetica,sans-Serif" font-size="10.00">thread</text>
</g>
<!-- Node29&#45;&gt;Node33 -->
<g id="edge47" class="edge"><title>Node29&#45;&gt;Node33</title>
<path fill="none" stroke="midnightblue" d="M1160.68,-168.324C1152.11,-160.341 1139.19,-148.313 1128.81,-138.653"/>
<polygon fill="midnightblue" stroke="midnightblue" points="1131.19,-136.086 1121.49,-131.834 1126.42,-141.21 1131.19,-136.086"/>
</g>
<!-- Node12&#45;&gt;Node2 -->
<g id="edge24" class="edge"><title>Node12&#45;&gt;Node2</title>
<path fill="none" stroke="midnightblue" d="M835.877,-75.5164C880.6,-84.8809 949.4,-99.95 994.12,-110.153"/>
<polygon fill="midnightblue" stroke="midnightblue" points="993.58,-113.62 1004.11,-112.444 995.145,-106.797 993.58,-113.62"/>
</g>
<!-- Node13&#45;&gt;Node2 -->
<g id="edge25" class="edge"><title>Node13&#45;&gt;Node2</title>
<path fill="none" stroke="midnightblue" d="M936.952,-75.5164C959.405,-84.3091 991.908,-98.1312 1014.04,-108.232"/>
<polygon fill="midnightblue" stroke="midnightblue" points="1012.58,-111.411 1023.12,-112.444 1015.52,-105.061 1012.58,-111.411"/>
</g>
<!-- Node14&#45;&gt;Node2 -->
<g id="edge26" class="edge"><title>Node14&#45;&gt;Node2</title>
<path fill="none" stroke="midnightblue" d="M1043.13,-75.7511C1044.66,-82.8579 1045.1,-93.1357 1044.47,-102.101"/>
<polygon fill="midnightblue" stroke="midnightblue" points="1040.99,-101.713 1043.17,-112.083 1047.93,-102.622 1040.99,-101.713"/>
</g>
<!-- Node15 -->
<g id="node25" class="node"><title>Node15</title>
<polygon fill="white" stroke="#bfbfbf" points="1046,-0.5 1046,-19.5 1092,-19.5 1092,-0.5 1046,-0.5"/>
<text text-anchor="middle" x="1069" y="-7.5" font-family="Helvetica,sans-Serif" font-size="10.00">cstring</text>
</g>
<!-- Node14&#45;&gt;Node15 -->
<g id="edge27" class="edge"><title>Node14&#45;&gt;Node15</title>
<path fill="none" stroke="midnightblue" d="M1043.12,-56.083C1047.41,-48.6127 1053.66,-37.7244 1058.94,-28.5199"/>
<polygon fill="midnightblue" stroke="midnightblue" points="1062.03,-30.1662 1063.98,-19.7511 1055.96,-26.6811 1062.03,-30.1662"/>
</g>
<!-- Node16 -->
<g id="node26" class="node"><title>Node16</title>
<polygon fill="white" stroke="#bfbfbf" points="988,-0.5 988,-19.5 1028,-19.5 1028,-0.5 988,-0.5"/>
<text text-anchor="middle" x="1008" y="-7.5" font-family="Helvetica,sans-Serif" font-size="10.00">limits</text>
</g>
<!-- Node14&#45;&gt;Node16 -->
<g id="edge28" class="edge"><title>Node14&#45;&gt;Node16</title>
<path fill="none" stroke="midnightblue" d="M1033.05,-56.083C1028.9,-48.6127 1022.85,-37.7244 1017.73,-28.5199"/>
<polygon fill="midnightblue" stroke="midnightblue" points="1020.78,-26.7929 1012.86,-19.7511 1014.66,-30.1924 1020.78,-26.7929"/>
</g>
<!-- Node17&#45;&gt;Node2 -->
<g id="edge29" class="edge"><title>Node17&#45;&gt;Node2</title>
<path fill="none" stroke="midnightblue" d="M1280,-75.5165C1234.01,-84.3654 1156.67,-98.7472 1090,-112 1087.42,-112.512 1084.76,-113.049 1082.06,-113.595"/>
<polygon fill="midnightblue" stroke="midnightblue" points="1081.32,-110.174 1072.21,-115.585 1082.71,-117.036 1081.32,-110.174"/>
</g>
<!-- Node18 -->
<g id="node27" class="node"><title>Node18</title>
<polygon fill="white" stroke="#bfbfbf" points="1195.5,-0.5 1195.5,-19.5 1240.5,-19.5 1240.5,-0.5 1195.5,-0.5"/>
<text text-anchor="middle" x="1218" y="-7.5" font-family="Helvetica,sans-Serif" font-size="10.00">iosfwd</text>
</g>
<!-- Node17&#45;&gt;Node18 -->
<g id="edge30" class="edge"><title>Node17&#45;&gt;Node18</title>
<path fill="none" stroke="midnightblue" d="M1303.61,-56.324C1287.33,-47.7034 1262.13,-34.3643 1243.28,-24.3855"/>
<polygon fill="midnightblue" stroke="midnightblue" points="1244.82,-21.2402 1234.35,-19.6545 1241.55,-27.4267 1244.82,-21.2402"/>
</g>
<!-- Node19 -->
<g id="node28" class="node"><title>Node19</title>
<polygon fill="white" stroke="#bfbfbf" points="1297,-0.5 1297,-19.5 1343,-19.5 1343,-0.5 1297,-0.5"/>
<text text-anchor="middle" x="1320" y="-7.5" font-family="Helvetica,sans-Serif" font-size="10.00">cctype</text>
</g>
<!-- Node17&#45;&gt;Node19 -->
<g id="edge31" class="edge"><title>Node17&#45;&gt;Node19</title>
<path fill="none" stroke="midnightblue" d="M1320,-56.083C1320,-49.0059 1320,-38.8611 1320,-29.9865"/>
<polygon fill="midnightblue" stroke="midnightblue" points="1323.5,-29.751 1320,-19.7511 1316.5,-29.7511 1323.5,-29.751"/>
</g>
<!-- Node20&#45;&gt;Node2 -->
<g id="edge32" class="edge"><title>Node20&#45;&gt;Node2</title>
<path fill="none" stroke="midnightblue" d="M1552.18,-75.5387C1550.78,-75.6978 1549.38,-75.8518 1548,-76 1344.98,-97.8028 1292.12,-83.026 1090,-112 1087.4,-112.373 1084.72,-112.808 1082.01,-113.282"/>
<polygon fill="midnightblue" stroke="midnightblue" points="1081.32,-109.85 1072.14,-115.129 1082.61,-116.731 1081.32,-109.85"/>
</g>
<!-- Node21&#45;&gt;Node2 -->
<g id="edge33" class="edge"><title>Node21&#45;&gt;Node2</title>
<path fill="none" stroke="midnightblue" d="M1162.68,-75.5164C1140.93,-84.5457 1103.45,-98.8786 1075.17,-109.039"/>
<polygon fill="midnightblue" stroke="midnightblue" points="1073.84,-105.797 1065.59,-112.444 1076.18,-112.393 1073.84,-105.797"/>
</g>
<!-- Node21&#45;&gt;Node18 -->
<g id="edge34" class="edge"><title>Node21&#45;&gt;Node18</title>
<path fill="none" stroke="midnightblue" d="M1186.27,-56.083C1191.64,-48.4554 1199.52,-37.2645 1206.08,-27.9408"/>
<polygon fill="midnightblue" stroke="midnightblue" points="1208.95,-29.9434 1211.84,-19.7511 1203.22,-25.9149 1208.95,-29.9434"/>
</g>
<!-- Node21&#45;&gt;Node19 -->
<g id="edge35" class="edge"><title>Node21&#45;&gt;Node19</title>
<path fill="none" stroke="midnightblue" d="M1202.18,-56.4435C1225.43,-47.4776 1262.15,-33.314 1288.42,-23.1827"/>
<polygon fill="midnightblue" stroke="midnightblue" points="1289.85,-26.3807 1297.92,-19.5164 1287.33,-19.8497 1289.85,-26.3807"/>
</g>
<!-- Node22&#45;&gt;Node2 -->
<g id="edge36" class="edge"><title>Node22&#45;&gt;Node2</title>
<path fill="none" stroke="midnightblue" d="M1683.6,-75.5321C1682.06,-75.6954 1680.52,-75.8518 1679,-76 1417.97,-101.475 1349.93,-77.0435 1090,-112 1087.4,-112.35 1084.72,-112.769 1082,-113.231"/>
<polygon fill="midnightblue" stroke="midnightblue" points="1081.32,-109.798 1072.12,-115.055 1082.59,-116.682 1081.32,-109.798"/>
</g>
<!-- Node23 -->
<g id="node29" class="node"><title>Node23</title>
<polygon fill="white" stroke="#bfbfbf" points="1713,-0.5 1713,-19.5 1761,-19.5 1761,-0.5 1713,-0.5"/>
<text text-anchor="middle" x="1737" y="-7.5" font-family="Helvetica,sans-Serif" font-size="10.00">stdlib.h</text>
</g>
<!-- Node22&#45;&gt;Node23 -->
<g id="edge37" class="edge"><title>Node22&#45;&gt;Node23</title>
<path fill="none" stroke="midnightblue" d="M1737,-56.083C1737,-49.0059 1737,-38.8611 1737,-29.9865"/>
<polygon fill="midnightblue" stroke="midnightblue" points="1740.5,-29.751 1737,-19.7511 1733.5,-29.7511 1740.5,-29.751"/>
</g>
<!-- Node24&#45;&gt;Node2 -->
<g id="edge38" class="edge"><title>Node24&#45;&gt;Node2</title>
<path fill="none" stroke="midnightblue" d="M1818.24,-75.5192C1816.14,-75.6863 1814.06,-75.847 1812,-76 1491.6,-99.8178 1408.66,-70.9644 1090,-112 1087.39,-112.335 1084.71,-112.744 1082,-113.199"/>
<polygon fill="midnightblue" stroke="midnightblue" points="1081.33,-109.764 1072.12,-115.007 1082.59,-116.649 1081.33,-109.764"/>
</g>
<!-- Node25&#45;&gt;Node2 -->
<g id="edge39" class="edge"><title>Node25&#45;&gt;Node2</title>
<path fill="none" stroke="midnightblue" d="M1998.4,-75.5043C1996.58,-75.6812 1994.78,-75.8471 1993,-76 1592.82,-110.386 1488.61,-62.6874 1090,-112 1087.39,-112.322 1084.71,-112.721 1082,-113.169"/>
<polygon fill="midnightblue" stroke="midnightblue" points="1081.33,-109.734 1072.11,-114.964 1082.58,-116.621 1081.33,-109.734"/>
</g>
<!-- Node26&#45;&gt;Node2 -->
<g id="edge40" class="edge"><title>Node26&#45;&gt;Node2</title>
<path fill="none" stroke="midnightblue" d="M1393.99,-75.5449C1290.7,-87.9027 1104.93,-109.56 1090,-112 1087.41,-112.424 1084.73,-112.896 1082.03,-113.396"/>
<polygon fill="midnightblue" stroke="midnightblue" points="1081.32,-109.969 1072.16,-115.295 1082.64,-116.842 1081.32,-109.969"/>
</g>
<!-- Node26&#45;&gt;Node19 -->
<g id="edge41" class="edge"><title>Node26&#45;&gt;Node19</title>
<path fill="none" stroke="midnightblue" d="M1439.5,-56.4435C1415.92,-47.4776 1378.68,-33.314 1352.04,-23.1827"/>
<polygon fill="midnightblue" stroke="midnightblue" points="1352.99,-19.7995 1342.4,-19.5164 1350.5,-26.3424 1352.99,-19.7995"/>
</g>
</g>
</svg>
