<?xml version="1.0" encoding="UTF-8" standalone="no"?>
<!DOCTYPE svg PUBLIC "-//W3C//DTD SVG 1.1//EN"
 "http://www.w3.org/Graphics/SVG/1.1/DTD/svg11.dtd">
<!-- Generated by graphviz version 2.38.0 (20140413.2041)
 -->
<!-- Title: ticks.hpp Pages: 1 -->
<svg width="125pt" height="252pt"
 viewBox="0.00 0.00 125.00 252.00" xmlns="http://www.w3.org/2000/svg" xmlns:xlink="http://www.w3.org/1999/xlink">
<g id="graph0" class="graph" transform="scale(1 1) rotate(0) translate(4 248)">
<title>ticks.hpp</title>
<polygon fill="white" stroke="none" points="-4,4 -4,-248 121,-248 121,4 -4,4"/>
<!-- Node1 -->
<g id="node1" class="node"><title>Node1</title>
<polygon fill="#bfbfbf" stroke="black" points="48,-224.5 48,-243.5 104,-243.5 104,-224.5 48,-224.5"/>
<text text-anchor="middle" x="76" y="-231.5" font-family="Helvetica,sans-Serif" font-size="10.00">ticks.hpp</text>
</g>
<!-- Node2 -->
<g id="node2" class="node"><title>Node2</title>
<g id="a_node2"><a xlink:href="callerinfo_8hpp.html" target="_top" xlink:title="callerinfo.hpp">
<polygon fill="white" stroke="black" points="39,-168.5 39,-187.5 113,-187.5 113,-168.5 39,-168.5"/>
<text text-anchor="middle" x="76" y="-175.5" font-family="Helvetica,sans-Serif" font-size="10.00">callerinfo.hpp</text>
</a>
</g>
</g>
<!-- Node1&#45;&gt;Node2 -->
<g id="edge1" class="edge"><title>Node1&#45;&gt;Node2</title>
<path fill="none" stroke="midnightblue" d="M76,-213.805C76,-204.91 76,-194.78 76,-187.751"/>
<polygon fill="midnightblue" stroke="midnightblue" points="72.5001,-214.083 76,-224.083 79.5001,-214.083 72.5001,-214.083"/>
</g>
<!-- Node3 -->
<g id="node3" class="node"><title>Node3</title>
<g id="a_node3"><a xlink:href="lox_8hpp.html" target="_top" xlink:title="lox.hpp">
<polygon fill="white" stroke="black" points="0,-112.5 0,-131.5 48,-131.5 48,-112.5 0,-112.5"/>
<text text-anchor="middle" x="24" y="-119.5" font-family="Helvetica,sans-Serif" font-size="10.00">lox.hpp</text>
</a>
</g>
</g>
<!-- Node2&#45;&gt;Node3 -->
<g id="edge2" class="edge"><title>Node2&#45;&gt;Node3</title>
<path fill="none" stroke="midnightblue" d="M60.3206,-160.718C51.1553,-151.2 39.9474,-139.561 32.427,-131.751"/>
<polygon fill="midnightblue" stroke="midnightblue" points="57.9557,-163.308 67.4133,-168.083 62.9979,-158.452 57.9557,-163.308"/>
</g>
<!-- Node5 -->
<g id="node5" class="node"><title>Node5</title>
<g id="a_node5"><a xlink:href="logger_8hpp.html" target="_top" xlink:title="logger.hpp">
<polygon fill="white" stroke="red" points="55,-0.5 55,-19.5 117,-19.5 117,-0.5 55,-0.5"/>
<text text-anchor="middle" x="86" y="-7.5" font-family="Helvetica,sans-Serif" font-size="10.00">logger.hpp</text>
</a>
</g>
</g>
<!-- Node2&#45;&gt;Node5 -->
<g id="edge6" class="edge"><title>Node2&#45;&gt;Node5</title>
<path fill="none" stroke="midnightblue" d="M81.5056,-158.491C87.91,-134.823 97.2216,-92.5271 94,-56 92.8706,-43.195 89.967,-28.576 87.9869,-19.5666"/>
<polygon fill="midnightblue" stroke="midnightblue" points="78.1028,-157.662 78.7429,-168.237 84.8374,-159.571 78.1028,-157.662"/>
</g>
<!-- Node4 -->
<g id="node4" class="node"><title>Node4</title>
<g id="a_node4"><a xlink:href="alox_8hpp.html" target="_top" xlink:title="alox.hpp">
<polygon fill="white" stroke="red" points="32.5,-56.5 32.5,-75.5 85.5,-75.5 85.5,-56.5 32.5,-56.5"/>
<text text-anchor="middle" x="59" y="-63.5" font-family="Helvetica,sans-Serif" font-size="10.00">alox.hpp</text>
</a>
</g>
</g>
<!-- Node3&#45;&gt;Node4 -->
<g id="edge3" class="edge"><title>Node3&#45;&gt;Node4</title>
<path fill="none" stroke="midnightblue" d="M35.3001,-103.566C41.3219,-94.2747 48.4686,-83.2484 53.328,-75.7511"/>
<polygon fill="midnightblue" stroke="midnightblue" points="32.2815,-101.788 29.7795,-112.083 38.1556,-105.595 32.2815,-101.788"/>
</g>
<!-- Node4&#45;&gt;Node2 -->
<g id="edge4" class="edge"><title>Node4&#45;&gt;Node2</title>
<path fill="none" stroke="midnightblue" d="M61.8741,-85.5974C65.5939,-109.666 71.9226,-150.617 74.666,-168.368"/>
<polygon fill="midnightblue" stroke="midnightblue" points="65.3141,-84.9395 60.3278,-75.5914 58.3962,-86.0087 65.3141,-84.9395"/>
</g>
<!-- Node4&#45;&gt;Node5 -->
<g id="edge5" class="edge"><title>Node4&#45;&gt;Node5</title>
<path fill="none" stroke="midnightblue" d="M68.0086,-46.9827C72.5916,-37.8168 77.9539,-27.0922 81.6245,-19.7511"/>
<polygon fill="midnightblue" stroke="midnightblue" points="64.8002,-45.5734 63.4585,-56.083 71.0612,-48.704 64.8002,-45.5734"/>
</g>
</g>
</svg>
