<?xml version="1.0" encoding="UTF-8" standalone="no"?>
<!DOCTYPE svg PUBLIC "-//W3C//DTD SVG 1.1//EN"
 "http://www.w3.org/Graphics/SVG/1.1/DTD/svg11.dtd">
<!-- Generated by graphviz version 2.38.0 (20140413.2041)
 -->
<!-- Title: ticks.hpp Pages: 1 -->
<svg width="1447pt" height="196pt"
 viewBox="0.00 0.00 1447.00 196.00" xmlns="http://www.w3.org/2000/svg" xmlns:xlink="http://www.w3.org/1999/xlink">
<g id="graph0" class="graph" transform="scale(1 1) rotate(0) translate(4 192)">
<title>ticks.hpp</title>
<polygon fill="white" stroke="none" points="-4,4 -4,-192 1443,-192 1443,4 -4,4"/>
<!-- Node1 -->
<g id="node1" class="node"><title>Node1</title>
<polygon fill="#bfbfbf" stroke="black" points="816,-168.5 816,-187.5 872,-187.5 872,-168.5 816,-168.5"/>
<text text-anchor="middle" x="844" y="-175.5" font-family="Helvetica,sans-Serif" font-size="10.00">ticks.hpp</text>
</g>
<!-- Node2 -->
<g id="node2" class="node"><title>Node2</title>
<g id="a_node2"><a xlink:href="assubstring_8hpp.html" target="_top" xlink:title="alib/strings/assubstring.hpp">
<polygon fill="white" stroke="black" points="723,-112.5 723,-131.5 859,-131.5 859,-112.5 723,-112.5"/>
<text text-anchor="middle" x="791" y="-119.5" font-family="Helvetica,sans-Serif" font-size="10.00">alib/strings/assubstring.hpp</text>
</a>
</g>
</g>
<!-- Node1&#45;&gt;Node2 -->
<g id="edge1" class="edge"><title>Node1&#45;&gt;Node2</title>
<path fill="none" stroke="midnightblue" d="M835.248,-168.083C827.53,-160.22 816.095,-148.569 806.783,-139.081"/>
<polygon fill="midnightblue" stroke="midnightblue" points="809.092,-136.436 799.589,-131.751 804.096,-141.34 809.092,-136.436"/>
</g>
<!-- Node18 -->
<g id="node18" class="node"><title>Node18</title>
<polygon fill="white" stroke="#bfbfbf" points="877.5,-112.5 877.5,-131.5 918.5,-131.5 918.5,-112.5 877.5,-112.5"/>
<text text-anchor="middle" x="898" y="-119.5" font-family="Helvetica,sans-Serif" font-size="10.00">ctime</text>
</g>
<!-- Node1&#45;&gt;Node18 -->
<g id="edge23" class="edge"><title>Node1&#45;&gt;Node18</title>
<path fill="none" stroke="midnightblue" d="M852.917,-168.083C860.78,-160.22 872.431,-148.569 881.919,-139.081"/>
<polygon fill="midnightblue" stroke="midnightblue" points="884.653,-141.297 889.249,-131.751 879.703,-136.347 884.653,-141.297"/>
</g>
<!-- Node3 -->
<g id="node3" class="node"><title>Node3</title>
<g id="a_node3"><a xlink:href="alib_8hpp.html" target="_top" xlink:title="alib/alib.hpp">
<polygon fill="white" stroke="black" points="757,-56.5 757,-75.5 825,-75.5 825,-56.5 757,-56.5"/>
<text text-anchor="middle" x="791" y="-63.5" font-family="Helvetica,sans-Serif" font-size="10.00">alib/alib.hpp</text>
</a>
</g>
</g>
<!-- Node2&#45;&gt;Node3 -->
<g id="edge2" class="edge"><title>Node2&#45;&gt;Node3</title>
<path fill="none" stroke="midnightblue" d="M791,-112.083C791,-105.006 791,-94.8611 791,-85.9865"/>
<polygon fill="midnightblue" stroke="midnightblue" points="794.5,-85.751 791,-75.7511 787.5,-85.7511 794.5,-85.751"/>
</g>
<!-- Node4 -->
<g id="node4" class="node"><title>Node4</title>
<g id="a_node4"><a xlink:href="symbols_8hpp.html" target="_top" xlink:title="alib/core/symbols.hpp">
<polygon fill="white" stroke="black" points="0,-0.5 0,-19.5 112,-19.5 112,-0.5 0,-0.5"/>
<text text-anchor="middle" x="56" y="-7.5" font-family="Helvetica,sans-Serif" font-size="10.00">alib/core/symbols.hpp</text>
</a>
</g>
</g>
<!-- Node3&#45;&gt;Node4 -->
<g id="edge3" class="edge"><title>Node3&#45;&gt;Node4</title>
<path fill="none" stroke="midnightblue" d="M756.708,-63.5827C659.066,-59.3595 371.027,-45.6006 122.118,-20.1595"/>
<polygon fill="midnightblue" stroke="midnightblue" points="122.47,-16.6773 112.164,-19.1336 121.752,-23.6404 122.47,-16.6773"/>
</g>
<!-- Node5 -->
<g id="node5" class="node"><title>Node5</title>
<g id="a_node5"><a xlink:href="macros_8hpp.html" target="_top" xlink:title="alib/core/macros.hpp">
<polygon fill="white" stroke="black" points="129.5,-0.5 129.5,-19.5 236.5,-19.5 236.5,-0.5 129.5,-0.5"/>
<text text-anchor="middle" x="183" y="-7.5" font-family="Helvetica,sans-Serif" font-size="10.00">alib/core/macros.hpp</text>
</a>
</g>
</g>
<!-- Node3&#45;&gt;Node5 -->
<g id="edge4" class="edge"><title>Node3&#45;&gt;Node5</title>
<path fill="none" stroke="midnightblue" d="M756.815,-62.8871C672.263,-57.5095 446.364,-42.2191 246.678,-20.0076"/>
<polygon fill="midnightblue" stroke="midnightblue" points="246.916,-16.5124 236.588,-18.8768 246.136,-23.4688 246.916,-16.5124"/>
</g>
<!-- Node6 -->
<g id="node6" class="node"><title>Node6</title>
<polygon fill="white" stroke="#bfbfbf" points="255,-0.5 255,-19.5 307,-19.5 307,-0.5 255,-0.5"/>
<text text-anchor="middle" x="281" y="-7.5" font-family="Helvetica,sans-Serif" font-size="10.00">assert.h</text>
</g>
<!-- Node3&#45;&gt;Node6 -->
<g id="edge5" class="edge"><title>Node3&#45;&gt;Node6</title>
<path fill="none" stroke="midnightblue" d="M756.772,-63.6048C679.799,-60.0732 487.126,-49.0326 317.149,-19.9439"/>
<polygon fill="midnightblue" stroke="midnightblue" points="317.728,-16.4921 307.277,-18.2293 316.53,-23.3889 317.728,-16.4921"/>
</g>
<!-- Node7 -->
<g id="node7" class="node"><title>Node7</title>
<polygon fill="white" stroke="#bfbfbf" points="325.5,-0.5 325.5,-19.5 374.5,-19.5 374.5,-0.5 325.5,-0.5"/>
<text text-anchor="middle" x="350" y="-7.5" font-family="Helvetica,sans-Serif" font-size="10.00">cstddef</text>
</g>
<!-- Node3&#45;&gt;Node7 -->
<g id="edge6" class="edge"><title>Node3&#45;&gt;Node7</title>
<path fill="none" stroke="midnightblue" d="M756.881,-63.046C688.062,-58.7174 527.634,-46.6693 384.6,-20.0592"/>
<polygon fill="midnightblue" stroke="midnightblue" points="385.245,-16.6193 374.769,-18.2018 383.945,-23.4976 385.245,-16.6193"/>
</g>
<!-- Node8 -->
<g id="node8" class="node"><title>Node8</title>
<polygon fill="white" stroke="#bfbfbf" points="392.5,-0.5 392.5,-19.5 455.5,-19.5 455.5,-0.5 392.5,-0.5"/>
<text text-anchor="middle" x="424" y="-7.5" font-family="Helvetica,sans-Serif" font-size="10.00">windows.h</text>
</g>
<!-- Node3&#45;&gt;Node8 -->
<g id="edge7" class="edge"><title>Node3&#45;&gt;Node8</title>
<path fill="none" stroke="midnightblue" d="M756.956,-61.2764C699.093,-54.7396 577.681,-40.126 465.918,-20.2317"/>
<polygon fill="midnightblue" stroke="midnightblue" points="466.289,-16.7423 455.827,-18.4161 465.049,-23.6317 466.289,-16.7423"/>
</g>
<!-- Node9 -->
<g id="node9" class="node"><title>Node9</title>
<polygon fill="white" stroke="#bfbfbf" points="473.5,-0.5 473.5,-19.5 522.5,-19.5 522.5,-0.5 473.5,-0.5"/>
<text text-anchor="middle" x="498" y="-7.5" font-family="Helvetica,sans-Serif" font-size="10.00">stdint.h</text>
</g>
<!-- Node3&#45;&gt;Node9 -->
<g id="edge8" class="edge"><title>Node3&#45;&gt;Node9</title>
<path fill="none" stroke="midnightblue" d="M756.877,-60.0371C709.01,-52.8651 619.027,-38.6184 532.775,-20.0076"/>
<polygon fill="midnightblue" stroke="midnightblue" points="533.338,-16.5482 522.822,-17.8365 531.846,-23.3874 533.338,-16.5482"/>
</g>
<!-- Node10 -->
<g id="node10" class="node"><title>Node10</title>
<polygon fill="white" stroke="#bfbfbf" points="541,-0.5 541,-19.5 603,-19.5 603,-0.5 541,-0.5"/>
<text text-anchor="middle" x="572" y="-7.5" font-family="Helvetica,sans-Serif" font-size="10.00">type_traits</text>
</g>
<!-- Node3&#45;&gt;Node10 -->
<g id="edge9" class="edge"><title>Node3&#45;&gt;Node10</title>
<path fill="none" stroke="midnightblue" d="M756.781,-56.5625C717.883,-46.9712 654.421,-31.3229 612.933,-21.093"/>
<polygon fill="midnightblue" stroke="midnightblue" points="613.692,-17.6754 603.145,-18.6795 612.016,-24.4719 613.692,-17.6754"/>
</g>
<!-- Node11 -->
<g id="node11" class="node"><title>Node11</title>
<polygon fill="white" stroke="#bfbfbf" points="621,-0.5 621,-19.5 661,-19.5 661,-0.5 621,-0.5"/>
<text text-anchor="middle" x="641" y="-7.5" font-family="Helvetica,sans-Serif" font-size="10.00">utility</text>
</g>
<!-- Node3&#45;&gt;Node11 -->
<g id="edge10" class="edge"><title>Node3&#45;&gt;Node11</title>
<path fill="none" stroke="midnightblue" d="M767.232,-56.4435C741.187,-47.0673 699.352,-32.0068 671.05,-21.818"/>
<polygon fill="midnightblue" stroke="midnightblue" points="671.884,-18.3983 661.289,-18.3042 669.513,-24.9845 671.884,-18.3983"/>
</g>
<!-- Node12 -->
<g id="node12" class="node"><title>Node12</title>
<g id="a_node12"><a xlink:href="enums_8hpp.html" target="_top" xlink:title="alib/core/enums.hpp">
<polygon fill="white" stroke="black" points="679,-0.5 679,-19.5 783,-19.5 783,-0.5 679,-0.5"/>
<text text-anchor="middle" x="731" y="-7.5" font-family="Helvetica,sans-Serif" font-size="10.00">alib/core/enums.hpp</text>
</a>
</g>
</g>
<!-- Node3&#45;&gt;Node12 -->
<g id="edge11" class="edge"><title>Node3&#45;&gt;Node12</title>
<path fill="none" stroke="midnightblue" d="M776.245,-56.324C765.855,-48.4979 752.461,-36.7829 742.779,-27.2238"/>
<polygon fill="midnightblue" stroke="midnightblue" points="745.123,-24.612 735.667,-19.8339 740.079,-29.4661 745.123,-24.612"/>
</g>
<!-- Node13 -->
<g id="node13" class="node"><title>Node13</title>
<g id="a_node13"><a xlink:href="report_8hpp.html" target="_top" xlink:title="alib/core/report.hpp">
<polygon fill="white" stroke="black" points="801,-0.5 801,-19.5 901,-19.5 901,-0.5 801,-0.5"/>
<text text-anchor="middle" x="851" y="-7.5" font-family="Helvetica,sans-Serif" font-size="10.00">alib/core/report.hpp</text>
</a>
</g>
</g>
<!-- Node3&#45;&gt;Node13 -->
<g id="edge13" class="edge"><title>Node3&#45;&gt;Node13</title>
<path fill="none" stroke="midnightblue" d="M795.741,-56.083C803.103,-47.905 816.425,-35.6307 828.272,-25.9535"/>
<polygon fill="midnightblue" stroke="midnightblue" points="830.456,-28.6885 836.146,-19.7511 826.124,-23.1896 830.456,-28.6885"/>
</g>
<!-- Node14 -->
<g id="node14" class="node"><title>Node14</title>
<g id="a_node14"><a xlink:href="cstring_8hpp.html" target="_top" xlink:title="alib/strings/cstring.hpp">
<polygon fill="white" stroke="red" points="919.5,-0.5 919.5,-19.5 1034.5,-19.5 1034.5,-0.5 919.5,-0.5"/>
<text text-anchor="middle" x="977" y="-7.5" font-family="Helvetica,sans-Serif" font-size="10.00">alib/strings/cstring.hpp</text>
</a>
</g>
</g>
<!-- Node3&#45;&gt;Node14 -->
<g id="edge15" class="edge"><title>Node3&#45;&gt;Node14</title>
<path fill="none" stroke="midnightblue" d="M815.383,-56.4435C845.191,-47.2011 895.879,-32.4356 932.621,-22.2572"/>
<polygon fill="midnightblue" stroke="midnightblue" points="933.872,-25.5432 942.586,-19.5164 932.016,-18.7939 933.872,-25.5432"/>
</g>
<!-- Node15 -->
<g id="node15" class="node"><title>Node15</title>
<g id="a_node15"><a xlink:href="as_8hpp.html" target="_top" xlink:title="alib/strings/as.hpp">
<polygon fill="white" stroke="red" points="1053,-0.5 1053,-19.5 1149,-19.5 1149,-0.5 1053,-0.5"/>
<text text-anchor="middle" x="1101" y="-7.5" font-family="Helvetica,sans-Serif" font-size="10.00">alib/strings/as.hpp</text>
</a>
</g>
</g>
<!-- Node3&#45;&gt;Node15 -->
<g id="edge17" class="edge"><title>Node3&#45;&gt;Node15</title>
<path fill="none" stroke="midnightblue" d="M825.289,-58.2155C877.888,-48.603 978.802,-30.9915 1042.92,-20.2069"/>
<polygon fill="midnightblue" stroke="midnightblue" points="1043.6,-23.6422 1052.88,-18.5369 1042.44,-16.7386 1043.6,-23.6422"/>
</g>
<!-- Node16 -->
<g id="node16" class="node"><title>Node16</title>
<g id="a_node16"><a xlink:href="ns__aworx_8hpp.html" target="_top" xlink:title="alib/core/ns_aworx.hpp">
<polygon fill="white" stroke="black" points="1167.5,-0.5 1167.5,-19.5 1284.5,-19.5 1284.5,-0.5 1167.5,-0.5"/>
<text text-anchor="middle" x="1226" y="-7.5" font-family="Helvetica,sans-Serif" font-size="10.00">alib/core/ns_aworx.hpp</text>
</a>
</g>
</g>
<!-- Node3&#45;&gt;Node16 -->
<g id="edge19" class="edge"><title>Node3&#45;&gt;Node16</title>
<path fill="none" stroke="midnightblue" d="M825.169,-60.2633C888.985,-52.1943 1029.92,-35.18 1149,-20 1151.68,-19.6588 1154.41,-19.3075 1157.18,-18.9506"/>
<polygon fill="midnightblue" stroke="midnightblue" points="1157.84,-22.3945 1167.31,-17.6415 1156.94,-15.4522 1157.84,-22.3945"/>
</g>
<!-- Node17 -->
<g id="node17" class="node"><title>Node17</title>
<g id="a_node17"><a xlink:href="namespace_8hpp.html" target="_top" xlink:title="alib/strings/namespace.hpp">
<polygon fill="white" stroke="red" points="1303,-0.5 1303,-19.5 1439,-19.5 1439,-0.5 1303,-0.5"/>
<text text-anchor="middle" x="1371" y="-7.5" font-family="Helvetica,sans-Serif" font-size="10.00">alib/strings/namespace.hpp</text>
</a>
</g>
</g>
<!-- Node3&#45;&gt;Node17 -->
<g id="edge21" class="edge"><title>Node3&#45;&gt;Node17</title>
<path fill="none" stroke="midnightblue" d="M825.027,-61.886C905.335,-55.034 1112.1,-37.8352 1285,-20 1287.52,-19.7402 1290.08,-19.47 1292.68,-19.1923"/>
<polygon fill="midnightblue" stroke="midnightblue" points="1293.22,-22.6533 1302.79,-18.0902 1292.47,-15.6945 1293.22,-22.6533"/>
</g>
<!-- Node12&#45;&gt;Node3 -->
<g id="edge12" class="edge"><title>Node12&#45;&gt;Node3</title>
<path fill="none" stroke="midnightblue" d="M745.854,-19.7511C756.209,-27.5608 769.515,-39.1997 779.162,-48.7175"/>
<polygon fill="midnightblue" stroke="midnightblue" points="776.8,-51.3104 786.259,-56.083 781.84,-46.4533 776.8,-51.3104"/>
</g>
<!-- Node13&#45;&gt;Node3 -->
<g id="edge14" class="edge"><title>Node13&#45;&gt;Node3</title>
<path fill="none" stroke="midnightblue" d="M846.333,-19.8339C838.974,-28.0269 825.565,-40.3824 813.662,-50.1008"/>
<polygon fill="midnightblue" stroke="midnightblue" points="811.448,-47.3889 805.755,-56.324 815.778,-52.8896 811.448,-47.3889"/>
</g>
<!-- Node14&#45;&gt;Node3 -->
<g id="edge16" class="edge"><title>Node14&#45;&gt;Node3</title>
<path fill="none" stroke="midnightblue" d="M952.617,-19.5565C922.731,-28.823 871.857,-43.6416 835.091,-53.8224"/>
<polygon fill="midnightblue" stroke="midnightblue" points="833.839,-50.5367 825.125,-56.5625 835.695,-57.2863 833.839,-50.5367"/>
</g>
<!-- Node15&#45;&gt;Node3 -->
<g id="edge18" class="edge"><title>Node15&#45;&gt;Node3</title>
<path fill="none" stroke="midnightblue" d="M1057.09,-19.5344C998.201,-30.2011 894.461,-48.2491 835.347,-58.0923"/>
<polygon fill="midnightblue" stroke="midnightblue" points="834.494,-54.6857 825.201,-59.7732 835.638,-61.5916 834.494,-54.6857"/>
</g>
<!-- Node16&#45;&gt;Node3 -->
<g id="edge20" class="edge"><title>Node16&#45;&gt;Node3</title>
<path fill="none" stroke="midnightblue" d="M1170.58,-19.5427C1169.37,-19.6968 1168.18,-19.8494 1167,-20 1047.53,-35.2302 906.052,-52.3069 835.452,-60.343"/>
<polygon fill="midnightblue" stroke="midnightblue" points="834.696,-56.9062 825.152,-61.5077 835.482,-63.8619 834.696,-56.9062"/>
</g>
<!-- Node17&#45;&gt;Node3 -->
<g id="edge22" class="edge"><title>Node17&#45;&gt;Node3</title>
<path fill="none" stroke="midnightblue" d="M1307.46,-19.5342C1305.96,-19.6926 1304.47,-19.8481 1303,-20 1130.39,-37.8049 924.036,-54.9757 835.119,-61.8511"/>
<polygon fill="midnightblue" stroke="midnightblue" points="834.822,-58.3635 825.119,-62.6187 835.358,-65.343 834.822,-58.3635"/>
</g>
</g>
</svg>
