<?xml version="1.0" encoding="UTF-8" standalone="no"?>
<!DOCTYPE svg PUBLIC "-//W3C//DTD SVG 1.1//EN"
 "http://www.w3.org/Graphics/SVG/1.1/DTD/svg11.dtd">
<!-- Generated by graphviz version 2.40.1 (20161225.0304)
 -->
<!-- Title: ticks.hpp Pages: 1 -->
<svg width="194pt" height="196pt"
 viewBox="0.00 0.00 193.50 196.00" xmlns="http://www.w3.org/2000/svg" xmlns:xlink="http://www.w3.org/1999/xlink">
<g id="graph0" class="graph" transform="scale(1 1) rotate(0) translate(4 192)">
<title>ticks.hpp</title>
<polygon fill="#ffffff" stroke="transparent" points="-4,4 -4,-192 189.5,-192 189.5,4 -4,4"/>
<!-- Node0 -->
<g id="node1" class="node">
<title>Node0</title>
<polygon fill="#bfbfbf" stroke="#000000" points="86,-168.5 86,-187.5 142,-187.5 142,-168.5 86,-168.5"/>
<text text-anchor="middle" x="114" y="-175.5" font-family="Helvetica,sans-Serif" font-size="10.00" fill="#000000">ticks.hpp</text>
</g>
<!-- Node1 -->
<g id="node2" class="node">
<title>Node1</title>
<g id="a_node2"><a xlink:href="timelib_8hpp.html" target="_top" xlink:title="alib/time/timelib.hpp">
<polygon fill="#ffffff" stroke="#000000" points="62,-112.5 62,-131.5 166,-131.5 166,-112.5 62,-112.5"/>
<text text-anchor="middle" x="114" y="-119.5" font-family="Helvetica,sans-Serif" font-size="10.00" fill="#000000">alib/time/timelib.hpp</text>
</a>
</g>
</g>
<!-- Node0&#45;&gt;Node1 -->
<g id="edge1" class="edge">
<title>Node0&#45;&gt;Node1</title>
<path fill="none" stroke="#191970" d="M114,-168.2455C114,-160.9382 114,-150.6944 114,-141.7046"/>
<polygon fill="#191970" stroke="#191970" points="117.5001,-141.6426 114,-131.6427 110.5001,-141.6427 117.5001,-141.6426"/>
</g>
<!-- Node2 -->
<g id="node3" class="node">
<title>Node2</title>
<g id="a_node3"><a xlink:href="substring_8hpp.html" target="_top" xlink:title="alib/strings/substring.hpp">
<polygon fill="#ffffff" stroke="#000000" points="1.5,-56.5 1.5,-75.5 126.5,-75.5 126.5,-56.5 1.5,-56.5"/>
<text text-anchor="middle" x="64" y="-63.5" font-family="Helvetica,sans-Serif" font-size="10.00" fill="#000000">alib/strings/substring.hpp</text>
</a>
</g>
</g>
<!-- Node1&#45;&gt;Node2 -->
<g id="edge2" class="edge">
<title>Node1&#45;&gt;Node2</title>
<path fill="none" stroke="#191970" d="M105.2907,-112.2455C98.1927,-104.2958 87.9916,-92.8706 79.505,-83.3656"/>
<polygon fill="#191970" stroke="#191970" points="81.8805,-80.771 72.6095,-75.6427 76.6589,-85.4331 81.8805,-80.771"/>
</g>
<!-- Node5 -->
<g id="node4" class="node">
<title>Node5</title>
<polygon fill="#ffffff" stroke="#bfbfbf" points="144.5,-56.5 144.5,-75.5 185.5,-75.5 185.5,-56.5 144.5,-56.5"/>
<text text-anchor="middle" x="165" y="-63.5" font-family="Helvetica,sans-Serif" font-size="10.00" fill="#000000">ctime</text>
</g>
<!-- Node1&#45;&gt;Node5 -->
<g id="edge3" class="edge">
<title>Node1&#45;&gt;Node5</title>
<path fill="none" stroke="#191970" d="M122.8835,-112.2455C130.1966,-104.2155 140.7391,-92.6394 149.4467,-83.0781"/>
<polygon fill="#191970" stroke="#191970" points="152.0727,-85.3928 156.2183,-75.6427 146.8972,-80.6795 152.0727,-85.3928"/>
</g>
<!-- Node3 -->
<g id="node5" class="node">
<title>Node3</title>
<g id="a_node5"><a xlink:href="enumbitwise_8hpp.html" target="_top" xlink:title="alib/lang/enumbitwise.hpp">
<polygon fill="#ffffff" stroke="#ff0000" points="0,-.5 0,-19.5 128,-19.5 128,-.5 0,-.5"/>
<text text-anchor="middle" x="64" y="-7.5" font-family="Helvetica,sans-Serif" font-size="10.00" fill="#000000">alib/lang/enumbitwise.hpp</text>
</a>
</g>
</g>
<!-- Node2&#45;&gt;Node3 -->
<g id="edge4" class="edge">
<title>Node2&#45;&gt;Node3</title>
<path fill="none" stroke="#191970" d="M64,-56.2455C64,-48.9382 64,-38.6944 64,-29.7046"/>
<polygon fill="#191970" stroke="#191970" points="67.5001,-29.6426 64,-19.6427 60.5001,-29.6427 67.5001,-29.6426"/>
</g>
</g>
</svg>
