<?xml version="1.0" encoding="UTF-8" standalone="no"?>
<!DOCTYPE svg PUBLIC "-//W3C//DTD SVG 1.1//EN"
 "http://www.w3.org/Graphics/SVG/1.1/DTD/svg11.dtd">
<!-- Generated by graphviz version 2.40.1 (20161225.0304)
 -->
<!-- Title: timestamp.hpp Pages: 1 -->
<svg width="353pt" height="196pt"
 viewBox="0.00 0.00 352.50 196.00" xmlns="http://www.w3.org/2000/svg" xmlns:xlink="http://www.w3.org/1999/xlink">
<g id="graph0" class="graph" transform="scale(1 1) rotate(0) translate(4 192)">
<title>timestamp.hpp</title>
<polygon fill="#ffffff" stroke="transparent" points="-4,4 -4,-192 348.5,-192 348.5,4 -4,4"/>
<!-- Node7 -->
<g id="node1" class="node">
<title>Node7</title>
<polygon fill="#bfbfbf" stroke="#000000" points="167.5,-168.5 167.5,-187.5 248.5,-187.5 248.5,-168.5 167.5,-168.5"/>
<text text-anchor="middle" x="208" y="-175.5" font-family="Helvetica,sans-Serif" font-size="10.00" fill="#000000">timestamp.hpp</text>
</g>
<!-- Node8 -->
<g id="node2" class="node">
<title>Node8</title>
<g id="a_node2"><a xlink:href="calendartime_8hpp.html" target="_top" xlink:title="calendartime.hpp">
<polygon fill="#ffffff" stroke="#000000" points="110.5,-112.5 110.5,-131.5 201.5,-131.5 201.5,-112.5 110.5,-112.5"/>
<text text-anchor="middle" x="156" y="-119.5" font-family="Helvetica,sans-Serif" font-size="10.00" fill="#000000">calendartime.hpp</text>
</a>
</g>
</g>
<!-- Node7&#45;&gt;Node8 -->
<g id="edge1" class="edge">
<title>Node7&#45;&gt;Node8</title>
<path fill="none" stroke="#191970" d="M192.0178,-160.7884C183.1222,-151.2085 172.3796,-139.6396 164.9539,-131.6427"/>
<polygon fill="#191970" stroke="#191970" points="189.573,-163.2992 198.9423,-168.2455 194.7025,-158.536 189.573,-163.2992"/>
</g>
<!-- Node18 -->
<g id="node3" class="node">
<title>Node18</title>
<g id="a_node3"><a xlink:href="stopwatch_8hpp.html" target="_top" xlink:title="stopwatch.hpp">
<polygon fill="#ffffff" stroke="#000000" points="220,-112.5 220,-131.5 300,-131.5 300,-112.5 220,-112.5"/>
<text text-anchor="middle" x="260" y="-119.5" font-family="Helvetica,sans-Serif" font-size="10.00" fill="#000000">stopwatch.hpp</text>
</a>
</g>
</g>
<!-- Node7&#45;&gt;Node18 -->
<g id="edge2" class="edge">
<title>Node7&#45;&gt;Node18</title>
<path fill="none" stroke="#191970" d="M223.9822,-160.7884C232.8778,-151.2085 243.6204,-139.6396 251.0461,-131.6427"/>
<polygon fill="#191970" stroke="#191970" points="221.2975,-158.536 217.0577,-168.2455 226.427,-163.2992 221.2975,-158.536"/>
</g>
<!-- Node9 -->
<g id="node4" class="node">
<title>Node9</title>
<g id="a_node4"><a xlink:href="textlogger_8hpp.html" target="_top" xlink:title="textlogger.hpp">
<polygon fill="#ffffff" stroke="#000000" points="117.5,-56.5 117.5,-75.5 194.5,-75.5 194.5,-56.5 117.5,-56.5"/>
<text text-anchor="middle" x="156" y="-63.5" font-family="Helvetica,sans-Serif" font-size="10.00" fill="#000000">textlogger.hpp</text>
</a>
</g>
</g>
<!-- Node8&#45;&gt;Node9 -->
<g id="edge3" class="edge">
<title>Node8&#45;&gt;Node9</title>
<path fill="none" stroke="#191970" d="M156,-102.1575C156,-93.155 156,-82.9199 156,-75.6427"/>
<polygon fill="#191970" stroke="#191970" points="152.5001,-102.2455 156,-112.2455 159.5001,-102.2456 152.5001,-102.2455"/>
</g>
<!-- Node10 -->
<g id="node5" class="node">
<title>Node10</title>
<g id="a_node5"><a xlink:href="plaintextlogger_8hpp.html" target="_top" xlink:title="plaintextlogger.hpp">
<polygon fill="#ffffff" stroke="#ff0000" points="0,-.5 0,-19.5 98,-19.5 98,-.5 0,-.5"/>
<text text-anchor="middle" x="49" y="-7.5" font-family="Helvetica,sans-Serif" font-size="10.00" fill="#000000">plaintextlogger.hpp</text>
</a>
</g>
</g>
<!-- Node9&#45;&gt;Node10 -->
<g id="edge4" class="edge">
<title>Node9&#45;&gt;Node10</title>
<path fill="none" stroke="#191970" d="M128.4801,-51.5971C109.2983,-41.558 84.2322,-28.4393 67.4244,-19.6427"/>
<polygon fill="#191970" stroke="#191970" points="126.8791,-54.7095 137.362,-56.2455 130.125,-48.5075 126.8791,-54.7095"/>
</g>
<!-- Node16 -->
<g id="node6" class="node">
<title>Node16</title>
<g id="a_node6"><a xlink:href="ansilogger_8hpp.html" target="_top" xlink:title="ansilogger.hpp">
<polygon fill="#ffffff" stroke="#ff0000" points="116.5,-.5 116.5,-19.5 195.5,-19.5 195.5,-.5 116.5,-.5"/>
<text text-anchor="middle" x="156" y="-7.5" font-family="Helvetica,sans-Serif" font-size="10.00" fill="#000000">ansilogger.hpp</text>
</a>
</g>
</g>
<!-- Node9&#45;&gt;Node16 -->
<g id="edge5" class="edge">
<title>Node9&#45;&gt;Node16</title>
<path fill="none" stroke="#191970" d="M156,-46.1575C156,-37.155 156,-26.9199 156,-19.6427"/>
<polygon fill="#191970" stroke="#191970" points="152.5001,-46.2455 156,-56.2455 159.5001,-46.2456 152.5001,-46.2455"/>
</g>
<!-- Node17 -->
<g id="node7" class="node">
<title>Node17</title>
<g id="a_node7"><a xlink:href="windowsconsolelogger_8hpp.html" target="_top" xlink:title="windowsconsolelogger.hpp">
<polygon fill="#ffffff" stroke="#ff0000" points="213.5,-.5 213.5,-19.5 344.5,-19.5 344.5,-.5 213.5,-.5"/>
<text text-anchor="middle" x="279" y="-7.5" font-family="Helvetica,sans-Serif" font-size="10.00" fill="#000000">windowsconsolelogger.hpp</text>
</a>
</g>
</g>
<!-- Node9&#45;&gt;Node17 -->
<g id="edge6" class="edge">
<title>Node9&#45;&gt;Node17</title>
<path fill="none" stroke="#191970" d="M186.5065,-52.1109C208.8112,-41.9559 238.4799,-28.4482 258.1315,-19.5011"/>
<polygon fill="#191970" stroke="#191970" points="184.7953,-49.0442 177.1445,-56.3733 187.6959,-55.415 184.7953,-49.0442"/>
</g>
</g>
</svg>
