<?xml version="1.0" encoding="UTF-8" standalone="no"?>
<!DOCTYPE svg PUBLIC "-//W3C//DTD SVG 1.1//EN"
 "http://www.w3.org/Graphics/SVG/1.1/DTD/svg11.dtd">
<!-- Generated by graphviz version 2.38.0 (20140413.2041)
 -->
<!-- Title: tstring.hpp Pages: 1 -->
<svg width="1251pt" height="364pt"
 viewBox="0.00 0.00 1251.00 364.00" xmlns="http://www.w3.org/2000/svg" xmlns:xlink="http://www.w3.org/1999/xlink">
<g id="graph0" class="graph" transform="scale(1 1) rotate(0) translate(4 360)">
<title>tstring.hpp</title>
<polygon fill="white" stroke="none" points="-4,4 -4,-360 1247,-360 1247,4 -4,4"/>
<!-- Node1 -->
<g id="node1" class="node"><title>Node1</title>
<polygon fill="#bfbfbf" stroke="black" points="532.5,-336.5 532.5,-355.5 594.5,-355.5 594.5,-336.5 532.5,-336.5"/>
<text text-anchor="middle" x="563.5" y="-343.5" font-family="Helvetica,sans-Serif" font-size="10.00">tstring.hpp</text>
</g>
<!-- Node2 -->
<g id="node2" class="node"><title>Node2</title>
<g id="a_node2"><a xlink:href="alib_8hpp.html" target="_top" xlink:title="alib.hpp">
<polygon fill="white" stroke="black" points="538.5,-280.5 538.5,-299.5 588.5,-299.5 588.5,-280.5 538.5,-280.5"/>
<text text-anchor="middle" x="563.5" y="-287.5" font-family="Helvetica,sans-Serif" font-size="10.00">alib.hpp</text>
</a>
</g>
</g>
<!-- Node1&#45;&gt;Node2 -->
<g id="edge1" class="edge"><title>Node1&#45;&gt;Node2</title>
<path fill="none" stroke="midnightblue" d="M557.028,-326.101C556.396,-317.136 556.843,-306.858 558.369,-299.751"/>
<polygon fill="midnightblue" stroke="midnightblue" points="553.566,-326.622 558.334,-336.083 560.507,-325.713 553.566,-326.622"/>
</g>
<!-- Node2&#45;&gt;Node1 -->
<g id="edge2" class="edge"><title>Node2&#45;&gt;Node1</title>
<path fill="none" stroke="midnightblue" d="M569.958,-309.691C570.606,-318.635 570.176,-328.927 568.666,-336.083"/>
<polygon fill="midnightblue" stroke="midnightblue" points="573.423,-309.2 568.631,-299.751 566.485,-310.126 573.423,-309.2"/>
</g>
<!-- Node3 -->
<g id="node3" class="node"><title>Node3</title>
<g id="a_node3"><a xlink:href="enums_8hpp.html" target="_top" xlink:title="enums.hpp">
<polygon fill="white" stroke="black" points="0,-224.5 0,-243.5 65,-243.5 65,-224.5 0,-224.5"/>
<text text-anchor="middle" x="32.5" y="-231.5" font-family="Helvetica,sans-Serif" font-size="10.00">enums.hpp</text>
</a>
</g>
</g>
<!-- Node2&#45;&gt;Node3 -->
<g id="edge3" class="edge"><title>Node2&#45;&gt;Node3</title>
<path fill="none" stroke="midnightblue" d="M528.36,-287.45C446.469,-283.271 237.678,-270.274 65.5,-244 64.6154,-243.865 63.7214,-243.723 62.8218,-243.575"/>
<polygon fill="midnightblue" stroke="midnightblue" points="528.221,-290.947 538.383,-287.949 528.569,-283.956 528.221,-290.947"/>
</g>
<!-- Node4 -->
<g id="node4" class="node"><title>Node4</title>
<g id="a_node4"><a xlink:href="ownable_8hpp.html" target="_top" xlink:title="ownable.hpp">
<polygon fill="white" stroke="black" points="1048,-224.5 1048,-243.5 1119,-243.5 1119,-224.5 1048,-224.5"/>
<text text-anchor="middle" x="1083.5" y="-231.5" font-family="Helvetica,sans-Serif" font-size="10.00">ownable.hpp</text>
</a>
</g>
</g>
<!-- Node2&#45;&gt;Node4 -->
<g id="edge4" class="edge"><title>Node2&#45;&gt;Node4</title>
<path fill="none" stroke="midnightblue" d="M599.041,-286.951C678.378,-282.091 875.816,-268.405 1039.5,-244 1042.12,-243.609 1044.82,-243.163 1047.54,-242.684"/>
<polygon fill="midnightblue" stroke="midnightblue" points="598.417,-283.482 588.646,-287.578 598.838,-290.47 598.417,-283.482"/>
</g>
<!-- Node5 -->
<g id="node5" class="node"><title>Node5</title>
<g id="a_node5"><a xlink:href="threadlock_8hpp.html" target="_top" xlink:title="threadlock.hpp">
<polygon fill="white" stroke="red" points="509.5,-168.5 509.5,-187.5 589.5,-187.5 589.5,-168.5 509.5,-168.5"/>
<text text-anchor="middle" x="549.5" y="-175.5" font-family="Helvetica,sans-Serif" font-size="10.00">threadlock.hpp</text>
</a>
</g>
</g>
<!-- Node2&#45;&gt;Node5 -->
<g id="edge5" class="edge"><title>Node2&#45;&gt;Node5</title>
<path fill="none" stroke="midnightblue" d="M528.004,-289.79C450.27,-290.68 268.861,-287.894 230.5,-244 224.651,-237.307 224.67,-230.71 230.5,-224 266.174,-182.941 431.781,-178.296 509.291,-178.434"/>
<polygon fill="midnightblue" stroke="midnightblue" points="528.31,-293.286 538.259,-289.644 528.21,-286.287 528.31,-293.286"/>
</g>
<!-- Node7 -->
<g id="node6" class="node"><title>Node7</title>
<g id="a_node6"><a xlink:href="alox_8hpp.html" target="_top" xlink:title="alox.hpp">
<polygon fill="white" stroke="red" points="911,-56.5 911,-75.5 964,-75.5 964,-56.5 911,-56.5"/>
<text text-anchor="middle" x="937.5" y="-63.5" font-family="Helvetica,sans-Serif" font-size="10.00">alox.hpp</text>
</a>
</g>
</g>
<!-- Node2&#45;&gt;Node7 -->
<g id="edge6" class="edge"><title>Node2&#45;&gt;Node7</title>
<path fill="none" stroke="midnightblue" d="M528.25,-286.955C444.977,-281.767 241.546,-266.857 221.5,-244 215.639,-237.317 215.928,-230.926 221.5,-224 310.841,-112.946 792.023,-76.0334 910.922,-68.5404"/>
<polygon fill="midnightblue" stroke="midnightblue" points="528.056,-290.45 538.252,-287.568 528.484,-283.463 528.056,-290.45"/>
</g>
<!-- Node9 -->
<g id="node7" class="node"><title>Node9</title>
<g id="a_node7"><a xlink:href="report_8hpp.html" target="_top" xlink:title="report.hpp">
<polygon fill="white" stroke="black" points="239.5,-224.5 239.5,-243.5 299.5,-243.5 299.5,-224.5 239.5,-224.5"/>
<text text-anchor="middle" x="269.5" y="-231.5" font-family="Helvetica,sans-Serif" font-size="10.00">report.hpp</text>
</a>
</g>
</g>
<!-- Node2&#45;&gt;Node9 -->
<g id="edge7" class="edge"><title>Node2&#45;&gt;Node9</title>
<path fill="none" stroke="midnightblue" d="M528.23,-284.286C477.23,-276.591 380.726,-260.527 299.5,-244 298.819,-243.861 298.132,-243.72 297.44,-243.576"/>
<polygon fill="midnightblue" stroke="midnightblue" points="527.994,-287.789 538.4,-285.798 529.024,-280.865 527.994,-287.789"/>
</g>
<!-- Node10 -->
<g id="node8" class="node"><title>Node10</title>
<g id="a_node8"><a xlink:href="util_8hpp.html" target="_top" xlink:title="util.hpp">
<polygon fill="white" stroke="black" points="317.5,-224.5 317.5,-243.5 365.5,-243.5 365.5,-224.5 317.5,-224.5"/>
<text text-anchor="middle" x="341.5" y="-231.5" font-family="Helvetica,sans-Serif" font-size="10.00">util.hpp</text>
</a>
</g>
</g>
<!-- Node2&#45;&gt;Node10 -->
<g id="edge8" class="edge"><title>Node2&#45;&gt;Node10</title>
<path fill="none" stroke="midnightblue" d="M528.316,-280.983C490.297,-272.236 427.972,-257.654 374.5,-244 371.623,-243.265 368.611,-242.474 365.627,-241.677"/>
<polygon fill="midnightblue" stroke="midnightblue" points="527.837,-284.464 538.367,-283.29 529.403,-277.642 527.837,-284.464"/>
</g>
<!-- Node11 -->
<g id="node9" class="node"><title>Node11</title>
<g id="a_node9"><a xlink:href="applyformat_8hpp.html" target="_top" xlink:title="applyformat.hpp">
<polygon fill="white" stroke="black" points="383.5,-224.5 383.5,-243.5 469.5,-243.5 469.5,-224.5 383.5,-224.5"/>
<text text-anchor="middle" x="426.5" y="-231.5" font-family="Helvetica,sans-Serif" font-size="10.00">applyformat.hpp</text>
</a>
</g>
</g>
<!-- Node2&#45;&gt;Node11 -->
<g id="edge9" class="edge"><title>Node2&#45;&gt;Node11</title>
<path fill="none" stroke="midnightblue" d="M528.686,-277.502C501.224,-267.325 464.317,-252.705 443.072,-243.536"/>
<polygon fill="midnightblue" stroke="midnightblue" points="527.736,-280.881 538.33,-281.032 530.142,-274.308 527.736,-280.881"/>
</g>
<!-- Node12 -->
<g id="node10" class="node"><title>Node12</title>
<g id="a_node10"><a xlink:href="applyto_8hpp.html" target="_top" xlink:title="applyto.hpp">
<polygon fill="white" stroke="black" points="488,-224.5 488,-243.5 555,-243.5 555,-224.5 488,-224.5"/>
<text text-anchor="middle" x="521.5" y="-231.5" font-family="Helvetica,sans-Serif" font-size="10.00">applyto.hpp</text>
</a>
</g>
</g>
<!-- Node2&#45;&gt;Node12 -->
<g id="edge10" class="edge"><title>Node2&#45;&gt;Node12</title>
<path fill="none" stroke="midnightblue" d="M544.583,-272.718C536.251,-263.2 527.572,-251.561 523.175,-243.751"/>
<polygon fill="midnightblue" stroke="midnightblue" points="542.037,-275.12 551.398,-280.083 547.175,-270.366 542.037,-275.12"/>
</g>
<!-- Node13 -->
<g id="node11" class="node"><title>Node13</title>
<g id="a_node11"><a xlink:href="astring_8hpp.html" target="_top" xlink:title="astring.hpp">
<polygon fill="white" stroke="black" points="573,-224.5 573,-243.5 638,-243.5 638,-224.5 573,-224.5"/>
<text text-anchor="middle" x="605.5" y="-231.5" font-family="Helvetica,sans-Serif" font-size="10.00">astring.hpp</text>
</a>
</g>
</g>
<!-- Node2&#45;&gt;Node13 -->
<g id="edge11" class="edge"><title>Node2&#45;&gt;Node13</title>
<path fill="none" stroke="midnightblue" d="M570.702,-271.566C577.136,-262.275 586.121,-251.248 593.563,-243.751"/>
<polygon fill="midnightblue" stroke="midnightblue" points="567.696,-269.77 565.269,-280.083 573.598,-273.534 567.696,-269.77"/>
</g>
<!-- Node14 -->
<g id="node12" class="node"><title>Node14</title>
<g id="a_node12"><a xlink:href="cstring_8hpp.html" target="_top" xlink:title="cstring.hpp">
<polygon fill="white" stroke="black" points="656,-224.5 656,-243.5 721,-243.5 721,-224.5 656,-224.5"/>
<text text-anchor="middle" x="688.5" y="-231.5" font-family="Helvetica,sans-Serif" font-size="10.00">cstring.hpp</text>
</a>
</g>
</g>
<!-- Node2&#45;&gt;Node14 -->
<g id="edge12" class="edge"><title>Node2&#45;&gt;Node14</title>
<path fill="none" stroke="midnightblue" d="M587.515,-276.096C609.457,-266.007 641.515,-252.27 663.706,-243.516"/>
<polygon fill="midnightblue" stroke="midnightblue" points="585.794,-273.037 578.218,-280.444 588.759,-279.378 585.794,-273.037"/>
</g>
<!-- Node15 -->
<g id="node13" class="node"><title>Node15</title>
<g id="a_node13"><a xlink:href="preallocatedstring_8hpp.html" target="_top" xlink:title="preallocatedstring.hpp">
<polygon fill="white" stroke="black" points="739.5,-224.5 739.5,-243.5 851.5,-243.5 851.5,-224.5 739.5,-224.5"/>
<text text-anchor="middle" x="795.5" y="-231.5" font-family="Helvetica,sans-Serif" font-size="10.00">preallocatedstring.hpp</text>
</a>
</g>
</g>
<!-- Node2&#45;&gt;Node15 -->
<g id="edge13" class="edge"><title>Node2&#45;&gt;Node15</title>
<path fill="none" stroke="midnightblue" d="M598.624,-279.599C640.3,-269.424 709.46,-253.341 753.804,-243.522"/>
<polygon fill="midnightblue" stroke="midnightblue" points="597.528,-276.264 588.653,-282.051 599.199,-283.062 597.528,-276.264"/>
</g>
<!-- Node16 -->
<g id="node14" class="node"><title>Node16</title>
<g id="a_node14"><a xlink:href="string_8hpp.html" target="_top" xlink:title="string.hpp">
<polygon fill="white" stroke="black" points="870,-224.5 870,-243.5 929,-243.5 929,-224.5 870,-224.5"/>
<text text-anchor="middle" x="899.5" y="-231.5" font-family="Helvetica,sans-Serif" font-size="10.00">string.hpp</text>
</a>
</g>
</g>
<!-- Node2&#45;&gt;Node16 -->
<g id="edge14" class="edge"><title>Node2&#45;&gt;Node16</title>
<path fill="none" stroke="midnightblue" d="M598.792,-283.757C653.333,-276.224 760.733,-261.323 851.5,-244 857.37,-242.88 863.697,-241.496 869.854,-240.153"/>
<polygon fill="midnightblue" stroke="midnightblue" points="598.035,-280.328 588.609,-285.163 598.993,-287.262 598.035,-280.328"/>
</g>
<!-- Node17 -->
<g id="node15" class="node"><title>Node17</title>
<g id="a_node15"><a xlink:href="stringliteral_8hpp.html" target="_top" xlink:title="stringliteral.hpp">
<polygon fill="white" stroke="black" points="947,-224.5 947,-243.5 1030,-243.5 1030,-224.5 947,-224.5"/>
<text text-anchor="middle" x="988.5" y="-231.5" font-family="Helvetica,sans-Serif" font-size="10.00">stringliteral.hpp</text>
</a>
</g>
</g>
<!-- Node2&#45;&gt;Node17 -->
<g id="edge15" class="edge"><title>Node2&#45;&gt;Node17</title>
<path fill="none" stroke="midnightblue" d="M599.031,-284.871C664.636,-277.743 808.488,-262.136 929.5,-244 935.082,-243.163 940.999,-242.183 946.874,-241.182"/>
<polygon fill="midnightblue" stroke="midnightblue" points="598.382,-281.421 588.819,-285.982 599.139,-288.38 598.382,-281.421"/>
</g>
<!-- Node18 -->
<g id="node16" class="node"><title>Node18</title>
<g id="a_node16"><a xlink:href="substring_8hpp.html" target="_top" xlink:title="substring.hpp">
<polygon fill="white" stroke="black" points="1137,-224.5 1137,-243.5 1212,-243.5 1212,-224.5 1137,-224.5"/>
<text text-anchor="middle" x="1174.5" y="-231.5" font-family="Helvetica,sans-Serif" font-size="10.00">substring.hpp</text>
</a>
</g>
</g>
<!-- Node2&#45;&gt;Node18 -->
<g id="edge16" class="edge"><title>Node2&#45;&gt;Node18</title>
<path fill="none" stroke="midnightblue" d="M598.772,-287.587C687.889,-283.713 929.197,-271.344 1128.5,-244 1131.24,-243.624 1134.07,-243.189 1136.9,-242.717"/>
<polygon fill="midnightblue" stroke="midnightblue" points="598.513,-284.094 588.671,-288.017 598.811,-291.088 598.513,-284.094"/>
</g>
<!-- Node23 -->
<g id="node17" class="node"><title>Node23</title>
<g id="a_node17"><a xlink:href="thread_8hpp.html" target="_top" xlink:title="thread.hpp">
<polygon fill="white" stroke="black" points="83.5,-224.5 83.5,-243.5 145.5,-243.5 145.5,-224.5 83.5,-224.5"/>
<text text-anchor="middle" x="114.5" y="-231.5" font-family="Helvetica,sans-Serif" font-size="10.00">thread.hpp</text>
</a>
</g>
</g>
<!-- Node2&#45;&gt;Node23 -->
<g id="edge17" class="edge"><title>Node2&#45;&gt;Node23</title>
<path fill="none" stroke="midnightblue" d="M528.255,-286.107C457.9,-280.105 295.146,-265.079 159.5,-244 155.091,-243.315 150.458,-242.499 145.909,-241.642"/>
<polygon fill="midnightblue" stroke="midnightblue" points="528.084,-289.605 538.343,-286.96 528.673,-282.63 528.084,-289.605"/>
</g>
<!-- Node3&#45;&gt;Node2 -->
<g id="edge18" class="edge"><title>Node3&#45;&gt;Node2</title>
<path fill="none" stroke="midnightblue" d="M74.9905,-242.555C77.8798,-243.087 80.7356,-243.578 83.5,-244 256.693,-270.429 466.933,-283.424 538.484,-287.523"/>
<polygon fill="midnightblue" stroke="midnightblue" points="75.6059,-239.109 65.1217,-240.637 74.2698,-245.981 75.6059,-239.109"/>
</g>
<!-- Node4&#45;&gt;Node5 -->
<g id="edge19" class="edge"><title>Node4&#45;&gt;Node5</title>
<path fill="none" stroke="midnightblue" d="M1037.57,-223.845C865.869,-198.961 672.012,-185.99 589.693,-181.187"/>
<polygon fill="midnightblue" stroke="midnightblue" points="1037.14,-227.32 1047.54,-225.308 1038.15,-220.394 1037.14,-227.32"/>
</g>
<!-- Node6 -->
<g id="node18" class="node"><title>Node6</title>
<g id="a_node18"><a xlink:href="configuration_8hpp.html" target="_top" xlink:title="configuration.hpp">
<polygon fill="white" stroke="red" points="892,-112.5 892,-131.5 983,-131.5 983,-112.5 892,-112.5"/>
<text text-anchor="middle" x="937.5" y="-119.5" font-family="Helvetica,sans-Serif" font-size="10.00">configuration.hpp</text>
</a>
</g>
</g>
<!-- Node5&#45;&gt;Node6 -->
<g id="edge20" class="edge"><title>Node5&#45;&gt;Node6</title>
<path fill="none" stroke="midnightblue" d="M599.833,-169.995C675.876,-159.412 818.912,-139.505 891.998,-129.333"/>
<polygon fill="midnightblue" stroke="midnightblue" points="598.983,-166.579 589.561,-171.424 599.948,-173.512 598.983,-166.579"/>
</g>
<!-- Node8 -->
<g id="node19" class="node"><title>Node8</title>
<g id="a_node19"><a xlink:href="scopeinfo_8hpp.html" target="_top" xlink:title="scopeinfo.hpp">
<polygon fill="white" stroke="red" points="899,-0.5 899,-19.5 976,-19.5 976,-0.5 899,-0.5"/>
<text text-anchor="middle" x="937.5" y="-7.5" font-family="Helvetica,sans-Serif" font-size="10.00">scopeinfo.hpp</text>
</a>
</g>
</g>
<!-- Node7&#45;&gt;Node8 -->
<g id="edge22" class="edge"><title>Node7&#45;&gt;Node8</title>
<path fill="none" stroke="midnightblue" d="M937.5,-45.8045C937.5,-36.9102 937.5,-26.7798 937.5,-19.7511"/>
<polygon fill="midnightblue" stroke="midnightblue" points="934,-46.083 937.5,-56.083 941,-46.083 934,-46.083"/>
</g>
<!-- Node9&#45;&gt;Node2 -->
<g id="edge23" class="edge"><title>Node9&#45;&gt;Node2</title>
<path fill="none" stroke="midnightblue" d="M309.505,-242.316C312.225,-242.903 314.908,-243.473 317.5,-244 398.116,-260.403 493.781,-276.35 538.498,-284.111"/>
<polygon fill="midnightblue" stroke="midnightblue" points="310.111,-238.866 299.595,-240.153 308.618,-245.705 310.111,-238.866"/>
</g>
<!-- Node11&#45;&gt;Node2 -->
<g id="edge24" class="edge"><title>Node11&#45;&gt;Node2</title>
<path fill="none" stroke="midnightblue" d="M462.799,-247.049C490.072,-257.189 526.009,-271.438 546.881,-280.444"/>
<polygon fill="midnightblue" stroke="midnightblue" points="463.78,-243.681 453.186,-243.516 461.365,-250.251 463.78,-243.681"/>
</g>
<!-- Node12&#45;&gt;Node2 -->
<g id="edge25" class="edge"><title>Node12&#45;&gt;Node2</title>
<path fill="none" stroke="midnightblue" d="M540.241,-251.081C548.568,-260.569 557.274,-272.22 561.731,-280.083"/>
<polygon fill="midnightblue" stroke="midnightblue" points="542.806,-248.699 533.437,-243.751 537.675,-253.462 542.806,-248.699"/>
</g>
<!-- Node13&#45;&gt;Node2 -->
<g id="edge26" class="edge"><title>Node13&#45;&gt;Node2</title>
<path fill="none" stroke="midnightblue" d="M598.44,-252.23C592.043,-261.495 583.066,-272.534 575.602,-280.083"/>
<polygon fill="midnightblue" stroke="midnightblue" points="601.418,-254.069 603.825,-243.751 595.509,-250.316 601.418,-254.069"/>
</g>
<!-- Node14&#45;&gt;Node2 -->
<g id="edge27" class="edge"><title>Node14&#45;&gt;Node2</title>
<path fill="none" stroke="midnightblue" d="M664.585,-247.858C642.674,-257.935 610.616,-271.675 588.395,-280.444"/>
<polygon fill="midnightblue" stroke="midnightblue" points="666.291,-250.924 673.866,-243.516 663.325,-244.583 666.291,-250.924"/>
</g>
<!-- Node15&#45;&gt;Node2 -->
<g id="edge28" class="edge"><title>Node15&#45;&gt;Node2</title>
<path fill="none" stroke="midnightblue" d="M754.191,-245.906C706.095,-257.566 628.417,-275.532 588.578,-284.113"/>
<polygon fill="midnightblue" stroke="midnightblue" points="755.095,-249.288 763.981,-243.519 753.437,-242.487 755.095,-249.288"/>
</g>
<!-- Node16&#45;&gt;Node2 -->
<g id="edge29" class="edge"><title>Node16&#45;&gt;Node2</title>
<path fill="none" stroke="midnightblue" d="M862.018,-245.398C758.553,-264.725 639.896,-280.46 588.727,-286.428"/>
<polygon fill="midnightblue" stroke="midnightblue" points="862.804,-248.811 871.98,-243.516 861.505,-241.933 862.804,-248.811"/>
</g>
<!-- Node17&#45;&gt;Node2 -->
<g id="edge30" class="edge"><title>Node17&#45;&gt;Node2</title>
<path fill="none" stroke="midnightblue" d="M940.564,-245.017C805.4,-264.941 649.417,-281.264 588.945,-286.896"/>
<polygon fill="midnightblue" stroke="midnightblue" points="941.294,-248.447 950.671,-243.515 940.265,-241.524 941.294,-248.447"/>
</g>
<!-- Node18&#45;&gt;Node6 -->
<g id="edge31" class="edge"><title>Node18&#45;&gt;Node6</title>
<path fill="none" stroke="midnightblue" d="M1126.8,-223.667C1059.43,-210.485 944.5,-188 944.5,-188 930.381,-172.612 932.942,-145.765 935.499,-131.881"/>
<polygon fill="midnightblue" stroke="midnightblue" points="1126.29,-227.134 1136.78,-225.62 1127.64,-220.264 1126.29,-227.134"/>
</g>
<!-- Node19 -->
<g id="node20" class="node"><title>Node19</title>
<g id="a_node20"><a xlink:href="plugins_8hpp.html" target="_top" xlink:title="plugins.hpp">
<polygon fill="white" stroke="red" points="953.5,-168.5 953.5,-187.5 1019.5,-187.5 1019.5,-168.5 953.5,-168.5"/>
<text text-anchor="middle" x="986.5" y="-175.5" font-family="Helvetica,sans-Serif" font-size="10.00">plugins.hpp</text>
</a>
</g>
</g>
<!-- Node18&#45;&gt;Node19 -->
<g id="edge32" class="edge"><title>Node18&#45;&gt;Node19</title>
<path fill="none" stroke="midnightblue" d="M1134.7,-221.568C1099.23,-211.381 1048.13,-196.703 1016.15,-187.516"/>
<polygon fill="midnightblue" stroke="midnightblue" points="1134.13,-225.047 1144.71,-224.444 1136.07,-218.319 1134.13,-225.047"/>
</g>
<!-- Node20 -->
<g id="node21" class="node"><title>Node20</title>
<g id="a_node21"><a xlink:href="pathmap_8hpp.html" target="_top" xlink:title="pathmap.hpp">
<polygon fill="white" stroke="black" points="1170,-168.5 1170,-187.5 1243,-187.5 1243,-168.5 1170,-168.5"/>
<text text-anchor="middle" x="1206.5" y="-175.5" font-family="Helvetica,sans-Serif" font-size="10.00">pathmap.hpp</text>
</a>
</g>
</g>
<!-- Node18&#45;&gt;Node20 -->
<g id="edge33" class="edge"><title>Node18&#45;&gt;Node20</title>
<path fill="none" stroke="midnightblue" d="M1185,-215.275C1190.47,-206.045 1196.92,-195.17 1201.31,-187.751"/>
<polygon fill="midnightblue" stroke="midnightblue" points="1181.87,-213.696 1179.78,-224.083 1187.89,-217.264 1181.87,-213.696"/>
</g>
<!-- Node21 -->
<g id="node22" class="node"><title>Node21</title>
<g id="a_node22"><a xlink:href="tokenizer_8hpp.html" target="_top" xlink:title="tokenizer.hpp">
<polygon fill="white" stroke="red" points="1038,-168.5 1038,-187.5 1113,-187.5 1113,-168.5 1038,-168.5"/>
<text text-anchor="middle" x="1075.5" y="-175.5" font-family="Helvetica,sans-Serif" font-size="10.00">tokenizer.hpp</text>
</a>
</g>
</g>
<!-- Node18&#45;&gt;Node21 -->
<g id="edge34" class="edge"><title>Node18&#45;&gt;Node21</title>
<path fill="none" stroke="midnightblue" d="M1149.66,-219.453C1131.39,-209.483 1107.08,-196.228 1091.37,-187.655"/>
<polygon fill="midnightblue" stroke="midnightblue" points="1148.14,-222.608 1158.59,-224.324 1151.49,-216.463 1148.14,-222.608"/>
</g>
<!-- Node22 -->
<g id="node23" class="node"><title>Node22</title>
<g id="a_node23"><a xlink:href="ticks_8hpp.html" target="_top" xlink:title="ticks.hpp">
<polygon fill="white" stroke="black" points="1101.5,-112.5 1101.5,-131.5 1157.5,-131.5 1157.5,-112.5 1101.5,-112.5"/>
<text text-anchor="middle" x="1129.5" y="-119.5" font-family="Helvetica,sans-Serif" font-size="10.00">ticks.hpp</text>
</a>
</g>
</g>
<!-- Node18&#45;&gt;Node22 -->
<g id="edge35" class="edge"><title>Node18&#45;&gt;Node22</title>
<path fill="none" stroke="midnightblue" d="M1167.14,-214.998C1157.32,-190.997 1140.33,-149.468 1133.01,-131.591"/>
<polygon fill="midnightblue" stroke="midnightblue" points="1163.94,-216.438 1170.97,-224.368 1170.42,-213.788 1163.94,-216.438"/>
</g>
<!-- Node23&#45;&gt;Node5 -->
<g id="edge40" class="edge"><title>Node23&#45;&gt;Node5</title>
<path fill="none" stroke="midnightblue" d="M155.904,-227.86C239.348,-217.502 426.78,-194.234 509.253,-183.996"/>
<polygon fill="midnightblue" stroke="midnightblue" points="155.277,-224.411 145.784,-229.116 156.139,-231.358 155.277,-224.411"/>
</g>
<!-- Node23&#45;&gt;Node8 -->
<g id="edge41" class="edge"><title>Node23&#45;&gt;Node8</title>
<path fill="none" stroke="midnightblue" d="M143.054,-220.333C173.812,-206.835 224.294,-185.096 268.5,-168 338.378,-140.976 355.235,-131.772 427.5,-112 600.97,-64.5373 813.358,-29.7729 898.998,-16.6922"/>
<polygon fill="midnightblue" stroke="midnightblue" points="141.536,-217.178 133.794,-224.41 144.357,-223.584 141.536,-217.178"/>
</g>
<!-- Node6&#45;&gt;Node7 -->
<g id="edge21" class="edge"><title>Node6&#45;&gt;Node7</title>
<path fill="none" stroke="midnightblue" d="M937.5,-101.805C937.5,-92.9102 937.5,-82.7798 937.5,-75.7511"/>
<polygon fill="midnightblue" stroke="midnightblue" points="934,-102.083 937.5,-112.083 941,-102.083 934,-102.083"/>
</g>
<!-- Node19&#45;&gt;Node6 -->
<g id="edge36" class="edge"><title>Node19&#45;&gt;Node6</title>
<path fill="none" stroke="midnightblue" d="M971.466,-160.431C962.878,-150.967 952.457,-139.483 945.441,-131.751"/>
<polygon fill="midnightblue" stroke="midnightblue" points="969.097,-163.029 978.409,-168.083 974.281,-158.325 969.097,-163.029"/>
</g>
<!-- Node21&#45;&gt;Node7 -->
<g id="edge38" class="edge"><title>Node21&#45;&gt;Node7</title>
<path fill="none" stroke="midnightblue" d="M1056.83,-162.118C1027.54,-138.769 971.711,-94.2699 948.278,-75.5914"/>
<polygon fill="midnightblue" stroke="midnightblue" points="1054.67,-164.872 1064.67,-168.368 1059.03,-159.398 1054.67,-164.872"/>
</g>
<!-- Node21&#45;&gt;Node6 -->
<g id="edge37" class="edge"><title>Node21&#45;&gt;Node6</title>
<path fill="none" stroke="midnightblue" d="M1044.25,-164.772C1018.33,-154.629 982.138,-140.467 959.264,-131.516"/>
<polygon fill="midnightblue" stroke="midnightblue" points="1043.05,-168.059 1053.63,-168.444 1045.6,-161.54 1043.05,-168.059"/>
</g>
<!-- Node22&#45;&gt;Node8 -->
<g id="edge39" class="edge"><title>Node22&#45;&gt;Node8</title>
<path fill="none" stroke="midnightblue" d="M1105.59,-107.301C1065.45,-84.3043 985.658,-38.5906 952.496,-19.5914"/>
<polygon fill="midnightblue" stroke="midnightblue" points="1104.02,-110.434 1114.43,-112.368 1107.5,-104.36 1104.02,-110.434"/>
</g>
</g>
</svg>
