<?xml version="1.0" encoding="UTF-8" standalone="no"?>
<!DOCTYPE svg PUBLIC "-//W3C//DTD SVG 1.1//EN"
 "http://www.w3.org/Graphics/SVG/1.1/DTD/svg11.dtd">
<!-- Generated by graphviz version 2.38.0 (20140413.2041)
 -->
<!-- Title: tstring.hpp Pages: 1 -->
<svg width="1988pt" height="196pt"
 viewBox="0.00 0.00 1987.50 196.00" xmlns="http://www.w3.org/2000/svg" xmlns:xlink="http://www.w3.org/1999/xlink">
<g id="graph0" class="graph" transform="scale(1 1) rotate(0) translate(4 192)">
<title>tstring.hpp</title>
<polygon fill="white" stroke="none" points="-4,4 -4,-192 1983.5,-192 1983.5,4 -4,4"/>
<!-- Node1 -->
<g id="node1" class="node"><title>Node1</title>
<polygon fill="#bfbfbf" stroke="black" points="1007,-168.5 1007,-187.5 1069,-187.5 1069,-168.5 1007,-168.5"/>
<text text-anchor="middle" x="1038" y="-175.5" font-family="Helvetica,sans-Serif" font-size="10.00">tstring.hpp</text>
</g>
<!-- Node2 -->
<g id="node2" class="node"><title>Node2</title>
<g id="a_node2"><a xlink:href="alib_8hpp.html" target="_top" xlink:title="alib/alib.hpp">
<polygon fill="white" stroke="black" points="1004,-112.5 1004,-131.5 1072,-131.5 1072,-112.5 1004,-112.5"/>
<text text-anchor="middle" x="1038" y="-119.5" font-family="Helvetica,sans-Serif" font-size="10.00">alib/alib.hpp</text>
</a>
</g>
</g>
<!-- Node1&#45;&gt;Node2 -->
<g id="edge1" class="edge"><title>Node1&#45;&gt;Node2</title>
<path fill="none" stroke="midnightblue" d="M1032.83,-168.083C1031.32,-160.927 1030.89,-150.635 1031.54,-141.691"/>
<polygon fill="midnightblue" stroke="midnightblue" points="1035.02,-142.126 1032.87,-131.751 1028.08,-141.2 1035.02,-142.126"/>
</g>
<!-- Node2&#45;&gt;Node1 -->
<g id="edge2" class="edge"><title>Node2&#45;&gt;Node1</title>
<path fill="none" stroke="midnightblue" d="M1043.13,-131.751C1044.66,-138.858 1045.1,-149.136 1044.47,-158.101"/>
<polygon fill="midnightblue" stroke="midnightblue" points="1040.99,-157.713 1043.17,-168.083 1047.93,-158.622 1040.99,-157.713"/>
</g>
<!-- Node3 -->
<g id="node3" class="node"><title>Node3</title>
<g id="a_node3"><a xlink:href="symbols_8hpp.html" target="_top" xlink:title="alib/core/symbols.hpp">
<polygon fill="white" stroke="black" points="0,-56.5 0,-75.5 112,-75.5 112,-56.5 0,-56.5"/>
<text text-anchor="middle" x="56" y="-63.5" font-family="Helvetica,sans-Serif" font-size="10.00">alib/core/symbols.hpp</text>
</a>
</g>
</g>
<!-- Node2&#45;&gt;Node3 -->
<g id="edge3" class="edge"><title>Node2&#45;&gt;Node3</title>
<path fill="none" stroke="midnightblue" d="M1003.78,-120.413C884.03,-118.129 472.523,-108.342 122.414,-76.0486"/>
<polygon fill="midnightblue" stroke="midnightblue" points="122.616,-72.5524 112.335,-75.1111 121.968,-79.5223 122.616,-72.5524"/>
</g>
<!-- Node4 -->
<g id="node4" class="node"><title>Node4</title>
<g id="a_node4"><a xlink:href="macros_8hpp.html" target="_top" xlink:title="alib/core/macros.hpp">
<polygon fill="white" stroke="black" points="130.5,-56.5 130.5,-75.5 237.5,-75.5 237.5,-56.5 130.5,-56.5"/>
<text text-anchor="middle" x="184" y="-63.5" font-family="Helvetica,sans-Serif" font-size="10.00">alib/core/macros.hpp</text>
</a>
</g>
</g>
<!-- Node2&#45;&gt;Node4 -->
<g id="edge4" class="edge"><title>Node2&#45;&gt;Node4</title>
<path fill="none" stroke="midnightblue" d="M1004,-120.1C895.423,-117.007 547.16,-105.396 247.761,-75.9795"/>
<polygon fill="midnightblue" stroke="midnightblue" points="247.875,-72.4738 237.579,-74.9703 247.185,-79.4396 247.875,-72.4738"/>
</g>
<!-- Node5 -->
<g id="node5" class="node"><title>Node5</title>
<polygon fill="white" stroke="#bfbfbf" points="256,-56.5 256,-75.5 308,-75.5 308,-56.5 256,-56.5"/>
<text text-anchor="middle" x="282" y="-63.5" font-family="Helvetica,sans-Serif" font-size="10.00">assert.h</text>
</g>
<!-- Node2&#45;&gt;Node5 -->
<g id="edge5" class="edge"><title>Node2&#45;&gt;Node5</title>
<path fill="none" stroke="midnightblue" d="M1003.97,-121.153C901.476,-121.135 586.804,-117.566 318.198,-75.8845"/>
<polygon fill="midnightblue" stroke="midnightblue" points="318.684,-72.4179 308.261,-74.3216 317.596,-79.3329 318.684,-72.4179"/>
</g>
<!-- Node6 -->
<g id="node6" class="node"><title>Node6</title>
<polygon fill="white" stroke="#bfbfbf" points="326.5,-56.5 326.5,-75.5 375.5,-75.5 375.5,-56.5 326.5,-56.5"/>
<text text-anchor="middle" x="351" y="-63.5" font-family="Helvetica,sans-Serif" font-size="10.00">cstddef</text>
</g>
<!-- Node2&#45;&gt;Node6 -->
<g id="edge6" class="edge"><title>Node2&#45;&gt;Node6</title>
<path fill="none" stroke="midnightblue" d="M1003.68,-121.016C907.357,-120.559 626.361,-115.784 385.732,-75.9885"/>
<polygon fill="midnightblue" stroke="midnightblue" points="386.19,-72.5167 375.749,-74.3134 385.032,-79.4202 386.19,-72.5167"/>
</g>
<!-- Node7 -->
<g id="node7" class="node"><title>Node7</title>
<polygon fill="white" stroke="#bfbfbf" points="393.5,-56.5 393.5,-75.5 456.5,-75.5 456.5,-56.5 393.5,-56.5"/>
<text text-anchor="middle" x="425" y="-63.5" font-family="Helvetica,sans-Serif" font-size="10.00">windows.h</text>
</g>
<!-- Node2&#45;&gt;Node7 -->
<g id="edge7" class="edge"><title>Node2&#45;&gt;Node7</title>
<path fill="none" stroke="midnightblue" d="M1003.97,-119.956C916.462,-116.925 676.393,-106.415 466.668,-75.8803"/>
<polygon fill="midnightblue" stroke="midnightblue" points="467.108,-72.4074 456.704,-74.411 466.087,-79.3325 467.108,-72.4074"/>
</g>
<!-- Node8 -->
<g id="node8" class="node"><title>Node8</title>
<polygon fill="white" stroke="#bfbfbf" points="474.5,-56.5 474.5,-75.5 523.5,-75.5 523.5,-56.5 474.5,-56.5"/>
<text text-anchor="middle" x="499" y="-63.5" font-family="Helvetica,sans-Serif" font-size="10.00">stdint.h</text>
</g>
<!-- Node2&#45;&gt;Node8 -->
<g id="edge8" class="edge"><title>Node2&#45;&gt;Node8</title>
<path fill="none" stroke="midnightblue" d="M1003.75,-119.954C923.311,-117.069 716.011,-107.156 533.805,-75.8294"/>
<polygon fill="midnightblue" stroke="midnightblue" points="534.227,-72.3502 523.774,-74.0784 533.023,-79.246 534.227,-72.3502"/>
</g>
<!-- Node9 -->
<g id="node9" class="node"><title>Node9</title>
<polygon fill="white" stroke="#bfbfbf" points="542,-56.5 542,-75.5 604,-75.5 604,-56.5 542,-56.5"/>
<text text-anchor="middle" x="573" y="-63.5" font-family="Helvetica,sans-Serif" font-size="10.00">type_traits</text>
</g>
<!-- Node2&#45;&gt;Node9 -->
<g id="edge9" class="edge"><title>Node2&#45;&gt;Node9</title>
<path fill="none" stroke="midnightblue" d="M1003.94,-118.739C933.149,-113.753 764.842,-100.399 614.267,-76.0406"/>
<polygon fill="midnightblue" stroke="midnightblue" points="614.81,-72.583 604.376,-74.4203 613.678,-79.4909 614.81,-72.583"/>
</g>
<!-- Node10 -->
<g id="node10" class="node"><title>Node10</title>
<polygon fill="white" stroke="#bfbfbf" points="622,-56.5 622,-75.5 662,-75.5 662,-56.5 622,-56.5"/>
<text text-anchor="middle" x="642" y="-63.5" font-family="Helvetica,sans-Serif" font-size="10.00">utility</text>
</g>
<!-- Node2&#45;&gt;Node10 -->
<g id="edge10" class="edge"><title>Node2&#45;&gt;Node10</title>
<path fill="none" stroke="midnightblue" d="M1003.88,-118.74C938.783,-114.004 792.61,-101.316 672,-76 671.9,-75.9791 671.8,-75.9579 671.7,-75.9366"/>
<polygon fill="midnightblue" stroke="midnightblue" points="672.763,-72.5947 662.214,-73.57 671.069,-79.3865 672.763,-72.5947"/>
</g>
<!-- Node11 -->
<g id="node11" class="node"><title>Node11</title>
<polygon fill="white" stroke="#bfbfbf" points="680.5,-56.5 680.5,-75.5 721.5,-75.5 721.5,-56.5 680.5,-56.5"/>
<text text-anchor="middle" x="701" y="-63.5" font-family="Helvetica,sans-Serif" font-size="10.00">stack</text>
</g>
<!-- Node2&#45;&gt;Node11 -->
<g id="edge11" class="edge"><title>Node2&#45;&gt;Node11</title>
<path fill="none" stroke="midnightblue" d="M1003.63,-117.618C948.282,-111.814 835.886,-98.554 731.321,-75.7593"/>
<polygon fill="midnightblue" stroke="midnightblue" points="732.073,-72.3411 721.553,-73.5965 730.56,-79.1756 732.073,-72.3411"/>
</g>
<!-- Node12 -->
<g id="node12" class="node"><title>Node12</title>
<g id="a_node12"><a xlink:href="enums_8hpp.html" target="_top" xlink:title="alib/core/enums.hpp">
<polygon fill="white" stroke="black" points="740,-56.5 740,-75.5 844,-75.5 844,-56.5 740,-56.5"/>
<text text-anchor="middle" x="792" y="-63.5" font-family="Helvetica,sans-Serif" font-size="10.00">alib/core/enums.hpp</text>
</a>
</g>
</g>
<!-- Node2&#45;&gt;Node12 -->
<g id="edge12" class="edge"><title>Node2&#45;&gt;Node12</title>
<path fill="none" stroke="midnightblue" d="M1003.74,-114.486C959.818,-105.399 883.886,-88.8003 835.821,-77.8337"/>
<polygon fill="midnightblue" stroke="midnightblue" points="836.538,-74.4074 826.009,-75.5837 834.974,-81.2303 836.538,-74.4074"/>
</g>
<!-- Node13 -->
<g id="node13" class="node"><title>Node13</title>
<g id="a_node13"><a xlink:href="report_8hpp.html" target="_top" xlink:title="alib/core/report.hpp">
<polygon fill="white" stroke="black" points="862,-56.5 862,-75.5 962,-75.5 962,-56.5 862,-56.5"/>
<text text-anchor="middle" x="912" y="-63.5" font-family="Helvetica,sans-Serif" font-size="10.00">alib/core/report.hpp</text>
</a>
</g>
</g>
<!-- Node2&#45;&gt;Node13 -->
<g id="edge13" class="edge"><title>Node2&#45;&gt;Node13</title>
<path fill="none" stroke="midnightblue" d="M1012.95,-112.444C990.563,-103.675 958.251,-89.9355 936.153,-79.8579"/>
<polygon fill="midnightblue" stroke="midnightblue" points="937.336,-76.5484 926.792,-75.5164 934.391,-82.8988 937.336,-76.5484"/>
</g>
<!-- Node14 -->
<g id="node14" class="node"><title>Node14</title>
<g id="a_node14"><a xlink:href="cstring_8hpp.html" target="_top" xlink:title="alib/strings/cstring.hpp">
<polygon fill="white" stroke="black" points="980.5,-56.5 980.5,-75.5 1095.5,-75.5 1095.5,-56.5 980.5,-56.5"/>
<text text-anchor="middle" x="1038" y="-63.5" font-family="Helvetica,sans-Serif" font-size="10.00">alib/strings/cstring.hpp</text>
</a>
</g>
</g>
<!-- Node2&#45;&gt;Node14 -->
<g id="edge14" class="edge"><title>Node2&#45;&gt;Node14</title>
<path fill="none" stroke="midnightblue" d="M1032.83,-112.083C1031.32,-104.927 1030.89,-94.6353 1031.54,-85.6911"/>
<polygon fill="midnightblue" stroke="midnightblue" points="1035.02,-86.1262 1032.87,-75.7511 1028.08,-85.2002 1035.02,-86.1262"/>
</g>
<!-- Node17 -->
<g id="node15" class="node"><title>Node17</title>
<g id="a_node15"><a xlink:href="string_8hpp.html" target="_top" xlink:title="alib/strings/string.hpp">
<polygon fill="white" stroke="black" points="1114,-56.5 1114,-75.5 1224,-75.5 1224,-56.5 1114,-56.5"/>
<text text-anchor="middle" x="1169" y="-63.5" font-family="Helvetica,sans-Serif" font-size="10.00">alib/strings/string.hpp</text>
</a>
</g>
</g>
<!-- Node2&#45;&gt;Node17 -->
<g id="edge15" class="edge"><title>Node2&#45;&gt;Node17</title>
<path fill="none" stroke="midnightblue" d="M1053.67,-112.444C1073.45,-103.478 1107.59,-89.314 1133.7,-79.1827"/>
<polygon fill="midnightblue" stroke="midnightblue" points="1135.18,-82.3639 1143.26,-75.5164 1132.67,-75.8277 1135.18,-82.3639"/>
</g>
<!-- Node20 -->
<g id="node16" class="node"><title>Node20</title>
<g id="a_node16"><a xlink:href="stringliteral_8hpp.html" target="_top" xlink:title="alib/strings/stringliteral.hpp">
<polygon fill="white" stroke="black" points="1242.5,-56.5 1242.5,-75.5 1375.5,-75.5 1375.5,-56.5 1242.5,-56.5"/>
<text text-anchor="middle" x="1309" y="-63.5" font-family="Helvetica,sans-Serif" font-size="10.00">alib/strings/stringliteral.hpp</text>
</a>
</g>
</g>
<!-- Node2&#45;&gt;Node20 -->
<g id="edge16" class="edge"><title>Node2&#45;&gt;Node20</title>
<path fill="none" stroke="midnightblue" d="M1072.2,-113.206C1117.28,-103.774 1196.96,-87.8612 1251.39,-77.3931"/>
<polygon fill="midnightblue" stroke="midnightblue" points="1252.08,-80.8243 1261.24,-75.5047 1250.76,-73.9494 1252.08,-80.8243"/>
</g>
<!-- Node21 -->
<g id="node17" class="node"><title>Node21</title>
<g id="a_node17"><a xlink:href="astring_8hpp.html" target="_top" xlink:title="alib/strings/astring.hpp">
<polygon fill="white" stroke="black" points="1548.5,-56.5 1548.5,-75.5 1663.5,-75.5 1663.5,-56.5 1548.5,-56.5"/>
<text text-anchor="middle" x="1606" y="-63.5" font-family="Helvetica,sans-Serif" font-size="10.00">alib/strings/astring.hpp</text>
</a>
</g>
</g>
<!-- Node2&#45;&gt;Node21 -->
<g id="edge17" class="edge"><title>Node2&#45;&gt;Node21</title>
<path fill="none" stroke="midnightblue" d="M1072.28,-118.111C1152.69,-111.73 1358.84,-95.444 1531,-76 1533.38,-75.7317 1535.8,-75.4481 1538.25,-75.1533"/>
<polygon fill="midnightblue" stroke="midnightblue" points="1538.94,-78.594 1548.44,-73.8897 1538.08,-71.6473 1538.94,-78.594"/>
</g>
<!-- Node23 -->
<g id="node18" class="node"><title>Node23</title>
<g id="a_node18"><a xlink:href="preallocatedstring_8hpp.html" target="_top" xlink:title="alib/strings/preallocatedstring.hpp">
<polygon fill="white" stroke="black" points="1682,-56.5 1682,-75.5 1844,-75.5 1844,-56.5 1682,-56.5"/>
<text text-anchor="middle" x="1763" y="-63.5" font-family="Helvetica,sans-Serif" font-size="10.00">alib/strings/preallocatedstring.hpp</text>
</a>
</g>
</g>
<!-- Node2&#45;&gt;Node23 -->
<g id="edge18" class="edge"><title>Node2&#45;&gt;Node23</title>
<path fill="none" stroke="midnightblue" d="M1072.31,-118.649C1166.86,-112.539 1438.26,-95.2819 1664,-76 1666.53,-75.7837 1669.1,-75.5587 1671.7,-75.3271"/>
<polygon fill="midnightblue" stroke="midnightblue" points="1672.19,-78.7972 1681.83,-74.4047 1671.56,-71.826 1672.19,-78.7972"/>
</g>
<!-- Node24 -->
<g id="node19" class="node"><title>Node24</title>
<g id="a_node19"><a xlink:href="applyto_8hpp.html" target="_top" xlink:title="alib/strings/applyto.hpp">
<polygon fill="white" stroke="black" points="1862.5,-56.5 1862.5,-75.5 1979.5,-75.5 1979.5,-56.5 1862.5,-56.5"/>
<text text-anchor="middle" x="1921" y="-63.5" font-family="Helvetica,sans-Serif" font-size="10.00">alib/strings/applyto.hpp</text>
</a>
</g>
</g>
<!-- Node2&#45;&gt;Node24 -->
<g id="edge19" class="edge"><title>Node2&#45;&gt;Node24</title>
<path fill="none" stroke="midnightblue" d="M1072.34,-119.927C1183.97,-116.43 1545.59,-103.945 1844,-76 1846.69,-75.7484 1849.43,-75.4709 1852.21,-75.174"/>
<polygon fill="midnightblue" stroke="midnightblue" points="1852.81,-78.6281 1862.35,-74.0257 1852.02,-71.6725 1852.81,-78.6281"/>
</g>
<!-- Node25 -->
<g id="node20" class="node"><title>Node25</title>
<g id="a_node20"><a xlink:href="applyformat_8hpp.html" target="_top" xlink:title="alib/strings/applyformat.hpp">
<polygon fill="white" stroke="black" points="1393.5,-56.5 1393.5,-75.5 1530.5,-75.5 1530.5,-56.5 1393.5,-56.5"/>
<text text-anchor="middle" x="1462" y="-63.5" font-family="Helvetica,sans-Serif" font-size="10.00">alib/strings/applyformat.hpp</text>
</a>
</g>
</g>
<!-- Node2&#45;&gt;Node25 -->
<g id="edge20" class="edge"><title>Node2&#45;&gt;Node25</title>
<path fill="none" stroke="midnightblue" d="M1072.29,-116.113C1139.6,-107.145 1290.12,-87.9243 1383.2,-76.3662"/>
<polygon fill="midnightblue" stroke="midnightblue" points="1383.64,-79.8378 1393.14,-75.1341 1382.78,-72.891 1383.64,-79.8378"/>
</g>
<!-- Node12&#45;&gt;Node2 -->
<g id="edge21" class="edge"><title>Node12&#45;&gt;Node2</title>
<path fill="none" stroke="midnightblue" d="M835.877,-75.5164C880.6,-84.8809 949.4,-99.95 994.12,-110.153"/>
<polygon fill="midnightblue" stroke="midnightblue" points="993.58,-113.62 1004.11,-112.444 995.145,-106.797 993.58,-113.62"/>
</g>
<!-- Node13&#45;&gt;Node2 -->
<g id="edge22" class="edge"><title>Node13&#45;&gt;Node2</title>
<path fill="none" stroke="midnightblue" d="M936.952,-75.5164C959.405,-84.3091 991.908,-98.1312 1014.04,-108.232"/>
<polygon fill="midnightblue" stroke="midnightblue" points="1012.58,-111.411 1023.12,-112.444 1015.52,-105.061 1012.58,-111.411"/>
</g>
<!-- Node14&#45;&gt;Node2 -->
<g id="edge23" class="edge"><title>Node14&#45;&gt;Node2</title>
<path fill="none" stroke="midnightblue" d="M1043.13,-75.7511C1044.66,-82.8579 1045.1,-93.1357 1044.47,-102.101"/>
<polygon fill="midnightblue" stroke="midnightblue" points="1040.99,-101.713 1043.17,-112.083 1047.93,-102.622 1040.99,-101.713"/>
</g>
<!-- Node15 -->
<g id="node21" class="node"><title>Node15</title>
<polygon fill="white" stroke="#bfbfbf" points="1045,-0.5 1045,-19.5 1091,-19.5 1091,-0.5 1045,-0.5"/>
<text text-anchor="middle" x="1068" y="-7.5" font-family="Helvetica,sans-Serif" font-size="10.00">cstring</text>
</g>
<!-- Node14&#45;&gt;Node15 -->
<g id="edge24" class="edge"><title>Node14&#45;&gt;Node15</title>
<path fill="none" stroke="midnightblue" d="M1042.95,-56.083C1047.1,-48.6127 1053.15,-37.7244 1058.27,-28.5199"/>
<polygon fill="midnightblue" stroke="midnightblue" points="1061.34,-30.1924 1063.14,-19.7511 1055.22,-26.7929 1061.34,-30.1924"/>
</g>
<!-- Node16 -->
<g id="node22" class="node"><title>Node16</title>
<polygon fill="white" stroke="#bfbfbf" points="987,-0.5 987,-19.5 1027,-19.5 1027,-0.5 987,-0.5"/>
<text text-anchor="middle" x="1007" y="-7.5" font-family="Helvetica,sans-Serif" font-size="10.00">limits</text>
</g>
<!-- Node14&#45;&gt;Node16 -->
<g id="edge25" class="edge"><title>Node14&#45;&gt;Node16</title>
<path fill="none" stroke="midnightblue" d="M1032.88,-56.083C1028.59,-48.6127 1022.34,-37.7244 1017.06,-28.5199"/>
<polygon fill="midnightblue" stroke="midnightblue" points="1020.04,-26.6811 1012.02,-19.7511 1013.97,-30.1662 1020.04,-26.6811"/>
</g>
<!-- Node17&#45;&gt;Node2 -->
<g id="edge26" class="edge"><title>Node17&#45;&gt;Node2</title>
<path fill="none" stroke="midnightblue" d="M1153.42,-75.5164C1133.68,-84.4669 1099.55,-98.6287 1073.42,-108.772"/>
<polygon fill="midnightblue" stroke="midnightblue" points="1071.93,-105.595 1063.85,-112.444 1074.44,-112.131 1071.93,-105.595"/>
</g>
<!-- Node18 -->
<g id="node23" class="node"><title>Node18</title>
<polygon fill="white" stroke="#bfbfbf" points="1184.5,-0.5 1184.5,-19.5 1229.5,-19.5 1229.5,-0.5 1184.5,-0.5"/>
<text text-anchor="middle" x="1207" y="-7.5" font-family="Helvetica,sans-Serif" font-size="10.00">iosfwd</text>
</g>
<!-- Node17&#45;&gt;Node18 -->
<g id="edge27" class="edge"><title>Node17&#45;&gt;Node18</title>
<path fill="none" stroke="midnightblue" d="M1175.27,-56.083C1180.64,-48.4554 1188.52,-37.2645 1195.08,-27.9408"/>
<polygon fill="midnightblue" stroke="midnightblue" points="1197.95,-29.9434 1200.84,-19.7511 1192.22,-25.9149 1197.95,-29.9434"/>
</g>
<!-- Node19 -->
<g id="node24" class="node"><title>Node19</title>
<polygon fill="white" stroke="#bfbfbf" points="1286,-0.5 1286,-19.5 1332,-19.5 1332,-0.5 1286,-0.5"/>
<text text-anchor="middle" x="1309" y="-7.5" font-family="Helvetica,sans-Serif" font-size="10.00">cctype</text>
</g>
<!-- Node17&#45;&gt;Node19 -->
<g id="edge28" class="edge"><title>Node17&#45;&gt;Node19</title>
<path fill="none" stroke="midnightblue" d="M1191.18,-56.4435C1214.43,-47.4776 1251.15,-33.314 1277.42,-23.1827"/>
<polygon fill="midnightblue" stroke="midnightblue" points="1278.85,-26.3807 1286.92,-19.5164 1276.33,-19.8497 1278.85,-26.3807"/>
</g>
<!-- Node20&#45;&gt;Node2 -->
<g id="edge29" class="edge"><title>Node20&#45;&gt;Node2</title>
<path fill="none" stroke="midnightblue" d="M1271.37,-75.5111C1221.77,-85.8477 1134.93,-103.141 1082.25,-113.163"/>
<polygon fill="midnightblue" stroke="midnightblue" points="1081.37,-109.768 1072.19,-115.067 1082.67,-116.646 1081.37,-109.768"/>
</g>
<!-- Node20&#45;&gt;Node18 -->
<g id="edge30" class="edge"><title>Node20&#45;&gt;Node18</title>
<path fill="none" stroke="midnightblue" d="M1292.61,-56.324C1276.33,-47.7034 1251.13,-34.3643 1232.28,-24.3855"/>
<polygon fill="midnightblue" stroke="midnightblue" points="1233.82,-21.2402 1223.35,-19.6545 1230.55,-27.4267 1233.82,-21.2402"/>
</g>
<!-- Node20&#45;&gt;Node19 -->
<g id="edge31" class="edge"><title>Node20&#45;&gt;Node19</title>
<path fill="none" stroke="midnightblue" d="M1309,-56.083C1309,-49.0059 1309,-38.8611 1309,-29.9865"/>
<polygon fill="midnightblue" stroke="midnightblue" points="1312.5,-29.751 1309,-19.7511 1305.5,-29.7511 1312.5,-29.751"/>
</g>
<!-- Node21&#45;&gt;Node2 -->
<g id="edge32" class="edge"><title>Node21&#45;&gt;Node2</title>
<path fill="none" stroke="midnightblue" d="M1553.18,-75.5181C1551.77,-75.6833 1550.38,-75.8443 1549,-76 1376.92,-95.4356 1170.87,-111.716 1082.07,-118.103"/>
<polygon fill="midnightblue" stroke="midnightblue" points="1081.81,-114.613 1072.08,-118.815 1082.3,-121.595 1081.81,-114.613"/>
</g>
<!-- Node22 -->
<g id="node25" class="node"><title>Node22</title>
<polygon fill="white" stroke="#bfbfbf" points="1582,-0.5 1582,-19.5 1630,-19.5 1630,-0.5 1582,-0.5"/>
<text text-anchor="middle" x="1606" y="-7.5" font-family="Helvetica,sans-Serif" font-size="10.00">stdlib.h</text>
</g>
<!-- Node21&#45;&gt;Node22 -->
<g id="edge33" class="edge"><title>Node21&#45;&gt;Node22</title>
<path fill="none" stroke="midnightblue" d="M1606,-56.083C1606,-49.0059 1606,-38.8611 1606,-29.9865"/>
<polygon fill="midnightblue" stroke="midnightblue" points="1609.5,-29.751 1606,-19.7511 1602.5,-29.7511 1609.5,-29.751"/>
</g>
<!-- Node23&#45;&gt;Node2 -->
<g id="edge34" class="edge"><title>Node23&#45;&gt;Node2</title>
<path fill="none" stroke="midnightblue" d="M1687.69,-75.5055C1685.78,-75.6745 1683.88,-75.8396 1682,-76 1457.1,-95.21 1186.88,-112.41 1082.23,-118.581"/>
<polygon fill="midnightblue" stroke="midnightblue" points="1081.82,-115.099 1072.04,-119.177 1082.23,-122.087 1081.82,-115.099"/>
</g>
<!-- Node24&#45;&gt;Node2 -->
<g id="edge35" class="edge"><title>Node24&#45;&gt;Node2</title>
<path fill="none" stroke="midnightblue" d="M1867.04,-75.5055C1865.34,-75.6792 1863.66,-75.8446 1862,-76 1565.53,-103.763 1206.67,-116.267 1082.6,-119.857"/>
<polygon fill="midnightblue" stroke="midnightblue" points="1082.25,-116.366 1072.35,-120.149 1082.45,-123.363 1082.25,-116.366"/>
</g>
<!-- Node25&#45;&gt;Node2 -->
<g id="edge36" class="edge"><title>Node25&#45;&gt;Node2</title>
<path fill="none" stroke="midnightblue" d="M1400.15,-75.5248C1313.54,-86.8724 1158.45,-106.586 1082.39,-115.877"/>
<polygon fill="midnightblue" stroke="midnightblue" points="1081.7,-112.434 1072.2,-117.116 1082.55,-119.383 1081.7,-112.434"/>
</g>
<!-- Node25&#45;&gt;Node19 -->
<g id="edge37" class="edge"><title>Node25&#45;&gt;Node19</title>
<path fill="none" stroke="midnightblue" d="M1437.76,-56.4435C1411.83,-47.2922 1370.56,-32.726 1341.75,-22.5594"/>
<polygon fill="midnightblue" stroke="midnightblue" points="1342.72,-19.1907 1332.13,-19.1629 1340.39,-25.7917 1342.72,-19.1907"/>
</g>
</g>
</svg>
