<?xml version="1.0" encoding="UTF-8" standalone="no"?>
<!DOCTYPE svg PUBLIC "-//W3C//DTD SVG 1.1//EN"
 "http://www.w3.org/Graphics/SVG/1.1/DTD/svg11.dtd">
<!-- Generated by graphviz version 2.38.0 (20140413.2041)
 -->
<!-- Title: util.hpp Pages: 1 -->
<svg width="1637pt" height="252pt"
 viewBox="0.00 0.00 1637.11 252.00" xmlns="http://www.w3.org/2000/svg" xmlns:xlink="http://www.w3.org/1999/xlink">
<g id="graph0" class="graph" transform="scale(1 1) rotate(0) translate(4 248)">
<title>util.hpp</title>
<polygon fill="white" stroke="none" points="-4,4 -4,-248 1633.11,-248 1633.11,4 -4,4"/>
<!-- Node1 -->
<g id="node1" class="node"><title>Node1</title>
<polygon fill="#bfbfbf" stroke="black" points="1232.5,-224.5 1232.5,-243.5 1280.5,-243.5 1280.5,-224.5 1232.5,-224.5"/>
<text text-anchor="middle" x="1256.5" y="-231.5" font-family="Helvetica,sans-Serif" font-size="10.00">util.hpp</text>
</g>
<!-- Node2 -->
<g id="node2" class="node"><title>Node2</title>
<g id="a_node2"><a xlink:href="alib_8hpp.html" target="_top" xlink:title="alib/alib.hpp">
<polygon fill="white" stroke="black" points="842.5,-168.5 842.5,-187.5 910.5,-187.5 910.5,-168.5 842.5,-168.5"/>
<text text-anchor="middle" x="876.5" y="-175.5" font-family="Helvetica,sans-Serif" font-size="10.00">alib/alib.hpp</text>
</a>
</g>
</g>
<!-- Node1&#45;&gt;Node2 -->
<g id="edge1" class="edge"><title>Node1&#45;&gt;Node2</title>
<path fill="none" stroke="midnightblue" d="M1232.44,-229.581C1169.99,-220.706 1001.94,-196.826 921.119,-185.341"/>
<polygon fill="midnightblue" stroke="midnightblue" points="921.17,-181.813 910.777,-183.871 920.185,-188.743 921.17,-181.813"/>
</g>
<!-- Node17 -->
<g id="node17" class="node"><title>Node17</title>
<polygon fill="white" stroke="#bfbfbf" points="939,-0.5 939,-19.5 984,-19.5 984,-0.5 939,-0.5"/>
<text text-anchor="middle" x="961.5" y="-7.5" font-family="Helvetica,sans-Serif" font-size="10.00">iosfwd</text>
</g>
<!-- Node1&#45;&gt;Node17 -->
<g id="edge41" class="edge"><title>Node1&#45;&gt;Node17</title>
<path fill="none" stroke="midnightblue" d="M1280.61,-230.014C1354.56,-220.314 1575.71,-187.089 1617.5,-132 1627.54,-118.772 1638.16,-80.0278 1614.5,-56 1570.68,-11.501 1120.55,-10.2438 994.277,-10.7764"/>
<polygon fill="midnightblue" stroke="midnightblue" points="994.062,-7.27732 984.079,-10.8265 994.096,-14.2772 994.062,-7.27732"/>
</g>
<!-- Node3 -->
<g id="node3" class="node"><title>Node3</title>
<g id="a_node3"><a xlink:href="symbols_8hpp.html" target="_top" xlink:title="alib/core/symbols.hpp">
<polygon fill="white" stroke="black" points="727.5,-112.5 727.5,-131.5 839.5,-131.5 839.5,-112.5 727.5,-112.5"/>
<text text-anchor="middle" x="783.5" y="-119.5" font-family="Helvetica,sans-Serif" font-size="10.00">alib/core/symbols.hpp</text>
</a>
</g>
</g>
<!-- Node2&#45;&gt;Node3 -->
<g id="edge2" class="edge"><title>Node2&#45;&gt;Node3</title>
<path fill="none" stroke="midnightblue" d="M861.558,-168.324C846.915,-159.822 824.366,-146.729 807.262,-136.797"/>
<polygon fill="midnightblue" stroke="midnightblue" points="808.81,-133.649 798.405,-131.655 805.295,-139.703 808.81,-133.649"/>
</g>
<!-- Node4 -->
<g id="node4" class="node"><title>Node4</title>
<g id="a_node4"><a xlink:href="macros_8hpp.html" target="_top" xlink:title="alib/core/macros.hpp">
<polygon fill="white" stroke="black" points="1431,-112.5 1431,-131.5 1538,-131.5 1538,-112.5 1431,-112.5"/>
<text text-anchor="middle" x="1484.5" y="-119.5" font-family="Helvetica,sans-Serif" font-size="10.00">alib/core/macros.hpp</text>
</a>
</g>
</g>
<!-- Node2&#45;&gt;Node4 -->
<g id="edge3" class="edge"><title>Node2&#45;&gt;Node4</title>
<path fill="none" stroke="midnightblue" d="M910.751,-174.917C995.465,-169.607 1221.79,-154.457 1420.71,-132.145"/>
<polygon fill="midnightblue" stroke="midnightblue" points="1421.21,-135.61 1430.76,-131.009 1420.43,-128.655 1421.21,-135.61"/>
</g>
<!-- Node5 -->
<g id="node5" class="node"><title>Node5</title>
<polygon fill="white" stroke="#bfbfbf" points="1556.5,-112.5 1556.5,-131.5 1608.5,-131.5 1608.5,-112.5 1556.5,-112.5"/>
<text text-anchor="middle" x="1582.5" y="-119.5" font-family="Helvetica,sans-Serif" font-size="10.00">assert.h</text>
</g>
<!-- Node2&#45;&gt;Node5 -->
<g id="edge4" class="edge"><title>Node2&#45;&gt;Node5</title>
<path fill="none" stroke="midnightblue" d="M910.614,-176.929C1008.38,-176.257 1297.94,-170.995 1546.3,-131.894"/>
<polygon fill="midnightblue" stroke="midnightblue" points="1546.91,-135.341 1556.24,-130.308 1545.81,-128.428 1546.91,-135.341"/>
</g>
<!-- Node6 -->
<g id="node6" class="node"><title>Node6</title>
<polygon fill="white" stroke="#bfbfbf" points="0,-112.5 0,-131.5 49,-131.5 49,-112.5 0,-112.5"/>
<text text-anchor="middle" x="24.5" y="-119.5" font-family="Helvetica,sans-Serif" font-size="10.00">cstddef</text>
</g>
<!-- Node2&#45;&gt;Node6 -->
<g id="edge5" class="edge"><title>Node2&#45;&gt;Node6</title>
<path fill="none" stroke="midnightblue" d="M842.102,-176.079C709.603,-172.386 231.488,-157.664 59.1715,-131.904"/>
<polygon fill="midnightblue" stroke="midnightblue" points="59.6636,-128.438 49.2429,-130.351 58.582,-135.354 59.6636,-128.438"/>
</g>
<!-- Node7 -->
<g id="node7" class="node"><title>Node7</title>
<polygon fill="white" stroke="#bfbfbf" points="67,-112.5 67,-131.5 130,-131.5 130,-112.5 67,-112.5"/>
<text text-anchor="middle" x="98.5" y="-119.5" font-family="Helvetica,sans-Serif" font-size="10.00">windows.h</text>
</g>
<!-- Node2&#45;&gt;Node7 -->
<g id="edge6" class="edge"><title>Node2&#45;&gt;Node7</title>
<path fill="none" stroke="midnightblue" d="M842.468,-176.861C738.513,-176.027 415.931,-170.412 140.482,-132.073"/>
<polygon fill="midnightblue" stroke="midnightblue" points="140.682,-128.567 130.292,-130.636 139.705,-135.498 140.682,-128.567"/>
</g>
<!-- Node8 -->
<g id="node8" class="node"><title>Node8</title>
<polygon fill="white" stroke="#bfbfbf" points="148,-112.5 148,-131.5 197,-131.5 197,-112.5 148,-112.5"/>
<text text-anchor="middle" x="172.5" y="-119.5" font-family="Helvetica,sans-Serif" font-size="10.00">stdint.h</text>
</g>
<!-- Node2&#45;&gt;Node8 -->
<g id="edge7" class="edge"><title>Node2&#45;&gt;Node8</title>
<path fill="none" stroke="midnightblue" d="M842.423,-177.008C744.769,-176.546 455.554,-171.79 207.195,-131.765"/>
<polygon fill="midnightblue" stroke="midnightblue" points="207.697,-128.301 197.263,-130.142 206.568,-135.209 207.697,-128.301"/>
</g>
<!-- Node9 -->
<g id="node9" class="node"><title>Node9</title>
<polygon fill="white" stroke="#bfbfbf" points="215.5,-112.5 215.5,-131.5 277.5,-131.5 277.5,-112.5 215.5,-112.5"/>
<text text-anchor="middle" x="246.5" y="-119.5" font-family="Helvetica,sans-Serif" font-size="10.00">type_traits</text>
</g>
<!-- Node2&#45;&gt;Node9 -->
<g id="edge8" class="edge"><title>Node2&#45;&gt;Node9</title>
<path fill="none" stroke="midnightblue" d="M842.385,-176.129C752.901,-173.476 503.981,-163.733 287.805,-131.988"/>
<polygon fill="midnightblue" stroke="midnightblue" points="288.268,-128.518 277.862,-130.508 287.238,-135.442 288.268,-128.518"/>
</g>
<!-- Node10 -->
<g id="node10" class="node"><title>Node10</title>
<polygon fill="white" stroke="#bfbfbf" points="295.5,-112.5 295.5,-131.5 335.5,-131.5 335.5,-112.5 295.5,-112.5"/>
<text text-anchor="middle" x="315.5" y="-119.5" font-family="Helvetica,sans-Serif" font-size="10.00">utility</text>
</g>
<!-- Node2&#45;&gt;Node10 -->
<g id="edge9" class="edge"><title>Node2&#45;&gt;Node10</title>
<path fill="none" stroke="midnightblue" d="M842.227,-176.66C758.618,-175.29 537.591,-168.401 345.625,-131.798"/>
<polygon fill="midnightblue" stroke="midnightblue" points="346.122,-128.329 335.639,-129.861 344.789,-135.201 346.122,-128.329"/>
</g>
<!-- Node11 -->
<g id="node11" class="node"><title>Node11</title>
<g id="a_node11"><a xlink:href="enums_8hpp.html" target="_top" xlink:title="alib/core/enums.hpp">
<polygon fill="white" stroke="black" points="353.5,-112.5 353.5,-131.5 457.5,-131.5 457.5,-112.5 353.5,-112.5"/>
<text text-anchor="middle" x="405.5" y="-119.5" font-family="Helvetica,sans-Serif" font-size="10.00">alib/core/enums.hpp</text>
</a>
</g>
</g>
<!-- Node2&#45;&gt;Node11 -->
<g id="edge10" class="edge"><title>Node2&#45;&gt;Node11</title>
<path fill="none" stroke="midnightblue" d="M842.447,-174.154C772.422,-167.699 607.855,-151.115 464.264,-132.856"/>
<polygon fill="midnightblue" stroke="midnightblue" points="464.327,-129.336 453.963,-131.539 463.439,-136.279 464.327,-129.336"/>
</g>
<!-- Node12 -->
<g id="node12" class="node"><title>Node12</title>
<g id="a_node12"><a xlink:href="report_8hpp.html" target="_top" xlink:title="alib/core/report.hpp">
<polygon fill="white" stroke="black" points="475.5,-112.5 475.5,-131.5 575.5,-131.5 575.5,-112.5 475.5,-112.5"/>
<text text-anchor="middle" x="525.5" y="-119.5" font-family="Helvetica,sans-Serif" font-size="10.00">alib/core/report.hpp</text>
</a>
</g>
</g>
<!-- Node2&#45;&gt;Node12 -->
<g id="edge12" class="edge"><title>Node2&#45;&gt;Node12</title>
<path fill="none" stroke="midnightblue" d="M842.273,-172.349C782.774,-163.675 659.93,-144.848 585.87,-133.119"/>
<polygon fill="midnightblue" stroke="midnightblue" points="586.181,-129.625 575.756,-131.513 585.083,-136.538 586.181,-129.625"/>
</g>
<!-- Node13 -->
<g id="node13" class="node"><title>Node13</title>
<g id="a_node13"><a xlink:href="cstring_8hpp.html" target="_top" xlink:title="alib/strings/cstring.hpp">
<polygon fill="white" stroke="black" points="594,-112.5 594,-131.5 709,-131.5 709,-112.5 594,-112.5"/>
<text text-anchor="middle" x="651.5" y="-119.5" font-family="Helvetica,sans-Serif" font-size="10.00">alib/strings/cstring.hpp</text>
</a>
</g>
</g>
<!-- Node2&#45;&gt;Node13 -->
<g id="edge14" class="edge"><title>Node2&#45;&gt;Node13</title>
<path fill="none" stroke="midnightblue" d="M842.354,-169.94C801.933,-160.809 734.964,-144.804 691.988,-134.054"/>
<polygon fill="midnightblue" stroke="midnightblue" points="692.692,-130.622 682.14,-131.576 690.984,-137.411 692.692,-130.622"/>
</g>
<!-- Node16 -->
<g id="node16" class="node"><title>Node16</title>
<g id="a_node16"><a xlink:href="as_8hpp.html" target="_top" xlink:title="alib/strings/as.hpp">
<polygon fill="white" stroke="black" points="632.5,-56.5 632.5,-75.5 728.5,-75.5 728.5,-56.5 632.5,-56.5"/>
<text text-anchor="middle" x="680.5" y="-63.5" font-family="Helvetica,sans-Serif" font-size="10.00">alib/strings/as.hpp</text>
</a>
</g>
</g>
<!-- Node2&#45;&gt;Node16 -->
<g id="edge18" class="edge"><title>Node2&#45;&gt;Node16</title>
<path fill="none" stroke="midnightblue" d="M869.694,-168.431C863.736,-154.487 856.789,-126.947 839.5,-112 823.339,-98.0276 773.712,-85.7524 734.075,-77.5673"/>
<polygon fill="midnightblue" stroke="midnightblue" points="734.735,-74.1301 724.239,-75.576 733.346,-80.9908 734.735,-74.1301"/>
</g>
<!-- Node19 -->
<g id="node19" class="node"><title>Node19</title>
<g id="a_node19"><a xlink:href="ns__aworx_8hpp.html" target="_top" xlink:title="alib/core/ns_aworx.hpp">
<polygon fill="white" stroke="black" points="1296,-112.5 1296,-131.5 1413,-131.5 1413,-112.5 1296,-112.5"/>
<text text-anchor="middle" x="1354.5" y="-119.5" font-family="Helvetica,sans-Serif" font-size="10.00">alib/core/ns_aworx.hpp</text>
</a>
</g>
</g>
<!-- Node2&#45;&gt;Node19 -->
<g id="edge22" class="edge"><title>Node2&#45;&gt;Node19</title>
<path fill="none" stroke="midnightblue" d="M910.622,-172.781C979.321,-164.991 1138.47,-147.708 1272.5,-132 1276.83,-131.493 1281.3,-130.961 1285.81,-130.421"/>
<polygon fill="midnightblue" stroke="midnightblue" points="1286.24,-133.895 1295.75,-129.228 1285.4,-126.945 1286.24,-133.895"/>
</g>
<!-- Node20 -->
<g id="node20" class="node"><title>Node20</title>
<g id="a_node20"><a xlink:href="namespace_8hpp.html" target="_top" xlink:title="alib/strings/namespace.hpp">
<polygon fill="white" stroke="black" points="1027.5,-112.5 1027.5,-131.5 1163.5,-131.5 1163.5,-112.5 1027.5,-112.5"/>
<text text-anchor="middle" x="1095.5" y="-119.5" font-family="Helvetica,sans-Serif" font-size="10.00">alib/strings/namespace.hpp</text>
</a>
</g>
</g>
<!-- Node2&#45;&gt;Node20 -->
<g id="edge24" class="edge"><title>Node2&#45;&gt;Node20</title>
<path fill="none" stroke="midnightblue" d="M906.112,-168.444C942.023,-159.083 1002.81,-144.056 1045.89,-133.868"/>
<polygon fill="midnightblue" stroke="midnightblue" points="1046.95,-137.214 1055.88,-131.516 1045.35,-130.4 1046.95,-137.214"/>
</g>
<!-- Node11&#45;&gt;Node2 -->
<g id="edge11" class="edge"><title>Node11&#45;&gt;Node2</title>
<path fill="none" stroke="midnightblue" d="M457.709,-129.59C463.738,-130.436 469.767,-131.263 475.5,-132 604.965,-148.65 757.935,-164.404 832.047,-172.097"/>
<polygon fill="midnightblue" stroke="midnightblue" points="832.089,-175.62 842.397,-173.172 832.813,-168.657 832.089,-175.62"/>
</g>
<!-- Node12&#45;&gt;Node2 -->
<g id="edge13" class="edge"><title>Node12&#45;&gt;Node2</title>
<path fill="none" stroke="midnightblue" d="M575.758,-130.006C644.588,-140.186 766.853,-158.989 832.344,-169.46"/>
<polygon fill="midnightblue" stroke="midnightblue" points="831.922,-172.937 842.35,-171.067 833.031,-166.026 831.922,-172.937"/>
</g>
<!-- Node13&#45;&gt;Node2 -->
<g id="edge15" class="edge"><title>Node13&#45;&gt;Node2</title>
<path fill="none" stroke="midnightblue" d="M692.065,-131.516C732.887,-140.822 795.292,-155.76 836.064,-165.959"/>
<polygon fill="midnightblue" stroke="midnightblue" points="835.385,-169.397 845.937,-168.444 837.093,-162.609 835.385,-169.397"/>
</g>
<!-- Node14 -->
<g id="node14" class="node"><title>Node14</title>
<polygon fill="white" stroke="#bfbfbf" points="510.5,-56.5 510.5,-75.5 556.5,-75.5 556.5,-56.5 510.5,-56.5"/>
<text text-anchor="middle" x="533.5" y="-63.5" font-family="Helvetica,sans-Serif" font-size="10.00">cstring</text>
</g>
<!-- Node13&#45;&gt;Node14 -->
<g id="edge16" class="edge"><title>Node13&#45;&gt;Node14</title>
<path fill="none" stroke="midnightblue" d="M632.803,-112.444C613.556,-103.636 583.348,-89.8116 561.3,-79.722"/>
<polygon fill="midnightblue" stroke="midnightblue" points="562.66,-76.4951 552.11,-75.5164 559.747,-82.8603 562.66,-76.4951"/>
</g>
<!-- Node15 -->
<g id="node15" class="node"><title>Node15</title>
<polygon fill="white" stroke="#bfbfbf" points="574.5,-56.5 574.5,-75.5 614.5,-75.5 614.5,-56.5 574.5,-56.5"/>
<text text-anchor="middle" x="594.5" y="-63.5" font-family="Helvetica,sans-Serif" font-size="10.00">limits</text>
</g>
<!-- Node13&#45;&gt;Node15 -->
<g id="edge17" class="edge"><title>Node13&#45;&gt;Node15</title>
<path fill="none" stroke="midnightblue" d="M642.342,-112.324C633.999,-104.42 621.468,-92.5482 611.323,-82.9377"/>
<polygon fill="midnightblue" stroke="midnightblue" points="613.491,-80.1705 603.825,-75.8339 608.677,-85.2522 613.491,-80.1705"/>
</g>
<!-- Node16&#45;&gt;Node2 -->
<g id="edge19" class="edge"><title>Node16&#45;&gt;Node2</title>
<path fill="none" stroke="midnightblue" d="M728.539,-73.84C774.312,-81.7235 838.655,-95.708 857.5,-112 871.142,-123.794 878.345,-143.429 880.312,-158.038"/>
<polygon fill="midnightblue" stroke="midnightblue" points="876.834,-158.602 880.79,-168.431 883.827,-158.28 876.834,-158.602"/>
</g>
<!-- Node16&#45;&gt;Node17 -->
<g id="edge20" class="edge"><title>Node16&#45;&gt;Node17</title>
<path fill="none" stroke="midnightblue" d="M725.025,-56.4435C781.805,-45.5321 878.643,-26.9227 928.969,-17.2515"/>
<polygon fill="midnightblue" stroke="midnightblue" points="929.812,-20.6537 938.971,-15.3294 928.49,-13.7795 929.812,-20.6537"/>
</g>
<!-- Node18 -->
<g id="node18" class="node"><title>Node18</title>
<polygon fill="white" stroke="#bfbfbf" points="792.5,-0.5 792.5,-19.5 838.5,-19.5 838.5,-0.5 792.5,-0.5"/>
<text text-anchor="middle" x="815.5" y="-7.5" font-family="Helvetica,sans-Serif" font-size="10.00">cctype</text>
</g>
<!-- Node16&#45;&gt;Node18 -->
<g id="edge21" class="edge"><title>Node16&#45;&gt;Node18</title>
<path fill="none" stroke="midnightblue" d="M701.891,-56.4435C724.207,-47.5171 759.403,-33.4387 784.708,-23.3168"/>
<polygon fill="midnightblue" stroke="midnightblue" points="786.224,-26.4801 794.209,-19.5164 783.624,-19.9807 786.224,-26.4801"/>
</g>
<!-- Node19&#45;&gt;Node2 -->
<g id="edge23" class="edge"><title>Node19&#45;&gt;Node2</title>
<path fill="none" stroke="midnightblue" d="M1295.89,-131.364C1294.08,-131.58 1292.28,-131.792 1290.5,-132 1156.28,-147.729 996.877,-165.039 920.858,-172.814"/>
<polygon fill="midnightblue" stroke="midnightblue" points="920.291,-169.353 910.696,-173.846 920.998,-176.317 920.291,-169.353"/>
</g>
<!-- Node20&#45;&gt;Node2 -->
<g id="edge25" class="edge"><title>Node20&#45;&gt;Node2</title>
<path fill="none" stroke="midnightblue" d="M1065.76,-131.59C1028.32,-141.347 963.984,-157.228 920.782,-167.39"/>
<polygon fill="midnightblue" stroke="midnightblue" points="919.765,-164.033 910.824,-169.717 921.358,-170.849 919.765,-164.033"/>
</g>
<!-- Node21 -->
<g id="node21" class="node"><title>Node21</title>
<g id="a_node21"><a xlink:href="asterminatable_8hpp.html" target="_top" xlink:title="alib/strings/asterminatable.hpp">
<polygon fill="white" stroke="black" points="1039,-56.5 1039,-75.5 1188,-75.5 1188,-56.5 1039,-56.5"/>
<text text-anchor="middle" x="1113.5" y="-63.5" font-family="Helvetica,sans-Serif" font-size="10.00">alib/strings/asterminatable.hpp</text>
</a>
</g>
</g>
<!-- Node20&#45;&gt;Node21 -->
<g id="edge26" class="edge"><title>Node20&#45;&gt;Node21</title>
<path fill="none" stroke="midnightblue" d="M1098.47,-112.083C1100.88,-104.849 1104.36,-94.4087 1107.37,-85.3968"/>
<polygon fill="midnightblue" stroke="midnightblue" points="1110.74,-86.3447 1110.58,-75.7511 1104.1,-84.1311 1110.74,-86.3447"/>
</g>
<!-- Node22 -->
<g id="node22" class="node"><title>Node22</title>
<g id="a_node22"><a xlink:href="asliteral_8hpp.html" target="_top" xlink:title="alib/strings/asliteral.hpp">
<polygon fill="white" stroke="black" points="902,-56.5 902,-75.5 1021,-75.5 1021,-56.5 902,-56.5"/>
<text text-anchor="middle" x="961.5" y="-63.5" font-family="Helvetica,sans-Serif" font-size="10.00">alib/strings/asliteral.hpp</text>
</a>
</g>
</g>
<!-- Node20&#45;&gt;Node22 -->
<g id="edge28" class="edge"><title>Node20&#45;&gt;Node22</title>
<path fill="none" stroke="midnightblue" d="M1074.27,-112.444C1052.12,-103.517 1017.18,-89.4387 992.064,-79.3168"/>
<polygon fill="midnightblue" stroke="midnightblue" points="993.217,-76.0079 982.633,-75.5164 990.6,-82.5006 993.217,-76.0079"/>
</g>
<!-- Node23 -->
<g id="node23" class="node"><title>Node23</title>
<g id="a_node23"><a xlink:href="asalloc_8hpp.html" target="_top" xlink:title="alib/strings/asalloc.hpp">
<polygon fill="white" stroke="red" points="1205.5,-56.5 1205.5,-75.5 1321.5,-75.5 1321.5,-56.5 1205.5,-56.5"/>
<text text-anchor="middle" x="1263.5" y="-63.5" font-family="Helvetica,sans-Serif" font-size="10.00">alib/strings/asalloc.hpp</text>
</a>
</g>
</g>
<!-- Node20&#45;&gt;Node23 -->
<g id="edge32" class="edge"><title>Node20&#45;&gt;Node23</title>
<path fill="none" stroke="midnightblue" d="M1122.12,-112.444C1150.51,-103.32 1195.64,-88.8133 1227.25,-78.6509"/>
<polygon fill="midnightblue" stroke="midnightblue" points="1228.56,-81.9087 1237,-75.5164 1226.41,-75.2445 1228.56,-81.9087"/>
</g>
<!-- Node24 -->
<g id="node24" class="node"><title>Node24</title>
<g id="a_node24"><a xlink:href="asprealloc_8hpp.html" target="_top" xlink:title="alib/strings/asprealloc.hpp">
<polygon fill="white" stroke="black" points="1339.5,-56.5 1339.5,-75.5 1469.5,-75.5 1469.5,-56.5 1339.5,-56.5"/>
<text text-anchor="middle" x="1404.5" y="-63.5" font-family="Helvetica,sans-Serif" font-size="10.00">alib/strings/asprealloc.hpp</text>
</a>
</g>
</g>
<!-- Node20&#45;&gt;Node24 -->
<g id="edge34" class="edge"><title>Node20&#45;&gt;Node24</title>
<path fill="none" stroke="midnightblue" d="M1144.46,-112.444C1199.04,-102.905 1287.29,-87.4834 1345.6,-77.293"/>
<polygon fill="midnightblue" stroke="midnightblue" points="1346.52,-80.6857 1355.77,-75.5164 1345.31,-73.7902 1346.52,-80.6857"/>
</g>
<!-- Node25 -->
<g id="node25" class="node"><title>Node25</title>
<g id="a_node25"><a xlink:href="applyto_8hpp.html" target="_top" xlink:title="alib/strings/applyto.hpp">
<polygon fill="white" stroke="black" points="1488,-56.5 1488,-75.5 1605,-75.5 1605,-56.5 1488,-56.5"/>
<text text-anchor="middle" x="1546.5" y="-63.5" font-family="Helvetica,sans-Serif" font-size="10.00">alib/strings/applyto.hpp</text>
</a>
</g>
</g>
<!-- Node20&#45;&gt;Node25 -->
<g id="edge36" class="edge"><title>Node20&#45;&gt;Node25</title>
<path fill="none" stroke="midnightblue" d="M1163.68,-113.294C1238.13,-104.81 1361.17,-90.589 1477.73,-76.0802"/>
<polygon fill="midnightblue" stroke="midnightblue" points="1478.41,-79.5221 1487.9,-74.811 1477.55,-72.576 1478.41,-79.5221"/>
</g>
<!-- Node26 -->
<g id="node26" class="node"><title>Node26</title>
<g id="a_node26"><a xlink:href="applyformat_8hpp.html" target="_top" xlink:title="alib/strings/applyformat.hpp">
<polygon fill="white" stroke="black" points="747,-56.5 747,-75.5 884,-75.5 884,-56.5 747,-56.5"/>
<text text-anchor="middle" x="815.5" y="-63.5" font-family="Helvetica,sans-Serif" font-size="10.00">alib/strings/applyformat.hpp</text>
</a>
</g>
</g>
<!-- Node20&#45;&gt;Node26 -->
<g id="edge38" class="edge"><title>Node20&#45;&gt;Node26</title>
<path fill="none" stroke="midnightblue" d="M1051.13,-112.444C1001.88,-102.944 922.372,-87.611 869.529,-77.4198"/>
<polygon fill="midnightblue" stroke="midnightblue" points="870.141,-73.9735 859.659,-75.5164 868.816,-80.8469 870.141,-73.9735"/>
</g>
<!-- Node21&#45;&gt;Node2 -->
<g id="edge27" class="edge"><title>Node21&#45;&gt;Node2</title>
<path fill="none" stroke="midnightblue" d="M1094.99,-75.5914C1053.62,-94.791 953.478,-141.272 904.463,-164.021"/>
<polygon fill="midnightblue" stroke="midnightblue" points="902.694,-160.984 895.097,-168.368 905.641,-167.333 902.694,-160.984"/>
</g>
<!-- Node22&#45;&gt;Node2 -->
<g id="edge29" class="edge"><title>Node22&#45;&gt;Node2</title>
<path fill="none" stroke="midnightblue" d="M955.615,-75.5639C946.904,-88.1409 929.941,-112.254 914.5,-132 906.941,-141.666 898.119,-152.158 890.879,-160.577"/>
<polygon fill="midnightblue" stroke="midnightblue" points="888.178,-158.35 884.272,-168.199 893.467,-162.936 888.178,-158.35"/>
</g>
<!-- Node22&#45;&gt;Node17 -->
<g id="edge30" class="edge"><title>Node22&#45;&gt;Node17</title>
<path fill="none" stroke="midnightblue" d="M961.5,-56.083C961.5,-49.0059 961.5,-38.8611 961.5,-29.9865"/>
<polygon fill="midnightblue" stroke="midnightblue" points="965,-29.751 961.5,-19.7511 958,-29.7511 965,-29.751"/>
</g>
<!-- Node22&#45;&gt;Node18 -->
<g id="edge31" class="edge"><title>Node22&#45;&gt;Node18</title>
<path fill="none" stroke="midnightblue" d="M938.366,-56.4435C914.018,-47.4381 875.493,-33.1891 848.077,-23.049"/>
<polygon fill="midnightblue" stroke="midnightblue" points="849.119,-19.7028 838.526,-19.5164 846.691,-26.2681 849.119,-19.7028"/>
</g>
<!-- Node23&#45;&gt;Node2 -->
<g id="edge33" class="edge"><title>Node23&#45;&gt;Node2</title>
<path fill="none" stroke="midnightblue" d="M1254.31,-75.8758C1238.84,-90.2599 1205.96,-118.419 1172.5,-132 1087.99,-166.3 980.271,-174.722 920.86,-176.625"/>
<polygon fill="midnightblue" stroke="midnightblue" points="920.598,-173.131 910.697,-176.902 920.788,-180.129 920.598,-173.131"/>
</g>
<!-- Node24&#45;&gt;Node2 -->
<g id="edge35" class="edge"><title>Node24&#45;&gt;Node2</title>
<path fill="none" stroke="midnightblue" d="M1372.71,-75.5672C1341.97,-84.0647 1294.19,-97.8326 1253.5,-112 1230.9,-119.87 1226.64,-125.879 1203.5,-132 1104.58,-158.17 984.565,-169.726 921.009,-174.322"/>
<polygon fill="midnightblue" stroke="midnightblue" points="920.664,-170.838 910.933,-175.026 921.152,-177.821 920.664,-170.838"/>
</g>
<!-- Node25&#45;&gt;Node2 -->
<g id="edge37" class="edge"><title>Node25&#45;&gt;Node2</title>
<path fill="none" stroke="midnightblue" d="M1487.86,-75.4727C1423.37,-85.0959 1324.02,-100.899 1287.5,-112 1266.56,-118.366 1263.59,-126.156 1242.5,-132 1129.39,-163.339 990.571,-172.87 920.881,-175.756"/>
<polygon fill="midnightblue" stroke="midnightblue" points="920.565,-172.266 910.708,-176.15 920.836,-179.261 920.565,-172.266"/>
</g>
<!-- Node26&#45;&gt;Node2 -->
<g id="edge39" class="edge"><title>Node26&#45;&gt;Node2</title>
<path fill="none" stroke="midnightblue" d="M848.486,-75.5623C866.963,-82.2313 888.452,-93.5473 899.5,-112 908.493,-127.02 899.704,-146.093 890.516,-159.685"/>
<polygon fill="midnightblue" stroke="midnightblue" points="887.426,-157.978 884.304,-168.103 893.058,-162.135 887.426,-157.978"/>
</g>
<!-- Node26&#45;&gt;Node18 -->
<g id="edge40" class="edge"><title>Node26&#45;&gt;Node18</title>
<path fill="none" stroke="midnightblue" d="M815.5,-56.083C815.5,-49.0059 815.5,-38.8611 815.5,-29.9865"/>
<polygon fill="midnightblue" stroke="midnightblue" points="819,-29.751 815.5,-19.7511 812,-29.7511 819,-29.751"/>
</g>
</g>
</svg>
