<?xml version="1.0" encoding="UTF-8" standalone="no"?>
<!DOCTYPE svg PUBLIC "-//W3C//DTD SVG 1.1//EN"
 "http://www.w3.org/Graphics/SVG/1.1/DTD/svg11.dtd">
<!-- Generated by graphviz version 2.40.1 (20161225.0304)
 -->
<!-- Title: vstudiologger.hpp Pages: 1 -->
<svg width="3430pt" height="532pt"
 viewBox="0.00 0.00 3429.50 532.00" xmlns="http://www.w3.org/2000/svg" xmlns:xlink="http://www.w3.org/1999/xlink">
<g id="graph0" class="graph" transform="scale(1 1) rotate(0) translate(4 528)">
<title>vstudiologger.hpp</title>
<polygon fill="#ffffff" stroke="transparent" points="-4,4 -4,-528 3425.5,-528 3425.5,4 -4,4"/>
<!-- Node0 -->
<g id="node1" class="node">
<title>Node0</title>
<polygon fill="#bfbfbf" stroke="#000000" points="640.5,-504.5 640.5,-523.5 732.5,-523.5 732.5,-504.5 640.5,-504.5"/>
<text text-anchor="middle" x="686.5" y="-511.5" font-family="Helvetica,sans-Serif" font-size="10.00" fill="#000000">vstudiologger.hpp</text>
</g>
<!-- Node1 -->
<g id="node2" class="node">
<title>Node1</title>
<g id="a_node2"><a xlink:href="alox_8hpp.html" target="_top" xlink:title="alox/alox.hpp">
<polygon fill="#ffffff" stroke="#000000" points="589.5,-336.5 589.5,-355.5 663.5,-355.5 663.5,-336.5 589.5,-336.5"/>
<text text-anchor="middle" x="626.5" y="-343.5" font-family="Helvetica,sans-Serif" font-size="10.00" fill="#000000">alox/alox.hpp</text>
</a>
</g>
</g>
<!-- Node0&#45;&gt;Node1 -->
<g id="edge1" class="edge">
<title>Node0&#45;&gt;Node1</title>
<path fill="none" stroke="#191970" d="M674.7579,-504.3344C665.2514,-495.8088 652.353,-482.5099 645.5,-468 629.7021,-434.5511 626.5691,-390.7596 626.205,-365.7691"/>
<polygon fill="#191970" stroke="#191970" points="629.705,-365.7119 626.1969,-355.7147 622.705,-365.7175 629.705,-365.7119"/>
</g>
<!-- Node68 -->
<g id="node3" class="node">
<title>Node68</title>
<g id="a_node3"><a xlink:href="plaintextlogger_8hpp.html" target="_top" xlink:title="alox/core/textlogger/plaintextlogger.hpp">
<polygon fill="#ffffff" stroke="#000000" points="654.5,-448.5 654.5,-467.5 840.5,-467.5 840.5,-448.5 654.5,-448.5"/>
<text text-anchor="middle" x="747.5" y="-455.5" font-family="Helvetica,sans-Serif" font-size="10.00" fill="#000000">alox/core/textlogger/plaintextlogger.hpp</text>
</a>
</g>
</g>
<!-- Node0&#45;&gt;Node68 -->
<g id="edge2" class="edge">
<title>Node0&#45;&gt;Node68</title>
<path fill="none" stroke="#191970" d="M697.1254,-504.2455C706.0473,-496.0549 718.988,-484.1749 729.5192,-474.5069"/>
<polygon fill="#191970" stroke="#191970" points="731.9968,-476.9837 736.9964,-467.6427 727.2629,-471.8271 731.9968,-476.9837"/>
</g>
<!-- Node2 -->
<g id="node4" class="node">
<title>Node2</title>
<g id="a_node4"><a xlink:href="alib_8hpp.html" target="_top" xlink:title="alib/alib.hpp">
<polygon fill="#ffffff" stroke="#000000" points="2190.5,-280.5 2190.5,-299.5 2258.5,-299.5 2258.5,-280.5 2190.5,-280.5"/>
<text text-anchor="middle" x="2224.5" y="-287.5" font-family="Helvetica,sans-Serif" font-size="10.00" fill="#000000">alib/alib.hpp</text>
</a>
</g>
</g>
<!-- Node1&#45;&gt;Node2 -->
<g id="edge3" class="edge">
<title>Node1&#45;&gt;Node2</title>
<path fill="none" stroke="#191970" d="M663.6483,-344.6982C877.3344,-337.2098 1948.4417,-299.6741 2180.2241,-291.5516"/>
<polygon fill="#191970" stroke="#191970" points="2180.4389,-295.0463 2190.3102,-291.1981 2180.1937,-288.0506 2180.4389,-295.0463"/>
</g>
<!-- Node13 -->
<g id="node5" class="node">
<title>Node13</title>
<polygon fill="#ffffff" stroke="#bfbfbf" points="842.5,-.5 842.5,-19.5 886.5,-19.5 886.5,-.5 842.5,-.5"/>
<text text-anchor="middle" x="864.5" y="-7.5" font-family="Helvetica,sans-Serif" font-size="10.00" fill="#000000">vector</text>
</g>
<!-- Node1&#45;&gt;Node13 -->
<g id="edge4" class="edge">
<title>Node1&#45;&gt;Node13</title>
<path fill="none" stroke="#191970" d="M663.7169,-344.758C722.5041,-342.8089 840.4598,-338.95 940.5,-336 1009.4449,-333.967 3421.5,-302.9749 3421.5,-234 3421.5,-234 3421.5,-234 3421.5,-122 3421.5,-55.6126 1191.9696,-15.5503 896.6596,-10.5351"/>
<polygon fill="#191970" stroke="#191970" points="896.6631,-7.0348 886.6054,-10.3652 896.5448,-14.0338 896.6631,-7.0348"/>
</g>
<!-- Node40 -->
<g id="node6" class="node">
<title>Node40</title>
<g id="a_node6"><a xlink:href="alox__symbols_8hpp.html" target="_top" xlink:title="internals/alox_symbols.hpp">
<polygon fill="#ffffff" stroke="#000000" points="719,-280.5 719,-299.5 854,-299.5 854,-280.5 719,-280.5"/>
<text text-anchor="middle" x="786.5" y="-287.5" font-family="Helvetica,sans-Serif" font-size="10.00" fill="#000000">internals/alox_symbols.hpp</text>
</a>
</g>
</g>
<!-- Node1&#45;&gt;Node40 -->
<g id="edge5" class="edge">
<title>Node1&#45;&gt;Node40</title>
<path fill="none" stroke="#191970" d="M654.005,-336.3733C680.3802,-327.1419 720.3851,-313.1402 749.5358,-302.9375"/>
<polygon fill="#191970" stroke="#191970" points="751.0716,-306.1082 759.3539,-299.5011 748.7591,-299.5012 751.0716,-306.1082"/>
</g>
<!-- Node41 -->
<g id="node7" class="node">
<title>Node41</title>
<g id="a_node7"><a xlink:href="alox__macros_8hpp.html" target="_top" xlink:title="internals/alox_macros.hpp">
<polygon fill="#ffffff" stroke="#000000" points="145,-280.5 145,-299.5 276,-299.5 276,-280.5 145,-280.5"/>
<text text-anchor="middle" x="210.5" y="-287.5" font-family="Helvetica,sans-Serif" font-size="10.00" fill="#000000">internals/alox_macros.hpp</text>
</a>
</g>
</g>
<!-- Node1&#45;&gt;Node41 -->
<g id="edge6" class="edge">
<title>Node1&#45;&gt;Node41</title>
<path fill="none" stroke="#191970" d="M589.2167,-340.9811C521.2387,-331.8302 375.9179,-312.2678 286.3654,-300.2126"/>
<polygon fill="#191970" stroke="#191970" points="286.6451,-296.7188 276.2676,-298.8533 285.7112,-303.6562 286.6451,-296.7188"/>
</g>
<!-- Node42 -->
<g id="node8" class="node">
<title>Node42</title>
<g id="a_node8"><a xlink:href="configuration_8hpp.html" target="_top" xlink:title="alib/config/configuration.hpp">
<polygon fill="#ffffff" stroke="#000000" points="253.5,-224.5 253.5,-243.5 391.5,-243.5 391.5,-224.5 253.5,-224.5"/>
<text text-anchor="middle" x="322.5" y="-231.5" font-family="Helvetica,sans-Serif" font-size="10.00" fill="#000000">alib/config/configuration.hpp</text>
</a>
</g>
</g>
<!-- Node1&#45;&gt;Node42 -->
<g id="edge7" class="edge">
<title>Node1&#45;&gt;Node42</title>
<path fill="none" stroke="#191970" d="M615.4003,-336.3316C598.199,-321.8634 563.5273,-294.7111 529.5,-280 489.0031,-262.4919 441.0576,-251.2952 401.5126,-244.3376"/>
<polygon fill="#191970" stroke="#191970" points="402.0949,-240.8865 391.6494,-242.6588 400.9203,-247.7872 402.0949,-240.8865"/>
</g>
<!-- Node57 -->
<g id="node9" class="node">
<title>Node57</title>
<g id="a_node9"><a xlink:href="aloxtypesandenums_8hpp.html" target="_top" xlink:title="aloxtypesandenums.hpp">
<polygon fill="#ffffff" stroke="#000000" points="332.5,-280.5 332.5,-299.5 454.5,-299.5 454.5,-280.5 332.5,-280.5"/>
<text text-anchor="middle" x="393.5" y="-287.5" font-family="Helvetica,sans-Serif" font-size="10.00" fill="#000000">aloxtypesandenums.hpp</text>
</a>
</g>
</g>
<!-- Node1&#45;&gt;Node57 -->
<g id="edge8" class="edge">
<title>Node1&#45;&gt;Node57</title>
<path fill="none" stroke="#191970" d="M589.3228,-337.0647C549.7497,-327.5536 486.9217,-312.4533 443.1395,-301.9305"/>
<polygon fill="#191970" stroke="#191970" points="443.816,-298.4935 433.2749,-299.5596 442.1801,-305.2997 443.816,-298.4935"/>
</g>
<!-- Node58 -->
<g id="node10" class="node">
<title>Node58</title>
<g id="a_node10"><a xlink:href="log_8hpp.html" target="_top" xlink:title="log.hpp">
<polygon fill="#ffffff" stroke="#000000" points="472.5,-280.5 472.5,-299.5 520.5,-299.5 520.5,-280.5 472.5,-280.5"/>
<text text-anchor="middle" x="496.5" y="-287.5" font-family="Helvetica,sans-Serif" font-size="10.00" fill="#000000">log.hpp</text>
</a>
</g>
</g>
<!-- Node1&#45;&gt;Node58 -->
<g id="edge9" class="edge">
<title>Node1&#45;&gt;Node58</title>
<path fill="none" stroke="#191970" d="M598.9102,-336.3733C576.2832,-327.3838 544.6929,-313.8706 522.5096,-303.7471"/>
<polygon fill="#191970" stroke="#191970" points="523.884,-300.5266 513.3389,-299.5011 520.9429,-306.8788 523.884,-300.5266"/>
</g>
<!-- Node59 -->
<g id="node11" class="node">
<title>Node59</title>
<g id="a_node11"><a xlink:href="lox_8hpp.html" target="_top" xlink:title="lox.hpp">
<polygon fill="#ffffff" stroke="#000000" points="576.5,-280.5 576.5,-299.5 624.5,-299.5 624.5,-280.5 576.5,-280.5"/>
<text text-anchor="middle" x="600.5" y="-287.5" font-family="Helvetica,sans-Serif" font-size="10.00" fill="#000000">lox.hpp</text>
</a>
</g>
</g>
<!-- Node1&#45;&gt;Node59 -->
<g id="edge10" class="edge">
<title>Node1&#45;&gt;Node59</title>
<path fill="none" stroke="#191970" d="M616.7043,-336.2455C611.8478,-328.8579 606.6268,-318.4689 603.0519,-309.4087"/>
<polygon fill="#191970" stroke="#191970" points="606.2643,-307.9839 599.7318,-299.6427 599.6369,-310.2371 606.2643,-307.9839"/>
</g>
<!-- Node68&#45;&gt;Node1 -->
<g id="edge65" class="edge">
<title>Node68&#45;&gt;Node1</title>
<path fill="none" stroke="#191970" d="M737.1836,-448.4509C716.5558,-429.3574 670.0057,-386.2697 644.3328,-362.5063"/>
<polygon fill="#191970" stroke="#191970" points="646.5065,-359.7492 636.7903,-355.5249 641.7515,-364.8864 646.5065,-359.7492"/>
</g>
<!-- Node69 -->
<g id="node45" class="node">
<title>Node69</title>
<g id="a_node45"><a xlink:href="textlogger_8hpp.html" target="_top" xlink:title="alox/core/textlogger/textlogger.hpp">
<polygon fill="#ffffff" stroke="#000000" points="884.5,-392.5 884.5,-411.5 1050.5,-411.5 1050.5,-392.5 884.5,-392.5"/>
<text text-anchor="middle" x="967.5" y="-399.5" font-family="Helvetica,sans-Serif" font-size="10.00" fill="#000000">alox/core/textlogger/textlogger.hpp</text>
</a>
</g>
</g>
<!-- Node68&#45;&gt;Node69 -->
<g id="edge66" class="edge">
<title>Node68&#45;&gt;Node69</title>
<path fill="none" stroke="#191970" d="M785.3193,-448.3733C822.6938,-438.8598 879.9724,-424.2797 920.3071,-414.0127"/>
<polygon fill="#191970" stroke="#191970" points="921.3466,-417.3598 930.1742,-411.5011 919.6198,-410.5761 921.3466,-417.3598"/>
</g>
<!-- Node3 -->
<g id="node12" class="node">
<title>Node3</title>
<polygon fill="#ffffff" stroke="#bfbfbf" points="2925.5,-224.5 2925.5,-243.5 2977.5,-243.5 2977.5,-224.5 2925.5,-224.5"/>
<text text-anchor="middle" x="2951.5" y="-231.5" font-family="Helvetica,sans-Serif" font-size="10.00" fill="#000000">assert.h</text>
</g>
<!-- Node2&#45;&gt;Node3 -->
<g id="edge11" class="edge">
<title>Node2&#45;&gt;Node3</title>
<path fill="none" stroke="#191970" d="M2258.8266,-288.6823C2377.2275,-283.9904 2768.842,-267.2149 2915.1616,-243.8357"/>
<polygon fill="#191970" stroke="#191970" points="2915.9823,-247.247 2925.2656,-242.141 2914.8244,-240.3434 2915.9823,-247.247"/>
</g>
<!-- Node4 -->
<g id="node13" class="node">
<title>Node4</title>
<polygon fill="#ffffff" stroke="#bfbfbf" points="2995.5,-224.5 2995.5,-243.5 3041.5,-243.5 3041.5,-224.5 2995.5,-224.5"/>
<text text-anchor="middle" x="3018.5" y="-231.5" font-family="Helvetica,sans-Serif" font-size="10.00" fill="#000000">cstdint</text>
</g>
<!-- Node2&#45;&gt;Node4 -->
<g id="edge12" class="edge">
<title>Node2&#45;&gt;Node4</title>
<path fill="none" stroke="#191970" d="M2258.8243,-288.4191C2392.8717,-282.1807 2878.5387,-258.954 2985.1383,-243.6265"/>
<polygon fill="#191970" stroke="#191970" points="2985.9367,-247.0427 2995.2457,-241.9836 2984.8137,-240.1334 2985.9367,-247.0427"/>
</g>
<!-- Node5 -->
<g id="node14" class="node">
<title>Node5</title>
<g id="a_node14"><a xlink:href="prepro_8hpp.html" target="_top" xlink:title="alib/alib/prepro.hpp">
<polygon fill="#ffffff" stroke="#000000" points="3059.5,-224.5 3059.5,-243.5 3157.5,-243.5 3157.5,-224.5 3059.5,-224.5"/>
<text text-anchor="middle" x="3108.5" y="-231.5" font-family="Helvetica,sans-Serif" font-size="10.00" fill="#000000">alib/alib/prepro.hpp</text>
</a>
</g>
</g>
<!-- Node2&#45;&gt;Node5 -->
<g id="edge13" class="edge">
<title>Node2&#45;&gt;Node5</title>
<path fill="none" stroke="#191970" d="M2258.8458,-289.5017C2371.0046,-287.5763 2736.7787,-278.9425 3049.0413,-244.0445"/>
<polygon fill="#191970" stroke="#191970" points="3049.6502,-247.4981 3059.1945,-242.8983 3048.8649,-240.5423 3049.6502,-247.4981"/>
</g>
<!-- Node6 -->
<g id="node15" class="node">
<title>Node6</title>
<g id="a_node15"><a xlink:href="distribution_8hpp_source.html" target="_top" xlink:title="alib/distribution.hpp">
<polygon fill="#ffffff" stroke="#000000" points="3176,-224.5 3176,-243.5 3277,-243.5 3277,-224.5 3176,-224.5"/>
<text text-anchor="middle" x="3226.5" y="-231.5" font-family="Helvetica,sans-Serif" font-size="10.00" fill="#000000">alib/distribution.hpp</text>
</a>
</g>
</g>
<!-- Node2&#45;&gt;Node6 -->
<g id="edge14" class="edge">
<title>Node2&#45;&gt;Node6</title>
<path fill="none" stroke="#191970" d="M2258.8291,-289.7638C2380.8711,-288.6211 2805.2482,-282.0587 3165.7088,-243.9517"/>
<polygon fill="#191970" stroke="#191970" points="3166.2459,-247.4143 3175.818,-242.8728 3165.503,-240.4538 3166.2459,-247.4143"/>
</g>
<!-- Node7 -->
<g id="node16" class="node">
<title>Node7</title>
<g id="a_node16"><a xlink:href="debug_8hpp.html" target="_top" xlink:title="alib/alib/debug.hpp">
<polygon fill="#ffffff" stroke="#000000" points="3295.5,-224.5 3295.5,-243.5 3393.5,-243.5 3393.5,-224.5 3295.5,-224.5"/>
<text text-anchor="middle" x="3344.5" y="-231.5" font-family="Helvetica,sans-Serif" font-size="10.00" fill="#000000">alib/alib/debug.hpp</text>
</a>
</g>
</g>
<!-- Node2&#45;&gt;Node7 -->
<g id="edge15" class="edge">
<title>Node2&#45;&gt;Node7</title>
<path fill="none" stroke="#191970" d="M2258.6294,-289.1082C2414.4781,-284.9475 3060.2209,-266.726 3285.1305,-243.9915"/>
<polygon fill="#191970" stroke="#191970" points="3285.6167,-247.4599 3295.1991,-242.9401 3284.8896,-240.4977 3285.6167,-247.4599"/>
</g>
<!-- Node8 -->
<g id="node17" class="node">
<title>Node8</title>
<g id="a_node17"><a xlink:href="rtti_8hpp.html" target="_top" xlink:title="alib/lang/rtti.hpp">
<polygon fill="#ffffff" stroke="#ff0000" points="991.5,-224.5 991.5,-243.5 1077.5,-243.5 1077.5,-224.5 991.5,-224.5"/>
<text text-anchor="middle" x="1034.5" y="-231.5" font-family="Helvetica,sans-Serif" font-size="10.00" fill="#000000">alib/lang/rtti.hpp</text>
</a>
</g>
</g>
<!-- Node2&#45;&gt;Node8 -->
<g id="edge16" class="edge">
<title>Node2&#45;&gt;Node8</title>
<path fill="none" stroke="#191970" d="M2190.4229,-289.311C2027.7663,-285.9183 1328.6492,-270.1375 1087.6517,-243.9294"/>
<polygon fill="#191970" stroke="#191970" points="1087.882,-240.4334 1077.5534,-242.7937 1087.0995,-247.3895 1087.882,-240.4334"/>
</g>
<!-- Node12 -->
<g id="node18" class="node">
<title>Node12</title>
<g id="a_node18"><a xlink:href="singleton_8hpp.html" target="_top" xlink:title="alib/lang/singleton.hpp">
<polygon fill="#ffffff" stroke="#000000" points="2051,-112.5 2051,-131.5 2164,-131.5 2164,-112.5 2051,-112.5"/>
<text text-anchor="middle" x="2107.5" y="-119.5" font-family="Helvetica,sans-Serif" font-size="10.00" fill="#000000">alib/lang/singleton.hpp</text>
</a>
</g>
</g>
<!-- Node2&#45;&gt;Node12 -->
<g id="edge17" class="edge">
<title>Node2&#45;&gt;Node12</title>
<path fill="none" stroke="#191970" d="M2258.8976,-288.7834C2320.1021,-285.8171 2443.993,-275.923 2470.5,-244 2476.1784,-237.1613 2475.8683,-231.0847 2470.5,-224 2434.8345,-176.9316 2269.1306,-145.5436 2174.4033,-131.1134"/>
<polygon fill="#191970" stroke="#191970" points="2174.7496,-127.6263 2164.3409,-129.6036 2173.7109,-134.5488 2174.7496,-127.6263"/>
</g>
<!-- Node14 -->
<g id="node19" class="node">
<title>Node14</title>
<g id="a_node19"><a xlink:href="types_8hpp.html" target="_top" xlink:title="alib/lang/types.hpp">
<polygon fill="#ffffff" stroke="#000000" points="1095.5,-224.5 1095.5,-243.5 1193.5,-243.5 1193.5,-224.5 1095.5,-224.5"/>
<text text-anchor="middle" x="1144.5" y="-231.5" font-family="Helvetica,sans-Serif" font-size="10.00" fill="#000000">alib/lang/types.hpp</text>
</a>
</g>
</g>
<!-- Node2&#45;&gt;Node14 -->
<g id="edge18" class="edge">
<title>Node2&#45;&gt;Node14</title>
<path fill="none" stroke="#191970" d="M2190.4097,-289.0283C2038.4311,-284.6113 1421.0415,-265.7429 1203.7348,-243.8474"/>
<polygon fill="#191970" stroke="#191970" points="1204.0013,-240.3563 1193.6927,-242.8025 1203.2768,-247.3187 1204.0013,-240.3563"/>
</g>
<!-- Node15 -->
<g id="node20" class="node">
<title>Node15</title>
<g id="a_node20"><a xlink:href="boxing_8hpp.html" target="_top" xlink:title="alib/boxing/boxing.hpp">
<polygon fill="#ffffff" stroke="#ff0000" points="1212,-224.5 1212,-243.5 1325,-243.5 1325,-224.5 1212,-224.5"/>
<text text-anchor="middle" x="1268.5" y="-231.5" font-family="Helvetica,sans-Serif" font-size="10.00" fill="#000000">alib/boxing/boxing.hpp</text>
</a>
</g>
</g>
<!-- Node2&#45;&gt;Node15 -->
<g id="edge19" class="edge">
<title>Node2&#45;&gt;Node15</title>
<path fill="none" stroke="#191970" d="M2190.4571,-289.4499C2073.1641,-287.2999 1674.8753,-277.8846 1335.3638,-243.9858"/>
<polygon fill="#191970" stroke="#191970" points="1335.637,-240.4957 1325.3365,-242.9758 1334.9353,-247.4605 1335.637,-240.4957"/>
</g>
<!-- Node23 -->
<g id="node21" class="node">
<title>Node23</title>
<g id="a_node21"><a xlink:href="enums_8hpp.html" target="_top" xlink:title="alib/lang/enums.hpp">
<polygon fill="#ffffff" stroke="#000000" points="1343.5,-224.5 1343.5,-243.5 1447.5,-243.5 1447.5,-224.5 1343.5,-224.5"/>
<text text-anchor="middle" x="1395.5" y="-231.5" font-family="Helvetica,sans-Serif" font-size="10.00" fill="#000000">alib/lang/enums.hpp</text>
</a>
</g>
</g>
<!-- Node2&#45;&gt;Node23 -->
<g id="edge20" class="edge">
<title>Node2&#45;&gt;Node23</title>
<path fill="none" stroke="#191970" d="M2190.3758,-289.1703C2082.5469,-286.2884 1739.5939,-275.1297 1457.5,-244 1457.3984,-243.9888 1457.2967,-243.9775 1457.1949,-243.9662"/>
<polygon fill="#191970" stroke="#191970" points="1457.8958,-240.5261 1447.5438,-242.7814 1457.0427,-247.4739 1457.8958,-240.5261"/>
</g>
<!-- Node24 -->
<g id="node22" class="node">
<title>Node24</title>
<g id="a_node22"><a xlink:href="cstring_8hpp.html" target="_top" xlink:title="alib/strings/cstring.hpp">
<polygon fill="#ffffff" stroke="#ff0000" points="1466,-224.5 1466,-243.5 1581,-243.5 1581,-224.5 1466,-224.5"/>
<text text-anchor="middle" x="1523.5" y="-231.5" font-family="Helvetica,sans-Serif" font-size="10.00" fill="#000000">alib/strings/cstring.hpp</text>
</a>
</g>
</g>
<!-- Node2&#45;&gt;Node24 -->
<g id="edge21" class="edge">
<title>Node2&#45;&gt;Node24</title>
<path fill="none" stroke="#191970" d="M2190.3975,-288.4362C2096.6064,-283.9416 1826.7152,-269.7076 1591.3284,-244.0109"/>
<polygon fill="#191970" stroke="#191970" points="1591.5304,-240.512 1581.2074,-242.8965 1590.7642,-247.47 1591.5304,-240.512"/>
</g>
<!-- Node27 -->
<g id="node23" class="node">
<title>Node27</title>
<g id="a_node23"><a xlink:href="string_8hpp.html" target="_top" xlink:title="alib/strings/string.hpp">
<polygon fill="#ffffff" stroke="#ff0000" points="1599.5,-224.5 1599.5,-243.5 1709.5,-243.5 1709.5,-224.5 1599.5,-224.5"/>
<text text-anchor="middle" x="1654.5" y="-231.5" font-family="Helvetica,sans-Serif" font-size="10.00" fill="#000000">alib/strings/string.hpp</text>
</a>
</g>
</g>
<!-- Node2&#45;&gt;Node27 -->
<g id="edge22" class="edge">
<title>Node2&#45;&gt;Node27</title>
<path fill="none" stroke="#191970" d="M2190.4352,-287.6277C2110.3898,-281.897 1903.878,-266.2043 1719.9164,-243.9769"/>
<polygon fill="#191970" stroke="#191970" points="1720.1359,-240.4779 1709.7862,-242.7434 1719.2898,-247.4265 1720.1359,-240.4779"/>
</g>
<!-- Node30 -->
<g id="node24" class="node">
<title>Node30</title>
<g id="a_node24"><a xlink:href="tstring_8hpp.html" target="_top" xlink:title="alib/strings/tstring.hpp">
<polygon fill="#ffffff" stroke="#000000" points="1728,-224.5 1728,-243.5 1841,-243.5 1841,-224.5 1728,-224.5"/>
<text text-anchor="middle" x="1784.5" y="-231.5" font-family="Helvetica,sans-Serif" font-size="10.00" fill="#000000">alib/strings/tstring.hpp</text>
</a>
</g>
</g>
<!-- Node2&#45;&gt;Node30 -->
<g id="edge23" class="edge">
<title>Node2&#45;&gt;Node30</title>
<path fill="none" stroke="#191970" d="M2190.4242,-286.1323C2126.3092,-278.7853 1983.1033,-262.0442 1851.288,-244.0753"/>
<polygon fill="#191970" stroke="#191970" points="1851.3929,-240.5571 1841.0106,-242.6685 1850.4436,-247.4924 1851.3929,-240.5571"/>
</g>
<!-- Node31 -->
<g id="node25" class="node">
<title>Node31</title>
<g id="a_node25"><a xlink:href="stringliteral_8hpp.html" target="_top" xlink:title="alib/strings/stringliteral.hpp">
<polygon fill="#ffffff" stroke="#ff0000" points="1859,-224.5 1859,-243.5 1992,-243.5 1992,-224.5 1859,-224.5"/>
<text text-anchor="middle" x="1925.5" y="-231.5" font-family="Helvetica,sans-Serif" font-size="10.00" fill="#000000">alib/strings/stringliteral.hpp</text>
</a>
</g>
</g>
<!-- Node2&#45;&gt;Node31 -->
<g id="edge24" class="edge">
<title>Node2&#45;&gt;Node31</title>
<path fill="none" stroke="#191970" d="M2190.492,-283.6306C2140.9054,-274.3435 2047.9765,-256.9387 1986.4073,-245.4074"/>
<polygon fill="#191970" stroke="#191970" points="1986.9025,-241.9393 1976.429,-243.5385 1985.6138,-248.8197 1986.9025,-241.9393"/>
</g>
<!-- Node32 -->
<g id="node26" class="node">
<title>Node32</title>
<g id="a_node26"><a xlink:href="astring_8hpp.html" target="_top" xlink:title="alib/strings/astring.hpp">
<polygon fill="#ffffff" stroke="#ff0000" points="2010,-224.5 2010,-243.5 2125,-243.5 2125,-224.5 2010,-224.5"/>
<text text-anchor="middle" x="2067.5" y="-231.5" font-family="Helvetica,sans-Serif" font-size="10.00" fill="#000000">alib/strings/astring.hpp</text>
</a>
</g>
</g>
<!-- Node2&#45;&gt;Node32 -->
<g id="edge25" class="edge">
<title>Node2&#45;&gt;Node32</title>
<path fill="none" stroke="#191970" d="M2197.5107,-280.3733C2171.6301,-271.1419 2132.3752,-257.1402 2103.7711,-246.9375"/>
<polygon fill="#191970" stroke="#191970" points="2104.7317,-243.5642 2094.1371,-243.5011 2102.38,-250.1573 2104.7317,-243.5642"/>
</g>
<!-- Node34 -->
<g id="node27" class="node">
<title>Node34</title>
<g id="a_node27"><a xlink:href="preallocatedstring_8hpp.html" target="_top" xlink:title="alib/strings/preallocatedstring.hpp">
<polygon fill="#ffffff" stroke="#000000" points="2143.5,-224.5 2143.5,-243.5 2305.5,-243.5 2305.5,-224.5 2143.5,-224.5"/>
<text text-anchor="middle" x="2224.5" y="-231.5" font-family="Helvetica,sans-Serif" font-size="10.00" fill="#000000">alib/strings/preallocatedstring.hpp</text>
</a>
</g>
</g>
<!-- Node2&#45;&gt;Node34 -->
<g id="edge26" class="edge">
<title>Node2&#45;&gt;Node34</title>
<path fill="none" stroke="#191970" d="M2224.5,-280.2455C2224.5,-272.9382 2224.5,-262.6944 2224.5,-253.7046"/>
<polygon fill="#191970" stroke="#191970" points="2228.0001,-253.6426 2224.5,-243.6427 2221.0001,-253.6427 2228.0001,-253.6426"/>
</g>
<!-- Node35 -->
<g id="node28" class="node">
<title>Node35</title>
<g id="a_node28"><a xlink:href="stringboxing_8hpp.html" target="_top" xlink:title="alib/strings/stringboxing.hpp">
<polygon fill="#ffffff" stroke="#000000" points="2323.5,-224.5 2323.5,-243.5 2461.5,-243.5 2461.5,-224.5 2323.5,-224.5"/>
<text text-anchor="middle" x="2392.5" y="-231.5" font-family="Helvetica,sans-Serif" font-size="10.00" fill="#000000">alib/strings/stringboxing.hpp</text>
</a>
</g>
</g>
<!-- Node2&#45;&gt;Node35 -->
<g id="edge27" class="edge">
<title>Node2&#45;&gt;Node35</title>
<path fill="none" stroke="#191970" d="M2253.3802,-280.3733C2281.3161,-271.0613 2323.8142,-256.8953 2354.4869,-246.671"/>
<polygon fill="#191970" stroke="#191970" points="2355.6166,-249.9839 2363.9966,-243.5011 2353.403,-243.3431 2355.6166,-249.9839"/>
</g>
<!-- Node36 -->
<g id="node29" class="node">
<title>Node36</title>
<g id="a_node29"><a xlink:href="report_8hpp.html" target="_top" xlink:title="alib/lang/report.hpp">
<polygon fill="#ffffff" stroke="#ff0000" points="2518,-224.5 2518,-243.5 2617,-243.5 2617,-224.5 2518,-224.5"/>
<text text-anchor="middle" x="2567.5" y="-231.5" font-family="Helvetica,sans-Serif" font-size="10.00" fill="#000000">alib/lang/report.hpp</text>
</a>
</g>
</g>
<!-- Node2&#45;&gt;Node36 -->
<g id="edge28" class="edge">
<title>Node2&#45;&gt;Node36</title>
<path fill="none" stroke="#191970" d="M2258.6421,-284.4258C2316.7035,-274.9464 2435.3814,-255.5704 2507.5381,-243.7897"/>
<polygon fill="#191970" stroke="#191970" points="2508.5286,-247.1744 2517.8339,-242.1088 2507.4006,-240.2659 2508.5286,-247.1744"/>
</g>
<!-- Node38 -->
<g id="node30" class="node">
<title>Node38</title>
<g id="a_node30"><a xlink:href="applyto_8hpp.html" target="_top" xlink:title="alib/strings/applyto.hpp">
<polygon fill="#ffffff" stroke="#000000" points="2635,-224.5 2635,-243.5 2752,-243.5 2752,-224.5 2635,-224.5"/>
<text text-anchor="middle" x="2693.5" y="-231.5" font-family="Helvetica,sans-Serif" font-size="10.00" fill="#000000">alib/strings/applyto.hpp</text>
</a>
</g>
</g>
<!-- Node2&#45;&gt;Node38 -->
<g id="edge29" class="edge">
<title>Node2&#45;&gt;Node38</title>
<path fill="none" stroke="#191970" d="M2258.6971,-286.486C2326.4898,-279.4339 2482.9571,-262.7299 2624.5243,-244.229"/>
<polygon fill="#191970" stroke="#191970" points="2625.2308,-247.6663 2634.6899,-242.8939 2624.3193,-240.7259 2625.2308,-247.6663"/>
</g>
<!-- Node39 -->
<g id="node31" class="node">
<title>Node39</title>
<g id="a_node31"><a xlink:href="applyformat_8hpp.html" target="_top" xlink:title="alib/strings/applyformat.hpp">
<polygon fill="#ffffff" stroke="#ff0000" points="2770,-224.5 2770,-243.5 2907,-243.5 2907,-224.5 2770,-224.5"/>
<text text-anchor="middle" x="2838.5" y="-231.5" font-family="Helvetica,sans-Serif" font-size="10.00" fill="#000000">alib/strings/applyformat.hpp</text>
</a>
</g>
</g>
<!-- Node2&#45;&gt;Node39 -->
<g id="edge30" class="edge">
<title>Node2&#45;&gt;Node39</title>
<path fill="none" stroke="#191970" d="M2258.7897,-287.5851C2342.5031,-281.5778 2564.1955,-264.9973 2759.5078,-244.18"/>
<polygon fill="#191970" stroke="#191970" points="2760.1009,-247.6365 2769.6707,-243.0903 2759.3546,-240.6764 2760.1009,-247.6365"/>
</g>
<!-- Node42&#45;&gt;Node13 -->
<g id="edge32" class="edge">
<title>Node42&#45;&gt;Node13</title>
<path fill="none" stroke="#191970" d="M368.477,-224.4529C403.1922,-216.5555 451.6634,-204.0446 492.5,-188 510.2634,-181.0208 513.4255,-176.527 530.5,-168 641.3987,-112.617 775.187,-50.8173 834.1181,-23.8455"/>
<polygon fill="#191970" stroke="#191970" points="835.6079,-27.0129 843.2473,-19.6719 832.6974,-20.6466 835.6079,-27.0129"/>
</g>
<!-- Node43 -->
<g id="node32" class="node">
<title>Node43</title>
<g id="a_node32"><a xlink:href="threadlock_8hpp.html" target="_top" xlink:title="alib/threads/threadlock.hpp">
<polygon fill="#ffffff" stroke="#ff0000" points="683.5,-168.5 683.5,-187.5 817.5,-187.5 817.5,-168.5 683.5,-168.5"/>
<text text-anchor="middle" x="750.5" y="-175.5" font-family="Helvetica,sans-Serif" font-size="10.00" fill="#000000">alib/threads/threadlock.hpp</text>
</a>
</g>
</g>
<!-- Node42&#45;&gt;Node43 -->
<g id="edge33" class="edge">
<title>Node42&#45;&gt;Node43</title>
<path fill="none" stroke="#191970" d="M391.6311,-224.9841C460.3925,-216.0123 569.2076,-201.8032 673.3059,-188.1558"/>
<polygon fill="#191970" stroke="#191970" points="673.9036,-191.6074 683.3637,-186.837 672.9935,-184.6668 673.9036,-191.6074"/>
</g>
<!-- Node51 -->
<g id="node33" class="node">
<title>Node51</title>
<g id="a_node33"><a xlink:href="substring_8hpp.html" target="_top" xlink:title="alib/strings/substring.hpp">
<polygon fill="#ffffff" stroke="#000000" points="281,-56.5 281,-75.5 406,-75.5 406,-56.5 281,-56.5"/>
<text text-anchor="middle" x="343.5" y="-63.5" font-family="Helvetica,sans-Serif" font-size="10.00" fill="#000000">alib/strings/substring.hpp</text>
</a>
</g>
</g>
<!-- Node42&#45;&gt;Node51 -->
<g id="edge34" class="edge">
<title>Node42&#45;&gt;Node51</title>
<path fill="none" stroke="#191970" d="M323.2249,-224.1422C324.214,-211.2258 326.1365,-187.8797 328.5,-168 331.9233,-139.2067 337.0207,-106.0089 340.3026,-85.5113"/>
<polygon fill="#191970" stroke="#191970" points="343.7739,-85.9698 341.917,-75.539 336.8639,-84.8512 343.7739,-85.9698"/>
</g>
<!-- Node52 -->
<g id="node34" class="node">
<title>Node52</title>
<g id="a_node34"><a xlink:href="numberformat_8hpp.html" target="_top" xlink:title="alib/strings/numberformat.hpp">
<polygon fill="#ffffff" stroke="#000000" points="337.5,-168.5 337.5,-187.5 483.5,-187.5 483.5,-168.5 337.5,-168.5"/>
<text text-anchor="middle" x="410.5" y="-175.5" font-family="Helvetica,sans-Serif" font-size="10.00" fill="#000000">alib/strings/numberformat.hpp</text>
</a>
</g>
</g>
<!-- Node42&#45;&gt;Node52 -->
<g id="edge35" class="edge">
<title>Node42&#45;&gt;Node52</title>
<path fill="none" stroke="#191970" d="M337.8284,-224.2455C351.3303,-215.6534 371.2122,-203.0014 386.7686,-193.1018"/>
<polygon fill="#191970" stroke="#191970" points="388.7897,-195.9643 395.3472,-187.6427 385.0315,-190.0587 388.7897,-195.9643"/>
</g>
<!-- Node53 -->
<g id="node35" class="node">
<title>Node53</title>
<g id="a_node35"><a xlink:href="variable_8hpp.html" target="_top" xlink:title="alib/config/variable.hpp">
<polygon fill="#ffffff" stroke="#000000" points="108.5,-56.5 108.5,-75.5 224.5,-75.5 224.5,-56.5 108.5,-56.5"/>
<text text-anchor="middle" x="166.5" y="-63.5" font-family="Helvetica,sans-Serif" font-size="10.00" fill="#000000">alib/config/variable.hpp</text>
</a>
</g>
</g>
<!-- Node42&#45;&gt;Node53 -->
<g id="edge36" class="edge">
<title>Node42&#45;&gt;Node53</title>
<path fill="none" stroke="#191970" d="M263.4359,-224.4564C205.1128,-214.4988 123.1209,-198.8537 112.5,-188 88.6297,-163.6064 85.8164,-142.3128 101.5,-112 108.5546,-98.365 121.7195,-87.9036 134.3663,-80.4282"/>
<polygon fill="#191970" stroke="#191970" points="136.2837,-83.3692 143.3888,-75.5099 132.9334,-77.2231 136.2837,-83.3692"/>
</g>
<!-- Node54 -->
<g id="node36" class="node">
<title>Node54</title>
<g id="a_node36"><a xlink:href="plugins_8hpp.html" target="_top" xlink:title="alib/config/plugins.hpp">
<polygon fill="#ffffff" stroke="#000000" points="111,-112.5 111,-131.5 224,-131.5 224,-112.5 111,-112.5"/>
<text text-anchor="middle" x="167.5" y="-119.5" font-family="Helvetica,sans-Serif" font-size="10.00" fill="#000000">alib/config/plugins.hpp</text>
</a>
</g>
</g>
<!-- Node42&#45;&gt;Node54 -->
<g id="edge37" class="edge">
<title>Node42&#45;&gt;Node54</title>
<path fill="none" stroke="#191970" d="M263.9475,-224.4635C207.5793,-214.6877 129.557,-199.3513 120.5,-188 107.2305,-171.369 126.047,-151.3514 143.6674,-137.7542"/>
<polygon fill="#191970" stroke="#191970" points="146.0475,-140.3509 152.0754,-131.638 141.9297,-134.6901 146.0475,-140.3509"/>
</g>
<!-- Node55 -->
<g id="node37" class="node">
<title>Node55</title>
<g id="a_node37"><a xlink:href="inmemoryplugin_8hpp.html" target="_top" xlink:title="alib/config/inmemoryplugin.hpp">
<polygon fill="#ffffff" stroke="#000000" points="130,-168.5 130,-187.5 281,-187.5 281,-168.5 130,-168.5"/>
<text text-anchor="middle" x="205.5" y="-175.5" font-family="Helvetica,sans-Serif" font-size="10.00" fill="#000000">alib/config/inmemoryplugin.hpp</text>
</a>
</g>
</g>
<!-- Node42&#45;&gt;Node55 -->
<g id="edge38" class="edge">
<title>Node42&#45;&gt;Node55</title>
<path fill="none" stroke="#191970" d="M302.387,-224.3733C283.6897,-215.4241 255.6256,-201.9917 234.5066,-191.8835"/>
<polygon fill="#191970" stroke="#191970" points="235.8817,-188.6614 225.3506,-187.5011 232.8595,-194.9755 235.8817,-188.6614"/>
</g>
<!-- Node56 -->
<g id="node38" class="node">
<title>Node56</title>
<g id="a_node38"><a xlink:href="tokenizer_8hpp.html" target="_top" xlink:title="alib/strings/tokenizer.hpp">
<polygon fill="#ffffff" stroke="#ff0000" points="540,-168.5 540,-187.5 665,-187.5 665,-168.5 540,-168.5"/>
<text text-anchor="middle" x="602.5" y="-175.5" font-family="Helvetica,sans-Serif" font-size="10.00" fill="#000000">alib/strings/tokenizer.hpp</text>
</a>
</g>
</g>
<!-- Node42&#45;&gt;Node56 -->
<g id="edge39" class="edge">
<title>Node42&#45;&gt;Node56</title>
<path fill="none" stroke="#191970" d="M370.3156,-224.4369C418.6381,-214.7724 493.3372,-199.8326 544.8936,-189.5213"/>
<polygon fill="#191970" stroke="#191970" points="545.7623,-192.9169 554.8816,-187.5237 544.3894,-186.0529 545.7623,-192.9169"/>
</g>
<!-- Node58&#45;&gt;Node1 -->
<g id="edge46" class="edge">
<title>Node58&#45;&gt;Node1</title>
<path fill="none" stroke="#191970" d="M520.5463,-298.2273C543.1824,-307.1109 576.7209,-321.4175 600.0719,-332.062"/>
<polygon fill="#191970" stroke="#191970" points="598.8487,-335.3524 609.3942,-336.3733 601.787,-328.9989 598.8487,-335.3524"/>
</g>
<!-- Node59&#45;&gt;Node1 -->
<g id="edge47" class="edge">
<title>Node59&#45;&gt;Node1</title>
<path fill="none" stroke="#191970" d="M610.2221,-299.6427C615.1276,-307.0798 620.4159,-317.6064 624.0103,-326.7493"/>
<polygon fill="#191970" stroke="#191970" points="620.706,-327.9038 627.238,-336.2455 627.3337,-325.6511 620.706,-327.9038"/>
</g>
<!-- Node59&#45;&gt;Node42 -->
<g id="edge48" class="edge">
<title>Node59&#45;&gt;Node42</title>
<path fill="none" stroke="#191970" d="M576.438,-283.4042C571.8252,-282.2147 567.0236,-281.0275 562.5,-280 503.7915,-266.6652 436.4244,-253.9794 388.0376,-245.3205"/>
<polygon fill="#191970" stroke="#191970" points="388.4691,-241.8424 378.0104,-243.5351 387.2419,-248.734 388.4691,-241.8424"/>
</g>
<!-- Node59&#45;&gt;Node56 -->
<g id="edge50" class="edge">
<title>Node59&#45;&gt;Node56</title>
<path fill="none" stroke="#191970" d="M576.282,-283.5248C531.6231,-271.5302 440.6261,-246.8138 438.5,-244 433.1414,-236.9079 433.13,-231.0835 438.5,-224 450.0204,-208.8037 491.5594,-197.2436 529.9457,-189.513"/>
<polygon fill="#191970" stroke="#191970" points="530.9887,-192.8759 540.1373,-187.5324 529.6533,-186.0044 530.9887,-192.8759"/>
</g>
<!-- Node48 -->
<g id="node39" class="node">
<title>Node48</title>
<polygon fill="#ffffff" stroke="#bfbfbf" points="0,-168.5 0,-187.5 35,-187.5 35,-168.5 0,-168.5"/>
<text text-anchor="middle" x="17.5" y="-175.5" font-family="Helvetica,sans-Serif" font-size="10.00" fill="#000000">map</text>
</g>
<!-- Node59&#45;&gt;Node48 -->
<g id="edge49" class="edge">
<title>Node59&#45;&gt;Node48</title>
<path fill="none" stroke="#191970" d="M576.1951,-286.4893C562.489,-284.5315 545.0465,-282.0766 529.5,-280 402.9508,-263.0964 366.2782,-282.3472 244.5,-244 226.296,-238.2677 224.3956,-230.6328 206.5,-224 139.3736,-199.1205 118.6057,-206.6906 49.5,-188 48.0251,-187.6011 46.5162,-187.1789 44.9958,-186.7423"/>
<polygon fill="#191970" stroke="#191970" points="45.6177,-183.2746 35.0335,-183.7479 43.6028,-189.9783 45.6177,-183.2746"/>
</g>
<!-- Node60 -->
<g id="node40" class="node">
<title>Node60</title>
<g id="a_node40"><a xlink:href="smartlock_8hpp.html" target="_top" xlink:title="alib/threads/smartlock.hpp">
<polygon fill="#ffffff" stroke="#000000" points="448,-224.5 448,-243.5 579,-243.5 579,-224.5 448,-224.5"/>
<text text-anchor="middle" x="513.5" y="-231.5" font-family="Helvetica,sans-Serif" font-size="10.00" fill="#000000">alib/threads/smartlock.hpp</text>
</a>
</g>
</g>
<!-- Node59&#45;&gt;Node60 -->
<g id="edge51" class="edge">
<title>Node59&#45;&gt;Node60</title>
<path fill="none" stroke="#191970" d="M585.3458,-280.2455C571.9973,-271.6534 552.3414,-259.0014 536.9617,-249.1018"/>
<polygon fill="#191970" stroke="#191970" points="538.7836,-246.1121 528.4806,-243.6427 534.9949,-251.9982 538.7836,-246.1121"/>
</g>
<!-- Node61 -->
<g id="node41" class="node">
<title>Node61</title>
<g id="a_node41"><a xlink:href="scopeinfo_8hpp.html" target="_top" xlink:title="alox/core/scopeinfo.hpp">
<polygon fill="#ffffff" stroke="#ff0000" points="77.5,-224.5 77.5,-243.5 197.5,-243.5 197.5,-224.5 77.5,-224.5"/>
<text text-anchor="middle" x="137.5" y="-231.5" font-family="Helvetica,sans-Serif" font-size="10.00" fill="#000000">alox/core/scopeinfo.hpp</text>
</a>
</g>
</g>
<!-- Node59&#45;&gt;Node61 -->
<g id="edge52" class="edge">
<title>Node59&#45;&gt;Node61</title>
<path fill="none" stroke="#191970" d="M576.2052,-286.4116C562.5023,-284.4295 545.0596,-281.9761 529.5,-280 388.3973,-262.0796 352.6523,-261.525 211.5,-244 210.2336,-243.8428 208.9551,-243.6828 207.6675,-243.5207"/>
<polygon fill="#191970" stroke="#191970" points="208.0247,-240.0379 197.6613,-242.2404 207.1363,-246.9813 208.0247,-240.0379"/>
</g>
<!-- Node65 -->
<g id="node42" class="node">
<title>Node65</title>
<g id="a_node42"><a xlink:href="logger_8hpp.html" target="_top" xlink:title="alox/core/logger.hpp">
<polygon fill="#ffffff" stroke="#000000" points="869.5,-224.5 869.5,-243.5 973.5,-243.5 973.5,-224.5 869.5,-224.5"/>
<text text-anchor="middle" x="921.5" y="-231.5" font-family="Helvetica,sans-Serif" font-size="10.00" fill="#000000">alox/core/logger.hpp</text>
</a>
</g>
</g>
<!-- Node59&#45;&gt;Node65 -->
<g id="edge53" class="edge">
<title>Node59&#45;&gt;Node65</title>
<path fill="none" stroke="#191970" d="M624.6272,-285.7909C673.9617,-277.1843 787.7443,-257.3343 859.2468,-244.8604"/>
<polygon fill="#191970" stroke="#191970" points="860.2272,-248.2423 869.4769,-243.0757 859.0242,-241.3464 860.2272,-248.2423"/>
</g>
<!-- Node66 -->
<g id="node43" class="node">
<title>Node66</title>
<g id="a_node43"><a xlink:href="domain_8hpp.html" target="_top" xlink:title="alox/core/domain.hpp">
<polygon fill="#ffffff" stroke="#000000" points="597.5,-224.5 597.5,-243.5 707.5,-243.5 707.5,-224.5 597.5,-224.5"/>
<text text-anchor="middle" x="652.5" y="-231.5" font-family="Helvetica,sans-Serif" font-size="10.00" fill="#000000">alox/core/domain.hpp</text>
</a>
</g>
</g>
<!-- Node59&#45;&gt;Node66 -->
<g id="edge54" class="edge">
<title>Node59&#45;&gt;Node66</title>
<path fill="none" stroke="#191970" d="M609.5577,-280.2455C617.0142,-272.2155 627.7634,-260.6394 636.6417,-251.0781"/>
<polygon fill="#191970" stroke="#191970" points="639.3063,-253.3522 643.5461,-243.6427 634.1768,-248.589 639.3063,-253.3522"/>
</g>
<!-- Node67 -->
<g id="node44" class="node">
<title>Node67</title>
<g id="a_node44"><a xlink:href="scopestore_8hpp.html" target="_top" xlink:title="alox/core/scopestore.hpp">
<polygon fill="#ffffff" stroke="#000000" points="725.5,-224.5 725.5,-243.5 851.5,-243.5 851.5,-224.5 725.5,-224.5"/>
<text text-anchor="middle" x="788.5" y="-231.5" font-family="Helvetica,sans-Serif" font-size="10.00" fill="#000000">alox/core/scopestore.hpp</text>
</a>
</g>
</g>
<!-- Node59&#45;&gt;Node67 -->
<g id="edge55" class="edge">
<title>Node59&#45;&gt;Node67</title>
<path fill="none" stroke="#191970" d="M624.6928,-282.7936C655.5542,-273.6009 709.4136,-257.5576 746.9143,-246.3872"/>
<polygon fill="#191970" stroke="#191970" points="747.963,-249.7269 756.5476,-243.5177 745.9646,-243.0182 747.963,-249.7269"/>
</g>
<!-- Node12&#45;&gt;Node13 -->
<g id="edge31" class="edge">
<title>Node12&#45;&gt;Node13</title>
<path fill="none" stroke="#191970" d="M2050.8609,-116.8966C1834.5281,-97.404 1064.1446,-27.9889 896.75,-12.9059"/>
<polygon fill="#191970" stroke="#191970" points="896.8821,-9.4037 886.6084,-11.9921 896.2539,-16.3754 896.8821,-9.4037"/>
</g>
<!-- Node53&#45;&gt;Node13 -->
<g id="edge40" class="edge">
<title>Node53&#45;&gt;Node13</title>
<path fill="none" stroke="#191970" d="M224.6193,-57.5994C229.3111,-57.0214 233.9821,-56.4792 238.5,-56 465.2186,-31.9512 739.4702,-16.4868 832.1368,-11.6378"/>
<polygon fill="#191970" stroke="#191970" points="832.4704,-15.1253 842.2756,-11.1119 832.1077,-8.1347 832.4704,-15.1253"/>
</g>
<!-- Node54&#45;&gt;Node51 -->
<g id="edge41" class="edge">
<title>Node54&#45;&gt;Node51</title>
<path fill="none" stroke="#191970" d="M197.7555,-112.3733C227.1483,-103.021 271.9292,-88.7725 304.0934,-78.5385"/>
<polygon fill="#191970" stroke="#191970" points="305.1713,-81.8685 313.6393,-75.5011 303.0488,-75.198 305.1713,-81.8685"/>
</g>
<!-- Node54&#45;&gt;Node53 -->
<g id="edge42" class="edge">
<title>Node54&#45;&gt;Node53</title>
<path fill="none" stroke="#191970" d="M167.3258,-112.2455C167.1953,-104.9382 167.0124,-94.6944 166.8519,-85.7046"/>
<polygon fill="#191970" stroke="#191970" points="170.3503,-85.5786 166.6722,-75.6427 163.3514,-85.7036 170.3503,-85.5786"/>
</g>
<!-- Node55&#45;&gt;Node13 -->
<g id="edge43" class="edge">
<title>Node55&#45;&gt;Node13</title>
<path fill="none" stroke="#191970" d="M211.4564,-168.222C217.039,-158.9725 225.5433,-144.6605 232.5,-132 250.7831,-98.7267 239.8907,-77.0293 271.5,-56 318.3436,-24.8356 715.2327,-13.3941 832.1914,-10.6813"/>
<polygon fill="#191970" stroke="#191970" points="832.3894,-14.1778 842.3076,-10.4524 832.231,-7.1796 832.3894,-14.1778"/>
</g>
<!-- Node55&#45;&gt;Node54 -->
<g id="edge44" class="edge">
<title>Node55&#45;&gt;Node54</title>
<path fill="none" stroke="#191970" d="M198.8809,-168.2455C193.5954,-160.4564 186.0459,-149.3308 179.6762,-139.9439"/>
<polygon fill="#191970" stroke="#191970" points="182.5545,-137.9522 174.0432,-131.6427 176.7621,-141.8827 182.5545,-137.9522"/>
</g>
<!-- Node56&#45;&gt;Node51 -->
<g id="edge45" class="edge">
<title>Node56&#45;&gt;Node51</title>
<path fill="none" stroke="#191970" d="M580.4178,-168.4509C534.3526,-148.5308 427.8929,-102.4942 374.7936,-79.5323"/>
<polygon fill="#191970" stroke="#191970" points="376.0941,-76.2816 365.5263,-75.5249 373.3157,-82.7066 376.0941,-76.2816"/>
</g>
<!-- Node60&#45;&gt;Node13 -->
<g id="edge56" class="edge">
<title>Node60&#45;&gt;Node13</title>
<path fill="none" stroke="#191970" d="M579.2833,-224.8033C670.4194,-211.9964 824.2462,-190.1131 826.5,-188 870.7882,-146.4761 870.0037,-67.0232 866.855,-29.9594"/>
<polygon fill="#191970" stroke="#191970" points="870.3275,-29.5085 865.8492,-19.9067 863.3622,-30.2055 870.3275,-29.5085"/>
</g>
<!-- Node60&#45;&gt;Node43 -->
<g id="edge57" class="edge">
<title>Node60&#45;&gt;Node43</title>
<path fill="none" stroke="#191970" d="M553.9725,-224.4369C594.448,-214.8731 656.7867,-200.1432 700.3703,-189.845"/>
<polygon fill="#191970" stroke="#191970" points="701.2673,-193.2295 710.1945,-187.5237 699.6576,-186.4171 701.2673,-193.2295"/>
</g>
<!-- Node61&#45;&gt;Node1 -->
<g id="edge58" class="edge">
<title>Node61&#45;&gt;Node1</title>
<path fill="none" stroke="#191970" d="M174.0527,-243.5632C204.1713,-251.8862 247.7496,-264.9553 284.5,-280 302.5275,-287.38 304.9623,-294.0157 323.5,-300 411.0928,-328.2766 518.6654,-339.3427 579.2168,-343.5462"/>
<polygon fill="#191970" stroke="#191970" points="579.0316,-347.0415 589.2407,-344.2088 579.4933,-340.0567 579.0316,-347.0415"/>
</g>
<!-- Node61&#45;&gt;Node48 -->
<g id="edge59" class="edge">
<title>Node61&#45;&gt;Node48</title>
<path fill="none" stroke="#191970" d="M116.8713,-224.3733C96.7909,-215.0024 66.177,-200.7159 44.2376,-190.4776"/>
<polygon fill="#191970" stroke="#191970" points="45.6718,-187.2845 35.1299,-186.2273 42.7116,-193.6278 45.6718,-187.2845"/>
</g>
<!-- Node65&#45;&gt;Node1 -->
<g id="edge60" class="edge">
<title>Node65&#45;&gt;Node1</title>
<path fill="none" stroke="#191970" d="M915.7995,-243.8935C906.7376,-258.6558 887.5822,-286.1869 863.5,-300 831.7944,-318.1857 733.2853,-332.9431 673.7141,-340.5025"/>
<polygon fill="#191970" stroke="#191970" points="673.2763,-337.0299 663.7867,-341.7415 674.1432,-343.9761 673.2763,-337.0299"/>
</g>
<!-- Node65&#45;&gt;Node13 -->
<g id="edge61" class="edge">
<title>Node65&#45;&gt;Node13</title>
<path fill="none" stroke="#191970" d="M921.8033,-224.3282C922.3318,-196.8797 921.5621,-116.5665 897.5,-56 893.4493,-45.804 886.6569,-35.7538 880.2839,-27.6608"/>
<polygon fill="#191970" stroke="#191970" points="882.7712,-25.1781 873.6828,-19.7329 877.3919,-29.6573 882.7712,-25.1781"/>
</g>
<!-- Node66&#45;&gt;Node1 -->
<g id="edge62" class="edge">
<title>Node66&#45;&gt;Node1</title>
<path fill="none" stroke="#191970" d="M650.2889,-243.5249C646.0336,-261.8551 636.63,-302.363 631.0039,-326.5987"/>
<polygon fill="#191970" stroke="#191970" points="627.5688,-325.9185 628.7167,-336.4509 634.3875,-327.5014 627.5688,-325.9185"/>
</g>
<!-- Node66&#45;&gt;Node13 -->
<g id="edge63" class="edge">
<title>Node66&#45;&gt;Node13</title>
<path fill="none" stroke="#191970" d="M707.6578,-225.3099C765.6237,-215.6259 849.7738,-199.782 859.5,-188 897.1338,-142.4116 881.3363,-65.6157 870.9312,-29.6683"/>
<polygon fill="#191970" stroke="#191970" points="874.2155,-28.4399 867.9403,-19.9034 867.5224,-30.49 874.2155,-28.4399"/>
</g>
<!-- Node67&#45;&gt;Node1 -->
<g id="edge64" class="edge">
<title>Node67&#45;&gt;Node1</title>
<path fill="none" stroke="#191970" d="M770.7398,-243.5836C754.6559,-252.4696 730.49,-266.3415 710.5,-280 687.419,-295.7705 662.3979,-315.8498 645.7224,-329.6971"/>
<polygon fill="#191970" stroke="#191970" points="643.2388,-327.2117 637.8175,-336.3144 647.7321,-332.5792 643.2388,-327.2117"/>
</g>
<!-- Node69&#45;&gt;Node1 -->
<g id="edge67" class="edge">
<title>Node69&#45;&gt;Node1</title>
<path fill="none" stroke="#191970" d="M909.2675,-392.4369C842.9142,-381.5402 735.7244,-363.9371 674.1393,-353.8235"/>
<polygon fill="#191970" stroke="#191970" points="674.3607,-350.313 663.9256,-352.1461 673.2263,-357.2205 674.3607,-350.313"/>
</g>
<!-- Node69&#45;&gt;Node65 -->
<g id="edge68" class="edge">
<title>Node69&#45;&gt;Node65</title>
<path fill="none" stroke="#191970" d="M960.3385,-392.3084C954.0886,-383.3498 945.2912,-369.4317 940.5,-356 928.19,-321.4895 923.8481,-278.6745 922.3218,-254.0299"/>
<polygon fill="#191970" stroke="#191970" points="925.8041,-253.5976 921.7881,-243.7934 918.8136,-253.9621 925.8041,-253.5976"/>
</g>
<!-- Node70 -->
<g id="node46" class="node">
<title>Node70</title>
<g id="a_node46"><a xlink:href="calendartime_8hpp.html" target="_top" xlink:title="alib/time/calendartime.hpp">
<polygon fill="#ffffff" stroke="#ff0000" points="949,-336.5 949,-355.5 1080,-355.5 1080,-336.5 949,-336.5"/>
<text text-anchor="middle" x="1014.5" y="-343.5" font-family="Helvetica,sans-Serif" font-size="10.00" fill="#000000">alib/time/calendartime.hpp</text>
</a>
</g>
</g>
<!-- Node69&#45;&gt;Node70 -->
<g id="edge69" class="edge">
<title>Node69&#45;&gt;Node70</title>
<path fill="none" stroke="#191970" d="M975.6868,-392.2455C982.3589,-384.2958 991.9479,-372.8706 999.9253,-363.3656"/>
<polygon fill="#191970" stroke="#191970" points="1002.6592,-365.5525 1006.407,-355.6427 997.2974,-361.0524 1002.6592,-365.5525"/>
</g>
<!-- Node71 -->
<g id="node47" class="node">
<title>Node71</title>
<g id="a_node47"><a xlink:href="formatterjavastyle_8hpp.html" target="_top" xlink:title="alib/strings/formatterjavastyle.hpp">
<polygon fill="#ffffff" stroke="#ff0000" points="1098.5,-336.5 1098.5,-355.5 1262.5,-355.5 1262.5,-336.5 1098.5,-336.5"/>
<text text-anchor="middle" x="1180.5" y="-343.5" font-family="Helvetica,sans-Serif" font-size="10.00" fill="#000000">alib/strings/formatterjavastyle.hpp</text>
</a>
</g>
</g>
<!-- Node69&#45;&gt;Node71 -->
<g id="edge70" class="edge">
<title>Node69&#45;&gt;Node71</title>
<path fill="none" stroke="#191970" d="M1004.116,-392.3733C1040.148,-382.9001 1095.2878,-368.4032 1134.3114,-358.1435"/>
<polygon fill="#191970" stroke="#191970" points="1135.5804,-361.4289 1144.3618,-355.5011 1133.8005,-354.6589 1135.5804,-361.4289"/>
</g>
<!-- Node74 -->
<g id="node48" class="node">
<title>Node74</title>
<g id="a_node48"><a xlink:href="formatterpythonstyle_8hpp.html" target="_top" xlink:title="alib/strings/formatterpythonstyle.hpp">
<polygon fill="#ffffff" stroke="#ff0000" points="1281,-336.5 1281,-355.5 1456,-355.5 1456,-336.5 1281,-336.5"/>
<text text-anchor="middle" x="1368.5" y="-343.5" font-family="Helvetica,sans-Serif" font-size="10.00" fill="#000000">alib/strings/formatterpythonstyle.hpp</text>
</a>
</g>
</g>
<!-- Node69&#45;&gt;Node74 -->
<g id="edge71" class="edge">
<title>Node69&#45;&gt;Node74</title>
<path fill="none" stroke="#191970" d="M1035.9787,-392.4369C1106.4811,-382.5912 1216.1883,-367.2705 1290.1173,-356.9462"/>
<polygon fill="#191970" stroke="#191970" points="1290.8839,-360.3732 1300.3037,-355.5237 1289.9157,-353.4405 1290.8839,-360.3732"/>
</g>
</g>
</svg>
