<?xml version="1.0" encoding="UTF-8" standalone="no"?>
<!DOCTYPE svg PUBLIC "-//W3C//DTD SVG 1.1//EN"
 "http://www.w3.org/Graphics/SVG/1.1/DTD/svg11.dtd">
<!-- Generated by graphviz version 2.38.0 (20140413.2041)
 -->
<!-- Title: windowsconsolelogger.hpp Pages: 1 -->
<svg width="1447pt" height="431pt"
 viewBox="0.00 0.00 1447.00 431.00" xmlns="http://www.w3.org/2000/svg" xmlns:xlink="http://www.w3.org/1999/xlink">
<g id="graph0" class="graph" transform="scale(1 1) rotate(0) translate(4 427)">
<title>windowsconsolelogger.hpp</title>
<polygon fill="white" stroke="none" points="-4,4 -4,-427 1443,-427 1443,4 -4,4"/>
<!-- Node1 -->
<g id="node1" class="node"><title>Node1</title>
<polygon fill="#bfbfbf" stroke="black" points="958,-403.5 958,-422.5 1092,-422.5 1092,-403.5 958,-403.5"/>
<text text-anchor="middle" x="1025" y="-410.5" font-family="Helvetica,sans-Serif" font-size="10.00">windowsconsolelogger.hpp</text>
</g>
<!-- Node2 -->
<g id="node2" class="node"><title>Node2</title>
<g id="a_node2"><a xlink:href="alox_8hpp.html" target="_top" xlink:title="alox/alox.hpp">
<polygon fill="white" stroke="black" points="949,-224.5 949,-243.5 1023,-243.5 1023,-224.5 949,-224.5"/>
<text text-anchor="middle" x="986" y="-231.5" font-family="Helvetica,sans-Serif" font-size="10.00">alox/alox.hpp</text>
</a>
</g>
</g>
<!-- Node1&#45;&gt;Node2 -->
<g id="edge1" class="edge"><title>Node1&#45;&gt;Node2</title>
<path fill="none" stroke="midnightblue" d="M1020.27,-403.307C1015.65,-394.436 1008.79,-380.144 1005,-367 993.658,-327.643 988.918,-279.646 987.072,-253.744"/>
<polygon fill="midnightblue" stroke="midnightblue" points="990.549,-253.264 986.414,-243.509 983.563,-253.713 990.549,-253.264"/>
</g>
<!-- Node27 -->
<g id="node27" class="node"><title>Node27</title>
<g id="a_node27"><a xlink:href="textlogger_8hpp.html" target="_top" xlink:title="alox/core/textlogger\l/textlogger.hpp">
<polygon fill="white" stroke="black" points="1014,-336.5 1014,-366.5 1116,-366.5 1116,-336.5 1014,-336.5"/>
<text text-anchor="start" x="1022" y="-354.5" font-family="Helvetica,sans-Serif" font-size="10.00">alox/core/textlogger</text>
<text text-anchor="middle" x="1065" y="-343.5" font-family="Helvetica,sans-Serif" font-size="10.00">/textlogger.hpp</text>
</a>
</g>
</g>
<!-- Node1&#45;&gt;Node27 -->
<g id="edge37" class="edge"><title>Node1&#45;&gt;Node27</title>
<path fill="none" stroke="midnightblue" d="M1030.73,-403.475C1035.74,-396.019 1043.25,-384.852 1049.96,-374.869"/>
<polygon fill="midnightblue" stroke="midnightblue" points="1052.9,-376.775 1055.57,-366.523 1047.09,-372.869 1052.9,-376.775"/>
</g>
<!-- Node3 -->
<g id="node3" class="node"><title>Node3</title>
<g id="a_node3"><a xlink:href="alib_8hpp.html" target="_top" xlink:title="alib/alib.hpp">
<polygon fill="white" stroke="black" points="757,-56.5 757,-75.5 825,-75.5 825,-56.5 757,-56.5"/>
<text text-anchor="middle" x="791" y="-63.5" font-family="Helvetica,sans-Serif" font-size="10.00">alib/alib.hpp</text>
</a>
</g>
</g>
<!-- Node2&#45;&gt;Node3 -->
<g id="edge2" class="edge"><title>Node2&#45;&gt;Node3</title>
<path fill="none" stroke="midnightblue" d="M948.818,-230.913C910.084,-227.19 849.018,-216.828 805,-188 778.749,-170.808 772.092,-161.713 762,-132 756.253,-115.078 766.255,-96.5307 776.046,-83.5951"/>
<polygon fill="midnightblue" stroke="midnightblue" points="778.95,-85.5737 782.594,-75.6253 773.541,-81.1298 778.95,-85.5737"/>
</g>
<!-- Node18 -->
<g id="node18" class="node"><title>Node18</title>
<g id="a_node18"><a xlink:href="alox__symbols_8hpp.html" target="_top" xlink:title="internals/alox_symbols.hpp">
<polygon fill="white" stroke="black" points="918.5,-168.5 918.5,-187.5 1053.5,-187.5 1053.5,-168.5 918.5,-168.5"/>
<text text-anchor="middle" x="986" y="-175.5" font-family="Helvetica,sans-Serif" font-size="10.00">internals/alox_symbols.hpp</text>
</a>
</g>
</g>
<!-- Node2&#45;&gt;Node18 -->
<g id="edge23" class="edge"><title>Node2&#45;&gt;Node18</title>
<path fill="none" stroke="midnightblue" d="M986,-224.083C986,-217.006 986,-206.861 986,-197.986"/>
<polygon fill="midnightblue" stroke="midnightblue" points="989.5,-197.751 986,-187.751 982.5,-197.751 989.5,-197.751"/>
</g>
<!-- Node19 -->
<g id="node19" class="node"><title>Node19</title>
<g id="a_node19"><a xlink:href="alox__macros_8hpp.html" target="_top" xlink:title="internals/alox_macros.hpp">
<polygon fill="white" stroke="black" points="1071.5,-168.5 1071.5,-187.5 1202.5,-187.5 1202.5,-168.5 1071.5,-168.5"/>
<text text-anchor="middle" x="1137" y="-175.5" font-family="Helvetica,sans-Serif" font-size="10.00">internals/alox_macros.hpp</text>
</a>
</g>
</g>
<!-- Node2&#45;&gt;Node19 -->
<g id="edge24" class="edge"><title>Node2&#45;&gt;Node19</title>
<path fill="none" stroke="midnightblue" d="M1009.93,-224.444C1035.22,-215.399 1075.3,-201.064 1103.68,-190.916"/>
<polygon fill="midnightblue" stroke="midnightblue" points="1104.95,-194.179 1113.19,-187.516 1102.59,-187.588 1104.95,-194.179"/>
</g>
<!-- Node20 -->
<g id="node20" class="node"><title>Node20</title>
<g id="a_node20"><a xlink:href="log_8hpp.html" target="_top" xlink:title="log.hpp">
<polygon fill="white" stroke="black" points="667,-168.5 667,-187.5 715,-187.5 715,-168.5 667,-168.5"/>
<text text-anchor="middle" x="691" y="-175.5" font-family="Helvetica,sans-Serif" font-size="10.00">log.hpp</text>
</a>
</g>
</g>
<!-- Node2&#45;&gt;Node20 -->
<g id="edge25" class="edge"><title>Node2&#45;&gt;Node20</title>
<path fill="none" stroke="midnightblue" d="M948.843,-227.203C898.753,-219.226 806.864,-204.023 729,-188 727.73,-187.739 726.438,-187.466 725.133,-187.186"/>
<polygon fill="midnightblue" stroke="midnightblue" points="725.599,-183.703 715.075,-184.929 724.066,-190.533 725.599,-183.703"/>
</g>
<!-- Node21 -->
<g id="node21" class="node"><title>Node21</title>
<g id="a_node21"><a xlink:href="lox_8hpp.html" target="_top" xlink:title="lox.hpp">
<polygon fill="white" stroke="black" points="814,-168.5 814,-187.5 862,-187.5 862,-168.5 814,-168.5"/>
<text text-anchor="middle" x="838" y="-175.5" font-family="Helvetica,sans-Serif" font-size="10.00">lox.hpp</text>
</a>
</g>
</g>
<!-- Node2&#45;&gt;Node21 -->
<g id="edge26" class="edge"><title>Node2&#45;&gt;Node21</title>
<path fill="none" stroke="midnightblue" d="M962.549,-224.444C937.867,-215.438 898.815,-201.189 871.023,-191.049"/>
<polygon fill="midnightblue" stroke="midnightblue" points="871.935,-187.656 861.341,-187.516 869.536,-194.232 871.935,-187.656"/>
</g>
<!-- Node4 -->
<g id="node4" class="node"><title>Node4</title>
<g id="a_node4"><a xlink:href="symbols_8hpp.html" target="_top" xlink:title="alib/core/symbols.hpp">
<polygon fill="white" stroke="black" points="0,-0.5 0,-19.5 112,-19.5 112,-0.5 0,-0.5"/>
<text text-anchor="middle" x="56" y="-7.5" font-family="Helvetica,sans-Serif" font-size="10.00">alib/core/symbols.hpp</text>
</a>
</g>
</g>
<!-- Node3&#45;&gt;Node4 -->
<g id="edge3" class="edge"><title>Node3&#45;&gt;Node4</title>
<path fill="none" stroke="midnightblue" d="M756.708,-63.5827C659.066,-59.3595 371.027,-45.6006 122.118,-20.1595"/>
<polygon fill="midnightblue" stroke="midnightblue" points="122.47,-16.6773 112.164,-19.1336 121.752,-23.6404 122.47,-16.6773"/>
</g>
<!-- Node5 -->
<g id="node5" class="node"><title>Node5</title>
<g id="a_node5"><a xlink:href="macros_8hpp.html" target="_top" xlink:title="alib/core/macros.hpp">
<polygon fill="white" stroke="black" points="129.5,-0.5 129.5,-19.5 236.5,-19.5 236.5,-0.5 129.5,-0.5"/>
<text text-anchor="middle" x="183" y="-7.5" font-family="Helvetica,sans-Serif" font-size="10.00">alib/core/macros.hpp</text>
</a>
</g>
</g>
<!-- Node3&#45;&gt;Node5 -->
<g id="edge4" class="edge"><title>Node3&#45;&gt;Node5</title>
<path fill="none" stroke="midnightblue" d="M756.815,-62.8871C672.263,-57.5095 446.364,-42.2191 246.678,-20.0076"/>
<polygon fill="midnightblue" stroke="midnightblue" points="246.916,-16.5124 236.588,-18.8768 246.136,-23.4688 246.916,-16.5124"/>
</g>
<!-- Node6 -->
<g id="node6" class="node"><title>Node6</title>
<polygon fill="white" stroke="#bfbfbf" points="255,-0.5 255,-19.5 307,-19.5 307,-0.5 255,-0.5"/>
<text text-anchor="middle" x="281" y="-7.5" font-family="Helvetica,sans-Serif" font-size="10.00">assert.h</text>
</g>
<!-- Node3&#45;&gt;Node6 -->
<g id="edge5" class="edge"><title>Node3&#45;&gt;Node6</title>
<path fill="none" stroke="midnightblue" d="M756.772,-63.6048C679.799,-60.0732 487.126,-49.0326 317.149,-19.9439"/>
<polygon fill="midnightblue" stroke="midnightblue" points="317.728,-16.4921 307.277,-18.2293 316.53,-23.3889 317.728,-16.4921"/>
</g>
<!-- Node7 -->
<g id="node7" class="node"><title>Node7</title>
<polygon fill="white" stroke="#bfbfbf" points="325.5,-0.5 325.5,-19.5 374.5,-19.5 374.5,-0.5 325.5,-0.5"/>
<text text-anchor="middle" x="350" y="-7.5" font-family="Helvetica,sans-Serif" font-size="10.00">cstddef</text>
</g>
<!-- Node3&#45;&gt;Node7 -->
<g id="edge6" class="edge"><title>Node3&#45;&gt;Node7</title>
<path fill="none" stroke="midnightblue" d="M756.881,-63.046C688.062,-58.7174 527.634,-46.6693 384.6,-20.0592"/>
<polygon fill="midnightblue" stroke="midnightblue" points="385.245,-16.6193 374.769,-18.2018 383.945,-23.4976 385.245,-16.6193"/>
</g>
<!-- Node8 -->
<g id="node8" class="node"><title>Node8</title>
<polygon fill="white" stroke="#bfbfbf" points="392.5,-0.5 392.5,-19.5 455.5,-19.5 455.5,-0.5 392.5,-0.5"/>
<text text-anchor="middle" x="424" y="-7.5" font-family="Helvetica,sans-Serif" font-size="10.00">windows.h</text>
</g>
<!-- Node3&#45;&gt;Node8 -->
<g id="edge7" class="edge"><title>Node3&#45;&gt;Node8</title>
<path fill="none" stroke="midnightblue" d="M756.956,-61.2764C699.093,-54.7396 577.681,-40.126 465.918,-20.2317"/>
<polygon fill="midnightblue" stroke="midnightblue" points="466.289,-16.7423 455.827,-18.4161 465.049,-23.6317 466.289,-16.7423"/>
</g>
<!-- Node9 -->
<g id="node9" class="node"><title>Node9</title>
<polygon fill="white" stroke="#bfbfbf" points="473.5,-0.5 473.5,-19.5 522.5,-19.5 522.5,-0.5 473.5,-0.5"/>
<text text-anchor="middle" x="498" y="-7.5" font-family="Helvetica,sans-Serif" font-size="10.00">stdint.h</text>
</g>
<!-- Node3&#45;&gt;Node9 -->
<g id="edge8" class="edge"><title>Node3&#45;&gt;Node9</title>
<path fill="none" stroke="midnightblue" d="M756.877,-60.0371C709.01,-52.8651 619.027,-38.6184 532.775,-20.0076"/>
<polygon fill="midnightblue" stroke="midnightblue" points="533.338,-16.5482 522.822,-17.8365 531.846,-23.3874 533.338,-16.5482"/>
</g>
<!-- Node10 -->
<g id="node10" class="node"><title>Node10</title>
<polygon fill="white" stroke="#bfbfbf" points="541,-0.5 541,-19.5 603,-19.5 603,-0.5 541,-0.5"/>
<text text-anchor="middle" x="572" y="-7.5" font-family="Helvetica,sans-Serif" font-size="10.00">type_traits</text>
</g>
<!-- Node3&#45;&gt;Node10 -->
<g id="edge9" class="edge"><title>Node3&#45;&gt;Node10</title>
<path fill="none" stroke="midnightblue" d="M756.781,-56.5625C717.883,-46.9712 654.421,-31.3229 612.933,-21.093"/>
<polygon fill="midnightblue" stroke="midnightblue" points="613.692,-17.6754 603.145,-18.6795 612.016,-24.4719 613.692,-17.6754"/>
</g>
<!-- Node11 -->
<g id="node11" class="node"><title>Node11</title>
<polygon fill="white" stroke="#bfbfbf" points="621,-0.5 621,-19.5 661,-19.5 661,-0.5 621,-0.5"/>
<text text-anchor="middle" x="641" y="-7.5" font-family="Helvetica,sans-Serif" font-size="10.00">utility</text>
</g>
<!-- Node3&#45;&gt;Node11 -->
<g id="edge10" class="edge"><title>Node3&#45;&gt;Node11</title>
<path fill="none" stroke="midnightblue" d="M767.232,-56.4435C741.187,-47.0673 699.352,-32.0068 671.05,-21.818"/>
<polygon fill="midnightblue" stroke="midnightblue" points="671.884,-18.3983 661.289,-18.3042 669.513,-24.9845 671.884,-18.3983"/>
</g>
<!-- Node12 -->
<g id="node12" class="node"><title>Node12</title>
<g id="a_node12"><a xlink:href="enums_8hpp.html" target="_top" xlink:title="alib/core/enums.hpp">
<polygon fill="white" stroke="black" points="679,-0.5 679,-19.5 783,-19.5 783,-0.5 679,-0.5"/>
<text text-anchor="middle" x="731" y="-7.5" font-family="Helvetica,sans-Serif" font-size="10.00">alib/core/enums.hpp</text>
</a>
</g>
</g>
<!-- Node3&#45;&gt;Node12 -->
<g id="edge11" class="edge"><title>Node3&#45;&gt;Node12</title>
<path fill="none" stroke="midnightblue" d="M776.245,-56.324C765.855,-48.4979 752.461,-36.7829 742.779,-27.2238"/>
<polygon fill="midnightblue" stroke="midnightblue" points="745.123,-24.612 735.667,-19.8339 740.079,-29.4661 745.123,-24.612"/>
</g>
<!-- Node13 -->
<g id="node13" class="node"><title>Node13</title>
<g id="a_node13"><a xlink:href="report_8hpp.html" target="_top" xlink:title="alib/core/report.hpp">
<polygon fill="white" stroke="black" points="801,-0.5 801,-19.5 901,-19.5 901,-0.5 801,-0.5"/>
<text text-anchor="middle" x="851" y="-7.5" font-family="Helvetica,sans-Serif" font-size="10.00">alib/core/report.hpp</text>
</a>
</g>
</g>
<!-- Node3&#45;&gt;Node13 -->
<g id="edge13" class="edge"><title>Node3&#45;&gt;Node13</title>
<path fill="none" stroke="midnightblue" d="M795.741,-56.083C803.103,-47.905 816.425,-35.6307 828.272,-25.9535"/>
<polygon fill="midnightblue" stroke="midnightblue" points="830.456,-28.6885 836.146,-19.7511 826.124,-23.1896 830.456,-28.6885"/>
</g>
<!-- Node14 -->
<g id="node14" class="node"><title>Node14</title>
<g id="a_node14"><a xlink:href="cstring_8hpp.html" target="_top" xlink:title="alib/strings/cstring.hpp">
<polygon fill="white" stroke="red" points="919.5,-0.5 919.5,-19.5 1034.5,-19.5 1034.5,-0.5 919.5,-0.5"/>
<text text-anchor="middle" x="977" y="-7.5" font-family="Helvetica,sans-Serif" font-size="10.00">alib/strings/cstring.hpp</text>
</a>
</g>
</g>
<!-- Node3&#45;&gt;Node14 -->
<g id="edge15" class="edge"><title>Node3&#45;&gt;Node14</title>
<path fill="none" stroke="midnightblue" d="M815.383,-56.4435C845.191,-47.2011 895.879,-32.4356 932.621,-22.2572"/>
<polygon fill="midnightblue" stroke="midnightblue" points="933.872,-25.5432 942.586,-19.5164 932.016,-18.7939 933.872,-25.5432"/>
</g>
<!-- Node15 -->
<g id="node15" class="node"><title>Node15</title>
<g id="a_node15"><a xlink:href="as_8hpp.html" target="_top" xlink:title="alib/strings/as.hpp">
<polygon fill="white" stroke="red" points="1053,-0.5 1053,-19.5 1149,-19.5 1149,-0.5 1053,-0.5"/>
<text text-anchor="middle" x="1101" y="-7.5" font-family="Helvetica,sans-Serif" font-size="10.00">alib/strings/as.hpp</text>
</a>
</g>
</g>
<!-- Node3&#45;&gt;Node15 -->
<g id="edge17" class="edge"><title>Node3&#45;&gt;Node15</title>
<path fill="none" stroke="midnightblue" d="M825.289,-58.2155C877.888,-48.603 978.802,-30.9915 1042.92,-20.2069"/>
<polygon fill="midnightblue" stroke="midnightblue" points="1043.6,-23.6422 1052.88,-18.5369 1042.44,-16.7386 1043.6,-23.6422"/>
</g>
<!-- Node16 -->
<g id="node16" class="node"><title>Node16</title>
<g id="a_node16"><a xlink:href="ns__aworx_8hpp.html" target="_top" xlink:title="alib/core/ns_aworx.hpp">
<polygon fill="white" stroke="black" points="1167.5,-0.5 1167.5,-19.5 1284.5,-19.5 1284.5,-0.5 1167.5,-0.5"/>
<text text-anchor="middle" x="1226" y="-7.5" font-family="Helvetica,sans-Serif" font-size="10.00">alib/core/ns_aworx.hpp</text>
</a>
</g>
</g>
<!-- Node3&#45;&gt;Node16 -->
<g id="edge19" class="edge"><title>Node3&#45;&gt;Node16</title>
<path fill="none" stroke="midnightblue" d="M825.169,-60.2633C888.985,-52.1943 1029.92,-35.18 1149,-20 1151.68,-19.6588 1154.41,-19.3075 1157.18,-18.9506"/>
<polygon fill="midnightblue" stroke="midnightblue" points="1157.84,-22.3945 1167.31,-17.6415 1156.94,-15.4522 1157.84,-22.3945"/>
</g>
<!-- Node17 -->
<g id="node17" class="node"><title>Node17</title>
<g id="a_node17"><a xlink:href="namespace_8hpp.html" target="_top" xlink:title="alib/strings/namespace.hpp">
<polygon fill="white" stroke="red" points="1303,-0.5 1303,-19.5 1439,-19.5 1439,-0.5 1303,-0.5"/>
<text text-anchor="middle" x="1371" y="-7.5" font-family="Helvetica,sans-Serif" font-size="10.00">alib/strings/namespace.hpp</text>
</a>
</g>
</g>
<!-- Node3&#45;&gt;Node17 -->
<g id="edge21" class="edge"><title>Node3&#45;&gt;Node17</title>
<path fill="none" stroke="midnightblue" d="M825.251,-61.8374C905.604,-54.9239 1111.65,-37.6654 1284,-20 1286.86,-19.7068 1289.78,-19.4008 1292.73,-19.0862"/>
<polygon fill="midnightblue" stroke="midnightblue" points="1293.3,-22.5449 1302.87,-17.9888 1292.55,-15.5855 1293.3,-22.5449"/>
</g>
<!-- Node12&#45;&gt;Node3 -->
<g id="edge12" class="edge"><title>Node12&#45;&gt;Node3</title>
<path fill="none" stroke="midnightblue" d="M745.854,-19.7511C756.209,-27.5608 769.515,-39.1997 779.162,-48.7175"/>
<polygon fill="midnightblue" stroke="midnightblue" points="776.8,-51.3104 786.259,-56.083 781.84,-46.4533 776.8,-51.3104"/>
</g>
<!-- Node13&#45;&gt;Node3 -->
<g id="edge14" class="edge"><title>Node13&#45;&gt;Node3</title>
<path fill="none" stroke="midnightblue" d="M846.333,-19.8339C838.974,-28.0269 825.565,-40.3824 813.662,-50.1008"/>
<polygon fill="midnightblue" stroke="midnightblue" points="811.448,-47.3889 805.755,-56.324 815.778,-52.8896 811.448,-47.3889"/>
</g>
<!-- Node14&#45;&gt;Node3 -->
<g id="edge16" class="edge"><title>Node14&#45;&gt;Node3</title>
<path fill="none" stroke="midnightblue" d="M952.617,-19.5565C922.731,-28.823 871.857,-43.6416 835.091,-53.8224"/>
<polygon fill="midnightblue" stroke="midnightblue" points="833.839,-50.5367 825.125,-56.5625 835.695,-57.2863 833.839,-50.5367"/>
</g>
<!-- Node15&#45;&gt;Node3 -->
<g id="edge18" class="edge"><title>Node15&#45;&gt;Node3</title>
<path fill="none" stroke="midnightblue" d="M1057.09,-19.5344C998.201,-30.2011 894.461,-48.2491 835.347,-58.0923"/>
<polygon fill="midnightblue" stroke="midnightblue" points="834.494,-54.6857 825.201,-59.7732 835.638,-61.5916 834.494,-54.6857"/>
</g>
<!-- Node16&#45;&gt;Node3 -->
<g id="edge20" class="edge"><title>Node16&#45;&gt;Node3</title>
<path fill="none" stroke="midnightblue" d="M1170.58,-19.5427C1169.37,-19.6968 1168.18,-19.8494 1167,-20 1047.53,-35.2302 906.052,-52.3069 835.452,-60.343"/>
<polygon fill="midnightblue" stroke="midnightblue" points="834.696,-56.9062 825.152,-61.5077 835.482,-63.8619 834.696,-56.9062"/>
</g>
<!-- Node17&#45;&gt;Node3 -->
<g id="edge22" class="edge"><title>Node17&#45;&gt;Node3</title>
<path fill="none" stroke="midnightblue" d="M1306.52,-19.5315C1305,-19.6907 1303.49,-19.8471 1302,-20 1129.72,-37.6577 923.783,-54.9088 835.039,-61.8283"/>
<polygon fill="midnightblue" stroke="midnightblue" points="834.758,-58.3395 825.058,-62.601 835.298,-65.3186 834.758,-58.3395"/>
</g>
<!-- Node22 -->
<g id="node22" class="node"><title>Node22</title>
<g id="a_node22"><a xlink:href="threadlock_8hpp.html" target="_top" xlink:title="alib/threads/threadlock.hpp">
<polygon fill="white" stroke="red" points="771,-112.5 771,-131.5 905,-131.5 905,-112.5 771,-112.5"/>
<text text-anchor="middle" x="838" y="-119.5" font-family="Helvetica,sans-Serif" font-size="10.00">alib/threads/threadlock.hpp</text>
</a>
</g>
</g>
<!-- Node21&#45;&gt;Node22 -->
<g id="edge27" class="edge"><title>Node21&#45;&gt;Node22</title>
<path fill="none" stroke="midnightblue" d="M838,-168.083C838,-161.006 838,-150.861 838,-141.986"/>
<polygon fill="midnightblue" stroke="midnightblue" points="841.5,-141.751 838,-131.751 834.5,-141.751 841.5,-141.751"/>
</g>
<!-- Node23 -->
<g id="node23" class="node"><title>Node23</title>
<g id="a_node23"><a xlink:href="callerinfo_8hpp.html" target="_top" xlink:title="alox/core/callerinfo.hpp">
<polygon fill="white" stroke="red" points="999.5,-112.5 999.5,-131.5 1116.5,-131.5 1116.5,-112.5 999.5,-112.5"/>
<text text-anchor="middle" x="1058" y="-119.5" font-family="Helvetica,sans-Serif" font-size="10.00">alox/core/callerinfo.hpp</text>
</a>
</g>
</g>
<!-- Node21&#45;&gt;Node23 -->
<g id="edge29" class="edge"><title>Node21&#45;&gt;Node23</title>
<path fill="none" stroke="midnightblue" d="M862.384,-171.015C898.683,-162.105 967.534,-145.205 1013.1,-134.021"/>
<polygon fill="midnightblue" stroke="midnightblue" points="1014.14,-137.37 1023.02,-131.587 1012.47,-130.572 1014.14,-137.37"/>
</g>
<!-- Node24 -->
<g id="node24" class="node"><title>Node24</title>
<polygon fill="white" stroke="#bfbfbf" points="977.5,-56.5 977.5,-75.5 1012.5,-75.5 1012.5,-56.5 977.5,-56.5"/>
<text text-anchor="middle" x="995" y="-63.5" font-family="Helvetica,sans-Serif" font-size="10.00">map</text>
</g>
<!-- Node21&#45;&gt;Node24 -->
<g id="edge36" class="edge"><title>Node21&#45;&gt;Node24</title>
<path fill="none" stroke="midnightblue" d="M853.831,-168.49C869.49,-159.874 893.952,-145.875 914,-132 936.517,-116.416 960.826,-96.4452 976.875,-82.7778"/>
<polygon fill="midnightblue" stroke="midnightblue" points="979.574,-85.073 984.878,-75.9012 975.012,-79.7638 979.574,-85.073"/>
</g>
<!-- Node25 -->
<g id="node25" class="node"><title>Node25</title>
<g id="a_node25"><a xlink:href="domain_8hpp.html" target="_top" xlink:title="alox/core/domain.hpp">
<polygon fill="white" stroke="black" points="1207,-112.5 1207,-131.5 1317,-131.5 1317,-112.5 1207,-112.5"/>
<text text-anchor="middle" x="1262" y="-119.5" font-family="Helvetica,sans-Serif" font-size="10.00">alox/core/domain.hpp</text>
</a>
</g>
</g>
<!-- Node21&#45;&gt;Node25 -->
<g id="edge32" class="edge"><title>Node21&#45;&gt;Node25</title>
<path fill="none" stroke="midnightblue" d="M862.011,-173.942C925.649,-165.837 1100.34,-143.589 1196.46,-131.347"/>
<polygon fill="midnightblue" stroke="midnightblue" points="1197.16,-134.786 1206.64,-130.05 1196.28,-127.842 1197.16,-134.786"/>
</g>
<!-- Node26 -->
<g id="node26" class="node"><title>Node26</title>
<polygon fill="white" stroke="#bfbfbf" points="1240,-56.5 1240,-75.5 1284,-75.5 1284,-56.5 1240,-56.5"/>
<text text-anchor="middle" x="1262" y="-63.5" font-family="Helvetica,sans-Serif" font-size="10.00">vector</text>
</g>
<!-- Node21&#45;&gt;Node26 -->
<g id="edge35" class="edge"><title>Node21&#45;&gt;Node26</title>
<path fill="none" stroke="midnightblue" d="M857.72,-168.418C897.3,-151.215 983.233,-113.975 990,-112 1074.5,-87.3317 1177.98,-74.8819 1229.55,-69.8267"/>
<polygon fill="midnightblue" stroke="midnightblue" points="1230.12,-73.2887 1239.74,-68.8585 1229.45,-66.32 1230.12,-73.2887"/>
</g>
<!-- Node22&#45;&gt;Node3 -->
<g id="edge28" class="edge"><title>Node22&#45;&gt;Node3</title>
<path fill="none" stroke="midnightblue" d="M830.239,-112.083C823.463,-104.298 813.457,-92.8015 805.245,-83.3665"/>
<polygon fill="midnightblue" stroke="midnightblue" points="807.822,-80.9963 798.617,-75.7511 802.542,-85.592 807.822,-80.9963"/>
</g>
<!-- Node23&#45;&gt;Node2 -->
<g id="edge30" class="edge"><title>Node23&#45;&gt;Node2</title>
<path fill="none" stroke="midnightblue" d="M1007.96,-131.542C969.508,-139.245 921.002,-151.838 909,-168 892.953,-189.61 924.008,-208.723 951.345,-220.535"/>
<polygon fill="midnightblue" stroke="midnightblue" points="950.195,-223.846 960.775,-224.401 952.85,-217.369 950.195,-223.846"/>
</g>
<!-- Node23&#45;&gt;Node24 -->
<g id="edge31" class="edge"><title>Node23&#45;&gt;Node24</title>
<path fill="none" stroke="midnightblue" d="M1047.88,-112.324C1038.47,-104.263 1024.26,-92.0765 1012.93,-82.3695"/>
<polygon fill="midnightblue" stroke="midnightblue" points="1015.18,-79.6844 1005.31,-75.8339 1010.62,-84.9993 1015.18,-79.6844"/>
</g>
<!-- Node25&#45;&gt;Node2 -->
<g id="edge33" class="edge"><title>Node25&#45;&gt;Node2</title>
<path fill="none" stroke="midnightblue" d="M1257.74,-131.787C1250.35,-146.043 1233.72,-174.022 1211,-188 1156.31,-221.639 1081.3,-230.758 1033.23,-232.898"/>
<polygon fill="midnightblue" stroke="midnightblue" points="1032.97,-229.405 1023.11,-233.263 1033.23,-236.4 1032.97,-229.405"/>
</g>
<!-- Node25&#45;&gt;Node26 -->
<g id="edge34" class="edge"><title>Node25&#45;&gt;Node26</title>
<path fill="none" stroke="midnightblue" d="M1262,-112.083C1262,-105.006 1262,-94.8611 1262,-85.9865"/>
<polygon fill="midnightblue" stroke="midnightblue" points="1265.5,-85.751 1262,-75.7511 1258.5,-85.7511 1265.5,-85.751"/>
</g>
<!-- Node27&#45;&gt;Node2 -->
<g id="edge38" class="edge"><title>Node27&#45;&gt;Node2</title>
<path fill="none" stroke="midnightblue" d="M1055.31,-336.337C1040.76,-315.054 1013.28,-274.887 997.651,-252.035"/>
<polygon fill="midnightblue" stroke="midnightblue" points="1000.46,-249.947 991.93,-243.669 994.686,-253.899 1000.46,-249.947"/>
</g>
<!-- Node28 -->
<g id="node28" class="node"><title>Node28</title>
<g id="a_node28"><a xlink:href="logger_8hpp.html" target="_top" xlink:title="alox/core/logger.hpp">
<polygon fill="white" stroke="black" points="1179,-280.5 1179,-299.5 1283,-299.5 1283,-280.5 1179,-280.5"/>
<text text-anchor="middle" x="1231" y="-287.5" font-family="Helvetica,sans-Serif" font-size="10.00">alox/core/logger.hpp</text>
</a>
</g>
</g>
<!-- Node27&#45;&gt;Node28 -->
<g id="edge39" class="edge"><title>Node27&#45;&gt;Node28</title>
<path fill="none" stroke="midnightblue" d="M1104.34,-336.399C1132.56,-326.283 1170.21,-312.791 1197.1,-303.149"/>
<polygon fill="midnightblue" stroke="midnightblue" points="1198.61,-306.327 1206.85,-299.658 1196.25,-299.737 1198.61,-306.327"/>
</g>
<!-- Node28&#45;&gt;Node2 -->
<g id="edge40" class="edge"><title>Node28&#45;&gt;Node2</title>
<path fill="none" stroke="midnightblue" d="M1192.18,-280.444C1148.94,-270.913 1079.05,-255.508 1032.81,-245.318"/>
<polygon fill="midnightblue" stroke="midnightblue" points="1033.55,-241.897 1023.04,-243.163 1032.05,-248.733 1033.55,-241.897"/>
</g>
<!-- Node28&#45;&gt;Node23 -->
<g id="edge41" class="edge"><title>Node28&#45;&gt;Node23</title>
<path fill="none" stroke="midnightblue" d="M1232.38,-280.399C1235.35,-258.617 1239.92,-200.692 1211,-168 1189.82,-144.059 1156.63,-132.559 1126.56,-127.149"/>
<polygon fill="midnightblue" stroke="midnightblue" points="1126.94,-123.664 1116.51,-125.538 1125.83,-130.576 1126.94,-123.664"/>
</g>
<!-- Node28&#45;&gt;Node25 -->
<g id="edge42" class="edge"><title>Node28&#45;&gt;Node25</title>
<path fill="none" stroke="midnightblue" d="M1234.1,-280.485C1237.26,-271.518 1242.1,-256.933 1245,-244 1253.02,-208.245 1257.96,-165.652 1260.32,-141.728"/>
<polygon fill="midnightblue" stroke="midnightblue" points="1263.82,-141.879 1261.28,-131.594 1256.85,-141.221 1263.82,-141.879"/>
</g>
<!-- Node28&#45;&gt;Node26 -->
<g id="edge43" class="edge"><title>Node28&#45;&gt;Node26</title>
<path fill="none" stroke="midnightblue" d="M1238.79,-280.298C1258.32,-257.804 1309.03,-195.065 1326,-132 1328.31,-123.417 1330.1,-119.889 1326,-112 1318.85,-98.2262 1305.33,-87.783 1292.55,-80.4413"/>
<polygon fill="midnightblue" stroke="midnightblue" points="1293.96,-77.2252 1283.48,-75.6403 1290.68,-83.412 1293.96,-77.2252"/>
</g>
</g>
</svg>
