<?xml version="1.0" encoding="UTF-8" standalone="no"?>
<!DOCTYPE svg PUBLIC "-//W3C//DTD SVG 1.1//EN"
 "http://www.w3.org/Graphics/SVG/1.1/DTD/svg11.dtd">
<!-- Generated by graphviz version 2.38.0 (20140413.2041)
 -->
<!-- Title: Log.ALoxReportWriter Pages: 1 -->
<svg width="270pt" height="255pt"
 viewBox="0.00 0.00 270.00 255.00" xmlns="http://www.w3.org/2000/svg" xmlns:xlink="http://www.w3.org/1999/xlink">
<g id="graph0" class="graph" transform="scale(1 1) rotate(0) translate(4 251)">
<title>Log.ALoxReportWriter</title>
<polygon fill="white" stroke="none" points="-4,4 -4,-251 266,-251 266,4 -4,4"/>
<!-- Node1 -->
<g id="node1" class="node"><title>Node1</title>
<polygon fill="#bfbfbf" stroke="black" points="9,-0.5 9,-19.5 122,-19.5 122,-0.5 9,-0.5"/>
<text text-anchor="middle" x="65.5" y="-7.5" font-family="Helvetica,sans-Serif" font-size="10.00">Log.ALoxReportWriter</text>
</g>
<!-- Node2 -->
<g id="node2" class="node"><title>Node2</title>
<g id="a_node2"><a xlink:href="interfacecs_1_1aworx_1_1lib_1_1ReportWriter.html" target="_top" xlink:title="ReportWriter">
<polygon fill="white" stroke="black" points="4.5,-67.5 4.5,-86.5 76.5,-86.5 76.5,-67.5 4.5,-67.5"/>
<text text-anchor="middle" x="40.5" y="-74.5" font-family="Helvetica,sans-Serif" font-size="10.00">ReportWriter</text>
</a>
</g>
</g>
<!-- Node2&#45;&gt;Node1 -->
<g id="edge1" class="edge"><title>Node2&#45;&gt;Node1</title>
<path fill="none" stroke="midnightblue" d="M47.5038,-57.79C52.3048,-45.3076 58.4563,-29.3135 62.1818,-19.6273"/>
<polygon fill="midnightblue" stroke="midnightblue" points="44.1948,-56.6439 43.8716,-67.2338 50.7282,-59.1568 44.1948,-56.6439"/>
</g>
<!-- Node3 -->
<g id="node3" class="node"><title>Node3</title>
<g id="a_node3"><a xlink:href="classcs_1_1aworx_1_1lox_1_1Lox.html" target="_top" xlink:title="Lox">
<polygon fill="white" stroke="black" points="94.5,-67.5 94.5,-86.5 126.5,-86.5 126.5,-67.5 94.5,-67.5"/>
<text text-anchor="middle" x="110.5" y="-74.5" font-family="Helvetica,sans-Serif" font-size="10.00">Lox</text>
</a>
</g>
</g>
<!-- Node3&#45;&gt;Node1 -->
<g id="edge2" class="edge"><title>Node3&#45;&gt;Node1</title>
<path fill="none" stroke="#9a32cd" stroke-dasharray="5,2" d="M98.6641,-58.9037C89.9197,-46.2729 78.3798,-29.6041 71.4727,-19.6273"/>
<polygon fill="#9a32cd" stroke="#9a32cd" points="95.8613,-61.0041 104.431,-67.2338 101.617,-57.0196 95.8613,-61.0041"/>
<text text-anchor="middle" x="98.5" y="-41" font-family="Helvetica,sans-Serif" font-size="10.00"> lox</text>
</g>
<!-- Node4 -->
<g id="node4" class="node"><title>Node4</title>
<g id="a_node4"><a xlink:href="classcs_1_1aworx_1_1lox_1_1core_1_1CallerInfo.html" target="_top" xlink:title="CallerInfo">
<polygon fill="white" stroke="black" points="81,-152 81,-171 140,-171 140,-152 81,-152"/>
<text text-anchor="middle" x="110.5" y="-159" font-family="Helvetica,sans-Serif" font-size="10.00">CallerInfo</text>
</a>
</g>
</g>
<!-- Node4&#45;&gt;Node3 -->
<g id="edge3" class="edge"><title>Node4&#45;&gt;Node3</title>
<path fill="none" stroke="#9a32cd" stroke-dasharray="5,2" d="M110.5,-141.933C110.5,-124.634 110.5,-99.6114 110.5,-86.5955"/>
<polygon fill="#9a32cd" stroke="#9a32cd" points="107,-141.982 110.5,-151.982 114,-141.982 107,-141.982"/>
<text text-anchor="middle" x="124" y="-113.5" font-family="Helvetica,sans-Serif" font-size="10.00"> caller</text>
</g>
<!-- Node5 -->
<g id="node5" class="node"><title>Node5</title>
<g id="a_node5"><a xlink:href="classcs_1_1aworx_1_1lib_1_1strings_1_1AString.html" target="_top" xlink:title="AString">
<polygon fill="white" stroke="black" points="0,-226.5 0,-245.5 49,-245.5 49,-226.5 0,-226.5"/>
<text text-anchor="middle" x="24.5" y="-233.5" font-family="Helvetica,sans-Serif" font-size="10.00">AString</text>
</a>
</g>
</g>
<!-- Node5&#45;&gt;Node3 -->
<g id="edge7" class="edge"><title>Node5&#45;&gt;Node3</title>
<path fill="none" stroke="#9a32cd" stroke-dasharray="5,2" d="M19.625,-216.461C15.6655,-197.475 12.3696,-167.62 23.5,-145 38.2295,-115.066 73.4761,-94.748 94.306,-84.8876"/>
<polygon fill="#9a32cd" stroke="#9a32cd" points="16.2304,-217.316 21.929,-226.247 23.0441,-215.711 16.2304,-217.316"/>
<text text-anchor="middle" x="47.5" y="-170" font-family="Helvetica,sans-Serif" font-size="10.00"> logBuf</text>
<text text-anchor="middle" x="47.5" y="-159" font-family="Helvetica,sans-Serif" font-size="10.00">tempAS</text>
<text text-anchor="middle" x="47.5" y="-148" font-family="Helvetica,sans-Serif" font-size="10.00">resDomain</text>
</g>
<!-- Node5&#45;&gt;Node4 -->
<g id="edge4" class="edge"><title>Node5&#45;&gt;Node4</title>
<path fill="none" stroke="#9a32cd" stroke-dasharray="5,2" d="M34.3064,-217.379C38.8905,-210.174 44.8156,-202.114 51.5,-196 62.9733,-185.506 78.301,-176.928 90.4579,-171.079"/>
<polygon fill="#9a32cd" stroke="#9a32cd" points="31.039,-216.027 28.9412,-226.412 37.0574,-219.602 31.039,-216.027"/>
<text text-anchor="middle" x="81.5" y="-199" font-family="Helvetica,sans-Serif" font-size="10.00"> ThreadName</text>
</g>
<!-- Node6 -->
<g id="node6" class="node"><title>Node6</title>
<g id="a_node6"><a xlink:href="classcs_1_1aworx_1_1lib_1_1time_1_1Ticks.html" target="_top" xlink:title="Ticks">
<polygon fill="white" stroke="black" points="141,-226.5 141,-245.5 182,-245.5 182,-226.5 141,-226.5"/>
<text text-anchor="middle" x="161.5" y="-233.5" font-family="Helvetica,sans-Serif" font-size="10.00">Ticks</text>
</a>
</g>
</g>
<!-- Node6&#45;&gt;Node4 -->
<g id="edge5" class="edge"><title>Node6&#45;&gt;Node4</title>
<path fill="none" stroke="#9a32cd" stroke-dasharray="5,2" d="M134.678,-220.996C129.304,-217.105 124.185,-212.429 120.5,-207 113.118,-196.124 111.105,-180.642 110.602,-171.1"/>
<polygon fill="#9a32cd" stroke="#9a32cd" points="132.861,-223.989 143.164,-226.46 136.65,-218.103 132.861,-223.989"/>
<text text-anchor="middle" x="147.5" y="-199" font-family="Helvetica,sans-Serif" font-size="10.00"> TimeStamp</text>
</g>
<!-- Node6&#45;&gt;Node6 -->
<g id="edge6" class="edge"><title>Node6&#45;&gt;Node6</title>
<path fill="none" stroke="#9a32cd" stroke-dasharray="5,2" d="M192.316,-241.782C196.9,-240.881 200,-238.954 200,-236 200,-231.152 191.652,-229.069 182.097,-229.751"/>
<polygon fill="#9a32cd" stroke="#9a32cd" points="191.927,-238.296 182.097,-242.249 192.246,-245.289 191.927,-238.296"/>
<text text-anchor="middle" x="231" y="-239" font-family="Helvetica,sans-Serif" font-size="10.00"> CreationTime</text>
<text text-anchor="middle" x="231" y="-228" font-family="Helvetica,sans-Serif" font-size="10.00">tempTicks</text>
</g>
<!-- Node7 -->
<g id="node7" class="node"><title>Node7</title>
<g id="a_node7"><a xlink:href="classcs_1_1aworx_1_1lib_1_1threads_1_1ThreadLock.html" target="_top" xlink:title="ThreadLock">
<polygon fill="white" stroke="black" points="162.5,-152 162.5,-171 230.5,-171 230.5,-152 162.5,-152"/>
<text text-anchor="middle" x="196.5" y="-159" font-family="Helvetica,sans-Serif" font-size="10.00">ThreadLock</text>
</a>
</g>
</g>
<!-- Node6&#45;&gt;Node7 -->
<g id="edge9" class="edge"><title>Node6&#45;&gt;Node7</title>
<path fill="none" stroke="#9a32cd" stroke-dasharray="5,2" d="M172.544,-217.789C174.627,-214.277 176.712,-210.564 178.5,-207 184.554,-194.933 190.154,-180.318 193.45,-171.212"/>
<polygon fill="#9a32cd" stroke="#9a32cd" points="169.515,-216.033 167.232,-226.379 175.469,-219.714 169.515,-216.033"/>
<text text-anchor="middle" x="205" y="-199" font-family="Helvetica,sans-Serif" font-size="10.00"> waitTime</text>
</g>
<!-- Node7&#45;&gt;Node3 -->
<g id="edge8" class="edge"><title>Node7&#45;&gt;Node3</title>
<path fill="none" stroke="#9a32cd" stroke-dasharray="5,2" d="M181.016,-144.256C170.159,-133.021 155.196,-117.842 141.5,-105 134.732,-98.6537 126.843,-91.7903 120.718,-86.5715"/>
<polygon fill="#9a32cd" stroke="#9a32cd" points="178.667,-146.863 188.119,-151.65 183.715,-142.013 178.667,-146.863"/>
<text text-anchor="middle" x="188.5" y="-119" font-family="Helvetica,sans-Serif" font-size="10.00"> logBufLock</text>
<text text-anchor="middle" x="188.5" y="-108" font-family="Helvetica,sans-Serif" font-size="10.00">Lock</text>
</g>
</g>
</svg>
