<?xml version="1.0" encoding="UTF-8" standalone="no"?>
<!DOCTYPE svg PUBLIC "-//W3C//DTD SVG 1.1//EN"
 "http://www.w3.org/Graphics/SVG/1.1/DTD/svg11.dtd">
<!-- Generated by graphviz version 2.40.1 (20161225.0304)
 -->
<!-- Title: FormatterJavaStyle Pages: 1 -->
<svg width="466pt" height="276pt"
 viewBox="0.00 0.00 465.69 276.00" xmlns="http://www.w3.org/2000/svg" xmlns:xlink="http://www.w3.org/1999/xlink">
<g id="graph0" class="graph" transform="scale(1 1) rotate(0) translate(4 272)">
<title>FormatterJavaStyle</title>
<polygon fill="#ffffff" stroke="transparent" points="-4,4 -4,-272 461.6946,-272 461.6946,4 -4,4"/>
<!-- Node3 -->
<g id="node1" class="node">
<title>Node3</title>
<polygon fill="#bfbfbf" stroke="#000000" points="148.1946,-.5 148.1946,-19.5 250.1946,-19.5 250.1946,-.5 148.1946,-.5"/>
<text text-anchor="middle" x="199.1946" y="-7.5" font-family="Helvetica,sans-Serif" font-size="10.00" fill="#000000">FormatterJavaStyle</text>
</g>
<!-- Node4 -->
<g id="node2" class="node">
<title>Node4</title>
<g id="a_node2"><a xlink:href="classcs_1_1aworx_1_1lib_1_1strings_1_1FormatterStdImpl.html" target="_top" xlink:title="FormatterStdImpl">
<polygon fill="#ffffff" stroke="#000000" points="153.1946,-57.5 153.1946,-76.5 245.1946,-76.5 245.1946,-57.5 153.1946,-57.5"/>
<text text-anchor="middle" x="199.1946" y="-64.5" font-family="Helvetica,sans-Serif" font-size="10.00" fill="#000000">FormatterStdImpl</text>
</a>
</g>
</g>
<!-- Node4&#45;&gt;Node3 -->
<g id="edge1" class="edge">
<title>Node4&#45;&gt;Node3</title>
<path fill="none" stroke="#191970" d="M199.1946,-47.2342C199.1946,-37.8491 199.1946,-27.0651 199.1946,-19.5265"/>
<polygon fill="#191970" stroke="#191970" points="195.6947,-47.3307 199.1946,-57.3307 202.6947,-47.3308 195.6947,-47.3307"/>
</g>
<!-- Node5 -->
<g id="node3" class="node">
<title>Node5</title>
<g id="a_node3"><a xlink:href="classcs_1_1aworx_1_1lib_1_1strings_1_1Formatter.html" target="_top" xlink:title="Formatter">
<polygon fill="#ffffff" stroke="#000000" points="88.6946,-153 88.6946,-172 147.6946,-172 147.6946,-153 88.6946,-153"/>
<text text-anchor="middle" x="118.1946" y="-160" font-family="Helvetica,sans-Serif" font-size="10.00" fill="#000000">Formatter</text>
</a>
</g>
</g>
<!-- Node5&#45;&gt;Node4 -->
<g id="edge2" class="edge">
<title>Node5&#45;&gt;Node4</title>
<path fill="none" stroke="#191970" d="M132.8305,-145.2441C149.8251,-125.2073 177.2664,-92.8537 190.9233,-76.7519"/>
<polygon fill="#191970" stroke="#191970" points="130.0565,-143.1037 126.2573,-152.994 135.3949,-147.6316 130.0565,-143.1037"/>
</g>
<!-- Node5&#45;&gt;Node5 -->
<g id="edge3" class="edge">
<title>Node5&#45;&gt;Node5</title>
<path fill="none" stroke="#9a32cd" stroke-dasharray="5,2" d="M157.8669,-170.5566C162.6022,-169.0918 165.6946,-166.4063 165.6946,-162.5 165.6946,-156.25 157.7779,-153.125 147.8821,-153.125"/>
<polygon fill="#9a32cd" stroke="#9a32cd" points="157.3379,-167.096 147.8821,-171.875 158.2542,-174.0358 157.3379,-167.096"/>
<text text-anchor="middle" x="177.6946" y="-160" font-family="Helvetica,sans-Serif" font-size="10.00" fill="#000000"> Next</text>
</g>
<!-- Node6 -->
<g id="node4" class="node">
<title>Node6</title>
<g id="a_node4"><a xlink:href="classcs_1_1aworx_1_1lib_1_1strings_1_1Substring.html" target="_top" xlink:title="Substring">
<polygon fill="#ffffff" stroke="#000000" points="1.1946,-248.5 1.1946,-267.5 59.1946,-267.5 59.1946,-248.5 1.1946,-248.5"/>
<text text-anchor="middle" x="30.1946" y="-255.5" font-family="Helvetica,sans-Serif" font-size="10.00" fill="#000000">Substring</text>
</a>
</g>
</g>
<!-- Node6&#45;&gt;Node4 -->
<g id="edge6" class="edge">
<title>Node6&#45;&gt;Node4</title>
<path fill="none" stroke="#9a32cd" stroke-dasharray="5,2" d="M19.0677,-239.3952C6.5147,-215.7281 -9.8281,-174.511 9.1946,-146 41.0172,-98.3048 107.6206,-79.3624 152.8844,-71.867"/>
<polygon fill="#9a32cd" stroke="#9a32cd" points="16.1588,-241.3638 24.1014,-248.3756 22.265,-237.9412 16.1588,-241.3638"/>
<text text-anchor="middle" x="44.1946" y="-171" font-family="Helvetica,sans-Serif" font-size="10.00" fill="#000000"> formatString</text>
<text text-anchor="middle" x="44.1946" y="-160" font-family="Helvetica,sans-Serif" font-size="10.00" fill="#000000">phaFormatSpec</text>
<text text-anchor="middle" x="44.1946" y="-149" font-family="Helvetica,sans-Serif" font-size="10.00" fill="#000000">parser</text>
</g>
<!-- Node6&#45;&gt;Node5 -->
<g id="edge4" class="edge">
<title>Node6&#45;&gt;Node5</title>
<path fill="none" stroke="#9a32cd" stroke-dasharray="5,2" d="M45.8487,-241.0117C64.2921,-220.9965 94.3051,-188.4255 109.2085,-172.2519"/>
<polygon fill="#9a32cd" stroke="#9a32cd" points="43.1567,-238.7682 38.9541,-248.494 48.3044,-243.5117 43.1567,-238.7682"/>
<text text-anchor="middle" x="123.1946" y="-211" font-family="Helvetica,sans-Serif" font-size="10.00" fill="#000000"> lamFormatString</text>
</g>
<!-- Node7 -->
<g id="node5" class="node">
<title>Node7</title>
<g id="a_node5"><a xlink:href="classcs_1_1aworx_1_1lib_1_1strings_1_1AString.html" target="_top" xlink:title="AString">
<polygon fill="#ffffff" stroke="#000000" points="236.6946,-248.5 236.6946,-267.5 285.6946,-267.5 285.6946,-248.5 236.6946,-248.5"/>
<text text-anchor="middle" x="261.1946" y="-255.5" font-family="Helvetica,sans-Serif" font-size="10.00" fill="#000000">AString</text>
</a>
</g>
</g>
<!-- Node7&#45;&gt;Node4 -->
<g id="edge5" class="edge">
<title>Node7&#45;&gt;Node4</title>
<path fill="none" stroke="#9a32cd" stroke-dasharray="5,2" d="M254.8883,-238.5724C241.8305,-198.3461 212.2342,-107.1704 202.4224,-76.9437"/>
<polygon fill="#9a32cd" stroke="#9a32cd" points="251.6182,-239.8349 258.0348,-248.2657 258.2762,-237.6736 251.6182,-239.8349"/>
<text text-anchor="middle" x="261.6946" y="-165.5" font-family="Helvetica,sans-Serif" font-size="10.00" fill="#000000"> fieldBuffer</text>
<text text-anchor="middle" x="261.6946" y="-154.5" font-family="Helvetica,sans-Serif" font-size="10.00" fill="#000000">targetString</text>
</g>
<!-- Node8 -->
<g id="node6" class="node">
<title>Node8</title>
<g id="a_node6"><a xlink:href="classcs_1_1aworx_1_1lib_1_1strings_1_1NumberFormat.html" target="_top" xlink:title="NumberFormat">
<polygon fill="#ffffff" stroke="#000000" points="295.6946,-153 295.6946,-172 376.6946,-172 376.6946,-153 295.6946,-153"/>
<text text-anchor="middle" x="336.1946" y="-160" font-family="Helvetica,sans-Serif" font-size="10.00" fill="#000000">NumberFormat</text>
</a>
</g>
</g>
<!-- Node7&#45;&gt;Node8 -->
<g id="edge8" class="edge">
<title>Node7&#45;&gt;Node8</title>
<path fill="none" stroke="#9a32cd" stroke-dasharray="5,2" d="M274.9577,-240.475C290.7087,-220.4188 315.9471,-188.2818 328.536,-172.2519"/>
<polygon fill="#9a32cd" stroke="#9a32cd" points="272.0839,-238.4676 268.6601,-248.494 277.5891,-242.7911 272.0839,-238.4676"/>
<text text-anchor="middle" x="342.6946" y="-222" font-family="Helvetica,sans-Serif" font-size="10.00" fill="#000000"> OctLiteralPrefix</text>
<text text-anchor="middle" x="342.6946" y="-211" font-family="Helvetica,sans-Serif" font-size="10.00" fill="#000000">BinLiteralPrefix</text>
<text text-anchor="middle" x="342.6946" y="-200" font-family="Helvetica,sans-Serif" font-size="10.00" fill="#000000">HexLiteralPrefix</text>
</g>
<!-- Node8&#45;&gt;Node4 -->
<g id="edge7" class="edge">
<title>Node8&#45;&gt;Node4</title>
<path fill="none" stroke="#9a32cd" stroke-dasharray="5,2" d="M314.3783,-147.0335C294.9591,-133.2968 265.7535,-112.7118 240.1946,-95 231.2679,-88.814 221.1962,-81.9343 213.2691,-76.5424"/>
<polygon fill="#9a32cd" stroke="#9a32cd" points="312.3796,-149.9069 322.5638,-152.8282 316.4242,-144.1936 312.3796,-149.9069"/>
<text text-anchor="middle" x="340.1946" y="-120" font-family="Helvetica,sans-Serif" font-size="10.00" fill="#000000"> DefaultNumberFormat</text>
<text text-anchor="middle" x="340.1946" y="-109" font-family="Helvetica,sans-Serif" font-size="10.00" fill="#000000">AlternativeNumberFormat</text>
<text text-anchor="middle" x="340.1946" y="-98" font-family="Helvetica,sans-Serif" font-size="10.00" fill="#000000">phaNF</text>
</g>
<!-- Node8&#45;&gt;Node8 -->
<g id="edge9" class="edge">
<title>Node8&#45;&gt;Node8</title>
<path fill="none" stroke="#9a32cd" stroke-dasharray="5,2" d="M387.0182,-169.9914C391.7264,-168.4456 394.6946,-165.9485 394.6946,-162.5 394.6946,-156.9824 387.0959,-153.9003 376.9296,-153.2537"/>
<polygon fill="#9a32cd" stroke="#9a32cd" points="386.1818,-166.5842 376.9296,-171.7463 387.3815,-173.4806 386.1818,-166.5842"/>
<text text-anchor="middle" x="426.1946" y="-165.5" font-family="Helvetica,sans-Serif" font-size="10.00" fill="#000000"> Global</text>
<text text-anchor="middle" x="426.1946" y="-154.5" font-family="Helvetica,sans-Serif" font-size="10.00" fill="#000000">Computational</text>
</g>
</g>
</svg>
