<?xml version="1.0" encoding="UTF-8" standalone="no"?>
<!DOCTYPE svg PUBLIC "-//W3C//DTD SVG 1.1//EN"
 "http://www.w3.org/Graphics/SVG/1.1/DTD/svg11.dtd">
<!-- Generated by graphviz version 2.40.1 (20161225.0304)
 -->
<!-- Title: MetaInfo Pages: 1 -->
<svg width="308pt" height="208pt"
 viewBox="0.00 0.00 308.00 208.00" xmlns="http://www.w3.org/2000/svg" xmlns:xlink="http://www.w3.org/1999/xlink">
<g id="graph0" class="graph" transform="scale(1 1) rotate(0) translate(4 204)">
<title>MetaInfo</title>
<polygon fill="#ffffff" stroke="transparent" points="-4,4 -4,-204 304,-204 304,4 -4,4"/>
<!-- Node1 -->
<g id="node1" class="node">
<title>Node1</title>
<polygon fill="#bfbfbf" stroke="#000000" points="74,-.5 74,-19.5 129,-19.5 129,-.5 74,-.5"/>
<text text-anchor="middle" x="101.5" y="-7.5" font-family="Helvetica,sans-Serif" font-size="10.00" fill="#000000">MetaInfo</text>
</g>
<!-- Node2 -->
<g id="node2" class="node">
<title>Node2</title>
<g id="a_node2"><a xlink:href="classcs_1_1aworx_1_1lib_1_1strings_1_1Tokenizer.html" target="_top" xlink:title="Tokenizer">
<polygon fill="#ffffff" stroke="#000000" points="0,-101.5 0,-120.5 59,-120.5 59,-101.5 0,-101.5"/>
<text text-anchor="middle" x="29.5" y="-108.5" font-family="Helvetica,sans-Serif" font-size="10.00" fill="#000000">Tokenizer</text>
</a>
</g>
</g>
<!-- Node2&#45;&gt;Node1 -->
<g id="edge1" class="edge">
<title>Node2&#45;&gt;Node1</title>
<path fill="none" stroke="#9a32cd" stroke-dasharray="5,2" d="M40.0005,-92.2648C48.7871,-77.1293 62.0203,-55.5368 75.5,-38 80.4321,-31.5834 86.5682,-24.9235 91.6406,-19.7095"/>
<polygon fill="#9a32cd" stroke="#9a32cd" points="36.8337,-90.7522 34.9106,-101.1711 42.9113,-94.2255 36.8337,-90.7522"/>
<text text-anchor="middle" x="86.5" y="-57.5" font-family="Helvetica,sans-Serif" font-size="10.00" fill="#000000"> tTok</text>
</g>
<!-- Node3 -->
<g id="node3" class="node">
<title>Node3</title>
<g id="a_node3"><a xlink:href="classcs_1_1aworx_1_1lib_1_1strings_1_1Substring.html" target="_top" xlink:title="Substring">
<polygon fill="#ffffff" stroke="#000000" points=".5,-180.5 .5,-199.5 58.5,-199.5 58.5,-180.5 .5,-180.5"/>
<text text-anchor="middle" x="29.5" y="-187.5" font-family="Helvetica,sans-Serif" font-size="10.00" fill="#000000">Substring</text>
</a>
</g>
</g>
<!-- Node3&#45;&gt;Node2 -->
<g id="edge2" class="edge">
<title>Node3&#45;&gt;Node2</title>
<path fill="none" stroke="#9a32cd" stroke-dasharray="5,2" d="M29.5,-170.0339C29.5,-154.2875 29.5,-133.0062 29.5,-120.7662"/>
<polygon fill="#9a32cd" stroke="#9a32cd" points="26.0001,-170.313 29.5,-180.313 33.0001,-170.3131 26.0001,-170.313"/>
<text text-anchor="middle" x="43.5" y="-154" font-family="Helvetica,sans-Serif" font-size="10.00" fill="#000000"> Rest</text>
<text text-anchor="middle" x="43.5" y="-143" font-family="Helvetica,sans-Serif" font-size="10.00" fill="#000000">Actual</text>
</g>
<!-- Node4 -->
<g id="node4" class="node">
<title>Node4</title>
<g id="a_node4"><a xlink:href="classcs_1_1aworx_1_1lib_1_1strings_1_1AString.html" target="_top" xlink:title="AString">
<polygon fill="#ffffff" stroke="#000000" points="77,-101.5 77,-120.5 126,-120.5 126,-101.5 77,-101.5"/>
<text text-anchor="middle" x="101.5" y="-108.5" font-family="Helvetica,sans-Serif" font-size="10.00" fill="#000000">AString</text>
</a>
</g>
</g>
<!-- Node4&#45;&gt;Node1 -->
<g id="edge3" class="edge">
<title>Node4&#45;&gt;Node1</title>
<path fill="none" stroke="#9a32cd" stroke-dasharray="5,2" d="M101.5,-91.2744C101.5,-69.6522 101.5,-35.8644 101.5,-19.5075"/>
<polygon fill="#9a32cd" stroke="#9a32cd" points="98.0001,-91.3157 101.5,-101.3157 105.0001,-91.3157 98.0001,-91.3157"/>
<text text-anchor="middle" x="139.5" y="-74" font-family="Helvetica,sans-Serif" font-size="10.00" fill="#000000"> Format</text>
<text text-anchor="middle" x="139.5" y="-63" font-family="Helvetica,sans-Serif" font-size="10.00" fill="#000000">tmpAString</text>
<text text-anchor="middle" x="139.5" y="-52" font-family="Helvetica,sans-Serif" font-size="10.00" fill="#000000">NoSourceFileInfo</text>
<text text-anchor="middle" x="139.5" y="-41" font-family="Helvetica,sans-Serif" font-size="10.00" fill="#000000">NoMethodInfo</text>
</g>
<!-- Node5 -->
<g id="node5" class="node">
<title>Node5</title>
<g id="a_node5"><a xlink:href="classcs_1_1aworx_1_1lib_1_1time_1_1Ticks.html" target="_top" xlink:title="Ticks">
<polygon fill="#ffffff" stroke="#000000" points="180,-101.5 180,-120.5 221,-120.5 221,-101.5 180,-101.5"/>
<text text-anchor="middle" x="200.5" y="-108.5" font-family="Helvetica,sans-Serif" font-size="10.00" fill="#000000">Ticks</text>
</a>
</g>
</g>
<!-- Node5&#45;&gt;Node1 -->
<g id="edge4" class="edge">
<title>Node5&#45;&gt;Node1</title>
<path fill="none" stroke="#9a32cd" stroke-dasharray="5,2" d="M199.3041,-91.0757C197.3144,-74.8599 192.0951,-52.3794 178.5,-38 165.6005,-24.3563 145.5316,-17.3383 129.1165,-13.7407"/>
<polygon fill="#9a32cd" stroke="#9a32cd" points="195.8271,-91.4875 200.2289,-101.1246 202.7977,-90.8459 195.8271,-91.4875"/>
<text text-anchor="middle" x="236.5" y="-63" font-family="Helvetica,sans-Serif" font-size="10.00" fill="#000000"> elapsedTime</text>
<text text-anchor="middle" x="236.5" y="-52" font-family="Helvetica,sans-Serif" font-size="10.00" fill="#000000">MaxElapsedTime</text>
</g>
<!-- Node5&#45;&gt;Node5 -->
<g id="edge6" class="edge">
<title>Node5&#45;&gt;Node5</title>
<path fill="none" stroke="#9a32cd" stroke-dasharray="5,2" d="M231.316,-117.8026C235.9,-116.7429 239,-114.4753 239,-111 239,-105.2969 230.6518,-102.8463 221.0969,-103.6483"/>
<polygon fill="#9a32cd" stroke="#9a32cd" points="230.8947,-114.3201 221.0969,-118.3517 231.2703,-121.31 230.8947,-114.3201"/>
<text text-anchor="middle" x="269.5" y="-114" font-family="Helvetica,sans-Serif" font-size="10.00" fill="#000000"> CreationTime</text>
<text text-anchor="middle" x="269.5" y="-103" font-family="Helvetica,sans-Serif" font-size="10.00" fill="#000000">tempTicks</text>
</g>
<!-- Node6 -->
<g id="node6" class="node">
<title>Node6</title>
<polygon fill="#ffffff" stroke="#bfbfbf" points="165,-180.5 165,-199.5 236,-199.5 236,-180.5 165,-180.5"/>
<text text-anchor="middle" x="200.5" y="-187.5" font-family="Helvetica,sans-Serif" font-size="10.00" fill="#000000">IFormattable</text>
</g>
<!-- Node6&#45;&gt;Node5 -->
<g id="edge5" class="edge">
<title>Node6&#45;&gt;Node5</title>
<path fill="none" stroke="#191970" d="M200.5,-170.0339C200.5,-154.2875 200.5,-133.0062 200.5,-120.7662"/>
<polygon fill="#191970" stroke="#191970" points="197.0001,-170.313 200.5,-180.313 204.0001,-170.3131 197.0001,-170.313"/>
</g>
</g>
</svg>
