<?xml version="1.0" encoding="UTF-8" standalone="no"?>
<!DOCTYPE svg PUBLIC "-//W3C//DTD SVG 1.1//EN"
 "http://www.w3.org/Graphics/SVG/1.1/DTD/svg11.dtd">
<!-- Generated by graphviz version 2.40.1 (20161225.0304)
 -->
<!-- Title: ScopeDump Pages: 1 -->
<svg width="79pt" height="117pt"
 viewBox="0.00 0.00 79.00 117.00" xmlns="http://www.w3.org/2000/svg" xmlns:xlink="http://www.w3.org/1999/xlink">
<g id="graph0" class="graph" transform="scale(1 1) rotate(0) translate(4 113)">
<title>ScopeDump</title>
<polygon fill="#ffffff" stroke="transparent" points="-4,4 -4,-113 75,-113 75,4 -4,4"/>
<!-- Node1 -->
<g id="node1" class="node">
<title>Node1</title>
<polygon fill="#bfbfbf" stroke="#000000" points="0,-.5 0,-19.5 70,-19.5 70,-.5 0,-.5"/>
<text text-anchor="middle" x="35" y="-7.5" font-family="Helvetica,sans-Serif" font-size="10.00" fill="#000000">ScopeDump</text>
</g>
<!-- Node2 -->
<g id="node2" class="node">
<title>Node2</title>
<g id="a_node2"><a xlink:href="classcs_1_1aworx_1_1lib_1_1strings_1_1AString.html" target="_top" xlink:title="AString">
<polygon fill="#ffffff" stroke="#000000" points="10.5,-89.5 10.5,-108.5 59.5,-108.5 59.5,-89.5 10.5,-89.5"/>
<text text-anchor="middle" x="35" y="-96.5" font-family="Helvetica,sans-Serif" font-size="10.00" fill="#000000">AString</text>
</a>
</g>
</g>
<!-- Node2&#45;&gt;Node1 -->
<g id="edge1" class="edge">
<title>Node2&#45;&gt;Node1</title>
<path fill="none" stroke="#9a32cd" stroke-dasharray="5,2" d="M35,-79.2379C35,-60.7654 35,-33.957 35,-19.7259"/>
<polygon fill="#9a32cd" stroke="#9a32cd" points="31.5001,-79.4754 35,-89.4754 38.5001,-79.4755 31.5001,-79.4754"/>
<text text-anchor="middle" x="53" y="-63" font-family="Helvetica,sans-Serif" font-size="10.00" fill="#000000"> target</text>
<text text-anchor="middle" x="53" y="-52" font-family="Helvetica,sans-Serif" font-size="10.00" fill="#000000">tempAS</text>
<text text-anchor="middle" x="53" y="-41" font-family="Helvetica,sans-Serif" font-size="10.00" fill="#000000">key</text>
</g>
</g>
</svg>
