<?xml version="1.0" encoding="UTF-8" standalone="no"?>
<!DOCTYPE svg PUBLIC "-//W3C//DTD SVG 1.1//EN"
 "http://www.w3.org/Graphics/SVG/1.1/DTD/svg11.dtd">
<!-- Generated by graphviz version 2.38.0 (20140413.2041)
 -->
<!-- Title: AnsiConsoleLogger Pages: 1 -->
<svg width="462pt" height="468pt"
 viewBox="0.00 0.00 461.98 468.00" xmlns="http://www.w3.org/2000/svg" xmlns:xlink="http://www.w3.org/1999/xlink">
<g id="graph0" class="graph" transform="scale(1 1) rotate(0) translate(4 464)">
<title>AnsiConsoleLogger</title>
<polygon fill="white" stroke="none" points="-4,4 -4,-464 457.985,-464 457.985,4 -4,4"/>
<!-- Node1 -->
<g id="node1" class="node"><title>Node1</title>
<polygon fill="#bfbfbf" stroke="black" points="308.485,-0.5 308.485,-19.5 409.485,-19.5 409.485,-0.5 308.485,-0.5"/>
<text text-anchor="middle" x="358.985" y="-7.5" font-family="Helvetica,sans-Serif" font-size="10.00">AnsiConsoleLogger</text>
</g>
<!-- Node2 -->
<g id="node2" class="node"><title>Node2</title>
<g id="a_node2"><a xlink:href="classcs_1_1aworx_1_1lox_1_1loggers_1_1AnsiLogger.html" target="_top" xlink:title="AnsiLogger">
<polygon fill="white" stroke="black" points="326.485,-57.5 326.485,-76.5 391.485,-76.5 391.485,-57.5 326.485,-57.5"/>
<text text-anchor="middle" x="358.985" y="-64.5" font-family="Helvetica,sans-Serif" font-size="10.00">AnsiLogger</text>
</a>
</g>
</g>
<!-- Node2&#45;&gt;Node1 -->
<g id="edge1" class="edge"><title>Node2&#45;&gt;Node1</title>
<path fill="none" stroke="midnightblue" d="M358.985,-47.1166C358.985,-37.8173 358.985,-27.0557 358.985,-19.7149"/>
<polygon fill="midnightblue" stroke="midnightblue" points="355.485,-47.4062 358.985,-57.4062 362.485,-47.4063 355.485,-47.4062"/>
</g>
<!-- Node3 -->
<g id="node3" class="node"><title>Node3</title>
<g id="a_node3"><a xlink:href="classcs_1_1aworx_1_1lox_1_1core_1_1textlogger_1_1TextLogger.html" target="_top" xlink:title="TextLogger">
<polygon fill="white" stroke="black" points="269.485,-124.5 269.485,-143.5 334.485,-143.5 334.485,-124.5 269.485,-124.5"/>
<text text-anchor="middle" x="301.985" y="-131.5" font-family="Helvetica,sans-Serif" font-size="10.00">TextLogger</text>
</a>
</g>
</g>
<!-- Node3&#45;&gt;Node2 -->
<g id="edge2" class="edge"><title>Node3&#45;&gt;Node2</title>
<path fill="none" stroke="midnightblue" d="M316.336,-116.635C327.483,-103.923 342.501,-86.7978 351.419,-76.6273"/>
<polygon fill="midnightblue" stroke="midnightblue" points="313.634,-114.408 309.672,-124.234 318.897,-119.023 313.634,-114.408"/>
</g>
<!-- Node4 -->
<g id="node4" class="node"><title>Node4</title>
<g id="a_node4"><a xlink:href="classcs_1_1aworx_1_1lox_1_1core_1_1Logger.html" target="_top" xlink:title="Logger">
<polygon fill="white" stroke="black" points="54.985,-192.5 54.985,-211.5 100.985,-211.5 100.985,-192.5 54.985,-192.5"/>
<text text-anchor="middle" x="77.985" y="-199.5" font-family="Helvetica,sans-Serif" font-size="10.00">Logger</text>
</a>
</g>
</g>
<!-- Node4&#45;&gt;Node3 -->
<g id="edge3" class="edge"><title>Node4&#45;&gt;Node3</title>
<path fill="none" stroke="midnightblue" d="M110.975,-191.28C154.756,-178.38 231.362,-155.809 273.016,-143.535"/>
<polygon fill="midnightblue" stroke="midnightblue" points="109.716,-188.002 101.113,-194.185 111.695,-194.716 109.716,-188.002"/>
</g>
<!-- Node5 -->
<g id="node5" class="node"><title>Node5</title>
<g id="a_node5"><a xlink:href="classcs_1_1aworx_1_1lib_1_1threads_1_1SmartLock.html" target="_top" xlink:title="SmartLock">
<polygon fill="white" stroke="black" points="45.985,-293.5 45.985,-312.5 109.985,-312.5 109.985,-293.5 45.985,-293.5"/>
<text text-anchor="middle" x="77.985" y="-300.5" font-family="Helvetica,sans-Serif" font-size="10.00">SmartLock</text>
</a>
</g>
</g>
<!-- Node5&#45;&gt;Node4 -->
<g id="edge4" class="edge"><title>Node5&#45;&gt;Node4</title>
<path fill="none" stroke="midnightblue" d="M77.985,-283.029C77.985,-261.543 77.985,-227.467 77.985,-211.625"/>
<polygon fill="midnightblue" stroke="midnightblue" points="74.4851,-283.214 77.985,-293.214 81.4851,-283.214 74.4851,-283.214"/>
</g>
<!-- Node6 -->
<g id="node6" class="node"><title>Node6</title>
<g id="a_node6"><a xlink:href="classcs_1_1aworx_1_1lib_1_1threads_1_1ThreadLock.html" target="_top" xlink:title="ThreadLock">
<polygon fill="white" stroke="black" points="43.985,-371.5 43.985,-390.5 111.985,-390.5 111.985,-371.5 43.985,-371.5"/>
<text text-anchor="middle" x="77.985" y="-378.5" font-family="Helvetica,sans-Serif" font-size="10.00">ThreadLock</text>
</a>
</g>
</g>
<!-- Node6&#45;&gt;Node5 -->
<g id="edge5" class="edge"><title>Node6&#45;&gt;Node5</title>
<path fill="none" stroke="midnightblue" d="M77.985,-361.224C77.985,-345.697 77.985,-324.358 77.985,-312.616"/>
<polygon fill="midnightblue" stroke="midnightblue" points="74.4851,-361.282 77.985,-371.282 81.4851,-361.282 74.4851,-361.282"/>
</g>
<!-- Node7 -->
<g id="node7" class="node"><title>Node7</title>
<g id="a_node7"><a xlink:href="classcs_1_1aworx_1_1lib_1_1time_1_1Ticks.html" target="_top" xlink:title="Ticks">
<polygon fill="white" stroke="black" points="57.485,-439.5 57.485,-458.5 98.485,-458.5 98.485,-439.5 57.485,-439.5"/>
<text text-anchor="middle" x="77.985" y="-446.5" font-family="Helvetica,sans-Serif" font-size="10.00">Ticks</text>
</a>
</g>
</g>
<!-- Node7&#45;&gt;Node4 -->
<g id="edge8" class="edge"><title>Node7&#45;&gt;Node4</title>
<path fill="none" stroke="#9a32cd" stroke-dasharray="5,2" d="M60.1762,-432.267C42.0395,-414.942 15.0581,-385.235 3.98497,-353 -15.3547,-296.701 43.7319,-234.381 68.0417,-211.784"/>
<polygon fill="#9a32cd" stroke="#9a32cd" points="58.0813,-435.097 67.798,-439.32 62.8359,-429.959 58.0813,-435.097"/>
<text text-anchor="middle" x="38.985" y="-345" font-family="Helvetica,sans-Serif" font-size="10.00"> TimeOfLastLog</text>
<text text-anchor="middle" x="38.985" y="-334" font-family="Helvetica,sans-Serif" font-size="10.00">TimeOfCreation</text>
</g>
<!-- Node7&#45;&gt;Node6 -->
<g id="edge6" class="edge"><title>Node7&#45;&gt;Node6</title>
<path fill="none" stroke="#9a32cd" stroke-dasharray="5,2" d="M77.985,-429.041C77.985,-416.472 77.985,-400.563 77.985,-390.841"/>
<polygon fill="#9a32cd" stroke="#9a32cd" points="74.4851,-429.372 77.985,-439.372 81.4851,-429.372 74.4851,-429.372"/>
<text text-anchor="middle" x="99.485" y="-412" font-family="Helvetica,sans-Serif" font-size="10.00"> waitTime</text>
</g>
<!-- Node7&#45;&gt;Node7 -->
<g id="edge7" class="edge"><title>Node7&#45;&gt;Node7</title>
<path fill="none" stroke="#9a32cd" stroke-dasharray="5,2" d="M108.801,-454.782C113.385,-453.881 116.485,-451.954 116.485,-449 116.485,-444.152 108.137,-442.069 98.5819,-442.751"/>
<polygon fill="#9a32cd" stroke="#9a32cd" points="108.412,-451.296 98.5819,-455.249 108.731,-458.289 108.412,-451.296"/>
<text text-anchor="middle" x="147.485" y="-452" font-family="Helvetica,sans-Serif" font-size="10.00"> CreationTime</text>
<text text-anchor="middle" x="147.485" y="-441" font-family="Helvetica,sans-Serif" font-size="10.00">tempTicks</text>
</g>
<!-- Node10 -->
<g id="node10" class="node"><title>Node10</title>
<g id="a_node10"><a xlink:href="classcs_1_1aworx_1_1lox_1_1core_1_1textlogger_1_1MetaInfo.html" target="_top" xlink:title="MetaInfo">
<polygon fill="white" stroke="black" points="204.485,-192.5 204.485,-211.5 259.485,-211.5 259.485,-192.5 204.485,-192.5"/>
<text text-anchor="middle" x="231.985" y="-199.5" font-family="Helvetica,sans-Serif" font-size="10.00">MetaInfo</text>
</a>
</g>
</g>
<!-- Node7&#45;&gt;Node10 -->
<g id="edge15" class="edge"><title>Node7&#45;&gt;Node10</title>
<path fill="none" stroke="#9a32cd" stroke-dasharray="5,2" d="M108.757,-441.567C136.226,-434.164 175.357,-419.21 196.985,-391 219.104,-362.149 228.993,-245.077 231.389,-211.838"/>
<polygon fill="#9a32cd" stroke="#9a32cd" points="107.71,-438.221 98.8608,-444.047 109.412,-445.011 107.71,-438.221"/>
<text text-anchor="middle" x="254.985" y="-345" font-family="Helvetica,sans-Serif" font-size="10.00"> elapsedTime</text>
<text text-anchor="middle" x="254.985" y="-334" font-family="Helvetica,sans-Serif" font-size="10.00">MaxElapsedTime</text>
</g>
<!-- Node8 -->
<g id="node8" class="node"><title>Node8</title>
<g id="a_node8"><a xlink:href="classcs_1_1aworx_1_1lib_1_1strings_1_1AString.html" target="_top" xlink:title="AString">
<polygon fill="white" stroke="black" points="279.485,-293.5 279.485,-312.5 328.485,-312.5 328.485,-293.5 279.485,-293.5"/>
<text text-anchor="middle" x="303.985" y="-300.5" font-family="Helvetica,sans-Serif" font-size="10.00">AString</text>
</a>
</g>
</g>
<!-- Node8&#45;&gt;Node3 -->
<g id="edge9" class="edge"><title>Node8&#45;&gt;Node3</title>
<path fill="none" stroke="#9a32cd" stroke-dasharray="5,2" d="M320.385,-285.333C322.68,-282.129 324.693,-278.632 325.985,-275 332.376,-257.038 320.352,-163.045 319.985,-162 317.673,-155.408 313.377,-148.867 309.562,-143.875"/>
<polygon fill="#9a32cd" stroke="#9a32cd" points="317.685,-283.107 313.955,-293.024 323.055,-287.597 317.685,-283.107"/>
<text text-anchor="middle" x="342.985" y="-205" font-family="Helvetica,sans-Serif" font-size="10.00"> logBuf</text>
<text text-anchor="middle" x="342.985" y="-194" font-family="Helvetica,sans-Serif" font-size="10.00">msgBuf</text>
</g>
<!-- Node8&#45;&gt;Node10 -->
<g id="edge14" class="edge"><title>Node8&#45;&gt;Node10</title>
<path fill="none" stroke="#9a32cd" stroke-dasharray="5,2" d="M269.993,-290.56C262.501,-286.65 255.242,-281.554 249.985,-275 234.828,-256.105 232.225,-226.132 231.912,-211.542"/>
<polygon fill="#9a32cd" stroke="#9a32cd" points="268.925,-293.92 279.474,-294.897 271.837,-287.554 268.925,-293.92"/>
<text text-anchor="middle" x="287.985" y="-267" font-family="Helvetica,sans-Serif" font-size="10.00"> Format</text>
<text text-anchor="middle" x="287.985" y="-256" font-family="Helvetica,sans-Serif" font-size="10.00">tmpAString</text>
<text text-anchor="middle" x="287.985" y="-245" font-family="Helvetica,sans-Serif" font-size="10.00">NoSourceFileInfo</text>
<text text-anchor="middle" x="287.985" y="-234" font-family="Helvetica,sans-Serif" font-size="10.00">NoMethodInfo</text>
</g>
<!-- Node9 -->
<g id="node9" class="node"><title>Node9</title>
<g id="a_node9"><a xlink:href="classcs_1_1aworx_1_1lox_1_1core_1_1textlogger_1_1AutoSizes.html" target="_top" xlink:title="AutoSizes">
<polygon fill="white" stroke="black" points="391.985,-192.5 391.985,-211.5 453.985,-211.5 453.985,-192.5 391.985,-192.5"/>
<text text-anchor="middle" x="422.985" y="-199.5" font-family="Helvetica,sans-Serif" font-size="10.00">AutoSizes</text>
</a>
</g>
</g>
<!-- Node9&#45;&gt;Node3 -->
<g id="edge10" class="edge"><title>Node9&#45;&gt;Node3</title>
<path fill="none" stroke="#9a32cd" stroke-dasharray="5,2" d="M399.32,-187.35C386.055,-179.767 369.171,-170.231 353.985,-162 342.359,-155.699 329.131,-148.835 318.927,-143.604"/>
<polygon fill="#9a32cd" stroke="#9a32cd" points="397.848,-190.54 408.264,-192.479 401.33,-184.468 397.848,-190.54"/>
<text text-anchor="middle" x="398.485" y="-165" font-family="Helvetica,sans-Serif" font-size="10.00"> AutoSizes</text>
</g>
<!-- Node10&#45;&gt;Node3 -->
<g id="edge11" class="edge"><title>Node10&#45;&gt;Node3</title>
<path fill="none" stroke="#9a32cd" stroke-dasharray="5,2" d="M248.517,-185.412C262.269,-172.447 281.35,-154.456 292.608,-143.841"/>
<polygon fill="#9a32cd" stroke="#9a32cd" points="246.011,-182.965 241.136,-192.372 250.813,-188.058 246.011,-182.965"/>
<text text-anchor="middle" x="294.985" y="-165" font-family="Helvetica,sans-Serif" font-size="10.00"> MetaInfo</text>
</g>
<!-- Node11 -->
<g id="node11" class="node"><title>Node11</title>
<g id="a_node11"><a xlink:href="classcs_1_1aworx_1_1lib_1_1strings_1_1Tokenizer.html" target="_top" xlink:title="Tokenizer">
<polygon fill="white" stroke="black" points="128.485,-293.5 128.485,-312.5 187.485,-312.5 187.485,-293.5 128.485,-293.5"/>
<text text-anchor="middle" x="157.985" y="-300.5" font-family="Helvetica,sans-Serif" font-size="10.00">Tokenizer</text>
</a>
</g>
</g>
<!-- Node11&#45;&gt;Node10 -->
<g id="edge12" class="edge"><title>Node11&#45;&gt;Node10</title>
<path fill="none" stroke="#9a32cd" stroke-dasharray="5,2" d="M159.535,-283.133C161.681,-267.634 166.795,-245.885 178.985,-231 186.106,-222.305 196.651,-215.963 206.465,-211.536"/>
<polygon fill="#9a32cd" stroke="#9a32cd" points="156.05,-282.805 158.439,-293.127 163.009,-283.568 156.05,-282.805"/>
<text text-anchor="middle" x="190.485" y="-250.5" font-family="Helvetica,sans-Serif" font-size="10.00"> tTok</text>
</g>
<!-- Node12 -->
<g id="node12" class="node"><title>Node12</title>
<g id="a_node12"><a xlink:href="classcs_1_1aworx_1_1lib_1_1strings_1_1Substring.html" target="_top" xlink:title="Substring">
<polygon fill="white" stroke="black" points="129.985,-371.5 129.985,-390.5 187.985,-390.5 187.985,-371.5 129.985,-371.5"/>
<text text-anchor="middle" x="158.985" y="-378.5" font-family="Helvetica,sans-Serif" font-size="10.00">Substring</text>
</a>
</g>
</g>
<!-- Node12&#45;&gt;Node11 -->
<g id="edge13" class="edge"><title>Node12&#45;&gt;Node11</title>
<path fill="none" stroke="#9a32cd" stroke-dasharray="5,2" d="M158.738,-361.224C158.534,-345.697 158.253,-324.358 158.098,-312.616"/>
<polygon fill="#9a32cd" stroke="#9a32cd" points="155.239,-361.329 158.87,-371.282 162.238,-361.237 155.239,-361.329"/>
<text text-anchor="middle" x="172.985" y="-345" font-family="Helvetica,sans-Serif" font-size="10.00"> Rest</text>
<text text-anchor="middle" x="172.985" y="-334" font-family="Helvetica,sans-Serif" font-size="10.00">Actual</text>
</g>
<!-- Node13 -->
<g id="node13" class="node"><title>Node13</title>
<polygon fill="white" stroke="#bfbfbf" points="352.985,-124.5 352.985,-143.5 402.985,-143.5 402.985,-124.5 352.985,-124.5"/>
<text text-anchor="middle" x="377.985" y="-131.5" font-family="Helvetica,sans-Serif" font-size="10.00">System</text>
</g>
<!-- Node13&#45;&gt;Node2 -->
<g id="edge16" class="edge"><title>Node13&#45;&gt;Node2</title>
<path fill="none" stroke="#9a32cd" stroke-dasharray="5,2" d="M372.552,-114.415C368.92,-101.988 364.31,-86.2166 361.507,-76.6273"/>
<polygon fill="#9a32cd" stroke="#9a32cd" points="369.257,-115.617 375.423,-124.234 375.976,-113.653 369.257,-115.617"/>
<text text-anchor="middle" x="392.985" y="-98" font-family="Helvetica,sans-Serif" font-size="10.00"> textWriter</text>
</g>
</g>
</svg>
