<?xml version="1.0" encoding="UTF-8" standalone="no"?>
<!DOCTYPE svg PUBLIC "-//W3C//DTD SVG 1.1//EN"
 "http://www.w3.org/Graphics/SVG/1.1/DTD/svg11.dtd">
<!-- Generated by graphviz version 2.40.1 (20161225.0304)
 -->
<!-- Title: StandardConverter Pages: 1 -->
<svg width="684pt" height="479pt"
 viewBox="0.00 0.00 684.00 479.00" xmlns="http://www.w3.org/2000/svg" xmlns:xlink="http://www.w3.org/1999/xlink">
<g id="graph0" class="graph" transform="scale(1 1) rotate(0) translate(4 475)">
<title>StandardConverter</title>
<polygon fill="#ffffff" stroke="transparent" points="-4,4 -4,-475 680,-475 680,4 -4,4"/>
<!-- Node2 -->
<g id="node1" class="node">
<title>Node2</title>
<polygon fill="#bfbfbf" stroke="#000000" points="113,-.5 113,-19.5 211,-19.5 211,-.5 113,-.5"/>
<text text-anchor="middle" x="162" y="-7.5" font-family="Helvetica,sans-Serif" font-size="10.00" fill="#000000">StandardConverter</text>
</g>
<!-- Node3 -->
<g id="node2" class="node">
<title>Node3</title>
<g id="a_node2"><a xlink:href="classcs_1_1aworx_1_1lox_1_1core_1_1textlogger_1_1ObjectConverter.html" target="_top" xlink:title="ObjectConverter">
<polygon fill="#ffffff" stroke="#000000" points="0,-67.5 0,-86.5 88,-86.5 88,-67.5 0,-67.5"/>
<text text-anchor="middle" x="44" y="-74.5" font-family="Helvetica,sans-Serif" font-size="10.00" fill="#000000">ObjectConverter</text>
</a>
</g>
</g>
<!-- Node3&#45;&gt;Node2 -->
<g id="edge1" class="edge">
<title>Node3&#45;&gt;Node2</title>
<path fill="none" stroke="#191970" d="M69.7405,-62.3846C92.6247,-49.391 125.4233,-30.7681 145.1248,-19.5817"/>
<polygon fill="#191970" stroke="#191970" points="67.8744,-59.4193 60.9065,-67.4005 71.3307,-65.5065 67.8744,-59.4193"/>
</g>
<!-- Node4 -->
<g id="node3" class="node">
<title>Node4</title>
<g id="a_node3"><a xlink:href="classcs_1_1aworx_1_1lib_1_1strings_1_1format_1_1FormatterPythonStyle.html" target="_top" xlink:title="FormatterPythonStyle">
<polygon fill="#ffffff" stroke="#000000" points="106,-67.5 106,-86.5 218,-86.5 218,-67.5 106,-67.5"/>
<text text-anchor="middle" x="162" y="-74.5" font-family="Helvetica,sans-Serif" font-size="10.00" fill="#000000">FormatterPythonStyle</text>
</a>
</g>
</g>
<!-- Node4&#45;&gt;Node2 -->
<g id="edge2" class="edge">
<title>Node4&#45;&gt;Node2</title>
<path fill="none" stroke="#9a32cd" stroke-dasharray="5,2" d="M162,-57.1079C162,-44.714 162,-29.3263 162,-19.5817"/>
<polygon fill="#9a32cd" stroke="#9a32cd" points="158.5001,-57.4005 162,-67.4005 165.5001,-57.4006 158.5001,-57.4005"/>
<text text-anchor="middle" x="191.5" y="-41" font-family="Helvetica,sans-Serif" font-size="10.00" fill="#000000"> FormatterPS</text>
</g>
<!-- Node5 -->
<g id="node4" class="node">
<title>Node5</title>
<g id="a_node4"><a xlink:href="classcs_1_1aworx_1_1lib_1_1strings_1_1format_1_1FormatterStdImpl.html" target="_top" xlink:title="FormatterStdImpl">
<polygon fill="#ffffff" stroke="#000000" points="241,-134.5 241,-153.5 333,-153.5 333,-134.5 241,-134.5"/>
<text text-anchor="middle" x="287" y="-141.5" font-family="Helvetica,sans-Serif" font-size="10.00" fill="#000000">FormatterStdImpl</text>
</a>
</g>
</g>
<!-- Node5&#45;&gt;Node4 -->
<g id="edge3" class="edge">
<title>Node5&#45;&gt;Node4</title>
<path fill="none" stroke="#191970" d="M260.0551,-129.5575C235.7998,-116.5567 200.8393,-97.8179 179.8762,-86.5817"/>
<polygon fill="#191970" stroke="#191970" points="258.6233,-132.7611 269.0905,-134.4005 261.9303,-126.5915 258.6233,-132.7611"/>
</g>
<!-- Node14 -->
<g id="node13" class="node">
<title>Node14</title>
<g id="a_node13"><a xlink:href="classcs_1_1aworx_1_1lib_1_1strings_1_1format_1_1FormatterJavaStyle.html" target="_top" xlink:title="FormatterJavaStyle">
<polygon fill="#ffffff" stroke="#000000" points="236,-67.5 236,-86.5 338,-86.5 338,-67.5 236,-67.5"/>
<text text-anchor="middle" x="287" y="-74.5" font-family="Helvetica,sans-Serif" font-size="10.00" fill="#000000">FormatterJavaStyle</text>
</a>
</g>
</g>
<!-- Node5&#45;&gt;Node14 -->
<g id="edge19" class="edge">
<title>Node5&#45;&gt;Node14</title>
<path fill="none" stroke="#191970" d="M287,-124.1079C287,-111.714 287,-96.3263 287,-86.5817"/>
<polygon fill="#191970" stroke="#191970" points="283.5001,-124.4005 287,-134.4005 290.5001,-124.4006 283.5001,-124.4005"/>
</g>
<!-- Node6 -->
<g id="node5" class="node">
<title>Node6</title>
<g id="a_node5"><a xlink:href="classcs_1_1aworx_1_1lib_1_1strings_1_1format_1_1Formatter.html" target="_top" xlink:title="Formatter">
<polygon fill="#ffffff" stroke="#000000" points="257.5,-230 257.5,-249 316.5,-249 316.5,-230 257.5,-230"/>
<text text-anchor="middle" x="287" y="-237" font-family="Helvetica,sans-Serif" font-size="10.00" fill="#000000">Formatter</text>
</a>
</g>
</g>
<!-- Node6&#45;&gt;Node5 -->
<g id="edge4" class="edge">
<title>Node6&#45;&gt;Node5</title>
<path fill="none" stroke="#191970" d="M287,-219.7712C287,-199.6337 287,-169.2067 287,-153.7519"/>
<polygon fill="#191970" stroke="#191970" points="283.5001,-219.9939 287,-229.994 290.5001,-219.994 283.5001,-219.9939"/>
</g>
<!-- Node6&#45;&gt;Node6 -->
<g id="edge6" class="edge">
<title>Node6&#45;&gt;Node6</title>
<path fill="none" stroke="#9a32cd" stroke-dasharray="5,2" d="M326.6722,-247.5566C331.4076,-246.0918 334.5,-243.4063 334.5,-239.5 334.5,-233.25 326.5833,-230.125 316.6875,-230.125"/>
<polygon fill="#9a32cd" stroke="#9a32cd" points="326.1433,-244.096 316.6875,-248.875 327.0596,-251.0358 326.1433,-244.096"/>
<text text-anchor="middle" x="370.5" y="-242.5" font-family="Helvetica,sans-Serif" font-size="10.00" fill="#000000"> Next</text>
<text text-anchor="middle" x="370.5" y="-231.5" font-family="Helvetica,sans-Serif" font-size="10.00" fill="#000000">defaultFormatter</text>
</g>
<!-- Node7 -->
<g id="node6" class="node">
<title>Node7</title>
<g id="a_node6"><a xlink:href="classcs_1_1aworx_1_1lib_1_1strings_1_1Substring.html" target="_top" xlink:title="Substring">
<polygon fill="#ffffff" stroke="#000000" points="140,-325.5 140,-344.5 198,-344.5 198,-325.5 140,-325.5"/>
<text text-anchor="middle" x="169" y="-332.5" font-family="Helvetica,sans-Serif" font-size="10.00" fill="#000000">Substring</text>
</a>
</g>
</g>
<!-- Node7&#45;&gt;Node4 -->
<g id="edge16" class="edge">
<title>Node7&#45;&gt;Node4</title>
<path fill="none" stroke="#9a32cd" stroke-dasharray="5,2" d="M157.3434,-316.8965C142.4552,-292.5914 117.483,-247.5336 108,-205 97.608,-158.3891 135.5942,-107.3091 153.3402,-86.5561"/>
<polygon fill="#9a32cd" stroke="#9a32cd" points="154.4079,-318.8035 162.6795,-325.424 160.3419,-315.0903 154.4079,-318.8035"/>
<text text-anchor="middle" x="148.5" y="-191.5" font-family="Helvetica,sans-Serif" font-size="10.00" fill="#000000"> conversion</text>
<text text-anchor="middle" x="148.5" y="-180.5" font-family="Helvetica,sans-Serif" font-size="10.00" fill="#000000">phaExtConversion</text>
</g>
<!-- Node7&#45;&gt;Node5 -->
<g id="edge12" class="edge">
<title>Node7&#45;&gt;Node5</title>
<path fill="none" stroke="#9a32cd" stroke-dasharray="5,2" d="M166.071,-315.0634C163.6168,-291.4744 162.7462,-251.7768 179,-223 198.1937,-189.0181 238.7074,-165.615 264.2925,-153.5408"/>
<polygon fill="#9a32cd" stroke="#9a32cd" points="162.6279,-315.7392 167.3348,-325.231 169.5745,-314.8757 162.6279,-315.7392"/>
<text text-anchor="middle" x="214" y="-248" font-family="Helvetica,sans-Serif" font-size="10.00" fill="#000000"> formatString</text>
<text text-anchor="middle" x="214" y="-237" font-family="Helvetica,sans-Serif" font-size="10.00" fill="#000000">phaFormatSpec</text>
<text text-anchor="middle" x="214" y="-226" font-family="Helvetica,sans-Serif" font-size="10.00" fill="#000000">parser</text>
</g>
<!-- Node7&#45;&gt;Node6 -->
<g id="edge5" class="edge">
<title>Node7&#45;&gt;Node6</title>
<path fill="none" stroke="#9a32cd" stroke-dasharray="5,2" d="M178.8554,-315.9934C186.4615,-302.819 198.0306,-285.6227 212,-274 220.153,-267.2166 243.9463,-256.7456 262.5707,-249.118"/>
<polygon fill="#9a32cd" stroke="#9a32cd" points="175.586,-314.6755 173.8374,-325.1251 181.7207,-318.0467 175.586,-314.6755"/>
<text text-anchor="middle" x="250" y="-288" font-family="Helvetica,sans-Serif" font-size="10.00" fill="#000000"> lamFormatString</text>
</g>
<!-- Node8 -->
<g id="node7" class="node">
<title>Node8</title>
<g id="a_node7"><a xlink:href="classcs_1_1aworx_1_1lib_1_1threads_1_1ThreadLock.html" target="_top" xlink:title="ThreadLock">
<polygon fill="#ffffff" stroke="#000000" points="267,-325.5 267,-344.5 335,-344.5 335,-325.5 267,-325.5"/>
<text text-anchor="middle" x="301" y="-332.5" font-family="Helvetica,sans-Serif" font-size="10.00" fill="#000000">ThreadLock</text>
</a>
</g>
</g>
<!-- Node8&#45;&gt;Node6 -->
<g id="edge7" class="edge">
<title>Node8&#45;&gt;Node6</title>
<path fill="none" stroke="#9a32cd" stroke-dasharray="5,2" d="M298.1489,-315.5515C295.1973,-295.4171 290.7058,-264.7786 288.4296,-249.2519"/>
<polygon fill="#9a32cd" stroke="#9a32cd" points="294.6929,-316.1074 299.6064,-325.494 301.6189,-315.092 294.6929,-316.1074"/>
<text text-anchor="middle" x="344" y="-288" font-family="Helvetica,sans-Serif" font-size="10.00" fill="#000000"> defaultFormatterLock</text>
</g>
<!-- Node9 -->
<g id="node8" class="node">
<title>Node9</title>
<g id="a_node8"><a xlink:href="classcs_1_1aworx_1_1lib_1_1time_1_1Ticks.html" target="_top" xlink:title="Ticks">
<polygon fill="#ffffff" stroke="#000000" points="280.5,-393.5 280.5,-412.5 321.5,-412.5 321.5,-393.5 280.5,-393.5"/>
<text text-anchor="middle" x="301" y="-400.5" font-family="Helvetica,sans-Serif" font-size="10.00" fill="#000000">Ticks</text>
</a>
</g>
</g>
<!-- Node9&#45;&gt;Node8 -->
<g id="edge8" class="edge">
<title>Node9&#45;&gt;Node8</title>
<path fill="none" stroke="#9a32cd" stroke-dasharray="5,2" d="M301,-383.1951C301,-370.5514 301,-354.7157 301,-344.7247"/>
<polygon fill="#9a32cd" stroke="#9a32cd" points="297.5001,-383.2572 301,-393.2573 304.5001,-383.2573 297.5001,-383.2572"/>
<text text-anchor="middle" x="322.5" y="-366" font-family="Helvetica,sans-Serif" font-size="10.00" fill="#000000"> waitTime</text>
</g>
<!-- Node9&#45;&gt;Node9 -->
<g id="edge10" class="edge">
<title>Node9&#45;&gt;Node9</title>
<path fill="none" stroke="#9a32cd" stroke-dasharray="5,2" d="M331.816,-407.7618C336.4,-407.02 339.5,-405.4327 339.5,-403 339.5,-399.0078 331.1518,-397.2924 321.5969,-397.8538"/>
<polygon fill="#9a32cd" stroke="#9a32cd" points="331.4583,-404.2727 321.5969,-408.1462 331.7214,-411.2678 331.4583,-404.2727"/>
<text text-anchor="middle" x="370" y="-406" font-family="Helvetica,sans-Serif" font-size="10.00" fill="#000000"> CreationTime</text>
<text text-anchor="middle" x="370" y="-395" font-family="Helvetica,sans-Serif" font-size="10.00" fill="#000000">tempTicks</text>
</g>
<!-- Node10 -->
<g id="node9" class="node">
<title>Node10</title>
<polygon fill="#ffffff" stroke="#bfbfbf" points="265.5,-451.5 265.5,-470.5 336.5,-470.5 336.5,-451.5 265.5,-451.5"/>
<text text-anchor="middle" x="301" y="-458.5" font-family="Helvetica,sans-Serif" font-size="10.00" fill="#000000">IFormattable</text>
</g>
<!-- Node10&#45;&gt;Node9 -->
<g id="edge9" class="edge">
<title>Node10&#45;&gt;Node9</title>
<path fill="none" stroke="#191970" d="M301,-441.153C301,-431.5796 301,-420.5235 301,-412.7856"/>
<polygon fill="#191970" stroke="#191970" points="297.5001,-441.4224 301,-451.4225 304.5001,-441.4225 297.5001,-441.4224"/>
</g>
<!-- Node11 -->
<g id="node10" class="node">
<title>Node11</title>
<g id="a_node10"><a xlink:href="classcs_1_1aworx_1_1lib_1_1strings_1_1AString.html" target="_top" xlink:title="AString">
<polygon fill="#ffffff" stroke="#000000" points="453.5,-325.5 453.5,-344.5 502.5,-344.5 502.5,-325.5 453.5,-325.5"/>
<text text-anchor="middle" x="478" y="-332.5" font-family="Helvetica,sans-Serif" font-size="10.00" fill="#000000">AString</text>
</a>
</g>
</g>
<!-- Node11&#45;&gt;Node5 -->
<g id="edge11" class="edge">
<title>Node11&#45;&gt;Node5</title>
<path fill="none" stroke="#9a32cd" stroke-dasharray="5,2" d="M470.9711,-315.8569C461.4376,-291.9102 442.5038,-250.6939 416,-223 384.9502,-190.556 337.8235,-166.2068 309.9515,-153.6141"/>
<polygon fill="#9a32cd" stroke="#9a32cd" points="467.7273,-317.1733 474.5799,-325.2537 474.2619,-314.6636 467.7273,-317.1733"/>
<text text-anchor="middle" x="465.5" y="-242.5" font-family="Helvetica,sans-Serif" font-size="10.00" fill="#000000"> fieldBuffer</text>
<text text-anchor="middle" x="465.5" y="-231.5" font-family="Helvetica,sans-Serif" font-size="10.00" fill="#000000">targetString</text>
</g>
<!-- Node12 -->
<g id="node11" class="node">
<title>Node12</title>
<g id="a_node11"><a xlink:href="classcs_1_1aworx_1_1lib_1_1strings_1_1NumberFormat.html" target="_top" xlink:title="NumberFormat">
<polygon fill="#ffffff" stroke="#000000" points="512,-230 512,-249 594,-249 594,-230 512,-230"/>
<text text-anchor="middle" x="553" y="-237" font-family="Helvetica,sans-Serif" font-size="10.00" fill="#000000">NumberFormat</text>
</a>
</g>
</g>
<!-- Node11&#45;&gt;Node12 -->
<g id="edge14" class="edge">
<title>Node11&#45;&gt;Node12</title>
<path fill="none" stroke="#9a32cd" stroke-dasharray="5,2" d="M491.7631,-317.475C507.5141,-297.4188 532.7525,-265.2818 545.3414,-249.2519"/>
<polygon fill="#9a32cd" stroke="#9a32cd" points="488.8893,-315.4676 485.4655,-325.494 494.3945,-319.7911 488.8893,-315.4676"/>
<text text-anchor="middle" x="559.5" y="-299" font-family="Helvetica,sans-Serif" font-size="10.00" fill="#000000"> OctLiteralPrefix</text>
<text text-anchor="middle" x="559.5" y="-288" font-family="Helvetica,sans-Serif" font-size="10.00" fill="#000000">BinLiteralPrefix</text>
<text text-anchor="middle" x="559.5" y="-277" font-family="Helvetica,sans-Serif" font-size="10.00" fill="#000000">HexLiteralPrefix</text>
</g>
<!-- Node12&#45;&gt;Node5 -->
<g id="edge13" class="edge">
<title>Node12&#45;&gt;Node5</title>
<path fill="none" stroke="#9a32cd" stroke-dasharray="5,2" d="M535.2054,-223.2169C516.9675,-207.4906 487.0927,-184.3005 457,-172 435.1266,-163.0592 375.4967,-154.4889 333.048,-149.2375"/>
<polygon fill="#9a32cd" stroke="#9a32cd" points="532.9108,-225.8599 542.725,-229.8513 537.542,-220.6109 532.9108,-225.8599"/>
<text text-anchor="middle" x="567" y="-197" font-family="Helvetica,sans-Serif" font-size="10.00" fill="#000000"> DefaultNumberFormat</text>
<text text-anchor="middle" x="567" y="-186" font-family="Helvetica,sans-Serif" font-size="10.00" fill="#000000">AlternativeNumberFormat</text>
<text text-anchor="middle" x="567" y="-175" font-family="Helvetica,sans-Serif" font-size="10.00" fill="#000000">phaNF</text>
</g>
<!-- Node12&#45;&gt;Node12 -->
<g id="edge15" class="edge">
<title>Node12&#45;&gt;Node12</title>
<path fill="none" stroke="#9a32cd" stroke-dasharray="5,2" d="M604.2579,-246.9914C609.0064,-245.4456 612,-242.9485 612,-239.5 612,-233.9824 604.3363,-230.9003 594.0831,-230.2537"/>
<polygon fill="#9a32cd" stroke="#9a32cd" points="603.3427,-243.5975 594.0831,-248.7463 604.5325,-250.4956 603.3427,-243.5975"/>
<text text-anchor="middle" x="644" y="-242.5" font-family="Helvetica,sans-Serif" font-size="10.00" fill="#000000"> Global</text>
<text text-anchor="middle" x="644" y="-231.5" font-family="Helvetica,sans-Serif" font-size="10.00" fill="#000000">Computational</text>
</g>
<!-- Node13 -->
<g id="node12" class="node">
<title>Node13</title>
<g id="a_node12"><a xlink:href="classcs_1_1aworx_1_1lib_1_1strings_1_1util_1_1AutoSizes.html" target="_top" xlink:title="AutoSizes">
<polygon fill="#ffffff" stroke="#000000" points="131,-134.5 131,-153.5 193,-153.5 193,-134.5 131,-134.5"/>
<text text-anchor="middle" x="162" y="-141.5" font-family="Helvetica,sans-Serif" font-size="10.00" fill="#000000">AutoSizes</text>
</a>
</g>
</g>
<!-- Node13&#45;&gt;Node4 -->
<g id="edge17" class="edge">
<title>Node13&#45;&gt;Node4</title>
<path fill="none" stroke="#9a32cd" stroke-dasharray="5,2" d="M162,-124.1079C162,-111.714 162,-96.3263 162,-86.5817"/>
<polygon fill="#9a32cd" stroke="#9a32cd" points="158.5001,-124.4005 162,-134.4005 165.5001,-124.4006 158.5001,-124.4005"/>
<text text-anchor="middle" x="185.5" y="-108" font-family="Helvetica,sans-Serif" font-size="10.00" fill="#000000"> autoSizes</text>
</g>
<!-- Node14&#45;&gt;Node2 -->
<g id="edge18" class="edge">
<title>Node14&#45;&gt;Node2</title>
<path fill="none" stroke="#9a32cd" stroke-dasharray="5,2" d="M264.4801,-61.7413C252.9146,-54.1883 238.4581,-45.1759 225,-38 212.3262,-31.2422 197.6913,-24.6675 185.7186,-19.5891"/>
<polygon fill="#9a32cd" stroke="#9a32cd" points="262.7909,-64.8205 273.0612,-67.4228 266.6553,-58.9839 262.7909,-64.8205"/>
<text text-anchor="middle" x="273" y="-41" font-family="Helvetica,sans-Serif" font-size="10.00" fill="#000000"> FormatterJS</text>
</g>
</g>
</svg>
