<?xml version="1.0" encoding="UTF-8" standalone="no"?>
<!DOCTYPE svg PUBLIC "-//W3C//DTD SVG 1.1//EN"
 "http://www.w3.org/Graphics/SVG/1.1/DTD/svg11.dtd">
<!-- Generated by graphviz version 2.38.0 (20140413.2041)
 -->
<!-- Title: ALoxReportWriter Pages: 1 -->
<svg width="898pt" height="398pt"
 viewBox="0.00 0.00 898.00 398.38" xmlns="http://www.w3.org/2000/svg" xmlns:xlink="http://www.w3.org/1999/xlink">
<g id="graph0" class="graph" transform="scale(1 1) rotate(0) translate(4 394.38)">
<title>ALoxReportWriter</title>
<polygon fill="white" stroke="none" points="-4,4 -4,-394.38 894,-394.38 894,4 -4,4"/>
<!-- Node1 -->
<g id="node1" class="node"><title>Node1</title>
<polygon fill="#bfbfbf" stroke="black" points="795,-162.88 795,-181.88 890,-181.88 890,-162.88 795,-162.88"/>
<text text-anchor="middle" x="842.5" y="-169.88" font-family="Helvetica,sans-Serif" font-size="10.00">ALoxReportWriter</text>
</g>
<!-- Node2 -->
<g id="node2" class="node"><title>Node2</title>
<g id="a_node2"><a xlink:href="interfacecs_1_1aworx_1_1lib_1_1ReportWriter.html" target="_top" xlink:title="ReportWriter">
<polygon fill="white" stroke="black" points="671,-178.88 671,-197.88 743,-197.88 743,-178.88 671,-178.88"/>
<text text-anchor="middle" x="707" y="-185.88" font-family="Helvetica,sans-Serif" font-size="10.00">ReportWriter</text>
</a>
</g>
</g>
<!-- Node2&#45;&gt;Node1 -->
<g id="edge1" class="edge"><title>Node2&#45;&gt;Node1</title>
<path fill="none" stroke="midnightblue" d="M753.017,-182.985C766.406,-181.38 781.104,-179.619 794.609,-178"/>
<polygon fill="midnightblue" stroke="midnightblue" points="752.588,-179.511 743.076,-184.176 753.421,-186.462 752.588,-179.511"/>
</g>
<!-- Node3 -->
<g id="node3" class="node"><title>Node3</title>
<g id="a_node3"><a xlink:href="classcs_1_1aworx_1_1lox_1_1Lox.html" target="_top" xlink:title="Lox">
<polygon fill="white" stroke="black" points="691,-140.88 691,-159.88 723,-159.88 723,-140.88 691,-140.88"/>
<text text-anchor="middle" x="707" y="-147.88" font-family="Helvetica,sans-Serif" font-size="10.00">Lox</text>
</a>
</g>
</g>
<!-- Node3&#45;&gt;Node1 -->
<g id="edge2" class="edge"><title>Node3&#45;&gt;Node1</title>
<path fill="none" stroke="#9a32cd" stroke-dasharray="5,2" d="M732.964,-154.494C750.319,-157.354 773.978,-161.253 794.777,-164.681"/>
<polygon fill="#9a32cd" stroke="#9a32cd" points="733.491,-151.034 723.055,-152.861 732.352,-157.941 733.491,-151.034"/>
<text text-anchor="middle" x="769" y="-164.38" font-family="Helvetica,sans-Serif" font-size="10.00"> lox</text>
</g>
<!-- Node4 -->
<g id="node4" class="node"><title>Node4</title>
<g id="a_node4"><a xlink:href="classcs_1_1aworx_1_1lib_1_1threads_1_1ThreadLock.html" target="_top" xlink:title="ThreadLock">
<polygon fill="white" stroke="black" points="443.5,-91.8803 443.5,-110.88 511.5,-110.88 511.5,-91.8803 443.5,-91.8803"/>
<text text-anchor="middle" x="477.5" y="-98.8803" font-family="Helvetica,sans-Serif" font-size="10.00">ThreadLock</text>
</a>
</g>
</g>
<!-- Node4&#45;&gt;Node3 -->
<g id="edge3" class="edge"><title>Node4&#45;&gt;Node3</title>
<path fill="none" stroke="midnightblue" d="M521.44,-110.629C573.01,-121.736 656.819,-139.788 690.884,-147.125"/>
<polygon fill="midnightblue" stroke="midnightblue" points="522.093,-107.189 511.58,-108.505 520.619,-114.032 522.093,-107.189"/>
</g>
<!-- Node4&#45;&gt;Node3 -->
<g id="edge19" class="edge"><title>Node4&#45;&gt;Node3</title>
<path fill="none" stroke="#9a32cd" stroke-dasharray="5,2" d="M522.017,-96.6939C558.194,-94.4083 610.45,-94.8954 653,-110.38 670.549,-116.767 687.112,-131.088 696.909,-140.745"/>
<polygon fill="#9a32cd" stroke="#9a32cd" points="521.517,-93.221 511.798,-97.44 522.027,-100.202 521.517,-93.221"/>
<text text-anchor="middle" x="618.5" y="-113.38" font-family="Helvetica,sans-Serif" font-size="10.00"> logBufLock</text>
</g>
<!-- Node5 -->
<g id="node5" class="node"><title>Node5</title>
<g id="a_node5"><a xlink:href="classcs_1_1aworx_1_1lib_1_1time_1_1Ticks.html" target="_top" xlink:title="Ticks">
<polygon fill="white" stroke="black" points="188.5,-135.88 188.5,-154.88 229.5,-154.88 229.5,-135.88 188.5,-135.88"/>
<text text-anchor="middle" x="209" y="-142.88" font-family="Helvetica,sans-Serif" font-size="10.00">Ticks</text>
</a>
</g>
</g>
<!-- Node5&#45;&gt;Node4 -->
<g id="edge4" class="edge"><title>Node5&#45;&gt;Node4</title>
<path fill="none" stroke="#9a32cd" stroke-dasharray="5,2" d="M239.782,-147.407C252.745,-148.192 268.117,-148.995 282,-149.38 321.54,-150.478 336.433,-168.609 371,-149.38 384.257,-142.006 376.606,-129.127 389,-120.38 404.749,-109.266 425.77,-104.461 443.261,-102.46"/>
<polygon fill="#9a32cd" stroke="#9a32cd" points="239.746,-143.897 229.545,-146.76 239.305,-150.884 239.746,-143.897"/>
<text text-anchor="middle" x="326.5" y="-161.38" font-family="Helvetica,sans-Serif" font-size="10.00"> waitTime</text>
</g>
<!-- Node5&#45;&gt;Node5 -->
<g id="edge5" class="edge"><title>Node5&#45;&gt;Node5</title>
<path fill="none" stroke="#9a32cd" stroke-dasharray="5,2" d="M190.112,-164.78C191.373,-169.695 197.669,-173.38 209,-173.38 227.129,-173.38 232.369,-163.946 224.721,-155.137"/>
<polygon fill="#9a32cd" stroke="#9a32cd" points="193.484,-165.73 193.279,-155.137 186.833,-163.546 193.484,-165.73"/>
<text text-anchor="middle" x="209" y="-187.38" font-family="Helvetica,sans-Serif" font-size="10.00"> CreationTime</text>
<text text-anchor="middle" x="209" y="-176.38" font-family="Helvetica,sans-Serif" font-size="10.00">tempTicks</text>
</g>
<!-- Node10 -->
<g id="node10" class="node"><title>Node10</title>
<g id="a_node10"><a xlink:href="classcs_1_1aworx_1_1lox_1_1core_1_1ScopeInfo.html" target="_top" xlink:title="ScopeInfo">
<polygon fill="white" stroke="black" points="447,-217.88 447,-236.88 508,-236.88 508,-217.88 447,-217.88"/>
<text text-anchor="middle" x="477.5" y="-224.88" font-family="Helvetica,sans-Serif" font-size="10.00">ScopeInfo</text>
</a>
</g>
</g>
<!-- Node5&#45;&gt;Node10 -->
<g id="edge14" class="edge"><title>Node5&#45;&gt;Node10</title>
<path fill="none" stroke="#9a32cd" stroke-dasharray="5,2" d="M239.164,-157.14C252.207,-162.291 267.811,-168.305 282,-173.38 329.112,-190.232 340.711,-195.277 389,-208.38 408.053,-213.551 429.736,-218.267 446.751,-221.707"/>
<polygon fill="#9a32cd" stroke="#9a32cd" points="240.34,-153.841 229.755,-153.399 237.754,-160.346 240.34,-153.841"/>
<text text-anchor="middle" x="326.5" y="-206.38" font-family="Helvetica,sans-Serif" font-size="10.00"> timeStamp</text>
</g>
<!-- Node6 -->
<g id="node6" class="node"><title>Node6</title>
<g id="a_node6"><a xlink:href="classcs_1_1aworx_1_1lox_1_1core_1_1ScopeStore.html" target="_top" xlink:title="ScopeStore\&lt; Dictionary\l\&lt; AString, cs.aworx.lox.LogData \&gt; \&gt;">
<polygon fill="white" stroke="black" points="389,-256.38 389,-286.38 566,-286.38 566,-256.38 389,-256.38"/>
<text text-anchor="start" x="397" y="-274.38" font-family="Helvetica,sans-Serif" font-size="10.00">ScopeStore&lt; Dictionary</text>
<text text-anchor="middle" x="477.5" y="-263.38" font-family="Helvetica,sans-Serif" font-size="10.00">&lt; AString, cs.aworx.lox.LogData &gt; &gt;</text>
</a>
</g>
</g>
<!-- Node6&#45;&gt;Node3 -->
<g id="edge6" class="edge"><title>Node6&#45;&gt;Node3</title>
<path fill="none" stroke="#9a32cd" stroke-dasharray="5,2" d="M576.25,-267.95C604.008,-262.464 632.284,-251.92 653,-232.38 674.184,-212.399 652.783,-192.099 671,-169.38 676.104,-163.015 683.939,-158.481 690.903,-155.443"/>
<polygon fill="#9a32cd" stroke="#9a32cd" points="575.301,-264.563 566.062,-269.749 576.518,-271.456 575.301,-264.563"/>
<text text-anchor="middle" x="618.5" y="-269.38" font-family="Helvetica,sans-Serif" font-size="10.00"> scopeLogData</text>
</g>
<!-- Node7 -->
<g id="node7" class="node"><title>Node7</title>
<g id="a_node7"><a xlink:href="classcs_1_1aworx_1_1lib_1_1strings_1_1AString.html" target="_top" xlink:title="AString">
<polygon fill="white" stroke="black" points="4.5,-237.88 4.5,-256.88 53.5,-256.88 53.5,-237.88 4.5,-237.88"/>
<text text-anchor="middle" x="29" y="-244.88" font-family="Helvetica,sans-Serif" font-size="10.00">AString</text>
</a>
</g>
</g>
<!-- Node7&#45;&gt;Node3 -->
<g id="edge7" class="edge"><title>Node7&#45;&gt;Node3</title>
<path fill="none" stroke="#9a32cd" stroke-dasharray="5,2" d="M43.4104,-229.733C77.4432,-186.749 172.288,-77.8452 282,-46.3803 384.115,-17.0942 606.694,-68.4756 653,-93.3803 673.945,-104.645 691.142,-127.362 699.844,-140.46"/>
<polygon fill="#9a32cd" stroke="#9a32cd" points="40.6417,-227.592 37.2574,-237.632 46.1639,-231.894 40.6417,-227.592"/>
<text text-anchor="middle" x="326.5" y="-137.38" font-family="Helvetica,sans-Serif" font-size="10.00"> tmpAS</text>
<text text-anchor="middle" x="326.5" y="-126.38" font-family="Helvetica,sans-Serif" font-size="10.00">logBuf</text>
<text text-anchor="middle" x="326.5" y="-115.38" font-family="Helvetica,sans-Serif" font-size="10.00">intMsg</text>
<text text-anchor="middle" x="326.5" y="-104.38" font-family="Helvetica,sans-Serif" font-size="10.00">resDomainInternal</text>
<text text-anchor="middle" x="326.5" y="-93.3803" font-family="Helvetica,sans-Serif" font-size="10.00">resDomain</text>
<text text-anchor="middle" x="326.5" y="-82.3803" font-family="Helvetica,sans-Serif" font-size="10.00">tmpSubstitutionPath</text>
<text text-anchor="middle" x="326.5" y="-71.3803" font-family="Helvetica,sans-Serif" font-size="10.00">tmpComments</text>
<text text-anchor="start" x="282" y="-60.3803" font-family="Helvetica,sans-Serif" font-size="10.00">tmpSubstitutionPath</text>
<text text-anchor="middle" x="326.5" y="-49.3803" font-family="Helvetica,sans-Serif" font-size="10.00">InternalDomains</text>
</g>
<!-- Node7&#45;&gt;Node10 -->
<g id="edge11" class="edge"><title>Node7&#45;&gt;Node10</title>
<path fill="none" stroke="#9a32cd" stroke-dasharray="5,2" d="M63.8067,-245.325C88.733,-243.845 123.471,-241.857 154,-240.38 261.741,-235.168 389.802,-230.444 446.703,-228.421"/>
<polygon fill="#9a32cd" stroke="#9a32cd" points="63.539,-241.834 53.7657,-245.925 63.9567,-248.822 63.539,-241.834"/>
<text text-anchor="middle" x="209" y="-243.38" font-family="Helvetica,sans-Serif" font-size="10.00"> threadName</text>
</g>
<!-- Node11 -->
<g id="node11" class="node"><title>Node11</title>
<g id="a_node11"><a xlink:href="classcs_1_1aworx_1_1lox_1_1core_1_1ScopeInfo_1_1SourceFile.html" target="_top" xlink:title="ScopeInfo.SourceFile">
<polygon fill="white" stroke="black" points="154,-260.88 154,-279.88 264,-279.88 264,-260.88 154,-260.88"/>
<text text-anchor="middle" x="209" y="-267.88" font-family="Helvetica,sans-Serif" font-size="10.00">ScopeInfo.SourceFile</text>
</a>
</g>
</g>
<!-- Node7&#45;&gt;Node11 -->
<g id="edge13" class="edge"><title>Node7&#45;&gt;Node11</title>
<path fill="none" stroke="#9a32cd" stroke-dasharray="5,2" d="M63.8747,-251.757C89.2833,-255.04 124.58,-259.601 153.883,-263.388"/>
<polygon fill="#9a32cd" stroke="#9a32cd" points="64.0031,-248.245 53.637,-250.435 63.106,-255.187 64.0031,-248.245"/>
<text text-anchor="middle" x="106" y="-286.38" font-family="Helvetica,sans-Serif" font-size="10.00"> nameWOExt</text>
<text text-anchor="middle" x="106" y="-275.38" font-family="Helvetica,sans-Serif" font-size="10.00">name</text>
<text text-anchor="middle" x="106" y="-264.38" font-family="Helvetica,sans-Serif" font-size="10.00">trimmedPath</text>
</g>
<!-- Node12 -->
<g id="node12" class="node"><title>Node12</title>
<g id="a_node12"><a xlink:href="classcs_1_1aworx_1_1lox_1_1core_1_1Domain.html" target="_top" xlink:title="Domain">
<polygon fill="white" stroke="black" points="184,-313.88 184,-332.88 234,-332.88 234,-313.88 184,-313.88"/>
<text text-anchor="middle" x="209" y="-320.88" font-family="Helvetica,sans-Serif" font-size="10.00">Domain</text>
</a>
</g>
</g>
<!-- Node7&#45;&gt;Node12 -->
<g id="edge16" class="edge"><title>Node7&#45;&gt;Node12</title>
<path fill="none" stroke="#9a32cd" stroke-dasharray="5,2" d="M41.5792,-265.325C49.8147,-276.596 61.8928,-290.452 76,-298.38 94.0961,-308.551 150.844,-316.665 183.745,-320.665"/>
<polygon fill="#9a32cd" stroke="#9a32cd" points="44.3954,-263.244 35.833,-257.004 38.6353,-267.222 44.3954,-263.244"/>
<text text-anchor="middle" x="106" y="-338.38" font-family="Helvetica,sans-Serif" font-size="10.00"> FullPath</text>
<text text-anchor="middle" x="106" y="-327.38" font-family="Helvetica,sans-Serif" font-size="10.00">tAString</text>
<text text-anchor="middle" x="106" y="-316.38" font-family="Helvetica,sans-Serif" font-size="10.00">Name</text>
</g>
<!-- Node8 -->
<g id="node8" class="node"><title>Node8</title>
<g id="a_node8"><a xlink:href="classcs_1_1aworx_1_1lox_1_1core_1_1ScopeStore.html" target="_top" xlink:title="ScopeStore\&lt; Object \&gt;">
<polygon fill="white" stroke="black" points="420.5,-179.88 420.5,-198.88 534.5,-198.88 534.5,-179.88 420.5,-179.88"/>
<text text-anchor="middle" x="477.5" y="-186.88" font-family="Helvetica,sans-Serif" font-size="10.00">ScopeStore&lt; Object &gt;</text>
</a>
</g>
</g>
<!-- Node8&#45;&gt;Node3 -->
<g id="edge8" class="edge"><title>Node8&#45;&gt;Node3</title>
<path fill="none" stroke="#9a32cd" stroke-dasharray="5,2" d="M544.505,-181.759C577.283,-177.509 617.393,-171.608 653,-164.38 665.871,-161.768 680.267,-157.903 690.803,-154.896"/>
<polygon fill="#9a32cd" stroke="#9a32cd" points="544.057,-178.287 534.58,-183.024 544.943,-185.231 544.057,-178.287"/>
<text text-anchor="middle" x="618.5" y="-179.38" font-family="Helvetica,sans-Serif" font-size="10.00"> scopePrefixes</text>
</g>
<!-- Node9 -->
<g id="node9" class="node"><title>Node9</title>
<g id="a_node9"><a xlink:href="classcs_1_1aworx_1_1lox_1_1core_1_1ScopeStore.html" target="_top" xlink:title="ScopeStore\&lt; Dictionary\l\&lt; AString, int[]\&gt; \&gt;">
<polygon fill="white" stroke="black" points="417,-130.38 417,-160.38 538,-160.38 538,-130.38 417,-130.38"/>
<text text-anchor="start" x="425" y="-148.38" font-family="Helvetica,sans-Serif" font-size="10.00">ScopeStore&lt; Dictionary</text>
<text text-anchor="middle" x="477.5" y="-137.38" font-family="Helvetica,sans-Serif" font-size="10.00">&lt; AString, int[]&gt; &gt;</text>
</a>
</g>
</g>
<!-- Node9&#45;&gt;Node3 -->
<g id="edge9" class="edge"><title>Node9&#45;&gt;Node3</title>
<path fill="none" stroke="#9a32cd" stroke-dasharray="5,2" d="M548.423,-146.917C598.531,-148.018 662.035,-149.414 690.714,-150.044"/>
<polygon fill="#9a32cd" stroke="#9a32cd" points="548.347,-143.415 538.273,-146.694 548.194,-150.413 548.347,-143.415"/>
<text text-anchor="middle" x="618.5" y="-152.38" font-family="Helvetica,sans-Serif" font-size="10.00"> scopeLogOnce</text>
</g>
<!-- Node10&#45;&gt;Node3 -->
<g id="edge10" class="edge"><title>Node10&#45;&gt;Node3</title>
<path fill="none" stroke="#9a32cd" stroke-dasharray="5,2" d="M518.614,-226.634C555.883,-224.278 611.692,-216.381 653,-191.38 663.808,-184.839 661.266,-177.434 671,-169.38 676.966,-164.444 684.411,-160.19 690.899,-156.967"/>
<polygon fill="#9a32cd" stroke="#9a32cd" points="517.955,-223.164 508.151,-227.181 518.32,-230.154 517.955,-223.164"/>
<text text-anchor="middle" x="618.5" y="-220.38" font-family="Helvetica,sans-Serif" font-size="10.00"> scopeInfo</text>
</g>
<!-- Node11&#45;&gt;Node10 -->
<g id="edge12" class="edge"><title>Node11&#45;&gt;Node10</title>
<path fill="none" stroke="#9a32cd" stroke-dasharray="5,2" d="M274.236,-260.631C303.733,-256.096 339.159,-250.568 371,-245.38 396.674,-241.197 425.819,-236.206 446.961,-232.542"/>
<polygon fill="#9a32cd" stroke="#9a32cd" points="273.419,-257.215 264.066,-262.191 274.481,-264.134 273.419,-257.215"/>
<text text-anchor="middle" x="326.5" y="-273.38" font-family="Helvetica,sans-Serif" font-size="10.00"> cache</text>
<text text-anchor="middle" x="326.5" y="-262.38" font-family="Helvetica,sans-Serif" font-size="10.00">actual</text>
</g>
<!-- Node12&#45;&gt;Node3 -->
<g id="edge15" class="edge"><title>Node12&#45;&gt;Node3</title>
<path fill="none" stroke="#9a32cd" stroke-dasharray="5,2" d="M244.173,-332.819C327.383,-353.503 541.82,-392.582 653,-281.38 688.646,-245.727 641.854,-210.518 671,-169.38 675.796,-162.61 683.787,-158.012 690.923,-155.038"/>
<polygon fill="#9a32cd" stroke="#9a32cd" points="244.79,-329.365 234.235,-330.28 243.057,-336.147 244.79,-329.365"/>
<text text-anchor="middle" x="477.5" y="-370.38" font-family="Helvetica,sans-Serif" font-size="10.00"> domains</text>
<text text-anchor="middle" x="477.5" y="-359.38" font-family="Helvetica,sans-Serif" font-size="10.00">internalDomains</text>
</g>
<!-- Node12&#45;&gt;Node12 -->
<g id="edge18" class="edge"><title>Node12&#45;&gt;Node12</title>
<path fill="none" stroke="#9a32cd" stroke-dasharray="5,2" d="M190.112,-342.78C191.373,-347.695 197.669,-351.38 209,-351.38 227.129,-351.38 232.369,-341.946 224.721,-333.137"/>
<polygon fill="#9a32cd" stroke="#9a32cd" points="193.484,-343.73 193.279,-333.137 186.833,-341.546 193.484,-343.73"/>
<text text-anchor="middle" x="209" y="-354.38" font-family="Helvetica,sans-Serif" font-size="10.00"> Parent</text>
</g>
<!-- Node13 -->
<g id="node13" class="node"><title>Node13</title>
<g id="a_node13"><a xlink:href="classcs_1_1aworx_1_1lib_1_1strings_1_1Substring.html" target="_top" xlink:title="Substring">
<polygon fill="white" stroke="black" points="0,-366.88 0,-385.88 58,-385.88 58,-366.88 0,-366.88"/>
<text text-anchor="middle" x="29" y="-373.88" font-family="Helvetica,sans-Serif" font-size="10.00">Substring</text>
</a>
</g>
</g>
<!-- Node13&#45;&gt;Node12 -->
<g id="edge17" class="edge"><title>Node13&#45;&gt;Node12</title>
<path fill="none" stroke="#9a32cd" stroke-dasharray="5,2" d="M68.1588,-370.385C88.5448,-366.702 113.92,-361.346 136,-354.38 154.43,-348.566 174.567,-339.664 188.847,-332.888"/>
<polygon fill="#9a32cd" stroke="#9a32cd" points="67.542,-366.94 58.2933,-372.108 68.7463,-373.835 67.542,-366.94"/>
<text text-anchor="middle" x="106" y="-382.38" font-family="Helvetica,sans-Serif" font-size="10.00"> tSubstring2</text>
<text text-anchor="middle" x="106" y="-371.38" font-family="Helvetica,sans-Serif" font-size="10.00">tSubstring</text>
</g>
<!-- Node14 -->
<g id="node14" class="node"><title>Node14</title>
<g id="a_node14"><a xlink:href="classcs_1_1aworx_1_1lox_1_1core_1_1ScopeStore.html" target="_top" xlink:title="ScopeStore\&lt; AString \&gt;">
<polygon fill="white" stroke="black" points="418.5,-1.88029 418.5,-20.8803 536.5,-20.8803 536.5,-1.88029 418.5,-1.88029"/>
<text text-anchor="middle" x="477.5" y="-8.88029" font-family="Helvetica,sans-Serif" font-size="10.00">ScopeStore&lt; AString &gt;</text>
</a>
</g>
</g>
<!-- Node14&#45;&gt;Node3 -->
<g id="edge20" class="edge"><title>Node14&#45;&gt;Node3</title>
<path fill="none" stroke="#9a32cd" stroke-dasharray="5,2" d="M540.656,-0.951639C576.647,1.65664 621.013,-1.37508 653,-24.3803 692.496,-52.7855 702.723,-116.496 705.23,-140.753"/>
<polygon fill="#9a32cd" stroke="#9a32cd" points="539.914,2.49626 530.263,-1.87513 540.533,-4.47627 539.914,2.49626"/>
<text text-anchor="middle" x="618.5" y="-27.3803" font-family="Helvetica,sans-Serif" font-size="10.00"> scopeDomains</text>
</g>
</g>
</svg>
