<?xml version="1.0" encoding="UTF-8" standalone="no"?>
<!DOCTYPE svg PUBLIC "-//W3C//DTD SVG 1.1//EN"
 "http://www.w3.org/Graphics/SVG/1.1/DTD/svg11.dtd">
<!-- Generated by graphviz version 2.38.0 (20140413.2041)
 -->
<!-- Title: TextFileLogger Pages: 1 -->
<svg width="880pt" height="536pt"
 viewBox="0.00 0.00 880.00 536.00" xmlns="http://www.w3.org/2000/svg" xmlns:xlink="http://www.w3.org/1999/xlink">
<g id="graph0" class="graph" transform="scale(1 1) rotate(0) translate(4 532)">
<title>TextFileLogger</title>
<polygon fill="white" stroke="none" points="-4,4 -4,-532 876,-532 876,4 -4,4"/>
<!-- Node1 -->
<g id="node1" class="node"><title>Node1</title>
<polygon fill="#bfbfbf" stroke="black" points="186.5,-134.5 186.5,-153.5 267.5,-153.5 267.5,-134.5 186.5,-134.5"/>
<text text-anchor="middle" x="227" y="-141.5" font-family="Helvetica,sans-Serif" font-size="10.00">TextFileLogger</text>
</g>
<!-- Node2 -->
<g id="node2" class="node"><title>Node2</title>
<g id="a_node2"><a xlink:href="classcs_1_1aworx_1_1lox_1_1core_1_1textlogger_1_1PlainTextLogger.html" target="_top" xlink:title="PlainTextLogger">
<polygon fill="white" stroke="black" points="183.5,-202.5 183.5,-221.5 270.5,-221.5 270.5,-202.5 183.5,-202.5"/>
<text text-anchor="middle" x="227" y="-209.5" font-family="Helvetica,sans-Serif" font-size="10.00">PlainTextLogger</text>
</a>
</g>
</g>
<!-- Node2&#45;&gt;Node1 -->
<g id="edge1" class="edge"><title>Node2&#45;&gt;Node1</title>
<path fill="none" stroke="midnightblue" d="M227,-192.041C227,-179.472 227,-163.563 227,-153.841"/>
<polygon fill="midnightblue" stroke="midnightblue" points="223.5,-192.372 227,-202.372 230.5,-192.372 223.5,-192.372"/>
</g>
<!-- Node3 -->
<g id="node3" class="node"><title>Node3</title>
<g id="a_node3"><a xlink:href="classcs_1_1aworx_1_1lox_1_1core_1_1textlogger_1_1TextLogger.html" target="_top" xlink:title="TextLogger">
<polygon fill="white" stroke="black" points="178.5,-270.5 178.5,-289.5 243.5,-289.5 243.5,-270.5 178.5,-270.5"/>
<text text-anchor="middle" x="211" y="-277.5" font-family="Helvetica,sans-Serif" font-size="10.00">TextLogger</text>
</a>
</g>
</g>
<!-- Node3&#45;&gt;Node2 -->
<g id="edge2" class="edge"><title>Node3&#45;&gt;Node2</title>
<path fill="none" stroke="midnightblue" d="M215.503,-260.425C218.564,-247.798 222.476,-231.662 224.857,-221.841"/>
<polygon fill="midnightblue" stroke="midnightblue" points="212.046,-259.829 213.092,-270.372 218.849,-261.478 212.046,-259.829"/>
</g>
<!-- Node8 -->
<g id="node8" class="node"><title>Node8</title>
<g id="a_node8"><a xlink:href="classcs_1_1aworx_1_1lox_1_1Log.html" target="_top" xlink:title="Log">
<polygon fill="white" stroke="black" points="555,-134.5 555,-153.5 587,-153.5 587,-134.5 555,-134.5"/>
<text text-anchor="middle" x="571" y="-141.5" font-family="Helvetica,sans-Serif" font-size="10.00">Log</text>
</a>
</g>
</g>
<!-- Node3&#45;&gt;Node8 -->
<g id="edge20" class="edge"><title>Node3&#45;&gt;Node8</title>
<path fill="none" stroke="#9a32cd" stroke-dasharray="5,2" d="M251.764,-267.673C288.523,-257.14 343.881,-240.481 391,-223 452.627,-200.136 523.64,-167.413 554.859,-152.692"/>
<polygon fill="#9a32cd" stroke="#9a32cd" points="250.572,-264.374 241.912,-270.477 252.488,-271.106 250.572,-264.374"/>
<text text-anchor="middle" x="474.5" y="-209.5" font-family="Helvetica,sans-Serif" font-size="10.00"> DebugLogger</text>
</g>
<!-- Node4 -->
<g id="node4" class="node"><title>Node4</title>
<g id="a_node4"><a xlink:href="classcs_1_1aworx_1_1lox_1_1core_1_1Logger.html" target="_top" xlink:title="Logger">
<polygon fill="white" stroke="black" points="343,-0.5 343,-19.5 389,-19.5 389,-0.5 343,-0.5"/>
<text text-anchor="middle" x="366" y="-7.5" font-family="Helvetica,sans-Serif" font-size="10.00">Logger</text>
</a>
</g>
</g>
<!-- Node4&#45;&gt;Node3 -->
<g id="edge3" class="edge"><title>Node4&#45;&gt;Node3</title>
<path fill="none" stroke="midnightblue" d="M332.568,-14.3097C273.073,-21.1331 155,-39.298 155,-76 155,-213 155,-213 155,-213 155,-238.546 179.695,-259.268 196.287,-270.308"/>
<polygon fill="midnightblue" stroke="midnightblue" points="333.057,-17.7771 342.613,-13.2018 332.29,-10.8193 333.057,-17.7771"/>
</g>
<!-- Node5 -->
<g id="node5" class="node"><title>Node5</title>
<g id="a_node5"><a xlink:href="classcs_1_1aworx_1_1lib_1_1strings_1_1AString.html" target="_top" xlink:title="AString">
<polygon fill="white" stroke="black" points="312.5,-429.5 312.5,-448.5 361.5,-448.5 361.5,-429.5 312.5,-429.5"/>
<text text-anchor="middle" x="337" y="-436.5" font-family="Helvetica,sans-Serif" font-size="10.00">AString</text>
</a>
</g>
</g>
<!-- Node5&#45;&gt;Node3 -->
<g id="edge22" class="edge"><title>Node5&#45;&gt;Node3</title>
<path fill="none" stroke="#9a32cd" stroke-dasharray="5,2" d="M322.084,-421.864C312.555,-410.941 300.446,-395.845 292,-381 274.816,-350.797 287.249,-333.826 264,-308 256.676,-299.865 246.331,-293.837 236.722,-289.567"/>
<polygon fill="#9a32cd" stroke="#9a32cd" points="319.489,-424.213 328.765,-429.331 324.705,-419.545 319.489,-424.213"/>
<text text-anchor="middle" x="307.5" y="-362" font-family="Helvetica,sans-Serif" font-size="10.00"> logBuf</text>
</g>
<!-- Node5&#45;&gt;Node4 -->
<g id="edge4" class="edge"><title>Node5&#45;&gt;Node4</title>
<path fill="none" stroke="#9a32cd" stroke-dasharray="5,2" d="M334.047,-419.278C327.013,-374.33 309.654,-261.218 307,-223 305.63,-203.27 307,-198.278 307,-178.5 307,-178.5 307,-178.5 307,-76 307,-50.3964 332.409,-30.4044 349.878,-19.6853"/>
<polygon fill="#9a32cd" stroke="#9a32cd" points="330.623,-420.037 335.633,-429.372 337.538,-418.95 330.623,-420.037"/>
<text text-anchor="middle" x="347" y="-209.5" font-family="Helvetica,sans-Serif" font-size="10.00"> tmpDomainName</text>
</g>
<!-- Node7 -->
<g id="node7" class="node"><title>Node7</title>
<g id="a_node7"><a xlink:href="classcs_1_1aworx_1_1lox_1_1core_1_1Domain.html" target="_top" xlink:title="Domain">
<polygon fill="white" stroke="black" points="487,-67.5 487,-86.5 537,-86.5 537,-67.5 487,-67.5"/>
<text text-anchor="middle" x="512" y="-74.5" font-family="Helvetica,sans-Serif" font-size="10.00">Domain</text>
</a>
</g>
</g>
<!-- Node5&#45;&gt;Node7 -->
<g id="edge8" class="edge"><title>Node5&#45;&gt;Node7</title>
<path fill="none" stroke="#9a32cd" stroke-dasharray="5,2" d="M371.979,-438.345C423.046,-436.81 512,-425.523 512,-365.5 512,-365.5 512,-365.5 512,-143 512,-122.913 512,-99.3347 512,-86.8314"/>
<polygon fill="#9a32cd" stroke="#9a32cd" points="371.634,-434.851 361.702,-438.539 371.766,-441.85 371.634,-434.851"/>
<text text-anchor="middle" x="527" y="-244" font-family="Helvetica,sans-Serif" font-size="10.00"> Name</text>
</g>
<!-- Node11 -->
<g id="node11" class="node"><title>Node11</title>
<g id="a_node11"><a xlink:href="classcs_1_1aworx_1_1lox_1_1Lox.html" target="_top" xlink:title="Lox">
<polygon fill="white" stroke="black" points="640,-270.5 640,-289.5 672,-289.5 672,-270.5 640,-270.5"/>
<text text-anchor="middle" x="656" y="-277.5" font-family="Helvetica,sans-Serif" font-size="10.00">Lox</text>
</a>
</g>
</g>
<!-- Node5&#45;&gt;Node11 -->
<g id="edge16" class="edge"><title>Node5&#45;&gt;Node11</title>
<path fill="none" stroke="#9a32cd" stroke-dasharray="5,2" d="M371.544,-438.748C435.708,-439.448 570.038,-437.474 606,-410 645.701,-379.671 653.896,-313.466 655.573,-289.706"/>
<polygon fill="#9a32cd" stroke="#9a32cd" points="371.557,-435.247 361.51,-438.61 371.461,-442.247 371.557,-435.247"/>
<text text-anchor="middle" x="668" y="-373" font-family="Helvetica,sans-Serif" font-size="10.00"> logBuf</text>
<text text-anchor="middle" x="668" y="-362" font-family="Helvetica,sans-Serif" font-size="10.00">tempAS</text>
<text text-anchor="middle" x="668" y="-351" font-family="Helvetica,sans-Serif" font-size="10.00">resDomain</text>
</g>
<!-- Node12 -->
<g id="node12" class="node"><title>Node12</title>
<g id="a_node12"><a xlink:href="classcs_1_1aworx_1_1lox_1_1core_1_1CallerInfo.html" target="_top" xlink:title="CallerInfo">
<polygon fill="white" stroke="black" points="540.5,-355 540.5,-374 599.5,-374 599.5,-355 540.5,-355"/>
<text text-anchor="middle" x="570" y="-362" font-family="Helvetica,sans-Serif" font-size="10.00">CallerInfo</text>
</a>
</g>
</g>
<!-- Node5&#45;&gt;Node12 -->
<g id="edge14" class="edge"><title>Node5&#45;&gt;Node12</title>
<path fill="none" stroke="#9a32cd" stroke-dasharray="5,2" d="M371.583,-435.505C418.547,-431.672 499.662,-423.348 526,-410 542.669,-401.552 556.801,-384.368 564.281,-374.001"/>
<polygon fill="#9a32cd" stroke="#9a32cd" points="371.246,-432.021 361.552,-436.298 371.797,-438.999 371.246,-432.021"/>
<text text-anchor="middle" x="572" y="-402" font-family="Helvetica,sans-Serif" font-size="10.00"> ThreadName</text>
</g>
<!-- Node15 -->
<g id="node15" class="node"><title>Node15</title>
<g id="a_node15"><a xlink:href="classcs_1_1aworx_1_1lox_1_1core_1_1textlogger_1_1ObjectConverter.html" target="_top" xlink:title="ObjectConverter">
<polygon fill="white" stroke="black" points="0,-355 0,-374 88,-374 88,-355 0,-355"/>
<text text-anchor="middle" x="44" y="-362" font-family="Helvetica,sans-Serif" font-size="10.00">ObjectConverter</text>
</a>
</g>
</g>
<!-- Node5&#45;&gt;Node15 -->
<g id="edge25" class="edge"><title>Node5&#45;&gt;Node15</title>
<path fill="none" stroke="#9a32cd" stroke-dasharray="5,2" d="M302.412,-434.542C269.591,-430.657 219.157,-423.11 177,-410 165.796,-406.516 163.965,-403.177 153,-399 138.385,-393.432 100.29,-381.977 73.2653,-374.021"/>
<polygon fill="#9a32cd" stroke="#9a32cd" points="302.085,-438.027 312.416,-435.677 302.874,-431.072 302.085,-438.027"/>
<text text-anchor="middle" x="191" y="-402" font-family="Helvetica,sans-Serif" font-size="10.00"> buffer</text>
</g>
<!-- Node16 -->
<g id="node16" class="node"><title>Node16</title>
<g id="a_node16"><a xlink:href="classcs_1_1aworx_1_1lox_1_1core_1_1textlogger_1_1MetaInfo.html" target="_top" xlink:title="MetaInfo">
<polygon fill="white" stroke="black" points="106.5,-355 106.5,-374 161.5,-374 161.5,-355 106.5,-355"/>
<text text-anchor="middle" x="134" y="-362" font-family="Helvetica,sans-Serif" font-size="10.00">MetaInfo</text>
</a>
</g>
</g>
<!-- Node5&#45;&gt;Node16 -->
<g id="edge29" class="edge"><title>Node5&#45;&gt;Node16</title>
<path fill="none" stroke="#9a32cd" stroke-dasharray="5,2" d="M302.547,-430.632C281.339,-425.692 253.76,-418.539 230,-410 228.023,-409.289 179.816,-386.855 152.484,-374.118"/>
<polygon fill="#9a32cd" stroke="#9a32cd" points="301.874,-434.068 312.401,-432.875 303.428,-427.242 301.874,-434.068"/>
<text text-anchor="middle" x="247" y="-402" font-family="Helvetica,sans-Serif" font-size="10.00"> Format</text>
</g>
<!-- Node6 -->
<g id="node6" class="node"><title>Node6</title>
<g id="a_node6"><a xlink:href="classcs_1_1aworx_1_1lib_1_1time_1_1Ticks.html" target="_top" xlink:title="Ticks">
<polygon fill="white" stroke="black" points="723.5,-429.5 723.5,-448.5 764.5,-448.5 764.5,-429.5 723.5,-429.5"/>
<text text-anchor="middle" x="744" y="-436.5" font-family="Helvetica,sans-Serif" font-size="10.00">Ticks</text>
</a>
</g>
</g>
<!-- Node6&#45;&gt;Node4 -->
<g id="edge5" class="edge"><title>Node6&#45;&gt;Node4</title>
<path fill="none" stroke="#9a32cd" stroke-dasharray="5,2" d="M772.727,-423.853C778.406,-419.999 783.877,-415.374 788,-410 800.621,-393.55 802,-386.233 802,-365.5 802,-365.5 802,-365.5 802,-76 802,-33.8601 479.271,-16.1172 389.133,-11.9834"/>
<polygon fill="#9a32cd" stroke="#9a32cd" points="770.529,-421.092 763.795,-429.271 774.16,-427.077 770.529,-421.092"/>
<text text-anchor="middle" x="837" y="-215" font-family="Helvetica,sans-Serif" font-size="10.00"> TimeOfLastLog</text>
<text text-anchor="middle" x="837" y="-204" font-family="Helvetica,sans-Serif" font-size="10.00">TimeOfCreation</text>
</g>
<!-- Node6&#45;&gt;Node6 -->
<g id="edge6" class="edge"><title>Node6&#45;&gt;Node6</title>
<path fill="none" stroke="#9a32cd" stroke-dasharray="5,2" d="M774.816,-444.782C779.4,-443.881 782.5,-441.954 782.5,-439 782.5,-434.152 774.152,-432.069 764.597,-432.751"/>
<polygon fill="#9a32cd" stroke="#9a32cd" points="774.427,-441.296 764.597,-445.249 774.746,-448.289 774.427,-441.296"/>
<text text-anchor="middle" x="813.5" y="-442" font-family="Helvetica,sans-Serif" font-size="10.00"> CreationTime</text>
<text text-anchor="middle" x="813.5" y="-431" font-family="Helvetica,sans-Serif" font-size="10.00">tempTicks</text>
</g>
<!-- Node6&#45;&gt;Node12 -->
<g id="edge15" class="edge"><title>Node6&#45;&gt;Node12</title>
<path fill="none" stroke="#9a32cd" stroke-dasharray="5,2" d="M714.049,-425.52C678.801,-410.834 621.211,-386.838 590.617,-374.09"/>
<polygon fill="#9a32cd" stroke="#9a32cd" points="712.78,-428.783 723.357,-429.399 715.472,-422.322 712.78,-428.783"/>
<text text-anchor="middle" x="699" y="-402" font-family="Helvetica,sans-Serif" font-size="10.00"> TimeStamp</text>
</g>
<!-- Node13 -->
<g id="node13" class="node"><title>Node13</title>
<g id="a_node13"><a xlink:href="classcs_1_1aworx_1_1lib_1_1threads_1_1ThreadLock.html" target="_top" xlink:title="ThreadLock">
<polygon fill="white" stroke="black" points="705,-355 705,-374 773,-374 773,-355 705,-355"/>
<text text-anchor="middle" x="739" y="-362" font-family="Helvetica,sans-Serif" font-size="10.00">ThreadLock</text>
</a>
</g>
</g>
<!-- Node6&#45;&gt;Node13 -->
<g id="edge18" class="edge"><title>Node6&#45;&gt;Node13</title>
<path fill="none" stroke="#9a32cd" stroke-dasharray="5,2" d="M742.691,-419.025C741.688,-404.481 740.351,-385.095 739.592,-374.09"/>
<polygon fill="#9a32cd" stroke="#9a32cd" points="739.227,-419.663 743.407,-429.399 746.21,-419.181 739.227,-419.663"/>
<text text-anchor="middle" x="762.5" y="-402" font-family="Helvetica,sans-Serif" font-size="10.00"> waitTime</text>
</g>
<!-- Node7&#45;&gt;Node4 -->
<g id="edge7" class="edge"><title>Node7&#45;&gt;Node4</title>
<path fill="none" stroke="#9a32cd" stroke-dasharray="5,2" d="M483.431,-63.281C454.518,-50.4085 410.596,-30.8545 385.468,-19.6672"/>
<polygon fill="#9a32cd" stroke="#9a32cd" points="482.053,-66.4987 492.612,-67.3685 484.9,-60.1038 482.053,-66.4987"/>
<text text-anchor="middle" x="477" y="-41" font-family="Helvetica,sans-Serif" font-size="10.00"> RootDomain</text>
</g>
<!-- Node7&#45;&gt;Node7 -->
<g id="edge21" class="edge"><title>Node7&#45;&gt;Node7</title>
<path fill="none" stroke="#9a32cd" stroke-dasharray="5,2" d="M547.446,-82.2543C551.996,-81.3413 555,-79.5898 555,-77 555,-72.75 546.91,-70.7578 537.176,-71.0234"/>
<polygon fill="#9a32cd" stroke="#9a32cd" points="546.905,-78.7836 537.176,-82.9766 547.397,-85.7663 546.905,-78.7836"/>
<text text-anchor="middle" x="571" y="-74.5" font-family="Helvetica,sans-Serif" font-size="10.00"> Parent</text>
</g>
<!-- Node8&#45;&gt;Node7 -->
<g id="edge9" class="edge"><title>Node8&#45;&gt;Node7</title>
<path fill="none" stroke="#9a32cd" stroke-dasharray="5,2" d="M556.145,-126.635C544.607,-113.923 529.063,-96.7978 519.831,-86.6273"/>
<polygon fill="#9a32cd" stroke="#9a32cd" points="553.73,-129.182 563.043,-134.234 558.914,-124.477 553.73,-129.182"/>
<text text-anchor="middle" x="558" y="-108" font-family="Helvetica,sans-Serif" font-size="10.00"> level</text>
</g>
<!-- Node9 -->
<g id="node9" class="node"><title>Node9</title>
<g id="a_node9"><a xlink:href="classcs_1_1aworx_1_1lox_1_1Log_1_1ALoxReportWriter.html" target="_top" xlink:title="Log.ALoxReportWriter">
<polygon fill="white" stroke="black" points="540.5,-202.5 540.5,-221.5 653.5,-221.5 653.5,-202.5 540.5,-202.5"/>
<text text-anchor="middle" x="597" y="-209.5" font-family="Helvetica,sans-Serif" font-size="10.00">Log.ALoxReportWriter</text>
</a>
</g>
</g>
<!-- Node9&#45;&gt;Node8 -->
<g id="edge10" class="edge"><title>Node9&#45;&gt;Node8</title>
<path fill="none" stroke="#9a32cd" stroke-dasharray="5,2" d="M589.833,-192.807C584.837,-180.124 578.391,-163.762 574.483,-153.841"/>
<polygon fill="#9a32cd" stroke="#9a32cd" points="586.679,-194.35 593.601,-202.372 593.192,-191.785 586.679,-194.35"/>
<text text-anchor="middle" x="630" y="-175" font-family="Helvetica,sans-Serif" font-size="10.00"> DebugReportWriter</text>
</g>
<!-- Node10 -->
<g id="node10" class="node"><title>Node10</title>
<g id="a_node10"><a xlink:href="interfacecs_1_1aworx_1_1lib_1_1ReportWriter.html" target="_top" xlink:title="ReportWriter">
<polygon fill="white" stroke="black" points="550,-270.5 550,-289.5 622,-289.5 622,-270.5 550,-270.5"/>
<text text-anchor="middle" x="586" y="-277.5" font-family="Helvetica,sans-Serif" font-size="10.00">ReportWriter</text>
</a>
</g>
</g>
<!-- Node10&#45;&gt;Node9 -->
<g id="edge11" class="edge"><title>Node10&#45;&gt;Node9</title>
<path fill="none" stroke="midnightblue" d="M589.096,-260.425C591.2,-247.798 593.89,-231.662 595.526,-221.841"/>
<polygon fill="midnightblue" stroke="midnightblue" points="585.63,-259.932 587.438,-270.372 592.535,-261.083 585.63,-259.932"/>
</g>
<!-- Node11&#45;&gt;Node8 -->
<g id="edge19" class="edge"><title>Node11&#45;&gt;Node8</title>
<path fill="none" stroke="#9a32cd" stroke-dasharray="5,2" d="M666.807,-261.527C679.461,-238.581 696.276,-198.149 676,-172 665.216,-158.092 614.16,-150.096 587.422,-146.796"/>
<polygon fill="#9a32cd" stroke="#9a32cd" points="663.61,-260.061 661.596,-270.462 669.657,-263.587 663.61,-260.061"/>
<text text-anchor="middle" x="696.5" y="-209.5" font-family="Helvetica,sans-Serif" font-size="10.00"> LOX</text>
</g>
<!-- Node11&#45;&gt;Node9 -->
<g id="edge12" class="edge"><title>Node11&#45;&gt;Node9</title>
<path fill="none" stroke="#9a32cd" stroke-dasharray="5,2" d="M641.411,-262.68C629.876,-249.777 614.215,-232.258 604.903,-221.841"/>
<polygon fill="#9a32cd" stroke="#9a32cd" points="639.013,-265.249 648.287,-270.372 644.231,-260.584 639.013,-265.249"/>
<text text-anchor="middle" x="639" y="-244" font-family="Helvetica,sans-Serif" font-size="10.00"> lox</text>
</g>
<!-- Node12&#45;&gt;Node11 -->
<g id="edge13" class="edge"><title>Node12&#45;&gt;Node11</title>
<path fill="none" stroke="#9a32cd" stroke-dasharray="5,2" d="M574.585,-345.099C578.359,-333.222 584.783,-318.15 595,-308 598.41,-304.613 623.046,-294.265 639.947,-287.409"/>
<polygon fill="#9a32cd" stroke="#9a32cd" points="571.174,-344.301 571.832,-354.875 577.912,-346.199 571.174,-344.301"/>
<text text-anchor="middle" x="608.5" y="-316.5" font-family="Helvetica,sans-Serif" font-size="10.00"> caller</text>
</g>
<!-- Node13&#45;&gt;Node11 -->
<g id="edge17" class="edge"><title>Node13&#45;&gt;Node11</title>
<path fill="none" stroke="#9a32cd" stroke-dasharray="5,2" d="M723.224,-347.819C705.833,-330.533 678.491,-303.355 664.648,-289.595"/>
<polygon fill="#9a32cd" stroke="#9a32cd" points="720.87,-350.414 730.43,-354.982 725.805,-345.45 720.87,-350.414"/>
<text text-anchor="middle" x="730" y="-322" font-family="Helvetica,sans-Serif" font-size="10.00"> logBufLock</text>
<text text-anchor="middle" x="730" y="-311" font-family="Helvetica,sans-Serif" font-size="10.00">Lock</text>
</g>
<!-- Node14 -->
<g id="node14" class="node"><title>Node14</title>
<g id="a_node14"><a xlink:href="classcs_1_1aworx_1_1lox_1_1core_1_1textlogger_1_1AutoSizes.html" target="_top" xlink:title="AutoSizes">
<polygon fill="white" stroke="black" points="180,-355 180,-374 242,-374 242,-355 180,-355"/>
<text text-anchor="middle" x="211" y="-362" font-family="Helvetica,sans-Serif" font-size="10.00">AutoSizes</text>
</a>
</g>
</g>
<!-- Node14&#45;&gt;Node3 -->
<g id="edge23" class="edge"><title>Node14&#45;&gt;Node3</title>
<path fill="none" stroke="#9a32cd" stroke-dasharray="5,2" d="M211,-344.933C211,-327.634 211,-302.611 211,-289.595"/>
<polygon fill="#9a32cd" stroke="#9a32cd" points="207.5,-344.982 211,-354.982 214.5,-344.982 207.5,-344.982"/>
<text text-anchor="middle" x="235.5" y="-316.5" font-family="Helvetica,sans-Serif" font-size="10.00"> AutoSizes</text>
</g>
<!-- Node15&#45;&gt;Node3 -->
<g id="edge24" class="edge"><title>Node15&#45;&gt;Node3</title>
<path fill="none" stroke="#9a32cd" stroke-dasharray="5,2" d="M48.34,-345.057C52.2155,-332.697 59.1631,-317.078 71,-308 87.4499,-295.384 142.308,-287.718 178.272,-283.926"/>
<polygon fill="#9a32cd" stroke="#9a32cd" points="44.9281,-344.265 45.6795,-354.833 51.6825,-346.103 44.9281,-344.265"/>
<text text-anchor="middle" x="108.5" y="-316.5" font-family="Helvetica,sans-Serif" font-size="10.00"> ObjectConverter</text>
</g>
<!-- Node16&#45;&gt;Node3 -->
<g id="edge26" class="edge"><title>Node16&#45;&gt;Node3</title>
<path fill="none" stroke="#9a32cd" stroke-dasharray="5,2" d="M141.113,-345.451C146.393,-333.747 154.491,-318.736 165,-308 172.514,-300.324 182.663,-294.06 191.517,-289.506"/>
<polygon fill="#9a32cd" stroke="#9a32cd" points="137.876,-344.121 137.209,-354.694 144.324,-346.844 137.876,-344.121"/>
<text text-anchor="middle" x="186" y="-316.5" font-family="Helvetica,sans-Serif" font-size="10.00"> MetaInfo</text>
</g>
<!-- Node17 -->
<g id="node17" class="node"><title>Node17</title>
<g id="a_node17"><a xlink:href="classcs_1_1aworx_1_1lib_1_1strings_1_1Tokenizer.html" target="_top" xlink:title="Tokenizer">
<polygon fill="white" stroke="black" points="104.5,-429.5 104.5,-448.5 163.5,-448.5 163.5,-429.5 104.5,-429.5"/>
<text text-anchor="middle" x="134" y="-436.5" font-family="Helvetica,sans-Serif" font-size="10.00">Tokenizer</text>
</a>
</g>
</g>
<!-- Node17&#45;&gt;Node16 -->
<g id="edge27" class="edge"><title>Node17&#45;&gt;Node16</title>
<path fill="none" stroke="#9a32cd" stroke-dasharray="5,2" d="M134,-419.025C134,-404.481 134,-385.095 134,-374.09"/>
<polygon fill="#9a32cd" stroke="#9a32cd" points="130.5,-419.399 134,-429.399 137.5,-419.399 130.5,-419.399"/>
<text text-anchor="middle" x="142.5" y="-402" font-family="Helvetica,sans-Serif" font-size="10.00"> tok</text>
</g>
<!-- Node18 -->
<g id="node18" class="node"><title>Node18</title>
<g id="a_node18"><a xlink:href="classcs_1_1aworx_1_1lib_1_1strings_1_1Substring.html" target="_top" xlink:title="Substring">
<polygon fill="white" stroke="black" points="105,-508.5 105,-527.5 163,-527.5 163,-508.5 105,-508.5"/>
<text text-anchor="middle" x="134" y="-515.5" font-family="Helvetica,sans-Serif" font-size="10.00">Substring</text>
</a>
</g>
</g>
<!-- Node18&#45;&gt;Node17 -->
<g id="edge28" class="edge"><title>Node18&#45;&gt;Node17</title>
<path fill="none" stroke="#9a32cd" stroke-dasharray="5,2" d="M134,-498.315C134,-482.592 134,-460.808 134,-448.809"/>
<polygon fill="#9a32cd" stroke="#9a32cd" points="130.5,-498.465 134,-508.465 137.5,-498.465 130.5,-498.465"/>
<text text-anchor="middle" x="148" y="-482" font-family="Helvetica,sans-Serif" font-size="10.00"> Rest</text>
<text text-anchor="middle" x="148" y="-471" font-family="Helvetica,sans-Serif" font-size="10.00">Actual</text>
</g>
</g>
</svg>
