<?xml version="1.0" encoding="UTF-8" standalone="no"?>
<!DOCTYPE svg PUBLIC "-//W3C//DTD SVG 1.1//EN"
 "http://www.w3.org/Graphics/SVG/1.1/DTD/svg11.dtd">
<!-- Generated by graphviz version 2.38.0 (20140413.2041)
 -->
<!-- Title: MemoryLogger Pages: 1 -->
<svg width="403pt" height="458pt"
 viewBox="0.00 0.00 403.00 458.00" xmlns="http://www.w3.org/2000/svg" xmlns:xlink="http://www.w3.org/1999/xlink">
<g id="graph0" class="graph" transform="scale(1 1) rotate(0) translate(4 454)">
<title>MemoryLogger</title>
<polygon fill="white" stroke="none" points="-4,4 -4,-454 399,-454 399,4 -4,4"/>
<!-- Node1 -->
<g id="node1" class="node"><title>Node1</title>
<polygon fill="#bfbfbf" stroke="black" points="0,-0.5 0,-19.5 81,-19.5 81,-0.5 0,-0.5"/>
<text text-anchor="middle" x="40.5" y="-7.5" font-family="Helvetica,sans-Serif" font-size="10.00">MemoryLogger</text>
</g>
<!-- Node2 -->
<g id="node2" class="node"><title>Node2</title>
<g id="a_node2"><a xlink:href="classcs_1_1aworx_1_1lox_1_1core_1_1textlogger_1_1PlainTextLogger.html" target="_top" xlink:title="PlainTextLogger">
<polygon fill="white" stroke="black" points="55,-57.5 55,-76.5 142,-76.5 142,-57.5 55,-57.5"/>
<text text-anchor="middle" x="98.5" y="-64.5" font-family="Helvetica,sans-Serif" font-size="10.00">PlainTextLogger</text>
</a>
</g>
</g>
<!-- Node2&#45;&gt;Node1 -->
<g id="edge1" class="edge"><title>Node2&#45;&gt;Node1</title>
<path fill="none" stroke="midnightblue" d="M82.0661,-50.4162C71.5764,-40.469 58.3672,-27.9431 49.6903,-19.7149"/>
<polygon fill="midnightblue" stroke="midnightblue" points="79.7729,-53.065 89.4375,-57.4062 84.5896,-47.9856 79.7729,-53.065"/>
</g>
<!-- Node3 -->
<g id="node3" class="node"><title>Node3</title>
<g id="a_node3"><a xlink:href="classcs_1_1aworx_1_1lox_1_1core_1_1textlogger_1_1TextLogger.html" target="_top" xlink:title="TextLogger">
<polygon fill="white" stroke="black" points="107,-114.5 107,-133.5 172,-133.5 172,-114.5 107,-114.5"/>
<text text-anchor="middle" x="139.5" y="-121.5" font-family="Helvetica,sans-Serif" font-size="10.00">TextLogger</text>
</a>
</g>
</g>
<!-- Node3&#45;&gt;Node2 -->
<g id="edge2" class="edge"><title>Node3&#45;&gt;Node2</title>
<path fill="none" stroke="midnightblue" d="M127.002,-106.234C119.74,-96.4932 110.89,-84.6204 104.997,-76.7149"/>
<polygon fill="midnightblue" stroke="midnightblue" points="124.311,-108.481 133.094,-114.406 129.923,-104.297 124.311,-108.481"/>
</g>
<!-- Node4 -->
<g id="node4" class="node"><title>Node4</title>
<g id="a_node4"><a xlink:href="classcs_1_1aworx_1_1lox_1_1core_1_1Logger.html" target="_top" xlink:title="Logger">
<polygon fill="white" stroke="black" points="265.5,-182.5 265.5,-201.5 311.5,-201.5 311.5,-182.5 265.5,-182.5"/>
<text text-anchor="middle" x="288.5" y="-189.5" font-family="Helvetica,sans-Serif" font-size="10.00">Logger</text>
</a>
</g>
</g>
<!-- Node4&#45;&gt;Node3 -->
<g id="edge3" class="edge"><title>Node4&#45;&gt;Node3</title>
<path fill="none" stroke="midnightblue" d="M275.726,-174.536C268.773,-166.627 259.548,-157.66 249.5,-152 225.515,-138.487 194.865,-131.679 172.014,-128.284"/>
<polygon fill="midnightblue" stroke="midnightblue" points="273.24,-177.021 282.311,-182.496 278.634,-172.56 273.24,-177.021"/>
</g>
<!-- Node5 -->
<g id="node5" class="node"><title>Node5</title>
<g id="a_node5"><a xlink:href="classcs_1_1aworx_1_1lib_1_1threads_1_1SmartLock.html" target="_top" xlink:title="SmartLock">
<polygon fill="white" stroke="black" points="309.5,-283.5 309.5,-302.5 373.5,-302.5 373.5,-283.5 309.5,-283.5"/>
<text text-anchor="middle" x="341.5" y="-290.5" font-family="Helvetica,sans-Serif" font-size="10.00">SmartLock</text>
</a>
</g>
</g>
<!-- Node5&#45;&gt;Node4 -->
<g id="edge4" class="edge"><title>Node5&#45;&gt;Node4</title>
<path fill="none" stroke="midnightblue" d="M331.973,-274.204C320.517,-252.805 301.755,-217.759 293.117,-201.625"/>
<polygon fill="midnightblue" stroke="midnightblue" points="328.991,-276.05 336.797,-283.214 335.162,-272.746 328.991,-276.05"/>
</g>
<!-- Node6 -->
<g id="node6" class="node"><title>Node6</title>
<g id="a_node6"><a xlink:href="classcs_1_1aworx_1_1lib_1_1threads_1_1ThreadLock.html" target="_top" xlink:title="ThreadLock">
<polygon fill="white" stroke="black" points="307.5,-361.5 307.5,-380.5 375.5,-380.5 375.5,-361.5 307.5,-361.5"/>
<text text-anchor="middle" x="341.5" y="-368.5" font-family="Helvetica,sans-Serif" font-size="10.00">ThreadLock</text>
</a>
</g>
</g>
<!-- Node6&#45;&gt;Node5 -->
<g id="edge5" class="edge"><title>Node6&#45;&gt;Node5</title>
<path fill="none" stroke="midnightblue" d="M341.5,-351.224C341.5,-335.697 341.5,-314.358 341.5,-302.616"/>
<polygon fill="midnightblue" stroke="midnightblue" points="338,-351.282 341.5,-361.282 345,-351.282 338,-351.282"/>
</g>
<!-- Node7 -->
<g id="node7" class="node"><title>Node7</title>
<g id="a_node7"><a xlink:href="classcs_1_1aworx_1_1lib_1_1time_1_1Ticks.html" target="_top" xlink:title="Ticks">
<polygon fill="white" stroke="black" points="274,-429.5 274,-448.5 315,-448.5 315,-429.5 274,-429.5"/>
<text text-anchor="middle" x="294.5" y="-436.5" font-family="Helvetica,sans-Serif" font-size="10.00">Ticks</text>
</a>
</g>
</g>
<!-- Node7&#45;&gt;Node4 -->
<g id="edge8" class="edge"><title>Node7&#45;&gt;Node4</title>
<path fill="none" stroke="#9a32cd" stroke-dasharray="5,2" d="M287.71,-419.846C281.037,-400.962 271.316,-370.384 267.5,-343 260.024,-289.349 278.178,-224.914 285.554,-201.791"/>
<polygon fill="#9a32cd" stroke="#9a32cd" points="284.429,-421.066 291.133,-429.27 291.009,-418.676 284.429,-421.066"/>
<text text-anchor="middle" x="302.5" y="-335" font-family="Helvetica,sans-Serif" font-size="10.00"> TimeOfLastLog</text>
<text text-anchor="middle" x="302.5" y="-324" font-family="Helvetica,sans-Serif" font-size="10.00">TimeOfCreation</text>
</g>
<!-- Node7&#45;&gt;Node6 -->
<g id="edge6" class="edge"><title>Node7&#45;&gt;Node6</title>
<path fill="none" stroke="#9a32cd" stroke-dasharray="5,2" d="M306.65,-420.938C315.784,-408.112 327.928,-391.059 335.204,-380.841"/>
<polygon fill="#9a32cd" stroke="#9a32cd" points="303.594,-419.196 300.644,-429.372 309.296,-423.256 303.594,-419.196"/>
<text text-anchor="middle" x="343" y="-402" font-family="Helvetica,sans-Serif" font-size="10.00"> waitTime</text>
</g>
<!-- Node7&#45;&gt;Node7 -->
<g id="edge7" class="edge"><title>Node7&#45;&gt;Node7</title>
<path fill="none" stroke="#9a32cd" stroke-dasharray="5,2" d="M325.316,-444.782C329.9,-443.881 333,-441.954 333,-439 333,-434.152 324.652,-432.069 315.097,-432.751"/>
<polygon fill="#9a32cd" stroke="#9a32cd" points="324.927,-441.296 315.097,-445.249 325.246,-448.289 324.927,-441.296"/>
<text text-anchor="middle" x="364" y="-442" font-family="Helvetica,sans-Serif" font-size="10.00"> CreationTime</text>
<text text-anchor="middle" x="364" y="-431" font-family="Helvetica,sans-Serif" font-size="10.00">tempTicks</text>
</g>
<!-- Node8 -->
<g id="node8" class="node"><title>Node8</title>
<g id="a_node8"><a xlink:href="classcs_1_1aworx_1_1lib_1_1strings_1_1AString.html" target="_top" xlink:title="AString">
<polygon fill="white" stroke="black" points="35,-283.5 35,-302.5 84,-302.5 84,-283.5 35,-283.5"/>
<text text-anchor="middle" x="59.5" y="-290.5" font-family="Helvetica,sans-Serif" font-size="10.00">AString</text>
</a>
</g>
</g>
<!-- Node8&#45;&gt;Node1 -->
<g id="edge15" class="edge"><title>Node8&#45;&gt;Node1</title>
<path fill="none" stroke="#9a32cd" stroke-dasharray="5,2" d="M46.1949,-275.219C32.6093,-256.359 13.5,-224.271 13.5,-193 13.5,-193 13.5,-193 13.5,-66 13.5,-48.1296 25.1279,-30.0276 33.1221,-19.6941"/>
<polygon fill="#9a32cd" stroke="#9a32cd" points="43.5048,-277.465 52.3125,-283.354 49.0994,-273.258 43.5048,-277.465"/>
<text text-anchor="middle" x="41" y="-121.5" font-family="Helvetica,sans-Serif" font-size="10.00"> MemoryLog</text>
</g>
<!-- Node8&#45;&gt;Node3 -->
<g id="edge9" class="edge"><title>Node8&#45;&gt;Node3</title>
<path fill="none" stroke="#9a32cd" stroke-dasharray="5,2" d="M56.6572,-273.091C54.1158,-249.921 52.8756,-210.157 68.5,-181 80.2901,-158.998 104.823,-142.724 121.722,-133.551"/>
<polygon fill="#9a32cd" stroke="#9a32cd" points="53.222,-273.816 57.9817,-283.282 60.1636,-272.914 53.222,-273.816"/>
<text text-anchor="middle" x="85.5" y="-195" font-family="Helvetica,sans-Serif" font-size="10.00"> logBuf</text>
<text text-anchor="middle" x="85.5" y="-184" font-family="Helvetica,sans-Serif" font-size="10.00">msgBuf</text>
</g>
<!-- Node10 -->
<g id="node10" class="node"><title>Node10</title>
<g id="a_node10"><a xlink:href="classcs_1_1aworx_1_1lox_1_1core_1_1textlogger_1_1MetaInfo.html" target="_top" xlink:title="MetaInfo">
<polygon fill="white" stroke="black" points="112,-182.5 112,-201.5 167,-201.5 167,-182.5 112,-182.5"/>
<text text-anchor="middle" x="139.5" y="-189.5" font-family="Helvetica,sans-Serif" font-size="10.00">MetaInfo</text>
</a>
</g>
</g>
<!-- Node8&#45;&gt;Node10 -->
<g id="edge14" class="edge"><title>Node8&#45;&gt;Node10</title>
<path fill="none" stroke="#9a32cd" stroke-dasharray="5,2" d="M66.8962,-274.102C75.4668,-253.421 88.5457,-222.066 89.5,-221 96.9976,-212.623 107.618,-206.186 117.144,-201.608"/>
<polygon fill="#9a32cd" stroke="#9a32cd" points="63.6082,-272.895 63.0184,-283.473 70.0762,-275.571 63.6082,-272.895"/>
<text text-anchor="middle" x="127.5" y="-257" font-family="Helvetica,sans-Serif" font-size="10.00"> Format</text>
<text text-anchor="middle" x="127.5" y="-246" font-family="Helvetica,sans-Serif" font-size="10.00">tmpAString</text>
<text text-anchor="middle" x="127.5" y="-235" font-family="Helvetica,sans-Serif" font-size="10.00">NoSourceFileInfo</text>
<text text-anchor="middle" x="127.5" y="-224" font-family="Helvetica,sans-Serif" font-size="10.00">NoMethodInfo</text>
</g>
<!-- Node9 -->
<g id="node9" class="node"><title>Node9</title>
<g id="a_node9"><a xlink:href="classcs_1_1aworx_1_1lox_1_1core_1_1textlogger_1_1AutoSizes.html" target="_top" xlink:title="AutoSizes">
<polygon fill="white" stroke="black" points="185.5,-182.5 185.5,-201.5 247.5,-201.5 247.5,-182.5 185.5,-182.5"/>
<text text-anchor="middle" x="216.5" y="-189.5" font-family="Helvetica,sans-Serif" font-size="10.00">AutoSizes</text>
</a>
</g>
</g>
<!-- Node9&#45;&gt;Node3 -->
<g id="edge10" class="edge"><title>Node9&#45;&gt;Node3</title>
<path fill="none" stroke="#9a32cd" stroke-dasharray="5,2" d="M205.124,-173.989C199.724,-166.683 192.847,-158.379 185.5,-152 177.109,-144.715 166.477,-138.327 157.549,-133.596"/>
<polygon fill="#9a32cd" stroke="#9a32cd" points="202.485,-176.32 211.1,-182.488 208.211,-172.294 202.485,-176.32"/>
<text text-anchor="middle" x="221" y="-155" font-family="Helvetica,sans-Serif" font-size="10.00"> AutoSizes</text>
</g>
<!-- Node10&#45;&gt;Node3 -->
<g id="edge11" class="edge"><title>Node10&#45;&gt;Node3</title>
<path fill="none" stroke="#9a32cd" stroke-dasharray="5,2" d="M139.5,-172.041C139.5,-159.472 139.5,-143.563 139.5,-133.841"/>
<polygon fill="#9a32cd" stroke="#9a32cd" points="136,-172.372 139.5,-182.372 143,-172.372 136,-172.372"/>
<text text-anchor="middle" x="160.5" y="-155" font-family="Helvetica,sans-Serif" font-size="10.00"> MetaInfo</text>
</g>
<!-- Node11 -->
<g id="node11" class="node"><title>Node11</title>
<g id="a_node11"><a xlink:href="classcs_1_1aworx_1_1lib_1_1strings_1_1Tokenizer.html" target="_top" xlink:title="Tokenizer">
<polygon fill="white" stroke="black" points="162,-283.5 162,-302.5 221,-302.5 221,-283.5 162,-283.5"/>
<text text-anchor="middle" x="191.5" y="-290.5" font-family="Helvetica,sans-Serif" font-size="10.00">Tokenizer</text>
</a>
</g>
</g>
<!-- Node11&#45;&gt;Node10 -->
<g id="edge12" class="edge"><title>Node11&#45;&gt;Node10</title>
<path fill="none" stroke="#9a32cd" stroke-dasharray="5,2" d="M188.389,-272.972C185.308,-257.988 179.554,-237.029 169.5,-221 164.806,-213.516 157.621,-206.713 151.459,-201.687"/>
<polygon fill="#9a32cd" stroke="#9a32cd" points="184.998,-273.883 190.252,-283.084 191.883,-272.615 184.998,-273.883"/>
<text text-anchor="middle" x="198" y="-240.5" font-family="Helvetica,sans-Serif" font-size="10.00"> tTok</text>
</g>
<!-- Node12 -->
<g id="node12" class="node"><title>Node12</title>
<g id="a_node12"><a xlink:href="classcs_1_1aworx_1_1lib_1_1strings_1_1Substring.html" target="_top" xlink:title="Substring">
<polygon fill="white" stroke="black" points="162.5,-361.5 162.5,-380.5 220.5,-380.5 220.5,-361.5 162.5,-361.5"/>
<text text-anchor="middle" x="191.5" y="-368.5" font-family="Helvetica,sans-Serif" font-size="10.00">Substring</text>
</a>
</g>
</g>
<!-- Node12&#45;&gt;Node11 -->
<g id="edge13" class="edge"><title>Node12&#45;&gt;Node11</title>
<path fill="none" stroke="#9a32cd" stroke-dasharray="5,2" d="M191.5,-351.224C191.5,-335.697 191.5,-314.358 191.5,-302.616"/>
<polygon fill="#9a32cd" stroke="#9a32cd" points="188,-351.282 191.5,-361.282 195,-351.282 188,-351.282"/>
<text text-anchor="middle" x="205.5" y="-335" font-family="Helvetica,sans-Serif" font-size="10.00"> Rest</text>
<text text-anchor="middle" x="205.5" y="-324" font-family="Helvetica,sans-Serif" font-size="10.00">Actual</text>
</g>
</g>
</svg>
