<?xml version="1.0" encoding="UTF-8" standalone="no"?>
<!DOCTYPE svg PUBLIC "-//W3C//DTD SVG 1.1//EN"
 "http://www.w3.org/Graphics/SVG/1.1/DTD/svg11.dtd">
<!-- Generated by graphviz version 2.38.0 (20140413.2041)
 -->
<!-- Title: Configuration Pages: 1 -->
<svg width="254pt" height="219pt"
 viewBox="0.00 0.00 253.50 219.00" xmlns="http://www.w3.org/2000/svg" xmlns:xlink="http://www.w3.org/1999/xlink">
<g id="graph0" class="graph" transform="scale(1 1) rotate(0) translate(4 215)">
<title>Configuration</title>
<polygon fill="white" stroke="none" points="-4,4 -4,-215 249.5,-215 249.5,4 -4,4"/>
<!-- Node1 -->
<g id="node1" class="node"><title>Node1</title>
<polygon fill="#bfbfbf" stroke="black" points="86.5,-124.5 86.5,-143.5 160.5,-143.5 160.5,-124.5 86.5,-124.5"/>
<text text-anchor="middle" x="123.5" y="-131.5" font-family="Helvetica,sans-Serif" font-size="10.00">Configuration</text>
</g>
<!-- Node3 -->
<g id="node3" class="node"><title>Node3</title>
<g id="a_node3"><a xlink:href="classcs_1_1aworx_1_1lib_1_1config_1_1ConfigurationPlugIn.html" target="_top" xlink:title="ConfigurationPlugIn">
<polygon fill="white" stroke="black" points="72.5,-57.5 72.5,-76.5 174.5,-76.5 174.5,-57.5 72.5,-57.5"/>
<text text-anchor="middle" x="123.5" y="-64.5" font-family="Helvetica,sans-Serif" font-size="10.00">ConfigurationPlugIn</text>
</a>
</g>
</g>
<!-- Node1&#45;&gt;Node3 -->
<g id="edge3" class="edge"><title>Node1&#45;&gt;Node3</title>
<path fill="none" stroke="#9a32cd" stroke-dasharray="5,2" d="M123.5,-114.037C123.5,-101.67 123.5,-86.1198 123.5,-76.6273"/>
<polygon fill="#9a32cd" stroke="#9a32cd" points="120,-114.234 123.5,-124.234 127,-114.234 120,-114.234"/>
<text text-anchor="middle" x="139.5" y="-98" font-family="Helvetica,sans-Serif" font-size="10.00"> Parent</text>
</g>
<!-- Node2 -->
<g id="node2" class="node"><title>Node2</title>
<g id="a_node2"><a xlink:href="classcs_1_1aworx_1_1lib_1_1config_1_1EnvironmentPlugIn.html" target="_top" xlink:title="EnvironmentPlugIn">
<polygon fill="white" stroke="black" points="0,-0.5 0,-19.5 99,-19.5 99,-0.5 0,-0.5"/>
<text text-anchor="middle" x="49.5" y="-7.5" font-family="Helvetica,sans-Serif" font-size="10.00">EnvironmentPlugIn</text>
</a>
</g>
</g>
<!-- Node2&#45;&gt;Node1 -->
<g id="edge1" class="edge"><title>Node2&#45;&gt;Node1</title>
<path fill="none" stroke="#9a32cd" stroke-dasharray="5,2" d="M36.7053,-28.1133C28.0558,-41.9365 19.6792,-61.5611 28.5,-77 42.4614,-101.436 71.7131,-116.274 94.0917,-124.479"/>
<polygon fill="#9a32cd" stroke="#9a32cd" points="39.7756,-29.8237 42.529,-19.5929 33.9965,-25.8737 39.7756,-29.8237"/>
<text text-anchor="middle" x="46" y="-64.5" font-family="Helvetica,sans-Serif" font-size="10.00"> EnvCP</text>
</g>
<!-- Node3&#45;&gt;Node2 -->
<g id="edge2" class="edge"><title>Node3&#45;&gt;Node2</title>
<path fill="none" stroke="midnightblue" d="M103.704,-51.287C90.1456,-41.2095 72.6217,-28.1851 61.2255,-19.7149"/>
<polygon fill="midnightblue" stroke="midnightblue" points="101.824,-54.2501 111.938,-57.4062 105.999,-48.6319 101.824,-54.2501"/>
</g>
<!-- Node4 -->
<g id="node4" class="node"><title>Node4</title>
<g id="a_node4"><a xlink:href="classcs_1_1aworx_1_1lib_1_1config_1_1CommandLinePlugIn.html" target="_top" xlink:title="CommandLinePlugIn">
<polygon fill="white" stroke="black" points="137,-0.5 137,-19.5 244,-19.5 244,-0.5 137,-0.5"/>
<text text-anchor="middle" x="190.5" y="-7.5" font-family="Helvetica,sans-Serif" font-size="10.00">CommandLinePlugIn</text>
</a>
</g>
</g>
<!-- Node3&#45;&gt;Node4 -->
<g id="edge5" class="edge"><title>Node3&#45;&gt;Node4</title>
<path fill="none" stroke="midnightblue" d="M141.775,-50.9983C154.001,-40.9619 169.664,-28.1044 179.884,-19.7149"/>
<polygon fill="midnightblue" stroke="midnightblue" points="139.477,-48.356 133.969,-57.4062 143.919,-53.7665 139.477,-48.356"/>
</g>
<!-- Node4&#45;&gt;Node1 -->
<g id="edge4" class="edge"><title>Node4&#45;&gt;Node1</title>
<path fill="none" stroke="#9a32cd" stroke-dasharray="5,2" d="M191.349,-29.5823C191.312,-43.2133 189.857,-61.9001 183.5,-77 174.543,-98.2744 152.895,-115.049 138.205,-124.499"/>
<polygon fill="#9a32cd" stroke="#9a32cd" points="194.847,-29.4301 191.123,-19.5111 187.849,-29.5871 194.847,-29.4301"/>
<text text-anchor="middle" x="217" y="-64.5" font-family="Helvetica,sans-Serif" font-size="10.00"> CmdLineCP</text>
</g>
<!-- Node5 -->
<g id="node5" class="node"><title>Node5</title>
<g id="a_node5"><a xlink:href="classcs_1_1aworx_1_1lib_1_1strings_1_1NumberFormat.html" target="_top" xlink:title="NumberFormat">
<polygon fill="white" stroke="black" points="82.5,-191.5 82.5,-210.5 164.5,-210.5 164.5,-191.5 82.5,-191.5"/>
<text text-anchor="middle" x="123.5" y="-198.5" font-family="Helvetica,sans-Serif" font-size="10.00">NumberFormat</text>
</a>
</g>
</g>
<!-- Node5&#45;&gt;Node1 -->
<g id="edge6" class="edge"><title>Node5&#45;&gt;Node1</title>
<path fill="none" stroke="#9a32cd" stroke-dasharray="5,2" d="M123.5,-181.037C123.5,-168.67 123.5,-153.12 123.5,-143.627"/>
<polygon fill="#9a32cd" stroke="#9a32cd" points="120,-181.234 123.5,-191.234 127,-181.234 120,-181.234"/>
<text text-anchor="middle" x="158" y="-165" font-family="Helvetica,sans-Serif" font-size="10.00"> NumberFormat</text>
</g>
<!-- Node5&#45;&gt;Node5 -->
<g id="edge7" class="edge"><title>Node5&#45;&gt;Node5</title>
<path fill="none" stroke="#9a32cd" stroke-dasharray="5,2" d="M174.758,-205.794C179.506,-204.805 182.5,-203.207 182.5,-201 182.5,-197.469 174.836,-195.496 164.583,-195.082"/>
<polygon fill="#9a32cd" stroke="#9a32cd" points="174.139,-202.341 164.583,-206.918 174.907,-209.299 174.139,-202.341"/>
<text text-anchor="middle" x="198" y="-198.5" font-family="Helvetica,sans-Serif" font-size="10.00"> Global</text>
</g>
</g>
</svg>
