<?xml version="1.0" encoding="UTF-8" standalone="no"?>
<!DOCTYPE svg PUBLIC "-//W3C//DTD SVG 1.1//EN"
 "http://www.w3.org/Graphics/SVG/1.1/DTD/svg11.dtd">
<!-- Generated by graphviz version 2.38.0 (20140413.2041)
 -->
<!-- Title: Report Pages: 1 -->
<svg width="145pt" height="164pt"
 viewBox="0.00 0.00 145.00 164.00" xmlns="http://www.w3.org/2000/svg" xmlns:xlink="http://www.w3.org/1999/xlink">
<g id="graph0" class="graph" transform="scale(1 1) rotate(0) translate(4 160)">
<title>Report</title>
<polygon fill="white" stroke="none" points="-4,4 -4,-160 141,-160 141,4 -4,4"/>
<!-- Node1 -->
<g id="node1" class="node"><title>Node1</title>
<polygon fill="#bfbfbf" stroke="black" points="11,-0.5 11,-19.5 57,-19.5 57,-0.5 11,-0.5"/>
<text text-anchor="middle" x="34" y="-7.5" font-family="Helvetica,sans-Serif" font-size="10.00">Report</text>
</g>
<!-- Node1&#45;&gt;Node1 -->
<g id="edge1" class="edge"><title>Node1&#45;&gt;Node1</title>
<path fill="none" stroke="#9a32cd" stroke-dasharray="5,2" d="M67.4107,-15.3327C71.9644,-14.4436 75,-12.666 75,-10 75,-5.625 66.8254,-3.64258 57.1818,-4.05273"/>
<polygon fill="#9a32cd" stroke="#9a32cd" points="66.9539,-11.8537 57.1818,-15.9473 67.3738,-18.8411 66.9539,-11.8537"/>
<text text-anchor="middle" x="106" y="-7.5" font-family="Helvetica,sans-Serif" font-size="10.00"> defaultReport</text>
</g>
<!-- Node2 -->
<g id="node2" class="node"><title>Node2</title>
<g id="a_node2"><a xlink:href="classcs_1_1aworx_1_1lib_1_1threads_1_1ThreadLock.html" target="_top" xlink:title="ThreadLock">
<polygon fill="white" stroke="black" points="0,-67.5 0,-86.5 68,-86.5 68,-67.5 0,-67.5"/>
<text text-anchor="middle" x="34" y="-74.5" font-family="Helvetica,sans-Serif" font-size="10.00">ThreadLock</text>
</a>
</g>
</g>
<!-- Node2&#45;&gt;Node1 -->
<g id="edge2" class="edge"><title>Node2&#45;&gt;Node1</title>
<path fill="none" stroke="#9a32cd" stroke-dasharray="5,2" d="M34,-57.037C34,-44.6703 34,-29.1198 34,-19.6273"/>
<polygon fill="#9a32cd" stroke="#9a32cd" points="30.5001,-57.2338 34,-67.2338 37.5001,-57.2338 30.5001,-57.2338"/>
<text text-anchor="middle" x="46.5" y="-41" font-family="Helvetica,sans-Serif" font-size="10.00"> Lock</text>
</g>
<!-- Node3 -->
<g id="node3" class="node"><title>Node3</title>
<g id="a_node3"><a xlink:href="classcs_1_1aworx_1_1lib_1_1time_1_1Ticks.html" target="_top" xlink:title="Ticks">
<polygon fill="white" stroke="black" points="13.5,-135.5 13.5,-154.5 54.5,-154.5 54.5,-135.5 13.5,-135.5"/>
<text text-anchor="middle" x="34" y="-142.5" font-family="Helvetica,sans-Serif" font-size="10.00">Ticks</text>
</a>
</g>
</g>
<!-- Node3&#45;&gt;Node2 -->
<g id="edge3" class="edge"><title>Node3&#45;&gt;Node2</title>
<path fill="none" stroke="#9a32cd" stroke-dasharray="5,2" d="M34,-125.041C34,-112.472 34,-96.5631 34,-86.8411"/>
<polygon fill="#9a32cd" stroke="#9a32cd" points="30.5001,-125.372 34,-135.372 37.5001,-125.372 30.5001,-125.372"/>
<text text-anchor="middle" x="55.5" y="-108" font-family="Helvetica,sans-Serif" font-size="10.00"> waitTime</text>
</g>
<!-- Node3&#45;&gt;Node3 -->
<g id="edge4" class="edge"><title>Node3&#45;&gt;Node3</title>
<path fill="none" stroke="#9a32cd" stroke-dasharray="5,2" d="M64.816,-150.782C69.4,-149.881 72.5,-147.954 72.5,-145 72.5,-140.152 64.1518,-138.069 54.5969,-138.751"/>
<polygon fill="#9a32cd" stroke="#9a32cd" points="64.4268,-147.296 54.5969,-151.249 64.7462,-154.289 64.4268,-147.296"/>
<text text-anchor="middle" x="103.5" y="-148" font-family="Helvetica,sans-Serif" font-size="10.00"> CreationTime</text>
<text text-anchor="middle" x="103.5" y="-137" font-family="Helvetica,sans-Serif" font-size="10.00">tempTicks</text>
</g>
</g>
</svg>
