<?xml version="1.0" encoding="UTF-8" standalone="no"?>
<!DOCTYPE svg PUBLIC "-//W3C//DTD SVG 1.1//EN"
 "http://www.w3.org/Graphics/SVG/1.1/DTD/svg11.dtd">
<!-- Generated by graphviz version 2.40.1 (20161225.0304)
 -->
<!-- Title: PlainTextLogger Pages: 1 -->
<svg width="414pt" height="308pt"
 viewBox="0.00 0.00 414.00 308.00" xmlns="http://www.w3.org/2000/svg" xmlns:xlink="http://www.w3.org/1999/xlink">
<g id="graph0" class="graph" transform="scale(1 1) rotate(0) translate(4 304)">
<title>PlainTextLogger</title>
<polygon fill="#ffffff" stroke="transparent" points="-4,4 -4,-304 410,-304 410,4 -4,4"/>
<!-- Node0 -->
<g id="node1" class="node">
<title>Node0</title>
<polygon fill="#bfbfbf" stroke="#000000" points="174,-56.5 174,-75.5 260,-75.5 260,-56.5 174,-56.5"/>
<text text-anchor="middle" x="217" y="-63.5" font-family="Helvetica,sans-Serif" font-size="10.00" fill="#000000">PlainTextLogger</text>
</g>
<!-- Node5 -->
<g id="node6" class="node">
<title>Node5</title>
<g id="a_node6"><a xlink:href="classcs_1_1aworx_1_1lox_1_1loggers_1_1CLRDebuggerLogger.html" target="_top" xlink:title="CLRDebuggerLogger">
<polygon fill="#ffffff" stroke="#000000" points="0,-.5 0,-19.5 108,-19.5 108,-.5 0,-.5"/>
<text text-anchor="middle" x="54" y="-7.5" font-family="Helvetica,sans-Serif" font-size="10.00" fill="#000000">CLRDebuggerLogger</text>
</a>
</g>
</g>
<!-- Node0&#45;&gt;Node5 -->
<g id="edge5" class="edge">
<title>Node0&#45;&gt;Node5</title>
<path fill="none" stroke="#191970" d="M179.3267,-53.057C149.4958,-42.8084 108.5148,-28.729 81.6551,-19.5011"/>
<polygon fill="#191970" stroke="#191970" points="178.3846,-56.4341 188.9793,-56.3733 180.6591,-49.8139 178.3846,-56.4341"/>
</g>
<!-- Node6 -->
<g id="node7" class="node">
<title>Node6</title>
<g id="a_node7"><a xlink:href="classcs_1_1aworx_1_1lox_1_1loggers_1_1ConsoleLogger.html" target="_top" xlink:title="ConsoleLogger">
<polygon fill="#ffffff" stroke="#000000" points="126,-.5 126,-19.5 208,-19.5 208,-.5 126,-.5"/>
<text text-anchor="middle" x="167" y="-7.5" font-family="Helvetica,sans-Serif" font-size="10.00" fill="#000000">ConsoleLogger</text>
</a>
</g>
</g>
<!-- Node0&#45;&gt;Node6 -->
<g id="edge6" class="edge">
<title>Node0&#45;&gt;Node6</title>
<path fill="none" stroke="#191970" d="M201.3753,-48.5004C192.8727,-38.9775 182.6782,-27.5596 175.6095,-19.6427"/>
<polygon fill="#191970" stroke="#191970" points="199.0197,-51.1172 208.2907,-56.2455 204.2413,-46.4551 199.0197,-51.1172"/>
</g>
<!-- Node7 -->
<g id="node8" class="node">
<title>Node7</title>
<g id="a_node8"><a xlink:href="classcs_1_1aworx_1_1lox_1_1loggers_1_1MemoryLogger.html" target="_top" xlink:title="MemoryLogger">
<polygon fill="#ffffff" stroke="#000000" points="226.5,-.5 226.5,-19.5 307.5,-19.5 307.5,-.5 226.5,-.5"/>
<text text-anchor="middle" x="267" y="-7.5" font-family="Helvetica,sans-Serif" font-size="10.00" fill="#000000">MemoryLogger</text>
</a>
</g>
</g>
<!-- Node0&#45;&gt;Node7 -->
<g id="edge7" class="edge">
<title>Node0&#45;&gt;Node7</title>
<path fill="none" stroke="#191970" d="M232.6247,-48.5004C241.1273,-38.9775 251.3218,-27.5596 258.3905,-19.6427"/>
<polygon fill="#191970" stroke="#191970" points="229.7587,-46.4551 225.7093,-56.2455 234.9803,-51.1172 229.7587,-46.4551"/>
</g>
<!-- Node8 -->
<g id="node9" class="node">
<title>Node8</title>
<g id="a_node9"><a xlink:href="classcs_1_1aworx_1_1lox_1_1loggers_1_1TextFileLogger.html" target="_top" xlink:title="TextFileLogger">
<polygon fill="#ffffff" stroke="#000000" points="326,-.5 326,-19.5 406,-19.5 406,-.5 326,-.5"/>
<text text-anchor="middle" x="366" y="-7.5" font-family="Helvetica,sans-Serif" font-size="10.00" fill="#000000">TextFileLogger</text>
</a>
</g>
</g>
<!-- Node0&#45;&gt;Node8 -->
<g id="edge8" class="edge">
<title>Node0&#45;&gt;Node8</title>
<path fill="none" stroke="#191970" d="M252.1512,-52.7888C279.3568,-42.5639 316.3809,-28.6488 340.7202,-19.5011"/>
<polygon fill="#191970" stroke="#191970" points="250.7434,-49.5788 242.614,-56.3733 253.2061,-56.1313 250.7434,-49.5788"/>
</g>
<!-- Node1 -->
<g id="node2" class="node">
<title>Node1</title>
<g id="a_node2"><a xlink:href="classcs_1_1aworx_1_1lox_1_1core_1_1textlogger_1_1TextLogger.html" target="_top" xlink:title="TextLogger">
<polygon fill="#ffffff" stroke="#000000" points="184.5,-112.5 184.5,-131.5 249.5,-131.5 249.5,-112.5 184.5,-112.5"/>
<text text-anchor="middle" x="217" y="-119.5" font-family="Helvetica,sans-Serif" font-size="10.00" fill="#000000">TextLogger</text>
</a>
</g>
</g>
<!-- Node1&#45;&gt;Node0 -->
<g id="edge1" class="edge">
<title>Node1&#45;&gt;Node0</title>
<path fill="none" stroke="#191970" d="M217,-102.1575C217,-93.155 217,-82.9199 217,-75.6427"/>
<polygon fill="#191970" stroke="#191970" points="213.5001,-102.2455 217,-112.2455 220.5001,-102.2456 213.5001,-102.2455"/>
</g>
<!-- Node2 -->
<g id="node3" class="node">
<title>Node2</title>
<g id="a_node3"><a xlink:href="classcs_1_1aworx_1_1lox_1_1core_1_1Logger.html" target="_top" xlink:title="Logger">
<polygon fill="#ffffff" stroke="#000000" points="194,-168.5 194,-187.5 240,-187.5 240,-168.5 194,-168.5"/>
<text text-anchor="middle" x="217" y="-175.5" font-family="Helvetica,sans-Serif" font-size="10.00" fill="#000000">Logger</text>
</a>
</g>
</g>
<!-- Node2&#45;&gt;Node1 -->
<g id="edge2" class="edge">
<title>Node2&#45;&gt;Node1</title>
<path fill="none" stroke="#191970" d="M217,-158.1575C217,-149.155 217,-138.9199 217,-131.6427"/>
<polygon fill="#191970" stroke="#191970" points="213.5001,-158.2455 217,-168.2455 220.5001,-158.2456 213.5001,-158.2455"/>
</g>
<!-- Node3 -->
<g id="node4" class="node">
<title>Node3</title>
<g id="a_node4"><a xlink:href="classcs_1_1aworx_1_1lib_1_1threads_1_1SmartLock.html" target="_top" xlink:title="SmartLock">
<polygon fill="#ffffff" stroke="#000000" points="185,-224.5 185,-243.5 249,-243.5 249,-224.5 185,-224.5"/>
<text text-anchor="middle" x="217" y="-231.5" font-family="Helvetica,sans-Serif" font-size="10.00" fill="#000000">SmartLock</text>
</a>
</g>
</g>
<!-- Node3&#45;&gt;Node2 -->
<g id="edge3" class="edge">
<title>Node3&#45;&gt;Node2</title>
<path fill="none" stroke="#191970" d="M217,-214.1575C217,-205.155 217,-194.9199 217,-187.6427"/>
<polygon fill="#191970" stroke="#191970" points="213.5001,-214.2455 217,-224.2455 220.5001,-214.2456 213.5001,-214.2455"/>
</g>
<!-- Node4 -->
<g id="node5" class="node">
<title>Node4</title>
<g id="a_node5"><a xlink:href="classcs_1_1aworx_1_1lib_1_1threads_1_1ThreadLock.html" target="_top" xlink:title="ThreadLock">
<polygon fill="#ffffff" stroke="#000000" points="183,-280.5 183,-299.5 251,-299.5 251,-280.5 183,-280.5"/>
<text text-anchor="middle" x="217" y="-287.5" font-family="Helvetica,sans-Serif" font-size="10.00" fill="#000000">ThreadLock</text>
</a>
</g>
</g>
<!-- Node4&#45;&gt;Node3 -->
<g id="edge4" class="edge">
<title>Node4&#45;&gt;Node3</title>
<path fill="none" stroke="#191970" d="M217,-270.1575C217,-261.155 217,-250.9199 217,-243.6427"/>
<polygon fill="#191970" stroke="#191970" points="213.5001,-270.2455 217,-280.2455 220.5001,-270.2456 213.5001,-270.2455"/>
</g>
</g>
</svg>
