<?xml version="1.0" encoding="UTF-8" standalone="no"?>
<!DOCTYPE svg PUBLIC "-//W3C//DTD SVG 1.1//EN"
 "http://www.w3.org/Graphics/SVG/1.1/DTD/svg11.dtd">
<!-- Generated by graphviz version 2.40.1 (20161225.0304)
 -->
<!-- Title: StringTree&lt; T &gt;.Walker.RecursionData Pages: 1 -->
<svg width="205pt" height="95pt"
 viewBox="0.00 0.00 205.00 95.00" xmlns="http://www.w3.org/2000/svg" xmlns:xlink="http://www.w3.org/1999/xlink">
<g id="graph0" class="graph" transform="scale(1 1) rotate(0) translate(4 91)">
<title>StringTree&lt; T &gt;.Walker.RecursionData</title>
<polygon fill="#ffffff" stroke="transparent" points="-4,4 -4,-91 201,-91 201,4 -4,4"/>
<!-- Node1 -->
<g id="node1" class="node">
<title>Node1</title>
<polygon fill="#bfbfbf" stroke="#000000" points="0,-.5 0,-19.5 185,-19.5 185,-.5 0,-.5"/>
<text text-anchor="middle" x="92.5" y="-7.5" font-family="Helvetica,sans-Serif" font-size="10.00" fill="#000000">StringTree&lt; T &gt;.Walker.RecursionData</text>
</g>
<!-- Node2 -->
<g id="node2" class="node">
<title>Node2</title>
<g id="a_node2"><a xlink:href="classcs_1_1aworx_1_1lib_1_1util_1_1StringTree_1_1Node.html" target="_top" xlink:title="StringTree\&lt; T \&gt;.Node">
<polygon fill="#ffffff" stroke="#000000" points="37,-67.5 37,-86.5 148,-86.5 148,-67.5 37,-67.5"/>
<text text-anchor="middle" x="92.5" y="-74.5" font-family="Helvetica,sans-Serif" font-size="10.00" fill="#000000">StringTree&lt; T &gt;.Node</text>
</a>
</g>
</g>
<!-- Node2&#45;&gt;Node1 -->
<g id="edge1" class="edge">
<title>Node2&#45;&gt;Node1</title>
<path fill="none" stroke="#9a32cd" stroke-dasharray="5,2" d="M92.5,-57.1079C92.5,-44.714 92.5,-29.3263 92.5,-19.5817"/>
<polygon fill="#9a32cd" stroke="#9a32cd" points="89.0001,-57.4005 92.5,-67.4005 96.0001,-57.4006 89.0001,-57.4005"/>
<text text-anchor="middle" x="105" y="-41" font-family="Helvetica,sans-Serif" font-size="10.00" fill="#000000"> node</text>
</g>
<!-- Node2&#45;&gt;Node2 -->
<g id="edge2" class="edge">
<title>Node2&#45;&gt;Node2</title>
<path fill="none" stroke="#9a32cd" stroke-dasharray="5,2" d="M158.4503,-81.3987C163.1375,-80.3998 166,-78.9336 166,-77 166,-73.9063 158.672,-72.0089 148.2668,-71.308"/>
<polygon fill="#9a32cd" stroke="#9a32cd" points="157.7461,-77.96 148.2668,-82.692 158.6281,-84.9042 157.7461,-77.96"/>
<text text-anchor="middle" x="181.5" y="-74.5" font-family="Helvetica,sans-Serif" font-size="10.00" fill="#000000"> parent</text>
</g>
</g>
</svg>
