<?xml version="1.0" encoding="UTF-8" standalone="no"?>
<!DOCTYPE svg PUBLIC "-//W3C//DTD SVG 1.1//EN"
 "http://www.w3.org/Graphics/SVG/1.1/DTD/svg11.dtd">
<!-- Generated by graphviz version 2.38.0 (20140413.2041)
 -->
<!-- Title: EnvironmentPlugIn Pages: 1 -->
<svg width="258pt" height="219pt"
 viewBox="0.00 0.00 258.00 219.00" xmlns="http://www.w3.org/2000/svg" xmlns:xlink="http://www.w3.org/1999/xlink">
<g id="graph0" class="graph" transform="scale(1 1) rotate(0) translate(4 215)">
<title>EnvironmentPlugIn</title>
<polygon fill="white" stroke="none" points="-4,4 -4,-215 254,-215 254,4 -4,4"/>
<!-- Node1 -->
<g id="node1" class="node"><title>Node1</title>
<polygon fill="#bfbfbf" stroke="black" points="1.5,-191.5 1.5,-210.5 100.5,-210.5 100.5,-191.5 1.5,-191.5"/>
<text text-anchor="middle" x="51" y="-198.5" font-family="Helvetica,sans-Serif" font-size="10.00">EnvironmentPlugIn</text>
</g>
<!-- Node3 -->
<g id="node3" class="node"><title>Node3</title>
<g id="a_node3"><a xlink:href="classcs_1_1aworx_1_1lib_1_1config_1_1Configuration.html" target="_top" xlink:title="Configuration">
<polygon fill="white" stroke="black" points="90,-124.5 90,-143.5 164,-143.5 164,-124.5 90,-124.5"/>
<text text-anchor="middle" x="127" y="-131.5" font-family="Helvetica,sans-Serif" font-size="10.00">Configuration</text>
</a>
</g>
</g>
<!-- Node1&#45;&gt;Node3 -->
<g id="edge3" class="edge"><title>Node1&#45;&gt;Node3</title>
<path fill="none" stroke="#9a32cd" stroke-dasharray="5,2" d="M68.8736,-184.713C83.8472,-171.907 104.681,-154.088 116.913,-143.627"/>
<polygon fill="#9a32cd" stroke="#9a32cd" points="66.5744,-182.074 61.2497,-191.234 71.1242,-187.394 66.5744,-182.074"/>
<text text-anchor="middle" x="111.5" y="-165" font-family="Helvetica,sans-Serif" font-size="10.00"> EnvCP</text>
</g>
<!-- Node2 -->
<g id="node2" class="node"><title>Node2</title>
<g id="a_node2"><a xlink:href="classcs_1_1aworx_1_1lib_1_1config_1_1ConfigurationPlugIn.html" target="_top" xlink:title="ConfigurationPlugIn">
<polygon fill="white" stroke="black" points="0,-57.5 0,-76.5 102,-76.5 102,-57.5 0,-57.5"/>
<text text-anchor="middle" x="51" y="-64.5" font-family="Helvetica,sans-Serif" font-size="10.00">ConfigurationPlugIn</text>
</a>
</g>
</g>
<!-- Node2&#45;&gt;Node1 -->
<g id="edge1" class="edge"><title>Node2&#45;&gt;Node1</title>
<path fill="none" stroke="midnightblue" d="M51,-86.5329C51,-115.448 51,-170.174 51,-191.339"/>
<polygon fill="midnightblue" stroke="midnightblue" points="54.5001,-86.5211 51,-76.5212 47.5001,-86.5212 54.5001,-86.5211"/>
</g>
<!-- Node4 -->
<g id="node4" class="node"><title>Node4</title>
<g id="a_node4"><a xlink:href="classcs_1_1aworx_1_1lib_1_1config_1_1CommandLinePlugIn.html" target="_top" xlink:title="CommandLinePlugIn">
<polygon fill="white" stroke="black" points="56.5,-0.5 56.5,-19.5 163.5,-19.5 163.5,-0.5 56.5,-0.5"/>
<text text-anchor="middle" x="110" y="-7.5" font-family="Helvetica,sans-Serif" font-size="10.00">CommandLinePlugIn</text>
</a>
</g>
</g>
<!-- Node2&#45;&gt;Node4 -->
<g id="edge5" class="edge"><title>Node2&#45;&gt;Node4</title>
<path fill="none" stroke="midnightblue" d="M67.7172,-50.4162C78.3878,-40.469 91.8247,-27.9431 100.651,-19.7149"/>
<polygon fill="midnightblue" stroke="midnightblue" points="65.1469,-48.0273 60.2188,-57.4062 69.92,-53.1476 65.1469,-48.0273"/>
</g>
<!-- Node3&#45;&gt;Node2 -->
<g id="edge2" class="edge"><title>Node3&#45;&gt;Node2</title>
<path fill="none" stroke="#9a32cd" stroke-dasharray="5,2" d="M107.365,-118.351C102.288,-114.428 96.879,-110.128 92,-106 80.5905,-96.3458 68.0711,-84.5554 59.9059,-76.6927"/>
<polygon fill="#9a32cd" stroke="#9a32cd" points="105.368,-121.229 115.445,-124.5 109.607,-115.659 105.368,-121.229"/>
<text text-anchor="middle" x="108" y="-98" font-family="Helvetica,sans-Serif" font-size="10.00"> Parent</text>
</g>
<!-- Node4&#45;&gt;Node3 -->
<g id="edge4" class="edge"><title>Node4&#45;&gt;Node3</title>
<path fill="none" stroke="#9a32cd" stroke-dasharray="5,2" d="M113.654,-30.0313C116.799,-47.0125 121.252,-72.5845 124,-95 125.224,-104.984 126.052,-116.509 126.523,-124.225"/>
<polygon fill="#9a32cd" stroke="#9a32cd" points="117.016,-28.97 111.723,-19.7921 110.137,-30.2675 117.016,-28.97"/>
<text text-anchor="middle" x="150.5" y="-64.5" font-family="Helvetica,sans-Serif" font-size="10.00"> CmdLineCP</text>
</g>
<!-- Node5 -->
<g id="node5" class="node"><title>Node5</title>
<g id="a_node5"><a xlink:href="classcs_1_1aworx_1_1lib_1_1strings_1_1NumberFormat.html" target="_top" xlink:title="NumberFormat">
<polygon fill="white" stroke="black" points="119,-191.5 119,-210.5 201,-210.5 201,-191.5 119,-191.5"/>
<text text-anchor="middle" x="160" y="-198.5" font-family="Helvetica,sans-Serif" font-size="10.00">NumberFormat</text>
</a>
</g>
</g>
<!-- Node5&#45;&gt;Node3 -->
<g id="edge6" class="edge"><title>Node5&#45;&gt;Node3</title>
<path fill="none" stroke="#9a32cd" stroke-dasharray="5,2" d="M150.945,-182.163C144.58,-169.628 136.347,-153.41 131.38,-143.627"/>
<polygon fill="#9a32cd" stroke="#9a32cd" points="147.902,-183.902 155.549,-191.234 154.143,-180.733 147.902,-183.902"/>
<text text-anchor="middle" x="180.5" y="-165" font-family="Helvetica,sans-Serif" font-size="10.00"> NumberFormat</text>
</g>
<!-- Node5&#45;&gt;Node5 -->
<g id="edge7" class="edge"><title>Node5&#45;&gt;Node5</title>
<path fill="none" stroke="#9a32cd" stroke-dasharray="5,2" d="M211.258,-205.794C216.006,-204.805 219,-203.207 219,-201 219,-197.469 211.336,-195.496 201.083,-195.082"/>
<polygon fill="#9a32cd" stroke="#9a32cd" points="210.639,-202.341 201.083,-206.918 211.407,-209.299 210.639,-202.341"/>
<text text-anchor="middle" x="234.5" y="-198.5" font-family="Helvetica,sans-Serif" font-size="10.00"> Global</text>
</g>
</g>
</svg>
