<?xml version="1.0" encoding="UTF-8" standalone="no"?>
<!DOCTYPE svg PUBLIC "-//W3C//DTD SVG 1.1//EN"
 "http://www.w3.org/Graphics/SVG/1.1/DTD/svg11.dtd">
<!-- Generated by graphviz version 2.38.0 (20140413.2041)
 -->
<!-- Title: MetaInfo Pages: 1 -->
<svg width="179pt" height="206pt"
 viewBox="0.00 0.00 178.50 206.00" xmlns="http://www.w3.org/2000/svg" xmlns:xlink="http://www.w3.org/1999/xlink">
<g id="graph0" class="graph" transform="scale(1 1) rotate(0) translate(4 202)">
<title>MetaInfo</title>
<polygon fill="white" stroke="none" points="-4,4 -4,-202 174.5,-202 174.5,4 -4,4"/>
<!-- Node1 -->
<g id="node1" class="node"><title>Node1</title>
<polygon fill="#bfbfbf" stroke="black" points="51,-0.5 51,-19.5 106,-19.5 106,-0.5 51,-0.5"/>
<text text-anchor="middle" x="78.5" y="-7.5" font-family="Helvetica,sans-Serif" font-size="10.00">MetaInfo</text>
</g>
<!-- Node2 -->
<g id="node2" class="node"><title>Node2</title>
<g id="a_node2"><a xlink:href="classcs_1_1aworx_1_1lib_1_1strings_1_1Tokenizer.html" target="_top" xlink:title="Tokenizer">
<polygon fill="white" stroke="black" points="0,-100.5 0,-119.5 59,-119.5 59,-100.5 0,-100.5"/>
<text text-anchor="middle" x="29.5" y="-107.5" font-family="Helvetica,sans-Serif" font-size="10.00">Tokenizer</text>
</a>
</g>
</g>
<!-- Node2&#45;&gt;Node1 -->
<g id="edge1" class="edge"><title>Node2&#45;&gt;Node1</title>
<path fill="none" stroke="#9a32cd" stroke-dasharray="5,2" d="M35.1948,-90.4353C40.0897,-75.7119 47.8745,-54.8762 57.5,-38 61.2659,-31.3973 66.5159,-24.6473 70.8244,-19.548"/>
<polygon fill="#9a32cd" stroke="#9a32cd" points="31.741,-89.7453 32.0323,-100.336 38.4091,-91.8753 31.741,-89.7453"/>
<text text-anchor="middle" x="69" y="-57.5" font-family="Helvetica,sans-Serif" font-size="10.00"> tTok</text>
</g>
<!-- Node3 -->
<g id="node3" class="node"><title>Node3</title>
<g id="a_node3"><a xlink:href="classcs_1_1aworx_1_1lib_1_1strings_1_1Substring.html" target="_top" xlink:title="Substring">
<polygon fill="white" stroke="black" points="0.5,-178.5 0.5,-197.5 58.5,-197.5 58.5,-178.5 0.5,-178.5"/>
<text text-anchor="middle" x="29.5" y="-185.5" font-family="Helvetica,sans-Serif" font-size="10.00">Substring</text>
</a>
</g>
</g>
<!-- Node3&#45;&gt;Node2 -->
<g id="edge2" class="edge"><title>Node3&#45;&gt;Node2</title>
<path fill="none" stroke="#9a32cd" stroke-dasharray="5,2" d="M29.5,-168.224C29.5,-152.697 29.5,-131.358 29.5,-119.616"/>
<polygon fill="#9a32cd" stroke="#9a32cd" points="26.0001,-168.282 29.5,-178.282 33.0001,-168.282 26.0001,-168.282"/>
<text text-anchor="middle" x="43.5" y="-152" font-family="Helvetica,sans-Serif" font-size="10.00"> Rest</text>
<text text-anchor="middle" x="43.5" y="-141" font-family="Helvetica,sans-Serif" font-size="10.00">Actual</text>
</g>
<!-- Node4 -->
<g id="node4" class="node"><title>Node4</title>
<g id="a_node4"><a xlink:href="classcs_1_1aworx_1_1lib_1_1strings_1_1AString.html" target="_top" xlink:title="AString">
<polygon fill="white" stroke="black" points="77,-100.5 77,-119.5 126,-119.5 126,-100.5 77,-100.5"/>
<text text-anchor="middle" x="101.5" y="-107.5" font-family="Helvetica,sans-Serif" font-size="10.00">AString</text>
</a>
</g>
</g>
<!-- Node4&#45;&gt;Node1 -->
<g id="edge3" class="edge"><title>Node4&#45;&gt;Node1</title>
<path fill="none" stroke="#9a32cd" stroke-dasharray="5,2" d="M97.1614,-90.5136C92.1739,-69.2626 84.2012,-35.2919 80.5037,-19.5374"/>
<polygon fill="#9a32cd" stroke="#9a32cd" points="93.7666,-91.3674 99.4589,-100.303 100.581,-89.768 93.7666,-91.3674"/>
<text text-anchor="middle" x="132.5" y="-74" font-family="Helvetica,sans-Serif" font-size="10.00"> Format</text>
<text text-anchor="middle" x="132.5" y="-63" font-family="Helvetica,sans-Serif" font-size="10.00">tmpAString</text>
<text text-anchor="middle" x="132.5" y="-52" font-family="Helvetica,sans-Serif" font-size="10.00">NoSourceFileInfo</text>
<text text-anchor="middle" x="132.5" y="-41" font-family="Helvetica,sans-Serif" font-size="10.00">NoMethodInfo</text>
</g>
</g>
</svg>
