<?xml version="1.0" encoding="UTF-8" standalone="no"?>
<!DOCTYPE svg PUBLIC "-//W3C//DTD SVG 1.1//EN"
 "http://www.w3.org/Graphics/SVG/1.1/DTD/svg11.dtd">
<!-- Generated by graphviz version 2.40.1 (20161225.0304)
 -->
<!-- Title: ScopeStore&lt; T &gt; Pages: 1 -->
<svg width="335pt" height="273pt"
 viewBox="0.00 0.00 334.96 273.00" xmlns="http://www.w3.org/2000/svg" xmlns:xlink="http://www.w3.org/1999/xlink">
<g id="graph0" class="graph" transform="scale(1 1) rotate(0) translate(4 269)">
<title>ScopeStore&lt; T &gt;</title>
<polygon fill="#ffffff" stroke="transparent" points="-4,4 -4,-269 330.9632,-269 330.9632,4 -4,4"/>
<!-- Node1 -->
<g id="node1" class="node">
<title>Node1</title>
<polygon fill="#bfbfbf" stroke="#000000" points="66.9632,-.5 66.9632,-19.5 158.9632,-19.5 158.9632,-.5 66.9632,-.5"/>
<text text-anchor="middle" x="112.9632" y="-7.5" font-family="Helvetica,sans-Serif" font-size="10.00" fill="#000000">ScopeStore&lt; T &gt;</text>
</g>
<!-- Node2 -->
<g id="node2" class="node">
<title>Node2</title>
<g id="a_node2"><a xlink:href="classcs_1_1aworx_1_1lib_1_1strings_1_1AString.html" target="_top" xlink:title="AString">
<polygon fill="#ffffff" stroke="#000000" points="42.4632,-245.5 42.4632,-264.5 91.4632,-264.5 91.4632,-245.5 42.4632,-245.5"/>
<text text-anchor="middle" x="66.9632" y="-252.5" font-family="Helvetica,sans-Serif" font-size="10.00" fill="#000000">AString</text>
</a>
</g>
</g>
<!-- Node2&#45;&gt;Node1 -->
<g id="edge1" class="edge">
<title>Node2&#45;&gt;Node1</title>
<path fill="none" stroke="#9a32cd" stroke-dasharray="5,2" d="M50.0568,-237.8675C26.9052,-212.2549 -10.3631,-162.056 2.9632,-116 16.4531,-69.3789 66.8668,-35.2452 94.5215,-19.5693"/>
<polygon fill="#9a32cd" stroke="#9a32cd" points="47.6073,-240.3724 56.9955,-245.283 52.7187,-235.5897 47.6073,-240.3724"/>
<text text-anchor="middle" x="32.9632" y="-130" font-family="Helvetica,sans-Serif" font-size="10.00" fill="#000000"> languageKey</text>
<text text-anchor="middle" x="32.9632" y="-119" font-family="Helvetica,sans-Serif" font-size="10.00" fill="#000000">separators</text>
</g>
<!-- Node3 -->
<g id="node3" class="node">
<title>Node3</title>
<g id="a_node3"><a xlink:href="classcs_1_1aworx_1_1lox_1_1core_1_1ScopeInfo.html" target="_top" xlink:title="ScopeInfo">
<polygon fill="#ffffff" stroke="#000000" points="36.4632,-78.5 36.4632,-97.5 97.4632,-97.5 97.4632,-78.5 36.4632,-78.5"/>
<text text-anchor="middle" x="66.9632" y="-85.5" font-family="Helvetica,sans-Serif" font-size="10.00" fill="#000000">ScopeInfo</text>
</a>
</g>
</g>
<!-- Node2&#45;&gt;Node3 -->
<g id="edge3" class="edge">
<title>Node2&#45;&gt;Node3</title>
<path fill="none" stroke="#9a32cd" stroke-dasharray="5,2" d="M66.9632,-234.7694C66.9632,-198.6207 66.9632,-124.2394 66.9632,-97.6852"/>
<polygon fill="#9a32cd" stroke="#9a32cd" points="63.4633,-235.0535 66.9632,-245.0535 70.4633,-235.0535 63.4633,-235.0535"/>
<text text-anchor="middle" x="94.9632" y="-163.5" font-family="Helvetica,sans-Serif" font-size="10.00" fill="#000000"> threadName</text>
</g>
<!-- Node4 -->
<g id="node4" class="node">
<title>Node4</title>
<g id="a_node4"><a xlink:href="classcs_1_1aworx_1_1lox_1_1core_1_1ScopeInfo_1_1SourceFile.html" target="_top" xlink:title="ScopeInfo.SourceFile">
<polygon fill="#ffffff" stroke="#000000" points="140.9632,-156.5 140.9632,-175.5 250.9632,-175.5 250.9632,-156.5 140.9632,-156.5"/>
<text text-anchor="middle" x="195.9632" y="-163.5" font-family="Helvetica,sans-Serif" font-size="10.00" fill="#000000">ScopeInfo.SourceFile</text>
</a>
</g>
</g>
<!-- Node2&#45;&gt;Node4 -->
<g id="edge5" class="edge">
<title>Node2&#45;&gt;Node4</title>
<path fill="none" stroke="#9a32cd" stroke-dasharray="5,2" d="M89.0671,-239.7501C115.6522,-221.4084 159.4877,-191.1653 181.8662,-175.7259"/>
<polygon fill="#9a32cd" stroke="#9a32cd" points="87.012,-236.9157 80.7685,-245.4754 90.9872,-242.6775 87.012,-236.9157"/>
<text text-anchor="middle" x="183.4632" y="-219" font-family="Helvetica,sans-Serif" font-size="10.00" fill="#000000"> nameWOExt</text>
<text text-anchor="middle" x="183.4632" y="-208" font-family="Helvetica,sans-Serif" font-size="10.00" fill="#000000">name</text>
<text text-anchor="middle" x="183.4632" y="-197" font-family="Helvetica,sans-Serif" font-size="10.00" fill="#000000">trimmedPath</text>
</g>
<!-- Node3&#45;&gt;Node1 -->
<g id="edge2" class="edge">
<title>Node3&#45;&gt;Node1</title>
<path fill="none" stroke="#9a32cd" stroke-dasharray="5,2" d="M68.6932,-68.498C70.2627,-58.755 73.2558,-47.1297 78.9632,-38 83.5031,-30.7379 90.5784,-24.4708 97.1017,-19.718"/>
<polygon fill="#9a32cd" stroke="#9a32cd" points="65.2145,-68.1102 67.4572,-78.4649 72.1613,-68.9717 65.2145,-68.1102"/>
<text text-anchor="middle" x="101.9632" y="-46.5" font-family="Helvetica,sans-Serif" font-size="10.00" fill="#000000"> scopeInfo</text>
</g>
<!-- Node4&#45;&gt;Node3 -->
<g id="edge4" class="edge">
<title>Node4&#45;&gt;Node3</title>
<path fill="none" stroke="#9a32cd" stroke-dasharray="5,2" d="M171.26,-151.0632C145.2386,-135.3293 105.0319,-111.0183 82.9105,-97.6426"/>
<polygon fill="#9a32cd" stroke="#9a32cd" points="169.777,-154.2565 180.1453,-156.4357 173.399,-148.2664 169.777,-154.2565"/>
<text text-anchor="middle" x="177.4632" y="-130" font-family="Helvetica,sans-Serif" font-size="10.00" fill="#000000"> cache</text>
<text text-anchor="middle" x="177.4632" y="-119" font-family="Helvetica,sans-Serif" font-size="10.00" fill="#000000">lastSourceFile</text>
</g>
<!-- Node5 -->
<g id="node5" class="node">
<title>Node5</title>
<g id="a_node5"><a xlink:href="classcs_1_1aworx_1_1lib_1_1containers_1_1PathMap.html" target="_top" xlink:title="PathMap\&lt; T \&gt;">
<polygon fill="#ffffff" stroke="#000000" points="115.9632,-78.5 115.9632,-97.5 195.9632,-97.5 195.9632,-78.5 115.9632,-78.5"/>
<text text-anchor="middle" x="155.9632" y="-85.5" font-family="Helvetica,sans-Serif" font-size="10.00" fill="#000000">PathMap&lt; T &gt;</text>
</a>
</g>
</g>
<!-- Node5&#45;&gt;Node1 -->
<g id="edge6" class="edge">
<title>Node5&#45;&gt;Node1</title>
<path fill="none" stroke="#9a32cd" stroke-dasharray="5,2" d="M145.8366,-69.6308C137.2037,-53.9711 125.1353,-32.0796 118.279,-19.6426"/>
<polygon fill="#9a32cd" stroke="#9a32cd" points="142.7976,-71.368 150.6906,-78.4357 148.9278,-67.9885 142.7976,-71.368"/>
<text text-anchor="middle" x="178.4632" y="-52" font-family="Helvetica,sans-Serif" font-size="10.00" fill="#000000"> actPathMapNode</text>
<text text-anchor="middle" x="178.4632" y="-41" font-family="Helvetica,sans-Serif" font-size="10.00" fill="#000000">languageStore</text>
</g>
<!-- Node6 -->
<g id="node6" class="node">
<title>Node6</title>
<g id="a_node6"><a xlink:href="classcs_1_1aworx_1_1lib_1_1strings_1_1Substring.html" target="_top" xlink:title="Substring">
<polygon fill="#ffffff" stroke="#000000" points="220.9632,-78.5 220.9632,-97.5 278.9632,-97.5 278.9632,-78.5 220.9632,-78.5"/>
<text text-anchor="middle" x="249.9632" y="-85.5" font-family="Helvetica,sans-Serif" font-size="10.00" fill="#000000">Substring</text>
</a>
</g>
</g>
<!-- Node6&#45;&gt;Node1 -->
<g id="edge7" class="edge">
<title>Node6&#45;&gt;Node1</title>
<path fill="none" stroke="#9a32cd" stroke-dasharray="5,2" d="M243.48,-68.7009C239.0009,-58.1687 232.0162,-45.736 221.9632,-38 211.9373,-30.2848 184.1623,-23.2102 159.161,-18.1024"/>
<polygon fill="#9a32cd" stroke="#9a32cd" points="240.3236,-70.2482 247.1447,-78.3552 246.868,-67.764 240.3236,-70.2482"/>
<text text-anchor="middle" x="282.9632" y="-46.5" font-family="Helvetica,sans-Serif" font-size="10.00" fill="#000000"> languageKeySubstr</text>
</g>
</g>
</svg>
