<?xml version="1.0" encoding="UTF-8" standalone="no"?>
<!DOCTYPE svg PUBLIC "-//W3C//DTD SVG 1.1//EN"
 "http://www.w3.org/Graphics/SVG/1.1/DTD/svg11.dtd">
<!-- Generated by graphviz version 2.38.0 (20140413.2041)
 -->
<!-- Title: MemoryLogger Pages: 1 -->
<svg width="431pt" height="458pt"
 viewBox="0.00 0.00 430.50 458.00" xmlns="http://www.w3.org/2000/svg" xmlns:xlink="http://www.w3.org/1999/xlink">
<g id="graph0" class="graph" transform="scale(1 1) rotate(0) translate(4 454)">
<title>MemoryLogger</title>
<polygon fill="white" stroke="none" points="-4,4 -4,-454 426.5,-454 426.5,4 -4,4"/>
<!-- Node1 -->
<g id="node1" class="node"><title>Node1</title>
<polygon fill="#bfbfbf" stroke="black" points="0,-0.5 0,-19.5 81,-19.5 81,-0.5 0,-0.5"/>
<text text-anchor="middle" x="40.5" y="-7.5" font-family="Helvetica,sans-Serif" font-size="10.00">MemoryLogger</text>
</g>
<!-- Node2 -->
<g id="node2" class="node"><title>Node2</title>
<g id="a_node2"><a xlink:href="classcs_1_1aworx_1_1lox_1_1core_1_1textlogger_1_1PlainTextLogger.html" target="_top" xlink:title="PlainTextLogger">
<polygon fill="white" stroke="black" points="58,-57.5 58,-76.5 145,-76.5 145,-57.5 58,-57.5"/>
<text text-anchor="middle" x="101.5" y="-64.5" font-family="Helvetica,sans-Serif" font-size="10.00">PlainTextLogger</text>
</a>
</g>
</g>
<!-- Node2&#45;&gt;Node1 -->
<g id="edge1" class="edge"><title>Node2&#45;&gt;Node1</title>
<path fill="none" stroke="midnightblue" d="M84.5398,-50.708C73.4567,-40.715 59.3809,-28.0237 50.1656,-19.7149"/>
<polygon fill="midnightblue" stroke="midnightblue" points="82.1981,-53.3093 91.9688,-57.4062 86.8856,-48.1104 82.1981,-53.3093"/>
</g>
<!-- Node3 -->
<g id="node3" class="node"><title>Node3</title>
<g id="a_node3"><a xlink:href="classcs_1_1aworx_1_1lox_1_1core_1_1textlogger_1_1TextLogger.html" target="_top" xlink:title="TextLogger">
<polygon fill="white" stroke="black" points="122,-114.5 122,-133.5 187,-133.5 187,-114.5 122,-114.5"/>
<text text-anchor="middle" x="154.5" y="-121.5" font-family="Helvetica,sans-Serif" font-size="10.00">TextLogger</text>
</a>
</g>
</g>
<!-- Node3&#45;&gt;Node2 -->
<g id="edge2" class="edge"><title>Node3&#45;&gt;Node2</title>
<path fill="none" stroke="midnightblue" d="M139.2,-107.123C129.661,-97.2238 117.749,-84.8624 109.898,-76.7149"/>
<polygon fill="midnightblue" stroke="midnightblue" points="136.76,-109.634 146.219,-114.406 141.8,-104.777 136.76,-109.634"/>
</g>
<!-- Node4 -->
<g id="node4" class="node"><title>Node4</title>
<g id="a_node4"><a xlink:href="classcs_1_1aworx_1_1lox_1_1core_1_1Logger.html" target="_top" xlink:title="Logger">
<polygon fill="white" stroke="black" points="282.5,-182.5 282.5,-201.5 328.5,-201.5 328.5,-182.5 282.5,-182.5"/>
<text text-anchor="middle" x="305.5" y="-189.5" font-family="Helvetica,sans-Serif" font-size="10.00">Logger</text>
</a>
</g>
</g>
<!-- Node4&#45;&gt;Node3 -->
<g id="edge3" class="edge"><title>Node4&#45;&gt;Node3</title>
<path fill="none" stroke="midnightblue" d="M291.88,-174.511C284.535,-166.615 274.863,-157.669 264.5,-152 240.52,-138.883 210.151,-132.05 187.401,-128.544"/>
<polygon fill="midnightblue" stroke="midnightblue" points="289.391,-176.979 298.623,-182.176 294.647,-172.356 289.391,-176.979"/>
</g>
<!-- Node5 -->
<g id="node5" class="node"><title>Node5</title>
<g id="a_node5"><a xlink:href="classcs_1_1aworx_1_1lib_1_1threads_1_1SmartLock.html" target="_top" xlink:title="SmartLock">
<polygon fill="white" stroke="black" points="273.5,-283.5 273.5,-302.5 337.5,-302.5 337.5,-283.5 273.5,-283.5"/>
<text text-anchor="middle" x="305.5" y="-290.5" font-family="Helvetica,sans-Serif" font-size="10.00">SmartLock</text>
</a>
</g>
</g>
<!-- Node5&#45;&gt;Node4 -->
<g id="edge4" class="edge"><title>Node5&#45;&gt;Node4</title>
<path fill="none" stroke="midnightblue" d="M305.5,-273.029C305.5,-251.543 305.5,-217.467 305.5,-201.625"/>
<polygon fill="midnightblue" stroke="midnightblue" points="302,-273.214 305.5,-283.214 309,-273.214 302,-273.214"/>
</g>
<!-- Node6 -->
<g id="node6" class="node"><title>Node6</title>
<g id="a_node6"><a xlink:href="classcs_1_1aworx_1_1lib_1_1threads_1_1ThreadLock.html" target="_top" xlink:title="ThreadLock">
<polygon fill="white" stroke="black" points="269.5,-361.5 269.5,-380.5 337.5,-380.5 337.5,-361.5 269.5,-361.5"/>
<text text-anchor="middle" x="303.5" y="-368.5" font-family="Helvetica,sans-Serif" font-size="10.00">ThreadLock</text>
</a>
</g>
</g>
<!-- Node6&#45;&gt;Node5 -->
<g id="edge5" class="edge"><title>Node6&#45;&gt;Node5</title>
<path fill="none" stroke="midnightblue" d="M305.06,-351.382C305.243,-348.575 305.4,-345.713 305.5,-343 306.022,-328.888 305.867,-312.474 305.694,-302.678"/>
<polygon fill="midnightblue" stroke="midnightblue" points="301.559,-351.26 304.292,-361.497 308.539,-351.791 301.559,-351.26"/>
</g>
<!-- Node7 -->
<g id="node7" class="node"><title>Node7</title>
<g id="a_node7"><a xlink:href="classcs_1_1aworx_1_1lib_1_1time_1_1Ticks.html" target="_top" xlink:title="Ticks">
<polygon fill="white" stroke="black" points="283,-429.5 283,-448.5 324,-448.5 324,-429.5 283,-429.5"/>
<text text-anchor="middle" x="303.5" y="-436.5" font-family="Helvetica,sans-Serif" font-size="10.00">Ticks</text>
</a>
</g>
</g>
<!-- Node7&#45;&gt;Node4 -->
<g id="edge8" class="edge"><title>Node7&#45;&gt;Node4</title>
<path fill="none" stroke="#9a32cd" stroke-dasharray="5,2" d="M333.668,-426.237C340.371,-422.142 346.629,-416.813 350.5,-410 352.915,-405.749 350.584,-403.888 350.5,-399 349.611,-347.421 357.888,-333.313 346.5,-283 339.298,-251.182 320.202,-217.018 310.834,-201.517"/>
<polygon fill="#9a32cd" stroke="#9a32cd" points="331.664,-423.336 324.433,-431.079 334.914,-429.536 331.664,-423.336"/>
<text text-anchor="middle" x="387.5" y="-335" font-family="Helvetica,sans-Serif" font-size="10.00"> TimeOfLastLog</text>
<text text-anchor="middle" x="387.5" y="-324" font-family="Helvetica,sans-Serif" font-size="10.00">TimeOfCreation</text>
</g>
<!-- Node7&#45;&gt;Node6 -->
<g id="edge6" class="edge"><title>Node7&#45;&gt;Node6</title>
<path fill="none" stroke="#9a32cd" stroke-dasharray="5,2" d="M303.5,-419.041C303.5,-406.472 303.5,-390.563 303.5,-380.841"/>
<polygon fill="#9a32cd" stroke="#9a32cd" points="300,-419.372 303.5,-429.372 307,-419.372 300,-419.372"/>
<text text-anchor="middle" x="325" y="-402" font-family="Helvetica,sans-Serif" font-size="10.00"> waitTime</text>
</g>
<!-- Node7&#45;&gt;Node7 -->
<g id="edge7" class="edge"><title>Node7&#45;&gt;Node7</title>
<path fill="none" stroke="#9a32cd" stroke-dasharray="5,2" d="M334.316,-444.782C338.9,-443.881 342,-441.954 342,-439 342,-434.152 333.652,-432.069 324.097,-432.751"/>
<polygon fill="#9a32cd" stroke="#9a32cd" points="333.927,-441.296 324.097,-445.249 334.246,-448.289 333.927,-441.296"/>
<text text-anchor="middle" x="373" y="-442" font-family="Helvetica,sans-Serif" font-size="10.00"> CreationTime</text>
<text text-anchor="middle" x="373" y="-431" font-family="Helvetica,sans-Serif" font-size="10.00">tempTicks</text>
</g>
<!-- Node10 -->
<g id="node10" class="node"><title>Node10</title>
<g id="a_node10"><a xlink:href="classcs_1_1aworx_1_1lox_1_1core_1_1textlogger_1_1MetaInfo.html" target="_top" xlink:title="MetaInfo">
<polygon fill="white" stroke="black" points="127,-182.5 127,-201.5 182,-201.5 182,-182.5 127,-182.5"/>
<text text-anchor="middle" x="154.5" y="-189.5" font-family="Helvetica,sans-Serif" font-size="10.00">MetaInfo</text>
</a>
</g>
</g>
<!-- Node7&#45;&gt;Node10 -->
<g id="edge15" class="edge"><title>Node7&#45;&gt;Node10</title>
<path fill="none" stroke="#9a32cd" stroke-dasharray="5,2" d="M286.32,-422.219C268.3,-404.658 240.549,-374.573 225.5,-343 201.685,-293.036 232.346,-266.269 200.5,-221 194.583,-212.589 185.258,-206.236 176.546,-201.726"/>
<polygon fill="#9a32cd" stroke="#9a32cd" points="284.176,-425.01 293.834,-429.366 289.001,-419.938 284.176,-425.01"/>
<text text-anchor="middle" x="263.5" y="-335" font-family="Helvetica,sans-Serif" font-size="10.00"> elapsedTime</text>
<text text-anchor="middle" x="263.5" y="-324" font-family="Helvetica,sans-Serif" font-size="10.00">MaxElapsedTime</text>
</g>
<!-- Node8 -->
<g id="node8" class="node"><title>Node8</title>
<g id="a_node8"><a xlink:href="classcs_1_1aworx_1_1lib_1_1strings_1_1AString.html" target="_top" xlink:title="AString">
<polygon fill="white" stroke="black" points="34,-283.5 34,-302.5 83,-302.5 83,-283.5 34,-283.5"/>
<text text-anchor="middle" x="58.5" y="-290.5" font-family="Helvetica,sans-Serif" font-size="10.00">AString</text>
</a>
</g>
</g>
<!-- Node8&#45;&gt;Node1 -->
<g id="edge16" class="edge"><title>Node8&#45;&gt;Node1</title>
<path fill="none" stroke="#9a32cd" stroke-dasharray="5,2" d="M45.1949,-275.219C31.6093,-256.359 12.5,-224.271 12.5,-193 12.5,-193 12.5,-193 12.5,-66 12.5,-47.9992 24.5586,-29.9379 32.8489,-19.6478"/>
<polygon fill="#9a32cd" stroke="#9a32cd" points="42.5048,-277.465 51.3125,-283.354 48.0994,-273.258 42.5048,-277.465"/>
<text text-anchor="middle" x="40" y="-121.5" font-family="Helvetica,sans-Serif" font-size="10.00"> MemoryLog</text>
</g>
<!-- Node8&#45;&gt;Node3 -->
<g id="edge9" class="edge"><title>Node8&#45;&gt;Node3</title>
<path fill="none" stroke="#9a32cd" stroke-dasharray="5,2" d="M58.7435,-273.115C59.8928,-249.664 64.7251,-209.305 83.5,-181 97.5579,-159.806 122.256,-143.01 138.498,-133.534"/>
<polygon fill="#9a32cd" stroke="#9a32cd" points="55.236,-273.31 58.4269,-283.413 62.2327,-273.525 55.236,-273.31"/>
<text text-anchor="middle" x="100.5" y="-195" font-family="Helvetica,sans-Serif" font-size="10.00"> logBuf</text>
<text text-anchor="middle" x="100.5" y="-184" font-family="Helvetica,sans-Serif" font-size="10.00">msgBuf</text>
</g>
<!-- Node8&#45;&gt;Node10 -->
<g id="edge14" class="edge"><title>Node8&#45;&gt;Node10</title>
<path fill="none" stroke="#9a32cd" stroke-dasharray="5,2" d="M65.8775,-274.084C74.4292,-253.385 87.4889,-222.013 88.5,-221 98.8779,-210.607 113.711,-203.846 126.688,-199.577"/>
<polygon fill="#9a32cd" stroke="#9a32cd" points="62.5863,-272.885 62.0089,-283.464 69.0575,-275.554 62.5863,-272.885"/>
<text text-anchor="middle" x="126.5" y="-257" font-family="Helvetica,sans-Serif" font-size="10.00"> Format</text>
<text text-anchor="middle" x="126.5" y="-246" font-family="Helvetica,sans-Serif" font-size="10.00">tmpAString</text>
<text text-anchor="middle" x="126.5" y="-235" font-family="Helvetica,sans-Serif" font-size="10.00">NoSourceFileInfo</text>
<text text-anchor="middle" x="126.5" y="-224" font-family="Helvetica,sans-Serif" font-size="10.00">NoMethodInfo</text>
</g>
<!-- Node9 -->
<g id="node9" class="node"><title>Node9</title>
<g id="a_node9"><a xlink:href="classcs_1_1aworx_1_1lox_1_1core_1_1textlogger_1_1AutoSizes.html" target="_top" xlink:title="AutoSizes">
<polygon fill="white" stroke="black" points="200.5,-182.5 200.5,-201.5 262.5,-201.5 262.5,-182.5 200.5,-182.5"/>
<text text-anchor="middle" x="231.5" y="-189.5" font-family="Helvetica,sans-Serif" font-size="10.00">AutoSizes</text>
</a>
</g>
</g>
<!-- Node9&#45;&gt;Node3 -->
<g id="edge10" class="edge"><title>Node9&#45;&gt;Node3</title>
<path fill="none" stroke="#9a32cd" stroke-dasharray="5,2" d="M220.124,-173.989C214.724,-166.683 207.847,-158.379 200.5,-152 192.109,-144.715 181.477,-138.327 172.549,-133.596"/>
<polygon fill="#9a32cd" stroke="#9a32cd" points="217.485,-176.32 226.1,-182.488 223.211,-172.294 217.485,-176.32"/>
<text text-anchor="middle" x="236" y="-155" font-family="Helvetica,sans-Serif" font-size="10.00"> AutoSizes</text>
</g>
<!-- Node10&#45;&gt;Node3 -->
<g id="edge11" class="edge"><title>Node10&#45;&gt;Node3</title>
<path fill="none" stroke="#9a32cd" stroke-dasharray="5,2" d="M154.5,-172.041C154.5,-159.472 154.5,-143.563 154.5,-133.841"/>
<polygon fill="#9a32cd" stroke="#9a32cd" points="151,-172.372 154.5,-182.372 158,-172.372 151,-172.372"/>
<text text-anchor="middle" x="175.5" y="-155" font-family="Helvetica,sans-Serif" font-size="10.00"> MetaInfo</text>
</g>
<!-- Node11 -->
<g id="node11" class="node"><title>Node11</title>
<g id="a_node11"><a xlink:href="classcs_1_1aworx_1_1lib_1_1strings_1_1Tokenizer.html" target="_top" xlink:title="Tokenizer">
<polygon fill="white" stroke="black" points="141,-283.5 141,-302.5 200,-302.5 200,-283.5 141,-283.5"/>
<text text-anchor="middle" x="170.5" y="-290.5" font-family="Helvetica,sans-Serif" font-size="10.00">Tokenizer</text>
</a>
</g>
</g>
<!-- Node11&#45;&gt;Node10 -->
<g id="edge12" class="edge"><title>Node11&#45;&gt;Node10</title>
<path fill="none" stroke="#9a32cd" stroke-dasharray="5,2" d="M172.175,-272.893C172.915,-258.425 172.811,-238.176 168.5,-221 166.807,-214.253 163.307,-207.253 160.23,-201.939"/>
<polygon fill="#9a32cd" stroke="#9a32cd" points="168.668,-272.87 171.465,-283.089 175.651,-273.356 168.668,-272.87"/>
<text text-anchor="middle" x="185" y="-240.5" font-family="Helvetica,sans-Serif" font-size="10.00"> tTok</text>
</g>
<!-- Node12 -->
<g id="node12" class="node"><title>Node12</title>
<g id="a_node12"><a xlink:href="classcs_1_1aworx_1_1lib_1_1strings_1_1Substring.html" target="_top" xlink:title="Substring">
<polygon fill="white" stroke="black" points="141.5,-361.5 141.5,-380.5 199.5,-380.5 199.5,-361.5 141.5,-361.5"/>
<text text-anchor="middle" x="170.5" y="-368.5" font-family="Helvetica,sans-Serif" font-size="10.00">Substring</text>
</a>
</g>
</g>
<!-- Node12&#45;&gt;Node11 -->
<g id="edge13" class="edge"><title>Node12&#45;&gt;Node11</title>
<path fill="none" stroke="#9a32cd" stroke-dasharray="5,2" d="M170.5,-351.224C170.5,-335.697 170.5,-314.358 170.5,-302.616"/>
<polygon fill="#9a32cd" stroke="#9a32cd" points="167,-351.282 170.5,-361.282 174,-351.282 167,-351.282"/>
<text text-anchor="middle" x="184.5" y="-335" font-family="Helvetica,sans-Serif" font-size="10.00"> Rest</text>
<text text-anchor="middle" x="184.5" y="-324" font-family="Helvetica,sans-Serif" font-size="10.00">Actual</text>
</g>
</g>
</svg>
