<?xml version="1.0" encoding="UTF-8" standalone="no"?>
<!DOCTYPE svg PUBLIC "-//W3C//DTD SVG 1.1//EN"
 "http://www.w3.org/Graphics/SVG/1.1/DTD/svg11.dtd">
<!-- Generated by graphviz version 2.38.0 (20140413.2041)
 -->
<!-- Title: InMemoryPlugin.Entry Pages: 1 -->
<svg width="731pt" height="522pt"
 viewBox="0.00 0.00 730.50 522.00" xmlns="http://www.w3.org/2000/svg" xmlns:xlink="http://www.w3.org/1999/xlink">
<g id="graph0" class="graph" transform="scale(1 1) rotate(0) translate(4 518)">
<title>InMemoryPlugin.Entry</title>
<polygon fill="white" stroke="none" points="-4,4 -4,-518 726.5,-518 726.5,4 -4,4"/>
<!-- Node1 -->
<g id="node1" class="node"><title>Node1</title>
<polygon fill="#bfbfbf" stroke="black" points="0,-0.5 0,-19.5 113,-19.5 113,-0.5 0,-0.5"/>
<text text-anchor="middle" x="56.5" y="-7.5" font-family="Helvetica,sans-Serif" font-size="10.00">InMemoryPlugin.Entry</text>
</g>
<!-- Node2 -->
<g id="node2" class="node"><title>Node2</title>
<g id="a_node2"><a xlink:href="classcs_1_1aworx_1_1lib_1_1strings_1_1AString.html" target="_top" xlink:title="AString">
<polygon fill="white" stroke="black" points="154,-494.5 154,-513.5 203,-513.5 203,-494.5 154,-494.5"/>
<text text-anchor="middle" x="178.5" y="-501.5" font-family="Helvetica,sans-Serif" font-size="10.00">AString</text>
</a>
</g>
</g>
<!-- Node2&#45;&gt;Node1 -->
<g id="edge1" class="edge"><title>Node2&#45;&gt;Node1</title>
<path fill="none" stroke="#9a32cd" stroke-dasharray="5,2" d="M143.866,-500.337C99.8445,-494.845 29.5,-478.079 29.5,-427 29.5,-427 29.5,-427 29.5,-76 29.5,-54.4936 42.2617,-31.8358 50.2378,-19.775"/>
<polygon fill="#9a32cd" stroke="#9a32cd" points="143.57,-503.825 153.896,-501.452 144.344,-496.868 143.57,-503.825"/>
<text text-anchor="middle" x="54" y="-226" font-family="Helvetica,sans-Serif" font-size="10.00"> Name</text>
<text text-anchor="middle" x="54" y="-215" font-family="Helvetica,sans-Serif" font-size="10.00">Comments</text>
</g>
<!-- Node3 -->
<g id="node3" class="node"><title>Node3</title>
<g id="a_node3"><a xlink:href="classcs_1_1aworx_1_1lib_1_1config_1_1Variable.html" target="_top" xlink:title="Variable">
<polygon fill="white" stroke="black" points="80.5,-67.5 80.5,-86.5 132.5,-86.5 132.5,-67.5 80.5,-67.5"/>
<text text-anchor="middle" x="106.5" y="-74.5" font-family="Helvetica,sans-Serif" font-size="10.00">Variable</text>
</a>
</g>
</g>
<!-- Node2&#45;&gt;Node3 -->
<g id="edge18" class="edge"><title>Node2&#45;&gt;Node3</title>
<path fill="none" stroke="#9a32cd" stroke-dasharray="5,2" d="M152.331,-489.13C131.74,-476.117 106.5,-454.548 106.5,-427 106.5,-427 106.5,-427 106.5,-143 106.5,-122.913 106.5,-99.3347 106.5,-86.8314"/>
<polygon fill="#9a32cd" stroke="#9a32cd" points="150.688,-492.225 161.071,-494.337 154.271,-486.212 150.688,-492.225"/>
<text text-anchor="middle" x="135" y="-299" font-family="Helvetica,sans-Serif" font-size="10.00"> Fullname</text>
<text text-anchor="middle" x="135" y="-288" font-family="Helvetica,sans-Serif" font-size="10.00">Category</text>
<text text-anchor="middle" x="135" y="-277" font-family="Helvetica,sans-Serif" font-size="10.00">DefaultValue</text>
<text text-anchor="middle" x="135" y="-266" font-family="Helvetica,sans-Serif" font-size="10.00">Name</text>
<text text-anchor="middle" x="135" y="-255" font-family="Helvetica,sans-Serif" font-size="10.00">Comments</text>
</g>
<!-- Node4 -->
<g id="node4" class="node"><title>Node4</title>
<g id="a_node4"><a xlink:href="classcs_1_1aworx_1_1lib_1_1config_1_1Configuration.html" target="_top" xlink:title="Configuration">
<polygon fill="white" stroke="black" points="329.5,-134.5 329.5,-153.5 403.5,-153.5 403.5,-134.5 329.5,-134.5"/>
<text text-anchor="middle" x="366.5" y="-141.5" font-family="Helvetica,sans-Serif" font-size="10.00">Configuration</text>
</a>
</g>
</g>
<!-- Node2&#45;&gt;Node4 -->
<g id="edge4" class="edge"><title>Node2&#45;&gt;Node4</title>
<path fill="none" stroke="#9a32cd" stroke-dasharray="5,2" d="M178.5,-483.83C178.5,-468.463 178.5,-446.346 178.5,-427 178.5,-427 178.5,-427 178.5,-222 178.5,-157.455 274.568,-145.842 329.357,-144.468"/>
<polygon fill="#9a32cd" stroke="#9a32cd" points="175,-484.108 178.5,-494.108 182,-484.108 175,-484.108"/>
<text text-anchor="middle" x="234.5" y="-350" font-family="Helvetica,sans-Serif" font-size="10.00"> SubstitutionVariableStart</text>
<text text-anchor="middle" x="234.5" y="-339" font-family="Helvetica,sans-Serif" font-size="10.00">tmpConversion</text>
<text text-anchor="middle" x="234.5" y="-328" font-family="Helvetica,sans-Serif" font-size="10.00">SubstitutionVariableEnd</text>
</g>
<!-- Node5 -->
<g id="node5" class="node"><title>Node5</title>
<g id="a_node5"><a xlink:href="classcs_1_1aworx_1_1lib_1_1config_1_1EnvironmentPlugin.html" target="_top" xlink:title="EnvironmentPlugin">
<polygon fill="white" stroke="black" points="206.5,-213.5 206.5,-232.5 304.5,-232.5 304.5,-213.5 206.5,-213.5"/>
<text text-anchor="middle" x="255.5" y="-220.5" font-family="Helvetica,sans-Serif" font-size="10.00">EnvironmentPlugin</text>
</a>
</g>
</g>
<!-- Node2&#45;&gt;Node5 -->
<g id="edge10" class="edge"><title>Node2&#45;&gt;Node5</title>
<path fill="none" stroke="#9a32cd" stroke-dasharray="5,2" d="M197.035,-487.598C224.555,-463.382 275.062,-413.413 294.5,-358 310.861,-311.359 276.381,-253.961 261.699,-232.567"/>
<polygon fill="#9a32cd" stroke="#9a32cd" points="194.587,-485.087 189.292,-494.264 199.154,-490.392 194.587,-485.087"/>
<text text-anchor="middle" x="303.5" y="-384.5" font-family="Helvetica,sans-Serif" font-size="10.00"> tmpAS</text>
</g>
<!-- Node7 -->
<g id="node7" class="node"><title>Node7</title>
<g id="a_node7"><a xlink:href="classcs_1_1aworx_1_1lib_1_1config_1_1XTernalizer.html" target="_top" xlink:title="XTernalizer">
<polygon fill="white" stroke="black" points="364.5,-416.5 364.5,-435.5 430.5,-435.5 430.5,-416.5 364.5,-416.5"/>
<text text-anchor="middle" x="397.5" y="-423.5" font-family="Helvetica,sans-Serif" font-size="10.00">XTernalizer</text>
</a>
</g>
</g>
<!-- Node2&#45;&gt;Node7 -->
<g id="edge8" class="edge"><title>Node2&#45;&gt;Node7</title>
<path fill="none" stroke="#9a32cd" stroke-dasharray="5,2" d="M213.49,-501.534C245.607,-499.122 293.915,-492.759 332.5,-476 355.054,-466.204 376.977,-447.088 388.707,-435.846"/>
<polygon fill="#9a32cd" stroke="#9a32cd" points="213.004,-498.059 203.256,-502.21 213.465,-505.043 213.004,-498.059"/>
<text text-anchor="middle" x="383.5" y="-462.5" font-family="Helvetica,sans-Serif" font-size="10.00"> tmpAS</text>
</g>
<!-- Node3&#45;&gt;Node1 -->
<g id="edge2" class="edge"><title>Node3&#45;&gt;Node1</title>
<path fill="none" stroke="#9a32cd" stroke-dasharray="5,2" d="M93.6311,-59.2705C83.8825,-46.5972 70.8853,-29.701 63.1364,-19.6273"/>
<polygon fill="#9a32cd" stroke="#9a32cd" points="90.8854,-61.4416 99.7568,-67.2338 96.4338,-57.1735 90.8854,-61.4416"/>
<text text-anchor="middle" x="113.5" y="-41" font-family="Helvetica,sans-Serif" font-size="10.00"> FormatHints</text>
</g>
<!-- Node4&#45;&gt;Node3 -->
<g id="edge3" class="edge"><title>Node4&#45;&gt;Node3</title>
<path fill="none" stroke="#9a32cd" stroke-dasharray="5,2" d="M322.518,-132.005C268.06,-118.39 177.064,-95.6409 132.582,-84.5204"/>
<polygon fill="#9a32cd" stroke="#9a32cd" points="321.692,-135.406 332.242,-134.436 323.39,-128.615 321.692,-135.406"/>
<text text-anchor="middle" x="268.5" y="-108" font-family="Helvetica,sans-Serif" font-size="10.00"> Config</text>
</g>
<!-- Node5&#45;&gt;Node4 -->
<g id="edge5" class="edge"><title>Node5&#45;&gt;Node4</title>
<path fill="none" stroke="#9a32cd" stroke-dasharray="5,2" d="M268.789,-205.455C277.962,-194.845 290.915,-181.356 304.5,-172 315.619,-164.342 329.26,-158.116 340.913,-153.58"/>
<polygon fill="#9a32cd" stroke="#9a32cd" points="266.033,-203.296 262.304,-213.213 271.403,-207.786 266.033,-203.296"/>
<text text-anchor="middle" x="333.5" y="-180.5" font-family="Helvetica,sans-Serif" font-size="10.00"> Environment</text>
</g>
<!-- Node6 -->
<g id="node6" class="node"><title>Node6</title>
<g id="a_node6"><a xlink:href="classcs_1_1aworx_1_1lib_1_1config_1_1ConfigurationPlugin.html" target="_top" xlink:title="ConfigurationPlugin">
<polygon fill="white" stroke="black" points="347,-332 347,-351 448,-351 448,-332 347,-332"/>
<text text-anchor="middle" x="397.5" y="-339" font-family="Helvetica,sans-Serif" font-size="10.00">ConfigurationPlugin</text>
</a>
</g>
</g>
<!-- Node6&#45;&gt;Node5 -->
<g id="edge6" class="edge"><title>Node6&#45;&gt;Node5</title>
<path fill="none" stroke="midnightblue" d="M383.864,-324.077C379.509,-318.701 374.724,-312.656 370.5,-307 352.721,-283.195 356.018,-270.157 332.5,-252 321.016,-243.133 306.459,-236.887 293.101,-232.581"/>
<polygon fill="midnightblue" stroke="midnightblue" points="381.168,-326.308 390.214,-331.823 386.581,-321.87 381.168,-326.308"/>
</g>
<!-- Node9 -->
<g id="node9" class="node"><title>Node9</title>
<g id="a_node9"><a xlink:href="classcs_1_1aworx_1_1lib_1_1config_1_1InMemoryPlugin.html" target="_top" xlink:title="InMemoryPlugin">
<polygon fill="white" stroke="black" points="323,-213.5 323,-232.5 410,-232.5 410,-213.5 323,-213.5"/>
<text text-anchor="middle" x="366.5" y="-220.5" font-family="Helvetica,sans-Serif" font-size="10.00">InMemoryPlugin</text>
</a>
</g>
</g>
<!-- Node6&#45;&gt;Node9 -->
<g id="edge12" class="edge"><title>Node6&#45;&gt;Node9</title>
<path fill="none" stroke="midnightblue" d="M392.521,-321.789C385.705,-296.175 373.749,-251.241 368.773,-232.541"/>
<polygon fill="midnightblue" stroke="midnightblue" points="389.216,-322.98 395.17,-331.744 395.981,-321.18 389.216,-322.98"/>
</g>
<!-- Node10 -->
<g id="node10" class="node"><title>Node10</title>
<g id="a_node10"><a xlink:href="classcs_1_1aworx_1_1lib_1_1config_1_1CommandLinePlugin.html" target="_top" xlink:title="CommandLinePlugin">
<polygon fill="white" stroke="black" points="428,-213.5 428,-232.5 535,-232.5 535,-213.5 428,-213.5"/>
<text text-anchor="middle" x="481.5" y="-220.5" font-family="Helvetica,sans-Serif" font-size="10.00">CommandLinePlugin</text>
</a>
</g>
</g>
<!-- Node6&#45;&gt;Node10 -->
<g id="edge15" class="edge"><title>Node6&#45;&gt;Node10</title>
<path fill="none" stroke="midnightblue" d="M409.77,-323.482C427.998,-298.203 461.556,-251.661 475.341,-232.541"/>
<polygon fill="midnightblue" stroke="midnightblue" points="406.823,-321.585 403.814,-331.744 412.501,-325.679 406.823,-321.585"/>
</g>
<!-- Node7&#45;&gt;Node6 -->
<g id="edge7" class="edge"><title>Node7&#45;&gt;Node6</title>
<path fill="none" stroke="#9a32cd" stroke-dasharray="5,2" d="M397.5,-406.433C397.5,-389.134 397.5,-364.111 397.5,-351.095"/>
<polygon fill="#9a32cd" stroke="#9a32cd" points="394,-406.482 397.5,-416.482 401,-406.482 394,-406.482"/>
<text text-anchor="middle" x="446.5" y="-390" font-family="Helvetica,sans-Serif" font-size="10.00"> StringConverter</text>
<text text-anchor="middle" x="446.5" y="-379" font-family="Helvetica,sans-Serif" font-size="10.00">defaultStringConverter</text>
</g>
<!-- Node8 -->
<g id="node8" class="node"><title>Node8</title>
<g id="a_node8"><a xlink:href="classcs_1_1aworx_1_1lib_1_1strings_1_1Substring.html" target="_top" xlink:title="Substring">
<polygon fill="white" stroke="black" points="485.5,-494.5 485.5,-513.5 543.5,-513.5 543.5,-494.5 485.5,-494.5"/>
<text text-anchor="middle" x="514.5" y="-501.5" font-family="Helvetica,sans-Serif" font-size="10.00">Substring</text>
</a>
</g>
</g>
<!-- Node8&#45;&gt;Node4 -->
<g id="edge13" class="edge"><title>Node8&#45;&gt;Node4</title>
<path fill="none" stroke="#9a32cd" stroke-dasharray="5,2" d="M532.225,-487.342C546.254,-473.145 563.5,-450.843 563.5,-427 563.5,-427 563.5,-427 563.5,-222 563.5,-190.573 541.324,-186.61 513.5,-172 479.04,-153.905 434.495,-147.746 403.513,-145.747"/>
<polygon fill="#9a32cd" stroke="#9a32cd" points="529.7,-484.913 524.892,-494.354 534.538,-489.973 529.7,-484.913"/>
<text text-anchor="middle" x="611" y="-350" font-family="Helvetica,sans-Serif" font-size="10.00"> tmpReplVarCategory</text>
<text text-anchor="middle" x="611" y="-339" font-family="Helvetica,sans-Serif" font-size="10.00">tmpReplVarName</text>
<text text-anchor="middle" x="611" y="-328" font-family="Helvetica,sans-Serif" font-size="10.00">tmpReplVarAll</text>
</g>
<!-- Node8&#45;&gt;Node7 -->
<g id="edge9" class="edge"><title>Node8&#45;&gt;Node7</title>
<path fill="none" stroke="#9a32cd" stroke-dasharray="5,2" d="M492.601,-488.775C468.543,-473.148 430.684,-448.555 410.765,-435.616"/>
<polygon fill="#9a32cd" stroke="#9a32cd" points="490.786,-491.77 501.079,-494.282 494.599,-485.899 490.786,-491.77"/>
<text text-anchor="middle" x="494.5" y="-468" font-family="Helvetica,sans-Serif" font-size="10.00"> tmpSubs2</text>
<text text-anchor="middle" x="494.5" y="-457" font-family="Helvetica,sans-Serif" font-size="10.00">tmpSubs</text>
</g>
<!-- Node9&#45;&gt;Node4 -->
<g id="edge11" class="edge"><title>Node9&#45;&gt;Node4</title>
<path fill="none" stroke="#9a32cd" stroke-dasharray="5,2" d="M366.5,-203.315C366.5,-187.592 366.5,-165.808 366.5,-153.809"/>
<polygon fill="#9a32cd" stroke="#9a32cd" points="363,-203.465 366.5,-213.465 370,-203.465 363,-203.465"/>
<text text-anchor="middle" x="404.5" y="-186" font-family="Helvetica,sans-Serif" font-size="10.00"> ProtectedValues</text>
<text text-anchor="middle" x="404.5" y="-175" font-family="Helvetica,sans-Serif" font-size="10.00">DefaultValues</text>
</g>
<!-- Node10&#45;&gt;Node4 -->
<g id="edge14" class="edge"><title>Node10&#45;&gt;Node4</title>
<path fill="none" stroke="#9a32cd" stroke-dasharray="5,2" d="M472.867,-204.367C466.816,-193.656 457.799,-180.461 446.5,-172 434.063,-162.686 418.209,-156.456 403.901,-152.353"/>
<polygon fill="#9a32cd" stroke="#9a32cd" points="469.813,-206.081 477.57,-213.298 476.007,-202.819 469.813,-206.081"/>
<text text-anchor="middle" x="488" y="-180.5" font-family="Helvetica,sans-Serif" font-size="10.00"> CmdLine</text>
</g>
<!-- Node11 -->
<g id="node11" class="node"><title>Node11</title>
<g id="a_node11"><a xlink:href="classcs_1_1aworx_1_1lib_1_1strings_1_1NumberFormat.html" target="_top" xlink:title="NumberFormat">
<polygon fill="white" stroke="black" points="591.5,-213.5 591.5,-232.5 673.5,-232.5 673.5,-213.5 591.5,-213.5"/>
<text text-anchor="middle" x="632.5" y="-220.5" font-family="Helvetica,sans-Serif" font-size="10.00">NumberFormat</text>
</a>
</g>
</g>
<!-- Node11&#45;&gt;Node4 -->
<g id="edge16" class="edge"><title>Node11&#45;&gt;Node4</title>
<path fill="none" stroke="#9a32cd" stroke-dasharray="5,2" d="M619.311,-205.564C609.16,-194.148 594.093,-179.661 577.5,-172 547.407,-158.106 455.778,-150.422 403.703,-147.07"/>
<polygon fill="#9a32cd" stroke="#9a32cd" points="616.645,-207.833 625.785,-213.193 621.982,-203.303 616.645,-207.833"/>
<text text-anchor="middle" x="642" y="-180.5" font-family="Helvetica,sans-Serif" font-size="10.00"> NumberFormat</text>
</g>
<!-- Node11&#45;&gt;Node11 -->
<g id="edge17" class="edge"><title>Node11&#45;&gt;Node11</title>
<path fill="none" stroke="#9a32cd" stroke-dasharray="5,2" d="M683.758,-228.993C688.506,-227.756 691.5,-225.759 691.5,-223 691.5,-218.586 683.836,-216.12 673.583,-215.603"/>
<polygon fill="#9a32cd" stroke="#9a32cd" points="683.011,-225.563 673.583,-230.397 683.968,-232.497 683.011,-225.563"/>
<text text-anchor="middle" x="707" y="-220.5" font-family="Helvetica,sans-Serif" font-size="10.00"> Global</text>
</g>
</g>
</svg>
