<?xml version="1.0" encoding="UTF-8" standalone="no"?>
<!DOCTYPE svg PUBLIC "-//W3C//DTD SVG 1.1//EN"
 "http://www.w3.org/Graphics/SVG/1.1/DTD/svg11.dtd">
<!-- Generated by graphviz version 2.40.1 (20161225.0304)
 -->
<!-- Title: ScopeStore&lt; T &gt; Pages: 1 -->
<svg width="260pt" height="262pt"
 viewBox="0.00 0.00 259.96 262.00" xmlns="http://www.w3.org/2000/svg" xmlns:xlink="http://www.w3.org/1999/xlink">
<g id="graph0" class="graph" transform="scale(1 1) rotate(0) translate(4 258)">
<title>ScopeStore&lt; T &gt;</title>
<polygon fill="#ffffff" stroke="transparent" points="-4,4 -4,-258 255.9632,-258 255.9632,4 -4,4"/>
<!-- Node1 -->
<g id="node1" class="node">
<title>Node1</title>
<polygon fill="#bfbfbf" stroke="#000000" points="20.9632,-.5 20.9632,-19.5 112.9632,-19.5 112.9632,-.5 20.9632,-.5"/>
<text text-anchor="middle" x="66.9632" y="-7.5" font-family="Helvetica,sans-Serif" font-size="10.00" fill="#000000">ScopeStore&lt; T &gt;</text>
</g>
<!-- Node2 -->
<g id="node2" class="node">
<title>Node2</title>
<g id="a_node2"><a xlink:href="classcs_1_1aworx_1_1lib_1_1strings_1_1AString.html" target="_top" xlink:title="AString">
<polygon fill="#ffffff" stroke="#000000" points="42.4632,-234.5 42.4632,-253.5 91.4632,-253.5 91.4632,-234.5 42.4632,-234.5"/>
<text text-anchor="middle" x="66.9632" y="-241.5" font-family="Helvetica,sans-Serif" font-size="10.00" fill="#000000">AString</text>
</a>
</g>
</g>
<!-- Node2&#45;&gt;Node1 -->
<g id="edge1" class="edge">
<title>Node2&#45;&gt;Node1</title>
<path fill="none" stroke="#9a32cd" stroke-dasharray="5,2" d="M50.0568,-226.8675C26.9052,-201.2549 -10.3631,-151.056 2.9632,-105 13.189,-69.6594 42.0582,-35.785 57.285,-19.7136"/>
<polygon fill="#9a32cd" stroke="#9a32cd" points="47.6073,-229.3724 56.9955,-234.283 52.7187,-224.5897 47.6073,-229.3724"/>
<text text-anchor="middle" x="32.9632" y="-113.5" font-family="Helvetica,sans-Serif" font-size="10.00" fill="#000000"> languageKey</text>
</g>
<!-- Node3 -->
<g id="node3" class="node">
<title>Node3</title>
<g id="a_node3"><a xlink:href="classcs_1_1aworx_1_1lox_1_1core_1_1ScopeInfo.html" target="_top" xlink:title="ScopeInfo">
<polygon fill="#ffffff" stroke="#000000" points="36.4632,-67.5 36.4632,-86.5 97.4632,-86.5 97.4632,-67.5 36.4632,-67.5"/>
<text text-anchor="middle" x="66.9632" y="-74.5" font-family="Helvetica,sans-Serif" font-size="10.00" fill="#000000">ScopeInfo</text>
</a>
</g>
</g>
<!-- Node2&#45;&gt;Node3 -->
<g id="edge3" class="edge">
<title>Node2&#45;&gt;Node3</title>
<path fill="none" stroke="#9a32cd" stroke-dasharray="5,2" d="M66.9632,-223.7694C66.9632,-187.6207 66.9632,-113.2394 66.9632,-86.6852"/>
<polygon fill="#9a32cd" stroke="#9a32cd" points="63.4633,-224.0535 66.9632,-234.0535 70.4633,-224.0535 63.4633,-224.0535"/>
<text text-anchor="middle" x="95.4632" y="-152.5" font-family="Helvetica,sans-Serif" font-size="10.00" fill="#000000"> threadName</text>
</g>
<!-- Node4 -->
<g id="node4" class="node">
<title>Node4</title>
<g id="a_node4"><a xlink:href="classcs_1_1aworx_1_1lox_1_1core_1_1ScopeInfo_1_1SourceFile.html" target="_top" xlink:title="ScopeInfo.SourceFile">
<polygon fill="#ffffff" stroke="#000000" points="141.9632,-145.5 141.9632,-164.5 251.9632,-164.5 251.9632,-145.5 141.9632,-145.5"/>
<text text-anchor="middle" x="196.9632" y="-152.5" font-family="Helvetica,sans-Serif" font-size="10.00" fill="#000000">ScopeInfo.SourceFile</text>
</a>
</g>
</g>
<!-- Node2&#45;&gt;Node4 -->
<g id="edge5" class="edge">
<title>Node2&#45;&gt;Node4</title>
<path fill="none" stroke="#9a32cd" stroke-dasharray="5,2" d="M89.2384,-228.7501C116.0296,-210.4084 160.205,-180.1653 182.7569,-164.7259"/>
<polygon fill="#9a32cd" stroke="#9a32cd" points="87.1498,-225.9382 80.8755,-234.4754 91.1042,-231.7143 87.1498,-225.9382"/>
<text text-anchor="middle" x="183.9632" y="-208" font-family="Helvetica,sans-Serif" font-size="10.00" fill="#000000"> nameWOExt</text>
<text text-anchor="middle" x="183.9632" y="-197" font-family="Helvetica,sans-Serif" font-size="10.00" fill="#000000">name</text>
<text text-anchor="middle" x="183.9632" y="-186" font-family="Helvetica,sans-Serif" font-size="10.00" fill="#000000">trimmedPath</text>
</g>
<!-- Node3&#45;&gt;Node1 -->
<g id="edge2" class="edge">
<title>Node3&#45;&gt;Node1</title>
<path fill="none" stroke="#9a32cd" stroke-dasharray="5,2" d="M66.9632,-57.1079C66.9632,-44.714 66.9632,-29.3263 66.9632,-19.5817"/>
<polygon fill="#9a32cd" stroke="#9a32cd" points="63.4633,-57.4005 66.9632,-67.4005 70.4633,-57.4006 63.4633,-57.4005"/>
<text text-anchor="middle" x="89.9632" y="-41" font-family="Helvetica,sans-Serif" font-size="10.00" fill="#000000"> scopeInfo</text>
</g>
<!-- Node4&#45;&gt;Node3 -->
<g id="edge4" class="edge">
<title>Node4&#45;&gt;Node3</title>
<path fill="none" stroke="#9a32cd" stroke-dasharray="5,2" d="M172.4128,-140.2697C146.2012,-124.5428 105.4248,-100.0769 83.0342,-86.6426"/>
<polygon fill="#9a32cd" stroke="#9a32cd" points="170.647,-143.2919 181.0227,-145.4357 174.2485,-137.2894 170.647,-143.2919"/>
<text text-anchor="middle" x="178.4632" y="-119" font-family="Helvetica,sans-Serif" font-size="10.00" fill="#000000"> cache</text>
<text text-anchor="middle" x="178.4632" y="-108" font-family="Helvetica,sans-Serif" font-size="10.00" fill="#000000">lastSourceFile</text>
</g>
<!-- Node5 -->
<g id="node5" class="node">
<title>Node5</title>
<g id="a_node5"><a xlink:href="classcs_1_1aworx_1_1lib_1_1strings_1_1Substring.html" target="_top" xlink:title="Substring">
<polygon fill="#ffffff" stroke="#000000" points="115.9632,-67.5 115.9632,-86.5 173.9632,-86.5 173.9632,-67.5 115.9632,-67.5"/>
<text text-anchor="middle" x="144.9632" y="-74.5" font-family="Helvetica,sans-Serif" font-size="10.00" fill="#000000">Substring</text>
</a>
</g>
</g>
<!-- Node5&#45;&gt;Node1 -->
<g id="edge6" class="edge">
<title>Node5&#45;&gt;Node1</title>
<path fill="none" stroke="#9a32cd" stroke-dasharray="5,2" d="M134.1581,-58.5612C129.47,-51.5676 123.5433,-43.8805 116.9632,-38 108.6547,-30.5749 98.0458,-24.2874 88.7397,-19.5633"/>
<polygon fill="#9a32cd" stroke="#9a32cd" points="131.4469,-60.8253 139.7285,-67.4333 137.3753,-57.1031 131.4469,-60.8253"/>
<text text-anchor="middle" x="166.9632" y="-41" font-family="Helvetica,sans-Serif" font-size="10.00" fill="#000000"> languageKeySubs</text>
</g>
</g>
</svg>
