<?xml version="1.0" encoding="UTF-8" standalone="no"?>
<!DOCTYPE svg PUBLIC "-//W3C//DTD SVG 1.1//EN"
 "http://www.w3.org/Graphics/SVG/1.1/DTD/svg11.dtd">
<!-- Generated by graphviz version 2.40.1 (20161225.0304)
 -->
<!-- Title: Variable Pages: 1 -->
<svg width="649pt" height="464pt"
 viewBox="0.00 0.00 649.00 464.00" xmlns="http://www.w3.org/2000/svg" xmlns:xlink="http://www.w3.org/1999/xlink">
<g id="graph0" class="graph" transform="scale(1 1) rotate(0) translate(4 460)">
<title>Variable</title>
<polygon fill="#ffffff" stroke="transparent" points="-4,4 -4,-460 645,-460 645,4 -4,4"/>
<!-- Node1 -->
<g id="node1" class="node">
<title>Node1</title>
<polygon fill="#bfbfbf" stroke="#000000" points="48.5,-.5 48.5,-19.5 99.5,-19.5 99.5,-.5 48.5,-.5"/>
<text text-anchor="middle" x="74" y="-7.5" font-family="Helvetica,sans-Serif" font-size="10.00" fill="#000000">Variable</text>
</g>
<!-- Node2 -->
<g id="node2" class="node">
<title>Node2</title>
<g id="a_node2"><a xlink:href="classcs_1_1aworx_1_1lib_1_1config_1_1Configuration.html" target="_top" xlink:title="Configuration">
<polygon fill="#ffffff" stroke="#000000" points="226,-67.5 226,-86.5 300,-86.5 300,-67.5 226,-67.5"/>
<text text-anchor="middle" x="263" y="-74.5" font-family="Helvetica,sans-Serif" font-size="10.00" fill="#000000">Configuration</text>
</a>
</g>
</g>
<!-- Node2&#45;&gt;Node1 -->
<g id="edge1" class="edge">
<title>Node2&#45;&gt;Node1</title>
<path fill="none" stroke="#9a32cd" stroke-dasharray="5,2" d="M226.4213,-64.033C189.1182,-50.8091 132.2135,-30.6365 99.5155,-19.0452"/>
<polygon fill="#9a32cd" stroke="#9a32cd" points="225.3262,-67.3581 235.9209,-67.4005 227.6651,-60.7604 225.3262,-67.3581"/>
<text text-anchor="middle" x="195.5" y="-41" font-family="Helvetica,sans-Serif" font-size="10.00" fill="#000000"> Config</text>
</g>
<!-- Node2&#45;&gt;Node2 -->
<g id="edge2" class="edge">
<title>Node2&#45;&gt;Node2</title>
<path fill="none" stroke="#9a32cd" stroke-dasharray="5,2" d="M310.1857,-81.9222C314.9569,-80.9454 318,-79.3047 318,-77 318,-73.3125 310.2097,-71.3247 300.0153,-71.0366"/>
<polygon fill="#9a32cd" stroke="#9a32cd" points="309.6068,-78.4631 300.0153,-82.9634 310.3198,-85.4267 309.6068,-78.4631"/>
<text text-anchor="middle" x="335" y="-74.5" font-family="Helvetica,sans-Serif" font-size="10.00" fill="#000000"> Default</text>
</g>
<!-- Node3 -->
<g id="node3" class="node">
<title>Node3</title>
<g id="a_node3"><a xlink:href="classcs_1_1aworx_1_1lib_1_1strings_1_1AString.html" target="_top" xlink:title="AString">
<polygon fill="#ffffff" stroke="#000000" points="184.5,-436.5 184.5,-455.5 233.5,-455.5 233.5,-436.5 184.5,-436.5"/>
<text text-anchor="middle" x="209" y="-443.5" font-family="Helvetica,sans-Serif" font-size="10.00" fill="#000000">AString</text>
</a>
</g>
</g>
<!-- Node3&#45;&gt;Node1 -->
<g id="edge18" class="edge">
<title>Node3&#45;&gt;Node1</title>
<path fill="none" stroke="#9a32cd" stroke-dasharray="5,2" d="M174.361,-443.1755C146.6582,-439.8837 107.3961,-432.8544 76,-418 36.8487,-399.4764 0,-400.3122 0,-357 0,-357 0,-357 0,-77 0,-49.2709 28.9063,-30.0313 50.5859,-19.501"/>
<polygon fill="#9a32cd" stroke="#9a32cd" points="174.0524,-446.6625 184.3718,-444.2627 174.8082,-439.7034 174.0524,-446.6625"/>
<text text-anchor="middle" x="27.5" y="-230" font-family="Helvetica,sans-Serif" font-size="10.00" fill="#000000"> Fullname</text>
<text text-anchor="middle" x="27.5" y="-219" font-family="Helvetica,sans-Serif" font-size="10.00" fill="#000000">Category</text>
<text text-anchor="middle" x="27.5" y="-208" font-family="Helvetica,sans-Serif" font-size="10.00" fill="#000000">DefaultValue</text>
<text text-anchor="middle" x="27.5" y="-197" font-family="Helvetica,sans-Serif" font-size="10.00" fill="#000000">Name</text>
<text text-anchor="middle" x="27.5" y="-186" font-family="Helvetica,sans-Serif" font-size="10.00" fill="#000000">Comments</text>
</g>
<!-- Node3&#45;&gt;Node2 -->
<g id="edge3" class="edge">
<title>Node3&#45;&gt;Node2</title>
<path fill="none" stroke="#9a32cd" stroke-dasharray="5,2" d="M174.5344,-439.6076C133.3697,-429.7495 70,-406.5302 70,-357 70,-357 70,-357 70,-155 70,-121.7513 169.7041,-96.0027 225.7877,-84.1491"/>
<polygon fill="#9a32cd" stroke="#9a32cd" points="173.9462,-443.0625 184.4696,-441.8339 175.4769,-436.2319 173.9462,-443.0625"/>
<text text-anchor="middle" x="125.5" y="-281" font-family="Helvetica,sans-Serif" font-size="10.00" fill="#000000"> SubstitutionVariableStart</text>
<text text-anchor="middle" x="125.5" y="-270" font-family="Helvetica,sans-Serif" font-size="10.00" fill="#000000">tmpConversion</text>
<text text-anchor="middle" x="125.5" y="-259" font-family="Helvetica,sans-Serif" font-size="10.00" fill="#000000">SubstitutionVariableEnd</text>
</g>
<!-- Node4 -->
<g id="node4" class="node">
<title>Node4</title>
<g id="a_node4"><a xlink:href="classcs_1_1aworx_1_1lib_1_1config_1_1EnvironmentPlugin.html" target="_top" xlink:title="EnvironmentPlugin">
<polygon fill="#ffffff" stroke="#000000" points="103,-145.5 103,-164.5 201,-164.5 201,-145.5 103,-145.5"/>
<text text-anchor="middle" x="152" y="-152.5" font-family="Helvetica,sans-Serif" font-size="10.00" fill="#000000">EnvironmentPlugin</text>
</a>
</g>
</g>
<!-- Node3&#45;&gt;Node4 -->
<g id="edge9" class="edge">
<title>Node3&#45;&gt;Node4</title>
<path fill="none" stroke="#9a32cd" stroke-dasharray="5,2" d="M207.7429,-426.1875C205.2601,-391.3975 198.7339,-317.2082 185,-256 177.2861,-221.6211 162.7131,-182.3197 155.8101,-164.5783"/>
<polygon fill="#9a32cd" stroke="#9a32cd" points="204.2667,-426.6591 208.4345,-436.3997 211.2507,-426.1861 204.2667,-426.6591"/>
<text text-anchor="middle" x="215" y="-315.5" font-family="Helvetica,sans-Serif" font-size="10.00" fill="#000000"> tmpAS</text>
</g>
<!-- Node6 -->
<g id="node6" class="node">
<title>Node6</title>
<g id="a_node6"><a xlink:href="classcs_1_1aworx_1_1lib_1_1config_1_1XTernalizer.html" target="_top" xlink:title="XTernalizer">
<polygon fill="#ffffff" stroke="#000000" points="237.5,-347.5 237.5,-366.5 302.5,-366.5 302.5,-347.5 237.5,-347.5"/>
<text text-anchor="middle" x="270" y="-354.5" font-family="Helvetica,sans-Serif" font-size="10.00" fill="#000000">XTernalizer</text>
</a>
</g>
</g>
<!-- Node3&#45;&gt;Node6 -->
<g id="edge7" class="edge">
<title>Node3&#45;&gt;Node6</title>
<path fill="none" stroke="#9a32cd" stroke-dasharray="5,2" d="M221.3099,-428.0397C233.983,-409.5494 253.258,-381.4269 263.3339,-366.7259"/>
<polygon fill="#9a32cd" stroke="#9a32cd" points="218.2946,-426.2482 215.5281,-436.4754 224.0686,-430.2056 218.2946,-426.2482"/>
<text text-anchor="middle" x="268" y="-399" font-family="Helvetica,sans-Serif" font-size="10.00" fill="#000000"> tmpAS</text>
</g>
<!-- Node10 -->
<g id="node10" class="node">
<title>Node10</title>
<g id="a_node10"><a xlink:href="classcs_1_1aworx_1_1lib_1_1strings_1_1NumberFormat.html" target="_top" xlink:title="NumberFormat">
<polygon fill="#ffffff" stroke="#000000" points="370.5,-308.5 370.5,-327.5 451.5,-327.5 451.5,-308.5 370.5,-308.5"/>
<text text-anchor="middle" x="411" y="-315.5" font-family="Helvetica,sans-Serif" font-size="10.00" fill="#000000">NumberFormat</text>
</a>
</g>
</g>
<!-- Node3&#45;&gt;Node10 -->
<g id="edge16" class="edge">
<title>Node3&#45;&gt;Node10</title>
<path fill="none" stroke="#9a32cd" stroke-dasharray="5,2" d="M243.4123,-436.862C257.9787,-432.2664 274.8222,-425.9612 289,-418 335.8036,-391.7186 382.4534,-347.0624 401.7494,-327.5735"/>
<polygon fill="#9a32cd" stroke="#9a32cd" points="242.3192,-433.5358 233.7525,-439.7697 244.3369,-440.2387 242.3192,-433.5358"/>
<text text-anchor="middle" x="373.5" y="-410" font-family="Helvetica,sans-Serif" font-size="10.00" fill="#000000"> OctLiteralPrefix</text>
<text text-anchor="middle" x="373.5" y="-399" font-family="Helvetica,sans-Serif" font-size="10.00" fill="#000000">BinLiteralPrefix</text>
<text text-anchor="middle" x="373.5" y="-388" font-family="Helvetica,sans-Serif" font-size="10.00" fill="#000000">HexLiteralPrefix</text>
</g>
<!-- Node4&#45;&gt;Node2 -->
<g id="edge4" class="edge">
<title>Node4&#45;&gt;Node2</title>
<path fill="none" stroke="#9a32cd" stroke-dasharray="5,2" d="M165.9787,-137.7724C175.1246,-127.3059 187.7927,-114.2278 201,-105 211.7466,-97.4915 224.8301,-91.2301 236.2036,-86.5461"/>
<polygon fill="#9a32cd" stroke="#9a32cd" points="163.2424,-135.5878 159.456,-145.4829 168.5866,-140.1088 163.2424,-135.5878"/>
<text text-anchor="middle" x="230" y="-113.5" font-family="Helvetica,sans-Serif" font-size="10.00" fill="#000000"> Environment</text>
</g>
<!-- Node5 -->
<g id="node5" class="node">
<title>Node5</title>
<g id="a_node5"><a xlink:href="classcs_1_1aworx_1_1lib_1_1config_1_1ConfigurationPlugin.html" target="_top" xlink:title="ConfigurationPlugin">
<polygon fill="#ffffff" stroke="#000000" points="237.5,-263 237.5,-282 338.5,-282 338.5,-263 237.5,-263"/>
<text text-anchor="middle" x="288" y="-270" font-family="Helvetica,sans-Serif" font-size="10.00" fill="#000000">ConfigurationPlugin</text>
</a>
</g>
</g>
<!-- Node5&#45;&gt;Node4 -->
<g id="edge5" class="edge">
<title>Node5&#45;&gt;Node4</title>
<path fill="none" stroke="#191970" d="M276.5605,-254.342C261.7518,-231.2933 236.2757,-193.2853 223,-183 212.6302,-174.966 199.6627,-168.9584 187.6574,-164.6114"/>
<polygon fill="#191970" stroke="#191970" points="273.6902,-256.3507 282.0142,-262.9052 279.5945,-252.5904 273.6902,-256.3507"/>
</g>
<!-- Node8 -->
<g id="node8" class="node">
<title>Node8</title>
<g id="a_node8"><a xlink:href="classcs_1_1aworx_1_1lib_1_1config_1_1InMemoryPlugin.html" target="_top" xlink:title="InMemoryPlugin">
<polygon fill="#ffffff" stroke="#000000" points="219.5,-145.5 219.5,-164.5 306.5,-164.5 306.5,-145.5 219.5,-145.5"/>
<text text-anchor="middle" x="263" y="-152.5" font-family="Helvetica,sans-Serif" font-size="10.00" fill="#000000">InMemoryPlugin</text>
</a>
</g>
</g>
<!-- Node5&#45;&gt;Node8 -->
<g id="edge11" class="edge">
<title>Node5&#45;&gt;Node8</title>
<path fill="none" stroke="#191970" d="M283.8318,-252.9095C278.4196,-227.4723 269.1814,-184.0527 265.0741,-164.7484"/>
<polygon fill="#191970" stroke="#191970" points="280.4496,-253.8318 285.9541,-262.8845 287.2964,-252.375 280.4496,-253.8318"/>
</g>
<!-- Node9 -->
<g id="node9" class="node">
<title>Node9</title>
<g id="a_node9"><a xlink:href="classcs_1_1aworx_1_1lib_1_1config_1_1CommandLinePlugin.html" target="_top" xlink:title="CommandLinePlugin">
<polygon fill="#ffffff" stroke="#000000" points="325,-145.5 325,-164.5 431,-164.5 431,-145.5 325,-145.5"/>
<text text-anchor="middle" x="378" y="-152.5" font-family="Helvetica,sans-Serif" font-size="10.00" fill="#000000">CommandLinePlugin</text>
</a>
</g>
</g>
<!-- Node5&#45;&gt;Node9 -->
<g id="edge14" class="edge">
<title>Node5&#45;&gt;Node9</title>
<path fill="none" stroke="#191970" d="M301.4633,-254.9229C320.6863,-229.8263 355.349,-184.5721 370.5332,-164.7484"/>
<polygon fill="#191970" stroke="#191970" points="298.6673,-252.8174 295.3651,-262.8845 304.2245,-257.074 298.6673,-252.8174"/>
</g>
<!-- Node6&#45;&gt;Node5 -->
<g id="edge6" class="edge">
<title>Node6&#45;&gt;Node5</title>
<path fill="none" stroke="#9a32cd" stroke-dasharray="5,2" d="M263.8785,-337.2825C261.9198,-327.9346 260.9537,-316.7135 264,-307 266.9257,-297.671 273.3643,-288.6557 278.8365,-282.1818"/>
<polygon fill="#9a32cd" stroke="#9a32cd" points="260.551,-338.3942 266.4529,-347.193 267.3262,-336.6342 260.551,-338.3942"/>
<text text-anchor="middle" x="312.5" y="-321" font-family="Helvetica,sans-Serif" font-size="10.00" fill="#000000"> StringConverter</text>
<text text-anchor="middle" x="312.5" y="-310" font-family="Helvetica,sans-Serif" font-size="10.00" fill="#000000">defaultStringConverter</text>
</g>
<!-- Node7 -->
<g id="node7" class="node">
<title>Node7</title>
<g id="a_node7"><a xlink:href="classcs_1_1aworx_1_1lib_1_1strings_1_1Substring.html" target="_top" xlink:title="Substring">
<polygon fill="#ffffff" stroke="#000000" points="479,-436.5 479,-455.5 537,-455.5 537,-436.5 479,-436.5"/>
<text text-anchor="middle" x="508" y="-443.5" font-family="Helvetica,sans-Serif" font-size="10.00" fill="#000000">Substring</text>
</a>
</g>
</g>
<!-- Node7&#45;&gt;Node2 -->
<g id="edge12" class="edge">
<title>Node7&#45;&gt;Node2</title>
<path fill="none" stroke="#9a32cd" stroke-dasharray="5,2" d="M521.7098,-427.7161C533.289,-410.4328 548,-383.2997 548,-357 548,-357 548,-357 548,-155 548,-104.2142 377.5114,-85.3277 300.2588,-79.3765"/>
<polygon fill="#9a32cd" stroke="#9a32cd" points="518.6061,-426.0447 515.7124,-436.2367 524.3304,-430.0738 518.6061,-426.0447"/>
<text text-anchor="middle" x="594.5" y="-281" font-family="Helvetica,sans-Serif" font-size="10.00" fill="#000000"> tmpReplVarCategory</text>
<text text-anchor="middle" x="594.5" y="-270" font-family="Helvetica,sans-Serif" font-size="10.00" fill="#000000">tmpReplVarName</text>
<text text-anchor="middle" x="594.5" y="-259" font-family="Helvetica,sans-Serif" font-size="10.00" fill="#000000">tmpReplVarAll</text>
</g>
<!-- Node7&#45;&gt;Node6 -->
<g id="edge8" class="edge">
<title>Node7&#45;&gt;Node6</title>
<path fill="none" stroke="#9a32cd" stroke-dasharray="5,2" d="M489.567,-429.7188C472.6511,-415.6752 446.2962,-395.9736 420,-385 381.6165,-368.9822 333.8957,-362.08 302.7269,-359.1371"/>
<polygon fill="#9a32cd" stroke="#9a32cd" points="487.618,-432.6559 497.5022,-436.4707 492.1543,-427.3247 487.618,-432.6559"/>
<text text-anchor="middle" x="499" y="-404.5" font-family="Helvetica,sans-Serif" font-size="10.00" fill="#000000"> tmpSubs2</text>
<text text-anchor="middle" x="499" y="-393.5" font-family="Helvetica,sans-Serif" font-size="10.00" fill="#000000">tmpSubs</text>
</g>
<!-- Node8&#45;&gt;Node2 -->
<g id="edge10" class="edge">
<title>Node8&#45;&gt;Node2</title>
<path fill="none" stroke="#9a32cd" stroke-dasharray="5,2" d="M263,-135.2866C263,-119.7395 263,-98.7276 263,-86.6426"/>
<polygon fill="#9a32cd" stroke="#9a32cd" points="259.5001,-135.4356 263,-145.4357 266.5001,-135.4357 259.5001,-135.4356"/>
<text text-anchor="middle" x="300.5" y="-119" font-family="Helvetica,sans-Serif" font-size="10.00" fill="#000000"> ProtectedValues</text>
<text text-anchor="middle" x="300.5" y="-108" font-family="Helvetica,sans-Serif" font-size="10.00" fill="#000000">DefaultValues</text>
</g>
<!-- Node9&#45;&gt;Node2 -->
<g id="edge13" class="edge">
<title>Node9&#45;&gt;Node2</title>
<path fill="none" stroke="#9a32cd" stroke-dasharray="5,2" d="M368.3052,-136.3156C362.0394,-125.8392 353.0051,-113.2571 342,-105 329.7787,-95.8303 314.2927,-89.4723 300.276,-85.162"/>
<polygon fill="#9a32cd" stroke="#9a32cd" points="365.3185,-138.1455 373.2583,-145.1604 371.426,-134.7252 365.3185,-138.1455"/>
<text text-anchor="middle" x="383" y="-113.5" font-family="Helvetica,sans-Serif" font-size="10.00" fill="#000000"> CmdLine</text>
</g>
<!-- Node10&#45;&gt;Node2 -->
<g id="edge15" class="edge">
<title>Node10&#45;&gt;Node2</title>
<path fill="none" stroke="#9a32cd" stroke-dasharray="5,2" d="M420.1345,-299.1399C434.5093,-266.7752 458.9197,-198.9359 440,-145 432.4641,-123.5167 427.4872,-116.7716 408,-105 390.2242,-94.2622 336.8804,-85.9018 300.1027,-81.2098"/>
<polygon fill="#9a32cd" stroke="#9a32cd" points="416.9016,-297.7926 415.8877,-308.3389 423.257,-300.7268 416.9016,-297.7926"/>
<text text-anchor="middle" x="481" y="-208" font-family="Helvetica,sans-Serif" font-size="10.00" fill="#000000"> NumberFormat</text>
</g>
<!-- Node10&#45;&gt;Node10 -->
<g id="edge17" class="edge">
<title>Node10&#45;&gt;Node10</title>
<path fill="none" stroke="#9a32cd" stroke-dasharray="5,2" d="M461.8235,-323.6934C466.5317,-322.5187 469.5,-320.6208 469.5,-318 469.5,-313.8066 461.9013,-311.4643 451.735,-310.9728"/>
<polygon fill="#9a32cd" stroke="#9a32cd" points="461.19,-320.2467 451.735,-325.0272 462.1075,-327.1863 461.19,-320.2467"/>
<text text-anchor="middle" x="501" y="-321" font-family="Helvetica,sans-Serif" font-size="10.00" fill="#000000"> Global</text>
<text text-anchor="middle" x="501" y="-310" font-family="Helvetica,sans-Serif" font-size="10.00" fill="#000000">Computational</text>
</g>
</g>
</svg>
