<?xml version="1.0" encoding="UTF-8" standalone="no"?>
<!DOCTYPE svg PUBLIC "-//W3C//DTD SVG 1.1//EN"
 "http://www.w3.org/Graphics/SVG/1.1/DTD/svg11.dtd">
<!-- Generated by graphviz version 2.40.1 (20161225.0304)
 -->
<!-- Title: Log Pages: 1 -->
<svg width="1155pt" height="573pt"
 viewBox="0.00 0.00 1155.00 573.47" xmlns="http://www.w3.org/2000/svg" xmlns:xlink="http://www.w3.org/1999/xlink">
<g id="graph0" class="graph" transform="scale(1 1) rotate(0) translate(4 569.4731)">
<title>Log</title>
<polygon fill="#ffffff" stroke="transparent" points="-4,4 -4,-569.4731 1151,-569.4731 1151,4 -4,4"/>
<!-- Node1 -->
<g id="node1" class="node">
<title>Node1</title>
<polygon fill="#bfbfbf" stroke="#000000" points="1115,-340.9731 1115,-359.9731 1147,-359.9731 1147,-340.9731 1115,-340.9731"/>
<text text-anchor="middle" x="1131" y="-347.9731" font-family="Helvetica,sans-Serif" font-size="10.00" fill="#000000">Log</text>
</g>
<!-- Node2 -->
<g id="node2" class="node">
<title>Node2</title>
<g id="a_node2"><a xlink:href="classcs_1_1aworx_1_1lox_1_1Lox.html" target="_top" xlink:title="Lox">
<polygon fill="#ffffff" stroke="#000000" points="751,-370.9731 751,-389.9731 783,-389.9731 783,-370.9731 751,-370.9731"/>
<text text-anchor="middle" x="767" y="-377.9731" font-family="Helvetica,sans-Serif" font-size="10.00" fill="#000000">Lox</text>
</a>
</g>
</g>
<!-- Node2&#45;&gt;Node1 -->
<g id="edge1" class="edge">
<title>Node2&#45;&gt;Node1</title>
<path fill="none" stroke="#9a32cd" stroke-dasharray="5,2" d="M793.0245,-375.2694C818.9906,-370.3063 860.083,-363.0706 896,-359.4731 978.063,-351.2537 1076.9359,-350.402 1114.9966,-350.4084"/>
<polygon fill="#9a32cd" stroke="#9a32cd" points="792.3557,-371.8337 783.2063,-377.1759 793.6902,-378.7054 792.3557,-371.8337"/>
<text text-anchor="middle" x="943.5" y="-362.4731" font-family="Helvetica,sans-Serif" font-size="10.00" fill="#000000"> LOX</text>
</g>
<!-- Node15 -->
<g id="node15" class="node">
<title>Node15</title>
<g id="a_node15"><a xlink:href="classcs_1_1aworx_1_1lox_1_1ALoxReportWriter.html" target="_top" xlink:title="ALoxReportWriter">
<polygon fill="#ffffff" stroke="#000000" points="896,-379.9731 896,-398.9731 991,-398.9731 991,-379.9731 896,-379.9731"/>
<text text-anchor="middle" x="943.5" y="-386.9731" font-family="Helvetica,sans-Serif" font-size="10.00" fill="#000000">ALoxReportWriter</text>
</a>
</g>
</g>
<!-- Node2&#45;&gt;Node15 -->
<g id="edge21" class="edge">
<title>Node2&#45;&gt;Node15</title>
<path fill="none" stroke="#9a32cd" stroke-dasharray="5,2" d="M793.5084,-381.8248C820.5249,-383.2024 863.0133,-385.369 895.8819,-387.045"/>
<polygon fill="#9a32cd" stroke="#9a32cd" points="793.4536,-378.3176 783.2883,-381.3037 793.0971,-385.3085 793.4536,-378.3176"/>
<text text-anchor="middle" x="853.5" y="-389.4731" font-family="Helvetica,sans-Serif" font-size="10.00" fill="#000000"> lox</text>
</g>
<!-- Node3 -->
<g id="node3" class="node">
<title>Node3</title>
<g id="a_node3"><a xlink:href="classcs_1_1aworx_1_1lib_1_1threads_1_1ThreadLock.html" target="_top" xlink:title="ThreadLock">
<polygon fill="#ffffff" stroke="#000000" points="283,-20.9731 283,-39.9731 351,-39.9731 351,-20.9731 283,-20.9731"/>
<text text-anchor="middle" x="317" y="-27.9731" font-family="Helvetica,sans-Serif" font-size="10.00" fill="#000000">ThreadLock</text>
</a>
</g>
</g>
<!-- Node3&#45;&gt;Node2 -->
<g id="edge2" class="edge">
<title>Node3&#45;&gt;Node2</title>
<path fill="none" stroke="#191970" d="M360.9611,-42.191C434.2882,-62.3676 577.5196,-104.6612 618,-137.4731 623.4062,-141.8552 734.4083,-326.2461 761.2123,-370.8391"/>
<polygon fill="#191970" stroke="#191970" points="361.6653,-38.7551 351.0963,-39.4941 359.8193,-45.5073 361.6653,-38.7551"/>
</g>
<!-- Node19 -->
<g id="node19" class="node">
<title>Node19</title>
<g id="a_node19"><a xlink:href="classcs_1_1aworx_1_1lib_1_1threads_1_1SmartLock.html" target="_top" xlink:title="SmartLock">
<polygon fill="#ffffff" stroke="#000000" points="525.5,-20.9731 525.5,-39.9731 589.5,-39.9731 589.5,-20.9731 525.5,-20.9731"/>
<text text-anchor="middle" x="557.5" y="-27.9731" font-family="Helvetica,sans-Serif" font-size="10.00" fill="#000000">SmartLock</text>
</a>
</g>
</g>
<!-- Node3&#45;&gt;Node19 -->
<g id="edge25" class="edge">
<title>Node3&#45;&gt;Node19</title>
<path fill="none" stroke="#191970" d="M361.2039,-30.4731C408.7164,-30.4731 483.091,-30.4731 525.337,-30.4731"/>
<polygon fill="#191970" stroke="#191970" points="361.2024,-26.9732 351.2024,-30.4731 361.2023,-33.9732 361.2024,-26.9732"/>
</g>
<!-- Node4 -->
<g id="node4" class="node">
<title>Node4</title>
<g id="a_node4"><a xlink:href="classcs_1_1aworx_1_1lib_1_1time_1_1Ticks.html" target="_top" xlink:title="Ticks">
<polygon fill="#ffffff" stroke="#000000" points="116.5,-20.9731 116.5,-39.9731 157.5,-39.9731 157.5,-20.9731 116.5,-20.9731"/>
<text text-anchor="middle" x="137" y="-27.9731" font-family="Helvetica,sans-Serif" font-size="10.00" fill="#000000">Ticks</text>
</a>
</g>
</g>
<!-- Node4&#45;&gt;Node3 -->
<g id="edge3" class="edge">
<title>Node4&#45;&gt;Node3</title>
<path fill="none" stroke="#9a32cd" stroke-dasharray="5,2" d="M167.7492,-30.4731C199.7097,-30.4731 249.6105,-30.4731 282.796,-30.4731"/>
<polygon fill="#9a32cd" stroke="#9a32cd" points="167.6483,-26.9732 157.6483,-30.4731 167.6483,-33.9732 167.6483,-26.9732"/>
<text text-anchor="middle" x="214" y="-33.4731" font-family="Helvetica,sans-Serif" font-size="10.00" fill="#000000"> waitTime</text>
</g>
<!-- Node4&#45;&gt;Node4 -->
<g id="edge5" class="edge">
<title>Node4&#45;&gt;Node4</title>
<path fill="none" stroke="#9a32cd" stroke-dasharray="5,2" d="M128.5288,-50.2394C129.1942,-54.9697 132.0179,-58.4731 137,-58.4731 145.1758,-58.4731 147.5391,-49.0384 144.0899,-40.2302"/>
<polygon fill="#9a32cd" stroke="#9a32cd" points="132.0101,-50.6148 129.9101,-40.2302 125.0758,-49.6578 132.0101,-50.6148"/>
<text text-anchor="middle" x="137" y="-72.4731" font-family="Helvetica,sans-Serif" font-size="10.00" fill="#000000"> CreationTime</text>
<text text-anchor="middle" x="137" y="-61.4731" font-family="Helvetica,sans-Serif" font-size="10.00" fill="#000000">tempTicks</text>
</g>
<!-- Node18 -->
<g id="node18" class="node">
<title>Node18</title>
<g id="a_node18"><a xlink:href="classcs_1_1aworx_1_1lox_1_1core_1_1Logger.html" target="_top" xlink:title="Logger">
<polygon fill="#ffffff" stroke="#000000" points="744,-20.9731 744,-39.9731 790,-39.9731 790,-20.9731 744,-20.9731"/>
<text text-anchor="middle" x="767" y="-27.9731" font-family="Helvetica,sans-Serif" font-size="10.00" fill="#000000">Logger</text>
</a>
</g>
</g>
<!-- Node4&#45;&gt;Node18 -->
<g id="edge26" class="edge">
<title>Node4&#45;&gt;Node18</title>
<path fill="none" stroke="#9a32cd" stroke-dasharray="5,2" d="M167.7803,-24.9496C193.0171,-20.6249 229.7116,-14.8021 262,-11.4731 419.3879,4.7539 460.398,2.523 618,-11.4731 662.6775,-15.4408 714.5806,-22.6538 743.8318,-26.9602"/>
<polygon fill="#9a32cd" stroke="#9a32cd" points="166.965,-21.5387 157.7122,-26.6997 168.1639,-28.4353 166.965,-21.5387"/>
<text text-anchor="middle" x="434.5" y="-15.4731" font-family="Helvetica,sans-Serif" font-size="10.00" fill="#000000"> TimeOfLastLog</text>
<text text-anchor="middle" x="434.5" y="-4.4731" font-family="Helvetica,sans-Serif" font-size="10.00" fill="#000000">TimeOfCreation</text>
</g>
<!-- Node21 -->
<g id="node21" class="node">
<title>Node21</title>
<g id="a_node21"><a xlink:href="classcs_1_1aworx_1_1lox_1_1core_1_1textlogger_1_1MetaInfo.html" target="_top" xlink:title="MetaInfo">
<polygon fill="#ffffff" stroke="#000000" points="530,-146.9731 530,-165.9731 585,-165.9731 585,-146.9731 530,-146.9731"/>
<text text-anchor="middle" x="557.5" y="-153.9731" font-family="Helvetica,sans-Serif" font-size="10.00" fill="#000000">MetaInfo</text>
</a>
</g>
</g>
<!-- Node4&#45;&gt;Node21 -->
<g id="edge33" class="edge">
<title>Node4&#45;&gt;Node21</title>
<path fill="none" stroke="#9a32cd" stroke-dasharray="5,2" d="M167.4621,-40.6794C172.9401,-42.3761 178.6187,-44.0457 184,-45.4731 266.5704,-67.3755 290.0826,-61.2425 372,-85.4731 432.6779,-103.4213 501.6778,-132.1187 535.8932,-146.9336"/>
<polygon fill="#9a32cd" stroke="#9a32cd" points="168.5164,-37.342 157.9258,-37.6423 166.3921,-44.0119 168.5164,-37.342"/>
<text text-anchor="middle" x="317" y="-99.4731" font-family="Helvetica,sans-Serif" font-size="10.00" fill="#000000"> elapsedTime</text>
<text text-anchor="middle" x="317" y="-88.4731" font-family="Helvetica,sans-Serif" font-size="10.00" fill="#000000">MaxElapsedTime</text>
</g>
<!-- Node5 -->
<g id="node5" class="node">
<title>Node5</title>
<polygon fill="#ffffff" stroke="#bfbfbf" points="0,-20.9731 0,-39.9731 71,-39.9731 71,-20.9731 0,-20.9731"/>
<text text-anchor="middle" x="35.5" y="-27.9731" font-family="Helvetica,sans-Serif" font-size="10.00" fill="#000000">IFormattable</text>
</g>
<!-- Node5&#45;&gt;Node4 -->
<g id="edge4" class="edge">
<title>Node5&#45;&gt;Node4</title>
<path fill="none" stroke="#191970" d="M81.388,-30.4731C93.5962,-30.4731 106.183,-30.4731 116.2878,-30.4731"/>
<polygon fill="#191970" stroke="#191970" points="81.2851,-26.9732 71.2851,-30.4731 81.2851,-33.9732 81.2851,-26.9732"/>
</g>
<!-- Node6 -->
<g id="node6" class="node">
<title>Node6</title>
<g id="a_node6"><a xlink:href="classcs_1_1aworx_1_1lib_1_1strings_1_1AString.html" target="_top" xlink:title="AString">
<polygon fill="#ffffff" stroke="#000000" points="112.5,-333.9731 112.5,-352.9731 161.5,-352.9731 161.5,-333.9731 112.5,-333.9731"/>
<text text-anchor="middle" x="137" y="-340.9731" font-family="Helvetica,sans-Serif" font-size="10.00" fill="#000000">AString</text>
</a>
</g>
</g>
<!-- Node6&#45;&gt;Node2 -->
<g id="edge6" class="edge">
<title>Node6&#45;&gt;Node2</title>
<path fill="none" stroke="#9a32cd" stroke-dasharray="5,2" d="M171.7436,-351.7149C175.8548,-352.4376 180.0073,-353.0531 184,-353.4731 210.5203,-356.2632 217.3638,-354.7473 244,-353.4731 309.1121,-350.3585 324.8879,-342.5878 390,-339.4731 429.5104,-337.5831 439.5433,-336.6787 479,-339.4731 583.2823,-346.8588 707.2218,-369.1072 750.8469,-377.3536"/>
<polygon fill="#9a32cd" stroke="#9a32cd" points="172.2111,-348.24 161.7242,-349.7482 170.8628,-355.1089 172.2111,-348.24"/>
<text text-anchor="middle" x="434.5" y="-419.4731" font-family="Helvetica,sans-Serif" font-size="10.00" fill="#000000"> tmpAS</text>
<text text-anchor="middle" x="434.5" y="-408.4731" font-family="Helvetica,sans-Serif" font-size="10.00" fill="#000000">intMsg</text>
<text text-anchor="middle" x="434.5" y="-397.4731" font-family="Helvetica,sans-Serif" font-size="10.00" fill="#000000">resDomainInternal</text>
<text text-anchor="middle" x="434.5" y="-386.4731" font-family="Helvetica,sans-Serif" font-size="10.00" fill="#000000">resDomain</text>
<text text-anchor="middle" x="434.5" y="-375.4731" font-family="Helvetica,sans-Serif" font-size="10.00" fill="#000000">tmpSubstitutionPath</text>
<text text-anchor="middle" x="434.5" y="-364.4731" font-family="Helvetica,sans-Serif" font-size="10.00" fill="#000000">tmpComments</text>
<text text-anchor="start" x="390" y="-353.4731" font-family="Helvetica,sans-Serif" font-size="10.00" fill="#000000">tmpSubstitutionPath</text>
<text text-anchor="middle" x="434.5" y="-342.4731" font-family="Helvetica,sans-Serif" font-size="10.00" fill="#000000">InternalDomains</text>
</g>
<!-- Node9 -->
<g id="node9" class="node">
<title>Node9</title>
<g id="a_node9"><a xlink:href="classcs_1_1aworx_1_1lox_1_1core_1_1ScopeInfo.html" target="_top" xlink:title="ScopeInfo">
<polygon fill="#ffffff" stroke="#000000" points="527,-370.9731 527,-389.9731 588,-389.9731 588,-370.9731 527,-370.9731"/>
<text text-anchor="middle" x="557.5" y="-377.9731" font-family="Helvetica,sans-Serif" font-size="10.00" fill="#000000">ScopeInfo</text>
</a>
</g>
</g>
<!-- Node6&#45;&gt;Node9 -->
<g id="edge10" class="edge">
<title>Node6&#45;&gt;Node9</title>
<path fill="none" stroke="#9a32cd" stroke-dasharray="5,2" d="M153.5244,-359.8706C162.0066,-367.4535 172.8792,-375.9771 184,-381.4731 268.4619,-423.2157 296.4531,-420.2828 390,-431.4731 429.2755,-436.1714 444.8553,-451.4426 479,-431.4731 493.0857,-423.2351 484.3256,-409.7508 497,-399.4731 505.4656,-392.6084 516.4315,-388.2116 526.6977,-385.4006"/>
<polygon fill="#9a32cd" stroke="#9a32cd" points="155.8897,-357.2906 146.1945,-353.0182 151.1093,-362.4041 155.8897,-357.2906"/>
<text text-anchor="middle" x="317" y="-431.4731" font-family="Helvetica,sans-Serif" font-size="10.00" fill="#000000"> threadName</text>
</g>
<!-- Node10 -->
<g id="node10" class="node">
<title>Node10</title>
<g id="a_node10"><a xlink:href="classcs_1_1aworx_1_1lox_1_1core_1_1ScopeInfo_1_1SourceFile.html" target="_top" xlink:title="ScopeInfo.SourceFile">
<polygon fill="#ffffff" stroke="#000000" points="262,-474.9731 262,-493.9731 372,-493.9731 372,-474.9731 262,-474.9731"/>
<text text-anchor="middle" x="317" y="-481.9731" font-family="Helvetica,sans-Serif" font-size="10.00" fill="#000000">ScopeInfo.SourceFile</text>
</a>
</g>
</g>
<!-- Node6&#45;&gt;Node10 -->
<g id="edge12" class="edge">
<title>Node6&#45;&gt;Node10</title>
<path fill="none" stroke="#9a32cd" stroke-dasharray="5,2" d="M139.2327,-363.2993C143.2923,-389.5279 154.4101,-435.2587 184,-459.4731 205.5463,-477.1052 235.643,-483.7705 261.7577,-485.8439"/>
<polygon fill="#9a32cd" stroke="#9a32cd" points="142.6587,-362.5136 137.8572,-353.0693 135.7211,-363.4465 142.6587,-362.5136"/>
<text text-anchor="middle" x="214" y="-508.4731" font-family="Helvetica,sans-Serif" font-size="10.00" fill="#000000"> nameWOExt</text>
<text text-anchor="middle" x="214" y="-497.4731" font-family="Helvetica,sans-Serif" font-size="10.00" fill="#000000">name</text>
<text text-anchor="middle" x="214" y="-486.4731" font-family="Helvetica,sans-Serif" font-size="10.00" fill="#000000">trimmedPath</text>
</g>
<!-- Node11 -->
<g id="node11" class="node">
<title>Node11</title>
<g id="a_node11"><a xlink:href="classcs_1_1aworx_1_1lox_1_1core_1_1Domain.html" target="_top" xlink:title="Domain">
<polygon fill="#ffffff" stroke="#000000" points="292,-282.9731 292,-301.9731 342,-301.9731 342,-282.9731 292,-282.9731"/>
<text text-anchor="middle" x="317" y="-289.9731" font-family="Helvetica,sans-Serif" font-size="10.00" fill="#000000">Domain</text>
</a>
</g>
</g>
<!-- Node6&#45;&gt;Node11 -->
<g id="edge14" class="edge">
<title>Node6&#45;&gt;Node11</title>
<path fill="none" stroke="#9a32cd" stroke-dasharray="5,2" d="M163.1997,-329.2343C169.8488,-326.0186 177.074,-322.8555 184,-320.4731 220.5938,-307.8857 264.885,-299.9347 291.9933,-295.8456"/>
<polygon fill="#9a32cd" stroke="#9a32cd" points="161.318,-326.2637 153.9723,-333.8986 164.4759,-332.5109 161.318,-326.2637"/>
<text text-anchor="middle" x="214" y="-345.4731" font-family="Helvetica,sans-Serif" font-size="10.00" fill="#000000"> FullPath</text>
<text text-anchor="middle" x="214" y="-334.4731" font-family="Helvetica,sans-Serif" font-size="10.00" fill="#000000">tAString</text>
<text text-anchor="middle" x="214" y="-323.4731" font-family="Helvetica,sans-Serif" font-size="10.00" fill="#000000">Name</text>
</g>
<!-- Node17 -->
<g id="node17" class="node">
<title>Node17</title>
<g id="a_node17"><a xlink:href="classcs_1_1aworx_1_1lox_1_1core_1_1textlogger_1_1TextLogger.html" target="_top" xlink:title="TextLogger">
<polygon fill="#ffffff" stroke="#000000" points="911,-220.9731 911,-239.9731 976,-239.9731 976,-220.9731 911,-220.9731"/>
<text text-anchor="middle" x="943.5" y="-227.9731" font-family="Helvetica,sans-Serif" font-size="10.00" fill="#000000">TextLogger</text>
</a>
</g>
</g>
<!-- Node6&#45;&gt;Node17 -->
<g id="edge27" class="edge">
<title>Node6&#45;&gt;Node17</title>
<path fill="none" stroke="#9a32cd" stroke-dasharray="5,2" d="M141.3232,-324.2046C147.137,-303.2909 159.6825,-270.831 184,-255.4731 234.6904,-223.4594 663.0628,-231.8624 723,-230.4731 789.7828,-228.9252 867.9737,-229.4875 910.9906,-230.0025"/>
<polygon fill="#9a32cd" stroke="#9a32cd" points="137.9204,-323.3846 138.8699,-333.9368 144.7081,-325.0957 137.9204,-323.3846"/>
<text text-anchor="middle" x="557.5" y="-245.4731" font-family="Helvetica,sans-Serif" font-size="10.00" fill="#000000"> logBuf</text>
<text text-anchor="middle" x="557.5" y="-234.4731" font-family="Helvetica,sans-Serif" font-size="10.00" fill="#000000">msgBuf</text>
</g>
<!-- Node6&#45;&gt;Node21 -->
<g id="edge30" class="edge">
<title>Node6&#45;&gt;Node21</title>
<path fill="none" stroke="#9a32cd" stroke-dasharray="5,2" d="M140.6188,-323.7757C146.1101,-298.7344 158.7027,-255.4073 184,-227.4731 210.2891,-198.4437 224.5001,-197.7683 262,-186.4731 311.745,-171.4897 466.2549,-161.5072 529.7878,-157.936"/>
<polygon fill="#9a32cd" stroke="#9a32cd" points="137.1285,-323.3779 138.5754,-333.8735 143.9894,-324.7664 137.1285,-323.3779"/>
<text text-anchor="middle" x="317" y="-222.4731" font-family="Helvetica,sans-Serif" font-size="10.00" fill="#000000"> Format</text>
<text text-anchor="middle" x="317" y="-211.4731" font-family="Helvetica,sans-Serif" font-size="10.00" fill="#000000">tmpAString</text>
<text text-anchor="middle" x="317" y="-200.4731" font-family="Helvetica,sans-Serif" font-size="10.00" fill="#000000">NoSourceFileInfo</text>
<text text-anchor="middle" x="317" y="-189.4731" font-family="Helvetica,sans-Serif" font-size="10.00" fill="#000000">NoMethodInfo</text>
</g>
<!-- Node7 -->
<g id="node7" class="node">
<title>Node7</title>
<g id="a_node7"><a xlink:href="classcs_1_1aworx_1_1lox_1_1core_1_1ScopeStore.html" target="_top" xlink:title="ScopeStore\&lt; Object \&gt;">
<polygon fill="#ffffff" stroke="#000000" points="500.5,-545.9731 500.5,-564.9731 614.5,-564.9731 614.5,-545.9731 500.5,-545.9731"/>
<text text-anchor="middle" x="557.5" y="-552.9731" font-family="Helvetica,sans-Serif" font-size="10.00" fill="#000000">ScopeStore&lt; Object &gt;</text>
</a>
</g>
</g>
<!-- Node7&#45;&gt;Node2 -->
<g id="edge7" class="edge">
<title>Node7&#45;&gt;Node2</title>
<path fill="none" stroke="#9a32cd" stroke-dasharray="5,2" d="M624.6439,-553.0167C653.3451,-548.4204 684.8206,-538.0237 705,-515.4731 739.7908,-476.5942 691.0717,-440.7352 723,-399.4731 729.7215,-390.7867 741.2097,-386.0066 750.7619,-383.414"/>
<polygon fill="#9a32cd" stroke="#9a32cd" points="624.0525,-549.5652 614.6308,-554.411 625.0179,-556.4983 624.0525,-549.5652"/>
<text text-anchor="middle" x="670.5" y="-553.4731" font-family="Helvetica,sans-Serif" font-size="10.00" fill="#000000"> scopePrefixes</text>
</g>
<!-- Node8 -->
<g id="node8" class="node">
<title>Node8</title>
<g id="a_node8"><a xlink:href="classcs_1_1aworx_1_1lox_1_1core_1_1ScopeStore.html" target="_top" xlink:title="ScopeStore\&lt; Dictionary\l\&lt; AString, int[]\&gt; \&gt;">
<polygon fill="#ffffff" stroke="#000000" points="497,-496.4731 497,-526.4731 618,-526.4731 618,-496.4731 497,-496.4731"/>
<text text-anchor="start" x="505" y="-514.4731" font-family="Helvetica,sans-Serif" font-size="10.00" fill="#000000">ScopeStore&lt; Dictionary</text>
<text text-anchor="middle" x="557.5" y="-503.4731" font-family="Helvetica,sans-Serif" font-size="10.00" fill="#000000">&lt; AString, int[]&gt; &gt;</text>
</a>
</g>
</g>
<!-- Node8&#45;&gt;Node2 -->
<g id="edge8" class="edge">
<title>Node8&#45;&gt;Node2</title>
<path fill="none" stroke="#9a32cd" stroke-dasharray="5,2" d="M628.053,-503.5183C655.3606,-497.0655 684.833,-485.4282 705,-464.4731 725.7863,-442.8746 703.3096,-422.0753 723,-399.4731 730.1053,-391.3172 741.3407,-386.545 750.6793,-383.8232"/>
<polygon fill="#9a32cd" stroke="#9a32cd" points="627.1454,-500.1336 618.1115,-505.6687 628.6254,-506.9753 627.1454,-500.1336"/>
<text text-anchor="middle" x="670.5" y="-503.4731" font-family="Helvetica,sans-Serif" font-size="10.00" fill="#000000"> scopeLogOnce</text>
</g>
<!-- Node9&#45;&gt;Node2 -->
<g id="edge9" class="edge">
<title>Node9&#45;&gt;Node2</title>
<path fill="none" stroke="#9a32cd" stroke-dasharray="5,2" d="M598.4676,-380.4731C644.9626,-380.4731 718.5285,-380.4731 750.8573,-380.4731"/>
<polygon fill="#9a32cd" stroke="#9a32cd" points="598.4125,-376.9732 588.4124,-380.4731 598.4124,-383.9732 598.4125,-376.9732"/>
<text text-anchor="middle" x="670.5" y="-383.4731" font-family="Helvetica,sans-Serif" font-size="10.00" fill="#000000"> scopeInfo</text>
</g>
<!-- Node10&#45;&gt;Node9 -->
<g id="edge11" class="edge">
<title>Node10&#45;&gt;Node9</title>
<path fill="none" stroke="#9a32cd" stroke-dasharray="5,2" d="M382.6754,-489.8176C415.1877,-488.9431 452.9484,-482.1488 479,-459.4731 500,-441.1944 477.4404,-419.2855 497,-399.4731 504.8893,-391.4819 516.0963,-386.8424 526.7248,-384.1523"/>
<polygon fill="#9a32cd" stroke="#9a32cd" points="382.295,-486.3207 372.3254,-489.9062 382.355,-493.3204 382.295,-486.3207"/>
<text text-anchor="middle" x="434.5" y="-502.4731" font-family="Helvetica,sans-Serif" font-size="10.00" fill="#000000"> cache</text>
<text text-anchor="middle" x="434.5" y="-491.4731" font-family="Helvetica,sans-Serif" font-size="10.00" fill="#000000">lastSourceFile</text>
</g>
<!-- Node11&#45;&gt;Node2 -->
<g id="edge13" class="edge">
<title>Node11&#45;&gt;Node2</title>
<path fill="none" stroke="#9a32cd" stroke-dasharray="5,2" d="M352.5965,-287.3975C423.922,-278.9562 587.5589,-268.404 705,-328.4731 726.5128,-339.4766 747.1056,-359.1678 758.3034,-370.9054"/>
<polygon fill="#9a32cd" stroke="#9a32cd" points="351.8519,-283.963 342.3606,-288.6709 352.7162,-290.9095 351.8519,-283.963"/>
<text text-anchor="middle" x="557.5" y="-311.4731" font-family="Helvetica,sans-Serif" font-size="10.00" fill="#000000"> domains</text>
<text text-anchor="middle" x="557.5" y="-300.4731" font-family="Helvetica,sans-Serif" font-size="10.00" fill="#000000">internalDomains</text>
</g>
<!-- Node11&#45;&gt;Node11 -->
<g id="edge16" class="edge">
<title>Node11&#45;&gt;Node11</title>
<path fill="none" stroke="#9a32cd" stroke-dasharray="5,2" d="M298.112,-311.8732C299.3734,-316.7877 305.6694,-320.4731 317,-320.4731 335.1289,-320.4731 340.3693,-311.0384 332.7212,-302.2302"/>
<polygon fill="#9a32cd" stroke="#9a32cd" points="301.4839,-312.823 301.2788,-302.2302 294.8334,-310.6389 301.4839,-312.823"/>
<text text-anchor="middle" x="317" y="-323.4731" font-family="Helvetica,sans-Serif" font-size="10.00" fill="#000000"> Parent</text>
</g>
<!-- Node12 -->
<g id="node12" class="node">
<title>Node12</title>
<g id="a_node12"><a xlink:href="classcs_1_1aworx_1_1lib_1_1strings_1_1Substring.html" target="_top" xlink:title="Substring">
<polygon fill="#ffffff" stroke="#000000" points="108,-189.9731 108,-208.9731 166,-208.9731 166,-189.9731 108,-189.9731"/>
<text text-anchor="middle" x="137" y="-196.9731" font-family="Helvetica,sans-Serif" font-size="10.00" fill="#000000">Substring</text>
</a>
</g>
</g>
<!-- Node12&#45;&gt;Node11 -->
<g id="edge15" class="edge">
<title>Node12&#45;&gt;Node11</title>
<path fill="none" stroke="#9a32cd" stroke-dasharray="5,2" d="M164.8448,-213.8596C202.0175,-233.0655 266.841,-266.5577 298.5159,-282.923"/>
<polygon fill="#9a32cd" stroke="#9a32cd" points="166.0761,-210.5562 155.5852,-209.0755 162.8629,-216.7752 166.0761,-210.5562"/>
<text text-anchor="middle" x="214" y="-268.4731" font-family="Helvetica,sans-Serif" font-size="10.00" fill="#000000"> tSubstring2</text>
<text text-anchor="middle" x="214" y="-257.4731" font-family="Helvetica,sans-Serif" font-size="10.00" fill="#000000">tSubstring</text>
</g>
<!-- Node22 -->
<g id="node22" class="node">
<title>Node22</title>
<g id="a_node22"><a xlink:href="classcs_1_1aworx_1_1lib_1_1strings_1_1util_1_1Tokenizer.html" target="_top" xlink:title="Tokenizer">
<polygon fill="#ffffff" stroke="#000000" points="287.5,-116.9731 287.5,-135.9731 346.5,-135.9731 346.5,-116.9731 287.5,-116.9731"/>
<text text-anchor="middle" x="317" y="-123.9731" font-family="Helvetica,sans-Serif" font-size="10.00" fill="#000000">Tokenizer</text>
</a>
</g>
</g>
<!-- Node12&#45;&gt;Node22 -->
<g id="edge32" class="edge">
<title>Node12&#45;&gt;Node22</title>
<path fill="none" stroke="#9a32cd" stroke-dasharray="5,2" d="M145.6061,-180.4514C153.3789,-165.7026 166.3151,-146.1906 184,-136.4731 215.9625,-118.9104 258.9384,-119.1729 287.2778,-121.975"/>
<polygon fill="#9a32cd" stroke="#9a32cd" points="142.32,-179.2031 141.055,-189.7222 148.6036,-182.2878 142.32,-179.2031"/>
<text text-anchor="middle" x="214" y="-150.4731" font-family="Helvetica,sans-Serif" font-size="10.00" fill="#000000"> Rest</text>
<text text-anchor="middle" x="214" y="-139.4731" font-family="Helvetica,sans-Serif" font-size="10.00" fill="#000000">Actual</text>
</g>
<!-- Node13 -->
<g id="node13" class="node">
<title>Node13</title>
<g id="a_node13"><a xlink:href="classcs_1_1aworx_1_1lox_1_1core_1_1ScopeStore.html" target="_top" xlink:title="ScopeStore\&lt; Dictionary\l\&lt; AString, Object \&gt; \&gt;">
<polygon fill="#ffffff" stroke="#000000" points="497,-447.4731 497,-477.4731 618,-477.4731 618,-447.4731 497,-447.4731"/>
<text text-anchor="start" x="505" y="-465.4731" font-family="Helvetica,sans-Serif" font-size="10.00" fill="#000000">ScopeStore&lt; Dictionary</text>
<text text-anchor="middle" x="557.5" y="-454.4731" font-family="Helvetica,sans-Serif" font-size="10.00" fill="#000000">&lt; AString, Object &gt; &gt;</text>
</a>
</g>
</g>
<!-- Node13&#45;&gt;Node2 -->
<g id="edge17" class="edge">
<title>Node13&#45;&gt;Node2</title>
<path fill="none" stroke="#9a32cd" stroke-dasharray="5,2" d="M628.1272,-452.0464C653.801,-445.9626 682.1065,-436.41 705,-421.4731 715.5806,-414.5698 712.9148,-407.082 723,-399.4731 731.3693,-393.1589 742.159,-388.4575 750.9591,-385.3109"/>
<polygon fill="#9a32cd" stroke="#9a32cd" points="627.06,-448.6983 618.061,-454.2902 628.583,-455.5306 627.06,-448.6983"/>
<text text-anchor="middle" x="670.5" y="-452.4731" font-family="Helvetica,sans-Serif" font-size="10.00" fill="#000000"> scopeLogData</text>
</g>
<!-- Node14 -->
<g id="node14" class="node">
<title>Node14</title>
<g id="a_node14"><a xlink:href="classcs_1_1aworx_1_1lox_1_1core_1_1ScopeStore.html" target="_top" xlink:title="ScopeStore\&lt; AString \&gt;">
<polygon fill="#ffffff" stroke="#000000" points="498.5,-408.9731 498.5,-427.9731 616.5,-427.9731 616.5,-408.9731 498.5,-408.9731"/>
<text text-anchor="middle" x="557.5" y="-415.9731" font-family="Helvetica,sans-Serif" font-size="10.00" fill="#000000">ScopeStore&lt; AString &gt;</text>
</a>
</g>
</g>
<!-- Node14&#45;&gt;Node2 -->
<g id="edge18" class="edge">
<title>Node14&#45;&gt;Node2</title>
<path fill="none" stroke="#9a32cd" stroke-dasharray="5,2" d="M626.5991,-408.9055C651.4021,-405.153 679.5296,-400.5311 705,-395.4731 720.6418,-392.367 738.3037,-388.0092 750.764,-384.7906"/>
<polygon fill="#9a32cd" stroke="#9a32cd" points="625.9255,-405.4671 616.5522,-410.4058 626.9595,-412.3904 625.9255,-405.4671"/>
<text text-anchor="middle" x="670.5" y="-409.4731" font-family="Helvetica,sans-Serif" font-size="10.00" fill="#000000"> scopeDomains</text>
</g>
<!-- Node15&#45;&gt;Node1 -->
<g id="edge19" class="edge">
<title>Node15&#45;&gt;Node1</title>
<path fill="none" stroke="#9a32cd" stroke-dasharray="5,2" d="M1001.1382,-383.2662C1030.2285,-379.3351 1065.8605,-373.2937 1097,-364.4731 1102.8963,-362.803 1109.1516,-360.4167 1114.6675,-358.0862"/>
<polygon fill="#9a32cd" stroke="#9a32cd" points="1000.6031,-379.8062 991.1395,-384.5697 1001.5081,-386.7475 1000.6031,-379.8062"/>
<text text-anchor="middle" x="1053" y="-385.4731" font-family="Helvetica,sans-Serif" font-size="10.00" fill="#000000"> DebugReportWriter</text>
</g>
<!-- Node16 -->
<g id="node16" class="node">
<title>Node16</title>
<g id="a_node16"><a xlink:href="interfacecs_1_1aworx_1_1lib_1_1lang_1_1ReportWriter.html" target="_top" xlink:title="ReportWriter">
<polygon fill="#ffffff" stroke="#000000" points="731,-408.9731 731,-427.9731 803,-427.9731 803,-408.9731 731,-408.9731"/>
<text text-anchor="middle" x="767" y="-415.9731" font-family="Helvetica,sans-Serif" font-size="10.00" fill="#000000">ReportWriter</text>
</a>
</g>
</g>
<!-- Node16&#45;&gt;Node15 -->
<g id="edge20" class="edge">
<title>Node16&#45;&gt;Node15</title>
<path fill="none" stroke="#191970" d="M813.1131,-411.7191C833.0836,-408.7144 856.7166,-405.0518 878,-401.4731 883.8144,-400.4955 889.9117,-399.4311 895.9484,-398.3534"/>
<polygon fill="#191970" stroke="#191970" points="812.4077,-408.2856 803.0355,-413.2265 813.4433,-415.2085 812.4077,-408.2856"/>
</g>
<!-- Node17&#45;&gt;Node1 -->
<g id="edge22" class="edge">
<title>Node17&#45;&gt;Node1</title>
<path fill="none" stroke="#9a32cd" stroke-dasharray="5,2" d="M975.3161,-244.2835C1007.6399,-259.114 1058.316,-284.6149 1097,-314.4731 1107.072,-322.2472 1116.862,-333.0647 1123.3298,-340.8084"/>
<polygon fill="#9a32cd" stroke="#9a32cd" points="976.4613,-240.9603 965.9074,-240.0305 973.578,-247.3389 976.4613,-240.9603"/>
<text text-anchor="middle" x="1053" y="-328.4731" font-family="Helvetica,sans-Serif" font-size="10.00" fill="#000000"> IDELogger</text>
<text text-anchor="middle" x="1053" y="-317.4731" font-family="Helvetica,sans-Serif" font-size="10.00" fill="#000000">DebugLogger</text>
</g>
<!-- Node18&#45;&gt;Node17 -->
<g id="edge23" class="edge">
<title>Node18&#45;&gt;Node17</title>
<path fill="none" stroke="#191970" d="M783.3886,-47.5315C805.3453,-70.5333 845.3309,-112.9431 878,-150.4731 899.6856,-175.3854 924.0355,-205.8144 936.017,-220.9601"/>
<polygon fill="#191970" stroke="#191970" points="785.8581,-45.0498 776.4156,-40.2447 780.8006,-49.8895 785.8581,-45.0498"/>
</g>
<!-- Node19&#45;&gt;Node18 -->
<g id="edge24" class="edge">
<title>Node19&#45;&gt;Node18</title>
<path fill="none" stroke="#191970" d="M600.0217,-30.4731C643.4085,-30.4731 709.1378,-30.4731 743.7691,-30.4731"/>
<polygon fill="#191970" stroke="#191970" points="599.7753,-26.9732 589.7752,-30.4731 599.7752,-33.9732 599.7753,-26.9732"/>
</g>
<!-- Node20 -->
<g id="node20" class="node">
<title>Node20</title>
<g id="a_node20"><a xlink:href="classcs_1_1aworx_1_1lox_1_1core_1_1textlogger_1_1ObjectConverter.html" target="_top" xlink:title="ObjectConverter">
<polygon fill="#ffffff" stroke="#000000" points="723,-239.9731 723,-258.9731 811,-258.9731 811,-239.9731 723,-239.9731"/>
<text text-anchor="middle" x="767" y="-246.9731" font-family="Helvetica,sans-Serif" font-size="10.00" fill="#000000">ObjectConverter</text>
</a>
</g>
</g>
<!-- Node20&#45;&gt;Node17 -->
<g id="edge28" class="edge">
<title>Node20&#45;&gt;Node17</title>
<path fill="none" stroke="#9a32cd" stroke-dasharray="5,2" d="M821.1714,-243.6417C850.4649,-240.4883 885.677,-236.6977 910.7855,-233.9948"/>
<polygon fill="#9a32cd" stroke="#9a32cd" points="820.651,-240.1774 811.0831,-244.7276 821.4003,-247.1372 820.651,-240.1774"/>
<text text-anchor="middle" x="853.5" y="-246.4731" font-family="Helvetica,sans-Serif" font-size="10.00" fill="#000000"> Converter</text>
</g>
<!-- Node21&#45;&gt;Node17 -->
<g id="edge29" class="edge">
<title>Node21&#45;&gt;Node17</title>
<path fill="none" stroke="#9a32cd" stroke-dasharray="5,2" d="M595.58,-156.786C656.6526,-158.2874 779.6255,-165.4492 878,-197.4731 895.9196,-203.3065 915.0116,-213.4246 927.9312,-220.9235"/>
<polygon fill="#9a32cd" stroke="#9a32cd" points="595.3378,-153.2803 585.2675,-156.5726 595.1929,-160.2788 595.3378,-153.2803"/>
<text text-anchor="middle" x="767" y="-182.4731" font-family="Helvetica,sans-Serif" font-size="10.00" fill="#000000"> MetaInfo</text>
</g>
<!-- Node22&#45;&gt;Node21 -->
<g id="edge31" class="edge">
<title>Node22&#45;&gt;Node21</title>
<path fill="none" stroke="#9a32cd" stroke-dasharray="5,2" d="M357.1842,-131.4857C406.0732,-137.5841 487.3229,-147.7192 529.7603,-153.0129"/>
<polygon fill="#9a32cd" stroke="#9a32cd" points="357.3296,-127.9768 346.9732,-130.212 356.4631,-134.923 357.3296,-127.9768"/>
<text text-anchor="middle" x="434.5" y="-149.4731" font-family="Helvetica,sans-Serif" font-size="10.00" fill="#000000"> tTok</text>
</g>
<!-- Node23 -->
<g id="node23" class="node">
<title>Node23</title>
<g id="a_node23"><a xlink:href="classcs_1_1aworx_1_1lib_1_1strings_1_1util_1_1AutoSizes.html" target="_top" xlink:title="AutoSizes">
<polygon fill="#ffffff" stroke="#000000" points="736,-277.9731 736,-296.9731 798,-296.9731 798,-277.9731 736,-277.9731"/>
<text text-anchor="middle" x="767" y="-284.9731" font-family="Helvetica,sans-Serif" font-size="10.00" fill="#000000">AutoSizes</text>
</a>
</g>
</g>
<!-- Node23&#45;&gt;Node17 -->
<g id="edge34" class="edge">
<title>Node23&#45;&gt;Node17</title>
<path fill="none" stroke="#9a32cd" stroke-dasharray="5,2" d="M808.3858,-278.2083C829.4492,-273.1042 855.3277,-266.2329 878,-258.4731 893.4449,-253.187 910.3766,-245.9079 923.1556,-240.0964"/>
<polygon fill="#9a32cd" stroke="#9a32cd" points="807.3858,-274.8484 798.4676,-280.5681 809.0061,-281.6583 807.3858,-274.8484"/>
<text text-anchor="middle" x="853.5" y="-276.4731" font-family="Helvetica,sans-Serif" font-size="10.00" fill="#000000"> AutoSizes</text>
</g>
</g>
</svg>
