<?xml version="1.0" encoding="UTF-8" standalone="no"?>
<!DOCTYPE svg PUBLIC "-//W3C//DTD SVG 1.1//EN"
 "http://www.w3.org/Graphics/SVG/1.1/DTD/svg11.dtd">
<!-- Generated by graphviz version 2.40.1 (20161225.0304)
 -->
<!-- Title: FormatterStdImpl Pages: 1 -->
<svg width="466pt" height="219pt"
 viewBox="0.00 0.00 465.69 219.00" xmlns="http://www.w3.org/2000/svg" xmlns:xlink="http://www.w3.org/1999/xlink">
<g id="graph0" class="graph" transform="scale(1 1) rotate(0) translate(4 215)">
<title>FormatterStdImpl</title>
<polygon fill="#ffffff" stroke="transparent" points="-4,4 -4,-215 461.6946,-215 461.6946,4 -4,4"/>
<!-- Node4 -->
<g id="node1" class="node">
<title>Node4</title>
<polygon fill="#bfbfbf" stroke="#000000" points="153.1946,-.5 153.1946,-19.5 245.1946,-19.5 245.1946,-.5 153.1946,-.5"/>
<text text-anchor="middle" x="199.1946" y="-7.5" font-family="Helvetica,sans-Serif" font-size="10.00" fill="#000000">FormatterStdImpl</text>
</g>
<!-- Node5 -->
<g id="node2" class="node">
<title>Node5</title>
<g id="a_node2"><a xlink:href="classcs_1_1aworx_1_1lib_1_1strings_1_1Formatter.html" target="_top" xlink:title="Formatter">
<polygon fill="#ffffff" stroke="#000000" points="88.6946,-96 88.6946,-115 147.6946,-115 147.6946,-96 88.6946,-96"/>
<text text-anchor="middle" x="118.1946" y="-103" font-family="Helvetica,sans-Serif" font-size="10.00" fill="#000000">Formatter</text>
</a>
</g>
</g>
<!-- Node5&#45;&gt;Node4 -->
<g id="edge1" class="edge">
<title>Node5&#45;&gt;Node4</title>
<path fill="none" stroke="#191970" d="M132.8305,-88.2441C149.8251,-68.2073 177.2664,-35.8537 190.9233,-19.7519"/>
<polygon fill="#191970" stroke="#191970" points="130.0565,-86.1037 126.2573,-95.994 135.3949,-90.6316 130.0565,-86.1037"/>
</g>
<!-- Node5&#45;&gt;Node5 -->
<g id="edge2" class="edge">
<title>Node5&#45;&gt;Node5</title>
<path fill="none" stroke="#9a32cd" stroke-dasharray="5,2" d="M157.8669,-113.5566C162.6022,-112.0918 165.6946,-109.4063 165.6946,-105.5 165.6946,-99.25 157.7779,-96.125 147.8821,-96.125"/>
<polygon fill="#9a32cd" stroke="#9a32cd" points="157.3379,-110.096 147.8821,-114.875 158.2542,-117.0358 157.3379,-110.096"/>
<text text-anchor="middle" x="177.6946" y="-103" font-family="Helvetica,sans-Serif" font-size="10.00" fill="#000000"> Next</text>
</g>
<!-- Node6 -->
<g id="node3" class="node">
<title>Node6</title>
<g id="a_node3"><a xlink:href="classcs_1_1aworx_1_1lib_1_1strings_1_1Substring.html" target="_top" xlink:title="Substring">
<polygon fill="#ffffff" stroke="#000000" points="1.1946,-191.5 1.1946,-210.5 59.1946,-210.5 59.1946,-191.5 1.1946,-191.5"/>
<text text-anchor="middle" x="30.1946" y="-198.5" font-family="Helvetica,sans-Serif" font-size="10.00" fill="#000000">Substring</text>
</a>
</g>
</g>
<!-- Node6&#45;&gt;Node4 -->
<g id="edge5" class="edge">
<title>Node6&#45;&gt;Node4</title>
<path fill="none" stroke="#9a32cd" stroke-dasharray="5,2" d="M19.0677,-182.3952C6.5147,-158.7281 -9.8281,-117.511 9.1946,-89 41.0172,-41.3048 107.6206,-22.3624 152.8844,-14.867"/>
<polygon fill="#9a32cd" stroke="#9a32cd" points="16.1588,-184.3638 24.1014,-191.3756 22.265,-180.9412 16.1588,-184.3638"/>
<text text-anchor="middle" x="44.1946" y="-114" font-family="Helvetica,sans-Serif" font-size="10.00" fill="#000000"> formatString</text>
<text text-anchor="middle" x="44.1946" y="-103" font-family="Helvetica,sans-Serif" font-size="10.00" fill="#000000">phaFormatSpec</text>
<text text-anchor="middle" x="44.1946" y="-92" font-family="Helvetica,sans-Serif" font-size="10.00" fill="#000000">parser</text>
</g>
<!-- Node6&#45;&gt;Node5 -->
<g id="edge3" class="edge">
<title>Node6&#45;&gt;Node5</title>
<path fill="none" stroke="#9a32cd" stroke-dasharray="5,2" d="M45.8487,-184.0117C64.2921,-163.9965 94.3051,-131.4255 109.2085,-115.2519"/>
<polygon fill="#9a32cd" stroke="#9a32cd" points="43.1567,-181.7682 38.9541,-191.494 48.3044,-186.5117 43.1567,-181.7682"/>
<text text-anchor="middle" x="123.1946" y="-154" font-family="Helvetica,sans-Serif" font-size="10.00" fill="#000000"> lamFormatString</text>
</g>
<!-- Node7 -->
<g id="node4" class="node">
<title>Node7</title>
<g id="a_node4"><a xlink:href="classcs_1_1aworx_1_1lib_1_1strings_1_1AString.html" target="_top" xlink:title="AString">
<polygon fill="#ffffff" stroke="#000000" points="236.6946,-191.5 236.6946,-210.5 285.6946,-210.5 285.6946,-191.5 236.6946,-191.5"/>
<text text-anchor="middle" x="261.1946" y="-198.5" font-family="Helvetica,sans-Serif" font-size="10.00" fill="#000000">AString</text>
</a>
</g>
</g>
<!-- Node7&#45;&gt;Node4 -->
<g id="edge4" class="edge">
<title>Node7&#45;&gt;Node4</title>
<path fill="none" stroke="#9a32cd" stroke-dasharray="5,2" d="M254.8883,-181.5724C241.8305,-141.3461 212.2342,-50.1704 202.4224,-19.9437"/>
<polygon fill="#9a32cd" stroke="#9a32cd" points="251.6182,-182.8349 258.0348,-191.2657 258.2762,-180.6736 251.6182,-182.8349"/>
<text text-anchor="middle" x="261.6946" y="-108.5" font-family="Helvetica,sans-Serif" font-size="10.00" fill="#000000"> fieldBuffer</text>
<text text-anchor="middle" x="261.6946" y="-97.5" font-family="Helvetica,sans-Serif" font-size="10.00" fill="#000000">targetString</text>
</g>
<!-- Node8 -->
<g id="node5" class="node">
<title>Node8</title>
<g id="a_node5"><a xlink:href="classcs_1_1aworx_1_1lib_1_1strings_1_1NumberFormat.html" target="_top" xlink:title="NumberFormat">
<polygon fill="#ffffff" stroke="#000000" points="295.6946,-96 295.6946,-115 376.6946,-115 376.6946,-96 295.6946,-96"/>
<text text-anchor="middle" x="336.1946" y="-103" font-family="Helvetica,sans-Serif" font-size="10.00" fill="#000000">NumberFormat</text>
</a>
</g>
</g>
<!-- Node7&#45;&gt;Node8 -->
<g id="edge7" class="edge">
<title>Node7&#45;&gt;Node8</title>
<path fill="none" stroke="#9a32cd" stroke-dasharray="5,2" d="M274.9577,-183.475C290.7087,-163.4188 315.9471,-131.2818 328.536,-115.2519"/>
<polygon fill="#9a32cd" stroke="#9a32cd" points="272.0839,-181.4676 268.6601,-191.494 277.5891,-185.7911 272.0839,-181.4676"/>
<text text-anchor="middle" x="342.6946" y="-165" font-family="Helvetica,sans-Serif" font-size="10.00" fill="#000000"> OctLiteralPrefix</text>
<text text-anchor="middle" x="342.6946" y="-154" font-family="Helvetica,sans-Serif" font-size="10.00" fill="#000000">BinLiteralPrefix</text>
<text text-anchor="middle" x="342.6946" y="-143" font-family="Helvetica,sans-Serif" font-size="10.00" fill="#000000">HexLiteralPrefix</text>
</g>
<!-- Node8&#45;&gt;Node4 -->
<g id="edge6" class="edge">
<title>Node8&#45;&gt;Node4</title>
<path fill="none" stroke="#9a32cd" stroke-dasharray="5,2" d="M314.3783,-90.0335C294.9591,-76.2968 265.7535,-55.7118 240.1946,-38 231.2679,-31.814 221.1962,-24.9343 213.2691,-19.5424"/>
<polygon fill="#9a32cd" stroke="#9a32cd" points="312.3796,-92.9069 322.5638,-95.8282 316.4242,-87.1936 312.3796,-92.9069"/>
<text text-anchor="middle" x="340.1946" y="-63" font-family="Helvetica,sans-Serif" font-size="10.00" fill="#000000"> DefaultNumberFormat</text>
<text text-anchor="middle" x="340.1946" y="-52" font-family="Helvetica,sans-Serif" font-size="10.00" fill="#000000">AlternativeNumberFormat</text>
<text text-anchor="middle" x="340.1946" y="-41" font-family="Helvetica,sans-Serif" font-size="10.00" fill="#000000">phaNF</text>
</g>
<!-- Node8&#45;&gt;Node8 -->
<g id="edge8" class="edge">
<title>Node8&#45;&gt;Node8</title>
<path fill="none" stroke="#9a32cd" stroke-dasharray="5,2" d="M387.0182,-112.9914C391.7264,-111.4456 394.6946,-108.9485 394.6946,-105.5 394.6946,-99.9824 387.0959,-96.9003 376.9296,-96.2537"/>
<polygon fill="#9a32cd" stroke="#9a32cd" points="386.1818,-109.5842 376.9296,-114.7463 387.3815,-116.4806 386.1818,-109.5842"/>
<text text-anchor="middle" x="426.1946" y="-108.5" font-family="Helvetica,sans-Serif" font-size="10.00" fill="#000000"> Global</text>
<text text-anchor="middle" x="426.1946" y="-97.5" font-family="Helvetica,sans-Serif" font-size="10.00" fill="#000000">Computational</text>
</g>
</g>
</svg>
