<?xml version="1.0" encoding="UTF-8" standalone="no"?>
<!DOCTYPE svg PUBLIC "-//W3C//DTD SVG 1.1//EN"
 "http://www.w3.org/Graphics/SVG/1.1/DTD/svg11.dtd">
<!-- Generated by graphviz version 2.40.1 (20161225.0304)
 -->
<!-- Title: IniFile.Entry Pages: 1 -->
<svg width="789pt" height="590pt"
 viewBox="0.00 0.00 788.50 590.00" xmlns="http://www.w3.org/2000/svg" xmlns:xlink="http://www.w3.org/1999/xlink">
<g id="graph0" class="graph" transform="scale(1 1) rotate(0) translate(4 586)">
<title>IniFile.Entry</title>
<polygon fill="#ffffff" stroke="transparent" points="-4,4 -4,-586 784.5,-586 784.5,4 -4,4"/>
<!-- Node2 -->
<g id="node1" class="node">
<title>Node2</title>
<polygon fill="#bfbfbf" stroke="#000000" points="0,-.5 0,-19.5 69,-19.5 69,-.5 0,-.5"/>
<text text-anchor="middle" x="34.5" y="-7.5" font-family="Helvetica,sans-Serif" font-size="10.00" fill="#000000">IniFile.Entry</text>
</g>
<!-- Node3 -->
<g id="node2" class="node">
<title>Node3</title>
<g id="a_node2"><a xlink:href="classcs_1_1aworx_1_1lib_1_1config_1_1InMemoryPlugin_1_1Entry.html" target="_top" xlink:title="Entry">
<polygon fill="#ffffff" stroke="#000000" points="54.5,-57.5 54.5,-76.5 94.5,-76.5 94.5,-57.5 54.5,-57.5"/>
<text text-anchor="middle" x="74.5" y="-64.5" font-family="Helvetica,sans-Serif" font-size="10.00" fill="#000000">Entry</text>
</a>
</g>
</g>
<!-- Node3&#45;&gt;Node2 -->
<g id="edge1" class="edge">
<title>Node3&#45;&gt;Node2</title>
<path fill="none" stroke="#191970" d="M61.9044,-49.0513C55.04,-39.2695 46.8205,-27.5567 41.1852,-19.5265"/>
<polygon fill="#191970" stroke="#191970" points="59.1053,-51.1556 67.7145,-57.3307 64.8352,-47.1346 59.1053,-51.1556"/>
</g>
<!-- Node4 -->
<g id="node3" class="node">
<title>Node4</title>
<g id="a_node3"><a xlink:href="classcs_1_1aworx_1_1lib_1_1strings_1_1AString.html" target="_top" xlink:title="AString">
<polygon fill="#ffffff" stroke="#000000" points="177,-562.5 177,-581.5 226,-581.5 226,-562.5 177,-562.5"/>
<text text-anchor="middle" x="201.5" y="-569.5" font-family="Helvetica,sans-Serif" font-size="10.00" fill="#000000">AString</text>
</a>
</g>
</g>
<!-- Node4&#45;&gt;Node2 -->
<g id="edge22" class="edge">
<title>Node4&#45;&gt;Node2</title>
<path fill="none" stroke="#9a32cd" stroke-dasharray="5,2" d="M166.5676,-568.8417C141.2182,-565.4231 106.7397,-558.3836 79.5,-544 44.1787,-525.349 13.5,-522.9432 13.5,-483 13.5,-483 13.5,-483 13.5,-67 13.5,-49.4935 22.3299,-30.7239 28.5384,-19.6902"/>
<polygon fill="#9a32cd" stroke="#9a32cd" points="166.4741,-572.3562 176.825,-570.0959 167.3237,-565.408 166.4741,-572.3562"/>
<text text-anchor="middle" x="36.5" y="-237.5" font-family="Helvetica,sans-Serif" font-size="10.00" fill="#000000"> RawValue</text>
</g>
<!-- Node4&#45;&gt;Node3 -->
<g id="edge2" class="edge">
<title>Node4&#45;&gt;Node3</title>
<path fill="none" stroke="#9a32cd" stroke-dasharray="5,2" d="M166.6156,-563.6603C129.019,-552.3483 74.5,-528.1593 74.5,-483 74.5,-483 74.5,-483 74.5,-134 74.5,-113.5278 74.5,-89.5369 74.5,-76.5418"/>
<polygon fill="#9a32cd" stroke="#9a32cd" points="166.1365,-567.162 176.7116,-566.5161 168.0418,-560.4263 166.1365,-567.162"/>
<text text-anchor="middle" x="98.5" y="-283" font-family="Helvetica,sans-Serif" font-size="10.00" fill="#000000"> Name</text>
<text text-anchor="middle" x="98.5" y="-272" font-family="Helvetica,sans-Serif" font-size="10.00" fill="#000000">Comments</text>
</g>
<!-- Node5 -->
<g id="node4" class="node">
<title>Node5</title>
<g id="a_node4"><a xlink:href="classcs_1_1aworx_1_1lib_1_1config_1_1Variable.html" target="_top" xlink:title="Variable">
<polygon fill="#ffffff" stroke="#000000" points="125,-124.5 125,-143.5 176,-143.5 176,-124.5 125,-124.5"/>
<text text-anchor="middle" x="150.5" y="-131.5" font-family="Helvetica,sans-Serif" font-size="10.00" fill="#000000">Variable</text>
</a>
</g>
</g>
<!-- Node4&#45;&gt;Node5 -->
<g id="edge21" class="edge">
<title>Node4&#45;&gt;Node5</title>
<path fill="none" stroke="#9a32cd" stroke-dasharray="5,2" d="M184.593,-554.9936C169.7468,-538.1907 150.5,-511.0066 150.5,-483 150.5,-483 150.5,-483 150.5,-201 150.5,-180.5278 150.5,-156.5369 150.5,-143.5418"/>
<polygon fill="#9a32cd" stroke="#9a32cd" points="182.0602,-557.4097 191.424,-562.3664 187.195,-552.6522 182.0602,-557.4097"/>
<text text-anchor="middle" x="178" y="-356" font-family="Helvetica,sans-Serif" font-size="10.00" fill="#000000"> Fullname</text>
<text text-anchor="middle" x="178" y="-345" font-family="Helvetica,sans-Serif" font-size="10.00" fill="#000000">Category</text>
<text text-anchor="middle" x="178" y="-334" font-family="Helvetica,sans-Serif" font-size="10.00" fill="#000000">DefaultValue</text>
<text text-anchor="middle" x="178" y="-323" font-family="Helvetica,sans-Serif" font-size="10.00" fill="#000000">Name</text>
<text text-anchor="middle" x="178" y="-312" font-family="Helvetica,sans-Serif" font-size="10.00" fill="#000000">Comments</text>
</g>
<!-- Node6 -->
<g id="node5" class="node">
<title>Node6</title>
<g id="a_node5"><a xlink:href="classcs_1_1aworx_1_1lib_1_1config_1_1Configuration.html" target="_top" xlink:title="Configuration">
<polygon fill="#ffffff" stroke="#000000" points="371.5,-191.5 371.5,-210.5 445.5,-210.5 445.5,-191.5 371.5,-191.5"/>
<text text-anchor="middle" x="408.5" y="-198.5" font-family="Helvetica,sans-Serif" font-size="10.00" fill="#000000">Configuration</text>
</a>
</g>
</g>
<!-- Node4&#45;&gt;Node6 -->
<g id="edge6" class="edge">
<title>Node4&#45;&gt;Node6</title>
<path fill="none" stroke="#9a32cd" stroke-dasharray="5,2" d="M199.4144,-552.2312C196.2134,-517.5082 191.4495,-443.4186 201.5,-382 202.5696,-375.4637 235.1664,-274.0088 239.5,-269 273.2295,-230.0152 332.521,-213.1072 371.1486,-205.9674"/>
<polygon fill="#9a32cd" stroke="#9a32cd" points="195.9547,-552.8129 200.4164,-562.4224 202.9211,-552.1279 195.9547,-552.8129"/>
<text text-anchor="middle" x="257" y="-407" font-family="Helvetica,sans-Serif" font-size="10.00" fill="#000000"> SubstitutionVariableStart</text>
<text text-anchor="middle" x="257" y="-396" font-family="Helvetica,sans-Serif" font-size="10.00" fill="#000000">tmpConversion</text>
<text text-anchor="middle" x="257" y="-385" font-family="Helvetica,sans-Serif" font-size="10.00" fill="#000000">SubstitutionVariableEnd</text>
</g>
<!-- Node7 -->
<g id="node6" class="node">
<title>Node7</title>
<g id="a_node6"><a xlink:href="classcs_1_1aworx_1_1lib_1_1config_1_1EnvironmentPlugin.html" target="_top" xlink:title="EnvironmentPlugin">
<polygon fill="#ffffff" stroke="#000000" points="248.5,-270.5 248.5,-289.5 346.5,-289.5 346.5,-270.5 248.5,-270.5"/>
<text text-anchor="middle" x="297.5" y="-277.5" font-family="Helvetica,sans-Serif" font-size="10.00" fill="#000000">EnvironmentPlugin</text>
</a>
</g>
</g>
<!-- Node4&#45;&gt;Node7 -->
<g id="edge12" class="edge">
<title>Node4&#45;&gt;Node7</title>
<path fill="none" stroke="#9a32cd" stroke-dasharray="5,2" d="M219.5578,-555.292C246.8055,-528.7074 297.2857,-473.7478 316.5,-415 331.2888,-369.7834 311.1416,-312.3475 301.802,-289.7551"/>
<polygon fill="#9a32cd" stroke="#9a32cd" points="217.0267,-552.8697 212.2203,-562.3116 221.8657,-557.9278 217.0267,-552.8697"/>
<text text-anchor="middle" x="326.5" y="-441.5" font-family="Helvetica,sans-Serif" font-size="10.00" fill="#000000"> tmpAS</text>
</g>
<!-- Node9 -->
<g id="node8" class="node">
<title>Node9</title>
<g id="a_node8"><a xlink:href="classcs_1_1aworx_1_1lib_1_1config_1_1XTernalizer.html" target="_top" xlink:title="XTernalizer">
<polygon fill="#ffffff" stroke="#000000" points="375,-473.5 375,-492.5 440,-492.5 440,-473.5 375,-473.5"/>
<text text-anchor="middle" x="407.5" y="-480.5" font-family="Helvetica,sans-Serif" font-size="10.00" fill="#000000">XTernalizer</text>
</a>
</g>
</g>
<!-- Node4&#45;&gt;Node9 -->
<g id="edge10" class="edge">
<title>Node4&#45;&gt;Node9</title>
<path fill="none" stroke="#9a32cd" stroke-dasharray="5,2" d="M236.5094,-568.31C275.253,-563.7559 334.8269,-555.2179 354.5,-544 376.4369,-531.4913 393.7274,-506.4155 402.0603,-492.6292"/>
<polygon fill="#9a32cd" stroke="#9a32cd" points="235.7234,-564.8769 226.1845,-569.4878 236.5168,-571.8318 235.7234,-564.8769"/>
<text text-anchor="middle" x="406.5" y="-525" font-family="Helvetica,sans-Serif" font-size="10.00" fill="#000000"> tmpAS</text>
</g>
<!-- Node13 -->
<g id="node12" class="node">
<title>Node13</title>
<g id="a_node12"><a xlink:href="classcs_1_1aworx_1_1lib_1_1strings_1_1NumberFormat.html" target="_top" xlink:title="NumberFormat">
<polygon fill="#ffffff" stroke="#000000" points="510,-434.5 510,-453.5 591,-453.5 591,-434.5 510,-434.5"/>
<text text-anchor="middle" x="550.5" y="-441.5" font-family="Helvetica,sans-Serif" font-size="10.00" fill="#000000">NumberFormat</text>
</a>
</g>
</g>
<!-- Node4&#45;&gt;Node13 -->
<g id="edge19" class="edge">
<title>Node4&#45;&gt;Node13</title>
<path fill="none" stroke="#9a32cd" stroke-dasharray="5,2" d="M236.5226,-570.025C291.1627,-566.5491 393.9149,-558.3163 427.5,-544 477.6275,-522.6323 523.7933,-474.4972 542.1391,-453.7828"/>
<polygon fill="#9a32cd" stroke="#9a32cd" points="236.0365,-566.5482 226.2709,-570.6571 236.4674,-573.535 236.0365,-566.5482"/>
<text text-anchor="middle" x="516" y="-536" font-family="Helvetica,sans-Serif" font-size="10.00" fill="#000000"> OctLiteralPrefix</text>
<text text-anchor="middle" x="516" y="-525" font-family="Helvetica,sans-Serif" font-size="10.00" fill="#000000">BinLiteralPrefix</text>
<text text-anchor="middle" x="516" y="-514" font-family="Helvetica,sans-Serif" font-size="10.00" fill="#000000">HexLiteralPrefix</text>
</g>
<!-- Node5&#45;&gt;Node3 -->
<g id="edge3" class="edge">
<title>Node5&#45;&gt;Node3</title>
<path fill="none" stroke="#9a32cd" stroke-dasharray="5,2" d="M131.7156,-117.44C117.137,-104.5879 97.4375,-87.2212 85.3687,-76.5817"/>
<polygon fill="#9a32cd" stroke="#9a32cd" points="129.7952,-120.413 139.6111,-124.4005 134.4243,-115.1621 129.7952,-120.413"/>
<text text-anchor="middle" x="146" y="-98" font-family="Helvetica,sans-Serif" font-size="10.00" fill="#000000"> FormatHints</text>
</g>
<!-- Node6&#45;&gt;Node5 -->
<g id="edge4" class="edge">
<title>Node6&#45;&gt;Node5</title>
<path fill="none" stroke="#9a32cd" stroke-dasharray="5,2" d="M362.0609,-188.9402C307.6501,-174.8103 219.4416,-151.9034 176.14,-140.6584"/>
<polygon fill="#9a32cd" stroke="#9a32cd" points="361.2502,-192.3457 371.8089,-191.4717 363.0097,-185.5705 361.2502,-192.3457"/>
<text text-anchor="middle" x="311" y="-165" font-family="Helvetica,sans-Serif" font-size="10.00" fill="#000000"> Config</text>
</g>
<!-- Node6&#45;&gt;Node6 -->
<g id="edge5" class="edge">
<title>Node6&#45;&gt;Node6</title>
<path fill="none" stroke="#9a32cd" stroke-dasharray="5,2" d="M455.6857,-205.9222C460.4569,-204.9454 463.5,-203.3047 463.5,-201 463.5,-197.3125 455.7097,-195.3247 445.5153,-195.0366"/>
<polygon fill="#9a32cd" stroke="#9a32cd" points="455.1068,-202.4631 445.5153,-206.9634 455.8198,-209.4267 455.1068,-202.4631"/>
<text text-anchor="middle" x="480.5" y="-198.5" font-family="Helvetica,sans-Serif" font-size="10.00" fill="#000000"> Default</text>
</g>
<!-- Node7&#45;&gt;Node6 -->
<g id="edge7" class="edge">
<title>Node7&#45;&gt;Node6</title>
<path fill="none" stroke="#9a32cd" stroke-dasharray="5,2" d="M311.4166,-262.4111C320.5387,-251.7288 333.2036,-238.3883 346.5,-229 357.1128,-221.5065 370.0524,-215.283 381.3597,-210.6217"/>
<polygon fill="#9a32cd" stroke="#9a32cd" points="308.5854,-260.3427 304.916,-270.2818 313.9826,-264.8004 308.5854,-260.3427"/>
<text text-anchor="middle" x="375.5" y="-237.5" font-family="Helvetica,sans-Serif" font-size="10.00" fill="#000000"> Environment</text>
</g>
<!-- Node8 -->
<g id="node7" class="node">
<title>Node8</title>
<g id="a_node7"><a xlink:href="classcs_1_1aworx_1_1lib_1_1config_1_1ConfigurationPlugin.html" target="_top" xlink:title="ConfigurationPlugin">
<polygon fill="#ffffff" stroke="#000000" points="369,-389 369,-408 470,-408 470,-389 369,-389"/>
<text text-anchor="middle" x="419.5" y="-396" font-family="Helvetica,sans-Serif" font-size="10.00" fill="#000000">ConfigurationPlugin</text>
</a>
</g>
</g>
<!-- Node8&#45;&gt;Node7 -->
<g id="edge8" class="edge">
<title>Node8&#45;&gt;Node7</title>
<path fill="none" stroke="#191970" d="M409.505,-379.8362C398.2446,-360.1998 378.364,-329.3733 354.5,-309 345.0424,-300.9258 332.9501,-294.3658 322.3386,-289.5405"/>
<polygon fill="#191970" stroke="#191970" points="406.531,-381.6898 414.4518,-388.7263 412.6478,-378.2862 406.531,-381.6898"/>
</g>
<!-- Node11 -->
<g id="node10" class="node">
<title>Node11</title>
<g id="a_node10"><a xlink:href="classcs_1_1aworx_1_1lib_1_1config_1_1InMemoryPlugin.html" target="_top" xlink:title="InMemoryPlugin">
<polygon fill="#ffffff" stroke="#000000" points="365,-270.5 365,-289.5 452,-289.5 452,-270.5 365,-270.5"/>
<text text-anchor="middle" x="408.5" y="-277.5" font-family="Helvetica,sans-Serif" font-size="10.00" fill="#000000">InMemoryPlugin</text>
</a>
</g>
</g>
<!-- Node8&#45;&gt;Node11 -->
<g id="edge14" class="edge">
<title>Node8&#45;&gt;Node11</title>
<path fill="none" stroke="#191970" d="M417.6607,-378.6861C415.265,-352.878 411.172,-308.7851 409.3819,-289.5002"/>
<polygon fill="#191970" stroke="#191970" points="414.1904,-379.169 418.5998,-388.8026 421.1605,-378.5219 414.1904,-379.169"/>
</g>
<!-- Node12 -->
<g id="node11" class="node">
<title>Node12</title>
<g id="a_node11"><a xlink:href="classcs_1_1aworx_1_1lib_1_1config_1_1CommandLinePlugin.html" target="_top" xlink:title="CommandLinePlugin">
<polygon fill="#ffffff" stroke="#000000" points="470.5,-270.5 470.5,-289.5 576.5,-289.5 576.5,-270.5 470.5,-270.5"/>
<text text-anchor="middle" x="523.5" y="-277.5" font-family="Helvetica,sans-Serif" font-size="10.00" fill="#000000">CommandLinePlugin</text>
</a>
</g>
</g>
<!-- Node8&#45;&gt;Node12 -->
<g id="edge17" class="edge">
<title>Node8&#45;&gt;Node12</title>
<path fill="none" stroke="#191970" d="M434.805,-381.0611C457.0887,-355.6706 497.7059,-309.3904 515.1623,-289.5002"/>
<polygon fill="#191970" stroke="#191970" points="431.9765,-378.978 428.0108,-388.8026 437.2376,-383.5954 431.9765,-378.978"/>
</g>
<!-- Node9&#45;&gt;Node8 -->
<g id="edge9" class="edge">
<title>Node9&#45;&gt;Node8</title>
<path fill="none" stroke="#9a32cd" stroke-dasharray="5,2" d="M403.2822,-463.4502C401.9459,-454.1398 401.3157,-442.9016 403.5,-433 405.4627,-424.1027 409.9588,-414.7725 413.6866,-408.0616"/>
<polygon fill="#9a32cd" stroke="#9a32cd" points="399.8381,-464.074 405.0489,-473.2989 406.7281,-462.838 399.8381,-464.074"/>
<text text-anchor="middle" x="452" y="-447" font-family="Helvetica,sans-Serif" font-size="10.00" fill="#000000"> StringConverter</text>
<text text-anchor="middle" x="452" y="-436" font-family="Helvetica,sans-Serif" font-size="10.00" fill="#000000">defaultStringConverter</text>
</g>
<!-- Node10 -->
<g id="node9" class="node">
<title>Node10</title>
<g id="a_node9"><a xlink:href="classcs_1_1aworx_1_1lib_1_1strings_1_1Substring.html" target="_top" xlink:title="Substring">
<polygon fill="#ffffff" stroke="#000000" points="618.5,-562.5 618.5,-581.5 676.5,-581.5 676.5,-562.5 618.5,-562.5"/>
<text text-anchor="middle" x="647.5" y="-569.5" font-family="Helvetica,sans-Serif" font-size="10.00" fill="#000000">Substring</text>
</a>
</g>
</g>
<!-- Node10&#45;&gt;Node6 -->
<g id="edge15" class="edge">
<title>Node10&#45;&gt;Node6</title>
<path fill="none" stroke="#9a32cd" stroke-dasharray="5,2" d="M661.2098,-553.7161C672.789,-536.4328 687.5,-509.2997 687.5,-483 687.5,-483 687.5,-483 687.5,-280 687.5,-230.2874 521.4425,-210.2599 445.549,-203.7027"/>
<polygon fill="#9a32cd" stroke="#9a32cd" points="658.1061,-552.0447 655.2124,-562.2367 663.8304,-556.0738 658.1061,-552.0447"/>
<text text-anchor="middle" x="734" y="-407" font-family="Helvetica,sans-Serif" font-size="10.00" fill="#000000"> tmpReplVarCategory</text>
<text text-anchor="middle" x="734" y="-396" font-family="Helvetica,sans-Serif" font-size="10.00" fill="#000000">tmpReplVarName</text>
<text text-anchor="middle" x="734" y="-385" font-family="Helvetica,sans-Serif" font-size="10.00" fill="#000000">tmpReplVarAll</text>
</g>
<!-- Node10&#45;&gt;Node9 -->
<g id="edge11" class="edge">
<title>Node10&#45;&gt;Node9</title>
<path fill="none" stroke="#9a32cd" stroke-dasharray="5,2" d="M628.8281,-555.7181C611.7005,-541.674 585.034,-521.9722 558.5,-511 519.694,-494.9532 471.4821,-488.0531 440.1265,-485.1189"/>
<polygon fill="#9a32cd" stroke="#9a32cd" points="626.9563,-558.7168 636.864,-562.4703 631.4595,-553.3575 626.9563,-558.7168"/>
<text text-anchor="middle" x="636.5" y="-530.5" font-family="Helvetica,sans-Serif" font-size="10.00" fill="#000000"> tmpSubs2</text>
<text text-anchor="middle" x="636.5" y="-519.5" font-family="Helvetica,sans-Serif" font-size="10.00" fill="#000000">tmpSubs</text>
</g>
<!-- Node11&#45;&gt;Node6 -->
<g id="edge13" class="edge">
<title>Node11&#45;&gt;Node6</title>
<path fill="none" stroke="#9a32cd" stroke-dasharray="5,2" d="M408.5,-260.0339C408.5,-244.2875 408.5,-223.0062 408.5,-210.7662"/>
<polygon fill="#9a32cd" stroke="#9a32cd" points="405.0001,-260.313 408.5,-270.313 412.0001,-260.3131 405.0001,-260.313"/>
<text text-anchor="middle" x="446" y="-243" font-family="Helvetica,sans-Serif" font-size="10.00" fill="#000000"> ProtectedValues</text>
<text text-anchor="middle" x="446" y="-232" font-family="Helvetica,sans-Serif" font-size="10.00" fill="#000000">DefaultValues</text>
</g>
<!-- Node12&#45;&gt;Node6 -->
<g id="edge16" class="edge">
<title>Node12&#45;&gt;Node6</title>
<path fill="none" stroke="#9a32cd" stroke-dasharray="5,2" d="M514.1057,-261.3198C507.8599,-250.5583 498.7435,-237.5186 487.5,-229 475.3218,-219.7732 459.8435,-213.4049 445.8209,-209.1024"/>
<polygon fill="#9a32cd" stroke="#9a32cd" points="511.1687,-263.246 519.0133,-270.3673 517.3218,-259.9083 511.1687,-263.246"/>
<text text-anchor="middle" x="528.5" y="-237.5" font-family="Helvetica,sans-Serif" font-size="10.00" fill="#000000"> CmdLine</text>
</g>
<!-- Node13&#45;&gt;Node6 -->
<g id="edge18" class="edge">
<title>Node13&#45;&gt;Node6</title>
<path fill="none" stroke="#9a32cd" stroke-dasharray="5,2" d="M560.7585,-424.9892C576.9599,-392.3511 604.7488,-323.8742 585.5,-269 577.9641,-247.5167 572.9872,-240.7716 553.5,-229 535.7242,-218.2622 482.3804,-209.9018 445.6027,-205.2098"/>
<polygon fill="#9a32cd" stroke="#9a32cd" points="557.4487,-423.7714 555.9798,-434.264 563.6714,-426.9776 557.4487,-423.7714"/>
<text text-anchor="middle" x="625.5" y="-334" font-family="Helvetica,sans-Serif" font-size="10.00" fill="#000000"> NumberFormat</text>
</g>
<!-- Node13&#45;&gt;Node13 -->
<g id="edge20" class="edge">
<title>Node13&#45;&gt;Node13</title>
<path fill="none" stroke="#9a32cd" stroke-dasharray="5,2" d="M601.3235,-449.6934C606.0317,-448.5187 609,-446.6208 609,-444 609,-439.8066 601.4013,-437.4643 591.235,-436.9728"/>
<polygon fill="#9a32cd" stroke="#9a32cd" points="600.69,-446.2467 591.235,-451.0272 601.6075,-453.1863 600.69,-446.2467"/>
<text text-anchor="middle" x="640.5" y="-447" font-family="Helvetica,sans-Serif" font-size="10.00" fill="#000000"> Global</text>
<text text-anchor="middle" x="640.5" y="-436" font-family="Helvetica,sans-Serif" font-size="10.00" fill="#000000">Computational</text>
</g>
</g>
</svg>
