<?xml version="1.0" encoding="UTF-8" standalone="no"?>
<!DOCTYPE svg PUBLIC "-//W3C//DTD SVG 1.1//EN"
 "http://www.w3.org/Graphics/SVG/1.1/DTD/svg11.dtd">
<!-- Generated by graphviz version 2.40.1 (20161225.0304)
 -->
<!-- Title: InMemoryPlugin.Entry Pages: 1 -->
<svg width="576pt" height="377pt"
 viewBox="0.00 0.00 575.50 377.00" xmlns="http://www.w3.org/2000/svg" xmlns:xlink="http://www.w3.org/1999/xlink">
<g id="graph0" class="graph" transform="scale(1 1) rotate(0) translate(4 373)">
<title>InMemoryPlugin.Entry</title>
<polygon fill="#ffffff" stroke="transparent" points="-4,4 -4,-373 571.5,-373 571.5,4 -4,4"/>
<!-- Node2 -->
<g id="node1" class="node">
<title>Node2</title>
<polygon fill="#bfbfbf" stroke="#000000" points="0,-.5 0,-19.5 113,-19.5 113,-.5 0,-.5"/>
<text text-anchor="middle" x="56.5" y="-7.5" font-family="Helvetica,sans-Serif" font-size="10.00" fill="#000000">InMemoryPlugin.Entry</text>
</g>
<!-- Node3 -->
<g id="node2" class="node">
<title>Node3</title>
<g id="a_node2"><a xlink:href="classcs_1_1aworx_1_1lib_1_1strings_1_1AString.html" target="_top" xlink:title="AString">
<polygon fill="#ffffff" stroke="#000000" points="116,-349.5 116,-368.5 165,-368.5 165,-349.5 116,-349.5"/>
<text text-anchor="middle" x="140.5" y="-356.5" font-family="Helvetica,sans-Serif" font-size="10.00" fill="#000000">AString</text>
</a>
</g>
</g>
<!-- Node3&#45;&gt;Node2 -->
<g id="edge1" class="edge">
<title>Node3&#45;&gt;Node2</title>
<path fill="none" stroke="#9a32cd" stroke-dasharray="5,2" d="M108.7026,-344.9051C79.4234,-329.5134 40.5,-301.8415 40.5,-263.5 40.5,-263.5 40.5,-263.5 40.5,-77 40.5,-56.1913 47.8916,-32.7171 52.6268,-19.8139"/>
<polygon fill="#9a32cd" stroke="#9a32cd" points="107.3002,-348.1171 117.8085,-349.4689 110.4367,-341.8591 107.3002,-348.1171"/>
<text text-anchor="middle" x="65" y="-148" font-family="Helvetica,sans-Serif" font-size="10.00" fill="#000000"> Name</text>
<text text-anchor="middle" x="65" y="-137" font-family="Helvetica,sans-Serif" font-size="10.00" fill="#000000">Comments</text>
</g>
<!-- Node4 -->
<g id="node3" class="node">
<title>Node4</title>
<g id="a_node3"><a xlink:href="classcs_1_1aworx_1_1lib_1_1config_1_1Variable.html" target="_top" xlink:title="Variable">
<polygon fill="#ffffff" stroke="#000000" points="92,-67.5 92,-86.5 143,-86.5 143,-67.5 92,-67.5"/>
<text text-anchor="middle" x="117.5" y="-74.5" font-family="Helvetica,sans-Serif" font-size="10.00" fill="#000000">Variable</text>
</a>
</g>
</g>
<!-- Node3&#45;&gt;Node4 -->
<g id="edge9" class="edge">
<title>Node3&#45;&gt;Node4</title>
<path fill="none" stroke="#9a32cd" stroke-dasharray="5,2" d="M138.8951,-339.3225C134.3648,-283.7765 121.5927,-127.1804 118.2884,-86.6662"/>
<polygon fill="#9a32cd" stroke="#9a32cd" points="135.4069,-339.6106 139.7083,-349.2929 142.3837,-339.0415 135.4069,-339.6106"/>
<text text-anchor="middle" x="158.5" y="-221" font-family="Helvetica,sans-Serif" font-size="10.00" fill="#000000"> Fullname</text>
<text text-anchor="middle" x="158.5" y="-210" font-family="Helvetica,sans-Serif" font-size="10.00" fill="#000000">Category</text>
<text text-anchor="middle" x="158.5" y="-199" font-family="Helvetica,sans-Serif" font-size="10.00" fill="#000000">DefaultValue</text>
<text text-anchor="middle" x="158.5" y="-188" font-family="Helvetica,sans-Serif" font-size="10.00" fill="#000000">Name</text>
<text text-anchor="middle" x="158.5" y="-177" font-family="Helvetica,sans-Serif" font-size="10.00" fill="#000000">Comments</text>
</g>
<!-- Node5 -->
<g id="node4" class="node">
<title>Node5</title>
<g id="a_node4"><a xlink:href="classcs_1_1aworx_1_1lib_1_1config_1_1Configuration.html" target="_top" xlink:title="Configuration">
<polygon fill="#ffffff" stroke="#000000" points="213.5,-135.5 213.5,-154.5 287.5,-154.5 287.5,-135.5 213.5,-135.5"/>
<text text-anchor="middle" x="250.5" y="-142.5" font-family="Helvetica,sans-Serif" font-size="10.00" fill="#000000">Configuration</text>
</a>
</g>
</g>
<!-- Node3&#45;&gt;Node5 -->
<g id="edge4" class="edge">
<title>Node3&#45;&gt;Node5</title>
<path fill="none" stroke="#9a32cd" stroke-dasharray="5,2" d="M146.7807,-339.6412C154.4576,-316.9003 168.4283,-278.3038 184.5,-247 202.8036,-211.3491 230.2934,-172.4316 243.2512,-154.7344"/>
<polygon fill="#9a32cd" stroke="#9a32cd" points="143.3603,-338.8364 143.5361,-349.4297 150.0048,-341.0389 143.3603,-338.8364"/>
<text text-anchor="middle" x="240" y="-272" font-family="Helvetica,sans-Serif" font-size="10.00" fill="#000000"> SubstitutionVariableStart</text>
<text text-anchor="middle" x="240" y="-261" font-family="Helvetica,sans-Serif" font-size="10.00" fill="#000000">tmpConversion</text>
<text text-anchor="middle" x="240" y="-250" font-family="Helvetica,sans-Serif" font-size="10.00" fill="#000000">SubstitutionVariableEnd</text>
</g>
<!-- Node7 -->
<g id="node6" class="node">
<title>Node7</title>
<g id="a_node6"><a xlink:href="classcs_1_1aworx_1_1lib_1_1strings_1_1NumberFormat.html" target="_top" xlink:title="NumberFormat">
<polygon fill="#ffffff" stroke="#000000" points="304.5,-254 304.5,-273 386.5,-273 386.5,-254 304.5,-254"/>
<text text-anchor="middle" x="345.5" y="-261" font-family="Helvetica,sans-Serif" font-size="10.00" fill="#000000">NumberFormat</text>
</a>
</g>
</g>
<!-- Node3&#45;&gt;Node7 -->
<g id="edge7" class="edge">
<title>Node3&#45;&gt;Node7</title>
<path fill="none" stroke="#9a32cd" stroke-dasharray="5,2" d="M170.0918,-345.2145C212.2023,-325.5972 288.3508,-290.1232 324.8726,-273.1093"/>
<polygon fill="#9a32cd" stroke="#9a32cd" points="168.4923,-342.0985 160.9057,-349.494 171.4483,-348.4437 168.4923,-342.0985"/>
<text text-anchor="middle" x="303" y="-323" font-family="Helvetica,sans-Serif" font-size="10.00" fill="#000000"> OctLiteralPrefix</text>
<text text-anchor="middle" x="303" y="-312" font-family="Helvetica,sans-Serif" font-size="10.00" fill="#000000">BinLiteralPrefix</text>
<text text-anchor="middle" x="303" y="-301" font-family="Helvetica,sans-Serif" font-size="10.00" fill="#000000">HexLiteralPrefix</text>
</g>
<!-- Node4&#45;&gt;Node2 -->
<g id="edge2" class="edge">
<title>Node4&#45;&gt;Node2</title>
<path fill="none" stroke="#9a32cd" stroke-dasharray="5,2" d="M101.7626,-59.7147C90.1329,-46.941 74.7293,-30.0224 65.2236,-19.5817"/>
<polygon fill="#9a32cd" stroke="#9a32cd" points="99.4399,-62.3624 108.7602,-67.4005 104.616,-57.6498 99.4399,-62.3624"/>
<text text-anchor="middle" x="120.5" y="-41" font-family="Helvetica,sans-Serif" font-size="10.00" fill="#000000"> FormatHints</text>
</g>
<!-- Node5&#45;&gt;Node4 -->
<g id="edge3" class="edge">
<title>Node5&#45;&gt;Node4</title>
<path fill="none" stroke="#9a32cd" stroke-dasharray="5,2" d="M222.7586,-130.8164C196.7907,-117.5396 158.7098,-98.0697 136.1781,-86.5497"/>
<polygon fill="#9a32cd" stroke="#9a32cd" points="221.2294,-133.9655 231.7264,-135.4015 224.416,-127.7328 221.2294,-133.9655"/>
<text text-anchor="middle" x="208.5" y="-108" font-family="Helvetica,sans-Serif" font-size="10.00" fill="#000000"> Config</text>
</g>
<!-- Node6 -->
<g id="node5" class="node">
<title>Node6</title>
<g id="a_node5"><a xlink:href="classcs_1_1aworx_1_1lib_1_1strings_1_1Substring.html" target="_top" xlink:title="Substring">
<polygon fill="#ffffff" stroke="#000000" points="486.5,-254 486.5,-273 544.5,-273 544.5,-254 486.5,-254"/>
<text text-anchor="middle" x="515.5" y="-261" font-family="Helvetica,sans-Serif" font-size="10.00" fill="#000000">Substring</text>
</a>
</g>
</g>
<!-- Node6&#45;&gt;Node5 -->
<g id="edge5" class="edge">
<title>Node6&#45;&gt;Node5</title>
<path fill="none" stroke="#9a32cd" stroke-dasharray="5,2" d="M497.8521,-247.1411C474.9044,-226.7983 432.7422,-192.5015 390.5,-174 357.4186,-159.5108 316.7169,-152.1238 287.7434,-148.4463"/>
<polygon fill="#9a32cd" stroke="#9a32cd" points="495.6315,-249.8515 505.4018,-253.9494 500.3194,-244.6531 495.6315,-249.8515"/>
<text text-anchor="middle" x="520.5" y="-210" font-family="Helvetica,sans-Serif" font-size="10.00" fill="#000000"> tmpReplVarCategory</text>
<text text-anchor="middle" x="520.5" y="-199" font-family="Helvetica,sans-Serif" font-size="10.00" fill="#000000">tmpReplVarName</text>
<text text-anchor="middle" x="520.5" y="-188" font-family="Helvetica,sans-Serif" font-size="10.00" fill="#000000">tmpReplVarAll</text>
</g>
<!-- Node7&#45;&gt;Node5 -->
<g id="edge6" class="edge">
<title>Node7&#45;&gt;Node5</title>
<path fill="none" stroke="#9a32cd" stroke-dasharray="5,2" d="M331.253,-245.7287C310.842,-220.2687 273.9926,-174.304 258.1162,-154.5002"/>
<polygon fill="#9a32cd" stroke="#9a32cd" points="328.7399,-248.1896 337.7258,-253.8026 334.2015,-243.8111 328.7399,-248.1896"/>
<text text-anchor="middle" x="352" y="-199" font-family="Helvetica,sans-Serif" font-size="10.00" fill="#000000"> NumberFormat</text>
</g>
<!-- Node7&#45;&gt;Node7 -->
<g id="edge8" class="edge">
<title>Node7&#45;&gt;Node7</title>
<path fill="none" stroke="#9a32cd" stroke-dasharray="5,2" d="M396.7579,-270.9914C401.5064,-269.4456 404.5,-266.9485 404.5,-263.5 404.5,-257.9824 396.8363,-254.9003 386.5831,-254.2537"/>
<polygon fill="#9a32cd" stroke="#9a32cd" points="395.8427,-267.5975 386.5831,-272.7463 397.0325,-274.4956 395.8427,-267.5975"/>
<text text-anchor="middle" x="436.5" y="-266.5" font-family="Helvetica,sans-Serif" font-size="10.00" fill="#000000"> Global</text>
<text text-anchor="middle" x="436.5" y="-255.5" font-family="Helvetica,sans-Serif" font-size="10.00" fill="#000000">Computational</text>
</g>
</g>
</svg>
