<?xml version="1.0" encoding="UTF-8" standalone="no"?>
<!DOCTYPE svg PUBLIC "-//W3C//DTD SVG 1.1//EN"
 "http://www.w3.org/Graphics/SVG/1.1/DTD/svg11.dtd">
<!-- Generated by graphviz version 2.40.1 (20161225.0304)
 -->
<!-- Title: StandardConverter Pages: 1 -->
<svg width="682pt" height="479pt"
 viewBox="0.00 0.00 682.00 479.00" xmlns="http://www.w3.org/2000/svg" xmlns:xlink="http://www.w3.org/1999/xlink">
<g id="graph0" class="graph" transform="scale(1 1) rotate(0) translate(4 475)">
<title>StandardConverter</title>
<polygon fill="#ffffff" stroke="transparent" points="-4,4 -4,-475 678,-475 678,4 -4,4"/>
<!-- Node2 -->
<g id="node1" class="node">
<title>Node2</title>
<polygon fill="#bfbfbf" stroke="#000000" points="112.5,-.5 112.5,-19.5 210.5,-19.5 210.5,-.5 112.5,-.5"/>
<text text-anchor="middle" x="161.5" y="-7.5" font-family="Helvetica,sans-Serif" font-size="10.00" fill="#000000">StandardConverter</text>
</g>
<!-- Node3 -->
<g id="node2" class="node">
<title>Node3</title>
<g id="a_node2"><a xlink:href="classcs_1_1aworx_1_1lox_1_1core_1_1textlogger_1_1ObjectConverter.html" target="_top" xlink:title="ObjectConverter">
<polygon fill="#ffffff" stroke="#000000" points="0,-67.5 0,-86.5 87,-86.5 87,-67.5 0,-67.5"/>
<text text-anchor="middle" x="43.5" y="-74.5" font-family="Helvetica,sans-Serif" font-size="10.00" fill="#000000">ObjectConverter</text>
</a>
</g>
</g>
<!-- Node3&#45;&gt;Node2 -->
<g id="edge1" class="edge">
<title>Node3&#45;&gt;Node2</title>
<path fill="none" stroke="#191970" d="M69.2405,-62.3846C92.1247,-49.391 124.9233,-30.7681 144.6248,-19.5817"/>
<polygon fill="#191970" stroke="#191970" points="67.3744,-59.4193 60.4065,-67.4005 70.8307,-65.5065 67.3744,-59.4193"/>
</g>
<!-- Node4 -->
<g id="node3" class="node">
<title>Node4</title>
<g id="a_node3"><a xlink:href="classcs_1_1aworx_1_1lib_1_1strings_1_1format_1_1FormatterPythonStyle.html" target="_top" xlink:title="FormatterPythonStyle">
<polygon fill="#ffffff" stroke="#000000" points="105.5,-67.5 105.5,-86.5 217.5,-86.5 217.5,-67.5 105.5,-67.5"/>
<text text-anchor="middle" x="161.5" y="-74.5" font-family="Helvetica,sans-Serif" font-size="10.00" fill="#000000">FormatterPythonStyle</text>
</a>
</g>
</g>
<!-- Node4&#45;&gt;Node2 -->
<g id="edge2" class="edge">
<title>Node4&#45;&gt;Node2</title>
<path fill="none" stroke="#9a32cd" stroke-dasharray="5,2" d="M161.5,-57.1079C161.5,-44.714 161.5,-29.3263 161.5,-19.5817"/>
<polygon fill="#9a32cd" stroke="#9a32cd" points="158.0001,-57.4005 161.5,-67.4005 165.0001,-57.4006 158.0001,-57.4005"/>
<text text-anchor="middle" x="191" y="-41" font-family="Helvetica,sans-Serif" font-size="10.00" fill="#000000"> FormatterPS</text>
</g>
<!-- Node5 -->
<g id="node4" class="node">
<title>Node5</title>
<g id="a_node4"><a xlink:href="classcs_1_1aworx_1_1lib_1_1strings_1_1format_1_1FormatterStdImpl.html" target="_top" xlink:title="FormatterStdImpl">
<polygon fill="#ffffff" stroke="#000000" points="240.5,-134.5 240.5,-153.5 332.5,-153.5 332.5,-134.5 240.5,-134.5"/>
<text text-anchor="middle" x="286.5" y="-141.5" font-family="Helvetica,sans-Serif" font-size="10.00" fill="#000000">FormatterStdImpl</text>
</a>
</g>
</g>
<!-- Node5&#45;&gt;Node4 -->
<g id="edge3" class="edge">
<title>Node5&#45;&gt;Node4</title>
<path fill="none" stroke="#191970" d="M259.5551,-129.5575C235.2998,-116.5567 200.3393,-97.8179 179.3762,-86.5817"/>
<polygon fill="#191970" stroke="#191970" points="258.1233,-132.7611 268.5905,-134.4005 261.4303,-126.5915 258.1233,-132.7611"/>
</g>
<!-- Node14 -->
<g id="node13" class="node">
<title>Node14</title>
<g id="a_node13"><a xlink:href="classcs_1_1aworx_1_1lib_1_1strings_1_1format_1_1FormatterJavaStyle.html" target="_top" xlink:title="FormatterJavaStyle">
<polygon fill="#ffffff" stroke="#000000" points="235.5,-67.5 235.5,-86.5 337.5,-86.5 337.5,-67.5 235.5,-67.5"/>
<text text-anchor="middle" x="286.5" y="-74.5" font-family="Helvetica,sans-Serif" font-size="10.00" fill="#000000">FormatterJavaStyle</text>
</a>
</g>
</g>
<!-- Node5&#45;&gt;Node14 -->
<g id="edge19" class="edge">
<title>Node5&#45;&gt;Node14</title>
<path fill="none" stroke="#191970" d="M286.5,-124.1079C286.5,-111.714 286.5,-96.3263 286.5,-86.5817"/>
<polygon fill="#191970" stroke="#191970" points="283.0001,-124.4005 286.5,-134.4005 290.0001,-124.4006 283.0001,-124.4005"/>
</g>
<!-- Node6 -->
<g id="node5" class="node">
<title>Node6</title>
<g id="a_node5"><a xlink:href="classcs_1_1aworx_1_1lib_1_1strings_1_1format_1_1Formatter.html" target="_top" xlink:title="Formatter">
<polygon fill="#ffffff" stroke="#000000" points="257,-230 257,-249 316,-249 316,-230 257,-230"/>
<text text-anchor="middle" x="286.5" y="-237" font-family="Helvetica,sans-Serif" font-size="10.00" fill="#000000">Formatter</text>
</a>
</g>
</g>
<!-- Node6&#45;&gt;Node5 -->
<g id="edge4" class="edge">
<title>Node6&#45;&gt;Node5</title>
<path fill="none" stroke="#191970" d="M286.5,-219.7712C286.5,-199.6337 286.5,-169.2067 286.5,-153.7519"/>
<polygon fill="#191970" stroke="#191970" points="283.0001,-219.9939 286.5,-229.994 290.0001,-219.994 283.0001,-219.9939"/>
</g>
<!-- Node6&#45;&gt;Node6 -->
<g id="edge6" class="edge">
<title>Node6&#45;&gt;Node6</title>
<path fill="none" stroke="#9a32cd" stroke-dasharray="5,2" d="M326.1722,-247.5566C330.9076,-246.0918 334,-243.4063 334,-239.5 334,-233.25 326.0833,-230.125 316.1875,-230.125"/>
<polygon fill="#9a32cd" stroke="#9a32cd" points="325.6433,-244.096 316.1875,-248.875 326.5596,-251.0358 325.6433,-244.096"/>
<text text-anchor="middle" x="370" y="-242.5" font-family="Helvetica,sans-Serif" font-size="10.00" fill="#000000"> Next</text>
<text text-anchor="middle" x="370" y="-231.5" font-family="Helvetica,sans-Serif" font-size="10.00" fill="#000000">defaultFormatter</text>
</g>
<!-- Node7 -->
<g id="node6" class="node">
<title>Node7</title>
<g id="a_node6"><a xlink:href="classcs_1_1aworx_1_1lib_1_1strings_1_1Substring.html" target="_top" xlink:title="Substring">
<polygon fill="#ffffff" stroke="#000000" points="139.5,-325.5 139.5,-344.5 197.5,-344.5 197.5,-325.5 139.5,-325.5"/>
<text text-anchor="middle" x="168.5" y="-332.5" font-family="Helvetica,sans-Serif" font-size="10.00" fill="#000000">Substring</text>
</a>
</g>
</g>
<!-- Node7&#45;&gt;Node4 -->
<g id="edge16" class="edge">
<title>Node7&#45;&gt;Node4</title>
<path fill="none" stroke="#9a32cd" stroke-dasharray="5,2" d="M157.0325,-316.8677C142.3862,-292.5309 117.821,-247.4383 108.5,-205 98.2838,-158.486 135.5757,-107.353 152.998,-86.571"/>
<polygon fill="#9a32cd" stroke="#9a32cd" points="154.0634,-318.7211 162.2819,-325.4074 160.0268,-315.0553 154.0634,-318.7211"/>
<text text-anchor="middle" x="148.5" y="-191.5" font-family="Helvetica,sans-Serif" font-size="10.00" fill="#000000"> conversion</text>
<text text-anchor="middle" x="148.5" y="-180.5" font-family="Helvetica,sans-Serif" font-size="10.00" fill="#000000">phaExtConversion</text>
</g>
<!-- Node7&#45;&gt;Node5 -->
<g id="edge12" class="edge">
<title>Node7&#45;&gt;Node5</title>
<path fill="none" stroke="#9a32cd" stroke-dasharray="5,2" d="M165.571,-315.0634C163.1168,-291.4744 162.2462,-251.7768 178.5,-223 197.6937,-189.0181 238.2074,-165.615 263.7925,-153.5408"/>
<polygon fill="#9a32cd" stroke="#9a32cd" points="162.1279,-315.7392 166.8348,-325.231 169.0745,-314.8757 162.1279,-315.7392"/>
<text text-anchor="middle" x="213.5" y="-248" font-family="Helvetica,sans-Serif" font-size="10.00" fill="#000000"> formatString</text>
<text text-anchor="middle" x="213.5" y="-237" font-family="Helvetica,sans-Serif" font-size="10.00" fill="#000000">phaFormatSpec</text>
<text text-anchor="middle" x="213.5" y="-226" font-family="Helvetica,sans-Serif" font-size="10.00" fill="#000000">parser</text>
</g>
<!-- Node7&#45;&gt;Node6 -->
<g id="edge5" class="edge">
<title>Node7&#45;&gt;Node6</title>
<path fill="none" stroke="#9a32cd" stroke-dasharray="5,2" d="M178.3554,-315.9934C185.9615,-302.819 197.5306,-285.6227 211.5,-274 219.653,-267.2166 243.4463,-256.7456 262.0707,-249.118"/>
<polygon fill="#9a32cd" stroke="#9a32cd" points="175.086,-314.6755 173.3374,-325.1251 181.2207,-318.0467 175.086,-314.6755"/>
<text text-anchor="middle" x="249.5" y="-288" font-family="Helvetica,sans-Serif" font-size="10.00" fill="#000000"> lamFormatString</text>
</g>
<!-- Node8 -->
<g id="node7" class="node">
<title>Node8</title>
<g id="a_node7"><a xlink:href="classcs_1_1aworx_1_1lib_1_1threads_1_1ThreadLock.html" target="_top" xlink:title="ThreadLock">
<polygon fill="#ffffff" stroke="#000000" points="266.5,-325.5 266.5,-344.5 334.5,-344.5 334.5,-325.5 266.5,-325.5"/>
<text text-anchor="middle" x="300.5" y="-332.5" font-family="Helvetica,sans-Serif" font-size="10.00" fill="#000000">ThreadLock</text>
</a>
</g>
</g>
<!-- Node8&#45;&gt;Node6 -->
<g id="edge7" class="edge">
<title>Node8&#45;&gt;Node6</title>
<path fill="none" stroke="#9a32cd" stroke-dasharray="5,2" d="M297.6489,-315.5515C294.6973,-295.4171 290.2058,-264.7786 287.9296,-249.2519"/>
<polygon fill="#9a32cd" stroke="#9a32cd" points="294.1929,-316.1074 299.1064,-325.494 301.1189,-315.092 294.1929,-316.1074"/>
<text text-anchor="middle" x="343.5" y="-288" font-family="Helvetica,sans-Serif" font-size="10.00" fill="#000000"> defaultFormatterLock</text>
</g>
<!-- Node9 -->
<g id="node8" class="node">
<title>Node9</title>
<g id="a_node8"><a xlink:href="classcs_1_1aworx_1_1lib_1_1time_1_1Ticks.html" target="_top" xlink:title="Ticks">
<polygon fill="#ffffff" stroke="#000000" points="280,-393.5 280,-412.5 321,-412.5 321,-393.5 280,-393.5"/>
<text text-anchor="middle" x="300.5" y="-400.5" font-family="Helvetica,sans-Serif" font-size="10.00" fill="#000000">Ticks</text>
</a>
</g>
</g>
<!-- Node9&#45;&gt;Node8 -->
<g id="edge8" class="edge">
<title>Node9&#45;&gt;Node8</title>
<path fill="none" stroke="#9a32cd" stroke-dasharray="5,2" d="M300.5,-383.1951C300.5,-370.5514 300.5,-354.7157 300.5,-344.7247"/>
<polygon fill="#9a32cd" stroke="#9a32cd" points="297.0001,-383.2572 300.5,-393.2573 304.0001,-383.2573 297.0001,-383.2572"/>
<text text-anchor="middle" x="322" y="-366" font-family="Helvetica,sans-Serif" font-size="10.00" fill="#000000"> waitTime</text>
</g>
<!-- Node9&#45;&gt;Node9 -->
<g id="edge10" class="edge">
<title>Node9&#45;&gt;Node9</title>
<path fill="none" stroke="#9a32cd" stroke-dasharray="5,2" d="M331.316,-407.7618C335.9,-407.02 339,-405.4327 339,-403 339,-399.0078 330.6518,-397.2924 321.0969,-397.8538"/>
<polygon fill="#9a32cd" stroke="#9a32cd" points="330.9583,-404.2727 321.0969,-408.1462 331.2214,-411.2678 330.9583,-404.2727"/>
<text text-anchor="middle" x="369.5" y="-406" font-family="Helvetica,sans-Serif" font-size="10.00" fill="#000000"> CreationTime</text>
<text text-anchor="middle" x="369.5" y="-395" font-family="Helvetica,sans-Serif" font-size="10.00" fill="#000000">tempTicks</text>
</g>
<!-- Node10 -->
<g id="node9" class="node">
<title>Node10</title>
<polygon fill="#ffffff" stroke="#bfbfbf" points="265,-451.5 265,-470.5 336,-470.5 336,-451.5 265,-451.5"/>
<text text-anchor="middle" x="300.5" y="-458.5" font-family="Helvetica,sans-Serif" font-size="10.00" fill="#000000">IFormattable</text>
</g>
<!-- Node10&#45;&gt;Node9 -->
<g id="edge9" class="edge">
<title>Node10&#45;&gt;Node9</title>
<path fill="none" stroke="#191970" d="M300.5,-441.153C300.5,-431.5796 300.5,-420.5235 300.5,-412.7856"/>
<polygon fill="#191970" stroke="#191970" points="297.0001,-441.4224 300.5,-451.4225 304.0001,-441.4225 297.0001,-441.4224"/>
</g>
<!-- Node11 -->
<g id="node10" class="node">
<title>Node11</title>
<g id="a_node10"><a xlink:href="classcs_1_1aworx_1_1lib_1_1strings_1_1AString.html" target="_top" xlink:title="AString">
<polygon fill="#ffffff" stroke="#000000" points="453,-325.5 453,-344.5 502,-344.5 502,-325.5 453,-325.5"/>
<text text-anchor="middle" x="477.5" y="-332.5" font-family="Helvetica,sans-Serif" font-size="10.00" fill="#000000">AString</text>
</a>
</g>
</g>
<!-- Node11&#45;&gt;Node5 -->
<g id="edge11" class="edge">
<title>Node11&#45;&gt;Node5</title>
<path fill="none" stroke="#9a32cd" stroke-dasharray="5,2" d="M470.4711,-315.8569C460.9376,-291.9102 442.0038,-250.6939 415.5,-223 384.4502,-190.556 337.3235,-166.2068 309.4515,-153.6141"/>
<polygon fill="#9a32cd" stroke="#9a32cd" points="467.2273,-317.1733 474.0799,-325.2537 473.7619,-314.6636 467.2273,-317.1733"/>
<text text-anchor="middle" x="465" y="-242.5" font-family="Helvetica,sans-Serif" font-size="10.00" fill="#000000"> fieldBuffer</text>
<text text-anchor="middle" x="465" y="-231.5" font-family="Helvetica,sans-Serif" font-size="10.00" fill="#000000">targetString</text>
</g>
<!-- Node12 -->
<g id="node11" class="node">
<title>Node12</title>
<g id="a_node11"><a xlink:href="classcs_1_1aworx_1_1lib_1_1strings_1_1NumberFormat.html" target="_top" xlink:title="NumberFormat">
<polygon fill="#ffffff" stroke="#000000" points="512,-230 512,-249 593,-249 593,-230 512,-230"/>
<text text-anchor="middle" x="552.5" y="-237" font-family="Helvetica,sans-Serif" font-size="10.00" fill="#000000">NumberFormat</text>
</a>
</g>
</g>
<!-- Node11&#45;&gt;Node12 -->
<g id="edge14" class="edge">
<title>Node11&#45;&gt;Node12</title>
<path fill="none" stroke="#9a32cd" stroke-dasharray="5,2" d="M491.2631,-317.475C507.0141,-297.4188 532.2525,-265.2818 544.8414,-249.2519"/>
<polygon fill="#9a32cd" stroke="#9a32cd" points="488.3893,-315.4676 484.9655,-325.494 493.8945,-319.7911 488.3893,-315.4676"/>
<text text-anchor="middle" x="559" y="-299" font-family="Helvetica,sans-Serif" font-size="10.00" fill="#000000"> OctLiteralPrefix</text>
<text text-anchor="middle" x="559" y="-288" font-family="Helvetica,sans-Serif" font-size="10.00" fill="#000000">BinLiteralPrefix</text>
<text text-anchor="middle" x="559" y="-277" font-family="Helvetica,sans-Serif" font-size="10.00" fill="#000000">HexLiteralPrefix</text>
</g>
<!-- Node12&#45;&gt;Node5 -->
<g id="edge13" class="edge">
<title>Node12&#45;&gt;Node5</title>
<path fill="none" stroke="#9a32cd" stroke-dasharray="5,2" d="M534.7054,-223.2169C516.4675,-207.4906 486.5927,-184.3005 456.5,-172 434.6266,-163.0592 374.9967,-154.4889 332.548,-149.2375"/>
<polygon fill="#9a32cd" stroke="#9a32cd" points="532.4108,-225.8599 542.225,-229.8513 537.042,-220.6109 532.4108,-225.8599"/>
<text text-anchor="middle" x="566.5" y="-197" font-family="Helvetica,sans-Serif" font-size="10.00" fill="#000000"> DefaultNumberFormat</text>
<text text-anchor="middle" x="566.5" y="-186" font-family="Helvetica,sans-Serif" font-size="10.00" fill="#000000">AlternativeNumberFormat</text>
<text text-anchor="middle" x="566.5" y="-175" font-family="Helvetica,sans-Serif" font-size="10.00" fill="#000000">phaNF</text>
</g>
<!-- Node12&#45;&gt;Node12 -->
<g id="edge15" class="edge">
<title>Node12&#45;&gt;Node12</title>
<path fill="none" stroke="#9a32cd" stroke-dasharray="5,2" d="M603.3235,-246.9914C608.0317,-245.4456 611,-242.9485 611,-239.5 611,-233.9824 603.4013,-230.9003 593.235,-230.2537"/>
<polygon fill="#9a32cd" stroke="#9a32cd" points="602.4872,-243.5842 593.235,-248.7463 603.6869,-250.4806 602.4872,-243.5842"/>
<text text-anchor="middle" x="642.5" y="-242.5" font-family="Helvetica,sans-Serif" font-size="10.00" fill="#000000"> Global</text>
<text text-anchor="middle" x="642.5" y="-231.5" font-family="Helvetica,sans-Serif" font-size="10.00" fill="#000000">Computational</text>
</g>
<!-- Node13 -->
<g id="node12" class="node">
<title>Node13</title>
<g id="a_node12"><a xlink:href="classcs_1_1aworx_1_1lib_1_1strings_1_1util_1_1AutoSizes.html" target="_top" xlink:title="AutoSizes">
<polygon fill="#ffffff" stroke="#000000" points="130.5,-134.5 130.5,-153.5 192.5,-153.5 192.5,-134.5 130.5,-134.5"/>
<text text-anchor="middle" x="161.5" y="-141.5" font-family="Helvetica,sans-Serif" font-size="10.00" fill="#000000">AutoSizes</text>
</a>
</g>
</g>
<!-- Node13&#45;&gt;Node4 -->
<g id="edge17" class="edge">
<title>Node13&#45;&gt;Node4</title>
<path fill="none" stroke="#9a32cd" stroke-dasharray="5,2" d="M161.5,-124.1079C161.5,-111.714 161.5,-96.3263 161.5,-86.5817"/>
<polygon fill="#9a32cd" stroke="#9a32cd" points="158.0001,-124.4005 161.5,-134.4005 165.0001,-124.4006 158.0001,-124.4005"/>
<text text-anchor="middle" x="185" y="-108" font-family="Helvetica,sans-Serif" font-size="10.00" fill="#000000"> autoSizes</text>
</g>
<!-- Node14&#45;&gt;Node2 -->
<g id="edge18" class="edge">
<title>Node14&#45;&gt;Node2</title>
<path fill="none" stroke="#9a32cd" stroke-dasharray="5,2" d="M263.9801,-61.7413C252.4146,-54.1883 237.9581,-45.1759 224.5,-38 211.8262,-31.2422 197.1913,-24.6675 185.2186,-19.5891"/>
<polygon fill="#9a32cd" stroke="#9a32cd" points="262.2909,-64.8205 272.5612,-67.4228 266.1553,-58.9839 262.2909,-64.8205"/>
<text text-anchor="middle" x="272.5" y="-41" font-family="Helvetica,sans-Serif" font-size="10.00" fill="#000000"> FormatterJS</text>
</g>
</g>
</svg>
