<?xml version="1.0" encoding="UTF-8" standalone="no"?>
<!DOCTYPE svg PUBLIC "-//W3C//DTD SVG 1.1//EN"
 "http://www.w3.org/Graphics/SVG/1.1/DTD/svg11.dtd">
<!-- Generated by graphviz version 2.40.1 (20161225.0304)
 -->
<!-- Title: StandardConverter Pages: 1 -->
<svg width="618pt" height="353pt"
 viewBox="0.00 0.00 617.50 353.00" xmlns="http://www.w3.org/2000/svg" xmlns:xlink="http://www.w3.org/1999/xlink">
<g id="graph0" class="graph" transform="scale(1 1) rotate(0) translate(4 349)">
<title>StandardConverter</title>
<polygon fill="#ffffff" stroke="transparent" points="-4,4 -4,-349 613.5,-349 613.5,4 -4,4"/>
<!-- Node2 -->
<g id="node1" class="node">
<title>Node2</title>
<polygon fill="#bfbfbf" stroke="#000000" points="112.5,-.5 112.5,-19.5 210.5,-19.5 210.5,-.5 112.5,-.5"/>
<text text-anchor="middle" x="161.5" y="-7.5" font-family="Helvetica,sans-Serif" font-size="10.00" fill="#000000">StandardConverter</text>
</g>
<!-- Node3 -->
<g id="node2" class="node">
<title>Node3</title>
<g id="a_node2"><a xlink:href="classcs_1_1aworx_1_1lox_1_1core_1_1textlogger_1_1ObjectConverter.html" target="_top" xlink:title="ObjectConverter">
<polygon fill="#ffffff" stroke="#000000" points="0,-67.5 0,-86.5 87,-86.5 87,-67.5 0,-67.5"/>
<text text-anchor="middle" x="43.5" y="-74.5" font-family="Helvetica,sans-Serif" font-size="10.00" fill="#000000">ObjectConverter</text>
</a>
</g>
</g>
<!-- Node3&#45;&gt;Node2 -->
<g id="edge1" class="edge">
<title>Node3&#45;&gt;Node2</title>
<path fill="none" stroke="#191970" d="M69.2405,-62.3846C92.1247,-49.391 124.9233,-30.7681 144.6248,-19.5817"/>
<polygon fill="#191970" stroke="#191970" points="67.3744,-59.4193 60.4065,-67.4005 70.8307,-65.5065 67.3744,-59.4193"/>
</g>
<!-- Node4 -->
<g id="node3" class="node">
<title>Node4</title>
<g id="a_node3"><a xlink:href="classcs_1_1aworx_1_1lib_1_1strings_1_1FormatterPythonStyle.html" target="_top" xlink:title="FormatterPythonStyle">
<polygon fill="#ffffff" stroke="#000000" points="105.5,-67.5 105.5,-86.5 217.5,-86.5 217.5,-67.5 105.5,-67.5"/>
<text text-anchor="middle" x="161.5" y="-74.5" font-family="Helvetica,sans-Serif" font-size="10.00" fill="#000000">FormatterPythonStyle</text>
</a>
</g>
</g>
<!-- Node4&#45;&gt;Node2 -->
<g id="edge2" class="edge">
<title>Node4&#45;&gt;Node2</title>
<path fill="none" stroke="#9a32cd" stroke-dasharray="5,2" d="M161.5,-57.1079C161.5,-44.714 161.5,-29.3263 161.5,-19.5817"/>
<polygon fill="#9a32cd" stroke="#9a32cd" points="158.0001,-57.4005 161.5,-67.4005 165.0001,-57.4006 158.0001,-57.4005"/>
<text text-anchor="middle" x="191" y="-41" font-family="Helvetica,sans-Serif" font-size="10.00" fill="#000000"> FormatterPS</text>
</g>
<!-- Node5 -->
<g id="node4" class="node">
<title>Node5</title>
<g id="a_node4"><a xlink:href="classcs_1_1aworx_1_1lib_1_1strings_1_1FormatterStdImpl.html" target="_top" xlink:title="FormatterStdImpl">
<polygon fill="#ffffff" stroke="#000000" points="240.5,-134.5 240.5,-153.5 332.5,-153.5 332.5,-134.5 240.5,-134.5"/>
<text text-anchor="middle" x="286.5" y="-141.5" font-family="Helvetica,sans-Serif" font-size="10.00" fill="#000000">FormatterStdImpl</text>
</a>
</g>
</g>
<!-- Node5&#45;&gt;Node4 -->
<g id="edge3" class="edge">
<title>Node5&#45;&gt;Node4</title>
<path fill="none" stroke="#191970" d="M259.5551,-129.5575C235.2998,-116.5567 200.3393,-97.8179 179.3762,-86.5817"/>
<polygon fill="#191970" stroke="#191970" points="258.1233,-132.7611 268.5905,-134.4005 261.4303,-126.5915 258.1233,-132.7611"/>
</g>
<!-- Node11 -->
<g id="node10" class="node">
<title>Node11</title>
<g id="a_node10"><a xlink:href="classcs_1_1aworx_1_1lib_1_1strings_1_1FormatterJavaStyle.html" target="_top" xlink:title="FormatterJavaStyle">
<polygon fill="#ffffff" stroke="#000000" points="235.5,-67.5 235.5,-86.5 337.5,-86.5 337.5,-67.5 235.5,-67.5"/>
<text text-anchor="middle" x="286.5" y="-74.5" font-family="Helvetica,sans-Serif" font-size="10.00" fill="#000000">FormatterJavaStyle</text>
</a>
</g>
</g>
<!-- Node5&#45;&gt;Node11 -->
<g id="edge15" class="edge">
<title>Node5&#45;&gt;Node11</title>
<path fill="none" stroke="#191970" d="M286.5,-124.1079C286.5,-111.714 286.5,-96.3263 286.5,-86.5817"/>
<polygon fill="#191970" stroke="#191970" points="283.0001,-124.4005 286.5,-134.4005 290.0001,-124.4006 283.0001,-124.4005"/>
</g>
<!-- Node6 -->
<g id="node5" class="node">
<title>Node6</title>
<g id="a_node5"><a xlink:href="classcs_1_1aworx_1_1lib_1_1strings_1_1Formatter.html" target="_top" xlink:title="Formatter">
<polygon fill="#ffffff" stroke="#000000" points="257,-230 257,-249 316,-249 316,-230 257,-230"/>
<text text-anchor="middle" x="286.5" y="-237" font-family="Helvetica,sans-Serif" font-size="10.00" fill="#000000">Formatter</text>
</a>
</g>
</g>
<!-- Node6&#45;&gt;Node5 -->
<g id="edge4" class="edge">
<title>Node6&#45;&gt;Node5</title>
<path fill="none" stroke="#191970" d="M286.5,-219.7712C286.5,-199.6337 286.5,-169.2067 286.5,-153.7519"/>
<polygon fill="#191970" stroke="#191970" points="283.0001,-219.9939 286.5,-229.994 290.0001,-219.994 283.0001,-219.9939"/>
</g>
<!-- Node6&#45;&gt;Node6 -->
<g id="edge5" class="edge">
<title>Node6&#45;&gt;Node6</title>
<path fill="none" stroke="#9a32cd" stroke-dasharray="5,2" d="M326.1722,-247.5566C330.9076,-246.0918 334,-243.4063 334,-239.5 334,-233.25 326.0833,-230.125 316.1875,-230.125"/>
<polygon fill="#9a32cd" stroke="#9a32cd" points="325.6433,-244.096 316.1875,-248.875 326.5596,-251.0358 325.6433,-244.096"/>
<text text-anchor="middle" x="346" y="-237" font-family="Helvetica,sans-Serif" font-size="10.00" fill="#000000"> Next</text>
</g>
<!-- Node7 -->
<g id="node6" class="node">
<title>Node7</title>
<g id="a_node6"><a xlink:href="classcs_1_1aworx_1_1lib_1_1strings_1_1Substring.html" target="_top" xlink:title="Substring">
<polygon fill="#ffffff" stroke="#000000" points="139.5,-325.5 139.5,-344.5 197.5,-344.5 197.5,-325.5 139.5,-325.5"/>
<text text-anchor="middle" x="168.5" y="-332.5" font-family="Helvetica,sans-Serif" font-size="10.00" fill="#000000">Substring</text>
</a>
</g>
</g>
<!-- Node7&#45;&gt;Node4 -->
<g id="edge12" class="edge">
<title>Node7&#45;&gt;Node4</title>
<path fill="none" stroke="#9a32cd" stroke-dasharray="5,2" d="M155.2699,-316.742C138.6626,-292.5841 111.0712,-248.0171 100.5,-205 88.927,-157.9063 131.2884,-107.4939 151.4291,-86.7584"/>
<polygon fill="#9a32cd" stroke="#9a32cd" points="152.6235,-319.0635 161.2373,-325.2322 158.3504,-315.0382 152.6235,-319.0635"/>
<text text-anchor="middle" x="144.5" y="-191.5" font-family="Helvetica,sans-Serif" font-size="10.00" fill="#000000"> phaExtConversion</text>
<text text-anchor="middle" x="144.5" y="-180.5" font-family="Helvetica,sans-Serif" font-size="10.00" fill="#000000">parseExtConversion</text>
</g>
<!-- Node7&#45;&gt;Node5 -->
<g id="edge8" class="edge">
<title>Node7&#45;&gt;Node5</title>
<path fill="none" stroke="#9a32cd" stroke-dasharray="5,2" d="M165.571,-315.0634C163.1168,-291.4744 162.2462,-251.7768 178.5,-223 197.6937,-189.0181 238.2074,-165.615 263.7925,-153.5408"/>
<polygon fill="#9a32cd" stroke="#9a32cd" points="162.1279,-315.7392 166.8348,-325.231 169.0745,-314.8757 162.1279,-315.7392"/>
<text text-anchor="middle" x="213.5" y="-248" font-family="Helvetica,sans-Serif" font-size="10.00" fill="#000000"> formatString</text>
<text text-anchor="middle" x="213.5" y="-237" font-family="Helvetica,sans-Serif" font-size="10.00" fill="#000000">phaFormatSpec</text>
<text text-anchor="middle" x="213.5" y="-226" font-family="Helvetica,sans-Serif" font-size="10.00" fill="#000000">parser</text>
</g>
<!-- Node7&#45;&gt;Node6 -->
<g id="edge6" class="edge">
<title>Node7&#45;&gt;Node6</title>
<path fill="none" stroke="#9a32cd" stroke-dasharray="5,2" d="M188.1867,-319.0672C212.7843,-299.1598 254.1111,-265.7131 274.4505,-249.2519"/>
<polygon fill="#9a32cd" stroke="#9a32cd" points="185.8171,-316.4822 180.2457,-325.494 190.2208,-321.9235 185.8171,-316.4822"/>
<text text-anchor="middle" x="279.5" y="-288" font-family="Helvetica,sans-Serif" font-size="10.00" fill="#000000"> lamFormatString</text>
</g>
<!-- Node8 -->
<g id="node7" class="node">
<title>Node8</title>
<g id="a_node7"><a xlink:href="classcs_1_1aworx_1_1lib_1_1strings_1_1AString.html" target="_top" xlink:title="AString">
<polygon fill="#ffffff" stroke="#000000" points="507,-325.5 507,-344.5 556,-344.5 556,-325.5 507,-325.5"/>
<text text-anchor="middle" x="531.5" y="-332.5" font-family="Helvetica,sans-Serif" font-size="10.00" fill="#000000">AString</text>
</a>
</g>
</g>
<!-- Node8&#45;&gt;Node5 -->
<g id="edge7" class="edge">
<title>Node8&#45;&gt;Node5</title>
<path fill="none" stroke="#9a32cd" stroke-dasharray="5,2" d="M552.9973,-318.3523C556.0516,-314.9492 558.7463,-311.1309 560.5,-307 566.2313,-293.4995 562.3256,-288.5526 560.5,-274 557.5885,-250.7904 560.271,-242.5975 547.5,-223 527.4521,-192.236 516.2696,-186.4208 482.5,-172 456.3414,-160.8294 382.0884,-152.3996 332.8584,-147.8356"/>
<polygon fill="#9a32cd" stroke="#9a32cd" points="550.3256,-316.0631 545.4917,-325.491 555.1498,-321.1353 550.3256,-316.0631"/>
<text text-anchor="middle" x="584" y="-242.5" font-family="Helvetica,sans-Serif" font-size="10.00" fill="#000000"> fieldBuffer</text>
<text text-anchor="middle" x="584" y="-231.5" font-family="Helvetica,sans-Serif" font-size="10.00" fill="#000000">targetString</text>
</g>
<!-- Node9 -->
<g id="node8" class="node">
<title>Node9</title>
<g id="a_node8"><a xlink:href="classcs_1_1aworx_1_1lib_1_1strings_1_1NumberFormat.html" target="_top" xlink:title="NumberFormat">
<polygon fill="#ffffff" stroke="#000000" points="376,-230 376,-249 457,-249 457,-230 376,-230"/>
<text text-anchor="middle" x="416.5" y="-237" font-family="Helvetica,sans-Serif" font-size="10.00" fill="#000000">NumberFormat</text>
</a>
</g>
</g>
<!-- Node8&#45;&gt;Node9 -->
<g id="edge10" class="edge">
<title>Node8&#45;&gt;Node9</title>
<path fill="none" stroke="#9a32cd" stroke-dasharray="5,2" d="M507.4842,-319.9357C501.4785,-315.9136 495.1432,-311.4446 489.5,-307 465.3626,-287.9892 439.4987,-262.7818 425.9787,-249.1859"/>
<polygon fill="#9a32cd" stroke="#9a32cd" points="505.6426,-322.9132 515.9283,-325.4538 509.4719,-317.0535 505.6426,-322.9132"/>
<text text-anchor="middle" x="525" y="-299" font-family="Helvetica,sans-Serif" font-size="10.00" fill="#000000"> OctLiteralPrefix</text>
<text text-anchor="middle" x="525" y="-288" font-family="Helvetica,sans-Serif" font-size="10.00" fill="#000000">BinLiteralPrefix</text>
<text text-anchor="middle" x="525" y="-277" font-family="Helvetica,sans-Serif" font-size="10.00" fill="#000000">HexLiteralPrefix</text>
</g>
<!-- Node9&#45;&gt;Node5 -->
<g id="edge9" class="edge">
<title>Node9&#45;&gt;Node5</title>
<path fill="none" stroke="#9a32cd" stroke-dasharray="5,2" d="M395.1653,-223.8272C368.1103,-203.9522 322.2806,-170.285 299.7749,-153.7519"/>
<polygon fill="#9a32cd" stroke="#9a32cd" points="393.4286,-226.8943 403.5598,-229.994 397.5728,-221.2529 393.4286,-226.8943"/>
<text text-anchor="middle" x="422.5" y="-197" font-family="Helvetica,sans-Serif" font-size="10.00" fill="#000000"> DefaultNumberFormat</text>
<text text-anchor="middle" x="422.5" y="-186" font-family="Helvetica,sans-Serif" font-size="10.00" fill="#000000">AlternativeNumberFormat</text>
<text text-anchor="middle" x="422.5" y="-175" font-family="Helvetica,sans-Serif" font-size="10.00" fill="#000000">phaNF</text>
</g>
<!-- Node9&#45;&gt;Node9 -->
<g id="edge11" class="edge">
<title>Node9&#45;&gt;Node9</title>
<path fill="none" stroke="#9a32cd" stroke-dasharray="5,2" d="M467.3235,-246.9914C472.0317,-245.4456 475,-242.9485 475,-239.5 475,-233.9824 467.4013,-230.9003 457.235,-230.2537"/>
<polygon fill="#9a32cd" stroke="#9a32cd" points="466.4872,-243.5842 457.235,-248.7463 467.6869,-250.4806 466.4872,-243.5842"/>
<text text-anchor="middle" x="506.5" y="-242.5" font-family="Helvetica,sans-Serif" font-size="10.00" fill="#000000"> Global</text>
<text text-anchor="middle" x="506.5" y="-231.5" font-family="Helvetica,sans-Serif" font-size="10.00" fill="#000000">Computational</text>
</g>
<!-- Node10 -->
<g id="node9" class="node">
<title>Node10</title>
<g id="a_node9"><a xlink:href="classcs_1_1aworx_1_1lib_1_1strings_1_1AutoSizes.html" target="_top" xlink:title="AutoSizes">
<polygon fill="#ffffff" stroke="#000000" points="130.5,-134.5 130.5,-153.5 192.5,-153.5 192.5,-134.5 130.5,-134.5"/>
<text text-anchor="middle" x="161.5" y="-141.5" font-family="Helvetica,sans-Serif" font-size="10.00" fill="#000000">AutoSizes</text>
</a>
</g>
</g>
<!-- Node10&#45;&gt;Node4 -->
<g id="edge13" class="edge">
<title>Node10&#45;&gt;Node4</title>
<path fill="none" stroke="#9a32cd" stroke-dasharray="5,2" d="M161.5,-124.1079C161.5,-111.714 161.5,-96.3263 161.5,-86.5817"/>
<polygon fill="#9a32cd" stroke="#9a32cd" points="158.0001,-124.4005 161.5,-134.4005 165.0001,-124.4006 158.0001,-124.4005"/>
<text text-anchor="middle" x="183.5" y="-108" font-family="Helvetica,sans-Serif" font-size="10.00" fill="#000000"> TabSizes</text>
</g>
<!-- Node11&#45;&gt;Node2 -->
<g id="edge14" class="edge">
<title>Node11&#45;&gt;Node2</title>
<path fill="none" stroke="#9a32cd" stroke-dasharray="5,2" d="M263.9801,-61.7413C252.4146,-54.1883 237.9581,-45.1759 224.5,-38 211.8262,-31.2422 197.1913,-24.6675 185.2186,-19.5891"/>
<polygon fill="#9a32cd" stroke="#9a32cd" points="262.2909,-64.8205 272.5612,-67.4228 266.1553,-58.9839 262.2909,-64.8205"/>
<text text-anchor="middle" x="272.5" y="-41" font-family="Helvetica,sans-Serif" font-size="10.00" fill="#000000"> FormatterJS</text>
</g>
</g>
</svg>
