<?xml version="1.0" encoding="UTF-8" standalone="no"?>
<!DOCTYPE svg PUBLIC "-//W3C//DTD SVG 1.1//EN"
 "http://www.w3.org/Graphics/SVG/1.1/DTD/svg11.dtd">
<!-- Generated by graphviz version 2.38.0 (20140413.2041)
 -->
<!-- Title: ScopeInfo.SourceFile Pages: 1 -->
<svg width="123pt" height="117pt"
 viewBox="0.00 0.00 123.00 117.00" xmlns="http://www.w3.org/2000/svg" xmlns:xlink="http://www.w3.org/1999/xlink">
<g id="graph0" class="graph" transform="scale(1 1) rotate(0) translate(4 113)">
<title>ScopeInfo.SourceFile</title>
<polygon fill="white" stroke="none" points="-4,4 -4,-113 119,-113 119,4 -4,4"/>
<!-- Node1 -->
<g id="node1" class="node"><title>Node1</title>
<polygon fill="#bfbfbf" stroke="black" points="0,-0.5 0,-19.5 110,-19.5 110,-0.5 0,-0.5"/>
<text text-anchor="middle" x="55" y="-7.5" font-family="Helvetica,sans-Serif" font-size="10.00">ScopeInfo.SourceFile</text>
</g>
<!-- Node2 -->
<g id="node2" class="node"><title>Node2</title>
<g id="a_node2"><a xlink:href="classcs_1_1aworx_1_1lib_1_1strings_1_1AString.html" target="_top" xlink:title="AString">
<polygon fill="white" stroke="black" points="30.5,-89.5 30.5,-108.5 79.5,-108.5 79.5,-89.5 30.5,-89.5"/>
<text text-anchor="middle" x="55" y="-96.5" font-family="Helvetica,sans-Serif" font-size="10.00">AString</text>
</a>
</g>
</g>
<!-- Node2&#45;&gt;Node1 -->
<g id="edge1" class="edge"><title>Node2&#45;&gt;Node1</title>
<path fill="none" stroke="#9a32cd" stroke-dasharray="5,2" d="M55,-79.1946C55,-60.7379 55,-33.412 55,-19.6249"/>
<polygon fill="#9a32cd" stroke="#9a32cd" points="51.5001,-79.34 55,-89.34 58.5001,-79.3401 51.5001,-79.34"/>
<text text-anchor="middle" x="85" y="-63" font-family="Helvetica,sans-Serif" font-size="10.00"> nameWOExt</text>
<text text-anchor="middle" x="85" y="-52" font-family="Helvetica,sans-Serif" font-size="10.00">name</text>
<text text-anchor="middle" x="85" y="-41" font-family="Helvetica,sans-Serif" font-size="10.00">trimmedPath</text>
</g>
</g>
</svg>
