<?xml version="1.0" encoding="UTF-8" standalone="no"?>
<!DOCTYPE svg PUBLIC "-//W3C//DTD SVG 1.1//EN"
 "http://www.w3.org/Graphics/SVG/1.1/DTD/svg11.dtd">
<!-- Generated by graphviz version 2.38.0 (20140413.2041)
 -->
<!-- Title: PlainTextLogger Pages: 1 -->
<svg width="462pt" height="401pt"
 viewBox="0.00 0.00 461.98 401.00" xmlns="http://www.w3.org/2000/svg" xmlns:xlink="http://www.w3.org/1999/xlink">
<g id="graph0" class="graph" transform="scale(1 1) rotate(0) translate(4 397)">
<title>PlainTextLogger</title>
<polygon fill="white" stroke="none" points="-4,4 -4,-397 457.985,-397 457.985,4 -4,4"/>
<!-- Node1 -->
<g id="node1" class="node"><title>Node1</title>
<polygon fill="#bfbfbf" stroke="black" points="273.485,-0.5 273.485,-19.5 360.485,-19.5 360.485,-0.5 273.485,-0.5"/>
<text text-anchor="middle" x="316.985" y="-7.5" font-family="Helvetica,sans-Serif" font-size="10.00">PlainTextLogger</text>
</g>
<!-- Node2 -->
<g id="node2" class="node"><title>Node2</title>
<g id="a_node2"><a xlink:href="classcs_1_1aworx_1_1lox_1_1core_1_1textlogger_1_1TextLogger.html" target="_top" xlink:title="TextLogger">
<polygon fill="white" stroke="black" points="284.485,-57.5 284.485,-76.5 349.485,-76.5 349.485,-57.5 284.485,-57.5"/>
<text text-anchor="middle" x="316.985" y="-64.5" font-family="Helvetica,sans-Serif" font-size="10.00">TextLogger</text>
</a>
</g>
</g>
<!-- Node2&#45;&gt;Node1 -->
<g id="edge1" class="edge"><title>Node2&#45;&gt;Node1</title>
<path fill="none" stroke="midnightblue" d="M316.985,-47.1166C316.985,-37.8173 316.985,-27.0557 316.985,-19.7149"/>
<polygon fill="midnightblue" stroke="midnightblue" points="313.485,-47.4062 316.985,-57.4062 320.485,-47.4063 313.485,-47.4062"/>
</g>
<!-- Node3 -->
<g id="node3" class="node"><title>Node3</title>
<g id="a_node3"><a xlink:href="classcs_1_1aworx_1_1lox_1_1core_1_1Logger.html" target="_top" xlink:title="Logger">
<polygon fill="white" stroke="black" points="54.985,-125.5 54.985,-144.5 100.985,-144.5 100.985,-125.5 54.985,-125.5"/>
<text text-anchor="middle" x="77.985" y="-132.5" font-family="Helvetica,sans-Serif" font-size="10.00">Logger</text>
</a>
</g>
</g>
<!-- Node3&#45;&gt;Node2 -->
<g id="edge2" class="edge"><title>Node3&#45;&gt;Node2</title>
<path fill="none" stroke="midnightblue" d="M111.181,-124.833C157.52,-112.036 240.968,-88.9922 286.058,-76.5404"/>
<polygon fill="midnightblue" stroke="midnightblue" points="110.044,-121.516 101.336,-127.551 111.907,-128.263 110.044,-121.516"/>
</g>
<!-- Node4 -->
<g id="node4" class="node"><title>Node4</title>
<g id="a_node4"><a xlink:href="classcs_1_1aworx_1_1lib_1_1threads_1_1SmartLock.html" target="_top" xlink:title="SmartLock">
<polygon fill="white" stroke="black" points="45.985,-226.5 45.985,-245.5 109.985,-245.5 109.985,-226.5 45.985,-226.5"/>
<text text-anchor="middle" x="77.985" y="-233.5" font-family="Helvetica,sans-Serif" font-size="10.00">SmartLock</text>
</a>
</g>
</g>
<!-- Node4&#45;&gt;Node3 -->
<g id="edge3" class="edge"><title>Node4&#45;&gt;Node3</title>
<path fill="none" stroke="midnightblue" d="M77.985,-216.029C77.985,-194.543 77.985,-160.467 77.985,-144.625"/>
<polygon fill="midnightblue" stroke="midnightblue" points="74.4851,-216.214 77.985,-226.214 81.4851,-216.214 74.4851,-216.214"/>
</g>
<!-- Node5 -->
<g id="node5" class="node"><title>Node5</title>
<g id="a_node5"><a xlink:href="classcs_1_1aworx_1_1lib_1_1threads_1_1ThreadLock.html" target="_top" xlink:title="ThreadLock">
<polygon fill="white" stroke="black" points="43.985,-304.5 43.985,-323.5 111.985,-323.5 111.985,-304.5 43.985,-304.5"/>
<text text-anchor="middle" x="77.985" y="-311.5" font-family="Helvetica,sans-Serif" font-size="10.00">ThreadLock</text>
</a>
</g>
</g>
<!-- Node5&#45;&gt;Node4 -->
<g id="edge4" class="edge"><title>Node5&#45;&gt;Node4</title>
<path fill="none" stroke="midnightblue" d="M77.985,-294.224C77.985,-278.697 77.985,-257.358 77.985,-245.616"/>
<polygon fill="midnightblue" stroke="midnightblue" points="74.4851,-294.282 77.985,-304.282 81.4851,-294.282 74.4851,-294.282"/>
</g>
<!-- Node6 -->
<g id="node6" class="node"><title>Node6</title>
<g id="a_node6"><a xlink:href="classcs_1_1aworx_1_1lib_1_1time_1_1Ticks.html" target="_top" xlink:title="Ticks">
<polygon fill="white" stroke="black" points="57.485,-372.5 57.485,-391.5 98.485,-391.5 98.485,-372.5 57.485,-372.5"/>
<text text-anchor="middle" x="77.985" y="-379.5" font-family="Helvetica,sans-Serif" font-size="10.00">Ticks</text>
</a>
</g>
</g>
<!-- Node6&#45;&gt;Node3 -->
<g id="edge7" class="edge"><title>Node6&#45;&gt;Node3</title>
<path fill="none" stroke="#9a32cd" stroke-dasharray="5,2" d="M60.1762,-365.267C42.0395,-347.942 15.0581,-318.235 3.98497,-286 -15.3547,-229.701 43.7319,-167.381 68.0417,-144.784"/>
<polygon fill="#9a32cd" stroke="#9a32cd" points="58.0813,-368.097 67.798,-372.32 62.8359,-362.959 58.0813,-368.097"/>
<text text-anchor="middle" x="38.985" y="-278" font-family="Helvetica,sans-Serif" font-size="10.00"> TimeOfLastLog</text>
<text text-anchor="middle" x="38.985" y="-267" font-family="Helvetica,sans-Serif" font-size="10.00">TimeOfCreation</text>
</g>
<!-- Node6&#45;&gt;Node5 -->
<g id="edge5" class="edge"><title>Node6&#45;&gt;Node5</title>
<path fill="none" stroke="#9a32cd" stroke-dasharray="5,2" d="M77.985,-362.041C77.985,-349.472 77.985,-333.563 77.985,-323.841"/>
<polygon fill="#9a32cd" stroke="#9a32cd" points="74.4851,-362.372 77.985,-372.372 81.4851,-362.372 74.4851,-362.372"/>
<text text-anchor="middle" x="99.485" y="-345" font-family="Helvetica,sans-Serif" font-size="10.00"> waitTime</text>
</g>
<!-- Node6&#45;&gt;Node6 -->
<g id="edge6" class="edge"><title>Node6&#45;&gt;Node6</title>
<path fill="none" stroke="#9a32cd" stroke-dasharray="5,2" d="M108.801,-387.782C113.385,-386.881 116.485,-384.954 116.485,-382 116.485,-377.152 108.137,-375.069 98.5819,-375.751"/>
<polygon fill="#9a32cd" stroke="#9a32cd" points="108.412,-384.296 98.5819,-388.249 108.731,-391.289 108.412,-384.296"/>
<text text-anchor="middle" x="147.485" y="-385" font-family="Helvetica,sans-Serif" font-size="10.00"> CreationTime</text>
<text text-anchor="middle" x="147.485" y="-374" font-family="Helvetica,sans-Serif" font-size="10.00">tempTicks</text>
</g>
<!-- Node9 -->
<g id="node9" class="node"><title>Node9</title>
<g id="a_node9"><a xlink:href="classcs_1_1aworx_1_1lox_1_1core_1_1textlogger_1_1MetaInfo.html" target="_top" xlink:title="MetaInfo">
<polygon fill="white" stroke="black" points="204.485,-125.5 204.485,-144.5 259.485,-144.5 259.485,-125.5 204.485,-125.5"/>
<text text-anchor="middle" x="231.985" y="-132.5" font-family="Helvetica,sans-Serif" font-size="10.00">MetaInfo</text>
</a>
</g>
</g>
<!-- Node6&#45;&gt;Node9 -->
<g id="edge14" class="edge"><title>Node6&#45;&gt;Node9</title>
<path fill="none" stroke="#9a32cd" stroke-dasharray="5,2" d="M108.757,-374.567C136.226,-367.164 175.357,-352.21 196.985,-324 219.104,-295.149 228.993,-178.077 231.389,-144.838"/>
<polygon fill="#9a32cd" stroke="#9a32cd" points="107.71,-371.221 98.8608,-377.047 109.412,-378.011 107.71,-371.221"/>
<text text-anchor="middle" x="254.985" y="-278" font-family="Helvetica,sans-Serif" font-size="10.00"> elapsedTime</text>
<text text-anchor="middle" x="254.985" y="-267" font-family="Helvetica,sans-Serif" font-size="10.00">MaxElapsedTime</text>
</g>
<!-- Node7 -->
<g id="node7" class="node"><title>Node7</title>
<g id="a_node7"><a xlink:href="classcs_1_1aworx_1_1lib_1_1strings_1_1AString.html" target="_top" xlink:title="AString">
<polygon fill="white" stroke="black" points="279.485,-226.5 279.485,-245.5 328.485,-245.5 328.485,-226.5 279.485,-226.5"/>
<text text-anchor="middle" x="303.985" y="-233.5" font-family="Helvetica,sans-Serif" font-size="10.00">AString</text>
</a>
</g>
</g>
<!-- Node7&#45;&gt;Node2 -->
<g id="edge8" class="edge"><title>Node7&#45;&gt;Node2</title>
<path fill="none" stroke="#9a32cd" stroke-dasharray="5,2" d="M320.385,-218.333C322.68,-215.129 324.693,-211.632 325.985,-208 342.821,-160.684 334.03,-144.574 325.985,-95 324.972,-88.7571 322.722,-82.0071 320.725,-76.8178"/>
<polygon fill="#9a32cd" stroke="#9a32cd" points="317.685,-216.107 313.955,-226.024 323.055,-220.597 317.685,-216.107"/>
<text text-anchor="middle" x="351.985" y="-138" font-family="Helvetica,sans-Serif" font-size="10.00"> logBuf</text>
<text text-anchor="middle" x="351.985" y="-127" font-family="Helvetica,sans-Serif" font-size="10.00">msgBuf</text>
</g>
<!-- Node7&#45;&gt;Node9 -->
<g id="edge13" class="edge"><title>Node7&#45;&gt;Node9</title>
<path fill="none" stroke="#9a32cd" stroke-dasharray="5,2" d="M269.993,-223.56C262.501,-219.65 255.242,-214.554 249.985,-208 234.828,-189.105 232.225,-159.132 231.912,-144.542"/>
<polygon fill="#9a32cd" stroke="#9a32cd" points="268.925,-226.92 279.474,-227.897 271.837,-220.554 268.925,-226.92"/>
<text text-anchor="middle" x="287.985" y="-200" font-family="Helvetica,sans-Serif" font-size="10.00"> Format</text>
<text text-anchor="middle" x="287.985" y="-189" font-family="Helvetica,sans-Serif" font-size="10.00">tmpAString</text>
<text text-anchor="middle" x="287.985" y="-178" font-family="Helvetica,sans-Serif" font-size="10.00">NoSourceFileInfo</text>
<text text-anchor="middle" x="287.985" y="-167" font-family="Helvetica,sans-Serif" font-size="10.00">NoMethodInfo</text>
</g>
<!-- Node8 -->
<g id="node8" class="node"><title>Node8</title>
<g id="a_node8"><a xlink:href="classcs_1_1aworx_1_1lox_1_1core_1_1textlogger_1_1AutoSizes.html" target="_top" xlink:title="AutoSizes">
<polygon fill="white" stroke="black" points="391.985,-125.5 391.985,-144.5 453.985,-144.5 453.985,-125.5 391.985,-125.5"/>
<text text-anchor="middle" x="422.985" y="-132.5" font-family="Helvetica,sans-Serif" font-size="10.00">AutoSizes</text>
</a>
</g>
</g>
<!-- Node8&#45;&gt;Node2 -->
<g id="edge9" class="edge"><title>Node8&#45;&gt;Node2</title>
<path fill="none" stroke="#9a32cd" stroke-dasharray="5,2" d="M400.481,-119.988C379.394,-106.858 348.544,-87.6498 330.846,-76.6305"/>
<polygon fill="#9a32cd" stroke="#9a32cd" points="398.788,-123.057 409.127,-125.372 402.488,-117.115 398.788,-123.057"/>
<text text-anchor="middle" x="401.485" y="-98" font-family="Helvetica,sans-Serif" font-size="10.00"> AutoSizes</text>
</g>
<!-- Node9&#45;&gt;Node2 -->
<g id="edge10" class="edge"><title>Node9&#45;&gt;Node2</title>
<path fill="none" stroke="#9a32cd" stroke-dasharray="5,2" d="M251.179,-119.096C268.044,-106.001 291.997,-87.4028 305.87,-76.6305"/>
<polygon fill="#9a32cd" stroke="#9a32cd" points="248.849,-116.474 243.097,-125.372 253.142,-122.003 248.849,-116.474"/>
<text text-anchor="middle" x="303.985" y="-98" font-family="Helvetica,sans-Serif" font-size="10.00"> MetaInfo</text>
</g>
<!-- Node10 -->
<g id="node10" class="node"><title>Node10</title>
<g id="a_node10"><a xlink:href="classcs_1_1aworx_1_1lib_1_1strings_1_1Tokenizer.html" target="_top" xlink:title="Tokenizer">
<polygon fill="white" stroke="black" points="128.485,-226.5 128.485,-245.5 187.485,-245.5 187.485,-226.5 128.485,-226.5"/>
<text text-anchor="middle" x="157.985" y="-233.5" font-family="Helvetica,sans-Serif" font-size="10.00">Tokenizer</text>
</a>
</g>
</g>
<!-- Node10&#45;&gt;Node9 -->
<g id="edge11" class="edge"><title>Node10&#45;&gt;Node9</title>
<path fill="none" stroke="#9a32cd" stroke-dasharray="5,2" d="M159.535,-216.133C161.681,-200.634 166.795,-178.885 178.985,-164 186.106,-155.305 196.651,-148.963 206.465,-144.536"/>
<polygon fill="#9a32cd" stroke="#9a32cd" points="156.05,-215.805 158.439,-226.127 163.009,-216.568 156.05,-215.805"/>
<text text-anchor="middle" x="190.485" y="-183.5" font-family="Helvetica,sans-Serif" font-size="10.00"> tTok</text>
</g>
<!-- Node11 -->
<g id="node11" class="node"><title>Node11</title>
<g id="a_node11"><a xlink:href="classcs_1_1aworx_1_1lib_1_1strings_1_1Substring.html" target="_top" xlink:title="Substring">
<polygon fill="white" stroke="black" points="129.985,-304.5 129.985,-323.5 187.985,-323.5 187.985,-304.5 129.985,-304.5"/>
<text text-anchor="middle" x="158.985" y="-311.5" font-family="Helvetica,sans-Serif" font-size="10.00">Substring</text>
</a>
</g>
</g>
<!-- Node11&#45;&gt;Node10 -->
<g id="edge12" class="edge"><title>Node11&#45;&gt;Node10</title>
<path fill="none" stroke="#9a32cd" stroke-dasharray="5,2" d="M158.738,-294.224C158.534,-278.697 158.253,-257.358 158.098,-245.616"/>
<polygon fill="#9a32cd" stroke="#9a32cd" points="155.239,-294.329 158.87,-304.282 162.238,-294.237 155.239,-294.329"/>
<text text-anchor="middle" x="172.985" y="-278" font-family="Helvetica,sans-Serif" font-size="10.00"> Rest</text>
<text text-anchor="middle" x="172.985" y="-267" font-family="Helvetica,sans-Serif" font-size="10.00">Actual</text>
</g>
</g>
</svg>
