<?xml version="1.0" encoding="UTF-8" standalone="no"?>
<!DOCTYPE svg PUBLIC "-//W3C//DTD SVG 1.1//EN"
 "http://www.w3.org/Graphics/SVG/1.1/DTD/svg11.dtd">
<!-- Generated by graphviz version 2.38.0 (20140413.2041)
 -->
<!-- Title: AnsiConsoleLogger Pages: 1 -->
<svg width="320pt" height="468pt"
 viewBox="0.00 0.00 319.58 468.00" xmlns="http://www.w3.org/2000/svg" xmlns:xlink="http://www.w3.org/1999/xlink">
<g id="graph0" class="graph" transform="scale(1 1) rotate(0) translate(4 464)">
<title>AnsiConsoleLogger</title>
<polygon fill="white" stroke="none" points="-4,4 -4,-464 315.583,-464 315.583,4 -4,4"/>
<!-- Node1 -->
<g id="node1" class="node"><title>Node1</title>
<polygon fill="#bfbfbf" stroke="black" points="158.083,-0.5 158.083,-19.5 259.083,-19.5 259.083,-0.5 158.083,-0.5"/>
<text text-anchor="middle" x="208.583" y="-7.5" font-family="Helvetica,sans-Serif" font-size="10.00">AnsiConsoleLogger</text>
</g>
<!-- Node2 -->
<g id="node2" class="node"><title>Node2</title>
<g id="a_node2"><a xlink:href="classcs_1_1aworx_1_1lox_1_1loggers_1_1AnsiLogger.html" target="_top" xlink:title="AnsiLogger">
<polygon fill="white" stroke="black" points="176.083,-57.5 176.083,-76.5 241.083,-76.5 241.083,-57.5 176.083,-57.5"/>
<text text-anchor="middle" x="208.583" y="-64.5" font-family="Helvetica,sans-Serif" font-size="10.00">AnsiLogger</text>
</a>
</g>
</g>
<!-- Node2&#45;&gt;Node1 -->
<g id="edge1" class="edge"><title>Node2&#45;&gt;Node1</title>
<path fill="none" stroke="midnightblue" d="M208.583,-47.1166C208.583,-37.8173 208.583,-27.0557 208.583,-19.7149"/>
<polygon fill="midnightblue" stroke="midnightblue" points="205.084,-47.4062 208.583,-57.4062 212.084,-47.4063 205.084,-47.4062"/>
</g>
<!-- Node3 -->
<g id="node3" class="node"><title>Node3</title>
<g id="a_node3"><a xlink:href="classcs_1_1aworx_1_1lox_1_1core_1_1textlogger_1_1TextLogger.html" target="_top" xlink:title="TextLogger">
<polygon fill="white" stroke="black" points="119.083,-124.5 119.083,-143.5 184.083,-143.5 184.083,-124.5 119.083,-124.5"/>
<text text-anchor="middle" x="151.583" y="-131.5" font-family="Helvetica,sans-Serif" font-size="10.00">TextLogger</text>
</a>
</g>
</g>
<!-- Node3&#45;&gt;Node2 -->
<g id="edge2" class="edge"><title>Node3&#45;&gt;Node2</title>
<path fill="none" stroke="midnightblue" d="M165.934,-116.635C177.082,-103.923 192.099,-86.7978 201.018,-76.6273"/>
<polygon fill="midnightblue" stroke="midnightblue" points="163.232,-114.408 159.271,-124.234 168.495,-119.023 163.232,-114.408"/>
</g>
<!-- Node4 -->
<g id="node4" class="node"><title>Node4</title>
<g id="a_node4"><a xlink:href="classcs_1_1aworx_1_1lox_1_1core_1_1Logger.html" target="_top" xlink:title="Logger">
<polygon fill="white" stroke="black" points="41.5834,-192.5 41.5834,-211.5 87.5834,-211.5 87.5834,-192.5 41.5834,-192.5"/>
<text text-anchor="middle" x="64.5834" y="-199.5" font-family="Helvetica,sans-Serif" font-size="10.00">Logger</text>
</a>
</g>
</g>
<!-- Node4&#45;&gt;Node3 -->
<g id="edge3" class="edge"><title>Node4&#45;&gt;Node3</title>
<path fill="none" stroke="midnightblue" d="M81.4132,-185.405C89.6695,-178.019 99.9011,-169.25 109.583,-162 118.465,-155.35 128.965,-148.6 137.245,-143.512"/>
<polygon fill="midnightblue" stroke="midnightblue" points="78.9575,-182.907 73.9087,-192.221 83.6642,-188.088 78.9575,-182.907"/>
</g>
<!-- Node5 -->
<g id="node5" class="node"><title>Node5</title>
<g id="a_node5"><a xlink:href="classcs_1_1aworx_1_1lib_1_1threads_1_1SmartLock.html" target="_top" xlink:title="SmartLock">
<polygon fill="white" stroke="black" points="43.5834,-293.5 43.5834,-312.5 107.583,-312.5 107.583,-293.5 43.5834,-293.5"/>
<text text-anchor="middle" x="75.5834" y="-300.5" font-family="Helvetica,sans-Serif" font-size="10.00">SmartLock</text>
</a>
</g>
</g>
<!-- Node5&#45;&gt;Node4 -->
<g id="edge4" class="edge"><title>Node5&#45;&gt;Node4</title>
<path fill="none" stroke="midnightblue" d="M73.4755,-283.029C71.0881,-261.543 67.3019,-227.467 65.5417,-211.625"/>
<polygon fill="midnightblue" stroke="midnightblue" points="70.0242,-283.662 74.6072,-293.214 76.9814,-282.889 70.0242,-283.662"/>
</g>
<!-- Node6 -->
<g id="node6" class="node"><title>Node6</title>
<g id="a_node6"><a xlink:href="classcs_1_1aworx_1_1lib_1_1threads_1_1ThreadLock.html" target="_top" xlink:title="ThreadLock">
<polygon fill="white" stroke="black" points="43.5834,-371.5 43.5834,-390.5 111.583,-390.5 111.583,-371.5 43.5834,-371.5"/>
<text text-anchor="middle" x="77.5834" y="-378.5" font-family="Helvetica,sans-Serif" font-size="10.00">ThreadLock</text>
</a>
</g>
</g>
<!-- Node6&#45;&gt;Node5 -->
<g id="edge5" class="edge"><title>Node6&#45;&gt;Node5</title>
<path fill="none" stroke="midnightblue" d="M77.0893,-361.224C76.6807,-345.697 76.1191,-324.358 75.8102,-312.616"/>
<polygon fill="midnightblue" stroke="midnightblue" points="73.592,-361.377 77.354,-371.282 80.5896,-361.193 73.592,-361.377"/>
</g>
<!-- Node7 -->
<g id="node7" class="node"><title>Node7</title>
<g id="a_node7"><a xlink:href="classcs_1_1aworx_1_1lib_1_1time_1_1Ticks.html" target="_top" xlink:title="Ticks">
<polygon fill="white" stroke="black" points="9.0834,-439.5 9.0834,-458.5 50.0834,-458.5 50.0834,-439.5 9.0834,-439.5"/>
<text text-anchor="middle" x="29.5834" y="-446.5" font-family="Helvetica,sans-Serif" font-size="10.00">Ticks</text>
</a>
</g>
</g>
<!-- Node7&#45;&gt;Node4 -->
<g id="edge8" class="edge"><title>Node7&#45;&gt;Node4</title>
<path fill="none" stroke="#9a32cd" stroke-dasharray="5,2" d="M20.4469,-430.337C9.76101,-407.433 -5.50194,-366.24 2.5834,-331 13.627,-282.867 45.2568,-231.817 58.5663,-211.786"/>
<polygon fill="#9a32cd" stroke="#9a32cd" points="17.3885,-432.05 24.9342,-439.487 23.6734,-428.968 17.3885,-432.05"/>
<text text-anchor="middle" x="37.5834" y="-345" font-family="Helvetica,sans-Serif" font-size="10.00"> TimeOfLastLog</text>
<text text-anchor="middle" x="37.5834" y="-334" font-family="Helvetica,sans-Serif" font-size="10.00">TimeOfCreation</text>
</g>
<!-- Node7&#45;&gt;Node6 -->
<g id="edge6" class="edge"><title>Node7&#45;&gt;Node6</title>
<path fill="none" stroke="#9a32cd" stroke-dasharray="5,2" d="M41.9923,-430.938C51.3202,-418.112 63.7222,-401.059 71.1535,-390.841"/>
<polygon fill="#9a32cd" stroke="#9a32cd" points="38.9097,-429.226 35.8586,-439.372 44.5709,-433.343 38.9097,-429.226"/>
<text text-anchor="middle" x="80.0834" y="-412" font-family="Helvetica,sans-Serif" font-size="10.00"> waitTime</text>
</g>
<!-- Node7&#45;&gt;Node7 -->
<g id="edge7" class="edge"><title>Node7&#45;&gt;Node7</title>
<path fill="none" stroke="#9a32cd" stroke-dasharray="5,2" d="M60.3994,-454.782C64.9834,-453.881 68.0834,-451.954 68.0834,-449 68.0834,-444.152 59.7352,-442.069 50.1803,-442.751"/>
<polygon fill="#9a32cd" stroke="#9a32cd" points="60.0102,-451.296 50.1803,-455.249 60.3296,-458.289 60.0102,-451.296"/>
<text text-anchor="middle" x="99.0834" y="-452" font-family="Helvetica,sans-Serif" font-size="10.00"> CreationTime</text>
<text text-anchor="middle" x="99.0834" y="-441" font-family="Helvetica,sans-Serif" font-size="10.00">tempTicks</text>
</g>
<!-- Node8 -->
<g id="node8" class="node"><title>Node8</title>
<g id="a_node8"><a xlink:href="classcs_1_1aworx_1_1lib_1_1strings_1_1AString.html" target="_top" xlink:title="AString">
<polygon fill="white" stroke="black" points="128.083,-293.5 128.083,-312.5 177.083,-312.5 177.083,-293.5 128.083,-293.5"/>
<text text-anchor="middle" x="152.583" y="-300.5" font-family="Helvetica,sans-Serif" font-size="10.00">AString</text>
</a>
</g>
</g>
<!-- Node8&#45;&gt;Node3 -->
<g id="edge9" class="edge"><title>Node8&#45;&gt;Node3</title>
<path fill="none" stroke="#9a32cd" stroke-dasharray="5,2" d="M145.409,-283.716C137.685,-261.738 127.183,-223.725 132.583,-191 135.459,-173.577 143.047,-154.287 147.718,-143.504"/>
<polygon fill="#9a32cd" stroke="#9a32cd" points="142.235,-285.223 148.997,-293.379 148.798,-282.786 142.235,-285.223"/>
<text text-anchor="middle" x="149.583" y="-205" font-family="Helvetica,sans-Serif" font-size="10.00"> logBuf</text>
<text text-anchor="middle" x="149.583" y="-194" font-family="Helvetica,sans-Serif" font-size="10.00">msgBuf</text>
</g>
<!-- Node10 -->
<g id="node10" class="node"><title>Node10</title>
<g id="a_node10"><a xlink:href="classcs_1_1aworx_1_1lox_1_1core_1_1textlogger_1_1MetaInfo.html" target="_top" xlink:title="MetaInfo">
<polygon fill="white" stroke="black" points="176.083,-192.5 176.083,-211.5 231.083,-211.5 231.083,-192.5 176.083,-192.5"/>
<text text-anchor="middle" x="203.583" y="-199.5" font-family="Helvetica,sans-Serif" font-size="10.00">MetaInfo</text>
</a>
</g>
</g>
<!-- Node8&#45;&gt;Node10 -->
<g id="edge14" class="edge"><title>Node8&#45;&gt;Node10</title>
<path fill="none" stroke="#9a32cd" stroke-dasharray="5,2" d="M149.429,-283.159C147.884,-267.971 148.055,-246.641 157.583,-231 162.837,-222.377 171.844,-216.046 180.504,-211.608"/>
<polygon fill="#9a32cd" stroke="#9a32cd" points="146.003,-283.943 150.818,-293.38 152.939,-283 146.003,-283.943"/>
<text text-anchor="middle" x="195.583" y="-267" font-family="Helvetica,sans-Serif" font-size="10.00"> Format</text>
<text text-anchor="middle" x="195.583" y="-256" font-family="Helvetica,sans-Serif" font-size="10.00">tmpAString</text>
<text text-anchor="middle" x="195.583" y="-245" font-family="Helvetica,sans-Serif" font-size="10.00">NoSourceFileInfo</text>
<text text-anchor="middle" x="195.583" y="-234" font-family="Helvetica,sans-Serif" font-size="10.00">NoMethodInfo</text>
</g>
<!-- Node9 -->
<g id="node9" class="node"><title>Node9</title>
<g id="a_node9"><a xlink:href="classcs_1_1aworx_1_1lox_1_1core_1_1textlogger_1_1AutoSizes.html" target="_top" xlink:title="AutoSizes">
<polygon fill="white" stroke="black" points="249.583,-192.5 249.583,-211.5 311.583,-211.5 311.583,-192.5 249.583,-192.5"/>
<text text-anchor="middle" x="280.583" y="-199.5" font-family="Helvetica,sans-Serif" font-size="10.00">AutoSizes</text>
</a>
</g>
</g>
<!-- Node9&#45;&gt;Node3 -->
<g id="edge10" class="edge"><title>Node9&#45;&gt;Node3</title>
<path fill="none" stroke="#9a32cd" stroke-dasharray="5,2" d="M262.762,-185.835C252.871,-177.96 240.071,-168.627 227.583,-162 213.236,-154.386 196.286,-148.129 182.038,-143.562"/>
<polygon fill="#9a32cd" stroke="#9a32cd" points="260.671,-188.646 270.625,-192.275 265.107,-183.231 260.671,-188.646"/>
<text text-anchor="middle" x="269.083" y="-165" font-family="Helvetica,sans-Serif" font-size="10.00"> AutoSizes</text>
</g>
<!-- Node10&#45;&gt;Node3 -->
<g id="edge11" class="edge"><title>Node10&#45;&gt;Node3</title>
<path fill="none" stroke="#9a32cd" stroke-dasharray="5,2" d="M190.434,-184.31C180.297,-171.444 166.678,-154.158 158.549,-143.841"/>
<polygon fill="#9a32cd" stroke="#9a32cd" points="187.847,-186.683 196.785,-192.372 193.346,-182.351 187.847,-186.683"/>
<text text-anchor="middle" x="202.583" y="-165" font-family="Helvetica,sans-Serif" font-size="10.00"> MetaInfo</text>
</g>
<!-- Node11 -->
<g id="node11" class="node"><title>Node11</title>
<g id="a_node11"><a xlink:href="classcs_1_1aworx_1_1lib_1_1strings_1_1Tokenizer.html" target="_top" xlink:title="Tokenizer">
<polygon fill="white" stroke="black" points="226.083,-293.5 226.083,-312.5 285.083,-312.5 285.083,-293.5 226.083,-293.5"/>
<text text-anchor="middle" x="255.583" y="-300.5" font-family="Helvetica,sans-Serif" font-size="10.00">Tokenizer</text>
</a>
</g>
</g>
<!-- Node11&#45;&gt;Node10 -->
<g id="edge12" class="edge"><title>Node11&#45;&gt;Node10</title>
<path fill="none" stroke="#9a32cd" stroke-dasharray="5,2" d="M252.473,-282.972C249.391,-267.988 243.637,-247.029 233.583,-231 228.889,-223.516 221.704,-216.713 215.542,-211.687"/>
<polygon fill="#9a32cd" stroke="#9a32cd" points="249.082,-283.883 254.335,-293.084 255.966,-282.615 249.082,-283.883"/>
<text text-anchor="middle" x="262.083" y="-250.5" font-family="Helvetica,sans-Serif" font-size="10.00"> tTok</text>
</g>
<!-- Node12 -->
<g id="node12" class="node"><title>Node12</title>
<g id="a_node12"><a xlink:href="classcs_1_1aworx_1_1lib_1_1strings_1_1Substring.html" target="_top" xlink:title="Substring">
<polygon fill="white" stroke="black" points="226.583,-371.5 226.583,-390.5 284.583,-390.5 284.583,-371.5 226.583,-371.5"/>
<text text-anchor="middle" x="255.583" y="-378.5" font-family="Helvetica,sans-Serif" font-size="10.00">Substring</text>
</a>
</g>
</g>
<!-- Node12&#45;&gt;Node11 -->
<g id="edge13" class="edge"><title>Node12&#45;&gt;Node11</title>
<path fill="none" stroke="#9a32cd" stroke-dasharray="5,2" d="M255.583,-361.224C255.583,-345.697 255.583,-324.358 255.583,-312.616"/>
<polygon fill="#9a32cd" stroke="#9a32cd" points="252.084,-361.282 255.583,-371.282 259.084,-361.282 252.084,-361.282"/>
<text text-anchor="middle" x="269.583" y="-345" font-family="Helvetica,sans-Serif" font-size="10.00"> Rest</text>
<text text-anchor="middle" x="269.583" y="-334" font-family="Helvetica,sans-Serif" font-size="10.00">Actual</text>
</g>
<!-- Node13 -->
<g id="node13" class="node"><title>Node13</title>
<polygon fill="white" stroke="#bfbfbf" points="202.583,-124.5 202.583,-143.5 252.583,-143.5 252.583,-124.5 202.583,-124.5"/>
<text text-anchor="middle" x="227.583" y="-131.5" font-family="Helvetica,sans-Serif" font-size="10.00">System</text>
</g>
<!-- Node13&#45;&gt;Node2 -->
<g id="edge15" class="edge"><title>Node13&#45;&gt;Node2</title>
<path fill="none" stroke="#9a32cd" stroke-dasharray="5,2" d="M222.151,-114.415C218.518,-101.988 213.908,-86.2166 211.105,-76.6273"/>
<polygon fill="#9a32cd" stroke="#9a32cd" points="218.856,-115.617 225.021,-124.234 225.575,-113.653 218.856,-115.617"/>
<text text-anchor="middle" x="242.583" y="-98" font-family="Helvetica,sans-Serif" font-size="10.00"> textWriter</text>
</g>
</g>
</svg>
