<?xml version="1.0" encoding="UTF-8" standalone="no"?>
<!DOCTYPE svg PUBLIC "-//W3C//DTD SVG 1.1//EN"
 "http://www.w3.org/Graphics/SVG/1.1/DTD/svg11.dtd">
<!-- Generated by graphviz version 2.40.1 (20161225.0304)
 -->
<!-- Title: TextLogger Pages: 1 -->
<svg width="476pt" height="401pt"
 viewBox="0.00 0.00 475.50 401.00" xmlns="http://www.w3.org/2000/svg" xmlns:xlink="http://www.w3.org/1999/xlink">
<g id="graph0" class="graph" transform="scale(1 1) rotate(0) translate(4 397)">
<title>TextLogger</title>
<polygon fill="#ffffff" stroke="transparent" points="-4,4 -4,-397 471.5,-397 471.5,4 -4,4"/>
<!-- Node12 -->
<g id="node1" class="node">
<title>Node12</title>
<g id="a_node1"><a xlink:title=" ">
<polygon fill="#bfbfbf" stroke="#000000" points="226,-.5 226,-19.5 291,-19.5 291,-.5 226,-.5"/>
<text text-anchor="middle" x="258.5" y="-7.5" font-family="Helvetica,sans-Serif" font-size="10.00" fill="#000000">TextLogger</text>
</a>
</g>
</g>
<!-- Node13 -->
<g id="node2" class="node">
<title>Node13</title>
<g id="a_node2"><a xlink:href="classcs_1_1aworx_1_1lox_1_1detail_1_1Logger.html" target="_top" xlink:title=" ">
<polygon fill="#ffffff" stroke="#000000" points="235.5,-68.5 235.5,-87.5 281.5,-87.5 281.5,-68.5 235.5,-68.5"/>
<text text-anchor="middle" x="258.5" y="-75.5" font-family="Helvetica,sans-Serif" font-size="10.00" fill="#000000">Logger</text>
</a>
</g>
</g>
<!-- Node13&#45;&gt;Node12 -->
<g id="edge1" class="edge">
<title>Node13&#45;&gt;Node12</title>
<path fill="none" stroke="#191970" d="M258.5,-58.1951C258.5,-45.5514 258.5,-29.7157 258.5,-19.7247"/>
<polygon fill="#191970" stroke="#191970" points="255.0001,-58.2572 258.5,-68.2573 262.0001,-58.2573 255.0001,-58.2572"/>
</g>
<!-- Node14 -->
<g id="node3" class="node">
<title>Node14</title>
<g id="a_node3"><a xlink:href="classcs_1_1aworx_1_1lib_1_1threads_1_1SmartLock.html" target="_top" xlink:title=" ">
<polygon fill="#ffffff" stroke="#000000" points="316.5,-169.5 316.5,-188.5 380.5,-188.5 380.5,-169.5 316.5,-169.5"/>
<text text-anchor="middle" x="348.5" y="-176.5" font-family="Helvetica,sans-Serif" font-size="10.00" fill="#000000">SmartLock</text>
</a>
</g>
</g>
<!-- Node14&#45;&gt;Node13 -->
<g id="edge2" class="edge">
<title>Node14&#45;&gt;Node13</title>
<path fill="none" stroke="#191970" d="M334.8354,-161.0101C323.2603,-146.1012 305.9662,-124.5833 289.5,-107 283.1527,-100.2221 275.5438,-93.091 269.4528,-87.5963"/>
<polygon fill="#191970" stroke="#191970" points="332.3744,-163.5513 341.245,-169.3447 337.9233,-159.284 332.3744,-163.5513"/>
</g>
<!-- Node15 -->
<g id="node4" class="node">
<title>Node15</title>
<g id="a_node4"><a xlink:href="classcs_1_1aworx_1_1lib_1_1threads_1_1ThreadLock.html" target="_top" xlink:title=" ">
<polygon fill="#ffffff" stroke="#000000" points="314.5,-247.5 314.5,-266.5 382.5,-266.5 382.5,-247.5 314.5,-247.5"/>
<text text-anchor="middle" x="348.5" y="-254.5" font-family="Helvetica,sans-Serif" font-size="10.00" fill="#000000">ThreadLock</text>
</a>
</g>
</g>
<!-- Node15&#45;&gt;Node14 -->
<g id="edge3" class="edge">
<title>Node15&#45;&gt;Node14</title>
<path fill="none" stroke="#191970" d="M348.5,-237.2866C348.5,-221.7395 348.5,-200.7276 348.5,-188.6426"/>
<polygon fill="#191970" stroke="#191970" points="345.0001,-237.4356 348.5,-247.4357 352.0001,-237.4357 345.0001,-237.4356"/>
</g>
<!-- Node16 -->
<g id="node5" class="node">
<title>Node16</title>
<g id="a_node5"><a xlink:href="classcs_1_1aworx_1_1lib_1_1time_1_1Ticks.html" target="_top" xlink:title=" ">
<polygon fill="#ffffff" stroke="#000000" points="255,-315.5 255,-334.5 296,-334.5 296,-315.5 255,-315.5"/>
<text text-anchor="middle" x="275.5" y="-322.5" font-family="Helvetica,sans-Serif" font-size="10.00" fill="#000000">Ticks</text>
</a>
</g>
</g>
<!-- Node16&#45;&gt;Node13 -->
<g id="edge7" class="edge">
<title>Node16&#45;&gt;Node13</title>
<path fill="none" stroke="#9a32cd" stroke-dasharray="5,2" d="M274.1318,-305.1215C270.6732,-254.87 261.6769,-124.158 259.1618,-87.6158"/>
<polygon fill="#9a32cd" stroke="#9a32cd" points="270.6551,-305.5813 274.8336,-315.3173 277.6386,-305.1006 270.6551,-305.5813"/>
<text text-anchor="middle" x="303.5" y="-221" font-family="Helvetica,sans-Serif" font-size="10.00" fill="#000000"> TimeOfLastLog</text>
<text text-anchor="middle" x="303.5" y="-210" font-family="Helvetica,sans-Serif" font-size="10.00" fill="#000000">TimeOfCreation</text>
</g>
<!-- Node16&#45;&gt;Node15 -->
<g id="edge4" class="edge">
<title>Node16&#45;&gt;Node15</title>
<path fill="none" stroke="#9a32cd" stroke-dasharray="5,2" d="M293.5429,-308.1929C307.546,-295.1489 326.4679,-277.523 338.0603,-266.7247"/>
<polygon fill="#9a32cd" stroke="#9a32cd" points="290.8907,-305.8802 285.9591,-315.2573 295.662,-311.0022 290.8907,-305.8802"/>
<text text-anchor="middle" x="337" y="-288" font-family="Helvetica,sans-Serif" font-size="10.00" fill="#000000"> waitTime</text>
</g>
<!-- Node16&#45;&gt;Node16 -->
<g id="edge6" class="edge">
<title>Node16&#45;&gt;Node16</title>
<path fill="none" stroke="#9a32cd" stroke-dasharray="5,2" d="M306.316,-329.7618C310.9,-329.02 314,-327.4327 314,-325 314,-321.0078 305.6518,-319.2924 296.0969,-319.8538"/>
<polygon fill="#9a32cd" stroke="#9a32cd" points="305.9583,-326.2727 296.0969,-330.1462 306.2214,-333.2678 305.9583,-326.2727"/>
<text text-anchor="middle" x="344.5" y="-328" font-family="Helvetica,sans-Serif" font-size="10.00" fill="#000000"> CreationTime</text>
<text text-anchor="middle" x="344.5" y="-317" font-family="Helvetica,sans-Serif" font-size="10.00" fill="#000000">tempTicks</text>
</g>
<!-- Node18 -->
<g id="node7" class="node">
<title>Node18</title>
<g id="a_node7"><a xlink:href="classcs_1_1aworx_1_1lox_1_1detail_1_1textlogger_1_1MetaInfo.html" target="_top" xlink:title=" ">
<polygon fill="#ffffff" stroke="#000000" points="129,-68.5 129,-87.5 184,-87.5 184,-68.5 129,-68.5"/>
<text text-anchor="middle" x="156.5" y="-75.5" font-family="Helvetica,sans-Serif" font-size="10.00" fill="#000000">MetaInfo</text>
</a>
</g>
</g>
<!-- Node16&#45;&gt;Node18 -->
<g id="edge12" class="edge">
<title>Node16&#45;&gt;Node18</title>
<path fill="none" stroke="#9a32cd" stroke-dasharray="5,2" d="M254.9623,-308.8556C234.2991,-291.4354 203.1752,-261.7536 186.5,-229 161.428,-179.7534 173.4316,-161.1694 162.5,-107 161.1982,-100.5491 159.6982,-93.2991 158.5236,-87.6618"/>
<polygon fill="#9a32cd" stroke="#9a32cd" points="252.8948,-311.6869 262.8422,-315.3337 257.3401,-306.2795 252.8948,-311.6869"/>
<text text-anchor="middle" x="224.5" y="-221" font-family="Helvetica,sans-Serif" font-size="10.00" fill="#000000"> elapsedTime</text>
<text text-anchor="middle" x="224.5" y="-210" font-family="Helvetica,sans-Serif" font-size="10.00" fill="#000000">MaxElapsedTime</text>
</g>
<!-- Node17 -->
<g id="node6" class="node">
<title>Node17</title>
<g id="a_node6"><a xlink:title=" ">
<polygon fill="#ffffff" stroke="#bfbfbf" points="240,-373.5 240,-392.5 311,-392.5 311,-373.5 240,-373.5"/>
<text text-anchor="middle" x="275.5" y="-380.5" font-family="Helvetica,sans-Serif" font-size="10.00" fill="#000000">IFormattable</text>
</a>
</g>
</g>
<!-- Node17&#45;&gt;Node16 -->
<g id="edge5" class="edge">
<title>Node17&#45;&gt;Node16</title>
<path fill="none" stroke="#191970" d="M275.5,-363.153C275.5,-353.5796 275.5,-342.5235 275.5,-334.7856"/>
<polygon fill="#191970" stroke="#191970" points="272.0001,-363.4224 275.5,-373.4225 279.0001,-363.4225 272.0001,-363.4224"/>
</g>
<!-- Node18&#45;&gt;Node12 -->
<g id="edge8" class="edge">
<title>Node18&#45;&gt;Node12</title>
<path fill="none" stroke="#9a32cd" stroke-dasharray="5,2" d="M177.7331,-62.2762C188.0939,-54.7477 200.8156,-45.7141 212.5,-38 222.1747,-31.6126 233.2696,-24.8437 242.1389,-19.5614"/>
<polygon fill="#9a32cd" stroke="#9a32cd" points="175.6628,-59.4541 169.6598,-68.1842 179.7968,-65.1031 175.6628,-59.4541"/>
<text text-anchor="middle" x="233.5" y="-41" font-family="Helvetica,sans-Serif" font-size="10.00" fill="#000000"> MetaInfo</text>
</g>
<!-- Node19 -->
<g id="node8" class="node">
<title>Node19</title>
<g id="a_node8"><a xlink:href="classcs_1_1aworx_1_1lib_1_1strings_1_1AString.html" target="_top" xlink:title=" ">
<polygon fill="#ffffff" stroke="#000000" points="0,-169.5 0,-188.5 49,-188.5 49,-169.5 0,-169.5"/>
<text text-anchor="middle" x="24.5" y="-176.5" font-family="Helvetica,sans-Serif" font-size="10.00" fill="#000000">AString</text>
</a>
</g>
</g>
<!-- Node19&#45;&gt;Node12 -->
<g id="edge14" class="edge">
<title>Node19&#45;&gt;Node12</title>
<path fill="none" stroke="#9a32cd" stroke-dasharray="5,2" d="M19.2951,-159.5625C16.3301,-144.323 14.7399,-123.0767 23.5,-107 43.7739,-69.793 165.8244,-33.834 225.5826,-18.1799"/>
<polygon fill="#9a32cd" stroke="#9a32cd" points="15.9143,-160.4781 21.5687,-169.4378 22.7358,-158.9075 15.9143,-160.4781"/>
<text text-anchor="middle" x="97.5" y="-81" font-family="Helvetica,sans-Serif" font-size="10.00" fill="#000000"> logBuf</text>
<text text-anchor="middle" x="97.5" y="-70" font-family="Helvetica,sans-Serif" font-size="10.00" fill="#000000">msgBuf</text>
</g>
<!-- Node19&#45;&gt;Node18 -->
<g id="edge9" class="edge">
<title>Node19&#45;&gt;Node18</title>
<path fill="none" stroke="#9a32cd" stroke-dasharray="5,2" d="M25.4429,-159.0186C27.2802,-142.826 32.4176,-120.5467 46.5,-107 58.2069,-95.7385 100.2883,-86.9755 128.8744,-82.15"/>
<polygon fill="#9a32cd" stroke="#9a32cd" points="21.9472,-158.8244 24.6288,-169.0742 28.9244,-159.3893 21.9472,-158.8244"/>
<text text-anchor="middle" x="84.5" y="-143" font-family="Helvetica,sans-Serif" font-size="10.00" fill="#000000"> Format</text>
<text text-anchor="middle" x="84.5" y="-132" font-family="Helvetica,sans-Serif" font-size="10.00" fill="#000000">tmpAString</text>
<text text-anchor="middle" x="84.5" y="-121" font-family="Helvetica,sans-Serif" font-size="10.00" fill="#000000">NoSourceFileInfo</text>
<text text-anchor="middle" x="84.5" y="-110" font-family="Helvetica,sans-Serif" font-size="10.00" fill="#000000">NoMethodInfo</text>
</g>
<!-- Node20 -->
<g id="node9" class="node">
<title>Node20</title>
<g id="a_node9"><a xlink:href="classcs_1_1aworx_1_1lib_1_1strings_1_1util_1_1Tokenizer.html" target="_top" xlink:title=" ">
<polygon fill="#ffffff" stroke="#000000" points="89,-169.5 89,-188.5 148,-188.5 148,-169.5 89,-169.5"/>
<text text-anchor="middle" x="118.5" y="-176.5" font-family="Helvetica,sans-Serif" font-size="10.00" fill="#000000">Tokenizer</text>
</a>
</g>
</g>
<!-- Node20&#45;&gt;Node18 -->
<g id="edge10" class="edge">
<title>Node20&#45;&gt;Node18</title>
<path fill="none" stroke="#9a32cd" stroke-dasharray="5,2" d="M123.2816,-159.4951C127.1676,-144.7868 133.193,-124.2655 140.5,-107 143.3238,-100.3277 147.2439,-93.1983 150.4971,-87.678"/>
<polygon fill="#9a32cd" stroke="#9a32cd" points="119.8203,-158.9046 120.7412,-169.4594 126.6033,-160.634 119.8203,-158.9046"/>
<text text-anchor="middle" x="151.5" y="-126.5" font-family="Helvetica,sans-Serif" font-size="10.00" fill="#000000"> tTok</text>
</g>
<!-- Node21 -->
<g id="node10" class="node">
<title>Node21</title>
<g id="a_node10"><a xlink:href="classcs_1_1aworx_1_1lib_1_1strings_1_1Substring.html" target="_top" xlink:title=" ">
<polygon fill="#ffffff" stroke="#000000" points="89.5,-247.5 89.5,-266.5 147.5,-266.5 147.5,-247.5 89.5,-247.5"/>
<text text-anchor="middle" x="118.5" y="-254.5" font-family="Helvetica,sans-Serif" font-size="10.00" fill="#000000">Substring</text>
</a>
</g>
</g>
<!-- Node21&#45;&gt;Node20 -->
<g id="edge11" class="edge">
<title>Node21&#45;&gt;Node20</title>
<path fill="none" stroke="#9a32cd" stroke-dasharray="5,2" d="M118.5,-237.2866C118.5,-221.7395 118.5,-200.7276 118.5,-188.6426"/>
<polygon fill="#9a32cd" stroke="#9a32cd" points="115.0001,-237.4356 118.5,-247.4357 122.0001,-237.4357 115.0001,-237.4356"/>
<text text-anchor="middle" x="132.5" y="-221" font-family="Helvetica,sans-Serif" font-size="10.00" fill="#000000"> Rest</text>
<text text-anchor="middle" x="132.5" y="-210" font-family="Helvetica,sans-Serif" font-size="10.00" fill="#000000">Actual</text>
</g>
<!-- Node22 -->
<g id="node11" class="node">
<title>Node22</title>
<g id="a_node11"><a xlink:href="classcs_1_1aworx_1_1lox_1_1detail_1_1textlogger_1_1ObjectConverter.html" target="_top" xlink:title=" ">
<polygon fill="#ffffff" stroke="#000000" points="300,-68.5 300,-87.5 387,-87.5 387,-68.5 300,-68.5"/>
<text text-anchor="middle" x="343.5" y="-75.5" font-family="Helvetica,sans-Serif" font-size="10.00" fill="#000000">ObjectConverter</text>
</a>
</g>
</g>
<!-- Node22&#45;&gt;Node12 -->
<g id="edge13" class="edge">
<title>Node22&#45;&gt;Node12</title>
<path fill="none" stroke="#9a32cd" stroke-dasharray="5,2" d="M323.3506,-61.8805C306.8586,-48.6869 284.0907,-30.4725 270.3818,-19.5054"/>
<polygon fill="#9a32cd" stroke="#9a32cd" points="321.3264,-64.7433 331.3216,-68.2573 325.6993,-59.2772 321.3264,-64.7433"/>
<text text-anchor="middle" x="328.5" y="-41" font-family="Helvetica,sans-Serif" font-size="10.00" fill="#000000"> Converter</text>
</g>
<!-- Node23 -->
<g id="node12" class="node">
<title>Node23</title>
<g id="a_node12"><a xlink:href="classcs_1_1aworx_1_1lib_1_1strings_1_1util_1_1AutoSizes.html" target="_top" xlink:title=" ">
<polygon fill="#ffffff" stroke="#000000" points="405.5,-68.5 405.5,-87.5 467.5,-87.5 467.5,-68.5 405.5,-68.5"/>
<text text-anchor="middle" x="436.5" y="-75.5" font-family="Helvetica,sans-Serif" font-size="10.00" fill="#000000">AutoSizes</text>
</a>
</g>
</g>
<!-- Node23&#45;&gt;Node12 -->
<g id="edge15" class="edge">
<title>Node23&#45;&gt;Node12</title>
<path fill="none" stroke="#9a32cd" stroke-dasharray="5,2" d="M410.1693,-63.5115C394.5814,-55.313 374.2702,-45.2772 355.5,-38 334.5815,-29.8899 310.3315,-22.8899 291.3111,-17.9174"/>
<polygon fill="#9a32cd" stroke="#9a32cd" points="408.7387,-66.7153 419.2086,-68.3378 412.0356,-60.5403 408.7387,-66.7153"/>
<text text-anchor="middle" x="404.5" y="-41" font-family="Helvetica,sans-Serif" font-size="10.00" fill="#000000"> AutoSizes</text>
</g>
</g>
</svg>
