<?xml version="1.0" encoding="UTF-8" standalone="no"?>
<!DOCTYPE svg PUBLIC "-//W3C//DTD SVG 1.1//EN"
 "http://www.w3.org/Graphics/SVG/1.1/DTD/svg11.dtd">
<!-- Generated by graphviz version 2.40.1 (20161225.0304)
 -->
<!-- Title: Configuration.PluginAndPrio Pages: 1 -->
<svg width="174pt" height="251pt"
 viewBox="0.00 0.00 174.00 251.00" xmlns="http://www.w3.org/2000/svg" xmlns:xlink="http://www.w3.org/1999/xlink">
<g id="graph0" class="graph" transform="scale(1 1) rotate(0) translate(4 247)">
<title>Configuration.PluginAndPrio</title>
<polygon fill="#ffffff" stroke="transparent" points="-4,4 -4,-247 170,-247 170,4 -4,4"/>
<!-- Node1 -->
<g id="node1" class="node">
<title>Node1</title>
<polygon fill="#bfbfbf" stroke="#000000" points="0,-.5 0,-19.5 138,-19.5 138,-.5 0,-.5"/>
<text text-anchor="middle" x="69" y="-7.5" font-family="Helvetica,sans-Serif" font-size="10.00" fill="#000000">Configuration.PluginAndPrio</text>
</g>
<!-- Node2 -->
<g id="node2" class="node">
<title>Node2</title>
<g id="a_node2"><a xlink:href="classcs_1_1aworx_1_1lib_1_1config_1_1ConfigurationPlugin.html" target="_top" xlink:title="ConfigurationPlugin">
<polygon fill="#ffffff" stroke="#000000" points="18.5,-67.5 18.5,-86.5 119.5,-86.5 119.5,-67.5 18.5,-67.5"/>
<text text-anchor="middle" x="69" y="-74.5" font-family="Helvetica,sans-Serif" font-size="10.00" fill="#000000">ConfigurationPlugin</text>
</a>
</g>
</g>
<!-- Node2&#45;&gt;Node1 -->
<g id="edge1" class="edge">
<title>Node2&#45;&gt;Node1</title>
<path fill="none" stroke="#9a32cd" stroke-dasharray="5,2" d="M69,-57.1079C69,-44.714 69,-29.3263 69,-19.5817"/>
<polygon fill="#9a32cd" stroke="#9a32cd" points="65.5001,-57.4005 69,-67.4005 72.5001,-57.4006 65.5001,-57.4005"/>
<text text-anchor="middle" x="83.5" y="-41" font-family="Helvetica,sans-Serif" font-size="10.00" fill="#000000"> plugin</text>
</g>
<!-- Node3 -->
<g id="node3" class="node">
<title>Node3</title>
<g id="a_node3"><a xlink:href="classcs_1_1aworx_1_1lib_1_1config_1_1XTernalizer.html" target="_top" xlink:title="XTernalizer">
<polygon fill="#ffffff" stroke="#000000" points="36.5,-145.5 36.5,-164.5 101.5,-164.5 101.5,-145.5 36.5,-145.5"/>
<text text-anchor="middle" x="69" y="-152.5" font-family="Helvetica,sans-Serif" font-size="10.00" fill="#000000">XTernalizer</text>
</a>
</g>
</g>
<!-- Node3&#45;&gt;Node2 -->
<g id="edge2" class="edge">
<title>Node3&#45;&gt;Node2</title>
<path fill="none" stroke="#9a32cd" stroke-dasharray="5,2" d="M69,-135.2866C69,-119.7395 69,-98.7276 69,-86.6426"/>
<polygon fill="#9a32cd" stroke="#9a32cd" points="65.5001,-135.4356 69,-145.4357 72.5001,-135.4357 65.5001,-135.4356"/>
<text text-anchor="middle" x="117.5" y="-119" font-family="Helvetica,sans-Serif" font-size="10.00" fill="#000000"> StringConverter</text>
<text text-anchor="middle" x="117.5" y="-108" font-family="Helvetica,sans-Serif" font-size="10.00" fill="#000000">defaultStringConverter</text>
</g>
<!-- Node4 -->
<g id="node4" class="node">
<title>Node4</title>
<g id="a_node4"><a xlink:href="classcs_1_1aworx_1_1lib_1_1strings_1_1AString.html" target="_top" xlink:title="AString">
<polygon fill="#ffffff" stroke="#000000" points="8.5,-223.5 8.5,-242.5 57.5,-242.5 57.5,-223.5 8.5,-223.5"/>
<text text-anchor="middle" x="33" y="-230.5" font-family="Helvetica,sans-Serif" font-size="10.00" fill="#000000">AString</text>
</a>
</g>
</g>
<!-- Node4&#45;&gt;Node3 -->
<g id="edge3" class="edge">
<title>Node4&#45;&gt;Node3</title>
<path fill="none" stroke="#9a32cd" stroke-dasharray="5,2" d="M37.6534,-213.7343C40.3275,-204.2102 44.1303,-192.7071 49,-183 52.268,-176.4857 56.9634,-169.8212 60.9835,-164.6291"/>
<polygon fill="#9a32cd" stroke="#9a32cd" points="34.2578,-212.8853 35.1172,-223.4453 41.0306,-214.6543 34.2578,-212.8853"/>
<text text-anchor="middle" x="66" y="-191.5" font-family="Helvetica,sans-Serif" font-size="10.00" fill="#000000"> tmpAS</text>
</g>
<!-- Node5 -->
<g id="node5" class="node">
<title>Node5</title>
<g id="a_node5"><a xlink:href="classcs_1_1aworx_1_1lib_1_1strings_1_1Substring.html" target="_top" xlink:title="Substring">
<polygon fill="#ffffff" stroke="#000000" points="76,-223.5 76,-242.5 134,-242.5 134,-223.5 76,-223.5"/>
<text text-anchor="middle" x="105" y="-230.5" font-family="Helvetica,sans-Serif" font-size="10.00" fill="#000000">Substring</text>
</a>
</g>
</g>
<!-- Node5&#45;&gt;Node3 -->
<g id="edge4" class="edge">
<title>Node5&#45;&gt;Node3</title>
<path fill="none" stroke="#9a32cd" stroke-dasharray="5,2" d="M96.9605,-214.1368C92.886,-204.7313 87.7963,-193.2124 83,-183 80.0889,-176.8016 76.6519,-169.9218 73.912,-164.5329"/>
<polygon fill="#9a32cd" stroke="#9a32cd" points="93.7567,-215.5465 100.9214,-223.3515 100.1878,-212.7821 93.7567,-215.5465"/>
<text text-anchor="middle" x="116" y="-197" font-family="Helvetica,sans-Serif" font-size="10.00" fill="#000000"> tmpSubs2</text>
<text text-anchor="middle" x="116" y="-186" font-family="Helvetica,sans-Serif" font-size="10.00" fill="#000000">tmpSubs</text>
</g>
</g>
</svg>
