<?xml version="1.0" encoding="UTF-8" standalone="no"?>
<!DOCTYPE svg PUBLIC "-//W3C//DTD SVG 1.1//EN"
 "http://www.w3.org/Graphics/SVG/1.1/DTD/svg11.dtd">
<!-- Generated by graphviz version 2.38.0 (20140413.2041)
 -->
<!-- Title: ThreadLock Pages: 1 -->
<svg width="582pt" height="308pt"
 viewBox="0.00 0.00 581.50 308.00" xmlns="http://www.w3.org/2000/svg" xmlns:xlink="http://www.w3.org/1999/xlink">
<g id="graph0" class="graph" transform="scale(1 1) rotate(0) translate(4 304)">
<title>ThreadLock</title>
<polygon fill="white" stroke="none" points="-4,4 -4,-304 577.5,-304 577.5,4 -4,4"/>
<!-- Node1 -->
<g id="node1" class="node"><title>Node1</title>
<polygon fill="#bfbfbf" stroke="black" points="417,-280.5 417,-299.5 485,-299.5 485,-280.5 417,-280.5"/>
<text text-anchor="middle" x="451" y="-287.5" font-family="Helvetica,sans-Serif" font-size="10.00">ThreadLock</text>
</g>
<!-- Node2 -->
<g id="node2" class="node"><title>Node2</title>
<g id="a_node2"><a xlink:href="classcs_1_1aworx_1_1lib_1_1threads_1_1SmartLock.html" target="_top" xlink:title="SmartLock">
<polygon fill="white" stroke="black" points="386,-224.5 386,-243.5 450,-243.5 450,-224.5 386,-224.5"/>
<text text-anchor="middle" x="418" y="-231.5" font-family="Helvetica,sans-Serif" font-size="10.00">SmartLock</text>
</a>
</g>
</g>
<!-- Node1&#45;&gt;Node2 -->
<g id="edge1" class="edge"><title>Node1&#45;&gt;Node2</title>
<path fill="none" stroke="midnightblue" d="M440.168,-271.275C434.528,-262.045 427.882,-251.17 423.348,-243.751"/>
<polygon fill="midnightblue" stroke="midnightblue" points="437.35,-273.375 445.551,-280.083 443.323,-269.725 437.35,-273.375"/>
</g>
<!-- Node13 -->
<g id="node13" class="node"><title>Node13</title>
<g id="a_node13"><a xlink:href="classcs_1_1aworx_1_1lox_1_1Lox.html" target="_top" xlink:title="Lox">
<polygon fill="white" stroke="black" points="468,-224.5 468,-243.5 500,-243.5 500,-224.5 468,-224.5"/>
<text text-anchor="middle" x="484" y="-231.5" font-family="Helvetica,sans-Serif" font-size="10.00">Lox</text>
</a>
</g>
</g>
<!-- Node1&#45;&gt;Node13 -->
<g id="edge12" class="edge"><title>Node1&#45;&gt;Node13</title>
<path fill="none" stroke="midnightblue" d="M461.832,-271.275C467.472,-262.045 474.118,-251.17 478.652,-243.751"/>
<polygon fill="midnightblue" stroke="midnightblue" points="458.677,-269.725 456.449,-280.083 464.65,-273.375 458.677,-269.725"/>
</g>
<!-- Node3 -->
<g id="node3" class="node"><title>Node3</title>
<g id="a_node3"><a xlink:href="classcs_1_1aworx_1_1lox_1_1core_1_1Logger.html" target="_top" xlink:title="Logger">
<polygon fill="white" stroke="black" points="395,-168.5 395,-187.5 441,-187.5 441,-168.5 395,-168.5"/>
<text text-anchor="middle" x="418" y="-175.5" font-family="Helvetica,sans-Serif" font-size="10.00">Logger</text>
</a>
</g>
</g>
<!-- Node2&#45;&gt;Node3 -->
<g id="edge2" class="edge"><title>Node2&#45;&gt;Node3</title>
<path fill="none" stroke="midnightblue" d="M418,-213.805C418,-204.91 418,-194.78 418,-187.751"/>
<polygon fill="midnightblue" stroke="midnightblue" points="414.5,-214.083 418,-224.083 421.5,-214.083 414.5,-214.083"/>
</g>
<!-- Node4 -->
<g id="node4" class="node"><title>Node4</title>
<g id="a_node4"><a xlink:href="classcs_1_1aworx_1_1lox_1_1core_1_1textlogger_1_1TextLogger.html" target="_top" xlink:title="TextLogger">
<polygon fill="white" stroke="black" points="385.5,-112.5 385.5,-131.5 450.5,-131.5 450.5,-112.5 385.5,-112.5"/>
<text text-anchor="middle" x="418" y="-119.5" font-family="Helvetica,sans-Serif" font-size="10.00">TextLogger</text>
</a>
</g>
</g>
<!-- Node3&#45;&gt;Node4 -->
<g id="edge3" class="edge"><title>Node3&#45;&gt;Node4</title>
<path fill="none" stroke="midnightblue" d="M418,-157.805C418,-148.91 418,-138.78 418,-131.751"/>
<polygon fill="midnightblue" stroke="midnightblue" points="414.5,-158.083 418,-168.083 421.5,-158.083 414.5,-158.083"/>
</g>
<!-- Node5 -->
<g id="node5" class="node"><title>Node5</title>
<g id="a_node5"><a xlink:href="classcs_1_1aworx_1_1lox_1_1core_1_1textlogger_1_1PlainTextLogger.html" target="_top" xlink:title="PlainTextLogger">
<polygon fill="white" stroke="black" points="223.5,-56.5 223.5,-75.5 310.5,-75.5 310.5,-56.5 223.5,-56.5"/>
<text text-anchor="middle" x="267" y="-63.5" font-family="Helvetica,sans-Serif" font-size="10.00">PlainTextLogger</text>
</a>
</g>
</g>
<!-- Node4&#45;&gt;Node5 -->
<g id="edge4" class="edge"><title>Node4&#45;&gt;Node5</title>
<path fill="none" stroke="midnightblue" d="M384.554,-109.039C356.142,-98.8786 316.063,-84.5457 290.814,-75.5164"/>
<polygon fill="midnightblue" stroke="midnightblue" points="383.479,-112.372 394.074,-112.444 385.836,-105.781 383.479,-112.372"/>
</g>
<!-- Node10 -->
<g id="node10" class="node"><title>Node10</title>
<g id="a_node10"><a xlink:href="classcs_1_1aworx_1_1lox_1_1loggers_1_1AnsiLogger.html" target="_top" xlink:title="AnsiLogger">
<polygon fill="white" stroke="black" points="385.5,-56.5 385.5,-75.5 450.5,-75.5 450.5,-56.5 385.5,-56.5"/>
<text text-anchor="middle" x="418" y="-63.5" font-family="Helvetica,sans-Serif" font-size="10.00">AnsiLogger</text>
</a>
</g>
</g>
<!-- Node4&#45;&gt;Node10 -->
<g id="edge9" class="edge"><title>Node4&#45;&gt;Node10</title>
<path fill="none" stroke="midnightblue" d="M418,-101.805C418,-92.9102 418,-82.7798 418,-75.7511"/>
<polygon fill="midnightblue" stroke="midnightblue" points="414.5,-102.083 418,-112.083 421.5,-102.083 414.5,-102.083"/>
</g>
<!-- Node12 -->
<g id="node12" class="node"><title>Node12</title>
<g id="a_node12"><a xlink:href="classcs_1_1aworx_1_1lox_1_1loggers_1_1ColorConsoleLogger.html" target="_top" xlink:title="ColorConsoleLogger">
<polygon fill="white" stroke="black" points="468.5,-56.5 468.5,-75.5 573.5,-75.5 573.5,-56.5 468.5,-56.5"/>
<text text-anchor="middle" x="521" y="-63.5" font-family="Helvetica,sans-Serif" font-size="10.00">ColorConsoleLogger</text>
</a>
</g>
</g>
<!-- Node4&#45;&gt;Node12 -->
<g id="edge11" class="edge"><title>Node4&#45;&gt;Node12</title>
<path fill="none" stroke="midnightblue" d="M443.579,-107.59C462.623,-97.6052 488.064,-84.2672 504.492,-75.6545"/>
<polygon fill="midnightblue" stroke="midnightblue" points="441.78,-104.581 434.549,-112.324 445.031,-110.78 441.78,-104.581"/>
</g>
<!-- Node6 -->
<g id="node6" class="node"><title>Node6</title>
<g id="a_node6"><a xlink:href="classcs_1_1aworx_1_1lox_1_1loggers_1_1CLRDebuggerLogger.html" target="_top" xlink:title="CLRDebuggerLogger">
<polygon fill="white" stroke="black" points="0,-0.5 0,-19.5 108,-19.5 108,-0.5 0,-0.5"/>
<text text-anchor="middle" x="54" y="-7.5" font-family="Helvetica,sans-Serif" font-size="10.00">CLRDebuggerLogger</text>
</a>
</g>
</g>
<!-- Node5&#45;&gt;Node6 -->
<g id="edge5" class="edge"><title>Node5&#45;&gt;Node6</title>
<path fill="none" stroke="midnightblue" d="M223.449,-53.959C183.219,-43.7598 124.297,-28.8217 87.5926,-19.5164"/>
<polygon fill="midnightblue" stroke="midnightblue" points="222.696,-57.3787 233.25,-56.4435 224.416,-50.5933 222.696,-57.3787"/>
</g>
<!-- Node7 -->
<g id="node7" class="node"><title>Node7</title>
<g id="a_node7"><a xlink:href="classcs_1_1aworx_1_1lox_1_1loggers_1_1ConsoleLogger.html" target="_top" xlink:title="ConsoleLogger">
<polygon fill="white" stroke="black" points="126,-0.5 126,-19.5 208,-19.5 208,-0.5 126,-0.5"/>
<text text-anchor="middle" x="167" y="-7.5" font-family="Helvetica,sans-Serif" font-size="10.00">ConsoleLogger</text>
</a>
</g>
</g>
<!-- Node5&#45;&gt;Node7 -->
<g id="edge6" class="edge"><title>Node5&#45;&gt;Node7</title>
<path fill="none" stroke="midnightblue" d="M241.912,-51.4526C223.451,-41.4835 198.903,-28.2279 183.027,-19.6545"/>
<polygon fill="midnightblue" stroke="midnightblue" points="240.471,-54.6521 250.933,-56.324 243.797,-48.4928 240.471,-54.6521"/>
</g>
<!-- Node8 -->
<g id="node8" class="node"><title>Node8</title>
<g id="a_node8"><a xlink:href="classcs_1_1aworx_1_1lox_1_1loggers_1_1MemoryLogger.html" target="_top" xlink:title="MemoryLogger">
<polygon fill="white" stroke="black" points="226.5,-0.5 226.5,-19.5 307.5,-19.5 307.5,-0.5 226.5,-0.5"/>
<text text-anchor="middle" x="267" y="-7.5" font-family="Helvetica,sans-Serif" font-size="10.00">MemoryLogger</text>
</a>
</g>
</g>
<!-- Node5&#45;&gt;Node8 -->
<g id="edge7" class="edge"><title>Node5&#45;&gt;Node8</title>
<path fill="none" stroke="midnightblue" d="M267,-45.8045C267,-36.9102 267,-26.7798 267,-19.7511"/>
<polygon fill="midnightblue" stroke="midnightblue" points="263.5,-46.083 267,-56.083 270.5,-46.083 263.5,-46.083"/>
</g>
<!-- Node9 -->
<g id="node9" class="node"><title>Node9</title>
<g id="a_node9"><a xlink:href="classcs_1_1aworx_1_1lox_1_1loggers_1_1TextFileLogger.html" target="_top" xlink:title="TextFileLogger">
<polygon fill="white" stroke="black" points="325.5,-0.5 325.5,-19.5 406.5,-19.5 406.5,-0.5 325.5,-0.5"/>
<text text-anchor="middle" x="366" y="-7.5" font-family="Helvetica,sans-Serif" font-size="10.00">TextFileLogger</text>
</a>
</g>
</g>
<!-- Node5&#45;&gt;Node9 -->
<g id="edge8" class="edge"><title>Node5&#45;&gt;Node9</title>
<path fill="none" stroke="midnightblue" d="M291.837,-51.4526C310.114,-41.4835 334.416,-28.2279 350.133,-19.6545"/>
<polygon fill="midnightblue" stroke="midnightblue" points="290.009,-48.4628 282.906,-56.324 293.361,-54.608 290.009,-48.4628"/>
</g>
<!-- Node11 -->
<g id="node11" class="node"><title>Node11</title>
<g id="a_node11"><a xlink:href="classcs_1_1aworx_1_1lox_1_1loggers_1_1AnsiConsoleLogger.html" target="_top" xlink:title="AnsiConsoleLogger">
<polygon fill="white" stroke="black" points="424.5,-0.5 424.5,-19.5 525.5,-19.5 525.5,-0.5 424.5,-0.5"/>
<text text-anchor="middle" x="475" y="-7.5" font-family="Helvetica,sans-Serif" font-size="10.00">AnsiConsoleLogger</text>
</a>
</g>
</g>
<!-- Node10&#45;&gt;Node11 -->
<g id="edge10" class="edge"><title>Node10&#45;&gt;Node11</title>
<path fill="none" stroke="midnightblue" d="M434.621,-49.2533C444.734,-39.6731 457.277,-27.7906 465.675,-19.8339"/>
<polygon fill="midnightblue" stroke="midnightblue" points="432.01,-46.9056 427.158,-56.324 436.825,-51.9873 432.01,-46.9056"/>
</g>
</g>
</svg>
