<?xml version="1.0" encoding="UTF-8" standalone="no"?>
<!DOCTYPE svg PUBLIC "-//W3C//DTD SVG 1.1//EN"
 "http://www.w3.org/Graphics/SVG/1.1/DTD/svg11.dtd">
<!-- Generated by graphviz version 2.40.1 (20161225.0304)
 -->
<!-- Title: IniFile.Section Pages: 1 -->
<svg width="498pt" height="443pt"
 viewBox="0.00 0.00 498.00 443.00" xmlns="http://www.w3.org/2000/svg" xmlns:xlink="http://www.w3.org/1999/xlink">
<g id="graph0" class="graph" transform="scale(1 1) rotate(0) translate(4 439)">
<title>IniFile.Section</title>
<polygon fill="#ffffff" stroke="transparent" points="-4,4 -4,-439 494,-439 494,4 -4,4"/>
<!-- Node2 -->
<g id="node1" class="node">
<title>Node2</title>
<g id="a_node1"><a xlink:title=" ">
<polygon fill="#bfbfbf" stroke="#000000" points="52.5,-.5 52.5,-19.5 131.5,-19.5 131.5,-.5 52.5,-.5"/>
<text text-anchor="middle" x="92" y="-7.5" font-family="Helvetica,sans-Serif" font-size="10.00" fill="#000000">IniFile.Section</text>
</a>
</g>
</g>
<!-- Node3 -->
<g id="node2" class="node">
<title>Node3</title>
<g id="a_node2"><a xlink:href="classcs_1_1aworx_1_1lib_1_1config_1_1InMemoryPlugin_1_1Section.html" target="_top" xlink:title=" ">
<polygon fill="#ffffff" stroke="#000000" points="67,-57.5 67,-76.5 117,-76.5 117,-57.5 67,-57.5"/>
<text text-anchor="middle" x="92" y="-64.5" font-family="Helvetica,sans-Serif" font-size="10.00" fill="#000000">Section</text>
</a>
</g>
</g>
<!-- Node3&#45;&gt;Node2 -->
<g id="edge1" class="edge">
<title>Node3&#45;&gt;Node2</title>
<path fill="none" stroke="#191970" d="M92,-47.2342C92,-37.8491 92,-27.0651 92,-19.5265"/>
<polygon fill="#191970" stroke="#191970" points="88.5001,-47.3307 92,-57.3307 95.5001,-47.3308 88.5001,-47.3307"/>
</g>
<!-- Node4 -->
<g id="node3" class="node">
<title>Node4</title>
<g id="a_node3"><a xlink:href="classcs_1_1aworx_1_1lib_1_1strings_1_1AString.html" target="_top" xlink:title=" ">
<polygon fill="#ffffff" stroke="#000000" points="74.5,-415.5 74.5,-434.5 123.5,-434.5 123.5,-415.5 74.5,-415.5"/>
<text text-anchor="middle" x="99" y="-422.5" font-family="Helvetica,sans-Serif" font-size="10.00" fill="#000000">AString</text>
</a>
</g>
</g>
<!-- Node4&#45;&gt;Node3 -->
<g id="edge2" class="edge">
<title>Node4&#45;&gt;Node3</title>
<path fill="none" stroke="#9a32cd" stroke-dasharray="5,2" d="M67.5206,-410.8202C38.5342,-395.3629 0,-367.6415 0,-329.5 0,-329.5 0,-329.5 0,-134 0,-100.8051 39.6211,-82.324 66.8606,-73.5407"/>
<polygon fill="#9a32cd" stroke="#9a32cd" points="66.0353,-413.9914 76.5354,-415.4055 69.2089,-407.7521 66.0353,-413.9914"/>
<text text-anchor="middle" x="24" y="-214" font-family="Helvetica,sans-Serif" font-size="10.00" fill="#000000"> Name</text>
<text text-anchor="middle" x="24" y="-203" font-family="Helvetica,sans-Serif" font-size="10.00" fill="#000000">Comments</text>
</g>
<!-- Node5 -->
<g id="node4" class="node">
<title>Node5</title>
<g id="a_node4"><a xlink:href="classcs_1_1aworx_1_1lib_1_1config_1_1Variable.html" target="_top" xlink:title=" ">
<polygon fill="#ffffff" stroke="#000000" points="66.5,-124.5 66.5,-143.5 117.5,-143.5 117.5,-124.5 66.5,-124.5"/>
<text text-anchor="middle" x="92" y="-131.5" font-family="Helvetica,sans-Serif" font-size="10.00" fill="#000000">Variable</text>
</a>
</g>
</g>
<!-- Node4&#45;&gt;Node5 -->
<g id="edge10" class="edge">
<title>Node4&#45;&gt;Node5</title>
<path fill="none" stroke="#9a32cd" stroke-dasharray="5,2" d="M95.372,-405.0766C90.9411,-379.6417 83.7028,-334.2267 81,-295 79.3197,-270.6134 79.7367,-264.4118 81,-240 82.8453,-204.3396 88.1604,-162.2007 90.6646,-143.6201"/>
<polygon fill="#9a32cd" stroke="#9a32cd" points="91.9866,-406.0305 97.1838,-415.263 98.8785,-404.8046 91.9866,-406.0305"/>
<text text-anchor="middle" x="108.5" y="-287" font-family="Helvetica,sans-Serif" font-size="10.00" fill="#000000"> Fullname</text>
<text text-anchor="middle" x="108.5" y="-276" font-family="Helvetica,sans-Serif" font-size="10.00" fill="#000000">Category</text>
<text text-anchor="middle" x="108.5" y="-265" font-family="Helvetica,sans-Serif" font-size="10.00" fill="#000000">DefaultValue</text>
<text text-anchor="middle" x="108.5" y="-254" font-family="Helvetica,sans-Serif" font-size="10.00" fill="#000000">Name</text>
<text text-anchor="middle" x="108.5" y="-243" font-family="Helvetica,sans-Serif" font-size="10.00" fill="#000000">Comments</text>
</g>
<!-- Node6 -->
<g id="node5" class="node">
<title>Node6</title>
<g id="a_node5"><a xlink:href="classcs_1_1aworx_1_1lib_1_1config_1_1Configuration.html" target="_top" xlink:title=" ">
<polygon fill="#ffffff" stroke="#000000" points="152,-201.5 152,-220.5 226,-220.5 226,-201.5 152,-201.5"/>
<text text-anchor="middle" x="189" y="-208.5" font-family="Helvetica,sans-Serif" font-size="10.00" fill="#000000">Configuration</text>
</a>
</g>
</g>
<!-- Node4&#45;&gt;Node6 -->
<g id="edge5" class="edge">
<title>Node4&#45;&gt;Node6</title>
<path fill="none" stroke="#9a32cd" stroke-dasharray="5,2" d="M103.11,-405.3658C108.2111,-382.6186 117.8687,-344.2616 131,-313 145.9892,-277.3153 170.6776,-238.4142 182.4113,-220.7276"/>
<polygon fill="#9a32cd" stroke="#9a32cd" points="99.6223,-404.934 100.9199,-415.449 106.4628,-406.4198 99.6223,-404.934"/>
<text text-anchor="middle" x="186.5" y="-338" font-family="Helvetica,sans-Serif" font-size="10.00" fill="#000000"> SubstitutionVariableStart</text>
<text text-anchor="middle" x="186.5" y="-327" font-family="Helvetica,sans-Serif" font-size="10.00" fill="#000000">tmpConversion</text>
<text text-anchor="middle" x="186.5" y="-316" font-family="Helvetica,sans-Serif" font-size="10.00" fill="#000000">SubstitutionVariableEnd</text>
</g>
<!-- Node8 -->
<g id="node7" class="node">
<title>Node8</title>
<g id="a_node7"><a xlink:href="classcs_1_1aworx_1_1lib_1_1strings_1_1NumberFormat.html" target="_top" xlink:title=" ">
<polygon fill="#ffffff" stroke="#000000" points="251.5,-320 251.5,-339 332.5,-339 332.5,-320 251.5,-320"/>
<text text-anchor="middle" x="292" y="-327" font-family="Helvetica,sans-Serif" font-size="10.00" fill="#000000">NumberFormat</text>
</a>
</g>
</g>
<!-- Node4&#45;&gt;Node8 -->
<g id="edge8" class="edge">
<title>Node4&#45;&gt;Node8</title>
<path fill="none" stroke="#9a32cd" stroke-dasharray="5,2" d="M127.3621,-410.9659C167.1082,-391.2988 238.3409,-356.0515 272.5801,-339.1093"/>
<polygon fill="#9a32cd" stroke="#9a32cd" points="125.6217,-407.922 118.2112,-415.494 128.7262,-414.1959 125.6217,-407.922"/>
<text text-anchor="middle" x="254.5" y="-389" font-family="Helvetica,sans-Serif" font-size="10.00" fill="#000000"> OctLiteralPrefix</text>
<text text-anchor="middle" x="254.5" y="-378" font-family="Helvetica,sans-Serif" font-size="10.00" fill="#000000">BinLiteralPrefix</text>
<text text-anchor="middle" x="254.5" y="-367" font-family="Helvetica,sans-Serif" font-size="10.00" fill="#000000">HexLiteralPrefix</text>
</g>
<!-- Node5&#45;&gt;Node3 -->
<g id="edge3" class="edge">
<title>Node5&#45;&gt;Node3</title>
<path fill="none" stroke="#9a32cd" stroke-dasharray="5,2" d="M92,-114.1079C92,-101.714 92,-86.3263 92,-76.5817"/>
<polygon fill="#9a32cd" stroke="#9a32cd" points="88.5001,-114.4005 92,-124.4005 95.5001,-114.4006 88.5001,-114.4005"/>
<text text-anchor="middle" x="109" y="-98" font-family="Helvetica,sans-Serif" font-size="10.00" fill="#000000"> tmpVar</text>
</g>
<!-- Node6&#45;&gt;Node5 -->
<g id="edge4" class="edge">
<title>Node6&#45;&gt;Node5</title>
<path fill="none" stroke="#9a32cd" stroke-dasharray="5,2" d="M168.7424,-194.9193C149.24,-179.4379 120.3868,-156.5339 104.1854,-143.6729"/>
<polygon fill="#9a32cd" stroke="#9a32cd" points="166.7065,-197.7718 176.7149,-201.2479 171.0587,-192.2892 166.7065,-197.7718"/>
<text text-anchor="middle" x="168.5" y="-169.5" font-family="Helvetica,sans-Serif" font-size="10.00" fill="#000000"> Config</text>
</g>
<!-- Node7 -->
<g id="node6" class="node">
<title>Node7</title>
<g id="a_node6"><a xlink:href="classcs_1_1aworx_1_1lib_1_1strings_1_1Substring.html" target="_top" xlink:title=" ">
<polygon fill="#ffffff" stroke="#000000" points="432,-320 432,-339 490,-339 490,-320 432,-320"/>
<text text-anchor="middle" x="461" y="-327" font-family="Helvetica,sans-Serif" font-size="10.00" fill="#000000">Substring</text>
</a>
</g>
</g>
<!-- Node7&#45;&gt;Node6 -->
<g id="edge6" class="edge">
<title>Node7&#45;&gt;Node6</title>
<path fill="none" stroke="#9a32cd" stroke-dasharray="5,2" d="M431.9007,-316.1498C428.9253,-315.001 425.9225,-313.926 423,-313 385.3586,-301.0738 368.0459,-318.0688 336,-295 313.0477,-278.4774 326.5917,-257.0123 304,-240 291.746,-230.7724 254.799,-222.4622 226.0543,-217.1275"/>
<polygon fill="#9a32cd" stroke="#9a32cd" points="430.6001,-319.3994 441.1791,-319.9786 433.2702,-312.9287 430.6001,-319.3994"/>
<text text-anchor="middle" x="382.5" y="-276" font-family="Helvetica,sans-Serif" font-size="10.00" fill="#000000"> tmpReplVarCategory</text>
<text text-anchor="middle" x="382.5" y="-265" font-family="Helvetica,sans-Serif" font-size="10.00" fill="#000000">tmpReplVarName</text>
<text text-anchor="middle" x="382.5" y="-254" font-family="Helvetica,sans-Serif" font-size="10.00" fill="#000000">tmpReplVarAll</text>
</g>
<!-- Node9 -->
<g id="node8" class="node">
<title>Node9</title>
<g id="a_node8"><a xlink:href="classcs_1_1aworx_1_1lib_1_1strings_1_1util_1_1Tokenizer.html" target="_top" xlink:title=" ">
<polygon fill="#ffffff" stroke="#000000" points="309.5,-162.5 309.5,-181.5 368.5,-181.5 368.5,-162.5 309.5,-162.5"/>
<text text-anchor="middle" x="339" y="-169.5" font-family="Helvetica,sans-Serif" font-size="10.00" fill="#000000">Tokenizer</text>
</a>
</g>
</g>
<!-- Node7&#45;&gt;Node9 -->
<g id="edge12" class="edge">
<title>Node7&#45;&gt;Node9</title>
<path fill="none" stroke="#9a32cd" stroke-dasharray="5,2" d="M457.3752,-309.734C453.0968,-290.4859 444.5163,-261.1225 429,-240 409.7543,-213.8006 377.6254,-192.9865 357.4136,-181.5898"/>
<polygon fill="#9a32cd" stroke="#9a32cd" points="453.9917,-310.6591 459.4171,-319.7594 460.8509,-309.262 453.9917,-310.6591"/>
<text text-anchor="middle" x="467" y="-270.5" font-family="Helvetica,sans-Serif" font-size="10.00" fill="#000000"> Rest</text>
<text text-anchor="middle" x="467" y="-259.5" font-family="Helvetica,sans-Serif" font-size="10.00" fill="#000000">Actual</text>
</g>
<!-- Node8&#45;&gt;Node6 -->
<g id="edge7" class="edge">
<title>Node8&#45;&gt;Node6</title>
<path fill="none" stroke="#9a32cd" stroke-dasharray="5,2" d="M262.1757,-314.9324C253.0539,-309.5288 243.4684,-302.7891 236,-295 214.1412,-272.2027 198.9405,-237.282 192.4811,-220.5648"/>
<polygon fill="#9a32cd" stroke="#9a32cd" points="260.609,-318.0662 271.0474,-319.8801 264.0186,-311.9526 260.609,-318.0662"/>
<text text-anchor="middle" x="270" y="-265" font-family="Helvetica,sans-Serif" font-size="10.00" fill="#000000"> NumberFormat</text>
</g>
<!-- Node8&#45;&gt;Node8 -->
<g id="edge9" class="edge">
<title>Node8&#45;&gt;Node8</title>
<path fill="none" stroke="#9a32cd" stroke-dasharray="5,2" d="M342.8235,-336.9914C347.5317,-335.4456 350.5,-332.9485 350.5,-329.5 350.5,-323.9824 342.9013,-320.9003 332.735,-320.2537"/>
<polygon fill="#9a32cd" stroke="#9a32cd" points="341.9872,-333.5842 332.735,-338.7463 343.1869,-340.4806 341.9872,-333.5842"/>
<text text-anchor="middle" x="382" y="-332.5" font-family="Helvetica,sans-Serif" font-size="10.00" fill="#000000"> Global</text>
<text text-anchor="middle" x="382" y="-321.5" font-family="Helvetica,sans-Serif" font-size="10.00" fill="#000000">Computational</text>
</g>
<!-- Node9&#45;&gt;Node3 -->
<g id="edge11" class="edge">
<title>Node9&#45;&gt;Node3</title>
<path fill="none" stroke="#9a32cd" stroke-dasharray="5,2" d="M307.1609,-158.4651C256.4471,-136.9066 158.5622,-95.2957 114.4827,-76.5574"/>
<polygon fill="#9a32cd" stroke="#9a32cd" points="306.0725,-161.8055 316.6448,-162.4968 308.8111,-155.3635 306.0725,-161.8055"/>
<text text-anchor="middle" x="294.5" y="-131.5" font-family="Helvetica,sans-Serif" font-size="10.00" fill="#000000"> tmpTknzr</text>
</g>
</g>
</svg>
