<?xml version="1.0" encoding="UTF-8" standalone="no"?>
<!DOCTYPE svg PUBLIC "-//W3C//DTD SVG 1.1//EN"
 "http://www.w3.org/Graphics/SVG/1.1/DTD/svg11.dtd">
<!-- Generated by graphviz version 2.40.1 (20161225.0304)
 -->
<!-- Title: ReportWriterStdIO Pages: 1 -->
<svg width="193pt" height="95pt"
 viewBox="0.00 0.00 192.50 95.00" xmlns="http://www.w3.org/2000/svg" xmlns:xlink="http://www.w3.org/1999/xlink">
<g id="graph0" class="graph" transform="scale(1 1) rotate(0) translate(4 91)">
<title>ReportWriterStdIO</title>
<polygon fill="#ffffff" stroke="transparent" points="-4,4 -4,-91 188.5,-91 188.5,4 -4,4"/>
<!-- Node2 -->
<g id="node1" class="node">
<title>Node2</title>
<g id="a_node1"><a xlink:title=" ">
<polygon fill="#bfbfbf" stroke="#000000" points="26.5,-.5 26.5,-19.5 122.5,-19.5 122.5,-.5 26.5,-.5"/>
<text text-anchor="middle" x="74.5" y="-7.5" font-family="Helvetica,sans-Serif" font-size="10.00" fill="#000000">ReportWriterStdIO</text>
</a>
</g>
</g>
<!-- Node2&#45;&gt;Node2 -->
<g id="edge3" class="edge">
<title>Node2&#45;&gt;Node2</title>
<path fill="none" stroke="#9a32cd" stroke-dasharray="5,2" d="M132.8036,-14.6036C137.5532,-13.6049 140.5,-12.0703 140.5,-10 140.5,-6.6875 132.9563,-4.7466 122.5542,-4.1772"/>
<polygon fill="#9a32cd" stroke="#9a32cd" points="132.0708,-11.166 122.5542,-15.8228 132.8977,-18.117 132.0708,-11.166"/>
<text text-anchor="middle" x="162.5" y="-7.5" font-family="Helvetica,sans-Serif" font-size="10.00" fill="#000000"> Singleton</text>
</g>
<!-- Node3 -->
<g id="node2" class="node">
<title>Node3</title>
<g id="a_node2"><a xlink:href="interfacecs_1_1aworx_1_1lib_1_1lang_1_1ReportWriter.html" target="_top" xlink:title=" ">
<polygon fill="#ffffff" stroke="#000000" points="0,-67.5 0,-86.5 71,-86.5 71,-67.5 0,-67.5"/>
<text text-anchor="middle" x="35.5" y="-74.5" font-family="Helvetica,sans-Serif" font-size="10.00" fill="#000000">ReportWriter</text>
</a>
</g>
</g>
<!-- Node3&#45;&gt;Node2 -->
<g id="edge1" class="edge">
<title>Node3&#45;&gt;Node2</title>
<path fill="none" stroke="#191970" d="M46.2047,-58.6099C53.5567,-45.9795 63.0188,-29.7241 68.9226,-19.5817"/>
<polygon fill="#191970" stroke="#191970" points="43.0936,-56.9973 41.0877,-67.4005 49.1434,-60.5188 43.0936,-56.9973"/>
</g>
<!-- Node4 -->
<g id="node3" class="node">
<title>Node4</title>
<g id="a_node3"><a xlink:href="classcs_1_1aworx_1_1lib_1_1strings_1_1AString.html" target="_top" xlink:title=" ">
<polygon fill="#ffffff" stroke="#000000" points="89,-67.5 89,-86.5 138,-86.5 138,-67.5 89,-67.5"/>
<text text-anchor="middle" x="113.5" y="-74.5" font-family="Helvetica,sans-Serif" font-size="10.00" fill="#000000">AString</text>
</a>
</g>
</g>
<!-- Node4&#45;&gt;Node2 -->
<g id="edge2" class="edge">
<title>Node4&#45;&gt;Node2</title>
<path fill="none" stroke="#9a32cd" stroke-dasharray="5,2" d="M102.7953,-58.6099C95.4433,-45.9795 85.9812,-29.7241 80.0774,-19.5817"/>
<polygon fill="#9a32cd" stroke="#9a32cd" points="99.8566,-60.5188 107.9123,-67.4005 105.9064,-56.9973 99.8566,-60.5188"/>
<text text-anchor="middle" x="109.5" y="-41" font-family="Helvetica,sans-Serif" font-size="10.00" fill="#000000"> buffer</text>
</g>
</g>
</svg>
