<?xml version="1.0" encoding="UTF-8" standalone="no"?>
<!DOCTYPE svg PUBLIC "-//W3C//DTD SVG 1.1//EN"
 "http://www.w3.org/Graphics/SVG/1.1/DTD/svg11.dtd">
<!-- Generated by graphviz version 2.40.1 (20161225.0304)
 -->
<!-- Title: VariableDecl Pages: 1 -->
<svg width="586pt" height="375pt"
 viewBox="0.00 0.00 585.50 375.00" xmlns="http://www.w3.org/2000/svg" xmlns:xlink="http://www.w3.org/1999/xlink">
<g id="graph0" class="graph" transform="scale(1 1) rotate(0) translate(4 371)">
<title>VariableDecl</title>
<polygon fill="#ffffff" stroke="transparent" points="-4,4 -4,-371 581.5,-371 581.5,4 -4,4"/>
<!-- Node1 -->
<g id="node1" class="node">
<title>Node1</title>
<g id="a_node1"><a xlink:title=" ">
<polygon fill="#bfbfbf" stroke="#000000" points="0,-.5 0,-19.5 71,-19.5 71,-.5 0,-.5"/>
<text text-anchor="middle" x="35.5" y="-7.5" font-family="Helvetica,sans-Serif" font-size="10.00" fill="#000000">VariableDecl</text>
</a>
</g>
</g>
<!-- Node2 -->
<g id="node2" class="node">
<title>Node2</title>
<g id="a_node2"><a xlink:href="classcs_1_1aworx_1_1lib_1_1strings_1_1AString.html" target="_top" xlink:title=" ">
<polygon fill="#ffffff" stroke="#000000" points="125,-347.5 125,-366.5 174,-366.5 174,-347.5 125,-347.5"/>
<text text-anchor="middle" x="149.5" y="-354.5" font-family="Helvetica,sans-Serif" font-size="10.00" fill="#000000">AString</text>
</a>
</g>
</g>
<!-- Node2&#45;&gt;Node1 -->
<g id="edge1" class="edge">
<title>Node2&#45;&gt;Node1</title>
<path fill="none" stroke="#9a32cd" stroke-dasharray="5,2" d="M114.9118,-347.8871C76.4,-335.4022 19.5,-308.9305 19.5,-261.5 19.5,-261.5 19.5,-261.5 19.5,-77 19.5,-56.1913 26.8916,-32.7171 31.6268,-19.8139"/>
<polygon fill="#9a32cd" stroke="#9a32cd" points="114.1552,-351.3159 124.742,-350.904 116.209,-344.624 114.1552,-351.3159"/>
<text text-anchor="middle" x="59" y="-141.5" font-family="Helvetica,sans-Serif" font-size="10.00" fill="#000000"> CategoryFallback</text>
</g>
<!-- Node3 -->
<g id="node3" class="node">
<title>Node3</title>
<g id="a_node3"><a xlink:href="classcs_1_1aworx_1_1lib_1_1config_1_1Variable.html" target="_top" xlink:title=" ">
<polygon fill="#ffffff" stroke="#000000" points="101,-67.5 101,-86.5 152,-86.5 152,-67.5 101,-67.5"/>
<text text-anchor="middle" x="126.5" y="-74.5" font-family="Helvetica,sans-Serif" font-size="10.00" fill="#000000">Variable</text>
</a>
</g>
</g>
<!-- Node2&#45;&gt;Node3 -->
<g id="edge9" class="edge">
<title>Node2&#45;&gt;Node3</title>
<path fill="none" stroke="#9a32cd" stroke-dasharray="5,2" d="M147.8666,-337.1153C143.3115,-281.6613 130.5858,-126.7405 127.2884,-86.5977"/>
<polygon fill="#9a32cd" stroke="#9a32cd" points="144.4013,-337.6819 148.7083,-347.3618 151.3778,-337.1088 144.4013,-337.6819"/>
<text text-anchor="middle" x="167" y="-219" font-family="Helvetica,sans-Serif" font-size="10.00" fill="#000000"> Fullname</text>
<text text-anchor="middle" x="167" y="-208" font-family="Helvetica,sans-Serif" font-size="10.00" fill="#000000">Category</text>
<text text-anchor="middle" x="167" y="-197" font-family="Helvetica,sans-Serif" font-size="10.00" fill="#000000">DefaultValue</text>
<text text-anchor="middle" x="167" y="-186" font-family="Helvetica,sans-Serif" font-size="10.00" fill="#000000">Name</text>
<text text-anchor="middle" x="167" y="-175" font-family="Helvetica,sans-Serif" font-size="10.00" fill="#000000">Comments</text>
</g>
<!-- Node4 -->
<g id="node4" class="node">
<title>Node4</title>
<g id="a_node4"><a xlink:href="classcs_1_1aworx_1_1lib_1_1config_1_1Configuration.html" target="_top" xlink:title=" ">
<polygon fill="#ffffff" stroke="#000000" points="226.5,-134.5 226.5,-153.5 300.5,-153.5 300.5,-134.5 226.5,-134.5"/>
<text text-anchor="middle" x="263.5" y="-141.5" font-family="Helvetica,sans-Serif" font-size="10.00" fill="#000000">Configuration</text>
</a>
</g>
</g>
<!-- Node2&#45;&gt;Node4 -->
<g id="edge4" class="edge">
<title>Node2&#45;&gt;Node4</title>
<path fill="none" stroke="#9a32cd" stroke-dasharray="5,2" d="M155.505,-337.8605C162.9934,-315.0748 176.858,-276.1858 193.5,-245 212.584,-209.2381 241.8992,-170.9252 255.7463,-153.5471"/>
<polygon fill="#9a32cd" stroke="#9a32cd" points="152.1732,-336.7886 152.4412,-347.3801 158.8366,-338.9332 152.1732,-336.7886"/>
<text text-anchor="middle" x="249" y="-270" font-family="Helvetica,sans-Serif" font-size="10.00" fill="#000000"> SubstitutionVariableStart</text>
<text text-anchor="middle" x="249" y="-259" font-family="Helvetica,sans-Serif" font-size="10.00" fill="#000000">tmpConversion</text>
<text text-anchor="middle" x="249" y="-248" font-family="Helvetica,sans-Serif" font-size="10.00" fill="#000000">SubstitutionVariableEnd</text>
</g>
<!-- Node6 -->
<g id="node6" class="node">
<title>Node6</title>
<g id="a_node6"><a xlink:href="classcs_1_1aworx_1_1lib_1_1strings_1_1NumberFormat.html" target="_top" xlink:title=" ">
<polygon fill="#ffffff" stroke="#000000" points="314,-252 314,-271 395,-271 395,-252 314,-252"/>
<text text-anchor="middle" x="354.5" y="-259" font-family="Helvetica,sans-Serif" font-size="10.00" fill="#000000">NumberFormat</text>
</a>
</g>
</g>
<!-- Node2&#45;&gt;Node6 -->
<g id="edge7" class="edge">
<title>Node2&#45;&gt;Node6</title>
<path fill="none" stroke="#9a32cd" stroke-dasharray="5,2" d="M179.0918,-343.2145C221.2023,-323.5972 297.3508,-288.1232 333.8726,-271.1093"/>
<polygon fill="#9a32cd" stroke="#9a32cd" points="177.4923,-340.0985 169.9057,-347.494 180.4483,-346.4437 177.4923,-340.0985"/>
<text text-anchor="middle" x="312" y="-321" font-family="Helvetica,sans-Serif" font-size="10.00" fill="#000000"> OctLiteralPrefix</text>
<text text-anchor="middle" x="312" y="-310" font-family="Helvetica,sans-Serif" font-size="10.00" fill="#000000">BinLiteralPrefix</text>
<text text-anchor="middle" x="312" y="-299" font-family="Helvetica,sans-Serif" font-size="10.00" fill="#000000">HexLiteralPrefix</text>
</g>
<!-- Node3&#45;&gt;Node1 -->
<g id="edge2" class="edge">
<title>Node3&#45;&gt;Node1</title>
<path fill="none" stroke="#9a32cd" stroke-dasharray="5,2" d="M104.9804,-61.1559C87.4372,-48.2395 63.2348,-30.4201 48.5139,-19.5817"/>
<polygon fill="#9a32cd" stroke="#9a32cd" points="103.334,-64.29 113.4619,-67.4005 107.4843,-58.653 103.334,-64.29"/>
<text text-anchor="middle" x="115" y="-41" font-family="Helvetica,sans-Serif" font-size="10.00" fill="#000000"> FormatHints</text>
</g>
<!-- Node4&#45;&gt;Node3 -->
<g id="edge3" class="edge">
<title>Node4&#45;&gt;Node3</title>
<path fill="none" stroke="#9a32cd" stroke-dasharray="5,2" d="M234.6714,-129.9013C208.064,-116.889 169.2712,-97.9173 146.0923,-86.5817"/>
<polygon fill="#9a32cd" stroke="#9a32cd" points="233.3503,-133.1513 243.8712,-134.4005 236.4256,-126.8631 233.3503,-133.1513"/>
<text text-anchor="middle" x="219" y="-108" font-family="Helvetica,sans-Serif" font-size="10.00" fill="#000000"> Config</text>
</g>
<!-- Node5 -->
<g id="node5" class="node">
<title>Node5</title>
<g id="a_node5"><a xlink:href="classcs_1_1aworx_1_1lib_1_1strings_1_1Substring.html" target="_top" xlink:title=" ">
<polygon fill="#ffffff" stroke="#000000" points="494.5,-252 494.5,-271 552.5,-271 552.5,-252 494.5,-252"/>
<text text-anchor="middle" x="523.5" y="-259" font-family="Helvetica,sans-Serif" font-size="10.00" fill="#000000">Substring</text>
</a>
</g>
</g>
<!-- Node5&#45;&gt;Node4 -->
<g id="edge5" class="edge">
<title>Node5&#45;&gt;Node4</title>
<path fill="none" stroke="#9a32cd" stroke-dasharray="5,2" d="M506.193,-245.1124C483.6738,-224.7393 442.2507,-190.4109 400.5,-172 368.4028,-157.8461 328.8911,-150.7496 300.5616,-147.2529"/>
<polygon fill="#9a32cd" stroke="#9a32cd" points="503.8722,-247.7332 513.5998,-251.9315 508.6134,-242.5834 503.8722,-247.7332"/>
<text text-anchor="middle" x="531" y="-208" font-family="Helvetica,sans-Serif" font-size="10.00" fill="#000000"> tmpReplVarCategory</text>
<text text-anchor="middle" x="531" y="-197" font-family="Helvetica,sans-Serif" font-size="10.00" fill="#000000">tmpReplVarName</text>
<text text-anchor="middle" x="531" y="-186" font-family="Helvetica,sans-Serif" font-size="10.00" fill="#000000">tmpReplVarAll</text>
</g>
<!-- Node6&#45;&gt;Node4 -->
<g id="edge6" class="edge">
<title>Node6&#45;&gt;Node4</title>
<path fill="none" stroke="#9a32cd" stroke-dasharray="5,2" d="M340.8871,-243.9229C321.4506,-218.8263 286.4027,-173.5721 271.0498,-153.7484"/>
<polygon fill="#9a32cd" stroke="#9a32cd" points="338.1628,-246.1214 347.0531,-251.8845 343.6971,-241.8352 338.1628,-246.1214"/>
<text text-anchor="middle" x="362.5" y="-197" font-family="Helvetica,sans-Serif" font-size="10.00" fill="#000000"> NumberFormat</text>
</g>
<!-- Node6&#45;&gt;Node6 -->
<g id="edge8" class="edge">
<title>Node6&#45;&gt;Node6</title>
<path fill="none" stroke="#9a32cd" stroke-dasharray="5,2" d="M405.3235,-268.9914C410.0317,-267.4456 413,-264.9485 413,-261.5 413,-255.9824 405.4013,-252.9003 395.235,-252.2537"/>
<polygon fill="#9a32cd" stroke="#9a32cd" points="404.4872,-265.5842 395.235,-270.7463 405.6869,-272.4806 404.4872,-265.5842"/>
<text text-anchor="middle" x="444.5" y="-264.5" font-family="Helvetica,sans-Serif" font-size="10.00" fill="#000000"> Global</text>
<text text-anchor="middle" x="444.5" y="-253.5" font-family="Helvetica,sans-Serif" font-size="10.00" fill="#000000">Computational</text>
</g>
</g>
</svg>
