<?xml version="1.0" encoding="UTF-8" standalone="no"?>
<!DOCTYPE svg PUBLIC "-//W3C//DTD SVG 1.1//EN"
 "http://www.w3.org/Graphics/SVG/1.1/DTD/svg11.dtd">
<!-- Generated by graphviz version 2.38.0 (20140413.2041)
 -->
<!-- Title: InMemoryPlugin.Section Pages: 1 -->
<svg width="1480pt" height="529pt"
 viewBox="0.00 0.00 1480.00 528.50" xmlns="http://www.w3.org/2000/svg" xmlns:xlink="http://www.w3.org/1999/xlink">
<g id="graph0" class="graph" transform="scale(1 1) rotate(0) translate(4 524.5)">
<title>InMemoryPlugin.Section</title>
<polygon fill="white" stroke="none" points="-4,4 -4,-524.5 1476,-524.5 1476,4 -4,4"/>
<!-- Node1 -->
<g id="node1" class="node"><title>Node1</title>
<polygon fill="#bfbfbf" stroke="black" points="1349,-76 1349,-95 1472,-95 1472,-76 1349,-76"/>
<text text-anchor="middle" x="1410.5" y="-83" font-family="Helvetica,sans-Serif" font-size="10.00">InMemoryPlugin.Section</text>
</g>
<!-- Node2 -->
<g id="node2" class="node"><title>Node2</title>
<g id="a_node2"><a xlink:href="classcom_1_1aworx_1_1lib_1_1strings_1_1Tokenizer.html" target="_top" xlink:title="Tokenizer">
<polygon fill="white" stroke="black" points="363.5,-488 363.5,-507 422.5,-507 422.5,-488 363.5,-488"/>
<text text-anchor="middle" x="393" y="-495" font-family="Helvetica,sans-Serif" font-size="10.00">Tokenizer</text>
</a>
</g>
</g>
<!-- Node2&#45;&gt;Node1 -->
<g id="edge1" class="edge"><title>Node2&#45;&gt;Node1</title>
<path fill="none" stroke="#9a32cd" stroke-dasharray="5,2" d="M432.735,-500.319C484.903,-503.866 580.649,-509.5 662.5,-509.5 662.5,-509.5 662.5,-509.5 1200,-509.5 1391.31,-509.5 1407.92,-158.265 1409.36,-95.1525"/>
<polygon fill="#9a32cd" stroke="#9a32cd" points="432.81,-496.816 422.592,-499.618 432.327,-503.799 432.81,-496.816"/>
<text text-anchor="middle" x="925" y="-512.5" font-family="Helvetica,sans-Serif" font-size="10.00"> tmpTknzr</text>
</g>
<!-- Node3 -->
<g id="node3" class="node"><title>Node3</title>
<g id="a_node3"><a xlink:href="classcom_1_1aworx_1_1lib_1_1strings_1_1Substring.html" target="_top" xlink:title="Substring">
<polygon fill="white" stroke="black" points="118,-396 118,-415 176,-415 176,-396 118,-396"/>
<text text-anchor="middle" x="147" y="-403" font-family="Helvetica,sans-Serif" font-size="10.00">Substring</text>
</a>
</g>
</g>
<!-- Node3&#45;&gt;Node2 -->
<g id="edge2" class="edge"><title>Node3&#45;&gt;Node2</title>
<path fill="none" stroke="#9a32cd" stroke-dasharray="5,2" d="M166.965,-421.281C174.933,-427.318 184.538,-433.86 194,-438.5 251.002,-466.455 323.833,-483.958 363.356,-492.098"/>
<polygon fill="#9a32cd" stroke="#9a32cd" points="169.066,-418.481 159.044,-415.043 164.734,-423.98 169.066,-418.481"/>
<text text-anchor="middle" x="218" y="-470.5" font-family="Helvetica,sans-Serif" font-size="10.00"> rest</text>
<text text-anchor="middle" x="218" y="-459.5" font-family="Helvetica,sans-Serif" font-size="10.00">actual</text>
</g>
<!-- Node8 -->
<g id="node8" class="node"><title>Node8</title>
<g id="a_node8"><a xlink:href="classcom_1_1aworx_1_1lib_1_1config_1_1Configuration.html" target="_top" xlink:title="Configuration">
<polygon fill="white" stroke="black" points="980,-291 980,-310 1054,-310 1054,-291 980,-291"/>
<text text-anchor="middle" x="1017" y="-298" font-family="Helvetica,sans-Serif" font-size="10.00">Configuration</text>
</a>
</g>
</g>
<!-- Node3&#45;&gt;Node8 -->
<g id="edge25" class="edge"><title>Node3&#45;&gt;Node8</title>
<path fill="none" stroke="#9a32cd" stroke-dasharray="5,2" d="M186.252,-409.976C188.872,-410.184 191.473,-410.363 194,-410.5 215.302,-411.654 220.667,-410.548 242,-410.5 521.161,-409.878 591.777,-421.377 870,-398.5 910.991,-395.13 927.248,-410.499 962,-388.5 991.382,-369.901 1007.24,-328.954 1013.2,-310.212"/>
<polygon fill="#9a32cd" stroke="#9a32cd" points="186.458,-406.48 176.18,-409.051 185.818,-413.451 186.458,-406.48"/>
<text text-anchor="middle" x="539" y="-437.5" font-family="Helvetica,sans-Serif" font-size="10.00"> tmpReplVarCategory</text>
<text text-anchor="middle" x="539" y="-426.5" font-family="Helvetica,sans-Serif" font-size="10.00">tmpReplVarName</text>
<text text-anchor="middle" x="539" y="-415.5" font-family="Helvetica,sans-Serif" font-size="10.00">tmpReplVarAll</text>
</g>
<!-- Node11 -->
<g id="node11" class="node"><title>Node11</title>
<g id="a_node11"><a xlink:href="classcom_1_1aworx_1_1lib_1_1config_1_1XTernalizer.html" target="_top" xlink:title="XTernalizer">
<polygon fill="white" stroke="black" points="260,-349 260,-368 326,-368 326,-349 260,-349"/>
<text text-anchor="middle" x="293" y="-356" font-family="Helvetica,sans-Serif" font-size="10.00">XTernalizer</text>
</a>
</g>
</g>
<!-- Node3&#45;&gt;Node11 -->
<g id="edge13" class="edge"><title>Node3&#45;&gt;Node11</title>
<path fill="none" stroke="#9a32cd" stroke-dasharray="5,2" d="M182.931,-392.355C186.658,-391.023 190.4,-389.715 194,-388.5 215.748,-381.159 240.462,-373.599 259.631,-367.904"/>
<polygon fill="#9a32cd" stroke="#9a32cd" points="181.418,-389.181 173.216,-395.887 183.81,-395.76 181.418,-389.181"/>
<text text-anchor="middle" x="218" y="-402.5" font-family="Helvetica,sans-Serif" font-size="10.00"> tmpSubs2</text>
<text text-anchor="middle" x="218" y="-391.5" font-family="Helvetica,sans-Serif" font-size="10.00">tmpSubs</text>
</g>
<!-- Node4 -->
<g id="node4" class="node"><title>Node4</title>
<polygon fill="white" stroke="#bfbfbf" points="0,-343 0,-362 81,-362 81,-343 0,-343"/>
<text text-anchor="middle" x="40.5" y="-350" font-family="Helvetica,sans-Serif" font-size="10.00">CharSequence</text>
</g>
<!-- Node4&#45;&gt;Node3 -->
<g id="edge3" class="edge"><title>Node4&#45;&gt;Node3</title>
<path fill="none" stroke="midnightblue" d="M69.6448,-366.774C87.8024,-375.984 110.934,-387.715 126.955,-395.841"/>
<polygon fill="midnightblue" stroke="midnightblue" points="71.1686,-363.623 60.6669,-362.221 68.0023,-369.866 71.1686,-363.623"/>
</g>
<!-- Node5 -->
<g id="node5" class="node"><title>Node5</title>
<g id="a_node5"><a xlink:href="classcom_1_1aworx_1_1lib_1_1strings_1_1AString.html" target="_top" xlink:title="AString">
<polygon fill="white" stroke="black" points="122.5,-265 122.5,-284 171.5,-284 171.5,-265 122.5,-265"/>
<text text-anchor="middle" x="147" y="-272" font-family="Helvetica,sans-Serif" font-size="10.00">AString</text>
</a>
</g>
</g>
<!-- Node4&#45;&gt;Node5 -->
<g id="edge5" class="edge"><title>Node4&#45;&gt;Node5</title>
<path fill="none" stroke="midnightblue" d="M62.3495,-336.938C83.4454,-321.191 115.397,-297.342 133.081,-284.143"/>
<polygon fill="midnightblue" stroke="midnightblue" points="60.234,-334.149 54.3138,-342.936 64.4211,-339.759 60.234,-334.149"/>
</g>
<!-- Node5&#45;&gt;Node1 -->
<g id="edge4" class="edge"><title>Node5&#45;&gt;Node1</title>
<path fill="none" stroke="#9a32cd" stroke-dasharray="5,2" d="M149.716,-254.688C153.268,-223.841 163.813,-163.709 194,-123.5 225.233,-81.8985 239.979,-59.5 292,-59.5 292,-59.5 292,-59.5 1200,-59.5 1255.34,-59.5 1318.29,-68.5458 1360.61,-75.9662"/>
<polygon fill="#9a32cd" stroke="#9a32cd" points="146.234,-254.332 148.7,-264.636 153.198,-255.043 146.234,-254.332"/>
<text text-anchor="middle" x="789.5" y="-73.5" font-family="Helvetica,sans-Serif" font-size="10.00"> name</text>
<text text-anchor="middle" x="789.5" y="-62.5" font-family="Helvetica,sans-Serif" font-size="10.00">comments</text>
</g>
<!-- Node6 -->
<g id="node6" class="node"><title>Node6</title>
<g id="a_node6"><a xlink:href="classcom_1_1aworx_1_1lib_1_1config_1_1Variable.html" target="_top" xlink:title="Variable">
<polygon fill="white" stroke="black" points="1173,-123 1173,-142 1225,-142 1225,-123 1173,-123"/>
<text text-anchor="middle" x="1199" y="-130" font-family="Helvetica,sans-Serif" font-size="10.00">Variable</text>
</a>
</g>
</g>
<!-- Node5&#45;&gt;Node6 -->
<g id="edge26" class="edge"><title>Node5&#45;&gt;Node6</title>
<path fill="none" stroke="#9a32cd" stroke-dasharray="5,2" d="M154.409,-255.181C170.213,-211.617 215.428,-109.5 292,-109.5 292,-109.5 292,-109.5 1018,-109.5 1073.6,-109.5 1138.1,-120.433 1172.79,-127.223"/>
<polygon fill="#9a32cd" stroke="#9a32cd" points="151.087,-254.078 151.098,-264.673 157.696,-256.383 151.087,-254.078"/>
<text text-anchor="middle" x="663.5" y="-156.5" font-family="Helvetica,sans-Serif" font-size="10.00"> fullname</text>
<text text-anchor="middle" x="663.5" y="-145.5" font-family="Helvetica,sans-Serif" font-size="10.00">category</text>
<text text-anchor="middle" x="663.5" y="-134.5" font-family="Helvetica,sans-Serif" font-size="10.00">defaultValue</text>
<text text-anchor="middle" x="663.5" y="-123.5" font-family="Helvetica,sans-Serif" font-size="10.00">name</text>
<text text-anchor="middle" x="663.5" y="-112.5" font-family="Helvetica,sans-Serif" font-size="10.00">comments</text>
</g>
<!-- Node5&#45;&gt;Node8 -->
<g id="edge24" class="edge"><title>Node5&#45;&gt;Node8</title>
<path fill="none" stroke="#9a32cd" stroke-dasharray="5,2" d="M181.714,-269.322C238.815,-260.841 358.276,-244.349 460,-238.5 530.106,-234.469 547.987,-233.079 618,-238.5 752.389,-248.905 910.035,-278.789 979.73,-292.921"/>
<polygon fill="#9a32cd" stroke="#9a32cd" points="181.167,-265.865 171.796,-270.808 182.204,-272.787 181.167,-265.865"/>
<text text-anchor="middle" x="539" y="-263.5" font-family="Helvetica,sans-Serif" font-size="10.00"> substitutionVariableStart</text>
<text text-anchor="middle" x="539" y="-252.5" font-family="Helvetica,sans-Serif" font-size="10.00">tmpConversion</text>
<text text-anchor="middle" x="539" y="-241.5" font-family="Helvetica,sans-Serif" font-size="10.00">substitutionVariableEnd</text>
</g>
<!-- Node9 -->
<g id="node9" class="node"><title>Node9</title>
<g id="a_node9"><a xlink:href="classcom_1_1aworx_1_1lib_1_1config_1_1EnvironmentPlugin.html" target="_top" xlink:title="EnvironmentPlugin">
<polygon fill="white" stroke="black" points="740.5,-370 740.5,-389 838.5,-389 838.5,-370 740.5,-370"/>
<text text-anchor="middle" x="789.5" y="-377" font-family="Helvetica,sans-Serif" font-size="10.00">EnvironmentPlugin</text>
</a>
</g>
</g>
<!-- Node5&#45;&gt;Node9 -->
<g id="edge14" class="edge"><title>Node5&#45;&gt;Node9</title>
<path fill="none" stroke="#9a32cd" stroke-dasharray="5,2" d="M181.371,-282.325C218.562,-292.007 279.569,-310.81 326,-339.5 335.361,-345.284 333.883,-352.172 344,-356.5 478.096,-413.871 656.091,-399.145 740.354,-387.45"/>
<polygon fill="#9a32cd" stroke="#9a32cd" points="182.098,-278.899 171.545,-279.836 180.379,-285.685 182.098,-278.899"/>
<text text-anchor="middle" x="393" y="-389.5" font-family="Helvetica,sans-Serif" font-size="10.00"> tmpAS</text>
</g>
<!-- Node5&#45;&gt;Node11 -->
<g id="edge12" class="edge"><title>Node5&#45;&gt;Node11</title>
<path fill="none" stroke="#9a32cd" stroke-dasharray="5,2" d="M158.561,-292.924C166.706,-305.549 179.085,-321.721 194,-331.5 213.777,-344.466 239.7,-351.256 259.917,-354.783"/>
<polygon fill="#9a32cd" stroke="#9a32cd" points="161.386,-290.834 153.186,-284.125 155.412,-294.483 161.386,-290.834"/>
<text text-anchor="middle" x="218" y="-353.5" font-family="Helvetica,sans-Serif" font-size="10.00"> tmpAS</text>
</g>
<!-- Node6&#45;&gt;Node1 -->
<g id="edge6" class="edge"><title>Node6&#45;&gt;Node1</title>
<path fill="none" stroke="#9a32cd" stroke-dasharray="5,2" d="M1235.41,-124.556C1271.77,-116.399 1328.37,-103.702 1367.09,-95.014"/>
<polygon fill="#9a32cd" stroke="#9a32cd" points="1234.26,-121.226 1225.27,-126.831 1235.79,-128.057 1234.26,-121.226"/>
<text text-anchor="middle" x="1313.5" y="-113.5" font-family="Helvetica,sans-Serif" font-size="10.00"> tmpVar</text>
</g>
<!-- Node7 -->
<g id="node7" class="node"><title>Node7</title>
<polygon fill="white" stroke="#bfbfbf" points="709,-138.5 709,-168.5 870,-168.5 870,-138.5 709,-138.5"/>
<text text-anchor="start" x="717" y="-156.5" font-family="Helvetica,sans-Serif" font-size="10.00">ArrayList&lt; com.aworx.lib.strings.</text>
<text text-anchor="middle" x="789.5" y="-145.5" font-family="Helvetica,sans-Serif" font-size="10.00">AString &gt;</text>
</g>
<!-- Node7&#45;&gt;Node6 -->
<g id="edge7" class="edge"><title>Node7&#45;&gt;Node6</title>
<path fill="none" stroke="#9a32cd" stroke-dasharray="5,2" d="M880.11,-148.882C974.054,-144.041 1115.79,-136.737 1172.87,-133.795"/>
<polygon fill="#9a32cd" stroke="#9a32cd" points="879.844,-145.391 870.037,-149.401 880.204,-152.382 879.844,-145.391"/>
<text text-anchor="middle" x="1017" y="-147.5" font-family="Helvetica,sans-Serif" font-size="10.00"> values</text>
</g>
<!-- Node7&#45;&gt;Node8 -->
<g id="edge21" class="edge"><title>Node7&#45;&gt;Node8</title>
<path fill="none" stroke="#9a32cd" stroke-dasharray="5,2" d="M880.332,-169.084C914.592,-176.443 948.629,-185.933 962,-196.5 993.604,-221.476 1008.62,-270.031 1013.81,-290.75"/>
<polygon fill="#9a32cd" stroke="#9a32cd" points="880.704,-165.586 870.2,-166.968 879.273,-172.438 880.704,-165.586"/>
<text text-anchor="middle" x="925" y="-199.5" font-family="Helvetica,sans-Serif" font-size="10.00"> trueValues</text>
</g>
<!-- Node8&#45;&gt;Node6 -->
<g id="edge8" class="edge"><title>Node8&#45;&gt;Node6</title>
<path fill="none" stroke="#9a32cd" stroke-dasharray="5,2" d="M1035.75,-283.931C1072.88,-249.281 1157.73,-170.082 1187.47,-142.328"/>
<polygon fill="#9a32cd" stroke="#9a32cd" points="1033.12,-281.604 1028.19,-290.986 1037.89,-286.722 1033.12,-281.604"/>
<text text-anchor="middle" x="1087" y="-249.5" font-family="Helvetica,sans-Serif" font-size="10.00"> config</text>
</g>
<!-- Node9&#45;&gt;Node8 -->
<g id="edge9" class="edge"><title>Node9&#45;&gt;Node8</title>
<path fill="none" stroke="#9a32cd" stroke-dasharray="5,2" d="M849.016,-378.44C883.443,-375.793 926.956,-368.834 962,-351.5 981.881,-341.667 999.423,-322.025 1008.79,-310.193"/>
<polygon fill="#9a32cd" stroke="#9a32cd" points="848.389,-374.974 838.643,-379.13 848.853,-381.958 848.389,-374.974"/>
<text text-anchor="middle" x="925" y="-376.5" font-family="Helvetica,sans-Serif" font-size="10.00"> environment</text>
</g>
<!-- Node10 -->
<g id="node10" class="node"><title>Node10</title>
<g id="a_node10"><a xlink:href="classcom_1_1aworx_1_1lib_1_1config_1_1ConfigurationPlugin.html" target="_top" xlink:title="ConfigurationPlugin">
<polygon fill="white" stroke="black" points="488.5,-331 488.5,-350 589.5,-350 589.5,-331 488.5,-331"/>
<text text-anchor="middle" x="539" y="-338" font-family="Helvetica,sans-Serif" font-size="10.00">ConfigurationPlugin</text>
</a>
</g>
</g>
<!-- Node10&#45;&gt;Node9 -->
<g id="edge10" class="edge"><title>Node10&#45;&gt;Node9</title>
<path fill="none" stroke="midnightblue" d="M599.743,-349.876C642.75,-356.626 700.026,-365.615 740.164,-371.914"/>
<polygon fill="midnightblue" stroke="midnightblue" points="600.112,-346.391 589.69,-348.298 599.027,-353.307 600.112,-346.391"/>
</g>
<!-- Node12 -->
<g id="node12" class="node"><title>Node12</title>
<g id="a_node12"><a xlink:href="classcom_1_1aworx_1_1lib_1_1config_1_1InMemoryPlugin.html" target="_top" xlink:title="InMemoryPlugin">
<polygon fill="white" stroke="black" points="746,-331 746,-350 833,-350 833,-331 746,-331"/>
<text text-anchor="middle" x="789.5" y="-338" font-family="Helvetica,sans-Serif" font-size="10.00">InMemoryPlugin</text>
</a>
</g>
</g>
<!-- Node10&#45;&gt;Node12 -->
<g id="edge16" class="edge"><title>Node10&#45;&gt;Node12</title>
<path fill="none" stroke="midnightblue" d="M599.927,-340.5C645.02,-340.5 705.721,-340.5 745.93,-340.5"/>
<polygon fill="midnightblue" stroke="midnightblue" points="599.69,-337 589.69,-340.5 599.69,-344 599.69,-337"/>
</g>
<!-- Node15 -->
<g id="node15" class="node"><title>Node15</title>
<g id="a_node15"><a xlink:href="classcom_1_1aworx_1_1lib_1_1config_1_1CommandLinePlugin.html" target="_top" xlink:title="CommandLinePlugin">
<polygon fill="white" stroke="black" points="736,-293 736,-312 843,-312 843,-293 736,-293"/>
<text text-anchor="middle" x="789.5" y="-300" font-family="Helvetica,sans-Serif" font-size="10.00">CommandLinePlugin</text>
</a>
</g>
</g>
<!-- Node10&#45;&gt;Node15 -->
<g id="edge20" class="edge"><title>Node10&#45;&gt;Node15</title>
<path fill="none" stroke="midnightblue" d="M599.671,-331.375C641.184,-325.027 696.016,-316.642 735.893,-310.544"/>
<polygon fill="midnightblue" stroke="midnightblue" points="599.046,-327.93 589.69,-332.901 600.105,-334.85 599.046,-327.93"/>
</g>
<!-- Node11&#45;&gt;Node10 -->
<g id="edge11" class="edge"><title>Node11&#45;&gt;Node10</title>
<path fill="none" stroke="#9a32cd" stroke-dasharray="5,2" d="M318.526,-344.044C326.394,-340.152 335.323,-336.475 344,-334.5 392.135,-323.546 448.711,-327.094 488.303,-332.133"/>
<polygon fill="#9a32cd" stroke="#9a32cd" points="316.744,-341.028 309.544,-348.8 320.019,-347.214 316.744,-341.028"/>
<text text-anchor="middle" x="393" y="-348.5" font-family="Helvetica,sans-Serif" font-size="10.00"> stringConverter</text>
<text text-anchor="middle" x="393" y="-337.5" font-family="Helvetica,sans-Serif" font-size="10.00">defaultStringConverter</text>
</g>
<!-- Node12&#45;&gt;Node8 -->
<g id="edge15" class="edge"><title>Node12&#45;&gt;Node8</title>
<path fill="none" stroke="#9a32cd" stroke-dasharray="5,2" d="M843.429,-332.654C877.397,-327.422 922.401,-320.126 962,-312.5 967.753,-311.392 973.83,-310.131 979.75,-308.852"/>
<polygon fill="#9a32cd" stroke="#9a32cd" points="842.615,-329.237 833.259,-334.209 843.673,-336.157 842.615,-329.237"/>
<text text-anchor="middle" x="925" y="-339.5" font-family="Helvetica,sans-Serif" font-size="10.00"> protectedValues</text>
<text text-anchor="middle" x="925" y="-328.5" font-family="Helvetica,sans-Serif" font-size="10.00">defaultValues</text>
</g>
<!-- Node13 -->
<g id="node13" class="node"><title>Node13</title>
<polygon fill="white" stroke="#bfbfbf" points="460,-281.5 460,-311.5 618,-311.5 618,-281.5 460,-281.5"/>
<text text-anchor="start" x="468" y="-299.5" font-family="Helvetica,sans-Serif" font-size="10.00">ArrayList&lt; com.aworx.lib.config.</text>
<text text-anchor="middle" x="539" y="-288.5" font-family="Helvetica,sans-Serif" font-size="10.00">InMemoryPlugin.Section &gt;</text>
</g>
<!-- Node13&#45;&gt;Node12 -->
<g id="edge17" class="edge"><title>Node13&#45;&gt;Node12</title>
<path fill="none" stroke="#9a32cd" stroke-dasharray="5,2" d="M628.294,-312.134C668.164,-319.193 713.438,-327.209 745.662,-332.915"/>
<polygon fill="#9a32cd" stroke="#9a32cd" points="628.743,-308.659 618.286,-310.361 627.522,-315.551 628.743,-308.659"/>
<text text-anchor="middle" x="663.5" y="-325.5" font-family="Helvetica,sans-Serif" font-size="10.00"> sections</text>
</g>
<!-- Node14 -->
<g id="node14" class="node"><title>Node14</title>
<polygon fill="white" stroke="#bfbfbf" points="710.5,-450.5 710.5,-480.5 868.5,-480.5 868.5,-450.5 710.5,-450.5"/>
<text text-anchor="start" x="718.5" y="-468.5" font-family="Helvetica,sans-Serif" font-size="10.00">ArrayList&lt; com.aworx.lib.config.</text>
<text text-anchor="middle" x="789.5" y="-457.5" font-family="Helvetica,sans-Serif" font-size="10.00">Configuration.PluginAndPrio &gt;</text>
</g>
<!-- Node14&#45;&gt;Node8 -->
<g id="edge18" class="edge"><title>Node14&#45;&gt;Node8</title>
<path fill="none" stroke="#9a32cd" stroke-dasharray="5,2" d="M878.812,-466.749C907.948,-463.088 938.801,-454.327 962,-435.5 1002.38,-402.732 1012.74,-335.285 1015.25,-310.188"/>
<polygon fill="#9a32cd" stroke="#9a32cd" points="878.165,-463.298 868.593,-467.839 878.908,-470.258 878.165,-463.298"/>
<text text-anchor="middle" x="925" y="-467.5" font-family="Helvetica,sans-Serif" font-size="10.00"> plugins</text>
</g>
<!-- Node15&#45;&gt;Node8 -->
<g id="edge19" class="edge"><title>Node15&#45;&gt;Node8</title>
<path fill="none" stroke="#9a32cd" stroke-dasharray="5,2" d="M853.168,-301.835C864.75,-301.718 876.741,-301.602 888,-301.5 919,-301.22 954.223,-300.948 979.862,-300.759"/>
<polygon fill="#9a32cd" stroke="#9a32cd" points="853.088,-298.335 843.124,-301.937 853.16,-305.335 853.088,-298.335"/>
<text text-anchor="middle" x="925" y="-304.5" font-family="Helvetica,sans-Serif" font-size="10.00"> cmdLine</text>
</g>
<!-- Node16 -->
<g id="node16" class="node"><title>Node16</title>
<g id="a_node16"><a xlink:href="classcom_1_1aworx_1_1lib_1_1strings_1_1NumberFormat.html" target="_top" xlink:title="NumberFormat">
<polygon fill="white" stroke="black" points="748.5,-188 748.5,-207 830.5,-207 830.5,-188 748.5,-188"/>
<text text-anchor="middle" x="789.5" y="-195" font-family="Helvetica,sans-Serif" font-size="10.00">NumberFormat</text>
</a>
</g>
</g>
<!-- Node16&#45;&gt;Node8 -->
<g id="edge22" class="edge"><title>Node16&#45;&gt;Node8</title>
<path fill="none" stroke="#9a32cd" stroke-dasharray="5,2" d="M840.774,-201.78C876.68,-206.677 924.979,-217.148 962,-239.5 983.552,-252.512 1001.24,-276.92 1010.02,-290.586"/>
<polygon fill="#9a32cd" stroke="#9a32cd" points="840.886,-198.266 830.527,-200.486 840.01,-205.211 840.886,-198.266"/>
<text text-anchor="middle" x="925" y="-242.5" font-family="Helvetica,sans-Serif" font-size="10.00"> numberFormat</text>
</g>
<!-- Node16&#45;&gt;Node16 -->
<g id="edge23" class="edge"><title>Node16&#45;&gt;Node16</title>
<path fill="none" stroke="#9a32cd" stroke-dasharray="5,2" d="M766.063,-216.529C767.341,-221.628 775.154,-225.5 789.5,-225.5 811.895,-225.5 818.368,-216.065 808.92,-207.257"/>
<polygon fill="#9a32cd" stroke="#9a32cd" points="769.316,-217.824 770.08,-207.257 762.893,-215.041 769.316,-217.824"/>
<text text-anchor="middle" x="789.5" y="-228.5" font-family="Helvetica,sans-Serif" font-size="10.00"> global</text>
</g>
<!-- Node17 -->
<g id="node17" class="node"><title>Node17</title>
<polygon fill="white" stroke="#bfbfbf" points="1120,-0.5 1120,-30.5 1278,-30.5 1278,-0.5 1120,-0.5"/>
<text text-anchor="start" x="1128" y="-18.5" font-family="Helvetica,sans-Serif" font-size="10.00">ArrayList&lt; com.aworx.lib.config.</text>
<text text-anchor="middle" x="1199" y="-7.5" font-family="Helvetica,sans-Serif" font-size="10.00">InMemoryPlugin.Entry &gt;</text>
</g>
<!-- Node17&#45;&gt;Node1 -->
<g id="edge27" class="edge"><title>Node17&#45;&gt;Node1</title>
<path fill="none" stroke="#9a32cd" stroke-dasharray="5,2" d="M1288.31,-22.9729C1302.84,-25.7092 1317.54,-29.4339 1331,-34.5 1357.16,-44.3498 1383.6,-63.9861 1398.14,-75.812"/>
<polygon fill="#9a32cd" stroke="#9a32cd" points="1288.74,-19.4955 1278.29,-21.232 1287.54,-26.3922 1288.74,-19.4955"/>
<text text-anchor="middle" x="1313.5" y="-37.5" font-family="Helvetica,sans-Serif" font-size="10.00"> entries</text>
</g>
</g>
</svg>
