<?xml version="1.0" encoding="UTF-8" standalone="no"?>
<!DOCTYPE svg PUBLIC "-//W3C//DTD SVG 1.1//EN"
 "http://www.w3.org/Graphics/SVG/1.1/DTD/svg11.dtd">
<!-- Generated by graphviz version 2.40.1 (20161225.0304)
 -->
<!-- Title: MemoryLogger Pages: 1 -->
<svg width="1250pt" height="561pt"
 viewBox="0.00 0.00 1249.50 561.00" xmlns="http://www.w3.org/2000/svg" xmlns:xlink="http://www.w3.org/1999/xlink">
<g id="graph0" class="graph" transform="scale(1 1) rotate(0) translate(4 557)">
<title>MemoryLogger</title>
<polygon fill="#ffffff" stroke="transparent" points="-4,4 -4,-557 1245.5,-557 1245.5,4 -4,4"/>
<!-- Node6 -->
<g id="node1" class="node">
<title>Node6</title>
<g id="a_node1"><a xlink:title=" ">
<polygon fill="#bfbfbf" stroke="#000000" points="1160.5,-2.5 1160.5,-21.5 1241.5,-21.5 1241.5,-2.5 1160.5,-2.5"/>
<text text-anchor="middle" x="1201" y="-9.5" font-family="Helvetica,sans-Serif" font-size="10.00" fill="#000000">MemoryLogger</text>
</a>
</g>
</g>
<!-- Node7 -->
<g id="node2" class="node">
<title>Node7</title>
<g id="a_node2"><a xlink:href="classcom_1_1aworx_1_1lox_1_1detail_1_1textlogger_1_1PlainTextLogger.html" target="_top" xlink:title=" ">
<polygon fill="#ffffff" stroke="#000000" points="1037.5,-76.5 1037.5,-95.5 1123.5,-95.5 1123.5,-76.5 1037.5,-76.5"/>
<text text-anchor="middle" x="1080.5" y="-83.5" font-family="Helvetica,sans-Serif" font-size="10.00" fill="#000000">PlainTextLogger</text>
</a>
</g>
</g>
<!-- Node7&#45;&gt;Node6 -->
<g id="edge1" class="edge">
<title>Node7&#45;&gt;Node6</title>
<path fill="none" stroke="#191970" d="M1104.8029,-71.0754C1128.791,-56.3441 1164.7633,-34.2533 1185.2429,-21.6766"/>
<polygon fill="#191970" stroke="#191970" points="1102.9431,-68.1102 1096.2533,-76.3258 1106.6063,-74.0752 1102.9431,-68.1102"/>
</g>
<!-- Node8 -->
<g id="node3" class="node">
<title>Node8</title>
<g id="a_node3"><a xlink:href="classcom_1_1aworx_1_1lox_1_1detail_1_1textlogger_1_1TextLogger.html" target="_top" xlink:title=" ">
<polygon fill="#ffffff" stroke="#000000" points="935.5,-153.5 935.5,-172.5 1000.5,-172.5 1000.5,-153.5 935.5,-153.5"/>
<text text-anchor="middle" x="968" y="-160.5" font-family="Helvetica,sans-Serif" font-size="10.00" fill="#000000">TextLogger</text>
</a>
</g>
</g>
<!-- Node8&#45;&gt;Node7 -->
<g id="edge2" class="edge">
<title>Node8&#45;&gt;Node7</title>
<path fill="none" stroke="#191970" d="M990.5877,-147.54C1013.2104,-132.056 1047.3244,-108.7069 1066.3675,-95.6729"/>
<polygon fill="#191970" stroke="#191970" points="988.5235,-144.7114 982.2482,-153.2479 992.4773,-150.488 988.5235,-144.7114"/>
</g>
<!-- Node9 -->
<g id="node4" class="node">
<title>Node9</title>
<g id="a_node4"><a xlink:href="classcom_1_1aworx_1_1lox_1_1detail_1_1Logger.html" target="_top" xlink:title=" ">
<polygon fill="#ffffff" stroke="#000000" points="765,-444.5 765,-463.5 811,-463.5 811,-444.5 765,-444.5"/>
<text text-anchor="middle" x="788" y="-451.5" font-family="Helvetica,sans-Serif" font-size="10.00" fill="#000000">Logger</text>
</a>
</g>
</g>
<!-- Node9&#45;&gt;Node8 -->
<g id="edge3" class="edge">
<title>Node9&#45;&gt;Node8</title>
<path fill="none" stroke="#191970" d="M805.8033,-437.177C833.1045,-410.5474 885.5027,-356.0383 917.5,-301 943.5295,-256.2269 960.0322,-195.6868 965.7497,-172.5385"/>
<polygon fill="#191970" stroke="#191970" points="803.2659,-434.7615 798.4957,-444.2217 808.1243,-439.8011 803.2659,-434.7615"/>
</g>
<!-- Node10 -->
<g id="node5" class="node">
<title>Node10</title>
<g id="a_node5"><a xlink:href="classcom_1_1aworx_1_1lib_1_1threads_1_1SmartLock.html" target="_top" xlink:title=" ">
<polygon fill="#ffffff" stroke="#000000" points="493.5,-489.5 493.5,-508.5 557.5,-508.5 557.5,-489.5 493.5,-489.5"/>
<text text-anchor="middle" x="525.5" y="-496.5" font-family="Helvetica,sans-Serif" font-size="10.00" fill="#000000">SmartLock</text>
</a>
</g>
</g>
<!-- Node10&#45;&gt;Node9 -->
<g id="edge4" class="edge">
<title>Node10&#45;&gt;Node9</title>
<path fill="none" stroke="#191970" d="M567.7471,-492.8676C607.3099,-486.9866 668.035,-477.6057 720.5,-468 735.3333,-465.2842 751.9169,-461.8503 764.9344,-459.0631"/>
<polygon fill="#191970" stroke="#191970" points="567.0492,-489.4326 557.6688,-494.358 568.0733,-496.3573 567.0492,-489.4326"/>
</g>
<!-- Node11 -->
<g id="node6" class="node">
<title>Node11</title>
<g id="a_node6"><a xlink:href="classcom_1_1aworx_1_1lib_1_1threads_1_1ThreadLock.html" target="_top" xlink:title=" ">
<polygon fill="#ffffff" stroke="#000000" points="210,-532.5 210,-551.5 278,-551.5 278,-532.5 210,-532.5"/>
<text text-anchor="middle" x="244" y="-539.5" font-family="Helvetica,sans-Serif" font-size="10.00" fill="#000000">ThreadLock</text>
</a>
</g>
</g>
<!-- Node11&#45;&gt;Node10 -->
<g id="edge5" class="edge">
<title>Node11&#45;&gt;Node10</title>
<path fill="none" stroke="#191970" d="M288.382,-535.2205C345.3547,-526.5178 442.8491,-511.6252 493.2373,-503.9282"/>
<polygon fill="#191970" stroke="#191970" points="287.5928,-531.8004 278.236,-536.7703 288.6499,-538.7201 287.5928,-531.8004"/>
</g>
<!-- Node12 -->
<g id="node7" class="node">
<title>Node12</title>
<g id="a_node7"><a xlink:href="enumcom_1_1aworx_1_1lib_1_1lang_1_1LockMode.html" target="_top" xlink:title=" ">
<polygon fill="#ffffff" stroke="#000000" points="9.5,-532.5 9.5,-551.5 71.5,-551.5 71.5,-532.5 9.5,-532.5"/>
<text text-anchor="middle" x="40.5" y="-539.5" font-family="Helvetica,sans-Serif" font-size="10.00" fill="#000000">LockMode</text>
</a>
</g>
</g>
<!-- Node12&#45;&gt;Node11 -->
<g id="edge6" class="edge">
<title>Node12&#45;&gt;Node11</title>
<path fill="none" stroke="#9a32cd" stroke-dasharray="5,2" d="M81.9993,-542C119.7115,-542 174.6829,-542 209.8948,-542"/>
<polygon fill="#9a32cd" stroke="#9a32cd" points="81.8509,-538.5001 71.8509,-542 81.8509,-545.5001 81.8509,-538.5001"/>
<text text-anchor="middle" x="121.5" y="-545" font-family="Helvetica,sans-Serif" font-size="10.00" fill="#000000"> lockMode</text>
</g>
<!-- Node13 -->
<g id="node8" class="node">
<title>Node13</title>
<g id="a_node8"><a xlink:href="classcom_1_1aworx_1_1lib_1_1time_1_1Ticks.html" target="_top" xlink:title=" ">
<polygon fill="#ffffff" stroke="#000000" points="20,-444.5 20,-463.5 61,-463.5 61,-444.5 20,-444.5"/>
<text text-anchor="middle" x="40.5" y="-451.5" font-family="Helvetica,sans-Serif" font-size="10.00" fill="#000000">Ticks</text>
</a>
</g>
</g>
<!-- Node13&#45;&gt;Node9 -->
<g id="edge10" class="edge">
<title>Node13&#45;&gt;Node9</title>
<path fill="none" stroke="#9a32cd" stroke-dasharray="5,2" d="M71.5949,-454C195.937,-454 655.9187,-454 764.7898,-454"/>
<polygon fill="#9a32cd" stroke="#9a32cd" points="71.2726,-450.5001 61.2726,-454 71.2726,-457.5001 71.2726,-450.5001"/>
<text text-anchor="middle" x="381.5" y="-468" font-family="Helvetica,sans-Serif" font-size="10.00" fill="#000000"> timeOfCreation</text>
<text text-anchor="middle" x="381.5" y="-457" font-family="Helvetica,sans-Serif" font-size="10.00" fill="#000000">timeOfLastLog</text>
</g>
<!-- Node13&#45;&gt;Node11 -->
<g id="edge7" class="edge">
<title>Node13&#45;&gt;Node11</title>
<path fill="none" stroke="#9a32cd" stroke-dasharray="5,2" d="M63.1084,-469.412C86.8894,-484.9806 125.8753,-508.7154 162.5,-523 177.5245,-528.86 194.8423,-533.2103 209.6399,-536.2585"/>
<polygon fill="#9a32cd" stroke="#9a32cd" points="64.7499,-466.3006 54.483,-463.685 60.8779,-472.1323 64.7499,-466.3006"/>
<text text-anchor="middle" x="121.5" y="-516" font-family="Helvetica,sans-Serif" font-size="10.00" fill="#000000"> waitTime</text>
</g>
<!-- Node13&#45;&gt;Node13 -->
<g id="edge8" class="edge">
<title>Node13&#45;&gt;Node13</title>
<path fill="none" stroke="#9a32cd" stroke-dasharray="5,2" d="M25.7675,-473.7663C26.9246,-478.4965 31.8354,-482 40.5,-482 54.7188,-482 58.8289,-472.5653 52.8303,-463.7571"/>
<polygon fill="#9a32cd" stroke="#9a32cd" points="29.2393,-474.2978 28.1697,-463.7571 22.4326,-472.6641 29.2393,-474.2978"/>
<text text-anchor="middle" x="40.5" y="-496" font-family="Helvetica,sans-Serif" font-size="10.00" fill="#000000"> tempTicks</text>
<text text-anchor="middle" x="40.5" y="-485" font-family="Helvetica,sans-Serif" font-size="10.00" fill="#000000">creationTimeTicks</text>
</g>
<!-- Node20 -->
<g id="node15" class="node">
<title>Node20</title>
<g id="a_node15"><a xlink:href="classcom_1_1aworx_1_1lox_1_1detail_1_1textlogger_1_1MetaInfo.html" target="_top" xlink:title=" ">
<polygon fill="#ffffff" stroke="#000000" points="760.5,-205.5 760.5,-224.5 815.5,-224.5 815.5,-205.5 760.5,-205.5"/>
<text text-anchor="middle" x="788" y="-212.5" font-family="Helvetica,sans-Serif" font-size="10.00" fill="#000000">MetaInfo</text>
</a>
</g>
</g>
<!-- Node13&#45;&gt;Node20 -->
<g id="edge25" class="edge">
<title>Node13&#45;&gt;Node20</title>
<path fill="none" stroke="#9a32cd" stroke-dasharray="5,2" d="M71.3864,-448.5803C138.1481,-436.894 300.9089,-408.5569 437.5,-386 500.328,-375.6245 668.6117,-377.9136 720.5,-341 761.7515,-311.6535 780.1216,-249.0668 785.8824,-224.8517"/>
<polygon fill="#9a32cd" stroke="#9a32cd" points="70.3962,-445.2004 61.1501,-450.3734 71.604,-452.0954 70.3962,-445.2004"/>
<text text-anchor="middle" x="381.5" y="-415" font-family="Helvetica,sans-Serif" font-size="10.00" fill="#000000"> elapsedTime</text>
<text text-anchor="middle" x="381.5" y="-404" font-family="Helvetica,sans-Serif" font-size="10.00" fill="#000000">maxElapsedTime</text>
</g>
<!-- Node14 -->
<g id="node9" class="node">
<title>Node14</title>
<g id="a_node9"><a xlink:title=" ">
<polygon fill="#ffffff" stroke="#bfbfbf" points="162.5,-483 162.5,-513 325.5,-513 325.5,-483 162.5,-483"/>
<text text-anchor="start" x="170.5" y="-501" font-family="Helvetica,sans-Serif" font-size="10.00" fill="#000000">ArrayList&lt; com.aworx.lib.threads.</text>
<text text-anchor="middle" x="244" y="-490" font-family="Helvetica,sans-Serif" font-size="10.00" fill="#000000">ThreadLock &gt;</text>
</a>
</g>
</g>
<!-- Node14&#45;&gt;Node10 -->
<g id="edge9" class="edge">
<title>Node14&#45;&gt;Node10</title>
<path fill="none" stroke="#9a32cd" stroke-dasharray="5,2" d="M336.1292,-498.3273C390.3135,-498.5198 455.4581,-498.7512 493.4969,-498.8863"/>
<polygon fill="#9a32cd" stroke="#9a32cd" points="335.812,-494.8262 325.7996,-498.2906 335.7871,-501.8262 335.812,-494.8262"/>
<text text-anchor="middle" x="381.5" y="-501" font-family="Helvetica,sans-Serif" font-size="10.00" fill="#000000"> acquirers</text>
</g>
<!-- Node15 -->
<g id="node10" class="node">
<title>Node15</title>
<g id="a_node10"><a xlink:href="classcom_1_1aworx_1_1lib_1_1strings_1_1AString.html" target="_top" xlink:title=" ">
<polygon fill="#ffffff" stroke="#000000" points="501,-75.5 501,-94.5 550,-94.5 550,-75.5 501,-75.5"/>
<text text-anchor="middle" x="525.5" y="-82.5" font-family="Helvetica,sans-Serif" font-size="10.00" fill="#000000">AString</text>
</a>
</g>
</g>
<!-- Node15&#45;&gt;Node6 -->
<g id="edge28" class="edge">
<title>Node15&#45;&gt;Node6</title>
<path fill="none" stroke="#9a32cd" stroke-dasharray="5,2" d="M551.3867,-70.6012C597.4763,-46.3559 697.4388,0 788,0 788,0 788,0 1080.5,0 1107.2,0 1137.0647,-2.9533 1160.3831,-5.9297"/>
<polygon fill="#9a32cd" stroke="#9a32cd" points="549.5576,-67.6103 542.3922,-75.4146 552.8605,-73.7821 549.5576,-67.6103"/>
<text text-anchor="middle" x="968" y="-3" font-family="Helvetica,sans-Serif" font-size="10.00" fill="#000000"> memoryLog</text>
</g>
<!-- Node15&#45;&gt;Node8 -->
<g id="edge11" class="edge">
<title>Node15&#45;&gt;Node8</title>
<path fill="none" stroke="#9a32cd" stroke-dasharray="5,2" d="M560.5483,-84.1728C581.1986,-83.7268 607.8335,-83.2232 631.5,-83 671.0538,-82.6269 681.4267,-76.842 720.5,-83 806.8147,-96.6034 904.0484,-135.3481 946.381,-153.4557"/>
<polygon fill="#9a32cd" stroke="#9a32cd" points="560.2624,-80.6782 550.3424,-84.3989 560.4176,-87.6764 560.2624,-80.6782"/>
<text text-anchor="middle" x="788" y="-125" font-family="Helvetica,sans-Serif" font-size="10.00" fill="#000000"> logBuf</text>
<text text-anchor="middle" x="788" y="-114" font-family="Helvetica,sans-Serif" font-size="10.00" fill="#000000">msgBuf</text>
</g>
<!-- Node15&#45;&gt;Node20 -->
<g id="edge22" class="edge">
<title>Node15&#45;&gt;Node20</title>
<path fill="none" stroke="#9a32cd" stroke-dasharray="5,2" d="M560.275,-81.2974C603.3515,-78.7337 676.4276,-81.3034 720.5,-121 741.5031,-139.9178 721.7358,-159.241 738.5,-182 745.8506,-191.9791 757.1864,-199.8538 767.1563,-205.4042"/>
<polygon fill="#9a32cd" stroke="#9a32cd" points="559.9874,-77.8089 550.2646,-82.0183 560.4902,-84.7908 559.9874,-77.8089"/>
<text text-anchor="middle" x="676" y="-135" font-family="Helvetica,sans-Serif" font-size="10.00" fill="#000000"> format</text>
<text text-anchor="middle" x="676" y="-124" font-family="Helvetica,sans-Serif" font-size="10.00" fill="#000000">tmpAString</text>
</g>
<!-- Node16 -->
<g id="node11" class="node">
<title>Node16</title>
<g id="a_node11"><a xlink:title=" ">
<polygon fill="#ffffff" stroke="#bfbfbf" points=".5,-101.5 .5,-120.5 80.5,-120.5 80.5,-101.5 .5,-101.5"/>
<text text-anchor="middle" x="40.5" y="-108.5" font-family="Helvetica,sans-Serif" font-size="10.00" fill="#000000">CharSequence</text>
</a>
</g>
</g>
<!-- Node16&#45;&gt;Node15 -->
<g id="edge12" class="edge">
<title>Node16&#45;&gt;Node15</title>
<path fill="none" stroke="#191970" d="M90.7326,-108.3071C193.578,-102.7938 424.8278,-90.3969 500.7984,-86.3242"/>
<polygon fill="#191970" stroke="#191970" points="90.4005,-104.8198 80.6022,-108.8502 90.7753,-111.8098 90.4005,-104.8198"/>
</g>
<!-- Node24 -->
<g id="node19" class="node">
<title>Node24</title>
<g id="a_node19"><a xlink:href="classcom_1_1aworx_1_1lib_1_1strings_1_1Substring.html" target="_top" xlink:title=" ">
<polygon fill="#ffffff" stroke="#000000" points="215,-153.5 215,-172.5 273,-172.5 273,-153.5 215,-153.5"/>
<text text-anchor="middle" x="244" y="-160.5" font-family="Helvetica,sans-Serif" font-size="10.00" fill="#000000">Substring</text>
</a>
</g>
</g>
<!-- Node16&#45;&gt;Node24 -->
<g id="edge21" class="edge">
<title>Node16&#45;&gt;Node24</title>
<path fill="none" stroke="#191970" d="M87.7059,-123.0624C126.975,-133.0968 181.6312,-147.063 214.8164,-155.5428"/>
<polygon fill="#191970" stroke="#191970" points="88.3803,-119.6224 77.825,-120.5376 86.6472,-126.4045 88.3803,-119.6224"/>
</g>
<!-- Node17 -->
<g id="node12" class="node">
<title>Node17</title>
<g id="a_node12"><a xlink:title=" ">
<polygon fill="#ffffff" stroke="#bfbfbf" points="738.5,-153.5 738.5,-172.5 837.5,-172.5 837.5,-153.5 738.5,-153.5"/>
<text text-anchor="middle" x="788" y="-160.5" font-family="Helvetica,sans-Serif" font-size="10.00" fill="#000000">ArrayList&lt; String &gt;</text>
</a>
</g>
</g>
<!-- Node17&#45;&gt;Node8 -->
<g id="edge13" class="edge">
<title>Node17&#45;&gt;Node8</title>
<path fill="none" stroke="#9a32cd" stroke-dasharray="5,2" d="M847.754,-163C876.9169,-163 910.8743,-163 935.2509,-163"/>
<polygon fill="#9a32cd" stroke="#9a32cd" points="847.6623,-159.5001 837.6623,-163 847.6622,-166.5001 847.6623,-159.5001"/>
<text text-anchor="middle" x="886.5" y="-166" font-family="Helvetica,sans-Serif" font-size="10.00" fill="#000000"> replacements</text>
</g>
<!-- Node18 -->
<g id="node13" class="node">
<title>Node18</title>
<g id="a_node13"><a xlink:href="classcom_1_1aworx_1_1lib_1_1strings_1_1util_1_1AutoSizes.html" target="_top" xlink:title=" ">
<polygon fill="#ffffff" stroke="#000000" points="757,-352.5 757,-371.5 819,-371.5 819,-352.5 757,-352.5"/>
<text text-anchor="middle" x="788" y="-359.5" font-family="Helvetica,sans-Serif" font-size="10.00" fill="#000000">AutoSizes</text>
</a>
</g>
</g>
<!-- Node18&#45;&gt;Node8 -->
<g id="edge14" class="edge">
<title>Node18&#45;&gt;Node8</title>
<path fill="none" stroke="#9a32cd" stroke-dasharray="5,2" d="M803.4269,-344.9447C839.9986,-304.5127 931.0194,-203.8841 959.4053,-172.5019"/>
<polygon fill="#9a32cd" stroke="#9a32cd" points="800.7943,-342.6377 796.6818,-352.4018 805.9857,-347.3334 800.7943,-342.6377"/>
<text text-anchor="middle" x="886.5" y="-289" font-family="Helvetica,sans-Serif" font-size="10.00" fill="#000000"> autoSizes</text>
</g>
<!-- Node19 -->
<g id="node14" class="node">
<title>Node19</title>
<g id="a_node14"><a xlink:title=" ">
<polygon fill="#ffffff" stroke="#bfbfbf" points="437.5,-395 437.5,-425 613.5,-425 613.5,-395 437.5,-395"/>
<text text-anchor="start" x="445.5" y="-413" font-family="Helvetica,sans-Serif" font-size="10.00" fill="#000000">ArrayList&lt; com.aworx.lib.strings.util.</text>
<text text-anchor="middle" x="525.5" y="-402" font-family="Helvetica,sans-Serif" font-size="10.00" fill="#000000">AutoSizes.Entry &gt;</text>
</a>
</g>
</g>
<!-- Node19&#45;&gt;Node18 -->
<g id="edge15" class="edge">
<title>Node19&#45;&gt;Node18</title>
<path fill="none" stroke="#9a32cd" stroke-dasharray="5,2" d="M623.6826,-397.0085C654.7737,-392.33 689.1912,-386.5629 720.5,-380 732.489,-377.4869 745.5246,-374.155 756.9149,-371.0416"/>
<polygon fill="#9a32cd" stroke="#9a32cd" points="623.0906,-393.5579 613.7131,-398.4888 624.1188,-400.482 623.0906,-393.5579"/>
<text text-anchor="middle" x="676" y="-398" font-family="Helvetica,sans-Serif" font-size="10.00" fill="#000000"> data</text>
</g>
<!-- Node20&#45;&gt;Node8 -->
<g id="edge16" class="edge">
<title>Node20&#45;&gt;Node8</title>
<path fill="none" stroke="#9a32cd" stroke-dasharray="5,2" d="M825.7394,-204.0975C858.1815,-194.7254 904.4863,-181.3484 935.3569,-172.4302"/>
<polygon fill="#9a32cd" stroke="#9a32cd" points="824.3663,-200.851 815.7305,-206.989 826.3091,-207.576 824.3663,-200.851"/>
<text text-anchor="middle" x="886.5" y="-198" font-family="Helvetica,sans-Serif" font-size="10.00" fill="#000000"> metaInfo</text>
</g>
<!-- Node21 -->
<g id="node16" class="node">
<title>Node21</title>
<g id="a_node16"><a xlink:href="classcom_1_1aworx_1_1lib_1_1time_1_1TickSpan.html" target="_top" xlink:title=" ">
<polygon fill="#ffffff" stroke="#000000" points="496.5,-166.5 496.5,-185.5 554.5,-185.5 554.5,-166.5 496.5,-166.5"/>
<text text-anchor="middle" x="525.5" y="-173.5" font-family="Helvetica,sans-Serif" font-size="10.00" fill="#000000">TickSpan</text>
</a>
</g>
</g>
<!-- Node21&#45;&gt;Node20 -->
<g id="edge17" class="edge">
<title>Node21&#45;&gt;Node20</title>
<path fill="none" stroke="#9a32cd" stroke-dasharray="5,2" d="M564.7437,-179.288C604.2613,-182.9131 666.8834,-189.516 720.5,-199 733.6639,-201.3285 748.1025,-204.6458 760.2355,-207.6567"/>
<polygon fill="#9a32cd" stroke="#9a32cd" points="564.9993,-175.797 554.7261,-178.3876 564.3726,-182.7689 564.9993,-175.797"/>
<text text-anchor="middle" x="676" y="-202" font-family="Helvetica,sans-Serif" font-size="10.00" fill="#000000"> elapsed</text>
</g>
<!-- Node22 -->
<g id="node17" class="node">
<title>Node22</title>
<g id="a_node17"><a xlink:title=" ">
<polygon fill="#ffffff" stroke="#bfbfbf" points="489,-128.5 489,-147.5 562,-147.5 562,-128.5 489,-128.5"/>
<text text-anchor="middle" x="525.5" y="-135.5" font-family="Helvetica,sans-Serif" font-size="10.00" fill="#000000">FieldPosition</text>
</a>
</g>
</g>
<!-- Node22&#45;&gt;Node20 -->
<g id="edge18" class="edge">
<title>Node22&#45;&gt;Node20</title>
<path fill="none" stroke="#9a32cd" stroke-dasharray="5,2" d="M572.3709,-140.5512C612.7888,-143.9987 672.1074,-152.0821 720.5,-171 723.3826,-172.1269 754.547,-192.7294 773.5067,-205.3377"/>
<polygon fill="#9a32cd" stroke="#9a32cd" points="572.5101,-137.0514 562.2653,-139.7522 571.9583,-144.0296 572.5101,-137.0514"/>
<text text-anchor="middle" x="676" y="-174" font-family="Helvetica,sans-Serif" font-size="10.00" fill="#000000"> fieldPositionZero</text>
</g>
<!-- Node23 -->
<g id="node18" class="node">
<title>Node23</title>
<g id="a_node18"><a xlink:href="classcom_1_1aworx_1_1lib_1_1strings_1_1util_1_1Tokenizer.html" target="_top" xlink:title=" ">
<polygon fill="#ffffff" stroke="#000000" points="496,-204.5 496,-223.5 555,-223.5 555,-204.5 496,-204.5"/>
<text text-anchor="middle" x="525.5" y="-211.5" font-family="Helvetica,sans-Serif" font-size="10.00" fill="#000000">Tokenizer</text>
</a>
</g>
</g>
<!-- Node23&#45;&gt;Node20 -->
<g id="edge19" class="edge">
<title>Node23&#45;&gt;Node20</title>
<path fill="none" stroke="#9a32cd" stroke-dasharray="5,2" d="M565.3028,-214.1516C619.1621,-214.3568 713.8641,-214.7176 760.487,-214.8952"/>
<polygon fill="#9a32cd" stroke="#9a32cd" points="565.1151,-210.651 555.1018,-214.1128 565.0884,-217.6509 565.1151,-210.651"/>
<text text-anchor="middle" x="676" y="-217" font-family="Helvetica,sans-Serif" font-size="10.00" fill="#000000"> tTok</text>
</g>
<!-- Node24&#45;&gt;Node23 -->
<g id="edge20" class="edge">
<title>Node24&#45;&gt;Node23</title>
<path fill="none" stroke="#9a32cd" stroke-dasharray="5,2" d="M283.124,-170.0882C340.0856,-180.408 444.6147,-199.3458 495.747,-208.6096"/>
<polygon fill="#9a32cd" stroke="#9a32cd" points="283.529,-166.6047 273.0652,-168.2658 282.281,-173.4925 283.529,-166.6047"/>
<text text-anchor="middle" x="381.5" y="-208" font-family="Helvetica,sans-Serif" font-size="10.00" fill="#000000"> rest</text>
<text text-anchor="middle" x="381.5" y="-197" font-family="Helvetica,sans-Serif" font-size="10.00" fill="#000000">actual</text>
</g>
<!-- Node25 -->
<g id="node20" class="node">
<title>Node25</title>
<g id="a_node20"><a xlink:title=" ">
<polygon fill="#ffffff" stroke="#bfbfbf" points="477,-280.5 477,-299.5 574,-299.5 574,-280.5 477,-280.5"/>
<text text-anchor="middle" x="525.5" y="-287.5" font-family="Helvetica,sans-Serif" font-size="10.00" fill="#000000">GregorianCalendar</text>
</a>
</g>
</g>
<!-- Node25&#45;&gt;Node20 -->
<g id="edge23" class="edge">
<title>Node25&#45;&gt;Node20</title>
<path fill="none" stroke="#9a32cd" stroke-dasharray="5,2" d="M584.1099,-289.6493C623.8524,-287.6388 676.8837,-281.4327 720.5,-264 743.3593,-254.8635 765.6247,-236.2534 778.0045,-224.7809"/>
<polygon fill="#9a32cd" stroke="#9a32cd" points="583.8881,-286.1556 574.0484,-290.0837 584.1901,-293.1491 583.8881,-286.1556"/>
<text text-anchor="middle" x="676" y="-288" font-family="Helvetica,sans-Serif" font-size="10.00" fill="#000000"> callerDateTimeCal</text>
</g>
<!-- Node26 -->
<g id="node21" class="node">
<title>Node26</title>
<g id="a_node21"><a xlink:title=" ">
<polygon fill="#ffffff" stroke="#bfbfbf" points="476.5,-242.5 476.5,-261.5 574.5,-261.5 574.5,-242.5 476.5,-242.5"/>
<text text-anchor="middle" x="525.5" y="-249.5" font-family="Helvetica,sans-Serif" font-size="10.00" fill="#000000">SimpleDateFormat</text>
</a>
</g>
</g>
<!-- Node26&#45;&gt;Node20 -->
<g id="edge24" class="edge">
<title>Node26&#45;&gt;Node20</title>
<path fill="none" stroke="#9a32cd" stroke-dasharray="5,2" d="M584.9293,-245.1383C623.6118,-240.4853 675.1268,-233.9376 720.5,-227 733.6776,-224.9851 748.2448,-222.4364 760.4633,-220.2066"/>
<polygon fill="#9a32cd" stroke="#9a32cd" points="584.394,-241.6772 574.88,-246.3392 585.2247,-248.6278 584.394,-241.6772"/>
<text text-anchor="middle" x="676" y="-252" font-family="Helvetica,sans-Serif" font-size="10.00" fill="#000000"> dateFormatter</text>
<text text-anchor="middle" x="676" y="-241" font-family="Helvetica,sans-Serif" font-size="10.00" fill="#000000">timeOfDayFormatter</text>
</g>
<!-- Node27 -->
<g id="node22" class="node">
<title>Node27</title>
<g id="a_node22"><a xlink:title=" ">
<polygon fill="#ffffff" stroke="#bfbfbf" points="507,-318.5 507,-337.5 544,-337.5 544,-318.5 507,-318.5"/>
<text text-anchor="middle" x="525.5" y="-325.5" font-family="Helvetica,sans-Serif" font-size="10.00" fill="#000000">Date</text>
</a>
</g>
</g>
<!-- Node27&#45;&gt;Node20 -->
<g id="edge26" class="edge">
<title>Node27&#45;&gt;Node20</title>
<path fill="none" stroke="#9a32cd" stroke-dasharray="5,2" d="M554.2703,-330.2359C594.2945,-332.0009 667.7897,-330.2593 720.5,-300 752.0411,-281.8932 774.3894,-242.7762 783.4788,-224.6199"/>
<polygon fill="#9a32cd" stroke="#9a32cd" points="554.3239,-326.7336 544.1474,-329.6812 553.9409,-333.7232 554.3239,-326.7336"/>
<text text-anchor="middle" x="676" y="-329" font-family="Helvetica,sans-Serif" font-size="10.00" fill="#000000"> callerDateTimeDate</text>
</g>
<!-- Node28 -->
<g id="node23" class="node">
<title>Node28</title>
<g id="a_node23"><a xlink:href="interfacecom_1_1aworx_1_1lox_1_1detail_1_1textlogger_1_1ObjectConverter.html" target="_top" xlink:title=" ">
<polygon fill="#ffffff" stroke="#000000" points="744.5,-28.5 744.5,-47.5 831.5,-47.5 831.5,-28.5 744.5,-28.5"/>
<text text-anchor="middle" x="788" y="-35.5" font-family="Helvetica,sans-Serif" font-size="10.00" fill="#000000">ObjectConverter</text>
</a>
</g>
</g>
<!-- Node28&#45;&gt;Node8 -->
<g id="edge27" class="edge">
<title>Node28&#45;&gt;Node8</title>
<path fill="none" stroke="#9a32cd" stroke-dasharray="5,2" d="M841.6716,-35.7491C866.8526,-37.2617 895.9803,-42.9858 917.5,-59 949.5435,-82.8457 962.2847,-132.4622 966.3699,-153.3748"/>
<polygon fill="#9a32cd" stroke="#9a32cd" points="841.6488,-32.2456 831.5184,-35.3479 841.3723,-39.2401 841.6488,-32.2456"/>
<text text-anchor="middle" x="886.5" y="-62" font-family="Helvetica,sans-Serif" font-size="10.00" fill="#000000"> converter</text>
</g>
</g>
</svg>
