<?xml version="1.0" encoding="UTF-8" standalone="no"?>
<!DOCTYPE svg PUBLIC "-//W3C//DTD SVG 1.1//EN"
 "http://www.w3.org/Graphics/SVG/1.1/DTD/svg11.dtd">
<!-- Generated by graphviz version 2.40.1 (20161225.0304)
 -->
<!-- Title: Variable Pages: 1 -->
<svg width="733pt" height="339pt"
 viewBox="0.00 0.00 733.00 338.72" xmlns="http://www.w3.org/2000/svg" xmlns:xlink="http://www.w3.org/1999/xlink">
<g id="graph0" class="graph" transform="scale(1 1) rotate(0) translate(4 334.7168)">
<title>Variable</title>
<polygon fill="#ffffff" stroke="transparent" points="-4,4 -4,-334.7168 729,-334.7168 729,4 -4,4"/>
<!-- Node1 -->
<g id="node1" class="node">
<title>Node1</title>
<g id="a_node1"><a xlink:title=" ">
<polygon fill="#bfbfbf" stroke="#000000" points="674,-169.7168 674,-188.7168 725,-188.7168 725,-169.7168 674,-169.7168"/>
<text text-anchor="middle" x="699.5" y="-176.7168" font-family="Helvetica,sans-Serif" font-size="10.00" fill="#000000">Variable</text>
</a>
</g>
</g>
<!-- Node2 -->
<g id="node2" class="node">
<title>Node2</title>
<g id="a_node2"><a xlink:title=" ">
<polygon fill="#ffffff" stroke="#bfbfbf" points="271,-300.2168 271,-330.2168 431,-330.2168 431,-300.2168 271,-300.2168"/>
<text text-anchor="start" x="279" y="-318.2168" font-family="Helvetica,sans-Serif" font-size="10.00" fill="#000000">ArrayList&lt; com.aworx.lib.strings.</text>
<text text-anchor="middle" x="351" y="-307.2168" font-family="Helvetica,sans-Serif" font-size="10.00" fill="#000000">AString &gt;</text>
</a>
</g>
</g>
<!-- Node2&#45;&gt;Node1 -->
<g id="edge1" class="edge">
<title>Node2&#45;&gt;Node1</title>
<path fill="none" stroke="#9a32cd" stroke-dasharray="5,2" d="M441.2648,-314.3225C466.0157,-311.9799 492.4933,-307.4767 516,-299.2168 589.2612,-273.474 662.2867,-212.5576 688.9305,-188.8725"/>
<polygon fill="#9a32cd" stroke="#9a32cd" points="440.8172,-310.8476 431.1451,-315.1719 441.4028,-317.8231 440.8172,-310.8476"/>
<text text-anchor="middle" x="571" y="-295.2168" font-family="Helvetica,sans-Serif" font-size="10.00" fill="#000000"> values</text>
</g>
<!-- Node3 -->
<g id="node3" class="node">
<title>Node3</title>
<g id="a_node3"><a xlink:href="classcom_1_1aworx_1_1lib_1_1config_1_1Configuration.html" target="_top" xlink:title=" ">
<polygon fill="#ffffff" stroke="#000000" points="534,-169.7168 534,-188.7168 608,-188.7168 608,-169.7168 534,-169.7168"/>
<text text-anchor="middle" x="571" y="-176.7168" font-family="Helvetica,sans-Serif" font-size="10.00" fill="#000000">Configuration</text>
</a>
</g>
</g>
<!-- Node2&#45;&gt;Node3 -->
<g id="edge4" class="edge">
<title>Node2&#45;&gt;Node3</title>
<path fill="none" stroke="#9a32cd" stroke-dasharray="5,2" d="M413.4799,-297.3186C456.4954,-284.628 507.3872,-268.7398 516,-262.2168 542.1825,-242.3875 559.7967,-206.2724 567.1387,-188.9686"/>
<polygon fill="#9a32cd" stroke="#9a32cd" points="412.4861,-293.9625 403.8769,-300.1376 414.4579,-300.6791 412.4861,-293.9625"/>
<text text-anchor="middle" x="482.5" y="-289.2168" font-family="Helvetica,sans-Serif" font-size="10.00" fill="#000000"> trueValues</text>
</g>
<!-- Node3&#45;&gt;Node1 -->
<g id="edge2" class="edge">
<title>Node3&#45;&gt;Node1</title>
<path fill="none" stroke="#9a32cd" stroke-dasharray="5,2" d="M618.3381,-179.2168C637.1097,-179.2168 657.9549,-179.2168 673.8194,-179.2168"/>
<polygon fill="#9a32cd" stroke="#9a32cd" points="618.1676,-175.7169 608.1675,-179.2168 618.1675,-182.7169 618.1676,-175.7169"/>
<text text-anchor="middle" x="641" y="-182.2168" font-family="Helvetica,sans-Serif" font-size="10.00" fill="#000000"> config</text>
</g>
<!-- Node4 -->
<g id="node4" class="node">
<title>Node4</title>
<g id="a_node4"><a xlink:title=" ">
<polygon fill="#ffffff" stroke="#bfbfbf" points="272.5,-112.2168 272.5,-142.2168 429.5,-142.2168 429.5,-112.2168 272.5,-112.2168"/>
<text text-anchor="start" x="280.5" y="-130.2168" font-family="Helvetica,sans-Serif" font-size="10.00" fill="#000000">ArrayList&lt; com.aworx.lib.config.</text>
<text text-anchor="middle" x="351" y="-119.2168" font-family="Helvetica,sans-Serif" font-size="10.00" fill="#000000">Configuration.PluginAndPrio &gt;</text>
</a>
</g>
</g>
<!-- Node4&#45;&gt;Node3 -->
<g id="edge3" class="edge">
<title>Node4&#45;&gt;Node3</title>
<path fill="none" stroke="#9a32cd" stroke-dasharray="5,2" d="M439.8005,-137.3381C464.7579,-141.3667 491.7079,-146.8509 516,-154.2168 528.8479,-158.1127 542.5979,-164.3627 553.136,-169.6387"/>
<polygon fill="#9a32cd" stroke="#9a32cd" points="440.0293,-133.8318 429.6105,-135.7548 438.9545,-140.7488 440.0293,-133.8318"/>
<text text-anchor="middle" x="482.5" y="-157.2168" font-family="Helvetica,sans-Serif" font-size="10.00" fill="#000000"> plugins</text>
</g>
<!-- Node5 -->
<g id="node5" class="node">
<title>Node5</title>
<g id="a_node5"><a xlink:href="classcom_1_1aworx_1_1lib_1_1strings_1_1NumberFormat.html" target="_top" xlink:title=" ">
<polygon fill="#ffffff" stroke="#000000" points="310.5,-33.7168 310.5,-52.7168 391.5,-52.7168 391.5,-33.7168 310.5,-33.7168"/>
<text text-anchor="middle" x="351" y="-40.7168" font-family="Helvetica,sans-Serif" font-size="10.00" fill="#000000">NumberFormat</text>
</a>
</g>
</g>
<!-- Node5&#45;&gt;Node3 -->
<g id="edge5" class="edge">
<title>Node5&#45;&gt;Node3</title>
<path fill="none" stroke="#9a32cd" stroke-dasharray="5,2" d="M385.7917,-56.7106C420.4576,-71.0043 474.3764,-95.5816 516,-125.2168 534.5315,-138.411 552.7047,-157.8945 562.8235,-169.496"/>
<polygon fill="#9a32cd" stroke="#9a32cd" points="386.7011,-53.3024 376.119,-52.7834 384.0678,-59.7882 386.7011,-53.3024"/>
<text text-anchor="middle" x="482.5" y="-128.2168" font-family="Helvetica,sans-Serif" font-size="10.00" fill="#000000"> numberFormat</text>
</g>
<!-- Node5&#45;&gt;Node5 -->
<g id="edge8" class="edge">
<title>Node5&#45;&gt;Node5</title>
<path fill="none" stroke="#9a32cd" stroke-dasharray="5,2" d="M326.8186,-62.246C328.1376,-67.3448 336.1981,-71.2168 351,-71.2168 374.1055,-71.2168 380.7844,-61.7821 371.0368,-52.9739"/>
<polygon fill="#9a32cd" stroke="#9a32cd" points="330.0776,-63.5317 330.9632,-52.9739 323.687,-60.675 330.0776,-63.5317"/>
<text text-anchor="middle" x="351" y="-85.2168" font-family="Helvetica,sans-Serif" font-size="10.00" fill="#000000"> global</text>
<text text-anchor="middle" x="351" y="-74.2168" font-family="Helvetica,sans-Serif" font-size="10.00" fill="#000000">computational</text>
</g>
<!-- Node6 -->
<g id="node6" class="node">
<title>Node6</title>
<g id="a_node6"><a xlink:href="classcom_1_1aworx_1_1lib_1_1strings_1_1AString.html" target="_top" xlink:title=" ">
<polygon fill="#ffffff" stroke="#000000" points="117,-120.7168 117,-139.7168 166,-139.7168 166,-120.7168 117,-120.7168"/>
<text text-anchor="middle" x="141.5" y="-127.7168" font-family="Helvetica,sans-Serif" font-size="10.00" fill="#000000">AString</text>
</a>
</g>
</g>
<!-- Node6&#45;&gt;Node1 -->
<g id="edge12" class="edge">
<title>Node6&#45;&gt;Node1</title>
<path fill="none" stroke="#9a32cd" stroke-dasharray="5,2" d="M154.449,-112.5136C162.3383,-102.399 172.9946,-89.852 184,-80.2168 218.5983,-49.9262 226.8829,-37.188 271,-24.2168 375.481,6.5024 414.3793,10.9391 516,-28.2168 596.8461,-59.368 668.5335,-141.0216 691.6859,-169.3601"/>
<polygon fill="#9a32cd" stroke="#9a32cd" points="151.5397,-110.5578 148.2891,-120.6417 157.1186,-114.7858 151.5397,-110.5578"/>
<text text-anchor="middle" x="482.5" y="-75.2168" font-family="Helvetica,sans-Serif" font-size="10.00" fill="#000000"> fullname</text>
<text text-anchor="middle" x="482.5" y="-64.2168" font-family="Helvetica,sans-Serif" font-size="10.00" fill="#000000">category</text>
<text text-anchor="middle" x="482.5" y="-53.2168" font-family="Helvetica,sans-Serif" font-size="10.00" fill="#000000">defaultValue</text>
<text text-anchor="middle" x="482.5" y="-42.2168" font-family="Helvetica,sans-Serif" font-size="10.00" fill="#000000">name</text>
<text text-anchor="middle" x="482.5" y="-31.2168" font-family="Helvetica,sans-Serif" font-size="10.00" fill="#000000">comments</text>
</g>
<!-- Node6&#45;&gt;Node3 -->
<g id="edge9" class="edge">
<title>Node6&#45;&gt;Node3</title>
<path fill="none" stroke="#9a32cd" stroke-dasharray="5,2" d="M168.4817,-143.9259C173.5313,-146.0143 178.8448,-147.9066 184,-149.2168 249.5576,-165.8786 450.2782,-174.8569 533.8639,-177.9562"/>
<polygon fill="#9a32cd" stroke="#9a32cd" points="169.7642,-140.6653 159.2073,-139.7694 166.9014,-147.0531 169.7642,-140.6653"/>
<text text-anchor="middle" x="351" y="-198.2168" font-family="Helvetica,sans-Serif" font-size="10.00" fill="#000000"> substitutionVariableStart</text>
<text text-anchor="middle" x="351" y="-187.2168" font-family="Helvetica,sans-Serif" font-size="10.00" fill="#000000">tmpConversion</text>
<text text-anchor="middle" x="351" y="-176.2168" font-family="Helvetica,sans-Serif" font-size="10.00" fill="#000000">substitutionVariableEnd</text>
</g>
<!-- Node6&#45;&gt;Node5 -->
<g id="edge6" class="edge">
<title>Node6&#45;&gt;Node5</title>
<path fill="none" stroke="#9a32cd" stroke-dasharray="5,2" d="M174.1048,-116.6769C216.8243,-98.9366 290.6758,-68.268 327.9947,-52.7704"/>
<polygon fill="#9a32cd" stroke="#9a32cd" points="172.6136,-113.5063 164.7206,-120.5739 175.2983,-119.971 172.6136,-113.5063"/>
<text text-anchor="middle" x="218.5" y="-137.2168" font-family="Helvetica,sans-Serif" font-size="10.00" fill="#000000"> octLiteralPrefix</text>
<text text-anchor="middle" x="218.5" y="-126.2168" font-family="Helvetica,sans-Serif" font-size="10.00" fill="#000000">binLiteralPrefix</text>
<text text-anchor="middle" x="218.5" y="-115.2168" font-family="Helvetica,sans-Serif" font-size="10.00" fill="#000000">hexLiteralPrefix</text>
</g>
<!-- Node7 -->
<g id="node7" class="node">
<title>Node7</title>
<g id="a_node7"><a xlink:title=" ">
<polygon fill="#ffffff" stroke="#bfbfbf" points="0,-158.7168 0,-177.7168 80,-177.7168 80,-158.7168 0,-158.7168"/>
<text text-anchor="middle" x="40" y="-165.7168" font-family="Helvetica,sans-Serif" font-size="10.00" fill="#000000">CharSequence</text>
</a>
</g>
</g>
<!-- Node7&#45;&gt;Node6 -->
<g id="edge7" class="edge">
<title>Node7&#45;&gt;Node6</title>
<path fill="none" stroke="#191970" d="M75.2629,-155.015C89.0132,-149.8671 104.4412,-144.0911 116.9459,-139.4095"/>
<polygon fill="#191970" stroke="#191970" points="73.7507,-151.8438 65.6127,-158.6278 76.2051,-158.3994 73.7507,-151.8438"/>
</g>
<!-- Node8 -->
<g id="node8" class="node">
<title>Node8</title>
<g id="a_node8"><a xlink:href="classcom_1_1aworx_1_1lib_1_1strings_1_1Substring.html" target="_top" xlink:title=" ">
<polygon fill="#ffffff" stroke="#000000" points="189.5,-216.7168 189.5,-235.7168 247.5,-235.7168 247.5,-216.7168 189.5,-216.7168"/>
<text text-anchor="middle" x="218.5" y="-223.7168" font-family="Helvetica,sans-Serif" font-size="10.00" fill="#000000">Substring</text>
</a>
</g>
</g>
<!-- Node7&#45;&gt;Node8 -->
<g id="edge11" class="edge">
<title>Node7&#45;&gt;Node8</title>
<path fill="none" stroke="#191970" d="M79.3092,-180.9896C112.5105,-191.7777 159.3092,-206.984 189.2772,-216.7215"/>
<polygon fill="#191970" stroke="#191970" points="80.0678,-177.556 69.4756,-177.7944 77.9046,-184.2134 80.0678,-177.556"/>
</g>
<!-- Node8&#45;&gt;Node3 -->
<g id="edge10" class="edge">
<title>Node8&#45;&gt;Node3</title>
<path fill="none" stroke="#9a32cd" stroke-dasharray="5,2" d="M257.5673,-226.8394C300.3826,-226.951 370.9733,-225.4549 431,-216.2168 470.1349,-210.194 514.1074,-197.5771 542.1519,-188.7596"/>
<polygon fill="#9a32cd" stroke="#9a32cd" points="257.5844,-223.3396 247.5646,-226.7825 257.5445,-230.3395 257.5844,-223.3396"/>
<text text-anchor="middle" x="351" y="-252.2168" font-family="Helvetica,sans-Serif" font-size="10.00" fill="#000000"> tmpReplVarCategory</text>
<text text-anchor="middle" x="351" y="-241.2168" font-family="Helvetica,sans-Serif" font-size="10.00" fill="#000000">tmpReplVarName</text>
<text text-anchor="middle" x="351" y="-230.2168" font-family="Helvetica,sans-Serif" font-size="10.00" fill="#000000">tmpReplVarAll</text>
</g>
</g>
</svg>
