<?xml version="1.0" encoding="UTF-8" standalone="no"?>
<!DOCTYPE svg PUBLIC "-//W3C//DTD SVG 1.1//EN"
 "http://www.w3.org/Graphics/SVG/1.1/DTD/svg11.dtd">
<!-- Generated by graphviz version 2.40.1 (20161225.0304)
 -->
<!-- Title: IniFile.Section Pages: 1 -->
<svg width="1010pt" height="511pt"
 viewBox="0.00 0.00 1009.50 511.00" xmlns="http://www.w3.org/2000/svg" xmlns:xlink="http://www.w3.org/1999/xlink">
<g id="graph0" class="graph" transform="scale(1 1) rotate(0) translate(4 507)">
<title>IniFile.Section</title>
<polygon fill="#ffffff" stroke="transparent" points="-4,4 -4,-507 1005.5,-507 1005.5,4 -4,4"/>
<!-- Node2 -->
<g id="node1" class="node">
<title>Node2</title>
<polygon fill="#bfbfbf" stroke="#000000" points="749.5,-.5 749.5,-19.5 828.5,-19.5 828.5,-.5 749.5,-.5"/>
<text text-anchor="middle" x="789" y="-7.5" font-family="Helvetica,sans-Serif" font-size="10.00" fill="#000000">IniFile.Section</text>
</g>
<!-- Node3 -->
<g id="node2" class="node">
<title>Node3</title>
<g id="a_node2"><a xlink:href="classcom_1_1aworx_1_1lib_1_1config_1_1InMemoryPlugin_1_1Section.html" target="_top" xlink:title="InMemoryPlugin.Section">
<polygon fill="#ffffff" stroke="#000000" points="727.5,-57.5 727.5,-76.5 850.5,-76.5 850.5,-57.5 727.5,-57.5"/>
<text text-anchor="middle" x="789" y="-64.5" font-family="Helvetica,sans-Serif" font-size="10.00" fill="#000000">InMemoryPlugin.Section</text>
</a>
</g>
</g>
<!-- Node3&#45;&gt;Node2 -->
<g id="edge1" class="edge">
<title>Node3&#45;&gt;Node2</title>
<path fill="none" stroke="#191970" d="M789,-47.2342C789,-37.8491 789,-27.0651 789,-19.5265"/>
<polygon fill="#191970" stroke="#191970" points="785.5001,-47.3307 789,-57.3307 792.5001,-47.3308 785.5001,-47.3307"/>
</g>
<!-- Node4 -->
<g id="node3" class="node">
<title>Node4</title>
<g id="a_node3"><a xlink:href="classcom_1_1aworx_1_1lib_1_1strings_1_1util_1_1Tokenizer.html" target="_top" xlink:title="Tokenizer">
<polygon fill="#ffffff" stroke="#000000" points="140.5,-173.5 140.5,-192.5 199.5,-192.5 199.5,-173.5 140.5,-173.5"/>
<text text-anchor="middle" x="170" y="-180.5" font-family="Helvetica,sans-Serif" font-size="10.00" fill="#000000">Tokenizer</text>
</a>
</g>
</g>
<!-- Node4&#45;&gt;Node3 -->
<g id="edge2" class="edge">
<title>Node4&#45;&gt;Node3</title>
<path fill="none" stroke="#9a32cd" stroke-dasharray="5,2" d="M209.7165,-175.5572C317.9259,-155.2788 617.8763,-99.0684 738.1474,-76.5297"/>
<polygon fill="#9a32cd" stroke="#9a32cd" points="209.0399,-172.123 199.8557,-177.4051 210.3293,-179.0032 209.0399,-172.123"/>
<text text-anchor="middle" x="502.5" y="-137" font-family="Helvetica,sans-Serif" font-size="10.00" fill="#000000"> tmpTknzr</text>
</g>
<!-- Node5 -->
<g id="node4" class="node">
<title>Node5</title>
<g id="a_node4"><a xlink:href="classcom_1_1aworx_1_1lib_1_1strings_1_1Substring.html" target="_top" xlink:title="Substring">
<polygon fill="#ffffff" stroke="#000000" points="0,-331 0,-350 58,-350 58,-331 0,-331"/>
<text text-anchor="middle" x="29" y="-338" font-family="Helvetica,sans-Serif" font-size="10.00" fill="#000000">Substring</text>
</a>
</g>
</g>
<!-- Node5&#45;&gt;Node4 -->
<g id="edge3" class="edge">
<title>Node5&#45;&gt;Node4</title>
<path fill="none" stroke="#9a32cd" stroke-dasharray="5,2" d="M25.0715,-320.8198C22.3236,-301.4103 21.2581,-271.7222 35,-251 59.0035,-214.8038 108.3934,-196.9881 140.3138,-188.9154"/>
<polygon fill="#9a32cd" stroke="#9a32cd" points="21.6608,-321.6412 26.7846,-330.9146 28.5621,-320.47 21.6608,-321.6412"/>
<text text-anchor="middle" x="48.5" y="-281.5" font-family="Helvetica,sans-Serif" font-size="10.00" fill="#000000"> rest</text>
<text text-anchor="middle" x="48.5" y="-270.5" font-family="Helvetica,sans-Serif" font-size="10.00" fill="#000000">actual</text>
</g>
<!-- Node10 -->
<g id="node9" class="node">
<title>Node10</title>
<g id="a_node9"><a xlink:href="classcom_1_1aworx_1_1lib_1_1config_1_1Configuration.html" target="_top" xlink:title="Configuration">
<polygon fill="#ffffff" stroke="#000000" points="353,-212.5 353,-231.5 427,-231.5 427,-212.5 353,-212.5"/>
<text text-anchor="middle" x="390" y="-219.5" font-family="Helvetica,sans-Serif" font-size="10.00" fill="#000000">Configuration</text>
</a>
</g>
</g>
<!-- Node5&#45;&gt;Node10 -->
<g id="edge16" class="edge">
<title>Node5&#45;&gt;Node10</title>
<path fill="none" stroke="#9a32cd" stroke-dasharray="5,2" d="M47.8296,-324.0031C53.8303,-318.4706 60.3694,-312.1425 66,-306 86.9668,-283.1273 81.8453,-266.0129 109,-251 129.8703,-239.4615 281.233,-228.7161 352.7536,-224.2191"/>
<polygon fill="#9a32cd" stroke="#9a32cd" points="45.1965,-321.6647 40.1162,-330.9621 49.8856,-326.8621 45.1965,-321.6647"/>
<text text-anchor="middle" x="155.5" y="-287" font-family="Helvetica,sans-Serif" font-size="10.00" fill="#000000"> tmpReplVarCategory</text>
<text text-anchor="middle" x="155.5" y="-276" font-family="Helvetica,sans-Serif" font-size="10.00" fill="#000000">tmpReplVarName</text>
<text text-anchor="middle" x="155.5" y="-265" font-family="Helvetica,sans-Serif" font-size="10.00" fill="#000000">tmpReplVarAll</text>
</g>
<!-- Node6 -->
<g id="node5" class="node">
<title>Node6</title>
<polygon fill="#ffffff" stroke="#bfbfbf" points="77,-483.5 77,-502.5 157,-502.5 157,-483.5 77,-483.5"/>
<text text-anchor="middle" x="117" y="-490.5" font-family="Helvetica,sans-Serif" font-size="10.00" fill="#000000">CharSequence</text>
</g>
<!-- Node6&#45;&gt;Node5 -->
<g id="edge4" class="edge">
<title>Node6&#45;&gt;Node5</title>
<path fill="none" stroke="#191970" d="M106.3191,-474.4906C87.4414,-441.7763 48.8224,-374.8513 34.5027,-350.036"/>
<polygon fill="#191970" stroke="#191970" points="103.4656,-476.5484 111.4952,-483.4604 109.5286,-473.0497 103.4656,-476.5484"/>
</g>
<!-- Node7 -->
<g id="node6" class="node">
<title>Node7</title>
<g id="a_node6"><a xlink:href="classcom_1_1aworx_1_1lib_1_1strings_1_1AString.html" target="_top" xlink:title="AString">
<polygon fill="#ffffff" stroke="#000000" points="423.5,-426.5 423.5,-445.5 472.5,-445.5 472.5,-426.5 423.5,-426.5"/>
<text text-anchor="middle" x="448" y="-433.5" font-family="Helvetica,sans-Serif" font-size="10.00" fill="#000000">AString</text>
</a>
</g>
</g>
<!-- Node6&#45;&gt;Node7 -->
<g id="edge6" class="edge">
<title>Node6&#45;&gt;Node7</title>
<path fill="none" stroke="#191970" d="M167.4447,-484.3132C239.4345,-471.9161 368.916,-449.6187 423.0968,-440.2885"/>
<polygon fill="#191970" stroke="#191970" points="166.5171,-480.9213 157.2562,-486.0677 167.7051,-487.8197 166.5171,-480.9213"/>
</g>
<!-- Node7&#45;&gt;Node3 -->
<g id="edge5" class="edge">
<title>Node7&#45;&gt;Node3</title>
<path fill="none" stroke="#9a32cd" stroke-dasharray="5,2" d="M482.8958,-434.3737C574.7124,-429.1494 816,-408.9119 816,-340.5 816,-340.5 816,-340.5 816,-139.5 816,-115.8609 803.2383,-90.458 795.2622,-76.8897"/>
<polygon fill="#9a32cd" stroke="#9a32cd" points="482.5127,-430.8893 472.7169,-434.9258 482.8918,-437.879 482.5127,-430.8893"/>
<text text-anchor="middle" x="839" y="-225" font-family="Helvetica,sans-Serif" font-size="10.00" fill="#000000"> name</text>
<text text-anchor="middle" x="839" y="-214" font-family="Helvetica,sans-Serif" font-size="10.00" fill="#000000">comments</text>
</g>
<!-- Node8 -->
<g id="node7" class="node">
<title>Node8</title>
<g id="a_node7"><a xlink:href="classcom_1_1aworx_1_1lib_1_1config_1_1Variable.html" target="_top" xlink:title="Variable">
<polygon fill="#ffffff" stroke="#000000" points="683.5,-130 683.5,-149 734.5,-149 734.5,-130 683.5,-130"/>
<text text-anchor="middle" x="709" y="-137" font-family="Helvetica,sans-Serif" font-size="10.00" fill="#000000">Variable</text>
</a>
</g>
</g>
<!-- Node7&#45;&gt;Node8 -->
<g id="edge17" class="edge">
<title>Node7&#45;&gt;Node8</title>
<path fill="none" stroke="#9a32cd" stroke-dasharray="5,2" d="M482.9511,-431.9515C554.1775,-422.9065 712.104,-398.5253 744,-357 757.4719,-339.461 746.4056,-313.9371 726,-211 721.5838,-188.7221 715.09,-162.857 711.5429,-149.1637"/>
<polygon fill="#9a32cd" stroke="#9a32cd" points="482.1892,-428.5191 472.6961,-433.2234 483.0509,-435.4658 482.1892,-428.5191"/>
<text text-anchor="middle" x="773" y="-298" font-family="Helvetica,sans-Serif" font-size="10.00" fill="#000000"> fullname</text>
<text text-anchor="middle" x="773" y="-287" font-family="Helvetica,sans-Serif" font-size="10.00" fill="#000000">category</text>
<text text-anchor="middle" x="773" y="-276" font-family="Helvetica,sans-Serif" font-size="10.00" fill="#000000">defaultValue</text>
<text text-anchor="middle" x="773" y="-265" font-family="Helvetica,sans-Serif" font-size="10.00" fill="#000000">name</text>
<text text-anchor="middle" x="773" y="-254" font-family="Helvetica,sans-Serif" font-size="10.00" fill="#000000">comments</text>
</g>
<!-- Node7&#45;&gt;Node10 -->
<g id="edge15" class="edge">
<title>Node7&#45;&gt;Node10</title>
<path fill="none" stroke="#9a32cd" stroke-dasharray="5,2" d="M447.331,-415.9811C445.4973,-380.9898 438.6395,-307.0904 413,-251 409.7408,-243.8699 404.3644,-236.9495 399.6291,-231.6582"/>
<polygon fill="#9a32cd" stroke="#9a32cd" points="443.8475,-416.4364 447.7802,-426.2743 450.8408,-416.1311 443.8475,-416.4364"/>
<text text-anchor="middle" x="496.5" y="-349" font-family="Helvetica,sans-Serif" font-size="10.00" fill="#000000"> substitutionVariableStart</text>
<text text-anchor="middle" x="496.5" y="-338" font-family="Helvetica,sans-Serif" font-size="10.00" fill="#000000">tmpConversion</text>
<text text-anchor="middle" x="496.5" y="-327" font-family="Helvetica,sans-Serif" font-size="10.00" fill="#000000">substitutionVariableEnd</text>
</g>
<!-- Node12 -->
<g id="node11" class="node">
<title>Node12</title>
<g id="a_node11"><a xlink:href="classcom_1_1aworx_1_1lib_1_1strings_1_1NumberFormat.html" target="_top" xlink:title="NumberFormat">
<polygon fill="#ffffff" stroke="#000000" points="76.5,-331 76.5,-350 157.5,-350 157.5,-331 76.5,-331"/>
<text text-anchor="middle" x="117" y="-338" font-family="Helvetica,sans-Serif" font-size="10.00" fill="#000000">NumberFormat</text>
</a>
</g>
</g>
<!-- Node7&#45;&gt;Node12 -->
<g id="edge13" class="edge">
<title>Node7&#45;&gt;Node12</title>
<path fill="none" stroke="#9a32cd" stroke-dasharray="5,2" d="M413.3909,-426.0146C349.3428,-407.5355 213.1339,-368.2365 150.1781,-350.0725"/>
<polygon fill="#9a32cd" stroke="#9a32cd" points="412.8133,-429.4906 423.3916,-428.9 414.7538,-422.765 412.8133,-429.4906"/>
<text text-anchor="middle" x="385.5" y="-400" font-family="Helvetica,sans-Serif" font-size="10.00" fill="#000000"> octLiteralPrefix</text>
<text text-anchor="middle" x="385.5" y="-389" font-family="Helvetica,sans-Serif" font-size="10.00" fill="#000000">binLiteralPrefix</text>
<text text-anchor="middle" x="385.5" y="-378" font-family="Helvetica,sans-Serif" font-size="10.00" fill="#000000">hexLiteralPrefix</text>
</g>
<!-- Node8&#45;&gt;Node3 -->
<g id="edge7" class="edge">
<title>Node8&#45;&gt;Node3</title>
<path fill="none" stroke="#9a32cd" stroke-dasharray="5,2" d="M727.3781,-122.8449C743.1691,-108.5343 765.3874,-88.3989 778.3818,-76.6228"/>
<polygon fill="#9a32cd" stroke="#9a32cd" points="724.8487,-120.4136 719.7892,-129.7223 729.5494,-125.6006 724.8487,-120.4136"/>
<text text-anchor="middle" x="774" y="-98" font-family="Helvetica,sans-Serif" font-size="10.00" fill="#000000"> tmpVar</text>
</g>
<!-- Node9 -->
<g id="node8" class="node">
<title>Node9</title>
<polygon fill="#ffffff" stroke="#bfbfbf" points="575,-325.5 575,-355.5 735,-355.5 735,-325.5 575,-325.5"/>
<text text-anchor="start" x="583" y="-343.5" font-family="Helvetica,sans-Serif" font-size="10.00" fill="#000000">ArrayList&lt; com.aworx.lib.strings.</text>
<text text-anchor="middle" x="655" y="-332.5" font-family="Helvetica,sans-Serif" font-size="10.00" fill="#000000">AString &gt;</text>
</g>
<!-- Node9&#45;&gt;Node8 -->
<g id="edge8" class="edge">
<title>Node9&#45;&gt;Node8</title>
<path fill="none" stroke="#9a32cd" stroke-dasharray="5,2" d="M661.6814,-315.6303C673.6639,-271.0287 698.3095,-179.2926 706.3789,-149.2562"/>
<polygon fill="#9a32cd" stroke="#9a32cd" points="658.2733,-314.8267 659.0588,-325.3923 665.0336,-316.6429 658.2733,-314.8267"/>
<text text-anchor="middle" x="706" y="-219.5" font-family="Helvetica,sans-Serif" font-size="10.00" fill="#000000"> values</text>
</g>
<!-- Node9&#45;&gt;Node10 -->
<g id="edge11" class="edge">
<title>Node9&#45;&gt;Node10</title>
<path fill="none" stroke="#9a32cd" stroke-dasharray="5,2" d="M614.3996,-320.9338C575.5312,-302.3783 515.1191,-273.9961 462,-251 446.4179,-244.2543 428.7326,-237.1237 414.7891,-231.6212"/>
<polygon fill="#9a32cd" stroke="#9a32cd" points="613.2683,-324.2724 623.7997,-325.4303 616.289,-317.9577 613.2683,-324.2724"/>
<text text-anchor="middle" x="606.5" y="-276" font-family="Helvetica,sans-Serif" font-size="10.00" fill="#000000"> trueValues</text>
</g>
<!-- Node10&#45;&gt;Node8 -->
<g id="edge9" class="edge">
<title>Node10&#45;&gt;Node8</title>
<path fill="none" stroke="#9a32cd" stroke-dasharray="5,2" d="M436.9693,-209.8528C505.3165,-192.1768 629.856,-159.9683 683.4053,-146.1193"/>
<polygon fill="#9a32cd" stroke="#9a32cd" points="435.7101,-206.5632 426.905,-212.4556 437.4628,-213.3402 435.7101,-206.5632"/>
<text text-anchor="middle" x="594" y="-180.5" font-family="Helvetica,sans-Serif" font-size="10.00" fill="#000000"> config</text>
</g>
<!-- Node11 -->
<g id="node10" class="node">
<title>Node11</title>
<polygon fill="#ffffff" stroke="#bfbfbf" points="254.5,-325.5 254.5,-355.5 411.5,-355.5 411.5,-325.5 254.5,-325.5"/>
<text text-anchor="start" x="262.5" y="-343.5" font-family="Helvetica,sans-Serif" font-size="10.00" fill="#000000">ArrayList&lt; com.aworx.lib.config.</text>
<text text-anchor="middle" x="333" y="-332.5" font-family="Helvetica,sans-Serif" font-size="10.00" fill="#000000">Configuration.PluginAndPrio &gt;</text>
</g>
<!-- Node11&#45;&gt;Node10 -->
<g id="edge10" class="edge">
<title>Node11&#45;&gt;Node10</title>
<path fill="none" stroke="#9a32cd" stroke-dasharray="5,2" d="M344.6546,-316.2707C357.1877,-290.2149 376.5003,-250.0652 385.3188,-231.732"/>
<polygon fill="#9a32cd" stroke="#9a32cd" points="341.3998,-314.963 340.2191,-325.4919 347.708,-317.9974 341.3998,-314.963"/>
<text text-anchor="middle" x="392" y="-276" font-family="Helvetica,sans-Serif" font-size="10.00" fill="#000000"> plugins</text>
</g>
<!-- Node12&#45;&gt;Node10 -->
<g id="edge12" class="edge">
<title>Node12&#45;&gt;Node10</title>
<path fill="none" stroke="#9a32cd" stroke-dasharray="5,2" d="M157.0498,-327.6432C172.753,-321.9237 190.6501,-314.5408 206,-306 241.4975,-286.249 242.4327,-268.692 279,-251 302.3979,-239.6796 330.7855,-232.3648 352.9954,-227.9134"/>
<polygon fill="#9a32cd" stroke="#9a32cd" points="155.8595,-324.3517 147.5982,-330.985 158.193,-330.9513 155.8595,-324.3517"/>
<text text-anchor="middle" x="312.5" y="-276" font-family="Helvetica,sans-Serif" font-size="10.00" fill="#000000"> numberFormat</text>
</g>
<!-- Node12&#45;&gt;Node12 -->
<g id="edge14" class="edge">
<title>Node12&#45;&gt;Node12</title>
<path fill="none" stroke="#9a32cd" stroke-dasharray="5,2" d="M167.8235,-347.9914C172.5317,-346.4456 175.5,-343.9485 175.5,-340.5 175.5,-334.9824 167.9013,-331.9003 157.735,-331.2537"/>
<polygon fill="#9a32cd" stroke="#9a32cd" points="166.9872,-344.5842 157.735,-349.7463 168.1869,-351.4806 166.9872,-344.5842"/>
<text text-anchor="middle" x="206" y="-343.5" font-family="Helvetica,sans-Serif" font-size="10.00" fill="#000000"> global</text>
<text text-anchor="middle" x="206" y="-332.5" font-family="Helvetica,sans-Serif" font-size="10.00" fill="#000000">computational</text>
</g>
<!-- Node13 -->
<g id="node12" class="node">
<title>Node13</title>
<polygon fill="#ffffff" stroke="#bfbfbf" points="844.5,-124.5 844.5,-154.5 1001.5,-154.5 1001.5,-124.5 844.5,-124.5"/>
<text text-anchor="start" x="852.5" y="-142.5" font-family="Helvetica,sans-Serif" font-size="10.00" fill="#000000">ArrayList&lt; com.aworx.lib.config.</text>
<text text-anchor="middle" x="923" y="-131.5" font-family="Helvetica,sans-Serif" font-size="10.00" fill="#000000">InMemoryPlugin.Entry &gt;</text>
</g>
<!-- Node13&#45;&gt;Node3 -->
<g id="edge18" class="edge">
<title>Node13&#45;&gt;Node3</title>
<path fill="none" stroke="#9a32cd" stroke-dasharray="5,2" d="M886.1156,-119.5439C860.3363,-105.5961 827.0459,-87.5845 806.8959,-76.6825"/>
<polygon fill="#9a32cd" stroke="#9a32cd" points="884.7744,-122.7976 895.2351,-124.478 888.1054,-116.641 884.7744,-122.7976"/>
<text text-anchor="middle" x="876.5" y="-98" font-family="Helvetica,sans-Serif" font-size="10.00" fill="#000000"> entries</text>
</g>
</g>
</svg>
