<?xml version="1.0" encoding="UTF-8" standalone="no"?>
<!DOCTYPE svg PUBLIC "-//W3C//DTD SVG 1.1//EN"
 "http://www.w3.org/Graphics/SVG/1.1/DTD/svg11.dtd">
<!-- Generated by graphviz version 2.38.0 (20140413.2041)
 -->
<!-- Title: AnsiConsoleLogger Pages: 1 -->
<svg width="1531pt" height="896pt"
 viewBox="0.00 0.00 1531.00 895.66" xmlns="http://www.w3.org/2000/svg" xmlns:xlink="http://www.w3.org/1999/xlink">
<g id="graph0" class="graph" transform="scale(1 1) rotate(0) translate(4 891.657)">
<title>AnsiConsoleLogger</title>
<polygon fill="white" stroke="none" points="-4,4 -4,-891.657 1527,-891.657 1527,4 -4,4"/>
<!-- Node1 -->
<g id="node1" class="node"><title>Node1</title>
<polygon fill="#bfbfbf" stroke="black" points="1286,-252.157 1286,-271.157 1387,-271.157 1387,-252.157 1286,-252.157"/>
<text text-anchor="middle" x="1336.5" y="-259.157" font-family="Helvetica,sans-Serif" font-size="10.00">AnsiConsoleLogger</text>
</g>
<!-- Node2 -->
<g id="node2" class="node"><title>Node2</title>
<g id="a_node2"><a xlink:href="classcom_1_1aworx_1_1lox_1_1loggers_1_1AnsiLogger.html" target="_top" xlink:title="AnsiLogger">
<polygon fill="white" stroke="black" points="1083,-252.157 1083,-271.157 1148,-271.157 1148,-252.157 1083,-252.157"/>
<text text-anchor="middle" x="1115.5" y="-259.157" font-family="Helvetica,sans-Serif" font-size="10.00">AnsiLogger</text>
</a>
</g>
</g>
<!-- Node2&#45;&gt;Node1 -->
<g id="edge1" class="edge"><title>Node2&#45;&gt;Node1</title>
<path fill="none" stroke="midnightblue" d="M1158.6,-261.657C1194.91,-261.657 1247.41,-261.657 1285.79,-261.657"/>
<polygon fill="midnightblue" stroke="midnightblue" points="1158.34,-258.157 1148.34,-261.657 1158.34,-265.157 1158.34,-258.157"/>
</g>
<!-- Node3 -->
<g id="node3" class="node"><title>Node3</title>
<g id="a_node3"><a xlink:href="classcom_1_1aworx_1_1lox_1_1core_1_1textlogger_1_1TextLogger.html" target="_top" xlink:title="TextLogger">
<polygon fill="white" stroke="black" points="838,-264.157 838,-283.157 903,-283.157 903,-264.157 838,-264.157"/>
<text text-anchor="middle" x="870.5" y="-271.157" font-family="Helvetica,sans-Serif" font-size="10.00">TextLogger</text>
</a>
</g>
</g>
<!-- Node3&#45;&gt;Node2 -->
<g id="edge2" class="edge"><title>Node3&#45;&gt;Node2</title>
<path fill="none" stroke="midnightblue" d="M913.35,-271.59C961.453,-269.215 1039.33,-265.369 1082.72,-263.226"/>
<polygon fill="midnightblue" stroke="midnightblue" points="913.083,-268.099 903.268,-272.088 913.428,-275.09 913.083,-268.099"/>
</g>
<!-- Node9 -->
<g id="node9" class="node"><title>Node9</title>
<g id="a_node9"><a xlink:href="classcom_1_1aworx_1_1lox_1_1Log.html" target="_top" xlink:title="Log">
<polygon fill="white" stroke="black" points="1099.5,-461.157 1099.5,-480.157 1131.5,-480.157 1131.5,-461.157 1099.5,-461.157"/>
<text text-anchor="middle" x="1115.5" y="-468.157" font-family="Helvetica,sans-Serif" font-size="10.00">Log</text>
</a>
</g>
</g>
<!-- Node3&#45;&gt;Node9 -->
<g id="edge29" class="edge"><title>Node3&#45;&gt;Node9</title>
<path fill="none" stroke="#9a32cd" stroke-dasharray="5,2" d="M889.421,-290.393C902.198,-302.171 919.897,-318.176 936,-331.657 996.233,-382.083 1071.3,-438.557 1101.26,-460.852"/>
<polygon fill="#9a32cd" stroke="#9a32cd" points="891.515,-287.561 881.801,-283.332 886.757,-292.696 891.515,-287.561"/>
<text text-anchor="middle" x="978.5" y="-400.657" font-family="Helvetica,sans-Serif" font-size="10.00"> debugLogger</text>
</g>
<!-- Node4 -->
<g id="node4" class="node"><title>Node4</title>
<g id="a_node4"><a xlink:href="classcom_1_1aworx_1_1lox_1_1core_1_1Logger.html" target="_top" xlink:title="Logger">
<polygon fill="white" stroke="black" points="1477,-391.157 1477,-410.157 1523,-410.157 1523,-391.157 1477,-391.157"/>
<text text-anchor="middle" x="1500" y="-398.157" font-family="Helvetica,sans-Serif" font-size="10.00">Logger</text>
</a>
</g>
</g>
<!-- Node4&#45;&gt;Node3 -->
<g id="edge3" class="edge"><title>Node4&#45;&gt;Node3</title>
<path fill="none" stroke="midnightblue" d="M1486.39,-383.142C1479.32,-374.66 1469.76,-365.145 1459,-359.657 1452.69,-356.441 1024.32,-295.377 903.124,-278.148"/>
<polygon fill="midnightblue" stroke="midnightblue" points="1483.68,-385.356 1492.59,-391.093 1489.2,-381.053 1483.68,-385.356"/>
</g>
<!-- Node5 -->
<g id="node5" class="node"><title>Node5</title>
<g id="a_node5"><a xlink:href="classcom_1_1aworx_1_1lib_1_1strings_1_1AString.html" target="_top" xlink:title="AString">
<polygon fill="white" stroke="black" points="124.5,-364.157 124.5,-383.157 173.5,-383.157 173.5,-364.157 124.5,-364.157"/>
<text text-anchor="middle" x="149" y="-371.157" font-family="Helvetica,sans-Serif" font-size="10.00">AString</text>
</a>
</g>
</g>
<!-- Node5&#45;&gt;Node3 -->
<g id="edge45" class="edge"><title>Node5&#45;&gt;Node3</title>
<path fill="none" stroke="#9a32cd" stroke-dasharray="5,2" d="M151.728,-353.803C157.713,-298.734 182.874,-143.9 280,-79.6568 340.796,-39.4438 538.671,-54.1468 608,-76.6568 710.903,-110.068 734.563,-137.535 805,-219.657 816.388,-232.934 810.104,-242.838 823,-254.657 827.243,-258.546 832.389,-261.692 837.691,-264.221"/>
<polygon fill="#9a32cd" stroke="#9a32cd" points="148.224,-353.676 150.723,-363.972 155.19,-354.365 148.224,-353.676"/>
<text text-anchor="middle" x="549" y="-79.6568" font-family="Helvetica,sans-Serif" font-size="10.00"> logBuf</text>
</g>
<!-- Node5&#45;&gt;Node4 -->
<g id="edge4" class="edge"><title>Node5&#45;&gt;Node4</title>
<path fill="none" stroke="#9a32cd" stroke-dasharray="5,2" d="M183.789,-373.657C227.806,-373.657 307.156,-373.657 375,-373.657 375,-373.657 375,-373.657 1337.5,-373.657 1387.96,-373.657 1446.09,-386.637 1476.99,-394.597"/>
<polygon fill="#9a32cd" stroke="#9a32cd" points="183.648,-370.157 173.647,-373.657 183.647,-377.157 183.648,-370.157"/>
<text text-anchor="middle" x="870.5" y="-376.657" font-family="Helvetica,sans-Serif" font-size="10.00"> tmpDomainName</text>
</g>
<!-- Node8 -->
<g id="node8" class="node"><title>Node8</title>
<g id="a_node8"><a xlink:href="classcom_1_1aworx_1_1lox_1_1core_1_1Domain.html" target="_top" xlink:title="Domain">
<polygon fill="white" stroke="black" points="1311.5,-441.157 1311.5,-460.157 1361.5,-460.157 1361.5,-441.157 1311.5,-441.157"/>
<text text-anchor="middle" x="1336.5" y="-448.157" font-family="Helvetica,sans-Serif" font-size="10.00">Domain</text>
</a>
</g>
</g>
<!-- Node5&#45;&gt;Node8 -->
<g id="edge30" class="edge"><title>Node5&#45;&gt;Node8</title>
<path fill="none" stroke="#9a32cd" stroke-dasharray="5,2" d="M183.39,-384.451C188.25,-385.713 193.225,-386.839 198,-387.657 422.922,-426.165 1166.55,-446.438 1311.05,-450.063"/>
<polygon fill="#9a32cd" stroke="#9a32cd" points="184.249,-381.057 173.675,-381.726 182.359,-387.797 184.249,-381.057"/>
<text text-anchor="middle" x="774" y="-436.657" font-family="Helvetica,sans-Serif" font-size="10.00"> name</text>
</g>
<!-- Node10 -->
<g id="node10" class="node"><title>Node10</title>
<g id="a_node10"><a xlink:href="classcom_1_1aworx_1_1lox_1_1LogBuf.html" target="_top" xlink:title="LogBuf">
<polygon fill="white" stroke="black" points="525.5,-444.157 525.5,-463.157 572.5,-463.157 572.5,-444.157 525.5,-444.157"/>
<text text-anchor="middle" x="549" y="-451.157" font-family="Helvetica,sans-Serif" font-size="10.00">LogBuf</text>
</a>
</g>
</g>
<!-- Node5&#45;&gt;Node10 -->
<g id="edge11" class="edge"><title>Node5&#45;&gt;Node10</title>
<path fill="none" stroke="#9a32cd" stroke-dasharray="5,2" d="M161.353,-391.722C169.874,-403.573 182.68,-418.207 198,-425.657 310.382,-480.305 467.215,-465.386 525.243,-457.272"/>
<polygon fill="#9a32cd" stroke="#9a32cd" points="164.204,-389.689 155.702,-383.367 158.406,-393.611 164.204,-389.689"/>
<text text-anchor="middle" x="230" y="-452.657" font-family="Helvetica,sans-Serif" font-size="10.00"> b</text>
</g>
<!-- Node13 -->
<g id="node13" class="node"><title>Node13</title>
<g id="a_node13"><a xlink:href="classcom_1_1aworx_1_1lox_1_1Lox.html" target="_top" xlink:title="Lox">
<polygon fill="white" stroke="black" points="659.5,-607.157 659.5,-626.157 691.5,-626.157 691.5,-607.157 659.5,-607.157"/>
<text text-anchor="middle" x="675.5" y="-614.157" font-family="Helvetica,sans-Serif" font-size="10.00">Lox</text>
</a>
</g>
</g>
<!-- Node5&#45;&gt;Node13 -->
<g id="edge19" class="edge"><title>Node5&#45;&gt;Node13</title>
<path fill="none" stroke="#9a32cd" stroke-dasharray="5,2" d="M154.642,-393.125C160.783,-414.34 173.778,-447.54 198,-464.657 298.506,-535.681 353.114,-472.844 472,-504.657 534.824,-521.468 552.475,-524.797 608,-558.657 630.758,-572.535 653.301,-594.342 665.407,-606.888"/>
<polygon fill="#9a32cd" stroke="#9a32cd" points="157.976,-392.042 152.032,-383.271 151.209,-393.834 157.976,-392.042"/>
<text text-anchor="middle" x="376" y="-529.657" font-family="Helvetica,sans-Serif" font-size="10.00"> logBuf</text>
<text text-anchor="middle" x="376" y="-518.657" font-family="Helvetica,sans-Serif" font-size="10.00">tempAS</text>
<text text-anchor="middle" x="376" y="-507.657" font-family="Helvetica,sans-Serif" font-size="10.00">resDomain</text>
</g>
<!-- Node20 -->
<g id="node20" class="node"><title>Node20</title>
<g id="a_node20"><a xlink:href="classcom_1_1aworx_1_1lox_1_1core_1_1CallerInfo.html" target="_top" xlink:title="CallerInfo">
<polygon fill="white" stroke="black" points="346.5,-547.157 346.5,-566.157 405.5,-566.157 405.5,-547.157 346.5,-547.157"/>
<text text-anchor="middle" x="376" y="-554.157" font-family="Helvetica,sans-Serif" font-size="10.00">CallerInfo</text>
</a>
</g>
</g>
<!-- Node5&#45;&gt;Node20 -->
<g id="edge24" class="edge"><title>Node5&#45;&gt;Node20</title>
<path fill="none" stroke="#9a32cd" stroke-dasharray="5,2" d="M151.382,-393.44C154.523,-422.998 164.76,-478.536 198,-509.657 238.965,-548.01 307.579,-555.819 346.244,-556.97"/>
<polygon fill="#9a32cd" stroke="#9a32cd" points="154.84,-392.811 150.469,-383.16 147.867,-393.43 154.84,-392.811"/>
<text text-anchor="middle" x="230" y="-590.657" font-family="Helvetica,sans-Serif" font-size="10.00"> className</text>
<text text-anchor="middle" x="230" y="-579.657" font-family="Helvetica,sans-Serif" font-size="10.00">threadName</text>
<text text-anchor="middle" x="230" y="-568.657" font-family="Helvetica,sans-Serif" font-size="10.00">methodName</text>
<text text-anchor="middle" x="230" y="-557.657" font-family="Helvetica,sans-Serif" font-size="10.00">packageName</text>
<text text-anchor="middle" x="230" y="-546.657" font-family="Helvetica,sans-Serif" font-size="10.00">fileName</text>
</g>
<!-- Node23 -->
<g id="node23" class="node"><title>Node23</title>
<g id="a_node23"><a xlink:href="classcom_1_1aworx_1_1lox_1_1core_1_1textlogger_1_1ObjectConverter.html" target="_top" xlink:title="ObjectConverter">
<polygon fill="white" stroke="black" points="505,-323.157 505,-342.157 593,-342.157 593,-323.157 505,-323.157"/>
<text text-anchor="middle" x="549" y="-330.157" font-family="Helvetica,sans-Serif" font-size="10.00">ObjectConverter</text>
</a>
</g>
</g>
<!-- Node5&#45;&gt;Node23 -->
<g id="edge34" class="edge"><title>Node5&#45;&gt;Node23</title>
<path fill="none" stroke="#9a32cd" stroke-dasharray="5,2" d="M173.13,-359.031C180.763,-354.92 189.486,-350.949 198,-348.657 305.342,-319.765 437.79,-323.969 504.798,-328.741"/>
<polygon fill="#9a32cd" stroke="#9a32cd" points="171.379,-356 164.446,-364.011 174.862,-362.072 171.379,-356"/>
<text text-anchor="middle" x="230" y="-351.657" font-family="Helvetica,sans-Serif" font-size="10.00"> buffer</text>
</g>
<!-- Node24 -->
<g id="node24" class="node"><title>Node24</title>
<g id="a_node24"><a xlink:href="classcom_1_1aworx_1_1lox_1_1core_1_1textlogger_1_1MetaInfo.html" target="_top" xlink:title="MetaInfo">
<polygon fill="white" stroke="black" points="648,-186.157 648,-205.157 703,-205.157 703,-186.157 648,-186.157"/>
<text text-anchor="middle" x="675.5" y="-193.157" font-family="Helvetica,sans-Serif" font-size="10.00">MetaInfo</text>
</a>
</g>
</g>
<!-- Node5&#45;&gt;Node24 -->
<g id="edge41" class="edge"><title>Node5&#45;&gt;Node24</title>
<path fill="none" stroke="#9a32cd" stroke-dasharray="5,2" d="M165.854,-356.938C174.618,-348.567 186.12,-338.91 198,-332.657 231.39,-315.081 243.117,-318.62 280,-310.657 424.412,-279.477 475.144,-321.281 608,-256.657 633.359,-244.322 655.934,-219.175 667.102,-205.332"/>
<polygon fill="#9a32cd" stroke="#9a32cd" points="163.251,-354.59 158.641,-364.13 168.194,-359.547 163.251,-354.59"/>
<text text-anchor="middle" x="376" y="-313.657" font-family="Helvetica,sans-Serif" font-size="10.00"> format</text>
</g>
<!-- Node6 -->
<g id="node6" class="node"><title>Node6</title>
<polygon fill="white" stroke="#bfbfbf" points="0,-287.157 0,-306.157 81,-306.157 81,-287.157 0,-287.157"/>
<text text-anchor="middle" x="40.5" y="-294.157" font-family="Helvetica,sans-Serif" font-size="10.00">CharSequence</text>
</g>
<!-- Node6&#45;&gt;Node5 -->
<g id="edge5" class="edge"><title>Node6&#45;&gt;Node5</title>
<path fill="none" stroke="midnightblue" d="M63.1679,-312.323C84.5847,-327.807 116.674,-351.008 134.621,-363.984"/>
<polygon fill="midnightblue" stroke="midnightblue" points="65.1428,-309.432 54.9883,-306.409 61.0414,-315.104 65.1428,-309.432"/>
</g>
<!-- Node26 -->
<g id="node26" class="node"><title>Node26</title>
<g id="a_node26"><a xlink:href="classcom_1_1aworx_1_1lib_1_1strings_1_1Substring.html" target="_top" xlink:title="Substring">
<polygon fill="white" stroke="black" points="120,-170.157 120,-189.157 178,-189.157 178,-170.157 120,-170.157"/>
<text text-anchor="middle" x="149" y="-177.157" font-family="Helvetica,sans-Serif" font-size="10.00">Substring</text>
</a>
</g>
</g>
<!-- Node6&#45;&gt;Node26 -->
<g id="edge38" class="edge"><title>Node6&#45;&gt;Node26</title>
<path fill="none" stroke="midnightblue" d="M57.1346,-279.481C79.8201,-254.559 121.118,-209.189 139.164,-189.364"/>
<polygon fill="midnightblue" stroke="midnightblue" points="54.3585,-277.331 50.2153,-287.082 59.5351,-282.043 54.3585,-277.331"/>
</g>
<!-- Node7 -->
<g id="node7" class="node"><title>Node7</title>
<g id="a_node7"><a xlink:href="classcom_1_1aworx_1_1lib_1_1time_1_1Ticks.html" target="_top" xlink:title="Ticks">
<polygon fill="white" stroke="black" points="128.5,-820.157 128.5,-839.157 169.5,-839.157 169.5,-820.157 128.5,-820.157"/>
<text text-anchor="middle" x="149" y="-827.157" font-family="Helvetica,sans-Serif" font-size="10.00">Ticks</text>
</a>
</g>
</g>
<!-- Node7&#45;&gt;Node4 -->
<g id="edge6" class="edge"><title>Node7&#45;&gt;Node4</title>
<path fill="none" stroke="#9a32cd" stroke-dasharray="5,2" d="M179.69,-838.369C185.715,-839.947 192.034,-841.467 198,-842.657 275.796,-858.172 295.672,-865.657 375,-865.657 375,-865.657 375,-865.657 1337.5,-865.657 1437.49,-865.657 1489.62,-477.145 1497.84,-410.369"/>
<polygon fill="#9a32cd" stroke="#9a32cd" points="180.51,-834.965 169.941,-835.706 178.666,-841.718 180.51,-834.965"/>
<text text-anchor="middle" x="870.5" y="-879.657" font-family="Helvetica,sans-Serif" font-size="10.00"> timeOfCreation</text>
<text text-anchor="middle" x="870.5" y="-868.657" font-family="Helvetica,sans-Serif" font-size="10.00">timeOfLastLog</text>
</g>
<!-- Node7&#45;&gt;Node7 -->
<g id="edge7" class="edge"><title>Node7&#45;&gt;Node7</title>
<path fill="none" stroke="#9a32cd" stroke-dasharray="5,2" d="M140.161,-849.423C140.855,-854.153 143.801,-857.657 149,-857.657 157.531,-857.657 159.997,-848.222 156.398,-839.414"/>
<polygon fill="#9a32cd" stroke="#9a32cd" points="143.641,-849.811 141.602,-839.414 136.712,-848.813 143.641,-849.811"/>
<text text-anchor="middle" x="149" y="-871.657" font-family="Helvetica,sans-Serif" font-size="10.00"> tempTicks</text>
<text text-anchor="middle" x="149" y="-860.657" font-family="Helvetica,sans-Serif" font-size="10.00">creationTimeTicks</text>
</g>
<!-- Node15 -->
<g id="node15" class="node"><title>Node15</title>
<g id="a_node15"><a xlink:href="classcom_1_1aworx_1_1lib_1_1threads_1_1ThreadLock.html" target="_top" xlink:title="ThreadLock">
<polygon fill="white" stroke="black" points="342,-810.157 342,-829.157 410,-829.157 410,-810.157 342,-810.157"/>
<text text-anchor="middle" x="376" y="-817.157" font-family="Helvetica,sans-Serif" font-size="10.00">ThreadLock</text>
</a>
</g>
</g>
<!-- Node7&#45;&gt;Node15 -->
<g id="edge18" class="edge"><title>Node7&#45;&gt;Node15</title>
<path fill="none" stroke="#9a32cd" stroke-dasharray="5,2" d="M179.689,-828.337C221.579,-826.475 297.8,-823.088 341.611,-821.141"/>
<polygon fill="#9a32cd" stroke="#9a32cd" points="179.408,-824.846 169.574,-828.787 179.719,-831.839 179.408,-824.846"/>
<text text-anchor="middle" x="230" y="-830.657" font-family="Helvetica,sans-Serif" font-size="10.00"> waitTime</text>
</g>
<!-- Node7&#45;&gt;Node20 -->
<g id="edge25" class="edge"><title>Node7&#45;&gt;Node20</title>
<path fill="none" stroke="#9a32cd" stroke-dasharray="5,2" d="M178.973,-816.941C210.418,-802.87 256.863,-781.183 262,-773.657 286.907,-737.165 250.47,-608.52 280,-575.657 296.301,-557.516 324.613,-553.83 346.101,-554.044"/>
<polygon fill="#9a32cd" stroke="#9a32cd" points="177.473,-813.778 169.758,-821.04 180.318,-820.174 177.473,-813.778"/>
<text text-anchor="middle" x="230" y="-810.657" font-family="Helvetica,sans-Serif" font-size="10.00"> timeStamp</text>
</g>
<!-- Node8&#45;&gt;Node4 -->
<g id="edge8" class="edge"><title>Node8&#45;&gt;Node4</title>
<path fill="none" stroke="#9a32cd" stroke-dasharray="5,2" d="M1371.44,-440.15C1403.22,-430.309 1449.8,-415.89 1476.99,-407.47"/>
<polygon fill="#9a32cd" stroke="#9a32cd" points="1370.2,-436.87 1361.68,-443.171 1372.27,-443.557 1370.2,-436.87"/>
<text text-anchor="middle" x="1432" y="-431.657" font-family="Helvetica,sans-Serif" font-size="10.00"> rootDomain</text>
</g>
<!-- Node8&#45;&gt;Node8 -->
<g id="edge32" class="edge"><title>Node8&#45;&gt;Node8</title>
<path fill="none" stroke="#9a32cd" stroke-dasharray="5,2" d="M1319.09,-470.057C1320.26,-474.971 1326.06,-478.657 1336.5,-478.657 1353.21,-478.657 1358.04,-469.222 1350.99,-460.414"/>
<polygon fill="#9a32cd" stroke="#9a32cd" points="1322.47,-470.999 1322.01,-460.414 1315.77,-468.971 1322.47,-470.999"/>
<text text-anchor="middle" x="1336.5" y="-481.657" font-family="Helvetica,sans-Serif" font-size="10.00"> parent</text>
</g>
<!-- Node9&#45;&gt;Node8 -->
<g id="edge9" class="edge"><title>Node9&#45;&gt;Node8</title>
<path fill="none" stroke="#9a32cd" stroke-dasharray="5,2" d="M1141.6,-468.364C1184.06,-464.487 1269.47,-456.687 1311.3,-452.867"/>
<polygon fill="#9a32cd" stroke="#9a32cd" points="1141.19,-464.887 1131.55,-469.282 1141.83,-471.858 1141.19,-464.887"/>
<text text-anchor="middle" x="1239" y="-465.657" font-family="Helvetica,sans-Serif" font-size="10.00"> level</text>
</g>
<!-- Node10&#45;&gt;Node9 -->
<g id="edge10" class="edge"><title>Node10&#45;&gt;Node9</title>
<path fill="none" stroke="#9a32cd" stroke-dasharray="5,2" d="M583.02,-454.651C689.937,-457.871 1024.09,-467.934 1099.34,-470.2"/>
<polygon fill="#9a32cd" stroke="#9a32cd" points="582.929,-451.147 572.828,-454.344 582.718,-458.144 582.929,-451.147"/>
<text text-anchor="middle" x="774" y="-464.657" font-family="Helvetica,sans-Serif" font-size="10.00"> logBuf</text>
</g>
<!-- Node11 -->
<g id="node11" class="node"><title>Node11</title>
<g id="a_node11"><a xlink:href="classcom_1_1aworx_1_1lox_1_1ALoxReportWriter.html" target="_top" xlink:title="ALoxReportWriter">
<polygon fill="white" stroke="black" points="823,-607.157 823,-626.157 918,-626.157 918,-607.157 823,-607.157"/>
<text text-anchor="middle" x="870.5" y="-614.157" font-family="Helvetica,sans-Serif" font-size="10.00">ALoxReportWriter</text>
</a>
</g>
</g>
<!-- Node11&#45;&gt;Node9 -->
<g id="edge12" class="edge"><title>Node11&#45;&gt;Node9</title>
<path fill="none" stroke="#9a32cd" stroke-dasharray="5,2" d="M926.405,-604.249C958.142,-594.416 996.513,-577.55 1021,-549.657 1039.37,-528.734 1018.88,-508.896 1039,-489.657 1055.32,-474.058 1082.47,-470.725 1099.38,-470.293"/>
<polygon fill="#9a32cd" stroke="#9a32cd" points="925.396,-600.897 916.792,-607.079 927.373,-607.612 925.396,-600.897"/>
<text text-anchor="middle" x="978.5" y="-603.657" font-family="Helvetica,sans-Serif" font-size="10.00"> debugReportWriter</text>
</g>
<!-- Node12 -->
<g id="node12" class="node"><title>Node12</title>
<g id="a_node12"><a xlink:href="interfacecom_1_1aworx_1_1lib_1_1ReportWriter.html" target="_top" xlink:title="ReportWriter">
<polygon fill="white" stroke="black" points="639.5,-645.157 639.5,-664.157 711.5,-664.157 711.5,-645.157 639.5,-645.157"/>
<text text-anchor="middle" x="675.5" y="-652.157" font-family="Helvetica,sans-Serif" font-size="10.00">ReportWriter</text>
</a>
</g>
</g>
<!-- Node12&#45;&gt;Node11 -->
<g id="edge13" class="edge"><title>Node12&#45;&gt;Node11</title>
<path fill="none" stroke="midnightblue" d="M721.917,-647.113C746.558,-642.873 777.515,-637.309 805,-631.657 813.108,-629.99 821.757,-628.074 830.002,-626.181"/>
<polygon fill="midnightblue" stroke="midnightblue" points="721.04,-643.712 711.772,-648.846 722.218,-650.613 721.04,-643.712"/>
</g>
<!-- Node13&#45;&gt;Node9 -->
<g id="edge27" class="edge"><title>Node13&#45;&gt;Node9</title>
<path fill="none" stroke="#9a32cd" stroke-dasharray="5,2" d="M700.967,-607.22C759.055,-585.007 910.067,-528.379 1039,-489.657 1059.71,-483.436 1084.03,-477.57 1099.35,-474.044"/>
<polygon fill="#9a32cd" stroke="#9a32cd" points="699.617,-603.989 691.534,-610.838 702.124,-610.525 699.617,-603.989"/>
<text text-anchor="middle" x="870.5" y="-564.657" font-family="Helvetica,sans-Serif" font-size="10.00"> LOX</text>
</g>
<!-- Node13&#45;&gt;Node11 -->
<g id="edge14" class="edge"><title>Node13&#45;&gt;Node11</title>
<path fill="none" stroke="#9a32cd" stroke-dasharray="5,2" d="M701.906,-616.657C732.583,-616.657 784.787,-616.657 822.795,-616.657"/>
<polygon fill="#9a32cd" stroke="#9a32cd" points="701.644,-613.157 691.644,-616.657 701.644,-620.157 701.644,-613.157"/>
<text text-anchor="middle" x="774" y="-619.657" font-family="Helvetica,sans-Serif" font-size="10.00"> lox</text>
</g>
<!-- Node14 -->
<g id="node14" class="node"><title>Node14</title>
<polygon fill="white" stroke="#bfbfbf" points="311.5,-585.157 311.5,-604.157 440.5,-604.157 440.5,-585.157 311.5,-585.157"/>
<text text-anchor="middle" x="376" y="-592.157" font-family="Helvetica,sans-Serif" font-size="10.00">HashMap&lt; Long, String &gt;</text>
</g>
<!-- Node14&#45;&gt;Node13 -->
<g id="edge15" class="edge"><title>Node14&#45;&gt;Node13</title>
<path fill="none" stroke="#9a32cd" stroke-dasharray="5,2" d="M450.941,-595.99C496.357,-597.351 555.664,-600.101 608,-605.657 625.688,-607.534 645.815,-611.06 659.249,-613.615"/>
<polygon fill="#9a32cd" stroke="#9a32cd" points="450.98,-592.489 440.884,-595.704 450.781,-599.487 450.98,-592.489"/>
<text text-anchor="middle" x="549" y="-608.657" font-family="Helvetica,sans-Serif" font-size="10.00"> threadDictionary</text>
</g>
<!-- Node15&#45;&gt;Node9 -->
<g id="edge28" class="edge"><title>Node15&#45;&gt;Node9</title>
<path fill="none" stroke="#9a32cd" stroke-dasharray="5,2" d="M420.219,-821.744C467.178,-822.93 544.055,-821.703 608,-805.657 803.973,-756.481 900.215,-777.627 1021,-615.657 1054.82,-570.309 1001.15,-531.694 1039,-489.657 1054.19,-472.782 1081.96,-469.873 1099.26,-469.867"/>
<polygon fill="#9a32cd" stroke="#9a32cd" points="420.197,-818.242 410.096,-821.438 419.986,-825.238 420.197,-818.242"/>
<text text-anchor="middle" x="774" y="-780.657" font-family="Helvetica,sans-Serif" font-size="10.00"> logBufLock</text>
</g>
<!-- Node15&#45;&gt;Node13 -->
<g id="edge16" class="edge"><title>Node15&#45;&gt;Node13</title>
<path fill="none" stroke="#9a32cd" stroke-dasharray="5,2" d="M420.195,-815.39C437.018,-812.513 456.048,-807.701 472,-799.657 481.557,-794.837 480.407,-788.405 490,-783.657 537.887,-759.957 571.165,-799.362 608,-760.657 646.695,-719.998 591.135,-679.644 626,-635.657 634.089,-625.451 648.423,-620.715 659.418,-618.525"/>
<polygon fill="#9a32cd" stroke="#9a32cd" points="419.408,-811.969 410.053,-816.942 420.467,-818.889 419.408,-811.969"/>
<text text-anchor="middle" x="549" y="-797.657" font-family="Helvetica,sans-Serif" font-size="10.00"> logBufLock</text>
<text text-anchor="middle" x="549" y="-786.657" font-family="Helvetica,sans-Serif" font-size="10.00">lock</text>
</g>
<!-- Node16 -->
<g id="node16" class="node"><title>Node16</title>
<g id="a_node16"><a xlink:href="enumcom_1_1aworx_1_1lib_1_1enums_1_1LockMode.html" target="_top" xlink:title="LockMode">
<polygon fill="white" stroke="black" points="118,-752.157 118,-771.157 180,-771.157 180,-752.157 118,-752.157"/>
<text text-anchor="middle" x="149" y="-759.157" font-family="Helvetica,sans-Serif" font-size="10.00">LockMode</text>
</a>
</g>
</g>
<!-- Node16&#45;&gt;Node15 -->
<g id="edge17" class="edge"><title>Node16&#45;&gt;Node15</title>
<path fill="none" stroke="#9a32cd" stroke-dasharray="5,2" d="M190.498,-752.148C213.187,-749.115 241.044,-749.417 262,-762.657 277.46,-772.424 265.584,-788.405 280,-799.657 297.405,-813.242 321.874,-818.161 341.619,-819.725"/>
<polygon fill="#9a32cd" stroke="#9a32cd" points="189.806,-748.714 180.48,-753.743 190.906,-755.628 189.806,-748.714"/>
<text text-anchor="middle" x="230" y="-765.657" font-family="Helvetica,sans-Serif" font-size="10.00"> lockMode</text>
</g>
<!-- Node17 -->
<g id="node17" class="node"><title>Node17</title>
<polygon fill="white" stroke="#bfbfbf" points="299.5,-760.657 299.5,-790.657 452.5,-790.657 452.5,-760.657 299.5,-760.657"/>
<text text-anchor="start" x="307.5" y="-778.657" font-family="Helvetica,sans-Serif" font-size="10.00">ArrayList&lt; com.aworx.lox.core.</text>
<text text-anchor="middle" x="376" y="-767.657" font-family="Helvetica,sans-Serif" font-size="10.00">Logger &gt;</text>
</g>
<!-- Node17&#45;&gt;Node13 -->
<g id="edge20" class="edge"><title>Node17&#45;&gt;Node13</title>
<path fill="none" stroke="#9a32cd" stroke-dasharray="5,2" d="M450.503,-758.367C463.639,-755.385 477.211,-752.374 490,-749.657 542.265,-738.554 570.166,-764.386 608,-726.657 637.193,-697.545 599.555,-667.286 626,-635.657 634.237,-625.805 648.258,-621.037 659.113,-618.744"/>
<polygon fill="#9a32cd" stroke="#9a32cd" points="449.534,-754.999 440.564,-760.637 451.092,-761.823 449.534,-754.999"/>
<text text-anchor="middle" x="549" y="-752.657" font-family="Helvetica,sans-Serif" font-size="10.00"> loggers</text>
</g>
<!-- Node18 -->
<g id="node18" class="node"><title>Node18</title>
<polygon fill="white" stroke="#bfbfbf" points="331.5,-722.157 331.5,-741.157 420.5,-741.157 420.5,-722.157 331.5,-722.157"/>
<text text-anchor="middle" x="376" y="-729.157" font-family="Helvetica,sans-Serif" font-size="10.00">Vector&lt; String &gt;</text>
</g>
<!-- Node18&#45;&gt;Node13 -->
<g id="edge21" class="edge"><title>Node18&#45;&gt;Node13</title>
<path fill="none" stroke="#9a32cd" stroke-dasharray="5,2" d="M430.921,-723.268C497.06,-712.77 601.305,-695.464 608,-689.657 627.112,-673.081 608.579,-654.001 626,-635.657 634.843,-626.345 648.798,-621.518 659.473,-619.065"/>
<polygon fill="#9a32cd" stroke="#9a32cd" points="429.984,-719.872 420.654,-724.891 431.078,-726.786 429.984,-719.872"/>
<text text-anchor="middle" x="549" y="-716.657" font-family="Helvetica,sans-Serif" font-size="10.00"> omittablePackagePrefixes</text>
</g>
<!-- Node19 -->
<g id="node19" class="node"><title>Node19</title>
<polygon fill="white" stroke="#bfbfbf" points="280,-672.657 280,-702.657 472,-702.657 472,-672.657 280,-672.657"/>
<text text-anchor="start" x="288" y="-690.657" font-family="Helvetica,sans-Serif" font-size="10.00">HashMap&lt; com.aworx.lib.strings.</text>
<text text-anchor="middle" x="376" y="-679.657" font-family="Helvetica,sans-Serif" font-size="10.00">AString, com.aworx.lib.strings.AString &gt;</text>
</g>
<!-- Node19&#45;&gt;Node13 -->
<g id="edge22" class="edge"><title>Node19&#45;&gt;Node13</title>
<path fill="none" stroke="#9a32cd" stroke-dasharray="5,2" d="M482.189,-675.95C522.325,-669.573 568.018,-659.956 608,-645.657 616.617,-642.575 617.721,-639.557 626,-635.657 636.962,-630.493 649.737,-625.529 659.423,-621.971"/>
<polygon fill="#9a32cd" stroke="#9a32cd" points="481.462,-672.521 472.112,-677.502 482.528,-679.439 481.462,-672.521"/>
<text text-anchor="middle" x="549" y="-677.657" font-family="Helvetica,sans-Serif" font-size="10.00"> defaultDomains</text>
</g>
<!-- Node20&#45;&gt;Node13 -->
<g id="edge23" class="edge"><title>Node20&#45;&gt;Node13</title>
<path fill="none" stroke="#9a32cd" stroke-dasharray="5,2" d="M416.017,-556.807C462.644,-557.947 542.57,-562.964 608,-582.657 626.749,-588.3 646.516,-599.115 659.578,-607.037"/>
<polygon fill="#9a32cd" stroke="#9a32cd" points="415.817,-553.303 405.75,-556.606 415.68,-560.301 415.817,-553.303"/>
<text text-anchor="middle" x="549" y="-585.657" font-family="Helvetica,sans-Serif" font-size="10.00"> caller</text>
</g>
<!-- Node21 -->
<g id="node21" class="node"><title>Node21</title>
<polygon fill="white" stroke="#bfbfbf" points="294,-623.657 294,-653.657 458,-653.657 458,-623.657 294,-623.657"/>
<text text-anchor="start" x="302" y="-641.657" font-family="Helvetica,sans-Serif" font-size="10.00">HashMap&lt; com.aworx.lib.strings.</text>
<text text-anchor="middle" x="376" y="-630.657" font-family="Helvetica,sans-Serif" font-size="10.00">AString, Object &gt;</text>
</g>
<!-- Node21&#45;&gt;Node13 -->
<g id="edge26" class="edge"><title>Node21&#45;&gt;Node13</title>
<path fill="none" stroke="#9a32cd" stroke-dasharray="5,2" d="M468.669,-631.878C537.081,-626.819 624.482,-620.356 659.248,-617.785"/>
<polygon fill="#9a32cd" stroke="#9a32cd" points="468.008,-628.417 458.293,-632.645 468.524,-635.398 468.008,-628.417"/>
<text text-anchor="middle" x="549" y="-633.657" font-family="Helvetica,sans-Serif" font-size="10.00"> markers</text>
</g>
<!-- Node22 -->
<g id="node22" class="node"><title>Node22</title>
<polygon fill="white" stroke="#bfbfbf" points="1039,-499.657 1039,-529.657 1192,-529.657 1192,-499.657 1039,-499.657"/>
<text text-anchor="start" x="1047" y="-517.657" font-family="Helvetica,sans-Serif" font-size="10.00">ArrayList&lt; com.aworx.lox.core.</text>
<text text-anchor="middle" x="1115.5" y="-506.657" font-family="Helvetica,sans-Serif" font-size="10.00">Domain &gt;</text>
</g>
<!-- Node22&#45;&gt;Node8 -->
<g id="edge31" class="edge"><title>Node22&#45;&gt;Node8</title>
<path fill="none" stroke="#9a32cd" stroke-dasharray="5,2" d="M1196.65,-497.313C1219.86,-491.692 1245.1,-484.993 1268,-477.657 1283.63,-472.651 1300.79,-465.767 1313.9,-460.203"/>
<polygon fill="#9a32cd" stroke="#9a32cd" points="1195.75,-493.928 1186.84,-499.655 1197.38,-500.737 1195.75,-493.928"/>
<text text-anchor="middle" x="1239" y="-497.657" font-family="Helvetica,sans-Serif" font-size="10.00"> subDomains</text>
</g>
<!-- Node23&#45;&gt;Node3 -->
<g id="edge33" class="edge"><title>Node23&#45;&gt;Node3</title>
<path fill="none" stroke="#9a32cd" stroke-dasharray="5,2" d="M602.941,-324.435C654.632,-316.192 735.443,-302.734 805,-288.657 815.705,-286.49 827.347,-283.866 837.757,-281.422"/>
<polygon fill="#9a32cd" stroke="#9a32cd" points="602.331,-320.988 593.003,-326.012 603.428,-327.901 602.331,-320.988"/>
<text text-anchor="middle" x="675.5" y="-323.657" font-family="Helvetica,sans-Serif" font-size="10.00"> objectConverter</text>
</g>
<!-- Node24&#45;&gt;Node3 -->
<g id="edge35" class="edge"><title>Node24&#45;&gt;Node3</title>
<path fill="none" stroke="#9a32cd" stroke-dasharray="5,2" d="M709.468,-208.981C748.279,-224.666 811.764,-250.323 845.943,-264.136"/>
<polygon fill="#9a32cd" stroke="#9a32cd" points="710.749,-205.723 700.166,-205.221 708.126,-212.213 710.749,-205.723"/>
<text text-anchor="middle" x="774" y="-249.657" font-family="Helvetica,sans-Serif" font-size="10.00"> metaInfo</text>
</g>
<!-- Node25 -->
<g id="node25" class="node"><title>Node25</title>
<g id="a_node25"><a xlink:href="classcom_1_1aworx_1_1lib_1_1strings_1_1Tokenizer.html" target="_top" xlink:title="Tokenizer">
<polygon fill="white" stroke="black" points="346.5,-13.1568 346.5,-32.1568 405.5,-32.1568 405.5,-13.1568 346.5,-13.1568"/>
<text text-anchor="middle" x="376" y="-20.1568" font-family="Helvetica,sans-Serif" font-size="10.00">Tokenizer</text>
</a>
</g>
</g>
<!-- Node25&#45;&gt;Node24 -->
<g id="edge36" class="edge"><title>Node25&#45;&gt;Node24</title>
<path fill="none" stroke="#9a32cd" stroke-dasharray="5,2" d="M415.581,-11.5278C464.925,0.234679 550.817,12.1195 608,-27.6568 662.593,-65.6312 672.371,-155.923 674.12,-185.84"/>
<polygon fill="#9a32cd" stroke="#9a32cd" points="414.482,-8.19489 405.63,-14.0173 416.181,-14.9856 414.482,-8.19489"/>
<text text-anchor="middle" x="549" y="-30.6568" font-family="Helvetica,sans-Serif" font-size="10.00"> tok</text>
</g>
<!-- Node26&#45;&gt;Node25 -->
<g id="edge37" class="edge"><title>Node26&#45;&gt;Node25</title>
<path fill="none" stroke="#9a32cd" stroke-dasharray="5,2" d="M149.374,-159.727C149.519,-125.564 155.397,-56.4356 198,-24.6568 241.231,7.59042 308.374,-3.43636 346.325,-13.5598"/>
<polygon fill="#9a32cd" stroke="#9a32cd" points="145.875,-159.912 149.499,-169.868 152.875,-159.825 145.875,-159.912"/>
<text text-anchor="middle" x="230" y="-38.6568" font-family="Helvetica,sans-Serif" font-size="10.00"> rest</text>
<text text-anchor="middle" x="230" y="-27.6568" font-family="Helvetica,sans-Serif" font-size="10.00">actual</text>
</g>
<!-- Node27 -->
<g id="node27" class="node"><title>Node27</title>
<g id="a_node27"><a xlink:href="classcom_1_1aworx_1_1lib_1_1time_1_1TickSpan.html" target="_top" xlink:title="TickSpan">
<polygon fill="white" stroke="black" points="347,-203.157 347,-222.157 405,-222.157 405,-203.157 347,-203.157"/>
<text text-anchor="middle" x="376" y="-210.157" font-family="Helvetica,sans-Serif" font-size="10.00">TickSpan</text>
</a>
</g>
</g>
<!-- Node27&#45;&gt;Node24 -->
<g id="edge39" class="edge"><title>Node27&#45;&gt;Node24</title>
<path fill="none" stroke="#9a32cd" stroke-dasharray="5,2" d="M415.277,-210.47C476.454,-206.974 594.755,-200.214 647.722,-197.187"/>
<polygon fill="#9a32cd" stroke="#9a32cd" points="415.04,-206.977 405.256,-211.042 415.44,-213.966 415.04,-206.977"/>
<text text-anchor="middle" x="549" y="-209.657" font-family="Helvetica,sans-Serif" font-size="10.00"> elapsed</text>
</g>
<!-- Node28 -->
<g id="node28" class="node"><title>Node28</title>
<polygon fill="white" stroke="#bfbfbf" points="339.5,-165.157 339.5,-184.157 412.5,-184.157 412.5,-165.157 339.5,-165.157"/>
<text text-anchor="middle" x="376" y="-172.157" font-family="Helvetica,sans-Serif" font-size="10.00">FieldPosition</text>
</g>
<!-- Node28&#45;&gt;Node24 -->
<g id="edge40" class="edge"><title>Node28&#45;&gt;Node24</title>
<path fill="none" stroke="#9a32cd" stroke-dasharray="5,2" d="M422.796,-175.466C469.475,-176.613 543.923,-179.33 608,-185.657 621.129,-186.953 635.624,-189.053 647.722,-190.995"/>
<polygon fill="#9a32cd" stroke="#9a32cd" points="422.776,-171.965 412.697,-175.232 422.614,-178.963 422.776,-171.965"/>
<text text-anchor="middle" x="549" y="-188.657" font-family="Helvetica,sans-Serif" font-size="10.00"> fieldPositionZero</text>
</g>
<!-- Node29 -->
<g id="node29" class="node"><title>Node29</title>
<polygon fill="white" stroke="#bfbfbf" points="327,-127.157 327,-146.157 425,-146.157 425,-127.157 327,-127.157"/>
<text text-anchor="middle" x="376" y="-134.157" font-family="Helvetica,sans-Serif" font-size="10.00">GregorianCalendar</text>
</g>
<!-- Node29&#45;&gt;Node24 -->
<g id="edge42" class="edge"><title>Node29&#45;&gt;Node24</title>
<path fill="none" stroke="#9a32cd" stroke-dasharray="5,2" d="M435.329,-138.143C482.679,-140.61 550.739,-147.041 608,-163.657 626.088,-168.906 645.33,-178.678 658.436,-186.048"/>
<polygon fill="#9a32cd" stroke="#9a32cd" points="435.409,-134.643 425.253,-137.662 435.075,-141.635 435.409,-134.643"/>
<text text-anchor="middle" x="549" y="-166.657" font-family="Helvetica,sans-Serif" font-size="10.00"> callerDateTimeCal</text>
</g>
<!-- Node30 -->
<g id="node30" class="node"><title>Node30</title>
<polygon fill="white" stroke="#bfbfbf" points="327,-89.1568 327,-108.157 425,-108.157 425,-89.1568 327,-89.1568"/>
<text text-anchor="middle" x="376" y="-96.1568" font-family="Helvetica,sans-Serif" font-size="10.00">SimpleDateFormat</text>
</g>
<!-- Node30&#45;&gt;Node24 -->
<g id="edge43" class="edge"><title>Node30&#45;&gt;Node24</title>
<path fill="none" stroke="#9a32cd" stroke-dasharray="5,2" d="M435.084,-91.5965C483.917,-88.3356 554.169,-90.0792 608,-117.657 638.25,-133.154 660.379,-168.946 669.666,-186.122"/>
<polygon fill="#9a32cd" stroke="#9a32cd" points="434.709,-88.1148 425.003,-92.3608 435.239,-95.0947 434.709,-88.1148"/>
<text text-anchor="middle" x="549" y="-131.657" font-family="Helvetica,sans-Serif" font-size="10.00"> dateFormatter</text>
<text text-anchor="middle" x="549" y="-120.657" font-family="Helvetica,sans-Serif" font-size="10.00">timeOfDayFormatter</text>
</g>
<!-- Node31 -->
<g id="node31" class="node"><title>Node31</title>
<polygon fill="white" stroke="#bfbfbf" points="357,-241.157 357,-260.157 395,-260.157 395,-241.157 357,-241.157"/>
<text text-anchor="middle" x="376" y="-248.157" font-family="Helvetica,sans-Serif" font-size="10.00">Date</text>
</g>
<!-- Node31&#45;&gt;Node24 -->
<g id="edge44" class="edge"><title>Node31&#45;&gt;Node24</title>
<path fill="none" stroke="#9a32cd" stroke-dasharray="5,2" d="M405.489,-249.351C449.52,-246.827 536.494,-239.823 608,-221.657 623.859,-217.628 641.044,-210.841 653.971,-205.212"/>
<polygon fill="#9a32cd" stroke="#9a32cd" points="405.053,-245.869 395.255,-249.9 405.428,-252.859 405.053,-245.869"/>
<text text-anchor="middle" x="549" y="-244.657" font-family="Helvetica,sans-Serif" font-size="10.00"> callerDateTimeDate</text>
</g>
<!-- Node32 -->
<g id="node32" class="node"><title>Node32</title>
<polygon fill="white" stroke="#bfbfbf" points="626,-264.157 626,-283.157 725,-283.157 725,-264.157 626,-264.157"/>
<text text-anchor="middle" x="675.5" y="-271.157" font-family="Helvetica,sans-Serif" font-size="10.00">ArrayList&lt; String &gt;</text>
</g>
<!-- Node32&#45;&gt;Node3 -->
<g id="edge46" class="edge"><title>Node32&#45;&gt;Node3</title>
<path fill="none" stroke="#9a32cd" stroke-dasharray="5,2" d="M735.405,-273.657C769.103,-273.657 810.052,-273.657 837.765,-273.657"/>
<polygon fill="#9a32cd" stroke="#9a32cd" points="735.202,-270.157 725.202,-273.657 735.202,-277.157 735.202,-270.157"/>
<text text-anchor="middle" x="774" y="-276.657" font-family="Helvetica,sans-Serif" font-size="10.00"> replacements</text>
</g>
<!-- Node33 -->
<g id="node33" class="node"><title>Node33</title>
<g id="a_node33"><a xlink:href="classcom_1_1aworx_1_1lox_1_1core_1_1textlogger_1_1AutoSizes.html" target="_top" xlink:title="AutoSizes">
<polygon fill="white" stroke="black" points="644.5,-13.1568 644.5,-32.1568 706.5,-32.1568 706.5,-13.1568 644.5,-13.1568"/>
<text text-anchor="middle" x="675.5" y="-20.1568" font-family="Helvetica,sans-Serif" font-size="10.00">AutoSizes</text>
</a>
</g>
</g>
<!-- Node33&#45;&gt;Node3 -->
<g id="edge47" class="edge"><title>Node33&#45;&gt;Node3</title>
<path fill="none" stroke="#9a32cd" stroke-dasharray="5,2" d="M716.681,-14.6085C745.339,-11.4067 782.62,-12.8513 805,-35.6568 839.202,-70.5087 794.135,-215.271 823,-254.657 826.712,-259.721 832.014,-263.44 837.718,-266.169"/>
<polygon fill="#9a32cd" stroke="#9a32cd" points="716.002,-11.1682 706.557,-15.9675 716.934,-18.106 716.002,-11.1682"/>
<text text-anchor="middle" x="774" y="-38.6568" font-family="Helvetica,sans-Serif" font-size="10.00"> autoSizes</text>
</g>
<!-- Node34 -->
<g id="node34" class="node"><title>Node34</title>
<polygon fill="white" stroke="#bfbfbf" points="836.5,-226.157 836.5,-245.157 904.5,-245.157 904.5,-226.157 836.5,-226.157"/>
<text text-anchor="middle" x="870.5" y="-233.157" font-family="Helvetica,sans-Serif" font-size="10.00">PrintStream</text>
</g>
<!-- Node34&#45;&gt;Node2 -->
<g id="edge48" class="edge"><title>Node34&#45;&gt;Node2</title>
<path fill="none" stroke="#9a32cd" stroke-dasharray="5,2" d="M914.645,-240.273C962.833,-245.429 1039.7,-253.653 1082.71,-258.255"/>
<polygon fill="#9a32cd" stroke="#9a32cd" points="914.841,-236.774 904.525,-239.19 914.096,-243.734 914.841,-236.774"/>
<text text-anchor="middle" x="978.5" y="-254.657" font-family="Helvetica,sans-Serif" font-size="10.00"> out</text>
</g>
</g>
</svg>
