<?xml version="1.0" encoding="UTF-8" standalone="no"?>
<!DOCTYPE svg PUBLIC "-//W3C//DTD SVG 1.1//EN"
 "http://www.w3.org/Graphics/SVG/1.1/DTD/svg11.dtd">
<!-- Generated by graphviz version 2.40.1 (20161225.0304)
 -->
<!-- Title: StringTree&lt; T &gt;.Walker.RecursionData Pages: 1 -->
<svg width="716pt" height="107pt"
 viewBox="0.00 0.00 716.00 106.50" xmlns="http://www.w3.org/2000/svg" xmlns:xlink="http://www.w3.org/1999/xlink">
<g id="graph0" class="graph" transform="scale(1 1) rotate(0) translate(4 102.5)">
<title>StringTree&lt; T &gt;.Walker.RecursionData</title>
<polygon fill="#ffffff" stroke="transparent" points="-4,4 -4,-102.5 712,-102.5 712,4 -4,4"/>
<!-- Node1 -->
<g id="node1" class="node">
<title>Node1</title>
<g id="a_node1"><a xlink:title=" ">
<polygon fill="#bfbfbf" stroke="#000000" points="523,-23 523,-42 708,-42 708,-23 523,-23"/>
<text text-anchor="middle" x="615.5" y="-30" font-family="Helvetica,sans-Serif" font-size="10.00" fill="#000000">StringTree&lt; T &gt;.Walker.RecursionData</text>
</a>
</g>
</g>
<!-- Node2 -->
<g id="node2" class="node">
<title>Node2</title>
<g id="a_node2"><a xlink:href="classcom_1_1aworx_1_1lib_1_1util_1_1StringTree_1_1Node.html" target="_top" xlink:title=" ">
<polygon fill="#ffffff" stroke="#000000" points="280,-50 280,-69 391,-69 391,-50 280,-50"/>
<text text-anchor="middle" x="335.5" y="-57" font-family="Helvetica,sans-Serif" font-size="10.00" fill="#000000">StringTree&lt; T &gt;.Node</text>
</a>
</g>
</g>
<!-- Node2&#45;&gt;Node1 -->
<g id="edge1" class="edge">
<title>Node2&#45;&gt;Node1</title>
<path fill="none" stroke="#9a32cd" stroke-dasharray="5,2" d="M401.1104,-53.1733C437.3362,-49.6801 482.9271,-45.2838 522.7429,-41.4444"/>
<polygon fill="#9a32cd" stroke="#9a32cd" points="400.7716,-49.6896 391.1538,-54.1334 401.4436,-56.6573 400.7716,-49.6896"/>
<text text-anchor="middle" x="472" y="-52.5" font-family="Helvetica,sans-Serif" font-size="10.00" fill="#000000"> node</text>
</g>
<!-- Node2&#45;&gt;Node2 -->
<g id="edge2" class="edge">
<title>Node2&#45;&gt;Node2</title>
<path fill="none" stroke="#9a32cd" stroke-dasharray="5,2" d="M312.8066,-78.5292C314.0445,-83.628 321.6089,-87.5 335.5,-87.5 357.1836,-87.5 363.4515,-78.0653 354.3037,-69.2571"/>
<polygon fill="#9a32cd" stroke="#9a32cd" points="316.0553,-79.8325 316.6963,-69.2571 309.6003,-77.1246 316.0553,-79.8325"/>
<text text-anchor="middle" x="335.5" y="-90.5" font-family="Helvetica,sans-Serif" font-size="10.00" fill="#000000"> parent</text>
</g>
<!-- Node3 -->
<g id="node3" class="node">
<title>Node3</title>
<g id="a_node3"><a xlink:title=" ">
<polygon fill="#ffffff" stroke="#bfbfbf" points="0,-44.5 0,-74.5 177,-74.5 177,-44.5 0,-44.5"/>
<text text-anchor="start" x="8" y="-62.5" font-family="Helvetica,sans-Serif" font-size="10.00" fill="#000000">HashMap&lt; String, com.aworx.lib.util.</text>
<text text-anchor="middle" x="88.5" y="-51.5" font-family="Helvetica,sans-Serif" font-size="10.00" fill="#000000">StringTree.Node &gt;</text>
</a>
</g>
</g>
<!-- Node3&#45;&gt;Node2 -->
<g id="edge3" class="edge">
<title>Node3&#45;&gt;Node2</title>
<path fill="none" stroke="#9a32cd" stroke-dasharray="5,2" d="M187.4313,-59.5C218.8352,-59.5 252.4478,-59.5 279.6972,-59.5"/>
<polygon fill="#9a32cd" stroke="#9a32cd" points="187.3237,-56.0001 177.3237,-59.5 187.3237,-63.0001 187.3237,-56.0001"/>
<text text-anchor="middle" x="213.5" y="-62.5" font-family="Helvetica,sans-Serif" font-size="10.00" fill="#000000"> children</text>
</g>
<!-- Node4 -->
<g id="node4" class="node">
<title>Node4</title>
<g id="a_node4"><a xlink:title=" ">
<polygon fill="#ffffff" stroke="#bfbfbf" points="250,-.5 250,-30.5 421,-30.5 421,-.5 250,-.5"/>
<text text-anchor="start" x="258" y="-18.5" font-family="Helvetica,sans-Serif" font-size="10.00" fill="#000000">ArrayList&lt; com.aworx.lib.util.</text>
<text text-anchor="middle" x="335.5" y="-7.5" font-family="Helvetica,sans-Serif" font-size="10.00" fill="#000000">StringTree.Walker.NameAndNode &gt;</text>
</a>
</g>
</g>
<!-- Node4&#45;&gt;Node1 -->
<g id="edge4" class="edge">
<title>Node4&#45;&gt;Node1</title>
<path fill="none" stroke="#9a32cd" stroke-dasharray="5,2" d="M431.5256,-17.8315C455.5357,-18.7082 481.2215,-19.8972 505,-21.5 511.3476,-21.9279 517.8949,-22.4282 524.4849,-22.9752"/>
<polygon fill="#9a32cd" stroke="#9a32cd" points="431.4652,-14.3273 421.3486,-17.4746 431.2198,-21.323 431.4652,-14.3273"/>
<text text-anchor="middle" x="472" y="-24.5" font-family="Helvetica,sans-Serif" font-size="10.00" fill="#000000"> sortedChildren</text>
</g>
</g>
</svg>
