<?xml version="1.0" encoding="UTF-8" standalone="no"?>
<!DOCTYPE svg PUBLIC "-//W3C//DTD SVG 1.1//EN"
 "http://www.w3.org/Graphics/SVG/1.1/DTD/svg11.dtd">
<!-- Generated by graphviz version 2.38.0 (20140413.2041)
 -->
<!-- Title: ALoxReportWriter Pages: 1 -->
<svg width="853pt" height="412pt"
 viewBox="0.00 0.00 853.00 411.50" xmlns="http://www.w3.org/2000/svg" xmlns:xlink="http://www.w3.org/1999/xlink">
<g id="graph0" class="graph" transform="scale(1 1) rotate(0) translate(4 407.5)">
<title>ALoxReportWriter</title>
<polygon fill="white" stroke="none" points="-4,4 -4,-407.5 849,-407.5 849,4 -4,4"/>
<!-- Node1 -->
<g id="node1" class="node"><title>Node1</title>
<polygon fill="#bfbfbf" stroke="black" points="750,-191 750,-210 845,-210 845,-191 750,-191"/>
<text text-anchor="middle" x="797.5" y="-198" font-family="Helvetica,sans-Serif" font-size="10.00">ALoxReportWriter</text>
</g>
<!-- Node2 -->
<g id="node2" class="node"><title>Node2</title>
<g id="a_node2"><a xlink:href="interfacecom_1_1aworx_1_1lib_1_1ReportWriter.html" target="_top" xlink:title="ReportWriter">
<polygon fill="white" stroke="black" points="626,-207 626,-226 698,-226 698,-207 626,-207"/>
<text text-anchor="middle" x="662" y="-214" font-family="Helvetica,sans-Serif" font-size="10.00">ReportWriter</text>
</a>
</g>
</g>
<!-- Node2&#45;&gt;Node1 -->
<g id="edge1" class="edge"><title>Node2&#45;&gt;Node1</title>
<path fill="none" stroke="midnightblue" d="M708.017,-211.105C721.406,-209.5 736.104,-207.738 749.609,-206.12"/>
<polygon fill="midnightblue" stroke="midnightblue" points="707.588,-207.631 698.076,-212.296 708.421,-214.581 707.588,-207.631"/>
</g>
<!-- Node3 -->
<g id="node3" class="node"><title>Node3</title>
<g id="a_node3"><a xlink:href="classcom_1_1aworx_1_1lox_1_1Lox.html" target="_top" xlink:title="Lox">
<polygon fill="white" stroke="black" points="646,-169 646,-188 678,-188 678,-169 646,-169"/>
<text text-anchor="middle" x="662" y="-176" font-family="Helvetica,sans-Serif" font-size="10.00">Lox</text>
</a>
</g>
</g>
<!-- Node3&#45;&gt;Node1 -->
<g id="edge2" class="edge"><title>Node3&#45;&gt;Node1</title>
<path fill="none" stroke="#9a32cd" stroke-dasharray="5,2" d="M687.964,-182.614C705.319,-185.474 728.978,-189.373 749.777,-192.8"/>
<polygon fill="#9a32cd" stroke="#9a32cd" points="688.491,-179.154 678.055,-180.981 687.352,-186.06 688.491,-179.154"/>
<text text-anchor="middle" x="724" y="-192.5" font-family="Helvetica,sans-Serif" font-size="10.00"> lox</text>
</g>
<!-- Node4 -->
<g id="node4" class="node"><title>Node4</title>
<polygon fill="white" stroke="#bfbfbf" points="311.5,-333 311.5,-352 440.5,-352 440.5,-333 311.5,-333"/>
<text text-anchor="middle" x="376" y="-340" font-family="Helvetica,sans-Serif" font-size="10.00">HashMap&lt; Long, String &gt;</text>
</g>
<!-- Node4&#45;&gt;Node3 -->
<g id="edge3" class="edge"><title>Node4&#45;&gt;Node3</title>
<path fill="none" stroke="#9a32cd" stroke-dasharray="5,2" d="M428.726,-353.744C481.078,-361.813 560.837,-364.485 608,-319.5 647.661,-281.67 594.603,-242.425 626,-197.5 630.753,-190.699 638.74,-186.1 645.886,-183.132"/>
<polygon fill="#9a32cd" stroke="#9a32cd" points="429.077,-350.254 418.639,-352.07 427.931,-357.16 429.077,-350.254"/>
<text text-anchor="middle" x="549" y="-360.5" font-family="Helvetica,sans-Serif" font-size="10.00"> threadDictionary</text>
</g>
<!-- Node5 -->
<g id="node5" class="node"><title>Node5</title>
<g id="a_node5"><a xlink:href="classcom_1_1aworx_1_1lib_1_1threads_1_1ThreadLock.html" target="_top" xlink:title="ThreadLock">
<polygon fill="white" stroke="black" points="342,-295 342,-314 410,-314 410,-295 342,-295"/>
<text text-anchor="middle" x="376" y="-302" font-family="Helvetica,sans-Serif" font-size="10.00">ThreadLock</text>
</a>
</g>
</g>
<!-- Node5&#45;&gt;Node3 -->
<g id="edge4" class="edge"><title>Node5&#45;&gt;Node3</title>
<path fill="none" stroke="#9a32cd" stroke-dasharray="5,2" d="M420.454,-300.517C483.505,-294.352 594.357,-281.91 608,-269.5 632.401,-247.305 605.797,-223.574 626,-197.5 630.997,-191.051 638.824,-186.51 645.81,-183.489"/>
<polygon fill="#9a32cd" stroke="#9a32cd" points="420.011,-297.044 410.393,-301.488 420.683,-304.012 420.011,-297.044"/>
<text text-anchor="middle" x="549" y="-307.5" font-family="Helvetica,sans-Serif" font-size="10.00"> logBufLock</text>
<text text-anchor="middle" x="549" y="-296.5" font-family="Helvetica,sans-Serif" font-size="10.00">lock</text>
</g>
<!-- Node6 -->
<g id="node6" class="node"><title>Node6</title>
<g id="a_node6"><a xlink:href="enumcom_1_1aworx_1_1lib_1_1enums_1_1LockMode.html" target="_top" xlink:title="LockMode">
<polygon fill="white" stroke="black" points="118,-384 118,-403 180,-403 180,-384 118,-384"/>
<text text-anchor="middle" x="149" y="-391" font-family="Helvetica,sans-Serif" font-size="10.00">LockMode</text>
</a>
</g>
</g>
<!-- Node6&#45;&gt;Node5 -->
<g id="edge5" class="edge"><title>Node6&#45;&gt;Node5</title>
<path fill="none" stroke="#9a32cd" stroke-dasharray="5,2" d="M190.058,-380.965C212.525,-372.757 240.306,-360.561 262,-344.5 271.88,-337.186 269.392,-329.712 280,-323.5 298.723,-312.535 322.699,-307.796 341.88,-305.793"/>
<polygon fill="#9a32cd" stroke="#9a32cd" points="188.737,-377.72 180.471,-384.347 191.066,-384.321 188.737,-377.72"/>
<text text-anchor="middle" x="230" y="-379.5" font-family="Helvetica,sans-Serif" font-size="10.00"> lockMode</text>
</g>
<!-- Node7 -->
<g id="node7" class="node"><title>Node7</title>
<g id="a_node7"><a xlink:href="classcom_1_1aworx_1_1lib_1_1time_1_1Ticks.html" target="_top" xlink:title="Ticks">
<polygon fill="white" stroke="black" points="128.5,-306 128.5,-325 169.5,-325 169.5,-306 128.5,-306"/>
<text text-anchor="middle" x="149" y="-313" font-family="Helvetica,sans-Serif" font-size="10.00">Ticks</text>
</a>
</g>
</g>
<!-- Node7&#45;&gt;Node5 -->
<g id="edge6" class="edge"><title>Node7&#45;&gt;Node5</title>
<path fill="none" stroke="#9a32cd" stroke-dasharray="5,2" d="M179.625,-324.107C185.655,-325.519 191.992,-326.76 198,-327.5 226.231,-330.975 233.725,-330.604 262,-327.5 270.146,-326.606 271.982,-325.193 280,-323.5 300.571,-319.158 323.703,-314.526 341.991,-310.923"/>
<polygon fill="#9a32cd" stroke="#9a32cd" points="180.432,-320.701 169.878,-321.631 178.708,-327.486 180.432,-320.701"/>
<text text-anchor="middle" x="230" y="-332.5" font-family="Helvetica,sans-Serif" font-size="10.00"> waitTime</text>
</g>
<!-- Node7&#45;&gt;Node7 -->
<g id="edge7" class="edge"><title>Node7&#45;&gt;Node7</title>
<path fill="none" stroke="#9a32cd" stroke-dasharray="5,2" d="M140.161,-335.266C140.855,-339.997 143.801,-343.5 149,-343.5 157.531,-343.5 159.997,-334.065 156.398,-325.257"/>
<polygon fill="#9a32cd" stroke="#9a32cd" points="143.641,-335.654 141.602,-325.257 136.712,-334.656 143.641,-335.654"/>
<text text-anchor="middle" x="149" y="-357.5" font-family="Helvetica,sans-Serif" font-size="10.00"> tempTicks</text>
<text text-anchor="middle" x="149" y="-346.5" font-family="Helvetica,sans-Serif" font-size="10.00">creationTimeTicks</text>
</g>
<!-- Node13 -->
<g id="node13" class="node"><title>Node13</title>
<g id="a_node13"><a xlink:href="classcom_1_1aworx_1_1lox_1_1core_1_1CallerInfo.html" target="_top" xlink:title="CallerInfo">
<polygon fill="white" stroke="black" points="346.5,-256 346.5,-275 405.5,-275 405.5,-256 346.5,-256"/>
<text text-anchor="middle" x="376" y="-263" font-family="Helvetica,sans-Serif" font-size="10.00">CallerInfo</text>
</a>
</g>
</g>
<!-- Node7&#45;&gt;Node13 -->
<g id="edge15" class="edge"><title>Node7&#45;&gt;Node13</title>
<path fill="none" stroke="#9a32cd" stroke-dasharray="5,2" d="M179.851,-311.501C202.68,-307.998 234.76,-302.109 262,-293.5 270.348,-290.862 271.67,-288.194 280,-285.5 301.81,-278.445 327.258,-273.241 346.324,-269.913"/>
<polygon fill="#9a32cd" stroke="#9a32cd" points="179.14,-308.068 169.757,-312.988 180.16,-314.994 179.14,-308.068"/>
<text text-anchor="middle" x="230" y="-311.5" font-family="Helvetica,sans-Serif" font-size="10.00"> timeStamp</text>
</g>
<!-- Node8 -->
<g id="node8" class="node"><title>Node8</title>
<g id="a_node8"><a xlink:href="classcom_1_1aworx_1_1lib_1_1strings_1_1AString.html" target="_top" xlink:title="AString">
<polygon fill="white" stroke="black" points="124.5,-212 124.5,-231 173.5,-231 173.5,-212 124.5,-212"/>
<text text-anchor="middle" x="149" y="-219" font-family="Helvetica,sans-Serif" font-size="10.00">AString</text>
</a>
</g>
</g>
<!-- Node8&#45;&gt;Node3 -->
<g id="edge8" class="edge"><title>Node8&#45;&gt;Node3</title>
<path fill="none" stroke="#9a32cd" stroke-dasharray="5,2" d="M183.536,-219.42C282.061,-213.271 566.338,-195.252 608,-189.5 620.847,-187.726 635.244,-184.668 645.787,-182.226"/>
<polygon fill="#9a32cd" stroke="#9a32cd" points="183.289,-215.928 173.526,-220.043 183.725,-222.914 183.289,-215.928"/>
<text text-anchor="middle" x="376" y="-238.5" font-family="Helvetica,sans-Serif" font-size="10.00"> logBuf</text>
<text text-anchor="middle" x="376" y="-227.5" font-family="Helvetica,sans-Serif" font-size="10.00">tempAS</text>
<text text-anchor="middle" x="376" y="-216.5" font-family="Helvetica,sans-Serif" font-size="10.00">resDomain</text>
</g>
<!-- Node8&#45;&gt;Node13 -->
<g id="edge14" class="edge"><title>Node8&#45;&gt;Node13</title>
<path fill="none" stroke="#9a32cd" stroke-dasharray="5,2" d="M183.681,-225.861C205.983,-228.933 235.837,-233.398 262,-238.5 290.904,-244.136 323.594,-252.126 346.349,-257.951"/>
<polygon fill="#9a32cd" stroke="#9a32cd" points="184.076,-222.383 173.697,-224.509 183.137,-229.32 184.076,-222.383"/>
<text text-anchor="middle" x="230" y="-285.5" font-family="Helvetica,sans-Serif" font-size="10.00"> className</text>
<text text-anchor="middle" x="230" y="-274.5" font-family="Helvetica,sans-Serif" font-size="10.00">threadName</text>
<text text-anchor="middle" x="230" y="-263.5" font-family="Helvetica,sans-Serif" font-size="10.00">methodName</text>
<text text-anchor="middle" x="230" y="-252.5" font-family="Helvetica,sans-Serif" font-size="10.00">packageName</text>
<text text-anchor="middle" x="230" y="-241.5" font-family="Helvetica,sans-Serif" font-size="10.00">fileName</text>
</g>
<!-- Node9 -->
<g id="node9" class="node"><title>Node9</title>
<polygon fill="white" stroke="#bfbfbf" points="0,-212 0,-231 81,-231 81,-212 0,-212"/>
<text text-anchor="middle" x="40.5" y="-219" font-family="Helvetica,sans-Serif" font-size="10.00">CharSequence</text>
</g>
<!-- Node9&#45;&gt;Node8 -->
<g id="edge9" class="edge"><title>Node9&#45;&gt;Node8</title>
<path fill="none" stroke="midnightblue" d="M91.2131,-221.5C102.785,-221.5 114.581,-221.5 124.401,-221.5"/>
<polygon fill="midnightblue" stroke="midnightblue" points="91.1567,-218 81.1567,-221.5 91.1566,-225 91.1567,-218"/>
</g>
<!-- Node10 -->
<g id="node10" class="node"><title>Node10</title>
<polygon fill="white" stroke="#bfbfbf" points="299.5,-137.5 299.5,-167.5 452.5,-167.5 452.5,-137.5 299.5,-137.5"/>
<text text-anchor="start" x="307.5" y="-155.5" font-family="Helvetica,sans-Serif" font-size="10.00">ArrayList&lt; com.aworx.lox.core.</text>
<text text-anchor="middle" x="376" y="-144.5" font-family="Helvetica,sans-Serif" font-size="10.00">Logger &gt;</text>
</g>
<!-- Node10&#45;&gt;Node3 -->
<g id="edge10" class="edge"><title>Node10&#45;&gt;Node3</title>
<path fill="none" stroke="#9a32cd" stroke-dasharray="5,2" d="M463.029,-160.376C528.246,-166.346 612.216,-174.034 645.97,-177.124"/>
<polygon fill="#9a32cd" stroke="#9a32cd" points="463.011,-156.86 452.734,-159.433 462.373,-163.831 463.011,-156.86"/>
<text text-anchor="middle" x="549" y="-177.5" font-family="Helvetica,sans-Serif" font-size="10.00"> loggers</text>
</g>
<!-- Node11 -->
<g id="node11" class="node"><title>Node11</title>
<polygon fill="white" stroke="#bfbfbf" points="331.5,-99 331.5,-118 420.5,-118 420.5,-99 331.5,-99"/>
<text text-anchor="middle" x="376" y="-106" font-family="Helvetica,sans-Serif" font-size="10.00">Vector&lt; String &gt;</text>
</g>
<!-- Node11&#45;&gt;Node3 -->
<g id="edge11" class="edge"><title>Node11&#45;&gt;Node3</title>
<path fill="none" stroke="#9a32cd" stroke-dasharray="5,2" d="M430.812,-112.557C478.498,-117.375 549.441,-127.57 608,-148.5 622.138,-153.553 636.899,-162.231 647.241,-168.957"/>
<polygon fill="#9a32cd" stroke="#9a32cd" points="430.995,-109.058 420.705,-111.581 430.322,-116.026 430.995,-109.058"/>
<text text-anchor="middle" x="549" y="-151.5" font-family="Helvetica,sans-Serif" font-size="10.00"> omittablePackagePrefixes</text>
</g>
<!-- Node12 -->
<g id="node12" class="node"><title>Node12</title>
<polygon fill="white" stroke="#bfbfbf" points="280,-49.5 280,-79.5 472,-79.5 472,-49.5 280,-49.5"/>
<text text-anchor="start" x="288" y="-67.5" font-family="Helvetica,sans-Serif" font-size="10.00">HashMap&lt; com.aworx.lib.strings.</text>
<text text-anchor="middle" x="376" y="-56.5" font-family="Helvetica,sans-Serif" font-size="10.00">AString, com.aworx.lib.strings.AString &gt;</text>
</g>
<!-- Node12&#45;&gt;Node3 -->
<g id="edge12" class="edge"><title>Node12&#45;&gt;Node3</title>
<path fill="none" stroke="#9a32cd" stroke-dasharray="5,2" d="M482.396,-66.4154C524.098,-71.2941 570.841,-82.2427 608,-105.5 632.826,-121.038 649.663,-152.828 656.935,-168.835"/>
<polygon fill="#9a32cd" stroke="#9a32cd" points="482.507,-62.9074 472.192,-65.3289 481.765,-69.8681 482.507,-62.9074"/>
<text text-anchor="middle" x="549" y="-108.5" font-family="Helvetica,sans-Serif" font-size="10.00"> defaultDomains</text>
</g>
<!-- Node13&#45;&gt;Node3 -->
<g id="edge13" class="edge"><title>Node13&#45;&gt;Node3</title>
<path fill="none" stroke="#9a32cd" stroke-dasharray="5,2" d="M415.785,-265.158C464.008,-263.116 547.356,-254.15 608,-218.5 618.597,-212.27 616.44,-205.227 626,-197.5 632.022,-192.632 639.474,-188.387 645.952,-185.151"/>
<polygon fill="#9a32cd" stroke="#9a32cd" points="415.633,-261.661 405.76,-265.504 415.875,-268.657 415.633,-261.661"/>
<text text-anchor="middle" x="549" y="-260.5" font-family="Helvetica,sans-Serif" font-size="10.00"> caller</text>
</g>
<!-- Node14 -->
<g id="node14" class="node"><title>Node14</title>
<polygon fill="white" stroke="#bfbfbf" points="294,-0.5 294,-30.5 458,-30.5 458,-0.5 294,-0.5"/>
<text text-anchor="start" x="302" y="-18.5" font-family="Helvetica,sans-Serif" font-size="10.00">HashMap&lt; com.aworx.lib.strings.</text>
<text text-anchor="middle" x="376" y="-7.5" font-family="Helvetica,sans-Serif" font-size="10.00">AString, Object &gt;</text>
</g>
<!-- Node14&#45;&gt;Node3 -->
<g id="edge16" class="edge"><title>Node14&#45;&gt;Node3</title>
<path fill="none" stroke="#9a32cd" stroke-dasharray="5,2" d="M468.263,-10.6261C514.487,-12.7357 568.935,-22.7786 608,-53.5 645.798,-83.2251 657.011,-144.952 660.007,-168.802"/>
<polygon fill="#9a32cd" stroke="#9a32cd" points="468.344,-7.12689 458.23,-10.2848 468.106,-14.1228 468.344,-7.12689"/>
<text text-anchor="middle" x="549" y="-56.5" font-family="Helvetica,sans-Serif" font-size="10.00"> markers</text>
</g>
</g>
</svg>
