<?xml version="1.0" encoding="UTF-8" standalone="no"?>
<!DOCTYPE svg PUBLIC "-//W3C//DTD SVG 1.1//EN"
 "http://www.w3.org/Graphics/SVG/1.1/DTD/svg11.dtd">
<!-- Generated by graphviz version 2.40.1 (20161225.0304)
 -->
<!-- Title: Formatter Pages: 1 -->
<svg width="407pt" height="166pt"
 viewBox="0.00 0.00 407.00 166.00" xmlns="http://www.w3.org/2000/svg" xmlns:xlink="http://www.w3.org/1999/xlink">
<g id="graph0" class="graph" transform="scale(1 1) rotate(0) translate(4 162)">
<title>Formatter</title>
<polygon fill="#ffffff" stroke="transparent" points="-4,4 -4,-162 403,-162 403,4 -4,4"/>
<!-- Node4 -->
<g id="node1" class="node">
<title>Node4</title>
<polygon fill="#bfbfbf" stroke="#000000" points="219.5,-1.5 219.5,-20.5 278.5,-20.5 278.5,-1.5 219.5,-1.5"/>
<text text-anchor="middle" x="249" y="-8.5" font-family="Helvetica,sans-Serif" font-size="10.00" fill="#000000">Formatter</text>
</g>
<!-- Node4&#45;&gt;Node4 -->
<g id="edge7" class="edge">
<title>Node4&#45;&gt;Node4</title>
<path fill="none" stroke="#9a32cd" stroke-dasharray="5,2" d="M288.6722,-16.4785C293.4076,-15.4824 296.5,-13.6563 296.5,-11 296.5,-6.75 288.5833,-4.625 278.6875,-4.625"/>
<polygon fill="#9a32cd" stroke="#9a32cd" points="288.3344,-12.9947 278.6875,-17.375 288.9605,-19.9666 288.3344,-12.9947"/>
<text text-anchor="middle" x="332.5" y="-14" font-family="Helvetica,sans-Serif" font-size="10.00" fill="#000000"> next</text>
<text text-anchor="middle" x="332.5" y="-3" font-family="Helvetica,sans-Serif" font-size="10.00" fill="#000000">defaultFormatter</text>
</g>
<!-- Node5 -->
<g id="node2" class="node">
<title>Node5</title>
<g id="a_node2"><a xlink:href="classcom_1_1aworx_1_1lib_1_1threads_1_1ThreadLock.html" target="_top" xlink:title="ThreadLock">
<polygon fill="#ffffff" stroke="#000000" points="67,-69.5 67,-88.5 135,-88.5 135,-69.5 67,-69.5"/>
<text text-anchor="middle" x="101" y="-76.5" font-family="Helvetica,sans-Serif" font-size="10.00" fill="#000000">ThreadLock</text>
</a>
</g>
</g>
<!-- Node5&#45;&gt;Node4 -->
<g id="edge1" class="edge">
<title>Node5&#45;&gt;Node4</title>
<path fill="none" stroke="#9a32cd" stroke-dasharray="5,2" d="M117.9732,-62.3853C126.659,-54.654 137.7544,-45.8873 149,-40 171.2602,-28.3463 198.8287,-20.7982 219.3784,-16.3329"/>
<polygon fill="#9a32cd" stroke="#9a32cd" points="115.4116,-59.9873 110.4576,-69.3527 120.1706,-65.1208 115.4116,-59.9873"/>
<text text-anchor="middle" x="197" y="-43" font-family="Helvetica,sans-Serif" font-size="10.00" fill="#000000"> defaultFormatterLock</text>
</g>
<!-- Node6 -->
<g id="node3" class="node">
<title>Node6</title>
<g id="a_node3"><a xlink:href="enumcom_1_1aworx_1_1lib_1_1lang_1_1LockMode.html" target="_top" xlink:title="LockMode">
<polygon fill="#ffffff" stroke="#000000" points="0,-137.5 0,-156.5 62,-156.5 62,-137.5 0,-137.5"/>
<text text-anchor="middle" x="31" y="-144.5" font-family="Helvetica,sans-Serif" font-size="10.00" fill="#000000">LockMode</text>
</a>
</g>
</g>
<!-- Node6&#45;&gt;Node5 -->
<g id="edge2" class="edge">
<title>Node6&#45;&gt;Node5</title>
<path fill="none" stroke="#9a32cd" stroke-dasharray="5,2" d="M37.8093,-127.7852C41.0118,-120.6591 45.3821,-112.8875 51,-107 58.3491,-99.2983 68.2897,-93.1432 77.3716,-88.5873"/>
<polygon fill="#9a32cd" stroke="#9a32cd" points="34.4005,-126.8841 33.9435,-137.4691 40.9016,-129.4794 34.4005,-126.8841"/>
<text text-anchor="middle" x="74" y="-110" font-family="Helvetica,sans-Serif" font-size="10.00" fill="#000000"> lockMode</text>
</g>
<!-- Node7 -->
<g id="node4" class="node">
<title>Node7</title>
<g id="a_node4"><a xlink:href="classcom_1_1aworx_1_1lib_1_1time_1_1Ticks.html" target="_top" xlink:title="Ticks">
<polygon fill="#ffffff" stroke="#000000" points="80.5,-137.5 80.5,-156.5 121.5,-156.5 121.5,-137.5 80.5,-137.5"/>
<text text-anchor="middle" x="101" y="-144.5" font-family="Helvetica,sans-Serif" font-size="10.00" fill="#000000">Ticks</text>
</a>
</g>
</g>
<!-- Node7&#45;&gt;Node5 -->
<g id="edge3" class="edge">
<title>Node7&#45;&gt;Node5</title>
<path fill="none" stroke="#9a32cd" stroke-dasharray="5,2" d="M101,-127.1951C101,-114.5514 101,-98.7157 101,-88.7247"/>
<polygon fill="#9a32cd" stroke="#9a32cd" points="97.5001,-127.2572 101,-137.2573 104.5001,-127.2573 97.5001,-127.2572"/>
<text text-anchor="middle" x="122.5" y="-110" font-family="Helvetica,sans-Serif" font-size="10.00" fill="#000000"> waitTime</text>
</g>
<!-- Node7&#45;&gt;Node7 -->
<g id="edge4" class="edge">
<title>Node7&#45;&gt;Node7</title>
<path fill="none" stroke="#9a32cd" stroke-dasharray="5,2" d="M131.816,-152.7822C136.4,-151.8815 139.5,-149.954 139.5,-147 139.5,-142.1523 131.1518,-140.0694 121.5969,-140.7511"/>
<polygon fill="#9a32cd" stroke="#9a32cd" points="131.4268,-149.2963 121.5969,-153.2489 131.7462,-156.289 131.4268,-149.2963"/>
<text text-anchor="middle" x="179.5" y="-150" font-family="Helvetica,sans-Serif" font-size="10.00" fill="#000000"> tempTicks</text>
<text text-anchor="middle" x="179.5" y="-139" font-family="Helvetica,sans-Serif" font-size="10.00" fill="#000000">creationTimeTicks</text>
</g>
<!-- Node8 -->
<g id="node5" class="node">
<title>Node8</title>
<g id="a_node5"><a xlink:href="classcom_1_1aworx_1_1lib_1_1strings_1_1Substring.html" target="_top" xlink:title="Substring">
<polygon fill="#ffffff" stroke="#000000" points="220,-69.5 220,-88.5 278,-88.5 278,-69.5 220,-69.5"/>
<text text-anchor="middle" x="249" y="-76.5" font-family="Helvetica,sans-Serif" font-size="10.00" fill="#000000">Substring</text>
</a>
</g>
</g>
<!-- Node8&#45;&gt;Node4 -->
<g id="edge5" class="edge">
<title>Node8&#45;&gt;Node4</title>
<path fill="none" stroke="#9a32cd" stroke-dasharray="5,2" d="M249,-59.1951C249,-46.5514 249,-30.7157 249,-20.7247"/>
<polygon fill="#9a32cd" stroke="#9a32cd" points="245.5001,-59.2572 249,-69.2573 252.5001,-59.2573 245.5001,-59.2572"/>
<text text-anchor="middle" x="287" y="-43" font-family="Helvetica,sans-Serif" font-size="10.00" fill="#000000"> lamFormatString</text>
</g>
<!-- Node9 -->
<g id="node6" class="node">
<title>Node9</title>
<polygon fill="#ffffff" stroke="#bfbfbf" points="237.5,-137.5 237.5,-156.5 318.5,-156.5 318.5,-137.5 237.5,-137.5"/>
<text text-anchor="middle" x="278" y="-144.5" font-family="Helvetica,sans-Serif" font-size="10.00" fill="#000000">CharSequence</text>
</g>
<!-- Node9&#45;&gt;Node8 -->
<g id="edge6" class="edge">
<title>Node9&#45;&gt;Node8</title>
<path fill="none" stroke="#191970" d="M269.8789,-127.9574C264.4355,-115.1937 257.4942,-98.9175 253.1473,-88.7247"/>
<polygon fill="#191970" stroke="#191970" points="266.7026,-129.4318 273.845,-137.2573 273.1415,-126.6858 266.7026,-129.4318"/>
</g>
<!-- Node10 -->
<g id="node7" class="node">
<title>Node10</title>
<polygon fill="#ffffff" stroke="#bfbfbf" points="297,-69.5 297,-88.5 399,-88.5 399,-69.5 297,-69.5"/>
<text text-anchor="middle" x="348" y="-76.5" font-family="Helvetica,sans-Serif" font-size="10.00" fill="#000000">ArrayList&lt; Object &gt;</text>
</g>
<!-- Node10&#45;&gt;Node4 -->
<g id="edge8" class="edge">
<title>Node10&#45;&gt;Node4</title>
<path fill="none" stroke="#9a32cd" stroke-dasharray="5,2" d="M340.5164,-59.808C336.9945,-52.8012 332.186,-45.303 326,-40 312.552,-28.4716 294.0661,-21.3074 278.5779,-16.9843"/>
<polygon fill="#9a32cd" stroke="#9a32cd" points="337.5183,-61.682 344.7665,-69.4094 343.9192,-58.8485 337.5183,-61.682"/>
<text text-anchor="middle" x="349" y="-43" font-family="Helvetica,sans-Serif" font-size="10.00" fill="#000000"> boxes</text>
</g>
</g>
</svg>
