<?xml version="1.0" encoding="UTF-8" standalone="no"?>
<!DOCTYPE svg PUBLIC "-//W3C//DTD SVG 1.1//EN"
 "http://www.w3.org/Graphics/SVG/1.1/DTD/svg11.dtd">
<!-- Generated by graphviz version 2.38.0 (20140413.2041)
 -->
<!-- Title: ScopeDump Pages: 1 -->
<svg width="220pt" height="174pt"
 viewBox="0.00 0.00 220.00 174.00" xmlns="http://www.w3.org/2000/svg" xmlns:xlink="http://www.w3.org/1999/xlink">
<g id="graph0" class="graph" transform="scale(1 1) rotate(0) translate(4 170)">
<title>ScopeDump</title>
<polygon fill="white" stroke="none" points="-4,4 -4,-170 216,-170 216,4 -4,4"/>
<!-- Node1 -->
<g id="node1" class="node"><title>Node1</title>
<polygon fill="#bfbfbf" stroke="black" points="80,-0.5 80,-19.5 151,-19.5 151,-0.5 80,-0.5"/>
<text text-anchor="middle" x="115.5" y="-7.5" font-family="Helvetica,sans-Serif" font-size="10.00">ScopeDump</text>
</g>
<!-- Node2 -->
<g id="node2" class="node"><title>Node2</title>
<polygon fill="white" stroke="#bfbfbf" points="0,-89.5 0,-108.5 129,-108.5 129,-89.5 0,-89.5"/>
<text text-anchor="middle" x="64.5" y="-96.5" font-family="Helvetica,sans-Serif" font-size="10.00">HashMap&lt; Long, String &gt;</text>
</g>
<!-- Node2&#45;&gt;Node1 -->
<g id="edge1" class="edge"><title>Node2&#45;&gt;Node1</title>
<path fill="none" stroke="#9a32cd" stroke-dasharray="5,2" d="M61.808,-79.2392C60.9679,-66.646 61.8288,-50.1928 69.5,-38 74.6285,-29.8486 83.1819,-23.8641 91.5311,-19.6313"/>
<polygon fill="#9a32cd" stroke="#9a32cd" points="58.3608,-79.9184 62.9112,-89.4863 65.3206,-79.169 58.3608,-79.9184"/>
<text text-anchor="middle" x="107" y="-52" font-family="Helvetica,sans-Serif" font-size="10.00"> threadDictionary</text>
</g>
<!-- Node3 -->
<g id="node3" class="node"><title>Node3</title>
<g id="a_node3"><a xlink:href="classcom_1_1aworx_1_1lib_1_1strings_1_1AString.html" target="_top" xlink:title="AString">
<polygon fill="white" stroke="black" points="147,-89.5 147,-108.5 196,-108.5 196,-89.5 147,-89.5"/>
<text text-anchor="middle" x="171.5" y="-96.5" font-family="Helvetica,sans-Serif" font-size="10.00">AString</text>
</a>
</g>
</g>
<!-- Node3&#45;&gt;Node1 -->
<g id="edge2" class="edge"><title>Node3&#45;&gt;Node1</title>
<path fill="none" stroke="#9a32cd" stroke-dasharray="5,2" d="M165.4,-79.5856C160.779,-67.1677 153.663,-50.7809 144.5,-38 139.53,-31.0674 132.571,-24.5161 126.715,-19.6031"/>
<polygon fill="#9a32cd" stroke="#9a32cd" points="162.191,-81.0112 168.807,-89.2863 168.795,-78.6914 162.191,-81.0112"/>
<text text-anchor="middle" x="179.5" y="-63" font-family="Helvetica,sans-Serif" font-size="10.00"> target</text>
<text text-anchor="middle" x="179.5" y="-52" font-family="Helvetica,sans-Serif" font-size="10.00">tempAS</text>
<text text-anchor="middle" x="179.5" y="-41" font-family="Helvetica,sans-Serif" font-size="10.00">key</text>
</g>
<!-- Node4 -->
<g id="node4" class="node"><title>Node4</title>
<polygon fill="white" stroke="#bfbfbf" points="131,-146.5 131,-165.5 212,-165.5 212,-146.5 131,-146.5"/>
<text text-anchor="middle" x="171.5" y="-153.5" font-family="Helvetica,sans-Serif" font-size="10.00">CharSequence</text>
</g>
<!-- Node4&#45;&gt;Node3 -->
<g id="edge3" class="edge"><title>Node4&#45;&gt;Node3</title>
<path fill="none" stroke="midnightblue" d="M171.5,-136.117C171.5,-126.817 171.5,-116.056 171.5,-108.715"/>
<polygon fill="midnightblue" stroke="midnightblue" points="168,-136.406 171.5,-146.406 175,-136.406 168,-136.406"/>
</g>
</g>
</svg>
