<?xml version="1.0" encoding="UTF-8" standalone="no"?>
<!DOCTYPE svg PUBLIC "-//W3C//DTD SVG 1.1//EN"
 "http://www.w3.org/Graphics/SVG/1.1/DTD/svg11.dtd">
<!-- Generated by graphviz version 2.38.0 (20140413.2041)
 -->
<!-- Title: Logger Pages: 1 -->
<svg width="288pt" height="243pt"
 viewBox="0.00 0.00 288.00 243.00" xmlns="http://www.w3.org/2000/svg" xmlns:xlink="http://www.w3.org/1999/xlink">
<g id="graph0" class="graph" transform="scale(1 1) rotate(0) translate(4 239)">
<title>Logger</title>
<polygon fill="white" stroke="none" points="-4,4 -4,-239 284,-239 284,4 -4,4"/>
<!-- Node1 -->
<g id="node1" class="node"><title>Node1</title>
<polygon fill="#bfbfbf" stroke="black" points="0,-0.5 0,-19.5 46,-19.5 46,-0.5 0,-0.5"/>
<text text-anchor="middle" x="23" y="-7.5" font-family="Helvetica,sans-Serif" font-size="10.00">Logger</text>
</g>
<!-- Node2 -->
<g id="node2" class="node"><title>Node2</title>
<g id="a_node2"><a xlink:href="classcom_1_1aworx_1_1lib_1_1threads_1_1SmartLock.html" target="_top" xlink:title="SmartLock">
<polygon fill="white" stroke="black" points="68,-57.5 68,-76.5 132,-76.5 132,-57.5 68,-57.5"/>
<text text-anchor="middle" x="100" y="-64.5" font-family="Helvetica,sans-Serif" font-size="10.00">SmartLock</text>
</a>
</g>
</g>
<!-- Node2&#45;&gt;Node1 -->
<g id="edge1" class="edge"><title>Node2&#45;&gt;Node1</title>
<path fill="none" stroke="midnightblue" d="M79.7519,-51.537C65.4955,-41.3539 46.8949,-28.0678 34.9468,-19.5334"/>
<polygon fill="midnightblue" stroke="midnightblue" points="77.797,-54.4419 87.9688,-57.4062 81.8657,-48.7458 77.797,-54.4419"/>
</g>
<!-- Node3 -->
<g id="node3" class="node"><title>Node3</title>
<g id="a_node3"><a xlink:href="classcom_1_1aworx_1_1lib_1_1threads_1_1ThreadLock.html" target="_top" xlink:title="ThreadLock">
<polygon fill="white" stroke="black" points="200,-141 200,-160 268,-160 268,-141 200,-141"/>
<text text-anchor="middle" x="234" y="-148" font-family="Helvetica,sans-Serif" font-size="10.00">ThreadLock</text>
</a>
</g>
</g>
<!-- Node3&#45;&gt;Node2 -->
<g id="edge2" class="edge"><title>Node3&#45;&gt;Node2</title>
<path fill="none" stroke="midnightblue" d="M211.658,-135.176C194.17,-124.044 169.178,-108.31 147,-95 136.511,-88.7048 124.555,-81.8406 115.326,-76.6086"/>
<polygon fill="midnightblue" stroke="midnightblue" points="210.224,-138.413 220.536,-140.843 213.99,-132.512 210.224,-138.413"/>
</g>
<!-- Node4 -->
<g id="node4" class="node"><title>Node4</title>
<g id="a_node4"><a xlink:href="enumcom_1_1aworx_1_1lib_1_1enums_1_1LockMode.html" target="_top" xlink:title="LockMode">
<polygon fill="white" stroke="black" points="203,-214.5 203,-233.5 265,-233.5 265,-214.5 203,-214.5"/>
<text text-anchor="middle" x="234" y="-221.5" font-family="Helvetica,sans-Serif" font-size="10.00">LockMode</text>
</a>
</g>
</g>
<!-- Node4&#45;&gt;Node3 -->
<g id="edge3" class="edge"><title>Node4&#45;&gt;Node3</title>
<path fill="none" stroke="#9a32cd" stroke-dasharray="5,2" d="M234,-204.094C234,-189.933 234,-171.202 234,-160.339"/>
<polygon fill="#9a32cd" stroke="#9a32cd" points="230.5,-204.233 234,-214.233 237.5,-204.233 230.5,-204.233"/>
<text text-anchor="middle" x="257" y="-187" font-family="Helvetica,sans-Serif" font-size="10.00"> lockMode</text>
</g>
<!-- Node5 -->
<g id="node5" class="node"><title>Node5</title>
<g id="a_node5"><a xlink:href="classcom_1_1aworx_1_1lib_1_1time_1_1Ticks.html" target="_top" xlink:title="Ticks">
<polygon fill="white" stroke="black" points="7.5,-214.5 7.5,-233.5 48.5,-233.5 48.5,-214.5 7.5,-214.5"/>
<text text-anchor="middle" x="28" y="-221.5" font-family="Helvetica,sans-Serif" font-size="10.00">Ticks</text>
</a>
</g>
</g>
<!-- Node5&#45;&gt;Node1 -->
<g id="edge7" class="edge"><title>Node5&#45;&gt;Node1</title>
<path fill="none" stroke="#9a32cd" stroke-dasharray="5,2" d="M20.335,-204.983C16.0636,-193.952 11.1779,-179.421 9,-166 0.0410262,-110.792 14.7239,-43.5231 20.6729,-19.7942"/>
<polygon fill="#9a32cd" stroke="#9a32cd" points="17.1282,-206.389 24.1338,-214.337 23.6138,-203.755 17.1282,-206.389"/>
<text text-anchor="middle" x="43" y="-109" font-family="Helvetica,sans-Serif" font-size="10.00"> timeOfCreation</text>
<text text-anchor="middle" x="43" y="-98" font-family="Helvetica,sans-Serif" font-size="10.00">timeOfLastLog</text>
</g>
<!-- Node5&#45;&gt;Node3 -->
<g id="edge4" class="edge"><title>Node5&#45;&gt;Node3</title>
<path fill="none" stroke="#9a32cd" stroke-dasharray="5,2" d="M58.2079,-212.515C99.1957,-198.289 171.641,-173.144 209.461,-160.017"/>
<polygon fill="#9a32cd" stroke="#9a32cd" points="56.8047,-209.297 48.5052,-215.883 59.1,-215.91 56.8047,-209.297"/>
<text text-anchor="middle" x="159.5" y="-187" font-family="Helvetica,sans-Serif" font-size="10.00"> waitTime</text>
</g>
<!-- Node5&#45;&gt;Node5 -->
<g id="edge5" class="edge"><title>Node5&#45;&gt;Node5</title>
<path fill="none" stroke="#9a32cd" stroke-dasharray="5,2" d="M58.816,-229.782C63.4,-228.881 66.5,-226.954 66.5,-224 66.5,-219.152 58.1518,-217.069 48.5969,-217.751"/>
<polygon fill="#9a32cd" stroke="#9a32cd" points="58.4268,-226.296 48.5969,-230.249 58.7462,-233.289 58.4268,-226.296"/>
<text text-anchor="middle" x="107" y="-227" font-family="Helvetica,sans-Serif" font-size="10.00"> tempTicks</text>
<text text-anchor="middle" x="107" y="-216" font-family="Helvetica,sans-Serif" font-size="10.00">creationTimeTicks</text>
</g>
<!-- Node6 -->
<g id="node6" class="node"><title>Node6</title>
<polygon fill="white" stroke="#bfbfbf" points="18,-135.5 18,-165.5 182,-165.5 182,-135.5 18,-135.5"/>
<text text-anchor="start" x="26" y="-153.5" font-family="Helvetica,sans-Serif" font-size="10.00">ArrayList&lt; com.aworx.lib.threads.</text>
<text text-anchor="middle" x="100" y="-142.5" font-family="Helvetica,sans-Serif" font-size="10.00">ThreadLock &gt;</text>
</g>
<!-- Node6&#45;&gt;Node2 -->
<g id="edge6" class="edge"><title>Node6&#45;&gt;Node2</title>
<path fill="none" stroke="#9a32cd" stroke-dasharray="5,2" d="M100,-125.248C100,-108.781 100,-87.9886 100,-76.5391"/>
<polygon fill="#9a32cd" stroke="#9a32cd" points="96.5001,-125.304 100,-135.304 103.5,-125.304 96.5001,-125.304"/>
<text text-anchor="middle" x="121.5" y="-103.5" font-family="Helvetica,sans-Serif" font-size="10.00"> acquirers</text>
</g>
</g>
</svg>
