<?xml version="1.0" encoding="UTF-8" standalone="no"?>
<!DOCTYPE svg PUBLIC "-//W3C//DTD SVG 1.1//EN"
 "http://www.w3.org/Graphics/SVG/1.1/DTD/svg11.dtd">
<!-- Generated by graphviz version 2.40.1 (20161225.0304)
 -->
<!-- Title: ALoxReportWriter Pages: 1 -->
<svg width="953pt" height="808pt"
 viewBox="0.00 0.00 953.00 807.50" xmlns="http://www.w3.org/2000/svg" xmlns:xlink="http://www.w3.org/1999/xlink">
<g id="graph0" class="graph" transform="scale(1 1) rotate(0) translate(4 803.5)">
<title>ALoxReportWriter</title>
<polygon fill="#ffffff" stroke="transparent" points="-4,4 -4,-803.5 949,-803.5 949,4 -4,4"/>
<!-- Node2 -->
<g id="node1" class="node">
<title>Node2</title>
<polygon fill="#bfbfbf" stroke="#000000" points="850,-543 850,-562 945,-562 945,-543 850,-543"/>
<text text-anchor="middle" x="897.5" y="-550" font-family="Helvetica,sans-Serif" font-size="10.00" fill="#000000">ALoxReportWriter</text>
</g>
<!-- Node3 -->
<g id="node2" class="node">
<title>Node3</title>
<g id="a_node2"><a xlink:href="interfacecom_1_1aworx_1_1lib_1_1lang_1_1ReportWriter.html" target="_top" xlink:title="ReportWriter">
<polygon fill="#ffffff" stroke="#000000" points="726,-562 726,-581 798,-581 798,-562 726,-562"/>
<text text-anchor="middle" x="762" y="-569" font-family="Helvetica,sans-Serif" font-size="10.00" fill="#000000">ReportWriter</text>
</a>
</g>
</g>
<!-- Node3&#45;&gt;Node2 -->
<g id="edge1" class="edge">
<title>Node3&#45;&gt;Node2</title>
<path fill="none" stroke="#191970" d="M808.2854,-565.0098C821.6998,-563.1288 836.3662,-561.0723 849.8618,-559.1799"/>
<polygon fill="#191970" stroke="#191970" points="807.7286,-561.5535 798.3115,-566.4083 808.7007,-568.4857 807.7286,-561.5535"/>
</g>
<!-- Node4 -->
<g id="node3" class="node">
<title>Node4</title>
<g id="a_node3"><a xlink:href="classcom_1_1aworx_1_1lox_1_1Lox.html" target="_top" xlink:title="Lox">
<polygon fill="#ffffff" stroke="#000000" points="746,-524 746,-543 778,-543 778,-524 746,-524"/>
<text text-anchor="middle" x="762" y="-531" font-family="Helvetica,sans-Serif" font-size="10.00" fill="#000000">Lox</text>
</a>
</g>
</g>
<!-- Node4&#45;&gt;Node2 -->
<g id="edge2" class="edge">
<title>Node4&#45;&gt;Node2</title>
<path fill="none" stroke="#9a32cd" stroke-dasharray="5,2" d="M788.0847,-537.1576C805.5373,-539.6049 829.0201,-542.8976 849.7561,-545.8053"/>
<polygon fill="#9a32cd" stroke="#9a32cd" points="788.4649,-533.6768 778.0757,-535.7542 787.4928,-540.609 788.4649,-533.6768"/>
<text text-anchor="middle" x="824" y="-545.5" font-family="Helvetica,sans-Serif" font-size="10.00" fill="#000000"> lox</text>
</g>
<!-- Node5 -->
<g id="node4" class="node">
<title>Node5</title>
<g id="a_node4"><a xlink:href="classcom_1_1aworx_1_1lib_1_1threads_1_1ThreadLock.html" target="_top" xlink:title="ThreadLock">
<polygon fill="#ffffff" stroke="#000000" points="477.5,-779 477.5,-798 545.5,-798 545.5,-779 477.5,-779"/>
<text text-anchor="middle" x="511.5" y="-786" font-family="Helvetica,sans-Serif" font-size="10.00" fill="#000000">ThreadLock</text>
</a>
</g>
</g>
<!-- Node5&#45;&gt;Node4 -->
<g id="edge3" class="edge">
<title>Node5&#45;&gt;Node4</title>
<path fill="none" stroke="#191970" d="M555.7617,-795.8014C600.9299,-800.4683 669.6771,-799.3717 708,-758.5 739.4311,-724.9785 700.5806,-590.7813 726,-552.5 730.613,-545.5529 738.622,-540.9734 745.9163,-538.0548"/>
<polygon fill="#191970" stroke="#191970" points="555.9998,-792.3055 545.6613,-794.6219 555.1879,-799.2582 555.9998,-792.3055"/>
</g>
<!-- Node6 -->
<g id="node5" class="node">
<title>Node6</title>
<g id="a_node5"><a xlink:href="enumcom_1_1aworx_1_1lib_1_1lang_1_1LockMode.html" target="_top" xlink:title="LockMode">
<polygon fill="#ffffff" stroke="#000000" points="163.5,-779 163.5,-798 225.5,-798 225.5,-779 163.5,-779"/>
<text text-anchor="middle" x="194.5" y="-786" font-family="Helvetica,sans-Serif" font-size="10.00" fill="#000000">LockMode</text>
</a>
</g>
</g>
<!-- Node6&#45;&gt;Node5 -->
<g id="edge4" class="edge">
<title>Node6&#45;&gt;Node5</title>
<path fill="none" stroke="#9a32cd" stroke-dasharray="5,2" d="M235.7664,-788.5C298.921,-788.5 418.3905,-788.5 477.1315,-788.5"/>
<polygon fill="#9a32cd" stroke="#9a32cd" points="235.7628,-785.0001 225.7627,-788.5 235.7627,-792.0001 235.7628,-785.0001"/>
<text text-anchor="middle" x="348" y="-791.5" font-family="Helvetica,sans-Serif" font-size="10.00" fill="#000000"> lockMode</text>
</g>
<!-- Node7 -->
<g id="node6" class="node">
<title>Node7</title>
<g id="a_node6"><a xlink:href="classcom_1_1aworx_1_1lib_1_1time_1_1Ticks.html" target="_top" xlink:title="Ticks">
<polygon fill="#ffffff" stroke="#000000" points="174,-698 174,-717 215,-717 215,-698 174,-698"/>
<text text-anchor="middle" x="194.5" y="-705" font-family="Helvetica,sans-Serif" font-size="10.00" fill="#000000">Ticks</text>
</a>
</g>
</g>
<!-- Node7&#45;&gt;Node5 -->
<g id="edge5" class="edge">
<title>Node7&#45;&gt;Node5</title>
<path fill="none" stroke="#9a32cd" stroke-dasharray="5,2" d="M224.8552,-716.1487C268.8282,-728.567 352.8842,-751.891 425,-769.5 442.177,-773.6942 461.377,-777.9544 477.3163,-781.3748"/>
<polygon fill="#9a32cd" stroke="#9a32cd" points="225.6543,-712.7374 215.0791,-713.3809 223.7474,-719.4727 225.6543,-712.7374"/>
<text text-anchor="middle" x="348" y="-767.5" font-family="Helvetica,sans-Serif" font-size="10.00" fill="#000000"> waitTime</text>
</g>
<!-- Node7&#45;&gt;Node7 -->
<g id="edge6" class="edge">
<title>Node7&#45;&gt;Node7</title>
<path fill="none" stroke="#9a32cd" stroke-dasharray="5,2" d="M177.0934,-726.9C178.2559,-731.8146 184.0581,-735.5 194.5,-735.5 211.207,-735.5 216.0364,-726.0653 208.9881,-717.2571"/>
<polygon fill="#9a32cd" stroke="#9a32cd" points="180.465,-727.8422 180.0119,-717.2571 173.7651,-725.8144 180.465,-727.8422"/>
<text text-anchor="middle" x="194.5" y="-749.5" font-family="Helvetica,sans-Serif" font-size="10.00" fill="#000000"> tempTicks</text>
<text text-anchor="middle" x="194.5" y="-738.5" font-family="Helvetica,sans-Serif" font-size="10.00" fill="#000000">creationTimeTicks</text>
</g>
<!-- Node17 -->
<g id="node16" class="node">
<title>Node17</title>
<g id="a_node16"><a xlink:href="classcom_1_1aworx_1_1lox_1_1core_1_1ScopeInfo.html" target="_top" xlink:title="ScopeInfo">
<polygon fill="#ffffff" stroke="#000000" points="481,-691 481,-710 542,-710 542,-691 481,-691"/>
<text text-anchor="middle" x="511.5" y="-698" font-family="Helvetica,sans-Serif" font-size="10.00" fill="#000000">ScopeInfo</text>
</a>
</g>
</g>
<!-- Node7&#45;&gt;Node17 -->
<g id="edge19" class="edge">
<title>Node7&#45;&gt;Node17</title>
<path fill="none" stroke="#9a32cd" stroke-dasharray="5,2" d="M225.4014,-706.8176C286.0671,-705.478 420.0987,-702.5183 480.6903,-701.1803"/>
<polygon fill="#9a32cd" stroke="#9a32cd" points="225.2195,-703.3207 215.2993,-707.0407 225.3741,-710.319 225.2195,-703.3207"/>
<text text-anchor="middle" x="348" y="-707.5" font-family="Helvetica,sans-Serif" font-size="10.00" fill="#000000"> timeStamp</text>
</g>
<!-- Node8 -->
<g id="node7" class="node">
<title>Node8</title>
<polygon fill="#ffffff" stroke="#bfbfbf" points="459.5,-729.5 459.5,-759.5 563.5,-759.5 563.5,-729.5 459.5,-729.5"/>
<text text-anchor="start" x="467.5" y="-747.5" font-family="Helvetica,sans-Serif" font-size="10.00" fill="#000000">ArrayList&lt; ArrayList</text>
<text text-anchor="middle" x="511.5" y="-736.5" font-family="Helvetica,sans-Serif" font-size="10.00" fill="#000000">&lt; Object &gt; &gt;</text>
</g>
<!-- Node8&#45;&gt;Node4 -->
<g id="edge7" class="edge">
<title>Node8&#45;&gt;Node4</title>
<path fill="none" stroke="#9a32cd" stroke-dasharray="5,2" d="M573.7896,-745.3768C624.1888,-744.6567 689.6913,-740.0003 708,-721.5 734.5666,-694.6554 704.8107,-583.7639 726,-552.5 730.6786,-545.597 738.6928,-541.0209 745.9735,-538.0932"/>
<polygon fill="#9a32cd" stroke="#9a32cd" points="573.575,-741.8786 563.6085,-745.4728 573.6411,-748.8782 573.575,-741.8786"/>
<text text-anchor="middle" x="662" y="-746.5" font-family="Helvetica,sans-Serif" font-size="10.00" fill="#000000"> logableLists</text>
</g>
<!-- Node9 -->
<g id="node8" class="node">
<title>Node9</title>
<polygon fill="#ffffff" stroke="#bfbfbf" points="130,-396 130,-415 259,-415 259,-396 130,-396"/>
<text text-anchor="middle" x="194.5" y="-403" font-family="Helvetica,sans-Serif" font-size="10.00" fill="#000000">HashMap&lt; Long, String &gt;</text>
</g>
<!-- Node9&#45;&gt;Node4 -->
<g id="edge8" class="edge">
<title>Node9&#45;&gt;Node4</title>
<path fill="none" stroke="#9a32cd" stroke-dasharray="5,2" d="M223.4385,-391.73C241.7674,-383.785 266.228,-374.5816 289,-370.5 323.8246,-364.2582 569.3434,-368.2191 598,-373.5 649.1594,-382.9278 669.8787,-378.1031 708,-413.5 741.8176,-444.9007 755.8883,-501.4615 760.3196,-523.926"/>
<polygon fill="#9a32cd" stroke="#9a32cd" points="221.9013,-388.5833 214.1957,-395.8548 224.754,-394.9756 221.9013,-388.5833"/>
<text text-anchor="middle" x="511.5" y="-376.5" font-family="Helvetica,sans-Serif" font-size="10.00" fill="#000000"> threadDictionary</text>
</g>
<!-- Node9&#45;&gt;Node17 -->
<g id="edge17" class="edge">
<title>Node9&#45;&gt;Node17</title>
<path fill="none" stroke="#9a32cd" stroke-dasharray="5,2" d="M219.6037,-420.2617C264.8506,-448.2722 359.76,-513.7126 407,-595.5 426.5314,-629.3151 397.5241,-653.7509 425,-681.5 439.3881,-696.0312 462.1735,-700.5919 480.7474,-701.6199"/>
<polygon fill="#9a32cd" stroke="#9a32cd" points="221.3516,-417.2281 210.991,-415.0123 217.7084,-423.2054 221.3516,-417.2281"/>
<text text-anchor="middle" x="348" y="-598.5" font-family="Helvetica,sans-Serif" font-size="10.00" fill="#000000"> threadDictionary</text>
</g>
<!-- Node10 -->
<g id="node9" class="node">
<title>Node10</title>
<g id="a_node9"><a xlink:href="classcom_1_1aworx_1_1lox_1_1core_1_1ScopeStore.html" target="_top" xlink:title="ScopeStore\&lt; Object \&gt;">
<polygon fill="#ffffff" stroke="#000000" points="454.5,-653 454.5,-672 568.5,-672 568.5,-653 454.5,-653"/>
<text text-anchor="middle" x="511.5" y="-660" font-family="Helvetica,sans-Serif" font-size="10.00" fill="#000000">ScopeStore&lt; Object &gt;</text>
</a>
</g>
</g>
<!-- Node10&#45;&gt;Node4 -->
<g id="edge9" class="edge">
<title>Node10&#45;&gt;Node4</title>
<path fill="none" stroke="#9a32cd" stroke-dasharray="5,2" d="M578.8604,-661.1169C621.232,-656.6847 674.1133,-644.0675 708,-610.5 727.1753,-591.5053 708.7561,-573.264 726,-552.5 731.1471,-546.3022 738.849,-541.8565 745.8096,-538.8316"/>
<polygon fill="#9a32cd" stroke="#9a32cd" points="578.5261,-657.6328 568.8876,-662.0316 579.1655,-664.6035 578.5261,-657.6328"/>
<text text-anchor="middle" x="662" y="-657.5" font-family="Helvetica,sans-Serif" font-size="10.00" fill="#000000"> scopePrefixes</text>
</g>
<!-- Node11 -->
<g id="node10" class="node">
<title>Node11</title>
<polygon fill="#ffffff" stroke="#bfbfbf" points="436.5,-603.5 436.5,-633.5 586.5,-633.5 586.5,-603.5 436.5,-603.5"/>
<text text-anchor="start" x="444.5" y="-621.5" font-family="Helvetica,sans-Serif" font-size="10.00" fill="#000000">ArrayList&lt; com.aworx.lox.</text>
<text text-anchor="middle" x="511.5" y="-610.5" font-family="Helvetica,sans-Serif" font-size="10.00" fill="#000000">Lox.DomainSubstitutionRule &gt;</text>
</g>
<!-- Node11&#45;&gt;Node4 -->
<g id="edge10" class="edge">
<title>Node11&#45;&gt;Node4</title>
<path fill="none" stroke="#9a32cd" stroke-dasharray="5,2" d="M596.5375,-601.4235C631.9128,-592.7266 672.8424,-580.543 708,-564.5 716.7471,-560.5085 717.7376,-557.417 726,-552.5 732.316,-548.7413 739.4416,-544.9009 745.6767,-541.6653"/>
<polygon fill="#9a32cd" stroke="#9a32cd" points="595.6215,-598.0439 586.7165,-603.7844 597.2576,-604.8501 595.6215,-598.0439"/>
<text text-anchor="middle" x="662" y="-598.5" font-family="Helvetica,sans-Serif" font-size="10.00" fill="#000000"> domainSubstitutions</text>
</g>
<!-- Node12 -->
<g id="node11" class="node">
<title>Node12</title>
<g id="a_node11"><a xlink:href="classcom_1_1aworx_1_1lox_1_1core_1_1ScopeStore.html" target="_top" xlink:title="ScopeStore\&lt; HashMap\l\&lt; com.aworx.lib.strings.AString,\l int[]\&gt; \&gt;">
<polygon fill="#ffffff" stroke="#000000" points="433,-543 433,-584 590,-584 590,-543 433,-543"/>
<text text-anchor="start" x="441" y="-572" font-family="Helvetica,sans-Serif" font-size="10.00" fill="#000000">ScopeStore&lt; HashMap</text>
<text text-anchor="start" x="441" y="-561" font-family="Helvetica,sans-Serif" font-size="10.00" fill="#000000">&lt; com.aworx.lib.strings.AString,</text>
<text text-anchor="middle" x="511.5" y="-550" font-family="Helvetica,sans-Serif" font-size="10.00" fill="#000000"> int[]&gt; &gt;</text>
</a>
</g>
</g>
<!-- Node12&#45;&gt;Node4 -->
<g id="edge11" class="edge">
<title>Node12&#45;&gt;Node4</title>
<path fill="none" stroke="#9a32cd" stroke-dasharray="5,2" d="M600.2771,-552.868C653.7426,-546.465 716.9221,-538.8985 745.9505,-535.4221"/>
<polygon fill="#9a32cd" stroke="#9a32cd" points="599.5853,-549.4258 590.0725,-554.0901 600.4177,-556.3761 599.5853,-549.4258"/>
<text text-anchor="middle" x="662" y="-552.5" font-family="Helvetica,sans-Serif" font-size="10.00" fill="#000000"> scopeLogOnce</text>
</g>
<!-- Node13 -->
<g id="node12" class="node">
<title>Node13</title>
<g id="a_node12"><a xlink:href="classcom_1_1aworx_1_1lox_1_1core_1_1ScopeStore.html" target="_top" xlink:title="ScopeStore\&lt; HashMap\l\&lt; com.aworx.lib.strings.AString,\l Object \&gt; \&gt;">
<polygon fill="#ffffff" stroke="#000000" points="433,-483 433,-524 590,-524 590,-483 433,-483"/>
<text text-anchor="start" x="441" y="-512" font-family="Helvetica,sans-Serif" font-size="10.00" fill="#000000">ScopeStore&lt; HashMap</text>
<text text-anchor="start" x="441" y="-501" font-family="Helvetica,sans-Serif" font-size="10.00" fill="#000000">&lt; com.aworx.lib.strings.AString,</text>
<text text-anchor="middle" x="511.5" y="-490" font-family="Helvetica,sans-Serif" font-size="10.00" fill="#000000"> Object &gt; &gt;</text>
</a>
</g>
</g>
<!-- Node13&#45;&gt;Node4 -->
<g id="edge12" class="edge">
<title>Node13&#45;&gt;Node4</title>
<path fill="none" stroke="#9a32cd" stroke-dasharray="5,2" d="M600.3428,-511.8786C634.1048,-515.3553 672.881,-519.701 708,-524.5 720.8069,-526.25 735.2467,-528.6807 745.97,-530.5749"/>
<polygon fill="#9a32cd" stroke="#9a32cd" points="600.3389,-508.3601 590.0355,-510.828 599.629,-515.324 600.3389,-508.3601"/>
<text text-anchor="middle" x="662" y="-527.5" font-family="Helvetica,sans-Serif" font-size="10.00" fill="#000000"> scopeLogData</text>
</g>
<!-- Node14 -->
<g id="node13" class="node">
<title>Node14</title>
<g id="a_node13"><a xlink:href="classcom_1_1aworx_1_1lox_1_1core_1_1ScopeStore.html" target="_top" xlink:title="ScopeStore\&lt; com.aworx.lib.strings.\lAString \&gt;">
<polygon fill="#ffffff" stroke="#000000" points="425,-433.5 425,-463.5 598,-463.5 598,-433.5 425,-433.5"/>
<text text-anchor="start" x="433" y="-451.5" font-family="Helvetica,sans-Serif" font-size="10.00" fill="#000000">ScopeStore&lt; com.aworx.lib.strings.</text>
<text text-anchor="middle" x="511.5" y="-440.5" font-family="Helvetica,sans-Serif" font-size="10.00" fill="#000000">AString &gt;</text>
</a>
</g>
</g>
<!-- Node14&#45;&gt;Node4 -->
<g id="edge13" class="edge">
<title>Node14&#45;&gt;Node4</title>
<path fill="none" stroke="#9a32cd" stroke-dasharray="5,2" d="M605.8533,-465.938C638.9379,-473.7531 675.8464,-484.444 708,-498.5 723.3549,-505.2124 739.2552,-516.075 749.7901,-523.9198"/>
<polygon fill="#9a32cd" stroke="#9a32cd" points="606.2483,-462.4374 595.7179,-463.6044 604.6776,-469.259 606.2483,-462.4374"/>
<text text-anchor="middle" x="662" y="-501.5" font-family="Helvetica,sans-Serif" font-size="10.00" fill="#000000"> scopeDomains</text>
</g>
<!-- Node15 -->
<g id="node14" class="node">
<title>Node15</title>
<g id="a_node14"><a xlink:href="classcom_1_1aworx_1_1lib_1_1strings_1_1AString.html" target="_top" xlink:title="AString">
<polygon fill="#ffffff" stroke="#000000" points="170,-208 170,-227 219,-227 219,-208 170,-208"/>
<text text-anchor="middle" x="194.5" y="-215" font-family="Helvetica,sans-Serif" font-size="10.00" fill="#000000">AString</text>
</a>
</g>
</g>
<!-- Node15&#45;&gt;Node4 -->
<g id="edge14" class="edge">
<title>Node15&#45;&gt;Node4</title>
<path fill="none" stroke="#9a32cd" stroke-dasharray="5,2" d="M229.2464,-219.8198C314.6139,-225.9286 532.4445,-244.1127 598,-274.5 657.4051,-302.0363 671.9355,-317.8505 708,-372.5 741.6136,-423.4356 756.1742,-497.2644 760.5167,-523.6609"/>
<polygon fill="#9a32cd" stroke="#9a32cd" points="229.263,-216.3124 219.0421,-219.1023 228.7719,-223.2952 229.263,-216.3124"/>
<text text-anchor="middle" x="511.5" y="-354.5" font-family="Helvetica,sans-Serif" font-size="10.00" fill="#000000"> tmpAS</text>
<text text-anchor="middle" x="511.5" y="-343.5" font-family="Helvetica,sans-Serif" font-size="10.00" fill="#000000">intMsg</text>
<text text-anchor="middle" x="511.5" y="-332.5" font-family="Helvetica,sans-Serif" font-size="10.00" fill="#000000">resDomainInternal</text>
<text text-anchor="middle" x="511.5" y="-321.5" font-family="Helvetica,sans-Serif" font-size="10.00" fill="#000000">resDomain</text>
<text text-anchor="middle" x="511.5" y="-310.5" font-family="Helvetica,sans-Serif" font-size="10.00" fill="#000000">tmpSubstitutionPath</text>
<text text-anchor="middle" x="511.5" y="-299.5" font-family="Helvetica,sans-Serif" font-size="10.00" fill="#000000">tmpComments</text>
<text text-anchor="start" x="467" y="-288.5" font-family="Helvetica,sans-Serif" font-size="10.00" fill="#000000">tmpSubstitutionPath</text>
<text text-anchor="middle" x="511.5" y="-277.5" font-family="Helvetica,sans-Serif" font-size="10.00" fill="#000000">InternalDomains</text>
</g>
<!-- Node15&#45;&gt;Node17 -->
<g id="edge18" class="edge">
<title>Node15&#45;&gt;Node17</title>
<path fill="none" stroke="#9a32cd" stroke-dasharray="5,2" d="M220.7989,-232.2518C267.9171,-260.3217 365.6586,-326.3821 407,-412.5 432.928,-466.5104 385.9161,-636.0926 425,-681.5 438.5409,-697.2317 461.8553,-701.6551 480.8696,-702.3221"/>
<polygon fill="#9a32cd" stroke="#9a32cd" points="222.4803,-229.1805 212.0819,-227.1497 218.9443,-235.2218 222.4803,-229.1805"/>
<text text-anchor="middle" x="348" y="-459.5" font-family="Helvetica,sans-Serif" font-size="10.00" fill="#000000"> className</text>
<text text-anchor="middle" x="348" y="-448.5" font-family="Helvetica,sans-Serif" font-size="10.00" fill="#000000">threadName</text>
<text text-anchor="middle" x="348" y="-437.5" font-family="Helvetica,sans-Serif" font-size="10.00" fill="#000000">methodName</text>
<text text-anchor="middle" x="348" y="-426.5" font-family="Helvetica,sans-Serif" font-size="10.00" fill="#000000">packageName</text>
<text text-anchor="middle" x="348" y="-415.5" font-family="Helvetica,sans-Serif" font-size="10.00" fill="#000000">fileName</text>
</g>
<!-- Node19 -->
<g id="node18" class="node">
<title>Node19</title>
<g id="a_node18"><a xlink:href="classcom_1_1aworx_1_1lox_1_1core_1_1Domain.html" target="_top" xlink:title="Domain">
<polygon fill="#ffffff" stroke="#000000" points="486.5,-113 486.5,-132 536.5,-132 536.5,-113 486.5,-113"/>
<text text-anchor="middle" x="511.5" y="-120" font-family="Helvetica,sans-Serif" font-size="10.00" fill="#000000">Domain</text>
</a>
</g>
</g>
<!-- Node15&#45;&gt;Node19 -->
<g id="edge23" class="edge">
<title>Node15&#45;&gt;Node19</title>
<path fill="none" stroke="#9a32cd" stroke-dasharray="5,2" d="M228.9573,-205.7728C255.3182,-196.8104 287.432,-185.9163 289,-185.5 340.6424,-171.7895 355.6353,-177.2165 407,-162.5 436.3192,-154.0997 468.9805,-140.9584 489.8572,-132.0506"/>
<polygon fill="#9a32cd" stroke="#9a32cd" points="227.5521,-202.5537 219.2116,-209.0872 229.806,-209.181 227.5521,-202.5537"/>
<text text-anchor="middle" x="348" y="-210.5" font-family="Helvetica,sans-Serif" font-size="10.00" fill="#000000"> fullPath</text>
<text text-anchor="middle" x="348" y="-199.5" font-family="Helvetica,sans-Serif" font-size="10.00" fill="#000000">tAString</text>
<text text-anchor="middle" x="348" y="-188.5" font-family="Helvetica,sans-Serif" font-size="10.00" fill="#000000">name</text>
</g>
<!-- Node16 -->
<g id="node15" class="node">
<title>Node16</title>
<polygon fill="#ffffff" stroke="#bfbfbf" points="0,-185 0,-204 81,-204 81,-185 0,-185"/>
<text text-anchor="middle" x="40.5" y="-192" font-family="Helvetica,sans-Serif" font-size="10.00" fill="#000000">CharSequence</text>
</g>
<!-- Node16&#45;&gt;Node15 -->
<g id="edge15" class="edge">
<title>Node16&#45;&gt;Node15</title>
<path fill="none" stroke="#191970" d="M91.5739,-202.1279C117.9026,-206.0601 148.8098,-210.6761 169.8346,-213.8162"/>
<polygon fill="#191970" stroke="#191970" points="91.7722,-198.6188 81.3649,-200.6032 90.7381,-205.542 91.7722,-198.6188"/>
</g>
<!-- Node20 -->
<g id="node19" class="node">
<title>Node20</title>
<g id="a_node19"><a xlink:href="classcom_1_1aworx_1_1lib_1_1strings_1_1Substring.html" target="_top" xlink:title="Substring">
<polygon fill="#ffffff" stroke="#000000" points="165.5,-163 165.5,-182 223.5,-182 223.5,-163 165.5,-163"/>
<text text-anchor="middle" x="194.5" y="-170" font-family="Helvetica,sans-Serif" font-size="10.00" fill="#000000">Substring</text>
</a>
</g>
</g>
<!-- Node16&#45;&gt;Node20 -->
<g id="edge25" class="edge">
<title>Node16&#45;&gt;Node20</title>
<path fill="none" stroke="#191970" d="M91.565,-187.205C116.0081,-183.7131 144.3992,-179.6573 165.1656,-176.6906"/>
<polygon fill="#191970" stroke="#191970" points="90.7694,-183.783 81.3649,-188.6622 91.7594,-190.7127 90.7694,-183.783"/>
</g>
<!-- Node17&#45;&gt;Node4 -->
<g id="edge16" class="edge">
<title>Node17&#45;&gt;Node4</title>
<path fill="none" stroke="#9a32cd" stroke-dasharray="5,2" d="M552.5111,-706.7819C597.1706,-711.0894 667.6082,-710.0465 708,-669.5 745.131,-632.2268 695.4773,-595.3528 726,-552.5 730.7559,-545.8228 738.5934,-541.2957 745.7433,-538.3411"/>
<polygon fill="#9a32cd" stroke="#9a32cd" points="552.6183,-703.2727 542.296,-705.6603 551.8543,-710.2309 552.6183,-703.2727"/>
<text text-anchor="middle" x="662" y="-709.5" font-family="Helvetica,sans-Serif" font-size="10.00" fill="#000000"> scopeInfo</text>
</g>
<!-- Node18 -->
<g id="node17" class="node">
<title>Node18</title>
<polygon fill="#ffffff" stroke="#bfbfbf" points="150.5,-536 150.5,-555 238.5,-555 238.5,-536 150.5,-536"/>
<text text-anchor="middle" x="194.5" y="-543" font-family="Helvetica,sans-Serif" font-size="10.00" fill="#000000">Vector&lt; String &gt;</text>
</g>
<!-- Node18&#45;&gt;Node4 -->
<g id="edge21" class="edge">
<title>Node18&#45;&gt;Node4</title>
<path fill="none" stroke="#9a32cd" stroke-dasharray="5,2" d="M248.9657,-542.8167C297.0029,-537.5223 365.6234,-522.3461 407,-479.5 428.121,-457.6289 400.8372,-431.9554 425,-413.5 486.1041,-366.8289 522.9155,-396.9406 598,-413.5 650.6233,-425.1057 665.7764,-431.0177 708,-464.5 729.6925,-481.7016 747.8343,-509.3195 756.51,-523.8488"/>
<polygon fill="#9a32cd" stroke="#9a32cd" points="248.3489,-539.3606 238.7428,-543.8296 249.0392,-546.3265 248.3489,-539.3606"/>
<text text-anchor="middle" x="511.5" y="-416.5" font-family="Helvetica,sans-Serif" font-size="10.00" fill="#000000"> omittablePackagePrefixes</text>
</g>
<!-- Node18&#45;&gt;Node17 -->
<g id="edge20" class="edge">
<title>Node18&#45;&gt;Node17</title>
<path fill="none" stroke="#9a32cd" stroke-dasharray="5,2" d="M215.7387,-561.1983C255.0157,-589.4843 342.5346,-649.0742 425,-681.5 442.8862,-688.5329 463.9286,-693.2277 480.7806,-696.1909"/>
<polygon fill="#9a32cd" stroke="#9a32cd" points="217.3969,-558.0768 207.2499,-555.0291 213.2816,-563.7394 217.3969,-558.0768"/>
<text text-anchor="middle" x="348" y="-675.5" font-family="Helvetica,sans-Serif" font-size="10.00" fill="#000000"> omittablePackagePrefixes</text>
</g>
<!-- Node19&#45;&gt;Node4 -->
<g id="edge22" class="edge">
<title>Node19&#45;&gt;Node4</title>
<path fill="none" stroke="#9a32cd" stroke-dasharray="5,2" d="M546.6826,-125.2865C591.4801,-130.8308 667.8712,-147.3564 708,-196.5 750.63,-248.7066 760.1377,-474.2657 761.7263,-523.8408"/>
<polygon fill="#9a32cd" stroke="#9a32cd" points="546.8797,-121.7868 536.5527,-124.1537 546.1017,-128.7435 546.8797,-121.7868"/>
<text text-anchor="middle" x="662" y="-210.5" font-family="Helvetica,sans-Serif" font-size="10.00" fill="#000000"> domains</text>
<text text-anchor="middle" x="662" y="-199.5" font-family="Helvetica,sans-Serif" font-size="10.00" fill="#000000">internalDomains</text>
</g>
<!-- Node19&#45;&gt;Node19 -->
<g id="edge29" class="edge">
<title>Node19&#45;&gt;Node19</title>
<path fill="none" stroke="#9a32cd" stroke-dasharray="5,2" d="M483.5009,-141.1539C484.6712,-146.4368 494.0043,-150.5 511.5,-150.5 538.1602,-150.5 545.8666,-141.0653 534.6194,-132.2571"/>
<polygon fill="#9a32cd" stroke="#9a32cd" points="486.6403,-142.708 488.3806,-132.2571 480.5029,-139.3417 486.6403,-142.708"/>
<text text-anchor="middle" x="511.5" y="-153.5" font-family="Helvetica,sans-Serif" font-size="10.00" fill="#000000"> parent</text>
</g>
<!-- Node20&#45;&gt;Node19 -->
<g id="edge24" class="edge">
<title>Node20&#45;&gt;Node19</title>
<path fill="none" stroke="#9a32cd" stroke-dasharray="5,2" d="M226.8074,-159.3567C244.8141,-152.5947 267.8168,-144.8738 289,-140.5 359.4048,-125.9631 444.6032,-123.0423 486.1894,-122.5361"/>
<polygon fill="#9a32cd" stroke="#9a32cd" points="225.4396,-156.1327 217.3609,-162.9873 227.9509,-162.6667 225.4396,-156.1327"/>
<text text-anchor="middle" x="348" y="-154.5" font-family="Helvetica,sans-Serif" font-size="10.00" fill="#000000"> tSubstring2</text>
<text text-anchor="middle" x="348" y="-143.5" font-family="Helvetica,sans-Serif" font-size="10.00" fill="#000000">tSubstring</text>
</g>
<!-- Node21 -->
<g id="node20" class="node">
<title>Node21</title>
<polygon fill="#ffffff" stroke="#bfbfbf" points="118,-98.5 118,-128.5 271,-128.5 271,-98.5 118,-98.5"/>
<text text-anchor="start" x="126" y="-116.5" font-family="Helvetica,sans-Serif" font-size="10.00" fill="#000000">ArrayList&lt; com.aworx.lox.core.</text>
<text text-anchor="middle" x="194.5" y="-105.5" font-family="Helvetica,sans-Serif" font-size="10.00" fill="#000000">Domain.PL &gt;</text>
</g>
<!-- Node21&#45;&gt;Node19 -->
<g id="edge26" class="edge">
<title>Node21&#45;&gt;Node19</title>
<path fill="none" stroke="#9a32cd" stroke-dasharray="5,2" d="M281.24,-106.8242C283.8553,-106.7032 286.4467,-106.5944 289,-106.5 341.4086,-104.5616 354.7068,-102.5199 407,-106.5 434.2683,-108.5754 465.195,-113.6551 486.2842,-117.5388"/>
<polygon fill="#9a32cd" stroke="#9a32cd" points="280.8702,-103.3384 271.063,-107.3469 281.2294,-110.3292 280.8702,-103.3384"/>
<text text-anchor="middle" x="348" y="-109.5" font-family="Helvetica,sans-Serif" font-size="10.00" fill="#000000"> prefixLogables</text>
</g>
<!-- Node22 -->
<g id="node21" class="node">
<title>Node22</title>
<polygon fill="#ffffff" stroke="#bfbfbf" points="118,-49.5 118,-79.5 271,-79.5 271,-49.5 118,-49.5"/>
<text text-anchor="start" x="126" y="-67.5" font-family="Helvetica,sans-Serif" font-size="10.00" fill="#000000">ArrayList&lt; com.aworx.lox.core.</text>
<text text-anchor="middle" x="194.5" y="-56.5" font-family="Helvetica,sans-Serif" font-size="10.00" fill="#000000">Domain.LoggerData &gt;</text>
</g>
<!-- Node22&#45;&gt;Node19 -->
<g id="edge27" class="edge">
<title>Node22&#45;&gt;Node19</title>
<path fill="none" stroke="#9a32cd" stroke-dasharray="5,2" d="M281.4901,-70.995C320.1954,-74.8422 366.1587,-80.7312 407,-89.5 434.5303,-95.4109 465.1556,-105.5168 486.0958,-112.9917"/>
<polygon fill="#9a32cd" stroke="#9a32cd" points="281.5864,-67.4881 271.2966,-70.012 280.9144,-74.4558 281.5864,-67.4881"/>
<text text-anchor="middle" x="348" y="-92.5" font-family="Helvetica,sans-Serif" font-size="10.00" fill="#000000"> data</text>
</g>
<!-- Node23 -->
<g id="node22" class="node">
<title>Node23</title>
<polygon fill="#ffffff" stroke="#bfbfbf" points="118,-.5 118,-30.5 271,-30.5 271,-.5 118,-.5"/>
<text text-anchor="start" x="126" y="-18.5" font-family="Helvetica,sans-Serif" font-size="10.00" fill="#000000">ArrayList&lt; com.aworx.lox.core.</text>
<text text-anchor="middle" x="194.5" y="-7.5" font-family="Helvetica,sans-Serif" font-size="10.00" fill="#000000">Domain &gt;</text>
</g>
<!-- Node23&#45;&gt;Node19 -->
<g id="edge28" class="edge">
<title>Node23&#45;&gt;Node19</title>
<path fill="none" stroke="#9a32cd" stroke-dasharray="5,2" d="M281.2294,-25.397C320.5621,-31.7041 367.0961,-41.7564 407,-57.5 443.172,-71.7712 480.7296,-98.6036 499.4201,-112.9237"/>
<polygon fill="#9a32cd" stroke="#9a32cd" points="281.5484,-21.9047 271.1307,-23.8337 280.4775,-28.8224 281.5484,-21.9047"/>
<text text-anchor="middle" x="348" y="-60.5" font-family="Helvetica,sans-Serif" font-size="10.00" fill="#000000"> subDomains</text>
</g>
</g>
</svg>
