<?xml version="1.0" encoding="UTF-8" standalone="no"?>
<!DOCTYPE svg PUBLIC "-//W3C//DTD SVG 1.1//EN"
 "http://www.w3.org/Graphics/SVG/1.1/DTD/svg11.dtd">
<!-- Generated by graphviz version 2.40.1 (20161225.0304)
 -->
<!-- Title: InMemoryPlugin.Entry Pages: 1 -->
<svg width="251pt" height="174pt"
 viewBox="0.00 0.00 251.00 174.00" xmlns="http://www.w3.org/2000/svg" xmlns:xlink="http://www.w3.org/1999/xlink">
<g id="graph0" class="graph" transform="scale(1 1) rotate(0) translate(4 170)">
<title>InMemoryPlugin.Entry</title>
<polygon fill="#ffffff" stroke="transparent" points="-4,4 -4,-170 247,-170 247,4 -4,4"/>
<!-- Node2 -->
<g id="node1" class="node">
<title>Node2</title>
<g id="a_node1"><a xlink:title=" ">
<polygon fill="#bfbfbf" stroke="#000000" points="50.5,-.5 50.5,-19.5 163.5,-19.5 163.5,-.5 50.5,-.5"/>
<text text-anchor="middle" x="107" y="-7.5" font-family="Helvetica,sans-Serif" font-size="10.00" fill="#000000">InMemoryPlugin.Entry</text>
</a>
</g>
</g>
<!-- Node3 -->
<g id="node2" class="node">
<title>Node3</title>
<g id="a_node2"><a xlink:title=" ">
<polygon fill="#ffffff" stroke="#bfbfbf" points="0,-78.5 0,-108.5 160,-108.5 160,-78.5 0,-78.5"/>
<text text-anchor="start" x="8" y="-96.5" font-family="Helvetica,sans-Serif" font-size="10.00" fill="#000000">ArrayList&lt; com.aworx.lib.strings.</text>
<text text-anchor="middle" x="80" y="-85.5" font-family="Helvetica,sans-Serif" font-size="10.00" fill="#000000">AString &gt;</text>
</a>
</g>
</g>
<!-- Node3&#45;&gt;Node2 -->
<g id="edge1" class="edge">
<title>Node3&#45;&gt;Node2</title>
<path fill="none" stroke="#9a32cd" stroke-dasharray="5,2" d="M88.0611,-68.5704C93.3973,-52.0675 100.095,-31.3544 103.9274,-19.5023"/>
<polygon fill="#9a32cd" stroke="#9a32cd" points="84.6987,-67.593 84.9522,-78.1848 91.3592,-69.7467 84.6987,-67.593"/>
<text text-anchor="middle" x="114" y="-46.5" font-family="Helvetica,sans-Serif" font-size="10.00" fill="#000000"> values</text>
</g>
<!-- Node4 -->
<g id="node3" class="node">
<title>Node4</title>
<g id="a_node3"><a xlink:href="classcom_1_1aworx_1_1lib_1_1strings_1_1AString.html" target="_top" xlink:title=" ">
<polygon fill="#ffffff" stroke="#000000" points="178.5,-84 178.5,-103 227.5,-103 227.5,-84 178.5,-84"/>
<text text-anchor="middle" x="203" y="-91" font-family="Helvetica,sans-Serif" font-size="10.00" fill="#000000">AString</text>
</a>
</g>
</g>
<!-- Node4&#45;&gt;Node2 -->
<g id="edge2" class="edge">
<title>Node4&#45;&gt;Node2</title>
<path fill="none" stroke="#9a32cd" stroke-dasharray="5,2" d="M184.2878,-77.2242C164.6399,-60.1347 134.3939,-33.827 118.1797,-19.724"/>
<polygon fill="#9a32cd" stroke="#9a32cd" points="182.1454,-79.9995 191.9876,-83.9215 186.7393,-74.7179 182.1454,-79.9995"/>
<text text-anchor="middle" x="186" y="-52" font-family="Helvetica,sans-Serif" font-size="10.00" fill="#000000"> name</text>
<text text-anchor="middle" x="186" y="-41" font-family="Helvetica,sans-Serif" font-size="10.00" fill="#000000">comments</text>
</g>
<!-- Node5 -->
<g id="node4" class="node">
<title>Node5</title>
<g id="a_node4"><a xlink:title=" ">
<polygon fill="#ffffff" stroke="#bfbfbf" points="163,-146.5 163,-165.5 243,-165.5 243,-146.5 163,-146.5"/>
<text text-anchor="middle" x="203" y="-153.5" font-family="Helvetica,sans-Serif" font-size="10.00" fill="#000000">CharSequence</text>
</a>
</g>
</g>
<!-- Node5&#45;&gt;Node4 -->
<g id="edge3" class="edge">
<title>Node5&#45;&gt;Node4</title>
<path fill="none" stroke="#191970" d="M203,-135.925C203,-125.0568 203,-112.1118 203,-103.4033"/>
<polygon fill="#191970" stroke="#191970" points="199.5001,-136.2343 203,-146.2344 206.5001,-136.2344 199.5001,-136.2343"/>
</g>
</g>
</svg>
