<?xml version="1.0" encoding="UTF-8" standalone="no"?>
<!DOCTYPE svg PUBLIC "-//W3C//DTD SVG 1.1//EN"
 "http://www.w3.org/Graphics/SVG/1.1/DTD/svg11.dtd">
<!-- Generated by graphviz version 2.38.0 (20140413.2041)
 -->
<!-- Title: Domain Pages: 1 -->
<svg width="432pt" height="232pt"
 viewBox="0.00 0.00 432.00 231.50" xmlns="http://www.w3.org/2000/svg" xmlns:xlink="http://www.w3.org/1999/xlink">
<g id="graph0" class="graph" transform="scale(1 1) rotate(0) translate(4 227.5)">
<title>Domain</title>
<polygon fill="white" stroke="none" points="-4,4 -4,-227.5 428,-227.5 428,4 -4,4"/>
<!-- Node1 -->
<g id="node1" class="node"><title>Node1</title>
<polygon fill="#bfbfbf" stroke="black" points="374,-104 374,-123 424,-123 424,-104 374,-104"/>
<text text-anchor="middle" x="399" y="-111" font-family="Helvetica,sans-Serif" font-size="10.00">Domain</text>
</g>
<!-- Node1&#45;&gt;Node1 -->
<g id="edge8" class="edge"><title>Node1&#45;&gt;Node1</title>
<path fill="none" stroke="#9a32cd" stroke-dasharray="5,2" d="M385.004,-133.266C386.103,-137.997 390.769,-141.5 399,-141.5 412.508,-141.5 416.412,-132.065 410.714,-123.257"/>
<polygon fill="#9a32cd" stroke="#9a32cd" points="388.476,-133.785 387.286,-123.257 381.651,-132.229 388.476,-133.785"/>
<text text-anchor="middle" x="399" y="-144.5" font-family="Helvetica,sans-Serif" font-size="10.00"> parent</text>
</g>
<!-- Node2 -->
<g id="node2" class="node"><title>Node2</title>
<g id="a_node2"><a xlink:href="classcom_1_1aworx_1_1lib_1_1strings_1_1AString.html" target="_top" xlink:title="AString">
<polygon fill="white" stroke="black" points="170,-186 170,-205 219,-205 219,-186 170,-186"/>
<text text-anchor="middle" x="194.5" y="-193" font-family="Helvetica,sans-Serif" font-size="10.00">AString</text>
</a>
</g>
</g>
<!-- Node2&#45;&gt;Node1 -->
<g id="edge1" class="edge"><title>Node2&#45;&gt;Node1</title>
<path fill="none" stroke="#9a32cd" stroke-dasharray="5,2" d="M229.523,-196.483C263.804,-195.964 317.062,-190.906 356,-167.5 373.712,-156.853 386.75,-135.733 393.285,-123.295"/>
<polygon fill="#9a32cd" stroke="#9a32cd" points="229.093,-192.984 219.102,-196.51 229.111,-199.984 229.093,-192.984"/>
<text text-anchor="middle" x="322.5" y="-215.5" font-family="Helvetica,sans-Serif" font-size="10.00"> fullPath</text>
<text text-anchor="middle" x="322.5" y="-204.5" font-family="Helvetica,sans-Serif" font-size="10.00">tAString</text>
<text text-anchor="middle" x="322.5" y="-193.5" font-family="Helvetica,sans-Serif" font-size="10.00">name</text>
</g>
<!-- Node3 -->
<g id="node3" class="node"><title>Node3</title>
<polygon fill="white" stroke="#bfbfbf" points="0,-168 0,-187 81,-187 81,-168 0,-168"/>
<text text-anchor="middle" x="40.5" y="-175" font-family="Helvetica,sans-Serif" font-size="10.00">CharSequence</text>
</g>
<!-- Node3&#45;&gt;Node2 -->
<g id="edge2" class="edge"><title>Node3&#45;&gt;Node2</title>
<path fill="none" stroke="midnightblue" d="M91.2602,-183.393C117.653,-186.518 148.859,-190.214 169.792,-192.692"/>
<polygon fill="midnightblue" stroke="midnightblue" points="91.3817,-179.883 81.0394,-182.182 90.5584,-186.834 91.3817,-179.883"/>
</g>
<!-- Node4 -->
<g id="node4" class="node"><title>Node4</title>
<g id="a_node4"><a xlink:href="classcom_1_1aworx_1_1lib_1_1strings_1_1Substring.html" target="_top" xlink:title="Substring">
<polygon fill="white" stroke="black" points="165.5,-148 165.5,-167 223.5,-167 223.5,-148 165.5,-148"/>
<text text-anchor="middle" x="194.5" y="-155" font-family="Helvetica,sans-Serif" font-size="10.00">Substring</text>
</a>
</g>
</g>
<!-- Node3&#45;&gt;Node4 -->
<g id="edge4" class="edge"><title>Node3&#45;&gt;Node4</title>
<path fill="none" stroke="midnightblue" d="M91.2602,-170.953C115.785,-167.726 144.465,-163.952 165.197,-161.224"/>
<polygon fill="midnightblue" stroke="midnightblue" points="90.4973,-167.523 81.0394,-172.297 91.4106,-174.463 90.4973,-167.523"/>
</g>
<!-- Node4&#45;&gt;Node1 -->
<g id="edge3" class="edge"><title>Node4&#45;&gt;Node1</title>
<path fill="none" stroke="#9a32cd" stroke-dasharray="5,2" d="M233.575,-151.355C266.258,-145.792 314.517,-136.893 356,-126.5 361.775,-125.053 367.93,-123.281 373.697,-121.516"/>
<polygon fill="#9a32cd" stroke="#9a32cd" points="232.82,-147.932 223.539,-153.041 233.98,-154.835 232.82,-147.932"/>
<text text-anchor="middle" x="322.5" y="-155.5" font-family="Helvetica,sans-Serif" font-size="10.00"> tSubstring2</text>
<text text-anchor="middle" x="322.5" y="-144.5" font-family="Helvetica,sans-Serif" font-size="10.00">tSubstring</text>
</g>
<!-- Node5 -->
<g id="node5" class="node"><title>Node5</title>
<polygon fill="white" stroke="#bfbfbf" points="118,-98.5 118,-128.5 271,-128.5 271,-98.5 118,-98.5"/>
<text text-anchor="start" x="126" y="-116.5" font-family="Helvetica,sans-Serif" font-size="10.00">ArrayList&lt; com.aworx.lox.core.</text>
<text text-anchor="middle" x="194.5" y="-105.5" font-family="Helvetica,sans-Serif" font-size="10.00">Domain.PL &gt;</text>
</g>
<!-- Node5&#45;&gt;Node1 -->
<g id="edge5" class="edge"><title>Node5&#45;&gt;Node1</title>
<path fill="none" stroke="#9a32cd" stroke-dasharray="5,2" d="M281.536,-113.5C315.159,-113.5 351.072,-113.5 373.986,-113.5"/>
<polygon fill="#9a32cd" stroke="#9a32cd" points="281.192,-110 271.191,-113.5 281.191,-117 281.192,-110"/>
<text text-anchor="middle" x="322.5" y="-116.5" font-family="Helvetica,sans-Serif" font-size="10.00"> prefixLogables</text>
</g>
<!-- Node6 -->
<g id="node6" class="node"><title>Node6</title>
<polygon fill="white" stroke="#bfbfbf" points="118,-49.5 118,-79.5 271,-79.5 271,-49.5 118,-49.5"/>
<text text-anchor="start" x="126" y="-67.5" font-family="Helvetica,sans-Serif" font-size="10.00">ArrayList&lt; com.aworx.lox.core.</text>
<text text-anchor="middle" x="194.5" y="-56.5" font-family="Helvetica,sans-Serif" font-size="10.00">Domain.LoggerData &gt;</text>
</g>
<!-- Node6&#45;&gt;Node1 -->
<g id="edge6" class="edge"><title>Node6&#45;&gt;Node1</title>
<path fill="none" stroke="#9a32cd" stroke-dasharray="5,2" d="M281.075,-80.4071C305.447,-85.5363 331.913,-91.6807 356,-98.5 361.811,-100.145 367.98,-102.18 373.749,-104.215"/>
<polygon fill="#9a32cd" stroke="#9a32cd" points="281.634,-76.9487 271.132,-78.3458 280.213,-83.803 281.634,-76.9487"/>
<text text-anchor="middle" x="322.5" y="-101.5" font-family="Helvetica,sans-Serif" font-size="10.00"> data</text>
</g>
<!-- Node7 -->
<g id="node7" class="node"><title>Node7</title>
<polygon fill="white" stroke="#bfbfbf" points="118,-0.5 118,-30.5 271,-30.5 271,-0.5 118,-0.5"/>
<text text-anchor="start" x="126" y="-18.5" font-family="Helvetica,sans-Serif" font-size="10.00">ArrayList&lt; com.aworx.lox.core.</text>
<text text-anchor="middle" x="194.5" y="-7.5" font-family="Helvetica,sans-Serif" font-size="10.00">Domain &gt;</text>
</g>
<!-- Node7&#45;&gt;Node1 -->
<g id="edge7" class="edge"><title>Node7&#45;&gt;Node1</title>
<path fill="none" stroke="#9a32cd" stroke-dasharray="5,2" d="M278.48,-33.4195C304.588,-41.3472 332.671,-52.3977 356,-67.5 370.888,-77.1379 383.938,-93.3056 391.394,-103.681"/>
<polygon fill="#9a32cd" stroke="#9a32cd" points="279.164,-29.9733 268.584,-30.5321 277.204,-36.6931 279.164,-29.9733"/>
<text text-anchor="middle" x="322.5" y="-70.5" font-family="Helvetica,sans-Serif" font-size="10.00"> subDomains</text>
</g>
</g>
</svg>
