<?xml version="1.0" encoding="UTF-8" standalone="no"?>
<!DOCTYPE svg PUBLIC "-//W3C//DTD SVG 1.1//EN"
 "http://www.w3.org/Graphics/SVG/1.1/DTD/svg11.dtd">
<!-- Generated by graphviz version 2.38.0 (20140413.2041)
 -->
<!-- Title: SmartLock Pages: 1 -->
<svg width="289pt" height="175pt"
 viewBox="0.00 0.00 289.00 175.00" xmlns="http://www.w3.org/2000/svg" xmlns:xlink="http://www.w3.org/1999/xlink">
<g id="graph0" class="graph" transform="scale(1 1) rotate(0) translate(4 171)">
<title>SmartLock</title>
<polygon fill="white" stroke="none" points="-4,4 -4,-171 285,-171 285,4 -4,4"/>
<!-- Node1 -->
<g id="node1" class="node"><title>Node1</title>
<polygon fill="#bfbfbf" stroke="black" points="133,-0.5 133,-19.5 197,-19.5 197,-0.5 133,-0.5"/>
<text text-anchor="middle" x="165" y="-7.5" font-family="Helvetica,sans-Serif" font-size="10.00">SmartLock</text>
</g>
<!-- Node2 -->
<g id="node2" class="node"><title>Node2</title>
<g id="a_node2"><a xlink:href="classcom_1_1aworx_1_1lib_1_1threads_1_1ThreadLock.html" target="_top" xlink:title="ThreadLock">
<polygon fill="white" stroke="black" points="31,-73 31,-92 99,-92 99,-73 31,-73"/>
<text text-anchor="middle" x="65" y="-80" font-family="Helvetica,sans-Serif" font-size="10.00">ThreadLock</text>
</a>
</g>
</g>
<!-- Node2&#45;&gt;Node1 -->
<g id="edge1" class="edge"><title>Node2&#45;&gt;Node1</title>
<path fill="none" stroke="midnightblue" d="M85.4924,-67.0528C105.682,-52.8194 135.865,-31.5399 152.638,-19.7154"/>
<polygon fill="midnightblue" stroke="midnightblue" points="83.4183,-64.2327 77.262,-72.8553 87.4518,-69.9538 83.4183,-64.2327"/>
</g>
<!-- Node3 -->
<g id="node3" class="node"><title>Node3</title>
<g id="a_node3"><a xlink:href="enumcom_1_1aworx_1_1lib_1_1enums_1_1LockMode.html" target="_top" xlink:title="LockMode">
<polygon fill="white" stroke="black" points="0,-146.5 0,-165.5 62,-165.5 62,-146.5 0,-146.5"/>
<text text-anchor="middle" x="31" y="-153.5" font-family="Helvetica,sans-Serif" font-size="10.00">LockMode</text>
</a>
</g>
</g>
<!-- Node3&#45;&gt;Node2 -->
<g id="edge2" class="edge"><title>Node3&#45;&gt;Node2</title>
<path fill="none" stroke="#9a32cd" stroke-dasharray="5,2" d="M28.6583,-136.113C28.563,-129.515 29.306,-122.21 32,-116 36.2245,-106.263 44.8661,-97.9262 52.2466,-92.1348"/>
<polygon fill="#9a32cd" stroke="#9a32cd" points="25.1789,-136.522 29.4136,-146.234 32.1595,-136.001 25.1789,-136.522"/>
<text text-anchor="middle" x="55" y="-119" font-family="Helvetica,sans-Serif" font-size="10.00"> lockMode</text>
</g>
<!-- Node4 -->
<g id="node4" class="node"><title>Node4</title>
<g id="a_node4"><a xlink:href="classcom_1_1aworx_1_1lib_1_1time_1_1Ticks.html" target="_top" xlink:title="Ticks">
<polygon fill="white" stroke="black" points="80.5,-146.5 80.5,-165.5 121.5,-165.5 121.5,-146.5 80.5,-146.5"/>
<text text-anchor="middle" x="101" y="-153.5" font-family="Helvetica,sans-Serif" font-size="10.00">Ticks</text>
</a>
</g>
</g>
<!-- Node4&#45;&gt;Node2 -->
<g id="edge3" class="edge"><title>Node4&#45;&gt;Node2</title>
<path fill="none" stroke="#9a32cd" stroke-dasharray="5,2" d="M91.9015,-136.929C84.7259,-122.678 75.0281,-103.417 69.4504,-92.339"/>
<polygon fill="#9a32cd" stroke="#9a32cd" points="88.9624,-138.875 96.5857,-146.233 95.2147,-135.727 88.9624,-138.875"/>
<text text-anchor="middle" x="108.5" y="-119" font-family="Helvetica,sans-Serif" font-size="10.00"> waitTime</text>
</g>
<!-- Node4&#45;&gt;Node4 -->
<g id="edge4" class="edge"><title>Node4&#45;&gt;Node4</title>
<path fill="none" stroke="#9a32cd" stroke-dasharray="5,2" d="M131.816,-161.782C136.4,-160.881 139.5,-158.954 139.5,-156 139.5,-151.152 131.152,-149.069 121.597,-149.751"/>
<polygon fill="#9a32cd" stroke="#9a32cd" points="131.427,-158.296 121.597,-162.249 131.746,-165.289 131.427,-158.296"/>
<text text-anchor="middle" x="180" y="-159" font-family="Helvetica,sans-Serif" font-size="10.00"> tempTicks</text>
<text text-anchor="middle" x="180" y="-148" font-family="Helvetica,sans-Serif" font-size="10.00">creationTimeTicks</text>
</g>
<!-- Node5 -->
<g id="node5" class="node"><title>Node5</title>
<polygon fill="white" stroke="#bfbfbf" points="117,-67.5 117,-97.5 281,-97.5 281,-67.5 117,-67.5"/>
<text text-anchor="start" x="125" y="-85.5" font-family="Helvetica,sans-Serif" font-size="10.00">ArrayList&lt; com.aworx.lib.threads.</text>
<text text-anchor="middle" x="199" y="-74.5" font-family="Helvetica,sans-Serif" font-size="10.00">ThreadLock &gt;</text>
</g>
<!-- Node5&#45;&gt;Node1 -->
<g id="edge5" class="edge"><title>Node5&#45;&gt;Node1</title>
<path fill="none" stroke="#9a32cd" stroke-dasharray="5,2" d="M187.6,-57.8614C181.309,-44.8166 173.866,-29.3835 169.289,-19.8932"/>
<polygon fill="#9a32cd" stroke="#9a32cd" points="184.623,-59.7464 192.12,-67.2333 190.928,-56.7056 184.623,-59.7464"/>
<text text-anchor="middle" x="205.5" y="-41" font-family="Helvetica,sans-Serif" font-size="10.00"> acquirers</text>
</g>
</g>
</svg>
