<?xml version="1.0" encoding="UTF-8" standalone="no"?>
<!DOCTYPE svg PUBLIC "-//W3C//DTD SVG 1.1//EN"
 "http://www.w3.org/Graphics/SVG/1.1/DTD/svg11.dtd">
<!-- Generated by graphviz version 2.40.1 (20161225.0304)
 -->
<!-- Title: PathMap&lt; StoreT &gt; Pages: 1 -->
<svg width="477pt" height="127pt"
 viewBox="0.00 0.00 477.00 126.50" xmlns="http://www.w3.org/2000/svg" xmlns:xlink="http://www.w3.org/1999/xlink">
<g id="graph0" class="graph" transform="scale(1 1) rotate(0) translate(4 122.5)">
<title>PathMap&lt; StoreT &gt;</title>
<polygon fill="#ffffff" stroke="transparent" points="-4,4 -4,-122.5 473,-122.5 473,4 -4,4"/>
<!-- Node2 -->
<g id="node1" class="node">
<title>Node2</title>
<polygon fill="#bfbfbf" stroke="#000000" points="366,-44.5 366,-63.5 469,-63.5 469,-44.5 366,-44.5"/>
<text text-anchor="middle" x="417.5" y="-51.5" font-family="Helvetica,sans-Serif" font-size="10.00" fill="#000000">PathMap&lt; StoreT &gt;</text>
</g>
<!-- Node3 -->
<g id="node2" class="node">
<title>Node3</title>
<polygon fill="#ffffff" stroke="#bfbfbf" points="153.5,-88 153.5,-118 256.5,-118 256.5,-88 153.5,-88"/>
<text text-anchor="start" x="161.5" y="-106" font-family="Helvetica,sans-Serif" font-size="10.00" fill="#000000">Iterable&lt; PathMap&lt;</text>
<text text-anchor="middle" x="205" y="-95" font-family="Helvetica,sans-Serif" font-size="10.00" fill="#000000"> StoreT &gt; &gt;</text>
</g>
<!-- Node3&#45;&gt;Node2 -->
<g id="edge1" class="edge">
<title>Node3&#45;&gt;Node2</title>
<path fill="none" stroke="#191970" d="M266.882,-88.7307C302.0717,-80.6164 345.1762,-70.677 376.2429,-63.5134"/>
<polygon fill="#191970" stroke="#191970" points="265.6695,-85.4184 256.7116,-91.0759 267.2424,-92.2394 265.6695,-85.4184"/>
</g>
<!-- Node4 -->
<g id="node3" class="node">
<title>Node4</title>
<polygon fill="#ffffff" stroke="#bfbfbf" points="117,-39 117,-69 293,-69 293,-39 117,-39"/>
<text text-anchor="start" x="125" y="-57" font-family="Helvetica,sans-Serif" font-size="10.00" fill="#000000">ArrayList&lt; com.aworx.lib.containers.</text>
<text text-anchor="middle" x="205" y="-46" font-family="Helvetica,sans-Serif" font-size="10.00" fill="#000000">PathMap&lt; StoreT &gt; &gt;</text>
</g>
<!-- Node4&#45;&gt;Node2 -->
<g id="edge2" class="edge">
<title>Node4&#45;&gt;Node2</title>
<path fill="none" stroke="#9a32cd" stroke-dasharray="5,2" d="M303.4831,-54C325.0711,-54 347.089,-54 365.9463,-54"/>
<polygon fill="#9a32cd" stroke="#9a32cd" points="303.2731,-50.5001 293.273,-54 303.273,-57.5001 303.2731,-50.5001"/>
<text text-anchor="middle" x="329.5" y="-57" font-family="Helvetica,sans-Serif" font-size="10.00" fill="#000000"> children</text>
</g>
<!-- Node5 -->
<g id="node4" class="node">
<title>Node5</title>
<g id="a_node4"><a xlink:href="classcom_1_1aworx_1_1lib_1_1strings_1_1AString.html" target="_top" xlink:title="AString">
<polygon fill="#ffffff" stroke="#000000" points="180.5,-.5 180.5,-19.5 229.5,-19.5 229.5,-.5 180.5,-.5"/>
<text text-anchor="middle" x="205" y="-7.5" font-family="Helvetica,sans-Serif" font-size="10.00" fill="#000000">AString</text>
</a>
</g>
</g>
<!-- Node5&#45;&gt;Node2 -->
<g id="edge3" class="edge">
<title>Node5&#45;&gt;Node2</title>
<path fill="none" stroke="#9a32cd" stroke-dasharray="5,2" d="M239.5954,-16.8901C268.5723,-22.6915 311.0117,-31.2582 348,-39 356.3366,-40.7449 365.2282,-42.6389 373.77,-44.4748"/>
<polygon fill="#9a32cd" stroke="#9a32cd" points="240.056,-13.413 229.5638,-14.8846 238.6836,-20.2772 240.056,-13.413"/>
<text text-anchor="middle" x="329.5" y="-42" font-family="Helvetica,sans-Serif" font-size="10.00" fill="#000000"> path</text>
</g>
<!-- Node6 -->
<g id="node5" class="node">
<title>Node6</title>
<polygon fill="#ffffff" stroke="#bfbfbf" points="0,-.5 0,-19.5 80,-19.5 80,-.5 0,-.5"/>
<text text-anchor="middle" x="40" y="-7.5" font-family="Helvetica,sans-Serif" font-size="10.00" fill="#000000">CharSequence</text>
</g>
<!-- Node6&#45;&gt;Node5 -->
<g id="edge4" class="edge">
<title>Node6&#45;&gt;Node5</title>
<path fill="none" stroke="#191970" d="M90.6022,-10C120.4125,-10 156.7905,-10 180.4037,-10"/>
<polygon fill="#191970" stroke="#191970" points="90.3636,-6.5001 80.3635,-10 90.3635,-13.5001 90.3636,-6.5001"/>
</g>
</g>
</svg>
