<?xml version="1.0" encoding="UTF-8" standalone="no"?>
<!DOCTYPE svg PUBLIC "-//W3C//DTD SVG 1.1//EN"
 "http://www.w3.org/Graphics/SVG/1.1/DTD/svg11.dtd">
<!-- Generated by graphviz version 2.38.0 (20140413.2041)
 -->
<!-- Title: ObjectConverter Pages: 1 -->
<svg width="96pt" height="152pt"
 viewBox="0.00 0.00 96.00 152.00" xmlns="http://www.w3.org/2000/svg" xmlns:xlink="http://www.w3.org/1999/xlink">
<g id="graph0" class="graph" transform="scale(1 1) rotate(0) translate(4 148)">
<title>ObjectConverter</title>
<polygon fill="white" stroke="none" points="-4,4 -4,-148 92,-148 92,4 -4,4"/>
<!-- Node1 -->
<g id="node1" class="node"><title>Node1</title>
<polygon fill="#bfbfbf" stroke="black" points="-7.10543e-15,-0.5 -7.10543e-15,-19.5 88,-19.5 88,-0.5 -7.10543e-15,-0.5"/>
<text text-anchor="middle" x="44" y="-7.5" font-family="Helvetica,sans-Serif" font-size="10.00">ObjectConverter</text>
</g>
<!-- Node2 -->
<g id="node2" class="node"><title>Node2</title>
<g id="a_node2"><a xlink:href="classcom_1_1aworx_1_1lib_1_1strings_1_1AString.html" target="_top" xlink:title="AString">
<polygon fill="white" stroke="black" points="19.5,-67.5 19.5,-86.5 68.5,-86.5 68.5,-67.5 19.5,-67.5"/>
<text text-anchor="middle" x="44" y="-74.5" font-family="Helvetica,sans-Serif" font-size="10.00">AString</text>
</a>
</g>
</g>
<!-- Node2&#45;&gt;Node1 -->
<g id="edge1" class="edge"><title>Node2&#45;&gt;Node1</title>
<path fill="none" stroke="#9a32cd" stroke-dasharray="5,2" d="M44,-57.037C44,-44.6703 44,-29.1198 44,-19.6273"/>
<polygon fill="#9a32cd" stroke="#9a32cd" points="40.5001,-57.2338 44,-67.2338 47.5001,-57.2338 40.5001,-57.2338"/>
<text text-anchor="middle" x="58" y="-41" font-family="Helvetica,sans-Serif" font-size="10.00"> buffer</text>
</g>
<!-- Node3 -->
<g id="node3" class="node"><title>Node3</title>
<polygon fill="white" stroke="#bfbfbf" points="3.5,-124.5 3.5,-143.5 84.5,-143.5 84.5,-124.5 3.5,-124.5"/>
<text text-anchor="middle" x="44" y="-131.5" font-family="Helvetica,sans-Serif" font-size="10.00">CharSequence</text>
</g>
<!-- Node3&#45;&gt;Node2 -->
<g id="edge2" class="edge"><title>Node3&#45;&gt;Node2</title>
<path fill="none" stroke="midnightblue" d="M44,-114.117C44,-104.817 44,-94.0557 44,-86.7149"/>
<polygon fill="midnightblue" stroke="midnightblue" points="40.5001,-114.406 44,-124.406 47.5001,-114.406 40.5001,-114.406"/>
</g>
</g>
</svg>
