<?xml version="1.0" encoding="UTF-8" standalone="no"?>
<!DOCTYPE svg PUBLIC "-//W3C//DTD SVG 1.1//EN"
 "http://www.w3.org/Graphics/SVG/1.1/DTD/svg11.dtd">
<!-- Generated by graphviz version 2.40.1 (20161225.0304)
 -->
<!-- Title: ThreadLock Pages: 1 -->
<svg width="406pt" height="308pt"
 viewBox="0.00 0.00 406.00 308.00" xmlns="http://www.w3.org/2000/svg" xmlns:xlink="http://www.w3.org/1999/xlink">
<g id="graph0" class="graph" transform="scale(1 1) rotate(0) translate(4 304)">
<title>ThreadLock</title>
<polygon fill="#ffffff" stroke="transparent" points="-4,4 -4,-304 402,-304 402,4 -4,4"/>
<!-- Node0 -->
<g id="node1" class="node">
<title>Node0</title>
<polygon fill="#bfbfbf" stroke="#000000" points="188.5,-280.5 188.5,-299.5 256.5,-299.5 256.5,-280.5 188.5,-280.5"/>
<text text-anchor="middle" x="222.5" y="-287.5" font-family="Helvetica,sans-Serif" font-size="10.00" fill="#000000">ThreadLock</text>
</g>
<!-- Node1 -->
<g id="node2" class="node">
<title>Node1</title>
<g id="a_node2"><a xlink:href="classcom_1_1aworx_1_1lib_1_1threads_1_1SmartLock.html" target="_top" xlink:title="SmartLock">
<polygon fill="#ffffff" stroke="#000000" points="157.5,-224.5 157.5,-243.5 221.5,-243.5 221.5,-224.5 157.5,-224.5"/>
<text text-anchor="middle" x="189.5" y="-231.5" font-family="Helvetica,sans-Serif" font-size="10.00" fill="#000000">SmartLock</text>
</a>
</g>
</g>
<!-- Node0&#45;&gt;Node1 -->
<g id="edge1" class="edge">
<title>Node0&#45;&gt;Node1</title>
<path fill="none" stroke="#191970" d="M211.6746,-271.6296C206.1701,-262.2887 199.7063,-251.3197 195.1823,-243.6427"/>
<polygon fill="#191970" stroke="#191970" points="208.6595,-273.4071 216.7518,-280.2455 214.6903,-269.8532 208.6595,-273.4071"/>
</g>
<!-- Node11 -->
<g id="node12" class="node">
<title>Node11</title>
<g id="a_node12"><a xlink:href="classcom_1_1aworx_1_1lox_1_1Lox.html" target="_top" xlink:title="Lox">
<polygon fill="#ffffff" stroke="#000000" points="239.5,-224.5 239.5,-243.5 271.5,-243.5 271.5,-224.5 239.5,-224.5"/>
<text text-anchor="middle" x="255.5" y="-231.5" font-family="Helvetica,sans-Serif" font-size="10.00" fill="#000000">Lox</text>
</a>
</g>
</g>
<!-- Node0&#45;&gt;Node11 -->
<g id="edge11" class="edge">
<title>Node0&#45;&gt;Node11</title>
<path fill="none" stroke="#191970" d="M233.3254,-271.6296C238.8299,-262.2887 245.2937,-251.3197 249.8177,-243.6427"/>
<polygon fill="#191970" stroke="#191970" points="230.3097,-269.8532 228.2482,-280.2455 236.3405,-273.4071 230.3097,-269.8532"/>
</g>
<!-- Node2 -->
<g id="node3" class="node">
<title>Node2</title>
<g id="a_node3"><a xlink:href="classcom_1_1aworx_1_1lox_1_1core_1_1Logger.html" target="_top" xlink:title="Logger">
<polygon fill="#ffffff" stroke="#000000" points="166.5,-168.5 166.5,-187.5 212.5,-187.5 212.5,-168.5 166.5,-168.5"/>
<text text-anchor="middle" x="189.5" y="-175.5" font-family="Helvetica,sans-Serif" font-size="10.00" fill="#000000">Logger</text>
</a>
</g>
</g>
<!-- Node1&#45;&gt;Node2 -->
<g id="edge2" class="edge">
<title>Node1&#45;&gt;Node2</title>
<path fill="none" stroke="#191970" d="M189.5,-214.1575C189.5,-205.155 189.5,-194.9199 189.5,-187.6427"/>
<polygon fill="#191970" stroke="#191970" points="186.0001,-214.2455 189.5,-224.2455 193.0001,-214.2456 186.0001,-214.2455"/>
</g>
<!-- Node3 -->
<g id="node4" class="node">
<title>Node3</title>
<g id="a_node4"><a xlink:href="classcom_1_1aworx_1_1lox_1_1core_1_1textlogger_1_1TextLogger.html" target="_top" xlink:title="TextLogger">
<polygon fill="#ffffff" stroke="#000000" points="157,-112.5 157,-131.5 222,-131.5 222,-112.5 157,-112.5"/>
<text text-anchor="middle" x="189.5" y="-119.5" font-family="Helvetica,sans-Serif" font-size="10.00" fill="#000000">TextLogger</text>
</a>
</g>
</g>
<!-- Node2&#45;&gt;Node3 -->
<g id="edge3" class="edge">
<title>Node2&#45;&gt;Node3</title>
<path fill="none" stroke="#191970" d="M189.5,-158.1575C189.5,-149.155 189.5,-138.9199 189.5,-131.6427"/>
<polygon fill="#191970" stroke="#191970" points="186.0001,-158.2455 189.5,-168.2455 193.0001,-158.2456 186.0001,-158.2455"/>
</g>
<!-- Node4 -->
<g id="node5" class="node">
<title>Node4</title>
<g id="a_node5"><a xlink:href="classcom_1_1aworx_1_1lox_1_1android_1_1AndroidLogCatLogger.html" target="_top" xlink:title="AndroidLogCatLogger">
<polygon fill="#ffffff" stroke="#000000" points="18.5,-56.5 18.5,-75.5 128.5,-75.5 128.5,-56.5 18.5,-56.5"/>
<text text-anchor="middle" x="73.5" y="-63.5" font-family="Helvetica,sans-Serif" font-size="10.00" fill="#000000">AndroidLogCatLogger</text>
</a>
</g>
</g>
<!-- Node3&#45;&gt;Node4 -->
<g id="edge4" class="edge">
<title>Node3&#45;&gt;Node4</title>
<path fill="none" stroke="#191970" d="M160.4463,-107.9741C139.4435,-97.8348 111.6309,-84.408 93.1809,-75.5011"/>
<polygon fill="#191970" stroke="#191970" points="159.0317,-111.1776 169.5589,-112.3733 162.075,-104.8738 159.0317,-111.1776"/>
</g>
<!-- Node5 -->
<g id="node6" class="node">
<title>Node5</title>
<g id="a_node6"><a xlink:href="classcom_1_1aworx_1_1lox_1_1core_1_1textlogger_1_1PlainTextLogger.html" target="_top" xlink:title="PlainTextLogger">
<polygon fill="#ffffff" stroke="#000000" points="146.5,-56.5 146.5,-75.5 232.5,-75.5 232.5,-56.5 146.5,-56.5"/>
<text text-anchor="middle" x="189.5" y="-63.5" font-family="Helvetica,sans-Serif" font-size="10.00" fill="#000000">PlainTextLogger</text>
</a>
</g>
</g>
<!-- Node3&#45;&gt;Node5 -->
<g id="edge5" class="edge">
<title>Node3&#45;&gt;Node5</title>
<path fill="none" stroke="#191970" d="M189.5,-102.1575C189.5,-93.155 189.5,-82.9199 189.5,-75.6427"/>
<polygon fill="#191970" stroke="#191970" points="186.0001,-102.2455 189.5,-112.2455 193.0001,-102.2456 186.0001,-102.2455"/>
</g>
<!-- Node9 -->
<g id="node10" class="node">
<title>Node9</title>
<g id="a_node10"><a xlink:href="classcom_1_1aworx_1_1lox_1_1loggers_1_1AnsiLogger.html" target="_top" xlink:title="AnsiLogger">
<polygon fill="#ffffff" stroke="#000000" points="308,-56.5 308,-75.5 373,-75.5 373,-56.5 308,-56.5"/>
<text text-anchor="middle" x="340.5" y="-63.5" font-family="Helvetica,sans-Serif" font-size="10.00" fill="#000000">AnsiLogger</text>
</a>
</g>
</g>
<!-- Node3&#45;&gt;Node9 -->
<g id="edge9" class="edge">
<title>Node3&#45;&gt;Node9</title>
<path fill="none" stroke="#191970" d="M225.123,-108.7888C252.6938,-98.5639 290.2149,-84.6488 314.8809,-75.5011"/>
<polygon fill="#191970" stroke="#191970" points="223.6168,-105.6144 215.4578,-112.3733 226.0509,-112.1776 223.6168,-105.6144"/>
</g>
<!-- Node6 -->
<g id="node7" class="node">
<title>Node6</title>
<g id="a_node7"><a xlink:href="classcom_1_1aworx_1_1lox_1_1loggers_1_1ConsoleLogger.html" target="_top" xlink:title="ConsoleLogger">
<polygon fill="#ffffff" stroke="#000000" points="0,-.5 0,-19.5 81,-19.5 81,-.5 0,-.5"/>
<text text-anchor="middle" x="40.5" y="-7.5" font-family="Helvetica,sans-Serif" font-size="10.00" fill="#000000">ConsoleLogger</text>
</a>
</g>
</g>
<!-- Node5&#45;&gt;Node6 -->
<g id="edge6" class="edge">
<title>Node5&#45;&gt;Node6</title>
<path fill="none" stroke="#191970" d="M154.3488,-52.7888C127.1432,-42.5639 90.1191,-28.6488 65.7798,-19.5011"/>
<polygon fill="#191970" stroke="#191970" points="153.2939,-56.1313 163.886,-56.3733 155.7566,-49.5788 153.2939,-56.1313"/>
</g>
<!-- Node7 -->
<g id="node8" class="node">
<title>Node7</title>
<g id="a_node8"><a xlink:href="classcom_1_1aworx_1_1lox_1_1loggers_1_1MemoryLogger.html" target="_top" xlink:title="MemoryLogger">
<polygon fill="#ffffff" stroke="#000000" points="99,-.5 99,-19.5 180,-19.5 180,-.5 99,-.5"/>
<text text-anchor="middle" x="139.5" y="-7.5" font-family="Helvetica,sans-Serif" font-size="10.00" fill="#000000">MemoryLogger</text>
</a>
</g>
</g>
<!-- Node5&#45;&gt;Node7 -->
<g id="edge7" class="edge">
<title>Node5&#45;&gt;Node7</title>
<path fill="none" stroke="#191970" d="M173.8753,-48.5004C165.3727,-38.9775 155.1782,-27.5596 148.1095,-19.6427"/>
<polygon fill="#191970" stroke="#191970" points="171.5197,-51.1172 180.7907,-56.2455 176.7413,-46.4551 171.5197,-51.1172"/>
</g>
<!-- Node8 -->
<g id="node9" class="node">
<title>Node8</title>
<g id="a_node9"><a xlink:href="classcom_1_1aworx_1_1lox_1_1loggers_1_1TextFileLogger.html" target="_top" xlink:title="TextFileLogger">
<polygon fill="#ffffff" stroke="#000000" points="198.5,-.5 198.5,-19.5 278.5,-19.5 278.5,-.5 198.5,-.5"/>
<text text-anchor="middle" x="238.5" y="-7.5" font-family="Helvetica,sans-Serif" font-size="10.00" fill="#000000">TextFileLogger</text>
</a>
</g>
</g>
<!-- Node5&#45;&gt;Node8 -->
<g id="edge8" class="edge">
<title>Node5&#45;&gt;Node8</title>
<path fill="none" stroke="#191970" d="M204.8122,-48.5004C213.1447,-38.9775 223.1353,-27.5596 230.0627,-19.6427"/>
<polygon fill="#191970" stroke="#191970" points="201.9862,-46.415 198.0351,-56.2455 207.2543,-51.0245 201.9862,-46.415"/>
</g>
<!-- Node10 -->
<g id="node11" class="node">
<title>Node10</title>
<g id="a_node11"><a xlink:href="classcom_1_1aworx_1_1lox_1_1loggers_1_1AnsiConsoleLogger.html" target="_top" xlink:title="AnsiConsoleLogger">
<polygon fill="#ffffff" stroke="#000000" points="297,-.5 297,-19.5 398,-19.5 398,-.5 297,-.5"/>
<text text-anchor="middle" x="347.5" y="-7.5" font-family="Helvetica,sans-Serif" font-size="10.00" fill="#000000">AnsiConsoleLogger</text>
</a>
</g>
</g>
<!-- Node9&#45;&gt;Node10 -->
<g id="edge10" class="edge">
<title>Node9&#45;&gt;Node10</title>
<path fill="none" stroke="#191970" d="M342.9803,-46.1575C344.1056,-37.155 345.385,-26.9199 346.2947,-19.6427"/>
<polygon fill="#191970" stroke="#191970" points="339.4868,-45.8886 341.7193,-56.2455 346.4327,-46.7569 339.4868,-45.8886"/>
</g>
</g>
</svg>
