<?xml version="1.0" encoding="UTF-8" standalone="no"?>
<!DOCTYPE svg PUBLIC "-//W3C//DTD SVG 1.1//EN"
 "http://www.w3.org/Graphics/SVG/1.1/DTD/svg11.dtd">
<!-- Generated by graphviz version 2.38.0 (20140413.2041)
 -->
<!-- Title: TextLogger Pages: 1 -->
<svg width="1050pt" height="543pt"
 viewBox="0.00 0.00 1050.00 542.50" xmlns="http://www.w3.org/2000/svg" xmlns:xlink="http://www.w3.org/1999/xlink">
<g id="graph0" class="graph" transform="scale(1 1) rotate(0) translate(4 538.5)">
<title>TextLogger</title>
<polygon fill="white" stroke="none" points="-4,4 -4,-538.5 1046,-538.5 1046,4 -4,4"/>
<!-- Node1 -->
<g id="node1" class="node"><title>Node1</title>
<polygon fill="#bfbfbf" stroke="black" points="977,-108.5 977,-127.5 1042,-127.5 1042,-108.5 977,-108.5"/>
<text text-anchor="middle" x="1009.5" y="-115.5" font-family="Helvetica,sans-Serif" font-size="10.00">TextLogger</text>
</g>
<!-- Node2 -->
<g id="node2" class="node"><title>Node2</title>
<g id="a_node2"><a xlink:href="classcom_1_1aworx_1_1lox_1_1core_1_1Logger.html" target="_top" xlink:title="Logger">
<polygon fill="white" stroke="black" points="740.5,-427.5 740.5,-446.5 786.5,-446.5 786.5,-427.5 740.5,-427.5"/>
<text text-anchor="middle" x="763.5" y="-434.5" font-family="Helvetica,sans-Serif" font-size="10.00">Logger</text>
</a>
</g>
</g>
<!-- Node2&#45;&gt;Node1 -->
<g id="edge1" class="edge"><title>Node2&#45;&gt;Node1</title>
<path fill="none" stroke="midnightblue" d="M782.167,-419.922C818.433,-384.246 902.604,-298.206 959,-215 979.366,-184.952 997.027,-145.413 1004.58,-127.522"/>
<polygon fill="midnightblue" stroke="midnightblue" points="779.499,-417.636 774.794,-427.129 784.391,-422.642 779.499,-417.636"/>
</g>
<!-- Node3 -->
<g id="node3" class="node"><title>Node3</title>
<g id="a_node3"><a xlink:href="classcom_1_1aworx_1_1lib_1_1threads_1_1SmartLock.html" target="_top" xlink:title="SmartLock">
<polygon fill="white" stroke="black" points="456,-465.5 456,-484.5 520,-484.5 520,-465.5 456,-465.5"/>
<text text-anchor="middle" x="488" y="-472.5" font-family="Helvetica,sans-Serif" font-size="10.00">SmartLock</text>
</a>
</g>
</g>
<!-- Node3&#45;&gt;Node2 -->
<g id="edge2" class="edge"><title>Node3&#45;&gt;Node2</title>
<path fill="none" stroke="midnightblue" d="M530.156,-469.282C588.895,-461.121 694.718,-446.418 740.454,-440.063"/>
<polygon fill="midnightblue" stroke="midnightblue" points="529.531,-465.835 520.108,-470.678 530.494,-472.768 529.531,-465.835"/>
</g>
<!-- Node4 -->
<g id="node4" class="node"><title>Node4</title>
<g id="a_node4"><a xlink:href="classcom_1_1aworx_1_1lib_1_1threads_1_1ThreadLock.html" target="_top" xlink:title="ThreadLock">
<polygon fill="white" stroke="black" points="211,-465.5 211,-484.5 279,-484.5 279,-465.5 211,-465.5"/>
<text text-anchor="middle" x="245" y="-472.5" font-family="Helvetica,sans-Serif" font-size="10.00">ThreadLock</text>
</a>
</g>
</g>
<!-- Node4&#45;&gt;Node3 -->
<g id="edge3" class="edge"><title>Node4&#45;&gt;Node3</title>
<path fill="none" stroke="midnightblue" d="M289.083,-475C337.063,-475 413.441,-475 455.92,-475"/>
<polygon fill="midnightblue" stroke="midnightblue" points="289.005,-471.5 279.005,-475 289.005,-478.5 289.005,-471.5"/>
</g>
<!-- Node5 -->
<g id="node5" class="node"><title>Node5</title>
<g id="a_node5"><a xlink:href="enumcom_1_1aworx_1_1lib_1_1enums_1_1LockMode.html" target="_top" xlink:title="LockMode">
<polygon fill="white" stroke="black" points="9.5,-500.5 9.5,-519.5 71.5,-519.5 71.5,-500.5 9.5,-500.5"/>
<text text-anchor="middle" x="40.5" y="-507.5" font-family="Helvetica,sans-Serif" font-size="10.00">LockMode</text>
</a>
</g>
</g>
<!-- Node5&#45;&gt;Node4 -->
<g id="edge4" class="edge"><title>Node5&#45;&gt;Node4</title>
<path fill="none" stroke="#9a32cd" stroke-dasharray="5,2" d="M81.9705,-503.005C119.772,-496.471 175.518,-486.836 210.779,-480.742"/>
<polygon fill="#9a32cd" stroke="#9a32cd" points="81.0741,-499.608 71.8163,-504.76 82.2663,-506.506 81.0741,-499.608"/>
<text text-anchor="middle" x="122" y="-503" font-family="Helvetica,sans-Serif" font-size="10.00"> lockMode</text>
</g>
<!-- Node6 -->
<g id="node6" class="node"><title>Node6</title>
<g id="a_node6"><a xlink:href="classcom_1_1aworx_1_1lib_1_1time_1_1Ticks.html" target="_top" xlink:title="Ticks">
<polygon fill="white" stroke="black" points="20,-422.5 20,-441.5 61,-441.5 61,-422.5 20,-422.5"/>
<text text-anchor="middle" x="40.5" y="-429.5" font-family="Helvetica,sans-Serif" font-size="10.00">Ticks</text>
</a>
</g>
</g>
<!-- Node6&#45;&gt;Node2 -->
<g id="edge8" class="edge"><title>Node6&#45;&gt;Node2</title>
<path fill="none" stroke="#9a32cd" stroke-dasharray="5,2" d="M71.4237,-432.208C191.376,-433.039 635.962,-436.122 740.424,-436.847"/>
<polygon fill="#9a32cd" stroke="#9a32cd" points="71.183,-428.706 61.1589,-432.136 71.1344,-435.706 71.183,-428.706"/>
<text text-anchor="middle" x="383" y="-449" font-family="Helvetica,sans-Serif" font-size="10.00"> timeOfCreation</text>
<text text-anchor="middle" x="383" y="-438" font-family="Helvetica,sans-Serif" font-size="10.00">timeOfLastLog</text>
</g>
<!-- Node6&#45;&gt;Node4 -->
<g id="edge5" class="edge"><title>Node6&#45;&gt;Node4</title>
<path fill="none" stroke="#9a32cd" stroke-dasharray="5,2" d="M70.6757,-441.957C79.6876,-444.809 89.6917,-447.751 99,-450 136.991,-459.179 181.364,-466.316 210.92,-470.573"/>
<polygon fill="#9a32cd" stroke="#9a32cd" points="71.6048,-438.578 61.0126,-438.816 69.4413,-445.236 71.6048,-438.578"/>
<text text-anchor="middle" x="122" y="-463" font-family="Helvetica,sans-Serif" font-size="10.00"> waitTime</text>
</g>
<!-- Node6&#45;&gt;Node6 -->
<g id="edge6" class="edge"><title>Node6&#45;&gt;Node6</title>
<path fill="none" stroke="#9a32cd" stroke-dasharray="5,2" d="M25.7675,-451.766C26.9246,-456.497 31.8354,-460 40.5,-460 54.7188,-460 58.8289,-450.565 52.8303,-441.757"/>
<polygon fill="#9a32cd" stroke="#9a32cd" points="29.2393,-452.298 28.1697,-441.757 22.4326,-450.664 29.2393,-452.298"/>
<text text-anchor="middle" x="40.5" y="-474" font-family="Helvetica,sans-Serif" font-size="10.00"> tempTicks</text>
<text text-anchor="middle" x="40.5" y="-463" font-family="Helvetica,sans-Serif" font-size="10.00">creationTimeTicks</text>
</g>
<!-- Node8 -->
<g id="node8" class="node"><title>Node8</title>
<g id="a_node8"><a xlink:href="classcom_1_1aworx_1_1lox_1_1core_1_1textlogger_1_1MetaInfo.html" target="_top" xlink:title="MetaInfo">
<polygon fill="white" stroke="black" points="736,-237.5 736,-256.5 791,-256.5 791,-237.5 736,-237.5"/>
<text text-anchor="middle" x="763.5" y="-244.5" font-family="Helvetica,sans-Serif" font-size="10.00">MetaInfo</text>
</a>
</g>
</g>
<!-- Node6&#45;&gt;Node8 -->
<g id="edge19" class="edge"><title>Node6&#45;&gt;Node8</title>
<path fill="none" stroke="#9a32cd" stroke-dasharray="5,2" d="M62.518,-416.543C119.469,-375.742 282.979,-265.698 439,-228 546.459,-202.036 679.55,-227.125 735.612,-240.19"/>
<polygon fill="#9a32cd" stroke="#9a32cd" points="60.3648,-413.781 54.3101,-422.475 64.4651,-419.454 60.3648,-413.781"/>
<text text-anchor="middle" x="383" y="-273" font-family="Helvetica,sans-Serif" font-size="10.00"> elapsedTime</text>
<text text-anchor="middle" x="383" y="-262" font-family="Helvetica,sans-Serif" font-size="10.00">maxElapsedTime</text>
</g>
<!-- Node7 -->
<g id="node7" class="node"><title>Node7</title>
<polygon fill="white" stroke="#bfbfbf" points="163,-504 163,-534 327,-534 327,-504 163,-504"/>
<text text-anchor="start" x="171" y="-522" font-family="Helvetica,sans-Serif" font-size="10.00">ArrayList&lt; com.aworx.lib.threads.</text>
<text text-anchor="middle" x="245" y="-511" font-family="Helvetica,sans-Serif" font-size="10.00">ThreadLock &gt;</text>
</g>
<!-- Node7&#45;&gt;Node3 -->
<g id="edge7" class="edge"><title>Node7&#45;&gt;Node3</title>
<path fill="none" stroke="#9a32cd" stroke-dasharray="5,2" d="M337.35,-504.037C364.327,-499.43 393.887,-494.197 421,-489 432.389,-486.817 444.839,-484.228 455.827,-481.875"/>
<polygon fill="#9a32cd" stroke="#9a32cd" points="336.42,-500.645 327.147,-505.771 337.592,-507.546 336.42,-500.645"/>
<text text-anchor="middle" x="383" y="-506" font-family="Helvetica,sans-Serif" font-size="10.00"> acquirers</text>
</g>
<!-- Node8&#45;&gt;Node1 -->
<g id="edge9" class="edge"><title>Node8&#45;&gt;Node1</title>
<path fill="none" stroke="#9a32cd" stroke-dasharray="5,2" d="M800.073,-233.848C840.137,-218.336 906.498,-190.507 959,-158 973.467,-149.043 988.441,-136.387 998.077,-127.724"/>
<polygon fill="#9a32cd" stroke="#9a32cd" points="798.809,-230.584 790.722,-237.429 801.313,-237.121 798.809,-230.584"/>
<text text-anchor="middle" x="920" y="-203" font-family="Helvetica,sans-Serif" font-size="10.00"> metaInfo</text>
</g>
<!-- Node9 -->
<g id="node9" class="node"><title>Node9</title>
<g id="a_node9"><a xlink:href="classcom_1_1aworx_1_1lib_1_1strings_1_1Tokenizer.html" target="_top" xlink:title="Tokenizer">
<polygon fill="white" stroke="black" points="458.5,-108.5 458.5,-127.5 517.5,-127.5 517.5,-108.5 458.5,-108.5"/>
<text text-anchor="middle" x="488" y="-115.5" font-family="Helvetica,sans-Serif" font-size="10.00">Tokenizer</text>
</a>
</g>
</g>
<!-- Node9&#45;&gt;Node8 -->
<g id="edge10" class="edge"><title>Node9&#45;&gt;Node8</title>
<path fill="none" stroke="#9a32cd" stroke-dasharray="5,2" d="M528,-116.717C561.657,-117.377 610.339,-122.715 646,-145 657.611,-152.256 654.512,-160.129 664,-170 690.625,-197.697 727.52,-223.904 747.755,-237.44"/>
<polygon fill="#9a32cd" stroke="#9a32cd" points="527.658,-113.214 517.636,-116.651 527.613,-120.214 527.658,-113.214"/>
<text text-anchor="middle" x="600.5" y="-148" font-family="Helvetica,sans-Serif" font-size="10.00"> tTok</text>
</g>
<!-- Node10 -->
<g id="node10" class="node"><title>Node10</title>
<g id="a_node10"><a xlink:href="classcom_1_1aworx_1_1lib_1_1strings_1_1Substring.html" target="_top" xlink:title="Substring">
<polygon fill="white" stroke="black" points="216,-108.5 216,-127.5 274,-127.5 274,-108.5 216,-108.5"/>
<text text-anchor="middle" x="245" y="-115.5" font-family="Helvetica,sans-Serif" font-size="10.00">Substring</text>
</a>
</g>
</g>
<!-- Node10&#45;&gt;Node9 -->
<g id="edge11" class="edge"><title>Node10&#45;&gt;Node9</title>
<path fill="none" stroke="#9a32cd" stroke-dasharray="5,2" d="M284.196,-118C332.6,-118 414.939,-118 458.315,-118"/>
<polygon fill="#9a32cd" stroke="#9a32cd" points="284.117,-114.5 274.117,-118 284.117,-121.5 284.117,-114.5"/>
<text text-anchor="middle" x="383" y="-132" font-family="Helvetica,sans-Serif" font-size="10.00"> rest</text>
<text text-anchor="middle" x="383" y="-121" font-family="Helvetica,sans-Serif" font-size="10.00">actual</text>
</g>
<!-- Node11 -->
<g id="node11" class="node"><title>Node11</title>
<polygon fill="white" stroke="#bfbfbf" points="0,-131.5 0,-150.5 81,-150.5 81,-131.5 0,-131.5"/>
<text text-anchor="middle" x="40.5" y="-138.5" font-family="Helvetica,sans-Serif" font-size="10.00">CharSequence</text>
</g>
<!-- Node11&#45;&gt;Node10 -->
<g id="edge12" class="edge"><title>Node11&#45;&gt;Node10</title>
<path fill="none" stroke="midnightblue" d="M91.1853,-135.357C130.44,-130.898 183.802,-124.837 215.969,-121.184"/>
<polygon fill="midnightblue" stroke="midnightblue" points="90.5658,-131.904 81.0248,-136.511 91.3559,-138.86 90.5658,-131.904"/>
</g>
<!-- Node14 -->
<g id="node14" class="node"><title>Node14</title>
<g id="a_node14"><a xlink:href="classcom_1_1aworx_1_1lib_1_1strings_1_1AString.html" target="_top" xlink:title="AString">
<polygon fill="white" stroke="black" points="463.5,-146.5 463.5,-165.5 512.5,-165.5 512.5,-146.5 463.5,-146.5"/>
<text text-anchor="middle" x="488" y="-153.5" font-family="Helvetica,sans-Serif" font-size="10.00">AString</text>
</a>
</g>
</g>
<!-- Node11&#45;&gt;Node14 -->
<g id="edge16" class="edge"><title>Node11&#45;&gt;Node14</title>
<path fill="none" stroke="midnightblue" d="M91.0362,-142.668C186.689,-145.889 393.542,-152.853 463.403,-155.205"/>
<polygon fill="midnightblue" stroke="midnightblue" points="91.1473,-139.17 81.0352,-142.331 90.9117,-146.166 91.1473,-139.17"/>
</g>
<!-- Node12 -->
<g id="node12" class="node"><title>Node12</title>
<g id="a_node12"><a xlink:href="classcom_1_1aworx_1_1lib_1_1time_1_1TickSpan.html" target="_top" xlink:title="TickSpan">
<polygon fill="white" stroke="black" points="459,-389.5 459,-408.5 517,-408.5 517,-389.5 459,-389.5"/>
<text text-anchor="middle" x="488" y="-396.5" font-family="Helvetica,sans-Serif" font-size="10.00">TickSpan</text>
</a>
</g>
</g>
<!-- Node12&#45;&gt;Node8 -->
<g id="edge13" class="edge"><title>Node12&#45;&gt;Node8</title>
<path fill="none" stroke="#9a32cd" stroke-dasharray="5,2" d="M527.34,-399.149C560.573,-397.761 609.005,-391.992 646,-372 699.24,-343.229 741.608,-280.935 756.623,-256.816"/>
<polygon fill="#9a32cd" stroke="#9a32cd" points="527.007,-395.657 517.117,-399.458 527.219,-402.654 527.007,-395.657"/>
<text text-anchor="middle" x="600.5" y="-401" font-family="Helvetica,sans-Serif" font-size="10.00"> elapsed</text>
</g>
<!-- Node13 -->
<g id="node13" class="node"><title>Node13</title>
<polygon fill="white" stroke="#bfbfbf" points="451.5,-351.5 451.5,-370.5 524.5,-370.5 524.5,-351.5 451.5,-351.5"/>
<text text-anchor="middle" x="488" y="-358.5" font-family="Helvetica,sans-Serif" font-size="10.00">FieldPosition</text>
</g>
<!-- Node13&#45;&gt;Node8 -->
<g id="edge14" class="edge"><title>Node13&#45;&gt;Node8</title>
<path fill="none" stroke="#9a32cd" stroke-dasharray="5,2" d="M534.675,-358.801C566.892,-355.916 610.461,-349.273 646,-334 690.761,-314.765 734.247,-275.084 752.939,-256.719"/>
<polygon fill="#9a32cd" stroke="#9a32cd" points="534.324,-355.318 524.639,-359.612 534.888,-362.295 534.324,-355.318"/>
<text text-anchor="middle" x="600.5" y="-360" font-family="Helvetica,sans-Serif" font-size="10.00"> fieldPositionZero</text>
</g>
<!-- Node14&#45;&gt;Node1 -->
<g id="edge22" class="edge"><title>Node14&#45;&gt;Node1</title>
<path fill="none" stroke="#9a32cd" stroke-dasharray="5,2" d="M522.7,-155.606C600.1,-154.35 796.424,-149.159 959,-128 964.825,-127.242 970.992,-126.196 976.922,-125.064"/>
<polygon fill="#9a32cd" stroke="#9a32cd" points="522.53,-152.108 512.584,-155.759 522.635,-159.108 522.53,-152.108"/>
<text text-anchor="middle" x="763.5" y="-166" font-family="Helvetica,sans-Serif" font-size="10.00"> logBuf</text>
<text text-anchor="middle" x="763.5" y="-155" font-family="Helvetica,sans-Serif" font-size="10.00">msgBuf</text>
</g>
<!-- Node14&#45;&gt;Node8 -->
<g id="edge15" class="edge"><title>Node14&#45;&gt;Node8</title>
<path fill="none" stroke="#9a32cd" stroke-dasharray="5,2" d="M522.842,-156.908C555.265,-158.661 605.16,-163.692 646,-178 687.042,-192.378 729.606,-222.01 750.058,-237.34"/>
<polygon fill="#9a32cd" stroke="#9a32cd" points="522.706,-153.398 512.554,-156.431 522.381,-160.391 522.706,-153.398"/>
<text text-anchor="middle" x="600.5" y="-192" font-family="Helvetica,sans-Serif" font-size="10.00"> format</text>
<text text-anchor="middle" x="600.5" y="-181" font-family="Helvetica,sans-Serif" font-size="10.00">tmpAString</text>
</g>
<!-- Node15 -->
<g id="node15" class="node"><title>Node15</title>
<polygon fill="white" stroke="#bfbfbf" points="439,-313.5 439,-332.5 537,-332.5 537,-313.5 439,-313.5"/>
<text text-anchor="middle" x="488" y="-320.5" font-family="Helvetica,sans-Serif" font-size="10.00">GregorianCalendar</text>
</g>
<!-- Node15&#45;&gt;Node8 -->
<g id="edge17" class="edge"><title>Node15&#45;&gt;Node8</title>
<path fill="none" stroke="#9a32cd" stroke-dasharray="5,2" d="M547.486,-319.481C577.412,-316.606 614.149,-311.402 646,-302 683.54,-290.919 724.196,-269.286 746.166,-256.706"/>
<polygon fill="#9a32cd" stroke="#9a32cd" points="546.851,-316.024 537.204,-320.404 547.476,-322.996 546.851,-316.024"/>
<text text-anchor="middle" x="600.5" y="-322" font-family="Helvetica,sans-Serif" font-size="10.00"> callerDateTimeCal</text>
</g>
<!-- Node16 -->
<g id="node16" class="node"><title>Node16</title>
<polygon fill="white" stroke="#bfbfbf" points="439,-275.5 439,-294.5 537,-294.5 537,-275.5 439,-275.5"/>
<text text-anchor="middle" x="488" y="-282.5" font-family="Helvetica,sans-Serif" font-size="10.00">SimpleDateFormat</text>
</g>
<!-- Node16&#45;&gt;Node8 -->
<g id="edge18" class="edge"><title>Node16&#45;&gt;Node8</title>
<path fill="none" stroke="#9a32cd" stroke-dasharray="5,2" d="M547.431,-276.882C605.662,-268.791 692.475,-256.729 735.839,-250.704"/>
<polygon fill="#9a32cd" stroke="#9a32cd" points="546.69,-273.451 537.267,-278.294 547.653,-280.384 546.69,-273.451"/>
<text text-anchor="middle" x="600.5" y="-290" font-family="Helvetica,sans-Serif" font-size="10.00"> dateFormatter</text>
<text text-anchor="middle" x="600.5" y="-279" font-family="Helvetica,sans-Serif" font-size="10.00">timeOfDayFormatter</text>
</g>
<!-- Node17 -->
<g id="node17" class="node"><title>Node17</title>
<polygon fill="white" stroke="#bfbfbf" points="469,-237.5 469,-256.5 507,-256.5 507,-237.5 469,-237.5"/>
<text text-anchor="middle" x="488" y="-244.5" font-family="Helvetica,sans-Serif" font-size="10.00">Date</text>
</g>
<!-- Node17&#45;&gt;Node8 -->
<g id="edge20" class="edge"><title>Node17&#45;&gt;Node8</title>
<path fill="none" stroke="#9a32cd" stroke-dasharray="5,2" d="M517.432,-247C570.464,-247 683.775,-247 735.611,-247"/>
<polygon fill="#9a32cd" stroke="#9a32cd" points="517.37,-243.5 507.37,-247 517.37,-250.5 517.37,-243.5"/>
<text text-anchor="middle" x="600.5" y="-250" font-family="Helvetica,sans-Serif" font-size="10.00"> callerDateTimeDate</text>
</g>
<!-- Node18 -->
<g id="node18" class="node"><title>Node18</title>
<polygon fill="white" stroke="#bfbfbf" points="664,-77 664,-107 863,-107 863,-77 664,-77"/>
<text text-anchor="start" x="672" y="-95" font-family="Helvetica,sans-Serif" font-size="10.00">ArrayList&lt; com.aworx.lox.core.textlogger.</text>
<text text-anchor="middle" x="763.5" y="-84" font-family="Helvetica,sans-Serif" font-size="10.00">ObjectConverter &gt;</text>
</g>
<!-- Node18&#45;&gt;Node1 -->
<g id="edge21" class="edge"><title>Node18&#45;&gt;Node1</title>
<path fill="none" stroke="#9a32cd" stroke-dasharray="5,2" d="M873.096,-103.572C910.796,-107.589 950.224,-111.79 976.745,-114.616"/>
<polygon fill="#9a32cd" stroke="#9a32cd" points="873.355,-100.08 863.041,-102.5 872.614,-107.04 873.355,-100.08"/>
<text text-anchor="middle" x="920" y="-116" font-family="Helvetica,sans-Serif" font-size="10.00"> objectConverters</text>
</g>
<!-- Node19 -->
<g id="node19" class="node"><title>Node19</title>
<polygon fill="white" stroke="#bfbfbf" points="714,-38.5 714,-57.5 813,-57.5 813,-38.5 714,-38.5"/>
<text text-anchor="middle" x="763.5" y="-45.5" font-family="Helvetica,sans-Serif" font-size="10.00">ArrayList&lt; String &gt;</text>
</g>
<!-- Node19&#45;&gt;Node1 -->
<g id="edge23" class="edge"><title>Node19&#45;&gt;Node1</title>
<path fill="none" stroke="#9a32cd" stroke-dasharray="5,2" d="M823.3,-55.6068C862.655,-61.9188 915.087,-72.7162 959,-90 971.311,-94.8455 984.296,-102.29 993.877,-108.285"/>
<polygon fill="#9a32cd" stroke="#9a32cd" points="823.753,-52.1353 813.334,-54.0591 822.679,-59.0524 823.753,-52.1353"/>
<text text-anchor="middle" x="920" y="-93" font-family="Helvetica,sans-Serif" font-size="10.00"> replacements</text>
</g>
<!-- Node20 -->
<g id="node20" class="node"><title>Node20</title>
<g id="a_node20"><a xlink:href="classcom_1_1aworx_1_1lox_1_1core_1_1textlogger_1_1AutoSizes.html" target="_top" xlink:title="AutoSizes">
<polygon fill="white" stroke="black" points="732.5,-0.5 732.5,-19.5 794.5,-19.5 794.5,-0.5 732.5,-0.5"/>
<text text-anchor="middle" x="763.5" y="-7.5" font-family="Helvetica,sans-Serif" font-size="10.00">AutoSizes</text>
</a>
</g>
</g>
<!-- Node20&#45;&gt;Node1 -->
<g id="edge24" class="edge"><title>Node20&#45;&gt;Node1</title>
<path fill="none" stroke="#9a32cd" stroke-dasharray="5,2" d="M804.796,-10.6584C846.551,-13.1208 912.142,-22.1345 959,-53 980.559,-67.2008 996.483,-94.0629 1003.89,-108.406"/>
<polygon fill="#9a32cd" stroke="#9a32cd" points="804.879,-7.15836 794.72,-10.1642 804.536,-14.15 804.879,-7.15836"/>
<text text-anchor="middle" x="920" y="-56" font-family="Helvetica,sans-Serif" font-size="10.00"> autoSizes</text>
</g>
</g>
</svg>
