<?xml version="1.0" encoding="UTF-8" standalone="no"?>
<!DOCTYPE svg PUBLIC "-//W3C//DTD SVG 1.1//EN"
 "http://www.w3.org/Graphics/SVG/1.1/DTD/svg11.dtd">
<!-- Generated by graphviz version 2.40.1 (20161225.0304)
 -->
<!-- Title: SmartLock Pages: 1 -->
<svg width="289pt" height="175pt"
 viewBox="0.00 0.00 289.00 175.00" xmlns="http://www.w3.org/2000/svg" xmlns:xlink="http://www.w3.org/1999/xlink">
<g id="graph0" class="graph" transform="scale(1 1) rotate(0) translate(4 171)">
<title>SmartLock</title>
<polygon fill="#ffffff" stroke="transparent" points="-4,4 -4,-171 285,-171 285,4 -4,4"/>
<!-- Node11 -->
<g id="node1" class="node">
<title>Node11</title>
<polygon fill="#bfbfbf" stroke="#000000" points="100,-.5 100,-19.5 164,-19.5 164,-.5 100,-.5"/>
<text text-anchor="middle" x="132" y="-7.5" font-family="Helvetica,sans-Serif" font-size="10.00" fill="#000000">SmartLock</text>
</g>
<!-- Node12 -->
<g id="node2" class="node">
<title>Node12</title>
<g id="a_node2"><a xlink:href="classcom_1_1aworx_1_1lib_1_1threads_1_1ThreadLock.html" target="_top" xlink:title="ThreadLock">
<polygon fill="#ffffff" stroke="#000000" points="31,-73 31,-92 99,-92 99,-73 31,-73"/>
<text text-anchor="middle" x="65" y="-80" font-family="Helvetica,sans-Serif" font-size="10.00" fill="#000000">ThreadLock</text>
</a>
</g>
</g>
<!-- Node12&#45;&gt;Node11 -->
<g id="edge1" class="edge">
<title>Node12&#45;&gt;Node11</title>
<path fill="none" stroke="#191970" d="M81.125,-65.0513C94.2969,-50.7982 112.4241,-31.1829 123.1072,-19.6228"/>
<polygon fill="#191970" stroke="#191970" points="78.2525,-63.0027 74.0359,-72.7223 83.3934,-67.7536 78.2525,-63.0027"/>
</g>
<!-- Node13 -->
<g id="node3" class="node">
<title>Node13</title>
<g id="a_node3"><a xlink:href="enumcom_1_1aworx_1_1lib_1_1lang_1_1LockMode.html" target="_top" xlink:title="LockMode">
<polygon fill="#ffffff" stroke="#000000" points="0,-146.5 0,-165.5 62,-165.5 62,-146.5 0,-146.5"/>
<text text-anchor="middle" x="31" y="-153.5" font-family="Helvetica,sans-Serif" font-size="10.00" fill="#000000">LockMode</text>
</a>
</g>
</g>
<!-- Node13&#45;&gt;Node12 -->
<g id="edge2" class="edge">
<title>Node13&#45;&gt;Node12</title>
<path fill="none" stroke="#9a32cd" stroke-dasharray="5,2" d="M28.6317,-136.131C28.5799,-129.5035 29.3569,-122.2265 32,-116 36.0832,-106.381 44.3332,-98.006 51.5624,-92.0357"/>
<polygon fill="#9a32cd" stroke="#9a32cd" points="25.157,-136.6279 29.3183,-146.3713 32.1413,-136.1596 25.157,-136.6279"/>
<text text-anchor="middle" x="55" y="-119" font-family="Helvetica,sans-Serif" font-size="10.00" fill="#000000"> lockMode</text>
</g>
<!-- Node14 -->
<g id="node4" class="node">
<title>Node14</title>
<g id="a_node4"><a xlink:href="classcom_1_1aworx_1_1lib_1_1time_1_1Ticks.html" target="_top" xlink:title="Ticks">
<polygon fill="#ffffff" stroke="#000000" points="80.5,-146.5 80.5,-165.5 121.5,-165.5 121.5,-146.5 80.5,-146.5"/>
<text text-anchor="middle" x="101" y="-153.5" font-family="Helvetica,sans-Serif" font-size="10.00" fill="#000000">Ticks</text>
</a>
</g>
</g>
<!-- Node14&#45;&gt;Node12 -->
<g id="edge3" class="edge">
<title>Node14&#45;&gt;Node12</title>
<path fill="none" stroke="#9a32cd" stroke-dasharray="5,2" d="M91.6933,-136.9988C84.6974,-122.7156 75.3959,-103.7249 69.8224,-92.3458"/>
<polygon fill="#9a32cd" stroke="#9a32cd" points="88.7517,-138.9501 96.2936,-146.3912 95.0381,-135.871 88.7517,-138.9501"/>
<text text-anchor="middle" x="108.5" y="-119" font-family="Helvetica,sans-Serif" font-size="10.00" fill="#000000"> waitTime</text>
</g>
<!-- Node14&#45;&gt;Node14 -->
<g id="edge4" class="edge">
<title>Node14&#45;&gt;Node14</title>
<path fill="none" stroke="#9a32cd" stroke-dasharray="5,2" d="M131.816,-161.7822C136.4,-160.8815 139.5,-158.954 139.5,-156 139.5,-151.1523 131.1518,-149.0694 121.5969,-149.7511"/>
<polygon fill="#9a32cd" stroke="#9a32cd" points="131.4268,-158.2963 121.5969,-162.2489 131.7462,-165.289 131.4268,-158.2963"/>
<text text-anchor="middle" x="179.5" y="-159" font-family="Helvetica,sans-Serif" font-size="10.00" fill="#000000"> tempTicks</text>
<text text-anchor="middle" x="179.5" y="-148" font-family="Helvetica,sans-Serif" font-size="10.00" fill="#000000">creationTimeTicks</text>
</g>
<!-- Node15 -->
<g id="node5" class="node">
<title>Node15</title>
<polygon fill="#ffffff" stroke="#bfbfbf" points="117,-67.5 117,-97.5 281,-97.5 281,-67.5 117,-67.5"/>
<text text-anchor="start" x="125" y="-85.5" font-family="Helvetica,sans-Serif" font-size="10.00" fill="#000000">ArrayList&lt; com.aworx.lib.threads.</text>
<text text-anchor="middle" x="199" y="-74.5" font-family="Helvetica,sans-Serif" font-size="10.00" fill="#000000">ThreadLock &gt;</text>
</g>
<!-- Node15&#45;&gt;Node11 -->
<g id="edge5" class="edge">
<title>Node15&#45;&gt;Node11</title>
<path fill="none" stroke="#9a32cd" stroke-dasharray="5,2" d="M178.1858,-59.9772C165.7697,-46.5419 150.6258,-30.1548 141.145,-19.8957"/>
<polygon fill="#9a32cd" stroke="#9a32cd" points="175.7601,-62.5092 185.1176,-67.478 180.901,-57.7583 175.7601,-62.5092"/>
<text text-anchor="middle" x="188.5" y="-41" font-family="Helvetica,sans-Serif" font-size="10.00" fill="#000000"> acquirers</text>
</g>
</g>
</svg>
