<?xml version="1.0" encoding="UTF-8" standalone="no"?>
<!DOCTYPE svg PUBLIC "-//W3C//DTD SVG 1.1//EN"
 "http://www.w3.org/Graphics/SVG/1.1/DTD/svg11.dtd">
<!-- Generated by graphviz version 2.40.1 (20161225.0304)
 -->
<!-- Title: ALox Pages: 1 -->
<svg width="430pt" height="340pt"
 viewBox="0.00 0.00 429.50 340.00" xmlns="http://www.w3.org/2000/svg" xmlns:xlink="http://www.w3.org/1999/xlink">
<g id="graph0" class="graph" transform="scale(1 1) rotate(0) translate(4 336)">
<title>ALox</title>
<polygon fill="#ffffff" stroke="transparent" points="-4,4 -4,-336 425.5,-336 425.5,4 -4,4"/>
<!-- Node1 -->
<g id="node1" class="node">
<title>Node1</title>
<polygon fill="#bfbfbf" stroke="#000000" points="148,-.5 148,-19.5 187,-19.5 187,-.5 148,-.5"/>
<text text-anchor="middle" x="167.5" y="-7.5" font-family="Helvetica,sans-Serif" font-size="10.00" fill="#000000">ALox</text>
</g>
<!-- Node2 -->
<g id="node2" class="node">
<title>Node2</title>
<polygon fill="#ffffff" stroke="#bfbfbf" points="0,-177.5 0,-207.5 131,-207.5 131,-177.5 0,-177.5"/>
<text text-anchor="start" x="8" y="-195.5" font-family="Helvetica,sans-Serif" font-size="10.00" fill="#000000">ArrayList&lt; com.aworx.lox.</text>
<text text-anchor="middle" x="65.5" y="-184.5" font-family="Helvetica,sans-Serif" font-size="10.00" fill="#000000">Lox &gt;</text>
</g>
<!-- Node2&#45;&gt;Node1 -->
<g id="edge1" class="edge">
<title>Node2&#45;&gt;Node1</title>
<path fill="none" stroke="#9a32cd" stroke-dasharray="5,2" d="M70.5902,-167.336C78.2038,-134.6902 95.1365,-77.2779 126.5,-38 132.4163,-30.5908 140.8182,-24.3792 148.4772,-19.704"/>
<polygon fill="#9a32cd" stroke="#9a32cd" points="67.1074,-166.875 68.358,-177.3958 73.9412,-168.3914 67.1074,-166.875"/>
<text text-anchor="middle" x="140" y="-96" font-family="Helvetica,sans-Serif" font-size="10.00" fill="#000000"> loxes</text>
</g>
<!-- Node3 -->
<g id="node3" class="node">
<title>Node3</title>
<g id="a_node3"><a xlink:href="classcom_1_1aworx_1_1lib_1_1strings_1_1AString.html" target="_top" xlink:title="AString">
<polygon fill="#ffffff" stroke="#000000" points="159,-255.5 159,-274.5 208,-274.5 208,-255.5 159,-255.5"/>
<text text-anchor="middle" x="183.5" y="-262.5" font-family="Helvetica,sans-Serif" font-size="10.00" fill="#000000">AString</text>
</a>
</g>
</g>
<!-- Node3&#45;&gt;Node1 -->
<g id="edge2" class="edge">
<title>Node3&#45;&gt;Node1</title>
<path fill="none" stroke="#9a32cd" stroke-dasharray="5,2" d="M180.6856,-245.172C179.2282,-234.2305 177.5407,-220.3879 176.5,-208 170.4509,-135.9916 168.2699,-48.8853 167.6814,-19.9064"/>
<polygon fill="#9a32cd" stroke="#9a32cd" points="177.2543,-245.9116 182.0843,-255.3414 184.189,-244.9577 177.2543,-245.9116"/>
<text text-anchor="middle" x="223.5" y="-190" font-family="Helvetica,sans-Serif" font-size="10.00" fill="#000000"> configCategoryName</text>
</g>
<!-- Node5 -->
<g id="node5" class="node">
<title>Node5</title>
<g id="a_node5"><a xlink:href="classcom_1_1aworx_1_1lib_1_1config_1_1VariableDefinition.html" target="_top" xlink:title="VariableDefinition">
<polygon fill="#ffffff" stroke="#000000" points="279.5,-183 279.5,-202 371.5,-202 371.5,-183 279.5,-183"/>
<text text-anchor="middle" x="325.5" y="-190" font-family="Helvetica,sans-Serif" font-size="10.00" fill="#000000">VariableDefinition</text>
</a>
</g>
</g>
<!-- Node3&#45;&gt;Node5 -->
<g id="edge5" class="edge">
<title>Node3&#45;&gt;Node5</title>
<path fill="none" stroke="#9a32cd" stroke-dasharray="5,2" d="M211.2862,-250.8134C239.4075,-236.4557 282.1255,-214.6454 306.5655,-202.1673"/>
<polygon fill="#9a32cd" stroke="#9a32cd" points="209.6713,-247.708 202.3565,-255.3726 212.8544,-253.9425 209.6713,-247.708"/>
<text text-anchor="middle" x="297.5" y="-229" font-family="Helvetica,sans-Serif" font-size="10.00" fill="#000000"> categoryFallback</text>
</g>
<!-- Node4 -->
<g id="node4" class="node">
<title>Node4</title>
<polygon fill="#ffffff" stroke="#bfbfbf" points="143.5,-312.5 143.5,-331.5 223.5,-331.5 223.5,-312.5 143.5,-312.5"/>
<text text-anchor="middle" x="183.5" y="-319.5" font-family="Helvetica,sans-Serif" font-size="10.00" fill="#000000">CharSequence</text>
</g>
<!-- Node4&#45;&gt;Node3 -->
<g id="edge3" class="edge">
<title>Node4&#45;&gt;Node3</title>
<path fill="none" stroke="#191970" d="M183.5,-302.2342C183.5,-292.8491 183.5,-282.0651 183.5,-274.5265"/>
<polygon fill="#191970" stroke="#191970" points="180.0001,-302.3307 183.5,-312.3307 187.0001,-302.3308 180.0001,-302.3307"/>
</g>
<!-- Node5&#45;&gt;Node1 -->
<g id="edge4" class="edge">
<title>Node5&#45;&gt;Node1</title>
<path fill="none" stroke="#9a32cd" stroke-dasharray="5,2" d="M309.3644,-175.3332C304.5389,-170.1271 299.2656,-164.3654 294.5,-159 248.4537,-107.1577 195.1474,-43.3226 175.3916,-19.5286"/>
<polygon fill="#9a32cd" stroke="#9a32cd" points="307.0609,-177.9949 316.4413,-182.9201 312.1797,-173.2202 307.0609,-177.9949"/>
<text text-anchor="middle" x="358" y="-151" font-family="Helvetica,sans-Serif" font-size="10.00" fill="#000000"> AUTO_SIZES</text>
<text text-anchor="middle" x="358" y="-140" font-family="Helvetica,sans-Serif" font-size="10.00" fill="#000000">CONSOLE_LIGHT_COLORS</text>
<text text-anchor="middle" x="358" y="-129" font-family="Helvetica,sans-Serif" font-size="10.00" fill="#000000">FORMAT_MULTILINE</text>
<text text-anchor="middle" x="358" y="-118" font-family="Helvetica,sans-Serif" font-size="10.00" fill="#000000">CONSOLE_TYPE</text>
<text text-anchor="middle" x="358" y="-107" font-family="Helvetica,sans-Serif" font-size="10.00" fill="#000000">MAX_ELAPSED_TIME</text>
<text text-anchor="middle" x="358" y="-96" font-family="Helvetica,sans-Serif" font-size="10.00" fill="#000000">USE_SYSTEM_OUT_PRINT</text>
<text text-anchor="middle" x="358" y="-85" font-family="Helvetica,sans-Serif" font-size="10.00" fill="#000000">FORMAT</text>
<text text-anchor="middle" x="358" y="-74" font-family="Helvetica,sans-Serif" font-size="10.00" fill="#000000">PREFIXES</text>
<text text-anchor="middle" x="358" y="-63" font-family="Helvetica,sans-Serif" font-size="10.00" fill="#000000">DUMP_STATE_ON_EXIT</text>
<text text-anchor="middle" x="358" y="-52" font-family="Helvetica,sans-Serif" font-size="10.00" fill="#000000">VERBOSITY</text>
<text text-anchor="middle" x="358" y="-41" font-family="Helvetica,sans-Serif" font-size="10.00" fill="#000000">...</text>
</g>
</g>
</svg>
