<?xml version="1.0" encoding="UTF-8" standalone="no"?>
<!DOCTYPE svg PUBLIC "-//W3C//DTD SVG 1.1//EN"
 "http://www.w3.org/Graphics/SVG/1.1/DTD/svg11.dtd">
<!-- Generated by graphviz version 2.38.0 (20140413.2041)
 -->
<!-- Title: ThreadLock Pages: 1 -->
<svg width="229pt" height="97pt"
 viewBox="0.00 0.00 228.50 97.00" xmlns="http://www.w3.org/2000/svg" xmlns:xlink="http://www.w3.org/1999/xlink">
<g id="graph0" class="graph" transform="scale(1 1) rotate(0) translate(4 93)">
<title>ThreadLock</title>
<polygon fill="white" stroke="none" points="-4,4 -4,-93 224.5,-93 224.5,4 -4,4"/>
<!-- Node1 -->
<g id="node1" class="node"><title>Node1</title>
<polygon fill="#bfbfbf" stroke="black" points="31,-0.5 31,-19.5 99,-19.5 99,-0.5 31,-0.5"/>
<text text-anchor="middle" x="65" y="-7.5" font-family="Helvetica,sans-Serif" font-size="10.00">ThreadLock</text>
</g>
<!-- Node2 -->
<g id="node2" class="node"><title>Node2</title>
<g id="a_node2"><a xlink:href="enumcom_1_1aworx_1_1lib_1_1enums_1_1LockMode.html" target="_top" xlink:title="LockMode">
<polygon fill="white" stroke="black" points="0,-68.5 0,-87.5 62,-87.5 62,-68.5 0,-68.5"/>
<text text-anchor="middle" x="31" y="-75.5" font-family="Helvetica,sans-Serif" font-size="10.00">LockMode</text>
</a>
</g>
</g>
<!-- Node2&#45;&gt;Node1 -->
<g id="edge1" class="edge"><title>Node2&#45;&gt;Node1</title>
<path fill="none" stroke="#9a32cd" stroke-dasharray="5,2" d="M28.3482,-58.2217C28.1979,-51.5422 28.9851,-44.1571 32,-38 35.7112,-30.4211 42.6611,-24.238 49.2293,-19.7104"/>
<polygon fill="#9a32cd" stroke="#9a32cd" points="24.8862,-58.8047 29.2584,-68.4553 31.8586,-58.1845 24.8862,-58.8047"/>
<text text-anchor="middle" x="55" y="-41" font-family="Helvetica,sans-Serif" font-size="10.00"> lockMode</text>
</g>
<!-- Node3 -->
<g id="node3" class="node"><title>Node3</title>
<g id="a_node3"><a xlink:href="classcom_1_1aworx_1_1lib_1_1time_1_1Ticks.html" target="_top" xlink:title="Ticks">
<polygon fill="white" stroke="black" points="80.5,-68.5 80.5,-87.5 121.5,-87.5 121.5,-68.5 80.5,-68.5"/>
<text text-anchor="middle" x="101" y="-75.5" font-family="Helvetica,sans-Serif" font-size="10.00">Ticks</text>
</a>
</g>
</g>
<!-- Node3&#45;&gt;Node1 -->
<g id="edge2" class="edge"><title>Node3&#45;&gt;Node1</title>
<path fill="none" stroke="#9a32cd" stroke-dasharray="5,2" d="M91.4889,-59.563C84.5172,-46.7815 75.3418,-29.9599 69.8224,-19.8411"/>
<polygon fill="#9a32cd" stroke="#9a32cd" points="88.4324,-61.2687 96.2936,-68.3717 94.5777,-57.9167 88.4324,-61.2687"/>
<text text-anchor="middle" x="107.5" y="-41" font-family="Helvetica,sans-Serif" font-size="10.00"> waitTime</text>
</g>
<!-- Node3&#45;&gt;Node3 -->
<g id="edge3" class="edge"><title>Node3&#45;&gt;Node3</title>
<path fill="none" stroke="#9a32cd" stroke-dasharray="5,2" d="M131.816,-83.7822C136.4,-82.8815 139.5,-80.954 139.5,-78 139.5,-73.1523 131.152,-71.0694 121.597,-71.7511"/>
<polygon fill="#9a32cd" stroke="#9a32cd" points="131.427,-80.2963 121.597,-84.2489 131.746,-87.289 131.427,-80.2963"/>
<text text-anchor="middle" x="180" y="-81" font-family="Helvetica,sans-Serif" font-size="10.00"> tempTicks</text>
<text text-anchor="middle" x="180" y="-70" font-family="Helvetica,sans-Serif" font-size="10.00">creationTimeTicks</text>
</g>
</g>
</svg>
