<?xml version="1.0" encoding="UTF-8" standalone="no"?>
<!DOCTYPE svg PUBLIC "-//W3C//DTD SVG 1.1//EN"
 "http://www.w3.org/Graphics/SVG/1.1/DTD/svg11.dtd">
<!-- Generated by graphviz version 2.40.1 (20161225.0304)
 -->
<!-- Title: Logger Pages: 1 -->
<svg width="288pt" height="243pt"
 viewBox="0.00 0.00 288.00 243.00" xmlns="http://www.w3.org/2000/svg" xmlns:xlink="http://www.w3.org/1999/xlink">
<g id="graph0" class="graph" transform="scale(1 1) rotate(0) translate(4 239)">
<title>Logger</title>
<polygon fill="#ffffff" stroke="transparent" points="-4,4 -4,-239 284,-239 284,4 -4,4"/>
<!-- Node11 -->
<g id="node1" class="node">
<title>Node11</title>
<g id="a_node1"><a xlink:title=" ">
<polygon fill="#bfbfbf" stroke="#000000" points="0,-.5 0,-19.5 46,-19.5 46,-.5 0,-.5"/>
<text text-anchor="middle" x="23" y="-7.5" font-family="Helvetica,sans-Serif" font-size="10.00" fill="#000000">Logger</text>
</a>
</g>
</g>
<!-- Node12 -->
<g id="node2" class="node">
<title>Node12</title>
<g id="a_node2"><a xlink:href="classcom_1_1aworx_1_1lib_1_1threads_1_1SmartLock.html" target="_top" xlink:title=" ">
<polygon fill="#ffffff" stroke="#000000" points="68,-57.5 68,-76.5 132,-76.5 132,-57.5 68,-57.5"/>
<text text-anchor="middle" x="100" y="-64.5" font-family="Helvetica,sans-Serif" font-size="10.00" fill="#000000">SmartLock</text>
</a>
</g>
</g>
<!-- Node12&#45;&gt;Node11 -->
<g id="edge1" class="edge">
<title>Node12&#45;&gt;Node11</title>
<path fill="none" stroke="#191970" d="M78.5424,-51.1158C64.8252,-40.9615 47.4918,-28.1303 35.8691,-19.5265"/>
<polygon fill="#191970" stroke="#191970" points="76.8181,-54.194 86.938,-57.3307 80.983,-48.5678 76.8181,-54.194"/>
</g>
<!-- Node13 -->
<g id="node3" class="node">
<title>Node13</title>
<g id="a_node3"><a xlink:href="classcom_1_1aworx_1_1lib_1_1threads_1_1ThreadLock.html" target="_top" xlink:title=" ">
<polygon fill="#ffffff" stroke="#000000" points="200,-141 200,-160 268,-160 268,-141 200,-141"/>
<text text-anchor="middle" x="234" y="-148" font-family="Helvetica,sans-Serif" font-size="10.00" fill="#000000">ThreadLock</text>
</a>
</g>
</g>
<!-- Node13&#45;&gt;Node12 -->
<g id="edge2" class="edge">
<title>Node13&#45;&gt;Node12</title>
<path fill="none" stroke="#191970" d="M210.8809,-135.4804C193.4193,-124.2025 168.8165,-108.4529 147,-95 136.9752,-88.8183 125.6349,-82.0558 116.6054,-76.7255"/>
<polygon fill="#191970" stroke="#191970" points="209.0118,-138.4398 219.3087,-140.9346 212.8151,-132.5631 209.0118,-138.4398"/>
</g>
<!-- Node14 -->
<g id="node4" class="node">
<title>Node14</title>
<g id="a_node4"><a xlink:href="enumcom_1_1aworx_1_1lib_1_1lang_1_1LockMode.html" target="_top" xlink:title=" ">
<polygon fill="#ffffff" stroke="#000000" points="203,-214.5 203,-233.5 265,-233.5 265,-214.5 203,-214.5"/>
<text text-anchor="middle" x="234" y="-221.5" font-family="Helvetica,sans-Serif" font-size="10.00" fill="#000000">LockMode</text>
</a>
</g>
</g>
<!-- Node14&#45;&gt;Node13 -->
<g id="edge3" class="edge">
<title>Node14&#45;&gt;Node13</title>
<path fill="none" stroke="#9a32cd" stroke-dasharray="5,2" d="M234,-204.1616C234,-189.981 234,-171.504 234,-160.3458"/>
<polygon fill="#9a32cd" stroke="#9a32cd" points="230.5001,-204.3911 234,-214.3912 237.5001,-204.3912 230.5001,-204.3911"/>
<text text-anchor="middle" x="257" y="-187" font-family="Helvetica,sans-Serif" font-size="10.00" fill="#000000"> lockMode</text>
</g>
<!-- Node15 -->
<g id="node5" class="node">
<title>Node15</title>
<g id="a_node5"><a xlink:href="classcom_1_1aworx_1_1lib_1_1time_1_1Ticks.html" target="_top" xlink:title=" ">
<polygon fill="#ffffff" stroke="#000000" points="7.5,-214.5 7.5,-233.5 48.5,-233.5 48.5,-214.5 7.5,-214.5"/>
<text text-anchor="middle" x="28" y="-221.5" font-family="Helvetica,sans-Serif" font-size="10.00" fill="#000000">Ticks</text>
</a>
</g>
</g>
<!-- Node15&#45;&gt;Node11 -->
<g id="edge7" class="edge">
<title>Node15&#45;&gt;Node11</title>
<path fill="none" stroke="#9a32cd" stroke-dasharray="5,2" d="M20.0354,-204.865C15.8369,-193.7376 11.1264,-179.3214 9,-166 .2134,-110.9529 14.4766,-44.0321 20.5083,-19.553"/>
<polygon fill="#9a32cd" stroke="#9a32cd" points="16.868,-206.3729 23.8028,-214.3828 23.3766,-203.7965 16.868,-206.3729"/>
<text text-anchor="middle" x="42.5" y="-109" font-family="Helvetica,sans-Serif" font-size="10.00" fill="#000000"> timeOfCreation</text>
<text text-anchor="middle" x="42.5" y="-98" font-family="Helvetica,sans-Serif" font-size="10.00" fill="#000000">timeOfLastLog</text>
</g>
<!-- Node15&#45;&gt;Node13 -->
<g id="edge4" class="edge">
<title>Node15&#45;&gt;Node13</title>
<path fill="none" stroke="#9a32cd" stroke-dasharray="5,2" d="M58.0367,-213.3537C90.7517,-201.7484 144.6155,-182.6124 191,-166 196.379,-164.0735 202.1336,-162.0047 207.6272,-160.0258"/>
<polygon fill="#9a32cd" stroke="#9a32cd" points="56.8494,-210.0611 48.5945,-216.7024 59.1893,-216.6585 56.8494,-210.0611"/>
<text text-anchor="middle" x="158.5" y="-187" font-family="Helvetica,sans-Serif" font-size="10.00" fill="#000000"> waitTime</text>
</g>
<!-- Node15&#45;&gt;Node15 -->
<g id="edge5" class="edge">
<title>Node15&#45;&gt;Node15</title>
<path fill="none" stroke="#9a32cd" stroke-dasharray="5,2" d="M58.816,-229.7822C63.4,-228.8815 66.5,-226.954 66.5,-224 66.5,-219.1523 58.1518,-217.0694 48.5969,-217.7511"/>
<polygon fill="#9a32cd" stroke="#9a32cd" points="58.4268,-226.2963 48.5969,-230.2489 58.7462,-233.289 58.4268,-226.2963"/>
<text text-anchor="middle" x="107" y="-227" font-family="Helvetica,sans-Serif" font-size="10.00" fill="#000000"> tempTicks</text>
<text text-anchor="middle" x="107" y="-216" font-family="Helvetica,sans-Serif" font-size="10.00" fill="#000000">creationTimeTicks</text>
</g>
<!-- Node16 -->
<g id="node6" class="node">
<title>Node16</title>
<g id="a_node6"><a xlink:title=" ">
<polygon fill="#ffffff" stroke="#bfbfbf" points="18.5,-135.5 18.5,-165.5 181.5,-165.5 181.5,-135.5 18.5,-135.5"/>
<text text-anchor="start" x="26.5" y="-153.5" font-family="Helvetica,sans-Serif" font-size="10.00" fill="#000000">ArrayList&lt; com.aworx.lib.threads.</text>
<text text-anchor="middle" x="100" y="-142.5" font-family="Helvetica,sans-Serif" font-size="10.00" fill="#000000">ThreadLock &gt;</text>
</a>
</g>
</g>
<!-- Node16&#45;&gt;Node12 -->
<g id="edge6" class="edge">
<title>Node16&#45;&gt;Node12</title>
<path fill="none" stroke="#9a32cd" stroke-dasharray="5,2" d="M100,-125.1022C100,-108.6775 100,-88.2426 100,-76.5023"/>
<polygon fill="#9a32cd" stroke="#9a32cd" points="96.5001,-125.1848 100,-135.1848 103.5001,-125.1848 96.5001,-125.1848"/>
<text text-anchor="middle" x="121.5" y="-103.5" font-family="Helvetica,sans-Serif" font-size="10.00" fill="#000000"> acquirers</text>
</g>
</g>
</svg>
