<?xml version="1.0" encoding="UTF-8" standalone="no"?>
<!DOCTYPE svg PUBLIC "-//W3C//DTD SVG 1.1//EN"
 "http://www.w3.org/Graphics/SVG/1.1/DTD/svg11.dtd">
<!-- Generated by graphviz version 2.40.1 (20161225.0304)
 -->
<!-- Title: StringTree&lt; T &gt; Pages: 1 -->
<svg width="201pt" height="173pt"
 viewBox="0.00 0.00 201.00 173.00" xmlns="http://www.w3.org/2000/svg" xmlns:xlink="http://www.w3.org/1999/xlink">
<g id="graph0" class="graph" transform="scale(1 1) rotate(0) translate(4 169)">
<title>StringTree&lt; T &gt;</title>
<polygon fill="#ffffff" stroke="transparent" points="-4,4 -4,-169 197,-169 197,4 -4,4"/>
<!-- Node1 -->
<g id="node1" class="node">
<title>Node1</title>
<g id="a_node1"><a xlink:title=" ">
<polygon fill="#bfbfbf" stroke="#000000" points="45.5,-.5 45.5,-19.5 131.5,-19.5 131.5,-.5 45.5,-.5"/>
<text text-anchor="middle" x="88.5" y="-7.5" font-family="Helvetica,sans-Serif" font-size="10.00" fill="#000000">StringTree&lt; T &gt;</text>
</a>
</g>
</g>
<!-- Node2 -->
<g id="node2" class="node">
<title>Node2</title>
<g id="a_node2"><a xlink:href="classcom_1_1aworx_1_1lib_1_1util_1_1StringTree_1_1Node.html" target="_top" xlink:title=" ">
<polygon fill="#ffffff" stroke="#000000" points="33,-67.5 33,-86.5 144,-86.5 144,-67.5 33,-67.5"/>
<text text-anchor="middle" x="88.5" y="-74.5" font-family="Helvetica,sans-Serif" font-size="10.00" fill="#000000">StringTree&lt; T &gt;.Node</text>
</a>
</g>
</g>
<!-- Node2&#45;&gt;Node1 -->
<g id="edge1" class="edge">
<title>Node2&#45;&gt;Node1</title>
<path fill="none" stroke="#9a32cd" stroke-dasharray="5,2" d="M88.5,-57.1079C88.5,-44.714 88.5,-29.3263 88.5,-19.5817"/>
<polygon fill="#9a32cd" stroke="#9a32cd" points="85.0001,-57.4005 88.5,-67.4005 92.0001,-57.4006 85.0001,-57.4005"/>
<text text-anchor="middle" x="98.5" y="-41" font-family="Helvetica,sans-Serif" font-size="10.00" fill="#000000"> root</text>
</g>
<!-- Node2&#45;&gt;Node2 -->
<g id="edge2" class="edge">
<title>Node2&#45;&gt;Node2</title>
<path fill="none" stroke="#9a32cd" stroke-dasharray="5,2" d="M154.4503,-81.3987C159.1375,-80.3998 162,-78.9336 162,-77 162,-73.9063 154.672,-72.0089 144.2668,-71.308"/>
<polygon fill="#9a32cd" stroke="#9a32cd" points="153.7461,-77.96 144.2668,-82.692 154.6281,-84.9042 153.7461,-77.96"/>
<text text-anchor="middle" x="177.5" y="-74.5" font-family="Helvetica,sans-Serif" font-size="10.00" fill="#000000"> parent</text>
</g>
<!-- Node3 -->
<g id="node3" class="node">
<title>Node3</title>
<g id="a_node3"><a xlink:title=" ">
<polygon fill="#ffffff" stroke="#bfbfbf" points="0,-134.5 0,-164.5 177,-164.5 177,-134.5 0,-134.5"/>
<text text-anchor="start" x="8" y="-152.5" font-family="Helvetica,sans-Serif" font-size="10.00" fill="#000000">HashMap&lt; String, com.aworx.lib.util.</text>
<text text-anchor="middle" x="88.5" y="-141.5" font-family="Helvetica,sans-Serif" font-size="10.00" fill="#000000">StringTree.Node &gt;</text>
</a>
</g>
</g>
<!-- Node3&#45;&gt;Node2 -->
<g id="edge3" class="edge">
<title>Node3&#45;&gt;Node2</title>
<path fill="none" stroke="#9a32cd" stroke-dasharray="5,2" d="M88.5,-124.305C88.5,-111.424 88.5,-96.4836 88.5,-86.8957"/>
<polygon fill="#9a32cd" stroke="#9a32cd" points="85.0001,-124.4779 88.5,-134.478 92.0001,-124.478 85.0001,-124.4779"/>
<text text-anchor="middle" x="107" y="-108" font-family="Helvetica,sans-Serif" font-size="10.00" fill="#000000"> children</text>
</g>
</g>
</svg>
