<?xml version="1.0" encoding="UTF-8" standalone="no"?>
<!DOCTYPE svg PUBLIC "-//W3C//DTD SVG 1.1//EN"
 "http://www.w3.org/Graphics/SVG/1.1/DTD/svg11.dtd">
<!-- Generated by graphviz version 2.40.1 (20161225.0304)
 -->
<!-- Title: ALox Pages: 1 -->
<svg width="818pt" height="489pt"
 viewBox="0.00 0.00 818.00 488.95" xmlns="http://www.w3.org/2000/svg" xmlns:xlink="http://www.w3.org/1999/xlink">
<g id="graph0" class="graph" transform="scale(1 1) rotate(0) translate(4 484.9456)">
<title>ALox</title>
<polygon fill="#ffffff" stroke="transparent" points="-4,4 -4,-484.9456 814,-484.9456 814,4 -4,4"/>
<!-- Node1 -->
<g id="node1" class="node">
<title>Node1</title>
<polygon fill="#bfbfbf" stroke="#000000" points="771,-205.4456 771,-224.4456 810,-224.4456 810,-205.4456 771,-205.4456"/>
<text text-anchor="middle" x="790.5" y="-212.4456" font-family="Helvetica,sans-Serif" font-size="10.00" fill="#000000">ALox</text>
</g>
<!-- Node2 -->
<g id="node2" class="node">
<title>Node2</title>
<polygon fill="#ffffff" stroke="#bfbfbf" points="574,-304.9456 574,-334.9456 705,-334.9456 705,-304.9456 574,-304.9456"/>
<text text-anchor="start" x="582" y="-322.9456" font-family="Helvetica,sans-Serif" font-size="10.00" fill="#000000">ArrayList&lt; com.aworx.lox.</text>
<text text-anchor="middle" x="639.5" y="-311.9456" font-family="Helvetica,sans-Serif" font-size="10.00" fill="#000000">Lox &gt;</text>
</g>
<!-- Node2&#45;&gt;Node1 -->
<g id="edge1" class="edge">
<title>Node2&#45;&gt;Node1</title>
<path fill="none" stroke="#9a32cd" stroke-dasharray="5,2" d="M694.1602,-300.6249C697.8926,-298.8375 701.541,-296.9421 705,-294.9456 738.2756,-275.7399 769.0203,-241.2879 782.8339,-224.5699"/>
<polygon fill="#9a32cd" stroke="#9a32cd" points="692.4584,-297.5523 684.7696,-304.8416 695.3258,-303.9381 692.4584,-297.5523"/>
<text text-anchor="middle" x="738" y="-284.9456" font-family="Helvetica,sans-Serif" font-size="10.00" fill="#000000"> loxes</text>
</g>
<!-- Node3 -->
<g id="node3" class="node">
<title>Node3</title>
<g id="a_node3"><a xlink:href="classcom_1_1aworx_1_1lib_1_1config_1_1VariableDecl.html" target="_top" xlink:title="VariableDecl">
<polygon fill="#ffffff" stroke="#000000" points="472.5,-50.4456 472.5,-69.4456 543.5,-69.4456 543.5,-50.4456 472.5,-50.4456"/>
<text text-anchor="middle" x="508" y="-57.4456" font-family="Helvetica,sans-Serif" font-size="10.00" fill="#000000">VariableDecl</text>
</a>
</g>
</g>
<!-- Node3&#45;&gt;Node1 -->
<g id="edge2" class="edge">
<title>Node3&#45;&gt;Node1</title>
<path fill="none" stroke="#9a32cd" stroke-dasharray="5,2" d="M527.4107,-43.8383C539.8733,-34.5739 556.8815,-23.8299 574,-18.9456 629.9879,-2.9711 656.2906,12.9483 705,-18.9456 772.0869,-62.8728 786.8333,-172.208 789.8037,-205.3028"/>
<polygon fill="#9a32cd" stroke="#9a32cd" points="524.9505,-41.3175 519.2028,-50.2178 529.2463,-46.8444 524.9505,-41.3175"/>
<text text-anchor="middle" x="639.5" y="-131.9456" font-family="Helvetica,sans-Serif" font-size="10.00" fill="#000000"> AUTO_SIZES</text>
<text text-anchor="middle" x="639.5" y="-120.9456" font-family="Helvetica,sans-Serif" font-size="10.00" fill="#000000">CONSOLE_LIGHT_COLORS</text>
<text text-anchor="middle" x="639.5" y="-109.9456" font-family="Helvetica,sans-Serif" font-size="10.00" fill="#000000">FORMAT_MULTILINE</text>
<text text-anchor="middle" x="639.5" y="-98.9456" font-family="Helvetica,sans-Serif" font-size="10.00" fill="#000000">CONSOLE_TYPE</text>
<text text-anchor="middle" x="639.5" y="-87.9456" font-family="Helvetica,sans-Serif" font-size="10.00" fill="#000000">MAX_ELAPSED_TIME</text>
<text text-anchor="middle" x="639.5" y="-76.9456" font-family="Helvetica,sans-Serif" font-size="10.00" fill="#000000">USE_SYSTEM_OUT_PRINT</text>
<text text-anchor="middle" x="639.5" y="-65.9456" font-family="Helvetica,sans-Serif" font-size="10.00" fill="#000000">FORMAT</text>
<text text-anchor="middle" x="639.5" y="-54.9456" font-family="Helvetica,sans-Serif" font-size="10.00" fill="#000000">PREFIXES</text>
<text text-anchor="middle" x="639.5" y="-43.9456" font-family="Helvetica,sans-Serif" font-size="10.00" fill="#000000">DUMP_STATE_ON_EXIT</text>
<text text-anchor="middle" x="639.5" y="-32.9456" font-family="Helvetica,sans-Serif" font-size="10.00" fill="#000000">VERBOSITY</text>
<text text-anchor="middle" x="639.5" y="-21.9456" font-family="Helvetica,sans-Serif" font-size="10.00" fill="#000000">...</text>
</g>
<!-- Node4 -->
<g id="node4" class="node">
<title>Node4</title>
<g id="a_node4"><a xlink:href="classcom_1_1aworx_1_1lib_1_1strings_1_1AString.html" target="_top" xlink:title="AString">
<polygon fill="#ffffff" stroke="#000000" points="118,-182.4456 118,-201.4456 167,-201.4456 167,-182.4456 118,-182.4456"/>
<text text-anchor="middle" x="142.5" y="-189.4456" font-family="Helvetica,sans-Serif" font-size="10.00" fill="#000000">AString</text>
</a>
</g>
</g>
<!-- Node4&#45;&gt;Node1 -->
<g id="edge14" class="edge">
<title>Node4&#45;&gt;Node1</title>
<path fill="none" stroke="#9a32cd" stroke-dasharray="5,2" d="M177.2271,-185.8438C205.1581,-181.2599 245.4655,-175.3716 281,-172.9456 471.8226,-159.9177 702.4204,-198.5856 770.607,-211.1465"/>
<polygon fill="#9a32cd" stroke="#9a32cd" points="176.4496,-182.4251 167.164,-187.5268 177.6043,-189.3292 176.4496,-182.4251"/>
<text text-anchor="middle" x="508" y="-183.9456" font-family="Helvetica,sans-Serif" font-size="10.00" fill="#000000"> configCategoryName</text>
</g>
<!-- Node4&#45;&gt;Node3 -->
<g id="edge3" class="edge">
<title>Node4&#45;&gt;Node3</title>
<path fill="none" stroke="#9a32cd" stroke-dasharray="5,2" d="M150.6218,-172.6759C157.6409,-158.4001 169.1621,-139.6394 185,-128.9456 275.175,-68.0592 409.1268,-59.524 472.4181,-59.184"/>
<polygon fill="#9a32cd" stroke="#9a32cd" points="147.2883,-171.5492 146.3091,-182.0987 153.6534,-174.4624 147.2883,-171.5492"/>
<text text-anchor="middle" x="224" y="-131.9456" font-family="Helvetica,sans-Serif" font-size="10.00" fill="#000000"> categoryFallback</text>
</g>
<!-- Node6 -->
<g id="node6" class="node">
<title>Node6</title>
<g id="a_node6"><a xlink:href="classcom_1_1aworx_1_1lib_1_1config_1_1Configuration.html" target="_top" xlink:title="Configuration">
<polygon fill="#ffffff" stroke="#000000" points="602.5,-266.4456 602.5,-285.4456 676.5,-285.4456 676.5,-266.4456 602.5,-266.4456"/>
<text text-anchor="middle" x="639.5" y="-273.4456" font-family="Helvetica,sans-Serif" font-size="10.00" fill="#000000">Configuration</text>
</a>
</g>
</g>
<!-- Node4&#45;&gt;Node6 -->
<g id="edge11" class="edge">
<title>Node4&#45;&gt;Node6</title>
<path fill="none" stroke="#9a32cd" stroke-dasharray="5,2" d="M151.8986,-210.6878C170.742,-245.8748 216.8927,-320.8904 281,-349.9456 392.8977,-400.6609 454.8161,-391.6231 556,-321.9456 567.5755,-313.9745 562.6502,-304.2349 574,-295.9456 582.3535,-289.8447 592.594,-285.5807 602.4743,-282.6096"/>
<polygon fill="#9a32cd" stroke="#9a32cd" points="154.8463,-208.77 147.1257,-201.5145 148.6365,-212.001 154.8463,-208.77"/>
<text text-anchor="middle" x="361.5" y="-406.9456" font-family="Helvetica,sans-Serif" font-size="10.00" fill="#000000"> substitutionVariableStart</text>
<text text-anchor="middle" x="361.5" y="-395.9456" font-family="Helvetica,sans-Serif" font-size="10.00" fill="#000000">tmpConversion</text>
<text text-anchor="middle" x="361.5" y="-384.9456" font-family="Helvetica,sans-Serif" font-size="10.00" fill="#000000">substitutionVariableEnd</text>
</g>
<!-- Node9 -->
<g id="node9" class="node">
<title>Node9</title>
<g id="a_node9"><a xlink:href="classcom_1_1aworx_1_1lib_1_1strings_1_1NumberFormat.html" target="_top" xlink:title="NumberFormat">
<polygon fill="#ffffff" stroke="#000000" points="320.5,-182.4456 320.5,-201.4456 402.5,-201.4456 402.5,-182.4456 320.5,-182.4456"/>
<text text-anchor="middle" x="361.5" y="-189.4456" font-family="Helvetica,sans-Serif" font-size="10.00" fill="#000000">NumberFormat</text>
</a>
</g>
</g>
<!-- Node4&#45;&gt;Node9 -->
<g id="edge9" class="edge">
<title>Node4&#45;&gt;Node9</title>
<path fill="none" stroke="#9a32cd" stroke-dasharray="5,2" d="M177.4767,-191.9456C216.2932,-191.9456 278.8845,-191.9456 320.1107,-191.9456"/>
<polygon fill="#9a32cd" stroke="#9a32cd" points="177.1964,-188.4457 167.1964,-191.9456 177.1963,-195.4457 177.1964,-188.4457"/>
<text text-anchor="middle" x="224" y="-216.9456" font-family="Helvetica,sans-Serif" font-size="10.00" fill="#000000"> octLiteralPrefix</text>
<text text-anchor="middle" x="224" y="-205.9456" font-family="Helvetica,sans-Serif" font-size="10.00" fill="#000000">binLiteralPrefix</text>
<text text-anchor="middle" x="224" y="-194.9456" font-family="Helvetica,sans-Serif" font-size="10.00" fill="#000000">hexLiteralPrefix</text>
</g>
<!-- Node5 -->
<g id="node5" class="node">
<title>Node5</title>
<polygon fill="#ffffff" stroke="#bfbfbf" points="0,-298.4456 0,-317.4456 81,-317.4456 81,-298.4456 0,-298.4456"/>
<text text-anchor="middle" x="40.5" y="-305.4456" font-family="Helvetica,sans-Serif" font-size="10.00" fill="#000000">CharSequence</text>
</g>
<!-- Node5&#45;&gt;Node4 -->
<g id="edge4" class="edge">
<title>Node5&#45;&gt;Node4</title>
<path fill="none" stroke="#191970" d="M55.8791,-290.4557C77.7208,-265.6161 116.9744,-220.9747 134.1123,-201.4846"/>
<polygon fill="#191970" stroke="#191970" points="53.1715,-288.2346 49.1965,-298.0555 58.4283,-292.857 53.1715,-288.2346"/>
</g>
<!-- Node10 -->
<g id="node10" class="node">
<title>Node10</title>
<g id="a_node10"><a xlink:href="classcom_1_1aworx_1_1lib_1_1strings_1_1Substring.html" target="_top" xlink:title="Substring">
<polygon fill="#ffffff" stroke="#000000" points="195,-414.4456 195,-433.4456 253,-433.4456 253,-414.4456 195,-414.4456"/>
<text text-anchor="middle" x="224" y="-421.4456" font-family="Helvetica,sans-Serif" font-size="10.00" fill="#000000">Substring</text>
</a>
</g>
</g>
<!-- Node5&#45;&gt;Node10 -->
<g id="edge13" class="edge">
<title>Node5&#45;&gt;Node10</title>
<path fill="none" stroke="#191970" d="M64.3137,-322.9995C102.6417,-347.2287 176.9383,-394.1954 208.8432,-414.3642"/>
<polygon fill="#191970" stroke="#191970" points="66.1524,-320.0212 55.8295,-317.6362 62.412,-325.9381 66.1524,-320.0212"/>
</g>
<!-- Node6&#45;&gt;Node1 -->
<g id="edge5" class="edge">
<title>Node6&#45;&gt;Node1</title>
<path fill="none" stroke="#9a32cd" stroke-dasharray="5,2" d="M672.7383,-262.5182C702.8029,-250.3729 746.0569,-232.8995 770.9142,-222.8578"/>
<polygon fill="#9a32cd" stroke="#9a32cd" points="671.0548,-259.4235 663.0938,-266.4144 673.6768,-265.9139 671.0548,-259.4235"/>
<text text-anchor="middle" x="738" y="-243.9456" font-family="Helvetica,sans-Serif" font-size="10.00" fill="#000000"> config</text>
</g>
<!-- Node7 -->
<g id="node7" class="node">
<title>Node7</title>
<polygon fill="#ffffff" stroke="#bfbfbf" points="282.5,-309.9456 282.5,-339.9456 440.5,-339.9456 440.5,-309.9456 282.5,-309.9456"/>
<text text-anchor="start" x="290.5" y="-327.9456" font-family="Helvetica,sans-Serif" font-size="10.00" fill="#000000">ArrayList&lt; com.aworx.lib.config.</text>
<text text-anchor="middle" x="361.5" y="-316.9456" font-family="Helvetica,sans-Serif" font-size="10.00" fill="#000000">Configuration.PluginAndPrio &gt;</text>
</g>
<!-- Node7&#45;&gt;Node6 -->
<g id="edge6" class="edge">
<title>Node7&#45;&gt;Node6</title>
<path fill="none" stroke="#9a32cd" stroke-dasharray="5,2" d="M450.6423,-309.4532C483.7357,-303.678 521.5873,-297.0443 556,-290.9456 571.0827,-288.2726 587.6915,-285.2959 602.0971,-282.7033"/>
<polygon fill="#9a32cd" stroke="#9a32cd" points="449.7836,-306.0501 440.5338,-311.2164 450.9865,-312.946 449.7836,-306.0501"/>
<text text-anchor="middle" x="508" y="-309.9456" font-family="Helvetica,sans-Serif" font-size="10.00" fill="#000000"> plugins</text>
</g>
<!-- Node8 -->
<g id="node8" class="node">
<title>Node8</title>
<polygon fill="#ffffff" stroke="#bfbfbf" points="281,-260.9456 281,-290.9456 442,-290.9456 442,-260.9456 281,-260.9456"/>
<text text-anchor="start" x="289" y="-278.9456" font-family="Helvetica,sans-Serif" font-size="10.00" fill="#000000">ArrayList&lt; com.aworx.lib.strings.</text>
<text text-anchor="middle" x="361.5" y="-267.9456" font-family="Helvetica,sans-Serif" font-size="10.00" fill="#000000">AString &gt;</text>
</g>
<!-- Node8&#45;&gt;Node6 -->
<g id="edge7" class="edge">
<title>Node8&#45;&gt;Node6</title>
<path fill="none" stroke="#9a32cd" stroke-dasharray="5,2" d="M452.3222,-275.9456C503.2243,-275.9456 563.9631,-275.9456 602.1402,-275.9456"/>
<polygon fill="#9a32cd" stroke="#9a32cd" points="452.2826,-272.4457 442.2825,-275.9456 452.2825,-279.4457 452.2826,-272.4457"/>
<text text-anchor="middle" x="508" y="-278.9456" font-family="Helvetica,sans-Serif" font-size="10.00" fill="#000000"> trueValues</text>
</g>
<!-- Node9&#45;&gt;Node6 -->
<g id="edge8" class="edge">
<title>Node9&#45;&gt;Node6</title>
<path fill="none" stroke="#9a32cd" stroke-dasharray="5,2" d="M402.7146,-204.399C458.6653,-221.3049 557.4505,-251.1537 607.9101,-266.4005"/>
<polygon fill="#9a32cd" stroke="#9a32cd" points="403.7044,-201.0418 393.1195,-201.4997 401.6797,-207.7426 403.7044,-201.0418"/>
<text text-anchor="middle" x="508" y="-250.9456" font-family="Helvetica,sans-Serif" font-size="10.00" fill="#000000"> numberFormat</text>
</g>
<!-- Node9&#45;&gt;Node9 -->
<g id="edge10" class="edge">
<title>Node9&#45;&gt;Node9</title>
<path fill="none" stroke="#9a32cd" stroke-dasharray="5,2" d="M336.2025,-210.9748C337.5824,-216.0736 346.0149,-219.9456 361.5,-219.9456 385.6719,-219.9456 392.6591,-210.5109 382.4615,-201.7027"/>
<polygon fill="#9a32cd" stroke="#9a32cd" points="339.4728,-212.2438 340.5385,-201.7027 333.1319,-209.2785 339.4728,-212.2438"/>
<text text-anchor="middle" x="361.5" y="-233.9456" font-family="Helvetica,sans-Serif" font-size="10.00" fill="#000000"> global</text>
<text text-anchor="middle" x="361.5" y="-222.9456" font-family="Helvetica,sans-Serif" font-size="10.00" fill="#000000">computational</text>
</g>
<!-- Node10&#45;&gt;Node6 -->
<g id="edge12" class="edge">
<title>Node10&#45;&gt;Node6</title>
<path fill="none" stroke="#9a32cd" stroke-dasharray="5,2" d="M263.1396,-434.0483C332.8738,-449.4369 478.5465,-469.3207 556,-390.9456 586.2066,-360.3796 545.3151,-327.944 574,-295.9456 581.3016,-287.8006 591.8145,-282.9268 602.2876,-280.025"/>
<polygon fill="#9a32cd" stroke="#9a32cd" points="263.5495,-430.5515 253.0201,-431.7279 261.9849,-437.3744 263.5495,-430.5515"/>
<text text-anchor="middle" x="361.5" y="-472.9456" font-family="Helvetica,sans-Serif" font-size="10.00" fill="#000000"> tmpReplVarCategory</text>
<text text-anchor="middle" x="361.5" y="-461.9456" font-family="Helvetica,sans-Serif" font-size="10.00" fill="#000000">tmpReplVarName</text>
<text text-anchor="middle" x="361.5" y="-450.9456" font-family="Helvetica,sans-Serif" font-size="10.00" fill="#000000">tmpReplVarAll</text>
</g>
</g>
</svg>
