<?xml version="1.0" encoding="UTF-8" standalone="no"?>
<!DOCTYPE svg PUBLIC "-//W3C//DTD SVG 1.1//EN"
 "http://www.w3.org/Graphics/SVG/1.1/DTD/svg11.dtd">
<!-- Generated by graphviz version 2.40.1 (20161225.0304)
 -->
<!-- Title: Variable Pages: 1 -->
<svg width="735pt" height="339pt"
 viewBox="0.00 0.00 735.00 338.82" xmlns="http://www.w3.org/2000/svg" xmlns:xlink="http://www.w3.org/1999/xlink">
<g id="graph0" class="graph" transform="scale(1 1) rotate(0) translate(4 334.8248)">
<title>Variable</title>
<polygon fill="#ffffff" stroke="transparent" points="-4,4 -4,-334.8248 731,-334.8248 731,4 -4,4"/>
<!-- Node1 -->
<g id="node1" class="node">
<title>Node1</title>
<polygon fill="#bfbfbf" stroke="#000000" points="676,-169.8248 676,-188.8248 727,-188.8248 727,-169.8248 676,-169.8248"/>
<text text-anchor="middle" x="701.5" y="-176.8248" font-family="Helvetica,sans-Serif" font-size="10.00" fill="#000000">Variable</text>
</g>
<!-- Node2 -->
<g id="node2" class="node">
<title>Node2</title>
<polygon fill="#ffffff" stroke="#bfbfbf" points="272,-300.3248 272,-330.3248 433,-330.3248 433,-300.3248 272,-300.3248"/>
<text text-anchor="start" x="280" y="-318.3248" font-family="Helvetica,sans-Serif" font-size="10.00" fill="#000000">ArrayList&lt; com.aworx.lib.strings.</text>
<text text-anchor="middle" x="352.5" y="-307.3248" font-family="Helvetica,sans-Serif" font-size="10.00" fill="#000000">AString &gt;</text>
</g>
<!-- Node2&#45;&gt;Node1 -->
<g id="edge1" class="edge">
<title>Node2&#45;&gt;Node1</title>
<path fill="none" stroke="#9a32cd" stroke-dasharray="5,2" d="M443.4158,-314.4227C468.1331,-312.0703 494.5412,-307.5641 518,-299.3248 591.2649,-273.5926 664.2882,-212.67 690.931,-188.9818"/>
<polygon fill="#9a32cd" stroke="#9a32cd" points="442.9777,-310.9472 433.3078,-315.2766 443.5669,-317.9223 442.9777,-310.9472"/>
<text text-anchor="middle" x="573" y="-295.3248" font-family="Helvetica,sans-Serif" font-size="10.00" fill="#000000"> values</text>
</g>
<!-- Node3 -->
<g id="node3" class="node">
<title>Node3</title>
<g id="a_node3"><a xlink:href="classcom_1_1aworx_1_1lib_1_1config_1_1Configuration.html" target="_top" xlink:title="Configuration">
<polygon fill="#ffffff" stroke="#000000" points="536,-169.8248 536,-188.8248 610,-188.8248 610,-169.8248 536,-169.8248"/>
<text text-anchor="middle" x="573" y="-176.8248" font-family="Helvetica,sans-Serif" font-size="10.00" fill="#000000">Configuration</text>
</a>
</g>
</g>
<!-- Node2&#45;&gt;Node3 -->
<g id="edge4" class="edge">
<title>Node2&#45;&gt;Node3</title>
<path fill="none" stroke="#9a32cd" stroke-dasharray="5,2" d="M415.169,-297.4347C458.3147,-284.7483 509.3607,-268.8619 518,-262.3248 544.1912,-242.507 561.8012,-206.3864 569.1404,-189.0789"/>
<polygon fill="#9a32cd" stroke="#9a32cd" points="414.1518,-294.0855 405.5369,-300.2528 416.1174,-300.8039 414.1518,-294.0855"/>
<text text-anchor="middle" x="484.5" y="-289.3248" font-family="Helvetica,sans-Serif" font-size="10.00" fill="#000000"> trueValues</text>
</g>
<!-- Node3&#45;&gt;Node1 -->
<g id="edge2" class="edge">
<title>Node3&#45;&gt;Node1</title>
<path fill="none" stroke="#9a32cd" stroke-dasharray="5,2" d="M620.3381,-179.3248C639.1097,-179.3248 659.9549,-179.3248 675.8194,-179.3248"/>
<polygon fill="#9a32cd" stroke="#9a32cd" points="620.1676,-175.8249 610.1675,-179.3248 620.1675,-182.8249 620.1676,-175.8249"/>
<text text-anchor="middle" x="643" y="-182.3248" font-family="Helvetica,sans-Serif" font-size="10.00" fill="#000000"> config</text>
</g>
<!-- Node4 -->
<g id="node4" class="node">
<title>Node4</title>
<polygon fill="#ffffff" stroke="#bfbfbf" points="273.5,-112.3248 273.5,-142.3248 431.5,-142.3248 431.5,-112.3248 273.5,-112.3248"/>
<text text-anchor="start" x="281.5" y="-130.3248" font-family="Helvetica,sans-Serif" font-size="10.00" fill="#000000">ArrayList&lt; com.aworx.lib.config.</text>
<text text-anchor="middle" x="352.5" y="-119.3248" font-family="Helvetica,sans-Serif" font-size="10.00" fill="#000000">Configuration.PluginAndPrio &gt;</text>
</g>
<!-- Node4&#45;&gt;Node3 -->
<g id="edge3" class="edge">
<title>Node4&#45;&gt;Node3</title>
<path fill="none" stroke="#9a32cd" stroke-dasharray="5,2" d="M441.9473,-137.4863C466.8744,-141.509 493.7569,-146.9801 518,-154.3248 530.8489,-158.2176 544.5989,-164.4676 555.1367,-169.7444"/>
<polygon fill="#9a32cd" stroke="#9a32cd" points="442.1863,-133.9816 431.7675,-135.905 441.1118,-140.8986 442.1863,-133.9816"/>
<text text-anchor="middle" x="484.5" y="-157.3248" font-family="Helvetica,sans-Serif" font-size="10.00" fill="#000000"> plugins</text>
</g>
<!-- Node5 -->
<g id="node5" class="node">
<title>Node5</title>
<g id="a_node5"><a xlink:href="classcom_1_1aworx_1_1lib_1_1strings_1_1NumberFormat.html" target="_top" xlink:title="NumberFormat">
<polygon fill="#ffffff" stroke="#000000" points="311.5,-33.8248 311.5,-52.8248 393.5,-52.8248 393.5,-33.8248 311.5,-33.8248"/>
<text text-anchor="middle" x="352.5" y="-40.8248" font-family="Helvetica,sans-Serif" font-size="10.00" fill="#000000">NumberFormat</text>
</a>
</g>
</g>
<!-- Node5&#45;&gt;Node3 -->
<g id="edge5" class="edge">
<title>Node5&#45;&gt;Node3</title>
<path fill="none" stroke="#9a32cd" stroke-dasharray="5,2" d="M387.4002,-56.7987C422.1734,-71.077 476.2574,-95.6427 518,-125.3248 536.5395,-138.5078 554.7101,-157.995 564.8262,-169.6002"/>
<polygon fill="#9a32cd" stroke="#9a32cd" points="388.2803,-53.3794 377.6974,-52.8761 385.6566,-59.8691 388.2803,-53.3794"/>
<text text-anchor="middle" x="484.5" y="-128.3248" font-family="Helvetica,sans-Serif" font-size="10.00" fill="#000000"> numberFormat</text>
</g>
<!-- Node5&#45;&gt;Node5 -->
<g id="edge8" class="edge">
<title>Node5&#45;&gt;Node5</title>
<path fill="none" stroke="#9a32cd" stroke-dasharray="5,2" d="M327.9465,-62.354C329.2858,-67.4528 337.4703,-71.3248 352.5,-71.3248 375.9609,-71.3248 382.7426,-61.8901 372.845,-53.0819"/>
<polygon fill="#9a32cd" stroke="#9a32cd" points="331.209,-63.6344 332.155,-53.0819 324.8348,-60.7413 331.209,-63.6344"/>
<text text-anchor="middle" x="352.5" y="-85.3248" font-family="Helvetica,sans-Serif" font-size="10.00" fill="#000000"> global</text>
<text text-anchor="middle" x="352.5" y="-74.3248" font-family="Helvetica,sans-Serif" font-size="10.00" fill="#000000">computational</text>
</g>
<!-- Node6 -->
<g id="node6" class="node">
<title>Node6</title>
<g id="a_node6"><a xlink:href="classcom_1_1aworx_1_1lib_1_1strings_1_1AString.html" target="_top" xlink:title="AString">
<polygon fill="#ffffff" stroke="#000000" points="118,-120.8248 118,-139.8248 167,-139.8248 167,-120.8248 118,-120.8248"/>
<text text-anchor="middle" x="142.5" y="-127.8248" font-family="Helvetica,sans-Serif" font-size="10.00" fill="#000000">AString</text>
</a>
</g>
</g>
<!-- Node6&#45;&gt;Node1 -->
<g id="edge12" class="edge">
<title>Node6&#45;&gt;Node1</title>
<path fill="none" stroke="#9a32cd" stroke-dasharray="5,2" d="M155.449,-112.6216C163.3383,-102.507 173.9946,-89.96 185,-80.3248 219.5983,-50.0342 227.8829,-37.296 272,-24.3248 376.9073,6.5197 415.9647,10.9909 518,-28.3248 598.8461,-59.476 670.5335,-141.1296 693.6859,-169.4681"/>
<polygon fill="#9a32cd" stroke="#9a32cd" points="152.5397,-110.6658 149.2891,-120.7497 158.1186,-114.8938 152.5397,-110.6658"/>
<text text-anchor="middle" x="484.5" y="-75.3248" font-family="Helvetica,sans-Serif" font-size="10.00" fill="#000000"> fullname</text>
<text text-anchor="middle" x="484.5" y="-64.3248" font-family="Helvetica,sans-Serif" font-size="10.00" fill="#000000">category</text>
<text text-anchor="middle" x="484.5" y="-53.3248" font-family="Helvetica,sans-Serif" font-size="10.00" fill="#000000">defaultValue</text>
<text text-anchor="middle" x="484.5" y="-42.3248" font-family="Helvetica,sans-Serif" font-size="10.00" fill="#000000">name</text>
<text text-anchor="middle" x="484.5" y="-31.3248" font-family="Helvetica,sans-Serif" font-size="10.00" fill="#000000">comments</text>
</g>
<!-- Node6&#45;&gt;Node3 -->
<g id="edge9" class="edge">
<title>Node6&#45;&gt;Node3</title>
<path fill="none" stroke="#9a32cd" stroke-dasharray="5,2" d="M169.4815,-144.0347C174.5311,-146.1231 179.8446,-148.0151 185,-149.3248 250.7276,-166.0229 451.9666,-174.9805 535.768,-178.0692"/>
<polygon fill="#9a32cd" stroke="#9a32cd" points="170.764,-140.7741 160.2071,-139.8782 167.9012,-147.162 170.764,-140.7741"/>
<text text-anchor="middle" x="352.5" y="-198.3248" font-family="Helvetica,sans-Serif" font-size="10.00" fill="#000000"> substitutionVariableStart</text>
<text text-anchor="middle" x="352.5" y="-187.3248" font-family="Helvetica,sans-Serif" font-size="10.00" fill="#000000">tmpConversion</text>
<text text-anchor="middle" x="352.5" y="-176.3248" font-family="Helvetica,sans-Serif" font-size="10.00" fill="#000000">substitutionVariableEnd</text>
</g>
<!-- Node6&#45;&gt;Node5 -->
<g id="edge6" class="edge">
<title>Node6&#45;&gt;Node5</title>
<path fill="none" stroke="#9a32cd" stroke-dasharray="5,2" d="M175.1826,-116.7849C218.0041,-99.0446 292.0318,-68.376 329.4398,-52.8784"/>
<polygon fill="#9a32cd" stroke="#9a32cd" points="173.675,-113.621 165.776,-120.6819 176.3542,-120.0879 173.675,-113.621"/>
<text text-anchor="middle" x="219.5" y="-137.3248" font-family="Helvetica,sans-Serif" font-size="10.00" fill="#000000"> octLiteralPrefix</text>
<text text-anchor="middle" x="219.5" y="-126.3248" font-family="Helvetica,sans-Serif" font-size="10.00" fill="#000000">binLiteralPrefix</text>
<text text-anchor="middle" x="219.5" y="-115.3248" font-family="Helvetica,sans-Serif" font-size="10.00" fill="#000000">hexLiteralPrefix</text>
</g>
<!-- Node7 -->
<g id="node7" class="node">
<title>Node7</title>
<polygon fill="#ffffff" stroke="#bfbfbf" points="0,-158.8248 0,-177.8248 81,-177.8248 81,-158.8248 0,-158.8248"/>
<text text-anchor="middle" x="40.5" y="-165.8248" font-family="Helvetica,sans-Serif" font-size="10.00" fill="#000000">CharSequence</text>
</g>
<!-- Node7&#45;&gt;Node6 -->
<g id="edge7" class="edge">
<title>Node7&#45;&gt;Node6</title>
<path fill="none" stroke="#191970" d="M75.9366,-155.123C89.7547,-149.9751 105.2586,-144.1991 117.8249,-139.5175"/>
<polygon fill="#191970" stroke="#191970" points="74.3878,-151.9649 66.2389,-158.7358 76.8316,-158.5245 74.3878,-151.9649"/>
</g>
<!-- Node8 -->
<g id="node8" class="node">
<title>Node8</title>
<g id="a_node8"><a xlink:href="classcom_1_1aworx_1_1lib_1_1strings_1_1Substring.html" target="_top" xlink:title="Substring">
<polygon fill="#ffffff" stroke="#000000" points="190.5,-216.8248 190.5,-235.8248 248.5,-235.8248 248.5,-216.8248 190.5,-216.8248"/>
<text text-anchor="middle" x="219.5" y="-223.8248" font-family="Helvetica,sans-Serif" font-size="10.00" fill="#000000">Substring</text>
</a>
</g>
</g>
<!-- Node7&#45;&gt;Node8 -->
<g id="edge11" class="edge">
<title>Node7&#45;&gt;Node8</title>
<path fill="none" stroke="#191970" d="M79.9502,-181.1076C113.3523,-191.9306 160.462,-207.1952 190.4918,-216.9255"/>
<polygon fill="#191970" stroke="#191970" points="80.6502,-177.6553 70.0582,-177.9024 78.4924,-184.3145 80.6502,-177.6553"/>
</g>
<!-- Node8&#45;&gt;Node3 -->
<g id="edge10" class="edge">
<title>Node8&#45;&gt;Node3</title>
<path fill="none" stroke="#9a32cd" stroke-dasharray="5,2" d="M258.751,-226.9615C301.7677,-227.0853 372.6904,-225.5997 433,-216.3248 472.1355,-210.3063 516.1079,-197.6884 544.1522,-188.8695"/>
<polygon fill="#9a32cd" stroke="#9a32cd" points="258.722,-223.4614 248.7012,-226.9016 258.6801,-230.4613 258.722,-223.4614"/>
<text text-anchor="middle" x="352.5" y="-252.3248" font-family="Helvetica,sans-Serif" font-size="10.00" fill="#000000"> tmpReplVarCategory</text>
<text text-anchor="middle" x="352.5" y="-241.3248" font-family="Helvetica,sans-Serif" font-size="10.00" fill="#000000">tmpReplVarName</text>
<text text-anchor="middle" x="352.5" y="-230.3248" font-family="Helvetica,sans-Serif" font-size="10.00" fill="#000000">tmpReplVarAll</text>
</g>
</g>
</svg>
