<?xml version="1.0" encoding="UTF-8" standalone="no"?>
<!DOCTYPE svg PUBLIC "-//W3C//DTD SVG 1.1//EN"
 "http://www.w3.org/Graphics/SVG/1.1/DTD/svg11.dtd">
<!-- Generated by graphviz version 2.40.1 (20161225.0304)
 -->
<!-- Title: ScopeStore&lt; T &gt; Pages: 1 -->
<svg width="662pt" height="287pt"
 viewBox="0.00 0.00 662.00 287.00" xmlns="http://www.w3.org/2000/svg" xmlns:xlink="http://www.w3.org/1999/xlink">
<g id="graph0" class="graph" transform="scale(1 1) rotate(0) translate(4 283)">
<title>ScopeStore&lt; T &gt;</title>
<polygon fill="#ffffff" stroke="transparent" points="-4,4 -4,-283 658,-283 658,4 -4,4"/>
<!-- Node1 -->
<g id="node1" class="node">
<title>Node1</title>
<g id="a_node1"><a xlink:title=" ">
<polygon fill="#bfbfbf" stroke="#000000" points="263.5,-.5 263.5,-19.5 355.5,-19.5 355.5,-.5 263.5,-.5"/>
<text text-anchor="middle" x="309.5" y="-7.5" font-family="Helvetica,sans-Serif" font-size="10.00" fill="#000000">ScopeStore&lt; T &gt;</text>
</a>
</g>
</g>
<!-- Node2 -->
<g id="node2" class="node">
<title>Node2</title>
<g id="a_node2"><a xlink:href="classcom_1_1aworx_1_1lox_1_1detail_1_1ScopeInfo.html" target="_top" xlink:title=" ">
<polygon fill="#ffffff" stroke="#000000" points="155,-84 155,-103 216,-103 216,-84 155,-84"/>
<text text-anchor="middle" x="185.5" y="-91" font-family="Helvetica,sans-Serif" font-size="10.00" fill="#000000">ScopeInfo</text>
</a>
</g>
</g>
<!-- Node2&#45;&gt;Node1 -->
<g id="edge1" class="edge">
<title>Node2&#45;&gt;Node1</title>
<path fill="none" stroke="#9a32cd" stroke-dasharray="5,2" d="M182.8127,-73.7324C182.3542,-61.9735 183.9537,-47.5368 192.5,-38 202.0481,-27.3453 234.8847,-20.0755 263.3492,-15.6191"/>
<polygon fill="#9a32cd" stroke="#9a32cd" points="179.3484,-74.2892 183.7232,-83.9385 186.3207,-73.6671 179.3484,-74.2892"/>
<text text-anchor="middle" x="215.5" y="-46.5" font-family="Helvetica,sans-Serif" font-size="10.00" fill="#000000"> scopeInfo</text>
</g>
<!-- Node3 -->
<g id="node3" class="node">
<title>Node3</title>
<g id="a_node3"><a xlink:title=" ">
<polygon fill="#ffffff" stroke="#bfbfbf" points="67.5,-201.5 67.5,-220.5 195.5,-220.5 195.5,-201.5 67.5,-201.5"/>
<text text-anchor="middle" x="131.5" y="-208.5" font-family="Helvetica,sans-Serif" font-size="10.00" fill="#000000">HashMap&lt; Long, String &gt;</text>
</a>
</g>
</g>
<!-- Node3&#45;&gt;Node2 -->
<g id="edge2" class="edge">
<title>Node3&#45;&gt;Node2</title>
<path fill="none" stroke="#9a32cd" stroke-dasharray="5,2" d="M127.3879,-191.5346C124.6574,-173.5833 123.3565,-146.7983 134.5,-127 140.4754,-116.3836 151.374,-108.5452 161.5667,-103.1312"/>
<polygon fill="#9a32cd" stroke="#9a32cd" points="123.9531,-192.2098 129.1743,-201.4288 130.8418,-190.966 123.9531,-192.2098"/>
<text text-anchor="middle" x="171.5" y="-152" font-family="Helvetica,sans-Serif" font-size="10.00" fill="#000000"> threadDictionary</text>
</g>
<!-- Node4 -->
<g id="node4" class="node">
<title>Node4</title>
<g id="a_node4"><a xlink:href="classcom_1_1aworx_1_1lib_1_1strings_1_1AString.html" target="_top" xlink:title=" ">
<polygon fill="#ffffff" stroke="#000000" points="0,-201.5 0,-220.5 49,-220.5 49,-201.5 0,-201.5"/>
<text text-anchor="middle" x="24.5" y="-208.5" font-family="Helvetica,sans-Serif" font-size="10.00" fill="#000000">AString</text>
</a>
</g>
</g>
<!-- Node4&#45;&gt;Node1 -->
<g id="edge9" class="edge">
<title>Node4&#45;&gt;Node1</title>
<path fill="none" stroke="#9a32cd" stroke-dasharray="5,2" d="M22.5325,-191.294C21.6261,-173.5523 22.4808,-147.2341 32.5,-127 46.7354,-98.2513 58.5657,-95.4264 85.5,-78 140.7779,-42.2353 215.7959,-24.5046 263.4343,-16.3056"/>
<polygon fill="#9a32cd" stroke="#9a32cd" points="19.0471,-191.6207 23.2809,-201.3328 26.0277,-191.1003 19.0471,-191.6207"/>
<text text-anchor="middle" x="115.5" y="-91" font-family="Helvetica,sans-Serif" font-size="10.00" fill="#000000"> languageKey</text>
</g>
<!-- Node4&#45;&gt;Node2 -->
<g id="edge3" class="edge">
<title>Node4&#45;&gt;Node2</title>
<path fill="none" stroke="#9a32cd" stroke-dasharray="5,2" d="M27.5677,-191.3162C31.5868,-172.1636 40.5016,-143.5936 59.5,-127 73.6498,-114.6413 122.4284,-104.2245 154.9771,-98.4277"/>
<polygon fill="#9a32cd" stroke="#9a32cd" points="24.0902,-190.8756 25.7278,-201.3431 30.9752,-192.139 24.0902,-190.8756"/>
<text text-anchor="middle" x="91" y="-174" font-family="Helvetica,sans-Serif" font-size="10.00" fill="#000000"> className</text>
<text text-anchor="middle" x="91" y="-163" font-family="Helvetica,sans-Serif" font-size="10.00" fill="#000000">threadName</text>
<text text-anchor="middle" x="91" y="-152" font-family="Helvetica,sans-Serif" font-size="10.00" fill="#000000">methodName</text>
<text text-anchor="middle" x="91" y="-141" font-family="Helvetica,sans-Serif" font-size="10.00" fill="#000000">packageName</text>
<text text-anchor="middle" x="91" y="-130" font-family="Helvetica,sans-Serif" font-size="10.00" fill="#000000">fileName</text>
</g>
<!-- Node5 -->
<g id="node5" class="node">
<title>Node5</title>
<g id="a_node5"><a xlink:title=" ">
<polygon fill="#ffffff" stroke="#bfbfbf" points="216.5,-259.5 216.5,-278.5 296.5,-278.5 296.5,-259.5 216.5,-259.5"/>
<text text-anchor="middle" x="256.5" y="-266.5" font-family="Helvetica,sans-Serif" font-size="10.00" fill="#000000">CharSequence</text>
</a>
</g>
</g>
<!-- Node5&#45;&gt;Node4 -->
<g id="edge4" class="edge">
<title>Node5&#45;&gt;Node4</title>
<path fill="none" stroke="#191970" d="M206.6133,-258.3163C166.4053,-249.4278 108.5256,-236.0057 58.5,-222 55.5129,-221.1637 52.3956,-220.2344 49.3129,-219.2805"/>
<polygon fill="#191970" stroke="#191970" points="205.9211,-261.7476 216.4393,-260.476 207.4238,-254.9108 205.9211,-261.7476"/>
</g>
<!-- Node10 -->
<g id="node10" class="node">
<title>Node10</title>
<g id="a_node10"><a xlink:href="classcom_1_1aworx_1_1lib_1_1strings_1_1Substring.html" target="_top" xlink:title=" ">
<polygon fill="#ffffff" stroke="#000000" points="459.5,-145 459.5,-164 517.5,-164 517.5,-145 459.5,-145"/>
<text text-anchor="middle" x="488.5" y="-152" font-family="Helvetica,sans-Serif" font-size="10.00" fill="#000000">Substring</text>
</a>
</g>
</g>
<!-- Node5&#45;&gt;Node10 -->
<g id="edge12" class="edge">
<title>Node5&#45;&gt;Node10</title>
<path fill="none" stroke="#191970" d="M306.9302,-263.8482C362.3007,-257.1878 446.4322,-243.7845 469.5,-222 485.609,-206.7871 488.4162,-179.0884 488.6931,-164.3462"/>
<polygon fill="#191970" stroke="#191970" points="306.4738,-260.3776 296.9473,-265.0139 307.2858,-267.3304 306.4738,-260.3776"/>
</g>
<!-- Node6 -->
<g id="node6" class="node">
<title>Node6</title>
<g id="a_node6"><a xlink:href="classcom_1_1aworx_1_1lib_1_1time_1_1Ticks.html" target="_top" xlink:title=" ">
<polygon fill="#ffffff" stroke="#000000" points="214,-201.5 214,-220.5 255,-220.5 255,-201.5 214,-201.5"/>
<text text-anchor="middle" x="234.5" y="-208.5" font-family="Helvetica,sans-Serif" font-size="10.00" fill="#000000">Ticks</text>
</a>
</g>
</g>
<!-- Node6&#45;&gt;Node2 -->
<g id="edge5" class="edge">
<title>Node6&#45;&gt;Node2</title>
<path fill="none" stroke="#9a32cd" stroke-dasharray="5,2" d="M231.7507,-191.286C228.7489,-173.7102 222.9165,-147.6462 212.5,-127 208.0586,-118.1968 201.0189,-109.5653 195.2413,-103.2689"/>
<polygon fill="#9a32cd" stroke="#9a32cd" points="228.3389,-192.1245 233.3343,-201.4678 235.2558,-191.0487 228.3389,-192.1245"/>
<text text-anchor="middle" x="256" y="-152" font-family="Helvetica,sans-Serif" font-size="10.00" fill="#000000"> timeStamp</text>
</g>
<!-- Node6&#45;&gt;Node6 -->
<g id="edge6" class="edge">
<title>Node6&#45;&gt;Node6</title>
<path fill="none" stroke="#9a32cd" stroke-dasharray="5,2" d="M265.316,-215.7618C269.9,-215.02 273,-213.4327 273,-211 273,-207.0078 264.6518,-205.2924 255.0969,-205.8538"/>
<polygon fill="#9a32cd" stroke="#9a32cd" points="264.9583,-212.2727 255.0969,-216.1462 265.2214,-219.2678 264.9583,-212.2727"/>
<text text-anchor="middle" x="313.5" y="-214" font-family="Helvetica,sans-Serif" font-size="10.00" fill="#000000"> tempTicks</text>
<text text-anchor="middle" x="313.5" y="-203" font-family="Helvetica,sans-Serif" font-size="10.00" fill="#000000">creationTimeTicks</text>
</g>
<!-- Node7 -->
<g id="node7" class="node">
<title>Node7</title>
<g id="a_node7"><a xlink:title=" ">
<polygon fill="#ffffff" stroke="#bfbfbf" points="372.5,-201.5 372.5,-220.5 460.5,-220.5 460.5,-201.5 372.5,-201.5"/>
<text text-anchor="middle" x="416.5" y="-208.5" font-family="Helvetica,sans-Serif" font-size="10.00" fill="#000000">Vector&lt; String &gt;</text>
</a>
</g>
</g>
<!-- Node7&#45;&gt;Node2 -->
<g id="edge7" class="edge">
<title>Node7&#45;&gt;Node2</title>
<path fill="none" stroke="#9a32cd" stroke-dasharray="5,2" d="M365.6216,-198.2829C354.1656,-194.1313 342.4611,-188.7863 332.5,-182 305.9268,-163.8964 312.2184,-144.8886 285.5,-127 264.1277,-112.6907 254.882,-117.1884 230.5,-109 224.8602,-107.106 218.8332,-105.0512 213.083,-103.076"/>
<polygon fill="#9a32cd" stroke="#9a32cd" points="364.5483,-201.6145 375.1425,-201.4949 366.786,-194.9818 364.5483,-201.6145"/>
<text text-anchor="middle" x="391.5" y="-152" font-family="Helvetica,sans-Serif" font-size="10.00" fill="#000000"> omittablePackagePrefixes</text>
</g>
<!-- Node8 -->
<g id="node8" class="node">
<title>Node8</title>
<g id="a_node8"><a xlink:title=" ">
<polygon fill="#ffffff" stroke="#bfbfbf" points="352.5,-84 352.5,-103 432.5,-103 432.5,-84 352.5,-84"/>
<text text-anchor="middle" x="392.5" y="-91" font-family="Helvetica,sans-Serif" font-size="10.00" fill="#000000">ArrayList&lt; T &gt;</text>
</a>
</g>
</g>
<!-- Node8&#45;&gt;Node1 -->
<g id="edge8" class="edge">
<title>Node8&#45;&gt;Node1</title>
<path fill="none" stroke="#9a32cd" stroke-dasharray="5,2" d="M375.8645,-76.7643C358.8685,-59.6659 333.0591,-33.7011 319.1658,-19.724"/>
<polygon fill="#9a32cd" stroke="#9a32cd" points="373.4467,-79.2966 382.9788,-83.9215 378.4113,-74.3617 373.4467,-79.2966"/>
<text text-anchor="middle" x="398.5" y="-46.5" font-family="Helvetica,sans-Serif" font-size="10.00" fill="#000000"> walkThreadValues</text>
</g>
<!-- Node9 -->
<g id="node9" class="node">
<title>Node9</title>
<g id="a_node9"><a xlink:href="enumcom_1_1aworx_1_1lox_1_1Scope.html" target="_top" xlink:title=" ">
<polygon fill="#ffffff" stroke="#000000" points="450.5,-84 450.5,-103 494.5,-103 494.5,-84 450.5,-84"/>
<text text-anchor="middle" x="472.5" y="-91" font-family="Helvetica,sans-Serif" font-size="10.00" fill="#000000">Scope</text>
</a>
</g>
</g>
<!-- Node9&#45;&gt;Node1 -->
<g id="edge10" class="edge">
<title>Node9&#45;&gt;Node1</title>
<path fill="none" stroke="#9a32cd" stroke-dasharray="5,2" d="M466.9915,-73.8444C462.5828,-61.7109 455.1681,-46.8268 443.5,-38 429.8058,-27.6405 388.8777,-20.0549 355.8233,-15.4123"/>
<polygon fill="#9a32cd" stroke="#9a32cd" points="463.7285,-75.1305 470.1234,-83.5777 470.392,-72.9863 463.7285,-75.1305"/>
<text text-anchor="middle" x="482" y="-46.5" font-family="Helvetica,sans-Serif" font-size="10.00" fill="#000000"> actScope</text>
</g>
<!-- Node10&#45;&gt;Node1 -->
<g id="edge11" class="edge">
<title>Node10&#45;&gt;Node1</title>
<path fill="none" stroke="#9a32cd" stroke-dasharray="5,2" d="M472.2329,-138.137C466.9856,-133.7916 460.8681,-129.592 454.5,-127 414.6032,-110.7611 290.51,-140.8415 261.5,-109 236.5435,-81.6077 276.9771,-38.8781 298.026,-19.7877"/>
<polygon fill="#9a32cd" stroke="#9a32cd" points="469.9117,-140.7569 479.6732,-144.8755 474.6107,-135.5685 469.9117,-140.7569"/>
<text text-anchor="middle" x="302.5" y="-91" font-family="Helvetica,sans-Serif" font-size="10.00" fill="#000000"> languageKeySubs</text>
</g>
<!-- Node11 -->
<g id="node11" class="node">
<title>Node11</title>
<g id="a_node11"><a xlink:title=" ">
<polygon fill="#ffffff" stroke="#bfbfbf" points="513,-78.5 513,-108.5 654,-108.5 654,-78.5 513,-78.5"/>
<text text-anchor="start" x="521" y="-96.5" font-family="Helvetica,sans-Serif" font-size="10.00" fill="#000000">HashMap&lt; Thread, ArrayList</text>
<text text-anchor="middle" x="583.5" y="-85.5" font-family="Helvetica,sans-Serif" font-size="10.00" fill="#000000">&lt; T &gt; &gt;</text>
</a>
</g>
</g>
<!-- Node11&#45;&gt;Node1 -->
<g id="edge13" class="edge">
<title>Node11&#45;&gt;Node1</title>
<path fill="none" stroke="#9a32cd" stroke-dasharray="5,2" d="M560.3587,-71.6111C546.4095,-59.7056 527.674,-45.8464 508.5,-38 481.6187,-26.9997 405.5255,-18.4641 355.6053,-13.8405"/>
<polygon fill="#9a32cd" stroke="#9a32cd" points="558.17,-74.3474 567.9858,-78.3349 562.799,-69.0965 558.17,-74.3474"/>
<text text-anchor="middle" x="583.5" y="-52" font-family="Helvetica,sans-Serif" font-size="10.00" fill="#000000"> threadInnerStore</text>
<text text-anchor="middle" x="583.5" y="-41" font-family="Helvetica,sans-Serif" font-size="10.00" fill="#000000">threadOuterStore</text>
</g>
</g>
</svg>
