<?xml version="1.0" encoding="UTF-8" standalone="no"?>
<!DOCTYPE svg PUBLIC "-//W3C//DTD SVG 1.1//EN"
 "http://www.w3.org/Graphics/SVG/1.1/DTD/svg11.dtd">
<!-- Generated by graphviz version 2.40.1 (20161225.0304)
 -->
<!-- Title: MetaInfo Pages: 1 -->
<svg width="801pt" height="243pt"
 viewBox="0.00 0.00 801.00 243.00" xmlns="http://www.w3.org/2000/svg" xmlns:xlink="http://www.w3.org/1999/xlink">
<g id="graph0" class="graph" transform="scale(1 1) rotate(0) translate(4 239)">
<title>MetaInfo</title>
<polygon fill="#ffffff" stroke="transparent" points="-4,4 -4,-239 797,-239 797,4 -4,4"/>
<!-- Node1 -->
<g id="node1" class="node">
<title>Node1</title>
<polygon fill="#bfbfbf" stroke="#000000" points="289.5,-.5 289.5,-19.5 344.5,-19.5 344.5,-.5 289.5,-.5"/>
<text text-anchor="middle" x="317" y="-7.5" font-family="Helvetica,sans-Serif" font-size="10.00" fill="#000000">MetaInfo</text>
</g>
<!-- Node2 -->
<g id="node2" class="node">
<title>Node2</title>
<g id="a_node2"><a xlink:href="classcom_1_1aworx_1_1lib_1_1time_1_1TickSpan.html" target="_top" xlink:title="TickSpan">
<polygon fill="#ffffff" stroke="#000000" points="0,-79.5 0,-98.5 58,-98.5 58,-79.5 0,-79.5"/>
<text text-anchor="middle" x="29" y="-86.5" font-family="Helvetica,sans-Serif" font-size="10.00" fill="#000000">TickSpan</text>
</a>
</g>
</g>
<!-- Node2&#45;&gt;Node1 -->
<g id="edge1" class="edge">
<title>Node2&#45;&gt;Node1</title>
<path fill="none" stroke="#9a32cd" stroke-dasharray="5,2" d="M40.7325,-70.7141C49.1057,-59.3013 61.4374,-45.4143 76,-38 112.6921,-19.3188 233.8927,-12.8408 289.1296,-10.8222"/>
<polygon fill="#9a32cd" stroke="#9a32cd" points="37.6991,-68.9474 34.899,-79.1656 43.46,-72.9239 37.6991,-68.9474"/>
<text text-anchor="middle" x="94.5" y="-46.5" font-family="Helvetica,sans-Serif" font-size="10.00" fill="#000000"> elapsed</text>
</g>
<!-- Node3 -->
<g id="node3" class="node">
<title>Node3</title>
<polygon fill="#ffffff" stroke="#bfbfbf" points="76.5,-79.5 76.5,-98.5 149.5,-98.5 149.5,-79.5 76.5,-79.5"/>
<text text-anchor="middle" x="113" y="-86.5" font-family="Helvetica,sans-Serif" font-size="10.00" fill="#000000">FieldPosition</text>
</g>
<!-- Node3&#45;&gt;Node1 -->
<g id="edge2" class="edge">
<title>Node3&#45;&gt;Node1</title>
<path fill="none" stroke="#9a32cd" stroke-dasharray="5,2" d="M114.2427,-69.2015C115.993,-58.3999 119.9957,-45.6976 129,-38 152.5777,-17.8438 242.9153,-12.1915 289.2436,-10.6108"/>
<polygon fill="#9a32cd" stroke="#9a32cd" points="110.7265,-69.1593 113.1188,-79.4805 117.6851,-69.9202 110.7265,-69.1593"/>
<text text-anchor="middle" x="167" y="-46.5" font-family="Helvetica,sans-Serif" font-size="10.00" fill="#000000"> fieldPositionZero</text>
</g>
<!-- Node4 -->
<g id="node4" class="node">
<title>Node4</title>
<g id="a_node4"><a xlink:href="classcom_1_1aworx_1_1lib_1_1strings_1_1util_1_1Tokenizer.html" target="_top" xlink:title="Tokenizer">
<polygon fill="#ffffff" stroke="#000000" points="167.5,-79.5 167.5,-98.5 226.5,-98.5 226.5,-79.5 167.5,-79.5"/>
<text text-anchor="middle" x="197" y="-86.5" font-family="Helvetica,sans-Serif" font-size="10.00" fill="#000000">Tokenizer</text>
</a>
</g>
</g>
<!-- Node4&#45;&gt;Node1 -->
<g id="edge3" class="edge">
<title>Node4&#45;&gt;Node1</title>
<path fill="none" stroke="#9a32cd" stroke-dasharray="5,2" d="M204.1772,-69.8341C209.0996,-59.0839 216.6299,-46.2216 227,-38 244.9518,-23.7675 270.1853,-16.7278 289.3673,-13.2703"/>
<polygon fill="#9a32cd" stroke="#9a32cd" points="200.8598,-68.6962 200.2492,-79.2734 207.3226,-71.3856 200.8598,-68.6962"/>
<text text-anchor="middle" x="238" y="-46.5" font-family="Helvetica,sans-Serif" font-size="10.00" fill="#000000"> tTok</text>
</g>
<!-- Node5 -->
<g id="node5" class="node">
<title>Node5</title>
<g id="a_node5"><a xlink:href="classcom_1_1aworx_1_1lib_1_1strings_1_1Substring.html" target="_top" xlink:title="Substring">
<polygon fill="#ffffff" stroke="#000000" points="172,-158.5 172,-177.5 230,-177.5 230,-158.5 172,-158.5"/>
<text text-anchor="middle" x="201" y="-165.5" font-family="Helvetica,sans-Serif" font-size="10.00" fill="#000000">Substring</text>
</a>
</g>
</g>
<!-- Node5&#45;&gt;Node4 -->
<g id="edge4" class="edge">
<title>Node5&#45;&gt;Node4</title>
<path fill="none" stroke="#9a32cd" stroke-dasharray="5,2" d="M199.9891,-148.0339C199.1918,-132.2875 198.1142,-111.0062 197.4945,-98.7662"/>
<polygon fill="#9a32cd" stroke="#9a32cd" points="196.5082,-148.5029 200.5095,-158.313 203.4993,-148.1488 196.5082,-148.5029"/>
<text text-anchor="middle" x="212.5" y="-132" font-family="Helvetica,sans-Serif" font-size="10.00" fill="#000000"> rest</text>
<text text-anchor="middle" x="212.5" y="-121" font-family="Helvetica,sans-Serif" font-size="10.00" fill="#000000">actual</text>
</g>
<!-- Node6 -->
<g id="node6" class="node">
<title>Node6</title>
<polygon fill="#ffffff" stroke="#bfbfbf" points="190,-215.5 190,-234.5 270,-234.5 270,-215.5 190,-215.5"/>
<text text-anchor="middle" x="230" y="-222.5" font-family="Helvetica,sans-Serif" font-size="10.00" fill="#000000">CharSequence</text>
</g>
<!-- Node6&#45;&gt;Node5 -->
<g id="edge5" class="edge">
<title>Node6&#45;&gt;Node5</title>
<path fill="none" stroke="#191970" d="M220.4085,-206.1477C215.5284,-196.5558 209.8073,-185.3109 205.8468,-177.5265"/>
<polygon fill="#191970" stroke="#191970" points="217.4264,-208.0051 225.0805,-215.3307 223.6654,-204.8308 217.4264,-208.0051"/>
</g>
<!-- Node7 -->
<g id="node7" class="node">
<title>Node7</title>
<g id="a_node7"><a xlink:href="classcom_1_1aworx_1_1lib_1_1strings_1_1AString.html" target="_top" xlink:title="AString">
<polygon fill="#ffffff" stroke="#000000" points="235.5,-119.5 235.5,-138.5 284.5,-138.5 284.5,-119.5 235.5,-119.5"/>
<text text-anchor="middle" x="260" y="-126.5" font-family="Helvetica,sans-Serif" font-size="10.00" fill="#000000">AString</text>
</a>
</g>
</g>
<!-- Node6&#45;&gt;Node7 -->
<g id="edge7" class="edge">
<title>Node6&#45;&gt;Node7</title>
<path fill="none" stroke="#191970" d="M236.0395,-205.6735C242.4019,-185.3138 252.1596,-154.0893 257.0259,-138.5172"/>
<polygon fill="#191970" stroke="#191970" points="232.6283,-204.8554 232.9862,-215.4442 239.3097,-206.9434 232.6283,-204.8554"/>
</g>
<!-- Node7&#45;&gt;Node1 -->
<g id="edge6" class="edge">
<title>Node7&#45;&gt;Node1</title>
<path fill="none" stroke="#9a32cd" stroke-dasharray="5,2" d="M263.4357,-109.4138C265.523,-99.7152 268.6407,-87.9768 273,-78 282.7964,-55.5799 299.6027,-32.2228 309.3642,-19.56"/>
<polygon fill="#9a32cd" stroke="#9a32cd" points="259.9877,-108.8089 261.5054,-119.2945 266.8579,-110.1511 259.9877,-108.8089"/>
<text text-anchor="middle" x="297.5" y="-92" font-family="Helvetica,sans-Serif" font-size="10.00" fill="#000000"> format</text>
<text text-anchor="middle" x="297.5" y="-81" font-family="Helvetica,sans-Serif" font-size="10.00" fill="#000000">tmpAString</text>
</g>
<!-- Node8 -->
<g id="node8" class="node">
<title>Node8</title>
<polygon fill="#ffffff" stroke="#bfbfbf" points="330.5,-79.5 330.5,-98.5 427.5,-98.5 427.5,-79.5 330.5,-79.5"/>
<text text-anchor="middle" x="379" y="-86.5" font-family="Helvetica,sans-Serif" font-size="10.00" fill="#000000">GregorianCalendar</text>
</g>
<!-- Node8&#45;&gt;Node1 -->
<g id="edge8" class="edge">
<title>Node8&#45;&gt;Node1</title>
<path fill="none" stroke="#9a32cd" stroke-dasharray="5,2" d="M365.0981,-71.2862C352.6107,-55.3749 334.737,-32.6004 324.6646,-19.7662"/>
<polygon fill="#9a32cd" stroke="#9a32cd" points="362.4704,-73.6072 371.3976,-79.313 367.9771,-69.2855 362.4704,-73.6072"/>
<text text-anchor="middle" x="396.5" y="-46.5" font-family="Helvetica,sans-Serif" font-size="10.00" fill="#000000"> callerDateTimeCal</text>
</g>
<!-- Node9 -->
<g id="node9" class="node">
<title>Node9</title>
<polygon fill="#ffffff" stroke="#bfbfbf" points="446,-79.5 446,-98.5 544,-98.5 544,-79.5 446,-79.5"/>
<text text-anchor="middle" x="495" y="-86.5" font-family="Helvetica,sans-Serif" font-size="10.00" fill="#000000">SimpleDateFormat</text>
</g>
<!-- Node9&#45;&gt;Node1 -->
<g id="edge9" class="edge">
<title>Node9&#45;&gt;Node1</title>
<path fill="none" stroke="#9a32cd" stroke-dasharray="5,2" d="M481.2923,-71.5702C471.517,-60.32 457.4159,-46.2874 442,-38 411.1488,-21.4147 370.9449,-14.6387 344.574,-11.8797"/>
<polygon fill="#9a32cd" stroke="#9a32cd" points="478.7908,-74.0363 487.8744,-79.4897 484.1742,-69.562 478.7908,-74.0363"/>
<text text-anchor="middle" x="514.5" y="-52" font-family="Helvetica,sans-Serif" font-size="10.00" fill="#000000"> dateFormatter</text>
<text text-anchor="middle" x="514.5" y="-41" font-family="Helvetica,sans-Serif" font-size="10.00" fill="#000000">timeOfDayFormatter</text>
</g>
<!-- Node10 -->
<g id="node10" class="node">
<title>Node10</title>
<g id="a_node10"><a xlink:href="classcom_1_1aworx_1_1lib_1_1time_1_1Ticks.html" target="_top" xlink:title="Ticks">
<polygon fill="#ffffff" stroke="#000000" points="569.5,-79.5 569.5,-98.5 610.5,-98.5 610.5,-79.5 569.5,-79.5"/>
<text text-anchor="middle" x="590" y="-86.5" font-family="Helvetica,sans-Serif" font-size="10.00" fill="#000000">Ticks</text>
</a>
</g>
</g>
<!-- Node10&#45;&gt;Node1 -->
<g id="edge10" class="edge">
<title>Node10&#45;&gt;Node1</title>
<path fill="none" stroke="#9a32cd" stroke-dasharray="5,2" d="M584.668,-69.5188C580.5897,-58.4449 573.7878,-45.3584 563,-38 545.2451,-25.8893 405.0857,-15.6117 344.6156,-11.6948"/>
<polygon fill="#9a32cd" stroke="#9a32cd" points="581.4055,-70.8078 587.7848,-79.2669 588.073,-68.676 581.4055,-70.8078"/>
<text text-anchor="middle" x="618" y="-52" font-family="Helvetica,sans-Serif" font-size="10.00" fill="#000000"> elapsedTime</text>
<text text-anchor="middle" x="618" y="-41" font-family="Helvetica,sans-Serif" font-size="10.00" fill="#000000">maxElapsedTime</text>
</g>
<!-- Node10&#45;&gt;Node10 -->
<g id="edge11" class="edge">
<title>Node10&#45;&gt;Node10</title>
<path fill="none" stroke="#9a32cd" stroke-dasharray="5,2" d="M620.816,-95.8026C625.4,-94.7429 628.5,-92.4753 628.5,-89 628.5,-83.2969 620.1518,-80.8463 610.5969,-81.6483"/>
<polygon fill="#9a32cd" stroke="#9a32cd" points="620.3947,-92.3201 610.5969,-96.3517 620.7703,-99.31 620.3947,-92.3201"/>
<text text-anchor="middle" x="669" y="-92" font-family="Helvetica,sans-Serif" font-size="10.00" fill="#000000"> tempTicks</text>
<text text-anchor="middle" x="669" y="-81" font-family="Helvetica,sans-Serif" font-size="10.00" fill="#000000">creationTimeTicks</text>
</g>
<!-- Node11 -->
<g id="node11" class="node">
<title>Node11</title>
<polygon fill="#ffffff" stroke="#bfbfbf" points="727.5,-79.5 727.5,-98.5 764.5,-98.5 764.5,-79.5 727.5,-79.5"/>
<text text-anchor="middle" x="746" y="-86.5" font-family="Helvetica,sans-Serif" font-size="10.00" fill="#000000">Date</text>
</g>
<!-- Node11&#45;&gt;Node1 -->
<g id="edge12" class="edge">
<title>Node11&#45;&gt;Node1</title>
<path fill="none" stroke="#9a32cd" stroke-dasharray="5,2" d="M725.6634,-73.3023C708.9978,-61.371 684.2824,-45.7345 660,-38 601.4348,-19.3456 415.4473,-12.5901 344.6891,-10.6567"/>
<polygon fill="#9a32cd" stroke="#9a32cd" points="723.9136,-76.3605 734.04,-79.4759 728.0666,-70.7255 723.9136,-76.3605"/>
<text text-anchor="middle" x="748.5" y="-46.5" font-family="Helvetica,sans-Serif" font-size="10.00" fill="#000000"> callerDateTimeDate</text>
</g>
</g>
</svg>
