<?xml version="1.0" encoding="UTF-8" standalone="no"?>
<!DOCTYPE svg PUBLIC "-//W3C//DTD SVG 1.1//EN"
 "http://www.w3.org/Graphics/SVG/1.1/DTD/svg11.dtd">
<!-- Generated by graphviz version 2.40.1 (20161225.0304)
 -->
<!-- Title: SmartLock Pages: 1 -->
<svg width="410pt" height="308pt"
 viewBox="0.00 0.00 409.50 308.00" xmlns="http://www.w3.org/2000/svg" xmlns:xlink="http://www.w3.org/1999/xlink">
<g id="graph0" class="graph" transform="scale(1 1) rotate(0) translate(4 304)">
<title>SmartLock</title>
<polygon fill="#ffffff" stroke="transparent" points="-4,4 -4,-304 405.5,-304 405.5,4 -4,4"/>
<!-- Node0 -->
<g id="node1" class="node">
<title>Node0</title>
<g id="a_node1"><a xlink:title=" ">
<polygon fill="#bfbfbf" stroke="#000000" points="139,-224.5 139,-243.5 203,-243.5 203,-224.5 139,-224.5"/>
<text text-anchor="middle" x="171" y="-231.5" font-family="Helvetica,sans-Serif" font-size="10.00" fill="#000000">SmartLock</text>
</a>
</g>
</g>
<!-- Node2 -->
<g id="node3" class="node">
<title>Node2</title>
<g id="a_node3"><a xlink:href="classcom_1_1aworx_1_1lox_1_1detail_1_1Logger.html" target="_top" xlink:title=" ">
<polygon fill="#ffffff" stroke="#000000" points="148,-168.5 148,-187.5 194,-187.5 194,-168.5 148,-168.5"/>
<text text-anchor="middle" x="171" y="-175.5" font-family="Helvetica,sans-Serif" font-size="10.00" fill="#000000">Logger</text>
</a>
</g>
</g>
<!-- Node0&#45;&gt;Node2 -->
<g id="edge2" class="edge">
<title>Node0&#45;&gt;Node2</title>
<path fill="none" stroke="#191970" d="M171,-214.1575C171,-205.155 171,-194.9199 171,-187.6427"/>
<polygon fill="#191970" stroke="#191970" points="167.5001,-214.2455 171,-224.2455 174.5001,-214.2456 167.5001,-214.2455"/>
</g>
<!-- Node1 -->
<g id="node2" class="node">
<title>Node1</title>
<g id="a_node2"><a xlink:href="classcom_1_1aworx_1_1lib_1_1threads_1_1ThreadLock.html" target="_top" xlink:title=" ">
<polygon fill="#ffffff" stroke="#000000" points="137,-280.5 137,-299.5 205,-299.5 205,-280.5 137,-280.5"/>
<text text-anchor="middle" x="171" y="-287.5" font-family="Helvetica,sans-Serif" font-size="10.00" fill="#000000">ThreadLock</text>
</a>
</g>
</g>
<!-- Node1&#45;&gt;Node0 -->
<g id="edge1" class="edge">
<title>Node1&#45;&gt;Node0</title>
<path fill="none" stroke="#191970" d="M171,-270.1575C171,-261.155 171,-250.9199 171,-243.6427"/>
<polygon fill="#191970" stroke="#191970" points="167.5001,-270.2455 171,-280.2455 174.5001,-270.2456 167.5001,-270.2455"/>
</g>
<!-- Node3 -->
<g id="node4" class="node">
<title>Node3</title>
<g id="a_node4"><a xlink:href="classcom_1_1aworx_1_1lox_1_1detail_1_1textlogger_1_1TextLogger.html" target="_top" xlink:title=" ">
<polygon fill="#ffffff" stroke="#000000" points="138.5,-112.5 138.5,-131.5 203.5,-131.5 203.5,-112.5 138.5,-112.5"/>
<text text-anchor="middle" x="171" y="-119.5" font-family="Helvetica,sans-Serif" font-size="10.00" fill="#000000">TextLogger</text>
</a>
</g>
</g>
<!-- Node2&#45;&gt;Node3 -->
<g id="edge3" class="edge">
<title>Node2&#45;&gt;Node3</title>
<path fill="none" stroke="#191970" d="M171,-158.1575C171,-149.155 171,-138.9199 171,-131.6427"/>
<polygon fill="#191970" stroke="#191970" points="167.5001,-158.2455 171,-168.2455 174.5001,-158.2456 167.5001,-158.2455"/>
</g>
<!-- Node4 -->
<g id="node5" class="node">
<title>Node4</title>
<g id="a_node5"><a xlink:href="classcom_1_1aworx_1_1lox_1_1android_1_1AndroidLogCatLogger.html" target="_top" xlink:title=" ">
<polygon fill="#ffffff" stroke="#000000" points="0,-56.5 0,-75.5 110,-75.5 110,-56.5 0,-56.5"/>
<text text-anchor="middle" x="55" y="-63.5" font-family="Helvetica,sans-Serif" font-size="10.00" fill="#000000">AndroidLogCatLogger</text>
</a>
</g>
</g>
<!-- Node3&#45;&gt;Node4 -->
<g id="edge4" class="edge">
<title>Node3&#45;&gt;Node4</title>
<path fill="none" stroke="#191970" d="M141.9463,-107.9741C120.9435,-97.8348 93.1309,-84.408 74.6809,-75.5011"/>
<polygon fill="#191970" stroke="#191970" points="140.5317,-111.1776 151.0589,-112.3733 143.575,-104.8738 140.5317,-111.1776"/>
</g>
<!-- Node5 -->
<g id="node6" class="node">
<title>Node5</title>
<g id="a_node6"><a xlink:href="classcom_1_1aworx_1_1lox_1_1detail_1_1textlogger_1_1PlainTextLogger.html" target="_top" xlink:title=" ">
<polygon fill="#ffffff" stroke="#000000" points="128,-56.5 128,-75.5 214,-75.5 214,-56.5 128,-56.5"/>
<text text-anchor="middle" x="171" y="-63.5" font-family="Helvetica,sans-Serif" font-size="10.00" fill="#000000">PlainTextLogger</text>
</a>
</g>
</g>
<!-- Node3&#45;&gt;Node5 -->
<g id="edge5" class="edge">
<title>Node3&#45;&gt;Node5</title>
<path fill="none" stroke="#191970" d="M171,-102.1575C171,-93.155 171,-82.9199 171,-75.6427"/>
<polygon fill="#191970" stroke="#191970" points="167.5001,-102.2455 171,-112.2455 174.5001,-102.2456 167.5001,-102.2455"/>
</g>
<!-- Node9 -->
<g id="node10" class="node">
<title>Node9</title>
<g id="a_node10"><a xlink:href="classcom_1_1aworx_1_1lox_1_1loggers_1_1AnsiLogger.html" target="_top" xlink:title=" ">
<polygon fill="#ffffff" stroke="#000000" points="289.5,-56.5 289.5,-75.5 354.5,-75.5 354.5,-56.5 289.5,-56.5"/>
<text text-anchor="middle" x="322" y="-63.5" font-family="Helvetica,sans-Serif" font-size="10.00" fill="#000000">AnsiLogger</text>
</a>
</g>
</g>
<!-- Node3&#45;&gt;Node9 -->
<g id="edge9" class="edge">
<title>Node3&#45;&gt;Node9</title>
<path fill="none" stroke="#191970" d="M206.623,-108.7888C234.1938,-98.5639 271.7149,-84.6488 296.3809,-75.5011"/>
<polygon fill="#191970" stroke="#191970" points="205.1168,-105.6144 196.9578,-112.3733 207.5509,-112.1776 205.1168,-105.6144"/>
</g>
<!-- Node6 -->
<g id="node7" class="node">
<title>Node6</title>
<g id="a_node7"><a xlink:href="classcom_1_1aworx_1_1lox_1_1loggers_1_1ConsoleLogger.html" target="_top" xlink:title=" ">
<polygon fill="#ffffff" stroke="#000000" points="3.5,-.5 3.5,-19.5 84.5,-19.5 84.5,-.5 3.5,-.5"/>
<text text-anchor="middle" x="44" y="-7.5" font-family="Helvetica,sans-Serif" font-size="10.00" fill="#000000">ConsoleLogger</text>
</a>
</g>
</g>
<!-- Node5&#45;&gt;Node6 -->
<g id="edge6" class="edge">
<title>Node5&#45;&gt;Node6</title>
<path fill="none" stroke="#191970" d="M139.8108,-52.2473C116.7463,-42.0771 85.9288,-28.4883 65.5472,-19.5011"/>
<polygon fill="#191970" stroke="#191970" points="138.6058,-55.5411 149.1679,-56.3733 141.4301,-49.1361 138.6058,-55.5411"/>
</g>
<!-- Node7 -->
<g id="node8" class="node">
<title>Node7</title>
<g id="a_node8"><a xlink:href="classcom_1_1aworx_1_1lox_1_1loggers_1_1MemoryLogger.html" target="_top" xlink:title=" ">
<polygon fill="#ffffff" stroke="#000000" points="102.5,-.5 102.5,-19.5 183.5,-19.5 183.5,-.5 102.5,-.5"/>
<text text-anchor="middle" x="143" y="-7.5" font-family="Helvetica,sans-Serif" font-size="10.00" fill="#000000">MemoryLogger</text>
</a>
</g>
</g>
<!-- Node5&#45;&gt;Node7 -->
<g id="edge7" class="edge">
<title>Node5&#45;&gt;Node7</title>
<path fill="none" stroke="#191970" d="M161.5219,-47.0437C156.9165,-37.8331 151.5799,-27.1598 147.8213,-19.6427"/>
<polygon fill="#191970" stroke="#191970" points="158.5201,-48.8665 166.1228,-56.2455 164.7811,-45.736 158.5201,-48.8665"/>
</g>
<!-- Node8 -->
<g id="node9" class="node">
<title>Node8</title>
<g id="a_node9"><a xlink:href="classcom_1_1aworx_1_1lox_1_1loggers_1_1TextFileLogger.html" target="_top" xlink:title=" ">
<polygon fill="#ffffff" stroke="#000000" points="202,-.5 202,-19.5 282,-19.5 282,-.5 202,-.5"/>
<text text-anchor="middle" x="242" y="-7.5" font-family="Helvetica,sans-Serif" font-size="10.00" fill="#000000">TextFileLogger</text>
</a>
</g>
</g>
<!-- Node5&#45;&gt;Node8 -->
<g id="edge8" class="edge">
<title>Node5&#45;&gt;Node8</title>
<path fill="none" stroke="#191970" d="M191.377,-49.928C203.7871,-40.1397 219.23,-27.9595 229.7745,-19.6427"/>
<polygon fill="#191970" stroke="#191970" points="189.0514,-47.3046 183.3673,-56.2455 193.3864,-52.8007 189.0514,-47.3046"/>
</g>
<!-- Node10 -->
<g id="node11" class="node">
<title>Node10</title>
<g id="a_node11"><a xlink:href="classcom_1_1aworx_1_1lox_1_1loggers_1_1AnsiConsoleLogger.html" target="_top" xlink:title=" ">
<polygon fill="#ffffff" stroke="#000000" points="300.5,-.5 300.5,-19.5 401.5,-19.5 401.5,-.5 300.5,-.5"/>
<text text-anchor="middle" x="351" y="-7.5" font-family="Helvetica,sans-Serif" font-size="10.00" fill="#000000">AnsiConsoleLogger</text>
</a>
</g>
</g>
<!-- Node9&#45;&gt;Node10 -->
<g id="edge10" class="edge">
<title>Node9&#45;&gt;Node10</title>
<path fill="none" stroke="#191970" d="M331.6647,-47.3372C336.4687,-38.0605 342.0723,-27.2398 346.0065,-19.6427"/>
<polygon fill="#191970" stroke="#191970" points="328.542,-45.7561 327.0514,-56.2455 334.758,-48.9751 328.542,-45.7561"/>
</g>
</g>
</svg>
