<?xml version="1.0" encoding="UTF-8" standalone="no"?>
<!DOCTYPE svg PUBLIC "-//W3C//DTD SVG 1.1//EN"
 "http://www.w3.org/Graphics/SVG/1.1/DTD/svg11.dtd">
<!-- Generated by graphviz version 2.40.1 (20161225.0304)
 -->
<!-- Title: IniFile Pages: 1 -->
<svg width="402pt" height="388pt"
 viewBox="0.00 0.00 402.00 388.00" xmlns="http://www.w3.org/2000/svg" xmlns:xlink="http://www.w3.org/1999/xlink">
<g id="graph0" class="graph" transform="scale(1 1) rotate(0) translate(4 384)">
<title>IniFile</title>
<polygon fill="#ffffff" stroke="transparent" points="-4,4 -4,-384 398,-384 398,4 -4,4"/>
<!-- Node3 -->
<g id="node1" class="node">
<title>Node3</title>
<polygon fill="#bfbfbf" stroke="#000000" points="188.5,-.5 188.5,-19.5 231.5,-19.5 231.5,-.5 188.5,-.5"/>
<text text-anchor="middle" x="210" y="-7.5" font-family="Helvetica,sans-Serif" font-size="10.00" fill="#000000">IniFile</text>
</g>
<!-- Node4 -->
<g id="node2" class="node">
<title>Node4</title>
<g id="a_node2"><a xlink:href="classcom_1_1aworx_1_1lib_1_1config_1_1InMemoryPlugin.html" target="_top" xlink:title="InMemoryPlugin">
<polygon fill="#ffffff" stroke="#000000" points="92.5,-67.5 92.5,-86.5 179.5,-86.5 179.5,-67.5 92.5,-67.5"/>
<text text-anchor="middle" x="136" y="-74.5" font-family="Helvetica,sans-Serif" font-size="10.00" fill="#000000">InMemoryPlugin</text>
</a>
</g>
</g>
<!-- Node4&#45;&gt;Node3 -->
<g id="edge1" class="edge">
<title>Node4&#45;&gt;Node3</title>
<path fill="none" stroke="#191970" d="M154.2901,-60.44C168.485,-47.5879 187.6661,-30.2212 199.4173,-19.5817"/>
<polygon fill="#191970" stroke="#191970" points="151.6663,-58.0942 146.6024,-67.4005 156.3645,-63.2833 151.6663,-58.0942"/>
</g>
<!-- Node5 -->
<g id="node3" class="node">
<title>Node5</title>
<g id="a_node3"><a xlink:href="classcom_1_1aworx_1_1lib_1_1config_1_1ConfigurationPlugin.html" target="_top" xlink:title="ConfigurationPlugin">
<polygon fill="#ffffff" stroke="#000000" points="85.5,-141 85.5,-160 186.5,-160 186.5,-141 85.5,-141"/>
<text text-anchor="middle" x="136" y="-148" font-family="Helvetica,sans-Serif" font-size="10.00" fill="#000000">ConfigurationPlugin</text>
</a>
</g>
</g>
<!-- Node5&#45;&gt;Node4 -->
<g id="edge2" class="edge">
<title>Node5&#45;&gt;Node4</title>
<path fill="none" stroke="#191970" d="M136,-130.6616C136,-116.481 136,-98.004 136,-86.8458"/>
<polygon fill="#191970" stroke="#191970" points="132.5001,-130.8911 136,-140.8912 139.5001,-130.8912 132.5001,-130.8911"/>
</g>
<!-- Node6 -->
<g id="node4" class="node">
<title>Node6</title>
<g id="a_node4"><a xlink:href="classcom_1_1aworx_1_1lib_1_1config_1_1XTernalizer.html" target="_top" xlink:title="XTernalizer">
<polygon fill="#ffffff" stroke="#000000" points="87.5,-225.5 87.5,-244.5 152.5,-244.5 152.5,-225.5 87.5,-225.5"/>
<text text-anchor="middle" x="120" y="-232.5" font-family="Helvetica,sans-Serif" font-size="10.00" fill="#000000">XTernalizer</text>
</a>
</g>
</g>
<!-- Node6&#45;&gt;Node5 -->
<g id="edge3" class="edge">
<title>Node6&#45;&gt;Node5</title>
<path fill="none" stroke="#9a32cd" stroke-dasharray="5,2" d="M123.7639,-215.1221C127.0464,-197.7864 131.6661,-173.3886 134.186,-160.0802"/>
<polygon fill="#9a32cd" stroke="#9a32cd" points="120.257,-214.8302 121.8354,-225.3068 127.1348,-216.1325 120.257,-214.8302"/>
<text text-anchor="middle" x="179" y="-199" font-family="Helvetica,sans-Serif" font-size="10.00" fill="#000000"> stringConverter</text>
<text text-anchor="middle" x="179" y="-188" font-family="Helvetica,sans-Serif" font-size="10.00" fill="#000000">defaultStringConverter</text>
</g>
<!-- Node7 -->
<g id="node5" class="node">
<title>Node7</title>
<g id="a_node5"><a xlink:href="classcom_1_1aworx_1_1lib_1_1strings_1_1AString.html" target="_top" xlink:title="AString">
<polygon fill="#ffffff" stroke="#000000" points="23.5,-303.5 23.5,-322.5 72.5,-322.5 72.5,-303.5 23.5,-303.5"/>
<text text-anchor="middle" x="48" y="-310.5" font-family="Helvetica,sans-Serif" font-size="10.00" fill="#000000">AString</text>
</a>
</g>
</g>
<!-- Node7&#45;&gt;Node3 -->
<g id="edge11" class="edge">
<title>Node7&#45;&gt;Node3</title>
<path fill="none" stroke="#9a32cd" stroke-dasharray="5,2" d="M29.7163,-295.7799C16.1516,-281.0767 0,-258.612 0,-235 0,-235 0,-235 0,-77 0,-37.7743 134.6626,-18.4072 188.3173,-12.2474"/>
<polygon fill="#9a32cd" stroke="#9a32cd" points="27.3781,-298.3952 36.8672,-303.1078 32.3881,-293.5063 27.3781,-298.3952"/>
<text text-anchor="middle" x="33.5" y="-159" font-family="Helvetica,sans-Serif" font-size="10.00" fill="#000000"> fileComments</text>
<text text-anchor="middle" x="33.5" y="-148" font-family="Helvetica,sans-Serif" font-size="10.00" fill="#000000">fileName</text>
<text text-anchor="middle" x="33.5" y="-137" font-family="Helvetica,sans-Serif" font-size="10.00" fill="#000000">commentChars</text>
</g>
<!-- Node7&#45;&gt;Node6 -->
<g id="edge4" class="edge">
<title>Node7&#45;&gt;Node6</title>
<path fill="none" stroke="#9a32cd" stroke-dasharray="5,2" d="M58.3309,-294.7368C64.4732,-284.7498 72.8408,-272.5126 82,-263 88.707,-256.0343 97.3045,-249.5411 104.6249,-244.5648"/>
<polygon fill="#9a32cd" stroke="#9a32cd" points="55.2496,-293.0713 53.1706,-303.4602 61.2744,-296.6353 55.2496,-293.0713"/>
<text text-anchor="middle" x="99" y="-271.5" font-family="Helvetica,sans-Serif" font-size="10.00" fill="#000000"> tmpAS</text>
</g>
<!-- Node8 -->
<g id="node6" class="node">
<title>Node8</title>
<polygon fill="#ffffff" stroke="#bfbfbf" points="42.5,-360.5 42.5,-379.5 123.5,-379.5 123.5,-360.5 42.5,-360.5"/>
<text text-anchor="middle" x="83" y="-367.5" font-family="Helvetica,sans-Serif" font-size="10.00" fill="#000000">CharSequence</text>
</g>
<!-- Node8&#45;&gt;Node7 -->
<g id="edge5" class="edge">
<title>Node8&#45;&gt;Node7</title>
<path fill="none" stroke="#191970" d="M71.7946,-351.7512C65.8259,-342.0308 58.7301,-330.4748 53.8496,-322.5265"/>
<polygon fill="#191970" stroke="#191970" points="68.8474,-353.6404 77.0627,-360.3307 74.8127,-349.9776 68.8474,-353.6404"/>
</g>
<!-- Node9 -->
<g id="node7" class="node">
<title>Node9</title>
<g id="a_node7"><a xlink:href="classcom_1_1aworx_1_1lib_1_1strings_1_1Substring.html" target="_top" xlink:title="Substring">
<polygon fill="#ffffff" stroke="#000000" points="91,-303.5 91,-322.5 149,-322.5 149,-303.5 91,-303.5"/>
<text text-anchor="middle" x="120" y="-310.5" font-family="Helvetica,sans-Serif" font-size="10.00" fill="#000000">Substring</text>
</a>
</g>
</g>
<!-- Node8&#45;&gt;Node9 -->
<g id="edge7" class="edge">
<title>Node8&#45;&gt;Node9</title>
<path fill="none" stroke="#191970" d="M94.8457,-351.7512C101.1554,-342.0308 108.6567,-330.4748 113.8161,-322.5265"/>
<polygon fill="#191970" stroke="#191970" points="91.7856,-350.0373 89.2765,-360.3307 97.657,-353.8486 91.7856,-350.0373"/>
</g>
<!-- Node9&#45;&gt;Node6 -->
<g id="edge6" class="edge">
<title>Node9&#45;&gt;Node6</title>
<path fill="none" stroke="#9a32cd" stroke-dasharray="5,2" d="M120,-293.2866C120,-277.7395 120,-256.7276 120,-244.6426"/>
<polygon fill="#9a32cd" stroke="#9a32cd" points="116.5001,-293.4356 120,-303.4357 123.5001,-293.4357 116.5001,-293.4356"/>
<text text-anchor="middle" x="144" y="-277" font-family="Helvetica,sans-Serif" font-size="10.00" fill="#000000"> tmpSubs2</text>
<text text-anchor="middle" x="144" y="-266" font-family="Helvetica,sans-Serif" font-size="10.00" fill="#000000">tmpSubs</text>
</g>
<!-- Node10 -->
<g id="node8" class="node">
<title>Node10</title>
<polygon fill="#ffffff" stroke="#bfbfbf" points="205,-135.5 205,-165.5 363,-165.5 363,-135.5 205,-135.5"/>
<text text-anchor="start" x="213" y="-153.5" font-family="Helvetica,sans-Serif" font-size="10.00" fill="#000000">ArrayList&lt; com.aworx.lib.config.</text>
<text text-anchor="middle" x="284" y="-142.5" font-family="Helvetica,sans-Serif" font-size="10.00" fill="#000000">InMemoryPlugin.Section &gt;</text>
</g>
<!-- Node10&#45;&gt;Node4 -->
<g id="edge8" class="edge">
<title>Node10&#45;&gt;Node4</title>
<path fill="none" stroke="#9a32cd" stroke-dasharray="5,2" d="M244.6906,-130.9781C215.8881,-116.6741 178.0231,-97.8696 155.4316,-86.6501"/>
<polygon fill="#9a32cd" stroke="#9a32cd" points="243.1797,-134.1356 253.6929,-135.4488 246.2933,-127.8661 243.1797,-134.1356"/>
<text text-anchor="middle" x="234" y="-108" font-family="Helvetica,sans-Serif" font-size="10.00" fill="#000000"> sections</text>
</g>
<!-- Node11 -->
<g id="node9" class="node">
<title>Node11</title>
<g id="a_node9"><a xlink:href="enumcom_1_1aworx_1_1lib_1_1config_1_1IniFile_1_1Status.html" target="_top" xlink:title="IniFile.Status">
<polygon fill="#ffffff" stroke="#000000" points="198,-67.5 198,-86.5 272,-86.5 272,-67.5 198,-67.5"/>
<text text-anchor="middle" x="235" y="-74.5" font-family="Helvetica,sans-Serif" font-size="10.00" fill="#000000">IniFile.Status</text>
</a>
</g>
</g>
<!-- Node11&#45;&gt;Node3 -->
<g id="edge9" class="edge">
<title>Node11&#45;&gt;Node3</title>
<path fill="none" stroke="#9a32cd" stroke-dasharray="5,2" d="M227.8593,-57.8628C223.1882,-45.3444 217.2855,-29.5252 213.5752,-19.5817"/>
<polygon fill="#9a32cd" stroke="#9a32cd" points="224.643,-59.2551 231.4181,-67.4005 231.2013,-56.8079 224.643,-59.2551"/>
<text text-anchor="middle" x="247" y="-41" font-family="Helvetica,sans-Serif" font-size="10.00" fill="#000000"> lastStatus</text>
</g>
<!-- Node12 -->
<g id="node10" class="node">
<title>Node12</title>
<polygon fill="#ffffff" stroke="#bfbfbf" points="290,-67.5 290,-86.5 394,-86.5 394,-67.5 290,-67.5"/>
<text text-anchor="middle" x="342" y="-74.5" font-family="Helvetica,sans-Serif" font-size="10.00" fill="#000000">ArrayList&lt; Integer &gt;</text>
</g>
<!-- Node12&#45;&gt;Node3 -->
<g id="edge10" class="edge">
<title>Node12&#45;&gt;Node3</title>
<path fill="none" stroke="#9a32cd" stroke-dasharray="5,2" d="M318.295,-62.264C305.6475,-54.6427 289.6998,-45.4106 275,-38 260.8464,-30.8647 244.452,-23.8107 231.6691,-18.5678"/>
<polygon fill="#9a32cd" stroke="#9a32cd" points="316.4952,-65.2658 326.8561,-67.4798 320.1372,-59.2879 316.4952,-65.2658"/>
<text text-anchor="middle" x="340" y="-41" font-family="Helvetica,sans-Serif" font-size="10.00" fill="#000000"> linesWithReadErrors</text>
</g>
</g>
</svg>
