<?xml version="1.0" encoding="UTF-8" standalone="no"?>
<!DOCTYPE svg PUBLIC "-//W3C//DTD SVG 1.1//EN"
 "http://www.w3.org/Graphics/SVG/1.1/DTD/svg11.dtd">
<!-- Generated by graphviz version 2.38.0 (20140413.2041)
 -->
<!-- Title: TextLogger Pages: 1 -->
<svg width="1480pt" height="863pt"
 viewBox="0.00 0.00 1480.00 863.00" xmlns="http://www.w3.org/2000/svg" xmlns:xlink="http://www.w3.org/1999/xlink">
<g id="graph0" class="graph" transform="scale(1 1) rotate(0) translate(4 859)">
<title>TextLogger</title>
<polygon fill="white" stroke="none" points="-4,4 -4,-859 1476,-859 1476,4 -4,4"/>
<!-- Node1 -->
<g id="node1" class="node"><title>Node1</title>
<polygon fill="#bfbfbf" stroke="black" points="838,-596.5 838,-615.5 903,-615.5 903,-596.5 838,-596.5"/>
<text text-anchor="middle" x="870.5" y="-603.5" font-family="Helvetica,sans-Serif" font-size="10.00">TextLogger</text>
</g>
<!-- Node7 -->
<g id="node7" class="node"><title>Node7</title>
<g id="a_node7"><a xlink:href="classcom_1_1aworx_1_1lox_1_1Log.html" target="_top" xlink:title="Log">
<polygon fill="white" stroke="black" points="1099.5,-274.5 1099.5,-293.5 1131.5,-293.5 1131.5,-274.5 1099.5,-274.5"/>
<text text-anchor="middle" x="1115.5" y="-281.5" font-family="Helvetica,sans-Serif" font-size="10.00">Log</text>
</a>
</g>
</g>
<!-- Node1&#45;&gt;Node7 -->
<g id="edge27" class="edge"><title>Node1&#45;&gt;Node7</title>
<path fill="none" stroke="#9a32cd" stroke-dasharray="5,2" d="M884.852,-588.308C929.589,-529.027 1073.29,-338.607 1107.26,-293.599"/>
<polygon fill="#9a32cd" stroke="#9a32cd" points="882.003,-586.273 878.773,-596.363 887.59,-590.489 882.003,-586.273"/>
<text text-anchor="middle" x="978.5" y="-523" font-family="Helvetica,sans-Serif" font-size="10.00"> debugLogger</text>
</g>
<!-- Node2 -->
<g id="node2" class="node"><title>Node2</title>
<g id="a_node2"><a xlink:href="classcom_1_1aworx_1_1lox_1_1core_1_1Logger.html" target="_top" xlink:title="Logger">
<polygon fill="white" stroke="black" points="1426,-572.5 1426,-591.5 1472,-591.5 1472,-572.5 1426,-572.5"/>
<text text-anchor="middle" x="1449" y="-579.5" font-family="Helvetica,sans-Serif" font-size="10.00">Logger</text>
</a>
</g>
</g>
<!-- Node2&#45;&gt;Node1 -->
<g id="edge1" class="edge"><title>Node2&#45;&gt;Node1</title>
<path fill="none" stroke="midnightblue" d="M1415.39,-584.543C1412.89,-584.708 1410.41,-584.863 1408,-585 1216.52,-595.924 986.278,-602.854 903.266,-605.153"/>
<polygon fill="midnightblue" stroke="midnightblue" points="1415.86,-588.019 1425.58,-583.823 1415.36,-581.036 1415.86,-588.019"/>
</g>
<!-- Node3 -->
<g id="node3" class="node"><title>Node3</title>
<g id="a_node3"><a xlink:href="classcom_1_1aworx_1_1lib_1_1strings_1_1AString.html" target="_top" xlink:title="AString">
<polygon fill="white" stroke="black" points="124.5,-559.5 124.5,-578.5 173.5,-578.5 173.5,-559.5 124.5,-559.5"/>
<text text-anchor="middle" x="149" y="-566.5" font-family="Helvetica,sans-Serif" font-size="10.00">AString</text>
</a>
</g>
</g>
<!-- Node3&#45;&gt;Node1 -->
<g id="edge43" class="edge"><title>Node3&#45;&gt;Node1</title>
<path fill="none" stroke="#9a32cd" stroke-dasharray="5,2" d="M151.161,-588.858C154.016,-619.015 163.885,-676.205 198,-708 225.604,-733.726 242.652,-724.624 280,-730 475.978,-758.21 541.767,-784.026 725,-709 781.735,-685.769 837.581,-636.416 859.637,-615.59"/>
<polygon fill="#9a32cd" stroke="#9a32cd" points="154.639,-588.431 150.375,-578.733 147.66,-588.974 154.639,-588.431"/>
<text text-anchor="middle" x="549" y="-762" font-family="Helvetica,sans-Serif" font-size="10.00"> logBuf</text>
</g>
<!-- Node3&#45;&gt;Node2 -->
<g id="edge2" class="edge"><title>Node3&#45;&gt;Node2</title>
<path fill="none" stroke="#9a32cd" stroke-dasharray="5,2" d="M149.223,-588.942C148.749,-628.458 153.125,-717.579 198,-772 252.03,-837.523 290.074,-844 375,-844 375,-844 375,-844 1312,-844 1428.08,-844 1445.21,-638.904 1447.62,-591.635"/>
<polygon fill="#9a32cd" stroke="#9a32cd" points="152.726,-588.853 149.471,-578.771 145.728,-588.683 152.726,-588.853"/>
<text text-anchor="middle" x="870.5" y="-847" font-family="Helvetica,sans-Serif" font-size="10.00"> tmpDomainName</text>
</g>
<!-- Node6 -->
<g id="node6" class="node"><title>Node6</title>
<g id="a_node6"><a xlink:href="classcom_1_1aworx_1_1lox_1_1core_1_1Domain.html" target="_top" xlink:title="Domain">
<polygon fill="white" stroke="black" points="1286,-529.5 1286,-548.5 1336,-548.5 1336,-529.5 1286,-529.5"/>
<text text-anchor="middle" x="1311" y="-536.5" font-family="Helvetica,sans-Serif" font-size="10.00">Domain</text>
</a>
</g>
</g>
<!-- Node3&#45;&gt;Node6 -->
<g id="edge28" class="edge"><title>Node3&#45;&gt;Node6</title>
<path fill="none" stroke="#9a32cd" stroke-dasharray="5,2" d="M150.282,-588.58C151.821,-622.414 159.774,-692.114 198,-733 255.233,-794.216 291.197,-798 375,-798 375,-798 375,-798 1116.5,-798 1243.63,-798 1297.27,-595.252 1307.95,-548.525"/>
<polygon fill="#9a32cd" stroke="#9a32cd" points="153.78,-588.461 149.971,-578.575 146.783,-588.678 153.78,-588.461"/>
<text text-anchor="middle" x="774" y="-801" font-family="Helvetica,sans-Serif" font-size="10.00"> name</text>
</g>
<!-- Node8 -->
<g id="node8" class="node"><title>Node8</title>
<g id="a_node8"><a xlink:href="classcom_1_1aworx_1_1lox_1_1LogBuf.html" target="_top" xlink:title="LogBuf">
<polygon fill="white" stroke="black" points="525.5,-434.5 525.5,-453.5 572.5,-453.5 572.5,-434.5 525.5,-434.5"/>
<text text-anchor="middle" x="549" y="-441.5" font-family="Helvetica,sans-Serif" font-size="10.00">LogBuf</text>
</a>
</g>
</g>
<!-- Node3&#45;&gt;Node8 -->
<g id="edge9" class="edge"><title>Node3&#45;&gt;Node8</title>
<path fill="none" stroke="#9a32cd" stroke-dasharray="5,2" d="M165.231,-551.749C187.648,-527.697 232.082,-484.915 280,-466 365.544,-432.232 478.134,-437.407 525.488,-441.586"/>
<polygon fill="#9a32cd" stroke="#9a32cd" points="162.402,-549.658 158.251,-559.406 167.575,-554.374 162.402,-549.658"/>
<text text-anchor="middle" x="230" y="-521" font-family="Helvetica,sans-Serif" font-size="10.00"> b</text>
</g>
<!-- Node11 -->
<g id="node11" class="node"><title>Node11</title>
<g id="a_node11"><a xlink:href="classcom_1_1aworx_1_1lox_1_1Lox.html" target="_top" xlink:title="Lox">
<polygon fill="white" stroke="black" points="659.5,-186.5 659.5,-205.5 691.5,-205.5 691.5,-186.5 659.5,-186.5"/>
<text text-anchor="middle" x="675.5" y="-193.5" font-family="Helvetica,sans-Serif" font-size="10.00">Lox</text>
</a>
</g>
</g>
<!-- Node3&#45;&gt;Node11 -->
<g id="edge17" class="edge"><title>Node3&#45;&gt;Node11</title>
<path fill="none" stroke="#9a32cd" stroke-dasharray="5,2" d="M157.769,-550.057C164.434,-533.213 173.901,-507.794 180,-485 191.559,-441.798 169.007,-420.05 198,-386 318.476,-244.512 453.538,-407.318 608,-304 644.605,-279.515 664.603,-227.37 671.601,-205.728"/>
<polygon fill="#9a32cd" stroke="#9a32cd" points="154.521,-548.752 154.037,-559.336 161.016,-551.364 154.521,-548.752"/>
<text text-anchor="middle" x="376" y="-366" font-family="Helvetica,sans-Serif" font-size="10.00"> logBuf</text>
<text text-anchor="middle" x="376" y="-355" font-family="Helvetica,sans-Serif" font-size="10.00">tempAS</text>
<text text-anchor="middle" x="376" y="-344" font-family="Helvetica,sans-Serif" font-size="10.00">resDomain</text>
</g>
<!-- Node18 -->
<g id="node18" class="node"><title>Node18</title>
<g id="a_node18"><a xlink:href="classcom_1_1aworx_1_1lox_1_1core_1_1CallerInfo.html" target="_top" xlink:title="CallerInfo">
<polygon fill="white" stroke="black" points="346.5,-154.5 346.5,-173.5 405.5,-173.5 405.5,-154.5 346.5,-154.5"/>
<text text-anchor="middle" x="376" y="-161.5" font-family="Helvetica,sans-Serif" font-size="10.00">CallerInfo</text>
</a>
</g>
</g>
<!-- Node3&#45;&gt;Node18 -->
<g id="edge22" class="edge"><title>Node3&#45;&gt;Node18</title>
<path fill="none" stroke="#9a32cd" stroke-dasharray="5,2" d="M158.292,-550.183C165.294,-533.422 174.964,-508.052 180,-485 199.616,-395.213 162.462,-363.755 198,-279 219.698,-227.252 231.604,-211.398 280,-183 300.164,-171.168 326.439,-166.583 346.244,-164.864"/>
<polygon fill="#9a32cd" stroke="#9a32cd" points="155.06,-548.839 154.341,-559.41 161.495,-551.595 155.06,-548.839"/>
<text text-anchor="middle" x="230" y="-326" font-family="Helvetica,sans-Serif" font-size="10.00"> className</text>
<text text-anchor="middle" x="230" y="-315" font-family="Helvetica,sans-Serif" font-size="10.00">threadName</text>
<text text-anchor="middle" x="230" y="-304" font-family="Helvetica,sans-Serif" font-size="10.00">methodName</text>
<text text-anchor="middle" x="230" y="-293" font-family="Helvetica,sans-Serif" font-size="10.00">packageName</text>
<text text-anchor="middle" x="230" y="-282" font-family="Helvetica,sans-Serif" font-size="10.00">fileName</text>
</g>
<!-- Node21 -->
<g id="node21" class="node"><title>Node21</title>
<g id="a_node21"><a xlink:href="classcom_1_1aworx_1_1lox_1_1core_1_1textlogger_1_1ObjectConverter.html" target="_top" xlink:title="ObjectConverter">
<polygon fill="white" stroke="black" points="505,-706.5 505,-725.5 593,-725.5 593,-706.5 505,-706.5"/>
<text text-anchor="middle" x="549" y="-713.5" font-family="Helvetica,sans-Serif" font-size="10.00">ObjectConverter</text>
</a>
</g>
</g>
<!-- Node3&#45;&gt;Node21 -->
<g id="edge32" class="edge"><title>Node3&#45;&gt;Node21</title>
<path fill="none" stroke="#9a32cd" stroke-dasharray="5,2" d="M161.272,-587.621C180.961,-618.18 224.831,-678.064 280,-703 353.435,-736.192 450.008,-730.46 504.911,-723.254"/>
<polygon fill="#9a32cd" stroke="#9a32cd" points="164.024,-585.422 155.745,-578.811 158.095,-589.142 164.024,-585.422"/>
<text text-anchor="middle" x="230" y="-696" font-family="Helvetica,sans-Serif" font-size="10.00"> buffer</text>
</g>
<!-- Node22 -->
<g id="node22" class="node"><title>Node22</title>
<g id="a_node22"><a xlink:href="classcom_1_1aworx_1_1lox_1_1core_1_1textlogger_1_1MetaInfo.html" target="_top" xlink:title="MetaInfo">
<polygon fill="white" stroke="black" points="648,-576.5 648,-595.5 703,-595.5 703,-576.5 648,-576.5"/>
<text text-anchor="middle" x="675.5" y="-583.5" font-family="Helvetica,sans-Serif" font-size="10.00">MetaInfo</text>
</a>
</g>
</g>
<!-- Node3&#45;&gt;Node22 -->
<g id="edge39" class="edge"><title>Node3&#45;&gt;Node22</title>
<path fill="none" stroke="#9a32cd" stroke-dasharray="5,2" d="M184.024,-569.822C242.771,-571.27 367.027,-574.46 472,-578 535.119,-580.129 609.281,-583.205 647.968,-584.854"/>
<polygon fill="#9a32cd" stroke="#9a32cd" points="183.919,-566.318 173.836,-569.572 183.747,-573.316 183.919,-566.318"/>
<text text-anchor="middle" x="376" y="-581" font-family="Helvetica,sans-Serif" font-size="10.00"> format</text>
</g>
<!-- Node4 -->
<g id="node4" class="node"><title>Node4</title>
<polygon fill="white" stroke="#bfbfbf" points="0,-517.5 0,-536.5 81,-536.5 81,-517.5 0,-517.5"/>
<text text-anchor="middle" x="40.5" y="-524.5" font-family="Helvetica,sans-Serif" font-size="10.00">CharSequence</text>
</g>
<!-- Node4&#45;&gt;Node3 -->
<g id="edge3" class="edge"><title>Node4&#45;&gt;Node3</title>
<path fill="none" stroke="midnightblue" d="M75.1934,-540.288C91.1597,-546.584 109.85,-553.955 124.296,-559.652"/>
<polygon fill="midnightblue" stroke="midnightblue" points="76.2533,-536.943 65.6665,-536.53 73.6852,-543.455 76.2533,-536.943"/>
</g>
<!-- Node24 -->
<g id="node24" class="node"><title>Node24</title>
<g id="a_node24"><a xlink:href="classcom_1_1aworx_1_1lib_1_1strings_1_1Substring.html" target="_top" xlink:title="Substring">
<polygon fill="white" stroke="black" points="120,-456.5 120,-475.5 178,-475.5 178,-456.5 120,-456.5"/>
<text text-anchor="middle" x="149" y="-463.5" font-family="Helvetica,sans-Serif" font-size="10.00">Substring</text>
</a>
</g>
</g>
<!-- Node4&#45;&gt;Node24 -->
<g id="edge36" class="edge"><title>Node4&#45;&gt;Node24</title>
<path fill="none" stroke="midnightblue" d="M66.9724,-512.41C86.837,-501.032 113.864,-485.552 131.125,-475.666"/>
<polygon fill="midnightblue" stroke="midnightblue" points="65.0785,-509.461 58.1406,-517.469 68.5576,-515.536 65.0785,-509.461"/>
</g>
<!-- Node5 -->
<g id="node5" class="node"><title>Node5</title>
<g id="a_node5"><a xlink:href="classcom_1_1aworx_1_1lib_1_1time_1_1Ticks.html" target="_top" xlink:title="Ticks">
<polygon fill="white" stroke="black" points="128.5,-23.5 128.5,-42.5 169.5,-42.5 169.5,-23.5 128.5,-23.5"/>
<text text-anchor="middle" x="149" y="-30.5" font-family="Helvetica,sans-Serif" font-size="10.00">Ticks</text>
</a>
</g>
</g>
<!-- Node5&#45;&gt;Node2 -->
<g id="edge4" class="edge"><title>Node5&#45;&gt;Node2</title>
<path fill="none" stroke="#9a32cd" stroke-dasharray="5,2" d="M179.482,-25.8757C222.28,-16.1741 304.242,-0 375,-0 375,-0 375,-0 1312,-0 1434.7,-0 1446.76,-496.713 1447.89,-572.384"/>
<polygon fill="#9a32cd" stroke="#9a32cd" points="178.677,-22.4692 169.722,-28.1307 180.253,-29.2895 178.677,-22.4692"/>
<text text-anchor="middle" x="870.5" y="-14" font-family="Helvetica,sans-Serif" font-size="10.00"> timeOfCreation</text>
<text text-anchor="middle" x="870.5" y="-3" font-family="Helvetica,sans-Serif" font-size="10.00">timeOfLastLog</text>
</g>
<!-- Node5&#45;&gt;Node5 -->
<g id="edge5" class="edge"><title>Node5&#45;&gt;Node5</title>
<path fill="none" stroke="#9a32cd" stroke-dasharray="5,2" d="M140.161,-52.7663C140.855,-57.4965 143.801,-61 149,-61 157.531,-61 159.997,-51.5653 156.398,-42.7571"/>
<polygon fill="#9a32cd" stroke="#9a32cd" points="143.641,-53.1538 141.602,-42.7571 136.712,-52.1561 143.641,-53.1538"/>
<text text-anchor="middle" x="149" y="-75" font-family="Helvetica,sans-Serif" font-size="10.00"> tempTicks</text>
<text text-anchor="middle" x="149" y="-64" font-family="Helvetica,sans-Serif" font-size="10.00">creationTimeTicks</text>
</g>
<!-- Node13 -->
<g id="node13" class="node"><title>Node13</title>
<g id="a_node13"><a xlink:href="classcom_1_1aworx_1_1lib_1_1threads_1_1ThreadLock.html" target="_top" xlink:title="ThreadLock">
<polygon fill="white" stroke="black" points="342,-28.5 342,-47.5 410,-47.5 410,-28.5 342,-28.5"/>
<text text-anchor="middle" x="376" y="-35.5" font-family="Helvetica,sans-Serif" font-size="10.00">ThreadLock</text>
</a>
</g>
</g>
<!-- Node5&#45;&gt;Node13 -->
<g id="edge16" class="edge"><title>Node5&#45;&gt;Node13</title>
<path fill="none" stroke="#9a32cd" stroke-dasharray="5,2" d="M179.689,-33.6597C221.579,-34.5906 297.8,-36.2845 341.611,-37.258"/>
<polygon fill="#9a32cd" stroke="#9a32cd" points="179.649,-30.1581 169.574,-33.435 179.493,-37.1564 179.649,-30.1581"/>
<text text-anchor="middle" x="230" y="-39" font-family="Helvetica,sans-Serif" font-size="10.00"> waitTime</text>
</g>
<!-- Node5&#45;&gt;Node18 -->
<g id="edge23" class="edge"><title>Node5&#45;&gt;Node18</title>
<path fill="none" stroke="#9a32cd" stroke-dasharray="5,2" d="M179.048,-43.3367C185.296,-45.5463 191.865,-47.8592 198,-50 226.399,-59.9097 241.703,-49.803 262,-72 284.55,-96.6604 255.853,-121.901 280,-145 297.502,-161.742 325.373,-165.661 346.41,-165.886"/>
<polygon fill="#9a32cd" stroke="#9a32cd" points="180.197,-40.0308 169.603,-39.9889 177.859,-46.6286 180.197,-40.0308"/>
<text text-anchor="middle" x="230" y="-75" font-family="Helvetica,sans-Serif" font-size="10.00"> timeStamp</text>
</g>
<!-- Node6&#45;&gt;Node2 -->
<g id="edge6" class="edge"><title>Node6&#45;&gt;Node2</title>
<path fill="none" stroke="#9a32cd" stroke-dasharray="5,2" d="M1345.77,-549.678C1370.68,-557.555 1403.89,-568.052 1425.59,-574.915"/>
<polygon fill="#9a32cd" stroke="#9a32cd" points="1346.59,-546.266 1336,-546.589 1344.48,-552.94 1346.59,-546.266"/>
<text text-anchor="middle" x="1381" y="-573" font-family="Helvetica,sans-Serif" font-size="10.00"> rootDomain</text>
</g>
<!-- Node6&#45;&gt;Node6 -->
<g id="edge30" class="edge"><title>Node6&#45;&gt;Node6</title>
<path fill="none" stroke="#9a32cd" stroke-dasharray="5,2" d="M1298.11,-558.766C1299.12,-563.497 1303.42,-567 1311,-567 1323.44,-567 1327.04,-557.565 1321.79,-548.757"/>
<polygon fill="#9a32cd" stroke="#9a32cd" points="1301.58,-559.263 1300.21,-548.757 1294.73,-557.824 1301.58,-559.263"/>
<text text-anchor="middle" x="1311" y="-570" font-family="Helvetica,sans-Serif" font-size="10.00"> parent</text>
</g>
<!-- Node7&#45;&gt;Node6 -->
<g id="edge7" class="edge"><title>Node7&#45;&gt;Node6</title>
<path fill="none" stroke="#9a32cd" stroke-dasharray="5,2" d="M1130.1,-301.918C1167.97,-351.827 1273.78,-491.262 1302.64,-529.305"/>
<polygon fill="#9a32cd" stroke="#9a32cd" points="1132.68,-299.535 1123.85,-293.685 1127.11,-303.767 1132.68,-299.535"/>
<text text-anchor="middle" x="1239" y="-481" font-family="Helvetica,sans-Serif" font-size="10.00"> level</text>
</g>
<!-- Node8&#45;&gt;Node7 -->
<g id="edge8" class="edge"><title>Node8&#45;&gt;Node7</title>
<path fill="none" stroke="#9a32cd" stroke-dasharray="5,2" d="M582.413,-435.775C590.761,-433.613 599.724,-431.254 608,-429 802.593,-375.993 1037.73,-306.725 1099.21,-288.534"/>
<polygon fill="#9a32cd" stroke="#9a32cd" points="581.435,-432.412 572.622,-438.293 583.179,-439.191 581.435,-432.412"/>
<text text-anchor="middle" x="774" y="-394" font-family="Helvetica,sans-Serif" font-size="10.00"> logBuf</text>
</g>
<!-- Node9 -->
<g id="node9" class="node"><title>Node9</title>
<g id="a_node9"><a xlink:href="classcom_1_1aworx_1_1lox_1_1ALoxReportWriter.html" target="_top" xlink:title="ALoxReportWriter">
<polygon fill="white" stroke="black" points="823,-40.5 823,-59.5 918,-59.5 918,-40.5 823,-40.5"/>
<text text-anchor="middle" x="870.5" y="-47.5" font-family="Helvetica,sans-Serif" font-size="10.00">ALoxReportWriter</text>
</a>
</g>
</g>
<!-- Node9&#45;&gt;Node7 -->
<g id="edge10" class="edge"><title>Node9&#45;&gt;Node7</title>
<path fill="none" stroke="#9a32cd" stroke-dasharray="5,2" d="M928.27,-41.6806C958.467,-40.3079 994.685,-43.8675 1021,-63 1094.46,-116.407 1110.61,-239.115 1113.79,-274.368"/>
<polygon fill="#9a32cd" stroke="#9a32cd" points="928.04,-38.1881 918.284,-42.3198 928.487,-45.1738 928.04,-38.1881"/>
<text text-anchor="middle" x="978.5" y="-66" font-family="Helvetica,sans-Serif" font-size="10.00"> debugReportWriter</text>
</g>
<!-- Node10 -->
<g id="node10" class="node"><title>Node10</title>
<g id="a_node10"><a xlink:href="interfacecom_1_1aworx_1_1lib_1_1ReportWriter.html" target="_top" xlink:title="ReportWriter">
<polygon fill="white" stroke="black" points="639.5,-40.5 639.5,-59.5 711.5,-59.5 711.5,-40.5 639.5,-40.5"/>
<text text-anchor="middle" x="675.5" y="-47.5" font-family="Helvetica,sans-Serif" font-size="10.00">ReportWriter</text>
</a>
</g>
</g>
<!-- Node10&#45;&gt;Node9 -->
<g id="edge11" class="edge"><title>Node10&#45;&gt;Node9</title>
<path fill="none" stroke="midnightblue" d="M722.197,-50C752.499,-50 792.151,-50 822.68,-50"/>
<polygon fill="midnightblue" stroke="midnightblue" points="721.899,-46.5001 711.899,-50 721.899,-53.5001 721.899,-46.5001"/>
</g>
<!-- Node11&#45;&gt;Node7 -->
<g id="edge25" class="edge"><title>Node11&#45;&gt;Node7</title>
<path fill="none" stroke="#9a32cd" stroke-dasharray="5,2" d="M701.868,-201.097C783.102,-217.418 1035.25,-268.077 1099.49,-280.984"/>
<polygon fill="#9a32cd" stroke="#9a32cd" points="702.07,-197.568 691.577,-199.029 700.692,-204.43 702.07,-197.568"/>
<text text-anchor="middle" x="870.5" y="-248" font-family="Helvetica,sans-Serif" font-size="10.00"> LOX</text>
</g>
<!-- Node11&#45;&gt;Node9 -->
<g id="edge12" class="edge"><title>Node11&#45;&gt;Node9</title>
<path fill="none" stroke="#9a32cd" stroke-dasharray="5,2" d="M698.549,-180.662C724.387,-162.546 768.333,-131.291 805,-103 824.048,-88.3031 845.514,-70.3812 858.252,-59.5965"/>
<polygon fill="#9a32cd" stroke="#9a32cd" points="696.396,-177.896 690.207,-186.495 700.408,-183.633 696.396,-177.896"/>
<text text-anchor="middle" x="774" y="-151" font-family="Helvetica,sans-Serif" font-size="10.00"> lox</text>
</g>
<!-- Node12 -->
<g id="node12" class="node"><title>Node12</title>
<polygon fill="white" stroke="#bfbfbf" points="311.5,-242.5 311.5,-261.5 440.5,-261.5 440.5,-242.5 311.5,-242.5"/>
<text text-anchor="middle" x="376" y="-249.5" font-family="Helvetica,sans-Serif" font-size="10.00">HashMap&lt; Long, String &gt;</text>
</g>
<!-- Node12&#45;&gt;Node11 -->
<g id="edge13" class="edge"><title>Node12&#45;&gt;Node11</title>
<path fill="none" stroke="#9a32cd" stroke-dasharray="5,2" d="M450.972,-245.074C496.641,-239.902 556.202,-231.535 608,-219 626.048,-214.632 646.108,-207.343 659.428,-202.141"/>
<polygon fill="#9a32cd" stroke="#9a32cd" points="450.413,-241.614 440.858,-246.193 451.183,-248.572 450.413,-241.614"/>
<text text-anchor="middle" x="549" y="-243" font-family="Helvetica,sans-Serif" font-size="10.00"> threadDictionary</text>
</g>
<!-- Node13&#45;&gt;Node7 -->
<g id="edge26" class="edge"><title>Node13&#45;&gt;Node7</title>
<path fill="none" stroke="#9a32cd" stroke-dasharray="5,2" d="M420.203,-29.5825C468.653,-22.3533 548.254,-17.2498 608,-47 619.309,-52.6313 614.885,-62.9942 626,-69 696.384,-107.032 729.449,-61.6871 805,-88 934.735,-133.184 1065.88,-241.655 1103.69,-274.449"/>
<polygon fill="#9a32cd" stroke="#9a32cd" points="419.388,-26.1681 410.062,-31.1953 420.487,-33.0812 419.388,-26.1681"/>
<text text-anchor="middle" x="774" y="-91" font-family="Helvetica,sans-Serif" font-size="10.00"> logBufLock</text>
</g>
<!-- Node13&#45;&gt;Node11 -->
<g id="edge14" class="edge"><title>Node13&#45;&gt;Node11</title>
<path fill="none" stroke="#9a32cd" stroke-dasharray="5,2" d="M420.096,-41.438C482.68,-46.7542 592.932,-57.4601 608,-68 608.683,-68.4777 654.266,-156.772 669.559,-186.42"/>
<polygon fill="#9a32cd" stroke="#9a32cd" points="420.369,-37.9487 410.111,-40.6013 419.784,-44.9243 420.369,-37.9487"/>
<text text-anchor="middle" x="549" y="-82" font-family="Helvetica,sans-Serif" font-size="10.00"> logBufLock</text>
<text text-anchor="middle" x="549" y="-71" font-family="Helvetica,sans-Serif" font-size="10.00">lock</text>
</g>
<!-- Node14 -->
<g id="node14" class="node"><title>Node14</title>
<g id="a_node14"><a xlink:href="enumcom_1_1aworx_1_1lib_1_1enums_1_1LockMode.html" target="_top" xlink:title="LockMode">
<polygon fill="white" stroke="black" points="118,-101.5 118,-120.5 180,-120.5 180,-101.5 118,-101.5"/>
<text text-anchor="middle" x="149" y="-108.5" font-family="Helvetica,sans-Serif" font-size="10.00">LockMode</text>
</a>
</g>
</g>
<!-- Node14&#45;&gt;Node13 -->
<g id="edge15" class="edge"><title>Node14&#45;&gt;Node13</title>
<path fill="none" stroke="#9a32cd" stroke-dasharray="5,2" d="M190.287,-110.122C213.144,-107.837 241.239,-101.845 262,-87 274.649,-77.9561 267.29,-65.9571 280,-57 297.873,-44.4044 322.092,-39.7016 341.603,-38.1235"/>
<polygon fill="#9a32cd" stroke="#9a32cd" points="189.888,-106.643 180.199,-110.93 190.446,-113.62 189.888,-106.643"/>
<text text-anchor="middle" x="230" y="-113" font-family="Helvetica,sans-Serif" font-size="10.00"> lockMode</text>
</g>
<!-- Node15 -->
<g id="node15" class="node"><title>Node15</title>
<polygon fill="white" stroke="#bfbfbf" points="299.5,-193 299.5,-223 452.5,-223 452.5,-193 299.5,-193"/>
<text text-anchor="start" x="307.5" y="-211" font-family="Helvetica,sans-Serif" font-size="10.00">ArrayList&lt; com.aworx.lox.core.</text>
<text text-anchor="middle" x="376" y="-200" font-family="Helvetica,sans-Serif" font-size="10.00">Logger &gt;</text>
</g>
<!-- Node15&#45;&gt;Node11 -->
<g id="edge18" class="edge"><title>Node15&#45;&gt;Node11</title>
<path fill="none" stroke="#9a32cd" stroke-dasharray="5,2" d="M462.899,-204.535C532.23,-201.739 623.881,-198.042 659.473,-196.606"/>
<polygon fill="#9a32cd" stroke="#9a32cd" points="462.692,-201.041 452.842,-204.941 462.975,-208.035 462.692,-201.041"/>
<text text-anchor="middle" x="549" y="-207" font-family="Helvetica,sans-Serif" font-size="10.00"> loggers</text>
</g>
<!-- Node16 -->
<g id="node16" class="node"><title>Node16</title>
<polygon fill="white" stroke="#bfbfbf" points="331.5,-116.5 331.5,-135.5 420.5,-135.5 420.5,-116.5 331.5,-116.5"/>
<text text-anchor="middle" x="376" y="-123.5" font-family="Helvetica,sans-Serif" font-size="10.00">Vector&lt; String &gt;</text>
</g>
<!-- Node16&#45;&gt;Node11 -->
<g id="edge19" class="edge"><title>Node16&#45;&gt;Node11</title>
<path fill="none" stroke="#9a32cd" stroke-dasharray="5,2" d="M430.814,-127.681C478.502,-130.514 549.446,-138.048 608,-158 627.635,-164.69 648.034,-177.338 660.974,-186.198"/>
<polygon fill="#9a32cd" stroke="#9a32cd" points="430.882,-124.18 420.707,-127.131 430.501,-131.169 430.882,-124.18"/>
<text text-anchor="middle" x="549" y="-161" font-family="Helvetica,sans-Serif" font-size="10.00"> omittablePackagePrefixes</text>
</g>
<!-- Node17 -->
<g id="node17" class="node"><title>Node17</title>
<polygon fill="white" stroke="#bfbfbf" points="280,-67 280,-97 472,-97 472,-67 280,-67"/>
<text text-anchor="start" x="288" y="-85" font-family="Helvetica,sans-Serif" font-size="10.00">HashMap&lt; com.aworx.lib.strings.</text>
<text text-anchor="middle" x="376" y="-74" font-family="Helvetica,sans-Serif" font-size="10.00">AString, com.aworx.lib.strings.AString &gt;</text>
</g>
<!-- Node17&#45;&gt;Node11 -->
<g id="edge20" class="edge"><title>Node17&#45;&gt;Node11</title>
<path fill="none" stroke="#9a32cd" stroke-dasharray="5,2" d="M482.117,-91.7965C532.376,-97.8812 586.258,-106.878 608,-119 637.158,-135.257 659.509,-169.479 669.211,-186.279"/>
<polygon fill="#9a32cd" stroke="#9a32cd" points="482.465,-88.3133 472.124,-90.6183 481.646,-95.2652 482.465,-88.3133"/>
<text text-anchor="middle" x="549" y="-122" font-family="Helvetica,sans-Serif" font-size="10.00"> defaultDomains</text>
</g>
<!-- Node18&#45;&gt;Node11 -->
<g id="edge21" class="edge"><title>Node18&#45;&gt;Node11</title>
<path fill="none" stroke="#9a32cd" stroke-dasharray="5,2" d="M415.664,-166.255C461.637,-169.188 540.627,-175.024 608,-184 625.676,-186.355 645.805,-190.144 659.244,-192.834"/>
<polygon fill="#9a32cd" stroke="#9a32cd" points="415.741,-162.753 405.542,-165.622 415.304,-169.739 415.741,-162.753"/>
<text text-anchor="middle" x="549" y="-187" font-family="Helvetica,sans-Serif" font-size="10.00"> caller</text>
</g>
<!-- Node19 -->
<g id="node19" class="node"><title>Node19</title>
<polygon fill="white" stroke="#bfbfbf" points="294,-281 294,-311 458,-311 458,-281 294,-281"/>
<text text-anchor="start" x="302" y="-299" font-family="Helvetica,sans-Serif" font-size="10.00">HashMap&lt; com.aworx.lib.strings.</text>
<text text-anchor="middle" x="376" y="-288" font-family="Helvetica,sans-Serif" font-size="10.00">AString, Object &gt;</text>
</g>
<!-- Node19&#45;&gt;Node11 -->
<g id="edge24" class="edge"><title>Node19&#45;&gt;Node11</title>
<path fill="none" stroke="#9a32cd" stroke-dasharray="5,2" d="M468.231,-291.36C512.229,-286.291 564.717,-275.945 608,-255 632.729,-243.033 655.22,-219.184 666.629,-205.761"/>
<polygon fill="#9a32cd" stroke="#9a32cd" points="467.68,-287.899 458.113,-292.451 468.43,-294.859 467.68,-287.899"/>
<text text-anchor="middle" x="549" y="-292" font-family="Helvetica,sans-Serif" font-size="10.00"> markers</text>
</g>
<!-- Node20 -->
<g id="node20" class="node"><title>Node20</title>
<polygon fill="white" stroke="#bfbfbf" points="1039,-524 1039,-554 1192,-554 1192,-524 1039,-524"/>
<text text-anchor="start" x="1047" y="-542" font-family="Helvetica,sans-Serif" font-size="10.00">ArrayList&lt; com.aworx.lox.core.</text>
<text text-anchor="middle" x="1115.5" y="-531" font-family="Helvetica,sans-Serif" font-size="10.00">Domain &gt;</text>
</g>
<!-- Node20&#45;&gt;Node6 -->
<g id="edge29" class="edge"><title>Node20&#45;&gt;Node6</title>
<path fill="none" stroke="#9a32cd" stroke-dasharray="5,2" d="M1202.38,-539C1232.76,-539 1264.6,-539 1285.69,-539"/>
<polygon fill="#9a32cd" stroke="#9a32cd" points="1202.14,-535.5 1192.14,-539 1202.14,-542.5 1202.14,-535.5"/>
<text text-anchor="middle" x="1239" y="-542" font-family="Helvetica,sans-Serif" font-size="10.00"> subDomains</text>
</g>
<!-- Node21&#45;&gt;Node1 -->
<g id="edge31" class="edge"><title>Node21&#45;&gt;Node1</title>
<path fill="none" stroke="#9a32cd" stroke-dasharray="5,2" d="M595.685,-703.668C599.858,-702.46 604.013,-701.227 608,-700 696.391,-672.803 718.517,-665.763 805,-633 819.304,-627.581 835.152,-620.956 847.56,-615.624"/>
<polygon fill="#9a32cd" stroke="#9a32cd" points="594.647,-700.325 585.985,-706.427 596.561,-707.058 594.647,-700.325"/>
<text text-anchor="middle" x="675.5" y="-697" font-family="Helvetica,sans-Serif" font-size="10.00"> objectConverter</text>
</g>
<!-- Node22&#45;&gt;Node1 -->
<g id="edge33" class="edge"><title>Node22&#45;&gt;Node1</title>
<path fill="none" stroke="#9a32cd" stroke-dasharray="5,2" d="M713.16,-589.126C738.882,-591.393 774.067,-594.638 805,-598 815.657,-599.158 827.287,-600.558 837.7,-601.862"/>
<polygon fill="#9a32cd" stroke="#9a32cd" points="713.37,-585.631 703.103,-588.248 712.76,-592.605 713.37,-585.631"/>
<text text-anchor="middle" x="774" y="-601" font-family="Helvetica,sans-Serif" font-size="10.00"> metaInfo</text>
</g>
<!-- Node23 -->
<g id="node23" class="node"><title>Node23</title>
<g id="a_node23"><a xlink:href="classcom_1_1aworx_1_1lib_1_1strings_1_1Tokenizer.html" target="_top" xlink:title="Tokenizer">
<polygon fill="white" stroke="black" points="346.5,-399.5 346.5,-418.5 405.5,-418.5 405.5,-399.5 346.5,-399.5"/>
<text text-anchor="middle" x="376" y="-406.5" font-family="Helvetica,sans-Serif" font-size="10.00">Tokenizer</text>
</a>
</g>
</g>
<!-- Node23&#45;&gt;Node22 -->
<g id="edge34" class="edge"><title>Node23&#45;&gt;Node22</title>
<path fill="none" stroke="#9a32cd" stroke-dasharray="5,2" d="M415.55,-404.018C473.905,-397.409 580.766,-389.249 608,-414 633.335,-437.025 605.084,-539.898 626,-567 631.359,-573.944 639.62,-578.354 647.815,-581.153"/>
<polygon fill="#9a32cd" stroke="#9a32cd" points="415.116,-400.545 405.591,-405.184 415.93,-407.498 415.116,-400.545"/>
<text text-anchor="middle" x="549" y="-417" font-family="Helvetica,sans-Serif" font-size="10.00"> tok</text>
</g>
<!-- Node24&#45;&gt;Node23 -->
<g id="edge35" class="edge"><title>Node24&#45;&gt;Node23</title>
<path fill="none" stroke="#9a32cd" stroke-dasharray="5,2" d="M158.478,-447.038C166.339,-432.022 179.604,-412.111 198,-403 245.666,-379.392 309.741,-390.432 346.279,-400.072"/>
<polygon fill="#9a32cd" stroke="#9a32cd" points="155.327,-445.513 154.092,-456.035 161.62,-448.58 155.327,-445.513"/>
<text text-anchor="middle" x="230" y="-417" font-family="Helvetica,sans-Serif" font-size="10.00"> rest</text>
<text text-anchor="middle" x="230" y="-406" font-family="Helvetica,sans-Serif" font-size="10.00">actual</text>
</g>
<!-- Node25 -->
<g id="node25" class="node"><title>Node25</title>
<g id="a_node25"><a xlink:href="classcom_1_1aworx_1_1lib_1_1time_1_1TickSpan.html" target="_top" xlink:title="TickSpan">
<polygon fill="white" stroke="black" points="347,-513.5 347,-532.5 405,-532.5 405,-513.5 347,-513.5"/>
<text text-anchor="middle" x="376" y="-520.5" font-family="Helvetica,sans-Serif" font-size="10.00">TickSpan</text>
</a>
</g>
</g>
<!-- Node25&#45;&gt;Node22 -->
<g id="edge37" class="edge"><title>Node25&#45;&gt;Node22</title>
<path fill="none" stroke="#9a32cd" stroke-dasharray="5,2" d="M415.347,-517.629C463.462,-512.788 547.047,-510.804 608,-544 619.4,-550.208 615.589,-559.247 626,-567 632.455,-571.807 640.284,-575.568 647.751,-578.429"/>
<polygon fill="#9a32cd" stroke="#9a32cd" points="414.91,-514.156 405.352,-518.728 415.675,-521.114 414.91,-514.156"/>
<text text-anchor="middle" x="549" y="-547" font-family="Helvetica,sans-Serif" font-size="10.00"> elapsed</text>
</g>
<!-- Node26 -->
<g id="node26" class="node"><title>Node26</title>
<polygon fill="white" stroke="#bfbfbf" points="339.5,-475.5 339.5,-494.5 412.5,-494.5 412.5,-475.5 339.5,-475.5"/>
<text text-anchor="middle" x="376" y="-482.5" font-family="Helvetica,sans-Serif" font-size="10.00">FieldPosition</text>
</g>
<!-- Node26&#45;&gt;Node22 -->
<g id="edge38" class="edge"><title>Node26&#45;&gt;Node22</title>
<path fill="none" stroke="#9a32cd" stroke-dasharray="5,2" d="M422.958,-473.941C474.069,-464.557 556.235,-458.55 608,-501 631.51,-520.28 605.682,-544.38 626,-567 631.741,-573.391 639.9,-577.656 647.892,-580.491"/>
<polygon fill="#9a32cd" stroke="#9a32cd" points="422,-470.562 412.857,-475.914 423.342,-477.432 422,-470.562"/>
<text text-anchor="middle" x="549" y="-504" font-family="Helvetica,sans-Serif" font-size="10.00"> fieldPositionZero</text>
</g>
<!-- Node27 -->
<g id="node27" class="node"><title>Node27</title>
<polygon fill="white" stroke="#bfbfbf" points="327,-674.5 327,-693.5 425,-693.5 425,-674.5 327,-674.5"/>
<text text-anchor="middle" x="376" y="-681.5" font-family="Helvetica,sans-Serif" font-size="10.00">GregorianCalendar</text>
</g>
<!-- Node27&#45;&gt;Node22 -->
<g id="edge40" class="edge"><title>Node27&#45;&gt;Node22</title>
<path fill="none" stroke="#9a32cd" stroke-dasharray="5,2" d="M435.093,-685.566C494.722,-685.958 582.31,-682.771 608,-662 628.658,-645.297 607.859,-624.409 626,-605 631.805,-598.79 639.886,-594.578 647.789,-591.735"/>
<polygon fill="#9a32cd" stroke="#9a32cd" points="435.077,-682.065 425.042,-685.464 435.006,-689.065 435.077,-682.065"/>
<text text-anchor="middle" x="549" y="-688" font-family="Helvetica,sans-Serif" font-size="10.00"> callerDateTimeCal</text>
</g>
<!-- Node28 -->
<g id="node28" class="node"><title>Node28</title>
<polygon fill="white" stroke="#bfbfbf" points="327,-636.5 327,-655.5 425,-655.5 425,-636.5 327,-636.5"/>
<text text-anchor="middle" x="376" y="-643.5" font-family="Helvetica,sans-Serif" font-size="10.00">SimpleDateFormat</text>
</g>
<!-- Node28&#45;&gt;Node22 -->
<g id="edge41" class="edge"><title>Node28&#45;&gt;Node22</title>
<path fill="none" stroke="#9a32cd" stroke-dasharray="5,2" d="M435.174,-644.177C482.712,-641.281 551.108,-633.869 608,-615 616.686,-612.119 617.721,-608.9 626,-605 633.117,-601.647 640.999,-598.379 648.303,-595.525"/>
<polygon fill="#9a32cd" stroke="#9a32cd" points="434.848,-640.69 425.06,-644.744 435.24,-647.679 434.848,-640.69"/>
<text text-anchor="middle" x="549" y="-654" font-family="Helvetica,sans-Serif" font-size="10.00"> dateFormatter</text>
<text text-anchor="middle" x="549" y="-643" font-family="Helvetica,sans-Serif" font-size="10.00">timeOfDayFormatter</text>
</g>
<!-- Node29 -->
<g id="node29" class="node"><title>Node29</title>
<polygon fill="white" stroke="#bfbfbf" points="357,-598.5 357,-617.5 395,-617.5 395,-598.5 357,-598.5"/>
<text text-anchor="middle" x="376" y="-605.5" font-family="Helvetica,sans-Serif" font-size="10.00">Date</text>
</g>
<!-- Node29&#45;&gt;Node22 -->
<g id="edge42" class="edge"><title>Node29&#45;&gt;Node22</title>
<path fill="none" stroke="#9a32cd" stroke-dasharray="5,2" d="M405.325,-605.905C462.725,-601.661 592.047,-592.097 647.938,-587.964"/>
<polygon fill="#9a32cd" stroke="#9a32cd" points="404.877,-602.429 395.162,-606.657 405.393,-609.41 404.877,-602.429"/>
<text text-anchor="middle" x="549" y="-603" font-family="Helvetica,sans-Serif" font-size="10.00"> callerDateTimeDate</text>
</g>
<!-- Node30 -->
<g id="node30" class="node"><title>Node30</title>
<polygon fill="white" stroke="#bfbfbf" points="626,-614.5 626,-633.5 725,-633.5 725,-614.5 626,-614.5"/>
<text text-anchor="middle" x="675.5" y="-621.5" font-family="Helvetica,sans-Serif" font-size="10.00">ArrayList&lt; String &gt;</text>
</g>
<!-- Node30&#45;&gt;Node1 -->
<g id="edge44" class="edge"><title>Node30&#45;&gt;Node1</title>
<path fill="none" stroke="#9a32cd" stroke-dasharray="5,2" d="M735.405,-618.506C769.103,-615.363 810.052,-611.544 837.765,-608.96"/>
<polygon fill="#9a32cd" stroke="#9a32cd" points="734.834,-615.044 725.202,-619.458 735.484,-622.014 734.834,-615.044"/>
<text text-anchor="middle" x="774" y="-621" font-family="Helvetica,sans-Serif" font-size="10.00"> replacements</text>
</g>
<!-- Node31 -->
<g id="node31" class="node"><title>Node31</title>
<g id="a_node31"><a xlink:href="classcom_1_1aworx_1_1lox_1_1core_1_1textlogger_1_1AutoSizes.html" target="_top" xlink:title="AutoSizes">
<polygon fill="white" stroke="black" points="644.5,-538.5 644.5,-557.5 706.5,-557.5 706.5,-538.5 644.5,-538.5"/>
<text text-anchor="middle" x="675.5" y="-545.5" font-family="Helvetica,sans-Serif" font-size="10.00">AutoSizes</text>
</a>
</g>
</g>
<!-- Node31&#45;&gt;Node1 -->
<g id="edge45" class="edge"><title>Node31&#45;&gt;Node1</title>
<path fill="none" stroke="#9a32cd" stroke-dasharray="5,2" d="M716.612,-555.425C742.219,-560.639 775.944,-568.388 805,-578 820.53,-583.137 837.475,-590.568 850.097,-596.484"/>
<polygon fill="#9a32cd" stroke="#9a32cd" points="717.014,-551.936 706.523,-553.416 715.647,-558.802 717.014,-551.936"/>
<text text-anchor="middle" x="774" y="-581" font-family="Helvetica,sans-Serif" font-size="10.00"> autoSizes</text>
</g>
</g>
</svg>
