<?xml version="1.0" encoding="UTF-8" standalone="no"?>
<!DOCTYPE svg PUBLIC "-//W3C//DTD SVG 1.1//EN"
 "http://www.w3.org/Graphics/SVG/1.1/DTD/svg11.dtd">
<!-- Generated by graphviz version 2.40.1 (20161225.0304)
 -->
<!-- Title: Configuration Pages: 1 -->
<svg width="1089pt" height="352pt"
 viewBox="0.00 0.00 1089.00 352.00" xmlns="http://www.w3.org/2000/svg" xmlns:xlink="http://www.w3.org/1999/xlink">
<g id="graph0" class="graph" transform="scale(1 1) rotate(0) translate(4 348)">
<title>Configuration</title>
<polygon fill="#ffffff" stroke="transparent" points="-4,4 -4,-348 1085,-348 1085,4 -4,4"/>
<!-- Node1 -->
<g id="node1" class="node">
<title>Node1</title>
<polygon fill="#bfbfbf" stroke="#000000" points="1007,-142.5 1007,-161.5 1081,-161.5 1081,-142.5 1007,-142.5"/>
<text text-anchor="middle" x="1044" y="-149.5" font-family="Helvetica,sans-Serif" font-size="10.00" fill="#000000">Configuration</text>
</g>
<!-- Node1&#45;&gt;Node1 -->
<g id="edge16" class="edge">
<title>Node1&#45;&gt;Node1</title>
<path fill="none" stroke="#9a32cd" stroke-dasharray="5,2" d="M1027.3341,-171.4C1028.4472,-176.3146 1034.0024,-180 1044,-180 1059.9961,-180 1064.62,-170.5653 1057.8716,-161.7571"/>
<polygon fill="#9a32cd" stroke="#9a32cd" points="1030.7068,-172.3361 1030.1284,-161.7571 1023.9834,-170.3878 1030.7068,-172.3361"/>
<text text-anchor="middle" x="1044" y="-183" font-family="Helvetica,sans-Serif" font-size="10.00" fill="#000000"> Default</text>
</g>
<!-- Node2 -->
<g id="node2" class="node">
<title>Node2</title>
<g id="a_node2"><a xlink:href="classcom_1_1aworx_1_1lib_1_1config_1_1EnvironmentPlugin.html" target="_top" xlink:title="EnvironmentPlugin">
<polygon fill="#ffffff" stroke="#000000" points="769,-204.5 769,-223.5 867,-223.5 867,-204.5 769,-204.5"/>
<text text-anchor="middle" x="818" y="-211.5" font-family="Helvetica,sans-Serif" font-size="10.00" fill="#000000">EnvironmentPlugin</text>
</a>
</g>
</g>
<!-- Node2&#45;&gt;Node1 -->
<g id="edge1" class="edge">
<title>Node2&#45;&gt;Node1</title>
<path fill="none" stroke="#9a32cd" stroke-dasharray="5,2" d="M877.2908,-206.3159C910.6951,-200.9757 952.8432,-192.5295 989,-180 1002.7688,-175.2287 1017.4307,-167.6245 1028.1509,-161.544"/>
<polygon fill="#9a32cd" stroke="#9a32cd" points="876.5678,-202.886 867.2209,-207.8746 877.6386,-209.8036 876.5678,-202.886"/>
<text text-anchor="middle" x="952.5" y="-201" font-family="Helvetica,sans-Serif" font-size="10.00" fill="#000000"> environment</text>
</g>
<!-- Node3 -->
<g id="node3" class="node">
<title>Node3</title>
<g id="a_node3"><a xlink:href="classcom_1_1aworx_1_1lib_1_1config_1_1ConfigurationPlugin.html" target="_top" xlink:title="ConfigurationPlugin">
<polygon fill="#ffffff" stroke="#000000" points="506,-154.5 506,-173.5 607,-173.5 607,-154.5 506,-154.5"/>
<text text-anchor="middle" x="556.5" y="-161.5" font-family="Helvetica,sans-Serif" font-size="10.00" fill="#000000">ConfigurationPlugin</text>
</a>
</g>
</g>
<!-- Node3&#45;&gt;Node2 -->
<g id="edge2" class="edge">
<title>Node3&#45;&gt;Node2</title>
<path fill="none" stroke="#191970" d="M616.1781,-175.4107C662.3582,-184.2406 725.5301,-196.3193 768.827,-204.5979"/>
<polygon fill="#191970" stroke="#191970" points="616.7811,-171.9627 606.3017,-173.5223 615.4664,-178.8381 616.7811,-171.9627"/>
</g>
<!-- Node8 -->
<g id="node8" class="node">
<title>Node8</title>
<g id="a_node8"><a xlink:href="classcom_1_1aworx_1_1lib_1_1config_1_1InMemoryPlugin.html" target="_top" xlink:title="InMemoryPlugin">
<polygon fill="#ffffff" stroke="#000000" points="774.5,-78.5 774.5,-97.5 861.5,-97.5 861.5,-78.5 774.5,-78.5"/>
<text text-anchor="middle" x="818" y="-85.5" font-family="Helvetica,sans-Serif" font-size="10.00" fill="#000000">InMemoryPlugin</text>
</a>
</g>
</g>
<!-- Node3&#45;&gt;Node8 -->
<g id="edge10" class="edge">
<title>Node3&#45;&gt;Node8</title>
<path fill="none" stroke="#191970" d="M595.3729,-151.3358C632.0018,-139.5624 688.4986,-121.8133 738,-108 750.9622,-104.3829 765.1914,-100.7256 778.0095,-97.5453"/>
<polygon fill="#191970" stroke="#191970" points="594.0342,-148.09 585.5908,-154.4899 596.1824,-154.7522 594.0342,-148.09"/>
</g>
<!-- Node11 -->
<g id="node11" class="node">
<title>Node11</title>
<g id="a_node11"><a xlink:href="classcom_1_1aworx_1_1lib_1_1config_1_1CommandLinePlugin.html" target="_top" xlink:title="CommandLinePlugin">
<polygon fill="#ffffff" stroke="#000000" points="765,-166.5 765,-185.5 871,-185.5 871,-166.5 765,-166.5"/>
<text text-anchor="middle" x="818" y="-173.5" font-family="Helvetica,sans-Serif" font-size="10.00" fill="#000000">CommandLinePlugin</text>
</a>
</g>
</g>
<!-- Node3&#45;&gt;Node11 -->
<g id="edge14" class="edge">
<title>Node3&#45;&gt;Node11</title>
<path fill="none" stroke="#191970" d="M617.3617,-166.7929C661.9827,-168.8405 721.9828,-171.5939 764.7165,-173.5549"/>
<polygon fill="#191970" stroke="#191970" points="617.3799,-163.2901 607.2299,-166.3279 617.0589,-170.2828 617.3799,-163.2901"/>
</g>
<!-- Node4 -->
<g id="node4" class="node">
<title>Node4</title>
<g id="a_node4"><a xlink:href="classcom_1_1aworx_1_1lib_1_1config_1_1XTernalizer.html" target="_top" xlink:title="XTernalizer">
<polygon fill="#ffffff" stroke="#000000" points="280,-154.5 280,-173.5 345,-173.5 345,-154.5 280,-154.5"/>
<text text-anchor="middle" x="312.5" y="-161.5" font-family="Helvetica,sans-Serif" font-size="10.00" fill="#000000">XTernalizer</text>
</a>
</g>
</g>
<!-- Node4&#45;&gt;Node3 -->
<g id="edge3" class="edge">
<title>Node4&#45;&gt;Node3</title>
<path fill="none" stroke="#9a32cd" stroke-dasharray="5,2" d="M355.3267,-164C397.3052,-164 461.2976,-164 505.7955,-164"/>
<polygon fill="#9a32cd" stroke="#9a32cd" points="355.1538,-160.5001 345.1537,-164 355.1537,-167.5001 355.1538,-160.5001"/>
<text text-anchor="middle" x="411.5" y="-178" font-family="Helvetica,sans-Serif" font-size="10.00" fill="#000000"> stringConverter</text>
<text text-anchor="middle" x="411.5" y="-167" font-family="Helvetica,sans-Serif" font-size="10.00" fill="#000000">defaultStringConverter</text>
</g>
<!-- Node5 -->
<g id="node5" class="node">
<title>Node5</title>
<g id="a_node5"><a xlink:href="classcom_1_1aworx_1_1lib_1_1strings_1_1AString.html" target="_top" xlink:title="AString">
<polygon fill="#ffffff" stroke="#000000" points="121.5,-204.5 121.5,-223.5 170.5,-223.5 170.5,-204.5 121.5,-204.5"/>
<text text-anchor="middle" x="146" y="-211.5" font-family="Helvetica,sans-Serif" font-size="10.00" fill="#000000">AString</text>
</a>
</g>
</g>
<!-- Node5&#45;&gt;Node1 -->
<g id="edge20" class="edge">
<title>Node5&#45;&gt;Node1</title>
<path fill="none" stroke="#9a32cd" stroke-dasharray="5,2" d="M156.2395,-232.4102C164.5369,-245.7439 177.3927,-263.2471 193,-274 238.7843,-305.5438 256.9014,-311 312.5,-311 312.5,-311 312.5,-311 818,-311 900.9886,-311 925.6449,-289.6026 989,-236 1014.284,-214.6081 1032.3334,-178.699 1039.9595,-161.6053"/>
<polygon fill="#9a32cd" stroke="#9a32cd" points="159.1303,-230.4224 151.0291,-223.5944 153.104,-233.984 159.1303,-230.4224"/>
<text text-anchor="middle" x="556.5" y="-336" font-family="Helvetica,sans-Serif" font-size="10.00" fill="#000000"> substitutionVariableStart</text>
<text text-anchor="middle" x="556.5" y="-325" font-family="Helvetica,sans-Serif" font-size="10.00" fill="#000000">tmpConversion</text>
<text text-anchor="middle" x="556.5" y="-314" font-family="Helvetica,sans-Serif" font-size="10.00" fill="#000000">substitutionVariableEnd</text>
</g>
<!-- Node5&#45;&gt;Node2 -->
<g id="edge8" class="edge">
<title>Node5&#45;&gt;Node2</title>
<path fill="none" stroke="#9a32cd" stroke-dasharray="5,2" d="M180.7164,-214C291.8518,-214 639.1413,-214 768.6544,-214"/>
<polygon fill="#9a32cd" stroke="#9a32cd" points="180.7138,-210.5001 170.7138,-214 180.7138,-217.5001 180.7138,-210.5001"/>
<text text-anchor="middle" x="411.5" y="-217" font-family="Helvetica,sans-Serif" font-size="10.00" fill="#000000"> tmpAS</text>
</g>
<!-- Node5&#45;&gt;Node4 -->
<g id="edge4" class="edge">
<title>Node5&#45;&gt;Node4</title>
<path fill="none" stroke="#9a32cd" stroke-dasharray="5,2" d="M170.6122,-199.2312C177.6579,-195.4707 185.4726,-191.7268 193,-189 221.4977,-178.6769 255.4453,-172.0859 279.8623,-168.2787"/>
<polygon fill="#9a32cd" stroke="#9a32cd" points="168.6044,-196.3436 161.5804,-204.2754 172.0177,-202.4551 168.6044,-196.3436"/>
<text text-anchor="middle" x="227.5" y="-192" font-family="Helvetica,sans-Serif" font-size="10.00" fill="#000000"> tmpAS</text>
</g>
<!-- Node13 -->
<g id="node13" class="node">
<title>Node13</title>
<g id="a_node13"><a xlink:href="classcom_1_1aworx_1_1lib_1_1strings_1_1NumberFormat.html" target="_top" xlink:title="NumberFormat">
<polygon fill="#ffffff" stroke="#000000" points="371,-236.5 371,-255.5 452,-255.5 452,-236.5 371,-236.5"/>
<text text-anchor="middle" x="411.5" y="-243.5" font-family="Helvetica,sans-Serif" font-size="10.00" fill="#000000">NumberFormat</text>
</a>
</g>
</g>
<!-- Node5&#45;&gt;Node13 -->
<g id="edge18" class="edge">
<title>Node5&#45;&gt;Node13</title>
<path fill="none" stroke="#9a32cd" stroke-dasharray="5,2" d="M180.3229,-225.112C184.5608,-226.2202 188.8581,-227.2213 193,-228 254.3476,-239.5345 326.7661,-243.6776 370.8938,-245.1658"/>
<polygon fill="#9a32cd" stroke="#9a32cd" points="181.2181,-221.728 170.6437,-222.3857 179.3203,-228.4659 181.2181,-221.728"/>
<text text-anchor="middle" x="227.5" y="-262" font-family="Helvetica,sans-Serif" font-size="10.00" fill="#000000"> octLiteralPrefix</text>
<text text-anchor="middle" x="227.5" y="-251" font-family="Helvetica,sans-Serif" font-size="10.00" fill="#000000">binLiteralPrefix</text>
<text text-anchor="middle" x="227.5" y="-240" font-family="Helvetica,sans-Serif" font-size="10.00" fill="#000000">hexLiteralPrefix</text>
</g>
<!-- Node6 -->
<g id="node6" class="node">
<title>Node6</title>
<polygon fill="#ffffff" stroke="#bfbfbf" points="0,-168.5 0,-187.5 80,-187.5 80,-168.5 0,-168.5"/>
<text text-anchor="middle" x="40" y="-175.5" font-family="Helvetica,sans-Serif" font-size="10.00" fill="#000000">CharSequence</text>
</g>
<!-- Node6&#45;&gt;Node5 -->
<g id="edge5" class="edge">
<title>Node6&#45;&gt;Node5</title>
<path fill="none" stroke="#191970" d="M77.8253,-190.8463C92.2992,-195.762 108.4221,-201.2377 121.3535,-205.6295"/>
<polygon fill="#191970" stroke="#191970" points="78.7221,-187.4546 68.1278,-187.5528 76.471,-194.0828 78.7221,-187.4546"/>
</g>
<!-- Node7 -->
<g id="node7" class="node">
<title>Node7</title>
<g id="a_node7"><a xlink:href="classcom_1_1aworx_1_1lib_1_1strings_1_1Substring.html" target="_top" xlink:title="Substring">
<polygon fill="#ffffff" stroke="#000000" points="117,-133.5 117,-152.5 175,-152.5 175,-133.5 117,-133.5"/>
<text text-anchor="middle" x="146" y="-140.5" font-family="Helvetica,sans-Serif" font-size="10.00" fill="#000000">Substring</text>
</a>
</g>
</g>
<!-- Node6&#45;&gt;Node7 -->
<g id="edge7" class="edge">
<title>Node6&#45;&gt;Node7</title>
<path fill="none" stroke="#191970" d="M78.8014,-165.1882C91.454,-161.0105 105.2722,-156.4478 117.0701,-152.5523"/>
<polygon fill="#191970" stroke="#191970" points="77.3633,-161.9771 68.965,-168.4361 79.5581,-168.6242 77.3633,-161.9771"/>
</g>
<!-- Node7&#45;&gt;Node1 -->
<g id="edge21" class="edge">
<title>Node7&#45;&gt;Node1</title>
<path fill="none" stroke="#9a32cd" stroke-dasharray="5,2" d="M156.0796,-124.4244C178.5926,-85.719 236.9765,0 312.5,0 312.5,0 312.5,0 818,0 824.8867,0 986.227,-40.778 989,-43 1022.0822,-69.5082 1037.0428,-121.1257 1042.005,-142.4398"/>
<polygon fill="#9a32cd" stroke="#9a32cd" points="153.0099,-122.7425 151.1402,-133.171 159.1051,-126.1846 153.0099,-122.7425"/>
<text text-anchor="middle" x="556.5" y="-25" font-family="Helvetica,sans-Serif" font-size="10.00" fill="#000000"> tmpReplVarCategory</text>
<text text-anchor="middle" x="556.5" y="-14" font-family="Helvetica,sans-Serif" font-size="10.00" fill="#000000">tmpReplVarName</text>
<text text-anchor="middle" x="556.5" y="-3" font-family="Helvetica,sans-Serif" font-size="10.00" fill="#000000">tmpReplVarAll</text>
</g>
<!-- Node7&#45;&gt;Node4 -->
<g id="edge6" class="edge">
<title>Node7&#45;&gt;Node4</title>
<path fill="none" stroke="#9a32cd" stroke-dasharray="5,2" d="M185.6091,-139.7693C208.1963,-138.8139 236.9161,-139.1016 262,-144 272.7359,-146.0965 284.1112,-150.3995 293.342,-154.4789"/>
<polygon fill="#9a32cd" stroke="#9a32cd" points="185.1818,-136.2868 175.3779,-140.3035 185.5468,-143.2773 185.1818,-136.2868"/>
<text text-anchor="middle" x="227.5" y="-158" font-family="Helvetica,sans-Serif" font-size="10.00" fill="#000000"> tmpSubs2</text>
<text text-anchor="middle" x="227.5" y="-147" font-family="Helvetica,sans-Serif" font-size="10.00" fill="#000000">tmpSubs</text>
</g>
<!-- Node8&#45;&gt;Node1 -->
<g id="edge9" class="edge">
<title>Node8&#45;&gt;Node1</title>
<path fill="none" stroke="#9a32cd" stroke-dasharray="5,2" d="M871.9496,-85.7311C906.6528,-86.1607 952.0086,-90.3297 989,-106 1008.2562,-114.1573 1025.9252,-131.4187 1035.7972,-142.322"/>
<polygon fill="#9a32cd" stroke="#9a32cd" points="871.55,-82.2303 861.5427,-85.7092 871.5353,-89.2303 871.55,-82.2303"/>
<text text-anchor="middle" x="952.5" y="-120" font-family="Helvetica,sans-Serif" font-size="10.00" fill="#000000"> protectedValues</text>
<text text-anchor="middle" x="952.5" y="-109" font-family="Helvetica,sans-Serif" font-size="10.00" fill="#000000">defaultValues</text>
</g>
<!-- Node9 -->
<g id="node9" class="node">
<title>Node9</title>
<polygon fill="#ffffff" stroke="#bfbfbf" points="478,-73 478,-103 635,-103 635,-73 478,-73"/>
<text text-anchor="start" x="486" y="-91" font-family="Helvetica,sans-Serif" font-size="10.00" fill="#000000">ArrayList&lt; com.aworx.lib.config.</text>
<text text-anchor="middle" x="556.5" y="-80" font-family="Helvetica,sans-Serif" font-size="10.00" fill="#000000">InMemoryPlugin.Section &gt;</text>
</g>
<!-- Node9&#45;&gt;Node8 -->
<g id="edge11" class="edge">
<title>Node9&#45;&gt;Node8</title>
<path fill="none" stroke="#9a32cd" stroke-dasharray="5,2" d="M645.3388,-88C688.8249,-88 739.2277,-88 774.3073,-88"/>
<polygon fill="#9a32cd" stroke="#9a32cd" points="645.3133,-84.5001 635.3132,-88 645.3132,-91.5001 645.3133,-84.5001"/>
<text text-anchor="middle" x="686.5" y="-91" font-family="Helvetica,sans-Serif" font-size="10.00" fill="#000000"> sections</text>
</g>
<!-- Node10 -->
<g id="node10" class="node">
<title>Node10</title>
<polygon fill="#ffffff" stroke="#bfbfbf" points="739.5,-117 739.5,-147 896.5,-147 896.5,-117 739.5,-117"/>
<text text-anchor="start" x="747.5" y="-135" font-family="Helvetica,sans-Serif" font-size="10.00" fill="#000000">ArrayList&lt; com.aworx.lib.config.</text>
<text text-anchor="middle" x="818" y="-124" font-family="Helvetica,sans-Serif" font-size="10.00" fill="#000000">Configuration.PluginAndPrio &gt;</text>
</g>
<!-- Node10&#45;&gt;Node1 -->
<g id="edge12" class="edge">
<title>Node10&#45;&gt;Node1</title>
<path fill="none" stroke="#9a32cd" stroke-dasharray="5,2" d="M906.6451,-132.4078C933.2207,-133.3962 962.3766,-135.3429 989,-139 995.2211,-139.8545 1001.7691,-141.0943 1008.0918,-142.4733"/>
<polygon fill="#9a32cd" stroke="#9a32cd" points="906.7074,-128.908 896.5967,-132.0743 906.4751,-135.9042 906.7074,-128.908"/>
<text text-anchor="middle" x="952.5" y="-142" font-family="Helvetica,sans-Serif" font-size="10.00" fill="#000000"> plugins</text>
</g>
<!-- Node11&#45;&gt;Node1 -->
<g id="edge13" class="edge">
<title>Node11&#45;&gt;Node1</title>
<path fill="none" stroke="#9a32cd" stroke-dasharray="5,2" d="M881.3228,-169.2755C921.8207,-164.9748 972.947,-159.5455 1006.9654,-155.9329"/>
<polygon fill="#9a32cd" stroke="#9a32cd" points="880.8471,-165.8062 871.2727,-170.3427 881.5864,-172.7671 880.8471,-165.8062"/>
<text text-anchor="middle" x="952.5" y="-168" font-family="Helvetica,sans-Serif" font-size="10.00" fill="#000000"> cmdLine</text>
</g>
<!-- Node12 -->
<g id="node12" class="node">
<title>Node12</title>
<polygon fill="#ffffff" stroke="#bfbfbf" points="738,-29 738,-59 898,-59 898,-29 738,-29"/>
<text text-anchor="start" x="746" y="-47" font-family="Helvetica,sans-Serif" font-size="10.00" fill="#000000">ArrayList&lt; com.aworx.lib.strings.</text>
<text text-anchor="middle" x="818" y="-36" font-family="Helvetica,sans-Serif" font-size="10.00" fill="#000000">AString &gt;</text>
</g>
<!-- Node12&#45;&gt;Node1 -->
<g id="edge15" class="edge">
<title>Node12&#45;&gt;Node1</title>
<path fill="none" stroke="#9a32cd" stroke-dasharray="5,2" d="M908.4789,-45.9881C935.9976,-49.9824 965.222,-57.916 989,-73 1015.8125,-90.009 1033.1215,-125.2868 1040.2643,-142.3464"/>
<polygon fill="#9a32cd" stroke="#9a32cd" points="908.7971,-42.5002 898.4308,-44.6888 907.8994,-49.4424 908.7971,-42.5002"/>
<text text-anchor="middle" x="952.5" y="-76" font-family="Helvetica,sans-Serif" font-size="10.00" fill="#000000"> trueValues</text>
</g>
<!-- Node13&#45;&gt;Node1 -->
<g id="edge17" class="edge">
<title>Node13&#45;&gt;Node1</title>
<path fill="none" stroke="#9a32cd" stroke-dasharray="5,2" d="M462.1095,-247.7909C550.7902,-250.2294 739.8778,-252.3114 898,-233 939.1043,-227.9799 953.2027,-233.8163 989,-213 1011.1882,-200.0975 1029.3654,-175.1817 1038.2026,-161.5251"/>
<polygon fill="#9a32cd" stroke="#9a32cd" points="462.1531,-244.2908 452.0563,-247.5008 461.9512,-251.2878 462.1531,-244.2908"/>
<text text-anchor="middle" x="686.5" y="-251" font-family="Helvetica,sans-Serif" font-size="10.00" fill="#000000"> numberFormat</text>
</g>
<!-- Node13&#45;&gt;Node13 -->
<g id="edge19" class="edge">
<title>Node13&#45;&gt;Node13</title>
<path fill="none" stroke="#9a32cd" stroke-dasharray="5,2" d="M393.3527,-265.4C394.5647,-270.3146 400.6138,-274 411.5,-274 428.918,-274 433.9529,-264.5653 426.6046,-255.7571"/>
<polygon fill="#9a32cd" stroke="#9a32cd" points="396.724,-266.3468 396.3954,-255.7571 390.0485,-264.2404 396.724,-266.3468"/>
<text text-anchor="middle" x="411.5" y="-288" font-family="Helvetica,sans-Serif" font-size="10.00" fill="#000000"> global</text>
<text text-anchor="middle" x="411.5" y="-277" font-family="Helvetica,sans-Serif" font-size="10.00" fill="#000000">computational</text>
</g>
</g>
</svg>
