<?xml version="1.0" encoding="UTF-8" standalone="no"?>
<!DOCTYPE svg PUBLIC "-//W3C//DTD SVG 1.1//EN"
 "http://www.w3.org/Graphics/SVG/1.1/DTD/svg11.dtd">
<!-- Generated by graphviz version 2.40.1 (20161225.0304)
 -->
<!-- Title: StringTree&lt; T &gt;.Walker.NameAndNode Pages: 1 -->
<svg width="201pt" height="184pt"
 viewBox="0.00 0.00 201.00 184.00" xmlns="http://www.w3.org/2000/svg" xmlns:xlink="http://www.w3.org/1999/xlink">
<g id="graph0" class="graph" transform="scale(1 1) rotate(0) translate(4 180)">
<title>StringTree&lt; T &gt;.Walker.NameAndNode</title>
<polygon fill="#ffffff" stroke="transparent" points="-4,4 -4,-180 197,-180 197,4 -4,4"/>
<!-- Node1 -->
<g id="node1" class="node">
<title>Node1</title>
<polygon fill="#bfbfbf" stroke="#000000" points="15.5,-.5 15.5,-30.5 161.5,-30.5 161.5,-.5 15.5,-.5"/>
<text text-anchor="start" x="23.5" y="-18.5" font-family="Helvetica,sans-Serif" font-size="10.00" fill="#000000">StringTree&lt; T &gt;.Walker.Name</text>
<text text-anchor="middle" x="88.5" y="-7.5" font-family="Helvetica,sans-Serif" font-size="10.00" fill="#000000">AndNode</text>
</g>
<!-- Node2 -->
<g id="node2" class="node">
<title>Node2</title>
<g id="a_node2"><a xlink:href="classcom_1_1aworx_1_1lib_1_1util_1_1StringTree_1_1Node.html" target="_top" xlink:title="StringTree\&lt; T \&gt;.Node">
<polygon fill="#ffffff" stroke="#000000" points="33,-78.5 33,-97.5 144,-97.5 144,-78.5 33,-78.5"/>
<text text-anchor="middle" x="88.5" y="-85.5" font-family="Helvetica,sans-Serif" font-size="10.00" fill="#000000">StringTree&lt; T &gt;.Node</text>
</a>
</g>
</g>
<!-- Node2&#45;&gt;Node1 -->
<g id="edge1" class="edge">
<title>Node2&#45;&gt;Node1</title>
<path fill="none" stroke="#9a32cd" stroke-dasharray="5,2" d="M88.5,-68.0177C88.5,-56.2164 88.5,-41.513 88.5,-30.668"/>
<polygon fill="#9a32cd" stroke="#9a32cd" points="85.0001,-68.2223 88.5,-78.2223 92.0001,-68.2224 85.0001,-68.2223"/>
<text text-anchor="middle" x="101" y="-52" font-family="Helvetica,sans-Serif" font-size="10.00" fill="#000000"> node</text>
</g>
<!-- Node2&#45;&gt;Node2 -->
<g id="edge2" class="edge">
<title>Node2&#45;&gt;Node2</title>
<path fill="none" stroke="#9a32cd" stroke-dasharray="5,2" d="M154.4503,-92.3987C159.1375,-91.3998 162,-89.9336 162,-88 162,-84.9063 154.672,-83.0089 144.2668,-82.308"/>
<polygon fill="#9a32cd" stroke="#9a32cd" points="153.7461,-88.96 144.2668,-93.692 154.6281,-95.9042 153.7461,-88.96"/>
<text text-anchor="middle" x="177.5" y="-85.5" font-family="Helvetica,sans-Serif" font-size="10.00" fill="#000000"> parent</text>
</g>
<!-- Node3 -->
<g id="node3" class="node">
<title>Node3</title>
<polygon fill="#ffffff" stroke="#bfbfbf" points="0,-145.5 0,-175.5 177,-175.5 177,-145.5 0,-145.5"/>
<text text-anchor="start" x="8" y="-163.5" font-family="Helvetica,sans-Serif" font-size="10.00" fill="#000000">HashMap&lt; String, com.aworx.lib.util.</text>
<text text-anchor="middle" x="88.5" y="-152.5" font-family="Helvetica,sans-Serif" font-size="10.00" fill="#000000">StringTree.Node &gt;</text>
</g>
<!-- Node3&#45;&gt;Node2 -->
<g id="edge3" class="edge">
<title>Node3&#45;&gt;Node2</title>
<path fill="none" stroke="#9a32cd" stroke-dasharray="5,2" d="M88.5,-135.305C88.5,-122.424 88.5,-107.4836 88.5,-97.8957"/>
<polygon fill="#9a32cd" stroke="#9a32cd" points="85.0001,-135.4779 88.5,-145.478 92.0001,-135.478 85.0001,-135.4779"/>
<text text-anchor="middle" x="107" y="-119" font-family="Helvetica,sans-Serif" font-size="10.00" fill="#000000"> children</text>
</g>
</g>
</svg>
