<?xml version="1.0" encoding="UTF-8" standalone="no"?>
<!DOCTYPE svg PUBLIC "-//W3C//DTD SVG 1.1//EN"
 "http://www.w3.org/Graphics/SVG/1.1/DTD/svg11.dtd">
<!-- Generated by graphviz version 2.38.0 (20140413.2041)
 -->
<!-- Title: InMemoryPlugin.Entry Pages: 1 -->
<svg width="252pt" height="174pt"
 viewBox="0.00 0.00 252.00 174.00" xmlns="http://www.w3.org/2000/svg" xmlns:xlink="http://www.w3.org/1999/xlink">
<g id="graph0" class="graph" transform="scale(1 1) rotate(0) translate(4 170)">
<title>InMemoryPlugin.Entry</title>
<polygon fill="white" stroke="none" points="-4,4 -4,-170 248,-170 248,4 -4,4"/>
<!-- Node1 -->
<g id="node1" class="node"><title>Node1</title>
<polygon fill="#bfbfbf" stroke="black" points="68,-0.5 68,-19.5 181,-19.5 181,-0.5 68,-0.5"/>
<text text-anchor="middle" x="124.5" y="-7.5" font-family="Helvetica,sans-Serif" font-size="10.00">InMemoryPlugin.Entry</text>
</g>
<!-- Node2 -->
<g id="node2" class="node"><title>Node2</title>
<polygon fill="white" stroke="#bfbfbf" points="0,-78.5 0,-108.5 161,-108.5 161,-78.5 0,-78.5"/>
<text text-anchor="start" x="8" y="-96.5" font-family="Helvetica,sans-Serif" font-size="10.00">ArrayList&lt; com.aworx.lib.strings.</text>
<text text-anchor="middle" x="80.5" y="-85.5" font-family="Helvetica,sans-Serif" font-size="10.00">AString &gt;</text>
</g>
<!-- Node2&#45;&gt;Node1 -->
<g id="edge1" class="edge"><title>Node2&#45;&gt;Node1</title>
<path fill="none" stroke="#9a32cd" stroke-dasharray="5,2" d="M93.0874,-69.1847C102.054,-52.5765 113.591,-31.2067 119.89,-19.5391"/>
<polygon fill="#9a32cd" stroke="#9a32cd" points="89.8351,-67.8415 88.1642,-78.3038 95.9947,-71.167 89.8351,-67.8415"/>
<text text-anchor="middle" x="124.5" y="-46.5" font-family="Helvetica,sans-Serif" font-size="10.00"> values</text>
</g>
<!-- Node3 -->
<g id="node3" class="node"><title>Node3</title>
<g id="a_node3"><a xlink:href="classcom_1_1aworx_1_1lib_1_1strings_1_1AString.html" target="_top" xlink:title="AString">
<polygon fill="white" stroke="black" points="179,-84 179,-103 228,-103 228,-84 179,-84"/>
<text text-anchor="middle" x="203.5" y="-91" font-family="Helvetica,sans-Serif" font-size="10.00">AString</text>
</a>
</g>
</g>
<!-- Node3&#45;&gt;Node1 -->
<g id="edge2" class="edge"><title>Node3&#45;&gt;Node1</title>
<path fill="none" stroke="#9a32cd" stroke-dasharray="5,2" d="M187.74,-76.2408C171.229,-59.2081 145.923,-33.1005 132.894,-19.6592"/>
<polygon fill="#9a32cd" stroke="#9a32cd" points="185.572,-79.0337 195.046,-83.7781 190.599,-74.1617 185.572,-79.0337"/>
<text text-anchor="middle" x="193.5" y="-52" font-family="Helvetica,sans-Serif" font-size="10.00"> name</text>
<text text-anchor="middle" x="193.5" y="-41" font-family="Helvetica,sans-Serif" font-size="10.00">comments</text>
</g>
<!-- Node4 -->
<g id="node4" class="node"><title>Node4</title>
<polygon fill="white" stroke="#bfbfbf" points="163,-146.5 163,-165.5 244,-165.5 244,-146.5 163,-146.5"/>
<text text-anchor="middle" x="203.5" y="-153.5" font-family="Helvetica,sans-Serif" font-size="10.00">CharSequence</text>
</g>
<!-- Node4&#45;&gt;Node3 -->
<g id="edge3" class="edge"><title>Node4&#45;&gt;Node3</title>
<path fill="none" stroke="midnightblue" d="M203.5,-136.003C203.5,-125 203.5,-111.682 203.5,-103.152"/>
<polygon fill="midnightblue" stroke="midnightblue" points="200,-136.332 203.5,-146.332 207,-136.332 200,-136.332"/>
</g>
</g>
</svg>
