<?xml version="1.0" encoding="UTF-8" standalone="no"?>
<!DOCTYPE svg PUBLIC "-//W3C//DTD SVG 1.1//EN"
 "http://www.w3.org/Graphics/SVG/1.1/DTD/svg11.dtd">
<!-- Generated by graphviz version 2.40.1 (20161225.0304)
 -->
<!-- Title: CommandLinePlugin Pages: 1 -->
<svg width="165pt" height="298pt"
 viewBox="0.00 0.00 164.50 298.00" xmlns="http://www.w3.org/2000/svg" xmlns:xlink="http://www.w3.org/1999/xlink">
<g id="graph0" class="graph" transform="scale(1 1) rotate(0) translate(4 294)">
<title>CommandLinePlugin</title>
<polygon fill="#ffffff" stroke="transparent" points="-4,4 -4,-294 160.5,-294 160.5,4 -4,4"/>
<!-- Node2 -->
<g id="node1" class="node">
<title>Node2</title>
<polygon fill="#bfbfbf" stroke="#000000" points="6.5,-.5 6.5,-19.5 112.5,-19.5 112.5,-.5 6.5,-.5"/>
<text text-anchor="middle" x="59.5" y="-7.5" font-family="Helvetica,sans-Serif" font-size="10.00" fill="#000000">CommandLinePlugin</text>
</g>
<!-- Node3 -->
<g id="node2" class="node">
<title>Node3</title>
<g id="a_node2"><a xlink:href="classcom_1_1aworx_1_1lib_1_1config_1_1ConfigurationPlugin.html" target="_top" xlink:title="ConfigurationPlugin">
<polygon fill="#ffffff" stroke="#000000" points="9,-57.5 9,-76.5 110,-76.5 110,-57.5 9,-57.5"/>
<text text-anchor="middle" x="59.5" y="-64.5" font-family="Helvetica,sans-Serif" font-size="10.00" fill="#000000">ConfigurationPlugin</text>
</a>
</g>
</g>
<!-- Node3&#45;&gt;Node2 -->
<g id="edge1" class="edge">
<title>Node3&#45;&gt;Node2</title>
<path fill="none" stroke="#191970" d="M59.5,-47.2342C59.5,-37.8491 59.5,-27.0651 59.5,-19.5265"/>
<polygon fill="#191970" stroke="#191970" points="56.0001,-47.3307 59.5,-57.3307 63.0001,-47.3308 56.0001,-47.3307"/>
</g>
<!-- Node4 -->
<g id="node3" class="node">
<title>Node4</title>
<g id="a_node3"><a xlink:href="classcom_1_1aworx_1_1lib_1_1config_1_1XTernalizer.html" target="_top" xlink:title="XTernalizer">
<polygon fill="#ffffff" stroke="#000000" points="27,-135.5 27,-154.5 92,-154.5 92,-135.5 27,-135.5"/>
<text text-anchor="middle" x="59.5" y="-142.5" font-family="Helvetica,sans-Serif" font-size="10.00" fill="#000000">XTernalizer</text>
</a>
</g>
</g>
<!-- Node4&#45;&gt;Node3 -->
<g id="edge2" class="edge">
<title>Node4&#45;&gt;Node3</title>
<path fill="none" stroke="#9a32cd" stroke-dasharray="5,2" d="M59.5,-125.2866C59.5,-109.7395 59.5,-88.7276 59.5,-76.6426"/>
<polygon fill="#9a32cd" stroke="#9a32cd" points="56.0001,-125.4356 59.5,-135.4357 63.0001,-125.4357 56.0001,-125.4356"/>
<text text-anchor="middle" x="108" y="-109" font-family="Helvetica,sans-Serif" font-size="10.00" fill="#000000"> stringConverter</text>
<text text-anchor="middle" x="108" y="-98" font-family="Helvetica,sans-Serif" font-size="10.00" fill="#000000">defaultStringConverter</text>
</g>
<!-- Node5 -->
<g id="node4" class="node">
<title>Node5</title>
<g id="a_node4"><a xlink:href="classcom_1_1aworx_1_1lib_1_1strings_1_1AString.html" target="_top" xlink:title="AString">
<polygon fill="#ffffff" stroke="#000000" points="0,-213.5 0,-232.5 49,-232.5 49,-213.5 0,-213.5"/>
<text text-anchor="middle" x="24.5" y="-220.5" font-family="Helvetica,sans-Serif" font-size="10.00" fill="#000000">AString</text>
</a>
</g>
</g>
<!-- Node5&#45;&gt;Node4 -->
<g id="edge3" class="edge">
<title>Node5&#45;&gt;Node4</title>
<path fill="none" stroke="#9a32cd" stroke-dasharray="5,2" d="M27.1173,-203.268C28.8984,-193.7674 31.8133,-182.4214 36.5,-173 39.8623,-166.2411 45.1261,-159.6663 49.77,-154.5881"/>
<polygon fill="#9a32cd" stroke="#9a32cd" points="23.6285,-202.9209 25.5091,-213.3475 30.5411,-204.0239 23.6285,-202.9209"/>
<text text-anchor="middle" x="53.5" y="-181.5" font-family="Helvetica,sans-Serif" font-size="10.00" fill="#000000"> tmpAS</text>
</g>
<!-- Node6 -->
<g id="node5" class="node">
<title>Node6</title>
<polygon fill="#ffffff" stroke="#bfbfbf" points="19.5,-270.5 19.5,-289.5 99.5,-289.5 99.5,-270.5 19.5,-270.5"/>
<text text-anchor="middle" x="59.5" y="-277.5" font-family="Helvetica,sans-Serif" font-size="10.00" fill="#000000">CharSequence</text>
</g>
<!-- Node6&#45;&gt;Node5 -->
<g id="edge4" class="edge">
<title>Node6&#45;&gt;Node5</title>
<path fill="none" stroke="#191970" d="M48.2946,-261.7512C42.3259,-252.0308 35.2301,-240.4748 30.3496,-232.5265"/>
<polygon fill="#191970" stroke="#191970" points="45.3474,-263.6404 53.5627,-270.3307 51.3127,-259.9776 45.3474,-263.6404"/>
</g>
<!-- Node7 -->
<g id="node6" class="node">
<title>Node7</title>
<g id="a_node6"><a xlink:href="classcom_1_1aworx_1_1lib_1_1strings_1_1Substring.html" target="_top" xlink:title="Substring">
<polygon fill="#ffffff" stroke="#000000" points="67.5,-213.5 67.5,-232.5 125.5,-232.5 125.5,-213.5 67.5,-213.5"/>
<text text-anchor="middle" x="96.5" y="-220.5" font-family="Helvetica,sans-Serif" font-size="10.00" fill="#000000">Substring</text>
</a>
</g>
</g>
<!-- Node6&#45;&gt;Node7 -->
<g id="edge6" class="edge">
<title>Node6&#45;&gt;Node7</title>
<path fill="none" stroke="#191970" d="M71.3457,-261.7512C77.6554,-252.0308 85.1567,-240.4748 90.3161,-232.5265"/>
<polygon fill="#191970" stroke="#191970" points="68.2856,-260.0373 65.7765,-270.3307 74.157,-263.8486 68.2856,-260.0373"/>
</g>
<!-- Node7&#45;&gt;Node4 -->
<g id="edge5" class="edge">
<title>Node7&#45;&gt;Node4</title>
<path fill="none" stroke="#9a32cd" stroke-dasharray="5,2" d="M87.5754,-204.186C80.1625,-188.5589 69.918,-166.9623 64.074,-154.6426"/>
<polygon fill="#9a32cd" stroke="#9a32cd" points="84.5149,-205.9007 91.9631,-213.4357 90.8394,-202.9006 84.5149,-205.9007"/>
<text text-anchor="middle" x="106.5" y="-187" font-family="Helvetica,sans-Serif" font-size="10.00" fill="#000000"> tmpSubs2</text>
<text text-anchor="middle" x="106.5" y="-176" font-family="Helvetica,sans-Serif" font-size="10.00" fill="#000000">tmpSubs</text>
</g>
</g>
</svg>
