<?xml version="1.0" encoding="UTF-8" standalone="no"?>
<!DOCTYPE svg PUBLIC "-//W3C//DTD SVG 1.1//EN"
 "http://www.w3.org/Graphics/SVG/1.1/DTD/svg11.dtd">
<!-- Generated by graphviz version 2.40.1 (20161225.0304)
 -->
<!-- Title: Environment Pages: 1 -->
<svg width="208pt" height="298pt"
 viewBox="0.00 0.00 207.50 298.00" xmlns="http://www.w3.org/2000/svg" xmlns:xlink="http://www.w3.org/1999/xlink">
<g id="graph0" class="graph" transform="scale(1 1) rotate(0) translate(4 294)">
<title>Environment</title>
<polygon fill="#ffffff" stroke="transparent" points="-4,4 -4,-294 203.5,-294 203.5,4 -4,4"/>
<!-- Node2 -->
<g id="node1" class="node">
<title>Node2</title>
<polygon fill="#bfbfbf" stroke="#000000" points="0,-.5 0,-19.5 71,-19.5 71,-.5 0,-.5"/>
<text text-anchor="middle" x="35.5" y="-7.5" font-family="Helvetica,sans-Serif" font-size="10.00" fill="#000000">Environment</text>
</g>
<!-- Node3 -->
<g id="node2" class="node">
<title>Node3</title>
<g id="a_node2"><a xlink:href="classcom_1_1aworx_1_1lib_1_1config_1_1ConfigurationPlugin.html" target="_top" xlink:title="ConfigurationPlugin">
<polygon fill="#ffffff" stroke="#000000" points="52,-57.5 52,-76.5 153,-76.5 153,-57.5 52,-57.5"/>
<text text-anchor="middle" x="102.5" y="-64.5" font-family="Helvetica,sans-Serif" font-size="10.00" fill="#000000">ConfigurationPlugin</text>
</a>
</g>
</g>
<!-- Node3&#45;&gt;Node2 -->
<g id="edge1" class="edge">
<title>Node3&#45;&gt;Node2</title>
<path fill="none" stroke="#191970" d="M83.4872,-50.8249C71.6065,-40.7175 56.7148,-28.0484 46.6978,-19.5265"/>
<polygon fill="#191970" stroke="#191970" points="81.2498,-53.5167 91.1344,-57.3307 85.7857,-48.1851 81.2498,-53.5167"/>
</g>
<!-- Node4 -->
<g id="node3" class="node">
<title>Node4</title>
<g id="a_node3"><a xlink:href="classcom_1_1aworx_1_1lib_1_1config_1_1XTernalizer.html" target="_top" xlink:title="XTernalizer">
<polygon fill="#ffffff" stroke="#000000" points="70,-135.5 70,-154.5 135,-154.5 135,-135.5 70,-135.5"/>
<text text-anchor="middle" x="102.5" y="-142.5" font-family="Helvetica,sans-Serif" font-size="10.00" fill="#000000">XTernalizer</text>
</a>
</g>
</g>
<!-- Node4&#45;&gt;Node3 -->
<g id="edge2" class="edge">
<title>Node4&#45;&gt;Node3</title>
<path fill="none" stroke="#9a32cd" stroke-dasharray="5,2" d="M102.5,-125.2866C102.5,-109.7395 102.5,-88.7276 102.5,-76.6426"/>
<polygon fill="#9a32cd" stroke="#9a32cd" points="99.0001,-125.4356 102.5,-135.4357 106.0001,-125.4357 99.0001,-125.4356"/>
<text text-anchor="middle" x="151" y="-109" font-family="Helvetica,sans-Serif" font-size="10.00" fill="#000000"> stringConverter</text>
<text text-anchor="middle" x="151" y="-98" font-family="Helvetica,sans-Serif" font-size="10.00" fill="#000000">defaultStringConverter</text>
</g>
<!-- Node5 -->
<g id="node4" class="node">
<title>Node5</title>
<g id="a_node4"><a xlink:href="classcom_1_1aworx_1_1lib_1_1strings_1_1AString.html" target="_top" xlink:title="AString">
<polygon fill="#ffffff" stroke="#000000" points="17,-213.5 17,-232.5 66,-232.5 66,-213.5 17,-213.5"/>
<text text-anchor="middle" x="41.5" y="-220.5" font-family="Helvetica,sans-Serif" font-size="10.00" fill="#000000">AString</text>
</a>
</g>
</g>
<!-- Node5&#45;&gt;Node2 -->
<g id="edge7" class="edge">
<title>Node5&#45;&gt;Node2</title>
<path fill="none" stroke="#9a32cd" stroke-dasharray="5,2" d="M40.9419,-203.1858C39.6902,-158.7533 36.6969,-52.4905 35.775,-19.7627"/>
<polygon fill="#9a32cd" stroke="#9a32cd" points="37.4463,-203.3969 41.2266,-213.2943 44.4435,-203.1997 37.4463,-203.3969"/>
<text text-anchor="middle" x="55.5" y="-103.5" font-family="Helvetica,sans-Serif" font-size="10.00" fill="#000000"> tmpAS</text>
</g>
<!-- Node5&#45;&gt;Node4 -->
<g id="edge3" class="edge">
<title>Node5&#45;&gt;Node4</title>
<path fill="none" stroke="#9a32cd" stroke-dasharray="5,2" d="M50.1761,-203.8777C55.095,-194.1106 61.8026,-182.3486 69.5,-173 75.1356,-166.1556 82.5872,-159.6719 88.9832,-154.6705"/>
<polygon fill="#9a32cd" stroke="#9a32cd" points="46.8983,-202.6188 45.7311,-213.1491 53.2103,-205.645 46.8983,-202.6188"/>
<text text-anchor="middle" x="86.5" y="-181.5" font-family="Helvetica,sans-Serif" font-size="10.00" fill="#000000"> tmpAS</text>
</g>
<!-- Node6 -->
<g id="node5" class="node">
<title>Node6</title>
<polygon fill="#ffffff" stroke="#bfbfbf" points="36.5,-270.5 36.5,-289.5 116.5,-289.5 116.5,-270.5 36.5,-270.5"/>
<text text-anchor="middle" x="76.5" y="-277.5" font-family="Helvetica,sans-Serif" font-size="10.00" fill="#000000">CharSequence</text>
</g>
<!-- Node6&#45;&gt;Node5 -->
<g id="edge4" class="edge">
<title>Node6&#45;&gt;Node5</title>
<path fill="none" stroke="#191970" d="M65.2946,-261.7512C59.3259,-252.0308 52.2301,-240.4748 47.3496,-232.5265"/>
<polygon fill="#191970" stroke="#191970" points="62.3474,-263.6404 70.5627,-270.3307 68.3127,-259.9776 62.3474,-263.6404"/>
</g>
<!-- Node7 -->
<g id="node6" class="node">
<title>Node7</title>
<g id="a_node6"><a xlink:href="classcom_1_1aworx_1_1lib_1_1strings_1_1Substring.html" target="_top" xlink:title="Substring">
<polygon fill="#ffffff" stroke="#000000" points="84.5,-213.5 84.5,-232.5 142.5,-232.5 142.5,-213.5 84.5,-213.5"/>
<text text-anchor="middle" x="113.5" y="-220.5" font-family="Helvetica,sans-Serif" font-size="10.00" fill="#000000">Substring</text>
</a>
</g>
</g>
<!-- Node6&#45;&gt;Node7 -->
<g id="edge6" class="edge">
<title>Node6&#45;&gt;Node7</title>
<path fill="none" stroke="#191970" d="M88.3457,-261.7512C94.6554,-252.0308 102.1567,-240.4748 107.3161,-232.5265"/>
<polygon fill="#191970" stroke="#191970" points="85.2856,-260.0373 82.7765,-270.3307 91.157,-263.8486 85.2856,-260.0373"/>
</g>
<!-- Node7&#45;&gt;Node4 -->
<g id="edge5" class="edge">
<title>Node7&#45;&gt;Node4</title>
<path fill="none" stroke="#9a32cd" stroke-dasharray="5,2" d="M110.7199,-203.2866C108.5274,-187.7395 105.5642,-166.7276 103.8598,-154.6426"/>
<polygon fill="#9a32cd" stroke="#9a32cd" points="107.289,-204.0224 112.1512,-213.4357 114.2204,-203.0449 107.289,-204.0224"/>
<text text-anchor="middle" x="133.5" y="-187" font-family="Helvetica,sans-Serif" font-size="10.00" fill="#000000"> tmpSubs2</text>
<text text-anchor="middle" x="133.5" y="-176" font-family="Helvetica,sans-Serif" font-size="10.00" fill="#000000">tmpSubs</text>
</g>
</g>
</svg>
