<?xml version="1.0" encoding="UTF-8" standalone="no"?>
<!DOCTYPE svg PUBLIC "-//W3C//DTD SVG 1.1//EN"
 "http://www.w3.org/Graphics/SVG/1.1/DTD/svg11.dtd">
<!-- Generated by graphviz version 2.40.1 (20161225.0304)
 -->
<!-- Title: Log Pages: 1 -->
<svg width="1230pt" height="1140pt"
 viewBox="0.00 0.00 1229.50 1139.79" xmlns="http://www.w3.org/2000/svg" xmlns:xlink="http://www.w3.org/1999/xlink">
<g id="graph0" class="graph" transform="scale(1 1) rotate(0) translate(4 1135.7863)">
<title>Log</title>
<polygon fill="#ffffff" stroke="transparent" points="-4,4 -4,-1135.7863 1225.5,-1135.7863 1225.5,4 -4,4"/>
<!-- Node1 -->
<g id="node1" class="node">
<title>Node1</title>
<polygon fill="#bfbfbf" stroke="#000000" points="1189.5,-761.2863 1189.5,-780.2863 1221.5,-780.2863 1221.5,-761.2863 1189.5,-761.2863"/>
<text text-anchor="middle" x="1205.5" y="-768.2863" font-family="Helvetica,sans-Serif" font-size="10.00" fill="#000000">Log</text>
</g>
<!-- Node2 -->
<g id="node2" class="node">
<title>Node2</title>
<g id="a_node2"><a xlink:href="classcom_1_1aworx_1_1lox_1_1ALoxReportWriter.html" target="_top" xlink:title="ALoxReportWriter">
<polygon fill="#ffffff" stroke="#000000" points="976.5,-800.2863 976.5,-819.2863 1069.5,-819.2863 1069.5,-800.2863 976.5,-800.2863"/>
<text text-anchor="middle" x="1023" y="-807.2863" font-family="Helvetica,sans-Serif" font-size="10.00" fill="#000000">ALoxReportWriter</text>
</a>
</g>
</g>
<!-- Node2&#45;&gt;Node1 -->
<g id="edge1" class="edge">
<title>Node2&#45;&gt;Node1</title>
<path fill="none" stroke="#9a32cd" stroke-dasharray="5,2" d="M1079.7562,-803.2687C1107.7122,-799.2937 1141.7265,-793.3058 1171.5,-784.7863 1177.3918,-783.1004 1183.646,-780.7102 1189.1623,-778.3809"/>
<polygon fill="#9a32cd" stroke="#9a32cd" points="1079.1804,-799.8148 1069.7497,-804.6431 1080.133,-806.7497 1079.1804,-799.8148"/>
<text text-anchor="middle" x="1129.5" y="-804.7863" font-family="Helvetica,sans-Serif" font-size="10.00" fill="#000000"> debugReportWriter</text>
</g>
<!-- Node3 -->
<g id="node3" class="node">
<title>Node3</title>
<g id="a_node3"><a xlink:href="interfacecom_1_1aworx_1_1lib_1_1lang_1_1ReportWriter.html" target="_top" xlink:title="ReportWriter">
<polygon fill="#ffffff" stroke="#000000" points="793.5,-829.2863 793.5,-848.2863 864.5,-848.2863 864.5,-829.2863 793.5,-829.2863"/>
<text text-anchor="middle" x="829" y="-836.2863" font-family="Helvetica,sans-Serif" font-size="10.00" fill="#000000">ReportWriter</text>
</a>
</g>
</g>
<!-- Node3&#45;&gt;Node2 -->
<g id="edge2" class="edge">
<title>Node3&#45;&gt;Node2</title>
<path fill="none" stroke="#191970" d="M874.9743,-832.7467C899.7471,-829.4039 930.8247,-825.0685 958.5,-820.7863 964.2253,-819.9004 970.2292,-818.9309 976.1737,-817.9463"/>
<polygon fill="#191970" stroke="#191970" points="874.2175,-829.3168 864.7718,-834.1154 875.1484,-836.2546 874.2175,-829.3168"/>
</g>
<!-- Node4 -->
<g id="node4" class="node">
<title>Node4</title>
<g id="a_node4"><a xlink:href="classcom_1_1aworx_1_1lox_1_1Lox.html" target="_top" xlink:title="Lox">
<polygon fill="#ffffff" stroke="#000000" points="813,-791.2863 813,-810.2863 845,-810.2863 845,-791.2863 813,-791.2863"/>
<text text-anchor="middle" x="829" y="-798.2863" font-family="Helvetica,sans-Serif" font-size="10.00" fill="#000000">Lox</text>
</a>
</g>
</g>
<!-- Node4&#45;&gt;Node1 -->
<g id="edge31" class="edge">
<title>Node4&#45;&gt;Node1</title>
<path fill="none" stroke="#9a32cd" stroke-dasharray="5,2" d="M855.2002,-796.2306C884.6176,-791.3084 933.8263,-783.6524 976.5,-779.7863 1056.1469,-772.5704 1151.895,-771.1375 1189.3604,-770.8548"/>
<polygon fill="#9a32cd" stroke="#9a32cd" points="854.5805,-792.7856 845.3064,-797.9083 855.7508,-799.6871 854.5805,-792.7856"/>
<text text-anchor="middle" x="1023" y="-782.7863" font-family="Helvetica,sans-Serif" font-size="10.00" fill="#000000"> LOX</text>
</g>
<!-- Node4&#45;&gt;Node2 -->
<g id="edge3" class="edge">
<title>Node4&#45;&gt;Node2</title>
<path fill="none" stroke="#9a32cd" stroke-dasharray="5,2" d="M855.222,-802.0028C886.1907,-803.4395 938.2822,-805.8561 976.2206,-807.6161"/>
<polygon fill="#9a32cd" stroke="#9a32cd" points="855.3581,-798.5054 845.2067,-801.5381 855.0337,-805.4979 855.3581,-798.5054"/>
<text text-anchor="middle" x="927.5" y="-808.7863" font-family="Helvetica,sans-Serif" font-size="10.00" fill="#000000"> lox</text>
</g>
<!-- Node5 -->
<g id="node5" class="node">
<title>Node5</title>
<g id="a_node5"><a xlink:href="classcom_1_1aworx_1_1lib_1_1threads_1_1ThreadLock.html" target="_top" xlink:title="ThreadLock">
<polygon fill="#ffffff" stroke="#000000" points="210,-168.2863 210,-187.2863 278,-187.2863 278,-168.2863 210,-168.2863"/>
<text text-anchor="middle" x="244" y="-175.2863" font-family="Helvetica,sans-Serif" font-size="10.00" fill="#000000">ThreadLock</text>
</a>
</g>
</g>
<!-- Node5&#45;&gt;Node4 -->
<g id="edge4" class="edge">
<title>Node5&#45;&gt;Node4</title>
<path fill="none" stroke="#191970" d="M254.2241,-196.3251C269.8613,-222.8708 302.29,-271.3103 343.5,-296.7863 389.3473,-325.129 420.1029,-290.2673 461.5,-324.7863 476.7845,-337.5312 464.1169,-353.1605 479.5,-365.7863 540.0149,-415.4545 576.2411,-382.2204 651.5,-403.7863 701.3638,-418.0751 727.7591,-403.3894 761.5,-442.7863 808.5043,-497.6699 825.3755,-739.7947 828.4578,-791.1804"/>
<polygon fill="#191970" stroke="#191970" points="257.2447,-194.5568 249.2375,-187.6188 251.1705,-198.0359 257.2447,-194.5568"/>
</g>
<!-- Node26 -->
<g id="node26" class="node">
<title>Node26</title>
<g id="a_node26"><a xlink:href="classcom_1_1aworx_1_1lib_1_1threads_1_1SmartLock.html" target="_top" xlink:title="SmartLock">
<polygon fill="#ffffff" stroke="#000000" points="533.5,-71.2863 533.5,-90.2863 597.5,-90.2863 597.5,-71.2863 533.5,-71.2863"/>
<text text-anchor="middle" x="565.5" y="-78.2863" font-family="Helvetica,sans-Serif" font-size="10.00" fill="#000000">SmartLock</text>
</a>
</g>
</g>
<!-- Node5&#45;&gt;Node26 -->
<g id="edge35" class="edge">
<title>Node5&#45;&gt;Node26</title>
<path fill="none" stroke="#191970" d="M259.5518,-160.7205C277.6804,-142.1011 309.5201,-113.1663 343.5,-99.7863 407.2072,-74.7008 488.9447,-75.221 533.3253,-77.931"/>
<polygon fill="#191970" stroke="#191970" points="256.7789,-158.5584 252.442,-168.2249 261.8604,-163.3727 256.7789,-158.5584"/>
</g>
<!-- Node6 -->
<g id="node6" class="node">
<title>Node6</title>
<g id="a_node6"><a xlink:href="enumcom_1_1aworx_1_1lib_1_1lang_1_1LockMode.html" target="_top" xlink:title="LockMode">
<polygon fill="#ffffff" stroke="#000000" points="9.5,-187.2863 9.5,-206.2863 71.5,-206.2863 71.5,-187.2863 9.5,-187.2863"/>
<text text-anchor="middle" x="40.5" y="-194.2863" font-family="Helvetica,sans-Serif" font-size="10.00" fill="#000000">LockMode</text>
</a>
</g>
</g>
<!-- Node6&#45;&gt;Node5 -->
<g id="edge5" class="edge">
<title>Node6&#45;&gt;Node5</title>
<path fill="none" stroke="#9a32cd" stroke-dasharray="5,2" d="M81.9993,-192.9117C119.7115,-189.3906 174.6829,-184.2581 209.8948,-180.9706"/>
<polygon fill="#9a32cd" stroke="#9a32cd" points="81.4822,-189.4446 71.8509,-193.8592 82.133,-196.4143 81.4822,-189.4446"/>
<text text-anchor="middle" x="121.5" y="-194.7863" font-family="Helvetica,sans-Serif" font-size="10.00" fill="#000000"> lockMode</text>
</g>
<!-- Node7 -->
<g id="node7" class="node">
<title>Node7</title>
<g id="a_node7"><a xlink:href="classcom_1_1aworx_1_1lib_1_1time_1_1Ticks.html" target="_top" xlink:title="Ticks">
<polygon fill="#ffffff" stroke="#000000" points="20,-109.2863 20,-128.2863 61,-128.2863 61,-109.2863 20,-109.2863"/>
<text text-anchor="middle" x="40.5" y="-116.2863" font-family="Helvetica,sans-Serif" font-size="10.00" fill="#000000">Ticks</text>
</a>
</g>
</g>
<!-- Node7&#45;&gt;Node5 -->
<g id="edge6" class="edge">
<title>Node7&#45;&gt;Node5</title>
<path fill="none" stroke="#9a32cd" stroke-dasharray="5,2" d="M70.9994,-127.6288C108.5794,-138.5243 172.194,-156.9678 210.9213,-168.1959"/>
<polygon fill="#9a32cd" stroke="#9a32cd" points="71.7117,-124.1913 61.1326,-124.7682 69.7624,-130.9144 71.7117,-124.1913"/>
<text text-anchor="middle" x="121.5" y="-151.7863" font-family="Helvetica,sans-Serif" font-size="10.00" fill="#000000"> waitTime</text>
</g>
<!-- Node7&#45;&gt;Node7 -->
<g id="edge7" class="edge">
<title>Node7&#45;&gt;Node7</title>
<path fill="none" stroke="#9a32cd" stroke-dasharray="5,2" d="M25.7675,-138.5526C26.9246,-143.2828 31.8354,-146.7863 40.5,-146.7863 54.7188,-146.7863 58.8289,-137.3515 52.8303,-128.5433"/>
<polygon fill="#9a32cd" stroke="#9a32cd" points="29.2393,-139.084 28.1697,-128.5433 22.4326,-137.4504 29.2393,-139.084"/>
<text text-anchor="middle" x="40.5" y="-160.7863" font-family="Helvetica,sans-Serif" font-size="10.00" fill="#000000"> tempTicks</text>
<text text-anchor="middle" x="40.5" y="-149.7863" font-family="Helvetica,sans-Serif" font-size="10.00" fill="#000000">creationTimeTicks</text>
</g>
<!-- Node17 -->
<g id="node17" class="node">
<title>Node17</title>
<g id="a_node17"><a xlink:href="classcom_1_1aworx_1_1lox_1_1core_1_1ScopeInfo.html" target="_top" xlink:title="ScopeInfo">
<polygon fill="#ffffff" stroke="#000000" points="535,-747.2863 535,-766.2863 596,-766.2863 596,-747.2863 535,-747.2863"/>
<text text-anchor="middle" x="565.5" y="-754.2863" font-family="Helvetica,sans-Serif" font-size="10.00" fill="#000000">ScopeInfo</text>
</a>
</g>
</g>
<!-- Node7&#45;&gt;Node17 -->
<g id="edge20" class="edge">
<title>Node7&#45;&gt;Node17</title>
<path fill="none" stroke="#9a32cd" stroke-dasharray="5,2" d="M55.6075,-136.4425C64.3039,-147.5799 74.639,-162.6734 80.5,-177.7863 126.3732,-296.0736 70.5532,-655.3675 162.5,-742.7863 215.456,-793.1344 450.0132,-770.6808 534.7938,-760.6771"/>
<polygon fill="#9a32cd" stroke="#9a32cd" points="58.1233,-133.9884 49.1013,-128.4338 52.6902,-138.4023 58.1233,-133.9884"/>
<text text-anchor="middle" x="244" y="-776.7863" font-family="Helvetica,sans-Serif" font-size="10.00" fill="#000000"> timeStamp</text>
</g>
<!-- Node25 -->
<g id="node25" class="node">
<title>Node25</title>
<g id="a_node25"><a xlink:href="classcom_1_1aworx_1_1lox_1_1core_1_1Logger.html" target="_top" xlink:title="Logger">
<polygon fill="#ffffff" stroke="#000000" points="806,-166.2863 806,-185.2863 852,-185.2863 852,-166.2863 806,-166.2863"/>
<text text-anchor="middle" x="829" y="-173.2863" font-family="Helvetica,sans-Serif" font-size="10.00" fill="#000000">Logger</text>
</a>
</g>
</g>
<!-- Node7&#45;&gt;Node25 -->
<g id="edge37" class="edge">
<title>Node7&#45;&gt;Node25</title>
<path fill="none" stroke="#9a32cd" stroke-dasharray="5,2" d="M57.6824,-101.9906C79.7959,-81.6392 120.4062,-48.388 162.5,-34.7863 239.0661,-10.0455 263.0408,-31.6752 343.5,-30.7863 530.0733,-28.7249 624.7274,57.1274 761.5,-69.7863 790.4442,-96.6441 753.9373,-126.6921 779.5,-156.7863 786.1744,-164.6439 796.4833,-169.2628 805.969,-171.9729"/>
<polygon fill="#9a32cd" stroke="#9a32cd" points="55.0252,-99.6853 50.1482,-109.091 59.8262,-104.7796 55.0252,-99.6853"/>
<text text-anchor="middle" x="402.5" y="-44.7863" font-family="Helvetica,sans-Serif" font-size="10.00" fill="#000000"> timeOfCreation</text>
<text text-anchor="middle" x="402.5" y="-33.7863" font-family="Helvetica,sans-Serif" font-size="10.00" fill="#000000">timeOfLastLog</text>
</g>
<!-- Node29 -->
<g id="node29" class="node">
<title>Node29</title>
<g id="a_node29"><a xlink:href="classcom_1_1aworx_1_1lox_1_1core_1_1textlogger_1_1MetaInfo.html" target="_top" xlink:title="MetaInfo">
<polygon fill="#ffffff" stroke="#000000" points="801.5,-242.2863 801.5,-261.2863 856.5,-261.2863 856.5,-242.2863 801.5,-242.2863"/>
<text text-anchor="middle" x="829" y="-249.2863" font-family="Helvetica,sans-Serif" font-size="10.00" fill="#000000">MetaInfo</text>
</a>
</g>
</g>
<!-- Node7&#45;&gt;Node29 -->
<g id="edge47" class="edge">
<title>Node7&#45;&gt;Node29</title>
<path fill="none" stroke="#9a32cd" stroke-dasharray="5,2" d="M71.1952,-117.7068C202.055,-113.3993 709.0463,-99.8097 761.5,-145.7863 791.1936,-171.8132 753.9373,-202.6921 779.5,-232.7863 785.1017,-239.381 793.2636,-243.6945 801.3503,-246.5128"/>
<polygon fill="#9a32cd" stroke="#9a32cd" points="70.9461,-114.2131 61.0691,-118.0465 71.1809,-121.2091 70.9461,-114.2131"/>
<text text-anchor="middle" x="402.5" y="-127.7863" font-family="Helvetica,sans-Serif" font-size="10.00" fill="#000000"> elapsedTime</text>
<text text-anchor="middle" x="402.5" y="-116.7863" font-family="Helvetica,sans-Serif" font-size="10.00" fill="#000000">maxElapsedTime</text>
</g>
<!-- Node8 -->
<g id="node8" class="node">
<title>Node8</title>
<polygon fill="#ffffff" stroke="#bfbfbf" points="514,-785.7863 514,-815.7863 617,-815.7863 617,-785.7863 514,-785.7863"/>
<text text-anchor="start" x="522" y="-803.7863" font-family="Helvetica,sans-Serif" font-size="10.00" fill="#000000">ArrayList&lt; ArrayList</text>
<text text-anchor="middle" x="565.5" y="-792.7863" font-family="Helvetica,sans-Serif" font-size="10.00" fill="#000000">&lt; Object &gt; &gt;</text>
</g>
<!-- Node8&#45;&gt;Node4 -->
<g id="edge8" class="edge">
<title>Node8&#45;&gt;Node4</title>
<path fill="none" stroke="#9a32cd" stroke-dasharray="5,2" d="M627.4889,-800.7863C688.212,-800.7863 776.7196,-800.7863 812.7916,-800.7863"/>
<polygon fill="#9a32cd" stroke="#9a32cd" points="627.2448,-797.2864 617.2447,-800.7863 627.2447,-804.2864 627.2448,-797.2864"/>
<text text-anchor="middle" x="715.5" y="-803.7863" font-family="Helvetica,sans-Serif" font-size="10.00" fill="#000000"> logableLists</text>
</g>
<!-- Node9 -->
<g id="node9" class="node">
<title>Node9</title>
<polygon fill="#ffffff" stroke="#bfbfbf" points="180,-714.2863 180,-733.2863 308,-733.2863 308,-714.2863 180,-714.2863"/>
<text text-anchor="middle" x="244" y="-721.2863" font-family="Helvetica,sans-Serif" font-size="10.00" fill="#000000">HashMap&lt; Long, String &gt;</text>
</g>
<!-- Node9&#45;&gt;Node4 -->
<g id="edge9" class="edge">
<title>Node9&#45;&gt;Node4</title>
<path fill="none" stroke="#9a32cd" stroke-dasharray="5,2" d="M318.1451,-716.8282C400.3503,-710.8465 536.532,-706.0952 651.5,-726.7863 714.2604,-738.0814 782.1769,-773.7146 812.6197,-791.0814"/>
<polygon fill="#9a32cd" stroke="#9a32cd" points="317.855,-713.3401 308.1462,-717.5814 318.3808,-720.3203 317.855,-713.3401"/>
<text text-anchor="middle" x="565.5" y="-729.7863" font-family="Helvetica,sans-Serif" font-size="10.00" fill="#000000"> threadDictionary</text>
</g>
<!-- Node9&#45;&gt;Node17 -->
<g id="edge18" class="edge">
<title>Node9&#45;&gt;Node17</title>
<path fill="none" stroke="#9a32cd" stroke-dasharray="5,2" d="M318.6099,-731.4445C387.2307,-738.488 485.5721,-748.5822 534.8677,-753.6421"/>
<polygon fill="#9a32cd" stroke="#9a32cd" points="318.5928,-727.9245 308.2876,-730.385 317.8779,-734.8879 318.5928,-727.9245"/>
<text text-anchor="middle" x="402.5" y="-747.7863" font-family="Helvetica,sans-Serif" font-size="10.00" fill="#000000"> threadDictionary</text>
</g>
<!-- Node10 -->
<g id="node10" class="node">
<title>Node10</title>
<g id="a_node10"><a xlink:href="classcom_1_1aworx_1_1lox_1_1core_1_1ScopeStore.html" target="_top" xlink:title="ScopeStore\&lt; Object \&gt;">
<polygon fill="#ffffff" stroke="#000000" points="508.5,-1102.2863 508.5,-1121.2863 622.5,-1121.2863 622.5,-1102.2863 508.5,-1102.2863"/>
<text text-anchor="middle" x="565.5" y="-1109.2863" font-family="Helvetica,sans-Serif" font-size="10.00" fill="#000000">ScopeStore&lt; Object &gt;</text>
</a>
</g>
</g>
<!-- Node10&#45;&gt;Node4 -->
<g id="edge10" class="edge">
<title>Node10&#45;&gt;Node4</title>
<path fill="none" stroke="#9a32cd" stroke-dasharray="5,2" d="M632.83,-1121.6496C675.9249,-1123.847 729.5575,-1118.1783 761.5,-1083.7863 801.5172,-1040.7003 744.5632,-867.0853 779.5,-819.7863 787.266,-809.2722 801.6467,-804.5763 812.9144,-802.479"/>
<polygon fill="#9a32cd" stroke="#9a32cd" points="632.894,-1118.1463 622.6852,-1120.9801 632.433,-1125.1311 632.894,-1118.1463"/>
<text text-anchor="middle" x="715.5" y="-1123.7863" font-family="Helvetica,sans-Serif" font-size="10.00" fill="#000000"> scopePrefixes</text>
</g>
<!-- Node11 -->
<g id="node11" class="node">
<title>Node11</title>
<polygon fill="#ffffff" stroke="#bfbfbf" points="491,-1052.7863 491,-1082.7863 640,-1082.7863 640,-1052.7863 491,-1052.7863"/>
<text text-anchor="start" x="499" y="-1070.7863" font-family="Helvetica,sans-Serif" font-size="10.00" fill="#000000">ArrayList&lt; com.aworx.lox.</text>
<text text-anchor="middle" x="565.5" y="-1059.7863" font-family="Helvetica,sans-Serif" font-size="10.00" fill="#000000">Lox.DomainSubstitutionRule &gt;</text>
</g>
<!-- Node11&#45;&gt;Node4 -->
<g id="edge11" class="edge">
<title>Node11&#45;&gt;Node4</title>
<path fill="none" stroke="#9a32cd" stroke-dasharray="5,2" d="M650.5601,-1071.6919C690.0094,-1068.707 734.1221,-1057.6473 761.5,-1026.7863 792.1422,-992.2457 751.7214,-856.6692 779.5,-819.7863 787.3638,-809.3452 801.7338,-804.6413 812.9726,-802.5224"/>
<polygon fill="#9a32cd" stroke="#9a32cd" points="650.1534,-1068.2097 640.3781,-1072.2955 650.5678,-1075.1975 650.1534,-1068.2097"/>
<text text-anchor="middle" x="715.5" y="-1071.7863" font-family="Helvetica,sans-Serif" font-size="10.00" fill="#000000"> domainSubstitutions</text>
</g>
<!-- Node12 -->
<g id="node12" class="node">
<title>Node12</title>
<g id="a_node12"><a xlink:href="classcom_1_1aworx_1_1lox_1_1core_1_1ScopeStore.html" target="_top" xlink:title="ScopeStore\&lt; HashMap\l\&lt; com.aworx.lib.strings.AString,\l int[]\&gt; \&gt;">
<polygon fill="#ffffff" stroke="#000000" points="487.5,-992.2863 487.5,-1033.2863 643.5,-1033.2863 643.5,-992.2863 487.5,-992.2863"/>
<text text-anchor="start" x="495.5" y="-1021.2863" font-family="Helvetica,sans-Serif" font-size="10.00" fill="#000000">ScopeStore&lt; HashMap</text>
<text text-anchor="start" x="495.5" y="-1010.2863" font-family="Helvetica,sans-Serif" font-size="10.00" fill="#000000">&lt; com.aworx.lib.strings.AString,</text>
<text text-anchor="middle" x="565.5" y="-999.2863" font-family="Helvetica,sans-Serif" font-size="10.00" fill="#000000"> int[]&gt; &gt;</text>
</a>
</g>
</g>
<!-- Node12&#45;&gt;Node4 -->
<g id="edge12" class="edge">
<title>Node12&#45;&gt;Node4</title>
<path fill="none" stroke="#9a32cd" stroke-dasharray="5,2" d="M654.1542,-1014.4932C692.5053,-1010.3833 734.6621,-998.4698 761.5,-968.7863 806.2353,-919.3077 738.4838,-872.3891 779.5,-819.7863 787.4243,-809.6235 801.4855,-804.8939 812.6014,-802.6943"/>
<polygon fill="#9a32cd" stroke="#9a32cd" points="653.621,-1011.0271 643.9776,-1015.4152 654.2527,-1017.9986 653.621,-1011.0271"/>
<text text-anchor="middle" x="715.5" y="-1014.7863" font-family="Helvetica,sans-Serif" font-size="10.00" fill="#000000"> scopeLogOnce</text>
</g>
<!-- Node13 -->
<g id="node13" class="node">
<title>Node13</title>
<g id="a_node13"><a xlink:href="classcom_1_1aworx_1_1lox_1_1core_1_1ScopeStore.html" target="_top" xlink:title="ScopeStore\&lt; HashMap\l\&lt; com.aworx.lib.strings.AString,\l Object \&gt; \&gt;">
<polygon fill="#ffffff" stroke="#000000" points="487.5,-932.2863 487.5,-973.2863 643.5,-973.2863 643.5,-932.2863 487.5,-932.2863"/>
<text text-anchor="start" x="495.5" y="-961.2863" font-family="Helvetica,sans-Serif" font-size="10.00" fill="#000000">ScopeStore&lt; HashMap</text>
<text text-anchor="start" x="495.5" y="-950.2863" font-family="Helvetica,sans-Serif" font-size="10.00" fill="#000000">&lt; com.aworx.lib.strings.AString,</text>
<text text-anchor="middle" x="565.5" y="-939.2863" font-family="Helvetica,sans-Serif" font-size="10.00" fill="#000000"> Object &gt; &gt;</text>
</a>
</g>
</g>
<!-- Node13&#45;&gt;Node4 -->
<g id="edge13" class="edge">
<title>Node13&#45;&gt;Node4</title>
<path fill="none" stroke="#9a32cd" stroke-dasharray="5,2" d="M653.9502,-956.5121C691.8282,-953.3522 733.6608,-942.744 761.5,-914.7863 791.8222,-884.335 751.9548,-852.7708 779.5,-819.7863 787.7604,-809.8947 801.7901,-805.1397 812.8084,-802.8614"/>
<polygon fill="#9a32cd" stroke="#9a32cd" points="653.6458,-953.0246 643.9033,-957.1879 654.1156,-960.0088 653.6458,-953.0246"/>
<text text-anchor="middle" x="715.5" y="-956.7863" font-family="Helvetica,sans-Serif" font-size="10.00" fill="#000000"> scopeLogData</text>
</g>
<!-- Node14 -->
<g id="node14" class="node">
<title>Node14</title>
<g id="a_node14"><a xlink:href="classcom_1_1aworx_1_1lox_1_1core_1_1ScopeStore.html" target="_top" xlink:title="ScopeStore\&lt; com.aworx.lib.strings.\lAString \&gt;">
<polygon fill="#ffffff" stroke="#000000" points="479.5,-882.7863 479.5,-912.7863 651.5,-912.7863 651.5,-882.7863 479.5,-882.7863"/>
<text text-anchor="start" x="487.5" y="-900.7863" font-family="Helvetica,sans-Serif" font-size="10.00" fill="#000000">ScopeStore&lt; com.aworx.lib.strings.</text>
<text text-anchor="middle" x="565.5" y="-889.7863" font-family="Helvetica,sans-Serif" font-size="10.00" fill="#000000">AString &gt;</text>
</a>
</g>
</g>
<!-- Node14&#45;&gt;Node4 -->
<g id="edge14" class="edge">
<title>Node14&#45;&gt;Node4</title>
<path fill="none" stroke="#9a32cd" stroke-dasharray="5,2" d="M661.9979,-901.769C696.5981,-898.5613 733.8487,-889.1906 761.5,-866.7863 778.8796,-852.7046 763.6891,-835.6091 779.5,-819.7863 788.479,-810.8005 802.1617,-805.9814 812.8676,-803.4478"/>
<polygon fill="#9a32cd" stroke="#9a32cd" points="661.5449,-898.2933 651.8407,-902.5454 662.0784,-905.273 661.5449,-898.2933"/>
<text text-anchor="middle" x="715.5" y="-902.7863" font-family="Helvetica,sans-Serif" font-size="10.00" fill="#000000"> scopeDomains</text>
</g>
<!-- Node15 -->
<g id="node15" class="node">
<title>Node15</title>
<g id="a_node15"><a xlink:href="classcom_1_1aworx_1_1lib_1_1strings_1_1AString.html" target="_top" xlink:title="AString">
<polygon fill="#ffffff" stroke="#000000" points="219.5,-569.2863 219.5,-588.2863 268.5,-588.2863 268.5,-569.2863 219.5,-569.2863"/>
<text text-anchor="middle" x="244" y="-576.2863" font-family="Helvetica,sans-Serif" font-size="10.00" fill="#000000">AString</text>
</a>
</g>
</g>
<!-- Node15&#45;&gt;Node4 -->
<g id="edge15" class="edge">
<title>Node15&#45;&gt;Node4</title>
<path fill="none" stroke="#9a32cd" stroke-dasharray="5,2" d="M278.571,-579.3634C364.4904,-581.2554 585.5275,-589.0555 651.5,-619.7863 736.8777,-659.5562 803.55,-759.3171 823.1288,-790.9806"/>
<polygon fill="#9a32cd" stroke="#9a32cd" points="278.6166,-575.8637 268.5464,-579.1563 278.4719,-582.8622 278.6166,-575.8637"/>
<text text-anchor="middle" x="565.5" y="-699.7863" font-family="Helvetica,sans-Serif" font-size="10.00" fill="#000000"> tmpAS</text>
<text text-anchor="middle" x="565.5" y="-688.7863" font-family="Helvetica,sans-Serif" font-size="10.00" fill="#000000">intMsg</text>
<text text-anchor="middle" x="565.5" y="-677.7863" font-family="Helvetica,sans-Serif" font-size="10.00" fill="#000000">resDomainInternal</text>
<text text-anchor="middle" x="565.5" y="-666.7863" font-family="Helvetica,sans-Serif" font-size="10.00" fill="#000000">resDomain</text>
<text text-anchor="middle" x="565.5" y="-655.7863" font-family="Helvetica,sans-Serif" font-size="10.00" fill="#000000">tmpSubstitutionPath</text>
<text text-anchor="middle" x="565.5" y="-644.7863" font-family="Helvetica,sans-Serif" font-size="10.00" fill="#000000">tmpComments</text>
<text text-anchor="start" x="521" y="-633.7863" font-family="Helvetica,sans-Serif" font-size="10.00" fill="#000000">tmpSubstitutionPath</text>
<text text-anchor="middle" x="565.5" y="-622.7863" font-family="Helvetica,sans-Serif" font-size="10.00" fill="#000000">InternalDomains</text>
</g>
<!-- Node15&#45;&gt;Node17 -->
<g id="edge19" class="edge">
<title>Node15&#45;&gt;Node17</title>
<path fill="none" stroke="#9a32cd" stroke-dasharray="5,2" d="M278.2273,-589.9884C332.7953,-608.4674 435.9681,-646.1429 461.5,-674.7863 479.4595,-694.9345 460.1421,-713.9776 479.5,-732.7863 494.175,-747.045 516.5812,-752.9803 534.8441,-755.3847"/>
<polygon fill="#9a32cd" stroke="#9a32cd" points="279.2276,-586.6323 268.6336,-586.7678 276.9998,-593.2683 279.2276,-586.6323"/>
<text text-anchor="middle" x="402.5" y="-721.7863" font-family="Helvetica,sans-Serif" font-size="10.00" fill="#000000"> className</text>
<text text-anchor="middle" x="402.5" y="-710.7863" font-family="Helvetica,sans-Serif" font-size="10.00" fill="#000000">threadName</text>
<text text-anchor="middle" x="402.5" y="-699.7863" font-family="Helvetica,sans-Serif" font-size="10.00" fill="#000000">methodName</text>
<text text-anchor="middle" x="402.5" y="-688.7863" font-family="Helvetica,sans-Serif" font-size="10.00" fill="#000000">packageName</text>
<text text-anchor="middle" x="402.5" y="-677.7863" font-family="Helvetica,sans-Serif" font-size="10.00" fill="#000000">fileName</text>
</g>
<!-- Node19 -->
<g id="node19" class="node">
<title>Node19</title>
<g id="a_node19"><a xlink:href="classcom_1_1aworx_1_1lox_1_1core_1_1Domain.html" target="_top" xlink:title="Domain">
<polygon fill="#ffffff" stroke="#000000" points="540.5,-413.2863 540.5,-432.2863 590.5,-432.2863 590.5,-413.2863 540.5,-413.2863"/>
<text text-anchor="middle" x="565.5" y="-420.2863" font-family="Helvetica,sans-Serif" font-size="10.00" fill="#000000">Domain</text>
</a>
</g>
</g>
<!-- Node15&#45;&gt;Node19 -->
<g id="edge24" class="edge">
<title>Node15&#45;&gt;Node19</title>
<path fill="none" stroke="#9a32cd" stroke-dasharray="5,2" d="M258.6374,-561.3379C276.5143,-541.2483 308.7,-508.8328 343.5,-491.7863 391.4839,-468.2818 410.5261,-484.8044 461.5,-468.7863 492.5775,-459.0205 526.7979,-442.7341 547.1995,-432.3894"/>
<polygon fill="#9a32cd" stroke="#9a32cd" points="255.8002,-559.2671 251.886,-569.1124 261.0855,-563.8569 255.8002,-559.2671"/>
<text text-anchor="middle" x="402.5" y="-516.7863" font-family="Helvetica,sans-Serif" font-size="10.00" fill="#000000"> fullPath</text>
<text text-anchor="middle" x="402.5" y="-505.7863" font-family="Helvetica,sans-Serif" font-size="10.00" fill="#000000">tAString</text>
<text text-anchor="middle" x="402.5" y="-494.7863" font-family="Helvetica,sans-Serif" font-size="10.00" fill="#000000">name</text>
</g>
<!-- Node24 -->
<g id="node24" class="node">
<title>Node24</title>
<g id="a_node24"><a xlink:href="classcom_1_1aworx_1_1lox_1_1core_1_1textlogger_1_1TextLogger.html" target="_top" xlink:title="TextLogger">
<polygon fill="#ffffff" stroke="#000000" points="990.5,-204.2863 990.5,-223.2863 1055.5,-223.2863 1055.5,-204.2863 990.5,-204.2863"/>
<text text-anchor="middle" x="1023" y="-211.2863" font-family="Helvetica,sans-Serif" font-size="10.00" fill="#000000">TextLogger</text>
</a>
</g>
</g>
<!-- Node15&#45;&gt;Node24 -->
<g id="edge49" class="edge">
<title>Node15&#45;&gt;Node24</title>
<path fill="none" stroke="#9a32cd" stroke-dasharray="5,2" d="M278.6734,-577.5763C380.9173,-573.4743 679.18,-557.5179 761.5,-508.7863 892.8351,-431.0388 993.7872,-264.8947 1017.6315,-223.3526"/>
<polygon fill="#9a32cd" stroke="#9a32cd" points="278.4298,-574.0831 268.5731,-577.9682 278.7013,-581.0778 278.4298,-574.0831"/>
<text text-anchor="middle" x="715.5" y="-552.7863" font-family="Helvetica,sans-Serif" font-size="10.00" fill="#000000"> logBuf</text>
<text text-anchor="middle" x="715.5" y="-541.7863" font-family="Helvetica,sans-Serif" font-size="10.00" fill="#000000">msgBuf</text>
</g>
<!-- Node15&#45;&gt;Node29 -->
<g id="edge44" class="edge">
<title>Node15&#45;&gt;Node29</title>
<path fill="none" stroke="#9a32cd" stroke-dasharray="5,2" d="M278.6683,-569.5218C297.7674,-564.4696 321.9131,-558.1671 343.5,-552.7863 395.8004,-539.7497 412.4889,-547.2183 461.5,-524.7863 470.4731,-520.6794 470.2721,-515.2832 479.5,-511.7863 538.3884,-489.4708 713.0641,-524.0329 761.5,-483.7863 797.3124,-454.0288 821.7736,-301.4147 827.6394,-261.4014"/>
<polygon fill="#9a32cd" stroke="#9a32cd" points="277.672,-566.1649 268.9037,-572.112 279.4668,-572.9309 277.672,-566.1649"/>
<text text-anchor="middle" x="565.5" y="-525.7863" font-family="Helvetica,sans-Serif" font-size="10.00" fill="#000000"> format</text>
<text text-anchor="middle" x="565.5" y="-514.7863" font-family="Helvetica,sans-Serif" font-size="10.00" fill="#000000">tmpAString</text>
</g>
<!-- Node16 -->
<g id="node16" class="node">
<title>Node16</title>
<polygon fill="#ffffff" stroke="#bfbfbf" points=".5,-804.2863 .5,-823.2863 80.5,-823.2863 80.5,-804.2863 .5,-804.2863"/>
<text text-anchor="middle" x="40.5" y="-811.2863" font-family="Helvetica,sans-Serif" font-size="10.00" fill="#000000">CharSequence</text>
</g>
<!-- Node16&#45;&gt;Node15 -->
<g id="edge16" class="edge">
<title>Node16&#45;&gt;Node15</title>
<path fill="none" stroke="#191970" d="M82.8215,-825.0814C103.6869,-827.9913 127.8739,-827.0086 144.5,-812.7863 181.4785,-781.1542 144.9192,-750.1615 162.5,-704.7863 180.948,-657.1729 218.9213,-608.6086 235.7079,-588.4596"/>
<polygon fill="#191970" stroke="#191970" points="83.3403,-821.6194 72.893,-823.3812 82.1587,-828.519 83.3403,-821.6194"/>
</g>
<!-- Node20 -->
<g id="node20" class="node">
<title>Node20</title>
<g id="a_node20"><a xlink:href="classcom_1_1aworx_1_1lib_1_1strings_1_1Substring.html" target="_top" xlink:title="Substring">
<polygon fill="#ffffff" stroke="#000000" points="215,-320.2863 215,-339.2863 273,-339.2863 273,-320.2863 215,-320.2863"/>
<text text-anchor="middle" x="244" y="-327.2863" font-family="Helvetica,sans-Serif" font-size="10.00" fill="#000000">Substring</text>
</a>
</g>
</g>
<!-- Node16&#45;&gt;Node20 -->
<g id="edge26" class="edge">
<title>Node16&#45;&gt;Node20</title>
<path fill="none" stroke="#191970" d="M42.9931,-793.8306C53.4549,-713.2532 96.3578,-413.1312 162.5,-348.7863 176.2463,-335.4135 197.4851,-330.7799 214.835,-329.4286"/>
<polygon fill="#191970" stroke="#191970" points="39.4802,-793.7092 41.686,-804.0719 46.4239,-794.5955 39.4802,-793.7092"/>
</g>
<!-- Node17&#45;&gt;Node4 -->
<g id="edge17" class="edge">
<title>Node17&#45;&gt;Node4</title>
<path fill="none" stroke="#9a32cd" stroke-dasharray="5,2" d="M606.2644,-761.9498C646.0077,-767.1882 708.0931,-775.9143 761.5,-785.7863 779.207,-789.0593 799.3379,-793.6466 812.9729,-796.8843"/>
<polygon fill="#9a32cd" stroke="#9a32cd" points="606.5364,-758.4556 596.1672,-760.6306 605.6296,-765.3967 606.5364,-758.4556"/>
<text text-anchor="middle" x="715.5" y="-788.7863" font-family="Helvetica,sans-Serif" font-size="10.00" fill="#000000"> scopeInfo</text>
</g>
<!-- Node18 -->
<g id="node18" class="node">
<title>Node18</title>
<polygon fill="#ffffff" stroke="#bfbfbf" points="200,-811.2863 200,-830.2863 288,-830.2863 288,-811.2863 200,-811.2863"/>
<text text-anchor="middle" x="244" y="-818.2863" font-family="Helvetica,sans-Serif" font-size="10.00" fill="#000000">Vector&lt; String &gt;</text>
</g>
<!-- Node18&#45;&gt;Node4 -->
<g id="edge22" class="edge">
<title>Node18&#45;&gt;Node4</title>
<path fill="none" stroke="#9a32cd" stroke-dasharray="5,2" d="M298.8139,-827.9405C313.3168,-829.5334 328.9775,-830.986 343.5,-831.7863 529.1322,-842.0162 577.8054,-844.426 761.5,-815.7863 779.1734,-813.0308 799.1402,-808.4015 812.7436,-805.013"/>
<polygon fill="#9a32cd" stroke="#9a32cd" points="298.8233,-824.419 288.491,-826.7632 298.03,-831.3739 298.8233,-824.419"/>
<text text-anchor="middle" x="565.5" y="-841.7863" font-family="Helvetica,sans-Serif" font-size="10.00" fill="#000000"> omittablePackagePrefixes</text>
</g>
<!-- Node18&#45;&gt;Node17 -->
<g id="edge21" class="edge">
<title>Node18&#45;&gt;Node17</title>
<path fill="none" stroke="#9a32cd" stroke-dasharray="5,2" d="M298.4674,-821.022C343.7531,-819.4284 409.0385,-812.9082 461.5,-790.7863 470.8386,-786.8484 470.3511,-781.1468 479.5,-776.7863 496.9354,-768.4762 518.0412,-763.5014 534.9807,-760.5918"/>
<polygon fill="#9a32cd" stroke="#9a32cd" points="298.1617,-817.5291 288.2644,-821.3097 298.3591,-824.5263 298.1617,-817.5291"/>
<text text-anchor="middle" x="402.5" y="-819.7863" font-family="Helvetica,sans-Serif" font-size="10.00" fill="#000000"> omittablePackagePrefixes</text>
</g>
<!-- Node19&#45;&gt;Node4 -->
<g id="edge23" class="edge">
<title>Node19&#45;&gt;Node4</title>
<path fill="none" stroke="#9a32cd" stroke-dasharray="5,2" d="M600.5426,-427.3824C644.8374,-435.1023 720.2685,-454.9528 761.5,-503.7863 799.9621,-549.3398 823.0389,-745.0871 827.9918,-791.0834"/>
<polygon fill="#9a32cd" stroke="#9a32cd" points="600.956,-423.9037 590.5234,-425.7509 599.8309,-430.8127 600.956,-423.9037"/>
<text text-anchor="middle" x="715.5" y="-517.7863" font-family="Helvetica,sans-Serif" font-size="10.00" fill="#000000"> domains</text>
<text text-anchor="middle" x="715.5" y="-506.7863" font-family="Helvetica,sans-Serif" font-size="10.00" fill="#000000">internalDomains</text>
</g>
<!-- Node19&#45;&gt;Node19 -->
<g id="edge30" class="edge">
<title>Node19&#45;&gt;Node19</title>
<path fill="none" stroke="#9a32cd" stroke-dasharray="5,2" d="M537.5009,-441.4402C538.6712,-446.7231 548.0043,-450.7863 565.5,-450.7863 592.1602,-450.7863 599.8666,-441.3515 588.6194,-432.5433"/>
<polygon fill="#9a32cd" stroke="#9a32cd" points="540.6403,-442.9943 542.3806,-432.5433 534.5029,-439.628 540.6403,-442.9943"/>
<text text-anchor="middle" x="565.5" y="-453.7863" font-family="Helvetica,sans-Serif" font-size="10.00" fill="#000000"> parent</text>
</g>
<!-- Node20&#45;&gt;Node19 -->
<g id="edge25" class="edge">
<title>Node20&#45;&gt;Node19</title>
<path fill="none" stroke="#9a32cd" stroke-dasharray="5,2" d="M283.2023,-325.8474C330.0739,-323.2326 408.7849,-325.719 461.5,-363.7863 475.6811,-374.0269 465.9423,-387.7335 479.5,-398.7863 496.8008,-412.8906 521.8491,-418.7213 540.455,-421.1235"/>
<polygon fill="#9a32cd" stroke="#9a32cd" points="282.8853,-322.3607 273.139,-326.515 283.3488,-329.3453 282.8853,-322.3607"/>
<text text-anchor="middle" x="402.5" y="-377.7863" font-family="Helvetica,sans-Serif" font-size="10.00" fill="#000000"> tSubstring2</text>
<text text-anchor="middle" x="402.5" y="-366.7863" font-family="Helvetica,sans-Serif" font-size="10.00" fill="#000000">tSubstring</text>
</g>
<!-- Node32 -->
<g id="node32" class="node">
<title>Node32</title>
<g id="a_node32"><a xlink:href="classcom_1_1aworx_1_1lib_1_1strings_1_1util_1_1Tokenizer.html" target="_top" xlink:title="Tokenizer">
<polygon fill="#ffffff" stroke="#000000" points="536,-337.2863 536,-356.2863 595,-356.2863 595,-337.2863 536,-337.2863"/>
<text text-anchor="middle" x="565.5" y="-344.2863" font-family="Helvetica,sans-Serif" font-size="10.00" fill="#000000">Tokenizer</text>
</a>
</g>
</g>
<!-- Node20&#45;&gt;Node32 -->
<g id="edge43" class="edge">
<title>Node20&#45;&gt;Node32</title>
<path fill="none" stroke="#9a32cd" stroke-dasharray="5,2" d="M278.1511,-316.782C297.0958,-310.2608 321.2587,-303.0663 343.5,-299.7863 395.3833,-292.1348 415.4689,-274.6555 461.5,-299.7863 474.4849,-306.8754 467.3609,-319.3301 479.5,-327.7863 495.9359,-339.2357 518.0703,-343.9426 535.7673,-345.8095"/>
<polygon fill="#9a32cd" stroke="#9a32cd" points="276.7415,-313.5681 268.4839,-320.2061 279.0786,-320.1665 276.7415,-313.5681"/>
<text text-anchor="middle" x="402.5" y="-313.7863" font-family="Helvetica,sans-Serif" font-size="10.00" fill="#000000"> rest</text>
<text text-anchor="middle" x="402.5" y="-302.7863" font-family="Helvetica,sans-Serif" font-size="10.00" fill="#000000">actual</text>
</g>
<!-- Node21 -->
<g id="node21" class="node">
<title>Node21</title>
<polygon fill="#ffffff" stroke="#bfbfbf" points="168,-358.7863 168,-388.7863 320,-388.7863 320,-358.7863 168,-358.7863"/>
<text text-anchor="start" x="176" y="-376.7863" font-family="Helvetica,sans-Serif" font-size="10.00" fill="#000000">ArrayList&lt; com.aworx.lox.core.</text>
<text text-anchor="middle" x="244" y="-365.7863" font-family="Helvetica,sans-Serif" font-size="10.00" fill="#000000">Domain.PL &gt;</text>
</g>
<!-- Node21&#45;&gt;Node19 -->
<g id="edge27" class="edge">
<title>Node21&#45;&gt;Node19</title>
<path fill="none" stroke="#9a32cd" stroke-dasharray="5,2" d="M330.3866,-386.9525C400.7495,-397.6766 495.4939,-412.1166 540.1739,-418.9263"/>
<polygon fill="#9a32cd" stroke="#9a32cd" points="330.6042,-383.4453 320.191,-385.3986 329.5495,-390.3654 330.6042,-383.4453"/>
<text text-anchor="middle" x="402.5" y="-408.7863" font-family="Helvetica,sans-Serif" font-size="10.00" fill="#000000"> prefixLogables</text>
</g>
<!-- Node22 -->
<g id="node22" class="node">
<title>Node22</title>
<polygon fill="#ffffff" stroke="#bfbfbf" points="168,-456.7863 168,-486.7863 320,-486.7863 320,-456.7863 168,-456.7863"/>
<text text-anchor="start" x="176" y="-474.7863" font-family="Helvetica,sans-Serif" font-size="10.00" fill="#000000">ArrayList&lt; com.aworx.lox.core.</text>
<text text-anchor="middle" x="244" y="-463.7863" font-family="Helvetica,sans-Serif" font-size="10.00" fill="#000000">Domain.LoggerData &gt;</text>
</g>
<!-- Node22&#45;&gt;Node19 -->
<g id="edge28" class="edge">
<title>Node22&#45;&gt;Node19</title>
<path fill="none" stroke="#9a32cd" stroke-dasharray="5,2" d="M330.3866,-458.62C400.7495,-447.896 495.4939,-433.456 540.1739,-426.6462"/>
<polygon fill="#9a32cd" stroke="#9a32cd" points="329.5495,-455.2071 320.191,-460.174 330.6042,-462.1272 329.5495,-455.2071"/>
<text text-anchor="middle" x="402.5" y="-459.7863" font-family="Helvetica,sans-Serif" font-size="10.00" fill="#000000"> data</text>
</g>
<!-- Node23 -->
<g id="node23" class="node">
<title>Node23</title>
<polygon fill="#ffffff" stroke="#bfbfbf" points="168,-407.7863 168,-437.7863 320,-437.7863 320,-407.7863 168,-407.7863"/>
<text text-anchor="start" x="176" y="-425.7863" font-family="Helvetica,sans-Serif" font-size="10.00" fill="#000000">ArrayList&lt; com.aworx.lox.core.</text>
<text text-anchor="middle" x="244" y="-414.7863" font-family="Helvetica,sans-Serif" font-size="10.00" fill="#000000">Domain &gt;</text>
</g>
<!-- Node23&#45;&gt;Node19 -->
<g id="edge29" class="edge">
<title>Node23&#45;&gt;Node19</title>
<path fill="none" stroke="#9a32cd" stroke-dasharray="5,2" d="M330.3866,-422.7863C400.7495,-422.7863 495.4939,-422.7863 540.1739,-422.7863"/>
<polygon fill="#9a32cd" stroke="#9a32cd" points="330.191,-419.2864 320.191,-422.7863 330.191,-426.2864 330.191,-419.2864"/>
<text text-anchor="middle" x="402.5" y="-425.7863" font-family="Helvetica,sans-Serif" font-size="10.00" fill="#000000"> subDomains</text>
</g>
<!-- Node24&#45;&gt;Node1 -->
<g id="edge32" class="edge">
<title>Node24&#45;&gt;Node1</title>
<path fill="none" stroke="#9a32cd" stroke-dasharray="5,2" d="M1029.3402,-233.137C1058.6737,-322.6645 1180.7073,-695.1175 1202.2452,-760.8524"/>
<polygon fill="#9a32cd" stroke="#9a32cd" points="1032.6073,-231.8672 1026.1676,-223.4541 1025.9553,-234.0468 1032.6073,-231.8672"/>
<text text-anchor="middle" x="1129.5" y="-666.7863" font-family="Helvetica,sans-Serif" font-size="10.00" fill="#000000"> debugLogger</text>
</g>
<!-- Node25&#45;&gt;Node24 -->
<g id="edge33" class="edge">
<title>Node25&#45;&gt;Node24</title>
<path fill="none" stroke="#191970" d="M861.9644,-182.2432C897.7723,-189.2571 954.6243,-200.3931 990.3202,-207.3851"/>
<polygon fill="#191970" stroke="#191970" points="862.5025,-178.7822 852.0162,-180.2946 861.1569,-185.6516 862.5025,-178.7822"/>
</g>
<!-- Node26&#45;&gt;Node25 -->
<g id="edge34" class="edge">
<title>Node26&#45;&gt;Node25</title>
<path fill="none" stroke="#191970" d="M607.5194,-74.0372C650.8977,-69.5382 718.179,-69.776 761.5,-104.7863 780.5214,-120.1586 762.4965,-139.2078 779.5,-156.7863 786.5398,-164.0642 796.6691,-168.5956 805.933,-171.3971"/>
<polygon fill="#191970" stroke="#191970" points="607.1004,-70.5622 597.5722,-75.1951 607.9099,-77.5153 607.1004,-70.5622"/>
</g>
<!-- Node27 -->
<g id="node27" class="node">
<title>Node27</title>
<polygon fill="#ffffff" stroke="#bfbfbf" points="162.5,-44.7863 162.5,-74.7863 325.5,-74.7863 325.5,-44.7863 162.5,-44.7863"/>
<text text-anchor="start" x="170.5" y="-62.7863" font-family="Helvetica,sans-Serif" font-size="10.00" fill="#000000">ArrayList&lt; com.aworx.lib.threads.</text>
<text text-anchor="middle" x="244" y="-51.7863" font-family="Helvetica,sans-Serif" font-size="10.00" fill="#000000">ThreadLock &gt;</text>
</g>
<!-- Node27&#45;&gt;Node26 -->
<g id="edge36" class="edge">
<title>Node27&#45;&gt;Node26</title>
<path fill="none" stroke="#9a32cd" stroke-dasharray="5,2" d="M335.7659,-56.4474C374.6335,-56.0067 420.3596,-56.7709 461.5,-60.7863 485.8383,-63.1617 512.9585,-68.4672 533.4008,-73.017"/>
<polygon fill="#9a32cd" stroke="#9a32cd" points="335.4678,-52.9512 325.5186,-56.593 335.5673,-59.9505 335.4678,-52.9512"/>
<text text-anchor="middle" x="402.5" y="-63.7863" font-family="Helvetica,sans-Serif" font-size="10.00" fill="#000000"> acquirers</text>
</g>
<!-- Node28 -->
<g id="node28" class="node">
<title>Node28</title>
<g id="a_node28"><a xlink:href="interfacecom_1_1aworx_1_1lox_1_1core_1_1textlogger_1_1ObjectConverter.html" target="_top" xlink:title="ObjectConverter">
<polygon fill="#ffffff" stroke="#000000" points="785.5,-204.2863 785.5,-223.2863 872.5,-223.2863 872.5,-204.2863 785.5,-204.2863"/>
<text text-anchor="middle" x="829" y="-211.2863" font-family="Helvetica,sans-Serif" font-size="10.00" fill="#000000">ObjectConverter</text>
</a>
</g>
</g>
<!-- Node28&#45;&gt;Node24 -->
<g id="edge38" class="edge">
<title>Node28&#45;&gt;Node24</title>
<path fill="none" stroke="#9a32cd" stroke-dasharray="5,2" d="M882.9371,-213.7863C917.4767,-213.7863 961.1561,-213.7863 990.4741,-213.7863"/>
<polygon fill="#9a32cd" stroke="#9a32cd" points="882.5374,-210.2864 872.5374,-213.7863 882.5374,-217.2864 882.5374,-210.2864"/>
<text text-anchor="middle" x="927.5" y="-216.7863" font-family="Helvetica,sans-Serif" font-size="10.00" fill="#000000"> converter</text>
</g>
<!-- Node29&#45;&gt;Node24 -->
<g id="edge39" class="edge">
<title>Node29&#45;&gt;Node24</title>
<path fill="none" stroke="#9a32cd" stroke-dasharray="5,2" d="M866.9625,-245.0653C892.8052,-240.4129 927.7649,-233.9684 958.5,-227.7863 968.835,-225.7075 980.0719,-223.3147 990.2277,-221.1021"/>
<polygon fill="#9a32cd" stroke="#9a32cd" points="866.0604,-241.6711 856.8349,-246.8808 867.2956,-248.5613 866.0604,-241.6711"/>
<text text-anchor="middle" x="927.5" y="-242.7863" font-family="Helvetica,sans-Serif" font-size="10.00" fill="#000000"> metaInfo</text>
</g>
<!-- Node30 -->
<g id="node30" class="node">
<title>Node30</title>
<g id="a_node30"><a xlink:href="classcom_1_1aworx_1_1lib_1_1time_1_1TickSpan.html" target="_top" xlink:title="TickSpan">
<polygon fill="#ffffff" stroke="#000000" points="536.5,-223.2863 536.5,-242.2863 594.5,-242.2863 594.5,-223.2863 536.5,-223.2863"/>
<text text-anchor="middle" x="565.5" y="-230.2863" font-family="Helvetica,sans-Serif" font-size="10.00" fill="#000000">TickSpan</text>
</a>
</g>
</g>
<!-- Node30&#45;&gt;Node29 -->
<g id="edge40" class="edge">
<title>Node30&#45;&gt;Node29</title>
<path fill="none" stroke="#9a32cd" stroke-dasharray="5,2" d="M604.5681,-231.3156C644.2409,-230.3534 707.3701,-230.2848 761.5,-236.7863 774.73,-238.3753 789.1774,-241.4064 801.2991,-244.3303"/>
<polygon fill="#9a32cd" stroke="#9a32cd" points="604.4179,-227.8183 594.5175,-231.5909 604.6096,-234.8157 604.4179,-227.8183"/>
<text text-anchor="middle" x="715.5" y="-239.7863" font-family="Helvetica,sans-Serif" font-size="10.00" fill="#000000"> elapsed</text>
</g>
<!-- Node31 -->
<g id="node31" class="node">
<title>Node31</title>
<polygon fill="#ffffff" stroke="#bfbfbf" points="529,-185.2863 529,-204.2863 602,-204.2863 602,-185.2863 529,-185.2863"/>
<text text-anchor="middle" x="565.5" y="-192.2863" font-family="Helvetica,sans-Serif" font-size="10.00" fill="#000000">FieldPosition</text>
</g>
<!-- Node31&#45;&gt;Node29 -->
<g id="edge41" class="edge">
<title>Node31&#45;&gt;Node29</title>
<path fill="none" stroke="#9a32cd" stroke-dasharray="5,2" d="M612.2612,-192.2446C653.324,-191.7893 713.7813,-195.5216 761.5,-216.7863 771.2768,-221.1431 770.3557,-227.223 779.5,-232.7863 786.263,-236.9009 794.0684,-240.3952 801.4526,-243.2217"/>
<polygon fill="#9a32cd" stroke="#9a32cd" points="612.1877,-188.7453 602.2589,-192.4424 612.3262,-195.7439 612.1877,-188.7453"/>
<text text-anchor="middle" x="715.5" y="-219.7863" font-family="Helvetica,sans-Serif" font-size="10.00" fill="#000000"> fieldPositionZero</text>
</g>
<!-- Node32&#45;&gt;Node29 -->
<g id="edge42" class="edge">
<title>Node32&#45;&gt;Node29</title>
<path fill="none" stroke="#9a32cd" stroke-dasharray="5,2" d="M605.3994,-349.8749C646.6956,-351.3526 711.9743,-348.7712 761.5,-323.7863 790.1067,-309.3546 812.9378,-277.5886 823.1669,-261.5132"/>
<polygon fill="#9a32cd" stroke="#9a32cd" points="605.3357,-346.3684 595.1865,-349.4088 605.0165,-353.3612 605.3357,-346.3684"/>
<text text-anchor="middle" x="715.5" y="-350.7863" font-family="Helvetica,sans-Serif" font-size="10.00" fill="#000000"> tTok</text>
</g>
<!-- Node33 -->
<g id="node33" class="node">
<title>Node33</title>
<polygon fill="#ffffff" stroke="#bfbfbf" points="517,-147.2863 517,-166.2863 614,-166.2863 614,-147.2863 517,-147.2863"/>
<text text-anchor="middle" x="565.5" y="-154.2863" font-family="Helvetica,sans-Serif" font-size="10.00" fill="#000000">GregorianCalendar</text>
</g>
<!-- Node33&#45;&gt;Node29 -->
<g id="edge45" class="edge">
<title>Node33&#45;&gt;Node29</title>
<path fill="none" stroke="#9a32cd" stroke-dasharray="5,2" d="M624.3058,-148.6608C666.8953,-146.1094 723.4432,-150.0303 761.5,-180.7863 780.5214,-196.1586 762.4965,-215.2078 779.5,-232.7863 785.3879,-238.8733 793.4368,-243.0391 801.3331,-245.8784"/>
<polygon fill="#9a32cd" stroke="#9a32cd" points="623.7905,-145.1891 614.0738,-149.4125 624.3034,-152.1703 623.7905,-145.1891"/>
<text text-anchor="middle" x="715.5" y="-183.7863" font-family="Helvetica,sans-Serif" font-size="10.00" fill="#000000"> callerDateTimeCal</text>
</g>
<!-- Node34 -->
<g id="node34" class="node">
<title>Node34</title>
<polygon fill="#ffffff" stroke="#bfbfbf" points="516.5,-299.2863 516.5,-318.2863 614.5,-318.2863 614.5,-299.2863 516.5,-299.2863"/>
<text text-anchor="middle" x="565.5" y="-306.2863" font-family="Helvetica,sans-Serif" font-size="10.00" fill="#000000">SimpleDateFormat</text>
</g>
<!-- Node34&#45;&gt;Node29 -->
<g id="edge46" class="edge">
<title>Node34&#45;&gt;Node29</title>
<path fill="none" stroke="#9a32cd" stroke-dasharray="5,2" d="M624.821,-303.2779C664.0792,-298.7638 716.4357,-291.0738 761.5,-278.7863 777.8171,-274.3372 795.5463,-267.1481 808.7387,-261.3064"/>
<polygon fill="#9a32cd" stroke="#9a32cd" points="624.4309,-299.7996 614.88,-304.3855 625.2061,-306.7566 624.4309,-299.7996"/>
<text text-anchor="middle" x="715.5" y="-311.7863" font-family="Helvetica,sans-Serif" font-size="10.00" fill="#000000"> dateFormatter</text>
<text text-anchor="middle" x="715.5" y="-300.7863" font-family="Helvetica,sans-Serif" font-size="10.00" fill="#000000">timeOfDayFormatter</text>
</g>
<!-- Node35 -->
<g id="node35" class="node">
<title>Node35</title>
<polygon fill="#ffffff" stroke="#bfbfbf" points="547,-261.2863 547,-280.2863 584,-280.2863 584,-261.2863 547,-261.2863"/>
<text text-anchor="middle" x="565.5" y="-268.2863" font-family="Helvetica,sans-Serif" font-size="10.00" fill="#000000">Date</text>
</g>
<!-- Node35&#45;&gt;Node29 -->
<g id="edge48" class="edge">
<title>Node35&#45;&gt;Node29</title>
<path fill="none" stroke="#9a32cd" stroke-dasharray="5,2" d="M594.022,-268.7297C644.9533,-265.0572 750.9133,-257.4168 801.2689,-253.7859"/>
<polygon fill="#9a32cd" stroke="#9a32cd" points="593.7512,-265.24 584.0288,-269.4502 594.2547,-272.2219 593.7512,-265.24"/>
<text text-anchor="middle" x="715.5" y="-266.7863" font-family="Helvetica,sans-Serif" font-size="10.00" fill="#000000"> callerDateTimeDate</text>
</g>
<!-- Node36 -->
<g id="node36" class="node">
<title>Node36</title>
<polygon fill="#ffffff" stroke="#bfbfbf" points="779.5,-128.2863 779.5,-147.2863 878.5,-147.2863 878.5,-128.2863 779.5,-128.2863"/>
<text text-anchor="middle" x="829" y="-135.2863" font-family="Helvetica,sans-Serif" font-size="10.00" fill="#000000">ArrayList&lt; String &gt;</text>
</g>
<!-- Node36&#45;&gt;Node24 -->
<g id="edge50" class="edge">
<title>Node36&#45;&gt;Node24</title>
<path fill="none" stroke="#9a32cd" stroke-dasharray="5,2" d="M883.0399,-149.8039C906.7055,-155.9317 934.4934,-164.3218 958.5,-174.7863 976.9733,-182.8388 996.562,-195.3163 1009.2391,-203.981"/>
<polygon fill="#9a32cd" stroke="#9a32cd" points="883.7251,-146.3672 873.1729,-147.3168 882.0141,-153.1549 883.7251,-146.3672"/>
<text text-anchor="middle" x="927.5" y="-177.7863" font-family="Helvetica,sans-Serif" font-size="10.00" fill="#000000"> replacements</text>
</g>
<!-- Node37 -->
<g id="node37" class="node">
<title>Node37</title>
<g id="a_node37"><a xlink:href="classcom_1_1aworx_1_1lib_1_1strings_1_1util_1_1AutoSizes.html" target="_top" xlink:title="AutoSizes">
<polygon fill="#ffffff" stroke="#000000" points="798,-90.2863 798,-109.2863 860,-109.2863 860,-90.2863 798,-90.2863"/>
<text text-anchor="middle" x="829" y="-97.2863" font-family="Helvetica,sans-Serif" font-size="10.00" fill="#000000">AutoSizes</text>
</a>
</g>
</g>
<!-- Node37&#45;&gt;Node24 -->
<g id="edge51" class="edge">
<title>Node37&#45;&gt;Node24</title>
<path fill="none" stroke="#9a32cd" stroke-dasharray="5,2" d="M869.939,-106.3969C896.7457,-112.121 931.6526,-122.3218 958.5,-139.7863 985.0716,-157.0713 1007.0804,-188.3031 1017.1298,-204.0907"/>
<polygon fill="#9a32cd" stroke="#9a32cd" points="870.5893,-102.9576 860.0954,-104.4164 869.2086,-109.8201 870.5893,-102.9576"/>
<text text-anchor="middle" x="927.5" y="-142.7863" font-family="Helvetica,sans-Serif" font-size="10.00" fill="#000000"> autoSizes</text>
</g>
</g>
</svg>
