<?xml version="1.0" encoding="UTF-8" standalone="no"?>
<!DOCTYPE svg PUBLIC "-//W3C//DTD SVG 1.1//EN"
 "http://www.w3.org/Graphics/SVG/1.1/DTD/svg11.dtd">
<!-- Generated by graphviz version 2.40.1 (20161225.0304)
 -->
<!-- Title: ScopeDump Pages: 1 -->
<svg width="220pt" height="174pt"
 viewBox="0.00 0.00 220.00 174.00" xmlns="http://www.w3.org/2000/svg" xmlns:xlink="http://www.w3.org/1999/xlink">
<g id="graph0" class="graph" transform="scale(1 1) rotate(0) translate(4 170)">
<title>ScopeDump</title>
<polygon fill="#ffffff" stroke="transparent" points="-4,4 -4,-170 216,-170 216,4 -4,4"/>
<!-- Node1 -->
<g id="node1" class="node">
<title>Node1</title>
<polygon fill="#bfbfbf" stroke="#000000" points="80,-.5 80,-19.5 151,-19.5 151,-.5 80,-.5"/>
<text text-anchor="middle" x="115.5" y="-7.5" font-family="Helvetica,sans-Serif" font-size="10.00" fill="#000000">ScopeDump</text>
</g>
<!-- Node2 -->
<g id="node2" class="node">
<title>Node2</title>
<polygon fill="#ffffff" stroke="#bfbfbf" points="0,-89.5 0,-108.5 129,-108.5 129,-89.5 0,-89.5"/>
<text text-anchor="middle" x="64.5" y="-96.5" font-family="Helvetica,sans-Serif" font-size="10.00" fill="#000000">HashMap&lt; Long, String &gt;</text>
</g>
<!-- Node2&#45;&gt;Node1 -->
<g id="edge1" class="edge">
<title>Node2&#45;&gt;Node1</title>
<path fill="none" stroke="#9a32cd" stroke-dasharray="5,2" d="M61.7392,-79.0621C60.9945,-66.4017 61.9903,-50.1694 69.5,-38 74.4098,-30.0437 82.5029,-24.0308 90.5431,-19.6571"/>
<polygon fill="#9a32cd" stroke="#9a32cd" points="58.2619,-79.4662 62.7218,-89.0766 65.2285,-78.7826 58.2619,-79.4662"/>
<text text-anchor="middle" x="107" y="-52" font-family="Helvetica,sans-Serif" font-size="10.00" fill="#000000"> threadDictionary</text>
</g>
<!-- Node3 -->
<g id="node3" class="node">
<title>Node3</title>
<g id="a_node3"><a xlink:href="classcom_1_1aworx_1_1lib_1_1strings_1_1AString.html" target="_top" xlink:title="AString">
<polygon fill="#ffffff" stroke="#000000" points="147,-89.5 147,-108.5 196,-108.5 196,-89.5 147,-89.5"/>
<text text-anchor="middle" x="171.5" y="-96.5" font-family="Helvetica,sans-Serif" font-size="10.00" fill="#000000">AString</text>
</a>
</g>
</g>
<!-- Node3&#45;&gt;Node1 -->
<g id="edge2" class="edge">
<title>Node3&#45;&gt;Node1</title>
<path fill="none" stroke="#9a32cd" stroke-dasharray="5,2" d="M165.2038,-79.8494C160.5705,-67.3053 153.5165,-50.9056 144.5,-38 139.7703,-31.2303 133.2394,-24.7525 127.5726,-19.7357"/>
<polygon fill="#9a32cd" stroke="#9a32cd" points="161.9105,-81.0349 168.5164,-89.3182 168.5179,-78.7234 161.9105,-81.0349"/>
<text text-anchor="middle" x="178.5" y="-63" font-family="Helvetica,sans-Serif" font-size="10.00" fill="#000000"> target</text>
<text text-anchor="middle" x="178.5" y="-52" font-family="Helvetica,sans-Serif" font-size="10.00" fill="#000000">tempAS</text>
<text text-anchor="middle" x="178.5" y="-41" font-family="Helvetica,sans-Serif" font-size="10.00" fill="#000000">key</text>
</g>
<!-- Node4 -->
<g id="node4" class="node">
<title>Node4</title>
<polygon fill="#ffffff" stroke="#bfbfbf" points="131,-146.5 131,-165.5 212,-165.5 212,-146.5 131,-146.5"/>
<text text-anchor="middle" x="171.5" y="-153.5" font-family="Helvetica,sans-Serif" font-size="10.00" fill="#000000">CharSequence</text>
</g>
<!-- Node4&#45;&gt;Node3 -->
<g id="edge3" class="edge">
<title>Node4&#45;&gt;Node3</title>
<path fill="none" stroke="#191970" d="M171.5,-136.2342C171.5,-126.8491 171.5,-116.0651 171.5,-108.5265"/>
<polygon fill="#191970" stroke="#191970" points="168.0001,-136.3307 171.5,-146.3307 175.0001,-136.3308 168.0001,-136.3307"/>
</g>
</g>
</svg>
