<?xml version="1.0" encoding="UTF-8" standalone="no"?>
<!DOCTYPE svg PUBLIC "-//W3C//DTD SVG 1.1//EN"
 "http://www.w3.org/Graphics/SVG/1.1/DTD/svg11.dtd">
<!-- Generated by graphviz version 2.40.1 (20161225.0304)
 -->
<!-- Title: XTernalizer Pages: 1 -->
<svg width="139pt" height="163pt"
 viewBox="0.00 0.00 138.50 163.00" xmlns="http://www.w3.org/2000/svg" xmlns:xlink="http://www.w3.org/1999/xlink">
<g id="graph0" class="graph" transform="scale(1 1) rotate(0) translate(4 159)">
<title>XTernalizer</title>
<polygon fill="#ffffff" stroke="transparent" points="-4,4 -4,-159 134.5,-159 134.5,4 -4,4"/>
<!-- Node1 -->
<g id="node1" class="node">
<title>Node1</title>
<polygon fill="#bfbfbf" stroke="#000000" points="27,-.5 27,-19.5 92,-19.5 92,-.5 27,-.5"/>
<text text-anchor="middle" x="59.5" y="-7.5" font-family="Helvetica,sans-Serif" font-size="10.00" fill="#000000">XTernalizer</text>
</g>
<!-- Node2 -->
<g id="node2" class="node">
<title>Node2</title>
<g id="a_node2"><a xlink:href="classcom_1_1aworx_1_1lib_1_1strings_1_1AString.html" target="_top" xlink:title="AString">
<polygon fill="#ffffff" stroke="#000000" points="0,-78.5 0,-97.5 49,-97.5 49,-78.5 0,-78.5"/>
<text text-anchor="middle" x="24.5" y="-85.5" font-family="Helvetica,sans-Serif" font-size="10.00" fill="#000000">AString</text>
</a>
</g>
</g>
<!-- Node2&#45;&gt;Node1 -->
<g id="edge1" class="edge">
<title>Node2&#45;&gt;Node1</title>
<path fill="none" stroke="#9a32cd" stroke-dasharray="5,2" d="M27.1173,-68.268C28.8984,-58.7674 31.8133,-47.4214 36.5,-38 39.8623,-31.2411 45.1261,-24.6663 49.77,-19.5881"/>
<polygon fill="#9a32cd" stroke="#9a32cd" points="23.6285,-67.9209 25.5091,-78.3475 30.5411,-69.0239 23.6285,-67.9209"/>
<text text-anchor="middle" x="53.5" y="-46.5" font-family="Helvetica,sans-Serif" font-size="10.00" fill="#000000"> tmpAS</text>
</g>
<!-- Node3 -->
<g id="node3" class="node">
<title>Node3</title>
<polygon fill="#ffffff" stroke="#bfbfbf" points="19,-135.5 19,-154.5 100,-154.5 100,-135.5 19,-135.5"/>
<text text-anchor="middle" x="59.5" y="-142.5" font-family="Helvetica,sans-Serif" font-size="10.00" fill="#000000">CharSequence</text>
</g>
<!-- Node3&#45;&gt;Node2 -->
<g id="edge2" class="edge">
<title>Node3&#45;&gt;Node2</title>
<path fill="none" stroke="#191970" d="M48.2946,-126.7512C42.3259,-117.0308 35.2301,-105.4748 30.3496,-97.5265"/>
<polygon fill="#191970" stroke="#191970" points="45.3474,-128.6404 53.5627,-135.3307 51.3127,-124.9776 45.3474,-128.6404"/>
</g>
<!-- Node4 -->
<g id="node4" class="node">
<title>Node4</title>
<g id="a_node4"><a xlink:href="classcom_1_1aworx_1_1lib_1_1strings_1_1Substring.html" target="_top" xlink:title="Substring">
<polygon fill="#ffffff" stroke="#000000" points="67.5,-78.5 67.5,-97.5 125.5,-97.5 125.5,-78.5 67.5,-78.5"/>
<text text-anchor="middle" x="96.5" y="-85.5" font-family="Helvetica,sans-Serif" font-size="10.00" fill="#000000">Substring</text>
</a>
</g>
</g>
<!-- Node3&#45;&gt;Node4 -->
<g id="edge4" class="edge">
<title>Node3&#45;&gt;Node4</title>
<path fill="none" stroke="#191970" d="M71.3457,-126.7512C77.6554,-117.0308 85.1567,-105.4748 90.3161,-97.5265"/>
<polygon fill="#191970" stroke="#191970" points="68.2856,-125.0373 65.7765,-135.3307 74.157,-128.8486 68.2856,-125.0373"/>
</g>
<!-- Node4&#45;&gt;Node1 -->
<g id="edge3" class="edge">
<title>Node4&#45;&gt;Node1</title>
<path fill="none" stroke="#9a32cd" stroke-dasharray="5,2" d="M87.5754,-69.186C80.1625,-53.5589 69.918,-31.9623 64.074,-19.6426"/>
<polygon fill="#9a32cd" stroke="#9a32cd" points="84.5149,-70.9007 91.9631,-78.4357 90.8394,-67.9006 84.5149,-70.9007"/>
<text text-anchor="middle" x="106.5" y="-52" font-family="Helvetica,sans-Serif" font-size="10.00" fill="#000000"> tmpSubs2</text>
<text text-anchor="middle" x="106.5" y="-41" font-family="Helvetica,sans-Serif" font-size="10.00" fill="#000000">tmpSubs</text>
</g>
</g>
</svg>
