<?xml version="1.0" encoding="UTF-8" standalone="no"?>
<!DOCTYPE svg PUBLIC "-//W3C//DTD SVG 1.1//EN"
 "http://www.w3.org/Graphics/SVG/1.1/DTD/svg11.dtd">
<!-- Generated by graphviz version 2.38.0 (20140413.2041)
 -->
<!-- Title: Log Pages: 1 -->
<svg width="1351pt" height="1259pt"
 viewBox="0.00 0.00 1351.00 1259.00" xmlns="http://www.w3.org/2000/svg" xmlns:xlink="http://www.w3.org/1999/xlink">
<g id="graph0" class="graph" transform="scale(1 1) rotate(0) translate(4 1255)">
<title>Log</title>
<polygon fill="white" stroke="none" points="-4,4 -4,-1255 1347,-1255 1347,4 -4,4"/>
<!-- Node1 -->
<g id="node1" class="node"><title>Node1</title>
<polygon fill="#bfbfbf" stroke="black" points="1311,-772.5 1311,-791.5 1343,-791.5 1343,-772.5 1311,-772.5"/>
<text text-anchor="middle" x="1327" y="-779.5" font-family="Helvetica,sans-Serif" font-size="10.00">Log</text>
</g>
<!-- Node2 -->
<g id="node2" class="node"><title>Node2</title>
<g id="a_node2"><a xlink:href="classcom_1_1aworx_1_1lox_1_1LogBuf.html" target="_top" xlink:title="LogBuf">
<polygon fill="white" stroke="black" points="694.5,-280.5 694.5,-299.5 741.5,-299.5 741.5,-280.5 694.5,-280.5"/>
<text text-anchor="middle" x="718" y="-287.5" font-family="Helvetica,sans-Serif" font-size="10.00">LogBuf</text>
</a>
</g>
</g>
<!-- Node2&#45;&gt;Node1 -->
<g id="edge1" class="edge"><title>Node2&#45;&gt;Node1</title>
<path fill="none" stroke="#9a32cd" stroke-dasharray="5,2" d="M751.408,-277.608C817.662,-254.475 971.268,-212.294 1077,-273 1274.93,-386.639 1318.61,-712.344 1325.06,-772.414"/>
<polygon fill="#9a32cd" stroke="#9a32cd" points="750.151,-274.341 741.914,-281.004 752.509,-280.932 750.151,-274.341"/>
<text text-anchor="middle" x="1038" y="-276" font-family="Helvetica,sans-Serif" font-size="10.00"> logBuf</text>
</g>
<!-- Node3 -->
<g id="node3" class="node"><title>Node3</title>
<g id="a_node3"><a xlink:href="classcom_1_1aworx_1_1lib_1_1strings_1_1AString.html" target="_top" xlink:title="AString">
<polygon fill="white" stroke="black" points="220.5,-347.5 220.5,-366.5 269.5,-366.5 269.5,-347.5 220.5,-347.5"/>
<text text-anchor="middle" x="245" y="-354.5" font-family="Helvetica,sans-Serif" font-size="10.00">AString</text>
</a>
</g>
</g>
<!-- Node3&#45;&gt;Node2 -->
<g id="edge2" class="edge"><title>Node3&#45;&gt;Node2</title>
<path fill="none" stroke="#9a32cd" stroke-dasharray="5,2" d="M279.893,-354.949C295.426,-352.607 313.369,-347.79 327,-338 339.321,-329.151 331.936,-316.71 345,-309 404.381,-273.954 622.964,-284.111 694.311,-288.481"/>
<polygon fill="#9a32cd" stroke="#9a32cd" points="279.109,-351.519 269.607,-356.205 279.958,-358.467 279.109,-351.519"/>
<text text-anchor="middle" x="404" y="-312" font-family="Helvetica,sans-Serif" font-size="10.00"> b</text>
</g>
<!-- Node7 -->
<g id="node7" class="node"><title>Node7</title>
<g id="a_node7"><a xlink:href="classcom_1_1aworx_1_1lox_1_1Lox.html" target="_top" xlink:title="Lox">
<polygon fill="white" stroke="black" points="865.5,-798.5 865.5,-817.5 897.5,-817.5 897.5,-798.5 865.5,-798.5"/>
<text text-anchor="middle" x="881.5" y="-805.5" font-family="Helvetica,sans-Serif" font-size="10.00">Lox</text>
</a>
</g>
</g>
<!-- Node3&#45;&gt;Node7 -->
<g id="edge19" class="edge"><title>Node3&#45;&gt;Node7</title>
<path fill="none" stroke="#9a32cd" stroke-dasharray="5,2" d="M279.76,-356.494C365.309,-355.706 588.455,-356.882 654,-389 719.264,-420.98 732.863,-444.329 764,-510 787.293,-559.127 764.498,-579.525 782,-631 805.321,-699.588 854.89,-772.403 873.364,-798.231"/>
<polygon fill="#9a32cd" stroke="#9a32cd" points="279.523,-352.996 269.562,-356.603 279.599,-359.996 279.523,-352.996"/>
<text text-anchor="middle" x="567.5" y="-480" font-family="Helvetica,sans-Serif" font-size="10.00"> tmpConfigValue</text>
<text text-anchor="middle" x="567.5" y="-469" font-family="Helvetica,sans-Serif" font-size="10.00">tmpAS</text>
<text text-anchor="middle" x="567.5" y="-458" font-family="Helvetica,sans-Serif" font-size="10.00">logBuf</text>
<text text-anchor="middle" x="567.5" y="-447" font-family="Helvetica,sans-Serif" font-size="10.00">intMsg</text>
<text text-anchor="middle" x="567.5" y="-436" font-family="Helvetica,sans-Serif" font-size="10.00">resDomainInternal</text>
<text text-anchor="middle" x="567.5" y="-425" font-family="Helvetica,sans-Serif" font-size="10.00">resDomain</text>
<text text-anchor="middle" x="567.5" y="-414" font-family="Helvetica,sans-Serif" font-size="10.00">tmpSubstitutionPath</text>
<text text-anchor="start" x="523" y="-403" font-family="Helvetica,sans-Serif" font-size="10.00">tmpSubstitutionPath</text>
<text text-anchor="middle" x="567.5" y="-392" font-family="Helvetica,sans-Serif" font-size="10.00">InternalDomains</text>
</g>
<!-- Node18 -->
<g id="node18" class="node"><title>Node18</title>
<g id="a_node18"><a xlink:href="classcom_1_1aworx_1_1lox_1_1core_1_1ScopeInfo.html" target="_top" xlink:title="ScopeInfo">
<polygon fill="white" stroke="black" points="537,-990.5 537,-1009.5 598,-1009.5 598,-990.5 537,-990.5"/>
<text text-anchor="middle" x="567.5" y="-997.5" font-family="Helvetica,sans-Serif" font-size="10.00">ScopeInfo</text>
</a>
</g>
</g>
<!-- Node3&#45;&gt;Node18 -->
<g id="edge22" class="edge"><title>Node3&#45;&gt;Node18</title>
<path fill="none" stroke="#9a32cd" stroke-dasharray="5,2" d="M253.933,-375.971C269.632,-414.075 305.041,-502.87 327,-580 337.693,-617.558 316.75,-639.039 345,-666 383.428,-702.675 427.321,-645.646 463,-685 506.518,-733 440.288,-925.599 481,-976 494.272,-992.431 517.826,-998.149 536.855,-999.915"/>
<polygon fill="#9a32cd" stroke="#9a32cd" points="257.118,-374.516 250.055,-366.619 250.652,-377.197 257.118,-374.516"/>
<text text-anchor="middle" x="404" y="-732" font-family="Helvetica,sans-Serif" font-size="10.00"> className</text>
<text text-anchor="middle" x="404" y="-721" font-family="Helvetica,sans-Serif" font-size="10.00">threadName</text>
<text text-anchor="middle" x="404" y="-710" font-family="Helvetica,sans-Serif" font-size="10.00">methodName</text>
<text text-anchor="middle" x="404" y="-699" font-family="Helvetica,sans-Serif" font-size="10.00">packageName</text>
<text text-anchor="middle" x="404" y="-688" font-family="Helvetica,sans-Serif" font-size="10.00">fileName</text>
</g>
<!-- Node20 -->
<g id="node20" class="node"><title>Node20</title>
<g id="a_node20"><a xlink:href="classcom_1_1aworx_1_1lox_1_1core_1_1Domain.html" target="_top" xlink:title="Domain">
<polygon fill="white" stroke="black" points="542.5,-644.5 542.5,-663.5 592.5,-663.5 592.5,-644.5 542.5,-644.5"/>
<text text-anchor="middle" x="567.5" y="-651.5" font-family="Helvetica,sans-Serif" font-size="10.00">Domain</text>
</a>
</g>
</g>
<!-- Node3&#45;&gt;Node20 -->
<g id="edge27" class="edge"><title>Node3&#45;&gt;Node20</title>
<path fill="none" stroke="#9a32cd" stroke-dasharray="5,2" d="M258.337,-375.134C276.09,-400.658 310.515,-448.076 345,-484 392.606,-533.593 423.984,-527.401 463,-584 476.642,-603.79 463.01,-619.059 481,-635 497.73,-649.824 523.438,-653.889 542.297,-654.662"/>
<polygon fill="#9a32cd" stroke="#9a32cd" points="261.138,-373.03 252.581,-366.782 255.374,-377.002 261.138,-373.03"/>
<text text-anchor="middle" x="404" y="-609" font-family="Helvetica,sans-Serif" font-size="10.00"> fullPath</text>
<text text-anchor="middle" x="404" y="-598" font-family="Helvetica,sans-Serif" font-size="10.00">tAString</text>
<text text-anchor="middle" x="404" y="-587" font-family="Helvetica,sans-Serif" font-size="10.00">name</text>
</g>
<!-- Node26 -->
<g id="node26" class="node"><title>Node26</title>
<g id="a_node26"><a xlink:href="classcom_1_1aworx_1_1lox_1_1core_1_1textlogger_1_1TextLogger.html" target="_top" xlink:title="TextLogger">
<polygon fill="white" stroke="black" points="1110,-553.5 1110,-572.5 1175,-572.5 1175,-553.5 1110,-553.5"/>
<text text-anchor="middle" x="1142.5" y="-560.5" font-family="Helvetica,sans-Serif" font-size="10.00">TextLogger</text>
</a>
</g>
</g>
<!-- Node3&#45;&gt;Node26 -->
<g id="edge53" class="edge"><title>Node3&#45;&gt;Node26</title>
<path fill="none" stroke="#9a32cd" stroke-dasharray="5,2" d="M279.737,-351.886C363.896,-340.428 588.925,-317.812 764,-373 914.1,-420.316 1077.69,-521.732 1126.79,-553.37"/>
<polygon fill="#9a32cd" stroke="#9a32cd" points="279.145,-348.435 269.727,-353.288 280.116,-355.367 279.145,-348.435"/>
<text text-anchor="middle" x="718" y="-387" font-family="Helvetica,sans-Serif" font-size="10.00"> logBuf</text>
<text text-anchor="middle" x="718" y="-376" font-family="Helvetica,sans-Serif" font-size="10.00">msgBuf</text>
</g>
<!-- Node30 -->
<g id="node30" class="node"><title>Node30</title>
<g id="a_node30"><a xlink:href="classcom_1_1aworx_1_1lox_1_1core_1_1textlogger_1_1MetaInfo.html" target="_top" xlink:title="MetaInfo">
<polygon fill="white" stroke="black" points="854,-147.5 854,-166.5 909,-166.5 909,-147.5 854,-147.5"/>
<text text-anchor="middle" x="881.5" y="-154.5" font-family="Helvetica,sans-Serif" font-size="10.00">MetaInfo</text>
</a>
</g>
</g>
<!-- Node3&#45;&gt;Node30 -->
<g id="edge48" class="edge"><title>Node3&#45;&gt;Node30</title>
<path fill="none" stroke="#9a32cd" stroke-dasharray="5,2" d="M279.905,-356.482C295.959,-354.539 314.341,-349.616 327,-338 345.951,-320.611 331.775,-305.06 345,-283 389.933,-208.049 400.63,-175.311 481,-141 548.27,-112.281 775.533,-141.691 853.773,-152.985"/>
<polygon fill="#9a32cd" stroke="#9a32cd" points="279.432,-353.01 269.775,-357.368 280.042,-359.983 279.432,-353.01"/>
<text text-anchor="middle" x="567.5" y="-155" font-family="Helvetica,sans-Serif" font-size="10.00"> format</text>
<text text-anchor="middle" x="567.5" y="-144" font-family="Helvetica,sans-Serif" font-size="10.00">tmpAString</text>
</g>
<!-- Node4 -->
<g id="node4" class="node"><title>Node4</title>
<polygon fill="white" stroke="#bfbfbf" points="0,-327.5 0,-346.5 81,-346.5 81,-327.5 0,-327.5"/>
<text text-anchor="middle" x="40.5" y="-334.5" font-family="Helvetica,sans-Serif" font-size="10.00">CharSequence</text>
</g>
<!-- Node4&#45;&gt;Node3 -->
<g id="edge3" class="edge"><title>Node4&#45;&gt;Node3</title>
<path fill="none" stroke="midnightblue" d="M91.12,-341.901C132.24,-345.962 188.871,-351.555 220.393,-354.668"/>
<polygon fill="midnightblue" stroke="midnightblue" points="91.3204,-338.404 81.0248,-340.904 90.6323,-345.37 91.3204,-338.404"/>
</g>
<!-- Node21 -->
<g id="node21" class="node"><title>Node21</title>
<g id="a_node21"><a xlink:href="classcom_1_1aworx_1_1lib_1_1strings_1_1Substring.html" target="_top" xlink:title="Substring">
<polygon fill="white" stroke="black" points="216,-309.5 216,-328.5 274,-328.5 274,-309.5 216,-309.5"/>
<text text-anchor="middle" x="245" y="-316.5" font-family="Helvetica,sans-Serif" font-size="10.00">Substring</text>
</a>
</g>
</g>
<!-- Node4&#45;&gt;Node21 -->
<g id="edge29" class="edge"><title>Node4&#45;&gt;Node21</title>
<path fill="none" stroke="midnightblue" d="M91.1853,-332.584C130.44,-329.094 183.802,-324.351 215.969,-321.492"/>
<polygon fill="midnightblue" stroke="midnightblue" points="90.6756,-329.115 81.0248,-333.487 91.2954,-336.087 90.6756,-329.115"/>
</g>
<!-- Node5 -->
<g id="node5" class="node"><title>Node5</title>
<g id="a_node5"><a xlink:href="classcom_1_1aworx_1_1lox_1_1ALoxReportWriter.html" target="_top" xlink:title="ALoxReportWriter">
<polygon fill="white" stroke="black" points="1095,-811.5 1095,-830.5 1190,-830.5 1190,-811.5 1095,-811.5"/>
<text text-anchor="middle" x="1142.5" y="-818.5" font-family="Helvetica,sans-Serif" font-size="10.00">ALoxReportWriter</text>
</a>
</g>
</g>
<!-- Node5&#45;&gt;Node1 -->
<g id="edge4" class="edge"><title>Node5&#45;&gt;Node1</title>
<path fill="none" stroke="#9a32cd" stroke-dasharray="5,2" d="M1200.36,-814.699C1228.58,-810.766 1262.96,-804.751 1293,-796 1298.98,-794.259 1305.32,-791.742 1310.83,-789.321"/>
<polygon fill="#9a32cd" stroke="#9a32cd" points="1199.71,-811.254 1190.27,-816.055 1200.64,-818.192 1199.71,-811.254"/>
<text text-anchor="middle" x="1250.5" y="-817" font-family="Helvetica,sans-Serif" font-size="10.00"> debugReportWriter</text>
</g>
<!-- Node6 -->
<g id="node6" class="node"><title>Node6</title>
<g id="a_node6"><a xlink:href="interfacecom_1_1aworx_1_1lib_1_1ReportWriter.html" target="_top" xlink:title="ReportWriter">
<polygon fill="white" stroke="black" points="845.5,-957.5 845.5,-976.5 917.5,-976.5 917.5,-957.5 845.5,-957.5"/>
<text text-anchor="middle" x="881.5" y="-964.5" font-family="Helvetica,sans-Serif" font-size="10.00">ReportWriter</text>
</a>
</g>
</g>
<!-- Node6&#45;&gt;Node5 -->
<g id="edge5" class="edge"><title>Node6&#45;&gt;Node5</title>
<path fill="none" stroke="midnightblue" d="M927.798,-961.693C944.848,-958.813 964.172,-954.469 981,-948 1027.53,-930.113 1038.28,-921.395 1077,-890 1099.93,-871.411 1122.5,-844.85 1133.88,-830.718"/>
<polygon fill="midnightblue" stroke="midnightblue" points="926.856,-958.298 917.518,-963.303 927.939,-965.213 926.856,-958.298"/>
</g>
<!-- Node7&#45;&gt;Node1 -->
<g id="edge35" class="edge"><title>Node7&#45;&gt;Node1</title>
<path fill="none" stroke="#9a32cd" stroke-dasharray="5,2" d="M907.815,-805.638C947.619,-802 1027.29,-795.026 1095,-791 1176.33,-786.165 1273.93,-783.339 1310.85,-782.376"/>
<polygon fill="#9a32cd" stroke="#9a32cd" points="907.325,-802.168 897.688,-806.57 907.967,-809.139 907.325,-802.168"/>
<text text-anchor="middle" x="1142.5" y="-794" font-family="Helvetica,sans-Serif" font-size="10.00"> LOX</text>
</g>
<!-- Node7&#45;&gt;Node5 -->
<g id="edge6" class="edge"><title>Node7&#45;&gt;Node5</title>
<path fill="none" stroke="#9a32cd" stroke-dasharray="5,2" d="M907.752,-809.267C951.018,-811.439 1039.94,-815.903 1094.78,-818.655"/>
<polygon fill="#9a32cd" stroke="#9a32cd" points="907.707,-805.761 897.544,-808.755 907.356,-812.752 907.707,-805.761"/>
<text text-anchor="middle" x="1038" y="-821" font-family="Helvetica,sans-Serif" font-size="10.00"> lox</text>
</g>
<!-- Node8 -->
<g id="node8" class="node"><title>Node8</title>
<g id="a_node8"><a xlink:href="classcom_1_1aworx_1_1lib_1_1threads_1_1ThreadLock.html" target="_top" xlink:title="ThreadLock">
<polygon fill="white" stroke="black" points="211,-1119.5 211,-1138.5 279,-1138.5 279,-1119.5 211,-1119.5"/>
<text text-anchor="middle" x="245" y="-1126.5" font-family="Helvetica,sans-Serif" font-size="10.00">ThreadLock</text>
</a>
</g>
</g>
<!-- Node8&#45;&gt;Node1 -->
<g id="edge36" class="edge"><title>Node8&#45;&gt;Node1</title>
<path fill="none" stroke="#9a32cd" stroke-dasharray="5,2" d="M288.859,-1140.64C371.171,-1161.93 557.379,-1205 717,-1205 717,-1205 717,-1205 1143.5,-1205 1329.86,-1205 1328.17,-854.593 1326.36,-791.63"/>
<polygon fill="#9a32cd" stroke="#9a32cd" points="289.671,-1137.23 279.111,-1138.09 287.902,-1144.01 289.671,-1137.23"/>
<text text-anchor="middle" x="881.5" y="-1208" font-family="Helvetica,sans-Serif" font-size="10.00"> logBufLock</text>
</g>
<!-- Node8&#45;&gt;Node7 -->
<g id="edge7" class="edge"><title>Node8&#45;&gt;Node7</title>
<path fill="none" stroke="midnightblue" d="M289.451,-1130.09C407.937,-1132.62 730.095,-1136.44 764,-1104 795.286,-1074.07 763.942,-949.351 782,-910 800.995,-868.608 843.976,-833.773 866.356,-817.634"/>
<polygon fill="midnightblue" stroke="midnightblue" points="289.368,-1126.59 279.293,-1129.86 289.213,-1133.59 289.368,-1126.59"/>
</g>
<!-- Node8&#45;&gt;Node7 -->
<g id="edge15" class="edge"><title>Node8&#45;&gt;Node7</title>
<path fill="none" stroke="#9a32cd" stroke-dasharray="5,2" d="M289.235,-1126.03C403.015,-1117.19 706.006,-1086.85 764,-1011 791.695,-974.779 761.263,-950.608 782,-910 802.825,-869.221 845.386,-833.854 867.105,-817.562"/>
<polygon fill="#9a32cd" stroke="#9a32cd" points="288.852,-1122.54 279.145,-1126.79 289.381,-1129.52 288.852,-1122.54"/>
<text text-anchor="middle" x="567.5" y="-1106" font-family="Helvetica,sans-Serif" font-size="10.00"> logBufLock</text>
</g>
<!-- Node28 -->
<g id="node28" class="node"><title>Node28</title>
<g id="a_node28"><a xlink:href="classcom_1_1aworx_1_1lib_1_1threads_1_1SmartLock.html" target="_top" xlink:title="SmartLock">
<polygon fill="white" stroke="black" points="535.5,-1034.5 535.5,-1053.5 599.5,-1053.5 599.5,-1034.5 535.5,-1034.5"/>
<text text-anchor="middle" x="567.5" y="-1041.5" font-family="Helvetica,sans-Serif" font-size="10.00">SmartLock</text>
</a>
</g>
</g>
<!-- Node8&#45;&gt;Node28 -->
<g id="edge40" class="edge"><title>Node8&#45;&gt;Node28</title>
<path fill="none" stroke="midnightblue" d="M279.145,-1115.71C298.205,-1108.39 322.72,-1099.49 345,-1093 380.546,-1082.65 483.34,-1061.08 535.442,-1050.35"/>
<polygon fill="midnightblue" stroke="midnightblue" points="277.766,-1112.49 269.715,-1119.38 280.304,-1119.02 277.766,-1112.49"/>
</g>
<!-- Node9 -->
<g id="node9" class="node"><title>Node9</title>
<g id="a_node9"><a xlink:href="enumcom_1_1aworx_1_1lib_1_1enums_1_1LockMode.html" target="_top" xlink:title="LockMode">
<polygon fill="white" stroke="black" points="9.5,-1210.5 9.5,-1229.5 71.5,-1229.5 71.5,-1210.5 9.5,-1210.5"/>
<text text-anchor="middle" x="40.5" y="-1217.5" font-family="Helvetica,sans-Serif" font-size="10.00">LockMode</text>
</a>
</g>
</g>
<!-- Node9&#45;&gt;Node8 -->
<g id="edge8" class="edge"><title>Node9&#45;&gt;Node8</title>
<path fill="none" stroke="#9a32cd" stroke-dasharray="5,2" d="M72.1266,-1206.24C113.63,-1187.59 186.675,-1154.76 222.693,-1138.57"/>
<polygon fill="#9a32cd" stroke="#9a32cd" points="70.475,-1203.14 62.7883,-1210.43 73.3443,-1209.53 70.475,-1203.14"/>
<text text-anchor="middle" x="122" y="-1196" font-family="Helvetica,sans-Serif" font-size="10.00"> lockMode</text>
</g>
<!-- Node10 -->
<g id="node10" class="node"><title>Node10</title>
<g id="a_node10"><a xlink:href="classcom_1_1aworx_1_1lib_1_1time_1_1Ticks.html" target="_top" xlink:title="Ticks">
<polygon fill="white" stroke="black" points="20,-1119.5 20,-1138.5 61,-1138.5 61,-1119.5 20,-1119.5"/>
<text text-anchor="middle" x="40.5" y="-1126.5" font-family="Helvetica,sans-Serif" font-size="10.00">Ticks</text>
</a>
</g>
</g>
<!-- Node10&#45;&gt;Node8 -->
<g id="edge9" class="edge"><title>Node10&#45;&gt;Node8</title>
<path fill="none" stroke="#9a32cd" stroke-dasharray="5,2" d="M71.5071,-1129C108.765,-1129 172.114,-1129 210.796,-1129"/>
<polygon fill="#9a32cd" stroke="#9a32cd" points="71.2853,-1125.5 61.2853,-1129 71.2852,-1132.5 71.2853,-1125.5"/>
<text text-anchor="middle" x="122" y="-1132" font-family="Helvetica,sans-Serif" font-size="10.00"> waitTime</text>
</g>
<!-- Node10&#45;&gt;Node10 -->
<g id="edge10" class="edge"><title>Node10&#45;&gt;Node10</title>
<path fill="none" stroke="#9a32cd" stroke-dasharray="5,2" d="M25.7675,-1148.77C26.9246,-1153.5 31.8354,-1157 40.5,-1157 54.7188,-1157 58.8289,-1147.57 52.8303,-1138.76"/>
<polygon fill="#9a32cd" stroke="#9a32cd" points="29.2393,-1149.3 28.1697,-1138.76 22.4326,-1147.66 29.2393,-1149.3"/>
<text text-anchor="middle" x="40.5" y="-1171" font-family="Helvetica,sans-Serif" font-size="10.00"> tempTicks</text>
<text text-anchor="middle" x="40.5" y="-1160" font-family="Helvetica,sans-Serif" font-size="10.00">creationTimeTicks</text>
</g>
<!-- Node10&#45;&gt;Node18 -->
<g id="edge23" class="edge"><title>Node10&#45;&gt;Node18</title>
<path fill="none" stroke="#9a32cd" stroke-dasharray="5,2" d="M56.204,-1111.72C77.1941,-1088.43 118.197,-1047.84 163,-1030 197.466,-1016.28 449.812,-1004.77 536.981,-1001.17"/>
<polygon fill="#9a32cd" stroke="#9a32cd" points="53.3863,-1109.62 49.4063,-1119.44 58.6407,-1114.25 53.3863,-1109.62"/>
<text text-anchor="middle" x="245" y="-1033" font-family="Helvetica,sans-Serif" font-size="10.00"> timeStamp</text>
</g>
<!-- Node27 -->
<g id="node27" class="node"><title>Node27</title>
<g id="a_node27"><a xlink:href="classcom_1_1aworx_1_1lox_1_1core_1_1Logger.html" target="_top" xlink:title="Logger">
<polygon fill="white" stroke="black" points="858.5,-919.5 858.5,-938.5 904.5,-938.5 904.5,-919.5 858.5,-919.5"/>
<text text-anchor="middle" x="881.5" y="-926.5" font-family="Helvetica,sans-Serif" font-size="10.00">Logger</text>
</a>
</g>
</g>
<!-- Node10&#45;&gt;Node27 -->
<g id="edge42" class="edge"><title>Node10&#45;&gt;Node27</title>
<path fill="none" stroke="#9a32cd" stroke-dasharray="5,2" d="M70.5854,-1141.32C180.409,-1185.7 573.289,-1324.57 764,-1127 791.766,-1098.24 755.036,-977.517 782,-948 801.029,-927.169 835.419,-925.094 858.108,-926.378"/>
<polygon fill="#9a32cd" stroke="#9a32cd" points="71.7227,-1138.01 61.1422,-1137.46 69.0701,-1144.49 71.7227,-1138.01"/>
<text text-anchor="middle" x="404" y="-1243" font-family="Helvetica,sans-Serif" font-size="10.00"> timeOfCreation</text>
<text text-anchor="middle" x="404" y="-1232" font-family="Helvetica,sans-Serif" font-size="10.00">timeOfLastLog</text>
</g>
<!-- Node11 -->
<g id="node11" class="node"><title>Node11</title>
<g id="a_node11"><a xlink:href="enumcom_1_1aworx_1_1lib_1_1enums_1_1Case.html" target="_top" xlink:title="Case">
<polygon fill="white" stroke="black" points="547.5,-858.5 547.5,-877.5 587.5,-877.5 587.5,-858.5 547.5,-858.5"/>
<text text-anchor="middle" x="567.5" y="-865.5" font-family="Helvetica,sans-Serif" font-size="10.00">Case</text>
</a>
</g>
</g>
<!-- Node11&#45;&gt;Node7 -->
<g id="edge11" class="edge"><title>Node11&#45;&gt;Node7</title>
<path fill="none" stroke="#9a32cd" stroke-dasharray="5,2" d="M597.724,-864.441C636.084,-859.558 705.425,-850.005 764,-838 800.624,-830.494 842.989,-818.817 865.161,-812.472"/>
<polygon fill="#9a32cd" stroke="#9a32cd" points="597.246,-860.973 587.76,-865.693 598.119,-867.919 597.246,-860.973"/>
<text text-anchor="middle" x="718" y="-857" font-family="Helvetica,sans-Serif" font-size="10.00"> domainSensitivity</text>
</g>
<!-- Node12 -->
<g id="node12" class="node"><title>Node12</title>
<polygon fill="white" stroke="#bfbfbf" points="180.5,-905.5 180.5,-924.5 309.5,-924.5 309.5,-905.5 180.5,-905.5"/>
<text text-anchor="middle" x="245" y="-912.5" font-family="Helvetica,sans-Serif" font-size="10.00">HashMap&lt; Long, String &gt;</text>
</g>
<!-- Node12&#45;&gt;Node7 -->
<g id="edge12" class="edge"><title>Node12&#45;&gt;Node7</title>
<path fill="none" stroke="#9a32cd" stroke-dasharray="5,2" d="M319.951,-919.013C422.468,-922.233 612.282,-919.661 764,-869 802.763,-856.056 844.276,-831.39 865.742,-817.723"/>
<polygon fill="#9a32cd" stroke="#9a32cd" points="319.816,-915.506 309.702,-918.662 319.577,-922.502 319.816,-915.506"/>
<text text-anchor="middle" x="567.5" y="-920" font-family="Helvetica,sans-Serif" font-size="10.00"> threadDictionary</text>
</g>
<!-- Node12&#45;&gt;Node18 -->
<g id="edge21" class="edge"><title>Node12&#45;&gt;Node18</title>
<path fill="none" stroke="#9a32cd" stroke-dasharray="5,2" d="M319.82,-922.659C363.077,-929.151 417.9,-940.923 463,-962 472.182,-966.291 471.952,-971.434 481,-976 498.618,-984.891 519.993,-990.891 536.964,-994.668"/>
<polygon fill="#9a32cd" stroke="#9a32cd" points="320.047,-919.155 309.651,-921.197 319.051,-926.084 320.047,-919.155"/>
<text text-anchor="middle" x="404" y="-965" font-family="Helvetica,sans-Serif" font-size="10.00"> threadDictionary</text>
</g>
<!-- Node13 -->
<g id="node13" class="node"><title>Node13</title>
<g id="a_node13"><a xlink:href="classcom_1_1aworx_1_1lox_1_1core_1_1ScopeStore.html" target="_top" xlink:title="ScopeStore\&lt; Object \&gt;">
<polygon fill="white" stroke="black" points="510.5,-820.5 510.5,-839.5 624.5,-839.5 624.5,-820.5 510.5,-820.5"/>
<text text-anchor="middle" x="567.5" y="-827.5" font-family="Helvetica,sans-Serif" font-size="10.00">ScopeStore&lt; Object &gt;</text>
</a>
</g>
</g>
<!-- Node13&#45;&gt;Node7 -->
<g id="edge13" class="edge"><title>Node13&#45;&gt;Node7</title>
<path fill="none" stroke="#9a32cd" stroke-dasharray="5,2" d="M634.818,-825.324C708.963,-820.096 824.04,-811.981 865.21,-809.078"/>
<polygon fill="#9a32cd" stroke="#9a32cd" points="634.369,-821.847 624.64,-826.041 634.861,-828.829 634.369,-821.847"/>
<text text-anchor="middle" x="718" y="-826" font-family="Helvetica,sans-Serif" font-size="10.00"> scopePrefixes</text>
</g>
<!-- Node14 -->
<g id="node14" class="node"><title>Node14</title>
<polygon fill="white" stroke="#bfbfbf" points="492.5,-771 492.5,-801 642.5,-801 642.5,-771 492.5,-771"/>
<text text-anchor="start" x="500.5" y="-789" font-family="Helvetica,sans-Serif" font-size="10.00">ArrayList&lt; com.aworx.lox.</text>
<text text-anchor="middle" x="567.5" y="-778" font-family="Helvetica,sans-Serif" font-size="10.00">Lox.DomainSubstitutionRule &gt;</text>
</g>
<!-- Node14&#45;&gt;Node7 -->
<g id="edge14" class="edge"><title>Node14&#45;&gt;Node7</title>
<path fill="none" stroke="#9a32cd" stroke-dasharray="5,2" d="M653.042,-791.961C726.716,-797.156 827.515,-804.264 865.341,-806.931"/>
<polygon fill="#9a32cd" stroke="#9a32cd" points="653.057,-788.454 642.835,-791.242 652.564,-795.436 653.057,-788.454"/>
<text text-anchor="middle" x="718" y="-803" font-family="Helvetica,sans-Serif" font-size="10.00"> domainSubstitutions</text>
</g>
<!-- Node15 -->
<g id="node15" class="node"><title>Node15</title>
<g id="a_node15"><a xlink:href="classcom_1_1aworx_1_1lox_1_1core_1_1ScopeStore.html" target="_top" xlink:title="ScopeStore\&lt; HashMap\l\&lt; com.aworx.lib.strings.AString,\l int[]\&gt; \&gt;">
<polygon fill="white" stroke="black" points="489,-711.5 489,-752.5 646,-752.5 646,-711.5 489,-711.5"/>
<text text-anchor="start" x="497" y="-740.5" font-family="Helvetica,sans-Serif" font-size="10.00">ScopeStore&lt; HashMap</text>
<text text-anchor="start" x="497" y="-729.5" font-family="Helvetica,sans-Serif" font-size="10.00">&lt; com.aworx.lib.strings.AString,</text>
<text text-anchor="middle" x="567.5" y="-718.5" font-family="Helvetica,sans-Serif" font-size="10.00"> int[]&gt; &gt;</text>
</a>
</g>
</g>
<!-- Node15&#45;&gt;Node7 -->
<g id="edge16" class="edge"><title>Node15&#45;&gt;Node7</title>
<path fill="none" stroke="#9a32cd" stroke-dasharray="5,2" d="M655.917,-752.857C689.699,-760.959 728.664,-770.354 764,-779 800.442,-787.916 843.233,-798.631 865.429,-804.207"/>
<polygon fill="#9a32cd" stroke="#9a32cd" points="656.613,-749.425 646.073,-750.498 654.981,-756.232 656.613,-749.425"/>
<text text-anchor="middle" x="718" y="-782" font-family="Helvetica,sans-Serif" font-size="10.00"> scopeLogOnce</text>
</g>
<!-- Node16 -->
<g id="node16" class="node"><title>Node16</title>
<g id="a_node16"><a xlink:href="classcom_1_1aworx_1_1lox_1_1core_1_1ScopeStore.html" target="_top" xlink:title="ScopeStore\&lt; HashMap\l\&lt; com.aworx.lib.strings.AString,\l com.aworx.lox.LogData \&gt; \&gt;">
<polygon fill="white" stroke="black" points="489,-584.5 489,-625.5 646,-625.5 646,-584.5 489,-584.5"/>
<text text-anchor="start" x="497" y="-613.5" font-family="Helvetica,sans-Serif" font-size="10.00">ScopeStore&lt; HashMap</text>
<text text-anchor="start" x="497" y="-602.5" font-family="Helvetica,sans-Serif" font-size="10.00">&lt; com.aworx.lib.strings.AString,</text>
<text text-anchor="middle" x="567.5" y="-591.5" font-family="Helvetica,sans-Serif" font-size="10.00"> com.aworx.lox.LogData &gt; &gt;</text>
</a>
</g>
</g>
<!-- Node16&#45;&gt;Node7 -->
<g id="edge17" class="edge"><title>Node16&#45;&gt;Node7</title>
<path fill="none" stroke="#9a32cd" stroke-dasharray="5,2" d="M655.985,-626.869C691.467,-638.289 731.625,-654.645 764,-677 815.092,-712.279 858.735,-774.518 874.357,-798.348"/>
<polygon fill="#9a32cd" stroke="#9a32cd" points="656.701,-623.425 646.112,-623.778 654.609,-630.106 656.701,-623.425"/>
<text text-anchor="middle" x="718" y="-680" font-family="Helvetica,sans-Serif" font-size="10.00"> scopeLogData</text>
</g>
<!-- Node17 -->
<g id="node17" class="node"><title>Node17</title>
<g id="a_node17"><a xlink:href="classcom_1_1aworx_1_1lox_1_1core_1_1ScopeStore.html" target="_top" xlink:title="ScopeStore\&lt; com.aworx.lib.strings.\lAString \&gt;">
<polygon fill="white" stroke="black" points="481,-536 481,-566 654,-566 654,-536 481,-536"/>
<text text-anchor="start" x="489" y="-554" font-family="Helvetica,sans-Serif" font-size="10.00">ScopeStore&lt; com.aworx.lib.strings.</text>
<text text-anchor="middle" x="567.5" y="-543" font-family="Helvetica,sans-Serif" font-size="10.00">AString &gt;</text>
</a>
</g>
</g>
<!-- Node17&#45;&gt;Node7 -->
<g id="edge18" class="edge"><title>Node17&#45;&gt;Node7</title>
<path fill="none" stroke="#9a32cd" stroke-dasharray="5,2" d="M664.304,-568.823C698.583,-578.854 735.699,-594.321 764,-618 827.21,-670.886 865.885,-767.299 877.094,-798.195"/>
<polygon fill="#9a32cd" stroke="#9a32cd" points="664.82,-565.333 654.246,-566.008 662.933,-572.074 664.82,-565.333"/>
<text text-anchor="middle" x="718" y="-621" font-family="Helvetica,sans-Serif" font-size="10.00"> scopeDomains</text>
</g>
<!-- Node18&#45;&gt;Node7 -->
<g id="edge20" class="edge"><title>Node18&#45;&gt;Node7</title>
<path fill="none" stroke="#9a32cd" stroke-dasharray="5,2" d="M608.395,-999.957C658.719,-999.067 741.425,-994.558 764,-975 786.656,-955.372 767.13,-936.028 782,-910 804.836,-870.029 846.868,-834.027 867.867,-817.524"/>
<polygon fill="#9a32cd" stroke="#9a32cd" points="608.133,-996.46 598.182,-1000.1 608.228,-1003.46 608.133,-996.46"/>
<text text-anchor="middle" x="718" y="-999" font-family="Helvetica,sans-Serif" font-size="10.00"> scopeInfo</text>
</g>
<!-- Node19 -->
<g id="node19" class="node"><title>Node19</title>
<polygon fill="white" stroke="#bfbfbf" points="200.5,-957.5 200.5,-976.5 289.5,-976.5 289.5,-957.5 200.5,-957.5"/>
<text text-anchor="middle" x="245" y="-964.5" font-family="Helvetica,sans-Serif" font-size="10.00">Vector&lt; String &gt;</text>
</g>
<!-- Node19&#45;&gt;Node7 -->
<g id="edge25" class="edge"><title>Node19&#45;&gt;Node7</title>
<path fill="none" stroke="#9a32cd" stroke-dasharray="5,2" d="M299.82,-971.141C398.076,-976.303 610.51,-976.222 764,-896 807.131,-873.457 851.097,-835.229 870.384,-817.523"/>
<polygon fill="#9a32cd" stroke="#9a32cd" points="299.725,-967.63 289.543,-970.559 299.329,-974.619 299.725,-967.63"/>
<text text-anchor="middle" x="567.5" y="-971" font-family="Helvetica,sans-Serif" font-size="10.00"> omittablePackagePrefixes</text>
</g>
<!-- Node19&#45;&gt;Node18 -->
<g id="edge24" class="edge"><title>Node19&#45;&gt;Node18</title>
<path fill="none" stroke="#9a32cd" stroke-dasharray="5,2" d="M299.661,-972.525C367.774,-979.538 482.895,-991.392 536.883,-996.951"/>
<polygon fill="#9a32cd" stroke="#9a32cd" points="299.864,-969.028 289.558,-971.485 299.147,-975.991 299.864,-969.028"/>
<text text-anchor="middle" x="404" y="-992" font-family="Helvetica,sans-Serif" font-size="10.00"> omittablePackagePrefixes</text>
</g>
<!-- Node20&#45;&gt;Node7 -->
<g id="edge26" class="edge"><title>Node20&#45;&gt;Node7</title>
<path fill="none" stroke="#9a32cd" stroke-dasharray="5,2" d="M602.402,-664.933C642.149,-678.297 709.519,-702.663 764,-731 803.791,-751.696 846.912,-782.692 867.769,-798.293"/>
<polygon fill="#9a32cd" stroke="#9a32cd" points="603.271,-661.534 592.677,-661.698 601.061,-668.176 603.271,-661.534"/>
<text text-anchor="middle" x="718" y="-745" font-family="Helvetica,sans-Serif" font-size="10.00"> domains</text>
<text text-anchor="middle" x="718" y="-734" font-family="Helvetica,sans-Serif" font-size="10.00">internalDomains</text>
</g>
<!-- Node20&#45;&gt;Node20 -->
<g id="edge33" class="edge"><title>Node20&#45;&gt;Node20</title>
<path fill="none" stroke="#9a32cd" stroke-dasharray="5,2" d="M539.501,-672.654C540.671,-677.937 550.004,-682 567.5,-682 594.16,-682 601.867,-672.565 590.619,-663.757"/>
<polygon fill="#9a32cd" stroke="#9a32cd" points="542.64,-674.208 544.381,-663.757 536.503,-670.842 542.64,-674.208"/>
<text text-anchor="middle" x="567.5" y="-685" font-family="Helvetica,sans-Serif" font-size="10.00"> parent</text>
</g>
<!-- Node21&#45;&gt;Node20 -->
<g id="edge28" class="edge"><title>Node21&#45;&gt;Node20</title>
<path fill="none" stroke="#9a32cd" stroke-dasharray="5,2" d="M284.049,-323.933C298.087,-326.765 313.781,-331.174 327,-338 398.623,-374.987 426.164,-386.299 463,-458 481.067,-493.167 454.731,-605.453 481,-635 496.155,-652.046 522.904,-655.639 542.458,-655.693"/>
<polygon fill="#9a32cd" stroke="#9a32cd" points="284.644,-320.484 274.179,-322.138 283.392,-327.371 284.644,-320.484"/>
<text text-anchor="middle" x="404" y="-472" font-family="Helvetica,sans-Serif" font-size="10.00"> tSubstring2</text>
<text text-anchor="middle" x="404" y="-461" font-family="Helvetica,sans-Serif" font-size="10.00">tSubstring</text>
</g>
<!-- Node31 -->
<g id="node31" class="node"><title>Node31</title>
<g id="a_node31"><a xlink:href="classcom_1_1aworx_1_1lib_1_1strings_1_1Tokenizer.html" target="_top" xlink:title="Tokenizer">
<polygon fill="white" stroke="black" points="538,-38.5 538,-57.5 597,-57.5 597,-38.5 538,-38.5"/>
<text text-anchor="middle" x="567.5" y="-45.5" font-family="Helvetica,sans-Serif" font-size="10.00">Tokenizer</text>
</a>
</g>
</g>
<!-- Node21&#45;&gt;Node31 -->
<g id="edge45" class="edge"><title>Node21&#45;&gt;Node31</title>
<path fill="none" stroke="#9a32cd" stroke-dasharray="5,2" d="M248.748,-299.085C255.918,-255.107 279.42,-149.38 345,-96 401.455,-50.0477 491.989,-45.4437 537.865,-46.4245"/>
<polygon fill="#9a32cd" stroke="#9a32cd" points="245.269,-298.679 247.229,-309.09 252.19,-299.729 245.269,-298.679"/>
<text text-anchor="middle" x="404" y="-110" font-family="Helvetica,sans-Serif" font-size="10.00"> rest</text>
<text text-anchor="middle" x="404" y="-99" font-family="Helvetica,sans-Serif" font-size="10.00">actual</text>
</g>
<!-- Node22 -->
<g id="node22" class="node"><title>Node22</title>
<polygon fill="white" stroke="#bfbfbf" points="168.5,-751 168.5,-781 321.5,-781 321.5,-751 168.5,-751"/>
<text text-anchor="start" x="176.5" y="-769" font-family="Helvetica,sans-Serif" font-size="10.00">ArrayList&lt; com.aworx.lox.core.</text>
<text text-anchor="middle" x="245" y="-758" font-family="Helvetica,sans-Serif" font-size="10.00">Domain.PL &gt;</text>
</g>
<!-- Node22&#45;&gt;Node20 -->
<g id="edge30" class="edge"><title>Node22&#45;&gt;Node20</title>
<path fill="none" stroke="#9a32cd" stroke-dasharray="5,2" d="M331.795,-776.711C374.955,-777.598 425.845,-771.288 463,-744 479.368,-731.978 467.425,-717.106 481,-702 497.726,-683.387 523.435,-670.323 542.295,-662.573"/>
<polygon fill="#9a32cd" stroke="#9a32cd" points="331.687,-773.205 321.574,-776.365 331.451,-780.201 331.687,-773.205"/>
<text text-anchor="middle" x="404" y="-780" font-family="Helvetica,sans-Serif" font-size="10.00"> prefixLogables</text>
</g>
<!-- Node23 -->
<g id="node23" class="node"><title>Node23</title>
<polygon fill="white" stroke="#bfbfbf" points="168.5,-639 168.5,-669 321.5,-669 321.5,-639 168.5,-639"/>
<text text-anchor="start" x="176.5" y="-657" font-family="Helvetica,sans-Serif" font-size="10.00">ArrayList&lt; com.aworx.lox.core.</text>
<text text-anchor="middle" x="245" y="-646" font-family="Helvetica,sans-Serif" font-size="10.00">Domain.LoggerData &gt;</text>
</g>
<!-- Node23&#45;&gt;Node20 -->
<g id="edge31" class="edge"><title>Node23&#45;&gt;Node20</title>
<path fill="none" stroke="#9a32cd" stroke-dasharray="5,2" d="M331.792,-654C402.511,-654 498.105,-654 542.276,-654"/>
<polygon fill="#9a32cd" stroke="#9a32cd" points="331.548,-650.5 321.548,-654 331.548,-657.5 331.548,-650.5"/>
<text text-anchor="middle" x="404" y="-657" font-family="Helvetica,sans-Serif" font-size="10.00"> data</text>
</g>
<!-- Node24 -->
<g id="node24" class="node"><title>Node24</title>
<polygon fill="white" stroke="#bfbfbf" points="168.5,-590 168.5,-620 321.5,-620 321.5,-590 168.5,-590"/>
<text text-anchor="start" x="176.5" y="-608" font-family="Helvetica,sans-Serif" font-size="10.00">ArrayList&lt; com.aworx.lox.core.</text>
<text text-anchor="middle" x="245" y="-597" font-family="Helvetica,sans-Serif" font-size="10.00">Domain &gt;</text>
</g>
<!-- Node24&#45;&gt;Node20 -->
<g id="edge32" class="edge"><title>Node24&#45;&gt;Node20</title>
<path fill="none" stroke="#9a32cd" stroke-dasharray="5,2" d="M331.792,-618.116C402.511,-628.928 498.105,-643.543 542.276,-650.296"/>
<polygon fill="#9a32cd" stroke="#9a32cd" points="331.962,-614.602 321.548,-616.55 330.904,-621.521 331.962,-614.602"/>
<text text-anchor="middle" x="404" y="-642" font-family="Helvetica,sans-Serif" font-size="10.00"> subDomains</text>
</g>
<!-- Node25 -->
<g id="node25" class="node"><title>Node25</title>
<polygon fill="white" stroke="#bfbfbf" points="516.5,-497.5 516.5,-516.5 618.5,-516.5 618.5,-497.5 516.5,-497.5"/>
<text text-anchor="middle" x="567.5" y="-504.5" font-family="Helvetica,sans-Serif" font-size="10.00">ArrayList&lt; Object &gt;</text>
</g>
<!-- Node25&#45;&gt;Node7 -->
<g id="edge34" class="edge"><title>Node25&#45;&gt;Node7</title>
<path fill="none" stroke="#9a32cd" stroke-dasharray="5,2" d="M628.817,-506.88C672.314,-510.129 729.264,-521.798 764,-558 787.135,-582.112 769.767,-599.903 782,-631 808.648,-698.743 856.603,-772.66 873.984,-798.474"/>
<polygon fill="#9a32cd" stroke="#9a32cd" points="628.829,-503.374 618.633,-506.252 628.399,-510.361 628.829,-503.374"/>
<text text-anchor="middle" x="718" y="-561" font-family="Helvetica,sans-Serif" font-size="10.00"> tmpLogables</text>
</g>
<!-- Node26&#45;&gt;Node1 -->
<g id="edge37" class="edge"><title>Node26&#45;&gt;Node1</title>
<path fill="none" stroke="#9a32cd" stroke-dasharray="5,2" d="M1158.1,-580.515C1194.77,-624.518 1289.84,-738.604 1318.02,-772.419"/>
<polygon fill="#9a32cd" stroke="#9a32cd" points="1160.67,-578.134 1151.58,-572.693 1155.29,-582.616 1160.67,-578.134"/>
<text text-anchor="middle" x="1250.5" y="-744" font-family="Helvetica,sans-Serif" font-size="10.00"> debugLogger</text>
</g>
<!-- Node27&#45;&gt;Node26 -->
<g id="edge38" class="edge"><title>Node27&#45;&gt;Node26</title>
<path fill="none" stroke="midnightblue" d="M914.255,-917.156C963.604,-898.143 1055.3,-860.195 1077,-833 1078.07,-831.664 1127.96,-620.404 1139.25,-572.558"/>
<polygon fill="midnightblue" stroke="midnightblue" points="912.789,-913.969 904.695,-920.806 915.286,-920.508 912.789,-913.969"/>
</g>
<!-- Node28&#45;&gt;Node27 -->
<g id="edge39" class="edge"><title>Node28&#45;&gt;Node27</title>
<path fill="none" stroke="midnightblue" d="M609.545,-1049.12C653.27,-1052.16 721.864,-1049.67 764,-1012 786.03,-992.308 760.251,-968.002 782,-948 802.638,-929.019 836.277,-926.398 858.4,-927.066"/>
<polygon fill="midnightblue" stroke="midnightblue" points="609.789,-1045.63 599.535,-1048.3 609.215,-1052.6 609.789,-1045.63"/>
</g>
<!-- Node29 -->
<g id="node29" class="node"><title>Node29</title>
<polygon fill="white" stroke="#bfbfbf" points="163,-1050 163,-1080 327,-1080 327,-1050 163,-1050"/>
<text text-anchor="start" x="171" y="-1068" font-family="Helvetica,sans-Serif" font-size="10.00">ArrayList&lt; com.aworx.lib.threads.</text>
<text text-anchor="middle" x="245" y="-1057" font-family="Helvetica,sans-Serif" font-size="10.00">ThreadLock &gt;</text>
</g>
<!-- Node29&#45;&gt;Node28 -->
<g id="edge41" class="edge"><title>Node29&#45;&gt;Node28</title>
<path fill="none" stroke="#9a32cd" stroke-dasharray="5,2" d="M337.21,-1054.64C339.835,-1054.41 342.435,-1054.2 345,-1054 412.736,-1048.71 492.359,-1045.96 535.281,-1044.76"/>
<polygon fill="#9a32cd" stroke="#9a32cd" points="336.645,-1051.18 327,-1055.56 337.275,-1058.15 336.645,-1051.18"/>
<text text-anchor="middle" x="404" y="-1057" font-family="Helvetica,sans-Serif" font-size="10.00"> acquirers</text>
</g>
<!-- Node30&#45;&gt;Node26 -->
<g id="edge43" class="edge"><title>Node30&#45;&gt;Node26</title>
<path fill="none" stroke="#9a32cd" stroke-dasharray="5,2" d="M894.028,-175.184C912.688,-203.147 952.184,-256.55 999,-286 1029.59,-305.244 1051.93,-282.962 1077,-309 1112.18,-345.547 1135.01,-511.159 1140.31,-553.248"/>
<polygon fill="#9a32cd" stroke="#9a32cd" points="896.916,-173.206 888.518,-166.748 891.056,-177.034 896.916,-173.206"/>
<text text-anchor="middle" x="1038" y="-312" font-family="Helvetica,sans-Serif" font-size="10.00"> metaInfo</text>
</g>
<!-- Node31&#45;&gt;Node30 -->
<g id="edge44" class="edge"><title>Node31&#45;&gt;Node30</title>
<path fill="none" stroke="#9a32cd" stroke-dasharray="5,2" d="M607.147,-46.1848C647.659,-45.6279 712.466,-48.5977 764,-69 809.957,-87.1943 853.496,-128.73 871.636,-147.491"/>
<polygon fill="#9a32cd" stroke="#9a32cd" points="607.066,-42.6856 597.144,-46.4013 607.217,-49.684 607.066,-42.6856"/>
<text text-anchor="middle" x="718" y="-72" font-family="Helvetica,sans-Serif" font-size="10.00"> tTok</text>
</g>
<!-- Node32 -->
<g id="node32" class="node"><title>Node32</title>
<g id="a_node32"><a xlink:href="classcom_1_1aworx_1_1lib_1_1time_1_1TickSpan.html" target="_top" xlink:title="TickSpan">
<polygon fill="white" stroke="black" points="538.5,-248.5 538.5,-267.5 596.5,-267.5 596.5,-248.5 538.5,-248.5"/>
<text text-anchor="middle" x="567.5" y="-255.5" font-family="Helvetica,sans-Serif" font-size="10.00">TickSpan</text>
</a>
</g>
</g>
<!-- Node32&#45;&gt;Node30 -->
<g id="edge46" class="edge"><title>Node32&#45;&gt;Node30</title>
<path fill="none" stroke="#9a32cd" stroke-dasharray="5,2" d="M606.899,-254.348C647.016,-249.706 711.324,-239.912 764,-221 803.312,-206.886 845.272,-180.737 866.484,-166.627"/>
<polygon fill="#9a32cd" stroke="#9a32cd" points="606.304,-250.893 596.75,-255.472 607.074,-257.85 606.304,-250.893"/>
<text text-anchor="middle" x="718" y="-248" font-family="Helvetica,sans-Serif" font-size="10.00"> elapsed</text>
</g>
<!-- Node33 -->
<g id="node33" class="node"><title>Node33</title>
<polygon fill="white" stroke="#bfbfbf" points="531,-210.5 531,-229.5 604,-229.5 604,-210.5 531,-210.5"/>
<text text-anchor="middle" x="567.5" y="-217.5" font-family="Helvetica,sans-Serif" font-size="10.00">FieldPosition</text>
</g>
<!-- Node33&#45;&gt;Node30 -->
<g id="edge47" class="edge"><title>Node33&#45;&gt;Node30</title>
<path fill="none" stroke="#9a32cd" stroke-dasharray="5,2" d="M613.968,-214.244C653.76,-208.862 713.013,-200.009 764,-189 795.164,-182.271 830.391,-172.251 853.87,-165.221"/>
<polygon fill="#9a32cd" stroke="#9a32cd" points="613.485,-210.777 604.037,-215.57 614.412,-217.716 613.485,-210.777"/>
<text text-anchor="middle" x="718" y="-209" font-family="Helvetica,sans-Serif" font-size="10.00"> fieldPositionZero</text>
</g>
<!-- Node34 -->
<g id="node34" class="node"><title>Node34</title>
<polygon fill="white" stroke="#bfbfbf" points="518.5,-172.5 518.5,-191.5 616.5,-191.5 616.5,-172.5 518.5,-172.5"/>
<text text-anchor="middle" x="567.5" y="-179.5" font-family="Helvetica,sans-Serif" font-size="10.00">GregorianCalendar</text>
</g>
<!-- Node34&#45;&gt;Node30 -->
<g id="edge49" class="edge"><title>Node34&#45;&gt;Node30</title>
<path fill="none" stroke="#9a32cd" stroke-dasharray="5,2" d="M626.66,-177.34C694.409,-171.911 803.445,-163.174 853.634,-159.153"/>
<polygon fill="#9a32cd" stroke="#9a32cd" points="626.255,-173.861 616.566,-178.149 626.814,-180.839 626.255,-173.861"/>
<text text-anchor="middle" x="718" y="-177" font-family="Helvetica,sans-Serif" font-size="10.00"> callerDateTimeCal</text>
</g>
<!-- Node35 -->
<g id="node35" class="node"><title>Node35</title>
<polygon fill="white" stroke="#bfbfbf" points="518.5,-76.5 518.5,-95.5 616.5,-95.5 616.5,-76.5 518.5,-76.5"/>
<text text-anchor="middle" x="567.5" y="-83.5" font-family="Helvetica,sans-Serif" font-size="10.00">SimpleDateFormat</text>
</g>
<!-- Node35&#45;&gt;Node30 -->
<g id="edge50" class="edge"><title>Node35&#45;&gt;Node30</title>
<path fill="none" stroke="#9a32cd" stroke-dasharray="5,2" d="M627.035,-82.5144C666.427,-81.7333 719.16,-83.7478 764,-96 804.082,-106.952 846.055,-133.163 866.972,-147.401"/>
<polygon fill="#9a32cd" stroke="#9a32cd" points="626.713,-79.0216 616.81,-82.7854 626.899,-86.0191 626.713,-79.0216"/>
<text text-anchor="middle" x="718" y="-110" font-family="Helvetica,sans-Serif" font-size="10.00"> dateFormatter</text>
<text text-anchor="middle" x="718" y="-99" font-family="Helvetica,sans-Serif" font-size="10.00">timeOfDayFormatter</text>
</g>
<!-- Node36 -->
<g id="node36" class="node"><title>Node36</title>
<polygon fill="white" stroke="#bfbfbf" points="548.5,-0.5 548.5,-19.5 586.5,-19.5 586.5,-0.5 548.5,-0.5"/>
<text text-anchor="middle" x="567.5" y="-7.5" font-family="Helvetica,sans-Serif" font-size="10.00">Date</text>
</g>
<!-- Node36&#45;&gt;Node30 -->
<g id="edge51" class="edge"><title>Node36&#45;&gt;Node30</title>
<path fill="none" stroke="#9a32cd" stroke-dasharray="5,2" d="M596.638,-7.90387C636.221,-6.17423 709.587,-7.50903 764,-35 817.325,-61.9412 859.642,-123.416 874.633,-147.279"/>
<polygon fill="#9a32cd" stroke="#9a32cd" points="596.441,-4.40928 586.643,-8.4391 596.816,-11.3993 596.441,-4.40928"/>
<text text-anchor="middle" x="718" y="-38" font-family="Helvetica,sans-Serif" font-size="10.00"> callerDateTimeDate</text>
</g>
<!-- Node37 -->
<g id="node37" class="node"><title>Node37</title>
<polygon fill="white" stroke="#bfbfbf" points="782,-592 782,-622 981,-622 981,-592 782,-592"/>
<text text-anchor="start" x="790" y="-610" font-family="Helvetica,sans-Serif" font-size="10.00">ArrayList&lt; com.aworx.lox.core.textlogger.</text>
<text text-anchor="middle" x="881.5" y="-599" font-family="Helvetica,sans-Serif" font-size="10.00">ObjectConverter &gt;</text>
</g>
<!-- Node37&#45;&gt;Node26 -->
<g id="edge52" class="edge"><title>Node37&#45;&gt;Node26</title>
<path fill="none" stroke="#9a32cd" stroke-dasharray="5,2" d="M991.413,-592.34C1019.38,-588.143 1049.37,-583.264 1077,-578 1087.73,-575.956 1099.38,-573.363 1109.79,-570.911"/>
<polygon fill="#9a32cd" stroke="#9a32cd" points="990.586,-588.924 981.208,-593.855 991.614,-595.848 990.586,-588.924"/>
<text text-anchor="middle" x="1038" y="-594" font-family="Helvetica,sans-Serif" font-size="10.00"> objectConverters</text>
</g>
<!-- Node38 -->
<g id="node38" class="node"><title>Node38</title>
<polygon fill="white" stroke="#bfbfbf" points="832,-553.5 832,-572.5 931,-572.5 931,-553.5 832,-553.5"/>
<text text-anchor="middle" x="881.5" y="-560.5" font-family="Helvetica,sans-Serif" font-size="10.00">ArrayList&lt; String &gt;</text>
</g>
<!-- Node38&#45;&gt;Node26 -->
<g id="edge54" class="edge"><title>Node38&#45;&gt;Node26</title>
<path fill="none" stroke="#9a32cd" stroke-dasharray="5,2" d="M941.352,-563C993.584,-563 1067.91,-563 1109.74,-563"/>
<polygon fill="#9a32cd" stroke="#9a32cd" points="941.216,-559.5 931.216,-563 941.216,-566.5 941.216,-559.5"/>
<text text-anchor="middle" x="1038" y="-566" font-family="Helvetica,sans-Serif" font-size="10.00"> replacements</text>
</g>
<!-- Node39 -->
<g id="node39" class="node"><title>Node39</title>
<g id="a_node39"><a xlink:href="classcom_1_1aworx_1_1lox_1_1core_1_1textlogger_1_1AutoSizes.html" target="_top" xlink:title="AutoSizes">
<polygon fill="white" stroke="black" points="850.5,-515.5 850.5,-534.5 912.5,-534.5 912.5,-515.5 850.5,-515.5"/>
<text text-anchor="middle" x="881.5" y="-522.5" font-family="Helvetica,sans-Serif" font-size="10.00">AutoSizes</text>
</a>
</g>
</g>
<!-- Node39&#45;&gt;Node26 -->
<g id="edge55" class="edge"><title>Node39&#45;&gt;Node26</title>
<path fill="none" stroke="#9a32cd" stroke-dasharray="5,2" d="M922.659,-528.438C962.12,-532.125 1023.96,-538.726 1077,-548 1087.76,-549.881 1099.41,-552.432 1109.82,-554.896"/>
<polygon fill="#9a32cd" stroke="#9a32cd" points="922.916,-524.947 912.638,-527.52 922.277,-531.918 922.916,-524.947"/>
<text text-anchor="middle" x="1038" y="-551" font-family="Helvetica,sans-Serif" font-size="10.00"> autoSizes</text>
</g>
</g>
</svg>
