<?xml version="1.0" encoding="UTF-8" standalone="no"?>
<!DOCTYPE svg PUBLIC "-//W3C//DTD SVG 1.1//EN"
 "http://www.w3.org/Graphics/SVG/1.1/DTD/svg11.dtd">
<!-- Generated by graphviz version 2.40.1 (20161225.0304)
 -->
<!-- Title: TextFileLogger Pages: 1 -->
<svg width="1264pt" height="553pt"
 viewBox="0.00 0.00 1263.50 553.00" xmlns="http://www.w3.org/2000/svg" xmlns:xlink="http://www.w3.org/1999/xlink">
<g id="graph0" class="graph" transform="scale(1 1) rotate(0) translate(4 549)">
<title>TextFileLogger</title>
<polygon fill="#ffffff" stroke="transparent" points="-4,4 -4,-549 1259.5,-549 1259.5,4 -4,4"/>
<!-- Node6 -->
<g id="node1" class="node">
<title>Node6</title>
<g id="a_node1"><a xlink:title=" ">
<polygon fill="#bfbfbf" stroke="#000000" points="1175.5,-201.5 1175.5,-220.5 1255.5,-220.5 1255.5,-201.5 1175.5,-201.5"/>
<text text-anchor="middle" x="1215.5" y="-208.5" font-family="Helvetica,sans-Serif" font-size="10.00" fill="#000000">TextFileLogger</text>
</a>
</g>
</g>
<!-- Node7 -->
<g id="node2" class="node">
<title>Node7</title>
<g id="a_node2"><a xlink:href="classcom_1_1aworx_1_1lox_1_1detail_1_1textlogger_1_1PlainTextLogger.html" target="_top" xlink:title=" ">
<polygon fill="#ffffff" stroke="#000000" points="1037.5,-239.5 1037.5,-258.5 1123.5,-258.5 1123.5,-239.5 1037.5,-239.5"/>
<text text-anchor="middle" x="1080.5" y="-246.5" font-family="Helvetica,sans-Serif" font-size="10.00" fill="#000000">PlainTextLogger</text>
</a>
</g>
</g>
<!-- Node7&#45;&gt;Node6 -->
<g id="edge1" class="edge">
<title>Node7&#45;&gt;Node6</title>
<path fill="none" stroke="#191970" d="M1124.2625,-236.6817C1142.8106,-231.4607 1164.0991,-225.4684 1181.4447,-220.5859"/>
<polygon fill="#191970" stroke="#191970" points="1123.2438,-233.3323 1114.5662,-239.411 1125.1405,-240.0705 1123.2438,-233.3323"/>
</g>
<!-- Node8 -->
<g id="node3" class="node">
<title>Node8</title>
<g id="a_node3"><a xlink:href="classcom_1_1aworx_1_1lox_1_1detail_1_1textlogger_1_1TextLogger.html" target="_top" xlink:title=" ">
<polygon fill="#ffffff" stroke="#000000" points="935.5,-239.5 935.5,-258.5 1000.5,-258.5 1000.5,-239.5 935.5,-239.5"/>
<text text-anchor="middle" x="968" y="-246.5" font-family="Helvetica,sans-Serif" font-size="10.00" fill="#000000">TextLogger</text>
</a>
</g>
</g>
<!-- Node8&#45;&gt;Node7 -->
<g id="edge2" class="edge">
<title>Node8&#45;&gt;Node7</title>
<path fill="none" stroke="#191970" d="M1010.7851,-249C1019.4156,-249 1028.4955,-249 1037.1454,-249"/>
<polygon fill="#191970" stroke="#191970" points="1010.5397,-245.5001 1000.5397,-249 1010.5396,-252.5001 1010.5397,-245.5001"/>
</g>
<!-- Node9 -->
<g id="node4" class="node">
<title>Node9</title>
<g id="a_node4"><a xlink:href="classcom_1_1aworx_1_1lox_1_1detail_1_1Logger.html" target="_top" xlink:title=" ">
<polygon fill="#ffffff" stroke="#000000" points="765,-436.5 765,-455.5 811,-455.5 811,-436.5 765,-436.5"/>
<text text-anchor="middle" x="788" y="-443.5" font-family="Helvetica,sans-Serif" font-size="10.00" fill="#000000">Logger</text>
</a>
</g>
</g>
<!-- Node9&#45;&gt;Node8 -->
<g id="edge3" class="edge">
<title>Node9&#45;&gt;Node8</title>
<path fill="none" stroke="#191970" d="M809.9129,-430.5226C837.3157,-410.4369 884.6181,-373.2845 917.5,-334 938.2125,-309.2544 955.7385,-275.0128 963.5878,-258.568"/>
<polygon fill="#191970" stroke="#191970" points="807.8067,-427.7264 801.7586,-436.4254 811.9114,-433.3967 807.8067,-427.7264"/>
</g>
<!-- Node10 -->
<g id="node5" class="node">
<title>Node10</title>
<g id="a_node5"><a xlink:href="classcom_1_1aworx_1_1lib_1_1threads_1_1SmartLock.html" target="_top" xlink:title=" ">
<polygon fill="#ffffff" stroke="#000000" points="493.5,-481.5 493.5,-500.5 557.5,-500.5 557.5,-481.5 493.5,-481.5"/>
<text text-anchor="middle" x="525.5" y="-488.5" font-family="Helvetica,sans-Serif" font-size="10.00" fill="#000000">SmartLock</text>
</a>
</g>
</g>
<!-- Node10&#45;&gt;Node9 -->
<g id="edge4" class="edge">
<title>Node10&#45;&gt;Node9</title>
<path fill="none" stroke="#191970" d="M567.7471,-484.8676C607.3099,-478.9866 668.035,-469.6057 720.5,-460 735.3333,-457.2842 751.9169,-453.8503 764.9344,-451.0631"/>
<polygon fill="#191970" stroke="#191970" points="567.0492,-481.4326 557.6688,-486.358 568.0733,-488.3573 567.0492,-481.4326"/>
</g>
<!-- Node11 -->
<g id="node6" class="node">
<title>Node11</title>
<g id="a_node6"><a xlink:href="classcom_1_1aworx_1_1lib_1_1threads_1_1ThreadLock.html" target="_top" xlink:title=" ">
<polygon fill="#ffffff" stroke="#000000" points="210,-524.5 210,-543.5 278,-543.5 278,-524.5 210,-524.5"/>
<text text-anchor="middle" x="244" y="-531.5" font-family="Helvetica,sans-Serif" font-size="10.00" fill="#000000">ThreadLock</text>
</a>
</g>
</g>
<!-- Node11&#45;&gt;Node10 -->
<g id="edge5" class="edge">
<title>Node11&#45;&gt;Node10</title>
<path fill="none" stroke="#191970" d="M288.382,-527.2205C345.3547,-518.5178 442.8491,-503.6252 493.2373,-495.9282"/>
<polygon fill="#191970" stroke="#191970" points="287.5928,-523.8004 278.236,-528.7703 288.6499,-530.7201 287.5928,-523.8004"/>
</g>
<!-- Node12 -->
<g id="node7" class="node">
<title>Node12</title>
<g id="a_node7"><a xlink:href="enumcom_1_1aworx_1_1lib_1_1lang_1_1LockMode.html" target="_top" xlink:title=" ">
<polygon fill="#ffffff" stroke="#000000" points="9.5,-524.5 9.5,-543.5 71.5,-543.5 71.5,-524.5 9.5,-524.5"/>
<text text-anchor="middle" x="40.5" y="-531.5" font-family="Helvetica,sans-Serif" font-size="10.00" fill="#000000">LockMode</text>
</a>
</g>
</g>
<!-- Node12&#45;&gt;Node11 -->
<g id="edge6" class="edge">
<title>Node12&#45;&gt;Node11</title>
<path fill="none" stroke="#9a32cd" stroke-dasharray="5,2" d="M81.9993,-534C119.7115,-534 174.6829,-534 209.8948,-534"/>
<polygon fill="#9a32cd" stroke="#9a32cd" points="81.8509,-530.5001 71.8509,-534 81.8509,-537.5001 81.8509,-530.5001"/>
<text text-anchor="middle" x="121.5" y="-537" font-family="Helvetica,sans-Serif" font-size="10.00" fill="#000000"> lockMode</text>
</g>
<!-- Node13 -->
<g id="node8" class="node">
<title>Node13</title>
<g id="a_node8"><a xlink:href="classcom_1_1aworx_1_1lib_1_1time_1_1Ticks.html" target="_top" xlink:title=" ">
<polygon fill="#ffffff" stroke="#000000" points="20,-436.5 20,-455.5 61,-455.5 61,-436.5 20,-436.5"/>
<text text-anchor="middle" x="40.5" y="-443.5" font-family="Helvetica,sans-Serif" font-size="10.00" fill="#000000">Ticks</text>
</a>
</g>
</g>
<!-- Node13&#45;&gt;Node9 -->
<g id="edge10" class="edge">
<title>Node13&#45;&gt;Node9</title>
<path fill="none" stroke="#9a32cd" stroke-dasharray="5,2" d="M71.5949,-446C195.937,-446 655.9187,-446 764.7898,-446"/>
<polygon fill="#9a32cd" stroke="#9a32cd" points="71.2726,-442.5001 61.2726,-446 71.2726,-449.5001 71.2726,-442.5001"/>
<text text-anchor="middle" x="381.5" y="-460" font-family="Helvetica,sans-Serif" font-size="10.00" fill="#000000"> timeOfCreation</text>
<text text-anchor="middle" x="381.5" y="-449" font-family="Helvetica,sans-Serif" font-size="10.00" fill="#000000">timeOfLastLog</text>
</g>
<!-- Node13&#45;&gt;Node11 -->
<g id="edge7" class="edge">
<title>Node13&#45;&gt;Node11</title>
<path fill="none" stroke="#9a32cd" stroke-dasharray="5,2" d="M63.1084,-461.412C86.8894,-476.9806 125.8753,-500.7154 162.5,-515 177.5245,-520.86 194.8423,-525.2103 209.6399,-528.2585"/>
<polygon fill="#9a32cd" stroke="#9a32cd" points="64.7499,-458.3006 54.483,-455.685 60.8779,-464.1323 64.7499,-458.3006"/>
<text text-anchor="middle" x="121.5" y="-508" font-family="Helvetica,sans-Serif" font-size="10.00" fill="#000000"> waitTime</text>
</g>
<!-- Node13&#45;&gt;Node13 -->
<g id="edge8" class="edge">
<title>Node13&#45;&gt;Node13</title>
<path fill="none" stroke="#9a32cd" stroke-dasharray="5,2" d="M25.7675,-465.7663C26.9246,-470.4965 31.8354,-474 40.5,-474 54.7188,-474 58.8289,-464.5653 52.8303,-455.7571"/>
<polygon fill="#9a32cd" stroke="#9a32cd" points="29.2393,-466.2978 28.1697,-455.7571 22.4326,-464.6641 29.2393,-466.2978"/>
<text text-anchor="middle" x="40.5" y="-488" font-family="Helvetica,sans-Serif" font-size="10.00" fill="#000000"> tempTicks</text>
<text text-anchor="middle" x="40.5" y="-477" font-family="Helvetica,sans-Serif" font-size="10.00" fill="#000000">creationTimeTicks</text>
</g>
<!-- Node20 -->
<g id="node15" class="node">
<title>Node20</title>
<g id="a_node15"><a xlink:href="classcom_1_1aworx_1_1lox_1_1detail_1_1textlogger_1_1MetaInfo.html" target="_top" xlink:title=" ">
<polygon fill="#ffffff" stroke="#000000" points="760.5,-220.5 760.5,-239.5 815.5,-239.5 815.5,-220.5 760.5,-220.5"/>
<text text-anchor="middle" x="788" y="-227.5" font-family="Helvetica,sans-Serif" font-size="10.00" fill="#000000">MetaInfo</text>
</a>
</g>
</g>
<!-- Node13&#45;&gt;Node20 -->
<g id="edge25" class="edge">
<title>Node13&#45;&gt;Node20</title>
<path fill="none" stroke="#9a32cd" stroke-dasharray="5,2" d="M71.3924,-440.6166C138.1658,-429.0006 300.9479,-400.7921 437.5,-378 500.3449,-367.5105 674.2819,-375.8565 720.5,-332 747.8811,-306.018 713.9263,-277.6517 738.5,-249 744.1331,-242.432 752.3034,-238.1257 760.388,-235.3057"/>
<polygon fill="#9a32cd" stroke="#9a32cd" points="70.406,-437.2356 61.1543,-442.3985 71.6063,-444.1319 70.406,-437.2356"/>
<text text-anchor="middle" x="381.5" y="-407" font-family="Helvetica,sans-Serif" font-size="10.00" fill="#000000"> elapsedTime</text>
<text text-anchor="middle" x="381.5" y="-396" font-family="Helvetica,sans-Serif" font-size="10.00" fill="#000000">maxElapsedTime</text>
</g>
<!-- Node14 -->
<g id="node9" class="node">
<title>Node14</title>
<g id="a_node9"><a xlink:title=" ">
<polygon fill="#ffffff" stroke="#bfbfbf" points="162.5,-475 162.5,-505 325.5,-505 325.5,-475 162.5,-475"/>
<text text-anchor="start" x="170.5" y="-493" font-family="Helvetica,sans-Serif" font-size="10.00" fill="#000000">ArrayList&lt; com.aworx.lib.threads.</text>
<text text-anchor="middle" x="244" y="-482" font-family="Helvetica,sans-Serif" font-size="10.00" fill="#000000">ThreadLock &gt;</text>
</a>
</g>
</g>
<!-- Node14&#45;&gt;Node10 -->
<g id="edge9" class="edge">
<title>Node14&#45;&gt;Node10</title>
<path fill="none" stroke="#9a32cd" stroke-dasharray="5,2" d="M336.1292,-490.3273C390.3135,-490.5198 455.4581,-490.7512 493.4969,-490.8863"/>
<polygon fill="#9a32cd" stroke="#9a32cd" points="335.812,-486.8262 325.7996,-490.2906 335.7871,-493.8262 335.812,-486.8262"/>
<text text-anchor="middle" x="381.5" y="-493" font-family="Helvetica,sans-Serif" font-size="10.00" fill="#000000"> acquirers</text>
</g>
<!-- Node15 -->
<g id="node10" class="node">
<title>Node15</title>
<g id="a_node10"><a xlink:href="classcom_1_1aworx_1_1lib_1_1strings_1_1AString.html" target="_top" xlink:title=" ">
<polygon fill="#ffffff" stroke="#000000" points="501,-79.5 501,-98.5 550,-98.5 550,-79.5 501,-79.5"/>
<text text-anchor="middle" x="525.5" y="-86.5" font-family="Helvetica,sans-Serif" font-size="10.00" fill="#000000">AString</text>
</a>
</g>
</g>
<!-- Node15&#45;&gt;Node8 -->
<g id="edge11" class="edge">
<title>Node15&#45;&gt;Node8</title>
<path fill="none" stroke="#9a32cd" stroke-dasharray="5,2" d="M559.9196,-78.9766C599.6017,-69.128 666.3198,-57.8607 720.5,-75 827.6687,-108.9016 928.6156,-207.7137 958.8542,-239.2239"/>
<polygon fill="#9a32cd" stroke="#9a32cd" points="558.9994,-75.5993 550.1975,-81.4966 560.7558,-82.3754 558.9994,-75.5993"/>
<text text-anchor="middle" x="788" y="-148" font-family="Helvetica,sans-Serif" font-size="10.00" fill="#000000"> logBuf</text>
<text text-anchor="middle" x="788" y="-137" font-family="Helvetica,sans-Serif" font-size="10.00" fill="#000000">msgBuf</text>
</g>
<!-- Node15&#45;&gt;Node20 -->
<g id="edge22" class="edge">
<title>Node15&#45;&gt;Node20</title>
<path fill="none" stroke="#9a32cd" stroke-dasharray="5,2" d="M559.9601,-82.0835C601.5661,-75.7063 671.9848,-71.424 720.5,-103 763.401,-130.922 780.8778,-195.564 786.1385,-220.2116"/>
<polygon fill="#9a32cd" stroke="#9a32cd" points="559.3267,-78.6406 550.034,-83.7294 560.4718,-85.5463 559.3267,-78.6406"/>
<text text-anchor="middle" x="676" y="-117" font-family="Helvetica,sans-Serif" font-size="10.00" fill="#000000"> format</text>
<text text-anchor="middle" x="676" y="-106" font-family="Helvetica,sans-Serif" font-size="10.00" fill="#000000">tmpAString</text>
</g>
<!-- Node16 -->
<g id="node11" class="node">
<title>Node16</title>
<g id="a_node11"><a xlink:title=" ">
<polygon fill="#ffffff" stroke="#bfbfbf" points=".5,-110.5 .5,-129.5 80.5,-129.5 80.5,-110.5 .5,-110.5"/>
<text text-anchor="middle" x="40.5" y="-117.5" font-family="Helvetica,sans-Serif" font-size="10.00" fill="#000000">CharSequence</text>
</a>
</g>
</g>
<!-- Node16&#45;&gt;Node15 -->
<g id="edge12" class="edge">
<title>Node16&#45;&gt;Node15</title>
<path fill="none" stroke="#191970" d="M90.7326,-116.7893C193.578,-110.2156 424.8278,-95.4347 500.7984,-90.5789"/>
<polygon fill="#191970" stroke="#191970" points="90.3586,-113.3059 80.6022,-117.4368 90.8051,-120.2917 90.3586,-113.3059"/>
</g>
<!-- Node24 -->
<g id="node19" class="node">
<title>Node24</title>
<g id="a_node19"><a xlink:href="classcom_1_1aworx_1_1lib_1_1strings_1_1Substring.html" target="_top" xlink:title=" ">
<polygon fill="#ffffff" stroke="#000000" points="215,-147.5 215,-166.5 273,-166.5 273,-147.5 215,-147.5"/>
<text text-anchor="middle" x="244" y="-154.5" font-family="Helvetica,sans-Serif" font-size="10.00" fill="#000000">Substring</text>
</a>
</g>
</g>
<!-- Node16&#45;&gt;Node24 -->
<g id="edge21" class="edge">
<title>Node16&#45;&gt;Node24</title>
<path fill="none" stroke="#191970" d="M90.8013,-129.1457C129.7737,-136.2316 182.4118,-145.8021 214.7402,-151.68"/>
<polygon fill="#191970" stroke="#191970" points="91.1699,-125.6554 80.7051,-127.31 89.9176,-132.5425 91.1699,-125.6554"/>
</g>
<!-- Node17 -->
<g id="node12" class="node">
<title>Node17</title>
<g id="a_node12"><a xlink:title=" ">
<polygon fill="#ffffff" stroke="#bfbfbf" points="738.5,-258.5 738.5,-277.5 837.5,-277.5 837.5,-258.5 738.5,-258.5"/>
<text text-anchor="middle" x="788" y="-265.5" font-family="Helvetica,sans-Serif" font-size="10.00" fill="#000000">ArrayList&lt; String &gt;</text>
</a>
</g>
</g>
<!-- Node17&#45;&gt;Node8 -->
<g id="edge13" class="edge">
<title>Node17&#45;&gt;Node8</title>
<path fill="none" stroke="#9a32cd" stroke-dasharray="5,2" d="M847.754,-261.6926C876.9169,-258.6143 910.8743,-255.0299 935.2509,-252.4569"/>
<polygon fill="#9a32cd" stroke="#9a32cd" points="847.2396,-258.2274 837.6623,-262.7579 847.9745,-265.1887 847.2396,-258.2274"/>
<text text-anchor="middle" x="886.5" y="-263" font-family="Helvetica,sans-Serif" font-size="10.00" fill="#000000"> replacements</text>
</g>
<!-- Node18 -->
<g id="node13" class="node">
<title>Node18</title>
<g id="a_node13"><a xlink:href="classcom_1_1aworx_1_1lib_1_1strings_1_1util_1_1AutoSizes.html" target="_top" xlink:title=" ">
<polygon fill="#ffffff" stroke="#000000" points="757,-353.5 757,-372.5 819,-372.5 819,-353.5 757,-353.5"/>
<text text-anchor="middle" x="788" y="-360.5" font-family="Helvetica,sans-Serif" font-size="10.00" fill="#000000">AutoSizes</text>
</a>
</g>
</g>
<!-- Node18&#45;&gt;Node8 -->
<g id="edge14" class="edge">
<title>Node18&#45;&gt;Node8</title>
<path fill="none" stroke="#9a32cd" stroke-dasharray="5,2" d="M811.8134,-347.9182C849.4384,-324.089 921.5709,-278.4051 952.8791,-258.5766"/>
<polygon fill="#9a32cd" stroke="#9a32cd" points="809.6126,-345.1691 803.0371,-353.4765 813.358,-351.0828 809.6126,-345.1691"/>
<text text-anchor="middle" x="886.5" y="-322" font-family="Helvetica,sans-Serif" font-size="10.00" fill="#000000"> autoSizes</text>
</g>
<!-- Node19 -->
<g id="node14" class="node">
<title>Node19</title>
<g id="a_node14"><a xlink:title=" ">
<polygon fill="#ffffff" stroke="#bfbfbf" points="437.5,-387 437.5,-417 613.5,-417 613.5,-387 437.5,-387"/>
<text text-anchor="start" x="445.5" y="-405" font-family="Helvetica,sans-Serif" font-size="10.00" fill="#000000">ArrayList&lt; com.aworx.lib.strings.util.</text>
<text text-anchor="middle" x="525.5" y="-394" font-family="Helvetica,sans-Serif" font-size="10.00" fill="#000000">AutoSizes.Entry &gt;</text>
</a>
</g>
</g>
<!-- Node19&#45;&gt;Node18 -->
<g id="edge15" class="edge">
<title>Node19&#45;&gt;Node18</title>
<path fill="none" stroke="#9a32cd" stroke-dasharray="5,2" d="M623.6021,-387.4248C670.7717,-380.4168 724.0536,-372.5006 756.8367,-367.63"/>
<polygon fill="#9a32cd" stroke="#9a32cd" points="623.016,-383.9734 613.6389,-388.9051 624.0448,-390.8974 623.016,-383.9734"/>
<text text-anchor="middle" x="676" y="-388" font-family="Helvetica,sans-Serif" font-size="10.00" fill="#000000"> data</text>
</g>
<!-- Node20&#45;&gt;Node8 -->
<g id="edge16" class="edge">
<title>Node20&#45;&gt;Node8</title>
<path fill="none" stroke="#9a32cd" stroke-dasharray="5,2" d="M825.7823,-231.3682C851.679,-232.6137 886.7723,-234.9065 917.5,-239 923.2586,-239.7671 929.3485,-240.7894 935.2303,-241.8878"/>
<polygon fill="#9a32cd" stroke="#9a32cd" points="825.7849,-227.8649 815.6375,-230.9111 825.4698,-234.8578 825.7849,-227.8649"/>
<text text-anchor="middle" x="886.5" y="-242" font-family="Helvetica,sans-Serif" font-size="10.00" fill="#000000"> metaInfo</text>
</g>
<!-- Node21 -->
<g id="node16" class="node">
<title>Node21</title>
<g id="a_node16"><a xlink:href="classcom_1_1aworx_1_1lib_1_1time_1_1TickSpan.html" target="_top" xlink:title=" ">
<polygon fill="#ffffff" stroke="#000000" points="496.5,-310.5 496.5,-329.5 554.5,-329.5 554.5,-310.5 496.5,-310.5"/>
<text text-anchor="middle" x="525.5" y="-317.5" font-family="Helvetica,sans-Serif" font-size="10.00" fill="#000000">TickSpan</text>
</a>
</g>
</g>
<!-- Node21&#45;&gt;Node20 -->
<g id="edge17" class="edge">
<title>Node21&#45;&gt;Node20</title>
<path fill="none" stroke="#9a32cd" stroke-dasharray="5,2" d="M564.9645,-322.4371C607.4475,-323.0172 675.0333,-317.7935 720.5,-284 734.539,-273.5654 725.4786,-260.6799 738.5,-249 744.6671,-243.4682 752.616,-239.4777 760.3316,-236.6283"/>
<polygon fill="#9a32cd" stroke="#9a32cd" points="564.8187,-318.9324 554.7334,-322.1784 564.6417,-325.9301 564.8187,-318.9324"/>
<text text-anchor="middle" x="676" y="-320" font-family="Helvetica,sans-Serif" font-size="10.00" fill="#000000"> elapsed</text>
</g>
<!-- Node22 -->
<g id="node17" class="node">
<title>Node22</title>
<g id="a_node17"><a xlink:title=" ">
<polygon fill="#ffffff" stroke="#bfbfbf" points="489,-272.5 489,-291.5 562,-291.5 562,-272.5 489,-272.5"/>
<text text-anchor="middle" x="525.5" y="-279.5" font-family="Helvetica,sans-Serif" font-size="10.00" fill="#000000">FieldPosition</text>
</a>
</g>
</g>
<!-- Node22&#45;&gt;Node20 -->
<g id="edge18" class="edge">
<title>Node22&#45;&gt;Node20</title>
<path fill="none" stroke="#9a32cd" stroke-dasharray="5,2" d="M572.1254,-277.4636C611.918,-273.0234 670.4722,-265.1376 720.5,-253 734.9376,-249.4972 750.6715,-244.2245 763.3141,-239.611"/>
<polygon fill="#9a32cd" stroke="#9a32cd" points="571.7412,-273.9847 562.1782,-278.5454 572.498,-280.9437 571.7412,-273.9847"/>
<text text-anchor="middle" x="676" y="-272" font-family="Helvetica,sans-Serif" font-size="10.00" fill="#000000"> fieldPositionZero</text>
</g>
<!-- Node23 -->
<g id="node18" class="node">
<title>Node23</title>
<g id="a_node18"><a xlink:href="classcom_1_1aworx_1_1lib_1_1strings_1_1util_1_1Tokenizer.html" target="_top" xlink:title=" ">
<polygon fill="#ffffff" stroke="#000000" points="496,-196.5 496,-215.5 555,-215.5 555,-196.5 496,-196.5"/>
<text text-anchor="middle" x="525.5" y="-203.5" font-family="Helvetica,sans-Serif" font-size="10.00" fill="#000000">Tokenizer</text>
</a>
</g>
</g>
<!-- Node23&#45;&gt;Node20 -->
<g id="edge19" class="edge">
<title>Node23&#45;&gt;Node20</title>
<path fill="none" stroke="#9a32cd" stroke-dasharray="5,2" d="M565.3506,-207.1173C604.846,-208.5386 667.014,-211.6212 720.5,-218 733.6188,-219.5646 748.0514,-222.0284 760.1921,-224.3175"/>
<polygon fill="#9a32cd" stroke="#9a32cd" points="565.4417,-203.6185 555.328,-206.775 565.2026,-210.6144 565.4417,-203.6185"/>
<text text-anchor="middle" x="676" y="-221" font-family="Helvetica,sans-Serif" font-size="10.00" fill="#000000"> tTok</text>
</g>
<!-- Node24&#45;&gt;Node23 -->
<g id="edge20" class="edge">
<title>Node24&#45;&gt;Node23</title>
<path fill="none" stroke="#9a32cd" stroke-dasharray="5,2" d="M283.124,-163.8102C340.0856,-173.7254 444.6147,-191.9205 495.747,-200.821"/>
<polygon fill="#9a32cd" stroke="#9a32cd" points="283.5173,-160.3261 273.0652,-162.0593 282.3168,-167.2224 283.5173,-160.3261"/>
<text text-anchor="middle" x="381.5" y="-202" font-family="Helvetica,sans-Serif" font-size="10.00" fill="#000000"> rest</text>
<text text-anchor="middle" x="381.5" y="-191" font-family="Helvetica,sans-Serif" font-size="10.00" fill="#000000">actual</text>
</g>
<!-- Node25 -->
<g id="node20" class="node">
<title>Node25</title>
<g id="a_node20"><a xlink:title=" ">
<polygon fill="#ffffff" stroke="#bfbfbf" points="477,-234.5 477,-253.5 574,-253.5 574,-234.5 477,-234.5"/>
<text text-anchor="middle" x="525.5" y="-241.5" font-family="Helvetica,sans-Serif" font-size="10.00" fill="#000000">GregorianCalendar</text>
</a>
</g>
</g>
<!-- Node25&#45;&gt;Node20 -->
<g id="edge23" class="edge">
<title>Node25&#45;&gt;Node20</title>
<path fill="none" stroke="#9a32cd" stroke-dasharray="5,2" d="M584.5625,-240.85C639.5188,-237.919 718.9839,-233.6809 760.4562,-231.469"/>
<polygon fill="#9a32cd" stroke="#9a32cd" points="584.0584,-237.3718 574.259,-241.3995 584.4313,-244.3619 584.0584,-237.3718"/>
<text text-anchor="middle" x="676" y="-241" font-family="Helvetica,sans-Serif" font-size="10.00" fill="#000000"> callerDateTimeCal</text>
</g>
<!-- Node26 -->
<g id="node21" class="node">
<title>Node26</title>
<g id="a_node21"><a xlink:title=" ">
<polygon fill="#ffffff" stroke="#bfbfbf" points="476.5,-158.5 476.5,-177.5 574.5,-177.5 574.5,-158.5 476.5,-158.5"/>
<text text-anchor="middle" x="525.5" y="-165.5" font-family="Helvetica,sans-Serif" font-size="10.00" fill="#000000">SimpleDateFormat</text>
</a>
</g>
</g>
<!-- Node26&#45;&gt;Node20 -->
<g id="edge24" class="edge">
<title>Node26&#45;&gt;Node20</title>
<path fill="none" stroke="#9a32cd" stroke-dasharray="5,2" d="M584.6341,-165.0959C624.1681,-165.0086 676.7537,-168.5239 720.5,-184 742.9604,-191.9458 765.0113,-209.2733 777.5174,-220.247"/>
<polygon fill="#9a32cd" stroke="#9a32cd" points="584.5858,-161.5961 574.621,-165.195 584.6552,-168.5957 584.5858,-161.5961"/>
<text text-anchor="middle" x="676" y="-198" font-family="Helvetica,sans-Serif" font-size="10.00" fill="#000000"> dateFormatter</text>
<text text-anchor="middle" x="676" y="-187" font-family="Helvetica,sans-Serif" font-size="10.00" fill="#000000">timeOfDayFormatter</text>
</g>
<!-- Node27 -->
<g id="node22" class="node">
<title>Node27</title>
<g id="a_node22"><a xlink:title=" ">
<polygon fill="#ffffff" stroke="#bfbfbf" points="507,-120.5 507,-139.5 544,-139.5 544,-120.5 507,-120.5"/>
<text text-anchor="middle" x="525.5" y="-127.5" font-family="Helvetica,sans-Serif" font-size="10.00" fill="#000000">Date</text>
</a>
</g>
</g>
<!-- Node27&#45;&gt;Node20 -->
<g id="edge26" class="edge">
<title>Node27&#45;&gt;Node20</title>
<path fill="none" stroke="#9a32cd" stroke-dasharray="5,2" d="M554.3387,-126.974C594.1494,-124.1362 667.0742,-123.8529 720.5,-152 750.6034,-167.8598 773.2039,-203.1434 782.8564,-220.2824"/>
<polygon fill="#9a32cd" stroke="#9a32cd" points="553.9452,-123.4945 544.2643,-127.7991 554.5166,-130.4711 553.9452,-123.4945"/>
<text text-anchor="middle" x="676" y="-155" font-family="Helvetica,sans-Serif" font-size="10.00" fill="#000000"> callerDateTimeDate</text>
</g>
<!-- Node28 -->
<g id="node23" class="node">
<title>Node28</title>
<g id="a_node23"><a xlink:href="interfacecom_1_1aworx_1_1lox_1_1detail_1_1textlogger_1_1ObjectConverter.html" target="_top" xlink:title=" ">
<polygon fill="#ffffff" stroke="#000000" points="744.5,-.5 744.5,-19.5 831.5,-19.5 831.5,-.5 744.5,-.5"/>
<text text-anchor="middle" x="788" y="-7.5" font-family="Helvetica,sans-Serif" font-size="10.00" fill="#000000">ObjectConverter</text>
</a>
</g>
</g>
<!-- Node28&#45;&gt;Node8 -->
<g id="edge27" class="edge">
<title>Node28&#45;&gt;Node8</title>
<path fill="none" stroke="#9a32cd" stroke-dasharray="5,2" d="M841.8708,-5.6747C867.8052,-6.5434 897.528,-12.3208 917.5,-31 948.782,-60.257 963.6411,-200.8454 967.1607,-239.2741"/>
<polygon fill="#9a32cd" stroke="#9a32cd" points="841.8108,-2.174 831.7748,-5.5695 841.7378,-9.1736 841.8108,-2.174"/>
<text text-anchor="middle" x="886.5" y="-34" font-family="Helvetica,sans-Serif" font-size="10.00" fill="#000000"> converter</text>
</g>
<!-- Node29 -->
<g id="node24" class="node">
<title>Node29</title>
<g id="a_node24"><a xlink:title=" ">
<polygon fill="#ffffff" stroke="#bfbfbf" points="1041,-201.5 1041,-220.5 1120,-220.5 1120,-201.5 1041,-201.5"/>
<text text-anchor="middle" x="1080.5" y="-208.5" font-family="Helvetica,sans-Serif" font-size="10.00" fill="#000000">BufferedWriter</text>
</a>
</g>
</g>
<!-- Node29&#45;&gt;Node6 -->
<g id="edge28" class="edge">
<title>Node29&#45;&gt;Node6</title>
<path fill="none" stroke="#9a32cd" stroke-dasharray="5,2" d="M1130.6835,-211C1145.3208,-211 1161.1232,-211 1175.0756,-211"/>
<polygon fill="#9a32cd" stroke="#9a32cd" points="1130.2743,-207.5001 1120.2743,-211 1130.2743,-214.5001 1130.2743,-207.5001"/>
<text text-anchor="middle" x="1149.5" y="-214" font-family="Helvetica,sans-Serif" font-size="10.00" fill="#000000"> bw</text>
</g>
<!-- Node30 -->
<g id="node25" class="node">
<title>Node30</title>
<g id="a_node25"><a xlink:title=" ">
<polygon fill="#ffffff" stroke="#bfbfbf" points="1051.5,-163.5 1051.5,-182.5 1109.5,-182.5 1109.5,-163.5 1051.5,-163.5"/>
<text text-anchor="middle" x="1080.5" y="-170.5" font-family="Helvetica,sans-Serif" font-size="10.00" fill="#000000">FileWriter</text>
</a>
</g>
</g>
<!-- Node30&#45;&gt;Node6 -->
<g id="edge29" class="edge">
<title>Node30&#45;&gt;Node6</title>
<path fill="none" stroke="#9a32cd" stroke-dasharray="5,2" d="M1119.6313,-184.0147C1139.2101,-189.5258 1162.6812,-196.1325 1181.4992,-201.4294"/>
<polygon fill="#9a32cd" stroke="#9a32cd" points="1120.3673,-180.5859 1109.793,-181.2454 1118.4706,-187.3241 1120.3673,-180.5859"/>
<text text-anchor="middle" x="1149.5" y="-198" font-family="Helvetica,sans-Serif" font-size="10.00" fill="#000000"> fw</text>
</g>
</g>
</svg>
