<?xml version="1.0" encoding="UTF-8" standalone="no"?>
<!DOCTYPE svg PUBLIC "-//W3C//DTD SVG 1.1//EN"
 "http://www.w3.org/Graphics/SVG/1.1/DTD/svg11.dtd">
<!-- Generated by graphviz version 2.40.1 (20161225.0304)
 -->
<!-- Title: EnvironmentPlugin Pages: 1 -->
<svg width="221pt" height="298pt"
 viewBox="0.00 0.00 221.00 298.00" xmlns="http://www.w3.org/2000/svg" xmlns:xlink="http://www.w3.org/1999/xlink">
<g id="graph0" class="graph" transform="scale(1 1) rotate(0) translate(4 294)">
<title>EnvironmentPlugin</title>
<polygon fill="#ffffff" stroke="transparent" points="-4,4 -4,-294 217,-294 217,4 -4,4"/>
<!-- Node2 -->
<g id="node1" class="node">
<title>Node2</title>
<polygon fill="#bfbfbf" stroke="#000000" points="0,-.5 0,-19.5 98,-19.5 98,-.5 0,-.5"/>
<text text-anchor="middle" x="49" y="-7.5" font-family="Helvetica,sans-Serif" font-size="10.00" fill="#000000">EnvironmentPlugin</text>
</g>
<!-- Node3 -->
<g id="node2" class="node">
<title>Node3</title>
<g id="a_node2"><a xlink:href="classcom_1_1aworx_1_1lib_1_1config_1_1ConfigurationPlugin.html" target="_top" xlink:title="ConfigurationPlugin">
<polygon fill="#ffffff" stroke="#000000" points="65.5,-57.5 65.5,-76.5 166.5,-76.5 166.5,-57.5 65.5,-57.5"/>
<text text-anchor="middle" x="116" y="-64.5" font-family="Helvetica,sans-Serif" font-size="10.00" fill="#000000">ConfigurationPlugin</text>
</a>
</g>
</g>
<!-- Node3&#45;&gt;Node2 -->
<g id="edge1" class="edge">
<title>Node3&#45;&gt;Node2</title>
<path fill="none" stroke="#191970" d="M96.9872,-50.8249C85.1065,-40.7175 70.2148,-28.0484 60.1978,-19.5265"/>
<polygon fill="#191970" stroke="#191970" points="94.7498,-53.5167 104.6344,-57.3307 99.2857,-48.1851 94.7498,-53.5167"/>
</g>
<!-- Node4 -->
<g id="node3" class="node">
<title>Node4</title>
<g id="a_node3"><a xlink:href="classcom_1_1aworx_1_1lib_1_1config_1_1XTernalizer.html" target="_top" xlink:title="XTernalizer">
<polygon fill="#ffffff" stroke="#000000" points="83.5,-135.5 83.5,-154.5 148.5,-154.5 148.5,-135.5 83.5,-135.5"/>
<text text-anchor="middle" x="116" y="-142.5" font-family="Helvetica,sans-Serif" font-size="10.00" fill="#000000">XTernalizer</text>
</a>
</g>
</g>
<!-- Node4&#45;&gt;Node3 -->
<g id="edge2" class="edge">
<title>Node4&#45;&gt;Node3</title>
<path fill="none" stroke="#9a32cd" stroke-dasharray="5,2" d="M116,-125.2866C116,-109.7395 116,-88.7276 116,-76.6426"/>
<polygon fill="#9a32cd" stroke="#9a32cd" points="112.5001,-125.4356 116,-135.4357 119.5001,-125.4357 112.5001,-125.4356"/>
<text text-anchor="middle" x="164.5" y="-109" font-family="Helvetica,sans-Serif" font-size="10.00" fill="#000000"> stringConverter</text>
<text text-anchor="middle" x="164.5" y="-98" font-family="Helvetica,sans-Serif" font-size="10.00" fill="#000000">defaultStringConverter</text>
</g>
<!-- Node5 -->
<g id="node4" class="node">
<title>Node5</title>
<g id="a_node4"><a xlink:href="classcom_1_1aworx_1_1lib_1_1strings_1_1AString.html" target="_top" xlink:title="AString">
<polygon fill="#ffffff" stroke="#000000" points="30.5,-213.5 30.5,-232.5 79.5,-232.5 79.5,-213.5 30.5,-213.5"/>
<text text-anchor="middle" x="55" y="-220.5" font-family="Helvetica,sans-Serif" font-size="10.00" fill="#000000">AString</text>
</a>
</g>
</g>
<!-- Node5&#45;&gt;Node2 -->
<g id="edge7" class="edge">
<title>Node5&#45;&gt;Node2</title>
<path fill="none" stroke="#9a32cd" stroke-dasharray="5,2" d="M54.4419,-203.1858C53.1902,-158.7533 50.1969,-52.4905 49.275,-19.7627"/>
<polygon fill="#9a32cd" stroke="#9a32cd" points="50.9463,-203.3969 54.7266,-213.2943 57.9435,-203.1997 50.9463,-203.3969"/>
<text text-anchor="middle" x="69" y="-103.5" font-family="Helvetica,sans-Serif" font-size="10.00" fill="#000000"> tmpAS</text>
</g>
<!-- Node5&#45;&gt;Node4 -->
<g id="edge3" class="edge">
<title>Node5&#45;&gt;Node4</title>
<path fill="none" stroke="#9a32cd" stroke-dasharray="5,2" d="M63.6761,-203.8777C68.595,-194.1106 75.3026,-182.3486 83,-173 88.6356,-166.1556 96.0872,-159.6719 102.4832,-154.6705"/>
<polygon fill="#9a32cd" stroke="#9a32cd" points="60.3983,-202.6188 59.2311,-213.1491 66.7103,-205.645 60.3983,-202.6188"/>
<text text-anchor="middle" x="100" y="-181.5" font-family="Helvetica,sans-Serif" font-size="10.00" fill="#000000"> tmpAS</text>
</g>
<!-- Node6 -->
<g id="node5" class="node">
<title>Node6</title>
<polygon fill="#ffffff" stroke="#bfbfbf" points="50,-270.5 50,-289.5 130,-289.5 130,-270.5 50,-270.5"/>
<text text-anchor="middle" x="90" y="-277.5" font-family="Helvetica,sans-Serif" font-size="10.00" fill="#000000">CharSequence</text>
</g>
<!-- Node6&#45;&gt;Node5 -->
<g id="edge4" class="edge">
<title>Node6&#45;&gt;Node5</title>
<path fill="none" stroke="#191970" d="M78.7946,-261.7512C72.8259,-252.0308 65.7301,-240.4748 60.8496,-232.5265"/>
<polygon fill="#191970" stroke="#191970" points="75.8474,-263.6404 84.0627,-270.3307 81.8127,-259.9776 75.8474,-263.6404"/>
</g>
<!-- Node7 -->
<g id="node6" class="node">
<title>Node7</title>
<g id="a_node6"><a xlink:href="classcom_1_1aworx_1_1lib_1_1strings_1_1Substring.html" target="_top" xlink:title="Substring">
<polygon fill="#ffffff" stroke="#000000" points="98,-213.5 98,-232.5 156,-232.5 156,-213.5 98,-213.5"/>
<text text-anchor="middle" x="127" y="-220.5" font-family="Helvetica,sans-Serif" font-size="10.00" fill="#000000">Substring</text>
</a>
</g>
</g>
<!-- Node6&#45;&gt;Node7 -->
<g id="edge6" class="edge">
<title>Node6&#45;&gt;Node7</title>
<path fill="none" stroke="#191970" d="M101.8457,-261.7512C108.1554,-252.0308 115.6567,-240.4748 120.8161,-232.5265"/>
<polygon fill="#191970" stroke="#191970" points="98.7856,-260.0373 96.2765,-270.3307 104.657,-263.8486 98.7856,-260.0373"/>
</g>
<!-- Node7&#45;&gt;Node4 -->
<g id="edge5" class="edge">
<title>Node7&#45;&gt;Node4</title>
<path fill="none" stroke="#9a32cd" stroke-dasharray="5,2" d="M124.2199,-203.2866C122.0274,-187.7395 119.0642,-166.7276 117.3598,-154.6426"/>
<polygon fill="#9a32cd" stroke="#9a32cd" points="120.789,-204.0224 125.6512,-213.4357 127.7204,-203.0449 120.789,-204.0224"/>
<text text-anchor="middle" x="147" y="-187" font-family="Helvetica,sans-Serif" font-size="10.00" fill="#000000"> tmpSubs2</text>
<text text-anchor="middle" x="147" y="-176" font-family="Helvetica,sans-Serif" font-size="10.00" fill="#000000">tmpSubs</text>
</g>
</g>
</svg>
