<?xml version="1.0" encoding="UTF-8" standalone="no"?>
<!DOCTYPE svg PUBLIC "-//W3C//DTD SVG 1.1//EN"
 "http://www.w3.org/Graphics/SVG/1.1/DTD/svg11.dtd">
<!-- Generated by graphviz version 2.38.0 (20140413.2041)
 -->
<!-- Title: ALoxReportWriter Pages: 1 -->
<svg width="953pt" height="819pt"
 viewBox="0.00 0.00 953.00 819.15" xmlns="http://www.w3.org/2000/svg" xmlns:xlink="http://www.w3.org/1999/xlink">
<g id="graph0" class="graph" transform="scale(1 1) rotate(0) translate(4 815.15)">
<title>ALoxReportWriter</title>
<polygon fill="white" stroke="none" points="-4,4 -4,-815.15 949,-815.15 949,4 -4,4"/>
<!-- Node1 -->
<g id="node1" class="node"><title>Node1</title>
<polygon fill="#bfbfbf" stroke="black" points="850,-557 850,-576 945,-576 945,-557 850,-557"/>
<text text-anchor="middle" x="897.5" y="-564" font-family="Helvetica,sans-Serif" font-size="10.00">ALoxReportWriter</text>
</g>
<!-- Node2 -->
<g id="node2" class="node"><title>Node2</title>
<g id="a_node2"><a xlink:href="interfacecom_1_1aworx_1_1lib_1_1ReportWriter.html" target="_top" xlink:title="ReportWriter">
<polygon fill="white" stroke="black" points="726,-573 726,-592 798,-592 798,-573 726,-573"/>
<text text-anchor="middle" x="762" y="-580" font-family="Helvetica,sans-Serif" font-size="10.00">ReportWriter</text>
</a>
</g>
</g>
<!-- Node2&#45;&gt;Node1 -->
<g id="edge1" class="edge"><title>Node2&#45;&gt;Node1</title>
<path fill="none" stroke="midnightblue" d="M808.017,-577.105C821.406,-575.5 836.104,-573.738 849.609,-572.12"/>
<polygon fill="midnightblue" stroke="midnightblue" points="807.588,-573.631 798.076,-578.296 808.421,-580.581 807.588,-573.631"/>
</g>
<!-- Node3 -->
<g id="node3" class="node"><title>Node3</title>
<g id="a_node3"><a xlink:href="classcom_1_1aworx_1_1lox_1_1Lox.html" target="_top" xlink:title="Lox">
<polygon fill="white" stroke="black" points="746,-535 746,-554 778,-554 778,-535 746,-535"/>
<text text-anchor="middle" x="762" y="-542" font-family="Helvetica,sans-Serif" font-size="10.00">Lox</text>
</a>
</g>
</g>
<!-- Node3&#45;&gt;Node1 -->
<g id="edge2" class="edge"><title>Node3&#45;&gt;Node1</title>
<path fill="none" stroke="#9a32cd" stroke-dasharray="5,2" d="M787.964,-548.614C805.319,-551.474 828.978,-555.373 849.777,-558.8"/>
<polygon fill="#9a32cd" stroke="#9a32cd" points="788.491,-545.154 778.055,-546.981 787.352,-552.06 788.491,-545.154"/>
<text text-anchor="middle" x="824" y="-558.5" font-family="Helvetica,sans-Serif" font-size="10.00"> lox</text>
</g>
<!-- Node4 -->
<g id="node4" class="node"><title>Node4</title>
<g id="a_node4"><a xlink:href="classcom_1_1aworx_1_1lib_1_1threads_1_1ThreadLock.html" target="_top" xlink:title="ThreadLock">
<polygon fill="white" stroke="black" points="477.5,-779 477.5,-798 545.5,-798 545.5,-779 477.5,-779"/>
<text text-anchor="middle" x="511.5" y="-786" font-family="Helvetica,sans-Serif" font-size="10.00">ThreadLock</text>
</a>
</g>
</g>
<!-- Node4&#45;&gt;Node3 -->
<g id="edge3" class="edge"><title>Node4&#45;&gt;Node3</title>
<path fill="none" stroke="midnightblue" d="M550.957,-800.711C595.044,-812.052 666.545,-821.88 708,-782.5 743.403,-748.869 699.332,-604.406 726,-563.5 730.531,-556.55 738.505,-551.941 745.698,-549.005"/>
<polygon fill="midnightblue" stroke="midnightblue" points="551.749,-797.299 541.181,-798.056 549.914,-804.055 551.749,-797.299"/>
</g>
<!-- Node4&#45;&gt;Node3 -->
<g id="edge11" class="edge"><title>Node4&#45;&gt;Node3</title>
<path fill="none" stroke="#9a32cd" stroke-dasharray="5,2" d="M555.692,-780.321C612.484,-769.472 705.429,-751.356 708,-748.5 735.637,-717.803 703.184,-597.932 726,-563.5 730.583,-556.584 738.56,-551.977 745.742,-549.034"/>
<polygon fill="#9a32cd" stroke="#9a32cd" points="554.706,-776.946 545.538,-782.256 556.017,-783.822 554.706,-776.946"/>
<text text-anchor="middle" x="662" y="-770.5" font-family="Helvetica,sans-Serif" font-size="10.00"> logBufLock</text>
</g>
<!-- Node5 -->
<g id="node5" class="node"><title>Node5</title>
<g id="a_node5"><a xlink:href="enumcom_1_1aworx_1_1lib_1_1enums_1_1LockMode.html" target="_top" xlink:title="LockMode">
<polygon fill="white" stroke="black" points="163.5,-780 163.5,-799 225.5,-799 225.5,-780 163.5,-780"/>
<text text-anchor="middle" x="194.5" y="-787" font-family="Helvetica,sans-Serif" font-size="10.00">LockMode</text>
</a>
</g>
</g>
<!-- Node5&#45;&gt;Node4 -->
<g id="edge4" class="edge"><title>Node5&#45;&gt;Node4</title>
<path fill="none" stroke="#9a32cd" stroke-dasharray="5,2" d="M236.023,-789.371C298.917,-789.172 418.837,-788.791 477.088,-788.606"/>
<polygon fill="#9a32cd" stroke="#9a32cd" points="235.692,-785.872 225.704,-789.404 235.715,-792.872 235.692,-785.872"/>
<text text-anchor="middle" x="348" y="-791.5" font-family="Helvetica,sans-Serif" font-size="10.00"> lockMode</text>
</g>
<!-- Node6 -->
<g id="node6" class="node"><title>Node6</title>
<g id="a_node6"><a xlink:href="classcom_1_1aworx_1_1lib_1_1time_1_1Ticks.html" target="_top" xlink:title="Ticks">
<polygon fill="white" stroke="black" points="174,-702 174,-721 215,-721 215,-702 174,-702"/>
<text text-anchor="middle" x="194.5" y="-709" font-family="Helvetica,sans-Serif" font-size="10.00">Ticks</text>
</a>
</g>
</g>
<!-- Node6&#45;&gt;Node4 -->
<g id="edge5" class="edge"><title>Node6&#45;&gt;Node4</title>
<path fill="none" stroke="#9a32cd" stroke-dasharray="5,2" d="M225.07,-718.981C268.747,-730 353.103,-751.163 425,-768.5 442.191,-772.645 461.358,-777.14 477.18,-780.817"/>
<polygon fill="#9a32cd" stroke="#9a32cd" points="225.678,-715.525 215.125,-716.47 223.964,-722.312 225.678,-715.525"/>
<text text-anchor="middle" x="348" y="-766.5" font-family="Helvetica,sans-Serif" font-size="10.00"> waitTime</text>
</g>
<!-- Node6&#45;&gt;Node6 -->
<g id="edge6" class="edge"><title>Node6&#45;&gt;Node6</title>
<path fill="none" stroke="#9a32cd" stroke-dasharray="5,2" d="M177.093,-730.9C178.256,-735.815 184.058,-739.5 194.5,-739.5 211.207,-739.5 216.036,-730.065 208.988,-721.257"/>
<polygon fill="#9a32cd" stroke="#9a32cd" points="180.465,-731.842 180.012,-721.257 173.765,-729.814 180.465,-731.842"/>
<text text-anchor="middle" x="194.5" y="-753.5" font-family="Helvetica,sans-Serif" font-size="10.00"> tempTicks</text>
<text text-anchor="middle" x="194.5" y="-742.5" font-family="Helvetica,sans-Serif" font-size="10.00">creationTimeTicks</text>
</g>
<!-- Node16 -->
<g id="node16" class="node"><title>Node16</title>
<g id="a_node16"><a xlink:href="classcom_1_1aworx_1_1lox_1_1core_1_1ScopeInfo.html" target="_top" xlink:title="ScopeInfo">
<polygon fill="white" stroke="black" points="481,-702 481,-721 542,-721 542,-702 481,-702"/>
<text text-anchor="middle" x="511.5" y="-709" font-family="Helvetica,sans-Serif" font-size="10.00">ScopeInfo</text>
</a>
</g>
</g>
<!-- Node6&#45;&gt;Node16 -->
<g id="edge20" class="edge"><title>Node6&#45;&gt;Node16</title>
<path fill="none" stroke="#9a32cd" stroke-dasharray="5,2" d="M225.543,-711.5C285.741,-711.5 420.506,-711.5 480.593,-711.5"/>
<polygon fill="#9a32cd" stroke="#9a32cd" points="225.205,-708 215.205,-711.5 225.205,-715 225.205,-708"/>
<text text-anchor="middle" x="348" y="-714.5" font-family="Helvetica,sans-Serif" font-size="10.00"> timeStamp</text>
</g>
<!-- Node7 -->
<g id="node7" class="node"><title>Node7</title>
<g id="a_node7"><a xlink:href="enumcom_1_1aworx_1_1lib_1_1enums_1_1Case.html" target="_top" xlink:title="Case">
<polygon fill="white" stroke="black" points="491.5,-740 491.5,-759 531.5,-759 531.5,-740 491.5,-740"/>
<text text-anchor="middle" x="511.5" y="-747" font-family="Helvetica,sans-Serif" font-size="10.00">Case</text>
</a>
</g>
</g>
<!-- Node7&#45;&gt;Node3 -->
<g id="edge7" class="edge"><title>Node7&#45;&gt;Node3</title>
<path fill="none" stroke="#9a32cd" stroke-dasharray="5,2" d="M541.791,-746.185C593.524,-740.054 696.708,-726.473 708,-714.5 754.372,-665.332 688.059,-619.432 726,-563.5 730.658,-556.634 738.639,-552.03 745.805,-549.076"/>
<polygon fill="#9a32cd" stroke="#9a32cd" points="541.11,-742.741 531.584,-747.378 541.922,-749.694 541.11,-742.741"/>
<text text-anchor="middle" x="662" y="-738.5" font-family="Helvetica,sans-Serif" font-size="10.00"> domainSensitivity</text>
</g>
<!-- Node8 -->
<g id="node8" class="node"><title>Node8</title>
<polygon fill="white" stroke="#bfbfbf" points="130,-413 130,-432 259,-432 259,-413 130,-413"/>
<text text-anchor="middle" x="194.5" y="-420" font-family="Helvetica,sans-Serif" font-size="10.00">HashMap&lt; Long, String &gt;</text>
</g>
<!-- Node8&#45;&gt;Node3 -->
<g id="edge8" class="edge"><title>Node8&#45;&gt;Node3</title>
<path fill="none" stroke="#9a32cd" stroke-dasharray="5,2" d="M220.536,-408.115C238.841,-398.461 264.625,-386.609 289,-381.5 318.691,-375.276 561.069,-376.641 598,-383.5 649.297,-393.027 670.033,-388.714 708,-424.5 741.478,-456.055 755.122,-512.527 759.389,-534.947"/>
<polygon fill="#9a32cd" stroke="#9a32cd" points="218.812,-405.068 211.694,-412.916 222.152,-411.22 218.812,-405.068"/>
<text text-anchor="middle" x="511.5" y="-386.5" font-family="Helvetica,sans-Serif" font-size="10.00"> threadDictionary</text>
</g>
<!-- Node8&#45;&gt;Node16 -->
<g id="edge18" class="edge"><title>Node8&#45;&gt;Node16</title>
<path fill="none" stroke="#9a32cd" stroke-dasharray="5,2" d="M221.135,-437.142C266.402,-464.424 360.131,-527.582 407,-607.5 426.535,-640.81 397.831,-665.059 425,-692.5 439.443,-707.088 462.43,-711.574 480.933,-712.555"/>
<polygon fill="#9a32cd" stroke="#9a32cd" points="222.887,-434.112 212.5,-432.021 219.316,-440.133 222.887,-434.112"/>
<text text-anchor="middle" x="348" y="-610.5" font-family="Helvetica,sans-Serif" font-size="10.00"> threadDictionary</text>
</g>
<!-- Node9 -->
<g id="node9" class="node"><title>Node9</title>
<g id="a_node9"><a xlink:href="classcom_1_1aworx_1_1lox_1_1core_1_1ScopeStore.html" target="_top" xlink:title="ScopeStore\&lt; Object \&gt;">
<polygon fill="white" stroke="black" points="454.5,-664 454.5,-683 568.5,-683 568.5,-664 454.5,-664"/>
<text text-anchor="middle" x="511.5" y="-671" font-family="Helvetica,sans-Serif" font-size="10.00">ScopeStore&lt; Object &gt;</text>
</a>
</g>
</g>
<!-- Node9&#45;&gt;Node3 -->
<g id="edge9" class="edge"><title>Node9&#45;&gt;Node3</title>
<path fill="none" stroke="#9a32cd" stroke-dasharray="5,2" d="M578.888,-672.845C621.13,-668.895 674.078,-656.858 708,-623.5 727.851,-603.979 708.441,-585.105 726,-563.5 731.146,-557.169 738.984,-552.637 745.939,-549.592"/>
<polygon fill="#9a32cd" stroke="#9a32cd" points="578.363,-669.376 568.675,-673.664 578.923,-676.353 578.363,-669.376"/>
<text text-anchor="middle" x="662" y="-669.5" font-family="Helvetica,sans-Serif" font-size="10.00"> scopePrefixes</text>
</g>
<!-- Node10 -->
<g id="node10" class="node"><title>Node10</title>
<polygon fill="white" stroke="#bfbfbf" points="436.5,-614.5 436.5,-644.5 586.5,-644.5 586.5,-614.5 436.5,-614.5"/>
<text text-anchor="start" x="444.5" y="-632.5" font-family="Helvetica,sans-Serif" font-size="10.00">ArrayList&lt; com.aworx.lox.</text>
<text text-anchor="middle" x="511.5" y="-621.5" font-family="Helvetica,sans-Serif" font-size="10.00">Lox.DomainSubstitutionRule &gt;</text>
</g>
<!-- Node10&#45;&gt;Node3 -->
<g id="edge10" class="edge"><title>Node10&#45;&gt;Node3</title>
<path fill="none" stroke="#9a32cd" stroke-dasharray="5,2" d="M596.526,-613.732C631.973,-605.315 673.041,-593.177 708,-576.5 716.907,-572.251 717.646,-568.754 726,-563.5 732.321,-559.525 739.538,-555.522 745.77,-552.222"/>
<polygon fill="#9a32cd" stroke="#9a32cd" points="595.641,-610.344 586.687,-616.008 597.218,-617.164 595.641,-610.344"/>
<text text-anchor="middle" x="662" y="-611.5" font-family="Helvetica,sans-Serif" font-size="10.00"> domainSubstitutions</text>
</g>
<!-- Node11 -->
<g id="node11" class="node"><title>Node11</title>
<g id="a_node11"><a xlink:href="classcom_1_1aworx_1_1lox_1_1core_1_1ScopeStore.html" target="_top" xlink:title="ScopeStore\&lt; HashMap\l\&lt; com.aworx.lib.strings.AString,\l int[]\&gt; \&gt;">
<polygon fill="white" stroke="black" points="433,-554 433,-595 590,-595 590,-554 433,-554"/>
<text text-anchor="start" x="441" y="-583" font-family="Helvetica,sans-Serif" font-size="10.00">ScopeStore&lt; HashMap</text>
<text text-anchor="start" x="441" y="-572" font-family="Helvetica,sans-Serif" font-size="10.00">&lt; com.aworx.lib.strings.AString,</text>
<text text-anchor="middle" x="511.5" y="-561" font-family="Helvetica,sans-Serif" font-size="10.00"> int[]&gt; &gt;</text>
</a>
</g>
</g>
<!-- Node11&#45;&gt;Node3 -->
<g id="edge12" class="edge"><title>Node11&#45;&gt;Node3</title>
<path fill="none" stroke="#9a32cd" stroke-dasharray="5,2" d="M600.341,-563.895C653.985,-557.419 717.56,-549.744 745.975,-546.314"/>
<polygon fill="#9a32cd" stroke="#9a32cd" points="599.613,-560.458 590.105,-565.131 600.452,-567.407 599.613,-560.458"/>
<text text-anchor="middle" x="662" y="-564.5" font-family="Helvetica,sans-Serif" font-size="10.00"> scopeLogOnce</text>
</g>
<!-- Node12 -->
<g id="node12" class="node"><title>Node12</title>
<g id="a_node12"><a xlink:href="classcom_1_1aworx_1_1lox_1_1core_1_1ScopeStore.html" target="_top" xlink:title="ScopeStore\&lt; HashMap\l\&lt; com.aworx.lib.strings.AString,\l com.aworx.lox.LogData \&gt; \&gt;">
<polygon fill="white" stroke="black" points="433,-494 433,-535 590,-535 590,-494 433,-494"/>
<text text-anchor="start" x="441" y="-523" font-family="Helvetica,sans-Serif" font-size="10.00">ScopeStore&lt; HashMap</text>
<text text-anchor="start" x="441" y="-512" font-family="Helvetica,sans-Serif" font-size="10.00">&lt; com.aworx.lib.strings.AString,</text>
<text text-anchor="middle" x="511.5" y="-501" font-family="Helvetica,sans-Serif" font-size="10.00"> com.aworx.lox.LogData &gt; &gt;</text>
</a>
</g>
</g>
<!-- Node12&#45;&gt;Node3 -->
<g id="edge13" class="edge"><title>Node12&#45;&gt;Node3</title>
<path fill="none" stroke="#9a32cd" stroke-dasharray="5,2" d="M600.402,-523.678C634.089,-527.382 672.862,-531.873 708,-536.5 720.732,-538.177 735.138,-540.37 745.714,-542.036"/>
<polygon fill="#9a32cd" stroke="#9a32cd" points="600.441,-520.161 590.12,-522.554 599.68,-527.12 600.441,-520.161"/>
<text text-anchor="middle" x="662" y="-539.5" font-family="Helvetica,sans-Serif" font-size="10.00"> scopeLogData</text>
</g>
<!-- Node13 -->
<g id="node13" class="node"><title>Node13</title>
<g id="a_node13"><a xlink:href="classcom_1_1aworx_1_1lox_1_1core_1_1ScopeStore.html" target="_top" xlink:title="ScopeStore\&lt; com.aworx.lib.strings.\lAString \&gt;">
<polygon fill="white" stroke="black" points="425,-444.5 425,-474.5 598,-474.5 598,-444.5 425,-444.5"/>
<text text-anchor="start" x="433" y="-462.5" font-family="Helvetica,sans-Serif" font-size="10.00">ScopeStore&lt; com.aworx.lib.strings.</text>
<text text-anchor="middle" x="511.5" y="-451.5" font-family="Helvetica,sans-Serif" font-size="10.00">AString &gt;</text>
</a>
</g>
</g>
<!-- Node13&#45;&gt;Node3 -->
<g id="edge14" class="edge"><title>Node13&#45;&gt;Node3</title>
<path fill="none" stroke="#9a32cd" stroke-dasharray="5,2" d="M599.981,-476.9C634.419,-485.25 673.823,-496.709 708,-511.5 722.524,-517.785 737.72,-527.635 748.098,-534.939"/>
<polygon fill="#9a32cd" stroke="#9a32cd" points="600.475,-473.42 589.937,-474.518 598.86,-480.231 600.475,-473.42"/>
<text text-anchor="middle" x="662" y="-514.5" font-family="Helvetica,sans-Serif" font-size="10.00"> scopeDomains</text>
</g>
<!-- Node14 -->
<g id="node14" class="node"><title>Node14</title>
<g id="a_node14"><a xlink:href="classcom_1_1aworx_1_1lib_1_1strings_1_1AString.html" target="_top" xlink:title="AString">
<polygon fill="white" stroke="black" points="170,-205 170,-224 219,-224 219,-205 170,-205"/>
<text text-anchor="middle" x="194.5" y="-212" font-family="Helvetica,sans-Serif" font-size="10.00">AString</text>
</a>
</g>
</g>
<!-- Node14&#45;&gt;Node3 -->
<g id="edge15" class="edge"><title>Node14&#45;&gt;Node3</title>
<path fill="none" stroke="#9a32cd" stroke-dasharray="5,2" d="M229.364,-216.945C314.112,-223.487 533.199,-243.127 598,-275.5 659.291,-306.12 671.822,-325.317 708,-383.5 740.165,-435.229 754.966,-508.568 759.453,-534.748"/>
<polygon fill="#9a32cd" stroke="#9a32cd" points="229.486,-213.444 219.249,-216.178 228.956,-220.424 229.486,-213.444"/>
<text text-anchor="middle" x="511.5" y="-366.5" font-family="Helvetica,sans-Serif" font-size="10.00"> tmpConfigValue</text>
<text text-anchor="middle" x="511.5" y="-355.5" font-family="Helvetica,sans-Serif" font-size="10.00">tmpAS</text>
<text text-anchor="middle" x="511.5" y="-344.5" font-family="Helvetica,sans-Serif" font-size="10.00">logBuf</text>
<text text-anchor="middle" x="511.5" y="-333.5" font-family="Helvetica,sans-Serif" font-size="10.00">intMsg</text>
<text text-anchor="middle" x="511.5" y="-322.5" font-family="Helvetica,sans-Serif" font-size="10.00">resDomainInternal</text>
<text text-anchor="middle" x="511.5" y="-311.5" font-family="Helvetica,sans-Serif" font-size="10.00">resDomain</text>
<text text-anchor="middle" x="511.5" y="-300.5" font-family="Helvetica,sans-Serif" font-size="10.00">tmpSubstitutionPath</text>
<text text-anchor="start" x="467" y="-289.5" font-family="Helvetica,sans-Serif" font-size="10.00">tmpSubstitutionPath</text>
<text text-anchor="middle" x="511.5" y="-278.5" font-family="Helvetica,sans-Serif" font-size="10.00">InternalDomains</text>
</g>
<!-- Node14&#45;&gt;Node16 -->
<g id="edge19" class="edge"><title>Node14&#45;&gt;Node16</title>
<path fill="none" stroke="#9a32cd" stroke-dasharray="5,2" d="M219.33,-229.792C265.29,-260.813 365.314,-336.098 407,-428.5 431.181,-482.101 386.666,-647.91 425,-692.5 438.481,-708.182 461.769,-712.564 480.639,-713.226"/>
<polygon fill="#9a32cd" stroke="#9a32cd" points="221.159,-226.805 210.892,-224.186 217.285,-232.635 221.159,-226.805"/>
<text text-anchor="middle" x="348" y="-475.5" font-family="Helvetica,sans-Serif" font-size="10.00"> className</text>
<text text-anchor="middle" x="348" y="-464.5" font-family="Helvetica,sans-Serif" font-size="10.00">threadName</text>
<text text-anchor="middle" x="348" y="-453.5" font-family="Helvetica,sans-Serif" font-size="10.00">methodName</text>
<text text-anchor="middle" x="348" y="-442.5" font-family="Helvetica,sans-Serif" font-size="10.00">packageName</text>
<text text-anchor="middle" x="348" y="-431.5" font-family="Helvetica,sans-Serif" font-size="10.00">fileName</text>
</g>
<!-- Node18 -->
<g id="node18" class="node"><title>Node18</title>
<g id="a_node18"><a xlink:href="classcom_1_1aworx_1_1lox_1_1core_1_1Domain.html" target="_top" xlink:title="Domain">
<polygon fill="white" stroke="black" points="486.5,-130 486.5,-149 536.5,-149 536.5,-130 486.5,-130"/>
<text text-anchor="middle" x="511.5" y="-137" font-family="Helvetica,sans-Serif" font-size="10.00">Domain</text>
</a>
</g>
</g>
<!-- Node14&#45;&gt;Node18 -->
<g id="edge24" class="edge"><title>Node14&#45;&gt;Node18</title>
<path fill="none" stroke="#9a32cd" stroke-dasharray="5,2" d="M228.987,-203.149C246.698,-197.391 268.885,-190.564 289,-185.5 340.815,-172.456 354.694,-173.407 407,-162.5 434.209,-156.826 465.329,-149.843 486.28,-145.07"/>
<polygon fill="#9a32cd" stroke="#9a32cd" points="227.53,-199.943 219.126,-206.394 229.719,-206.592 227.53,-199.943"/>
<text text-anchor="middle" x="348" y="-210.5" font-family="Helvetica,sans-Serif" font-size="10.00"> fullPath</text>
<text text-anchor="middle" x="348" y="-199.5" font-family="Helvetica,sans-Serif" font-size="10.00">tAString</text>
<text text-anchor="middle" x="348" y="-188.5" font-family="Helvetica,sans-Serif" font-size="10.00">name</text>
</g>
<!-- Node15 -->
<g id="node15" class="node"><title>Node15</title>
<polygon fill="white" stroke="#bfbfbf" points="0,-184 0,-203 81,-203 81,-184 0,-184"/>
<text text-anchor="middle" x="40.5" y="-191" font-family="Helvetica,sans-Serif" font-size="10.00">CharSequence</text>
</g>
<!-- Node15&#45;&gt;Node14 -->
<g id="edge16" class="edge"><title>Node15&#45;&gt;Node14</title>
<path fill="none" stroke="midnightblue" d="M91.2602,-200.375C117.653,-204.021 148.859,-208.333 169.792,-211.225"/>
<polygon fill="midnightblue" stroke="midnightblue" points="91.4244,-196.864 81.0394,-198.963 90.4663,-203.798 91.4244,-196.864"/>
</g>
<!-- Node19 -->
<g id="node19" class="node"><title>Node19</title>
<g id="a_node19"><a xlink:href="classcom_1_1aworx_1_1lib_1_1strings_1_1Substring.html" target="_top" xlink:title="Substring">
<polygon fill="white" stroke="black" points="165.5,-158 165.5,-177 223.5,-177 223.5,-158 165.5,-158"/>
<text text-anchor="middle" x="194.5" y="-165" font-family="Helvetica,sans-Serif" font-size="10.00">Substring</text>
</a>
</g>
</g>
<!-- Node15&#45;&gt;Node19 -->
<g id="edge26" class="edge"><title>Node15&#45;&gt;Node19</title>
<path fill="none" stroke="midnightblue" d="M90.932,-185.045C115.528,-180.837 144.372,-175.903 165.197,-172.341"/>
<polygon fill="midnightblue" stroke="midnightblue" points="90.3061,-181.601 81.0394,-186.737 91.4864,-188.5 90.3061,-181.601"/>
</g>
<!-- Node16&#45;&gt;Node3 -->
<g id="edge17" class="edge"><title>Node16&#45;&gt;Node3</title>
<path fill="none" stroke="#9a32cd" stroke-dasharray="5,2" d="M552.344,-707.694C606.306,-702.164 697.176,-691.374 708,-680.5 745.116,-643.212 695.729,-606.531 726,-563.5 730.774,-556.714 738.762,-552.115 745.903,-549.144"/>
<polygon fill="#9a32cd" stroke="#9a32cd" points="551.677,-704.243 542.078,-708.728 552.379,-711.208 551.677,-704.243"/>
<text text-anchor="middle" x="662" y="-702.5" font-family="Helvetica,sans-Serif" font-size="10.00"> scopeInfo</text>
</g>
<!-- Node17 -->
<g id="node17" class="node"><title>Node17</title>
<polygon fill="white" stroke="#bfbfbf" points="150,-546 150,-565 239,-565 239,-546 150,-546"/>
<text text-anchor="middle" x="194.5" y="-553" font-family="Helvetica,sans-Serif" font-size="10.00">Vector&lt; String &gt;</text>
</g>
<!-- Node17&#45;&gt;Node3 -->
<g id="edge22" class="edge"><title>Node17&#45;&gt;Node3</title>
<path fill="none" stroke="#9a32cd" stroke-dasharray="5,2" d="M249.303,-553.105C297.152,-548.071 365.749,-533.251 407,-490.5 428.41,-468.312 400.532,-442.262 425,-423.5 486.016,-376.713 523.168,-405.835 598,-423.5 651.197,-436.058 665.462,-444.176 708,-478.5 728.586,-495.111 746.425,-520.992 755.203,-534.895"/>
<polygon fill="#9a32cd" stroke="#9a32cd" points="248.752,-549.641 239.124,-554.062 249.408,-556.61 248.752,-549.641"/>
<text text-anchor="middle" x="511.5" y="-426.5" font-family="Helvetica,sans-Serif" font-size="10.00"> omittablePackagePrefixes</text>
</g>
<!-- Node17&#45;&gt;Node16 -->
<g id="edge21" class="edge"><title>Node17&#45;&gt;Node16</title>
<path fill="none" stroke="#9a32cd" stroke-dasharray="5,2" d="M216.622,-571.308C255.688,-599.792 342.766,-659.805 425,-692.5 442.945,-699.635 464.128,-704.366 480.919,-707.324"/>
<polygon fill="#9a32cd" stroke="#9a32cd" points="218.308,-568.203 208.179,-565.095 214.159,-573.841 218.308,-568.203"/>
<text text-anchor="middle" x="348" y="-686.5" font-family="Helvetica,sans-Serif" font-size="10.00"> omittablePackagePrefixes</text>
</g>
<!-- Node18&#45;&gt;Node3 -->
<g id="edge23" class="edge"><title>Node18&#45;&gt;Node3</title>
<path fill="none" stroke="#9a32cd" stroke-dasharray="5,2" d="M546.892,-139.037C591.198,-140.45 667.337,-150.055 708,-196.5 753.893,-248.918 760.079,-484.005 760.884,-534.803"/>
<polygon fill="#9a32cd" stroke="#9a32cd" points="546.685,-135.532 536.619,-138.838 546.55,-142.531 546.685,-135.532"/>
<text text-anchor="middle" x="662" y="-210.5" font-family="Helvetica,sans-Serif" font-size="10.00"> domains</text>
<text text-anchor="middle" x="662" y="-199.5" font-family="Helvetica,sans-Serif" font-size="10.00">internalDomains</text>
</g>
<!-- Node18&#45;&gt;Node18 -->
<g id="edge30" class="edge"><title>Node18&#45;&gt;Node18</title>
<path fill="none" stroke="#9a32cd" stroke-dasharray="5,2" d="M483.501,-158.154C484.671,-163.437 494.004,-167.5 511.5,-167.5 538.16,-167.5 545.867,-158.065 534.619,-149.257"/>
<polygon fill="#9a32cd" stroke="#9a32cd" points="486.64,-159.708 488.381,-149.257 480.503,-156.342 486.64,-159.708"/>
<text text-anchor="middle" x="511.5" y="-170.5" font-family="Helvetica,sans-Serif" font-size="10.00"> parent</text>
</g>
<!-- Node19&#45;&gt;Node18 -->
<g id="edge25" class="edge"><title>Node19&#45;&gt;Node18</title>
<path fill="none" stroke="#9a32cd" stroke-dasharray="5,2" d="M230.942,-154.757C248.21,-149.198 269.428,-143.314 289,-140.5 360.179,-130.265 445.559,-134.449 486.413,-137.448"/>
<polygon fill="#9a32cd" stroke="#9a32cd" points="229.661,-151.494 221.273,-157.967 231.867,-158.138 229.661,-151.494"/>
<text text-anchor="middle" x="348" y="-154.5" font-family="Helvetica,sans-Serif" font-size="10.00"> tSubstring2</text>
<text text-anchor="middle" x="348" y="-143.5" font-family="Helvetica,sans-Serif" font-size="10.00">tSubstring</text>
</g>
<!-- Node20 -->
<g id="node20" class="node"><title>Node20</title>
<polygon fill="white" stroke="#bfbfbf" points="118,-98.5 118,-128.5 271,-128.5 271,-98.5 118,-98.5"/>
<text text-anchor="start" x="126" y="-116.5" font-family="Helvetica,sans-Serif" font-size="10.00">ArrayList&lt; com.aworx.lox.core.</text>
<text text-anchor="middle" x="194.5" y="-105.5" font-family="Helvetica,sans-Serif" font-size="10.00">Domain.PL &gt;</text>
</g>
<!-- Node20&#45;&gt;Node18 -->
<g id="edge27" class="edge"><title>Node20&#45;&gt;Node18</title>
<path fill="none" stroke="#9a32cd" stroke-dasharray="5,2" d="M281.322,-106.824C283.91,-106.703 286.474,-106.594 289,-106.5 341.408,-104.541 357.394,-89.4799 407,-106.5 416.586,-109.789 415.83,-116.184 425,-120.5 444.537,-129.694 468.707,-134.534 486.358,-137.022"/>
<polygon fill="#9a32cd" stroke="#9a32cd" points="281.057,-103.333 271.252,-107.347 281.42,-110.324 281.057,-103.333"/>
<text text-anchor="middle" x="348" y="-109.5" font-family="Helvetica,sans-Serif" font-size="10.00"> prefixLogables</text>
</g>
<!-- Node21 -->
<g id="node21" class="node"><title>Node21</title>
<polygon fill="white" stroke="#bfbfbf" points="118,-49.5 118,-79.5 271,-79.5 271,-49.5 118,-49.5"/>
<text text-anchor="start" x="126" y="-67.5" font-family="Helvetica,sans-Serif" font-size="10.00">ArrayList&lt; com.aworx.lox.core.</text>
<text text-anchor="middle" x="194.5" y="-56.5" font-family="Helvetica,sans-Serif" font-size="10.00">Domain.LoggerData &gt;</text>
</g>
<!-- Node21&#45;&gt;Node18 -->
<g id="edge28" class="edge"><title>Node21&#45;&gt;Node18</title>
<path fill="none" stroke="#9a32cd" stroke-dasharray="5,2" d="M281.176,-53.6027C322.505,-52.7168 370.833,-58.5544 407,-83.5 422.054,-93.8831 410.647,-109.168 425,-120.5 442.424,-134.257 467.783,-138.503 486.359,-139.611"/>
<polygon fill="#9a32cd" stroke="#9a32cd" points="280.979,-50.1074 271.106,-53.9521 281.222,-57.1031 280.979,-50.1074"/>
<text text-anchor="middle" x="348" y="-86.5" font-family="Helvetica,sans-Serif" font-size="10.00"> data</text>
</g>
<!-- Node22 -->
<g id="node22" class="node"><title>Node22</title>
<polygon fill="white" stroke="#bfbfbf" points="118,-0.5 118,-30.5 271,-30.5 271,-0.5 118,-0.5"/>
<text text-anchor="start" x="126" y="-18.5" font-family="Helvetica,sans-Serif" font-size="10.00">ArrayList&lt; com.aworx.lox.core.</text>
<text text-anchor="middle" x="194.5" y="-7.5" font-family="Helvetica,sans-Serif" font-size="10.00">Domain &gt;</text>
</g>
<!-- Node22&#45;&gt;Node18 -->
<g id="edge29" class="edge"><title>Node22&#45;&gt;Node18</title>
<path fill="none" stroke="#9a32cd" stroke-dasharray="5,2" d="M281.159,-3.55922C323.899,-2.48787 373.489,-9.35571 407,-39.5 434.418,-64.1632 398.923,-94.4232 425,-120.5 440.913,-136.413 467.003,-140.277 486.185,-140.705"/>
<polygon fill="#9a32cd" stroke="#9a32cd" points="280.877,-0.0675782 271.023,-3.96206 281.155,-7.06206 280.877,-0.0675782"/>
<text text-anchor="middle" x="348" y="-42.5" font-family="Helvetica,sans-Serif" font-size="10.00"> subDomains</text>
</g>
<!-- Node23 -->
<g id="node23" class="node"><title>Node23</title>
<polygon fill="white" stroke="#bfbfbf" points="460.5,-92 460.5,-111 562.5,-111 562.5,-92 460.5,-92"/>
<text text-anchor="middle" x="511.5" y="-99" font-family="Helvetica,sans-Serif" font-size="10.00">ArrayList&lt; Object &gt;</text>
</g>
<!-- Node23&#45;&gt;Node3 -->
<g id="edge31" class="edge"><title>Node23&#45;&gt;Node3</title>
<path fill="none" stroke="#9a32cd" stroke-dasharray="5,2" d="M573.137,-94.0315C616.797,-92.2938 673.812,-98.1291 708,-133.5 765.626,-193.119 762.447,-478.576 761.242,-534.853"/>
<polygon fill="#9a32cd" stroke="#9a32cd" points="572.708,-90.5494 562.912,-94.5841 573.086,-97.5392 572.708,-90.5494"/>
<text text-anchor="middle" x="662" y="-136.5" font-family="Helvetica,sans-Serif" font-size="10.00"> tmpLogables</text>
</g>
</g>
</svg>
