<?xml version="1.0" encoding="UTF-8" standalone="no"?>
<!DOCTYPE svg PUBLIC "-//W3C//DTD SVG 1.1//EN"
 "http://www.w3.org/Graphics/SVG/1.1/DTD/svg11.dtd">
<!-- Generated by graphviz version 2.40.1 (20161225.0304)
 -->
<!-- Title: Configuration.PluginAndPrio Pages: 1 -->
<svg width="176pt" height="308pt"
 viewBox="0.00 0.00 175.50 308.00" xmlns="http://www.w3.org/2000/svg" xmlns:xlink="http://www.w3.org/1999/xlink">
<g id="graph0" class="graph" transform="scale(1 1) rotate(0) translate(4 304)">
<title>Configuration.PluginAndPrio</title>
<polygon fill="#ffffff" stroke="transparent" points="-4,4 -4,-304 171.5,-304 171.5,4 -4,4"/>
<!-- Node1 -->
<g id="node1" class="node">
<title>Node1</title>
<polygon fill="#bfbfbf" stroke="#000000" points="0,-.5 0,-19.5 139,-19.5 139,-.5 0,-.5"/>
<text text-anchor="middle" x="69.5" y="-7.5" font-family="Helvetica,sans-Serif" font-size="10.00" fill="#000000">Configuration.PluginAndPrio</text>
</g>
<!-- Node2 -->
<g id="node2" class="node">
<title>Node2</title>
<g id="a_node2"><a xlink:href="classcom_1_1aworx_1_1lib_1_1config_1_1ConfigurationPlugin.html" target="_top" xlink:title="ConfigurationPlugin">
<polygon fill="#ffffff" stroke="#000000" points="19,-67.5 19,-86.5 120,-86.5 120,-67.5 19,-67.5"/>
<text text-anchor="middle" x="69.5" y="-74.5" font-family="Helvetica,sans-Serif" font-size="10.00" fill="#000000">ConfigurationPlugin</text>
</a>
</g>
</g>
<!-- Node2&#45;&gt;Node1 -->
<g id="edge1" class="edge">
<title>Node2&#45;&gt;Node1</title>
<path fill="none" stroke="#9a32cd" stroke-dasharray="5,2" d="M69.5,-57.1079C69.5,-44.714 69.5,-29.3263 69.5,-19.5817"/>
<polygon fill="#9a32cd" stroke="#9a32cd" points="66.0001,-57.4005 69.5,-67.4005 73.0001,-57.4006 66.0001,-57.4005"/>
<text text-anchor="middle" x="84" y="-41" font-family="Helvetica,sans-Serif" font-size="10.00" fill="#000000"> plugin</text>
</g>
<!-- Node3 -->
<g id="node3" class="node">
<title>Node3</title>
<g id="a_node3"><a xlink:href="classcom_1_1aworx_1_1lib_1_1config_1_1XTernalizer.html" target="_top" xlink:title="XTernalizer">
<polygon fill="#ffffff" stroke="#000000" points="37,-145.5 37,-164.5 102,-164.5 102,-145.5 37,-145.5"/>
<text text-anchor="middle" x="69.5" y="-152.5" font-family="Helvetica,sans-Serif" font-size="10.00" fill="#000000">XTernalizer</text>
</a>
</g>
</g>
<!-- Node3&#45;&gt;Node2 -->
<g id="edge2" class="edge">
<title>Node3&#45;&gt;Node2</title>
<path fill="none" stroke="#9a32cd" stroke-dasharray="5,2" d="M69.5,-135.2866C69.5,-119.7395 69.5,-98.7276 69.5,-86.6426"/>
<polygon fill="#9a32cd" stroke="#9a32cd" points="66.0001,-135.4356 69.5,-145.4357 73.0001,-135.4357 66.0001,-135.4356"/>
<text text-anchor="middle" x="118.5" y="-119" font-family="Helvetica,sans-Serif" font-size="10.00" fill="#000000"> stringConverter</text>
<text text-anchor="middle" x="118.5" y="-108" font-family="Helvetica,sans-Serif" font-size="10.00" fill="#000000">defaultStringConverter</text>
</g>
<!-- Node4 -->
<g id="node4" class="node">
<title>Node4</title>
<g id="a_node4"><a xlink:href="classcom_1_1aworx_1_1lib_1_1strings_1_1AString.html" target="_top" xlink:title="AString">
<polygon fill="#ffffff" stroke="#000000" points="10,-223.5 10,-242.5 59,-242.5 59,-223.5 10,-223.5"/>
<text text-anchor="middle" x="34.5" y="-230.5" font-family="Helvetica,sans-Serif" font-size="10.00" fill="#000000">AString</text>
</a>
</g>
</g>
<!-- Node4&#45;&gt;Node3 -->
<g id="edge3" class="edge">
<title>Node4&#45;&gt;Node3</title>
<path fill="none" stroke="#9a32cd" stroke-dasharray="5,2" d="M37.1173,-213.268C38.8984,-203.7674 41.8133,-192.4214 46.5,-183 49.8623,-176.2411 55.1261,-169.6663 59.77,-164.5881"/>
<polygon fill="#9a32cd" stroke="#9a32cd" points="33.6285,-212.9209 35.5091,-223.3475 40.5411,-214.0239 33.6285,-212.9209"/>
<text text-anchor="middle" x="63.5" y="-191.5" font-family="Helvetica,sans-Serif" font-size="10.00" fill="#000000"> tmpAS</text>
</g>
<!-- Node5 -->
<g id="node5" class="node">
<title>Node5</title>
<polygon fill="#ffffff" stroke="#bfbfbf" points="29,-280.5 29,-299.5 110,-299.5 110,-280.5 29,-280.5"/>
<text text-anchor="middle" x="69.5" y="-287.5" font-family="Helvetica,sans-Serif" font-size="10.00" fill="#000000">CharSequence</text>
</g>
<!-- Node5&#45;&gt;Node4 -->
<g id="edge4" class="edge">
<title>Node5&#45;&gt;Node4</title>
<path fill="none" stroke="#191970" d="M58.2946,-271.7512C52.3259,-262.0308 45.2301,-250.4748 40.3496,-242.5265"/>
<polygon fill="#191970" stroke="#191970" points="55.3474,-273.6404 63.5627,-280.3307 61.3127,-269.9776 55.3474,-273.6404"/>
</g>
<!-- Node6 -->
<g id="node6" class="node">
<title>Node6</title>
<g id="a_node6"><a xlink:href="classcom_1_1aworx_1_1lib_1_1strings_1_1Substring.html" target="_top" xlink:title="Substring">
<polygon fill="#ffffff" stroke="#000000" points="77.5,-223.5 77.5,-242.5 135.5,-242.5 135.5,-223.5 77.5,-223.5"/>
<text text-anchor="middle" x="106.5" y="-230.5" font-family="Helvetica,sans-Serif" font-size="10.00" fill="#000000">Substring</text>
</a>
</g>
</g>
<!-- Node5&#45;&gt;Node6 -->
<g id="edge6" class="edge">
<title>Node5&#45;&gt;Node6</title>
<path fill="none" stroke="#191970" d="M81.3457,-271.7512C87.6554,-262.0308 95.1567,-250.4748 100.3161,-242.5265"/>
<polygon fill="#191970" stroke="#191970" points="78.2856,-270.0373 75.7765,-280.3307 84.157,-273.8486 78.2856,-270.0373"/>
</g>
<!-- Node6&#45;&gt;Node3 -->
<g id="edge5" class="edge">
<title>Node6&#45;&gt;Node3</title>
<path fill="none" stroke="#9a32cd" stroke-dasharray="5,2" d="M97.5754,-214.186C90.1625,-198.5589 79.918,-176.9623 74.074,-164.6426"/>
<polygon fill="#9a32cd" stroke="#9a32cd" points="94.5149,-215.9007 101.9631,-223.4357 100.8394,-212.9006 94.5149,-215.9007"/>
<text text-anchor="middle" x="116.5" y="-197" font-family="Helvetica,sans-Serif" font-size="10.00" fill="#000000"> tmpSubs2</text>
<text text-anchor="middle" x="116.5" y="-186" font-family="Helvetica,sans-Serif" font-size="10.00" fill="#000000">tmpSubs</text>
</g>
</g>
</svg>
