<?xml version="1.0" encoding="UTF-8" standalone="no"?>
<!DOCTYPE svg PUBLIC "-//W3C//DTD SVG 1.1//EN"
 "http://www.w3.org/Graphics/SVG/1.1/DTD/svg11.dtd">
<!-- Generated by graphviz version 2.40.1 (20161225.0304)
 -->
<!-- Title: Report Pages: 1 -->
<svg width="258pt" height="106pt"
 viewBox="0.00 0.00 258.00 106.00" xmlns="http://www.w3.org/2000/svg" xmlns:xlink="http://www.w3.org/1999/xlink">
<g id="graph0" class="graph" transform="scale(1 1) rotate(0) translate(4 102)">
<title>Report</title>
<polygon fill="#ffffff" stroke="transparent" points="-4,4 -4,-102 254,-102 254,4 -4,4"/>
<!-- Node1 -->
<g id="node1" class="node">
<title>Node1</title>
<polygon fill="#bfbfbf" stroke="#000000" points="90.5,-.5 90.5,-19.5 136.5,-19.5 136.5,-.5 90.5,-.5"/>
<text text-anchor="middle" x="113.5" y="-7.5" font-family="Helvetica,sans-Serif" font-size="10.00" fill="#000000">Report</text>
</g>
<!-- Node1&#45;&gt;Node1 -->
<g id="edge3" class="edge">
<title>Node1&#45;&gt;Node1</title>
<path fill="none" stroke="#9a32cd" stroke-dasharray="5,2" d="M146.9107,-15.3327C151.4644,-14.4436 154.5,-12.666 154.5,-10 154.5,-5.625 146.3254,-3.6426 136.6818,-4.0527"/>
<polygon fill="#9a32cd" stroke="#9a32cd" points="146.4539,-11.8537 136.6818,-15.9473 146.8738,-18.8411 146.4539,-11.8537"/>
<text text-anchor="middle" x="185.5" y="-7.5" font-family="Helvetica,sans-Serif" font-size="10.00" fill="#000000"> defaultReport</text>
</g>
<!-- Node2 -->
<g id="node2" class="node">
<title>Node2</title>
<polygon fill="#ffffff" stroke="#bfbfbf" points="0,-73 0,-92 93,-92 93,-73 0,-73"/>
<text text-anchor="middle" x="46.5" y="-80" font-family="Helvetica,sans-Serif" font-size="10.00" fill="#000000">Deque&lt; Integer &gt;</text>
</g>
<!-- Node2&#45;&gt;Node1 -->
<g id="edge1" class="edge">
<title>Node2&#45;&gt;Node1</title>
<path fill="none" stroke="#9a32cd" stroke-dasharray="5,2" d="M62.625,-65.0513C75.7969,-50.7982 93.9241,-31.1829 104.6072,-19.6228"/>
<polygon fill="#9a32cd" stroke="#9a32cd" points="59.7525,-63.0027 55.5359,-72.7223 64.8934,-67.7536 59.7525,-63.0027"/>
<text text-anchor="middle" x="121.5" y="-41" font-family="Helvetica,sans-Serif" font-size="10.00" fill="#000000"> haltAfterReport</text>
</g>
<!-- Node3 -->
<g id="node3" class="node">
<title>Node3</title>
<polygon fill="#ffffff" stroke="#bfbfbf" points="111,-67.5 111,-97.5 250,-97.5 250,-67.5 111,-67.5"/>
<text text-anchor="start" x="119" y="-85.5" font-family="Helvetica,sans-Serif" font-size="10.00" fill="#000000">Deque&lt; com.aworx.lib.lang.</text>
<text text-anchor="middle" x="180.5" y="-74.5" font-family="Helvetica,sans-Serif" font-size="10.00" fill="#000000">ReportWriter &gt;</text>
</g>
<!-- Node3&#45;&gt;Node1 -->
<g id="edge2" class="edge">
<title>Node3&#45;&gt;Node1</title>
<path fill="none" stroke="#9a32cd" stroke-dasharray="5,2" d="M171.402,-58.0532C168.0481,-51.0711 163.7544,-43.7931 158.5,-38 151.7001,-30.5029 142.4355,-24.2789 134.0797,-19.6182"/>
<polygon fill="#9a32cd" stroke="#9a32cd" points="168.1937,-59.4522 175.3949,-67.2236 174.6117,-56.6578 168.1937,-59.4522"/>
<text text-anchor="middle" x="182" y="-41" font-family="Helvetica,sans-Serif" font-size="10.00" fill="#000000"> writers</text>
</g>
</g>
</svg>
