<?xml version="1.0" encoding="UTF-8" standalone="no"?>
<!DOCTYPE svg PUBLIC "-//W3C//DTD SVG 1.1//EN"
 "http://www.w3.org/Graphics/SVG/1.1/DTD/svg11.dtd">
<!-- Generated by graphviz version 2.40.1 (20161225.0304)
 -->
<!-- Title: TextLogger Pages: 1 -->
<svg width="934pt" height="536pt"
 viewBox="0.00 0.00 934.00 535.50" xmlns="http://www.w3.org/2000/svg" xmlns:xlink="http://www.w3.org/1999/xlink">
<g id="graph0" class="graph" transform="scale(1 1) rotate(0) translate(4 531.5)">
<title>TextLogger</title>
<polygon fill="#ffffff" stroke="transparent" points="-4,4 -4,-531.5 930,-531.5 930,4 -4,4"/>
<!-- Node11 -->
<g id="node1" class="node">
<title>Node11</title>
<polygon fill="#bfbfbf" stroke="#000000" points="861,-140.5 861,-159.5 926,-159.5 926,-140.5 861,-140.5"/>
<text text-anchor="middle" x="893.5" y="-147.5" font-family="Helvetica,sans-Serif" font-size="10.00" fill="#000000">TextLogger</text>
</g>
<!-- Node12 -->
<g id="node2" class="node">
<title>Node12</title>
<g id="a_node2"><a xlink:href="classcom_1_1aworx_1_1lox_1_1core_1_1Logger.html" target="_top" xlink:title="Logger">
<polygon fill="#ffffff" stroke="#000000" points="690.5,-420.5 690.5,-439.5 736.5,-439.5 736.5,-420.5 690.5,-420.5"/>
<text text-anchor="middle" x="713.5" y="-427.5" font-family="Helvetica,sans-Serif" font-size="10.00" fill="#000000">Logger</text>
</a>
</g>
</g>
<!-- Node12&#45;&gt;Node11 -->
<g id="edge1" class="edge">
<title>Node12&#45;&gt;Node11</title>
<path fill="none" stroke="#191970" d="M728.5311,-412.2796C754.0369,-381.7012 806.5669,-316.4765 843,-256 863.4068,-222.126 881.8857,-178.7186 889.6394,-159.6801"/>
<polygon fill="#191970" stroke="#191970" points="725.5598,-410.3754 721.8094,-420.2843 730.9204,-414.8769 725.5598,-410.3754"/>
</g>
<!-- Node13 -->
<g id="node3" class="node">
<title>Node13</title>
<g id="a_node3"><a xlink:href="classcom_1_1aworx_1_1lib_1_1threads_1_1SmartLock.html" target="_top" xlink:title="SmartLock">
<polygon fill="#ffffff" stroke="#000000" points="456,-458.5 456,-477.5 520,-477.5 520,-458.5 456,-458.5"/>
<text text-anchor="middle" x="488" y="-465.5" font-family="Helvetica,sans-Serif" font-size="10.00" fill="#000000">SmartLock</text>
</a>
</g>
</g>
<!-- Node13&#45;&gt;Node12 -->
<g id="edge2" class="edge">
<title>Node13&#45;&gt;Node12</title>
<path fill="none" stroke="#191970" d="M530.4499,-462.1834C562.3175,-457.6637 606.9892,-451.0032 646,-444 660.8426,-441.3355 677.4263,-437.9024 690.4416,-435.1027"/>
<polygon fill="#191970" stroke="#191970" points="529.5748,-458.772 520.1601,-463.6315 530.5503,-465.7037 529.5748,-458.772"/>
</g>
<!-- Node14 -->
<g id="node4" class="node">
<title>Node14</title>
<g id="a_node4"><a xlink:href="classcom_1_1aworx_1_1lib_1_1threads_1_1ThreadLock.html" target="_top" xlink:title="ThreadLock">
<polygon fill="#ffffff" stroke="#000000" points="211,-458.5 211,-477.5 279,-477.5 279,-458.5 211,-458.5"/>
<text text-anchor="middle" x="245" y="-465.5" font-family="Helvetica,sans-Serif" font-size="10.00" fill="#000000">ThreadLock</text>
</a>
</g>
</g>
<!-- Node14&#45;&gt;Node13 -->
<g id="edge3" class="edge">
<title>Node14&#45;&gt;Node13</title>
<path fill="none" stroke="#191970" d="M289.1549,-468C337.2249,-468 412.9411,-468 455.7359,-468"/>
<polygon fill="#191970" stroke="#191970" points="289.044,-464.5001 279.044,-468 289.0439,-471.5001 289.044,-464.5001"/>
</g>
<!-- Node15 -->
<g id="node5" class="node">
<title>Node15</title>
<g id="a_node5"><a xlink:href="enumcom_1_1aworx_1_1lib_1_1lang_1_1LockMode.html" target="_top" xlink:title="LockMode">
<polygon fill="#ffffff" stroke="#000000" points="9.5,-493.5 9.5,-512.5 71.5,-512.5 71.5,-493.5 9.5,-493.5"/>
<text text-anchor="middle" x="40.5" y="-500.5" font-family="Helvetica,sans-Serif" font-size="10.00" fill="#000000">LockMode</text>
</a>
</g>
</g>
<!-- Node15&#45;&gt;Node14 -->
<g id="edge4" class="edge">
<title>Node15&#45;&gt;Node14</title>
<path fill="none" stroke="#9a32cd" stroke-dasharray="5,2" d="M81.7699,-495.9367C119.7457,-489.4372 175.4034,-479.9114 210.9152,-473.8336"/>
<polygon fill="#9a32cd" stroke="#9a32cd" points="80.8254,-492.5474 71.5591,-497.6843 82.0063,-499.447 80.8254,-492.5474"/>
<text text-anchor="middle" x="122" y="-495" font-family="Helvetica,sans-Serif" font-size="10.00" fill="#000000"> lockMode</text>
</g>
<!-- Node16 -->
<g id="node6" class="node">
<title>Node16</title>
<g id="a_node6"><a xlink:href="classcom_1_1aworx_1_1lib_1_1time_1_1Ticks.html" target="_top" xlink:title="Ticks">
<polygon fill="#ffffff" stroke="#000000" points="20,-415.5 20,-434.5 61,-434.5 61,-415.5 20,-415.5"/>
<text text-anchor="middle" x="40.5" y="-422.5" font-family="Helvetica,sans-Serif" font-size="10.00" fill="#000000">Ticks</text>
</a>
</g>
</g>
<!-- Node16&#45;&gt;Node12 -->
<g id="edge8" class="edge">
<title>Node16&#45;&gt;Node12</title>
<path fill="none" stroke="#9a32cd" stroke-dasharray="5,2" d="M71.2115,-425.2282C186.1443,-426.0821 589.453,-429.0784 690.4392,-429.8287"/>
<polygon fill="#9a32cd" stroke="#9a32cd" points="71.0348,-421.7269 61.009,-425.1524 70.9827,-428.7267 71.0348,-421.7269"/>
<text text-anchor="middle" x="383" y="-441" font-family="Helvetica,sans-Serif" font-size="10.00" fill="#000000"> timeOfCreation</text>
<text text-anchor="middle" x="383" y="-430" font-family="Helvetica,sans-Serif" font-size="10.00" fill="#000000">timeOfLastLog</text>
</g>
<!-- Node16&#45;&gt;Node14 -->
<g id="edge5" class="edge">
<title>Node16&#45;&gt;Node14</title>
<path fill="none" stroke="#9a32cd" stroke-dasharray="5,2" d="M70.849,-435.1516C79.8455,-437.9394 89.7626,-440.7977 99,-443 136.8978,-452.0353 181.0726,-459.1321 210.8223,-463.4204"/>
<polygon fill="#9a32cd" stroke="#9a32cd" points="71.7586,-431.7682 61.1681,-432.0726 69.637,-438.4389 71.7586,-431.7682"/>
<text text-anchor="middle" x="122" y="-455" font-family="Helvetica,sans-Serif" font-size="10.00" fill="#000000"> waitTime</text>
</g>
<!-- Node16&#45;&gt;Node16 -->
<g id="edge6" class="edge">
<title>Node16&#45;&gt;Node16</title>
<path fill="none" stroke="#9a32cd" stroke-dasharray="5,2" d="M25.7675,-444.7663C26.9246,-449.4965 31.8354,-453 40.5,-453 54.7188,-453 58.8289,-443.5653 52.8303,-434.7571"/>
<polygon fill="#9a32cd" stroke="#9a32cd" points="29.2393,-445.2978 28.1697,-434.7571 22.4326,-443.6641 29.2393,-445.2978"/>
<text text-anchor="middle" x="40.5" y="-467" font-family="Helvetica,sans-Serif" font-size="10.00" fill="#000000"> tempTicks</text>
<text text-anchor="middle" x="40.5" y="-456" font-family="Helvetica,sans-Serif" font-size="10.00" fill="#000000">creationTimeTicks</text>
</g>
<!-- Node19 -->
<g id="node9" class="node">
<title>Node19</title>
<g id="a_node9"><a xlink:href="classcom_1_1aworx_1_1lox_1_1core_1_1textlogger_1_1MetaInfo.html" target="_top" xlink:title="MetaInfo">
<polygon fill="#ffffff" stroke="#000000" points="686,-213.5 686,-232.5 741,-232.5 741,-213.5 686,-213.5"/>
<text text-anchor="middle" x="713.5" y="-220.5" font-family="Helvetica,sans-Serif" font-size="10.00" fill="#000000">MetaInfo</text>
</a>
</g>
</g>
<!-- Node16&#45;&gt;Node19 -->
<g id="edge20" class="edge">
<title>Node16&#45;&gt;Node19</title>
<path fill="none" stroke="#9a32cd" stroke-dasharray="5,2" d="M71.4383,-420.9447C193.4852,-404.8858 635.4201,-346.1319 646,-336 676.7216,-306.5795 636.7029,-274.6229 664,-242 669.5527,-235.3639 677.7016,-231.0395 685.7914,-228.2238"/>
<polygon fill="#9a32cd" stroke="#9a32cd" points="70.7412,-417.5062 61.2826,-422.2796 71.6535,-424.4465 70.7412,-417.5062"/>
<text text-anchor="middle" x="383" y="-397" font-family="Helvetica,sans-Serif" font-size="10.00" fill="#000000"> elapsedTime</text>
<text text-anchor="middle" x="383" y="-386" font-family="Helvetica,sans-Serif" font-size="10.00" fill="#000000">maxElapsedTime</text>
</g>
<!-- Node17 -->
<g id="node7" class="node">
<title>Node17</title>
<polygon fill="#ffffff" stroke="#bfbfbf" points="163,-497 163,-527 327,-527 327,-497 163,-497"/>
<text text-anchor="start" x="171" y="-515" font-family="Helvetica,sans-Serif" font-size="10.00" fill="#000000">ArrayList&lt; com.aworx.lib.threads.</text>
<text text-anchor="middle" x="245" y="-504" font-family="Helvetica,sans-Serif" font-size="10.00" fill="#000000">ThreadLock &gt;</text>
</g>
<!-- Node17&#45;&gt;Node13 -->
<g id="edge7" class="edge">
<title>Node17&#45;&gt;Node13</title>
<path fill="none" stroke="#9a32cd" stroke-dasharray="5,2" d="M336.9103,-496.997C364.0289,-492.3911 393.7417,-487.1692 421,-482 432.3248,-479.8524 444.6868,-477.3223 455.6739,-475.0079"/>
<polygon fill="#9a32cd" stroke="#9a32cd" points="336.3226,-493.5466 327.046,-498.6647 337.4896,-500.4486 336.3226,-493.5466"/>
<text text-anchor="middle" x="383" y="-497" font-family="Helvetica,sans-Serif" font-size="10.00" fill="#000000"> acquirers</text>
</g>
<!-- Node18 -->
<g id="node8" class="node">
<title>Node18</title>
<g id="a_node8"><a xlink:href="interfacecom_1_1aworx_1_1lox_1_1core_1_1textlogger_1_1ObjectConverter.html" target="_top" xlink:title="ObjectConverter">
<polygon fill="#ffffff" stroke="#000000" points="669.5,-251.5 669.5,-270.5 757.5,-270.5 757.5,-251.5 669.5,-251.5"/>
<text text-anchor="middle" x="713.5" y="-258.5" font-family="Helvetica,sans-Serif" font-size="10.00" fill="#000000">ObjectConverter</text>
</a>
</g>
</g>
<!-- Node18&#45;&gt;Node11 -->
<g id="edge9" class="edge">
<title>Node18&#45;&gt;Node11</title>
<path fill="none" stroke="#9a32cd" stroke-dasharray="5,2" d="M761.2786,-248.508C787.0576,-240.2723 818.5149,-227.6966 843,-210 862.4212,-195.9633 879.0074,-172.8677 887.4772,-159.8037"/>
<polygon fill="#9a32cd" stroke="#9a32cd" points="760.2319,-245.168 751.7029,-251.4535 762.29,-251.8586 760.2319,-245.168"/>
<text text-anchor="middle" x="812" y="-244" font-family="Helvetica,sans-Serif" font-size="10.00" fill="#000000"> converter</text>
</g>
<!-- Node19&#45;&gt;Node11 -->
<g id="edge10" class="edge">
<title>Node19&#45;&gt;Node11</title>
<path fill="none" stroke="#9a32cd" stroke-dasharray="5,2" d="M746.5404,-209.6003C782.2999,-195.0978 838.4271,-172.3351 869.9624,-159.5458"/>
<polygon fill="#9a32cd" stroke="#9a32cd" points="744.9834,-206.4548 737.0319,-213.4565 747.6142,-212.9416 744.9834,-206.4548"/>
<text text-anchor="middle" x="812" y="-198" font-family="Helvetica,sans-Serif" font-size="10.00" fill="#000000"> metaInfo</text>
</g>
<!-- Node20 -->
<g id="node10" class="node">
<title>Node20</title>
<g id="a_node10"><a xlink:href="classcom_1_1aworx_1_1lib_1_1time_1_1TickSpan.html" target="_top" xlink:title="TickSpan">
<polygon fill="#ffffff" stroke="#000000" points="459,-154.5 459,-173.5 517,-173.5 517,-154.5 459,-154.5"/>
<text text-anchor="middle" x="488" y="-161.5" font-family="Helvetica,sans-Serif" font-size="10.00" fill="#000000">TickSpan</text>
</a>
</g>
</g>
<!-- Node20&#45;&gt;Node19 -->
<g id="edge11" class="edge">
<title>Node20&#45;&gt;Node19</title>
<path fill="none" stroke="#9a32cd" stroke-dasharray="5,2" d="M527.126,-167.2375C559.5608,-170.6757 606.5694,-177.4168 646,-190 664.3917,-195.8692 684.0784,-205.9817 697.4158,-213.4695"/>
<polygon fill="#9a32cd" stroke="#9a32cd" points="527.4351,-163.7511 517.1354,-166.2341 526.7355,-170.716 527.4351,-163.7511"/>
<text text-anchor="middle" x="600.5" y="-193" font-family="Helvetica,sans-Serif" font-size="10.00" fill="#000000"> elapsed</text>
</g>
<!-- Node21 -->
<g id="node11" class="node">
<title>Node21</title>
<polygon fill="#ffffff" stroke="#bfbfbf" points="451.5,-382.5 451.5,-401.5 524.5,-401.5 524.5,-382.5 451.5,-382.5"/>
<text text-anchor="middle" x="488" y="-389.5" font-family="Helvetica,sans-Serif" font-size="10.00" fill="#000000">FieldPosition</text>
</g>
<!-- Node21&#45;&gt;Node19 -->
<g id="edge12" class="edge">
<title>Node21&#45;&gt;Node19</title>
<path fill="none" stroke="#9a32cd" stroke-dasharray="5,2" d="M534.9241,-398.466C570.3464,-400.5108 617.5568,-396.696 646,-368 685.8226,-327.8234 628.7345,-286.2306 664,-242 669.4516,-235.1625 677.6738,-230.7832 685.8595,-227.9792"/>
<polygon fill="#9a32cd" stroke="#9a32cd" points="535.042,-394.9651 524.8082,-397.7074 534.5185,-401.9455 535.042,-394.9651"/>
<text text-anchor="middle" x="600.5" y="-401" font-family="Helvetica,sans-Serif" font-size="10.00" fill="#000000"> fieldPositionZero</text>
</g>
<!-- Node22 -->
<g id="node12" class="node">
<title>Node22</title>
<g id="a_node12"><a xlink:href="classcom_1_1aworx_1_1lib_1_1strings_1_1util_1_1Tokenizer.html" target="_top" xlink:title="Tokenizer">
<polygon fill="#ffffff" stroke="#000000" points="458.5,-192.5 458.5,-211.5 517.5,-211.5 517.5,-192.5 458.5,-192.5"/>
<text text-anchor="middle" x="488" y="-199.5" font-family="Helvetica,sans-Serif" font-size="10.00" fill="#000000">Tokenizer</text>
</a>
</g>
</g>
<!-- Node22&#45;&gt;Node19 -->
<g id="edge13" class="edge">
<title>Node22&#45;&gt;Node19</title>
<path fill="none" stroke="#9a32cd" stroke-dasharray="5,2" d="M528.0475,-203.9282C560.0322,-205.6753 605.9679,-208.6478 646,-213 659.1905,-214.4341 673.7593,-216.5274 685.9755,-218.4286"/>
<polygon fill="#9a32cd" stroke="#9a32cd" points="527.9355,-200.4174 517.764,-203.3824 527.5645,-207.4076 527.9355,-200.4174"/>
<text text-anchor="middle" x="600.5" y="-216" font-family="Helvetica,sans-Serif" font-size="10.00" fill="#000000"> tTok</text>
</g>
<!-- Node23 -->
<g id="node13" class="node">
<title>Node23</title>
<g id="a_node13"><a xlink:href="classcom_1_1aworx_1_1lib_1_1strings_1_1Substring.html" target="_top" xlink:title="Substring">
<polygon fill="#ffffff" stroke="#000000" points="216,-168.5 216,-187.5 274,-187.5 274,-168.5 216,-168.5"/>
<text text-anchor="middle" x="245" y="-175.5" font-family="Helvetica,sans-Serif" font-size="10.00" fill="#000000">Substring</text>
</a>
</g>
</g>
<!-- Node23&#45;&gt;Node22 -->
<g id="edge14" class="edge">
<title>Node23&#45;&gt;Node22</title>
<path fill="none" stroke="#9a32cd" stroke-dasharray="5,2" d="M284.4508,-181.8964C333.0512,-186.6964 414.5278,-194.7435 458.2044,-199.0572"/>
<polygon fill="#9a32cd" stroke="#9a32cd" points="284.6071,-178.3949 274.3115,-180.895 283.919,-185.361 284.6071,-178.3949"/>
<text text-anchor="middle" x="383" y="-208" font-family="Helvetica,sans-Serif" font-size="10.00" fill="#000000"> rest</text>
<text text-anchor="middle" x="383" y="-197" font-family="Helvetica,sans-Serif" font-size="10.00" fill="#000000">actual</text>
</g>
<!-- Node24 -->
<g id="node14" class="node">
<title>Node24</title>
<polygon fill="#ffffff" stroke="#bfbfbf" points="0,-134.5 0,-153.5 81,-153.5 81,-134.5 0,-134.5"/>
<text text-anchor="middle" x="40.5" y="-141.5" font-family="Helvetica,sans-Serif" font-size="10.00" fill="#000000">CharSequence</text>
</g>
<!-- Node24&#45;&gt;Node23 -->
<g id="edge15" class="edge">
<title>Node24&#45;&gt;Node23</title>
<path fill="none" stroke="#191970" d="M91.2958,-152.4453C130.4933,-158.9622 183.3353,-167.7477 215.7418,-173.1355"/>
<polygon fill="#191970" stroke="#191970" points="91.8308,-148.9862 81.3921,-150.7987 90.6827,-155.8915 91.8308,-148.9862"/>
</g>
<!-- Node25 -->
<g id="node15" class="node">
<title>Node25</title>
<g id="a_node15"><a xlink:href="classcom_1_1aworx_1_1lib_1_1strings_1_1AString.html" target="_top" xlink:title="AString">
<polygon fill="#ffffff" stroke="#000000" points="463.5,-116.5 463.5,-135.5 512.5,-135.5 512.5,-116.5 463.5,-116.5"/>
<text text-anchor="middle" x="488" y="-123.5" font-family="Helvetica,sans-Serif" font-size="10.00" fill="#000000">AString</text>
</a>
</g>
</g>
<!-- Node24&#45;&gt;Node25 -->
<g id="edge17" class="edge">
<title>Node24&#45;&gt;Node25</title>
<path fill="none" stroke="#191970" d="M91.0486,-141.9668C187.0534,-138.1051 392.5078,-129.841 463.3712,-126.9907"/>
<polygon fill="#191970" stroke="#191970" points="90.8531,-138.4717 81.0019,-142.3709 91.1345,-145.466 90.8531,-138.4717"/>
</g>
<!-- Node25&#45;&gt;Node11 -->
<g id="edge22" class="edge">
<title>Node25&#45;&gt;Node11</title>
<path fill="none" stroke="#9a32cd" stroke-dasharray="5,2" d="M522.704,-121.0609C533.0701,-119.8007 544.4755,-118.6261 555,-118 667.5471,-111.3045 800.5809,-132.413 860.8813,-143.5637"/>
<polygon fill="#9a32cd" stroke="#9a32cd" points="522.231,-117.5927 512.7554,-122.3323 523.1184,-124.5363 522.231,-117.5927"/>
<text text-anchor="middle" x="713.5" y="-142" font-family="Helvetica,sans-Serif" font-size="10.00" fill="#000000"> logBuf</text>
<text text-anchor="middle" x="713.5" y="-131" font-family="Helvetica,sans-Serif" font-size="10.00" fill="#000000">msgBuf</text>
</g>
<!-- Node25&#45;&gt;Node19 -->
<g id="edge16" class="edge">
<title>Node25&#45;&gt;Node19</title>
<path fill="none" stroke="#9a32cd" stroke-dasharray="5,2" d="M522.8589,-122.8901C556.3832,-121.47 607.505,-123.5371 646,-144 676.4248,-160.173 699.0243,-196.1886 708.5393,-213.4352"/>
<polygon fill="#9a32cd" stroke="#9a32cd" points="522.4228,-119.4088 512.631,-123.4548 522.8088,-126.3981 522.4228,-119.4088"/>
<text text-anchor="middle" x="600.5" y="-158" font-family="Helvetica,sans-Serif" font-size="10.00" fill="#000000"> format</text>
<text text-anchor="middle" x="600.5" y="-147" font-family="Helvetica,sans-Serif" font-size="10.00" fill="#000000">tmpAString</text>
</g>
<!-- Node26 -->
<g id="node16" class="node">
<title>Node26</title>
<polygon fill="#ffffff" stroke="#bfbfbf" points="439,-306.5 439,-325.5 537,-325.5 537,-306.5 439,-306.5"/>
<text text-anchor="middle" x="488" y="-313.5" font-family="Helvetica,sans-Serif" font-size="10.00" fill="#000000">GregorianCalendar</text>
</g>
<!-- Node26&#45;&gt;Node19 -->
<g id="edge18" class="edge">
<title>Node26&#45;&gt;Node19</title>
<path fill="none" stroke="#9a32cd" stroke-dasharray="5,2" d="M547.396,-321.8839C579.8656,-321.9026 618.8745,-316.2944 646,-294 664.8939,-278.4712 646.9965,-259.5785 664,-242 669.8879,-235.913 677.9368,-231.7472 685.8331,-228.9078"/>
<polygon fill="#9a32cd" stroke="#9a32cd" points="547.17,-318.3792 537.1071,-321.6941 547.0408,-325.3781 547.17,-318.3792"/>
<text text-anchor="middle" x="600.5" y="-324" font-family="Helvetica,sans-Serif" font-size="10.00" fill="#000000"> callerDateTimeCal</text>
</g>
<!-- Node27 -->
<g id="node17" class="node">
<title>Node27</title>
<polygon fill="#ffffff" stroke="#bfbfbf" points="439,-268.5 439,-287.5 537,-287.5 537,-268.5 439,-268.5"/>
<text text-anchor="middle" x="488" y="-275.5" font-family="Helvetica,sans-Serif" font-size="10.00" fill="#000000">SimpleDateFormat</text>
</g>
<!-- Node27&#45;&gt;Node19 -->
<g id="edge19" class="edge">
<title>Node27&#45;&gt;Node19</title>
<path fill="none" stroke="#9a32cd" stroke-dasharray="5,2" d="M547.5698,-269.8C577.4278,-265.0019 613.9576,-258.0825 646,-249 654.2583,-246.6592 655.9932,-245.0935 664,-242 671.9854,-238.9147 680.7016,-235.5636 688.5638,-232.547"/>
<polygon fill="#9a32cd" stroke="#9a32cd" points="546.6427,-266.4024 537.3052,-271.4087 547.7266,-273.318 546.6427,-266.4024"/>
<text text-anchor="middle" x="600.5" y="-282" font-family="Helvetica,sans-Serif" font-size="10.00" fill="#000000"> dateFormatter</text>
<text text-anchor="middle" x="600.5" y="-271" font-family="Helvetica,sans-Serif" font-size="10.00" fill="#000000">timeOfDayFormatter</text>
</g>
<!-- Node28 -->
<g id="node18" class="node">
<title>Node28</title>
<polygon fill="#ffffff" stroke="#bfbfbf" points="469,-230.5 469,-249.5 507,-249.5 507,-230.5 469,-230.5"/>
<text text-anchor="middle" x="488" y="-237.5" font-family="Helvetica,sans-Serif" font-size="10.00" fill="#000000">Date</text>
</g>
<!-- Node28&#45;&gt;Node19 -->
<g id="edge21" class="edge">
<title>Node28&#45;&gt;Node19</title>
<path fill="none" stroke="#9a32cd" stroke-dasharray="5,2" d="M517.2175,-237.7973C560.9306,-234.5019 642.7905,-228.3307 685.6762,-225.0976"/>
<polygon fill="#9a32cd" stroke="#9a32cd" points="516.9346,-234.3087 507.226,-238.5506 517.4609,-241.2888 516.9346,-234.3087"/>
<text text-anchor="middle" x="600.5" y="-237" font-family="Helvetica,sans-Serif" font-size="10.00" fill="#000000"> callerDateTimeDate</text>
</g>
<!-- Node29 -->
<g id="node19" class="node">
<title>Node29</title>
<polygon fill="#ffffff" stroke="#bfbfbf" points="664,-38.5 664,-57.5 763,-57.5 763,-38.5 664,-38.5"/>
<text text-anchor="middle" x="713.5" y="-45.5" font-family="Helvetica,sans-Serif" font-size="10.00" fill="#000000">ArrayList&lt; String &gt;</text>
</g>
<!-- Node29&#45;&gt;Node11 -->
<g id="edge23" class="edge">
<title>Node29&#45;&gt;Node11</title>
<path fill="none" stroke="#9a32cd" stroke-dasharray="5,2" d="M773.326,-47.333C796.6869,-49.602 822.6819,-55.483 843,-69 869.353,-86.5318 884.4935,-122.992 890.4831,-140.3767"/>
<polygon fill="#9a32cd" stroke="#9a32cd" points="773.3942,-43.828 763.155,-46.55 772.8568,-50.8074 773.3942,-43.828"/>
<text text-anchor="middle" x="812" y="-72" font-family="Helvetica,sans-Serif" font-size="10.00" fill="#000000"> replacements</text>
</g>
<!-- Node30 -->
<g id="node20" class="node">
<title>Node30</title>
<g id="a_node20"><a xlink:href="classcom_1_1aworx_1_1lib_1_1strings_1_1util_1_1AutoSizes.html" target="_top" xlink:title="AutoSizes">
<polygon fill="#ffffff" stroke="#000000" points="682.5,-.5 682.5,-19.5 744.5,-19.5 744.5,-.5 682.5,-.5"/>
<text text-anchor="middle" x="713.5" y="-7.5" font-family="Helvetica,sans-Serif" font-size="10.00" fill="#000000">AutoSizes</text>
</a>
</g>
</g>
<!-- Node30&#45;&gt;Node11 -->
<g id="edge24" class="edge">
<title>Node30&#45;&gt;Node11</title>
<path fill="none" stroke="#9a32cd" stroke-dasharray="5,2" d="M754.7316,-7.6854C782.4211,-8.2628 818.233,-13.3963 843,-33 878.0416,-60.7362 889.2255,-117.5477 892.3845,-140.281"/>
<polygon fill="#9a32cd" stroke="#9a32cd" points="754.5635,-4.1851 744.557,-7.6665 754.5504,-11.1851 754.5635,-4.1851"/>
<text text-anchor="middle" x="812" y="-36" font-family="Helvetica,sans-Serif" font-size="10.00" fill="#000000"> autoSizes</text>
</g>
</g>
</svg>
