<?xml version="1.0" encoding="UTF-8" standalone="no"?>
<!DOCTYPE svg PUBLIC "-//W3C//DTD SVG 1.1//EN"
 "http://www.w3.org/Graphics/SVG/1.1/DTD/svg11.dtd">
<!-- Generated by graphviz version 2.38.0 (20140413.2041)
 -->
<!-- Title: LogTools Pages: 1 -->
<svg width="566pt" height="175pt"
 viewBox="0.00 0.00 566.00 175.00" xmlns="http://www.w3.org/2000/svg" xmlns:xlink="http://www.w3.org/1999/xlink">
<g id="graph0" class="graph" transform="scale(1 1) rotate(0) translate(4 171)">
<title>LogTools</title>
<polygon fill="white" stroke="none" points="-4,4 -4,-171 562,-171 562,4 -4,4"/>
<!-- Node1 -->
<g id="node1" class="node"><title>Node1</title>
<polygon fill="#bfbfbf" stroke="black" points="296,-0.5 296,-19.5 352,-19.5 352,-0.5 296,-0.5"/>
<text text-anchor="middle" x="324" y="-7.5" font-family="Helvetica,sans-Serif" font-size="10.00">LogTools</text>
</g>
<!-- Node2 -->
<g id="node2" class="node"><title>Node2</title>
<g id="a_node2"><a xlink:href="classcom_1_1aworx_1_1lib_1_1threads_1_1ThreadLock.html" target="_top" xlink:title="ThreadLock">
<polygon fill="white" stroke="black" points="38,-78.5 38,-97.5 106,-97.5 106,-78.5 38,-78.5"/>
<text text-anchor="middle" x="72" y="-85.5" font-family="Helvetica,sans-Serif" font-size="10.00">ThreadLock</text>
</a>
</g>
</g>
<!-- Node2&#45;&gt;Node1 -->
<g id="edge1" class="edge"><title>Node2&#45;&gt;Node1</title>
<path fill="none" stroke="#9a32cd" stroke-dasharray="5,2" d="M94.7361,-73.2469C114.096,-62.1289 142.987,-46.9098 170,-38 212.662,-23.9282 264.527,-16.7664 295.865,-13.4613"/>
<polygon fill="#9a32cd" stroke="#9a32cd" points="92.9121,-70.259 86.0481,-78.3297 96.4469,-76.3009 92.9121,-70.259"/>
<text text-anchor="middle" x="181" y="-46.5" font-family="Helvetica,sans-Serif" font-size="10.00"> lock</text>
</g>
<!-- Node3 -->
<g id="node3" class="node"><title>Node3</title>
<g id="a_node3"><a xlink:href="enumcom_1_1aworx_1_1lib_1_1enums_1_1LockMode.html" target="_top" xlink:title="LockMode">
<polygon fill="white" stroke="black" points="0,-146.5 0,-165.5 62,-165.5 62,-146.5 0,-146.5"/>
<text text-anchor="middle" x="31" y="-153.5" font-family="Helvetica,sans-Serif" font-size="10.00">LockMode</text>
</a>
</g>
</g>
<!-- Node3&#45;&gt;Node2 -->
<g id="edge2" class="edge"><title>Node3&#45;&gt;Node2</title>
<path fill="none" stroke="#9a32cd" stroke-dasharray="5,2" d="M29.2517,-136.03C29.4379,-129.331 30.6151,-121.982 34,-116 38.4637,-108.111 46.295,-101.957 53.693,-97.5298"/>
<polygon fill="#9a32cd" stroke="#9a32cd" points="25.7668,-136.482 29.6594,-146.335 32.7613,-136.205 25.7668,-136.482"/>
<text text-anchor="middle" x="57" y="-119" font-family="Helvetica,sans-Serif" font-size="10.00"> lockMode</text>
</g>
<!-- Node4 -->
<g id="node4" class="node"><title>Node4</title>
<g id="a_node4"><a xlink:href="classcom_1_1aworx_1_1lib_1_1time_1_1Ticks.html" target="_top" xlink:title="Ticks">
<polygon fill="white" stroke="black" points="80.5,-146.5 80.5,-165.5 121.5,-165.5 121.5,-146.5 80.5,-146.5"/>
<text text-anchor="middle" x="101" y="-153.5" font-family="Helvetica,sans-Serif" font-size="10.00">Ticks</text>
</a>
</g>
</g>
<!-- Node4&#45;&gt;Node2 -->
<g id="edge3" class="edge"><title>Node4&#45;&gt;Node2</title>
<path fill="none" stroke="#9a32cd" stroke-dasharray="5,2" d="M93.1726,-137.186C87.5775,-124.452 80.2873,-107.861 75.8847,-97.8411"/>
<polygon fill="#9a32cd" stroke="#9a32cd" points="89.9816,-138.624 97.2088,-146.372 96.3903,-135.808 89.9816,-138.624"/>
<text text-anchor="middle" x="110.5" y="-119" font-family="Helvetica,sans-Serif" font-size="10.00"> waitTime</text>
</g>
<!-- Node4&#45;&gt;Node4 -->
<g id="edge4" class="edge"><title>Node4&#45;&gt;Node4</title>
<path fill="none" stroke="#9a32cd" stroke-dasharray="5,2" d="M131.816,-161.782C136.4,-160.881 139.5,-158.954 139.5,-156 139.5,-151.152 131.152,-149.069 121.597,-149.751"/>
<polygon fill="#9a32cd" stroke="#9a32cd" points="131.427,-158.296 121.597,-162.249 131.746,-165.289 131.427,-158.296"/>
<text text-anchor="middle" x="180" y="-159" font-family="Helvetica,sans-Serif" font-size="10.00"> tempTicks</text>
<text text-anchor="middle" x="180" y="-148" font-family="Helvetica,sans-Serif" font-size="10.00">creationTimeTicks</text>
</g>
<!-- Node5 -->
<g id="node5" class="node"><title>Node5</title>
<polygon fill="white" stroke="#bfbfbf" points="124.5,-78.5 124.5,-97.5 265.5,-97.5 265.5,-78.5 124.5,-78.5"/>
<text text-anchor="middle" x="195" y="-85.5" font-family="Helvetica,sans-Serif" font-size="10.00">HashMap&lt; Object, Integer &gt;</text>
</g>
<!-- Node5&#45;&gt;Node1 -->
<g id="edge5" class="edge"><title>Node5&#45;&gt;Node1</title>
<path fill="none" stroke="#9a32cd" stroke-dasharray="5,2" d="M194.174,-68.405C194.736,-58.1516 197.241,-45.9299 205,-38 217.445,-25.2805 264.805,-17.6274 295.894,-13.8689"/>
<polygon fill="#9a32cd" stroke="#9a32cd" points="190.674,-68.4604 194.169,-78.4621 197.674,-68.4639 190.674,-68.4604"/>
<text text-anchor="middle" x="258" y="-46.5" font-family="Helvetica,sans-Serif" font-size="10.00"> instObject2LineNumber</text>
</g>
<!-- Node6 -->
<g id="node6" class="node"><title>Node6</title>
<g id="a_node6"><a xlink:href="classcom_1_1aworx_1_1lib_1_1strings_1_1AString.html" target="_top" xlink:title="AString">
<polygon fill="white" stroke="black" points="283.5,-78.5 283.5,-97.5 332.5,-97.5 332.5,-78.5 283.5,-78.5"/>
<text text-anchor="middle" x="308" y="-85.5" font-family="Helvetica,sans-Serif" font-size="10.00">AString</text>
</a>
</g>
</g>
<!-- Node6&#45;&gt;Node1 -->
<g id="edge6" class="edge"><title>Node6&#45;&gt;Node1</title>
<path fill="none" stroke="#9a32cd" stroke-dasharray="5,2" d="M311.953,-68.2239C315.222,-52.6974 319.714,-31.3582 322.186,-19.6165"/>
<polygon fill="#9a32cd" stroke="#9a32cd" points="308.471,-67.7753 309.835,-78.2818 315.321,-69.2174 308.471,-67.7753"/>
<text text-anchor="middle" x="338" y="-52" font-family="Helvetica,sans-Serif" font-size="10.00"> tempBuf</text>
<text text-anchor="middle" x="338" y="-41" font-family="Helvetica,sans-Serif" font-size="10.00">toolBuf</text>
</g>
<!-- Node7 -->
<g id="node7" class="node"><title>Node7</title>
<polygon fill="white" stroke="#bfbfbf" points="267.5,-146.5 267.5,-165.5 348.5,-165.5 348.5,-146.5 267.5,-146.5"/>
<text text-anchor="middle" x="308" y="-153.5" font-family="Helvetica,sans-Serif" font-size="10.00">CharSequence</text>
</g>
<!-- Node7&#45;&gt;Node6 -->
<g id="edge7" class="edge"><title>Node7&#45;&gt;Node6</title>
<path fill="none" stroke="midnightblue" d="M308,-136.041C308,-123.472 308,-107.563 308,-97.8411"/>
<polygon fill="midnightblue" stroke="midnightblue" points="304.5,-136.372 308,-146.372 311.5,-136.372 304.5,-136.372"/>
</g>
<!-- Node8 -->
<g id="node8" class="node"><title>Node8</title>
<polygon fill="white" stroke="#bfbfbf" points="350.5,-78.5 350.5,-97.5 471.5,-97.5 471.5,-78.5 350.5,-78.5"/>
<text text-anchor="middle" x="411" y="-85.5" font-family="Helvetica,sans-Serif" font-size="10.00">ByteArrayOutputStream</text>
</g>
<!-- Node8&#45;&gt;Node1 -->
<g id="edge8" class="edge"><title>Node8&#45;&gt;Node1</title>
<path fill="none" stroke="#9a32cd" stroke-dasharray="5,2" d="M396.025,-70.6932C386.635,-60.8126 374.061,-48.1914 362,-38 354.211,-31.4185 344.884,-24.775 337.42,-19.7248"/>
<polygon fill="#9a32cd" stroke="#9a32cd" points="393.695,-73.3252 403.083,-78.2349 398.806,-68.542 393.695,-73.3252"/>
<text text-anchor="middle" x="422.5" y="-46.5" font-family="Helvetica,sans-Serif" font-size="10.00"> exceptionBAOS</text>
</g>
<!-- Node9 -->
<g id="node9" class="node"><title>Node9</title>
<polygon fill="white" stroke="#bfbfbf" points="490,-78.5 490,-97.5 558,-97.5 558,-78.5 490,-78.5"/>
<text text-anchor="middle" x="524" y="-85.5" font-family="Helvetica,sans-Serif" font-size="10.00">PrintStream</text>
</g>
<!-- Node9&#45;&gt;Node1 -->
<g id="edge9" class="edge"><title>Node9&#45;&gt;Node1</title>
<path fill="none" stroke="#9a32cd" stroke-dasharray="5,2" d="M508.407,-70.8679C496.882,-59.9095 480.254,-46.0029 463,-38 426.984,-21.2947 381.09,-14.9212 352.116,-12.4922"/>
<polygon fill="#9a32cd" stroke="#9a32cd" points="506.258,-73.6647 515.833,-78.1997 511.176,-68.6833 506.258,-73.6647"/>
<text text-anchor="middle" x="524.5" y="-46.5" font-family="Helvetica,sans-Serif" font-size="10.00"> exceptionPS</text>
</g>
</g>
</svg>
