<?xml version="1.0" encoding="UTF-8" standalone="no"?>
<!DOCTYPE svg PUBLIC "-//W3C//DTD SVG 1.1//EN"
 "http://www.w3.org/Graphics/SVG/1.1/DTD/svg11.dtd">
<!-- Generated by graphviz version 2.38.0 (20140413.2041)
 -->
<!-- Title: Configuration Pages: 1 -->
<svg width="659pt" height="156pt"
 viewBox="0.00 0.00 659.00 155.50" xmlns="http://www.w3.org/2000/svg" xmlns:xlink="http://www.w3.org/1999/xlink">
<g id="graph0" class="graph" transform="scale(1 1) rotate(0) translate(4 151.5)">
<title>Configuration</title>
<polygon fill="white" stroke="none" points="-4,4 -4,-151.5 655,-151.5 655,4 -4,4"/>
<!-- Node1 -->
<g id="node1" class="node"><title>Node1</title>
<polygon fill="#bfbfbf" stroke="black" points="264,-73.5 264,-92.5 338,-92.5 338,-73.5 264,-73.5"/>
<text text-anchor="middle" x="301" y="-80.5" font-family="Helvetica,sans-Serif" font-size="10.00">Configuration</text>
</g>
<!-- Node6 -->
<g id="node6" class="node"><title>Node6</title>
<g id="a_node6"><a xlink:href="classcom_1_1aworx_1_1lib_1_1config_1_1ConfigurationPlugIn.html" target="_top" xlink:title="ConfigurationPlugIn">
<polygon fill="white" stroke="black" points="405,-73.5 405,-92.5 507,-92.5 507,-73.5 405,-73.5"/>
<text text-anchor="middle" x="456" y="-80.5" font-family="Helvetica,sans-Serif" font-size="10.00">ConfigurationPlugIn</text>
</a>
</g>
</g>
<!-- Node1&#45;&gt;Node6 -->
<g id="edge7" class="edge"><title>Node1&#45;&gt;Node6</title>
<path fill="none" stroke="#9a32cd" stroke-dasharray="5,2" d="M348.418,-83C366.242,-83 386.659,-83 404.821,-83"/>
<polygon fill="#9a32cd" stroke="#9a32cd" points="348.259,-79.5001 338.259,-83 348.259,-86.5001 348.259,-79.5001"/>
<text text-anchor="middle" x="371.5" y="-86" font-family="Helvetica,sans-Serif" font-size="10.00"> parent</text>
</g>
<!-- Node2 -->
<g id="node2" class="node"><title>Node2</title>
<polygon fill="white" stroke="#bfbfbf" points="1.5,-117 1.5,-147 159.5,-147 159.5,-117 1.5,-117"/>
<text text-anchor="start" x="9.5" y="-135" font-family="Helvetica,sans-Serif" font-size="10.00">ArrayList&lt; com.aworx.lib.config.</text>
<text text-anchor="middle" x="80.5" y="-124" font-family="Helvetica,sans-Serif" font-size="10.00">Configuration.PluginAndPrio &gt;</text>
</g>
<!-- Node2&#45;&gt;Node1 -->
<g id="edge1" class="edge"><title>Node2&#45;&gt;Node1</title>
<path fill="none" stroke="#9a32cd" stroke-dasharray="5,2" d="M169.666,-114.914C194.435,-109.806 221.337,-103.967 246,-98 252.809,-96.3526 260.06,-94.4453 266.965,-92.5547"/>
<polygon fill="#9a32cd" stroke="#9a32cd" points="168.656,-111.548 159.561,-116.982 170.06,-118.406 168.656,-111.548"/>
<text text-anchor="middle" x="212.5" y="-115" font-family="Helvetica,sans-Serif" font-size="10.00"> plugins</text>
</g>
<!-- Node3 -->
<g id="node3" class="node"><title>Node3</title>
<polygon fill="white" stroke="#bfbfbf" points="0,-68 0,-98 161,-98 161,-68 0,-68"/>
<text text-anchor="start" x="8" y="-86" font-family="Helvetica,sans-Serif" font-size="10.00">ArrayList&lt; com.aworx.lib.strings.</text>
<text text-anchor="middle" x="80.5" y="-75" font-family="Helvetica,sans-Serif" font-size="10.00">AString &gt;</text>
</g>
<!-- Node3&#45;&gt;Node1 -->
<g id="edge2" class="edge"><title>Node3&#45;&gt;Node1</title>
<path fill="none" stroke="#9a32cd" stroke-dasharray="5,2" d="M171.024,-83C203.613,-83 238.624,-83 263.934,-83"/>
<polygon fill="#9a32cd" stroke="#9a32cd" points="171.002,-79.5001 161.002,-83 171.002,-86.5001 171.002,-79.5001"/>
<text text-anchor="middle" x="212.5" y="-86" font-family="Helvetica,sans-Serif" font-size="10.00"> trueValues</text>
</g>
<!-- Node4 -->
<g id="node4" class="node"><title>Node4</title>
<g id="a_node4"><a xlink:href="classcom_1_1aworx_1_1lib_1_1strings_1_1NumberFormat.html" target="_top" xlink:title="NumberFormat">
<polygon fill="white" stroke="black" points="39.5,-0.5 39.5,-19.5 121.5,-19.5 121.5,-0.5 39.5,-0.5"/>
<text text-anchor="middle" x="80.5" y="-7.5" font-family="Helvetica,sans-Serif" font-size="10.00">NumberFormat</text>
</a>
</g>
</g>
<!-- Node4&#45;&gt;Node1 -->
<g id="edge3" class="edge"><title>Node4&#45;&gt;Node1</title>
<path fill="none" stroke="#9a32cd" stroke-dasharray="5,2" d="M119.676,-22.7546C162.971,-37.219 232.575,-60.4736 271.428,-73.4542"/>
<polygon fill="#9a32cd" stroke="#9a32cd" points="120.659,-19.3927 110.065,-19.5435 118.441,-26.032 120.659,-19.3927"/>
<text text-anchor="middle" x="212.5" y="-67" font-family="Helvetica,sans-Serif" font-size="10.00"> numberFormat</text>
</g>
<!-- Node4&#45;&gt;Node4 -->
<g id="edge4" class="edge"><title>Node4&#45;&gt;Node4</title>
<path fill="none" stroke="#9a32cd" stroke-dasharray="5,2" d="M55.9465,-29.0292C57.2858,-34.128 65.4703,-38 80.5,-38 103.961,-38 110.743,-28.5653 100.845,-19.7571"/>
<polygon fill="#9a32cd" stroke="#9a32cd" points="59.209,-30.3096 60.155,-19.7571 52.8348,-27.4164 59.209,-30.3096"/>
<text text-anchor="middle" x="80.5" y="-41" font-family="Helvetica,sans-Serif" font-size="10.00"> global</text>
</g>
<!-- Node5 -->
<g id="node5" class="node"><title>Node5</title>
<g id="a_node5"><a xlink:href="classcom_1_1aworx_1_1lib_1_1config_1_1EnvironmentPlugIn.html" target="_top" xlink:title="EnvironmentPlugIn">
<polygon fill="white" stroke="black" points="548,-101.5 548,-120.5 647,-120.5 647,-101.5 548,-101.5"/>
<text text-anchor="middle" x="597.5" y="-108.5" font-family="Helvetica,sans-Serif" font-size="10.00">EnvironmentPlugIn</text>
</a>
</g>
</g>
<!-- Node5&#45;&gt;Node1 -->
<g id="edge5" class="edge"><title>Node5&#45;&gt;Node1</title>
<path fill="none" stroke="#9a32cd" stroke-dasharray="5,2" d="M537.634,-111.808C488.659,-111.53 417.301,-108.914 356,-98 348.241,-96.6185 339.986,-94.6095 332.325,-92.5085"/>
<polygon fill="#9a32cd" stroke="#9a32cd" points="537.724,-115.309 547.733,-111.835 537.742,-108.309 537.724,-115.309"/>
<text text-anchor="middle" x="456" y="-114" font-family="Helvetica,sans-Serif" font-size="10.00"> envCP</text>
</g>
<!-- Node6&#45;&gt;Node5 -->
<g id="edge6" class="edge"><title>Node6&#45;&gt;Node5</title>
<path fill="none" stroke="midnightblue" d="M514.564,-94.5541C526.053,-96.8601 537.997,-99.2575 549.097,-101.485"/>
<polygon fill="midnightblue" stroke="midnightblue" points="515.111,-91.0941 504.618,-92.5577 513.733,-97.9573 515.111,-91.0941"/>
</g>
<!-- Node7 -->
<g id="node7" class="node"><title>Node7</title>
<g id="a_node7"><a xlink:href="classcom_1_1aworx_1_1lib_1_1config_1_1CommandLinePlugIn.html" target="_top" xlink:title="CommandLinePlugIn">
<polygon fill="white" stroke="black" points="544,-54.5 544,-73.5 651,-73.5 651,-54.5 544,-54.5"/>
<text text-anchor="middle" x="597.5" y="-61.5" font-family="Helvetica,sans-Serif" font-size="10.00">CommandLinePlugIn</text>
</a>
</g>
</g>
<!-- Node6&#45;&gt;Node7 -->
<g id="edge9" class="edge"><title>Node6&#45;&gt;Node7</title>
<path fill="none" stroke="midnightblue" d="M517.531,-74.7557C526.299,-73.5615 535.264,-72.3404 543.86,-71.1695"/>
<polygon fill="midnightblue" stroke="midnightblue" points="516.799,-71.323 507.363,-76.1406 517.744,-78.2589 516.799,-71.323"/>
</g>
<!-- Node7&#45;&gt;Node1 -->
<g id="edge8" class="edge"><title>Node7&#45;&gt;Node1</title>
<path fill="none" stroke="#9a32cd" stroke-dasharray="5,2" d="M533.619,-55.2894C524.699,-54.3404 515.628,-53.5282 507,-53 461.751,-50.2298 449.879,-46.5973 405,-53 377.896,-56.8669 347.957,-66.1847 327.376,-73.4184"/>
<polygon fill="#9a32cd" stroke="#9a32cd" points="533.266,-58.7717 543.594,-56.4111 534.048,-51.8155 533.266,-58.7717"/>
<text text-anchor="middle" x="456" y="-56" font-family="Helvetica,sans-Serif" font-size="10.00"> cmdLineCP</text>
</g>
</g>
</svg>
