<?xml version="1.0" encoding="UTF-8" standalone="no"?>
<!DOCTYPE svg PUBLIC "-//W3C//DTD SVG 1.1//EN"
 "http://www.w3.org/Graphics/SVG/1.1/DTD/svg11.dtd">
<!-- Generated by graphviz version 2.38.0 (20140413.2041)
 -->
<!-- Title: MetaInfo Pages: 1 -->
<svg width="693pt" height="243pt"
 viewBox="0.00 0.00 692.50 243.00" xmlns="http://www.w3.org/2000/svg" xmlns:xlink="http://www.w3.org/1999/xlink">
<g id="graph0" class="graph" transform="scale(1 1) rotate(0) translate(4 239)">
<title>MetaInfo</title>
<polygon fill="white" stroke="none" points="-4,4 -4,-239 688.5,-239 688.5,4 -4,4"/>
<!-- Node1 -->
<g id="node1" class="node"><title>Node1</title>
<polygon fill="#bfbfbf" stroke="black" points="248,-0.5 248,-19.5 303,-19.5 303,-0.5 248,-0.5"/>
<text text-anchor="middle" x="275.5" y="-7.5" font-family="Helvetica,sans-Serif" font-size="10.00">MetaInfo</text>
</g>
<!-- Node2 -->
<g id="node2" class="node"><title>Node2</title>
<g id="a_node2"><a xlink:href="classcom_1_1aworx_1_1lib_1_1strings_1_1Tokenizer.html" target="_top" xlink:title="Tokenizer">
<polygon fill="white" stroke="black" points="0,-79.5 0,-98.5 59,-98.5 59,-79.5 0,-79.5"/>
<text text-anchor="middle" x="29.5" y="-86.5" font-family="Helvetica,sans-Serif" font-size="10.00">Tokenizer</text>
</a>
</g>
</g>
<!-- Node2&#45;&gt;Node1 -->
<g id="edge1" class="edge"><title>Node2&#45;&gt;Node1</title>
<path fill="none" stroke="#9a32cd" stroke-dasharray="5,2" d="M35.4039,-69.6572C39.9348,-58.6469 47.3378,-45.3851 58.5,-38 88.9743,-17.8376 196.317,-12.7309 247.694,-11.438"/>
<polygon fill="#9a32cd" stroke="#9a32cd" points="32.0407,-68.6644 31.9108,-79.2584 38.6189,-71.0577 32.0407,-68.6644"/>
<text text-anchor="middle" x="70" y="-46.5" font-family="Helvetica,sans-Serif" font-size="10.00"> tTok</text>
</g>
<!-- Node3 -->
<g id="node3" class="node"><title>Node3</title>
<g id="a_node3"><a xlink:href="classcom_1_1aworx_1_1lib_1_1strings_1_1Substring.html" target="_top" xlink:title="Substring">
<polygon fill="white" stroke="black" points="5.5,-158.5 5.5,-177.5 63.5,-177.5 63.5,-158.5 5.5,-158.5"/>
<text text-anchor="middle" x="34.5" y="-165.5" font-family="Helvetica,sans-Serif" font-size="10.00">Substring</text>
</a>
</g>
</g>
<!-- Node3&#45;&gt;Node2 -->
<g id="edge2" class="edge"><title>Node3&#45;&gt;Node2</title>
<path fill="none" stroke="#9a32cd" stroke-dasharray="5,2" d="M33.2867,-148.315C32.2657,-132.592 30.8512,-110.808 30.072,-98.8094"/>
<polygon fill="#9a32cd" stroke="#9a32cd" points="29.8051,-148.713 33.9458,-158.465 36.7904,-148.26 29.8051,-148.713"/>
<text text-anchor="middle" x="47" y="-132" font-family="Helvetica,sans-Serif" font-size="10.00"> rest</text>
<text text-anchor="middle" x="47" y="-121" font-family="Helvetica,sans-Serif" font-size="10.00">actual</text>
</g>
<!-- Node4 -->
<g id="node4" class="node"><title>Node4</title>
<polygon fill="white" stroke="#bfbfbf" points="31,-215.5 31,-234.5 112,-234.5 112,-215.5 31,-215.5"/>
<text text-anchor="middle" x="71.5" y="-222.5" font-family="Helvetica,sans-Serif" font-size="10.00">CharSequence</text>
</g>
<!-- Node4&#45;&gt;Node3 -->
<g id="edge3" class="edge"><title>Node4&#45;&gt;Node3</title>
<path fill="none" stroke="midnightblue" d="M60.0203,-206.936C53.5054,-197.251 45.6267,-185.54 40.3628,-177.715"/>
<polygon fill="midnightblue" stroke="midnightblue" points="57.2329,-209.063 65.7188,-215.406 63.041,-205.155 57.2329,-209.063"/>
</g>
<!-- Node7 -->
<g id="node7" class="node"><title>Node7</title>
<g id="a_node7"><a xlink:href="classcom_1_1aworx_1_1lib_1_1strings_1_1AString.html" target="_top" xlink:title="AString">
<polygon fill="white" stroke="black" points="70,-119.5 70,-138.5 119,-138.5 119,-119.5 70,-119.5"/>
<text text-anchor="middle" x="94.5" y="-126.5" font-family="Helvetica,sans-Serif" font-size="10.00">AString</text>
</a>
</g>
</g>
<!-- Node4&#45;&gt;Node7 -->
<g id="edge7" class="edge"><title>Node4&#45;&gt;Node7</title>
<path fill="none" stroke="midnightblue" d="M76.0451,-205.424C80.9922,-185.206 88.6893,-153.748 92.3826,-138.654"/>
<polygon fill="midnightblue" stroke="midnightblue" points="72.5996,-204.78 73.6226,-215.325 79.399,-206.444 72.5996,-204.78"/>
</g>
<!-- Node5 -->
<g id="node5" class="node"><title>Node5</title>
<g id="a_node5"><a xlink:href="classcom_1_1aworx_1_1lib_1_1time_1_1TickSpan.html" target="_top" xlink:title="TickSpan">
<polygon fill="white" stroke="black" points="162.5,-79.5 162.5,-98.5 220.5,-98.5 220.5,-79.5 162.5,-79.5"/>
<text text-anchor="middle" x="191.5" y="-86.5" font-family="Helvetica,sans-Serif" font-size="10.00">TickSpan</text>
</a>
</g>
</g>
<!-- Node5&#45;&gt;Node1 -->
<g id="edge4" class="edge"><title>Node5&#45;&gt;Node1</title>
<path fill="none" stroke="#9a32cd" stroke-dasharray="5,2" d="M204.1,-71.077C212.161,-60.8617 223.197,-47.9425 234.5,-38 242.435,-31.02 252.303,-24.4671 260.369,-19.5653"/>
<polygon fill="#9a32cd" stroke="#9a32cd" points="201.165,-69.1525 197.85,-79.2153 206.717,-73.4162 201.165,-69.1525"/>
<text text-anchor="middle" x="253" y="-46.5" font-family="Helvetica,sans-Serif" font-size="10.00"> elapsed</text>
</g>
<!-- Node6 -->
<g id="node6" class="node"><title>Node6</title>
<polygon fill="white" stroke="#bfbfbf" points="239,-79.5 239,-98.5 312,-98.5 312,-79.5 239,-79.5"/>
<text text-anchor="middle" x="275.5" y="-86.5" font-family="Helvetica,sans-Serif" font-size="10.00">FieldPosition</text>
</g>
<!-- Node6&#45;&gt;Node1 -->
<g id="edge5" class="edge"><title>Node6&#45;&gt;Node1</title>
<path fill="none" stroke="#9a32cd" stroke-dasharray="5,2" d="M275.5,-69.3145C275.5,-53.5917 275.5,-31.8079 275.5,-19.8094"/>
<polygon fill="#9a32cd" stroke="#9a32cd" points="272,-69.4654 275.5,-79.4655 279,-69.4655 272,-69.4654"/>
<text text-anchor="middle" x="313.5" y="-46.5" font-family="Helvetica,sans-Serif" font-size="10.00"> fieldPositionZero</text>
</g>
<!-- Node7&#45;&gt;Node1 -->
<g id="edge6" class="edge"><title>Node7&#45;&gt;Node1</title>
<path fill="none" stroke="#9a32cd" stroke-dasharray="5,2" d="M94.0701,-109.105C94.7897,-98.8567 97.3189,-86.5711 104.5,-78 140.949,-34.4956 209.383,-19.0977 247.701,-13.7534"/>
<polygon fill="#9a32cd" stroke="#9a32cd" points="90.5699,-109.083 93.865,-119.153 97.5685,-109.226 90.5699,-109.083"/>
<text text-anchor="middle" x="129" y="-92" font-family="Helvetica,sans-Serif" font-size="10.00"> format</text>
<text text-anchor="middle" x="129" y="-81" font-family="Helvetica,sans-Serif" font-size="10.00">tmpAString</text>
</g>
<!-- Node8 -->
<g id="node8" class="node"><title>Node8</title>
<polygon fill="white" stroke="#bfbfbf" points="330.5,-79.5 330.5,-98.5 428.5,-98.5 428.5,-79.5 330.5,-79.5"/>
<text text-anchor="middle" x="379.5" y="-86.5" font-family="Helvetica,sans-Serif" font-size="10.00">GregorianCalendar</text>
</g>
<!-- Node8&#45;&gt;Node1 -->
<g id="edge8" class="edge"><title>Node8&#45;&gt;Node1</title>
<path fill="none" stroke="#9a32cd" stroke-dasharray="5,2" d="M374.636,-69.7359C370.963,-59.1573 364.91,-46.3269 355.5,-38 340.899,-25.0805 319.877,-18.2976 303.046,-14.762"/>
<polygon fill="#9a32cd" stroke="#9a32cd" points="371.291,-70.7667 377.552,-79.3137 377.988,-68.7279 371.291,-70.7667"/>
<text text-anchor="middle" x="413" y="-46.5" font-family="Helvetica,sans-Serif" font-size="10.00"> callerDateTimeCal</text>
</g>
<!-- Node9 -->
<g id="node9" class="node"><title>Node9</title>
<polygon fill="white" stroke="#bfbfbf" points="446.5,-79.5 446.5,-98.5 544.5,-98.5 544.5,-79.5 446.5,-79.5"/>
<text text-anchor="middle" x="495.5" y="-86.5" font-family="Helvetica,sans-Serif" font-size="10.00">SimpleDateFormat</text>
</g>
<!-- Node9&#45;&gt;Node1 -->
<g id="edge9" class="edge"><title>Node9&#45;&gt;Node1</title>
<path fill="none" stroke="#9a32cd" stroke-dasharray="5,2" d="M487.211,-70.0146C481.141,-58.9457 471.816,-45.4875 459.5,-38 433.774,-22.3601 347.876,-15.1782 303.133,-12.4313"/>
<polygon fill="#9a32cd" stroke="#9a32cd" points="484.244,-71.906 491.863,-79.2684 490.499,-68.7618 484.244,-71.906"/>
<text text-anchor="middle" x="525.5" y="-52" font-family="Helvetica,sans-Serif" font-size="10.00"> dateFormatter</text>
<text text-anchor="middle" x="525.5" y="-41" font-family="Helvetica,sans-Serif" font-size="10.00">timeOfDayFormatter</text>
</g>
<!-- Node10 -->
<g id="node10" class="node"><title>Node10</title>
<polygon fill="white" stroke="#bfbfbf" points="585.5,-79.5 585.5,-98.5 623.5,-98.5 623.5,-79.5 585.5,-79.5"/>
<text text-anchor="middle" x="604.5" y="-86.5" font-family="Helvetica,sans-Serif" font-size="10.00">Date</text>
</g>
<!-- Node10&#45;&gt;Node1 -->
<g id="edge10" class="edge"><title>Node10&#45;&gt;Node1</title>
<path fill="none" stroke="#9a32cd" stroke-dasharray="5,2" d="M598.317,-69.5122C593.601,-58.445 585.938,-45.1744 574.5,-38 529.794,-9.95831 368.728,-9.3854 303.36,-10.3706"/>
<polygon fill="#9a32cd" stroke="#9a32cd" points="595.159,-71.0563 601.964,-79.1769 601.708,-68.5852 595.159,-71.0563"/>
<text text-anchor="middle" x="639" y="-46.5" font-family="Helvetica,sans-Serif" font-size="10.00"> callerDateTimeDate</text>
</g>
</g>
</svg>
