<?xml version="1.0" encoding="UTF-8" standalone="no"?>
<!DOCTYPE svg PUBLIC "-//W3C//DTD SVG 1.1//EN"
 "http://www.w3.org/Graphics/SVG/1.1/DTD/svg11.dtd">
<!-- Generated by graphviz version 2.40.1 (20161225.0304)
 -->
<!-- Title: FormatterStdImpl Pages: 1 -->
<svg width="240pt" height="140pt"
 viewBox="0.00 0.00 240.00 140.00" xmlns="http://www.w3.org/2000/svg" xmlns:xlink="http://www.w3.org/1999/xlink">
<g id="graph0" class="graph" transform="scale(1 1) rotate(0) translate(4 136)">
<title>FormatterStdImpl</title>
<polygon fill="#ffffff" stroke="transparent" points="-4,4 -4,-136 236,-136 236,4 -4,4"/>
<!-- Node0 -->
<g id="node1" class="node">
<title>Node0</title>
<polygon fill="#bfbfbf" stroke="#000000" points="67,-56.5 67,-75.5 159,-75.5 159,-56.5 67,-56.5"/>
<text text-anchor="middle" x="113" y="-63.5" font-family="Helvetica,sans-Serif" font-size="10.00" fill="#000000">FormatterStdImpl</text>
</g>
<!-- Node2 -->
<g id="node3" class="node">
<title>Node2</title>
<g id="a_node3"><a xlink:href="classcom_1_1aworx_1_1lib_1_1strings_1_1FormatterJavaStyle.html" target="_top" xlink:title="FormatterJavaStyle">
<polygon fill="#ffffff" stroke="#000000" points="0,-.5 0,-19.5 102,-19.5 102,-.5 0,-.5"/>
<text text-anchor="middle" x="51" y="-7.5" font-family="Helvetica,sans-Serif" font-size="10.00" fill="#000000">FormatterJavaStyle</text>
</a>
</g>
</g>
<!-- Node0&#45;&gt;Node2 -->
<g id="edge2" class="edge">
<title>Node0&#45;&gt;Node2</title>
<path fill="none" stroke="#191970" d="M94.5779,-49.3607C83.8519,-39.6727 70.7066,-27.7995 61.6758,-19.6427"/>
<polygon fill="#191970" stroke="#191970" points="92.4334,-52.14 102.2004,-56.2455 97.1254,-46.9453 92.4334,-52.14"/>
</g>
<!-- Node3 -->
<g id="node4" class="node">
<title>Node3</title>
<g id="a_node4"><a xlink:href="classcom_1_1aworx_1_1lib_1_1strings_1_1FormatterPythonStyle.html" target="_top" xlink:title="FormatterPythonStyle">
<polygon fill="#ffffff" stroke="#000000" points="120,-.5 120,-19.5 232,-19.5 232,-.5 120,-.5"/>
<text text-anchor="middle" x="176" y="-7.5" font-family="Helvetica,sans-Serif" font-size="10.00" fill="#000000">FormatterPythonStyle</text>
</a>
</g>
</g>
<!-- Node0&#45;&gt;Node3 -->
<g id="edge3" class="edge">
<title>Node0&#45;&gt;Node3</title>
<path fill="none" stroke="#191970" d="M131.7192,-49.3607C142.6182,-39.6727 155.9755,-27.7995 165.152,-19.6427"/>
<polygon fill="#191970" stroke="#191970" points="129.1226,-46.9859 123.9738,-56.2455 133.7732,-52.2178 129.1226,-46.9859"/>
</g>
<!-- Node1 -->
<g id="node2" class="node">
<title>Node1</title>
<g id="a_node2"><a xlink:href="classcom_1_1aworx_1_1lib_1_1strings_1_1Formatter.html" target="_top" xlink:title="Formatter">
<polygon fill="#ffffff" stroke="#000000" points="83.5,-112.5 83.5,-131.5 142.5,-131.5 142.5,-112.5 83.5,-112.5"/>
<text text-anchor="middle" x="113" y="-119.5" font-family="Helvetica,sans-Serif" font-size="10.00" fill="#000000">Formatter</text>
</a>
</g>
</g>
<!-- Node1&#45;&gt;Node0 -->
<g id="edge1" class="edge">
<title>Node1&#45;&gt;Node0</title>
<path fill="none" stroke="#191970" d="M113,-102.1575C113,-93.155 113,-82.9199 113,-75.6427"/>
<polygon fill="#191970" stroke="#191970" points="109.5001,-102.2455 113,-112.2455 116.5001,-102.2456 109.5001,-102.2455"/>
</g>
</g>
</svg>
